M48
; DRILL file {KiCad 5.1.6-c6e7f7d~87~ubuntu18.04.1} date Sat Aug 15 23:02:46 2020
; FORMAT={3:3/ absolute / metric / suppress leading zeros}
; #@! TF.CreationDate,2020-08-15T23:02:46+05:30
; #@! TF.GenerationSoftware,Kicad,Pcbnew,5.1.6-c6e7f7d~87~ubuntu18.04.1
FMAT,2
METRIC,TZ
T1C0.398
T2C0.400
T3C0.500
T4C0.800
T5C1.000
%
G90
G05
T1
X117996Y-87747
T2
X89852Y-66731
X97624Y-64281
X98020Y-62421
X99244Y-82100
X100198Y-81141
X101618Y-64655
X102633Y-84400
X103877Y-64794
X103903Y-66546
X104717Y-67523
X107556Y-58365
X109886Y-67782
X110392Y-82100
X110926Y-87198
X111105Y-69628
X111902Y-74983
X112022Y-72130
X112247Y-69203
X112358Y-77596
X112497Y-67999
X112661Y-66896
X112742Y-60337
X112873Y-81141
X113155Y-64092
X113469Y-68015
X113491Y-70279
X114069Y-58556
X114093Y-52637
X114373Y-69363
X114828Y-55638
X116342Y-88346
X116712Y-59172
X116950Y-87494
X118013Y-84402
X118130Y-77890
X118374Y-89183
X118645Y-56653
X119108Y-85789
T3
X117912Y-67739
X117912Y-69639
T4
X98471Y-74983
X98471Y-79883
T5
X102862Y-92116
X105402Y-92116
X107942Y-92116
X110482Y-92116
X113022Y-92116
X121953Y-51968
X121953Y-54508
X121953Y-57048
X121953Y-59588
X121953Y-62128
X121953Y-64668
X121953Y-67208
X121953Y-69748
X121953Y-72288
X121953Y-74828
X121953Y-77368
X121953Y-79908
X92514Y-52850
X92514Y-55390
X92514Y-57930
X92514Y-60470
X92514Y-63010
X92514Y-65550
X92514Y-68090
X92514Y-70630
X92514Y-73170
X92514Y-75710
X92514Y-78250
X92514Y-80790
X125067Y-92131
X85905Y-92151
X88445Y-92151
X90985Y-92151
X93525Y-92151
X96065Y-92151
T0
M30
