G04 #@! TF.GenerationSoftware,KiCad,Pcbnew,5.1.7-a382d34a8~88~ubuntu18.04.1*
G04 #@! TF.CreationDate,2021-05-31T17:25:42+05:30*
G04 #@! TF.ProjectId,Sensor_PCB_v5,53656e73-6f72-45f5-9043-425f76352e6b,rev?*
G04 #@! TF.SameCoordinates,Original*
G04 #@! TF.FileFunction,Copper,L1,Top*
G04 #@! TF.FilePolarity,Positive*
%FSLAX46Y46*%
G04 Gerber Fmt 4.6, Leading zero omitted, Abs format (unit mm)*
G04 Created by KiCad (PCBNEW 5.1.7-a382d34a8~88~ubuntu18.04.1) date 2021-05-31 17:25:42*
%MOMM*%
%LPD*%
G01*
G04 APERTURE LIST*
G04 #@! TA.AperFunction,ComponentPad*
%ADD10C,2.150000*%
G04 #@! TD*
G04 #@! TA.AperFunction,ComponentPad*
%ADD11C,1.524000*%
G04 #@! TD*
G04 #@! TA.AperFunction,SMDPad,CuDef*
%ADD12R,1.750000X3.000000*%
G04 #@! TD*
G04 #@! TA.AperFunction,SMDPad,CuDef*
%ADD13R,3.110000X1.580000*%
G04 #@! TD*
G04 #@! TA.AperFunction,ComponentPad*
%ADD14O,1.200000X2.000000*%
G04 #@! TD*
G04 #@! TA.AperFunction,SMDPad,CuDef*
%ADD15R,2.000000X2.000000*%
G04 #@! TD*
G04 #@! TA.AperFunction,SMDPad,CuDef*
%ADD16R,0.400000X1.350000*%
G04 #@! TD*
G04 #@! TA.AperFunction,ComponentPad*
%ADD17O,1.100000X1.300000*%
G04 #@! TD*
G04 #@! TA.AperFunction,ComponentPad*
%ADD18R,1.700000X1.700000*%
G04 #@! TD*
G04 #@! TA.AperFunction,ComponentPad*
%ADD19O,1.700000X1.700000*%
G04 #@! TD*
G04 #@! TA.AperFunction,SMDPad,CuDef*
%ADD20R,1.000000X0.800000*%
G04 #@! TD*
G04 #@! TA.AperFunction,SMDPad,CuDef*
%ADD21R,0.700000X1.100000*%
G04 #@! TD*
G04 #@! TA.AperFunction,SMDPad,CuDef*
%ADD22R,0.900000X0.800000*%
G04 #@! TD*
G04 #@! TA.AperFunction,SMDPad,CuDef*
%ADD23R,1.200000X1.700000*%
G04 #@! TD*
G04 #@! TA.AperFunction,ComponentPad*
%ADD24C,0.100000*%
G04 #@! TD*
G04 #@! TA.AperFunction,ComponentPad*
%ADD25C,1.500000*%
G04 #@! TD*
G04 #@! TA.AperFunction,ComponentPad*
%ADD26C,2.000000*%
G04 #@! TD*
G04 #@! TA.AperFunction,SMDPad,CuDef*
%ADD27R,1.000000X1.250000*%
G04 #@! TD*
G04 #@! TA.AperFunction,SMDPad,CuDef*
%ADD28R,0.700000X1.300000*%
G04 #@! TD*
G04 #@! TA.AperFunction,ViaPad*
%ADD29C,1.000000*%
G04 #@! TD*
G04 #@! TA.AperFunction,Conductor*
%ADD30C,0.800000*%
G04 #@! TD*
G04 #@! TA.AperFunction,Conductor*
%ADD31C,0.200000*%
G04 #@! TD*
G04 #@! TA.AperFunction,Conductor*
%ADD32C,0.254000*%
G04 #@! TD*
G04 #@! TA.AperFunction,Conductor*
%ADD33C,0.100000*%
G04 #@! TD*
G04 APERTURE END LIST*
D10*
X25206960Y-87741760D03*
X57998360Y-21450300D03*
X25224740Y-21264880D03*
D11*
X28323900Y-44656100D03*
X28333900Y-47196100D03*
D12*
X48665400Y-39593700D03*
X39965400Y-39593700D03*
D13*
X44963700Y-30358100D03*
X39963700Y-30358100D03*
D14*
X51677600Y-86741000D03*
D15*
X55252600Y-86741000D03*
D14*
X58827600Y-86741000D03*
D16*
X53952600Y-84066000D03*
X54602600Y-84066000D03*
X55252600Y-84066000D03*
X55902600Y-84066000D03*
X56552600Y-84066000D03*
D17*
X52827600Y-83991000D03*
X57677600Y-83991000D03*
D11*
X28224800Y-26324900D03*
X28234800Y-28864900D03*
X28298500Y-35557800D03*
X28308500Y-38097800D03*
X55107500Y-60744100D03*
X55107500Y-63284100D03*
X55107500Y-65824100D03*
X55107500Y-68364100D03*
D18*
X35679400Y-86669900D03*
D19*
X38219400Y-86669900D03*
X40759400Y-86669900D03*
X43299400Y-86669900D03*
X45839400Y-86669900D03*
X48379400Y-86669900D03*
D20*
X43082500Y-20274900D03*
X43082500Y-22574900D03*
X50582500Y-20274900D03*
X50582500Y-22574900D03*
D21*
X44582500Y-23474900D03*
X46082500Y-23474900D03*
X49082500Y-23474900D03*
D22*
X37541200Y-49833800D03*
X37541200Y-51933800D03*
D18*
X56200000Y-79926200D03*
D19*
X56200000Y-77386200D03*
X56200000Y-74846200D03*
X56200000Y-72306200D03*
D23*
X25204700Y-68526400D03*
X27204700Y-68526400D03*
X29204700Y-68526400D03*
X31204700Y-68526400D03*
X33204700Y-68526400D03*
X35204700Y-68526400D03*
X37204700Y-68526400D03*
X39204700Y-68526400D03*
X39204700Y-83756400D03*
X37204700Y-83756400D03*
X35204700Y-83756400D03*
X33204700Y-83756400D03*
X31204700Y-83756400D03*
X29204700Y-83756400D03*
X27204700Y-83756400D03*
X25204700Y-83756400D03*
D18*
X29255700Y-87609700D03*
X55473600Y-47475100D03*
D19*
X55473600Y-50015100D03*
X55473600Y-52555100D03*
X55473600Y-55095100D03*
D22*
X33733700Y-23085100D03*
X33733700Y-25185100D03*
G04 #@! TA.AperFunction,ComponentPad*
G36*
G01*
X54234500Y-22516614D02*
X54234500Y-22516614D01*
G75*
G02*
X53005077Y-22187191I-450000J779423D01*
G01*
X53005077Y-22187191D01*
G75*
G02*
X53334500Y-20957768I779423J450000D01*
G01*
X53334500Y-20957768D01*
G75*
G02*
X54563923Y-21287191I450000J-779423D01*
G01*
X54563923Y-21287191D01*
G75*
G02*
X54234500Y-22516614I-779423J-450000D01*
G01*
G37*
G04 #@! TD.AperFunction*
G04 #@! TA.AperFunction,ComponentPad*
D24*
G36*
X57553923Y-26466023D02*
G01*
X55995077Y-27366023D01*
X55095077Y-25807177D01*
X56653923Y-24907177D01*
X57553923Y-26466023D01*
G37*
G04 #@! TD.AperFunction*
D25*
X46454100Y-52830100D03*
X46454100Y-47950100D03*
X27223700Y-55598100D03*
X27223700Y-60478100D03*
D26*
X44371100Y-78079600D03*
X44371100Y-73579600D03*
X50871100Y-78079600D03*
X50871100Y-73579600D03*
D13*
X58120900Y-32250400D03*
X53120900Y-32250400D03*
D27*
X34156100Y-37365900D03*
X36156100Y-37365900D03*
D22*
X45885100Y-82721200D03*
X45885100Y-80621200D03*
X42707600Y-80636400D03*
X42707600Y-82736400D03*
X36092600Y-43002200D03*
X36092600Y-41102200D03*
X34092600Y-42052200D03*
D28*
X37625000Y-47246500D03*
X35725000Y-47246500D03*
D29*
X40762089Y-57936480D03*
X37773306Y-62018537D03*
X35936705Y-62571784D03*
X42463700Y-30433600D03*
X36042600Y-76042520D03*
X47324000Y-25233500D03*
X40535860Y-54292500D03*
X31930342Y-59504580D03*
X35919700Y-65826600D03*
X28895500Y-65137700D03*
X29891100Y-62333100D03*
X30370500Y-22162600D03*
X31308040Y-57421780D03*
X40959643Y-66193457D03*
X31976060Y-80436720D03*
X34991040Y-70375780D03*
X37909500Y-70591590D03*
X33182560Y-54201060D03*
X43230800Y-54876700D03*
X44737020Y-56296560D03*
X57851040Y-34518600D03*
X34033460Y-35123120D03*
X39091327Y-66946053D03*
X32469858Y-56475190D03*
X35227260Y-39126160D03*
X37762180Y-38986460D03*
X31440120Y-45689520D03*
X44698920Y-60147290D03*
X48505500Y-36952500D03*
X54904640Y-39832280D03*
X53159660Y-86586060D03*
X50502820Y-88206580D03*
X48191420Y-84144090D03*
X48740060Y-81107280D03*
X37317680Y-57619900D03*
X31744920Y-63347600D03*
X32544930Y-61886373D03*
X38402416Y-58216277D03*
X34399220Y-51094640D03*
X40120264Y-56843812D03*
X35987431Y-58105373D03*
X37292280Y-59987180D03*
X35625703Y-60171749D03*
X35524440Y-52113180D03*
X39411503Y-61222522D03*
X44516600Y-82653400D03*
X40916800Y-78705300D03*
X36383300Y-54008100D03*
D30*
X25204700Y-83756400D02*
X25204700Y-85206700D01*
X29255700Y-87609700D02*
X27805400Y-87609700D01*
X27805400Y-87609700D02*
X25402400Y-85206700D01*
X25402400Y-85206700D02*
X25204700Y-85206700D01*
D31*
X50871100Y-73579600D02*
X44371100Y-73579600D01*
X41347720Y-57936480D02*
X40762089Y-57936480D01*
X46454100Y-52830100D02*
X41347720Y-57936480D01*
X31470139Y-60304581D02*
X33013357Y-60304581D01*
X27223700Y-56658760D02*
X30453521Y-59888581D01*
X30453521Y-59888581D02*
X31054139Y-59888581D01*
X34480553Y-61771777D02*
X36158775Y-61771777D01*
X36158775Y-61771777D02*
X36194225Y-61807227D01*
X36194225Y-61807227D02*
X37561996Y-61807227D01*
X27223700Y-55598100D02*
X27223700Y-56658760D01*
X37561996Y-61807227D02*
X37773306Y-62018537D01*
X33013357Y-60304581D02*
X34480553Y-61771777D01*
X31054139Y-59888581D02*
X31470139Y-60304581D01*
X34388945Y-62571784D02*
X35936705Y-62571784D01*
X27223700Y-60478100D02*
X30401960Y-60478100D01*
X30401960Y-60478100D02*
X31010231Y-61086371D01*
X32903532Y-61086371D02*
X34388945Y-62571784D01*
X31010231Y-61086371D02*
X32903532Y-61086371D01*
X44963700Y-30358100D02*
X44963700Y-29267800D01*
X44582500Y-23474900D02*
X44582500Y-28886600D01*
X44582500Y-28886600D02*
X44963700Y-29267800D01*
X42463700Y-30433600D02*
X43032900Y-30433600D01*
X43032900Y-30433600D02*
X43108400Y-30358100D01*
X41140700Y-39593700D02*
X42463700Y-38270700D01*
X42463700Y-38270700D02*
X42463700Y-30433600D01*
X44963700Y-30358100D02*
X43108400Y-30358100D01*
X39965400Y-39593700D02*
X41140700Y-39593700D01*
X42707600Y-80286200D02*
X42707600Y-79364200D01*
X42707600Y-79364200D02*
X38186300Y-74842900D01*
X38186300Y-74842900D02*
X38142200Y-74842900D01*
X30466200Y-40255500D02*
X28308500Y-38097800D01*
X33355800Y-37365900D02*
X30466200Y-40255500D01*
X34156100Y-37365900D02*
X33355800Y-37365900D01*
X42707600Y-80286200D02*
X44799800Y-80286200D01*
X44799800Y-80286200D02*
X45134800Y-80621200D01*
X45885100Y-80621200D02*
X45134800Y-80621200D01*
X42707600Y-80636400D02*
X42707600Y-80286200D01*
X37242220Y-74842900D02*
X36042600Y-76042520D01*
X38142200Y-74842900D02*
X37242220Y-74842900D01*
X46082500Y-23474900D02*
X46082500Y-22624600D01*
X33733700Y-25185100D02*
X41797600Y-25185100D01*
X41797600Y-25185100D02*
X43882900Y-23099800D01*
X43882900Y-23099800D02*
X43882900Y-22832400D01*
X43882900Y-22832400D02*
X44090700Y-22624600D01*
X44090700Y-22624600D02*
X46082500Y-22624600D01*
X46082500Y-23474900D02*
X46082500Y-24325200D01*
X47324000Y-25233500D02*
X46415700Y-24325200D01*
X46415700Y-24325200D02*
X46082500Y-24325200D01*
X48379400Y-86669900D02*
X47229100Y-86669900D01*
X29204700Y-83756400D02*
X30105000Y-83756400D01*
X30105000Y-83756400D02*
X30105000Y-84544200D01*
X30105000Y-84544200D02*
X31065200Y-85504400D01*
X31065200Y-85504400D02*
X46301900Y-85504400D01*
X46301900Y-85504400D02*
X47229100Y-86431600D01*
X47229100Y-86431600D02*
X47229100Y-86669900D01*
X36085780Y-67417478D02*
X36085780Y-65992680D01*
X33204700Y-75619700D02*
X36085780Y-72738620D01*
X36104701Y-67436399D02*
X36085780Y-67417478D01*
X33204700Y-83756400D02*
X33204700Y-75619700D01*
X36085780Y-72738620D02*
X36085780Y-69635322D01*
X36085780Y-65992680D02*
X35919700Y-65826600D01*
X36085780Y-69635322D02*
X36104701Y-69616401D01*
X36104701Y-69616401D02*
X36104701Y-67436399D01*
X28895500Y-65137700D02*
X27204700Y-66828500D01*
X27204700Y-66828500D02*
X27204700Y-68526400D01*
X29204700Y-68526400D02*
X29204700Y-67376100D01*
X29204700Y-67376100D02*
X29891100Y-66689700D01*
X29891100Y-66689700D02*
X29891100Y-62333100D01*
X33733700Y-23085100D02*
X33733700Y-22384800D01*
X30370500Y-22162600D02*
X33511500Y-22162600D01*
X33511500Y-22162600D02*
X33733700Y-22384800D01*
X55473600Y-50015100D02*
X42082760Y-50015100D01*
X42082760Y-50015100D02*
X34676080Y-57421780D01*
X34676080Y-57421780D02*
X31308040Y-57421780D01*
X44371100Y-78079600D02*
X50871100Y-78079600D01*
X27204700Y-83756400D02*
X27204700Y-81540320D01*
X28308300Y-80436720D02*
X31976060Y-80436720D01*
X27204700Y-81540320D02*
X28308300Y-80436720D01*
X57602600Y-84066000D02*
X57677600Y-83991000D01*
X56552600Y-84066000D02*
X57602600Y-84066000D01*
X52977601Y-88041001D02*
X52977601Y-88044841D01*
X51677600Y-86741000D02*
X52977601Y-88041001D01*
X52977601Y-88044841D02*
X53268880Y-88336120D01*
X57232480Y-88336120D02*
X58827600Y-86741000D01*
X53268880Y-88336120D02*
X57232480Y-88336120D01*
X27054080Y-70375780D02*
X34991040Y-70375780D01*
X25204700Y-68526400D02*
X27054080Y-70375780D01*
X39204700Y-68526400D02*
X39204700Y-69296390D01*
X39204700Y-69296390D02*
X37909500Y-70591590D01*
X57851040Y-32520260D02*
X58120900Y-32250400D01*
X57851040Y-34518600D02*
X57851040Y-32520260D01*
X58120900Y-24800799D02*
X58120900Y-32250400D01*
X55057292Y-21737191D02*
X58120900Y-24800799D01*
X53784500Y-21737191D02*
X55057292Y-21737191D01*
X28733180Y-35123120D02*
X28298500Y-35557800D01*
X34033460Y-35123120D02*
X28733180Y-35123120D01*
X36156100Y-36538654D02*
X36156100Y-37365900D01*
X34740566Y-35123120D02*
X36156100Y-36538654D01*
X34033460Y-35123120D02*
X34740566Y-35123120D01*
X39204700Y-68526400D02*
X39204700Y-67059426D01*
X39204700Y-67059426D02*
X39091327Y-66946053D01*
X33182560Y-55762488D02*
X32469858Y-56475190D01*
X33182560Y-54201060D02*
X33182560Y-55762488D01*
X31440120Y-42913300D02*
X35227260Y-39126160D01*
X31440120Y-45689520D02*
X31440120Y-42913300D01*
X36156100Y-37380380D02*
X36156100Y-37365900D01*
X37762180Y-38986460D02*
X36156100Y-37380380D01*
X44737020Y-56296560D02*
X44737020Y-60109190D01*
X44737020Y-60109190D02*
X44698920Y-60147290D01*
X55473600Y-55095100D02*
X55473600Y-53944800D01*
X53120900Y-32250400D02*
X53120900Y-33340700D01*
X53120900Y-33340700D02*
X56628400Y-36848200D01*
X56628400Y-36848200D02*
X56628400Y-53028300D01*
X56628400Y-53028300D02*
X55711900Y-53944800D01*
X55711900Y-53944800D02*
X55473600Y-53944800D01*
X48505500Y-36952500D02*
X48665400Y-37112400D01*
X48665400Y-37112400D02*
X48665400Y-39593700D01*
X48665400Y-39593700D02*
X48665400Y-42213800D01*
X48665400Y-42213800D02*
X50815240Y-44363640D01*
X50815240Y-44363640D02*
X54025800Y-44363640D01*
X54904640Y-43484800D02*
X54904640Y-39832280D01*
X54025800Y-44363640D02*
X54904640Y-43484800D01*
X43299400Y-86669900D02*
X44449700Y-86669900D01*
X44449700Y-86669900D02*
X44449700Y-86957500D01*
X44449700Y-86957500D02*
X45333300Y-87841100D01*
X50137340Y-87841100D02*
X50502820Y-88206580D01*
X47663380Y-87841100D02*
X50137340Y-87841100D01*
X45333300Y-87841100D02*
X47663380Y-87841100D01*
X45885100Y-81321500D02*
X48191420Y-83627820D01*
X45885100Y-80621200D02*
X45885100Y-81321500D01*
X48191420Y-83627820D02*
X48191420Y-84144090D01*
X53952600Y-83090700D02*
X51969180Y-81107280D01*
X51969180Y-81107280D02*
X48740060Y-81107280D01*
X53952600Y-84066000D02*
X53952600Y-83090700D01*
X35004382Y-61371766D02*
X31854398Y-58221782D01*
X37038280Y-72783120D02*
X37038280Y-69857620D01*
X30508038Y-56230982D02*
X30466200Y-56189144D01*
X36349479Y-61396781D02*
X36324464Y-61371766D01*
X37866021Y-69676401D02*
X38044701Y-69676401D01*
X38104701Y-67436399D02*
X38044701Y-67376399D01*
X37673543Y-60993119D02*
X37269881Y-61396781D01*
X38573306Y-62371364D02*
X38573306Y-61506604D01*
X37726620Y-63218050D02*
X38573306Y-62371364D01*
X31854398Y-58221782D02*
X30924038Y-58221782D01*
X38044701Y-67376399D02*
X37726620Y-67376399D01*
X37726620Y-67376399D02*
X37726620Y-63218050D01*
X38044701Y-69676401D02*
X38104701Y-69616401D01*
X30508038Y-57805782D02*
X30508038Y-56230982D01*
X36324464Y-61371766D02*
X35004382Y-61371766D01*
X30466200Y-56189144D02*
X30466200Y-40255500D01*
X30924038Y-58221782D02*
X30508038Y-57805782D01*
X37981200Y-69791580D02*
X37866021Y-69676401D01*
X38142200Y-73887040D02*
X37038280Y-72783120D01*
X37269881Y-61396781D02*
X36349479Y-61396781D01*
X38142200Y-74842900D02*
X38142200Y-73887040D01*
X37104320Y-69791580D02*
X37981200Y-69791580D01*
X38059821Y-60993119D02*
X37673543Y-60993119D01*
X37038280Y-69857620D02*
X37104320Y-69791580D01*
X38104701Y-69616401D02*
X38104701Y-67436399D01*
X38573306Y-61506604D02*
X38059821Y-60993119D01*
X41581490Y-58871270D02*
X39999791Y-58871270D01*
X51074320Y-68364100D02*
X41581490Y-58871270D01*
X39202421Y-55625939D02*
X39202421Y-58073900D01*
X55107500Y-68364100D02*
X51074320Y-68364100D01*
X39999791Y-58871270D02*
X39202421Y-58073900D01*
X40535860Y-54292500D02*
X39202421Y-55625939D01*
X39202421Y-58073900D02*
X39202421Y-59335930D01*
X39202421Y-59335930D02*
X39192383Y-59345968D01*
X37777842Y-58787168D02*
X37317680Y-58327006D01*
X37317680Y-58327006D02*
X37317680Y-57619900D01*
X39192383Y-59345968D02*
X38400770Y-59345968D01*
X38400770Y-59345968D02*
X37841970Y-58787168D01*
X37841970Y-58787168D02*
X37777842Y-58787168D01*
X31211520Y-59504580D02*
X31930342Y-59504580D01*
X26619200Y-52955000D02*
X29301440Y-55637240D01*
X28044300Y-36827800D02*
X26619200Y-38252900D01*
X29609700Y-36827800D02*
X28044300Y-36827800D01*
X29997000Y-36440500D02*
X29609700Y-36827800D01*
X29301440Y-55637240D02*
X29301440Y-57594500D01*
X41067000Y-41394100D02*
X38633700Y-41394100D01*
X29301440Y-57594500D02*
X31211520Y-59504580D01*
X56324500Y-26136600D02*
X41067000Y-41394100D01*
X34832100Y-36440500D02*
X29997000Y-36440500D01*
X35355700Y-38116100D02*
X35355700Y-36964100D01*
X26619200Y-38252900D02*
X26619200Y-52955000D01*
X38633700Y-41394100D02*
X35355700Y-38116100D01*
X35355700Y-36964100D02*
X34832100Y-36440500D01*
X31204700Y-63887820D02*
X31744920Y-63347600D01*
X31204700Y-68526400D02*
X31204700Y-63887820D01*
X33204700Y-68526400D02*
X33204700Y-62546143D01*
X33204700Y-62546143D02*
X32544930Y-61886373D01*
X42532899Y-51705101D02*
X41175400Y-53062600D01*
X38402416Y-55292118D02*
X38402416Y-58216277D01*
X40631934Y-53062600D02*
X38402416Y-55292118D01*
X55473600Y-52555100D02*
X54623601Y-51705101D01*
X41175400Y-53062600D02*
X40631934Y-53062600D01*
X54623601Y-51705101D02*
X42532899Y-51705101D01*
X45658210Y-79711990D02*
X43844650Y-79711990D01*
X50688700Y-82956900D02*
X50229700Y-82497900D01*
X31342400Y-84944100D02*
X49702300Y-84944100D01*
X40959643Y-76826983D02*
X40959643Y-66193457D01*
X43844650Y-79711990D02*
X40959643Y-76826983D01*
X48786241Y-82514341D02*
X48018239Y-82514341D01*
X49702300Y-84944100D02*
X50688700Y-83957700D01*
X50688700Y-83957700D02*
X50688700Y-82956900D01*
X31204700Y-83756400D02*
X31204700Y-84806400D01*
X31204700Y-84806400D02*
X31342400Y-84944100D01*
X50229700Y-82497900D02*
X48802682Y-82497900D01*
X48018239Y-82514341D02*
X47602239Y-82098341D01*
X48802682Y-82497900D02*
X48786241Y-82514341D01*
X47602239Y-82098341D02*
X47602239Y-81582359D01*
X47602239Y-81582359D02*
X46635101Y-80615221D01*
X46635101Y-80615221D02*
X46635101Y-79981199D01*
X46575101Y-79921199D02*
X45867419Y-79921199D01*
X46635101Y-79981199D02*
X46575101Y-79921199D01*
X45867419Y-79921199D02*
X45658210Y-79711990D01*
X35660060Y-49833800D02*
X34399220Y-51094640D01*
X37541200Y-49833800D02*
X35660060Y-49833800D01*
X51677600Y-85878640D02*
X51677600Y-86741000D01*
X52827600Y-83991000D02*
X52827600Y-84728640D01*
X52827600Y-84728640D02*
X51677600Y-85878640D01*
X42087376Y-54876700D02*
X40120264Y-56843812D01*
X43230800Y-54876700D02*
X42087376Y-54876700D01*
X35987431Y-58105373D02*
X34653318Y-59439486D01*
X34653318Y-59439486D02*
X34653318Y-60337735D01*
X36307705Y-60971755D02*
X37292280Y-59987180D01*
X35287338Y-60971755D02*
X36307705Y-60971755D01*
X34653318Y-60337735D02*
X35287338Y-60971755D01*
X38244681Y-59755579D02*
X37676281Y-59187179D01*
X53520360Y-72306200D02*
X40969739Y-59755579D01*
X40969739Y-59755579D02*
X38244681Y-59755579D01*
X37676281Y-59187179D02*
X36610273Y-59187179D01*
X56200000Y-72306200D02*
X53520360Y-72306200D01*
X36610273Y-59187179D02*
X35625703Y-60171749D01*
X35703820Y-51933800D02*
X35524440Y-52113180D01*
X37541200Y-51933800D02*
X35703820Y-51933800D01*
X53159660Y-86586060D02*
X53159660Y-85878954D01*
X52969700Y-79860680D02*
X52969700Y-73834814D01*
X54770020Y-81661000D02*
X52969700Y-79860680D01*
X57815480Y-81661000D02*
X54770020Y-81661000D01*
X58816240Y-84589620D02*
X58816240Y-82661760D01*
X58816240Y-82661760D02*
X57815480Y-81661000D01*
X53159660Y-85878954D02*
X53597914Y-85440700D01*
X52969700Y-73834814D02*
X40357408Y-61222522D01*
X53597914Y-85440700D02*
X57965160Y-85440700D01*
X40357408Y-61222522D02*
X39411503Y-61222522D01*
X57965160Y-85440700D02*
X58816240Y-84589620D01*
X45885100Y-82721200D02*
X45134800Y-82721200D01*
X44516600Y-82653400D02*
X45067000Y-82653400D01*
X45067000Y-82653400D02*
X45134800Y-82721200D01*
X42707600Y-82736400D02*
X42707600Y-82036100D01*
X40916800Y-78705300D02*
X40916800Y-80245300D01*
X40916800Y-80245300D02*
X42707600Y-82036100D01*
X36092600Y-43002200D02*
X36092600Y-43702500D01*
X37625000Y-47246500D02*
X37625000Y-45234900D01*
X37625000Y-45234900D02*
X36092600Y-43702500D01*
X35676194Y-54008100D02*
X36383300Y-54008100D01*
X33233360Y-51565266D02*
X35676194Y-54008100D01*
X35725000Y-47246500D02*
X35175000Y-47246500D01*
X35175000Y-47246500D02*
X33233360Y-49188140D01*
X33233360Y-49188140D02*
X33233360Y-51565266D01*
X34092600Y-42052200D02*
X46126360Y-42052200D01*
X51549260Y-47475100D02*
X55473600Y-47475100D01*
X46126360Y-42052200D02*
X51549260Y-47475100D01*
D32*
X59836663Y-30845594D02*
X59800382Y-30834588D01*
X59675900Y-30822328D01*
X58406650Y-30825400D01*
X58247900Y-30984150D01*
X58247900Y-32123400D01*
X58267900Y-32123400D01*
X58267900Y-32377400D01*
X58247900Y-32377400D01*
X58247900Y-33516650D01*
X58406650Y-33675400D01*
X59675900Y-33678472D01*
X59800382Y-33666212D01*
X59827112Y-33658104D01*
X59651332Y-85417835D01*
X59611074Y-85377922D01*
X59408133Y-85243579D01*
X59261662Y-85183645D01*
X59310437Y-85134870D01*
X59338477Y-85111858D01*
X59361490Y-85083817D01*
X59361493Y-85083814D01*
X59409184Y-85025702D01*
X59430327Y-84999940D01*
X59498577Y-84872253D01*
X59540605Y-84733705D01*
X59551240Y-84625725D01*
X59551240Y-84625724D01*
X59554796Y-84589620D01*
X59551240Y-84553515D01*
X59551240Y-82697854D01*
X59554795Y-82661759D01*
X59551240Y-82625664D01*
X59551240Y-82625655D01*
X59540605Y-82517675D01*
X59498577Y-82379127D01*
X59430327Y-82251440D01*
X59338478Y-82139522D01*
X59310433Y-82116506D01*
X58360738Y-81166812D01*
X58337718Y-81138762D01*
X58225800Y-81046913D01*
X58098113Y-80978663D01*
X57959565Y-80936635D01*
X57851585Y-80926000D01*
X57815480Y-80922444D01*
X57779375Y-80926000D01*
X57668132Y-80926000D01*
X57675812Y-80900682D01*
X57688072Y-80776200D01*
X57688072Y-79076200D01*
X57675812Y-78951718D01*
X57639502Y-78832020D01*
X57580537Y-78721706D01*
X57501185Y-78625015D01*
X57404494Y-78545663D01*
X57294180Y-78486698D01*
X57213534Y-78462234D01*
X57297588Y-78386469D01*
X57471641Y-78153120D01*
X57596825Y-77890299D01*
X57641476Y-77743090D01*
X57520155Y-77513200D01*
X56327000Y-77513200D01*
X56327000Y-77533200D01*
X56073000Y-77533200D01*
X56073000Y-77513200D01*
X54879845Y-77513200D01*
X54758524Y-77743090D01*
X54803175Y-77890299D01*
X54928359Y-78153120D01*
X55102412Y-78386469D01*
X55186466Y-78462234D01*
X55105820Y-78486698D01*
X54995506Y-78545663D01*
X54898815Y-78625015D01*
X54819463Y-78721706D01*
X54760498Y-78832020D01*
X54724188Y-78951718D01*
X54711928Y-79076200D01*
X54711928Y-80563461D01*
X53704700Y-79556234D01*
X53704700Y-73870908D01*
X53708255Y-73834813D01*
X53704700Y-73798718D01*
X53704700Y-73798709D01*
X53694065Y-73690729D01*
X53652037Y-73552181D01*
X53583787Y-73424494D01*
X53491938Y-73312576D01*
X53463893Y-73289560D01*
X53024048Y-72849715D01*
X53110040Y-72920287D01*
X53237727Y-72988537D01*
X53376275Y-73030565D01*
X53484255Y-73041200D01*
X53484264Y-73041200D01*
X53520359Y-73044755D01*
X53556454Y-73041200D01*
X54905117Y-73041200D01*
X55046525Y-73252832D01*
X55253368Y-73459675D01*
X55427760Y-73576200D01*
X55253368Y-73692725D01*
X55046525Y-73899568D01*
X54884010Y-74142789D01*
X54772068Y-74413042D01*
X54715000Y-74699940D01*
X54715000Y-74992460D01*
X54772068Y-75279358D01*
X54884010Y-75549611D01*
X55046525Y-75792832D01*
X55253368Y-75999675D01*
X55435534Y-76121395D01*
X55318645Y-76191022D01*
X55102412Y-76385931D01*
X54928359Y-76619280D01*
X54803175Y-76882101D01*
X54758524Y-77029310D01*
X54879845Y-77259200D01*
X56073000Y-77259200D01*
X56073000Y-77239200D01*
X56327000Y-77239200D01*
X56327000Y-77259200D01*
X57520155Y-77259200D01*
X57641476Y-77029310D01*
X57596825Y-76882101D01*
X57471641Y-76619280D01*
X57297588Y-76385931D01*
X57081355Y-76191022D01*
X56964466Y-76121395D01*
X57146632Y-75999675D01*
X57353475Y-75792832D01*
X57515990Y-75549611D01*
X57627932Y-75279358D01*
X57685000Y-74992460D01*
X57685000Y-74699940D01*
X57627932Y-74413042D01*
X57515990Y-74142789D01*
X57353475Y-73899568D01*
X57146632Y-73692725D01*
X56972240Y-73576200D01*
X57146632Y-73459675D01*
X57353475Y-73252832D01*
X57515990Y-73009611D01*
X57627932Y-72739358D01*
X57685000Y-72452460D01*
X57685000Y-72159940D01*
X57627932Y-71873042D01*
X57515990Y-71602789D01*
X57353475Y-71359568D01*
X57146632Y-71152725D01*
X56903411Y-70990210D01*
X56633158Y-70878268D01*
X56346260Y-70821200D01*
X56053740Y-70821200D01*
X55766842Y-70878268D01*
X55496589Y-70990210D01*
X55253368Y-71152725D01*
X55046525Y-71359568D01*
X54905117Y-71571200D01*
X53824807Y-71571200D01*
X51352707Y-69099100D01*
X53918455Y-69099100D01*
X54022380Y-69254635D01*
X54216965Y-69449220D01*
X54445773Y-69602105D01*
X54700010Y-69707414D01*
X54969908Y-69761100D01*
X55245092Y-69761100D01*
X55514990Y-69707414D01*
X55769227Y-69602105D01*
X55998035Y-69449220D01*
X56192620Y-69254635D01*
X56345505Y-69025827D01*
X56450814Y-68771590D01*
X56504500Y-68501692D01*
X56504500Y-68226508D01*
X56450814Y-67956610D01*
X56345505Y-67702373D01*
X56192620Y-67473565D01*
X55998035Y-67278980D01*
X55769227Y-67126095D01*
X55697557Y-67096408D01*
X55710523Y-67091736D01*
X55826480Y-67029756D01*
X55893460Y-66789665D01*
X55107500Y-66003705D01*
X54321540Y-66789665D01*
X54388520Y-67029756D01*
X54524260Y-67093585D01*
X54445773Y-67126095D01*
X54216965Y-67278980D01*
X54022380Y-67473565D01*
X53918455Y-67629100D01*
X51378767Y-67629100D01*
X49645784Y-65896117D01*
X53705590Y-65896117D01*
X53746578Y-66168233D01*
X53839864Y-66427123D01*
X53901844Y-66543080D01*
X54141935Y-66610060D01*
X54927895Y-65824100D01*
X55287105Y-65824100D01*
X56073065Y-66610060D01*
X56313156Y-66543080D01*
X56430256Y-66294052D01*
X56496523Y-66026965D01*
X56509410Y-65752083D01*
X56468422Y-65479967D01*
X56375136Y-65221077D01*
X56313156Y-65105120D01*
X56073065Y-65038140D01*
X55287105Y-65824100D01*
X54927895Y-65824100D01*
X54141935Y-65038140D01*
X53901844Y-65105120D01*
X53784744Y-65354148D01*
X53718477Y-65621235D01*
X53705590Y-65896117D01*
X49645784Y-65896117D01*
X44356175Y-60606508D01*
X53710500Y-60606508D01*
X53710500Y-60881692D01*
X53764186Y-61151590D01*
X53869495Y-61405827D01*
X54022380Y-61634635D01*
X54216965Y-61829220D01*
X54445773Y-61982105D01*
X54523015Y-62014100D01*
X54445773Y-62046095D01*
X54216965Y-62198980D01*
X54022380Y-62393565D01*
X53869495Y-62622373D01*
X53764186Y-62876610D01*
X53710500Y-63146508D01*
X53710500Y-63421692D01*
X53764186Y-63691590D01*
X53869495Y-63945827D01*
X54022380Y-64174635D01*
X54216965Y-64369220D01*
X54445773Y-64522105D01*
X54517443Y-64551792D01*
X54504477Y-64556464D01*
X54388520Y-64618444D01*
X54321540Y-64858535D01*
X55107500Y-65644495D01*
X55893460Y-64858535D01*
X55826480Y-64618444D01*
X55690740Y-64554615D01*
X55769227Y-64522105D01*
X55998035Y-64369220D01*
X56192620Y-64174635D01*
X56345505Y-63945827D01*
X56450814Y-63691590D01*
X56504500Y-63421692D01*
X56504500Y-63146508D01*
X56450814Y-62876610D01*
X56345505Y-62622373D01*
X56192620Y-62393565D01*
X55998035Y-62198980D01*
X55769227Y-62046095D01*
X55691985Y-62014100D01*
X55769227Y-61982105D01*
X55998035Y-61829220D01*
X56192620Y-61634635D01*
X56345505Y-61405827D01*
X56450814Y-61151590D01*
X56504500Y-60881692D01*
X56504500Y-60606508D01*
X56450814Y-60336610D01*
X56345505Y-60082373D01*
X56192620Y-59853565D01*
X55998035Y-59658980D01*
X55769227Y-59506095D01*
X55514990Y-59400786D01*
X55245092Y-59347100D01*
X54969908Y-59347100D01*
X54700010Y-59400786D01*
X54445773Y-59506095D01*
X54216965Y-59658980D01*
X54022380Y-59853565D01*
X53869495Y-60082373D01*
X53764186Y-60336610D01*
X53710500Y-60606508D01*
X44356175Y-60606508D01*
X42126749Y-58377083D01*
X42103728Y-58349032D01*
X42032813Y-58290833D01*
X46143246Y-54180401D01*
X46317689Y-54215100D01*
X46590511Y-54215100D01*
X46858089Y-54161875D01*
X47110143Y-54057471D01*
X47336986Y-53905899D01*
X47529899Y-53712986D01*
X47681471Y-53486143D01*
X47785875Y-53234089D01*
X47839100Y-52966511D01*
X47839100Y-52693689D01*
X47788658Y-52440101D01*
X53988600Y-52440101D01*
X53988600Y-52701360D01*
X54045668Y-52988258D01*
X54157610Y-53258511D01*
X54320125Y-53501732D01*
X54526968Y-53708575D01*
X54701360Y-53825100D01*
X54526968Y-53941625D01*
X54320125Y-54148468D01*
X54157610Y-54391689D01*
X54045668Y-54661942D01*
X53988600Y-54948840D01*
X53988600Y-55241360D01*
X54045668Y-55528258D01*
X54157610Y-55798511D01*
X54320125Y-56041732D01*
X54526968Y-56248575D01*
X54770189Y-56411090D01*
X55040442Y-56523032D01*
X55327340Y-56580100D01*
X55619860Y-56580100D01*
X55906758Y-56523032D01*
X56177011Y-56411090D01*
X56420232Y-56248575D01*
X56627075Y-56041732D01*
X56789590Y-55798511D01*
X56901532Y-55528258D01*
X56958600Y-55241360D01*
X56958600Y-54948840D01*
X56901532Y-54661942D01*
X56789590Y-54391689D01*
X56627075Y-54148468D01*
X56587377Y-54108770D01*
X57122593Y-53573554D01*
X57150638Y-53550538D01*
X57242487Y-53438620D01*
X57292403Y-53345234D01*
X57310737Y-53310934D01*
X57352765Y-53172385D01*
X57366956Y-53028300D01*
X57363400Y-52992195D01*
X57363400Y-36884304D01*
X57366956Y-36848199D01*
X57352765Y-36704114D01*
X57340016Y-36662086D01*
X57310737Y-36565567D01*
X57242487Y-36437880D01*
X57189933Y-36373844D01*
X57173653Y-36354006D01*
X57173650Y-36354003D01*
X57150637Y-36325962D01*
X57122597Y-36302950D01*
X54498118Y-33678472D01*
X54675900Y-33678472D01*
X54800382Y-33666212D01*
X54920080Y-33629902D01*
X55030394Y-33570937D01*
X55127085Y-33491585D01*
X55206437Y-33394894D01*
X55265402Y-33284580D01*
X55301712Y-33164882D01*
X55313972Y-33040400D01*
X55927828Y-33040400D01*
X55940088Y-33164882D01*
X55976398Y-33284580D01*
X56035363Y-33394894D01*
X56114715Y-33491585D01*
X56211406Y-33570937D01*
X56321720Y-33629902D01*
X56441418Y-33666212D01*
X56565900Y-33678472D01*
X57835150Y-33675400D01*
X57993900Y-33516650D01*
X57993900Y-32377400D01*
X56089650Y-32377400D01*
X55930900Y-32536150D01*
X55927828Y-33040400D01*
X55313972Y-33040400D01*
X55313972Y-31460400D01*
X55927828Y-31460400D01*
X55930900Y-31964650D01*
X56089650Y-32123400D01*
X57993900Y-32123400D01*
X57993900Y-30984150D01*
X57835150Y-30825400D01*
X56565900Y-30822328D01*
X56441418Y-30834588D01*
X56321720Y-30870898D01*
X56211406Y-30929863D01*
X56114715Y-31009215D01*
X56035363Y-31105906D01*
X55976398Y-31216220D01*
X55940088Y-31335918D01*
X55927828Y-31460400D01*
X55313972Y-31460400D01*
X55301712Y-31335918D01*
X55265402Y-31216220D01*
X55206437Y-31105906D01*
X55127085Y-31009215D01*
X55030394Y-30929863D01*
X54920080Y-30870898D01*
X54800382Y-30834588D01*
X54675900Y-30822328D01*
X52678219Y-30822328D01*
X55620001Y-27880546D01*
X55712865Y-27938292D01*
X55829932Y-27982353D01*
X55953345Y-28002729D01*
X56078362Y-27998636D01*
X56200178Y-27970233D01*
X56314113Y-27918610D01*
X57872959Y-27018610D01*
X57974633Y-26945751D01*
X58060140Y-26854457D01*
X58126192Y-26748235D01*
X58170253Y-26631168D01*
X58190629Y-26507755D01*
X58186536Y-26382738D01*
X58158133Y-26260922D01*
X58106510Y-26146987D01*
X57206510Y-24588141D01*
X57133651Y-24486467D01*
X57042357Y-24400960D01*
X56936135Y-24334908D01*
X56819068Y-24290847D01*
X56695655Y-24270471D01*
X56570638Y-24274564D01*
X56448822Y-24302967D01*
X56334887Y-24354590D01*
X54776041Y-25254590D01*
X54674367Y-25327449D01*
X54588860Y-25418743D01*
X54522808Y-25524965D01*
X54478747Y-25642032D01*
X54458371Y-25765445D01*
X54462464Y-25890462D01*
X54490867Y-26012278D01*
X54542490Y-26126213D01*
X54818089Y-26603564D01*
X43198700Y-38222954D01*
X43198700Y-31747970D01*
X43284218Y-31773912D01*
X43408700Y-31786172D01*
X46518700Y-31786172D01*
X46643182Y-31773912D01*
X46762880Y-31737602D01*
X46873194Y-31678637D01*
X46969885Y-31599285D01*
X47049237Y-31502594D01*
X47108202Y-31392280D01*
X47144512Y-31272582D01*
X47156772Y-31148100D01*
X47156772Y-29568100D01*
X47144512Y-29443618D01*
X47108202Y-29323920D01*
X47049237Y-29213606D01*
X46969885Y-29116915D01*
X46873194Y-29037563D01*
X46762880Y-28978598D01*
X46643182Y-28942288D01*
X46518700Y-28930028D01*
X45616565Y-28930028D01*
X45577787Y-28857480D01*
X45485938Y-28745562D01*
X45457887Y-28722541D01*
X45317500Y-28582154D01*
X45317500Y-24530401D01*
X45332500Y-24518091D01*
X45378006Y-24555437D01*
X45385481Y-24559432D01*
X45400163Y-24607833D01*
X45468413Y-24735520D01*
X45560262Y-24847438D01*
X45672180Y-24939287D01*
X45799867Y-25007537D01*
X45938415Y-25049565D01*
X46046395Y-25060200D01*
X46082500Y-25063756D01*
X46111913Y-25060859D01*
X46189000Y-25137946D01*
X46189000Y-25345288D01*
X46232617Y-25564567D01*
X46318176Y-25771124D01*
X46442388Y-25957020D01*
X46600480Y-26115112D01*
X46786376Y-26239324D01*
X46992933Y-26324883D01*
X47212212Y-26368500D01*
X47435788Y-26368500D01*
X47655067Y-26324883D01*
X47861624Y-26239324D01*
X48047520Y-26115112D01*
X48205612Y-25957020D01*
X48329824Y-25771124D01*
X48415383Y-25564567D01*
X48459000Y-25345288D01*
X48459000Y-25121712D01*
X48415383Y-24902433D01*
X48329824Y-24695876D01*
X48205612Y-24509980D01*
X48047520Y-24351888D01*
X47861624Y-24227676D01*
X47655067Y-24142117D01*
X47435788Y-24098500D01*
X47228446Y-24098500D01*
X47070572Y-23940626D01*
X47070572Y-22924900D01*
X47058312Y-22800418D01*
X47022002Y-22680720D01*
X46963037Y-22570406D01*
X46883685Y-22473715D01*
X46786994Y-22394363D01*
X46779519Y-22390368D01*
X46764837Y-22341967D01*
X46696587Y-22214280D01*
X46604738Y-22102362D01*
X46492820Y-22010513D01*
X46365133Y-21942263D01*
X46300694Y-21922716D01*
X46375804Y-21741383D01*
X46417500Y-21531763D01*
X46417500Y-21318037D01*
X47247500Y-21318037D01*
X47247500Y-21531763D01*
X47289196Y-21741383D01*
X47370985Y-21938840D01*
X47489725Y-22116547D01*
X47640853Y-22267675D01*
X47818560Y-22386415D01*
X48016017Y-22468204D01*
X48225637Y-22509900D01*
X48251619Y-22509900D01*
X48201963Y-22570406D01*
X48142998Y-22680720D01*
X48106688Y-22800418D01*
X48094428Y-22924900D01*
X48094428Y-24024900D01*
X48106688Y-24149382D01*
X48142998Y-24269080D01*
X48201963Y-24379394D01*
X48281315Y-24476085D01*
X48378006Y-24555437D01*
X48488320Y-24614402D01*
X48608018Y-24650712D01*
X48732500Y-24662972D01*
X49432500Y-24662972D01*
X49556982Y-24650712D01*
X49676680Y-24614402D01*
X49786994Y-24555437D01*
X49883685Y-24476085D01*
X49963037Y-24379394D01*
X50022002Y-24269080D01*
X50058312Y-24149382D01*
X50070572Y-24024900D01*
X50070572Y-23611797D01*
X50082500Y-23612972D01*
X50296750Y-23609900D01*
X50455500Y-23451150D01*
X50455500Y-22701900D01*
X50709500Y-22701900D01*
X50709500Y-23451150D01*
X50868250Y-23609900D01*
X51082500Y-23612972D01*
X51206982Y-23600712D01*
X51326680Y-23564402D01*
X51436994Y-23505437D01*
X51533685Y-23426085D01*
X51613037Y-23329394D01*
X51672002Y-23219080D01*
X51708312Y-23099382D01*
X51720572Y-22974900D01*
X51717500Y-22860650D01*
X51558750Y-22701900D01*
X50709500Y-22701900D01*
X50455500Y-22701900D01*
X50435500Y-22701900D01*
X50435500Y-22532672D01*
X52660686Y-22532672D01*
X52675591Y-22798586D01*
X52903966Y-22994529D01*
X53166180Y-23142153D01*
X53452156Y-23235786D01*
X53750903Y-23271828D01*
X54050941Y-23248894D01*
X54214144Y-23210836D01*
X54359704Y-22987473D01*
X53738015Y-21910676D01*
X52660686Y-22532672D01*
X50435500Y-22532672D01*
X50435500Y-22447900D01*
X50455500Y-22447900D01*
X50455500Y-21698650D01*
X50709500Y-21698650D01*
X50709500Y-22447900D01*
X51558750Y-22447900D01*
X51717500Y-22289150D01*
X51720572Y-22174900D01*
X51708312Y-22050418D01*
X51672002Y-21930720D01*
X51640127Y-21871087D01*
X52255346Y-21871087D01*
X52310850Y-22166837D01*
X52533686Y-22312702D01*
X53449986Y-21783676D01*
X53957985Y-21783676D01*
X54579674Y-22860473D01*
X54845892Y-22846096D01*
X54960453Y-22723787D01*
X55130333Y-22475414D01*
X55248493Y-22198670D01*
X55310393Y-21904191D01*
X55313654Y-21603295D01*
X55258150Y-21307545D01*
X55218942Y-21281880D01*
X56288360Y-21281880D01*
X56288360Y-21618720D01*
X56354074Y-21949089D01*
X56482978Y-22260289D01*
X56670116Y-22540361D01*
X56908299Y-22778544D01*
X57188371Y-22965682D01*
X57499571Y-23094586D01*
X57829940Y-23160300D01*
X58166780Y-23160300D01*
X58497149Y-23094586D01*
X58808349Y-22965682D01*
X59088421Y-22778544D01*
X59326604Y-22540361D01*
X59513742Y-22260289D01*
X59642646Y-21949089D01*
X59708360Y-21618720D01*
X59708360Y-21281880D01*
X59642646Y-20951511D01*
X59513742Y-20640311D01*
X59326604Y-20360239D01*
X59088421Y-20122056D01*
X58808349Y-19934918D01*
X58497149Y-19806014D01*
X58166780Y-19740300D01*
X57829940Y-19740300D01*
X57499571Y-19806014D01*
X57188371Y-19934918D01*
X56908299Y-20122056D01*
X56670116Y-20360239D01*
X56482978Y-20640311D01*
X56354074Y-20951511D01*
X56288360Y-21281880D01*
X55218942Y-21281880D01*
X55035314Y-21161680D01*
X53957985Y-21783676D01*
X53449986Y-21783676D01*
X53611015Y-21690706D01*
X52989326Y-20613909D01*
X52723108Y-20628286D01*
X52608547Y-20750595D01*
X52438667Y-20998968D01*
X52320507Y-21275712D01*
X52258607Y-21570191D01*
X52255346Y-21871087D01*
X51640127Y-21871087D01*
X51613037Y-21820406D01*
X51533685Y-21723715D01*
X51436994Y-21644363D01*
X51326680Y-21585398D01*
X51206982Y-21549088D01*
X51082500Y-21536828D01*
X50868250Y-21539900D01*
X50709500Y-21698650D01*
X50455500Y-21698650D01*
X50296750Y-21539900D01*
X50082500Y-21536828D01*
X49958018Y-21549088D01*
X49838320Y-21585398D01*
X49728006Y-21644363D01*
X49631315Y-21723715D01*
X49551963Y-21820406D01*
X49492998Y-21930720D01*
X49456688Y-22050418D01*
X49444428Y-22174900D01*
X49447477Y-22288303D01*
X49432500Y-22286828D01*
X48995483Y-22286828D01*
X49024147Y-22267675D01*
X49175275Y-22116547D01*
X49294015Y-21938840D01*
X49375804Y-21741383D01*
X49417500Y-21531763D01*
X49417500Y-21318037D01*
X49375804Y-21108417D01*
X49294015Y-20910960D01*
X49175275Y-20733253D01*
X49116922Y-20674900D01*
X49444428Y-20674900D01*
X49456688Y-20799382D01*
X49492998Y-20919080D01*
X49551963Y-21029394D01*
X49631315Y-21126085D01*
X49728006Y-21205437D01*
X49838320Y-21264402D01*
X49958018Y-21300712D01*
X50082500Y-21312972D01*
X50296750Y-21309900D01*
X50455500Y-21151150D01*
X50455500Y-20401900D01*
X50709500Y-20401900D01*
X50709500Y-21151150D01*
X50868250Y-21309900D01*
X51082500Y-21312972D01*
X51206982Y-21300712D01*
X51326680Y-21264402D01*
X51436994Y-21205437D01*
X51533685Y-21126085D01*
X51613037Y-21029394D01*
X51672002Y-20919080D01*
X51708312Y-20799382D01*
X51720572Y-20674900D01*
X51717500Y-20560650D01*
X51643759Y-20486909D01*
X53209296Y-20486909D01*
X53830985Y-21563706D01*
X54908314Y-20941710D01*
X54893409Y-20675796D01*
X54665034Y-20479853D01*
X54402820Y-20332229D01*
X54116844Y-20238596D01*
X53818097Y-20202554D01*
X53518059Y-20225488D01*
X53354856Y-20263546D01*
X53209296Y-20486909D01*
X51643759Y-20486909D01*
X51558750Y-20401900D01*
X50709500Y-20401900D01*
X50455500Y-20401900D01*
X49606250Y-20401900D01*
X49447500Y-20560650D01*
X49444428Y-20674900D01*
X49116922Y-20674900D01*
X49024147Y-20582125D01*
X48846440Y-20463385D01*
X48648983Y-20381596D01*
X48439363Y-20339900D01*
X48225637Y-20339900D01*
X48016017Y-20381596D01*
X47818560Y-20463385D01*
X47640853Y-20582125D01*
X47489725Y-20733253D01*
X47370985Y-20910960D01*
X47289196Y-21108417D01*
X47247500Y-21318037D01*
X46417500Y-21318037D01*
X46375804Y-21108417D01*
X46294015Y-20910960D01*
X46175275Y-20733253D01*
X46024147Y-20582125D01*
X45846440Y-20463385D01*
X45648983Y-20381596D01*
X45439363Y-20339900D01*
X45225637Y-20339900D01*
X45016017Y-20381596D01*
X44818560Y-20463385D01*
X44640853Y-20582125D01*
X44489725Y-20733253D01*
X44370985Y-20910960D01*
X44289196Y-21108417D01*
X44247500Y-21318037D01*
X44247500Y-21531763D01*
X44289196Y-21741383D01*
X44350589Y-21889600D01*
X44150023Y-21889600D01*
X44113037Y-21820406D01*
X44033685Y-21723715D01*
X43936994Y-21644363D01*
X43826680Y-21585398D01*
X43706982Y-21549088D01*
X43582500Y-21536828D01*
X43368250Y-21539900D01*
X43209500Y-21698650D01*
X43209500Y-22447900D01*
X43229500Y-22447900D01*
X43229500Y-22495630D01*
X43200563Y-22549767D01*
X43160839Y-22680720D01*
X43158535Y-22688315D01*
X43155227Y-22721900D01*
X42955500Y-22721900D01*
X42955500Y-22701900D01*
X42106250Y-22701900D01*
X41947500Y-22860650D01*
X41944428Y-22974900D01*
X41956688Y-23099382D01*
X41992998Y-23219080D01*
X42051963Y-23329394D01*
X42131315Y-23426085D01*
X42228006Y-23505437D01*
X42338320Y-23564402D01*
X42369418Y-23573835D01*
X41493154Y-24450100D01*
X34724657Y-24450100D01*
X34714237Y-24430606D01*
X34634885Y-24333915D01*
X34538194Y-24254563D01*
X34427880Y-24195598D01*
X34308182Y-24159288D01*
X34183700Y-24147028D01*
X33283700Y-24147028D01*
X33159218Y-24159288D01*
X33039520Y-24195598D01*
X32929206Y-24254563D01*
X32832515Y-24333915D01*
X32753163Y-24430606D01*
X32694198Y-24540920D01*
X32657888Y-24660618D01*
X32645628Y-24785100D01*
X32645628Y-25585100D01*
X32657888Y-25709582D01*
X32694198Y-25829280D01*
X32753163Y-25939594D01*
X32832515Y-26036285D01*
X32929206Y-26115637D01*
X33039520Y-26174602D01*
X33159218Y-26210912D01*
X33283700Y-26223172D01*
X34183700Y-26223172D01*
X34308182Y-26210912D01*
X34427880Y-26174602D01*
X34538194Y-26115637D01*
X34634885Y-26036285D01*
X34714237Y-25939594D01*
X34724657Y-25920100D01*
X41761495Y-25920100D01*
X41797600Y-25923656D01*
X41833705Y-25920100D01*
X41941685Y-25909465D01*
X42080233Y-25867437D01*
X42207920Y-25799187D01*
X42319838Y-25707338D01*
X42342858Y-25679288D01*
X43681338Y-24340808D01*
X43701963Y-24379394D01*
X43781315Y-24476085D01*
X43847500Y-24530402D01*
X43847501Y-28850485D01*
X43843944Y-28886600D01*
X43848221Y-28930028D01*
X43408700Y-28930028D01*
X43284218Y-28942288D01*
X43164520Y-28978598D01*
X43054206Y-29037563D01*
X42957515Y-29116915D01*
X42878163Y-29213606D01*
X42819198Y-29323920D01*
X42811540Y-29349165D01*
X42794767Y-29342217D01*
X42575488Y-29298600D01*
X42351912Y-29298600D01*
X42132633Y-29342217D01*
X42115860Y-29349165D01*
X42108202Y-29323920D01*
X42049237Y-29213606D01*
X41969885Y-29116915D01*
X41873194Y-29037563D01*
X41762880Y-28978598D01*
X41643182Y-28942288D01*
X41518700Y-28930028D01*
X40249450Y-28933100D01*
X40090700Y-29091850D01*
X40090700Y-30231100D01*
X40110700Y-30231100D01*
X40110700Y-30485100D01*
X40090700Y-30485100D01*
X40090700Y-31624350D01*
X40249450Y-31783100D01*
X41518700Y-31786172D01*
X41643182Y-31773912D01*
X41728701Y-31747970D01*
X41728700Y-37966253D01*
X41478472Y-38216481D01*
X41478472Y-38093700D01*
X41466212Y-37969218D01*
X41429902Y-37849520D01*
X41370937Y-37739206D01*
X41291585Y-37642515D01*
X41194894Y-37563163D01*
X41084580Y-37504198D01*
X40964882Y-37467888D01*
X40840400Y-37455628D01*
X39090400Y-37455628D01*
X38965918Y-37467888D01*
X38846220Y-37504198D01*
X38735906Y-37563163D01*
X38639215Y-37642515D01*
X38559863Y-37739206D01*
X38500898Y-37849520D01*
X38464588Y-37969218D01*
X38452328Y-38093700D01*
X38452328Y-40173281D01*
X36868952Y-38589905D01*
X36900280Y-38580402D01*
X37010594Y-38521437D01*
X37107285Y-38442085D01*
X37186637Y-38345394D01*
X37245602Y-38235080D01*
X37281912Y-38115382D01*
X37294172Y-37990900D01*
X37291100Y-37651650D01*
X37132350Y-37492900D01*
X36283100Y-37492900D01*
X36283100Y-37512900D01*
X36090700Y-37512900D01*
X36090700Y-37000194D01*
X36094255Y-36964099D01*
X36090700Y-36928004D01*
X36090700Y-36927995D01*
X36080065Y-36820015D01*
X36038037Y-36681467D01*
X36029100Y-36664747D01*
X36029100Y-36264650D01*
X36283100Y-36264650D01*
X36283100Y-37238900D01*
X37132350Y-37238900D01*
X37291100Y-37080150D01*
X37294172Y-36740900D01*
X37281912Y-36616418D01*
X37245602Y-36496720D01*
X37186637Y-36386406D01*
X37107285Y-36289715D01*
X37010594Y-36210363D01*
X36900280Y-36151398D01*
X36780582Y-36115088D01*
X36656100Y-36102828D01*
X36441850Y-36105900D01*
X36283100Y-36264650D01*
X36029100Y-36264650D01*
X35870350Y-36105900D01*
X35656100Y-36102828D01*
X35544833Y-36113786D01*
X35377358Y-35946312D01*
X35354338Y-35918262D01*
X35242420Y-35826413D01*
X35114733Y-35758163D01*
X34976185Y-35716135D01*
X34868205Y-35705500D01*
X34832100Y-35701944D01*
X34795995Y-35705500D01*
X30033105Y-35705500D01*
X29997000Y-35701944D01*
X29960895Y-35705500D01*
X29852915Y-35716135D01*
X29714367Y-35758163D01*
X29684134Y-35774323D01*
X29687523Y-35760665D01*
X29700410Y-35485783D01*
X29659422Y-35213667D01*
X29566136Y-34954777D01*
X29504156Y-34838820D01*
X29264065Y-34771840D01*
X28478105Y-35557800D01*
X28492248Y-35571943D01*
X28312643Y-35751548D01*
X28298500Y-35737405D01*
X28284358Y-35751548D01*
X28104753Y-35571943D01*
X28118895Y-35557800D01*
X27332935Y-34771840D01*
X27092844Y-34838820D01*
X26975744Y-35087848D01*
X26909477Y-35354935D01*
X26896590Y-35629817D01*
X26937578Y-35901933D01*
X27030864Y-36160823D01*
X27092844Y-36276780D01*
X27332933Y-36343759D01*
X27216523Y-36460169D01*
X27294504Y-36538150D01*
X26125008Y-37707646D01*
X26096962Y-37730663D01*
X26005113Y-37842581D01*
X25936863Y-37970268D01*
X25907584Y-38066787D01*
X25894835Y-38108815D01*
X25880644Y-38252900D01*
X25884200Y-38289005D01*
X25884201Y-52918885D01*
X25880644Y-52955000D01*
X25894835Y-53099085D01*
X25917071Y-53172385D01*
X25936864Y-53237633D01*
X26005114Y-53365320D01*
X26096963Y-53477238D01*
X26125008Y-53500254D01*
X26879238Y-54254484D01*
X26819711Y-54266325D01*
X26567657Y-54370729D01*
X26340814Y-54522301D01*
X26147901Y-54715214D01*
X25996329Y-54942057D01*
X25891925Y-55194111D01*
X25838700Y-55461689D01*
X25838700Y-55734511D01*
X25891925Y-56002089D01*
X25996329Y-56254143D01*
X26147901Y-56480986D01*
X26340814Y-56673899D01*
X26496907Y-56778198D01*
X26499335Y-56802845D01*
X26532905Y-56913509D01*
X26541364Y-56941393D01*
X26609614Y-57069080D01*
X26701463Y-57180998D01*
X26729508Y-57204014D01*
X29268593Y-59743100D01*
X28398313Y-59743100D01*
X28299499Y-59595214D01*
X28106586Y-59402301D01*
X27879743Y-59250729D01*
X27627689Y-59146325D01*
X27360111Y-59093100D01*
X27087289Y-59093100D01*
X26819711Y-59146325D01*
X26567657Y-59250729D01*
X26340814Y-59402301D01*
X26147901Y-59595214D01*
X25996329Y-59822057D01*
X25891925Y-60074111D01*
X25838700Y-60341689D01*
X25838700Y-60614511D01*
X25891925Y-60882089D01*
X25996329Y-61134143D01*
X26147901Y-61360986D01*
X26340814Y-61553899D01*
X26567657Y-61705471D01*
X26819711Y-61809875D01*
X27087289Y-61863100D01*
X27360111Y-61863100D01*
X27627689Y-61809875D01*
X27879743Y-61705471D01*
X28106586Y-61553899D01*
X28299499Y-61360986D01*
X28398313Y-61213100D01*
X29703901Y-61213100D01*
X29560033Y-61241717D01*
X29353476Y-61327276D01*
X29167580Y-61451488D01*
X29009488Y-61609580D01*
X28885276Y-61795476D01*
X28799717Y-62002033D01*
X28756100Y-62221312D01*
X28756100Y-62444888D01*
X28799717Y-62664167D01*
X28885276Y-62870724D01*
X29009488Y-63056620D01*
X29156101Y-63203233D01*
X29156101Y-64032300D01*
X29007288Y-64002700D01*
X28783712Y-64002700D01*
X28564433Y-64046317D01*
X28357876Y-64131876D01*
X28171980Y-64256088D01*
X28013888Y-64414180D01*
X27889676Y-64600076D01*
X27804117Y-64806633D01*
X27760500Y-65025912D01*
X27760500Y-65233253D01*
X26710508Y-66283246D01*
X26682462Y-66306263D01*
X26590613Y-66418181D01*
X26522363Y-66545868D01*
X26503890Y-66606767D01*
X26480335Y-66684415D01*
X26466144Y-66828500D01*
X26469700Y-66864605D01*
X26469700Y-67053779D01*
X26360520Y-67086898D01*
X26250206Y-67145863D01*
X26204700Y-67183209D01*
X26159194Y-67145863D01*
X26048880Y-67086898D01*
X25929182Y-67050588D01*
X25804700Y-67038328D01*
X25490450Y-67041400D01*
X25331700Y-67200150D01*
X25331700Y-68399400D01*
X25351700Y-68399400D01*
X25351700Y-68653400D01*
X25331700Y-68653400D01*
X25331700Y-69852650D01*
X25490450Y-70011400D01*
X25804700Y-70014472D01*
X25929182Y-70002212D01*
X26048880Y-69965902D01*
X26159194Y-69906937D01*
X26204700Y-69869591D01*
X26250206Y-69906937D01*
X26360520Y-69965902D01*
X26480218Y-70002212D01*
X26604700Y-70014472D01*
X27804700Y-70014472D01*
X27929182Y-70002212D01*
X28048880Y-69965902D01*
X28159194Y-69906937D01*
X28204700Y-69869591D01*
X28250206Y-69906937D01*
X28360520Y-69965902D01*
X28480218Y-70002212D01*
X28604700Y-70014472D01*
X29804700Y-70014472D01*
X29929182Y-70002212D01*
X30048880Y-69965902D01*
X30159194Y-69906937D01*
X30204700Y-69869591D01*
X30250206Y-69906937D01*
X30360520Y-69965902D01*
X30480218Y-70002212D01*
X30604700Y-70014472D01*
X31804700Y-70014472D01*
X31929182Y-70002212D01*
X32048880Y-69965902D01*
X32159194Y-69906937D01*
X32204700Y-69869591D01*
X32250206Y-69906937D01*
X32360520Y-69965902D01*
X32480218Y-70002212D01*
X32604700Y-70014472D01*
X33804700Y-70014472D01*
X33929182Y-70002212D01*
X34048880Y-69965902D01*
X34159194Y-69906937D01*
X34204700Y-69869591D01*
X34250206Y-69906937D01*
X34360520Y-69965902D01*
X34480218Y-70002212D01*
X34604700Y-70014472D01*
X35350781Y-70014472D01*
X35350780Y-72434173D01*
X32710508Y-75074446D01*
X32682463Y-75097462D01*
X32590614Y-75209380D01*
X32587824Y-75214600D01*
X32522364Y-75337067D01*
X32480335Y-75475615D01*
X32466144Y-75619700D01*
X32469701Y-75655815D01*
X32469700Y-82283779D01*
X32360520Y-82316898D01*
X32250206Y-82375863D01*
X32204700Y-82413209D01*
X32159194Y-82375863D01*
X32048880Y-82316898D01*
X31929182Y-82280588D01*
X31804700Y-82268328D01*
X30604700Y-82268328D01*
X30480218Y-82280588D01*
X30360520Y-82316898D01*
X30250206Y-82375863D01*
X30204700Y-82413209D01*
X30159194Y-82375863D01*
X30048880Y-82316898D01*
X29929182Y-82280588D01*
X29804700Y-82268328D01*
X28604700Y-82268328D01*
X28480218Y-82280588D01*
X28360520Y-82316898D01*
X28250206Y-82375863D01*
X28204700Y-82413209D01*
X28159194Y-82375863D01*
X28048880Y-82316898D01*
X27929182Y-82280588D01*
X27804700Y-82268328D01*
X27490450Y-82271400D01*
X27331700Y-82430150D01*
X27331700Y-83629400D01*
X27351700Y-83629400D01*
X27351700Y-83883400D01*
X27331700Y-83883400D01*
X27331700Y-85082650D01*
X27490450Y-85241400D01*
X27804700Y-85244472D01*
X27929182Y-85232212D01*
X28048880Y-85195902D01*
X28159194Y-85136937D01*
X28204700Y-85099591D01*
X28250206Y-85136937D01*
X28360520Y-85195902D01*
X28480218Y-85232212D01*
X28604700Y-85244472D01*
X29765826Y-85244472D01*
X30519946Y-85998593D01*
X30542962Y-86026638D01*
X30654880Y-86118487D01*
X30782567Y-86186737D01*
X30913246Y-86226378D01*
X30921115Y-86228765D01*
X31065200Y-86242956D01*
X31101305Y-86239400D01*
X34193612Y-86239400D01*
X34194400Y-86384150D01*
X34353150Y-86542900D01*
X35552400Y-86542900D01*
X35552400Y-86522900D01*
X35806400Y-86522900D01*
X35806400Y-86542900D01*
X35826400Y-86542900D01*
X35826400Y-86796900D01*
X35806400Y-86796900D01*
X35806400Y-87996150D01*
X35965150Y-88154900D01*
X36529400Y-88157972D01*
X36653882Y-88145712D01*
X36773580Y-88109402D01*
X36883894Y-88050437D01*
X36980585Y-87971085D01*
X37059937Y-87874394D01*
X37118902Y-87764080D01*
X37140913Y-87691520D01*
X37272768Y-87823375D01*
X37515989Y-87985890D01*
X37786242Y-88097832D01*
X38073140Y-88154900D01*
X38365660Y-88154900D01*
X38652558Y-88097832D01*
X38922811Y-87985890D01*
X39166032Y-87823375D01*
X39372875Y-87616532D01*
X39489400Y-87442140D01*
X39605925Y-87616532D01*
X39812768Y-87823375D01*
X40055989Y-87985890D01*
X40326242Y-88097832D01*
X40613140Y-88154900D01*
X40905660Y-88154900D01*
X41192558Y-88097832D01*
X41462811Y-87985890D01*
X41706032Y-87823375D01*
X41912875Y-87616532D01*
X42029400Y-87442140D01*
X42145925Y-87616532D01*
X42352768Y-87823375D01*
X42595989Y-87985890D01*
X42866242Y-88097832D01*
X43153140Y-88154900D01*
X43445660Y-88154900D01*
X43732558Y-88097832D01*
X44002811Y-87985890D01*
X44246032Y-87823375D01*
X44261080Y-87808327D01*
X44788046Y-88335293D01*
X44811062Y-88363338D01*
X44922980Y-88455187D01*
X45050667Y-88523437D01*
X45143999Y-88551749D01*
X45189214Y-88565465D01*
X45203432Y-88566865D01*
X45297195Y-88576100D01*
X45297202Y-88576100D01*
X45333299Y-88579655D01*
X45369396Y-88576100D01*
X49427365Y-88576100D01*
X49496996Y-88744204D01*
X49621208Y-88930100D01*
X49779300Y-89088192D01*
X49965196Y-89212404D01*
X50171753Y-89297963D01*
X50391032Y-89341580D01*
X50614608Y-89341580D01*
X50833887Y-89297963D01*
X51040444Y-89212404D01*
X51226340Y-89088192D01*
X51384432Y-88930100D01*
X51508644Y-88744204D01*
X51594203Y-88537647D01*
X51637820Y-88318368D01*
X51637820Y-88094792D01*
X51594203Y-87875513D01*
X51550600Y-87770246D01*
X51550600Y-86868000D01*
X50442600Y-86868000D01*
X50442600Y-87071580D01*
X50391032Y-87071580D01*
X50202902Y-87109001D01*
X50173445Y-87106100D01*
X50137340Y-87102544D01*
X50101235Y-87106100D01*
X49806072Y-87106100D01*
X49807332Y-87103058D01*
X49864400Y-86816160D01*
X49864400Y-86523640D01*
X49807332Y-86236742D01*
X49797912Y-86214000D01*
X50442600Y-86214000D01*
X50442600Y-86614000D01*
X51550600Y-86614000D01*
X51550600Y-85272269D01*
X51359991Y-85147538D01*
X51322318Y-85151409D01*
X51097067Y-85243579D01*
X50894126Y-85377922D01*
X50721293Y-85549275D01*
X50585210Y-85751054D01*
X50491107Y-85975504D01*
X50442600Y-86214000D01*
X49797912Y-86214000D01*
X49695390Y-85966489D01*
X49532875Y-85723268D01*
X49488707Y-85679100D01*
X49666195Y-85679100D01*
X49702300Y-85682656D01*
X49738405Y-85679100D01*
X49846385Y-85668465D01*
X49984933Y-85626437D01*
X50112620Y-85558187D01*
X50224538Y-85466338D01*
X50247558Y-85438288D01*
X51182897Y-84502950D01*
X51210937Y-84479938D01*
X51233950Y-84451897D01*
X51233953Y-84451894D01*
X51302786Y-84368021D01*
X51302787Y-84368020D01*
X51371037Y-84240333D01*
X51413065Y-84101785D01*
X51423700Y-83993805D01*
X51423700Y-83993796D01*
X51427255Y-83957701D01*
X51423700Y-83921606D01*
X51423700Y-82993004D01*
X51427256Y-82956899D01*
X51413065Y-82812814D01*
X51399246Y-82767259D01*
X51371037Y-82674267D01*
X51302787Y-82546580D01*
X51210938Y-82434662D01*
X51182887Y-82411641D01*
X50774959Y-82003713D01*
X50751938Y-81975662D01*
X50640020Y-81883813D01*
X50562317Y-81842280D01*
X51664734Y-81842280D01*
X52683035Y-82860582D01*
X52517856Y-82747197D01*
X52356613Y-82804860D01*
X52153767Y-82917615D01*
X51976817Y-83067777D01*
X51832562Y-83249574D01*
X51726545Y-83456021D01*
X51662841Y-83679184D01*
X51802796Y-83864000D01*
X52700600Y-83864000D01*
X52700600Y-83844000D01*
X52954600Y-83844000D01*
X52954600Y-83864000D01*
X52974600Y-83864000D01*
X52974600Y-84118000D01*
X52954600Y-84118000D01*
X52954600Y-84138000D01*
X52700600Y-84138000D01*
X52700600Y-84118000D01*
X51802796Y-84118000D01*
X51662841Y-84302816D01*
X51726545Y-84525979D01*
X51832562Y-84732426D01*
X51976817Y-84914223D01*
X52153767Y-85064385D01*
X52356613Y-85177140D01*
X52517856Y-85234803D01*
X52700598Y-85109362D01*
X52700598Y-85276000D01*
X52723168Y-85276000D01*
X52665468Y-85333700D01*
X52637423Y-85356716D01*
X52548712Y-85464810D01*
X52461074Y-85377922D01*
X52258133Y-85243579D01*
X52032882Y-85151409D01*
X51995209Y-85147538D01*
X51804600Y-85272269D01*
X51804600Y-86614000D01*
X51824600Y-86614000D01*
X51824600Y-86868000D01*
X51804600Y-86868000D01*
X51804600Y-88209731D01*
X51995209Y-88334462D01*
X52032882Y-88330591D01*
X52258133Y-88238421D01*
X52461074Y-88104078D01*
X52633907Y-87932725D01*
X52769990Y-87730946D01*
X52797774Y-87664677D01*
X52828593Y-87677443D01*
X53047872Y-87721060D01*
X53271448Y-87721060D01*
X53490727Y-87677443D01*
X53614528Y-87626163D01*
X53614528Y-87741000D01*
X53626788Y-87865482D01*
X53663098Y-87985180D01*
X53722063Y-88095494D01*
X53801415Y-88192185D01*
X53898106Y-88271537D01*
X54008420Y-88330502D01*
X54128118Y-88366812D01*
X54252600Y-88379072D01*
X56252600Y-88379072D01*
X56377082Y-88366812D01*
X56496780Y-88330502D01*
X56607094Y-88271537D01*
X56703785Y-88192185D01*
X56783137Y-88095494D01*
X56842102Y-87985180D01*
X56878412Y-87865482D01*
X56890672Y-87741000D01*
X56890672Y-86868000D01*
X57592600Y-86868000D01*
X57592600Y-87268000D01*
X57641107Y-87506496D01*
X57735210Y-87730946D01*
X57871293Y-87932725D01*
X58044126Y-88104078D01*
X58247067Y-88238421D01*
X58472318Y-88330591D01*
X58509991Y-88334462D01*
X58700600Y-88209731D01*
X58700600Y-86868000D01*
X57592600Y-86868000D01*
X56890672Y-86868000D01*
X56890672Y-86175700D01*
X57600390Y-86175700D01*
X57592600Y-86214000D01*
X57592600Y-86614000D01*
X58700600Y-86614000D01*
X58700600Y-86594000D01*
X58954600Y-86594000D01*
X58954600Y-86614000D01*
X58974600Y-86614000D01*
X58974600Y-86868000D01*
X58954600Y-86868000D01*
X58954600Y-88209731D01*
X59145209Y-88334462D01*
X59182882Y-88330591D01*
X59408133Y-88238421D01*
X59611074Y-88104078D01*
X59642314Y-88073105D01*
X59637094Y-89610314D01*
X25734959Y-89373947D01*
X26016949Y-89257142D01*
X26297021Y-89070004D01*
X26535204Y-88831821D01*
X26722342Y-88551749D01*
X26851246Y-88240549D01*
X26871370Y-88139380D01*
X27037597Y-88305608D01*
X27070004Y-88345096D01*
X27109492Y-88377503D01*
X27227602Y-88474434D01*
X27319281Y-88523437D01*
X27407407Y-88570541D01*
X27602505Y-88629724D01*
X27754562Y-88644700D01*
X27754571Y-88644700D01*
X27799591Y-88649134D01*
X27816198Y-88703880D01*
X27875163Y-88814194D01*
X27954515Y-88910885D01*
X28051206Y-88990237D01*
X28161520Y-89049202D01*
X28281218Y-89085512D01*
X28405700Y-89097772D01*
X30105700Y-89097772D01*
X30230182Y-89085512D01*
X30349880Y-89049202D01*
X30460194Y-88990237D01*
X30556885Y-88910885D01*
X30636237Y-88814194D01*
X30695202Y-88703880D01*
X30731512Y-88584182D01*
X30743772Y-88459700D01*
X30743772Y-87519900D01*
X34191328Y-87519900D01*
X34203588Y-87644382D01*
X34239898Y-87764080D01*
X34298863Y-87874394D01*
X34378215Y-87971085D01*
X34474906Y-88050437D01*
X34585220Y-88109402D01*
X34704918Y-88145712D01*
X34829400Y-88157972D01*
X35393650Y-88154900D01*
X35552400Y-87996150D01*
X35552400Y-86796900D01*
X34353150Y-86796900D01*
X34194400Y-86955650D01*
X34191328Y-87519900D01*
X30743772Y-87519900D01*
X30743772Y-86759700D01*
X30731512Y-86635218D01*
X30695202Y-86515520D01*
X30636237Y-86405206D01*
X30556885Y-86308515D01*
X30460194Y-86229163D01*
X30349880Y-86170198D01*
X30230182Y-86133888D01*
X30105700Y-86121628D01*
X28405700Y-86121628D01*
X28281218Y-86133888D01*
X28161520Y-86170198D01*
X28051206Y-86229163D01*
X27961881Y-86302470D01*
X26900986Y-85241576D01*
X26918950Y-85241400D01*
X27077700Y-85082650D01*
X27077700Y-83883400D01*
X27057700Y-83883400D01*
X27057700Y-83629400D01*
X27077700Y-83629400D01*
X27077700Y-82430150D01*
X26918950Y-82271400D01*
X26604700Y-82268328D01*
X26480218Y-82280588D01*
X26360520Y-82316898D01*
X26250206Y-82375863D01*
X26204700Y-82413209D01*
X26159194Y-82375863D01*
X26048880Y-82316898D01*
X25929182Y-82280588D01*
X25804700Y-82268328D01*
X24604700Y-82268328D01*
X24480218Y-82280588D01*
X24360520Y-82316898D01*
X24250206Y-82375863D01*
X24153515Y-82455215D01*
X24074163Y-82551906D01*
X24015198Y-82662220D01*
X23978888Y-82781918D01*
X23966628Y-82906400D01*
X23966628Y-84606400D01*
X23978888Y-84730882D01*
X24015198Y-84850580D01*
X24074163Y-84960894D01*
X24153515Y-85057585D01*
X24169701Y-85070868D01*
X24169701Y-85155853D01*
X24164693Y-85206700D01*
X24184676Y-85409595D01*
X24243859Y-85604693D01*
X24339966Y-85784497D01*
X24469304Y-85942096D01*
X24626903Y-86071434D01*
X24689832Y-86105070D01*
X24396971Y-86226378D01*
X24116899Y-86413516D01*
X23878716Y-86651699D01*
X23691578Y-86931771D01*
X23562674Y-87242971D01*
X23496960Y-87573340D01*
X23496960Y-87910180D01*
X23562674Y-88240549D01*
X23691578Y-88551749D01*
X23878716Y-88831821D01*
X24116899Y-89070004D01*
X24396971Y-89257142D01*
X24660883Y-89366458D01*
X23459175Y-89358080D01*
X23417150Y-69376400D01*
X23966628Y-69376400D01*
X23978888Y-69500882D01*
X24015198Y-69620580D01*
X24074163Y-69730894D01*
X24153515Y-69827585D01*
X24250206Y-69906937D01*
X24360520Y-69965902D01*
X24480218Y-70002212D01*
X24604700Y-70014472D01*
X24918950Y-70011400D01*
X25077700Y-69852650D01*
X25077700Y-68653400D01*
X24128450Y-68653400D01*
X23969700Y-68812150D01*
X23966628Y-69376400D01*
X23417150Y-69376400D01*
X23413575Y-67676400D01*
X23966628Y-67676400D01*
X23969700Y-68240650D01*
X24128450Y-68399400D01*
X25077700Y-68399400D01*
X25077700Y-67200150D01*
X24918950Y-67041400D01*
X24604700Y-67038328D01*
X24480218Y-67050588D01*
X24360520Y-67086898D01*
X24250206Y-67145863D01*
X24153515Y-67225215D01*
X24074163Y-67321906D01*
X24015198Y-67432220D01*
X23978888Y-67551918D01*
X23966628Y-67676400D01*
X23413575Y-67676400D01*
X23343994Y-34592235D01*
X27512540Y-34592235D01*
X28298500Y-35378195D01*
X29084460Y-34592235D01*
X29017480Y-34352144D01*
X28768452Y-34235044D01*
X28501365Y-34168777D01*
X28226483Y-34155890D01*
X27954367Y-34196878D01*
X27695477Y-34290164D01*
X27579520Y-34352144D01*
X27512540Y-34592235D01*
X23343994Y-34592235D01*
X23336750Y-31148100D01*
X37770628Y-31148100D01*
X37782888Y-31272582D01*
X37819198Y-31392280D01*
X37878163Y-31502594D01*
X37957515Y-31599285D01*
X38054206Y-31678637D01*
X38164520Y-31737602D01*
X38284218Y-31773912D01*
X38408700Y-31786172D01*
X39677950Y-31783100D01*
X39836700Y-31624350D01*
X39836700Y-30485100D01*
X37932450Y-30485100D01*
X37773700Y-30643850D01*
X37770628Y-31148100D01*
X23336750Y-31148100D01*
X23331658Y-28727308D01*
X26837800Y-28727308D01*
X26837800Y-29002492D01*
X26891486Y-29272390D01*
X26996795Y-29526627D01*
X27149680Y-29755435D01*
X27344265Y-29950020D01*
X27573073Y-30102905D01*
X27827310Y-30208214D01*
X28097208Y-30261900D01*
X28372392Y-30261900D01*
X28642290Y-30208214D01*
X28896527Y-30102905D01*
X29125335Y-29950020D01*
X29319920Y-29755435D01*
X29445093Y-29568100D01*
X37770628Y-29568100D01*
X37773700Y-30072350D01*
X37932450Y-30231100D01*
X39836700Y-30231100D01*
X39836700Y-29091850D01*
X39677950Y-28933100D01*
X38408700Y-28930028D01*
X38284218Y-28942288D01*
X38164520Y-28978598D01*
X38054206Y-29037563D01*
X37957515Y-29116915D01*
X37878163Y-29213606D01*
X37819198Y-29323920D01*
X37782888Y-29443618D01*
X37770628Y-29568100D01*
X29445093Y-29568100D01*
X29472805Y-29526627D01*
X29578114Y-29272390D01*
X29631800Y-29002492D01*
X29631800Y-28727308D01*
X29578114Y-28457410D01*
X29472805Y-28203173D01*
X29319920Y-27974365D01*
X29125335Y-27779780D01*
X28896527Y-27626895D01*
X28820205Y-27595281D01*
X28827823Y-27592536D01*
X28943780Y-27530556D01*
X29010760Y-27290465D01*
X28224800Y-26504505D01*
X27438840Y-27290465D01*
X27505820Y-27530556D01*
X27646243Y-27596587D01*
X27573073Y-27626895D01*
X27344265Y-27779780D01*
X27149680Y-27974365D01*
X26996795Y-28203173D01*
X26891486Y-28457410D01*
X26837800Y-28727308D01*
X23331658Y-28727308D01*
X23326756Y-26396917D01*
X26822890Y-26396917D01*
X26863878Y-26669033D01*
X26957164Y-26927923D01*
X27019144Y-27043880D01*
X27259235Y-27110860D01*
X28045195Y-26324900D01*
X28404405Y-26324900D01*
X29190365Y-27110860D01*
X29430456Y-27043880D01*
X29547556Y-26794852D01*
X29613823Y-26527765D01*
X29626710Y-26252883D01*
X29585722Y-25980767D01*
X29492436Y-25721877D01*
X29430456Y-25605920D01*
X29190365Y-25538940D01*
X28404405Y-26324900D01*
X28045195Y-26324900D01*
X27259235Y-25538940D01*
X27019144Y-25605920D01*
X26902044Y-25854948D01*
X26835777Y-26122035D01*
X26822890Y-26396917D01*
X23326756Y-26396917D01*
X23324574Y-25359335D01*
X27438840Y-25359335D01*
X28224800Y-26145295D01*
X29010760Y-25359335D01*
X28943780Y-25119244D01*
X28694752Y-25002144D01*
X28427665Y-24935877D01*
X28152783Y-24922990D01*
X27880667Y-24963978D01*
X27621777Y-25057264D01*
X27505820Y-25119244D01*
X27438840Y-25359335D01*
X23324574Y-25359335D01*
X23312436Y-19588385D01*
X24893912Y-19587185D01*
X24725951Y-19620594D01*
X24414751Y-19749498D01*
X24134679Y-19936636D01*
X23896496Y-20174819D01*
X23709358Y-20454891D01*
X23580454Y-20766091D01*
X23514740Y-21096460D01*
X23514740Y-21433300D01*
X23580454Y-21763669D01*
X23709358Y-22074869D01*
X23896496Y-22354941D01*
X24134679Y-22593124D01*
X24414751Y-22780262D01*
X24725951Y-22909166D01*
X25056320Y-22974880D01*
X25393160Y-22974880D01*
X25723529Y-22909166D01*
X26034729Y-22780262D01*
X26314801Y-22593124D01*
X26552984Y-22354941D01*
X26740122Y-22074869D01*
X26750086Y-22050812D01*
X29235500Y-22050812D01*
X29235500Y-22274388D01*
X29279117Y-22493667D01*
X29364676Y-22700224D01*
X29488888Y-22886120D01*
X29646980Y-23044212D01*
X29832876Y-23168424D01*
X30039433Y-23253983D01*
X30258712Y-23297600D01*
X30482288Y-23297600D01*
X30701567Y-23253983D01*
X30908124Y-23168424D01*
X31094020Y-23044212D01*
X31240632Y-22897600D01*
X32645628Y-22897600D01*
X32645628Y-23485100D01*
X32657888Y-23609582D01*
X32694198Y-23729280D01*
X32753163Y-23839594D01*
X32832515Y-23936285D01*
X32929206Y-24015637D01*
X33039520Y-24074602D01*
X33159218Y-24110912D01*
X33283700Y-24123172D01*
X34183700Y-24123172D01*
X34308182Y-24110912D01*
X34427880Y-24074602D01*
X34538194Y-24015637D01*
X34634885Y-23936285D01*
X34714237Y-23839594D01*
X34773202Y-23729280D01*
X34809512Y-23609582D01*
X34821772Y-23485100D01*
X34821772Y-22685100D01*
X34809512Y-22560618D01*
X34773202Y-22440920D01*
X34714237Y-22330606D01*
X34634885Y-22233915D01*
X34562975Y-22174900D01*
X41944428Y-22174900D01*
X41947500Y-22289150D01*
X42106250Y-22447900D01*
X42955500Y-22447900D01*
X42955500Y-21698650D01*
X42796750Y-21539900D01*
X42582500Y-21536828D01*
X42458018Y-21549088D01*
X42338320Y-21585398D01*
X42228006Y-21644363D01*
X42131315Y-21723715D01*
X42051963Y-21820406D01*
X41992998Y-21930720D01*
X41956688Y-22050418D01*
X41944428Y-22174900D01*
X34562975Y-22174900D01*
X34538194Y-22154563D01*
X34427880Y-22095598D01*
X34409554Y-22090039D01*
X34347787Y-21974480D01*
X34255938Y-21862562D01*
X34227887Y-21839541D01*
X34056759Y-21668413D01*
X34033738Y-21640362D01*
X33921820Y-21548513D01*
X33794133Y-21480263D01*
X33655585Y-21438235D01*
X33547605Y-21427600D01*
X33511500Y-21424044D01*
X33475395Y-21427600D01*
X31240632Y-21427600D01*
X31094020Y-21280988D01*
X30908124Y-21156776D01*
X30701567Y-21071217D01*
X30482288Y-21027600D01*
X30258712Y-21027600D01*
X30039433Y-21071217D01*
X29832876Y-21156776D01*
X29646980Y-21280988D01*
X29488888Y-21439080D01*
X29364676Y-21624976D01*
X29279117Y-21831533D01*
X29235500Y-22050812D01*
X26750086Y-22050812D01*
X26869026Y-21763669D01*
X26934740Y-21433300D01*
X26934740Y-21096460D01*
X26869026Y-20766091D01*
X26740122Y-20454891D01*
X26552984Y-20174819D01*
X26314801Y-19936636D01*
X26034729Y-19749498D01*
X25723529Y-19620594D01*
X25553053Y-19586685D01*
X42023217Y-19574185D01*
X41992998Y-19630720D01*
X41956688Y-19750418D01*
X41944428Y-19874900D01*
X41944428Y-20674900D01*
X41956688Y-20799382D01*
X41992998Y-20919080D01*
X42051963Y-21029394D01*
X42131315Y-21126085D01*
X42228006Y-21205437D01*
X42338320Y-21264402D01*
X42458018Y-21300712D01*
X42582500Y-21312972D01*
X43582500Y-21312972D01*
X43706982Y-21300712D01*
X43826680Y-21264402D01*
X43936994Y-21205437D01*
X44033685Y-21126085D01*
X44113037Y-21029394D01*
X44172002Y-20919080D01*
X44208312Y-20799382D01*
X44220572Y-20674900D01*
X44220572Y-19874900D01*
X44208312Y-19750418D01*
X44172002Y-19630720D01*
X44140924Y-19572578D01*
X49526261Y-19568491D01*
X49492998Y-19630720D01*
X49456688Y-19750418D01*
X49444428Y-19874900D01*
X49447500Y-19989150D01*
X49606250Y-20147900D01*
X50455500Y-20147900D01*
X50455500Y-20127900D01*
X50709500Y-20127900D01*
X50709500Y-20147900D01*
X51558750Y-20147900D01*
X51717500Y-19989150D01*
X51720572Y-19874900D01*
X51708312Y-19750418D01*
X51672002Y-19630720D01*
X51637883Y-19566888D01*
X59874988Y-19560637D01*
X59836663Y-30845594D01*
G04 #@! TA.AperFunction,Conductor*
D33*
G36*
X59836663Y-30845594D02*
G01*
X59800382Y-30834588D01*
X59675900Y-30822328D01*
X58406650Y-30825400D01*
X58247900Y-30984150D01*
X58247900Y-32123400D01*
X58267900Y-32123400D01*
X58267900Y-32377400D01*
X58247900Y-32377400D01*
X58247900Y-33516650D01*
X58406650Y-33675400D01*
X59675900Y-33678472D01*
X59800382Y-33666212D01*
X59827112Y-33658104D01*
X59651332Y-85417835D01*
X59611074Y-85377922D01*
X59408133Y-85243579D01*
X59261662Y-85183645D01*
X59310437Y-85134870D01*
X59338477Y-85111858D01*
X59361490Y-85083817D01*
X59361493Y-85083814D01*
X59409184Y-85025702D01*
X59430327Y-84999940D01*
X59498577Y-84872253D01*
X59540605Y-84733705D01*
X59551240Y-84625725D01*
X59551240Y-84625724D01*
X59554796Y-84589620D01*
X59551240Y-84553515D01*
X59551240Y-82697854D01*
X59554795Y-82661759D01*
X59551240Y-82625664D01*
X59551240Y-82625655D01*
X59540605Y-82517675D01*
X59498577Y-82379127D01*
X59430327Y-82251440D01*
X59338478Y-82139522D01*
X59310433Y-82116506D01*
X58360738Y-81166812D01*
X58337718Y-81138762D01*
X58225800Y-81046913D01*
X58098113Y-80978663D01*
X57959565Y-80936635D01*
X57851585Y-80926000D01*
X57815480Y-80922444D01*
X57779375Y-80926000D01*
X57668132Y-80926000D01*
X57675812Y-80900682D01*
X57688072Y-80776200D01*
X57688072Y-79076200D01*
X57675812Y-78951718D01*
X57639502Y-78832020D01*
X57580537Y-78721706D01*
X57501185Y-78625015D01*
X57404494Y-78545663D01*
X57294180Y-78486698D01*
X57213534Y-78462234D01*
X57297588Y-78386469D01*
X57471641Y-78153120D01*
X57596825Y-77890299D01*
X57641476Y-77743090D01*
X57520155Y-77513200D01*
X56327000Y-77513200D01*
X56327000Y-77533200D01*
X56073000Y-77533200D01*
X56073000Y-77513200D01*
X54879845Y-77513200D01*
X54758524Y-77743090D01*
X54803175Y-77890299D01*
X54928359Y-78153120D01*
X55102412Y-78386469D01*
X55186466Y-78462234D01*
X55105820Y-78486698D01*
X54995506Y-78545663D01*
X54898815Y-78625015D01*
X54819463Y-78721706D01*
X54760498Y-78832020D01*
X54724188Y-78951718D01*
X54711928Y-79076200D01*
X54711928Y-80563461D01*
X53704700Y-79556234D01*
X53704700Y-73870908D01*
X53708255Y-73834813D01*
X53704700Y-73798718D01*
X53704700Y-73798709D01*
X53694065Y-73690729D01*
X53652037Y-73552181D01*
X53583787Y-73424494D01*
X53491938Y-73312576D01*
X53463893Y-73289560D01*
X53024048Y-72849715D01*
X53110040Y-72920287D01*
X53237727Y-72988537D01*
X53376275Y-73030565D01*
X53484255Y-73041200D01*
X53484264Y-73041200D01*
X53520359Y-73044755D01*
X53556454Y-73041200D01*
X54905117Y-73041200D01*
X55046525Y-73252832D01*
X55253368Y-73459675D01*
X55427760Y-73576200D01*
X55253368Y-73692725D01*
X55046525Y-73899568D01*
X54884010Y-74142789D01*
X54772068Y-74413042D01*
X54715000Y-74699940D01*
X54715000Y-74992460D01*
X54772068Y-75279358D01*
X54884010Y-75549611D01*
X55046525Y-75792832D01*
X55253368Y-75999675D01*
X55435534Y-76121395D01*
X55318645Y-76191022D01*
X55102412Y-76385931D01*
X54928359Y-76619280D01*
X54803175Y-76882101D01*
X54758524Y-77029310D01*
X54879845Y-77259200D01*
X56073000Y-77259200D01*
X56073000Y-77239200D01*
X56327000Y-77239200D01*
X56327000Y-77259200D01*
X57520155Y-77259200D01*
X57641476Y-77029310D01*
X57596825Y-76882101D01*
X57471641Y-76619280D01*
X57297588Y-76385931D01*
X57081355Y-76191022D01*
X56964466Y-76121395D01*
X57146632Y-75999675D01*
X57353475Y-75792832D01*
X57515990Y-75549611D01*
X57627932Y-75279358D01*
X57685000Y-74992460D01*
X57685000Y-74699940D01*
X57627932Y-74413042D01*
X57515990Y-74142789D01*
X57353475Y-73899568D01*
X57146632Y-73692725D01*
X56972240Y-73576200D01*
X57146632Y-73459675D01*
X57353475Y-73252832D01*
X57515990Y-73009611D01*
X57627932Y-72739358D01*
X57685000Y-72452460D01*
X57685000Y-72159940D01*
X57627932Y-71873042D01*
X57515990Y-71602789D01*
X57353475Y-71359568D01*
X57146632Y-71152725D01*
X56903411Y-70990210D01*
X56633158Y-70878268D01*
X56346260Y-70821200D01*
X56053740Y-70821200D01*
X55766842Y-70878268D01*
X55496589Y-70990210D01*
X55253368Y-71152725D01*
X55046525Y-71359568D01*
X54905117Y-71571200D01*
X53824807Y-71571200D01*
X51352707Y-69099100D01*
X53918455Y-69099100D01*
X54022380Y-69254635D01*
X54216965Y-69449220D01*
X54445773Y-69602105D01*
X54700010Y-69707414D01*
X54969908Y-69761100D01*
X55245092Y-69761100D01*
X55514990Y-69707414D01*
X55769227Y-69602105D01*
X55998035Y-69449220D01*
X56192620Y-69254635D01*
X56345505Y-69025827D01*
X56450814Y-68771590D01*
X56504500Y-68501692D01*
X56504500Y-68226508D01*
X56450814Y-67956610D01*
X56345505Y-67702373D01*
X56192620Y-67473565D01*
X55998035Y-67278980D01*
X55769227Y-67126095D01*
X55697557Y-67096408D01*
X55710523Y-67091736D01*
X55826480Y-67029756D01*
X55893460Y-66789665D01*
X55107500Y-66003705D01*
X54321540Y-66789665D01*
X54388520Y-67029756D01*
X54524260Y-67093585D01*
X54445773Y-67126095D01*
X54216965Y-67278980D01*
X54022380Y-67473565D01*
X53918455Y-67629100D01*
X51378767Y-67629100D01*
X49645784Y-65896117D01*
X53705590Y-65896117D01*
X53746578Y-66168233D01*
X53839864Y-66427123D01*
X53901844Y-66543080D01*
X54141935Y-66610060D01*
X54927895Y-65824100D01*
X55287105Y-65824100D01*
X56073065Y-66610060D01*
X56313156Y-66543080D01*
X56430256Y-66294052D01*
X56496523Y-66026965D01*
X56509410Y-65752083D01*
X56468422Y-65479967D01*
X56375136Y-65221077D01*
X56313156Y-65105120D01*
X56073065Y-65038140D01*
X55287105Y-65824100D01*
X54927895Y-65824100D01*
X54141935Y-65038140D01*
X53901844Y-65105120D01*
X53784744Y-65354148D01*
X53718477Y-65621235D01*
X53705590Y-65896117D01*
X49645784Y-65896117D01*
X44356175Y-60606508D01*
X53710500Y-60606508D01*
X53710500Y-60881692D01*
X53764186Y-61151590D01*
X53869495Y-61405827D01*
X54022380Y-61634635D01*
X54216965Y-61829220D01*
X54445773Y-61982105D01*
X54523015Y-62014100D01*
X54445773Y-62046095D01*
X54216965Y-62198980D01*
X54022380Y-62393565D01*
X53869495Y-62622373D01*
X53764186Y-62876610D01*
X53710500Y-63146508D01*
X53710500Y-63421692D01*
X53764186Y-63691590D01*
X53869495Y-63945827D01*
X54022380Y-64174635D01*
X54216965Y-64369220D01*
X54445773Y-64522105D01*
X54517443Y-64551792D01*
X54504477Y-64556464D01*
X54388520Y-64618444D01*
X54321540Y-64858535D01*
X55107500Y-65644495D01*
X55893460Y-64858535D01*
X55826480Y-64618444D01*
X55690740Y-64554615D01*
X55769227Y-64522105D01*
X55998035Y-64369220D01*
X56192620Y-64174635D01*
X56345505Y-63945827D01*
X56450814Y-63691590D01*
X56504500Y-63421692D01*
X56504500Y-63146508D01*
X56450814Y-62876610D01*
X56345505Y-62622373D01*
X56192620Y-62393565D01*
X55998035Y-62198980D01*
X55769227Y-62046095D01*
X55691985Y-62014100D01*
X55769227Y-61982105D01*
X55998035Y-61829220D01*
X56192620Y-61634635D01*
X56345505Y-61405827D01*
X56450814Y-61151590D01*
X56504500Y-60881692D01*
X56504500Y-60606508D01*
X56450814Y-60336610D01*
X56345505Y-60082373D01*
X56192620Y-59853565D01*
X55998035Y-59658980D01*
X55769227Y-59506095D01*
X55514990Y-59400786D01*
X55245092Y-59347100D01*
X54969908Y-59347100D01*
X54700010Y-59400786D01*
X54445773Y-59506095D01*
X54216965Y-59658980D01*
X54022380Y-59853565D01*
X53869495Y-60082373D01*
X53764186Y-60336610D01*
X53710500Y-60606508D01*
X44356175Y-60606508D01*
X42126749Y-58377083D01*
X42103728Y-58349032D01*
X42032813Y-58290833D01*
X46143246Y-54180401D01*
X46317689Y-54215100D01*
X46590511Y-54215100D01*
X46858089Y-54161875D01*
X47110143Y-54057471D01*
X47336986Y-53905899D01*
X47529899Y-53712986D01*
X47681471Y-53486143D01*
X47785875Y-53234089D01*
X47839100Y-52966511D01*
X47839100Y-52693689D01*
X47788658Y-52440101D01*
X53988600Y-52440101D01*
X53988600Y-52701360D01*
X54045668Y-52988258D01*
X54157610Y-53258511D01*
X54320125Y-53501732D01*
X54526968Y-53708575D01*
X54701360Y-53825100D01*
X54526968Y-53941625D01*
X54320125Y-54148468D01*
X54157610Y-54391689D01*
X54045668Y-54661942D01*
X53988600Y-54948840D01*
X53988600Y-55241360D01*
X54045668Y-55528258D01*
X54157610Y-55798511D01*
X54320125Y-56041732D01*
X54526968Y-56248575D01*
X54770189Y-56411090D01*
X55040442Y-56523032D01*
X55327340Y-56580100D01*
X55619860Y-56580100D01*
X55906758Y-56523032D01*
X56177011Y-56411090D01*
X56420232Y-56248575D01*
X56627075Y-56041732D01*
X56789590Y-55798511D01*
X56901532Y-55528258D01*
X56958600Y-55241360D01*
X56958600Y-54948840D01*
X56901532Y-54661942D01*
X56789590Y-54391689D01*
X56627075Y-54148468D01*
X56587377Y-54108770D01*
X57122593Y-53573554D01*
X57150638Y-53550538D01*
X57242487Y-53438620D01*
X57292403Y-53345234D01*
X57310737Y-53310934D01*
X57352765Y-53172385D01*
X57366956Y-53028300D01*
X57363400Y-52992195D01*
X57363400Y-36884304D01*
X57366956Y-36848199D01*
X57352765Y-36704114D01*
X57340016Y-36662086D01*
X57310737Y-36565567D01*
X57242487Y-36437880D01*
X57189933Y-36373844D01*
X57173653Y-36354006D01*
X57173650Y-36354003D01*
X57150637Y-36325962D01*
X57122597Y-36302950D01*
X54498118Y-33678472D01*
X54675900Y-33678472D01*
X54800382Y-33666212D01*
X54920080Y-33629902D01*
X55030394Y-33570937D01*
X55127085Y-33491585D01*
X55206437Y-33394894D01*
X55265402Y-33284580D01*
X55301712Y-33164882D01*
X55313972Y-33040400D01*
X55927828Y-33040400D01*
X55940088Y-33164882D01*
X55976398Y-33284580D01*
X56035363Y-33394894D01*
X56114715Y-33491585D01*
X56211406Y-33570937D01*
X56321720Y-33629902D01*
X56441418Y-33666212D01*
X56565900Y-33678472D01*
X57835150Y-33675400D01*
X57993900Y-33516650D01*
X57993900Y-32377400D01*
X56089650Y-32377400D01*
X55930900Y-32536150D01*
X55927828Y-33040400D01*
X55313972Y-33040400D01*
X55313972Y-31460400D01*
X55927828Y-31460400D01*
X55930900Y-31964650D01*
X56089650Y-32123400D01*
X57993900Y-32123400D01*
X57993900Y-30984150D01*
X57835150Y-30825400D01*
X56565900Y-30822328D01*
X56441418Y-30834588D01*
X56321720Y-30870898D01*
X56211406Y-30929863D01*
X56114715Y-31009215D01*
X56035363Y-31105906D01*
X55976398Y-31216220D01*
X55940088Y-31335918D01*
X55927828Y-31460400D01*
X55313972Y-31460400D01*
X55301712Y-31335918D01*
X55265402Y-31216220D01*
X55206437Y-31105906D01*
X55127085Y-31009215D01*
X55030394Y-30929863D01*
X54920080Y-30870898D01*
X54800382Y-30834588D01*
X54675900Y-30822328D01*
X52678219Y-30822328D01*
X55620001Y-27880546D01*
X55712865Y-27938292D01*
X55829932Y-27982353D01*
X55953345Y-28002729D01*
X56078362Y-27998636D01*
X56200178Y-27970233D01*
X56314113Y-27918610D01*
X57872959Y-27018610D01*
X57974633Y-26945751D01*
X58060140Y-26854457D01*
X58126192Y-26748235D01*
X58170253Y-26631168D01*
X58190629Y-26507755D01*
X58186536Y-26382738D01*
X58158133Y-26260922D01*
X58106510Y-26146987D01*
X57206510Y-24588141D01*
X57133651Y-24486467D01*
X57042357Y-24400960D01*
X56936135Y-24334908D01*
X56819068Y-24290847D01*
X56695655Y-24270471D01*
X56570638Y-24274564D01*
X56448822Y-24302967D01*
X56334887Y-24354590D01*
X54776041Y-25254590D01*
X54674367Y-25327449D01*
X54588860Y-25418743D01*
X54522808Y-25524965D01*
X54478747Y-25642032D01*
X54458371Y-25765445D01*
X54462464Y-25890462D01*
X54490867Y-26012278D01*
X54542490Y-26126213D01*
X54818089Y-26603564D01*
X43198700Y-38222954D01*
X43198700Y-31747970D01*
X43284218Y-31773912D01*
X43408700Y-31786172D01*
X46518700Y-31786172D01*
X46643182Y-31773912D01*
X46762880Y-31737602D01*
X46873194Y-31678637D01*
X46969885Y-31599285D01*
X47049237Y-31502594D01*
X47108202Y-31392280D01*
X47144512Y-31272582D01*
X47156772Y-31148100D01*
X47156772Y-29568100D01*
X47144512Y-29443618D01*
X47108202Y-29323920D01*
X47049237Y-29213606D01*
X46969885Y-29116915D01*
X46873194Y-29037563D01*
X46762880Y-28978598D01*
X46643182Y-28942288D01*
X46518700Y-28930028D01*
X45616565Y-28930028D01*
X45577787Y-28857480D01*
X45485938Y-28745562D01*
X45457887Y-28722541D01*
X45317500Y-28582154D01*
X45317500Y-24530401D01*
X45332500Y-24518091D01*
X45378006Y-24555437D01*
X45385481Y-24559432D01*
X45400163Y-24607833D01*
X45468413Y-24735520D01*
X45560262Y-24847438D01*
X45672180Y-24939287D01*
X45799867Y-25007537D01*
X45938415Y-25049565D01*
X46046395Y-25060200D01*
X46082500Y-25063756D01*
X46111913Y-25060859D01*
X46189000Y-25137946D01*
X46189000Y-25345288D01*
X46232617Y-25564567D01*
X46318176Y-25771124D01*
X46442388Y-25957020D01*
X46600480Y-26115112D01*
X46786376Y-26239324D01*
X46992933Y-26324883D01*
X47212212Y-26368500D01*
X47435788Y-26368500D01*
X47655067Y-26324883D01*
X47861624Y-26239324D01*
X48047520Y-26115112D01*
X48205612Y-25957020D01*
X48329824Y-25771124D01*
X48415383Y-25564567D01*
X48459000Y-25345288D01*
X48459000Y-25121712D01*
X48415383Y-24902433D01*
X48329824Y-24695876D01*
X48205612Y-24509980D01*
X48047520Y-24351888D01*
X47861624Y-24227676D01*
X47655067Y-24142117D01*
X47435788Y-24098500D01*
X47228446Y-24098500D01*
X47070572Y-23940626D01*
X47070572Y-22924900D01*
X47058312Y-22800418D01*
X47022002Y-22680720D01*
X46963037Y-22570406D01*
X46883685Y-22473715D01*
X46786994Y-22394363D01*
X46779519Y-22390368D01*
X46764837Y-22341967D01*
X46696587Y-22214280D01*
X46604738Y-22102362D01*
X46492820Y-22010513D01*
X46365133Y-21942263D01*
X46300694Y-21922716D01*
X46375804Y-21741383D01*
X46417500Y-21531763D01*
X46417500Y-21318037D01*
X47247500Y-21318037D01*
X47247500Y-21531763D01*
X47289196Y-21741383D01*
X47370985Y-21938840D01*
X47489725Y-22116547D01*
X47640853Y-22267675D01*
X47818560Y-22386415D01*
X48016017Y-22468204D01*
X48225637Y-22509900D01*
X48251619Y-22509900D01*
X48201963Y-22570406D01*
X48142998Y-22680720D01*
X48106688Y-22800418D01*
X48094428Y-22924900D01*
X48094428Y-24024900D01*
X48106688Y-24149382D01*
X48142998Y-24269080D01*
X48201963Y-24379394D01*
X48281315Y-24476085D01*
X48378006Y-24555437D01*
X48488320Y-24614402D01*
X48608018Y-24650712D01*
X48732500Y-24662972D01*
X49432500Y-24662972D01*
X49556982Y-24650712D01*
X49676680Y-24614402D01*
X49786994Y-24555437D01*
X49883685Y-24476085D01*
X49963037Y-24379394D01*
X50022002Y-24269080D01*
X50058312Y-24149382D01*
X50070572Y-24024900D01*
X50070572Y-23611797D01*
X50082500Y-23612972D01*
X50296750Y-23609900D01*
X50455500Y-23451150D01*
X50455500Y-22701900D01*
X50709500Y-22701900D01*
X50709500Y-23451150D01*
X50868250Y-23609900D01*
X51082500Y-23612972D01*
X51206982Y-23600712D01*
X51326680Y-23564402D01*
X51436994Y-23505437D01*
X51533685Y-23426085D01*
X51613037Y-23329394D01*
X51672002Y-23219080D01*
X51708312Y-23099382D01*
X51720572Y-22974900D01*
X51717500Y-22860650D01*
X51558750Y-22701900D01*
X50709500Y-22701900D01*
X50455500Y-22701900D01*
X50435500Y-22701900D01*
X50435500Y-22532672D01*
X52660686Y-22532672D01*
X52675591Y-22798586D01*
X52903966Y-22994529D01*
X53166180Y-23142153D01*
X53452156Y-23235786D01*
X53750903Y-23271828D01*
X54050941Y-23248894D01*
X54214144Y-23210836D01*
X54359704Y-22987473D01*
X53738015Y-21910676D01*
X52660686Y-22532672D01*
X50435500Y-22532672D01*
X50435500Y-22447900D01*
X50455500Y-22447900D01*
X50455500Y-21698650D01*
X50709500Y-21698650D01*
X50709500Y-22447900D01*
X51558750Y-22447900D01*
X51717500Y-22289150D01*
X51720572Y-22174900D01*
X51708312Y-22050418D01*
X51672002Y-21930720D01*
X51640127Y-21871087D01*
X52255346Y-21871087D01*
X52310850Y-22166837D01*
X52533686Y-22312702D01*
X53449986Y-21783676D01*
X53957985Y-21783676D01*
X54579674Y-22860473D01*
X54845892Y-22846096D01*
X54960453Y-22723787D01*
X55130333Y-22475414D01*
X55248493Y-22198670D01*
X55310393Y-21904191D01*
X55313654Y-21603295D01*
X55258150Y-21307545D01*
X55218942Y-21281880D01*
X56288360Y-21281880D01*
X56288360Y-21618720D01*
X56354074Y-21949089D01*
X56482978Y-22260289D01*
X56670116Y-22540361D01*
X56908299Y-22778544D01*
X57188371Y-22965682D01*
X57499571Y-23094586D01*
X57829940Y-23160300D01*
X58166780Y-23160300D01*
X58497149Y-23094586D01*
X58808349Y-22965682D01*
X59088421Y-22778544D01*
X59326604Y-22540361D01*
X59513742Y-22260289D01*
X59642646Y-21949089D01*
X59708360Y-21618720D01*
X59708360Y-21281880D01*
X59642646Y-20951511D01*
X59513742Y-20640311D01*
X59326604Y-20360239D01*
X59088421Y-20122056D01*
X58808349Y-19934918D01*
X58497149Y-19806014D01*
X58166780Y-19740300D01*
X57829940Y-19740300D01*
X57499571Y-19806014D01*
X57188371Y-19934918D01*
X56908299Y-20122056D01*
X56670116Y-20360239D01*
X56482978Y-20640311D01*
X56354074Y-20951511D01*
X56288360Y-21281880D01*
X55218942Y-21281880D01*
X55035314Y-21161680D01*
X53957985Y-21783676D01*
X53449986Y-21783676D01*
X53611015Y-21690706D01*
X52989326Y-20613909D01*
X52723108Y-20628286D01*
X52608547Y-20750595D01*
X52438667Y-20998968D01*
X52320507Y-21275712D01*
X52258607Y-21570191D01*
X52255346Y-21871087D01*
X51640127Y-21871087D01*
X51613037Y-21820406D01*
X51533685Y-21723715D01*
X51436994Y-21644363D01*
X51326680Y-21585398D01*
X51206982Y-21549088D01*
X51082500Y-21536828D01*
X50868250Y-21539900D01*
X50709500Y-21698650D01*
X50455500Y-21698650D01*
X50296750Y-21539900D01*
X50082500Y-21536828D01*
X49958018Y-21549088D01*
X49838320Y-21585398D01*
X49728006Y-21644363D01*
X49631315Y-21723715D01*
X49551963Y-21820406D01*
X49492998Y-21930720D01*
X49456688Y-22050418D01*
X49444428Y-22174900D01*
X49447477Y-22288303D01*
X49432500Y-22286828D01*
X48995483Y-22286828D01*
X49024147Y-22267675D01*
X49175275Y-22116547D01*
X49294015Y-21938840D01*
X49375804Y-21741383D01*
X49417500Y-21531763D01*
X49417500Y-21318037D01*
X49375804Y-21108417D01*
X49294015Y-20910960D01*
X49175275Y-20733253D01*
X49116922Y-20674900D01*
X49444428Y-20674900D01*
X49456688Y-20799382D01*
X49492998Y-20919080D01*
X49551963Y-21029394D01*
X49631315Y-21126085D01*
X49728006Y-21205437D01*
X49838320Y-21264402D01*
X49958018Y-21300712D01*
X50082500Y-21312972D01*
X50296750Y-21309900D01*
X50455500Y-21151150D01*
X50455500Y-20401900D01*
X50709500Y-20401900D01*
X50709500Y-21151150D01*
X50868250Y-21309900D01*
X51082500Y-21312972D01*
X51206982Y-21300712D01*
X51326680Y-21264402D01*
X51436994Y-21205437D01*
X51533685Y-21126085D01*
X51613037Y-21029394D01*
X51672002Y-20919080D01*
X51708312Y-20799382D01*
X51720572Y-20674900D01*
X51717500Y-20560650D01*
X51643759Y-20486909D01*
X53209296Y-20486909D01*
X53830985Y-21563706D01*
X54908314Y-20941710D01*
X54893409Y-20675796D01*
X54665034Y-20479853D01*
X54402820Y-20332229D01*
X54116844Y-20238596D01*
X53818097Y-20202554D01*
X53518059Y-20225488D01*
X53354856Y-20263546D01*
X53209296Y-20486909D01*
X51643759Y-20486909D01*
X51558750Y-20401900D01*
X50709500Y-20401900D01*
X50455500Y-20401900D01*
X49606250Y-20401900D01*
X49447500Y-20560650D01*
X49444428Y-20674900D01*
X49116922Y-20674900D01*
X49024147Y-20582125D01*
X48846440Y-20463385D01*
X48648983Y-20381596D01*
X48439363Y-20339900D01*
X48225637Y-20339900D01*
X48016017Y-20381596D01*
X47818560Y-20463385D01*
X47640853Y-20582125D01*
X47489725Y-20733253D01*
X47370985Y-20910960D01*
X47289196Y-21108417D01*
X47247500Y-21318037D01*
X46417500Y-21318037D01*
X46375804Y-21108417D01*
X46294015Y-20910960D01*
X46175275Y-20733253D01*
X46024147Y-20582125D01*
X45846440Y-20463385D01*
X45648983Y-20381596D01*
X45439363Y-20339900D01*
X45225637Y-20339900D01*
X45016017Y-20381596D01*
X44818560Y-20463385D01*
X44640853Y-20582125D01*
X44489725Y-20733253D01*
X44370985Y-20910960D01*
X44289196Y-21108417D01*
X44247500Y-21318037D01*
X44247500Y-21531763D01*
X44289196Y-21741383D01*
X44350589Y-21889600D01*
X44150023Y-21889600D01*
X44113037Y-21820406D01*
X44033685Y-21723715D01*
X43936994Y-21644363D01*
X43826680Y-21585398D01*
X43706982Y-21549088D01*
X43582500Y-21536828D01*
X43368250Y-21539900D01*
X43209500Y-21698650D01*
X43209500Y-22447900D01*
X43229500Y-22447900D01*
X43229500Y-22495630D01*
X43200563Y-22549767D01*
X43160839Y-22680720D01*
X43158535Y-22688315D01*
X43155227Y-22721900D01*
X42955500Y-22721900D01*
X42955500Y-22701900D01*
X42106250Y-22701900D01*
X41947500Y-22860650D01*
X41944428Y-22974900D01*
X41956688Y-23099382D01*
X41992998Y-23219080D01*
X42051963Y-23329394D01*
X42131315Y-23426085D01*
X42228006Y-23505437D01*
X42338320Y-23564402D01*
X42369418Y-23573835D01*
X41493154Y-24450100D01*
X34724657Y-24450100D01*
X34714237Y-24430606D01*
X34634885Y-24333915D01*
X34538194Y-24254563D01*
X34427880Y-24195598D01*
X34308182Y-24159288D01*
X34183700Y-24147028D01*
X33283700Y-24147028D01*
X33159218Y-24159288D01*
X33039520Y-24195598D01*
X32929206Y-24254563D01*
X32832515Y-24333915D01*
X32753163Y-24430606D01*
X32694198Y-24540920D01*
X32657888Y-24660618D01*
X32645628Y-24785100D01*
X32645628Y-25585100D01*
X32657888Y-25709582D01*
X32694198Y-25829280D01*
X32753163Y-25939594D01*
X32832515Y-26036285D01*
X32929206Y-26115637D01*
X33039520Y-26174602D01*
X33159218Y-26210912D01*
X33283700Y-26223172D01*
X34183700Y-26223172D01*
X34308182Y-26210912D01*
X34427880Y-26174602D01*
X34538194Y-26115637D01*
X34634885Y-26036285D01*
X34714237Y-25939594D01*
X34724657Y-25920100D01*
X41761495Y-25920100D01*
X41797600Y-25923656D01*
X41833705Y-25920100D01*
X41941685Y-25909465D01*
X42080233Y-25867437D01*
X42207920Y-25799187D01*
X42319838Y-25707338D01*
X42342858Y-25679288D01*
X43681338Y-24340808D01*
X43701963Y-24379394D01*
X43781315Y-24476085D01*
X43847500Y-24530402D01*
X43847501Y-28850485D01*
X43843944Y-28886600D01*
X43848221Y-28930028D01*
X43408700Y-28930028D01*
X43284218Y-28942288D01*
X43164520Y-28978598D01*
X43054206Y-29037563D01*
X42957515Y-29116915D01*
X42878163Y-29213606D01*
X42819198Y-29323920D01*
X42811540Y-29349165D01*
X42794767Y-29342217D01*
X42575488Y-29298600D01*
X42351912Y-29298600D01*
X42132633Y-29342217D01*
X42115860Y-29349165D01*
X42108202Y-29323920D01*
X42049237Y-29213606D01*
X41969885Y-29116915D01*
X41873194Y-29037563D01*
X41762880Y-28978598D01*
X41643182Y-28942288D01*
X41518700Y-28930028D01*
X40249450Y-28933100D01*
X40090700Y-29091850D01*
X40090700Y-30231100D01*
X40110700Y-30231100D01*
X40110700Y-30485100D01*
X40090700Y-30485100D01*
X40090700Y-31624350D01*
X40249450Y-31783100D01*
X41518700Y-31786172D01*
X41643182Y-31773912D01*
X41728701Y-31747970D01*
X41728700Y-37966253D01*
X41478472Y-38216481D01*
X41478472Y-38093700D01*
X41466212Y-37969218D01*
X41429902Y-37849520D01*
X41370937Y-37739206D01*
X41291585Y-37642515D01*
X41194894Y-37563163D01*
X41084580Y-37504198D01*
X40964882Y-37467888D01*
X40840400Y-37455628D01*
X39090400Y-37455628D01*
X38965918Y-37467888D01*
X38846220Y-37504198D01*
X38735906Y-37563163D01*
X38639215Y-37642515D01*
X38559863Y-37739206D01*
X38500898Y-37849520D01*
X38464588Y-37969218D01*
X38452328Y-38093700D01*
X38452328Y-40173281D01*
X36868952Y-38589905D01*
X36900280Y-38580402D01*
X37010594Y-38521437D01*
X37107285Y-38442085D01*
X37186637Y-38345394D01*
X37245602Y-38235080D01*
X37281912Y-38115382D01*
X37294172Y-37990900D01*
X37291100Y-37651650D01*
X37132350Y-37492900D01*
X36283100Y-37492900D01*
X36283100Y-37512900D01*
X36090700Y-37512900D01*
X36090700Y-37000194D01*
X36094255Y-36964099D01*
X36090700Y-36928004D01*
X36090700Y-36927995D01*
X36080065Y-36820015D01*
X36038037Y-36681467D01*
X36029100Y-36664747D01*
X36029100Y-36264650D01*
X36283100Y-36264650D01*
X36283100Y-37238900D01*
X37132350Y-37238900D01*
X37291100Y-37080150D01*
X37294172Y-36740900D01*
X37281912Y-36616418D01*
X37245602Y-36496720D01*
X37186637Y-36386406D01*
X37107285Y-36289715D01*
X37010594Y-36210363D01*
X36900280Y-36151398D01*
X36780582Y-36115088D01*
X36656100Y-36102828D01*
X36441850Y-36105900D01*
X36283100Y-36264650D01*
X36029100Y-36264650D01*
X35870350Y-36105900D01*
X35656100Y-36102828D01*
X35544833Y-36113786D01*
X35377358Y-35946312D01*
X35354338Y-35918262D01*
X35242420Y-35826413D01*
X35114733Y-35758163D01*
X34976185Y-35716135D01*
X34868205Y-35705500D01*
X34832100Y-35701944D01*
X34795995Y-35705500D01*
X30033105Y-35705500D01*
X29997000Y-35701944D01*
X29960895Y-35705500D01*
X29852915Y-35716135D01*
X29714367Y-35758163D01*
X29684134Y-35774323D01*
X29687523Y-35760665D01*
X29700410Y-35485783D01*
X29659422Y-35213667D01*
X29566136Y-34954777D01*
X29504156Y-34838820D01*
X29264065Y-34771840D01*
X28478105Y-35557800D01*
X28492248Y-35571943D01*
X28312643Y-35751548D01*
X28298500Y-35737405D01*
X28284358Y-35751548D01*
X28104753Y-35571943D01*
X28118895Y-35557800D01*
X27332935Y-34771840D01*
X27092844Y-34838820D01*
X26975744Y-35087848D01*
X26909477Y-35354935D01*
X26896590Y-35629817D01*
X26937578Y-35901933D01*
X27030864Y-36160823D01*
X27092844Y-36276780D01*
X27332933Y-36343759D01*
X27216523Y-36460169D01*
X27294504Y-36538150D01*
X26125008Y-37707646D01*
X26096962Y-37730663D01*
X26005113Y-37842581D01*
X25936863Y-37970268D01*
X25907584Y-38066787D01*
X25894835Y-38108815D01*
X25880644Y-38252900D01*
X25884200Y-38289005D01*
X25884201Y-52918885D01*
X25880644Y-52955000D01*
X25894835Y-53099085D01*
X25917071Y-53172385D01*
X25936864Y-53237633D01*
X26005114Y-53365320D01*
X26096963Y-53477238D01*
X26125008Y-53500254D01*
X26879238Y-54254484D01*
X26819711Y-54266325D01*
X26567657Y-54370729D01*
X26340814Y-54522301D01*
X26147901Y-54715214D01*
X25996329Y-54942057D01*
X25891925Y-55194111D01*
X25838700Y-55461689D01*
X25838700Y-55734511D01*
X25891925Y-56002089D01*
X25996329Y-56254143D01*
X26147901Y-56480986D01*
X26340814Y-56673899D01*
X26496907Y-56778198D01*
X26499335Y-56802845D01*
X26532905Y-56913509D01*
X26541364Y-56941393D01*
X26609614Y-57069080D01*
X26701463Y-57180998D01*
X26729508Y-57204014D01*
X29268593Y-59743100D01*
X28398313Y-59743100D01*
X28299499Y-59595214D01*
X28106586Y-59402301D01*
X27879743Y-59250729D01*
X27627689Y-59146325D01*
X27360111Y-59093100D01*
X27087289Y-59093100D01*
X26819711Y-59146325D01*
X26567657Y-59250729D01*
X26340814Y-59402301D01*
X26147901Y-59595214D01*
X25996329Y-59822057D01*
X25891925Y-60074111D01*
X25838700Y-60341689D01*
X25838700Y-60614511D01*
X25891925Y-60882089D01*
X25996329Y-61134143D01*
X26147901Y-61360986D01*
X26340814Y-61553899D01*
X26567657Y-61705471D01*
X26819711Y-61809875D01*
X27087289Y-61863100D01*
X27360111Y-61863100D01*
X27627689Y-61809875D01*
X27879743Y-61705471D01*
X28106586Y-61553899D01*
X28299499Y-61360986D01*
X28398313Y-61213100D01*
X29703901Y-61213100D01*
X29560033Y-61241717D01*
X29353476Y-61327276D01*
X29167580Y-61451488D01*
X29009488Y-61609580D01*
X28885276Y-61795476D01*
X28799717Y-62002033D01*
X28756100Y-62221312D01*
X28756100Y-62444888D01*
X28799717Y-62664167D01*
X28885276Y-62870724D01*
X29009488Y-63056620D01*
X29156101Y-63203233D01*
X29156101Y-64032300D01*
X29007288Y-64002700D01*
X28783712Y-64002700D01*
X28564433Y-64046317D01*
X28357876Y-64131876D01*
X28171980Y-64256088D01*
X28013888Y-64414180D01*
X27889676Y-64600076D01*
X27804117Y-64806633D01*
X27760500Y-65025912D01*
X27760500Y-65233253D01*
X26710508Y-66283246D01*
X26682462Y-66306263D01*
X26590613Y-66418181D01*
X26522363Y-66545868D01*
X26503890Y-66606767D01*
X26480335Y-66684415D01*
X26466144Y-66828500D01*
X26469700Y-66864605D01*
X26469700Y-67053779D01*
X26360520Y-67086898D01*
X26250206Y-67145863D01*
X26204700Y-67183209D01*
X26159194Y-67145863D01*
X26048880Y-67086898D01*
X25929182Y-67050588D01*
X25804700Y-67038328D01*
X25490450Y-67041400D01*
X25331700Y-67200150D01*
X25331700Y-68399400D01*
X25351700Y-68399400D01*
X25351700Y-68653400D01*
X25331700Y-68653400D01*
X25331700Y-69852650D01*
X25490450Y-70011400D01*
X25804700Y-70014472D01*
X25929182Y-70002212D01*
X26048880Y-69965902D01*
X26159194Y-69906937D01*
X26204700Y-69869591D01*
X26250206Y-69906937D01*
X26360520Y-69965902D01*
X26480218Y-70002212D01*
X26604700Y-70014472D01*
X27804700Y-70014472D01*
X27929182Y-70002212D01*
X28048880Y-69965902D01*
X28159194Y-69906937D01*
X28204700Y-69869591D01*
X28250206Y-69906937D01*
X28360520Y-69965902D01*
X28480218Y-70002212D01*
X28604700Y-70014472D01*
X29804700Y-70014472D01*
X29929182Y-70002212D01*
X30048880Y-69965902D01*
X30159194Y-69906937D01*
X30204700Y-69869591D01*
X30250206Y-69906937D01*
X30360520Y-69965902D01*
X30480218Y-70002212D01*
X30604700Y-70014472D01*
X31804700Y-70014472D01*
X31929182Y-70002212D01*
X32048880Y-69965902D01*
X32159194Y-69906937D01*
X32204700Y-69869591D01*
X32250206Y-69906937D01*
X32360520Y-69965902D01*
X32480218Y-70002212D01*
X32604700Y-70014472D01*
X33804700Y-70014472D01*
X33929182Y-70002212D01*
X34048880Y-69965902D01*
X34159194Y-69906937D01*
X34204700Y-69869591D01*
X34250206Y-69906937D01*
X34360520Y-69965902D01*
X34480218Y-70002212D01*
X34604700Y-70014472D01*
X35350781Y-70014472D01*
X35350780Y-72434173D01*
X32710508Y-75074446D01*
X32682463Y-75097462D01*
X32590614Y-75209380D01*
X32587824Y-75214600D01*
X32522364Y-75337067D01*
X32480335Y-75475615D01*
X32466144Y-75619700D01*
X32469701Y-75655815D01*
X32469700Y-82283779D01*
X32360520Y-82316898D01*
X32250206Y-82375863D01*
X32204700Y-82413209D01*
X32159194Y-82375863D01*
X32048880Y-82316898D01*
X31929182Y-82280588D01*
X31804700Y-82268328D01*
X30604700Y-82268328D01*
X30480218Y-82280588D01*
X30360520Y-82316898D01*
X30250206Y-82375863D01*
X30204700Y-82413209D01*
X30159194Y-82375863D01*
X30048880Y-82316898D01*
X29929182Y-82280588D01*
X29804700Y-82268328D01*
X28604700Y-82268328D01*
X28480218Y-82280588D01*
X28360520Y-82316898D01*
X28250206Y-82375863D01*
X28204700Y-82413209D01*
X28159194Y-82375863D01*
X28048880Y-82316898D01*
X27929182Y-82280588D01*
X27804700Y-82268328D01*
X27490450Y-82271400D01*
X27331700Y-82430150D01*
X27331700Y-83629400D01*
X27351700Y-83629400D01*
X27351700Y-83883400D01*
X27331700Y-83883400D01*
X27331700Y-85082650D01*
X27490450Y-85241400D01*
X27804700Y-85244472D01*
X27929182Y-85232212D01*
X28048880Y-85195902D01*
X28159194Y-85136937D01*
X28204700Y-85099591D01*
X28250206Y-85136937D01*
X28360520Y-85195902D01*
X28480218Y-85232212D01*
X28604700Y-85244472D01*
X29765826Y-85244472D01*
X30519946Y-85998593D01*
X30542962Y-86026638D01*
X30654880Y-86118487D01*
X30782567Y-86186737D01*
X30913246Y-86226378D01*
X30921115Y-86228765D01*
X31065200Y-86242956D01*
X31101305Y-86239400D01*
X34193612Y-86239400D01*
X34194400Y-86384150D01*
X34353150Y-86542900D01*
X35552400Y-86542900D01*
X35552400Y-86522900D01*
X35806400Y-86522900D01*
X35806400Y-86542900D01*
X35826400Y-86542900D01*
X35826400Y-86796900D01*
X35806400Y-86796900D01*
X35806400Y-87996150D01*
X35965150Y-88154900D01*
X36529400Y-88157972D01*
X36653882Y-88145712D01*
X36773580Y-88109402D01*
X36883894Y-88050437D01*
X36980585Y-87971085D01*
X37059937Y-87874394D01*
X37118902Y-87764080D01*
X37140913Y-87691520D01*
X37272768Y-87823375D01*
X37515989Y-87985890D01*
X37786242Y-88097832D01*
X38073140Y-88154900D01*
X38365660Y-88154900D01*
X38652558Y-88097832D01*
X38922811Y-87985890D01*
X39166032Y-87823375D01*
X39372875Y-87616532D01*
X39489400Y-87442140D01*
X39605925Y-87616532D01*
X39812768Y-87823375D01*
X40055989Y-87985890D01*
X40326242Y-88097832D01*
X40613140Y-88154900D01*
X40905660Y-88154900D01*
X41192558Y-88097832D01*
X41462811Y-87985890D01*
X41706032Y-87823375D01*
X41912875Y-87616532D01*
X42029400Y-87442140D01*
X42145925Y-87616532D01*
X42352768Y-87823375D01*
X42595989Y-87985890D01*
X42866242Y-88097832D01*
X43153140Y-88154900D01*
X43445660Y-88154900D01*
X43732558Y-88097832D01*
X44002811Y-87985890D01*
X44246032Y-87823375D01*
X44261080Y-87808327D01*
X44788046Y-88335293D01*
X44811062Y-88363338D01*
X44922980Y-88455187D01*
X45050667Y-88523437D01*
X45143999Y-88551749D01*
X45189214Y-88565465D01*
X45203432Y-88566865D01*
X45297195Y-88576100D01*
X45297202Y-88576100D01*
X45333299Y-88579655D01*
X45369396Y-88576100D01*
X49427365Y-88576100D01*
X49496996Y-88744204D01*
X49621208Y-88930100D01*
X49779300Y-89088192D01*
X49965196Y-89212404D01*
X50171753Y-89297963D01*
X50391032Y-89341580D01*
X50614608Y-89341580D01*
X50833887Y-89297963D01*
X51040444Y-89212404D01*
X51226340Y-89088192D01*
X51384432Y-88930100D01*
X51508644Y-88744204D01*
X51594203Y-88537647D01*
X51637820Y-88318368D01*
X51637820Y-88094792D01*
X51594203Y-87875513D01*
X51550600Y-87770246D01*
X51550600Y-86868000D01*
X50442600Y-86868000D01*
X50442600Y-87071580D01*
X50391032Y-87071580D01*
X50202902Y-87109001D01*
X50173445Y-87106100D01*
X50137340Y-87102544D01*
X50101235Y-87106100D01*
X49806072Y-87106100D01*
X49807332Y-87103058D01*
X49864400Y-86816160D01*
X49864400Y-86523640D01*
X49807332Y-86236742D01*
X49797912Y-86214000D01*
X50442600Y-86214000D01*
X50442600Y-86614000D01*
X51550600Y-86614000D01*
X51550600Y-85272269D01*
X51359991Y-85147538D01*
X51322318Y-85151409D01*
X51097067Y-85243579D01*
X50894126Y-85377922D01*
X50721293Y-85549275D01*
X50585210Y-85751054D01*
X50491107Y-85975504D01*
X50442600Y-86214000D01*
X49797912Y-86214000D01*
X49695390Y-85966489D01*
X49532875Y-85723268D01*
X49488707Y-85679100D01*
X49666195Y-85679100D01*
X49702300Y-85682656D01*
X49738405Y-85679100D01*
X49846385Y-85668465D01*
X49984933Y-85626437D01*
X50112620Y-85558187D01*
X50224538Y-85466338D01*
X50247558Y-85438288D01*
X51182897Y-84502950D01*
X51210937Y-84479938D01*
X51233950Y-84451897D01*
X51233953Y-84451894D01*
X51302786Y-84368021D01*
X51302787Y-84368020D01*
X51371037Y-84240333D01*
X51413065Y-84101785D01*
X51423700Y-83993805D01*
X51423700Y-83993796D01*
X51427255Y-83957701D01*
X51423700Y-83921606D01*
X51423700Y-82993004D01*
X51427256Y-82956899D01*
X51413065Y-82812814D01*
X51399246Y-82767259D01*
X51371037Y-82674267D01*
X51302787Y-82546580D01*
X51210938Y-82434662D01*
X51182887Y-82411641D01*
X50774959Y-82003713D01*
X50751938Y-81975662D01*
X50640020Y-81883813D01*
X50562317Y-81842280D01*
X51664734Y-81842280D01*
X52683035Y-82860582D01*
X52517856Y-82747197D01*
X52356613Y-82804860D01*
X52153767Y-82917615D01*
X51976817Y-83067777D01*
X51832562Y-83249574D01*
X51726545Y-83456021D01*
X51662841Y-83679184D01*
X51802796Y-83864000D01*
X52700600Y-83864000D01*
X52700600Y-83844000D01*
X52954600Y-83844000D01*
X52954600Y-83864000D01*
X52974600Y-83864000D01*
X52974600Y-84118000D01*
X52954600Y-84118000D01*
X52954600Y-84138000D01*
X52700600Y-84138000D01*
X52700600Y-84118000D01*
X51802796Y-84118000D01*
X51662841Y-84302816D01*
X51726545Y-84525979D01*
X51832562Y-84732426D01*
X51976817Y-84914223D01*
X52153767Y-85064385D01*
X52356613Y-85177140D01*
X52517856Y-85234803D01*
X52700598Y-85109362D01*
X52700598Y-85276000D01*
X52723168Y-85276000D01*
X52665468Y-85333700D01*
X52637423Y-85356716D01*
X52548712Y-85464810D01*
X52461074Y-85377922D01*
X52258133Y-85243579D01*
X52032882Y-85151409D01*
X51995209Y-85147538D01*
X51804600Y-85272269D01*
X51804600Y-86614000D01*
X51824600Y-86614000D01*
X51824600Y-86868000D01*
X51804600Y-86868000D01*
X51804600Y-88209731D01*
X51995209Y-88334462D01*
X52032882Y-88330591D01*
X52258133Y-88238421D01*
X52461074Y-88104078D01*
X52633907Y-87932725D01*
X52769990Y-87730946D01*
X52797774Y-87664677D01*
X52828593Y-87677443D01*
X53047872Y-87721060D01*
X53271448Y-87721060D01*
X53490727Y-87677443D01*
X53614528Y-87626163D01*
X53614528Y-87741000D01*
X53626788Y-87865482D01*
X53663098Y-87985180D01*
X53722063Y-88095494D01*
X53801415Y-88192185D01*
X53898106Y-88271537D01*
X54008420Y-88330502D01*
X54128118Y-88366812D01*
X54252600Y-88379072D01*
X56252600Y-88379072D01*
X56377082Y-88366812D01*
X56496780Y-88330502D01*
X56607094Y-88271537D01*
X56703785Y-88192185D01*
X56783137Y-88095494D01*
X56842102Y-87985180D01*
X56878412Y-87865482D01*
X56890672Y-87741000D01*
X56890672Y-86868000D01*
X57592600Y-86868000D01*
X57592600Y-87268000D01*
X57641107Y-87506496D01*
X57735210Y-87730946D01*
X57871293Y-87932725D01*
X58044126Y-88104078D01*
X58247067Y-88238421D01*
X58472318Y-88330591D01*
X58509991Y-88334462D01*
X58700600Y-88209731D01*
X58700600Y-86868000D01*
X57592600Y-86868000D01*
X56890672Y-86868000D01*
X56890672Y-86175700D01*
X57600390Y-86175700D01*
X57592600Y-86214000D01*
X57592600Y-86614000D01*
X58700600Y-86614000D01*
X58700600Y-86594000D01*
X58954600Y-86594000D01*
X58954600Y-86614000D01*
X58974600Y-86614000D01*
X58974600Y-86868000D01*
X58954600Y-86868000D01*
X58954600Y-88209731D01*
X59145209Y-88334462D01*
X59182882Y-88330591D01*
X59408133Y-88238421D01*
X59611074Y-88104078D01*
X59642314Y-88073105D01*
X59637094Y-89610314D01*
X25734959Y-89373947D01*
X26016949Y-89257142D01*
X26297021Y-89070004D01*
X26535204Y-88831821D01*
X26722342Y-88551749D01*
X26851246Y-88240549D01*
X26871370Y-88139380D01*
X27037597Y-88305608D01*
X27070004Y-88345096D01*
X27109492Y-88377503D01*
X27227602Y-88474434D01*
X27319281Y-88523437D01*
X27407407Y-88570541D01*
X27602505Y-88629724D01*
X27754562Y-88644700D01*
X27754571Y-88644700D01*
X27799591Y-88649134D01*
X27816198Y-88703880D01*
X27875163Y-88814194D01*
X27954515Y-88910885D01*
X28051206Y-88990237D01*
X28161520Y-89049202D01*
X28281218Y-89085512D01*
X28405700Y-89097772D01*
X30105700Y-89097772D01*
X30230182Y-89085512D01*
X30349880Y-89049202D01*
X30460194Y-88990237D01*
X30556885Y-88910885D01*
X30636237Y-88814194D01*
X30695202Y-88703880D01*
X30731512Y-88584182D01*
X30743772Y-88459700D01*
X30743772Y-87519900D01*
X34191328Y-87519900D01*
X34203588Y-87644382D01*
X34239898Y-87764080D01*
X34298863Y-87874394D01*
X34378215Y-87971085D01*
X34474906Y-88050437D01*
X34585220Y-88109402D01*
X34704918Y-88145712D01*
X34829400Y-88157972D01*
X35393650Y-88154900D01*
X35552400Y-87996150D01*
X35552400Y-86796900D01*
X34353150Y-86796900D01*
X34194400Y-86955650D01*
X34191328Y-87519900D01*
X30743772Y-87519900D01*
X30743772Y-86759700D01*
X30731512Y-86635218D01*
X30695202Y-86515520D01*
X30636237Y-86405206D01*
X30556885Y-86308515D01*
X30460194Y-86229163D01*
X30349880Y-86170198D01*
X30230182Y-86133888D01*
X30105700Y-86121628D01*
X28405700Y-86121628D01*
X28281218Y-86133888D01*
X28161520Y-86170198D01*
X28051206Y-86229163D01*
X27961881Y-86302470D01*
X26900986Y-85241576D01*
X26918950Y-85241400D01*
X27077700Y-85082650D01*
X27077700Y-83883400D01*
X27057700Y-83883400D01*
X27057700Y-83629400D01*
X27077700Y-83629400D01*
X27077700Y-82430150D01*
X26918950Y-82271400D01*
X26604700Y-82268328D01*
X26480218Y-82280588D01*
X26360520Y-82316898D01*
X26250206Y-82375863D01*
X26204700Y-82413209D01*
X26159194Y-82375863D01*
X26048880Y-82316898D01*
X25929182Y-82280588D01*
X25804700Y-82268328D01*
X24604700Y-82268328D01*
X24480218Y-82280588D01*
X24360520Y-82316898D01*
X24250206Y-82375863D01*
X24153515Y-82455215D01*
X24074163Y-82551906D01*
X24015198Y-82662220D01*
X23978888Y-82781918D01*
X23966628Y-82906400D01*
X23966628Y-84606400D01*
X23978888Y-84730882D01*
X24015198Y-84850580D01*
X24074163Y-84960894D01*
X24153515Y-85057585D01*
X24169701Y-85070868D01*
X24169701Y-85155853D01*
X24164693Y-85206700D01*
X24184676Y-85409595D01*
X24243859Y-85604693D01*
X24339966Y-85784497D01*
X24469304Y-85942096D01*
X24626903Y-86071434D01*
X24689832Y-86105070D01*
X24396971Y-86226378D01*
X24116899Y-86413516D01*
X23878716Y-86651699D01*
X23691578Y-86931771D01*
X23562674Y-87242971D01*
X23496960Y-87573340D01*
X23496960Y-87910180D01*
X23562674Y-88240549D01*
X23691578Y-88551749D01*
X23878716Y-88831821D01*
X24116899Y-89070004D01*
X24396971Y-89257142D01*
X24660883Y-89366458D01*
X23459175Y-89358080D01*
X23417150Y-69376400D01*
X23966628Y-69376400D01*
X23978888Y-69500882D01*
X24015198Y-69620580D01*
X24074163Y-69730894D01*
X24153515Y-69827585D01*
X24250206Y-69906937D01*
X24360520Y-69965902D01*
X24480218Y-70002212D01*
X24604700Y-70014472D01*
X24918950Y-70011400D01*
X25077700Y-69852650D01*
X25077700Y-68653400D01*
X24128450Y-68653400D01*
X23969700Y-68812150D01*
X23966628Y-69376400D01*
X23417150Y-69376400D01*
X23413575Y-67676400D01*
X23966628Y-67676400D01*
X23969700Y-68240650D01*
X24128450Y-68399400D01*
X25077700Y-68399400D01*
X25077700Y-67200150D01*
X24918950Y-67041400D01*
X24604700Y-67038328D01*
X24480218Y-67050588D01*
X24360520Y-67086898D01*
X24250206Y-67145863D01*
X24153515Y-67225215D01*
X24074163Y-67321906D01*
X24015198Y-67432220D01*
X23978888Y-67551918D01*
X23966628Y-67676400D01*
X23413575Y-67676400D01*
X23343994Y-34592235D01*
X27512540Y-34592235D01*
X28298500Y-35378195D01*
X29084460Y-34592235D01*
X29017480Y-34352144D01*
X28768452Y-34235044D01*
X28501365Y-34168777D01*
X28226483Y-34155890D01*
X27954367Y-34196878D01*
X27695477Y-34290164D01*
X27579520Y-34352144D01*
X27512540Y-34592235D01*
X23343994Y-34592235D01*
X23336750Y-31148100D01*
X37770628Y-31148100D01*
X37782888Y-31272582D01*
X37819198Y-31392280D01*
X37878163Y-31502594D01*
X37957515Y-31599285D01*
X38054206Y-31678637D01*
X38164520Y-31737602D01*
X38284218Y-31773912D01*
X38408700Y-31786172D01*
X39677950Y-31783100D01*
X39836700Y-31624350D01*
X39836700Y-30485100D01*
X37932450Y-30485100D01*
X37773700Y-30643850D01*
X37770628Y-31148100D01*
X23336750Y-31148100D01*
X23331658Y-28727308D01*
X26837800Y-28727308D01*
X26837800Y-29002492D01*
X26891486Y-29272390D01*
X26996795Y-29526627D01*
X27149680Y-29755435D01*
X27344265Y-29950020D01*
X27573073Y-30102905D01*
X27827310Y-30208214D01*
X28097208Y-30261900D01*
X28372392Y-30261900D01*
X28642290Y-30208214D01*
X28896527Y-30102905D01*
X29125335Y-29950020D01*
X29319920Y-29755435D01*
X29445093Y-29568100D01*
X37770628Y-29568100D01*
X37773700Y-30072350D01*
X37932450Y-30231100D01*
X39836700Y-30231100D01*
X39836700Y-29091850D01*
X39677950Y-28933100D01*
X38408700Y-28930028D01*
X38284218Y-28942288D01*
X38164520Y-28978598D01*
X38054206Y-29037563D01*
X37957515Y-29116915D01*
X37878163Y-29213606D01*
X37819198Y-29323920D01*
X37782888Y-29443618D01*
X37770628Y-29568100D01*
X29445093Y-29568100D01*
X29472805Y-29526627D01*
X29578114Y-29272390D01*
X29631800Y-29002492D01*
X29631800Y-28727308D01*
X29578114Y-28457410D01*
X29472805Y-28203173D01*
X29319920Y-27974365D01*
X29125335Y-27779780D01*
X28896527Y-27626895D01*
X28820205Y-27595281D01*
X28827823Y-27592536D01*
X28943780Y-27530556D01*
X29010760Y-27290465D01*
X28224800Y-26504505D01*
X27438840Y-27290465D01*
X27505820Y-27530556D01*
X27646243Y-27596587D01*
X27573073Y-27626895D01*
X27344265Y-27779780D01*
X27149680Y-27974365D01*
X26996795Y-28203173D01*
X26891486Y-28457410D01*
X26837800Y-28727308D01*
X23331658Y-28727308D01*
X23326756Y-26396917D01*
X26822890Y-26396917D01*
X26863878Y-26669033D01*
X26957164Y-26927923D01*
X27019144Y-27043880D01*
X27259235Y-27110860D01*
X28045195Y-26324900D01*
X28404405Y-26324900D01*
X29190365Y-27110860D01*
X29430456Y-27043880D01*
X29547556Y-26794852D01*
X29613823Y-26527765D01*
X29626710Y-26252883D01*
X29585722Y-25980767D01*
X29492436Y-25721877D01*
X29430456Y-25605920D01*
X29190365Y-25538940D01*
X28404405Y-26324900D01*
X28045195Y-26324900D01*
X27259235Y-25538940D01*
X27019144Y-25605920D01*
X26902044Y-25854948D01*
X26835777Y-26122035D01*
X26822890Y-26396917D01*
X23326756Y-26396917D01*
X23324574Y-25359335D01*
X27438840Y-25359335D01*
X28224800Y-26145295D01*
X29010760Y-25359335D01*
X28943780Y-25119244D01*
X28694752Y-25002144D01*
X28427665Y-24935877D01*
X28152783Y-24922990D01*
X27880667Y-24963978D01*
X27621777Y-25057264D01*
X27505820Y-25119244D01*
X27438840Y-25359335D01*
X23324574Y-25359335D01*
X23312436Y-19588385D01*
X24893912Y-19587185D01*
X24725951Y-19620594D01*
X24414751Y-19749498D01*
X24134679Y-19936636D01*
X23896496Y-20174819D01*
X23709358Y-20454891D01*
X23580454Y-20766091D01*
X23514740Y-21096460D01*
X23514740Y-21433300D01*
X23580454Y-21763669D01*
X23709358Y-22074869D01*
X23896496Y-22354941D01*
X24134679Y-22593124D01*
X24414751Y-22780262D01*
X24725951Y-22909166D01*
X25056320Y-22974880D01*
X25393160Y-22974880D01*
X25723529Y-22909166D01*
X26034729Y-22780262D01*
X26314801Y-22593124D01*
X26552984Y-22354941D01*
X26740122Y-22074869D01*
X26750086Y-22050812D01*
X29235500Y-22050812D01*
X29235500Y-22274388D01*
X29279117Y-22493667D01*
X29364676Y-22700224D01*
X29488888Y-22886120D01*
X29646980Y-23044212D01*
X29832876Y-23168424D01*
X30039433Y-23253983D01*
X30258712Y-23297600D01*
X30482288Y-23297600D01*
X30701567Y-23253983D01*
X30908124Y-23168424D01*
X31094020Y-23044212D01*
X31240632Y-22897600D01*
X32645628Y-22897600D01*
X32645628Y-23485100D01*
X32657888Y-23609582D01*
X32694198Y-23729280D01*
X32753163Y-23839594D01*
X32832515Y-23936285D01*
X32929206Y-24015637D01*
X33039520Y-24074602D01*
X33159218Y-24110912D01*
X33283700Y-24123172D01*
X34183700Y-24123172D01*
X34308182Y-24110912D01*
X34427880Y-24074602D01*
X34538194Y-24015637D01*
X34634885Y-23936285D01*
X34714237Y-23839594D01*
X34773202Y-23729280D01*
X34809512Y-23609582D01*
X34821772Y-23485100D01*
X34821772Y-22685100D01*
X34809512Y-22560618D01*
X34773202Y-22440920D01*
X34714237Y-22330606D01*
X34634885Y-22233915D01*
X34562975Y-22174900D01*
X41944428Y-22174900D01*
X41947500Y-22289150D01*
X42106250Y-22447900D01*
X42955500Y-22447900D01*
X42955500Y-21698650D01*
X42796750Y-21539900D01*
X42582500Y-21536828D01*
X42458018Y-21549088D01*
X42338320Y-21585398D01*
X42228006Y-21644363D01*
X42131315Y-21723715D01*
X42051963Y-21820406D01*
X41992998Y-21930720D01*
X41956688Y-22050418D01*
X41944428Y-22174900D01*
X34562975Y-22174900D01*
X34538194Y-22154563D01*
X34427880Y-22095598D01*
X34409554Y-22090039D01*
X34347787Y-21974480D01*
X34255938Y-21862562D01*
X34227887Y-21839541D01*
X34056759Y-21668413D01*
X34033738Y-21640362D01*
X33921820Y-21548513D01*
X33794133Y-21480263D01*
X33655585Y-21438235D01*
X33547605Y-21427600D01*
X33511500Y-21424044D01*
X33475395Y-21427600D01*
X31240632Y-21427600D01*
X31094020Y-21280988D01*
X30908124Y-21156776D01*
X30701567Y-21071217D01*
X30482288Y-21027600D01*
X30258712Y-21027600D01*
X30039433Y-21071217D01*
X29832876Y-21156776D01*
X29646980Y-21280988D01*
X29488888Y-21439080D01*
X29364676Y-21624976D01*
X29279117Y-21831533D01*
X29235500Y-22050812D01*
X26750086Y-22050812D01*
X26869026Y-21763669D01*
X26934740Y-21433300D01*
X26934740Y-21096460D01*
X26869026Y-20766091D01*
X26740122Y-20454891D01*
X26552984Y-20174819D01*
X26314801Y-19936636D01*
X26034729Y-19749498D01*
X25723529Y-19620594D01*
X25553053Y-19586685D01*
X42023217Y-19574185D01*
X41992998Y-19630720D01*
X41956688Y-19750418D01*
X41944428Y-19874900D01*
X41944428Y-20674900D01*
X41956688Y-20799382D01*
X41992998Y-20919080D01*
X42051963Y-21029394D01*
X42131315Y-21126085D01*
X42228006Y-21205437D01*
X42338320Y-21264402D01*
X42458018Y-21300712D01*
X42582500Y-21312972D01*
X43582500Y-21312972D01*
X43706982Y-21300712D01*
X43826680Y-21264402D01*
X43936994Y-21205437D01*
X44033685Y-21126085D01*
X44113037Y-21029394D01*
X44172002Y-20919080D01*
X44208312Y-20799382D01*
X44220572Y-20674900D01*
X44220572Y-19874900D01*
X44208312Y-19750418D01*
X44172002Y-19630720D01*
X44140924Y-19572578D01*
X49526261Y-19568491D01*
X49492998Y-19630720D01*
X49456688Y-19750418D01*
X49444428Y-19874900D01*
X49447500Y-19989150D01*
X49606250Y-20147900D01*
X50455500Y-20147900D01*
X50455500Y-20127900D01*
X50709500Y-20127900D01*
X50709500Y-20147900D01*
X51558750Y-20147900D01*
X51717500Y-19989150D01*
X51720572Y-19874900D01*
X51708312Y-19750418D01*
X51672002Y-19630720D01*
X51637883Y-19566888D01*
X59874988Y-19560637D01*
X59836663Y-30845594D01*
G37*
G04 #@! TD.AperFunction*
D32*
X50188196Y-72092757D02*
X50096637Y-72130682D01*
X49828848Y-72309613D01*
X49601113Y-72537348D01*
X49422182Y-72805137D01*
X49405836Y-72844600D01*
X45836364Y-72844600D01*
X45820018Y-72805137D01*
X45641087Y-72537348D01*
X45413352Y-72309613D01*
X45145563Y-72130682D01*
X44848012Y-72007432D01*
X44532133Y-71944600D01*
X44210067Y-71944600D01*
X43894188Y-72007432D01*
X43596637Y-72130682D01*
X43328848Y-72309613D01*
X43101113Y-72537348D01*
X42922182Y-72805137D01*
X42798932Y-73102688D01*
X42736100Y-73418567D01*
X42736100Y-73740633D01*
X42798932Y-74056512D01*
X42922182Y-74354063D01*
X43101113Y-74621852D01*
X43328848Y-74849587D01*
X43596637Y-75028518D01*
X43894188Y-75151768D01*
X44210067Y-75214600D01*
X44532133Y-75214600D01*
X44848012Y-75151768D01*
X45145563Y-75028518D01*
X45413352Y-74849587D01*
X45641087Y-74621852D01*
X45820018Y-74354063D01*
X45836364Y-74314600D01*
X49405836Y-74314600D01*
X49422182Y-74354063D01*
X49601113Y-74621852D01*
X49828848Y-74849587D01*
X50096637Y-75028518D01*
X50394188Y-75151768D01*
X50710067Y-75214600D01*
X51032133Y-75214600D01*
X51348012Y-75151768D01*
X51645563Y-75028518D01*
X51913352Y-74849587D01*
X52141087Y-74621852D01*
X52234701Y-74481749D01*
X52234700Y-77206440D01*
X52006513Y-77123792D01*
X51050705Y-78079600D01*
X52006513Y-79035408D01*
X52234700Y-78952760D01*
X52234700Y-79824575D01*
X52231144Y-79860680D01*
X52245335Y-80004765D01*
X52248712Y-80015897D01*
X52287363Y-80143312D01*
X52355613Y-80270999D01*
X52447462Y-80382917D01*
X52475508Y-80405934D01*
X54224766Y-82155193D01*
X54247782Y-82183238D01*
X54359700Y-82275087D01*
X54487387Y-82343337D01*
X54611460Y-82380974D01*
X54625935Y-82385365D01*
X54770020Y-82399556D01*
X54806125Y-82396000D01*
X57511034Y-82396000D01*
X57913156Y-82798122D01*
X57804600Y-82872639D01*
X57804600Y-83864000D01*
X57824600Y-83864000D01*
X57824600Y-84118000D01*
X57804600Y-84118000D01*
X57804600Y-84138000D01*
X57550600Y-84138000D01*
X57550600Y-84118000D01*
X57530600Y-84118000D01*
X57530600Y-83864000D01*
X57550600Y-83864000D01*
X57550600Y-82872639D01*
X57367856Y-82747197D01*
X57206613Y-82804860D01*
X57105892Y-82860847D01*
X57006176Y-82805479D01*
X56887074Y-82767259D01*
X56784350Y-82756000D01*
X56625600Y-82914750D01*
X56625600Y-83027322D01*
X56553785Y-82939815D01*
X56457094Y-82860463D01*
X56388818Y-82823968D01*
X56320850Y-82756000D01*
X56229720Y-82765988D01*
X56227082Y-82765188D01*
X56102600Y-82752928D01*
X55702600Y-82752928D01*
X55578118Y-82765188D01*
X55577600Y-82765345D01*
X55577082Y-82765188D01*
X55452600Y-82752928D01*
X55052600Y-82752928D01*
X54928118Y-82765188D01*
X54927600Y-82765345D01*
X54927082Y-82765188D01*
X54802600Y-82752928D01*
X54605465Y-82752928D01*
X54566687Y-82680380D01*
X54474838Y-82568462D01*
X54446793Y-82545446D01*
X52514438Y-80613092D01*
X52491418Y-80585042D01*
X52379500Y-80493193D01*
X52251813Y-80424943D01*
X52113265Y-80382915D01*
X52005285Y-80372280D01*
X51969180Y-80368724D01*
X51933075Y-80372280D01*
X49610192Y-80372280D01*
X49463580Y-80225668D01*
X49277684Y-80101456D01*
X49071127Y-80015897D01*
X48851848Y-79972280D01*
X48628272Y-79972280D01*
X48408993Y-80015897D01*
X48202436Y-80101456D01*
X48016540Y-80225668D01*
X47858448Y-80383760D01*
X47734236Y-80569656D01*
X47703408Y-80644081D01*
X47370101Y-80310775D01*
X47370101Y-80017304D01*
X47373657Y-79981199D01*
X47369487Y-79938863D01*
X47359466Y-79837114D01*
X47317438Y-79698566D01*
X47249188Y-79570879D01*
X47157339Y-79458961D01*
X47129288Y-79435940D01*
X47120360Y-79427012D01*
X47097339Y-79398961D01*
X46985421Y-79307112D01*
X46857734Y-79238862D01*
X46779115Y-79215013D01*
X49915292Y-79215013D01*
X50011056Y-79479414D01*
X50300671Y-79620304D01*
X50612208Y-79701984D01*
X50933695Y-79721318D01*
X51252775Y-79677561D01*
X51557188Y-79572395D01*
X51731144Y-79479414D01*
X51826908Y-79215013D01*
X50871100Y-78259205D01*
X49915292Y-79215013D01*
X46779115Y-79215013D01*
X46719186Y-79196834D01*
X46611206Y-79186199D01*
X46575101Y-79182643D01*
X46538996Y-79186199D01*
X46176119Y-79186199D01*
X46068530Y-79097903D01*
X45940843Y-79029653D01*
X45802295Y-78987625D01*
X45694315Y-78976990D01*
X45673471Y-78974937D01*
X45770914Y-78939644D01*
X45911804Y-78650029D01*
X45993484Y-78338492D01*
X46005289Y-78142195D01*
X49229382Y-78142195D01*
X49273139Y-78461275D01*
X49378305Y-78765688D01*
X49471286Y-78939644D01*
X49735687Y-79035408D01*
X50691495Y-78079600D01*
X49735687Y-77123792D01*
X49471286Y-77219556D01*
X49330396Y-77509171D01*
X49248716Y-77820708D01*
X49229382Y-78142195D01*
X46005289Y-78142195D01*
X46012818Y-78017005D01*
X45969061Y-77697925D01*
X45863895Y-77393512D01*
X45770914Y-77219556D01*
X45506513Y-77123792D01*
X44550705Y-78079600D01*
X44564848Y-78093743D01*
X44385243Y-78273348D01*
X44371100Y-78259205D01*
X44356958Y-78273348D01*
X44177353Y-78093743D01*
X44191495Y-78079600D01*
X43235687Y-77123792D01*
X42971286Y-77219556D01*
X42830396Y-77509171D01*
X42799421Y-77627314D01*
X42116294Y-76944187D01*
X43415292Y-76944187D01*
X44371100Y-77899995D01*
X45326908Y-76944187D01*
X49915292Y-76944187D01*
X50871100Y-77899995D01*
X51826908Y-76944187D01*
X51731144Y-76679786D01*
X51441529Y-76538896D01*
X51129992Y-76457216D01*
X50808505Y-76437882D01*
X50489425Y-76481639D01*
X50185012Y-76586805D01*
X50011056Y-76679786D01*
X49915292Y-76944187D01*
X45326908Y-76944187D01*
X45231144Y-76679786D01*
X44941529Y-76538896D01*
X44629992Y-76457216D01*
X44308505Y-76437882D01*
X43989425Y-76481639D01*
X43685012Y-76586805D01*
X43511056Y-76679786D01*
X43415292Y-76944187D01*
X42116294Y-76944187D01*
X41694643Y-76522537D01*
X41694643Y-67063589D01*
X41841255Y-66916977D01*
X41965467Y-66731081D01*
X42051026Y-66524524D01*
X42094643Y-66305245D01*
X42094643Y-66081669D01*
X42051026Y-65862390D01*
X41965467Y-65655833D01*
X41841255Y-65469937D01*
X41683163Y-65311845D01*
X41497267Y-65187633D01*
X41290710Y-65102074D01*
X41071431Y-65058457D01*
X40847855Y-65058457D01*
X40628576Y-65102074D01*
X40422019Y-65187633D01*
X40236123Y-65311845D01*
X40078031Y-65469937D01*
X39953819Y-65655833D01*
X39868260Y-65862390D01*
X39824643Y-66081669D01*
X39824643Y-66305245D01*
X39868260Y-66524524D01*
X39953819Y-66731081D01*
X40078031Y-66916977D01*
X40224644Y-67063590D01*
X40224644Y-67199576D01*
X40159194Y-67145863D01*
X40048880Y-67086898D01*
X39929182Y-67050588D01*
X39804700Y-67038328D01*
X39490450Y-67041400D01*
X39331700Y-67200150D01*
X39331700Y-68399400D01*
X39351700Y-68399400D01*
X39351700Y-68653400D01*
X39331700Y-68653400D01*
X39331700Y-69852650D01*
X39490450Y-70011400D01*
X39804700Y-70014472D01*
X39929182Y-70002212D01*
X40048880Y-69965902D01*
X40159194Y-69906937D01*
X40224644Y-69853224D01*
X40224643Y-75841797D01*
X38877200Y-74494354D01*
X38877200Y-73923145D01*
X38880756Y-73887040D01*
X38866565Y-73742955D01*
X38824537Y-73604406D01*
X38756287Y-73476720D01*
X38708562Y-73418567D01*
X38664438Y-73364802D01*
X38636393Y-73341786D01*
X37773280Y-72478674D01*
X37773280Y-70526580D01*
X37945095Y-70526580D01*
X37981200Y-70530136D01*
X38017305Y-70526580D01*
X38125285Y-70515945D01*
X38263833Y-70473917D01*
X38391520Y-70405667D01*
X38503438Y-70313818D01*
X38595287Y-70201900D01*
X38633140Y-70131082D01*
X38718788Y-70026721D01*
X38725969Y-70013287D01*
X38918950Y-70011400D01*
X39077700Y-69852650D01*
X39077700Y-68653400D01*
X39057700Y-68653400D01*
X39057700Y-68399400D01*
X39077700Y-68399400D01*
X39077700Y-67200150D01*
X38918950Y-67041400D01*
X38725969Y-67039513D01*
X38718788Y-67026079D01*
X38626939Y-66914161D01*
X38598888Y-66891140D01*
X38589960Y-66882212D01*
X38566939Y-66854161D01*
X38461620Y-66767728D01*
X38461620Y-63522496D01*
X39067503Y-62916614D01*
X39095543Y-62893602D01*
X39118556Y-62865561D01*
X39118559Y-62865558D01*
X39187393Y-62781684D01*
X39239835Y-62683572D01*
X39255643Y-62653997D01*
X39297671Y-62515449D01*
X39308306Y-62407469D01*
X39308306Y-62407468D01*
X39311862Y-62371364D01*
X39310499Y-62357522D01*
X39523291Y-62357522D01*
X39742570Y-62313905D01*
X39949127Y-62228346D01*
X40135023Y-62104134D01*
X40167298Y-62071859D01*
X50188196Y-72092757D01*
G04 #@! TA.AperFunction,Conductor*
D33*
G36*
X50188196Y-72092757D02*
G01*
X50096637Y-72130682D01*
X49828848Y-72309613D01*
X49601113Y-72537348D01*
X49422182Y-72805137D01*
X49405836Y-72844600D01*
X45836364Y-72844600D01*
X45820018Y-72805137D01*
X45641087Y-72537348D01*
X45413352Y-72309613D01*
X45145563Y-72130682D01*
X44848012Y-72007432D01*
X44532133Y-71944600D01*
X44210067Y-71944600D01*
X43894188Y-72007432D01*
X43596637Y-72130682D01*
X43328848Y-72309613D01*
X43101113Y-72537348D01*
X42922182Y-72805137D01*
X42798932Y-73102688D01*
X42736100Y-73418567D01*
X42736100Y-73740633D01*
X42798932Y-74056512D01*
X42922182Y-74354063D01*
X43101113Y-74621852D01*
X43328848Y-74849587D01*
X43596637Y-75028518D01*
X43894188Y-75151768D01*
X44210067Y-75214600D01*
X44532133Y-75214600D01*
X44848012Y-75151768D01*
X45145563Y-75028518D01*
X45413352Y-74849587D01*
X45641087Y-74621852D01*
X45820018Y-74354063D01*
X45836364Y-74314600D01*
X49405836Y-74314600D01*
X49422182Y-74354063D01*
X49601113Y-74621852D01*
X49828848Y-74849587D01*
X50096637Y-75028518D01*
X50394188Y-75151768D01*
X50710067Y-75214600D01*
X51032133Y-75214600D01*
X51348012Y-75151768D01*
X51645563Y-75028518D01*
X51913352Y-74849587D01*
X52141087Y-74621852D01*
X52234701Y-74481749D01*
X52234700Y-77206440D01*
X52006513Y-77123792D01*
X51050705Y-78079600D01*
X52006513Y-79035408D01*
X52234700Y-78952760D01*
X52234700Y-79824575D01*
X52231144Y-79860680D01*
X52245335Y-80004765D01*
X52248712Y-80015897D01*
X52287363Y-80143312D01*
X52355613Y-80270999D01*
X52447462Y-80382917D01*
X52475508Y-80405934D01*
X54224766Y-82155193D01*
X54247782Y-82183238D01*
X54359700Y-82275087D01*
X54487387Y-82343337D01*
X54611460Y-82380974D01*
X54625935Y-82385365D01*
X54770020Y-82399556D01*
X54806125Y-82396000D01*
X57511034Y-82396000D01*
X57913156Y-82798122D01*
X57804600Y-82872639D01*
X57804600Y-83864000D01*
X57824600Y-83864000D01*
X57824600Y-84118000D01*
X57804600Y-84118000D01*
X57804600Y-84138000D01*
X57550600Y-84138000D01*
X57550600Y-84118000D01*
X57530600Y-84118000D01*
X57530600Y-83864000D01*
X57550600Y-83864000D01*
X57550600Y-82872639D01*
X57367856Y-82747197D01*
X57206613Y-82804860D01*
X57105892Y-82860847D01*
X57006176Y-82805479D01*
X56887074Y-82767259D01*
X56784350Y-82756000D01*
X56625600Y-82914750D01*
X56625600Y-83027322D01*
X56553785Y-82939815D01*
X56457094Y-82860463D01*
X56388818Y-82823968D01*
X56320850Y-82756000D01*
X56229720Y-82765988D01*
X56227082Y-82765188D01*
X56102600Y-82752928D01*
X55702600Y-82752928D01*
X55578118Y-82765188D01*
X55577600Y-82765345D01*
X55577082Y-82765188D01*
X55452600Y-82752928D01*
X55052600Y-82752928D01*
X54928118Y-82765188D01*
X54927600Y-82765345D01*
X54927082Y-82765188D01*
X54802600Y-82752928D01*
X54605465Y-82752928D01*
X54566687Y-82680380D01*
X54474838Y-82568462D01*
X54446793Y-82545446D01*
X52514438Y-80613092D01*
X52491418Y-80585042D01*
X52379500Y-80493193D01*
X52251813Y-80424943D01*
X52113265Y-80382915D01*
X52005285Y-80372280D01*
X51969180Y-80368724D01*
X51933075Y-80372280D01*
X49610192Y-80372280D01*
X49463580Y-80225668D01*
X49277684Y-80101456D01*
X49071127Y-80015897D01*
X48851848Y-79972280D01*
X48628272Y-79972280D01*
X48408993Y-80015897D01*
X48202436Y-80101456D01*
X48016540Y-80225668D01*
X47858448Y-80383760D01*
X47734236Y-80569656D01*
X47703408Y-80644081D01*
X47370101Y-80310775D01*
X47370101Y-80017304D01*
X47373657Y-79981199D01*
X47369487Y-79938863D01*
X47359466Y-79837114D01*
X47317438Y-79698566D01*
X47249188Y-79570879D01*
X47157339Y-79458961D01*
X47129288Y-79435940D01*
X47120360Y-79427012D01*
X47097339Y-79398961D01*
X46985421Y-79307112D01*
X46857734Y-79238862D01*
X46779115Y-79215013D01*
X49915292Y-79215013D01*
X50011056Y-79479414D01*
X50300671Y-79620304D01*
X50612208Y-79701984D01*
X50933695Y-79721318D01*
X51252775Y-79677561D01*
X51557188Y-79572395D01*
X51731144Y-79479414D01*
X51826908Y-79215013D01*
X50871100Y-78259205D01*
X49915292Y-79215013D01*
X46779115Y-79215013D01*
X46719186Y-79196834D01*
X46611206Y-79186199D01*
X46575101Y-79182643D01*
X46538996Y-79186199D01*
X46176119Y-79186199D01*
X46068530Y-79097903D01*
X45940843Y-79029653D01*
X45802295Y-78987625D01*
X45694315Y-78976990D01*
X45673471Y-78974937D01*
X45770914Y-78939644D01*
X45911804Y-78650029D01*
X45993484Y-78338492D01*
X46005289Y-78142195D01*
X49229382Y-78142195D01*
X49273139Y-78461275D01*
X49378305Y-78765688D01*
X49471286Y-78939644D01*
X49735687Y-79035408D01*
X50691495Y-78079600D01*
X49735687Y-77123792D01*
X49471286Y-77219556D01*
X49330396Y-77509171D01*
X49248716Y-77820708D01*
X49229382Y-78142195D01*
X46005289Y-78142195D01*
X46012818Y-78017005D01*
X45969061Y-77697925D01*
X45863895Y-77393512D01*
X45770914Y-77219556D01*
X45506513Y-77123792D01*
X44550705Y-78079600D01*
X44564848Y-78093743D01*
X44385243Y-78273348D01*
X44371100Y-78259205D01*
X44356958Y-78273348D01*
X44177353Y-78093743D01*
X44191495Y-78079600D01*
X43235687Y-77123792D01*
X42971286Y-77219556D01*
X42830396Y-77509171D01*
X42799421Y-77627314D01*
X42116294Y-76944187D01*
X43415292Y-76944187D01*
X44371100Y-77899995D01*
X45326908Y-76944187D01*
X49915292Y-76944187D01*
X50871100Y-77899995D01*
X51826908Y-76944187D01*
X51731144Y-76679786D01*
X51441529Y-76538896D01*
X51129992Y-76457216D01*
X50808505Y-76437882D01*
X50489425Y-76481639D01*
X50185012Y-76586805D01*
X50011056Y-76679786D01*
X49915292Y-76944187D01*
X45326908Y-76944187D01*
X45231144Y-76679786D01*
X44941529Y-76538896D01*
X44629992Y-76457216D01*
X44308505Y-76437882D01*
X43989425Y-76481639D01*
X43685012Y-76586805D01*
X43511056Y-76679786D01*
X43415292Y-76944187D01*
X42116294Y-76944187D01*
X41694643Y-76522537D01*
X41694643Y-67063589D01*
X41841255Y-66916977D01*
X41965467Y-66731081D01*
X42051026Y-66524524D01*
X42094643Y-66305245D01*
X42094643Y-66081669D01*
X42051026Y-65862390D01*
X41965467Y-65655833D01*
X41841255Y-65469937D01*
X41683163Y-65311845D01*
X41497267Y-65187633D01*
X41290710Y-65102074D01*
X41071431Y-65058457D01*
X40847855Y-65058457D01*
X40628576Y-65102074D01*
X40422019Y-65187633D01*
X40236123Y-65311845D01*
X40078031Y-65469937D01*
X39953819Y-65655833D01*
X39868260Y-65862390D01*
X39824643Y-66081669D01*
X39824643Y-66305245D01*
X39868260Y-66524524D01*
X39953819Y-66731081D01*
X40078031Y-66916977D01*
X40224644Y-67063590D01*
X40224644Y-67199576D01*
X40159194Y-67145863D01*
X40048880Y-67086898D01*
X39929182Y-67050588D01*
X39804700Y-67038328D01*
X39490450Y-67041400D01*
X39331700Y-67200150D01*
X39331700Y-68399400D01*
X39351700Y-68399400D01*
X39351700Y-68653400D01*
X39331700Y-68653400D01*
X39331700Y-69852650D01*
X39490450Y-70011400D01*
X39804700Y-70014472D01*
X39929182Y-70002212D01*
X40048880Y-69965902D01*
X40159194Y-69906937D01*
X40224644Y-69853224D01*
X40224643Y-75841797D01*
X38877200Y-74494354D01*
X38877200Y-73923145D01*
X38880756Y-73887040D01*
X38866565Y-73742955D01*
X38824537Y-73604406D01*
X38756287Y-73476720D01*
X38708562Y-73418567D01*
X38664438Y-73364802D01*
X38636393Y-73341786D01*
X37773280Y-72478674D01*
X37773280Y-70526580D01*
X37945095Y-70526580D01*
X37981200Y-70530136D01*
X38017305Y-70526580D01*
X38125285Y-70515945D01*
X38263833Y-70473917D01*
X38391520Y-70405667D01*
X38503438Y-70313818D01*
X38595287Y-70201900D01*
X38633140Y-70131082D01*
X38718788Y-70026721D01*
X38725969Y-70013287D01*
X38918950Y-70011400D01*
X39077700Y-69852650D01*
X39077700Y-68653400D01*
X39057700Y-68653400D01*
X39057700Y-68399400D01*
X39077700Y-68399400D01*
X39077700Y-67200150D01*
X38918950Y-67041400D01*
X38725969Y-67039513D01*
X38718788Y-67026079D01*
X38626939Y-66914161D01*
X38598888Y-66891140D01*
X38589960Y-66882212D01*
X38566939Y-66854161D01*
X38461620Y-66767728D01*
X38461620Y-63522496D01*
X39067503Y-62916614D01*
X39095543Y-62893602D01*
X39118556Y-62865561D01*
X39118559Y-62865558D01*
X39187393Y-62781684D01*
X39239835Y-62683572D01*
X39255643Y-62653997D01*
X39297671Y-62515449D01*
X39308306Y-62407469D01*
X39308306Y-62407468D01*
X39311862Y-62371364D01*
X39310499Y-62357522D01*
X39523291Y-62357522D01*
X39742570Y-62313905D01*
X39949127Y-62228346D01*
X40135023Y-62104134D01*
X40167298Y-62071859D01*
X50188196Y-72092757D01*
G37*
G04 #@! TD.AperFunction*
D32*
X37699427Y-60249772D02*
X37705982Y-60257759D01*
X37673542Y-60254564D01*
X37637447Y-60258119D01*
X37637438Y-60258119D01*
X37529458Y-60268754D01*
X37390910Y-60310782D01*
X37263223Y-60379032D01*
X37151305Y-60470881D01*
X37128284Y-60498932D01*
X36965435Y-60661781D01*
X36651240Y-60661781D01*
X36717086Y-60502816D01*
X36760703Y-60283537D01*
X36760703Y-60076196D01*
X36914720Y-59922179D01*
X37371835Y-59922179D01*
X37699427Y-60249772D01*
G04 #@! TA.AperFunction,Conductor*
D33*
G36*
X37699427Y-60249772D02*
G01*
X37705982Y-60257759D01*
X37673542Y-60254564D01*
X37637447Y-60258119D01*
X37637438Y-60258119D01*
X37529458Y-60268754D01*
X37390910Y-60310782D01*
X37263223Y-60379032D01*
X37151305Y-60470881D01*
X37128284Y-60498932D01*
X36965435Y-60661781D01*
X36651240Y-60661781D01*
X36717086Y-60502816D01*
X36760703Y-60283537D01*
X36760703Y-60076196D01*
X36914720Y-59922179D01*
X37371835Y-59922179D01*
X37699427Y-60249772D01*
G37*
G04 #@! TD.AperFunction*
D32*
X37667416Y-56536250D02*
X37648747Y-56528517D01*
X37429468Y-56484900D01*
X37205892Y-56484900D01*
X36986613Y-56528517D01*
X36780056Y-56614076D01*
X36594160Y-56738288D01*
X36436068Y-56896380D01*
X36311856Y-57082276D01*
X36226297Y-57288833D01*
X36182680Y-57508112D01*
X36182680Y-57731688D01*
X36226297Y-57950967D01*
X36311856Y-58157524D01*
X36436068Y-58343420D01*
X36547458Y-58454810D01*
X36466188Y-58462814D01*
X36327640Y-58504842D01*
X36199953Y-58573092D01*
X36088035Y-58664941D01*
X36065019Y-58692986D01*
X35721256Y-59036749D01*
X35513915Y-59036749D01*
X35294636Y-59080366D01*
X35088079Y-59165925D01*
X34902183Y-59290137D01*
X34744091Y-59448229D01*
X34619879Y-59634125D01*
X34534320Y-59840682D01*
X34530740Y-59858678D01*
X32828842Y-58156780D01*
X34639975Y-58156780D01*
X34676080Y-58160336D01*
X34712185Y-58156780D01*
X34820165Y-58146145D01*
X34958713Y-58104117D01*
X35086400Y-58035867D01*
X35198318Y-57944018D01*
X35221339Y-57915967D01*
X37667416Y-55469890D01*
X37667416Y-56536250D01*
G04 #@! TA.AperFunction,Conductor*
D33*
G36*
X37667416Y-56536250D02*
G01*
X37648747Y-56528517D01*
X37429468Y-56484900D01*
X37205892Y-56484900D01*
X36986613Y-56528517D01*
X36780056Y-56614076D01*
X36594160Y-56738288D01*
X36436068Y-56896380D01*
X36311856Y-57082276D01*
X36226297Y-57288833D01*
X36182680Y-57508112D01*
X36182680Y-57731688D01*
X36226297Y-57950967D01*
X36311856Y-58157524D01*
X36436068Y-58343420D01*
X36547458Y-58454810D01*
X36466188Y-58462814D01*
X36327640Y-58504842D01*
X36199953Y-58573092D01*
X36088035Y-58664941D01*
X36065019Y-58692986D01*
X35721256Y-59036749D01*
X35513915Y-59036749D01*
X35294636Y-59080366D01*
X35088079Y-59165925D01*
X34902183Y-59290137D01*
X34744091Y-59448229D01*
X34619879Y-59634125D01*
X34534320Y-59840682D01*
X34530740Y-59858678D01*
X32828842Y-58156780D01*
X34639975Y-58156780D01*
X34676080Y-58160336D01*
X34712185Y-58156780D01*
X34820165Y-58146145D01*
X34958713Y-58104117D01*
X35086400Y-58035867D01*
X35198318Y-57944018D01*
X35221339Y-57915967D01*
X37667416Y-55469890D01*
X37667416Y-56536250D01*
G37*
G04 #@! TD.AperFunction*
D32*
X45069100Y-52693689D02*
X45069100Y-52966511D01*
X45103799Y-53140954D01*
X41308336Y-56936418D01*
X41299713Y-56930656D01*
X41093156Y-56845097D01*
X40873877Y-56801480D01*
X40650301Y-56801480D01*
X40431022Y-56845097D01*
X40224465Y-56930656D01*
X40038569Y-57054868D01*
X39937421Y-57156016D01*
X39937421Y-55930385D01*
X40440307Y-55427500D01*
X40647648Y-55427500D01*
X40866927Y-55383883D01*
X41073484Y-55298324D01*
X41259380Y-55174112D01*
X41417472Y-55016020D01*
X41541684Y-54830124D01*
X41627243Y-54623567D01*
X41670860Y-54404288D01*
X41670860Y-54180712D01*
X41627243Y-53961433D01*
X41541684Y-53754876D01*
X41514777Y-53714607D01*
X41585720Y-53676687D01*
X41697638Y-53584838D01*
X41720658Y-53556788D01*
X42837346Y-52440101D01*
X45119542Y-52440101D01*
X45069100Y-52693689D01*
G04 #@! TA.AperFunction,Conductor*
D33*
G36*
X45069100Y-52693689D02*
G01*
X45069100Y-52966511D01*
X45103799Y-53140954D01*
X41308336Y-56936418D01*
X41299713Y-56930656D01*
X41093156Y-56845097D01*
X40873877Y-56801480D01*
X40650301Y-56801480D01*
X40431022Y-56845097D01*
X40224465Y-56930656D01*
X40038569Y-57054868D01*
X39937421Y-57156016D01*
X39937421Y-55930385D01*
X40440307Y-55427500D01*
X40647648Y-55427500D01*
X40866927Y-55383883D01*
X41073484Y-55298324D01*
X41259380Y-55174112D01*
X41417472Y-55016020D01*
X41541684Y-54830124D01*
X41627243Y-54623567D01*
X41670860Y-54404288D01*
X41670860Y-54180712D01*
X41627243Y-53961433D01*
X41541684Y-53754876D01*
X41514777Y-53714607D01*
X41585720Y-53676687D01*
X41697638Y-53584838D01*
X41720658Y-53556788D01*
X42837346Y-52440101D01*
X45119542Y-52440101D01*
X45069100Y-52693689D01*
G37*
G04 #@! TD.AperFunction*
D32*
X33301606Y-38521437D02*
X33411920Y-38580402D01*
X33531618Y-38616712D01*
X33656100Y-38628972D01*
X34656100Y-38628972D01*
X34780582Y-38616712D01*
X34808712Y-38608179D01*
X34833462Y-38638337D01*
X34861508Y-38661354D01*
X36322852Y-40122698D01*
X36219600Y-40225950D01*
X36219600Y-40975200D01*
X37018850Y-40975200D01*
X37097102Y-40896948D01*
X37517353Y-41317200D01*
X37106850Y-41317200D01*
X37018850Y-41229200D01*
X36219600Y-41229200D01*
X36219600Y-41249200D01*
X35965600Y-41249200D01*
X35965600Y-41229200D01*
X35166350Y-41229200D01*
X35081743Y-41313807D01*
X35073137Y-41297706D01*
X34993785Y-41201015D01*
X34897094Y-41121663D01*
X34786780Y-41062698D01*
X34667082Y-41026388D01*
X34542600Y-41014128D01*
X33642600Y-41014128D01*
X33518118Y-41026388D01*
X33398420Y-41062698D01*
X33288106Y-41121663D01*
X33191415Y-41201015D01*
X33112063Y-41297706D01*
X33053098Y-41408020D01*
X33016788Y-41527718D01*
X33004528Y-41652200D01*
X33004528Y-42452200D01*
X33016788Y-42576682D01*
X33053098Y-42696380D01*
X33112063Y-42806694D01*
X33191415Y-42903385D01*
X33288106Y-42982737D01*
X33398420Y-43041702D01*
X33518118Y-43078012D01*
X33642600Y-43090272D01*
X34542600Y-43090272D01*
X34667082Y-43078012D01*
X34786780Y-43041702D01*
X34897094Y-42982737D01*
X34993785Y-42903385D01*
X35004528Y-42890295D01*
X35004528Y-43402200D01*
X35016788Y-43526682D01*
X35053098Y-43646380D01*
X35112063Y-43756694D01*
X35191415Y-43853385D01*
X35288106Y-43932737D01*
X35398420Y-43991702D01*
X35416747Y-43997261D01*
X35478514Y-44112820D01*
X35570363Y-44224738D01*
X35598408Y-44247754D01*
X36890001Y-45539348D01*
X36890001Y-46090998D01*
X36823815Y-46145315D01*
X36744463Y-46242006D01*
X36685498Y-46352320D01*
X36675000Y-46386927D01*
X36664502Y-46352320D01*
X36605537Y-46242006D01*
X36526185Y-46145315D01*
X36429494Y-46065963D01*
X36319180Y-46006998D01*
X36199482Y-45970688D01*
X36075000Y-45958428D01*
X35375000Y-45958428D01*
X35250518Y-45970688D01*
X35130820Y-46006998D01*
X35020506Y-46065963D01*
X34923815Y-46145315D01*
X34844463Y-46242006D01*
X34785498Y-46352320D01*
X34749188Y-46472018D01*
X34736928Y-46596500D01*
X34736928Y-46655189D01*
X34652762Y-46724262D01*
X34629746Y-46752307D01*
X32739168Y-48642886D01*
X32711122Y-48665903D01*
X32619273Y-48777821D01*
X32551023Y-48905508D01*
X32533531Y-48963172D01*
X32508995Y-49044055D01*
X32494804Y-49188140D01*
X32498360Y-49224245D01*
X32498361Y-51529151D01*
X32494804Y-51565266D01*
X32508995Y-51709351D01*
X32522631Y-51754301D01*
X32551024Y-51847899D01*
X32619274Y-51975586D01*
X32711123Y-52087504D01*
X32739168Y-52110520D01*
X35130940Y-54502293D01*
X35153956Y-54530338D01*
X35265874Y-54622187D01*
X35393561Y-54690437D01*
X35475240Y-54715214D01*
X35494663Y-54721106D01*
X35501688Y-54731620D01*
X35659780Y-54889712D01*
X35845676Y-55013924D01*
X35986258Y-55072155D01*
X34371634Y-56686780D01*
X32178172Y-56686780D01*
X32031560Y-56540168D01*
X31845664Y-56415956D01*
X31639107Y-56330397D01*
X31419828Y-56286780D01*
X31243038Y-56286780D01*
X31243038Y-56267087D01*
X31246594Y-56230982D01*
X31232403Y-56086898D01*
X31232403Y-56086897D01*
X31201200Y-55984034D01*
X31201200Y-40702200D01*
X35004528Y-40702200D01*
X35007600Y-40816450D01*
X35166350Y-40975200D01*
X35965600Y-40975200D01*
X35965600Y-40225950D01*
X35806850Y-40067200D01*
X35642600Y-40064128D01*
X35518118Y-40076388D01*
X35398420Y-40112698D01*
X35288106Y-40171663D01*
X35191415Y-40251015D01*
X35112063Y-40347706D01*
X35053098Y-40458020D01*
X35016788Y-40577718D01*
X35004528Y-40702200D01*
X31201200Y-40702200D01*
X31201200Y-40559946D01*
X33267610Y-38493537D01*
X33301606Y-38521437D01*
G04 #@! TA.AperFunction,Conductor*
D33*
G36*
X33301606Y-38521437D02*
G01*
X33411920Y-38580402D01*
X33531618Y-38616712D01*
X33656100Y-38628972D01*
X34656100Y-38628972D01*
X34780582Y-38616712D01*
X34808712Y-38608179D01*
X34833462Y-38638337D01*
X34861508Y-38661354D01*
X36322852Y-40122698D01*
X36219600Y-40225950D01*
X36219600Y-40975200D01*
X37018850Y-40975200D01*
X37097102Y-40896948D01*
X37517353Y-41317200D01*
X37106850Y-41317200D01*
X37018850Y-41229200D01*
X36219600Y-41229200D01*
X36219600Y-41249200D01*
X35965600Y-41249200D01*
X35965600Y-41229200D01*
X35166350Y-41229200D01*
X35081743Y-41313807D01*
X35073137Y-41297706D01*
X34993785Y-41201015D01*
X34897094Y-41121663D01*
X34786780Y-41062698D01*
X34667082Y-41026388D01*
X34542600Y-41014128D01*
X33642600Y-41014128D01*
X33518118Y-41026388D01*
X33398420Y-41062698D01*
X33288106Y-41121663D01*
X33191415Y-41201015D01*
X33112063Y-41297706D01*
X33053098Y-41408020D01*
X33016788Y-41527718D01*
X33004528Y-41652200D01*
X33004528Y-42452200D01*
X33016788Y-42576682D01*
X33053098Y-42696380D01*
X33112063Y-42806694D01*
X33191415Y-42903385D01*
X33288106Y-42982737D01*
X33398420Y-43041702D01*
X33518118Y-43078012D01*
X33642600Y-43090272D01*
X34542600Y-43090272D01*
X34667082Y-43078012D01*
X34786780Y-43041702D01*
X34897094Y-42982737D01*
X34993785Y-42903385D01*
X35004528Y-42890295D01*
X35004528Y-43402200D01*
X35016788Y-43526682D01*
X35053098Y-43646380D01*
X35112063Y-43756694D01*
X35191415Y-43853385D01*
X35288106Y-43932737D01*
X35398420Y-43991702D01*
X35416747Y-43997261D01*
X35478514Y-44112820D01*
X35570363Y-44224738D01*
X35598408Y-44247754D01*
X36890001Y-45539348D01*
X36890001Y-46090998D01*
X36823815Y-46145315D01*
X36744463Y-46242006D01*
X36685498Y-46352320D01*
X36675000Y-46386927D01*
X36664502Y-46352320D01*
X36605537Y-46242006D01*
X36526185Y-46145315D01*
X36429494Y-46065963D01*
X36319180Y-46006998D01*
X36199482Y-45970688D01*
X36075000Y-45958428D01*
X35375000Y-45958428D01*
X35250518Y-45970688D01*
X35130820Y-46006998D01*
X35020506Y-46065963D01*
X34923815Y-46145315D01*
X34844463Y-46242006D01*
X34785498Y-46352320D01*
X34749188Y-46472018D01*
X34736928Y-46596500D01*
X34736928Y-46655189D01*
X34652762Y-46724262D01*
X34629746Y-46752307D01*
X32739168Y-48642886D01*
X32711122Y-48665903D01*
X32619273Y-48777821D01*
X32551023Y-48905508D01*
X32533531Y-48963172D01*
X32508995Y-49044055D01*
X32494804Y-49188140D01*
X32498360Y-49224245D01*
X32498361Y-51529151D01*
X32494804Y-51565266D01*
X32508995Y-51709351D01*
X32522631Y-51754301D01*
X32551024Y-51847899D01*
X32619274Y-51975586D01*
X32711123Y-52087504D01*
X32739168Y-52110520D01*
X35130940Y-54502293D01*
X35153956Y-54530338D01*
X35265874Y-54622187D01*
X35393561Y-54690437D01*
X35475240Y-54715214D01*
X35494663Y-54721106D01*
X35501688Y-54731620D01*
X35659780Y-54889712D01*
X35845676Y-55013924D01*
X35986258Y-55072155D01*
X34371634Y-56686780D01*
X32178172Y-56686780D01*
X32031560Y-56540168D01*
X31845664Y-56415956D01*
X31639107Y-56330397D01*
X31419828Y-56286780D01*
X31243038Y-56286780D01*
X31243038Y-56267087D01*
X31246594Y-56230982D01*
X31232403Y-56086898D01*
X31232403Y-56086897D01*
X31201200Y-55984034D01*
X31201200Y-40702200D01*
X35004528Y-40702200D01*
X35007600Y-40816450D01*
X35166350Y-40975200D01*
X35965600Y-40975200D01*
X35965600Y-40225950D01*
X35806850Y-40067200D01*
X35642600Y-40064128D01*
X35518118Y-40076388D01*
X35398420Y-40112698D01*
X35288106Y-40171663D01*
X35191415Y-40251015D01*
X35112063Y-40347706D01*
X35053098Y-40458020D01*
X35016788Y-40577718D01*
X35004528Y-40702200D01*
X31201200Y-40702200D01*
X31201200Y-40559946D01*
X33267610Y-38493537D01*
X33301606Y-38521437D01*
G37*
G04 #@! TD.AperFunction*
D32*
X27417965Y-39182920D02*
X27646773Y-39335805D01*
X27901010Y-39441114D01*
X28170908Y-39494800D01*
X28446092Y-39494800D01*
X28629560Y-39458306D01*
X29731201Y-40559948D01*
X29731201Y-47093481D01*
X29694822Y-46851967D01*
X29601536Y-46593077D01*
X29539556Y-46477120D01*
X29299465Y-46410140D01*
X28513505Y-47196100D01*
X29299465Y-47982060D01*
X29539556Y-47915080D01*
X29656656Y-47666052D01*
X29722923Y-47398965D01*
X29731201Y-47222403D01*
X29731200Y-55027553D01*
X27354200Y-52650554D01*
X27354200Y-48200746D01*
X27431531Y-48278077D01*
X27547941Y-48161667D01*
X27614920Y-48401756D01*
X27863948Y-48518856D01*
X28131035Y-48585123D01*
X28405917Y-48598010D01*
X28678033Y-48557022D01*
X28936923Y-48463736D01*
X29052880Y-48401756D01*
X29119860Y-48161665D01*
X28333900Y-47375705D01*
X28319758Y-47389848D01*
X28140153Y-47210243D01*
X28154295Y-47196100D01*
X28140153Y-47181958D01*
X28319758Y-47002353D01*
X28333900Y-47016495D01*
X29119860Y-46230535D01*
X29052880Y-45990444D01*
X28912457Y-45924413D01*
X28985627Y-45894105D01*
X29214435Y-45741220D01*
X29409020Y-45546635D01*
X29561905Y-45317827D01*
X29667214Y-45063590D01*
X29720900Y-44793692D01*
X29720900Y-44518508D01*
X29667214Y-44248610D01*
X29561905Y-43994373D01*
X29409020Y-43765565D01*
X29214435Y-43570980D01*
X28985627Y-43418095D01*
X28731390Y-43312786D01*
X28461492Y-43259100D01*
X28186308Y-43259100D01*
X27916410Y-43312786D01*
X27662173Y-43418095D01*
X27433365Y-43570980D01*
X27354200Y-43650145D01*
X27354200Y-39119155D01*
X27417965Y-39182920D01*
G04 #@! TA.AperFunction,Conductor*
D33*
G36*
X27417965Y-39182920D02*
G01*
X27646773Y-39335805D01*
X27901010Y-39441114D01*
X28170908Y-39494800D01*
X28446092Y-39494800D01*
X28629560Y-39458306D01*
X29731201Y-40559948D01*
X29731201Y-47093481D01*
X29694822Y-46851967D01*
X29601536Y-46593077D01*
X29539556Y-46477120D01*
X29299465Y-46410140D01*
X28513505Y-47196100D01*
X29299465Y-47982060D01*
X29539556Y-47915080D01*
X29656656Y-47666052D01*
X29722923Y-47398965D01*
X29731201Y-47222403D01*
X29731200Y-55027553D01*
X27354200Y-52650554D01*
X27354200Y-48200746D01*
X27431531Y-48278077D01*
X27547941Y-48161667D01*
X27614920Y-48401756D01*
X27863948Y-48518856D01*
X28131035Y-48585123D01*
X28405917Y-48598010D01*
X28678033Y-48557022D01*
X28936923Y-48463736D01*
X29052880Y-48401756D01*
X29119860Y-48161665D01*
X28333900Y-47375705D01*
X28319758Y-47389848D01*
X28140153Y-47210243D01*
X28154295Y-47196100D01*
X28140153Y-47181958D01*
X28319758Y-47002353D01*
X28333900Y-47016495D01*
X29119860Y-46230535D01*
X29052880Y-45990444D01*
X28912457Y-45924413D01*
X28985627Y-45894105D01*
X29214435Y-45741220D01*
X29409020Y-45546635D01*
X29561905Y-45317827D01*
X29667214Y-45063590D01*
X29720900Y-44793692D01*
X29720900Y-44518508D01*
X29667214Y-44248610D01*
X29561905Y-43994373D01*
X29409020Y-43765565D01*
X29214435Y-43570980D01*
X28985627Y-43418095D01*
X28731390Y-43312786D01*
X28461492Y-43259100D01*
X28186308Y-43259100D01*
X27916410Y-43312786D01*
X27662173Y-43418095D01*
X27433365Y-43570980D01*
X27354200Y-43650145D01*
X27354200Y-39119155D01*
X27417965Y-39182920D01*
G37*
G04 #@! TD.AperFunction*
D32*
X51004006Y-47969293D02*
X51027022Y-47997338D01*
X51055066Y-48020353D01*
X51138940Y-48089187D01*
X51266626Y-48157437D01*
X51405175Y-48199465D01*
X51549260Y-48213656D01*
X51585365Y-48210100D01*
X53985528Y-48210100D01*
X53985528Y-48325100D01*
X53997788Y-48449582D01*
X54034098Y-48569280D01*
X54093063Y-48679594D01*
X54172415Y-48776285D01*
X54269106Y-48855637D01*
X54379420Y-48914602D01*
X54451980Y-48936613D01*
X54320125Y-49068468D01*
X54178717Y-49280100D01*
X46862374Y-49280100D01*
X47110143Y-49177471D01*
X47336986Y-49025899D01*
X47529899Y-48832986D01*
X47681471Y-48606143D01*
X47785875Y-48354089D01*
X47839100Y-48086511D01*
X47839100Y-47813689D01*
X47785875Y-47546111D01*
X47681471Y-47294057D01*
X47529899Y-47067214D01*
X47336986Y-46874301D01*
X47110143Y-46722729D01*
X46858089Y-46618325D01*
X46590511Y-46565100D01*
X46317689Y-46565100D01*
X46050111Y-46618325D01*
X45798057Y-46722729D01*
X45571214Y-46874301D01*
X45378301Y-47067214D01*
X45226729Y-47294057D01*
X45122325Y-47546111D01*
X45069100Y-47813689D01*
X45069100Y-48086511D01*
X45122325Y-48354089D01*
X45226729Y-48606143D01*
X45378301Y-48832986D01*
X45571214Y-49025899D01*
X45798057Y-49177471D01*
X46045826Y-49280100D01*
X42118854Y-49280100D01*
X42082759Y-49276545D01*
X42046664Y-49280100D01*
X42046655Y-49280100D01*
X41938675Y-49290735D01*
X41800127Y-49332763D01*
X41672440Y-49401013D01*
X41560522Y-49492862D01*
X41537506Y-49520907D01*
X38618856Y-52439557D01*
X38629272Y-52333800D01*
X38629272Y-51533800D01*
X38617012Y-51409318D01*
X38580702Y-51289620D01*
X38521737Y-51179306D01*
X38442385Y-51082615D01*
X38345694Y-51003263D01*
X38235380Y-50944298D01*
X38115682Y-50907988D01*
X37991200Y-50895728D01*
X37091200Y-50895728D01*
X36966718Y-50907988D01*
X36847020Y-50944298D01*
X36736706Y-51003263D01*
X36640015Y-51082615D01*
X36560663Y-51179306D01*
X36550243Y-51198800D01*
X36198919Y-51198800D01*
X36062064Y-51107356D01*
X35855507Y-51021797D01*
X35636228Y-50978180D01*
X35412652Y-50978180D01*
X35193373Y-51021797D01*
X34986816Y-51107356D01*
X34800920Y-51231568D01*
X34642828Y-51389660D01*
X34518616Y-51575556D01*
X34449634Y-51742093D01*
X33968360Y-51260820D01*
X33968360Y-50233800D01*
X36453128Y-50233800D01*
X36465388Y-50358282D01*
X36501698Y-50477980D01*
X36560663Y-50588294D01*
X36640015Y-50684985D01*
X36736706Y-50764337D01*
X36847020Y-50823302D01*
X36966718Y-50859612D01*
X37091200Y-50871872D01*
X37255450Y-50868800D01*
X37414200Y-50710050D01*
X37414200Y-49960800D01*
X37668200Y-49960800D01*
X37668200Y-50710050D01*
X37826950Y-50868800D01*
X37991200Y-50871872D01*
X38115682Y-50859612D01*
X38235380Y-50823302D01*
X38345694Y-50764337D01*
X38442385Y-50684985D01*
X38521737Y-50588294D01*
X38580702Y-50477980D01*
X38617012Y-50358282D01*
X38629272Y-50233800D01*
X38626200Y-50119550D01*
X38467450Y-49960800D01*
X37668200Y-49960800D01*
X37414200Y-49960800D01*
X36614950Y-49960800D01*
X36456200Y-50119550D01*
X36453128Y-50233800D01*
X33968360Y-50233800D01*
X33968360Y-49492586D01*
X34027146Y-49433800D01*
X36453128Y-49433800D01*
X36456200Y-49548050D01*
X36614950Y-49706800D01*
X37414200Y-49706800D01*
X37414200Y-48957550D01*
X37668200Y-48957550D01*
X37668200Y-49706800D01*
X38467450Y-49706800D01*
X38626200Y-49548050D01*
X38629272Y-49433800D01*
X38617012Y-49309318D01*
X38580702Y-49189620D01*
X38521737Y-49079306D01*
X38442385Y-48982615D01*
X38345694Y-48903263D01*
X38235380Y-48844298D01*
X38115682Y-48807988D01*
X37991200Y-48795728D01*
X37826950Y-48798800D01*
X37668200Y-48957550D01*
X37414200Y-48957550D01*
X37255450Y-48798800D01*
X37091200Y-48795728D01*
X36966718Y-48807988D01*
X36847020Y-48844298D01*
X36736706Y-48903263D01*
X36640015Y-48982615D01*
X36560663Y-49079306D01*
X36501698Y-49189620D01*
X36465388Y-49309318D01*
X36453128Y-49433800D01*
X34027146Y-49433800D01*
X35029241Y-48431706D01*
X35130820Y-48486002D01*
X35250518Y-48522312D01*
X35375000Y-48534572D01*
X36075000Y-48534572D01*
X36199482Y-48522312D01*
X36319180Y-48486002D01*
X36429494Y-48427037D01*
X36526185Y-48347685D01*
X36605537Y-48250994D01*
X36664502Y-48140680D01*
X36675000Y-48106073D01*
X36685498Y-48140680D01*
X36744463Y-48250994D01*
X36823815Y-48347685D01*
X36920506Y-48427037D01*
X37030820Y-48486002D01*
X37150518Y-48522312D01*
X37275000Y-48534572D01*
X37975000Y-48534572D01*
X38099482Y-48522312D01*
X38219180Y-48486002D01*
X38329494Y-48427037D01*
X38426185Y-48347685D01*
X38505537Y-48250994D01*
X38564502Y-48140680D01*
X38600812Y-48020982D01*
X38613072Y-47896500D01*
X38613072Y-46596500D01*
X38600812Y-46472018D01*
X38564502Y-46352320D01*
X38505537Y-46242006D01*
X38426185Y-46145315D01*
X38360000Y-46090999D01*
X38360000Y-45271005D01*
X38363556Y-45234900D01*
X38349365Y-45090815D01*
X38341106Y-45063590D01*
X38307337Y-44952267D01*
X38239087Y-44824580D01*
X38147238Y-44712662D01*
X38119193Y-44689646D01*
X37112534Y-43682988D01*
X37132102Y-43646380D01*
X37168412Y-43526682D01*
X37180672Y-43402200D01*
X37180672Y-42787200D01*
X45821914Y-42787200D01*
X51004006Y-47969293D01*
G04 #@! TA.AperFunction,Conductor*
D33*
G36*
X51004006Y-47969293D02*
G01*
X51027022Y-47997338D01*
X51055066Y-48020353D01*
X51138940Y-48089187D01*
X51266626Y-48157437D01*
X51405175Y-48199465D01*
X51549260Y-48213656D01*
X51585365Y-48210100D01*
X53985528Y-48210100D01*
X53985528Y-48325100D01*
X53997788Y-48449582D01*
X54034098Y-48569280D01*
X54093063Y-48679594D01*
X54172415Y-48776285D01*
X54269106Y-48855637D01*
X54379420Y-48914602D01*
X54451980Y-48936613D01*
X54320125Y-49068468D01*
X54178717Y-49280100D01*
X46862374Y-49280100D01*
X47110143Y-49177471D01*
X47336986Y-49025899D01*
X47529899Y-48832986D01*
X47681471Y-48606143D01*
X47785875Y-48354089D01*
X47839100Y-48086511D01*
X47839100Y-47813689D01*
X47785875Y-47546111D01*
X47681471Y-47294057D01*
X47529899Y-47067214D01*
X47336986Y-46874301D01*
X47110143Y-46722729D01*
X46858089Y-46618325D01*
X46590511Y-46565100D01*
X46317689Y-46565100D01*
X46050111Y-46618325D01*
X45798057Y-46722729D01*
X45571214Y-46874301D01*
X45378301Y-47067214D01*
X45226729Y-47294057D01*
X45122325Y-47546111D01*
X45069100Y-47813689D01*
X45069100Y-48086511D01*
X45122325Y-48354089D01*
X45226729Y-48606143D01*
X45378301Y-48832986D01*
X45571214Y-49025899D01*
X45798057Y-49177471D01*
X46045826Y-49280100D01*
X42118854Y-49280100D01*
X42082759Y-49276545D01*
X42046664Y-49280100D01*
X42046655Y-49280100D01*
X41938675Y-49290735D01*
X41800127Y-49332763D01*
X41672440Y-49401013D01*
X41560522Y-49492862D01*
X41537506Y-49520907D01*
X38618856Y-52439557D01*
X38629272Y-52333800D01*
X38629272Y-51533800D01*
X38617012Y-51409318D01*
X38580702Y-51289620D01*
X38521737Y-51179306D01*
X38442385Y-51082615D01*
X38345694Y-51003263D01*
X38235380Y-50944298D01*
X38115682Y-50907988D01*
X37991200Y-50895728D01*
X37091200Y-50895728D01*
X36966718Y-50907988D01*
X36847020Y-50944298D01*
X36736706Y-51003263D01*
X36640015Y-51082615D01*
X36560663Y-51179306D01*
X36550243Y-51198800D01*
X36198919Y-51198800D01*
X36062064Y-51107356D01*
X35855507Y-51021797D01*
X35636228Y-50978180D01*
X35412652Y-50978180D01*
X35193373Y-51021797D01*
X34986816Y-51107356D01*
X34800920Y-51231568D01*
X34642828Y-51389660D01*
X34518616Y-51575556D01*
X34449634Y-51742093D01*
X33968360Y-51260820D01*
X33968360Y-50233800D01*
X36453128Y-50233800D01*
X36465388Y-50358282D01*
X36501698Y-50477980D01*
X36560663Y-50588294D01*
X36640015Y-50684985D01*
X36736706Y-50764337D01*
X36847020Y-50823302D01*
X36966718Y-50859612D01*
X37091200Y-50871872D01*
X37255450Y-50868800D01*
X37414200Y-50710050D01*
X37414200Y-49960800D01*
X37668200Y-49960800D01*
X37668200Y-50710050D01*
X37826950Y-50868800D01*
X37991200Y-50871872D01*
X38115682Y-50859612D01*
X38235380Y-50823302D01*
X38345694Y-50764337D01*
X38442385Y-50684985D01*
X38521737Y-50588294D01*
X38580702Y-50477980D01*
X38617012Y-50358282D01*
X38629272Y-50233800D01*
X38626200Y-50119550D01*
X38467450Y-49960800D01*
X37668200Y-49960800D01*
X37414200Y-49960800D01*
X36614950Y-49960800D01*
X36456200Y-50119550D01*
X36453128Y-50233800D01*
X33968360Y-50233800D01*
X33968360Y-49492586D01*
X34027146Y-49433800D01*
X36453128Y-49433800D01*
X36456200Y-49548050D01*
X36614950Y-49706800D01*
X37414200Y-49706800D01*
X37414200Y-48957550D01*
X37668200Y-48957550D01*
X37668200Y-49706800D01*
X38467450Y-49706800D01*
X38626200Y-49548050D01*
X38629272Y-49433800D01*
X38617012Y-49309318D01*
X38580702Y-49189620D01*
X38521737Y-49079306D01*
X38442385Y-48982615D01*
X38345694Y-48903263D01*
X38235380Y-48844298D01*
X38115682Y-48807988D01*
X37991200Y-48795728D01*
X37826950Y-48798800D01*
X37668200Y-48957550D01*
X37414200Y-48957550D01*
X37255450Y-48798800D01*
X37091200Y-48795728D01*
X36966718Y-48807988D01*
X36847020Y-48844298D01*
X36736706Y-48903263D01*
X36640015Y-48982615D01*
X36560663Y-49079306D01*
X36501698Y-49189620D01*
X36465388Y-49309318D01*
X36453128Y-49433800D01*
X34027146Y-49433800D01*
X35029241Y-48431706D01*
X35130820Y-48486002D01*
X35250518Y-48522312D01*
X35375000Y-48534572D01*
X36075000Y-48534572D01*
X36199482Y-48522312D01*
X36319180Y-48486002D01*
X36429494Y-48427037D01*
X36526185Y-48347685D01*
X36605537Y-48250994D01*
X36664502Y-48140680D01*
X36675000Y-48106073D01*
X36685498Y-48140680D01*
X36744463Y-48250994D01*
X36823815Y-48347685D01*
X36920506Y-48427037D01*
X37030820Y-48486002D01*
X37150518Y-48522312D01*
X37275000Y-48534572D01*
X37975000Y-48534572D01*
X38099482Y-48522312D01*
X38219180Y-48486002D01*
X38329494Y-48427037D01*
X38426185Y-48347685D01*
X38505537Y-48250994D01*
X38564502Y-48140680D01*
X38600812Y-48020982D01*
X38613072Y-47896500D01*
X38613072Y-46596500D01*
X38600812Y-46472018D01*
X38564502Y-46352320D01*
X38505537Y-46242006D01*
X38426185Y-46145315D01*
X38360000Y-46090999D01*
X38360000Y-45271005D01*
X38363556Y-45234900D01*
X38349365Y-45090815D01*
X38341106Y-45063590D01*
X38307337Y-44952267D01*
X38239087Y-44824580D01*
X38147238Y-44712662D01*
X38119193Y-44689646D01*
X37112534Y-43682988D01*
X37132102Y-43646380D01*
X37168412Y-43526682D01*
X37180672Y-43402200D01*
X37180672Y-42787200D01*
X45821914Y-42787200D01*
X51004006Y-47969293D01*
G37*
G04 #@! TD.AperFunction*
M02*
