M48
; DRILL file {KiCad 5.1.7-a382d34a8~88~ubuntu18.04.1} date Mon May 31 17:18:56 2021
; FORMAT={3:3/ absolute / metric / suppress leading zeros}
; #@! TF.CreationDate,2021-05-31T17:18:56+05:30
; #@! TF.GenerationSoftware,Kicad,Pcbnew,5.1.7-a382d34a8~88~ubuntu18.04.1
FMAT,2
METRIC,TZ
T1C0.500
T2C0.600
T3C0.800
T4C0.900
T5C1.000
T6C1.100
T7C2.100
T8C0.900
%
G90
G05
T2
X28895Y-65138
X29891Y-62333
X30370Y-22163
X31308Y-57422
X31440Y-45690
X31745Y-63348
X31930Y-59505
X31976Y-80437
X32470Y-56475
X32545Y-61886
X33183Y-54201
X34033Y-35123
X34399Y-51095
X34991Y-70376
X35227Y-39126
X35524Y-52113
X35626Y-60172
X35920Y-65827
X35937Y-62572
X35987Y-58105
X36043Y-76043
X36383Y-54008
X37292Y-59987
X37318Y-57620
X37762Y-38986
X37773Y-62019
X37910Y-70592
X38402Y-58216
X39091Y-66946
X39412Y-61223
X40120Y-56844
X40536Y-54293
X40762Y-57936
X40917Y-78705
X40960Y-66193
X42464Y-30434
X43231Y-54877
X44517Y-82653
X44699Y-60147
X44737Y-56297
X47324Y-25234
X48191Y-84144
X48505Y-36953
X48740Y-81107
X50503Y-88207
X53160Y-86586
X54905Y-39832
X57851Y-34519
T3
X27224Y-55598
X27224Y-60478
X46454Y-47950
X46454Y-52830
T4
X53784Y-21737
X56325Y-26137
T5
X56200Y-72306
X56200Y-74846
X56200Y-77386
X56200Y-79926
X28324Y-44656
X28334Y-47196
X55107Y-60744
X55107Y-63284
X55107Y-65824
X55107Y-68364
X29256Y-87610
X35679Y-86670
X38219Y-86670
X40759Y-86670
X43299Y-86670
X45839Y-86670
X48379Y-86670
X28298Y-35558
X28309Y-38098
X28225Y-26325
X28235Y-28865
X55474Y-47475
X55474Y-50015
X55474Y-52555
X55474Y-55095
T6
X44371Y-73580
X44371Y-78080
X50871Y-73580
X50871Y-78080
T7
X25207Y-87742
X25225Y-21265
X57998Y-21450
T8
X45332Y-21425
X48332Y-21425
T1
G00X51678Y-86391
M15
G01X51678Y-87091
M16
G05
G00X58828Y-86391
M15
G01X58828Y-87091
M16
G05
T2
G00X52828Y-83891
M15
G01X52828Y-84091
M16
G05
G00X57678Y-83891
M15
G01X57678Y-84091
M16
G05
T0
M30
