G04 #@! TF.GenerationSoftware,KiCad,Pcbnew,5.1.7-a382d34a8~88~ubuntu18.04.1*
G04 #@! TF.CreationDate,2021-05-31T17:25:42+05:30*
G04 #@! TF.ProjectId,Sensor_PCB_v5,53656e73-6f72-45f5-9043-425f76352e6b,rev?*
G04 #@! TF.SameCoordinates,Original*
G04 #@! TF.FileFunction,Copper,L2,Bot*
G04 #@! TF.FilePolarity,Positive*
%FSLAX46Y46*%
G04 Gerber Fmt 4.6, Leading zero omitted, Abs format (unit mm)*
G04 Created by KiCad (PCBNEW 5.1.7-a382d34a8~88~ubuntu18.04.1) date 2021-05-31 17:25:42*
%MOMM*%
%LPD*%
G01*
G04 APERTURE LIST*
G04 #@! TA.AperFunction,ComponentPad*
%ADD10C,2.150000*%
G04 #@! TD*
G04 #@! TA.AperFunction,SMDPad,CuDef*
%ADD11R,1.300000X0.700000*%
G04 #@! TD*
G04 #@! TA.AperFunction,ComponentPad*
%ADD12C,1.524000*%
G04 #@! TD*
G04 #@! TA.AperFunction,ComponentPad*
%ADD13O,1.200000X2.000000*%
G04 #@! TD*
G04 #@! TA.AperFunction,ComponentPad*
%ADD14O,1.100000X1.300000*%
G04 #@! TD*
G04 #@! TA.AperFunction,SMDPad,CuDef*
%ADD15R,1.000000X1.500000*%
G04 #@! TD*
G04 #@! TA.AperFunction,SMDPad,CuDef*
%ADD16C,0.100000*%
G04 #@! TD*
G04 #@! TA.AperFunction,ComponentPad*
%ADD17R,1.700000X1.700000*%
G04 #@! TD*
G04 #@! TA.AperFunction,ComponentPad*
%ADD18O,1.700000X1.700000*%
G04 #@! TD*
G04 #@! TA.AperFunction,SMDPad,CuDef*
%ADD19R,1.000000X0.230000*%
G04 #@! TD*
G04 #@! TA.AperFunction,SMDPad,CuDef*
%ADD20R,0.230000X1.000000*%
G04 #@! TD*
G04 #@! TA.AperFunction,SMDPad,CuDef*
%ADD21R,1.000000X1.250000*%
G04 #@! TD*
G04 #@! TA.AperFunction,SMDPad,CuDef*
%ADD22R,1.250000X1.000000*%
G04 #@! TD*
G04 #@! TA.AperFunction,SMDPad,CuDef*
%ADD23R,0.700000X1.300000*%
G04 #@! TD*
G04 #@! TA.AperFunction,ComponentPad*
%ADD24C,0.100000*%
G04 #@! TD*
G04 #@! TA.AperFunction,SMDPad,CuDef*
%ADD25R,1.060000X0.650000*%
G04 #@! TD*
G04 #@! TA.AperFunction,ComponentPad*
%ADD26C,1.500000*%
G04 #@! TD*
G04 #@! TA.AperFunction,ComponentPad*
%ADD27C,2.000000*%
G04 #@! TD*
G04 #@! TA.AperFunction,SMDPad,CuDef*
%ADD28R,1.000000X1.600000*%
G04 #@! TD*
G04 #@! TA.AperFunction,ViaPad*
%ADD29C,1.000000*%
G04 #@! TD*
G04 #@! TA.AperFunction,Conductor*
%ADD30C,0.200000*%
G04 #@! TD*
G04 #@! TA.AperFunction,Conductor*
%ADD31C,0.254000*%
G04 #@! TD*
G04 #@! TA.AperFunction,Conductor*
%ADD32C,0.100000*%
G04 #@! TD*
G04 APERTURE END LIST*
D10*
X25206960Y-87741760D03*
X57998360Y-21450300D03*
X25224740Y-21264880D03*
D11*
X34621900Y-74109600D03*
X34621900Y-75379600D03*
X34621900Y-72839600D03*
X34621900Y-71569600D03*
X29121900Y-74109600D03*
X29121900Y-75379600D03*
X29121900Y-72839600D03*
X29121900Y-71569600D03*
D12*
X28323900Y-44656100D03*
X28333900Y-47196100D03*
D13*
X51677600Y-86741000D03*
X58827600Y-86741000D03*
D14*
X52827600Y-83991000D03*
X57677600Y-83991000D03*
D12*
X28224800Y-26324900D03*
X28234800Y-28864900D03*
X28298500Y-35557800D03*
X28308500Y-38097800D03*
X55107500Y-60744100D03*
X55107500Y-63284100D03*
X55107500Y-65824100D03*
X55107500Y-68364100D03*
D15*
X50529400Y-37943700D03*
X53529400Y-37943700D03*
G04 #@! TA.AperFunction,SMDPad,CuDef*
D16*
G36*
X51558949Y-37184620D02*
G01*
X51565211Y-37186266D01*
X51587513Y-37193700D01*
X52539400Y-37193700D01*
X52549155Y-37194661D01*
X52558534Y-37197506D01*
X52567179Y-37202127D01*
X52574755Y-37208345D01*
X52580973Y-37215921D01*
X52585594Y-37224566D01*
X52588439Y-37233945D01*
X52589400Y-37243700D01*
X52589400Y-39633700D01*
X53039400Y-39633700D01*
X53049155Y-39634661D01*
X53058534Y-39637506D01*
X53067179Y-39642127D01*
X53074755Y-39648345D01*
X53080973Y-39655921D01*
X53085594Y-39664566D01*
X53088439Y-39673945D01*
X53089400Y-39683531D01*
X53099400Y-42633531D01*
X53098472Y-42643288D01*
X53095659Y-42652677D01*
X53091067Y-42661337D01*
X53084875Y-42668935D01*
X53077319Y-42675179D01*
X53068691Y-42679829D01*
X53059321Y-42682706D01*
X53049400Y-42683700D01*
X52539400Y-42683700D01*
X52539400Y-42723700D01*
X51539400Y-42723700D01*
X51539400Y-42683700D01*
X50989400Y-42683700D01*
X50979645Y-42682739D01*
X50970266Y-42679894D01*
X50961621Y-42675273D01*
X50954045Y-42669055D01*
X50947827Y-42661479D01*
X50943206Y-42652834D01*
X50940361Y-42643455D01*
X50939400Y-42633700D01*
X50939400Y-39623700D01*
X50940361Y-39613945D01*
X50943206Y-39604566D01*
X50947827Y-39595921D01*
X50954045Y-39588345D01*
X50961621Y-39582127D01*
X50970266Y-39577506D01*
X50979645Y-39574661D01*
X50989400Y-39573700D01*
X51509190Y-39573700D01*
X51499400Y-37233909D01*
X51500320Y-37224151D01*
X51503126Y-37214759D01*
X51507711Y-37206096D01*
X51513897Y-37198493D01*
X51521448Y-37192243D01*
X51530073Y-37187586D01*
X51539440Y-37184702D01*
X51549191Y-37183700D01*
X51558949Y-37184620D01*
G37*
G04 #@! TD.AperFunction*
D17*
X35679400Y-86669900D03*
D18*
X38219400Y-86669900D03*
X40759400Y-86669900D03*
X43299400Y-86669900D03*
X45839400Y-86669900D03*
X48379400Y-86669900D03*
D19*
X42362100Y-57421800D03*
D20*
X41092100Y-63771800D03*
X40584100Y-63771800D03*
X40076100Y-63771800D03*
X39568100Y-63771800D03*
X39060100Y-63771800D03*
X38552100Y-63771800D03*
X38044100Y-63771800D03*
X37536100Y-63771800D03*
X37028100Y-63771800D03*
X36520100Y-63771800D03*
X36012100Y-63771800D03*
X35504100Y-63771800D03*
D19*
X34234100Y-62501800D03*
X34234100Y-61993800D03*
X34234100Y-60977800D03*
X34234100Y-60469800D03*
X34234100Y-59961800D03*
X34234100Y-59453800D03*
X34234100Y-58945800D03*
X34234100Y-58437800D03*
X34234100Y-57929800D03*
X34234100Y-57421800D03*
X34234100Y-56913800D03*
D20*
X36012100Y-55643800D03*
X36520100Y-55643800D03*
X37028100Y-55643800D03*
X37536100Y-55643800D03*
X38044100Y-55643800D03*
X38552100Y-55643800D03*
X39060100Y-55643800D03*
X39568100Y-55643800D03*
X40076100Y-55643800D03*
X40584100Y-55643800D03*
X41092100Y-55643800D03*
D19*
X42362100Y-56913800D03*
X42362100Y-57929800D03*
X42362100Y-58437800D03*
X42362100Y-58945800D03*
X42362100Y-59453800D03*
X42362100Y-59961800D03*
X42362100Y-60469800D03*
X42362100Y-60977800D03*
X42362100Y-61485800D03*
X42362100Y-61993800D03*
X42362100Y-62501800D03*
D20*
X35504100Y-55643800D03*
D19*
X34234100Y-61485800D03*
D11*
X30261600Y-66278800D03*
X30261600Y-64378800D03*
D17*
X56200000Y-79926200D03*
D18*
X56200000Y-77386200D03*
X56200000Y-74846200D03*
X56200000Y-72306200D03*
D17*
X29255700Y-87609700D03*
X55473600Y-47475100D03*
D18*
X55473600Y-50015100D03*
X55473600Y-52555100D03*
X55473600Y-55095100D03*
D21*
X48935600Y-74284800D03*
X46935600Y-74284800D03*
D22*
X42227500Y-48947600D03*
X42227500Y-46947600D03*
X42296100Y-50805800D03*
X42296100Y-52805800D03*
X33530500Y-47150800D03*
X33530500Y-49150800D03*
X31249600Y-51786300D03*
X31249600Y-53786300D03*
X36446500Y-24291800D03*
X36446500Y-22291800D03*
X39413200Y-24477200D03*
X39413200Y-22477200D03*
D23*
X47401400Y-71384200D03*
X49301400Y-71384200D03*
D11*
X37863800Y-48719800D03*
X37863800Y-46819800D03*
X28638500Y-20490100D03*
X28638500Y-22390100D03*
D23*
X52875200Y-26489700D03*
X50975200Y-26489700D03*
G04 #@! TA.AperFunction,ComponentPad*
G36*
G01*
X54234500Y-22516614D02*
X54234500Y-22516614D01*
G75*
G02*
X53005077Y-22187191I-450000J779423D01*
G01*
X53005077Y-22187191D01*
G75*
G02*
X53334500Y-20957768I779423J450000D01*
G01*
X53334500Y-20957768D01*
G75*
G02*
X54563923Y-21287191I450000J-779423D01*
G01*
X54563923Y-21287191D01*
G75*
G02*
X54234500Y-22516614I-779423J-450000D01*
G01*
G37*
G04 #@! TD.AperFunction*
G04 #@! TA.AperFunction,ComponentPad*
D24*
G36*
X57553923Y-26466023D02*
G01*
X55995077Y-27366023D01*
X55095077Y-25807177D01*
X56653923Y-24907177D01*
X57553923Y-26466023D01*
G37*
G04 #@! TD.AperFunction*
D25*
X33271300Y-32860000D03*
X33271300Y-31910000D03*
X33271300Y-30960000D03*
X35471300Y-30960000D03*
X35471300Y-32860000D03*
D26*
X46454100Y-52830100D03*
X46454100Y-47950100D03*
X27223700Y-55598100D03*
X27223700Y-60478100D03*
D27*
X44371100Y-78079600D03*
X44371100Y-73579600D03*
X50871100Y-78079600D03*
X50871100Y-73579600D03*
D28*
X42795100Y-36814800D03*
X45795100Y-36814800D03*
D21*
X31629900Y-78404700D03*
X29629900Y-78404700D03*
D23*
X38597800Y-74617600D03*
X40497800Y-74617600D03*
X40558800Y-71899800D03*
X38658800Y-71899800D03*
X38267700Y-78709500D03*
X36367700Y-78709500D03*
D29*
X40762089Y-57936480D03*
X37773306Y-62018537D03*
X35936705Y-62571784D03*
X42463700Y-30433600D03*
X36042600Y-76042520D03*
X47324000Y-25233500D03*
X40535860Y-54292500D03*
X31930342Y-59504580D03*
X35919700Y-65826600D03*
X28895500Y-65137700D03*
X29891100Y-62333100D03*
X30370500Y-22162600D03*
X31308040Y-57421780D03*
X40959643Y-66193457D03*
X31976060Y-80436720D03*
X34991040Y-70375780D03*
X37909500Y-70591590D03*
X33182560Y-54201060D03*
X43230800Y-54876700D03*
X44737020Y-56296560D03*
X57851040Y-34518600D03*
X34033460Y-35123120D03*
X39091327Y-66946053D03*
X32469858Y-56475190D03*
X35227260Y-39126160D03*
X37762180Y-38986460D03*
X31440120Y-45689520D03*
X44698920Y-60147290D03*
X48505500Y-36952500D03*
X54904640Y-39832280D03*
X53159660Y-86586060D03*
X50502820Y-88206580D03*
X48191420Y-84144090D03*
X48740060Y-81107280D03*
X37317680Y-57619900D03*
X31744920Y-63347600D03*
X32544930Y-61886373D03*
X38402416Y-58216277D03*
X34399220Y-51094640D03*
X40120264Y-56843812D03*
X35987431Y-58105373D03*
X37292280Y-59987180D03*
X35625703Y-60171749D03*
X35524440Y-52113180D03*
X39411503Y-61222522D03*
X44516600Y-82653400D03*
X40916800Y-78705300D03*
X36383300Y-54008100D03*
D30*
X44371100Y-73579600D02*
X45430100Y-73579600D01*
X45430100Y-73579600D02*
X46135300Y-74284800D01*
X47401400Y-71384200D02*
X47401400Y-72334500D01*
X47401400Y-72334500D02*
X46935600Y-72800300D01*
X46935600Y-72800300D02*
X46935600Y-74284800D01*
X46935600Y-74284800D02*
X46135300Y-74284800D01*
X38044100Y-64409300D02*
X38044100Y-63771800D01*
X44371100Y-70736300D02*
X38044100Y-64409300D01*
X44371100Y-73579600D02*
X44371100Y-70736300D01*
X42227500Y-48147300D02*
X42424700Y-47950100D01*
X42424700Y-47950100D02*
X46454100Y-47950100D01*
X42227500Y-48947600D02*
X42227500Y-48147300D01*
X47513500Y-49009500D02*
X47513500Y-57068460D01*
X47513500Y-57068460D02*
X47200820Y-57381140D01*
X41562099Y-61585801D02*
X40076100Y-63071800D01*
X40076100Y-63071800D02*
X40076100Y-63771800D01*
X43159800Y-56498799D02*
X41622099Y-56498799D01*
X41622099Y-56498799D02*
X41562099Y-56558799D01*
X44042141Y-57381140D02*
X43159800Y-56498799D01*
X41562099Y-56558799D02*
X41562099Y-61585801D01*
X47200820Y-57381140D02*
X44042141Y-57381140D01*
X46454100Y-47950100D02*
X47513500Y-49009500D01*
X42296100Y-52805800D02*
X43221400Y-52805800D01*
X46454100Y-52830100D02*
X43245700Y-52830100D01*
X43245700Y-52830100D02*
X43221400Y-52805800D01*
X40762089Y-61041917D02*
X40762089Y-57971679D01*
X39568100Y-62235906D02*
X40762089Y-61041917D01*
X39568100Y-63771800D02*
X39568100Y-62235906D01*
X40762089Y-57971679D02*
X40762089Y-57936480D01*
X27223700Y-55598100D02*
X27223700Y-54248500D01*
X27223700Y-54248500D02*
X32321400Y-49150800D01*
X32321400Y-49150800D02*
X33530500Y-49150800D01*
X37863800Y-48719800D02*
X36913500Y-48719800D01*
X33530500Y-49150800D02*
X36482500Y-49150800D01*
X36482500Y-49150800D02*
X36913500Y-48719800D01*
X38608343Y-62018537D02*
X37773306Y-62018537D01*
X39060100Y-62470294D02*
X38608343Y-62018537D01*
X39060100Y-63771800D02*
X39060100Y-62470294D01*
X27223700Y-60478100D02*
X29476400Y-58225400D01*
X29476400Y-58225400D02*
X29476400Y-53959600D01*
X29476400Y-53959600D02*
X31249600Y-52186400D01*
X31249600Y-51786300D02*
X31249600Y-52186400D01*
X38107700Y-47470100D02*
X37863800Y-47470100D01*
X38814200Y-49200800D02*
X38814200Y-48176600D01*
X36021020Y-50491400D02*
X37523600Y-50491400D01*
X38814200Y-48176600D02*
X38107700Y-47470100D01*
X35697160Y-50167540D02*
X36021020Y-50491400D01*
X34853419Y-50157479D02*
X35621421Y-50157479D01*
X31249600Y-52186400D02*
X33268460Y-50167540D01*
X37523600Y-50491400D02*
X38814200Y-49200800D01*
X34843358Y-50167540D02*
X34853419Y-50157479D01*
X33268460Y-50167540D02*
X34843358Y-50167540D01*
X35631482Y-50167540D02*
X35697160Y-50167540D01*
X37863800Y-47470100D02*
X37863800Y-46819800D01*
X35621421Y-50157479D02*
X35631482Y-50167540D01*
X38451800Y-62971500D02*
X36336421Y-62971500D01*
X38552100Y-63071800D02*
X38451800Y-62971500D01*
X36336421Y-62971500D02*
X35936705Y-62571784D01*
X38552100Y-63771800D02*
X38552100Y-63071800D01*
X39413200Y-29833000D02*
X41863100Y-29833000D01*
X41863100Y-29833000D02*
X42463700Y-30433600D01*
X36301600Y-32860000D02*
X39328600Y-29833000D01*
X39328600Y-29833000D02*
X39413200Y-29833000D01*
X39413200Y-29833000D02*
X39413200Y-25084700D01*
X35471300Y-32860000D02*
X36301600Y-32860000D01*
X39413200Y-24477200D02*
X39413200Y-25084700D01*
X32441000Y-32860000D02*
X32441000Y-30960000D01*
X32541100Y-32860000D02*
X32441000Y-32860000D01*
X33271300Y-32860000D02*
X32541100Y-32860000D01*
X32441000Y-28864900D02*
X28234800Y-28864900D01*
X36446500Y-25092100D02*
X32673700Y-28864900D01*
X32673700Y-28864900D02*
X32441000Y-28864900D01*
X32441000Y-30960000D02*
X32441000Y-28864900D01*
X33271300Y-30960000D02*
X32441000Y-30960000D01*
X33671600Y-71569600D02*
X33021300Y-70919300D01*
X33021300Y-70919300D02*
X28285200Y-70919300D01*
X34621900Y-71569600D02*
X33671600Y-71569600D01*
X36446500Y-24291800D02*
X36446500Y-25092100D01*
X26170600Y-43664900D02*
X32441000Y-37394500D01*
X32441000Y-37394500D02*
X32441000Y-32860000D01*
X28285200Y-70919300D02*
X26170600Y-70919300D01*
X26170600Y-70919300D02*
X26170600Y-43664900D01*
X30829600Y-78404700D02*
X31629900Y-78404700D01*
X30829600Y-78004600D02*
X30829600Y-78404700D01*
X29562400Y-77314600D02*
X30139600Y-77314600D01*
X25726150Y-71781910D02*
X25726150Y-76937630D01*
X26588760Y-70919300D02*
X25726150Y-71781910D01*
X28285200Y-70919300D02*
X26588760Y-70919300D01*
X25726150Y-76937630D02*
X25894130Y-77105610D01*
X30139600Y-77314600D02*
X30829600Y-78004600D01*
X25894130Y-77105610D02*
X29353410Y-77105610D01*
X29353410Y-77105610D02*
X29562400Y-77314600D01*
X34246900Y-75379600D02*
X34621900Y-75379600D01*
X34246900Y-75379600D02*
X33671600Y-75379600D01*
X29121900Y-71569600D02*
X30072200Y-71569600D01*
X30072200Y-71569600D02*
X33671600Y-75169000D01*
X33671600Y-75169000D02*
X33671600Y-75379600D01*
X34621900Y-75379600D02*
X35379680Y-75379600D01*
X35379680Y-75379600D02*
X36042600Y-76042520D01*
X47324000Y-25233500D02*
X49068700Y-25233500D01*
X49068700Y-25233500D02*
X50324900Y-26489700D01*
X41302100Y-35538000D02*
X47324000Y-29516100D01*
X47324000Y-29516100D02*
X47324000Y-25233500D01*
X50975200Y-26489700D02*
X50324900Y-26489700D01*
X49860700Y-69200100D02*
X50696700Y-68364100D01*
X50696700Y-68364100D02*
X55107500Y-68364100D01*
X49860700Y-69200100D02*
X43162400Y-62501800D01*
X42362100Y-62501800D02*
X43162400Y-62501800D01*
X49464000Y-71384200D02*
X47851900Y-72996300D01*
X47851900Y-72996300D02*
X47851900Y-75067100D01*
X47851900Y-75067100D02*
X47689200Y-75229800D01*
X50839400Y-83059600D02*
X50839400Y-83059700D01*
X50839400Y-83059700D02*
X51115600Y-83059700D01*
X51115600Y-83059700D02*
X54249100Y-79926200D01*
X54249100Y-79926200D02*
X55149800Y-79926200D01*
X48379400Y-85519600D02*
X50839400Y-83059600D01*
X49382700Y-71384200D02*
X49464000Y-71384200D01*
X49301400Y-71384200D02*
X49382700Y-71384200D01*
X56200000Y-79926200D02*
X55149800Y-79926200D01*
X48379400Y-86669900D02*
X48379400Y-85519600D01*
X44149000Y-75229800D02*
X47689200Y-75229800D01*
X37028100Y-66131420D02*
X38846880Y-67950200D01*
X37028100Y-63771800D02*
X37028100Y-66131420D01*
X38846880Y-67950200D02*
X38846880Y-67962900D01*
X38846880Y-67962900D02*
X42655000Y-71771020D01*
X42655000Y-71771020D02*
X42655000Y-73735800D01*
X42655000Y-73735800D02*
X44149000Y-75229800D01*
X41302100Y-44131660D02*
X40920240Y-44131660D01*
X41302100Y-44131660D02*
X41302100Y-35538000D01*
X40920240Y-44131660D02*
X40476110Y-44575790D01*
X40476110Y-50607569D02*
X39801800Y-51281879D01*
X40476110Y-44575790D02*
X40476110Y-50607569D01*
X39801800Y-51281879D02*
X39801800Y-53764180D01*
X40007540Y-53764180D02*
X40535860Y-54292500D01*
X39801800Y-53764180D02*
X40007540Y-53764180D01*
X41092100Y-54848740D02*
X41092100Y-55643800D01*
X40535860Y-54292500D02*
X41092100Y-54848740D01*
X27923100Y-27599900D02*
X28684000Y-27599900D01*
X38851840Y-53776920D02*
X40076100Y-55001180D01*
X31425000Y-84790400D02*
X24483060Y-77848460D01*
X24483060Y-77848460D02*
X24483060Y-31039940D01*
X37386300Y-25949300D02*
X34626200Y-28709400D01*
X40076100Y-55001180D02*
X40076100Y-55643800D01*
X40076100Y-50441880D02*
X38851840Y-51666140D01*
X38851840Y-51666140D02*
X38851840Y-53776920D01*
X38879900Y-84790400D02*
X31425000Y-84790400D01*
X28684000Y-27599900D02*
X32792500Y-23491400D01*
X32792500Y-23491400D02*
X37206500Y-23491400D01*
X40759400Y-86669900D02*
X38879900Y-84790400D01*
X37206500Y-23491400D02*
X37386300Y-23671200D01*
X24483060Y-31039940D02*
X27923100Y-27599900D01*
X37386300Y-23671200D02*
X37386300Y-25949300D01*
X34626200Y-33609300D02*
X40076100Y-39059200D01*
X34626200Y-28709400D02*
X34626200Y-33609300D01*
X40076100Y-39059200D02*
X40076100Y-50441880D01*
X39369700Y-86908300D02*
X39369700Y-86669900D01*
X40287600Y-87826200D02*
X39369700Y-86908300D01*
X48871200Y-87826200D02*
X40287600Y-87826200D01*
X51715800Y-84981600D02*
X48871200Y-87826200D01*
X53323500Y-84981600D02*
X51715800Y-84981600D01*
X57350400Y-60893300D02*
X57350400Y-80954700D01*
X54374180Y-57917080D02*
X57350400Y-60893300D01*
X42455099Y-57006799D02*
X43102101Y-57006799D01*
X42362100Y-56913800D02*
X42455099Y-57006799D01*
X43162101Y-57066799D02*
X43162101Y-57713801D01*
X39369700Y-86669900D02*
X38219400Y-86669900D01*
X57350400Y-80954700D02*
X53323500Y-84981600D01*
X43102101Y-57006799D02*
X43162101Y-57066799D01*
X43162101Y-57713801D02*
X43365380Y-57917080D01*
X43365380Y-57917080D02*
X54374180Y-57917080D01*
X52875200Y-26489700D02*
X53525500Y-26489700D01*
X53525500Y-26489700D02*
X53933300Y-26897500D01*
X53933300Y-26897500D02*
X55006400Y-26897500D01*
X55006400Y-26897500D02*
X55006500Y-26897600D01*
X56324500Y-26136600D02*
X55006500Y-26897600D01*
X32387562Y-59961800D02*
X31930342Y-59504580D01*
X34234100Y-59961800D02*
X32387562Y-59961800D01*
X36520100Y-63771800D02*
X36520100Y-65226200D01*
X36520100Y-65226200D02*
X35919700Y-65826600D01*
X29891100Y-62333100D02*
X31754400Y-60469800D01*
X31754400Y-60469800D02*
X34234100Y-60469800D01*
X45755134Y-59453800D02*
X55341000Y-59453800D01*
X42362100Y-59453800D02*
X43642706Y-59453800D01*
X56196300Y-62195300D02*
X55107500Y-63284100D01*
X45248611Y-58947277D02*
X45755134Y-59453800D01*
X43642706Y-59453800D02*
X44149229Y-58947277D01*
X56196300Y-60309100D02*
X56196300Y-62195300D01*
X55341000Y-59453800D02*
X56196300Y-60309100D01*
X44149229Y-58947277D02*
X45248611Y-58947277D01*
X45075302Y-59347288D02*
X46472114Y-60744100D01*
X44314918Y-59347288D02*
X45075302Y-59347288D01*
X54029870Y-60744100D02*
X55107500Y-60744100D01*
X46472114Y-60744100D02*
X54029870Y-60744100D01*
X43700406Y-59961800D02*
X44314918Y-59347288D01*
X42362100Y-59961800D02*
X43700406Y-59961800D01*
X28638500Y-22390100D02*
X30143000Y-22390100D01*
X30143000Y-22390100D02*
X30370500Y-22162600D01*
X34234100Y-58437800D02*
X32324060Y-58437800D01*
X32324060Y-58437800D02*
X31308040Y-57421780D01*
X40584100Y-65817914D02*
X40959643Y-66193457D01*
X40584100Y-63771800D02*
X40584100Y-65817914D01*
X48935600Y-76144100D02*
X50871100Y-78079600D01*
X48935600Y-74284800D02*
X48935600Y-76144100D01*
X36540480Y-80436720D02*
X38267700Y-78709500D01*
X31976060Y-80436720D02*
X36540480Y-80436720D01*
X34234100Y-57421800D02*
X34234100Y-57475100D01*
X43062100Y-60469800D02*
X43662600Y-61070300D01*
X42362100Y-60469800D02*
X43062100Y-60469800D01*
X43662600Y-61070300D02*
X43662600Y-61795660D01*
X43464460Y-61993800D02*
X42362100Y-61993800D01*
X43662600Y-61795660D02*
X43464460Y-61993800D01*
X29944040Y-78404700D02*
X29629900Y-78404700D01*
X31976060Y-80436720D02*
X29944040Y-78404700D01*
X31976060Y-80436720D02*
X32819340Y-79593440D01*
X30533360Y-75379600D02*
X29121900Y-75379600D01*
X32819340Y-77665580D02*
X30533360Y-75379600D01*
X32819340Y-79593440D02*
X32819340Y-77665580D01*
X29121900Y-72839600D02*
X27998400Y-72839600D01*
X27998400Y-72839600D02*
X27518360Y-73319640D01*
X27518360Y-73319640D02*
X27518360Y-74046062D01*
X28851898Y-75379600D02*
X29121900Y-75379600D01*
X27518360Y-74046062D02*
X28851898Y-75379600D01*
X37693690Y-70375780D02*
X37909500Y-70591590D01*
X34991040Y-70375780D02*
X37693690Y-70375780D01*
X31249600Y-53786300D02*
X32408600Y-53786300D01*
X28379200Y-47150800D02*
X28333900Y-47196100D01*
X32767800Y-53786300D02*
X33182560Y-54201060D01*
X32408600Y-53786300D02*
X32767800Y-53786300D01*
X42227500Y-46947600D02*
X41439320Y-46947600D01*
X41439320Y-46947600D02*
X41140380Y-47246540D01*
X41140380Y-49650080D02*
X42296100Y-50805800D01*
X41140380Y-47246540D02*
X41140380Y-49650080D01*
X43317160Y-54876700D02*
X43230800Y-54876700D01*
X44737020Y-56296560D02*
X43317160Y-54876700D01*
X53004500Y-34518600D02*
X57851040Y-34518600D01*
X50529400Y-36993700D02*
X53004500Y-34518600D01*
X50529400Y-37943700D02*
X50529400Y-36993700D01*
X34101301Y-35055279D02*
X34033460Y-35123120D01*
X34101301Y-32010001D02*
X34101301Y-35055279D01*
X34001300Y-31910000D02*
X34101301Y-32010001D01*
X33271300Y-31910000D02*
X34001300Y-31910000D01*
X37536100Y-65390826D02*
X39091327Y-66946053D01*
X37536100Y-63771800D02*
X37536100Y-65390826D01*
X33416468Y-57421800D02*
X32469858Y-56475190D01*
X34234100Y-57421800D02*
X33416468Y-57421800D01*
X31368220Y-47150800D02*
X31368220Y-45761420D01*
X31368220Y-47150800D02*
X28379200Y-47150800D01*
X31368220Y-45761420D02*
X31440120Y-45689520D01*
X33530500Y-47150800D02*
X31368220Y-47150800D01*
X37622480Y-39126160D02*
X37762180Y-38986460D01*
X35227260Y-39126160D02*
X37622480Y-39126160D01*
X44376410Y-60469800D02*
X44698920Y-60147290D01*
X42362100Y-60469800D02*
X44376410Y-60469800D01*
X52039400Y-39973700D02*
X52039400Y-50749000D01*
X52039400Y-50749000D02*
X55235200Y-53944800D01*
X55235200Y-53944800D02*
X55473600Y-53944800D01*
X55473600Y-55095100D02*
X55473600Y-53944800D01*
X46595400Y-36814800D02*
X49754300Y-39973700D01*
X49754300Y-39973700D02*
X52039400Y-39973700D01*
X45795100Y-36814800D02*
X46595400Y-36814800D01*
X48505500Y-36952500D02*
X47255500Y-35702500D01*
X47255500Y-35702500D02*
X44707700Y-35702500D01*
X44707700Y-35702500D02*
X43595400Y-36814800D01*
X42795100Y-36814800D02*
X43595400Y-36814800D01*
X53529400Y-38457040D02*
X53529400Y-37943700D01*
X54904640Y-39832280D02*
X53529400Y-38457040D01*
X53159660Y-87293166D02*
X53159660Y-86586060D01*
X52246246Y-88206580D02*
X53159660Y-87293166D01*
X50502820Y-88206580D02*
X52246246Y-88206580D01*
X48191420Y-84144090D02*
X48191420Y-81655920D01*
X48191420Y-81655920D02*
X48740060Y-81107280D01*
X50839400Y-80831720D02*
X50839400Y-83059600D01*
X47689200Y-75229800D02*
X47689200Y-77681520D01*
X47689200Y-77681520D02*
X50839400Y-80831720D01*
X49860700Y-69405000D02*
X49860700Y-69200100D01*
X49382700Y-71384200D02*
X49382700Y-69883000D01*
X49382700Y-69883000D02*
X49860700Y-69405000D01*
X34234100Y-56913800D02*
X36611580Y-56913800D01*
X36611580Y-56913800D02*
X37317680Y-57619900D01*
X33433800Y-63299924D02*
X31596024Y-65137700D01*
X33433800Y-62094100D02*
X33433800Y-63299924D01*
X33534100Y-61993800D02*
X33433800Y-62094100D01*
X34234100Y-61993800D02*
X33534100Y-61993800D01*
X31596024Y-65137700D02*
X28895500Y-65137700D01*
X31744920Y-61493280D02*
X31744920Y-63347600D01*
X32260400Y-60977800D02*
X31744920Y-61493280D01*
X34234100Y-60977800D02*
X32260400Y-60977800D01*
X32945503Y-61485800D02*
X32544930Y-61886373D01*
X34234100Y-61485800D02*
X32945503Y-61485800D01*
X34934100Y-57929800D02*
X35161318Y-58157018D01*
X34234100Y-57929800D02*
X34934100Y-57929800D01*
X35161318Y-58157018D02*
X35161318Y-58435827D01*
X37700976Y-58917717D02*
X38402416Y-58216277D01*
X35643208Y-58917717D02*
X37700976Y-58917717D01*
X35161318Y-58435827D02*
X35643208Y-58917717D01*
X32408600Y-53786300D02*
X34399220Y-51795680D01*
X34399220Y-51795680D02*
X34399220Y-51094640D01*
X40584100Y-55643800D02*
X40584100Y-56379976D01*
X40584100Y-56379976D02*
X40120264Y-56843812D01*
X34234100Y-57421800D02*
X35303858Y-57421800D01*
X35303858Y-57421800D02*
X35987431Y-58105373D01*
X36676849Y-59371749D02*
X37292280Y-59987180D01*
X35105591Y-58945800D02*
X35531540Y-59371749D01*
X35531540Y-59371749D02*
X36676849Y-59371749D01*
X34234100Y-58945800D02*
X35105591Y-58945800D01*
X35625703Y-60145403D02*
X35625703Y-60171749D01*
X34934100Y-59453800D02*
X35625703Y-60145403D01*
X34234100Y-59453800D02*
X34934100Y-59453800D01*
X30261600Y-66278800D02*
X28865600Y-66278800D01*
X28865600Y-66278800D02*
X28095100Y-65508300D01*
X30108028Y-56836530D02*
X31669381Y-55275177D01*
X35524440Y-53031106D02*
X35524440Y-52113180D01*
X33280369Y-55275177D02*
X35524440Y-53031106D01*
X30108028Y-59664572D02*
X30108028Y-56836530D01*
X31669381Y-55275177D02*
X33280369Y-55275177D01*
X28095100Y-61677500D02*
X30108028Y-59664572D01*
X28095100Y-65508300D02*
X28095100Y-61677500D01*
X37028100Y-55643800D02*
X37028100Y-56343800D01*
X29090800Y-64058000D02*
X29411600Y-64378800D01*
X29090800Y-62001600D02*
X29090800Y-64058000D01*
X29411600Y-64378800D02*
X30261600Y-64378800D01*
X31870630Y-55675188D02*
X30508039Y-57037779D01*
X30508039Y-60584361D02*
X29090800Y-62001600D01*
X33622473Y-56443801D02*
X32853860Y-55675188D01*
X32853860Y-55675188D02*
X31870630Y-55675188D01*
X37028100Y-56343800D02*
X36928099Y-56443801D01*
X30508039Y-57037779D02*
X30508039Y-60584361D01*
X36928099Y-56443801D02*
X33622473Y-56443801D01*
X39911502Y-57975659D02*
X39911502Y-60722523D01*
X38552100Y-55643800D02*
X38552100Y-56616257D01*
X38552100Y-56616257D02*
X39911502Y-57975659D01*
X39911502Y-60722523D02*
X39411503Y-61222522D01*
X38857701Y-77759499D02*
X38917701Y-77819499D01*
X39202418Y-57832275D02*
X39202418Y-59421599D01*
X38714680Y-73667599D02*
X39187801Y-73667599D01*
X39187801Y-75567601D02*
X38714680Y-75567601D01*
X38917701Y-77819499D02*
X38917701Y-78597901D01*
X39247801Y-73727599D02*
X39247801Y-75507601D01*
X38714680Y-75567601D02*
X38714680Y-77759499D01*
X38044100Y-56673957D02*
X39202418Y-57832275D01*
X45839400Y-85519600D02*
X45839400Y-86669900D01*
X38714680Y-73383922D02*
X38714680Y-73667599D01*
X39308801Y-72789801D02*
X38714680Y-73383922D01*
X35655554Y-61407217D02*
X35088700Y-61974071D01*
X39247801Y-75507601D02*
X39187801Y-75567601D01*
X39202418Y-59421599D02*
X37216800Y-61407217D01*
X39308801Y-70347501D02*
X39308801Y-72789801D01*
X35088700Y-66127400D02*
X39308801Y-70347501D01*
X35088700Y-61974071D02*
X35088700Y-66127400D01*
X37216800Y-61407217D02*
X35655554Y-61407217D01*
X39187801Y-73667599D02*
X39247801Y-73727599D01*
X38917701Y-78597901D02*
X45839400Y-85519600D01*
X38714680Y-77759499D02*
X38857701Y-77759499D01*
X38044100Y-55643800D02*
X38044100Y-56673957D01*
X40497800Y-74617600D02*
X40497800Y-75567900D01*
X40497800Y-75567900D02*
X40116500Y-75949200D01*
X40116500Y-75949200D02*
X40116500Y-79036800D01*
X40116500Y-79036800D02*
X43733100Y-82653400D01*
X43733100Y-82653400D02*
X44516600Y-82653400D01*
X40558800Y-71899800D02*
X40558800Y-72850100D01*
X40558800Y-72850100D02*
X41148200Y-73439500D01*
X41148200Y-73439500D02*
X41148200Y-78473900D01*
X41148200Y-78473900D02*
X40916800Y-78705300D01*
X37914618Y-73934418D02*
X34797082Y-73934418D01*
X34797082Y-73934418D02*
X34621900Y-74109600D01*
X38597800Y-74617600D02*
X37914618Y-73934418D01*
X38658800Y-71899800D02*
X38008500Y-71899800D01*
X38008500Y-71899800D02*
X37068700Y-72839600D01*
X37068700Y-72839600D02*
X34621900Y-72839600D01*
X29121900Y-74109600D02*
X30072200Y-74109600D01*
X36367700Y-78709500D02*
X34672100Y-78709500D01*
X34672100Y-78709500D02*
X30072200Y-74109600D01*
X37536100Y-55643800D02*
X37536100Y-54843500D01*
X36383300Y-54008100D02*
X36700700Y-54008100D01*
X36700700Y-54008100D02*
X37536100Y-54843500D01*
X35504100Y-53697440D02*
X35504100Y-55643800D01*
X36393211Y-52611289D02*
X36393211Y-52808329D01*
X36393211Y-52808329D02*
X35504100Y-53697440D01*
X39232200Y-49772300D02*
X36393211Y-52611289D01*
X39232200Y-46688900D02*
X39232200Y-49772300D01*
X37199400Y-44656100D02*
X39232200Y-46688900D01*
X28323900Y-44656100D02*
X37199400Y-44656100D01*
D31*
X59649375Y-85415895D02*
X59611074Y-85377922D01*
X59408133Y-85243579D01*
X59182882Y-85151409D01*
X59145209Y-85147538D01*
X58954600Y-85272269D01*
X58954600Y-86614000D01*
X58974600Y-86614000D01*
X58974600Y-86868000D01*
X58954600Y-86868000D01*
X58954600Y-88209731D01*
X59145209Y-88334462D01*
X59182882Y-88330591D01*
X59408133Y-88238421D01*
X59611074Y-88104078D01*
X59643143Y-88072284D01*
X59639499Y-89625598D01*
X25633540Y-89400409D01*
X25705749Y-89386046D01*
X26016949Y-89257142D01*
X26297021Y-89070004D01*
X26535204Y-88831821D01*
X26722342Y-88551749D01*
X26851246Y-88240549D01*
X26916960Y-87910180D01*
X26916960Y-87573340D01*
X26851246Y-87242971D01*
X26722342Y-86931771D01*
X26607368Y-86759700D01*
X27767628Y-86759700D01*
X27767628Y-88459700D01*
X27779888Y-88584182D01*
X27816198Y-88703880D01*
X27875163Y-88814194D01*
X27954515Y-88910885D01*
X28051206Y-88990237D01*
X28161520Y-89049202D01*
X28281218Y-89085512D01*
X28405700Y-89097772D01*
X30105700Y-89097772D01*
X30230182Y-89085512D01*
X30349880Y-89049202D01*
X30460194Y-88990237D01*
X30556885Y-88910885D01*
X30636237Y-88814194D01*
X30695202Y-88703880D01*
X30731512Y-88584182D01*
X30743772Y-88459700D01*
X30743772Y-87519900D01*
X34191328Y-87519900D01*
X34203588Y-87644382D01*
X34239898Y-87764080D01*
X34298863Y-87874394D01*
X34378215Y-87971085D01*
X34474906Y-88050437D01*
X34585220Y-88109402D01*
X34704918Y-88145712D01*
X34829400Y-88157972D01*
X35393650Y-88154900D01*
X35552400Y-87996150D01*
X35552400Y-86796900D01*
X34353150Y-86796900D01*
X34194400Y-86955650D01*
X34191328Y-87519900D01*
X30743772Y-87519900D01*
X30743772Y-86759700D01*
X30731512Y-86635218D01*
X30695202Y-86515520D01*
X30636237Y-86405206D01*
X30556885Y-86308515D01*
X30460194Y-86229163D01*
X30349880Y-86170198D01*
X30230182Y-86133888D01*
X30105700Y-86121628D01*
X28405700Y-86121628D01*
X28281218Y-86133888D01*
X28161520Y-86170198D01*
X28051206Y-86229163D01*
X27954515Y-86308515D01*
X27875163Y-86405206D01*
X27816198Y-86515520D01*
X27779888Y-86635218D01*
X27767628Y-86759700D01*
X26607368Y-86759700D01*
X26535204Y-86651699D01*
X26297021Y-86413516D01*
X26016949Y-86226378D01*
X25705749Y-86097474D01*
X25375380Y-86031760D01*
X25038540Y-86031760D01*
X24708171Y-86097474D01*
X24396971Y-86226378D01*
X24116899Y-86413516D01*
X23878716Y-86651699D01*
X23691578Y-86931771D01*
X23562674Y-87242971D01*
X23496960Y-87573340D01*
X23496960Y-87910180D01*
X23562674Y-88240549D01*
X23691578Y-88551749D01*
X23878716Y-88831821D01*
X24116899Y-89070004D01*
X24396971Y-89257142D01*
X24708171Y-89386046D01*
X24750999Y-89394565D01*
X23454123Y-89385977D01*
X23344104Y-31039940D01*
X23744504Y-31039940D01*
X23748061Y-31076055D01*
X23748060Y-77812355D01*
X23744504Y-77848460D01*
X23758695Y-77992545D01*
X23771444Y-78034573D01*
X23800723Y-78131092D01*
X23868973Y-78258779D01*
X23960822Y-78370697D01*
X23988868Y-78393714D01*
X30879746Y-85284593D01*
X30902762Y-85312638D01*
X30930806Y-85335653D01*
X31014680Y-85404487D01*
X31142366Y-85472737D01*
X31280915Y-85514765D01*
X31425000Y-85528956D01*
X31461105Y-85525400D01*
X34266795Y-85525400D01*
X34239898Y-85575720D01*
X34203588Y-85695418D01*
X34191328Y-85819900D01*
X34194400Y-86384150D01*
X34353150Y-86542900D01*
X35552400Y-86542900D01*
X35552400Y-86522900D01*
X35806400Y-86522900D01*
X35806400Y-86542900D01*
X35826400Y-86542900D01*
X35826400Y-86796900D01*
X35806400Y-86796900D01*
X35806400Y-87996150D01*
X35965150Y-88154900D01*
X36529400Y-88157972D01*
X36653882Y-88145712D01*
X36773580Y-88109402D01*
X36883894Y-88050437D01*
X36980585Y-87971085D01*
X37059937Y-87874394D01*
X37118902Y-87764080D01*
X37140913Y-87691520D01*
X37272768Y-87823375D01*
X37515989Y-87985890D01*
X37786242Y-88097832D01*
X38073140Y-88154900D01*
X38365660Y-88154900D01*
X38652558Y-88097832D01*
X38922811Y-87985890D01*
X39166032Y-87823375D01*
X39205680Y-87783727D01*
X39742346Y-88320393D01*
X39765362Y-88348438D01*
X39793406Y-88371453D01*
X39877280Y-88440287D01*
X40004966Y-88508537D01*
X40143515Y-88550565D01*
X40287600Y-88564756D01*
X40323705Y-88561200D01*
X48835095Y-88561200D01*
X48871200Y-88564756D01*
X48907305Y-88561200D01*
X49015285Y-88550565D01*
X49153833Y-88508537D01*
X49281520Y-88440287D01*
X49376557Y-88362292D01*
X49411437Y-88537647D01*
X49496996Y-88744204D01*
X49621208Y-88930100D01*
X49779300Y-89088192D01*
X49965196Y-89212404D01*
X50171753Y-89297963D01*
X50391032Y-89341580D01*
X50614608Y-89341580D01*
X50833887Y-89297963D01*
X51040444Y-89212404D01*
X51226340Y-89088192D01*
X51372952Y-88941580D01*
X52210141Y-88941580D01*
X52246246Y-88945136D01*
X52282351Y-88941580D01*
X52390331Y-88930945D01*
X52528879Y-88888917D01*
X52656566Y-88820667D01*
X52768484Y-88728818D01*
X52791504Y-88700768D01*
X53653857Y-87838416D01*
X53681897Y-87815404D01*
X53704910Y-87787363D01*
X53704913Y-87787360D01*
X53773746Y-87703487D01*
X53773747Y-87703486D01*
X53841997Y-87575799D01*
X53872666Y-87474697D01*
X53883180Y-87467672D01*
X54041272Y-87309580D01*
X54165484Y-87123684D01*
X54251043Y-86917127D01*
X54260814Y-86868000D01*
X57592600Y-86868000D01*
X57592600Y-87268000D01*
X57641107Y-87506496D01*
X57735210Y-87730946D01*
X57871293Y-87932725D01*
X58044126Y-88104078D01*
X58247067Y-88238421D01*
X58472318Y-88330591D01*
X58509991Y-88334462D01*
X58700600Y-88209731D01*
X58700600Y-86868000D01*
X57592600Y-86868000D01*
X54260814Y-86868000D01*
X54294660Y-86697848D01*
X54294660Y-86474272D01*
X54251043Y-86254993D01*
X54234064Y-86214000D01*
X57592600Y-86214000D01*
X57592600Y-86614000D01*
X58700600Y-86614000D01*
X58700600Y-85272269D01*
X58509991Y-85147538D01*
X58472318Y-85151409D01*
X58247067Y-85243579D01*
X58044126Y-85377922D01*
X57871293Y-85549275D01*
X57735210Y-85751054D01*
X57641107Y-85975504D01*
X57592600Y-86214000D01*
X54234064Y-86214000D01*
X54165484Y-86048436D01*
X54041272Y-85862540D01*
X53883180Y-85704448D01*
X53726369Y-85599670D01*
X53733820Y-85595687D01*
X53845738Y-85503838D01*
X53868759Y-85475787D01*
X55041730Y-84302816D01*
X56512841Y-84302816D01*
X56576545Y-84525979D01*
X56682562Y-84732426D01*
X56826817Y-84914223D01*
X57003767Y-85064385D01*
X57206613Y-85177140D01*
X57367856Y-85234803D01*
X57550600Y-85109361D01*
X57550600Y-84118000D01*
X57804600Y-84118000D01*
X57804600Y-85109361D01*
X57987344Y-85234803D01*
X58148587Y-85177140D01*
X58351433Y-85064385D01*
X58528383Y-84914223D01*
X58672638Y-84732426D01*
X58778655Y-84525979D01*
X58842359Y-84302816D01*
X58702404Y-84118000D01*
X57804600Y-84118000D01*
X57550600Y-84118000D01*
X56652796Y-84118000D01*
X56512841Y-84302816D01*
X55041730Y-84302816D01*
X55665362Y-83679184D01*
X56512841Y-83679184D01*
X56652796Y-83864000D01*
X57550600Y-83864000D01*
X57550600Y-82872639D01*
X57804600Y-82872639D01*
X57804600Y-83864000D01*
X58702404Y-83864000D01*
X58842359Y-83679184D01*
X58778655Y-83456021D01*
X58672638Y-83249574D01*
X58528383Y-83067777D01*
X58351433Y-82917615D01*
X58148587Y-82804860D01*
X57987344Y-82747197D01*
X57804600Y-82872639D01*
X57550600Y-82872639D01*
X57367856Y-82747197D01*
X57206613Y-82804860D01*
X57003767Y-82917615D01*
X56826817Y-83067777D01*
X56682562Y-83249574D01*
X56576545Y-83456021D01*
X56512841Y-83679184D01*
X55665362Y-83679184D01*
X57844593Y-81499954D01*
X57872638Y-81476938D01*
X57964487Y-81365020D01*
X57995640Y-81306737D01*
X58032737Y-81237334D01*
X58074765Y-81098785D01*
X58088956Y-80954700D01*
X58085400Y-80918595D01*
X58085400Y-60929405D01*
X58088956Y-60893300D01*
X58074765Y-60749215D01*
X58032737Y-60610666D01*
X57964487Y-60482980D01*
X57895653Y-60399106D01*
X57895650Y-60399103D01*
X57872637Y-60371062D01*
X57844597Y-60348050D01*
X54919439Y-57422893D01*
X54896418Y-57394842D01*
X54784500Y-57302993D01*
X54656813Y-57234743D01*
X54518265Y-57192715D01*
X54410285Y-57182080D01*
X54374180Y-57178524D01*
X54338075Y-57182080D01*
X48240866Y-57182080D01*
X48248500Y-57104565D01*
X48248500Y-57104556D01*
X48252055Y-57068461D01*
X48248500Y-57032366D01*
X48248500Y-49045605D01*
X48252056Y-49009500D01*
X48237865Y-48865415D01*
X48228028Y-48832986D01*
X48195837Y-48726867D01*
X48127587Y-48599180D01*
X48061666Y-48518856D01*
X48058753Y-48515306D01*
X48058750Y-48515303D01*
X48035737Y-48487262D01*
X48007697Y-48464250D01*
X47804401Y-48260954D01*
X47839100Y-48086511D01*
X47839100Y-47813689D01*
X47785875Y-47546111D01*
X47681471Y-47294057D01*
X47529899Y-47067214D01*
X47336986Y-46874301D01*
X47110143Y-46722729D01*
X46858089Y-46618325D01*
X46590511Y-46565100D01*
X46317689Y-46565100D01*
X46050111Y-46618325D01*
X45798057Y-46722729D01*
X45571214Y-46874301D01*
X45378301Y-47067214D01*
X45279487Y-47215100D01*
X43469250Y-47215100D01*
X43328750Y-47074600D01*
X42354500Y-47074600D01*
X42354500Y-47094600D01*
X42100500Y-47094600D01*
X42100500Y-47074600D01*
X42080500Y-47074600D01*
X42080500Y-46820600D01*
X42100500Y-46820600D01*
X42100500Y-45971350D01*
X42354500Y-45971350D01*
X42354500Y-46820600D01*
X43328750Y-46820600D01*
X43487500Y-46661850D01*
X43490572Y-46447600D01*
X43478312Y-46323118D01*
X43442002Y-46203420D01*
X43383037Y-46093106D01*
X43303685Y-45996415D01*
X43206994Y-45917063D01*
X43096680Y-45858098D01*
X42976982Y-45821788D01*
X42852500Y-45809528D01*
X42513250Y-45812600D01*
X42354500Y-45971350D01*
X42100500Y-45971350D01*
X41941750Y-45812600D01*
X41602500Y-45809528D01*
X41478018Y-45821788D01*
X41358320Y-45858098D01*
X41248006Y-45917063D01*
X41211110Y-45947343D01*
X41211110Y-44880236D01*
X41224686Y-44866660D01*
X41265995Y-44866660D01*
X41302100Y-44870216D01*
X41338205Y-44866660D01*
X41446185Y-44856025D01*
X41584733Y-44813997D01*
X41712420Y-44745747D01*
X41824338Y-44653898D01*
X41916187Y-44541980D01*
X41984437Y-44414293D01*
X42026465Y-44275745D01*
X42040656Y-44131660D01*
X42037100Y-44095555D01*
X42037100Y-38196915D01*
X42050920Y-38204302D01*
X42170618Y-38240612D01*
X42295100Y-38252872D01*
X43295100Y-38252872D01*
X43419582Y-38240612D01*
X43539280Y-38204302D01*
X43649594Y-38145337D01*
X43746285Y-38065985D01*
X43825637Y-37969294D01*
X43884602Y-37858980D01*
X43920912Y-37739282D01*
X43933172Y-37614800D01*
X43933172Y-37467665D01*
X44005720Y-37428887D01*
X44117638Y-37337038D01*
X44140658Y-37308988D01*
X44657028Y-36792618D01*
X44657028Y-37614800D01*
X44669288Y-37739282D01*
X44705598Y-37858980D01*
X44764563Y-37969294D01*
X44843915Y-38065985D01*
X44940606Y-38145337D01*
X45050920Y-38204302D01*
X45170618Y-38240612D01*
X45295100Y-38252872D01*
X46295100Y-38252872D01*
X46419582Y-38240612D01*
X46539280Y-38204302D01*
X46649594Y-38145337D01*
X46746285Y-38065985D01*
X46773715Y-38032561D01*
X49209046Y-40467893D01*
X49232062Y-40495938D01*
X49343980Y-40587787D01*
X49471667Y-40656037D01*
X49610215Y-40698065D01*
X49718195Y-40708700D01*
X49718204Y-40708700D01*
X49754299Y-40712255D01*
X49790394Y-40708700D01*
X50301328Y-40708700D01*
X50301328Y-42633700D01*
X50304402Y-42696256D01*
X50305363Y-42706011D01*
X50329763Y-42828672D01*
X50332608Y-42838051D01*
X50380481Y-42953627D01*
X50385102Y-42962272D01*
X50454608Y-43066289D01*
X50460826Y-43073865D01*
X50549235Y-43162274D01*
X50556811Y-43168492D01*
X50660828Y-43237998D01*
X50669473Y-43242619D01*
X50785049Y-43290492D01*
X50794428Y-43293337D01*
X50917089Y-43317737D01*
X50926844Y-43318698D01*
X50989400Y-43321772D01*
X51304400Y-43321772D01*
X51304401Y-50712885D01*
X51300844Y-50749000D01*
X51315035Y-50893085D01*
X51347240Y-50999247D01*
X51357064Y-51031633D01*
X51425314Y-51159320D01*
X51517163Y-51271238D01*
X51545208Y-51294254D01*
X54359773Y-54108820D01*
X54320125Y-54148468D01*
X54157610Y-54391689D01*
X54045668Y-54661942D01*
X53988600Y-54948840D01*
X53988600Y-55241360D01*
X54045668Y-55528258D01*
X54157610Y-55798511D01*
X54320125Y-56041732D01*
X54526968Y-56248575D01*
X54770189Y-56411090D01*
X55040442Y-56523032D01*
X55327340Y-56580100D01*
X55619860Y-56580100D01*
X55906758Y-56523032D01*
X56177011Y-56411090D01*
X56420232Y-56248575D01*
X56627075Y-56041732D01*
X56789590Y-55798511D01*
X56901532Y-55528258D01*
X56958600Y-55241360D01*
X56958600Y-54948840D01*
X56901532Y-54661942D01*
X56789590Y-54391689D01*
X56627075Y-54148468D01*
X56420232Y-53941625D01*
X56245840Y-53825100D01*
X56420232Y-53708575D01*
X56627075Y-53501732D01*
X56789590Y-53258511D01*
X56901532Y-52988258D01*
X56958600Y-52701360D01*
X56958600Y-52408840D01*
X56901532Y-52121942D01*
X56789590Y-51851689D01*
X56627075Y-51608468D01*
X56420232Y-51401625D01*
X56245840Y-51285100D01*
X56420232Y-51168575D01*
X56627075Y-50961732D01*
X56789590Y-50718511D01*
X56901532Y-50448258D01*
X56958600Y-50161360D01*
X56958600Y-49868840D01*
X56901532Y-49581942D01*
X56789590Y-49311689D01*
X56627075Y-49068468D01*
X56495220Y-48936613D01*
X56567780Y-48914602D01*
X56678094Y-48855637D01*
X56774785Y-48776285D01*
X56854137Y-48679594D01*
X56913102Y-48569280D01*
X56949412Y-48449582D01*
X56961672Y-48325100D01*
X56961672Y-46625100D01*
X56949412Y-46500618D01*
X56913102Y-46380920D01*
X56854137Y-46270606D01*
X56774785Y-46173915D01*
X56678094Y-46094563D01*
X56567780Y-46035598D01*
X56448082Y-45999288D01*
X56323600Y-45987028D01*
X54623600Y-45987028D01*
X54499118Y-45999288D01*
X54379420Y-46035598D01*
X54269106Y-46094563D01*
X54172415Y-46173915D01*
X54093063Y-46270606D01*
X54034098Y-46380920D01*
X53997788Y-46500618D01*
X53985528Y-46625100D01*
X53985528Y-48325100D01*
X53997788Y-48449582D01*
X54034098Y-48569280D01*
X54093063Y-48679594D01*
X54172415Y-48776285D01*
X54269106Y-48855637D01*
X54379420Y-48914602D01*
X54451980Y-48936613D01*
X54320125Y-49068468D01*
X54157610Y-49311689D01*
X54045668Y-49581942D01*
X53988600Y-49868840D01*
X53988600Y-50161360D01*
X54045668Y-50448258D01*
X54157610Y-50718511D01*
X54320125Y-50961732D01*
X54526968Y-51168575D01*
X54701360Y-51285100D01*
X54526968Y-51401625D01*
X54320125Y-51608468D01*
X54167193Y-51837347D01*
X52774400Y-50444554D01*
X52774400Y-43321772D01*
X53049400Y-43321772D01*
X53113011Y-43318593D01*
X53122932Y-43317599D01*
X53246608Y-43292673D01*
X53255978Y-43289796D01*
X53371410Y-43241520D01*
X53380038Y-43236870D01*
X53483776Y-43167041D01*
X53491332Y-43160797D01*
X53579498Y-43072028D01*
X53585690Y-43064430D01*
X53654791Y-42960254D01*
X53659383Y-42951594D01*
X53706887Y-42835805D01*
X53709700Y-42826416D01*
X53733677Y-42703703D01*
X53734605Y-42693946D01*
X53737468Y-42631368D01*
X53727513Y-39694599D01*
X53769640Y-39736727D01*
X53769640Y-39944068D01*
X53813257Y-40163347D01*
X53898816Y-40369904D01*
X54023028Y-40555800D01*
X54181120Y-40713892D01*
X54367016Y-40838104D01*
X54573573Y-40923663D01*
X54792852Y-40967280D01*
X55016428Y-40967280D01*
X55235707Y-40923663D01*
X55442264Y-40838104D01*
X55628160Y-40713892D01*
X55786252Y-40555800D01*
X55910464Y-40369904D01*
X55996023Y-40163347D01*
X56039640Y-39944068D01*
X56039640Y-39720492D01*
X55996023Y-39501213D01*
X55910464Y-39294656D01*
X55786252Y-39108760D01*
X55628160Y-38950668D01*
X55442264Y-38826456D01*
X55235707Y-38740897D01*
X55016428Y-38697280D01*
X54809087Y-38697280D01*
X54667472Y-38555666D01*
X54667472Y-37193700D01*
X54655212Y-37069218D01*
X54618902Y-36949520D01*
X54559937Y-36839206D01*
X54480585Y-36742515D01*
X54383894Y-36663163D01*
X54273580Y-36604198D01*
X54153882Y-36567888D01*
X54029400Y-36555628D01*
X53029400Y-36555628D01*
X52904918Y-36567888D01*
X52785378Y-36604150D01*
X52743751Y-36586908D01*
X52734372Y-36584063D01*
X52611711Y-36559663D01*
X52601956Y-36558702D01*
X52539400Y-36555628D01*
X51654156Y-36555628D01*
X51618842Y-36549365D01*
X51609084Y-36548445D01*
X51483967Y-36548970D01*
X51474216Y-36549972D01*
X51351682Y-36574880D01*
X51342315Y-36577764D01*
X51276070Y-36605529D01*
X51273580Y-36604198D01*
X51153882Y-36567888D01*
X51029400Y-36555628D01*
X50815150Y-36558700D01*
X50656400Y-36717450D01*
X50656400Y-37816700D01*
X50676400Y-37816700D01*
X50676400Y-38070700D01*
X50656400Y-38070700D01*
X50656400Y-38090700D01*
X50402400Y-38090700D01*
X50402400Y-38070700D01*
X49553150Y-38070700D01*
X49394400Y-38229450D01*
X49392133Y-38572086D01*
X48855915Y-38035869D01*
X49043124Y-37958324D01*
X49229020Y-37834112D01*
X49387112Y-37676020D01*
X49397269Y-37660819D01*
X49553150Y-37816700D01*
X50402400Y-37816700D01*
X50402400Y-36717450D01*
X50243650Y-36558700D01*
X50029400Y-36555628D01*
X49904918Y-36567888D01*
X49785220Y-36604198D01*
X49674906Y-36663163D01*
X49614968Y-36712353D01*
X49596883Y-36621433D01*
X49511324Y-36414876D01*
X49387112Y-36228980D01*
X49229020Y-36070888D01*
X49043124Y-35946676D01*
X48836567Y-35861117D01*
X48617288Y-35817500D01*
X48409947Y-35817500D01*
X47800758Y-35208312D01*
X47777738Y-35180262D01*
X47665820Y-35088413D01*
X47538133Y-35020163D01*
X47399585Y-34978135D01*
X47291605Y-34967500D01*
X47255500Y-34963944D01*
X47219395Y-34967500D01*
X44743805Y-34967500D01*
X44707700Y-34963944D01*
X44563615Y-34978135D01*
X44425066Y-35020163D01*
X44298437Y-35087848D01*
X44297380Y-35088413D01*
X44185462Y-35180262D01*
X44162446Y-35208307D01*
X43773715Y-35597039D01*
X43746285Y-35563615D01*
X43649594Y-35484263D01*
X43539280Y-35425298D01*
X43419582Y-35388988D01*
X43295100Y-35376728D01*
X42502818Y-35376728D01*
X47818198Y-30061349D01*
X47846237Y-30038338D01*
X47869250Y-30010297D01*
X47869253Y-30010294D01*
X47938087Y-29926420D01*
X48006337Y-29798734D01*
X48048365Y-29660185D01*
X48062556Y-29516100D01*
X48059000Y-29479995D01*
X48059000Y-26103632D01*
X48194132Y-25968500D01*
X48764254Y-25968500D01*
X49779646Y-26983893D01*
X49802662Y-27011938D01*
X49914580Y-27103787D01*
X49987426Y-27142724D01*
X49999388Y-27264182D01*
X50035698Y-27383880D01*
X50094663Y-27494194D01*
X50174015Y-27590885D01*
X50270706Y-27670237D01*
X50381020Y-27729202D01*
X50500718Y-27765512D01*
X50625200Y-27777772D01*
X51325200Y-27777772D01*
X51449682Y-27765512D01*
X51569380Y-27729202D01*
X51679694Y-27670237D01*
X51776385Y-27590885D01*
X51855737Y-27494194D01*
X51914702Y-27383880D01*
X51925200Y-27349273D01*
X51935698Y-27383880D01*
X51994663Y-27494194D01*
X52074015Y-27590885D01*
X52170706Y-27670237D01*
X52281020Y-27729202D01*
X52400718Y-27765512D01*
X52525200Y-27777772D01*
X53225200Y-27777772D01*
X53349682Y-27765512D01*
X53469380Y-27729202D01*
X53579694Y-27670237D01*
X53676385Y-27590885D01*
X53678518Y-27588286D01*
X53789215Y-27621865D01*
X53897195Y-27632500D01*
X53897204Y-27632500D01*
X53933299Y-27636055D01*
X53969394Y-27632500D01*
X54945641Y-27632500D01*
X54958218Y-27634576D01*
X54982416Y-27633783D01*
X55006499Y-27636155D01*
X55054600Y-27631418D01*
X55102922Y-27629834D01*
X55126497Y-27624336D01*
X55150584Y-27621964D01*
X55196841Y-27607932D01*
X55243922Y-27596953D01*
X55265971Y-27586962D01*
X55289133Y-27579936D01*
X55331759Y-27557152D01*
X55342751Y-27552171D01*
X55360013Y-27542204D01*
X55442490Y-27685059D01*
X55515349Y-27786733D01*
X55606643Y-27872240D01*
X55712865Y-27938292D01*
X55829932Y-27982353D01*
X55953345Y-28002729D01*
X56078362Y-27998636D01*
X56200178Y-27970233D01*
X56314113Y-27918610D01*
X57872959Y-27018610D01*
X57974633Y-26945751D01*
X58060140Y-26854457D01*
X58126192Y-26748235D01*
X58170253Y-26631168D01*
X58190629Y-26507755D01*
X58186536Y-26382738D01*
X58158133Y-26260922D01*
X58106510Y-26146987D01*
X57206510Y-24588141D01*
X57133651Y-24486467D01*
X57042357Y-24400960D01*
X56936135Y-24334908D01*
X56819068Y-24290847D01*
X56695655Y-24270471D01*
X56570638Y-24274564D01*
X56448822Y-24302967D01*
X56334887Y-24354590D01*
X54776041Y-25254590D01*
X54674367Y-25327449D01*
X54588860Y-25418743D01*
X54522808Y-25524965D01*
X54478747Y-25642032D01*
X54458371Y-25765445D01*
X54462464Y-25890462D01*
X54490867Y-26012278D01*
X54542490Y-26126213D01*
X54563440Y-26162500D01*
X54237746Y-26162500D01*
X54070759Y-25995513D01*
X54047738Y-25967462D01*
X53935820Y-25875613D01*
X53862974Y-25836676D01*
X53851012Y-25715218D01*
X53814702Y-25595520D01*
X53755737Y-25485206D01*
X53676385Y-25388515D01*
X53579694Y-25309163D01*
X53469380Y-25250198D01*
X53349682Y-25213888D01*
X53225200Y-25201628D01*
X52525200Y-25201628D01*
X52400718Y-25213888D01*
X52281020Y-25250198D01*
X52170706Y-25309163D01*
X52074015Y-25388515D01*
X51994663Y-25485206D01*
X51935698Y-25595520D01*
X51925200Y-25630127D01*
X51914702Y-25595520D01*
X51855737Y-25485206D01*
X51776385Y-25388515D01*
X51679694Y-25309163D01*
X51569380Y-25250198D01*
X51449682Y-25213888D01*
X51325200Y-25201628D01*
X50625200Y-25201628D01*
X50500718Y-25213888D01*
X50381020Y-25250198D01*
X50270706Y-25309163D01*
X50222978Y-25348332D01*
X49613958Y-24739312D01*
X49590938Y-24711262D01*
X49479020Y-24619413D01*
X49351333Y-24551163D01*
X49212785Y-24509135D01*
X49104805Y-24498500D01*
X49068700Y-24494944D01*
X49032595Y-24498500D01*
X48194132Y-24498500D01*
X48047520Y-24351888D01*
X47861624Y-24227676D01*
X47655067Y-24142117D01*
X47435788Y-24098500D01*
X47212212Y-24098500D01*
X46992933Y-24142117D01*
X46786376Y-24227676D01*
X46600480Y-24351888D01*
X46442388Y-24509980D01*
X46318176Y-24695876D01*
X46232617Y-24902433D01*
X46189000Y-25121712D01*
X46189000Y-25345288D01*
X46232617Y-25564567D01*
X46318176Y-25771124D01*
X46442388Y-25957020D01*
X46589001Y-26103633D01*
X46589000Y-29211653D01*
X40807908Y-34992746D01*
X40779863Y-35015762D01*
X40688014Y-35127680D01*
X40659908Y-35180263D01*
X40619764Y-35255367D01*
X40577735Y-35393915D01*
X40563544Y-35538000D01*
X40567101Y-35574115D01*
X40567101Y-38510754D01*
X35879418Y-33823072D01*
X36001300Y-33823072D01*
X36125782Y-33810812D01*
X36245480Y-33774502D01*
X36355794Y-33715537D01*
X36452485Y-33636185D01*
X36511363Y-33564442D01*
X36584233Y-33542337D01*
X36711920Y-33474087D01*
X36823838Y-33382238D01*
X36846859Y-33354187D01*
X39633047Y-30568000D01*
X41333198Y-30568000D01*
X41372317Y-30764667D01*
X41457876Y-30971224D01*
X41582088Y-31157120D01*
X41740180Y-31315212D01*
X41926076Y-31439424D01*
X42132633Y-31524983D01*
X42351912Y-31568600D01*
X42575488Y-31568600D01*
X42794767Y-31524983D01*
X43001324Y-31439424D01*
X43187220Y-31315212D01*
X43345312Y-31157120D01*
X43469524Y-30971224D01*
X43555083Y-30764667D01*
X43598700Y-30545388D01*
X43598700Y-30321812D01*
X43555083Y-30102533D01*
X43469524Y-29895976D01*
X43345312Y-29710080D01*
X43187220Y-29551988D01*
X43001324Y-29427776D01*
X42794767Y-29342217D01*
X42575488Y-29298600D01*
X42370519Y-29298600D01*
X42273420Y-29218913D01*
X42145733Y-29150663D01*
X42007185Y-29108635D01*
X41899205Y-29098000D01*
X41863100Y-29094444D01*
X41826995Y-29098000D01*
X40148200Y-29098000D01*
X40148200Y-25604438D01*
X40162682Y-25603012D01*
X40282380Y-25566702D01*
X40392694Y-25507737D01*
X40489385Y-25428385D01*
X40568737Y-25331694D01*
X40627702Y-25221380D01*
X40664012Y-25101682D01*
X40676272Y-24977200D01*
X40676272Y-23977200D01*
X40664012Y-23852718D01*
X40627702Y-23733020D01*
X40568737Y-23622706D01*
X40489385Y-23526015D01*
X40429904Y-23477200D01*
X40489385Y-23428385D01*
X40568737Y-23331694D01*
X40627702Y-23221380D01*
X40664012Y-23101682D01*
X40676272Y-22977200D01*
X40673200Y-22762950D01*
X40514450Y-22604200D01*
X39540200Y-22604200D01*
X39540200Y-22624200D01*
X39286200Y-22624200D01*
X39286200Y-22604200D01*
X38311950Y-22604200D01*
X38153200Y-22762950D01*
X38150128Y-22977200D01*
X38162388Y-23101682D01*
X38198698Y-23221380D01*
X38257663Y-23331694D01*
X38337015Y-23428385D01*
X38396496Y-23477200D01*
X38337015Y-23526015D01*
X38257663Y-23622706D01*
X38198698Y-23733020D01*
X38162388Y-23852718D01*
X38150128Y-23977200D01*
X38150128Y-24977200D01*
X38162388Y-25101682D01*
X38198698Y-25221380D01*
X38257663Y-25331694D01*
X38337015Y-25428385D01*
X38433706Y-25507737D01*
X38544020Y-25566702D01*
X38663718Y-25603012D01*
X38678201Y-25604438D01*
X38678200Y-29443953D01*
X36588308Y-31533846D01*
X36590802Y-31529180D01*
X36627112Y-31409482D01*
X36639372Y-31285000D01*
X36639372Y-30635000D01*
X36627112Y-30510518D01*
X36590802Y-30390820D01*
X36531837Y-30280506D01*
X36452485Y-30183815D01*
X36355794Y-30104463D01*
X36245480Y-30045498D01*
X36125782Y-30009188D01*
X36001300Y-29996928D01*
X35361200Y-29996928D01*
X35361200Y-29013846D01*
X37880493Y-26494554D01*
X37908538Y-26471538D01*
X38000387Y-26359620D01*
X38068637Y-26231933D01*
X38110665Y-26093385D01*
X38121300Y-25985405D01*
X38124856Y-25949300D01*
X38121300Y-25913195D01*
X38121300Y-23707305D01*
X38124856Y-23671200D01*
X38110665Y-23527115D01*
X38068637Y-23388567D01*
X38038238Y-23331694D01*
X38000387Y-23260880D01*
X37908537Y-23148962D01*
X37880492Y-23125946D01*
X37751759Y-22997213D01*
X37728738Y-22969162D01*
X37690733Y-22937972D01*
X37697312Y-22916282D01*
X37709572Y-22791800D01*
X37706500Y-22577550D01*
X37661622Y-22532672D01*
X52660686Y-22532672D01*
X52675591Y-22798586D01*
X52903966Y-22994529D01*
X53166180Y-23142153D01*
X53452156Y-23235786D01*
X53750903Y-23271828D01*
X54050941Y-23248894D01*
X54214144Y-23210836D01*
X54359704Y-22987473D01*
X53738015Y-21910676D01*
X52660686Y-22532672D01*
X37661622Y-22532672D01*
X37547750Y-22418800D01*
X36573500Y-22418800D01*
X36573500Y-22438800D01*
X36319500Y-22438800D01*
X36319500Y-22418800D01*
X35345250Y-22418800D01*
X35186500Y-22577550D01*
X35183936Y-22756400D01*
X32828594Y-22756400D01*
X32792499Y-22752845D01*
X32756404Y-22756400D01*
X32756395Y-22756400D01*
X32648415Y-22767035D01*
X32509867Y-22809063D01*
X32382180Y-22877313D01*
X32270262Y-22969162D01*
X32247246Y-22997207D01*
X29500420Y-25744034D01*
X29492436Y-25721877D01*
X29430456Y-25605920D01*
X29190365Y-25538940D01*
X28404405Y-26324900D01*
X28418548Y-26339043D01*
X28238943Y-26518648D01*
X28224800Y-26504505D01*
X28210658Y-26518648D01*
X28031053Y-26339043D01*
X28045195Y-26324900D01*
X27259235Y-25538940D01*
X27019144Y-25605920D01*
X26902044Y-25854948D01*
X26835777Y-26122035D01*
X26822890Y-26396917D01*
X26863878Y-26669033D01*
X26957164Y-26927923D01*
X27019144Y-27043880D01*
X27259233Y-27110859D01*
X27142823Y-27227269D01*
X27199554Y-27284000D01*
X23988868Y-30494686D01*
X23960823Y-30517702D01*
X23868974Y-30629620D01*
X23800724Y-30757307D01*
X23758695Y-30895855D01*
X23744504Y-31039940D01*
X23344104Y-31039940D01*
X23333393Y-25359335D01*
X27438840Y-25359335D01*
X28224800Y-26145295D01*
X29010760Y-25359335D01*
X28943780Y-25119244D01*
X28694752Y-25002144D01*
X28427665Y-24935877D01*
X28152783Y-24922990D01*
X27880667Y-24963978D01*
X27621777Y-25057264D01*
X27505820Y-25119244D01*
X27438840Y-25359335D01*
X23333393Y-25359335D01*
X23322529Y-19598313D01*
X24858253Y-19594278D01*
X24725951Y-19620594D01*
X24414751Y-19749498D01*
X24134679Y-19936636D01*
X23896496Y-20174819D01*
X23709358Y-20454891D01*
X23580454Y-20766091D01*
X23514740Y-21096460D01*
X23514740Y-21433300D01*
X23580454Y-21763669D01*
X23709358Y-22074869D01*
X23896496Y-22354941D01*
X24134679Y-22593124D01*
X24414751Y-22780262D01*
X24725951Y-22909166D01*
X25056320Y-22974880D01*
X25393160Y-22974880D01*
X25723529Y-22909166D01*
X26034729Y-22780262D01*
X26314801Y-22593124D01*
X26552984Y-22354941D01*
X26740122Y-22074869D01*
X26869026Y-21763669D01*
X26934740Y-21433300D01*
X26934740Y-21096460D01*
X26883748Y-20840100D01*
X27350428Y-20840100D01*
X27362688Y-20964582D01*
X27398998Y-21084280D01*
X27457963Y-21194594D01*
X27537315Y-21291285D01*
X27634006Y-21370637D01*
X27744320Y-21429602D01*
X27778927Y-21440100D01*
X27744320Y-21450598D01*
X27634006Y-21509563D01*
X27537315Y-21588915D01*
X27457963Y-21685606D01*
X27398998Y-21795920D01*
X27362688Y-21915618D01*
X27350428Y-22040100D01*
X27350428Y-22740100D01*
X27362688Y-22864582D01*
X27398998Y-22984280D01*
X27457963Y-23094594D01*
X27537315Y-23191285D01*
X27634006Y-23270637D01*
X27744320Y-23329602D01*
X27864018Y-23365912D01*
X27988500Y-23378172D01*
X29288500Y-23378172D01*
X29412982Y-23365912D01*
X29532680Y-23329602D01*
X29642994Y-23270637D01*
X29739685Y-23191285D01*
X29784806Y-23136305D01*
X29832876Y-23168424D01*
X30039433Y-23253983D01*
X30258712Y-23297600D01*
X30482288Y-23297600D01*
X30701567Y-23253983D01*
X30908124Y-23168424D01*
X31094020Y-23044212D01*
X31252112Y-22886120D01*
X31376324Y-22700224D01*
X31461883Y-22493667D01*
X31505500Y-22274388D01*
X31505500Y-22050812D01*
X31461883Y-21831533D01*
X31445425Y-21791800D01*
X35183428Y-21791800D01*
X35186500Y-22006050D01*
X35345250Y-22164800D01*
X36319500Y-22164800D01*
X36319500Y-21315550D01*
X36573500Y-21315550D01*
X36573500Y-22164800D01*
X37547750Y-22164800D01*
X37706500Y-22006050D01*
X37706913Y-21977200D01*
X38150128Y-21977200D01*
X38153200Y-22191450D01*
X38311950Y-22350200D01*
X39286200Y-22350200D01*
X39286200Y-21500950D01*
X39540200Y-21500950D01*
X39540200Y-22350200D01*
X40514450Y-22350200D01*
X40673200Y-22191450D01*
X40676272Y-21977200D01*
X40664012Y-21852718D01*
X40627702Y-21733020D01*
X40568737Y-21622706D01*
X40489385Y-21526015D01*
X40392694Y-21446663D01*
X40282380Y-21387698D01*
X40162682Y-21351388D01*
X40038200Y-21339128D01*
X39698950Y-21342200D01*
X39540200Y-21500950D01*
X39286200Y-21500950D01*
X39127450Y-21342200D01*
X38788200Y-21339128D01*
X38663718Y-21351388D01*
X38544020Y-21387698D01*
X38433706Y-21446663D01*
X38337015Y-21526015D01*
X38257663Y-21622706D01*
X38198698Y-21733020D01*
X38162388Y-21852718D01*
X38150128Y-21977200D01*
X37706913Y-21977200D01*
X37709572Y-21791800D01*
X37697312Y-21667318D01*
X37661002Y-21547620D01*
X37602037Y-21437306D01*
X37522685Y-21340615D01*
X37495174Y-21318037D01*
X44247500Y-21318037D01*
X44247500Y-21531763D01*
X44289196Y-21741383D01*
X44370985Y-21938840D01*
X44489725Y-22116547D01*
X44640853Y-22267675D01*
X44818560Y-22386415D01*
X45016017Y-22468204D01*
X45225637Y-22509900D01*
X45439363Y-22509900D01*
X45648983Y-22468204D01*
X45846440Y-22386415D01*
X46024147Y-22267675D01*
X46175275Y-22116547D01*
X46294015Y-21938840D01*
X46375804Y-21741383D01*
X46417500Y-21531763D01*
X46417500Y-21318037D01*
X47247500Y-21318037D01*
X47247500Y-21531763D01*
X47289196Y-21741383D01*
X47370985Y-21938840D01*
X47489725Y-22116547D01*
X47640853Y-22267675D01*
X47818560Y-22386415D01*
X48016017Y-22468204D01*
X48225637Y-22509900D01*
X48439363Y-22509900D01*
X48648983Y-22468204D01*
X48846440Y-22386415D01*
X49024147Y-22267675D01*
X49175275Y-22116547D01*
X49294015Y-21938840D01*
X49322079Y-21871087D01*
X52255346Y-21871087D01*
X52310850Y-22166837D01*
X52533686Y-22312702D01*
X53449986Y-21783676D01*
X53957985Y-21783676D01*
X54579674Y-22860473D01*
X54845892Y-22846096D01*
X54960453Y-22723787D01*
X55130333Y-22475414D01*
X55248493Y-22198670D01*
X55310393Y-21904191D01*
X55313654Y-21603295D01*
X55258150Y-21307545D01*
X55218942Y-21281880D01*
X56288360Y-21281880D01*
X56288360Y-21618720D01*
X56354074Y-21949089D01*
X56482978Y-22260289D01*
X56670116Y-22540361D01*
X56908299Y-22778544D01*
X57188371Y-22965682D01*
X57499571Y-23094586D01*
X57829940Y-23160300D01*
X58166780Y-23160300D01*
X58497149Y-23094586D01*
X58808349Y-22965682D01*
X59088421Y-22778544D01*
X59326604Y-22540361D01*
X59513742Y-22260289D01*
X59642646Y-21949089D01*
X59708360Y-21618720D01*
X59708360Y-21281880D01*
X59642646Y-20951511D01*
X59513742Y-20640311D01*
X59326604Y-20360239D01*
X59088421Y-20122056D01*
X58808349Y-19934918D01*
X58497149Y-19806014D01*
X58166780Y-19740300D01*
X57829940Y-19740300D01*
X57499571Y-19806014D01*
X57188371Y-19934918D01*
X56908299Y-20122056D01*
X56670116Y-20360239D01*
X56482978Y-20640311D01*
X56354074Y-20951511D01*
X56288360Y-21281880D01*
X55218942Y-21281880D01*
X55035314Y-21161680D01*
X53957985Y-21783676D01*
X53449986Y-21783676D01*
X53611015Y-21690706D01*
X52989326Y-20613909D01*
X52723108Y-20628286D01*
X52608547Y-20750595D01*
X52438667Y-20998968D01*
X52320507Y-21275712D01*
X52258607Y-21570191D01*
X52255346Y-21871087D01*
X49322079Y-21871087D01*
X49375804Y-21741383D01*
X49417500Y-21531763D01*
X49417500Y-21318037D01*
X49375804Y-21108417D01*
X49294015Y-20910960D01*
X49175275Y-20733253D01*
X49024147Y-20582125D01*
X48881647Y-20486909D01*
X53209296Y-20486909D01*
X53830985Y-21563706D01*
X54908314Y-20941710D01*
X54893409Y-20675796D01*
X54665034Y-20479853D01*
X54402820Y-20332229D01*
X54116844Y-20238596D01*
X53818097Y-20202554D01*
X53518059Y-20225488D01*
X53354856Y-20263546D01*
X53209296Y-20486909D01*
X48881647Y-20486909D01*
X48846440Y-20463385D01*
X48648983Y-20381596D01*
X48439363Y-20339900D01*
X48225637Y-20339900D01*
X48016017Y-20381596D01*
X47818560Y-20463385D01*
X47640853Y-20582125D01*
X47489725Y-20733253D01*
X47370985Y-20910960D01*
X47289196Y-21108417D01*
X47247500Y-21318037D01*
X46417500Y-21318037D01*
X46375804Y-21108417D01*
X46294015Y-20910960D01*
X46175275Y-20733253D01*
X46024147Y-20582125D01*
X45846440Y-20463385D01*
X45648983Y-20381596D01*
X45439363Y-20339900D01*
X45225637Y-20339900D01*
X45016017Y-20381596D01*
X44818560Y-20463385D01*
X44640853Y-20582125D01*
X44489725Y-20733253D01*
X44370985Y-20910960D01*
X44289196Y-21108417D01*
X44247500Y-21318037D01*
X37495174Y-21318037D01*
X37425994Y-21261263D01*
X37315680Y-21202298D01*
X37195982Y-21165988D01*
X37071500Y-21153728D01*
X36732250Y-21156800D01*
X36573500Y-21315550D01*
X36319500Y-21315550D01*
X36160750Y-21156800D01*
X35821500Y-21153728D01*
X35697018Y-21165988D01*
X35577320Y-21202298D01*
X35467006Y-21261263D01*
X35370315Y-21340615D01*
X35290963Y-21437306D01*
X35231998Y-21547620D01*
X35195688Y-21667318D01*
X35183428Y-21791800D01*
X31445425Y-21791800D01*
X31376324Y-21624976D01*
X31252112Y-21439080D01*
X31094020Y-21280988D01*
X30908124Y-21156776D01*
X30701567Y-21071217D01*
X30482288Y-21027600D01*
X30258712Y-21027600D01*
X30039433Y-21071217D01*
X29841064Y-21153384D01*
X29878002Y-21084280D01*
X29914312Y-20964582D01*
X29926572Y-20840100D01*
X29923500Y-20775850D01*
X29764750Y-20617100D01*
X28765500Y-20617100D01*
X28765500Y-20637100D01*
X28511500Y-20637100D01*
X28511500Y-20617100D01*
X27512250Y-20617100D01*
X27353500Y-20775850D01*
X27350428Y-20840100D01*
X26883748Y-20840100D01*
X26869026Y-20766091D01*
X26740122Y-20454891D01*
X26552984Y-20174819D01*
X26314801Y-19936636D01*
X26034729Y-19749498D01*
X25723529Y-19620594D01*
X25581671Y-19592377D01*
X27676456Y-19586873D01*
X27634006Y-19609563D01*
X27537315Y-19688915D01*
X27457963Y-19785606D01*
X27398998Y-19895920D01*
X27362688Y-20015618D01*
X27350428Y-20140100D01*
X27353500Y-20204350D01*
X27512250Y-20363100D01*
X28511500Y-20363100D01*
X28511500Y-20343100D01*
X28765500Y-20343100D01*
X28765500Y-20363100D01*
X29764750Y-20363100D01*
X29923500Y-20204350D01*
X29926572Y-20140100D01*
X29914312Y-20015618D01*
X29878002Y-19895920D01*
X29819037Y-19785606D01*
X29739685Y-19688915D01*
X29642994Y-19609563D01*
X29591132Y-19581842D01*
X59804001Y-19502455D01*
X59649375Y-85415895D01*
G04 #@! TA.AperFunction,Conductor*
D32*
G36*
X59649375Y-85415895D02*
G01*
X59611074Y-85377922D01*
X59408133Y-85243579D01*
X59182882Y-85151409D01*
X59145209Y-85147538D01*
X58954600Y-85272269D01*
X58954600Y-86614000D01*
X58974600Y-86614000D01*
X58974600Y-86868000D01*
X58954600Y-86868000D01*
X58954600Y-88209731D01*
X59145209Y-88334462D01*
X59182882Y-88330591D01*
X59408133Y-88238421D01*
X59611074Y-88104078D01*
X59643143Y-88072284D01*
X59639499Y-89625598D01*
X25633540Y-89400409D01*
X25705749Y-89386046D01*
X26016949Y-89257142D01*
X26297021Y-89070004D01*
X26535204Y-88831821D01*
X26722342Y-88551749D01*
X26851246Y-88240549D01*
X26916960Y-87910180D01*
X26916960Y-87573340D01*
X26851246Y-87242971D01*
X26722342Y-86931771D01*
X26607368Y-86759700D01*
X27767628Y-86759700D01*
X27767628Y-88459700D01*
X27779888Y-88584182D01*
X27816198Y-88703880D01*
X27875163Y-88814194D01*
X27954515Y-88910885D01*
X28051206Y-88990237D01*
X28161520Y-89049202D01*
X28281218Y-89085512D01*
X28405700Y-89097772D01*
X30105700Y-89097772D01*
X30230182Y-89085512D01*
X30349880Y-89049202D01*
X30460194Y-88990237D01*
X30556885Y-88910885D01*
X30636237Y-88814194D01*
X30695202Y-88703880D01*
X30731512Y-88584182D01*
X30743772Y-88459700D01*
X30743772Y-87519900D01*
X34191328Y-87519900D01*
X34203588Y-87644382D01*
X34239898Y-87764080D01*
X34298863Y-87874394D01*
X34378215Y-87971085D01*
X34474906Y-88050437D01*
X34585220Y-88109402D01*
X34704918Y-88145712D01*
X34829400Y-88157972D01*
X35393650Y-88154900D01*
X35552400Y-87996150D01*
X35552400Y-86796900D01*
X34353150Y-86796900D01*
X34194400Y-86955650D01*
X34191328Y-87519900D01*
X30743772Y-87519900D01*
X30743772Y-86759700D01*
X30731512Y-86635218D01*
X30695202Y-86515520D01*
X30636237Y-86405206D01*
X30556885Y-86308515D01*
X30460194Y-86229163D01*
X30349880Y-86170198D01*
X30230182Y-86133888D01*
X30105700Y-86121628D01*
X28405700Y-86121628D01*
X28281218Y-86133888D01*
X28161520Y-86170198D01*
X28051206Y-86229163D01*
X27954515Y-86308515D01*
X27875163Y-86405206D01*
X27816198Y-86515520D01*
X27779888Y-86635218D01*
X27767628Y-86759700D01*
X26607368Y-86759700D01*
X26535204Y-86651699D01*
X26297021Y-86413516D01*
X26016949Y-86226378D01*
X25705749Y-86097474D01*
X25375380Y-86031760D01*
X25038540Y-86031760D01*
X24708171Y-86097474D01*
X24396971Y-86226378D01*
X24116899Y-86413516D01*
X23878716Y-86651699D01*
X23691578Y-86931771D01*
X23562674Y-87242971D01*
X23496960Y-87573340D01*
X23496960Y-87910180D01*
X23562674Y-88240549D01*
X23691578Y-88551749D01*
X23878716Y-88831821D01*
X24116899Y-89070004D01*
X24396971Y-89257142D01*
X24708171Y-89386046D01*
X24750999Y-89394565D01*
X23454123Y-89385977D01*
X23344104Y-31039940D01*
X23744504Y-31039940D01*
X23748061Y-31076055D01*
X23748060Y-77812355D01*
X23744504Y-77848460D01*
X23758695Y-77992545D01*
X23771444Y-78034573D01*
X23800723Y-78131092D01*
X23868973Y-78258779D01*
X23960822Y-78370697D01*
X23988868Y-78393714D01*
X30879746Y-85284593D01*
X30902762Y-85312638D01*
X30930806Y-85335653D01*
X31014680Y-85404487D01*
X31142366Y-85472737D01*
X31280915Y-85514765D01*
X31425000Y-85528956D01*
X31461105Y-85525400D01*
X34266795Y-85525400D01*
X34239898Y-85575720D01*
X34203588Y-85695418D01*
X34191328Y-85819900D01*
X34194400Y-86384150D01*
X34353150Y-86542900D01*
X35552400Y-86542900D01*
X35552400Y-86522900D01*
X35806400Y-86522900D01*
X35806400Y-86542900D01*
X35826400Y-86542900D01*
X35826400Y-86796900D01*
X35806400Y-86796900D01*
X35806400Y-87996150D01*
X35965150Y-88154900D01*
X36529400Y-88157972D01*
X36653882Y-88145712D01*
X36773580Y-88109402D01*
X36883894Y-88050437D01*
X36980585Y-87971085D01*
X37059937Y-87874394D01*
X37118902Y-87764080D01*
X37140913Y-87691520D01*
X37272768Y-87823375D01*
X37515989Y-87985890D01*
X37786242Y-88097832D01*
X38073140Y-88154900D01*
X38365660Y-88154900D01*
X38652558Y-88097832D01*
X38922811Y-87985890D01*
X39166032Y-87823375D01*
X39205680Y-87783727D01*
X39742346Y-88320393D01*
X39765362Y-88348438D01*
X39793406Y-88371453D01*
X39877280Y-88440287D01*
X40004966Y-88508537D01*
X40143515Y-88550565D01*
X40287600Y-88564756D01*
X40323705Y-88561200D01*
X48835095Y-88561200D01*
X48871200Y-88564756D01*
X48907305Y-88561200D01*
X49015285Y-88550565D01*
X49153833Y-88508537D01*
X49281520Y-88440287D01*
X49376557Y-88362292D01*
X49411437Y-88537647D01*
X49496996Y-88744204D01*
X49621208Y-88930100D01*
X49779300Y-89088192D01*
X49965196Y-89212404D01*
X50171753Y-89297963D01*
X50391032Y-89341580D01*
X50614608Y-89341580D01*
X50833887Y-89297963D01*
X51040444Y-89212404D01*
X51226340Y-89088192D01*
X51372952Y-88941580D01*
X52210141Y-88941580D01*
X52246246Y-88945136D01*
X52282351Y-88941580D01*
X52390331Y-88930945D01*
X52528879Y-88888917D01*
X52656566Y-88820667D01*
X52768484Y-88728818D01*
X52791504Y-88700768D01*
X53653857Y-87838416D01*
X53681897Y-87815404D01*
X53704910Y-87787363D01*
X53704913Y-87787360D01*
X53773746Y-87703487D01*
X53773747Y-87703486D01*
X53841997Y-87575799D01*
X53872666Y-87474697D01*
X53883180Y-87467672D01*
X54041272Y-87309580D01*
X54165484Y-87123684D01*
X54251043Y-86917127D01*
X54260814Y-86868000D01*
X57592600Y-86868000D01*
X57592600Y-87268000D01*
X57641107Y-87506496D01*
X57735210Y-87730946D01*
X57871293Y-87932725D01*
X58044126Y-88104078D01*
X58247067Y-88238421D01*
X58472318Y-88330591D01*
X58509991Y-88334462D01*
X58700600Y-88209731D01*
X58700600Y-86868000D01*
X57592600Y-86868000D01*
X54260814Y-86868000D01*
X54294660Y-86697848D01*
X54294660Y-86474272D01*
X54251043Y-86254993D01*
X54234064Y-86214000D01*
X57592600Y-86214000D01*
X57592600Y-86614000D01*
X58700600Y-86614000D01*
X58700600Y-85272269D01*
X58509991Y-85147538D01*
X58472318Y-85151409D01*
X58247067Y-85243579D01*
X58044126Y-85377922D01*
X57871293Y-85549275D01*
X57735210Y-85751054D01*
X57641107Y-85975504D01*
X57592600Y-86214000D01*
X54234064Y-86214000D01*
X54165484Y-86048436D01*
X54041272Y-85862540D01*
X53883180Y-85704448D01*
X53726369Y-85599670D01*
X53733820Y-85595687D01*
X53845738Y-85503838D01*
X53868759Y-85475787D01*
X55041730Y-84302816D01*
X56512841Y-84302816D01*
X56576545Y-84525979D01*
X56682562Y-84732426D01*
X56826817Y-84914223D01*
X57003767Y-85064385D01*
X57206613Y-85177140D01*
X57367856Y-85234803D01*
X57550600Y-85109361D01*
X57550600Y-84118000D01*
X57804600Y-84118000D01*
X57804600Y-85109361D01*
X57987344Y-85234803D01*
X58148587Y-85177140D01*
X58351433Y-85064385D01*
X58528383Y-84914223D01*
X58672638Y-84732426D01*
X58778655Y-84525979D01*
X58842359Y-84302816D01*
X58702404Y-84118000D01*
X57804600Y-84118000D01*
X57550600Y-84118000D01*
X56652796Y-84118000D01*
X56512841Y-84302816D01*
X55041730Y-84302816D01*
X55665362Y-83679184D01*
X56512841Y-83679184D01*
X56652796Y-83864000D01*
X57550600Y-83864000D01*
X57550600Y-82872639D01*
X57804600Y-82872639D01*
X57804600Y-83864000D01*
X58702404Y-83864000D01*
X58842359Y-83679184D01*
X58778655Y-83456021D01*
X58672638Y-83249574D01*
X58528383Y-83067777D01*
X58351433Y-82917615D01*
X58148587Y-82804860D01*
X57987344Y-82747197D01*
X57804600Y-82872639D01*
X57550600Y-82872639D01*
X57367856Y-82747197D01*
X57206613Y-82804860D01*
X57003767Y-82917615D01*
X56826817Y-83067777D01*
X56682562Y-83249574D01*
X56576545Y-83456021D01*
X56512841Y-83679184D01*
X55665362Y-83679184D01*
X57844593Y-81499954D01*
X57872638Y-81476938D01*
X57964487Y-81365020D01*
X57995640Y-81306737D01*
X58032737Y-81237334D01*
X58074765Y-81098785D01*
X58088956Y-80954700D01*
X58085400Y-80918595D01*
X58085400Y-60929405D01*
X58088956Y-60893300D01*
X58074765Y-60749215D01*
X58032737Y-60610666D01*
X57964487Y-60482980D01*
X57895653Y-60399106D01*
X57895650Y-60399103D01*
X57872637Y-60371062D01*
X57844597Y-60348050D01*
X54919439Y-57422893D01*
X54896418Y-57394842D01*
X54784500Y-57302993D01*
X54656813Y-57234743D01*
X54518265Y-57192715D01*
X54410285Y-57182080D01*
X54374180Y-57178524D01*
X54338075Y-57182080D01*
X48240866Y-57182080D01*
X48248500Y-57104565D01*
X48248500Y-57104556D01*
X48252055Y-57068461D01*
X48248500Y-57032366D01*
X48248500Y-49045605D01*
X48252056Y-49009500D01*
X48237865Y-48865415D01*
X48228028Y-48832986D01*
X48195837Y-48726867D01*
X48127587Y-48599180D01*
X48061666Y-48518856D01*
X48058753Y-48515306D01*
X48058750Y-48515303D01*
X48035737Y-48487262D01*
X48007697Y-48464250D01*
X47804401Y-48260954D01*
X47839100Y-48086511D01*
X47839100Y-47813689D01*
X47785875Y-47546111D01*
X47681471Y-47294057D01*
X47529899Y-47067214D01*
X47336986Y-46874301D01*
X47110143Y-46722729D01*
X46858089Y-46618325D01*
X46590511Y-46565100D01*
X46317689Y-46565100D01*
X46050111Y-46618325D01*
X45798057Y-46722729D01*
X45571214Y-46874301D01*
X45378301Y-47067214D01*
X45279487Y-47215100D01*
X43469250Y-47215100D01*
X43328750Y-47074600D01*
X42354500Y-47074600D01*
X42354500Y-47094600D01*
X42100500Y-47094600D01*
X42100500Y-47074600D01*
X42080500Y-47074600D01*
X42080500Y-46820600D01*
X42100500Y-46820600D01*
X42100500Y-45971350D01*
X42354500Y-45971350D01*
X42354500Y-46820600D01*
X43328750Y-46820600D01*
X43487500Y-46661850D01*
X43490572Y-46447600D01*
X43478312Y-46323118D01*
X43442002Y-46203420D01*
X43383037Y-46093106D01*
X43303685Y-45996415D01*
X43206994Y-45917063D01*
X43096680Y-45858098D01*
X42976982Y-45821788D01*
X42852500Y-45809528D01*
X42513250Y-45812600D01*
X42354500Y-45971350D01*
X42100500Y-45971350D01*
X41941750Y-45812600D01*
X41602500Y-45809528D01*
X41478018Y-45821788D01*
X41358320Y-45858098D01*
X41248006Y-45917063D01*
X41211110Y-45947343D01*
X41211110Y-44880236D01*
X41224686Y-44866660D01*
X41265995Y-44866660D01*
X41302100Y-44870216D01*
X41338205Y-44866660D01*
X41446185Y-44856025D01*
X41584733Y-44813997D01*
X41712420Y-44745747D01*
X41824338Y-44653898D01*
X41916187Y-44541980D01*
X41984437Y-44414293D01*
X42026465Y-44275745D01*
X42040656Y-44131660D01*
X42037100Y-44095555D01*
X42037100Y-38196915D01*
X42050920Y-38204302D01*
X42170618Y-38240612D01*
X42295100Y-38252872D01*
X43295100Y-38252872D01*
X43419582Y-38240612D01*
X43539280Y-38204302D01*
X43649594Y-38145337D01*
X43746285Y-38065985D01*
X43825637Y-37969294D01*
X43884602Y-37858980D01*
X43920912Y-37739282D01*
X43933172Y-37614800D01*
X43933172Y-37467665D01*
X44005720Y-37428887D01*
X44117638Y-37337038D01*
X44140658Y-37308988D01*
X44657028Y-36792618D01*
X44657028Y-37614800D01*
X44669288Y-37739282D01*
X44705598Y-37858980D01*
X44764563Y-37969294D01*
X44843915Y-38065985D01*
X44940606Y-38145337D01*
X45050920Y-38204302D01*
X45170618Y-38240612D01*
X45295100Y-38252872D01*
X46295100Y-38252872D01*
X46419582Y-38240612D01*
X46539280Y-38204302D01*
X46649594Y-38145337D01*
X46746285Y-38065985D01*
X46773715Y-38032561D01*
X49209046Y-40467893D01*
X49232062Y-40495938D01*
X49343980Y-40587787D01*
X49471667Y-40656037D01*
X49610215Y-40698065D01*
X49718195Y-40708700D01*
X49718204Y-40708700D01*
X49754299Y-40712255D01*
X49790394Y-40708700D01*
X50301328Y-40708700D01*
X50301328Y-42633700D01*
X50304402Y-42696256D01*
X50305363Y-42706011D01*
X50329763Y-42828672D01*
X50332608Y-42838051D01*
X50380481Y-42953627D01*
X50385102Y-42962272D01*
X50454608Y-43066289D01*
X50460826Y-43073865D01*
X50549235Y-43162274D01*
X50556811Y-43168492D01*
X50660828Y-43237998D01*
X50669473Y-43242619D01*
X50785049Y-43290492D01*
X50794428Y-43293337D01*
X50917089Y-43317737D01*
X50926844Y-43318698D01*
X50989400Y-43321772D01*
X51304400Y-43321772D01*
X51304401Y-50712885D01*
X51300844Y-50749000D01*
X51315035Y-50893085D01*
X51347240Y-50999247D01*
X51357064Y-51031633D01*
X51425314Y-51159320D01*
X51517163Y-51271238D01*
X51545208Y-51294254D01*
X54359773Y-54108820D01*
X54320125Y-54148468D01*
X54157610Y-54391689D01*
X54045668Y-54661942D01*
X53988600Y-54948840D01*
X53988600Y-55241360D01*
X54045668Y-55528258D01*
X54157610Y-55798511D01*
X54320125Y-56041732D01*
X54526968Y-56248575D01*
X54770189Y-56411090D01*
X55040442Y-56523032D01*
X55327340Y-56580100D01*
X55619860Y-56580100D01*
X55906758Y-56523032D01*
X56177011Y-56411090D01*
X56420232Y-56248575D01*
X56627075Y-56041732D01*
X56789590Y-55798511D01*
X56901532Y-55528258D01*
X56958600Y-55241360D01*
X56958600Y-54948840D01*
X56901532Y-54661942D01*
X56789590Y-54391689D01*
X56627075Y-54148468D01*
X56420232Y-53941625D01*
X56245840Y-53825100D01*
X56420232Y-53708575D01*
X56627075Y-53501732D01*
X56789590Y-53258511D01*
X56901532Y-52988258D01*
X56958600Y-52701360D01*
X56958600Y-52408840D01*
X56901532Y-52121942D01*
X56789590Y-51851689D01*
X56627075Y-51608468D01*
X56420232Y-51401625D01*
X56245840Y-51285100D01*
X56420232Y-51168575D01*
X56627075Y-50961732D01*
X56789590Y-50718511D01*
X56901532Y-50448258D01*
X56958600Y-50161360D01*
X56958600Y-49868840D01*
X56901532Y-49581942D01*
X56789590Y-49311689D01*
X56627075Y-49068468D01*
X56495220Y-48936613D01*
X56567780Y-48914602D01*
X56678094Y-48855637D01*
X56774785Y-48776285D01*
X56854137Y-48679594D01*
X56913102Y-48569280D01*
X56949412Y-48449582D01*
X56961672Y-48325100D01*
X56961672Y-46625100D01*
X56949412Y-46500618D01*
X56913102Y-46380920D01*
X56854137Y-46270606D01*
X56774785Y-46173915D01*
X56678094Y-46094563D01*
X56567780Y-46035598D01*
X56448082Y-45999288D01*
X56323600Y-45987028D01*
X54623600Y-45987028D01*
X54499118Y-45999288D01*
X54379420Y-46035598D01*
X54269106Y-46094563D01*
X54172415Y-46173915D01*
X54093063Y-46270606D01*
X54034098Y-46380920D01*
X53997788Y-46500618D01*
X53985528Y-46625100D01*
X53985528Y-48325100D01*
X53997788Y-48449582D01*
X54034098Y-48569280D01*
X54093063Y-48679594D01*
X54172415Y-48776285D01*
X54269106Y-48855637D01*
X54379420Y-48914602D01*
X54451980Y-48936613D01*
X54320125Y-49068468D01*
X54157610Y-49311689D01*
X54045668Y-49581942D01*
X53988600Y-49868840D01*
X53988600Y-50161360D01*
X54045668Y-50448258D01*
X54157610Y-50718511D01*
X54320125Y-50961732D01*
X54526968Y-51168575D01*
X54701360Y-51285100D01*
X54526968Y-51401625D01*
X54320125Y-51608468D01*
X54167193Y-51837347D01*
X52774400Y-50444554D01*
X52774400Y-43321772D01*
X53049400Y-43321772D01*
X53113011Y-43318593D01*
X53122932Y-43317599D01*
X53246608Y-43292673D01*
X53255978Y-43289796D01*
X53371410Y-43241520D01*
X53380038Y-43236870D01*
X53483776Y-43167041D01*
X53491332Y-43160797D01*
X53579498Y-43072028D01*
X53585690Y-43064430D01*
X53654791Y-42960254D01*
X53659383Y-42951594D01*
X53706887Y-42835805D01*
X53709700Y-42826416D01*
X53733677Y-42703703D01*
X53734605Y-42693946D01*
X53737468Y-42631368D01*
X53727513Y-39694599D01*
X53769640Y-39736727D01*
X53769640Y-39944068D01*
X53813257Y-40163347D01*
X53898816Y-40369904D01*
X54023028Y-40555800D01*
X54181120Y-40713892D01*
X54367016Y-40838104D01*
X54573573Y-40923663D01*
X54792852Y-40967280D01*
X55016428Y-40967280D01*
X55235707Y-40923663D01*
X55442264Y-40838104D01*
X55628160Y-40713892D01*
X55786252Y-40555800D01*
X55910464Y-40369904D01*
X55996023Y-40163347D01*
X56039640Y-39944068D01*
X56039640Y-39720492D01*
X55996023Y-39501213D01*
X55910464Y-39294656D01*
X55786252Y-39108760D01*
X55628160Y-38950668D01*
X55442264Y-38826456D01*
X55235707Y-38740897D01*
X55016428Y-38697280D01*
X54809087Y-38697280D01*
X54667472Y-38555666D01*
X54667472Y-37193700D01*
X54655212Y-37069218D01*
X54618902Y-36949520D01*
X54559937Y-36839206D01*
X54480585Y-36742515D01*
X54383894Y-36663163D01*
X54273580Y-36604198D01*
X54153882Y-36567888D01*
X54029400Y-36555628D01*
X53029400Y-36555628D01*
X52904918Y-36567888D01*
X52785378Y-36604150D01*
X52743751Y-36586908D01*
X52734372Y-36584063D01*
X52611711Y-36559663D01*
X52601956Y-36558702D01*
X52539400Y-36555628D01*
X51654156Y-36555628D01*
X51618842Y-36549365D01*
X51609084Y-36548445D01*
X51483967Y-36548970D01*
X51474216Y-36549972D01*
X51351682Y-36574880D01*
X51342315Y-36577764D01*
X51276070Y-36605529D01*
X51273580Y-36604198D01*
X51153882Y-36567888D01*
X51029400Y-36555628D01*
X50815150Y-36558700D01*
X50656400Y-36717450D01*
X50656400Y-37816700D01*
X50676400Y-37816700D01*
X50676400Y-38070700D01*
X50656400Y-38070700D01*
X50656400Y-38090700D01*
X50402400Y-38090700D01*
X50402400Y-38070700D01*
X49553150Y-38070700D01*
X49394400Y-38229450D01*
X49392133Y-38572086D01*
X48855915Y-38035869D01*
X49043124Y-37958324D01*
X49229020Y-37834112D01*
X49387112Y-37676020D01*
X49397269Y-37660819D01*
X49553150Y-37816700D01*
X50402400Y-37816700D01*
X50402400Y-36717450D01*
X50243650Y-36558700D01*
X50029400Y-36555628D01*
X49904918Y-36567888D01*
X49785220Y-36604198D01*
X49674906Y-36663163D01*
X49614968Y-36712353D01*
X49596883Y-36621433D01*
X49511324Y-36414876D01*
X49387112Y-36228980D01*
X49229020Y-36070888D01*
X49043124Y-35946676D01*
X48836567Y-35861117D01*
X48617288Y-35817500D01*
X48409947Y-35817500D01*
X47800758Y-35208312D01*
X47777738Y-35180262D01*
X47665820Y-35088413D01*
X47538133Y-35020163D01*
X47399585Y-34978135D01*
X47291605Y-34967500D01*
X47255500Y-34963944D01*
X47219395Y-34967500D01*
X44743805Y-34967500D01*
X44707700Y-34963944D01*
X44563615Y-34978135D01*
X44425066Y-35020163D01*
X44298437Y-35087848D01*
X44297380Y-35088413D01*
X44185462Y-35180262D01*
X44162446Y-35208307D01*
X43773715Y-35597039D01*
X43746285Y-35563615D01*
X43649594Y-35484263D01*
X43539280Y-35425298D01*
X43419582Y-35388988D01*
X43295100Y-35376728D01*
X42502818Y-35376728D01*
X47818198Y-30061349D01*
X47846237Y-30038338D01*
X47869250Y-30010297D01*
X47869253Y-30010294D01*
X47938087Y-29926420D01*
X48006337Y-29798734D01*
X48048365Y-29660185D01*
X48062556Y-29516100D01*
X48059000Y-29479995D01*
X48059000Y-26103632D01*
X48194132Y-25968500D01*
X48764254Y-25968500D01*
X49779646Y-26983893D01*
X49802662Y-27011938D01*
X49914580Y-27103787D01*
X49987426Y-27142724D01*
X49999388Y-27264182D01*
X50035698Y-27383880D01*
X50094663Y-27494194D01*
X50174015Y-27590885D01*
X50270706Y-27670237D01*
X50381020Y-27729202D01*
X50500718Y-27765512D01*
X50625200Y-27777772D01*
X51325200Y-27777772D01*
X51449682Y-27765512D01*
X51569380Y-27729202D01*
X51679694Y-27670237D01*
X51776385Y-27590885D01*
X51855737Y-27494194D01*
X51914702Y-27383880D01*
X51925200Y-27349273D01*
X51935698Y-27383880D01*
X51994663Y-27494194D01*
X52074015Y-27590885D01*
X52170706Y-27670237D01*
X52281020Y-27729202D01*
X52400718Y-27765512D01*
X52525200Y-27777772D01*
X53225200Y-27777772D01*
X53349682Y-27765512D01*
X53469380Y-27729202D01*
X53579694Y-27670237D01*
X53676385Y-27590885D01*
X53678518Y-27588286D01*
X53789215Y-27621865D01*
X53897195Y-27632500D01*
X53897204Y-27632500D01*
X53933299Y-27636055D01*
X53969394Y-27632500D01*
X54945641Y-27632500D01*
X54958218Y-27634576D01*
X54982416Y-27633783D01*
X55006499Y-27636155D01*
X55054600Y-27631418D01*
X55102922Y-27629834D01*
X55126497Y-27624336D01*
X55150584Y-27621964D01*
X55196841Y-27607932D01*
X55243922Y-27596953D01*
X55265971Y-27586962D01*
X55289133Y-27579936D01*
X55331759Y-27557152D01*
X55342751Y-27552171D01*
X55360013Y-27542204D01*
X55442490Y-27685059D01*
X55515349Y-27786733D01*
X55606643Y-27872240D01*
X55712865Y-27938292D01*
X55829932Y-27982353D01*
X55953345Y-28002729D01*
X56078362Y-27998636D01*
X56200178Y-27970233D01*
X56314113Y-27918610D01*
X57872959Y-27018610D01*
X57974633Y-26945751D01*
X58060140Y-26854457D01*
X58126192Y-26748235D01*
X58170253Y-26631168D01*
X58190629Y-26507755D01*
X58186536Y-26382738D01*
X58158133Y-26260922D01*
X58106510Y-26146987D01*
X57206510Y-24588141D01*
X57133651Y-24486467D01*
X57042357Y-24400960D01*
X56936135Y-24334908D01*
X56819068Y-24290847D01*
X56695655Y-24270471D01*
X56570638Y-24274564D01*
X56448822Y-24302967D01*
X56334887Y-24354590D01*
X54776041Y-25254590D01*
X54674367Y-25327449D01*
X54588860Y-25418743D01*
X54522808Y-25524965D01*
X54478747Y-25642032D01*
X54458371Y-25765445D01*
X54462464Y-25890462D01*
X54490867Y-26012278D01*
X54542490Y-26126213D01*
X54563440Y-26162500D01*
X54237746Y-26162500D01*
X54070759Y-25995513D01*
X54047738Y-25967462D01*
X53935820Y-25875613D01*
X53862974Y-25836676D01*
X53851012Y-25715218D01*
X53814702Y-25595520D01*
X53755737Y-25485206D01*
X53676385Y-25388515D01*
X53579694Y-25309163D01*
X53469380Y-25250198D01*
X53349682Y-25213888D01*
X53225200Y-25201628D01*
X52525200Y-25201628D01*
X52400718Y-25213888D01*
X52281020Y-25250198D01*
X52170706Y-25309163D01*
X52074015Y-25388515D01*
X51994663Y-25485206D01*
X51935698Y-25595520D01*
X51925200Y-25630127D01*
X51914702Y-25595520D01*
X51855737Y-25485206D01*
X51776385Y-25388515D01*
X51679694Y-25309163D01*
X51569380Y-25250198D01*
X51449682Y-25213888D01*
X51325200Y-25201628D01*
X50625200Y-25201628D01*
X50500718Y-25213888D01*
X50381020Y-25250198D01*
X50270706Y-25309163D01*
X50222978Y-25348332D01*
X49613958Y-24739312D01*
X49590938Y-24711262D01*
X49479020Y-24619413D01*
X49351333Y-24551163D01*
X49212785Y-24509135D01*
X49104805Y-24498500D01*
X49068700Y-24494944D01*
X49032595Y-24498500D01*
X48194132Y-24498500D01*
X48047520Y-24351888D01*
X47861624Y-24227676D01*
X47655067Y-24142117D01*
X47435788Y-24098500D01*
X47212212Y-24098500D01*
X46992933Y-24142117D01*
X46786376Y-24227676D01*
X46600480Y-24351888D01*
X46442388Y-24509980D01*
X46318176Y-24695876D01*
X46232617Y-24902433D01*
X46189000Y-25121712D01*
X46189000Y-25345288D01*
X46232617Y-25564567D01*
X46318176Y-25771124D01*
X46442388Y-25957020D01*
X46589001Y-26103633D01*
X46589000Y-29211653D01*
X40807908Y-34992746D01*
X40779863Y-35015762D01*
X40688014Y-35127680D01*
X40659908Y-35180263D01*
X40619764Y-35255367D01*
X40577735Y-35393915D01*
X40563544Y-35538000D01*
X40567101Y-35574115D01*
X40567101Y-38510754D01*
X35879418Y-33823072D01*
X36001300Y-33823072D01*
X36125782Y-33810812D01*
X36245480Y-33774502D01*
X36355794Y-33715537D01*
X36452485Y-33636185D01*
X36511363Y-33564442D01*
X36584233Y-33542337D01*
X36711920Y-33474087D01*
X36823838Y-33382238D01*
X36846859Y-33354187D01*
X39633047Y-30568000D01*
X41333198Y-30568000D01*
X41372317Y-30764667D01*
X41457876Y-30971224D01*
X41582088Y-31157120D01*
X41740180Y-31315212D01*
X41926076Y-31439424D01*
X42132633Y-31524983D01*
X42351912Y-31568600D01*
X42575488Y-31568600D01*
X42794767Y-31524983D01*
X43001324Y-31439424D01*
X43187220Y-31315212D01*
X43345312Y-31157120D01*
X43469524Y-30971224D01*
X43555083Y-30764667D01*
X43598700Y-30545388D01*
X43598700Y-30321812D01*
X43555083Y-30102533D01*
X43469524Y-29895976D01*
X43345312Y-29710080D01*
X43187220Y-29551988D01*
X43001324Y-29427776D01*
X42794767Y-29342217D01*
X42575488Y-29298600D01*
X42370519Y-29298600D01*
X42273420Y-29218913D01*
X42145733Y-29150663D01*
X42007185Y-29108635D01*
X41899205Y-29098000D01*
X41863100Y-29094444D01*
X41826995Y-29098000D01*
X40148200Y-29098000D01*
X40148200Y-25604438D01*
X40162682Y-25603012D01*
X40282380Y-25566702D01*
X40392694Y-25507737D01*
X40489385Y-25428385D01*
X40568737Y-25331694D01*
X40627702Y-25221380D01*
X40664012Y-25101682D01*
X40676272Y-24977200D01*
X40676272Y-23977200D01*
X40664012Y-23852718D01*
X40627702Y-23733020D01*
X40568737Y-23622706D01*
X40489385Y-23526015D01*
X40429904Y-23477200D01*
X40489385Y-23428385D01*
X40568737Y-23331694D01*
X40627702Y-23221380D01*
X40664012Y-23101682D01*
X40676272Y-22977200D01*
X40673200Y-22762950D01*
X40514450Y-22604200D01*
X39540200Y-22604200D01*
X39540200Y-22624200D01*
X39286200Y-22624200D01*
X39286200Y-22604200D01*
X38311950Y-22604200D01*
X38153200Y-22762950D01*
X38150128Y-22977200D01*
X38162388Y-23101682D01*
X38198698Y-23221380D01*
X38257663Y-23331694D01*
X38337015Y-23428385D01*
X38396496Y-23477200D01*
X38337015Y-23526015D01*
X38257663Y-23622706D01*
X38198698Y-23733020D01*
X38162388Y-23852718D01*
X38150128Y-23977200D01*
X38150128Y-24977200D01*
X38162388Y-25101682D01*
X38198698Y-25221380D01*
X38257663Y-25331694D01*
X38337015Y-25428385D01*
X38433706Y-25507737D01*
X38544020Y-25566702D01*
X38663718Y-25603012D01*
X38678201Y-25604438D01*
X38678200Y-29443953D01*
X36588308Y-31533846D01*
X36590802Y-31529180D01*
X36627112Y-31409482D01*
X36639372Y-31285000D01*
X36639372Y-30635000D01*
X36627112Y-30510518D01*
X36590802Y-30390820D01*
X36531837Y-30280506D01*
X36452485Y-30183815D01*
X36355794Y-30104463D01*
X36245480Y-30045498D01*
X36125782Y-30009188D01*
X36001300Y-29996928D01*
X35361200Y-29996928D01*
X35361200Y-29013846D01*
X37880493Y-26494554D01*
X37908538Y-26471538D01*
X38000387Y-26359620D01*
X38068637Y-26231933D01*
X38110665Y-26093385D01*
X38121300Y-25985405D01*
X38124856Y-25949300D01*
X38121300Y-25913195D01*
X38121300Y-23707305D01*
X38124856Y-23671200D01*
X38110665Y-23527115D01*
X38068637Y-23388567D01*
X38038238Y-23331694D01*
X38000387Y-23260880D01*
X37908537Y-23148962D01*
X37880492Y-23125946D01*
X37751759Y-22997213D01*
X37728738Y-22969162D01*
X37690733Y-22937972D01*
X37697312Y-22916282D01*
X37709572Y-22791800D01*
X37706500Y-22577550D01*
X37661622Y-22532672D01*
X52660686Y-22532672D01*
X52675591Y-22798586D01*
X52903966Y-22994529D01*
X53166180Y-23142153D01*
X53452156Y-23235786D01*
X53750903Y-23271828D01*
X54050941Y-23248894D01*
X54214144Y-23210836D01*
X54359704Y-22987473D01*
X53738015Y-21910676D01*
X52660686Y-22532672D01*
X37661622Y-22532672D01*
X37547750Y-22418800D01*
X36573500Y-22418800D01*
X36573500Y-22438800D01*
X36319500Y-22438800D01*
X36319500Y-22418800D01*
X35345250Y-22418800D01*
X35186500Y-22577550D01*
X35183936Y-22756400D01*
X32828594Y-22756400D01*
X32792499Y-22752845D01*
X32756404Y-22756400D01*
X32756395Y-22756400D01*
X32648415Y-22767035D01*
X32509867Y-22809063D01*
X32382180Y-22877313D01*
X32270262Y-22969162D01*
X32247246Y-22997207D01*
X29500420Y-25744034D01*
X29492436Y-25721877D01*
X29430456Y-25605920D01*
X29190365Y-25538940D01*
X28404405Y-26324900D01*
X28418548Y-26339043D01*
X28238943Y-26518648D01*
X28224800Y-26504505D01*
X28210658Y-26518648D01*
X28031053Y-26339043D01*
X28045195Y-26324900D01*
X27259235Y-25538940D01*
X27019144Y-25605920D01*
X26902044Y-25854948D01*
X26835777Y-26122035D01*
X26822890Y-26396917D01*
X26863878Y-26669033D01*
X26957164Y-26927923D01*
X27019144Y-27043880D01*
X27259233Y-27110859D01*
X27142823Y-27227269D01*
X27199554Y-27284000D01*
X23988868Y-30494686D01*
X23960823Y-30517702D01*
X23868974Y-30629620D01*
X23800724Y-30757307D01*
X23758695Y-30895855D01*
X23744504Y-31039940D01*
X23344104Y-31039940D01*
X23333393Y-25359335D01*
X27438840Y-25359335D01*
X28224800Y-26145295D01*
X29010760Y-25359335D01*
X28943780Y-25119244D01*
X28694752Y-25002144D01*
X28427665Y-24935877D01*
X28152783Y-24922990D01*
X27880667Y-24963978D01*
X27621777Y-25057264D01*
X27505820Y-25119244D01*
X27438840Y-25359335D01*
X23333393Y-25359335D01*
X23322529Y-19598313D01*
X24858253Y-19594278D01*
X24725951Y-19620594D01*
X24414751Y-19749498D01*
X24134679Y-19936636D01*
X23896496Y-20174819D01*
X23709358Y-20454891D01*
X23580454Y-20766091D01*
X23514740Y-21096460D01*
X23514740Y-21433300D01*
X23580454Y-21763669D01*
X23709358Y-22074869D01*
X23896496Y-22354941D01*
X24134679Y-22593124D01*
X24414751Y-22780262D01*
X24725951Y-22909166D01*
X25056320Y-22974880D01*
X25393160Y-22974880D01*
X25723529Y-22909166D01*
X26034729Y-22780262D01*
X26314801Y-22593124D01*
X26552984Y-22354941D01*
X26740122Y-22074869D01*
X26869026Y-21763669D01*
X26934740Y-21433300D01*
X26934740Y-21096460D01*
X26883748Y-20840100D01*
X27350428Y-20840100D01*
X27362688Y-20964582D01*
X27398998Y-21084280D01*
X27457963Y-21194594D01*
X27537315Y-21291285D01*
X27634006Y-21370637D01*
X27744320Y-21429602D01*
X27778927Y-21440100D01*
X27744320Y-21450598D01*
X27634006Y-21509563D01*
X27537315Y-21588915D01*
X27457963Y-21685606D01*
X27398998Y-21795920D01*
X27362688Y-21915618D01*
X27350428Y-22040100D01*
X27350428Y-22740100D01*
X27362688Y-22864582D01*
X27398998Y-22984280D01*
X27457963Y-23094594D01*
X27537315Y-23191285D01*
X27634006Y-23270637D01*
X27744320Y-23329602D01*
X27864018Y-23365912D01*
X27988500Y-23378172D01*
X29288500Y-23378172D01*
X29412982Y-23365912D01*
X29532680Y-23329602D01*
X29642994Y-23270637D01*
X29739685Y-23191285D01*
X29784806Y-23136305D01*
X29832876Y-23168424D01*
X30039433Y-23253983D01*
X30258712Y-23297600D01*
X30482288Y-23297600D01*
X30701567Y-23253983D01*
X30908124Y-23168424D01*
X31094020Y-23044212D01*
X31252112Y-22886120D01*
X31376324Y-22700224D01*
X31461883Y-22493667D01*
X31505500Y-22274388D01*
X31505500Y-22050812D01*
X31461883Y-21831533D01*
X31445425Y-21791800D01*
X35183428Y-21791800D01*
X35186500Y-22006050D01*
X35345250Y-22164800D01*
X36319500Y-22164800D01*
X36319500Y-21315550D01*
X36573500Y-21315550D01*
X36573500Y-22164800D01*
X37547750Y-22164800D01*
X37706500Y-22006050D01*
X37706913Y-21977200D01*
X38150128Y-21977200D01*
X38153200Y-22191450D01*
X38311950Y-22350200D01*
X39286200Y-22350200D01*
X39286200Y-21500950D01*
X39540200Y-21500950D01*
X39540200Y-22350200D01*
X40514450Y-22350200D01*
X40673200Y-22191450D01*
X40676272Y-21977200D01*
X40664012Y-21852718D01*
X40627702Y-21733020D01*
X40568737Y-21622706D01*
X40489385Y-21526015D01*
X40392694Y-21446663D01*
X40282380Y-21387698D01*
X40162682Y-21351388D01*
X40038200Y-21339128D01*
X39698950Y-21342200D01*
X39540200Y-21500950D01*
X39286200Y-21500950D01*
X39127450Y-21342200D01*
X38788200Y-21339128D01*
X38663718Y-21351388D01*
X38544020Y-21387698D01*
X38433706Y-21446663D01*
X38337015Y-21526015D01*
X38257663Y-21622706D01*
X38198698Y-21733020D01*
X38162388Y-21852718D01*
X38150128Y-21977200D01*
X37706913Y-21977200D01*
X37709572Y-21791800D01*
X37697312Y-21667318D01*
X37661002Y-21547620D01*
X37602037Y-21437306D01*
X37522685Y-21340615D01*
X37495174Y-21318037D01*
X44247500Y-21318037D01*
X44247500Y-21531763D01*
X44289196Y-21741383D01*
X44370985Y-21938840D01*
X44489725Y-22116547D01*
X44640853Y-22267675D01*
X44818560Y-22386415D01*
X45016017Y-22468204D01*
X45225637Y-22509900D01*
X45439363Y-22509900D01*
X45648983Y-22468204D01*
X45846440Y-22386415D01*
X46024147Y-22267675D01*
X46175275Y-22116547D01*
X46294015Y-21938840D01*
X46375804Y-21741383D01*
X46417500Y-21531763D01*
X46417500Y-21318037D01*
X47247500Y-21318037D01*
X47247500Y-21531763D01*
X47289196Y-21741383D01*
X47370985Y-21938840D01*
X47489725Y-22116547D01*
X47640853Y-22267675D01*
X47818560Y-22386415D01*
X48016017Y-22468204D01*
X48225637Y-22509900D01*
X48439363Y-22509900D01*
X48648983Y-22468204D01*
X48846440Y-22386415D01*
X49024147Y-22267675D01*
X49175275Y-22116547D01*
X49294015Y-21938840D01*
X49322079Y-21871087D01*
X52255346Y-21871087D01*
X52310850Y-22166837D01*
X52533686Y-22312702D01*
X53449986Y-21783676D01*
X53957985Y-21783676D01*
X54579674Y-22860473D01*
X54845892Y-22846096D01*
X54960453Y-22723787D01*
X55130333Y-22475414D01*
X55248493Y-22198670D01*
X55310393Y-21904191D01*
X55313654Y-21603295D01*
X55258150Y-21307545D01*
X55218942Y-21281880D01*
X56288360Y-21281880D01*
X56288360Y-21618720D01*
X56354074Y-21949089D01*
X56482978Y-22260289D01*
X56670116Y-22540361D01*
X56908299Y-22778544D01*
X57188371Y-22965682D01*
X57499571Y-23094586D01*
X57829940Y-23160300D01*
X58166780Y-23160300D01*
X58497149Y-23094586D01*
X58808349Y-22965682D01*
X59088421Y-22778544D01*
X59326604Y-22540361D01*
X59513742Y-22260289D01*
X59642646Y-21949089D01*
X59708360Y-21618720D01*
X59708360Y-21281880D01*
X59642646Y-20951511D01*
X59513742Y-20640311D01*
X59326604Y-20360239D01*
X59088421Y-20122056D01*
X58808349Y-19934918D01*
X58497149Y-19806014D01*
X58166780Y-19740300D01*
X57829940Y-19740300D01*
X57499571Y-19806014D01*
X57188371Y-19934918D01*
X56908299Y-20122056D01*
X56670116Y-20360239D01*
X56482978Y-20640311D01*
X56354074Y-20951511D01*
X56288360Y-21281880D01*
X55218942Y-21281880D01*
X55035314Y-21161680D01*
X53957985Y-21783676D01*
X53449986Y-21783676D01*
X53611015Y-21690706D01*
X52989326Y-20613909D01*
X52723108Y-20628286D01*
X52608547Y-20750595D01*
X52438667Y-20998968D01*
X52320507Y-21275712D01*
X52258607Y-21570191D01*
X52255346Y-21871087D01*
X49322079Y-21871087D01*
X49375804Y-21741383D01*
X49417500Y-21531763D01*
X49417500Y-21318037D01*
X49375804Y-21108417D01*
X49294015Y-20910960D01*
X49175275Y-20733253D01*
X49024147Y-20582125D01*
X48881647Y-20486909D01*
X53209296Y-20486909D01*
X53830985Y-21563706D01*
X54908314Y-20941710D01*
X54893409Y-20675796D01*
X54665034Y-20479853D01*
X54402820Y-20332229D01*
X54116844Y-20238596D01*
X53818097Y-20202554D01*
X53518059Y-20225488D01*
X53354856Y-20263546D01*
X53209296Y-20486909D01*
X48881647Y-20486909D01*
X48846440Y-20463385D01*
X48648983Y-20381596D01*
X48439363Y-20339900D01*
X48225637Y-20339900D01*
X48016017Y-20381596D01*
X47818560Y-20463385D01*
X47640853Y-20582125D01*
X47489725Y-20733253D01*
X47370985Y-20910960D01*
X47289196Y-21108417D01*
X47247500Y-21318037D01*
X46417500Y-21318037D01*
X46375804Y-21108417D01*
X46294015Y-20910960D01*
X46175275Y-20733253D01*
X46024147Y-20582125D01*
X45846440Y-20463385D01*
X45648983Y-20381596D01*
X45439363Y-20339900D01*
X45225637Y-20339900D01*
X45016017Y-20381596D01*
X44818560Y-20463385D01*
X44640853Y-20582125D01*
X44489725Y-20733253D01*
X44370985Y-20910960D01*
X44289196Y-21108417D01*
X44247500Y-21318037D01*
X37495174Y-21318037D01*
X37425994Y-21261263D01*
X37315680Y-21202298D01*
X37195982Y-21165988D01*
X37071500Y-21153728D01*
X36732250Y-21156800D01*
X36573500Y-21315550D01*
X36319500Y-21315550D01*
X36160750Y-21156800D01*
X35821500Y-21153728D01*
X35697018Y-21165988D01*
X35577320Y-21202298D01*
X35467006Y-21261263D01*
X35370315Y-21340615D01*
X35290963Y-21437306D01*
X35231998Y-21547620D01*
X35195688Y-21667318D01*
X35183428Y-21791800D01*
X31445425Y-21791800D01*
X31376324Y-21624976D01*
X31252112Y-21439080D01*
X31094020Y-21280988D01*
X30908124Y-21156776D01*
X30701567Y-21071217D01*
X30482288Y-21027600D01*
X30258712Y-21027600D01*
X30039433Y-21071217D01*
X29841064Y-21153384D01*
X29878002Y-21084280D01*
X29914312Y-20964582D01*
X29926572Y-20840100D01*
X29923500Y-20775850D01*
X29764750Y-20617100D01*
X28765500Y-20617100D01*
X28765500Y-20637100D01*
X28511500Y-20637100D01*
X28511500Y-20617100D01*
X27512250Y-20617100D01*
X27353500Y-20775850D01*
X27350428Y-20840100D01*
X26883748Y-20840100D01*
X26869026Y-20766091D01*
X26740122Y-20454891D01*
X26552984Y-20174819D01*
X26314801Y-19936636D01*
X26034729Y-19749498D01*
X25723529Y-19620594D01*
X25581671Y-19592377D01*
X27676456Y-19586873D01*
X27634006Y-19609563D01*
X27537315Y-19688915D01*
X27457963Y-19785606D01*
X27398998Y-19895920D01*
X27362688Y-20015618D01*
X27350428Y-20140100D01*
X27353500Y-20204350D01*
X27512250Y-20363100D01*
X28511500Y-20363100D01*
X28511500Y-20343100D01*
X28765500Y-20343100D01*
X28765500Y-20363100D01*
X29764750Y-20363100D01*
X29923500Y-20204350D01*
X29926572Y-20140100D01*
X29914312Y-20015618D01*
X29878002Y-19895920D01*
X29819037Y-19785606D01*
X29739685Y-19688915D01*
X29642994Y-19609563D01*
X29591132Y-19581842D01*
X59804001Y-19502455D01*
X59649375Y-85415895D01*
G37*
G04 #@! TD.AperFunction*
D31*
X51804600Y-86614000D02*
X51824600Y-86614000D01*
X51824600Y-86868000D01*
X51804600Y-86868000D01*
X51804600Y-86888000D01*
X51550600Y-86888000D01*
X51550600Y-86868000D01*
X51530600Y-86868000D01*
X51530600Y-86614000D01*
X51550600Y-86614000D01*
X51550600Y-86594000D01*
X51804600Y-86594000D01*
X51804600Y-86614000D01*
G04 #@! TA.AperFunction,Conductor*
D32*
G36*
X51804600Y-86614000D02*
G01*
X51824600Y-86614000D01*
X51824600Y-86868000D01*
X51804600Y-86868000D01*
X51804600Y-86888000D01*
X51550600Y-86888000D01*
X51550600Y-86868000D01*
X51530600Y-86868000D01*
X51530600Y-86614000D01*
X51550600Y-86614000D01*
X51550600Y-86594000D01*
X51804600Y-86594000D01*
X51804600Y-86614000D01*
G37*
G04 #@! TD.AperFunction*
D31*
X54711928Y-80776200D02*
X54724188Y-80900682D01*
X54760498Y-81020380D01*
X54819463Y-81130694D01*
X54898815Y-81227385D01*
X54995506Y-81306737D01*
X55105820Y-81365702D01*
X55225518Y-81402012D01*
X55350000Y-81414272D01*
X55851381Y-81414272D01*
X53888272Y-83377382D01*
X53822638Y-83249574D01*
X53678383Y-83067777D01*
X53501433Y-82917615D01*
X53298587Y-82804860D01*
X53137344Y-82747197D01*
X52954600Y-82872639D01*
X52954600Y-83864000D01*
X52974600Y-83864000D01*
X52974600Y-84118000D01*
X52954600Y-84118000D01*
X52954600Y-84138000D01*
X52700600Y-84138000D01*
X52700600Y-84118000D01*
X51802796Y-84118000D01*
X51707484Y-84243863D01*
X51679695Y-84246600D01*
X51571715Y-84257235D01*
X51433167Y-84299263D01*
X51305480Y-84367513D01*
X51193562Y-84459362D01*
X51170546Y-84487407D01*
X49693818Y-85964136D01*
X49532875Y-85723268D01*
X49374027Y-85564420D01*
X51142877Y-83795569D01*
X51151705Y-83794700D01*
X51259685Y-83784065D01*
X51398233Y-83742037D01*
X51525920Y-83673787D01*
X51637838Y-83581938D01*
X51660859Y-83553887D01*
X51713689Y-83501057D01*
X51662841Y-83679184D01*
X51802796Y-83864000D01*
X52700600Y-83864000D01*
X52700600Y-82872639D01*
X52517856Y-82747197D01*
X52439543Y-82775203D01*
X54553547Y-80661200D01*
X54711928Y-80661200D01*
X54711928Y-80776200D01*
G04 #@! TA.AperFunction,Conductor*
D32*
G36*
X54711928Y-80776200D02*
G01*
X54724188Y-80900682D01*
X54760498Y-81020380D01*
X54819463Y-81130694D01*
X54898815Y-81227385D01*
X54995506Y-81306737D01*
X55105820Y-81365702D01*
X55225518Y-81402012D01*
X55350000Y-81414272D01*
X55851381Y-81414272D01*
X53888272Y-83377382D01*
X53822638Y-83249574D01*
X53678383Y-83067777D01*
X53501433Y-82917615D01*
X53298587Y-82804860D01*
X53137344Y-82747197D01*
X52954600Y-82872639D01*
X52954600Y-83864000D01*
X52974600Y-83864000D01*
X52974600Y-84118000D01*
X52954600Y-84118000D01*
X52954600Y-84138000D01*
X52700600Y-84138000D01*
X52700600Y-84118000D01*
X51802796Y-84118000D01*
X51707484Y-84243863D01*
X51679695Y-84246600D01*
X51571715Y-84257235D01*
X51433167Y-84299263D01*
X51305480Y-84367513D01*
X51193562Y-84459362D01*
X51170546Y-84487407D01*
X49693818Y-85964136D01*
X49532875Y-85723268D01*
X49374027Y-85564420D01*
X51142877Y-83795569D01*
X51151705Y-83794700D01*
X51259685Y-83784065D01*
X51398233Y-83742037D01*
X51525920Y-83673787D01*
X51637838Y-83581938D01*
X51660859Y-83553887D01*
X51713689Y-83501057D01*
X51662841Y-83679184D01*
X51802796Y-83864000D01*
X52700600Y-83864000D01*
X52700600Y-82872639D01*
X52517856Y-82747197D01*
X52439543Y-82775203D01*
X54553547Y-80661200D01*
X54711928Y-80661200D01*
X54711928Y-80776200D01*
G37*
G04 #@! TD.AperFunction*
D31*
X25231958Y-77482884D02*
X25348871Y-77599797D01*
X25371892Y-77627848D01*
X25483810Y-77719697D01*
X25596068Y-77779700D01*
X25611497Y-77787947D01*
X25750045Y-77829975D01*
X25894130Y-77844166D01*
X25930235Y-77840610D01*
X28492380Y-77840610D01*
X28494900Y-78118950D01*
X28653650Y-78277700D01*
X29502900Y-78277700D01*
X29502900Y-78257700D01*
X29756900Y-78257700D01*
X29756900Y-78277700D01*
X29776900Y-78277700D01*
X29776900Y-78531700D01*
X29756900Y-78531700D01*
X29756900Y-79505950D01*
X29915650Y-79664700D01*
X30129900Y-79667772D01*
X30254382Y-79655512D01*
X30374080Y-79619202D01*
X30484394Y-79560237D01*
X30581085Y-79480885D01*
X30629900Y-79421404D01*
X30678715Y-79480885D01*
X30775406Y-79560237D01*
X30885720Y-79619202D01*
X31005418Y-79655512D01*
X31129900Y-79667772D01*
X32129900Y-79667772D01*
X32254382Y-79655512D01*
X32374080Y-79619202D01*
X32484394Y-79560237D01*
X32581085Y-79480885D01*
X32660437Y-79384194D01*
X32719402Y-79273880D01*
X32755712Y-79154182D01*
X32767972Y-79029700D01*
X32767972Y-77844819D01*
X34126846Y-79203693D01*
X34149862Y-79231738D01*
X34261780Y-79323587D01*
X34389467Y-79391837D01*
X34485986Y-79421116D01*
X34528014Y-79433865D01*
X34672100Y-79448056D01*
X34708205Y-79444500D01*
X35387999Y-79444500D01*
X35391888Y-79483982D01*
X35428198Y-79603680D01*
X35487163Y-79713994D01*
X35566515Y-79810685D01*
X35663206Y-79890037D01*
X35773520Y-79949002D01*
X35893218Y-79985312D01*
X36017700Y-79997572D01*
X36717700Y-79997572D01*
X36842182Y-79985312D01*
X36961880Y-79949002D01*
X37072194Y-79890037D01*
X37168885Y-79810685D01*
X37248237Y-79713994D01*
X37307202Y-79603680D01*
X37317700Y-79569073D01*
X37328198Y-79603680D01*
X37387163Y-79713994D01*
X37466515Y-79810685D01*
X37563206Y-79890037D01*
X37673520Y-79949002D01*
X37793218Y-79985312D01*
X37917700Y-79997572D01*
X37981950Y-79994500D01*
X38140700Y-79835750D01*
X38140700Y-78836500D01*
X38120700Y-78836500D01*
X38120700Y-78582500D01*
X38140700Y-78582500D01*
X38140700Y-78562500D01*
X38182632Y-78562500D01*
X38179145Y-78597901D01*
X38182701Y-78634006D01*
X38193336Y-78741986D01*
X38235365Y-78880534D01*
X38303615Y-79008221D01*
X38394700Y-79119208D01*
X38394700Y-79835750D01*
X38553450Y-79994500D01*
X38617700Y-79997572D01*
X38742182Y-79985312D01*
X38861880Y-79949002D01*
X38972194Y-79890037D01*
X39068885Y-79810685D01*
X39078871Y-79798517D01*
X44844773Y-85564420D01*
X44685925Y-85723268D01*
X44569400Y-85897660D01*
X44452875Y-85723268D01*
X44246032Y-85516425D01*
X44002811Y-85353910D01*
X43732558Y-85241968D01*
X43445660Y-85184900D01*
X43153140Y-85184900D01*
X42866242Y-85241968D01*
X42595989Y-85353910D01*
X42352768Y-85516425D01*
X42145925Y-85723268D01*
X42029400Y-85897660D01*
X41912875Y-85723268D01*
X41706032Y-85516425D01*
X41462811Y-85353910D01*
X41192558Y-85241968D01*
X40905660Y-85184900D01*
X40613140Y-85184900D01*
X40363503Y-85234556D01*
X39425158Y-84296212D01*
X39402138Y-84268162D01*
X39290220Y-84176313D01*
X39162533Y-84108063D01*
X39023985Y-84066035D01*
X38916005Y-84055400D01*
X38879900Y-84051844D01*
X38843795Y-84055400D01*
X31729447Y-84055400D01*
X26703747Y-79029700D01*
X28491828Y-79029700D01*
X28504088Y-79154182D01*
X28540398Y-79273880D01*
X28599363Y-79384194D01*
X28678715Y-79480885D01*
X28775406Y-79560237D01*
X28885720Y-79619202D01*
X29005418Y-79655512D01*
X29129900Y-79667772D01*
X29344150Y-79664700D01*
X29502900Y-79505950D01*
X29502900Y-78531700D01*
X28653650Y-78531700D01*
X28494900Y-78690450D01*
X28491828Y-79029700D01*
X26703747Y-79029700D01*
X25218060Y-77544014D01*
X25218060Y-77471478D01*
X25231958Y-77482884D01*
G04 #@! TA.AperFunction,Conductor*
D32*
G36*
X25231958Y-77482884D02*
G01*
X25348871Y-77599797D01*
X25371892Y-77627848D01*
X25483810Y-77719697D01*
X25596068Y-77779700D01*
X25611497Y-77787947D01*
X25750045Y-77829975D01*
X25894130Y-77844166D01*
X25930235Y-77840610D01*
X28492380Y-77840610D01*
X28494900Y-78118950D01*
X28653650Y-78277700D01*
X29502900Y-78277700D01*
X29502900Y-78257700D01*
X29756900Y-78257700D01*
X29756900Y-78277700D01*
X29776900Y-78277700D01*
X29776900Y-78531700D01*
X29756900Y-78531700D01*
X29756900Y-79505950D01*
X29915650Y-79664700D01*
X30129900Y-79667772D01*
X30254382Y-79655512D01*
X30374080Y-79619202D01*
X30484394Y-79560237D01*
X30581085Y-79480885D01*
X30629900Y-79421404D01*
X30678715Y-79480885D01*
X30775406Y-79560237D01*
X30885720Y-79619202D01*
X31005418Y-79655512D01*
X31129900Y-79667772D01*
X32129900Y-79667772D01*
X32254382Y-79655512D01*
X32374080Y-79619202D01*
X32484394Y-79560237D01*
X32581085Y-79480885D01*
X32660437Y-79384194D01*
X32719402Y-79273880D01*
X32755712Y-79154182D01*
X32767972Y-79029700D01*
X32767972Y-77844819D01*
X34126846Y-79203693D01*
X34149862Y-79231738D01*
X34261780Y-79323587D01*
X34389467Y-79391837D01*
X34485986Y-79421116D01*
X34528014Y-79433865D01*
X34672100Y-79448056D01*
X34708205Y-79444500D01*
X35387999Y-79444500D01*
X35391888Y-79483982D01*
X35428198Y-79603680D01*
X35487163Y-79713994D01*
X35566515Y-79810685D01*
X35663206Y-79890037D01*
X35773520Y-79949002D01*
X35893218Y-79985312D01*
X36017700Y-79997572D01*
X36717700Y-79997572D01*
X36842182Y-79985312D01*
X36961880Y-79949002D01*
X37072194Y-79890037D01*
X37168885Y-79810685D01*
X37248237Y-79713994D01*
X37307202Y-79603680D01*
X37317700Y-79569073D01*
X37328198Y-79603680D01*
X37387163Y-79713994D01*
X37466515Y-79810685D01*
X37563206Y-79890037D01*
X37673520Y-79949002D01*
X37793218Y-79985312D01*
X37917700Y-79997572D01*
X37981950Y-79994500D01*
X38140700Y-79835750D01*
X38140700Y-78836500D01*
X38120700Y-78836500D01*
X38120700Y-78582500D01*
X38140700Y-78582500D01*
X38140700Y-78562500D01*
X38182632Y-78562500D01*
X38179145Y-78597901D01*
X38182701Y-78634006D01*
X38193336Y-78741986D01*
X38235365Y-78880534D01*
X38303615Y-79008221D01*
X38394700Y-79119208D01*
X38394700Y-79835750D01*
X38553450Y-79994500D01*
X38617700Y-79997572D01*
X38742182Y-79985312D01*
X38861880Y-79949002D01*
X38972194Y-79890037D01*
X39068885Y-79810685D01*
X39078871Y-79798517D01*
X44844773Y-85564420D01*
X44685925Y-85723268D01*
X44569400Y-85897660D01*
X44452875Y-85723268D01*
X44246032Y-85516425D01*
X44002811Y-85353910D01*
X43732558Y-85241968D01*
X43445660Y-85184900D01*
X43153140Y-85184900D01*
X42866242Y-85241968D01*
X42595989Y-85353910D01*
X42352768Y-85516425D01*
X42145925Y-85723268D01*
X42029400Y-85897660D01*
X41912875Y-85723268D01*
X41706032Y-85516425D01*
X41462811Y-85353910D01*
X41192558Y-85241968D01*
X40905660Y-85184900D01*
X40613140Y-85184900D01*
X40363503Y-85234556D01*
X39425158Y-84296212D01*
X39402138Y-84268162D01*
X39290220Y-84176313D01*
X39162533Y-84108063D01*
X39023985Y-84066035D01*
X38916005Y-84055400D01*
X38879900Y-84051844D01*
X38843795Y-84055400D01*
X31729447Y-84055400D01*
X26703747Y-79029700D01*
X28491828Y-79029700D01*
X28504088Y-79154182D01*
X28540398Y-79273880D01*
X28599363Y-79384194D01*
X28678715Y-79480885D01*
X28775406Y-79560237D01*
X28885720Y-79619202D01*
X29005418Y-79655512D01*
X29129900Y-79667772D01*
X29344150Y-79664700D01*
X29502900Y-79505950D01*
X29502900Y-78531700D01*
X28653650Y-78531700D01*
X28494900Y-78690450D01*
X28491828Y-79029700D01*
X26703747Y-79029700D01*
X25218060Y-77544014D01*
X25218060Y-77471478D01*
X25231958Y-77482884D01*
G37*
G04 #@! TD.AperFunction*
D31*
X41920000Y-72075467D02*
X41920001Y-73699685D01*
X41916444Y-73735800D01*
X41930635Y-73879885D01*
X41966468Y-73998008D01*
X41972664Y-74018433D01*
X42040914Y-74146120D01*
X42132763Y-74258038D01*
X42160808Y-74281054D01*
X43603746Y-75723993D01*
X43626762Y-75752038D01*
X43738680Y-75843887D01*
X43866367Y-75912137D01*
X43927667Y-75930732D01*
X44004914Y-75954165D01*
X44148999Y-75968356D01*
X44185104Y-75964800D01*
X46954200Y-75964800D01*
X46954201Y-77645405D01*
X46950644Y-77681520D01*
X46964835Y-77825605D01*
X46998026Y-77935018D01*
X47006864Y-77964153D01*
X47075114Y-78091840D01*
X47166963Y-78203758D01*
X47195008Y-78226774D01*
X48962529Y-79994296D01*
X48851848Y-79972280D01*
X48628272Y-79972280D01*
X48408993Y-80015897D01*
X48202436Y-80101456D01*
X48016540Y-80225668D01*
X47858448Y-80383760D01*
X47734236Y-80569656D01*
X47648677Y-80776213D01*
X47605060Y-80995492D01*
X47605060Y-81211816D01*
X47577334Y-81245600D01*
X47544656Y-81306737D01*
X47509084Y-81373287D01*
X47467055Y-81511835D01*
X47452864Y-81655920D01*
X47456421Y-81692035D01*
X47456420Y-83273958D01*
X47309808Y-83420570D01*
X47185596Y-83606466D01*
X47100037Y-83813023D01*
X47056420Y-84032302D01*
X47056420Y-84255878D01*
X47100037Y-84475157D01*
X47185596Y-84681714D01*
X47309808Y-84867610D01*
X47467900Y-85025702D01*
X47653796Y-85149914D01*
X47727317Y-85180368D01*
X47700575Y-85230398D01*
X47697064Y-85236967D01*
X47657928Y-85365978D01*
X47432768Y-85516425D01*
X47225925Y-85723268D01*
X47109400Y-85897660D01*
X46992875Y-85723268D01*
X46786032Y-85516425D01*
X46560872Y-85365978D01*
X46521737Y-85236966D01*
X46453487Y-85109280D01*
X46384653Y-85025406D01*
X46384650Y-85025403D01*
X46361637Y-84997362D01*
X46333598Y-84974351D01*
X45028943Y-83669696D01*
X45054224Y-83659224D01*
X45240120Y-83535012D01*
X45398212Y-83376920D01*
X45522424Y-83191024D01*
X45607983Y-82984467D01*
X45651600Y-82765188D01*
X45651600Y-82541612D01*
X45607983Y-82322333D01*
X45522424Y-82115776D01*
X45398212Y-81929880D01*
X45240120Y-81771788D01*
X45054224Y-81647576D01*
X44847667Y-81562017D01*
X44628388Y-81518400D01*
X44404812Y-81518400D01*
X44185533Y-81562017D01*
X43978976Y-81647576D01*
X43851740Y-81732593D01*
X41673189Y-79554043D01*
X41798412Y-79428820D01*
X41922624Y-79242924D01*
X41934185Y-79215013D01*
X43415292Y-79215013D01*
X43511056Y-79479414D01*
X43800671Y-79620304D01*
X44112208Y-79701984D01*
X44433695Y-79721318D01*
X44752775Y-79677561D01*
X45057188Y-79572395D01*
X45231144Y-79479414D01*
X45326908Y-79215013D01*
X44371100Y-78259205D01*
X43415292Y-79215013D01*
X41934185Y-79215013D01*
X42008183Y-79036367D01*
X42051800Y-78817088D01*
X42051800Y-78593512D01*
X42008183Y-78374233D01*
X41922624Y-78167676D01*
X41905599Y-78142195D01*
X42729382Y-78142195D01*
X42773139Y-78461275D01*
X42878305Y-78765688D01*
X42971286Y-78939644D01*
X43235687Y-79035408D01*
X44191495Y-78079600D01*
X44550705Y-78079600D01*
X45506513Y-79035408D01*
X45770914Y-78939644D01*
X45911804Y-78650029D01*
X45993484Y-78338492D01*
X46012818Y-78017005D01*
X45969061Y-77697925D01*
X45863895Y-77393512D01*
X45770914Y-77219556D01*
X45506513Y-77123792D01*
X44550705Y-78079600D01*
X44191495Y-78079600D01*
X43235687Y-77123792D01*
X42971286Y-77219556D01*
X42830396Y-77509171D01*
X42748716Y-77820708D01*
X42729382Y-78142195D01*
X41905599Y-78142195D01*
X41883200Y-78108674D01*
X41883200Y-76944187D01*
X43415292Y-76944187D01*
X44371100Y-77899995D01*
X45326908Y-76944187D01*
X45231144Y-76679786D01*
X44941529Y-76538896D01*
X44629992Y-76457216D01*
X44308505Y-76437882D01*
X43989425Y-76481639D01*
X43685012Y-76586805D01*
X43511056Y-76679786D01*
X43415292Y-76944187D01*
X41883200Y-76944187D01*
X41883200Y-73475594D01*
X41886755Y-73439499D01*
X41883200Y-73403404D01*
X41883200Y-73403395D01*
X41872565Y-73295415D01*
X41830537Y-73156867D01*
X41762287Y-73029180D01*
X41739148Y-73000985D01*
X41693453Y-72945306D01*
X41693450Y-72945303D01*
X41670437Y-72917262D01*
X41642397Y-72894250D01*
X41508502Y-72760355D01*
X41534612Y-72674282D01*
X41546872Y-72549800D01*
X41546872Y-71702339D01*
X41920000Y-72075467D01*
G04 #@! TA.AperFunction,Conductor*
D32*
G36*
X41920000Y-72075467D02*
G01*
X41920001Y-73699685D01*
X41916444Y-73735800D01*
X41930635Y-73879885D01*
X41966468Y-73998008D01*
X41972664Y-74018433D01*
X42040914Y-74146120D01*
X42132763Y-74258038D01*
X42160808Y-74281054D01*
X43603746Y-75723993D01*
X43626762Y-75752038D01*
X43738680Y-75843887D01*
X43866367Y-75912137D01*
X43927667Y-75930732D01*
X44004914Y-75954165D01*
X44148999Y-75968356D01*
X44185104Y-75964800D01*
X46954200Y-75964800D01*
X46954201Y-77645405D01*
X46950644Y-77681520D01*
X46964835Y-77825605D01*
X46998026Y-77935018D01*
X47006864Y-77964153D01*
X47075114Y-78091840D01*
X47166963Y-78203758D01*
X47195008Y-78226774D01*
X48962529Y-79994296D01*
X48851848Y-79972280D01*
X48628272Y-79972280D01*
X48408993Y-80015897D01*
X48202436Y-80101456D01*
X48016540Y-80225668D01*
X47858448Y-80383760D01*
X47734236Y-80569656D01*
X47648677Y-80776213D01*
X47605060Y-80995492D01*
X47605060Y-81211816D01*
X47577334Y-81245600D01*
X47544656Y-81306737D01*
X47509084Y-81373287D01*
X47467055Y-81511835D01*
X47452864Y-81655920D01*
X47456421Y-81692035D01*
X47456420Y-83273958D01*
X47309808Y-83420570D01*
X47185596Y-83606466D01*
X47100037Y-83813023D01*
X47056420Y-84032302D01*
X47056420Y-84255878D01*
X47100037Y-84475157D01*
X47185596Y-84681714D01*
X47309808Y-84867610D01*
X47467900Y-85025702D01*
X47653796Y-85149914D01*
X47727317Y-85180368D01*
X47700575Y-85230398D01*
X47697064Y-85236967D01*
X47657928Y-85365978D01*
X47432768Y-85516425D01*
X47225925Y-85723268D01*
X47109400Y-85897660D01*
X46992875Y-85723268D01*
X46786032Y-85516425D01*
X46560872Y-85365978D01*
X46521737Y-85236966D01*
X46453487Y-85109280D01*
X46384653Y-85025406D01*
X46384650Y-85025403D01*
X46361637Y-84997362D01*
X46333598Y-84974351D01*
X45028943Y-83669696D01*
X45054224Y-83659224D01*
X45240120Y-83535012D01*
X45398212Y-83376920D01*
X45522424Y-83191024D01*
X45607983Y-82984467D01*
X45651600Y-82765188D01*
X45651600Y-82541612D01*
X45607983Y-82322333D01*
X45522424Y-82115776D01*
X45398212Y-81929880D01*
X45240120Y-81771788D01*
X45054224Y-81647576D01*
X44847667Y-81562017D01*
X44628388Y-81518400D01*
X44404812Y-81518400D01*
X44185533Y-81562017D01*
X43978976Y-81647576D01*
X43851740Y-81732593D01*
X41673189Y-79554043D01*
X41798412Y-79428820D01*
X41922624Y-79242924D01*
X41934185Y-79215013D01*
X43415292Y-79215013D01*
X43511056Y-79479414D01*
X43800671Y-79620304D01*
X44112208Y-79701984D01*
X44433695Y-79721318D01*
X44752775Y-79677561D01*
X45057188Y-79572395D01*
X45231144Y-79479414D01*
X45326908Y-79215013D01*
X44371100Y-78259205D01*
X43415292Y-79215013D01*
X41934185Y-79215013D01*
X42008183Y-79036367D01*
X42051800Y-78817088D01*
X42051800Y-78593512D01*
X42008183Y-78374233D01*
X41922624Y-78167676D01*
X41905599Y-78142195D01*
X42729382Y-78142195D01*
X42773139Y-78461275D01*
X42878305Y-78765688D01*
X42971286Y-78939644D01*
X43235687Y-79035408D01*
X44191495Y-78079600D01*
X44550705Y-78079600D01*
X45506513Y-79035408D01*
X45770914Y-78939644D01*
X45911804Y-78650029D01*
X45993484Y-78338492D01*
X46012818Y-78017005D01*
X45969061Y-77697925D01*
X45863895Y-77393512D01*
X45770914Y-77219556D01*
X45506513Y-77123792D01*
X44550705Y-78079600D01*
X44191495Y-78079600D01*
X43235687Y-77123792D01*
X42971286Y-77219556D01*
X42830396Y-77509171D01*
X42748716Y-77820708D01*
X42729382Y-78142195D01*
X41905599Y-78142195D01*
X41883200Y-78108674D01*
X41883200Y-76944187D01*
X43415292Y-76944187D01*
X44371100Y-77899995D01*
X45326908Y-76944187D01*
X45231144Y-76679786D01*
X44941529Y-76538896D01*
X44629992Y-76457216D01*
X44308505Y-76437882D01*
X43989425Y-76481639D01*
X43685012Y-76586805D01*
X43511056Y-76679786D01*
X43415292Y-76944187D01*
X41883200Y-76944187D01*
X41883200Y-73475594D01*
X41886755Y-73439499D01*
X41883200Y-73403404D01*
X41883200Y-73403395D01*
X41872565Y-73295415D01*
X41830537Y-73156867D01*
X41762287Y-73029180D01*
X41739148Y-73000985D01*
X41693453Y-72945306D01*
X41693450Y-72945303D01*
X41670437Y-72917262D01*
X41642397Y-72894250D01*
X41508502Y-72760355D01*
X41534612Y-72674282D01*
X41546872Y-72549800D01*
X41546872Y-71702339D01*
X41920000Y-72075467D01*
G37*
G04 #@! TD.AperFunction*
D31*
X45926860Y-61238293D02*
X45949876Y-61266338D01*
X46061794Y-61358187D01*
X46189481Y-61426437D01*
X46328029Y-61468465D01*
X46436009Y-61479100D01*
X46436018Y-61479100D01*
X46472113Y-61482655D01*
X46508208Y-61479100D01*
X53918455Y-61479100D01*
X54022380Y-61634635D01*
X54216965Y-61829220D01*
X54445773Y-61982105D01*
X54523015Y-62014100D01*
X54445773Y-62046095D01*
X54216965Y-62198980D01*
X54022380Y-62393565D01*
X53869495Y-62622373D01*
X53764186Y-62876610D01*
X53710500Y-63146508D01*
X53710500Y-63421692D01*
X53764186Y-63691590D01*
X53869495Y-63945827D01*
X54022380Y-64174635D01*
X54216965Y-64369220D01*
X54445773Y-64522105D01*
X54517443Y-64551792D01*
X54504477Y-64556464D01*
X54388520Y-64618444D01*
X54321540Y-64858535D01*
X55107500Y-65644495D01*
X55893460Y-64858535D01*
X55826480Y-64618444D01*
X55690740Y-64554615D01*
X55769227Y-64522105D01*
X55998035Y-64369220D01*
X56192620Y-64174635D01*
X56345505Y-63945827D01*
X56450814Y-63691590D01*
X56504500Y-63421692D01*
X56504500Y-63146508D01*
X56468006Y-62963041D01*
X56615400Y-62815647D01*
X56615400Y-70874736D01*
X56346260Y-70821200D01*
X56053740Y-70821200D01*
X55766842Y-70878268D01*
X55496589Y-70990210D01*
X55253368Y-71152725D01*
X55046525Y-71359568D01*
X54884010Y-71602789D01*
X54772068Y-71873042D01*
X54715000Y-72159940D01*
X54715000Y-72452460D01*
X54772068Y-72739358D01*
X54884010Y-73009611D01*
X55046525Y-73252832D01*
X55253368Y-73459675D01*
X55427760Y-73576200D01*
X55253368Y-73692725D01*
X55046525Y-73899568D01*
X54884010Y-74142789D01*
X54772068Y-74413042D01*
X54715000Y-74699940D01*
X54715000Y-74992460D01*
X54772068Y-75279358D01*
X54884010Y-75549611D01*
X55046525Y-75792832D01*
X55253368Y-75999675D01*
X55435534Y-76121395D01*
X55318645Y-76191022D01*
X55102412Y-76385931D01*
X54928359Y-76619280D01*
X54803175Y-76882101D01*
X54758524Y-77029310D01*
X54879845Y-77259200D01*
X56073000Y-77259200D01*
X56073000Y-77239200D01*
X56327000Y-77239200D01*
X56327000Y-77259200D01*
X56347000Y-77259200D01*
X56347000Y-77513200D01*
X56327000Y-77513200D01*
X56327000Y-77533200D01*
X56073000Y-77533200D01*
X56073000Y-77513200D01*
X54879845Y-77513200D01*
X54758524Y-77743090D01*
X54803175Y-77890299D01*
X54928359Y-78153120D01*
X55102412Y-78386469D01*
X55186466Y-78462234D01*
X55105820Y-78486698D01*
X54995506Y-78545663D01*
X54898815Y-78625015D01*
X54819463Y-78721706D01*
X54760498Y-78832020D01*
X54724188Y-78951718D01*
X54711928Y-79076200D01*
X54711928Y-79191200D01*
X54285194Y-79191200D01*
X54249099Y-79187645D01*
X54213004Y-79191200D01*
X54212995Y-79191200D01*
X54105015Y-79201835D01*
X53966467Y-79243863D01*
X53838780Y-79312113D01*
X53726862Y-79403962D01*
X53703846Y-79432007D01*
X51574400Y-81561454D01*
X51574400Y-80867825D01*
X51577956Y-80831720D01*
X51563765Y-80687635D01*
X51521737Y-80549086D01*
X51453487Y-80421400D01*
X51384653Y-80337526D01*
X51384650Y-80337523D01*
X51361637Y-80309482D01*
X51333597Y-80286470D01*
X50757871Y-79710744D01*
X50933695Y-79721318D01*
X51252775Y-79677561D01*
X51557188Y-79572395D01*
X51731144Y-79479414D01*
X51826908Y-79215013D01*
X50871100Y-78259205D01*
X50856958Y-78273348D01*
X50677353Y-78093743D01*
X50691495Y-78079600D01*
X51050705Y-78079600D01*
X52006513Y-79035408D01*
X52270914Y-78939644D01*
X52411804Y-78650029D01*
X52493484Y-78338492D01*
X52512818Y-78017005D01*
X52469061Y-77697925D01*
X52363895Y-77393512D01*
X52270914Y-77219556D01*
X52006513Y-77123792D01*
X51050705Y-78079600D01*
X50691495Y-78079600D01*
X49735687Y-77123792D01*
X49471286Y-77219556D01*
X49330396Y-77509171D01*
X49248716Y-77820708D01*
X49229382Y-78142195D01*
X49235749Y-78188623D01*
X48424200Y-77377074D01*
X48424200Y-76944187D01*
X49915292Y-76944187D01*
X50871100Y-77899995D01*
X51826908Y-76944187D01*
X51731144Y-76679786D01*
X51441529Y-76538896D01*
X51129992Y-76457216D01*
X50808505Y-76437882D01*
X50489425Y-76481639D01*
X50185012Y-76586805D01*
X50011056Y-76679786D01*
X49915292Y-76944187D01*
X48424200Y-76944187D01*
X48424200Y-75546749D01*
X48435600Y-75547872D01*
X48649850Y-75544800D01*
X48808600Y-75386050D01*
X48808600Y-74411800D01*
X48788600Y-74411800D01*
X48788600Y-74157800D01*
X48808600Y-74157800D01*
X48808600Y-73183550D01*
X48756348Y-73131298D01*
X49215375Y-72672272D01*
X49510960Y-72672272D01*
X49422182Y-72805137D01*
X49331851Y-73023216D01*
X49221350Y-73024800D01*
X49062600Y-73183550D01*
X49062600Y-74157800D01*
X49082600Y-74157800D01*
X49082600Y-74411800D01*
X49062600Y-74411800D01*
X49062600Y-75386050D01*
X49221350Y-75544800D01*
X49435600Y-75547872D01*
X49560082Y-75535612D01*
X49679780Y-75499302D01*
X49790094Y-75440337D01*
X49886785Y-75360985D01*
X49966137Y-75264294D01*
X50025102Y-75153980D01*
X50061412Y-75034282D01*
X50064120Y-75006791D01*
X50096637Y-75028518D01*
X50394188Y-75151768D01*
X50710067Y-75214600D01*
X51032133Y-75214600D01*
X51348012Y-75151768D01*
X51645563Y-75028518D01*
X51913352Y-74849587D01*
X52141087Y-74621852D01*
X52320018Y-74354063D01*
X52443268Y-74056512D01*
X52506100Y-73740633D01*
X52506100Y-73418567D01*
X52443268Y-73102688D01*
X52320018Y-72805137D01*
X52141087Y-72537348D01*
X51913352Y-72309613D01*
X51645563Y-72130682D01*
X51348012Y-72007432D01*
X51032133Y-71944600D01*
X50710067Y-71944600D01*
X50394188Y-72007432D01*
X50287767Y-72051513D01*
X50289472Y-72034200D01*
X50289472Y-70734200D01*
X50277212Y-70609718D01*
X50240902Y-70490020D01*
X50181937Y-70379706D01*
X50117700Y-70301433D01*
X50117700Y-70187446D01*
X50354892Y-69950254D01*
X50382937Y-69927238D01*
X50474787Y-69815320D01*
X50543037Y-69687633D01*
X50585065Y-69549085D01*
X50588769Y-69511477D01*
X51001147Y-69099100D01*
X53918455Y-69099100D01*
X54022380Y-69254635D01*
X54216965Y-69449220D01*
X54445773Y-69602105D01*
X54700010Y-69707414D01*
X54969908Y-69761100D01*
X55245092Y-69761100D01*
X55514990Y-69707414D01*
X55769227Y-69602105D01*
X55998035Y-69449220D01*
X56192620Y-69254635D01*
X56345505Y-69025827D01*
X56450814Y-68771590D01*
X56504500Y-68501692D01*
X56504500Y-68226508D01*
X56450814Y-67956610D01*
X56345505Y-67702373D01*
X56192620Y-67473565D01*
X55998035Y-67278980D01*
X55769227Y-67126095D01*
X55697557Y-67096408D01*
X55710523Y-67091736D01*
X55826480Y-67029756D01*
X55893460Y-66789665D01*
X55107500Y-66003705D01*
X54321540Y-66789665D01*
X54388520Y-67029756D01*
X54524260Y-67093585D01*
X54445773Y-67126095D01*
X54216965Y-67278980D01*
X54022380Y-67473565D01*
X53918455Y-67629100D01*
X50732805Y-67629100D01*
X50696700Y-67625544D01*
X50552615Y-67639735D01*
X50414066Y-67681763D01*
X50375508Y-67702373D01*
X50286380Y-67750013D01*
X50174462Y-67841862D01*
X50151446Y-67869907D01*
X49860700Y-68160653D01*
X47596164Y-65896117D01*
X53705590Y-65896117D01*
X53746578Y-66168233D01*
X53839864Y-66427123D01*
X53901844Y-66543080D01*
X54141935Y-66610060D01*
X54927895Y-65824100D01*
X55287105Y-65824100D01*
X56073065Y-66610060D01*
X56313156Y-66543080D01*
X56430256Y-66294052D01*
X56496523Y-66026965D01*
X56509410Y-65752083D01*
X56468422Y-65479967D01*
X56375136Y-65221077D01*
X56313156Y-65105120D01*
X56073065Y-65038140D01*
X55287105Y-65824100D01*
X54927895Y-65824100D01*
X54141935Y-65038140D01*
X53901844Y-65105120D01*
X53784744Y-65354148D01*
X53718477Y-65621235D01*
X53705590Y-65896117D01*
X47596164Y-65896117D01*
X43707659Y-62007613D01*
X43684638Y-61979562D01*
X43572720Y-61887713D01*
X43489121Y-61843029D01*
X43497100Y-61835050D01*
X43484358Y-61737623D01*
X43484259Y-61737325D01*
X43487912Y-61725282D01*
X43500172Y-61600800D01*
X43500172Y-61370800D01*
X43487912Y-61246318D01*
X43483508Y-61231800D01*
X43487912Y-61217282D01*
X43500172Y-61092800D01*
X43500172Y-60862800D01*
X43487912Y-60738318D01*
X43484259Y-60726275D01*
X43484358Y-60725977D01*
X43488174Y-60696800D01*
X43664301Y-60696800D01*
X43700406Y-60700356D01*
X43736511Y-60696800D01*
X43844491Y-60686165D01*
X43983039Y-60644137D01*
X44110726Y-60575887D01*
X44222644Y-60484038D01*
X44245664Y-60455988D01*
X44619365Y-60082288D01*
X44770856Y-60082288D01*
X45926860Y-61238293D01*
G04 #@! TA.AperFunction,Conductor*
D32*
G36*
X45926860Y-61238293D02*
G01*
X45949876Y-61266338D01*
X46061794Y-61358187D01*
X46189481Y-61426437D01*
X46328029Y-61468465D01*
X46436009Y-61479100D01*
X46436018Y-61479100D01*
X46472113Y-61482655D01*
X46508208Y-61479100D01*
X53918455Y-61479100D01*
X54022380Y-61634635D01*
X54216965Y-61829220D01*
X54445773Y-61982105D01*
X54523015Y-62014100D01*
X54445773Y-62046095D01*
X54216965Y-62198980D01*
X54022380Y-62393565D01*
X53869495Y-62622373D01*
X53764186Y-62876610D01*
X53710500Y-63146508D01*
X53710500Y-63421692D01*
X53764186Y-63691590D01*
X53869495Y-63945827D01*
X54022380Y-64174635D01*
X54216965Y-64369220D01*
X54445773Y-64522105D01*
X54517443Y-64551792D01*
X54504477Y-64556464D01*
X54388520Y-64618444D01*
X54321540Y-64858535D01*
X55107500Y-65644495D01*
X55893460Y-64858535D01*
X55826480Y-64618444D01*
X55690740Y-64554615D01*
X55769227Y-64522105D01*
X55998035Y-64369220D01*
X56192620Y-64174635D01*
X56345505Y-63945827D01*
X56450814Y-63691590D01*
X56504500Y-63421692D01*
X56504500Y-63146508D01*
X56468006Y-62963041D01*
X56615400Y-62815647D01*
X56615400Y-70874736D01*
X56346260Y-70821200D01*
X56053740Y-70821200D01*
X55766842Y-70878268D01*
X55496589Y-70990210D01*
X55253368Y-71152725D01*
X55046525Y-71359568D01*
X54884010Y-71602789D01*
X54772068Y-71873042D01*
X54715000Y-72159940D01*
X54715000Y-72452460D01*
X54772068Y-72739358D01*
X54884010Y-73009611D01*
X55046525Y-73252832D01*
X55253368Y-73459675D01*
X55427760Y-73576200D01*
X55253368Y-73692725D01*
X55046525Y-73899568D01*
X54884010Y-74142789D01*
X54772068Y-74413042D01*
X54715000Y-74699940D01*
X54715000Y-74992460D01*
X54772068Y-75279358D01*
X54884010Y-75549611D01*
X55046525Y-75792832D01*
X55253368Y-75999675D01*
X55435534Y-76121395D01*
X55318645Y-76191022D01*
X55102412Y-76385931D01*
X54928359Y-76619280D01*
X54803175Y-76882101D01*
X54758524Y-77029310D01*
X54879845Y-77259200D01*
X56073000Y-77259200D01*
X56073000Y-77239200D01*
X56327000Y-77239200D01*
X56327000Y-77259200D01*
X56347000Y-77259200D01*
X56347000Y-77513200D01*
X56327000Y-77513200D01*
X56327000Y-77533200D01*
X56073000Y-77533200D01*
X56073000Y-77513200D01*
X54879845Y-77513200D01*
X54758524Y-77743090D01*
X54803175Y-77890299D01*
X54928359Y-78153120D01*
X55102412Y-78386469D01*
X55186466Y-78462234D01*
X55105820Y-78486698D01*
X54995506Y-78545663D01*
X54898815Y-78625015D01*
X54819463Y-78721706D01*
X54760498Y-78832020D01*
X54724188Y-78951718D01*
X54711928Y-79076200D01*
X54711928Y-79191200D01*
X54285194Y-79191200D01*
X54249099Y-79187645D01*
X54213004Y-79191200D01*
X54212995Y-79191200D01*
X54105015Y-79201835D01*
X53966467Y-79243863D01*
X53838780Y-79312113D01*
X53726862Y-79403962D01*
X53703846Y-79432007D01*
X51574400Y-81561454D01*
X51574400Y-80867825D01*
X51577956Y-80831720D01*
X51563765Y-80687635D01*
X51521737Y-80549086D01*
X51453487Y-80421400D01*
X51384653Y-80337526D01*
X51384650Y-80337523D01*
X51361637Y-80309482D01*
X51333597Y-80286470D01*
X50757871Y-79710744D01*
X50933695Y-79721318D01*
X51252775Y-79677561D01*
X51557188Y-79572395D01*
X51731144Y-79479414D01*
X51826908Y-79215013D01*
X50871100Y-78259205D01*
X50856958Y-78273348D01*
X50677353Y-78093743D01*
X50691495Y-78079600D01*
X51050705Y-78079600D01*
X52006513Y-79035408D01*
X52270914Y-78939644D01*
X52411804Y-78650029D01*
X52493484Y-78338492D01*
X52512818Y-78017005D01*
X52469061Y-77697925D01*
X52363895Y-77393512D01*
X52270914Y-77219556D01*
X52006513Y-77123792D01*
X51050705Y-78079600D01*
X50691495Y-78079600D01*
X49735687Y-77123792D01*
X49471286Y-77219556D01*
X49330396Y-77509171D01*
X49248716Y-77820708D01*
X49229382Y-78142195D01*
X49235749Y-78188623D01*
X48424200Y-77377074D01*
X48424200Y-76944187D01*
X49915292Y-76944187D01*
X50871100Y-77899995D01*
X51826908Y-76944187D01*
X51731144Y-76679786D01*
X51441529Y-76538896D01*
X51129992Y-76457216D01*
X50808505Y-76437882D01*
X50489425Y-76481639D01*
X50185012Y-76586805D01*
X50011056Y-76679786D01*
X49915292Y-76944187D01*
X48424200Y-76944187D01*
X48424200Y-75546749D01*
X48435600Y-75547872D01*
X48649850Y-75544800D01*
X48808600Y-75386050D01*
X48808600Y-74411800D01*
X48788600Y-74411800D01*
X48788600Y-74157800D01*
X48808600Y-74157800D01*
X48808600Y-73183550D01*
X48756348Y-73131298D01*
X49215375Y-72672272D01*
X49510960Y-72672272D01*
X49422182Y-72805137D01*
X49331851Y-73023216D01*
X49221350Y-73024800D01*
X49062600Y-73183550D01*
X49062600Y-74157800D01*
X49082600Y-74157800D01*
X49082600Y-74411800D01*
X49062600Y-74411800D01*
X49062600Y-75386050D01*
X49221350Y-75544800D01*
X49435600Y-75547872D01*
X49560082Y-75535612D01*
X49679780Y-75499302D01*
X49790094Y-75440337D01*
X49886785Y-75360985D01*
X49966137Y-75264294D01*
X50025102Y-75153980D01*
X50061412Y-75034282D01*
X50064120Y-75006791D01*
X50096637Y-75028518D01*
X50394188Y-75151768D01*
X50710067Y-75214600D01*
X51032133Y-75214600D01*
X51348012Y-75151768D01*
X51645563Y-75028518D01*
X51913352Y-74849587D01*
X52141087Y-74621852D01*
X52320018Y-74354063D01*
X52443268Y-74056512D01*
X52506100Y-73740633D01*
X52506100Y-73418567D01*
X52443268Y-73102688D01*
X52320018Y-72805137D01*
X52141087Y-72537348D01*
X51913352Y-72309613D01*
X51645563Y-72130682D01*
X51348012Y-72007432D01*
X51032133Y-71944600D01*
X50710067Y-71944600D01*
X50394188Y-72007432D01*
X50287767Y-72051513D01*
X50289472Y-72034200D01*
X50289472Y-70734200D01*
X50277212Y-70609718D01*
X50240902Y-70490020D01*
X50181937Y-70379706D01*
X50117700Y-70301433D01*
X50117700Y-70187446D01*
X50354892Y-69950254D01*
X50382937Y-69927238D01*
X50474787Y-69815320D01*
X50543037Y-69687633D01*
X50585065Y-69549085D01*
X50588769Y-69511477D01*
X51001147Y-69099100D01*
X53918455Y-69099100D01*
X54022380Y-69254635D01*
X54216965Y-69449220D01*
X54445773Y-69602105D01*
X54700010Y-69707414D01*
X54969908Y-69761100D01*
X55245092Y-69761100D01*
X55514990Y-69707414D01*
X55769227Y-69602105D01*
X55998035Y-69449220D01*
X56192620Y-69254635D01*
X56345505Y-69025827D01*
X56450814Y-68771590D01*
X56504500Y-68501692D01*
X56504500Y-68226508D01*
X56450814Y-67956610D01*
X56345505Y-67702373D01*
X56192620Y-67473565D01*
X55998035Y-67278980D01*
X55769227Y-67126095D01*
X55697557Y-67096408D01*
X55710523Y-67091736D01*
X55826480Y-67029756D01*
X55893460Y-66789665D01*
X55107500Y-66003705D01*
X54321540Y-66789665D01*
X54388520Y-67029756D01*
X54524260Y-67093585D01*
X54445773Y-67126095D01*
X54216965Y-67278980D01*
X54022380Y-67473565D01*
X53918455Y-67629100D01*
X50732805Y-67629100D01*
X50696700Y-67625544D01*
X50552615Y-67639735D01*
X50414066Y-67681763D01*
X50375508Y-67702373D01*
X50286380Y-67750013D01*
X50174462Y-67841862D01*
X50151446Y-67869907D01*
X49860700Y-68160653D01*
X47596164Y-65896117D01*
X53705590Y-65896117D01*
X53746578Y-66168233D01*
X53839864Y-66427123D01*
X53901844Y-66543080D01*
X54141935Y-66610060D01*
X54927895Y-65824100D01*
X55287105Y-65824100D01*
X56073065Y-66610060D01*
X56313156Y-66543080D01*
X56430256Y-66294052D01*
X56496523Y-66026965D01*
X56509410Y-65752083D01*
X56468422Y-65479967D01*
X56375136Y-65221077D01*
X56313156Y-65105120D01*
X56073065Y-65038140D01*
X55287105Y-65824100D01*
X54927895Y-65824100D01*
X54141935Y-65038140D01*
X53901844Y-65105120D01*
X53784744Y-65354148D01*
X53718477Y-65621235D01*
X53705590Y-65896117D01*
X47596164Y-65896117D01*
X43707659Y-62007613D01*
X43684638Y-61979562D01*
X43572720Y-61887713D01*
X43489121Y-61843029D01*
X43497100Y-61835050D01*
X43484358Y-61737623D01*
X43484259Y-61737325D01*
X43487912Y-61725282D01*
X43500172Y-61600800D01*
X43500172Y-61370800D01*
X43487912Y-61246318D01*
X43483508Y-61231800D01*
X43487912Y-61217282D01*
X43500172Y-61092800D01*
X43500172Y-60862800D01*
X43487912Y-60738318D01*
X43484259Y-60726275D01*
X43484358Y-60725977D01*
X43488174Y-60696800D01*
X43664301Y-60696800D01*
X43700406Y-60700356D01*
X43736511Y-60696800D01*
X43844491Y-60686165D01*
X43983039Y-60644137D01*
X44110726Y-60575887D01*
X44222644Y-60484038D01*
X44245664Y-60455988D01*
X44619365Y-60082288D01*
X44770856Y-60082288D01*
X45926860Y-61238293D01*
G37*
G04 #@! TD.AperFunction*
D31*
X27833828Y-71919600D02*
X27846088Y-72044082D01*
X27882398Y-72163780D01*
X27904217Y-72204600D01*
X27882398Y-72245420D01*
X27846088Y-72365118D01*
X27833828Y-72489600D01*
X27836900Y-72553850D01*
X27995650Y-72712600D01*
X28994900Y-72712600D01*
X28994900Y-72692600D01*
X29248900Y-72692600D01*
X29248900Y-72712600D01*
X29268900Y-72712600D01*
X29268900Y-72966600D01*
X29248900Y-72966600D01*
X29248900Y-72986600D01*
X28994900Y-72986600D01*
X28994900Y-72966600D01*
X27995650Y-72966600D01*
X27836900Y-73125350D01*
X27833828Y-73189600D01*
X27846088Y-73314082D01*
X27882398Y-73433780D01*
X27904217Y-73474600D01*
X27882398Y-73515420D01*
X27846088Y-73635118D01*
X27833828Y-73759600D01*
X27833828Y-74459600D01*
X27846088Y-74584082D01*
X27882398Y-74703780D01*
X27904217Y-74744600D01*
X27882398Y-74785420D01*
X27846088Y-74905118D01*
X27833828Y-75029600D01*
X27836900Y-75093850D01*
X27995650Y-75252600D01*
X28994900Y-75252600D01*
X28994900Y-75232600D01*
X29248900Y-75232600D01*
X29248900Y-75252600D01*
X29268900Y-75252600D01*
X29268900Y-75506600D01*
X29248900Y-75506600D01*
X29248900Y-76205850D01*
X29407650Y-76364600D01*
X29771900Y-76367672D01*
X29896382Y-76355412D01*
X30016080Y-76319102D01*
X30126394Y-76260137D01*
X30223085Y-76180785D01*
X30302437Y-76084094D01*
X30361402Y-75973780D01*
X30397712Y-75854082D01*
X30409972Y-75729600D01*
X30406900Y-75665350D01*
X30248152Y-75506602D01*
X30406900Y-75506602D01*
X30406900Y-75483746D01*
X32064781Y-77141628D01*
X31129900Y-77141628D01*
X31017176Y-77152730D01*
X30684858Y-76820412D01*
X30661838Y-76792362D01*
X30549920Y-76700513D01*
X30422233Y-76632263D01*
X30283685Y-76590235D01*
X30175705Y-76579600D01*
X30139600Y-76576044D01*
X30103495Y-76579600D01*
X29871052Y-76579600D01*
X29763730Y-76491523D01*
X29636043Y-76423273D01*
X29497495Y-76381245D01*
X29389515Y-76370610D01*
X29353410Y-76367054D01*
X29317305Y-76370610D01*
X26461150Y-76370610D01*
X26461150Y-75729600D01*
X27833828Y-75729600D01*
X27846088Y-75854082D01*
X27882398Y-75973780D01*
X27941363Y-76084094D01*
X28020715Y-76180785D01*
X28117406Y-76260137D01*
X28227720Y-76319102D01*
X28347418Y-76355412D01*
X28471900Y-76367672D01*
X28836150Y-76364600D01*
X28994900Y-76205850D01*
X28994900Y-75506600D01*
X27995650Y-75506600D01*
X27836900Y-75665350D01*
X27833828Y-75729600D01*
X26461150Y-75729600D01*
X26461150Y-72086356D01*
X26893207Y-71654300D01*
X27833828Y-71654300D01*
X27833828Y-71919600D01*
G04 #@! TA.AperFunction,Conductor*
D32*
G36*
X27833828Y-71919600D02*
G01*
X27846088Y-72044082D01*
X27882398Y-72163780D01*
X27904217Y-72204600D01*
X27882398Y-72245420D01*
X27846088Y-72365118D01*
X27833828Y-72489600D01*
X27836900Y-72553850D01*
X27995650Y-72712600D01*
X28994900Y-72712600D01*
X28994900Y-72692600D01*
X29248900Y-72692600D01*
X29248900Y-72712600D01*
X29268900Y-72712600D01*
X29268900Y-72966600D01*
X29248900Y-72966600D01*
X29248900Y-72986600D01*
X28994900Y-72986600D01*
X28994900Y-72966600D01*
X27995650Y-72966600D01*
X27836900Y-73125350D01*
X27833828Y-73189600D01*
X27846088Y-73314082D01*
X27882398Y-73433780D01*
X27904217Y-73474600D01*
X27882398Y-73515420D01*
X27846088Y-73635118D01*
X27833828Y-73759600D01*
X27833828Y-74459600D01*
X27846088Y-74584082D01*
X27882398Y-74703780D01*
X27904217Y-74744600D01*
X27882398Y-74785420D01*
X27846088Y-74905118D01*
X27833828Y-75029600D01*
X27836900Y-75093850D01*
X27995650Y-75252600D01*
X28994900Y-75252600D01*
X28994900Y-75232600D01*
X29248900Y-75232600D01*
X29248900Y-75252600D01*
X29268900Y-75252600D01*
X29268900Y-75506600D01*
X29248900Y-75506600D01*
X29248900Y-76205850D01*
X29407650Y-76364600D01*
X29771900Y-76367672D01*
X29896382Y-76355412D01*
X30016080Y-76319102D01*
X30126394Y-76260137D01*
X30223085Y-76180785D01*
X30302437Y-76084094D01*
X30361402Y-75973780D01*
X30397712Y-75854082D01*
X30409972Y-75729600D01*
X30406900Y-75665350D01*
X30248152Y-75506602D01*
X30406900Y-75506602D01*
X30406900Y-75483746D01*
X32064781Y-77141628D01*
X31129900Y-77141628D01*
X31017176Y-77152730D01*
X30684858Y-76820412D01*
X30661838Y-76792362D01*
X30549920Y-76700513D01*
X30422233Y-76632263D01*
X30283685Y-76590235D01*
X30175705Y-76579600D01*
X30139600Y-76576044D01*
X30103495Y-76579600D01*
X29871052Y-76579600D01*
X29763730Y-76491523D01*
X29636043Y-76423273D01*
X29497495Y-76381245D01*
X29389515Y-76370610D01*
X29353410Y-76367054D01*
X29317305Y-76370610D01*
X26461150Y-76370610D01*
X26461150Y-75729600D01*
X27833828Y-75729600D01*
X27846088Y-75854082D01*
X27882398Y-75973780D01*
X27941363Y-76084094D01*
X28020715Y-76180785D01*
X28117406Y-76260137D01*
X28227720Y-76319102D01*
X28347418Y-76355412D01*
X28471900Y-76367672D01*
X28836150Y-76364600D01*
X28994900Y-76205850D01*
X28994900Y-75506600D01*
X27995650Y-75506600D01*
X27836900Y-75665350D01*
X27833828Y-75729600D01*
X26461150Y-75729600D01*
X26461150Y-72086356D01*
X26893207Y-71654300D01*
X27833828Y-71654300D01*
X27833828Y-71919600D01*
G37*
G04 #@! TD.AperFunction*
D31*
X43636101Y-71040748D02*
X43636101Y-72114336D01*
X43596637Y-72130682D01*
X43390000Y-72268753D01*
X43390000Y-71807125D01*
X43393556Y-71771020D01*
X43379365Y-71626935D01*
X43337337Y-71488387D01*
X43269087Y-71360700D01*
X43208575Y-71286967D01*
X43200253Y-71276826D01*
X43200250Y-71276823D01*
X43177237Y-71248782D01*
X43149197Y-71225770D01*
X39450261Y-67526835D01*
X39406543Y-67473565D01*
X39392133Y-67456006D01*
X39392130Y-67456003D01*
X39369117Y-67427962D01*
X39341077Y-67404950D01*
X37763100Y-65826974D01*
X37763100Y-65167746D01*
X43636101Y-71040748D01*
G04 #@! TA.AperFunction,Conductor*
D32*
G36*
X43636101Y-71040748D02*
G01*
X43636101Y-72114336D01*
X43596637Y-72130682D01*
X43390000Y-72268753D01*
X43390000Y-71807125D01*
X43393556Y-71771020D01*
X43379365Y-71626935D01*
X43337337Y-71488387D01*
X43269087Y-71360700D01*
X43208575Y-71286967D01*
X43200253Y-71276826D01*
X43200250Y-71276823D01*
X43177237Y-71248782D01*
X43149197Y-71225770D01*
X39450261Y-67526835D01*
X39406543Y-67473565D01*
X39392133Y-67456006D01*
X39392130Y-67456003D01*
X39369117Y-67427962D01*
X39341077Y-67404950D01*
X37763100Y-65826974D01*
X37763100Y-65167746D01*
X43636101Y-71040748D01*
G37*
G04 #@! TD.AperFunction*
D31*
X27087289Y-61863100D02*
X27360101Y-61863100D01*
X27360100Y-65472195D01*
X27356544Y-65508300D01*
X27369958Y-65644495D01*
X27370735Y-65652384D01*
X27412763Y-65790932D01*
X27481013Y-65918619D01*
X27572862Y-66030537D01*
X27600908Y-66053554D01*
X28320346Y-66772993D01*
X28343362Y-66801038D01*
X28371406Y-66824053D01*
X28455280Y-66892887D01*
X28582966Y-66961137D01*
X28721515Y-67003165D01*
X28865600Y-67017356D01*
X28901705Y-67013800D01*
X29106099Y-67013800D01*
X29160415Y-67079985D01*
X29257106Y-67159337D01*
X29367420Y-67218302D01*
X29487118Y-67254612D01*
X29611600Y-67266872D01*
X30911600Y-67266872D01*
X31036082Y-67254612D01*
X31155780Y-67218302D01*
X31266094Y-67159337D01*
X31362785Y-67079985D01*
X31442137Y-66983294D01*
X31501102Y-66872980D01*
X31537412Y-66753282D01*
X31549672Y-66628800D01*
X31549672Y-65928800D01*
X31544147Y-65872700D01*
X31559919Y-65872700D01*
X31596024Y-65876256D01*
X31632129Y-65872700D01*
X31740109Y-65862065D01*
X31878657Y-65820037D01*
X32006344Y-65751787D01*
X32118262Y-65659938D01*
X32141282Y-65631888D01*
X33927993Y-63845178D01*
X33956038Y-63822162D01*
X34047887Y-63710244D01*
X34073050Y-63663167D01*
X34116137Y-63582558D01*
X34158165Y-63444009D01*
X34172356Y-63299924D01*
X34168800Y-63263819D01*
X34168800Y-63254872D01*
X34353700Y-63254872D01*
X34353701Y-66091285D01*
X34350144Y-66127400D01*
X34364335Y-66271485D01*
X34387800Y-66348837D01*
X34406364Y-66410033D01*
X34474614Y-66537720D01*
X34566463Y-66649638D01*
X34594508Y-66672654D01*
X38533581Y-70611728D01*
X38308800Y-70611728D01*
X38184318Y-70623988D01*
X38064620Y-70660298D01*
X37954306Y-70719263D01*
X37857615Y-70798615D01*
X37778263Y-70895306D01*
X37719298Y-71005620D01*
X37682988Y-71125318D01*
X37671026Y-71246776D01*
X37598180Y-71285713D01*
X37486262Y-71377562D01*
X37463246Y-71405607D01*
X36764254Y-72104600D01*
X35879354Y-72104600D01*
X35897712Y-72044082D01*
X35909972Y-71919600D01*
X35909972Y-71219600D01*
X35897712Y-71095118D01*
X35861402Y-70975420D01*
X35802437Y-70865106D01*
X35723085Y-70768415D01*
X35626394Y-70689063D01*
X35516080Y-70630098D01*
X35396382Y-70593788D01*
X35271900Y-70581528D01*
X33971900Y-70581528D01*
X33847418Y-70593788D01*
X33761344Y-70619898D01*
X33566558Y-70425112D01*
X33543538Y-70397062D01*
X33431620Y-70305213D01*
X33303933Y-70236963D01*
X33165385Y-70194935D01*
X33057405Y-70184300D01*
X33021300Y-70180744D01*
X32985195Y-70184300D01*
X26905600Y-70184300D01*
X26905600Y-61826960D01*
X27087289Y-61863100D01*
G04 #@! TA.AperFunction,Conductor*
D32*
G36*
X27087289Y-61863100D02*
G01*
X27360101Y-61863100D01*
X27360100Y-65472195D01*
X27356544Y-65508300D01*
X27369958Y-65644495D01*
X27370735Y-65652384D01*
X27412763Y-65790932D01*
X27481013Y-65918619D01*
X27572862Y-66030537D01*
X27600908Y-66053554D01*
X28320346Y-66772993D01*
X28343362Y-66801038D01*
X28371406Y-66824053D01*
X28455280Y-66892887D01*
X28582966Y-66961137D01*
X28721515Y-67003165D01*
X28865600Y-67017356D01*
X28901705Y-67013800D01*
X29106099Y-67013800D01*
X29160415Y-67079985D01*
X29257106Y-67159337D01*
X29367420Y-67218302D01*
X29487118Y-67254612D01*
X29611600Y-67266872D01*
X30911600Y-67266872D01*
X31036082Y-67254612D01*
X31155780Y-67218302D01*
X31266094Y-67159337D01*
X31362785Y-67079985D01*
X31442137Y-66983294D01*
X31501102Y-66872980D01*
X31537412Y-66753282D01*
X31549672Y-66628800D01*
X31549672Y-65928800D01*
X31544147Y-65872700D01*
X31559919Y-65872700D01*
X31596024Y-65876256D01*
X31632129Y-65872700D01*
X31740109Y-65862065D01*
X31878657Y-65820037D01*
X32006344Y-65751787D01*
X32118262Y-65659938D01*
X32141282Y-65631888D01*
X33927993Y-63845178D01*
X33956038Y-63822162D01*
X34047887Y-63710244D01*
X34073050Y-63663167D01*
X34116137Y-63582558D01*
X34158165Y-63444009D01*
X34172356Y-63299924D01*
X34168800Y-63263819D01*
X34168800Y-63254872D01*
X34353700Y-63254872D01*
X34353701Y-66091285D01*
X34350144Y-66127400D01*
X34364335Y-66271485D01*
X34387800Y-66348837D01*
X34406364Y-66410033D01*
X34474614Y-66537720D01*
X34566463Y-66649638D01*
X34594508Y-66672654D01*
X38533581Y-70611728D01*
X38308800Y-70611728D01*
X38184318Y-70623988D01*
X38064620Y-70660298D01*
X37954306Y-70719263D01*
X37857615Y-70798615D01*
X37778263Y-70895306D01*
X37719298Y-71005620D01*
X37682988Y-71125318D01*
X37671026Y-71246776D01*
X37598180Y-71285713D01*
X37486262Y-71377562D01*
X37463246Y-71405607D01*
X36764254Y-72104600D01*
X35879354Y-72104600D01*
X35897712Y-72044082D01*
X35909972Y-71919600D01*
X35909972Y-71219600D01*
X35897712Y-71095118D01*
X35861402Y-70975420D01*
X35802437Y-70865106D01*
X35723085Y-70768415D01*
X35626394Y-70689063D01*
X35516080Y-70630098D01*
X35396382Y-70593788D01*
X35271900Y-70581528D01*
X33971900Y-70581528D01*
X33847418Y-70593788D01*
X33761344Y-70619898D01*
X33566558Y-70425112D01*
X33543538Y-70397062D01*
X33431620Y-70305213D01*
X33303933Y-70236963D01*
X33165385Y-70194935D01*
X33057405Y-70184300D01*
X33021300Y-70180744D01*
X32985195Y-70184300D01*
X26905600Y-70184300D01*
X26905600Y-61826960D01*
X27087289Y-61863100D01*
G37*
G04 #@! TD.AperFunction*
D31*
X27149680Y-29755435D02*
X27344265Y-29950020D01*
X27573073Y-30102905D01*
X27827310Y-30208214D01*
X28097208Y-30261900D01*
X28372392Y-30261900D01*
X28642290Y-30208214D01*
X28896527Y-30102905D01*
X29125335Y-29950020D01*
X29319920Y-29755435D01*
X29423845Y-29599900D01*
X31706001Y-29599900D01*
X31706000Y-30923895D01*
X31702444Y-30960000D01*
X31706001Y-30996115D01*
X31706000Y-32823895D01*
X31702444Y-32860000D01*
X31706001Y-32896115D01*
X31706000Y-37090053D01*
X25676408Y-43119646D01*
X25648363Y-43142662D01*
X25556514Y-43254580D01*
X25520599Y-43321772D01*
X25488264Y-43382267D01*
X25446235Y-43520815D01*
X25432044Y-43664900D01*
X25435601Y-43701015D01*
X25435600Y-70883195D01*
X25432044Y-70919300D01*
X25442558Y-71026055D01*
X25231958Y-71236656D01*
X25218060Y-71248062D01*
X25218060Y-37960208D01*
X26911500Y-37960208D01*
X26911500Y-38235392D01*
X26965186Y-38505290D01*
X27070495Y-38759527D01*
X27223380Y-38988335D01*
X27417965Y-39182920D01*
X27646773Y-39335805D01*
X27901010Y-39441114D01*
X28170908Y-39494800D01*
X28446092Y-39494800D01*
X28715990Y-39441114D01*
X28970227Y-39335805D01*
X29199035Y-39182920D01*
X29393620Y-38988335D01*
X29546505Y-38759527D01*
X29651814Y-38505290D01*
X29705500Y-38235392D01*
X29705500Y-37960208D01*
X29651814Y-37690310D01*
X29546505Y-37436073D01*
X29393620Y-37207265D01*
X29199035Y-37012680D01*
X28970227Y-36859795D01*
X28893905Y-36828181D01*
X28901523Y-36825436D01*
X29017480Y-36763456D01*
X29084460Y-36523365D01*
X28298500Y-35737405D01*
X27512540Y-36523365D01*
X27579520Y-36763456D01*
X27719943Y-36829487D01*
X27646773Y-36859795D01*
X27417965Y-37012680D01*
X27223380Y-37207265D01*
X27070495Y-37436073D01*
X26965186Y-37690310D01*
X26911500Y-37960208D01*
X25218060Y-37960208D01*
X25218060Y-35629817D01*
X26896590Y-35629817D01*
X26937578Y-35901933D01*
X27030864Y-36160823D01*
X27092844Y-36276780D01*
X27332935Y-36343760D01*
X28118895Y-35557800D01*
X28478105Y-35557800D01*
X29264065Y-36343760D01*
X29504156Y-36276780D01*
X29621256Y-36027752D01*
X29687523Y-35760665D01*
X29700410Y-35485783D01*
X29659422Y-35213667D01*
X29566136Y-34954777D01*
X29504156Y-34838820D01*
X29264065Y-34771840D01*
X28478105Y-35557800D01*
X28118895Y-35557800D01*
X27332935Y-34771840D01*
X27092844Y-34838820D01*
X26975744Y-35087848D01*
X26909477Y-35354935D01*
X26896590Y-35629817D01*
X25218060Y-35629817D01*
X25218060Y-34592235D01*
X27512540Y-34592235D01*
X28298500Y-35378195D01*
X29084460Y-34592235D01*
X29017480Y-34352144D01*
X28768452Y-34235044D01*
X28501365Y-34168777D01*
X28226483Y-34155890D01*
X27954367Y-34196878D01*
X27695477Y-34290164D01*
X27579520Y-34352144D01*
X27512540Y-34592235D01*
X25218060Y-34592235D01*
X25218060Y-31344386D01*
X27012426Y-29550021D01*
X27149680Y-29755435D01*
G04 #@! TA.AperFunction,Conductor*
D32*
G36*
X27149680Y-29755435D02*
G01*
X27344265Y-29950020D01*
X27573073Y-30102905D01*
X27827310Y-30208214D01*
X28097208Y-30261900D01*
X28372392Y-30261900D01*
X28642290Y-30208214D01*
X28896527Y-30102905D01*
X29125335Y-29950020D01*
X29319920Y-29755435D01*
X29423845Y-29599900D01*
X31706001Y-29599900D01*
X31706000Y-30923895D01*
X31702444Y-30960000D01*
X31706001Y-30996115D01*
X31706000Y-32823895D01*
X31702444Y-32860000D01*
X31706001Y-32896115D01*
X31706000Y-37090053D01*
X25676408Y-43119646D01*
X25648363Y-43142662D01*
X25556514Y-43254580D01*
X25520599Y-43321772D01*
X25488264Y-43382267D01*
X25446235Y-43520815D01*
X25432044Y-43664900D01*
X25435601Y-43701015D01*
X25435600Y-70883195D01*
X25432044Y-70919300D01*
X25442558Y-71026055D01*
X25231958Y-71236656D01*
X25218060Y-71248062D01*
X25218060Y-37960208D01*
X26911500Y-37960208D01*
X26911500Y-38235392D01*
X26965186Y-38505290D01*
X27070495Y-38759527D01*
X27223380Y-38988335D01*
X27417965Y-39182920D01*
X27646773Y-39335805D01*
X27901010Y-39441114D01*
X28170908Y-39494800D01*
X28446092Y-39494800D01*
X28715990Y-39441114D01*
X28970227Y-39335805D01*
X29199035Y-39182920D01*
X29393620Y-38988335D01*
X29546505Y-38759527D01*
X29651814Y-38505290D01*
X29705500Y-38235392D01*
X29705500Y-37960208D01*
X29651814Y-37690310D01*
X29546505Y-37436073D01*
X29393620Y-37207265D01*
X29199035Y-37012680D01*
X28970227Y-36859795D01*
X28893905Y-36828181D01*
X28901523Y-36825436D01*
X29017480Y-36763456D01*
X29084460Y-36523365D01*
X28298500Y-35737405D01*
X27512540Y-36523365D01*
X27579520Y-36763456D01*
X27719943Y-36829487D01*
X27646773Y-36859795D01*
X27417965Y-37012680D01*
X27223380Y-37207265D01*
X27070495Y-37436073D01*
X26965186Y-37690310D01*
X26911500Y-37960208D01*
X25218060Y-37960208D01*
X25218060Y-35629817D01*
X26896590Y-35629817D01*
X26937578Y-35901933D01*
X27030864Y-36160823D01*
X27092844Y-36276780D01*
X27332935Y-36343760D01*
X28118895Y-35557800D01*
X28478105Y-35557800D01*
X29264065Y-36343760D01*
X29504156Y-36276780D01*
X29621256Y-36027752D01*
X29687523Y-35760665D01*
X29700410Y-35485783D01*
X29659422Y-35213667D01*
X29566136Y-34954777D01*
X29504156Y-34838820D01*
X29264065Y-34771840D01*
X28478105Y-35557800D01*
X28118895Y-35557800D01*
X27332935Y-34771840D01*
X27092844Y-34838820D01*
X26975744Y-35087848D01*
X26909477Y-35354935D01*
X26896590Y-35629817D01*
X25218060Y-35629817D01*
X25218060Y-34592235D01*
X27512540Y-34592235D01*
X28298500Y-35378195D01*
X29084460Y-34592235D01*
X29017480Y-34352144D01*
X28768452Y-34235044D01*
X28501365Y-34168777D01*
X28226483Y-34155890D01*
X27954367Y-34196878D01*
X27695477Y-34290164D01*
X27579520Y-34352144D01*
X27512540Y-34592235D01*
X25218060Y-34592235D01*
X25218060Y-31344386D01*
X27012426Y-29550021D01*
X27149680Y-29755435D01*
G37*
G04 #@! TD.AperFunction*
D31*
X36912354Y-60672217D02*
X36646918Y-60672217D01*
X36717086Y-60502816D01*
X36760703Y-60283537D01*
X36760703Y-60059961D01*
X36717086Y-59840682D01*
X36639228Y-59652717D01*
X37664871Y-59652717D01*
X37700976Y-59656273D01*
X37737081Y-59652717D01*
X37845061Y-59642082D01*
X37983609Y-59600054D01*
X37985558Y-59599012D01*
X36912354Y-60672217D01*
G04 #@! TA.AperFunction,Conductor*
D32*
G36*
X36912354Y-60672217D02*
G01*
X36646918Y-60672217D01*
X36717086Y-60502816D01*
X36760703Y-60283537D01*
X36760703Y-60059961D01*
X36717086Y-59840682D01*
X36639228Y-59652717D01*
X37664871Y-59652717D01*
X37700976Y-59656273D01*
X37737081Y-59652717D01*
X37845061Y-59642082D01*
X37983609Y-59600054D01*
X37985558Y-59599012D01*
X36912354Y-60672217D01*
G37*
G04 #@! TD.AperFunction*
D31*
X36182680Y-57731688D02*
X36226297Y-57950967D01*
X36311856Y-58157524D01*
X36328689Y-58182717D01*
X35947654Y-58182717D01*
X35897462Y-58132525D01*
X35885683Y-58012933D01*
X35878115Y-57987985D01*
X35843655Y-57874385D01*
X35775405Y-57746698D01*
X35695061Y-57648800D01*
X36182680Y-57648800D01*
X36182680Y-57731688D01*
G04 #@! TA.AperFunction,Conductor*
D32*
G36*
X36182680Y-57731688D02*
G01*
X36226297Y-57950967D01*
X36311856Y-58157524D01*
X36328689Y-58182717D01*
X35947654Y-58182717D01*
X35897462Y-58132525D01*
X35885683Y-58012933D01*
X35878115Y-57987985D01*
X35843655Y-57874385D01*
X35775405Y-57746698D01*
X35695061Y-57648800D01*
X36182680Y-57648800D01*
X36182680Y-57731688D01*
G37*
G04 #@! TD.AperFunction*
D31*
X33077219Y-56937994D02*
X33096028Y-56960913D01*
X33096028Y-57028800D01*
X33108288Y-57153282D01*
X33111941Y-57165325D01*
X33111842Y-57165623D01*
X33099100Y-57263050D01*
X33185441Y-57349391D01*
X33203563Y-57383294D01*
X33235164Y-57421800D01*
X33203563Y-57460306D01*
X33185441Y-57494209D01*
X33099100Y-57580550D01*
X33111842Y-57677977D01*
X33111941Y-57678275D01*
X33108288Y-57690318D01*
X33107059Y-57702800D01*
X32628507Y-57702800D01*
X32443040Y-57517333D01*
X32443040Y-57309992D01*
X32399423Y-57090713D01*
X32313864Y-56884156D01*
X32189652Y-56698260D01*
X32038328Y-56546936D01*
X32175077Y-56410188D01*
X32549414Y-56410188D01*
X33077219Y-56937994D01*
G04 #@! TA.AperFunction,Conductor*
D32*
G36*
X33077219Y-56937994D02*
G01*
X33096028Y-56960913D01*
X33096028Y-57028800D01*
X33108288Y-57153282D01*
X33111941Y-57165325D01*
X33111842Y-57165623D01*
X33099100Y-57263050D01*
X33185441Y-57349391D01*
X33203563Y-57383294D01*
X33235164Y-57421800D01*
X33203563Y-57460306D01*
X33185441Y-57494209D01*
X33099100Y-57580550D01*
X33111842Y-57677977D01*
X33111941Y-57678275D01*
X33108288Y-57690318D01*
X33107059Y-57702800D01*
X32628507Y-57702800D01*
X32443040Y-57517333D01*
X32443040Y-57309992D01*
X32399423Y-57090713D01*
X32313864Y-56884156D01*
X32189652Y-56698260D01*
X32038328Y-56546936D01*
X32175077Y-56410188D01*
X32549414Y-56410188D01*
X33077219Y-56937994D01*
G37*
G04 #@! TD.AperFunction*
D31*
X40622606Y-56674337D02*
X40656509Y-56692459D01*
X40742850Y-56778800D01*
X40827099Y-56767781D01*
X40827099Y-56801480D01*
X40650301Y-56801480D01*
X40431022Y-56845097D01*
X40224465Y-56930656D01*
X40038569Y-57054868D01*
X40034363Y-57059074D01*
X39750521Y-56775232D01*
X39807582Y-56769612D01*
X39822100Y-56765208D01*
X39836618Y-56769612D01*
X39961100Y-56781872D01*
X40191100Y-56781872D01*
X40315582Y-56769612D01*
X40327625Y-56765959D01*
X40327923Y-56766058D01*
X40425350Y-56778800D01*
X40511691Y-56692459D01*
X40545594Y-56674337D01*
X40584100Y-56642736D01*
X40622606Y-56674337D01*
G04 #@! TA.AperFunction,Conductor*
D32*
G36*
X40622606Y-56674337D02*
G01*
X40656509Y-56692459D01*
X40742850Y-56778800D01*
X40827099Y-56767781D01*
X40827099Y-56801480D01*
X40650301Y-56801480D01*
X40431022Y-56845097D01*
X40224465Y-56930656D01*
X40038569Y-57054868D01*
X40034363Y-57059074D01*
X39750521Y-56775232D01*
X39807582Y-56769612D01*
X39822100Y-56765208D01*
X39836618Y-56769612D01*
X39961100Y-56781872D01*
X40191100Y-56781872D01*
X40315582Y-56769612D01*
X40327625Y-56765959D01*
X40327923Y-56766058D01*
X40425350Y-56778800D01*
X40511691Y-56692459D01*
X40545594Y-56674337D01*
X40584100Y-56642736D01*
X40622606Y-56674337D01*
G37*
G04 #@! TD.AperFunction*
D31*
X45378301Y-53712986D02*
X45571214Y-53905899D01*
X45798057Y-54057471D01*
X46050111Y-54161875D01*
X46317689Y-54215100D01*
X46590511Y-54215100D01*
X46778501Y-54177706D01*
X46778501Y-56646140D01*
X44346588Y-56646140D01*
X43705058Y-56004611D01*
X43682038Y-55976561D01*
X43570120Y-55884712D01*
X43442433Y-55816462D01*
X43303885Y-55774434D01*
X43195905Y-55763799D01*
X43159800Y-55760243D01*
X43123695Y-55763799D01*
X41845172Y-55763799D01*
X41845172Y-55143800D01*
X41832912Y-55019318D01*
X41827100Y-55000158D01*
X41827100Y-54884836D01*
X41830655Y-54848739D01*
X41827100Y-54812642D01*
X41827100Y-54812635D01*
X41816465Y-54704655D01*
X41814876Y-54699415D01*
X41791867Y-54623567D01*
X41774437Y-54566107D01*
X41706187Y-54438420D01*
X41670860Y-54395375D01*
X41670860Y-54180712D01*
X41627243Y-53961433D01*
X41617794Y-53938622D01*
X41671100Y-53943872D01*
X42921100Y-53943872D01*
X43045582Y-53931612D01*
X43165280Y-53895302D01*
X43275594Y-53836337D01*
X43372285Y-53756985D01*
X43451637Y-53660294D01*
X43502520Y-53565100D01*
X45279487Y-53565100D01*
X45378301Y-53712986D01*
G04 #@! TA.AperFunction,Conductor*
D32*
G36*
X45378301Y-53712986D02*
G01*
X45571214Y-53905899D01*
X45798057Y-54057471D01*
X46050111Y-54161875D01*
X46317689Y-54215100D01*
X46590511Y-54215100D01*
X46778501Y-54177706D01*
X46778501Y-56646140D01*
X44346588Y-56646140D01*
X43705058Y-56004611D01*
X43682038Y-55976561D01*
X43570120Y-55884712D01*
X43442433Y-55816462D01*
X43303885Y-55774434D01*
X43195905Y-55763799D01*
X43159800Y-55760243D01*
X43123695Y-55763799D01*
X41845172Y-55763799D01*
X41845172Y-55143800D01*
X41832912Y-55019318D01*
X41827100Y-55000158D01*
X41827100Y-54884836D01*
X41830655Y-54848739D01*
X41827100Y-54812642D01*
X41827100Y-54812635D01*
X41816465Y-54704655D01*
X41814876Y-54699415D01*
X41791867Y-54623567D01*
X41774437Y-54566107D01*
X41706187Y-54438420D01*
X41670860Y-54395375D01*
X41670860Y-54180712D01*
X41627243Y-53961433D01*
X41617794Y-53938622D01*
X41671100Y-53943872D01*
X42921100Y-53943872D01*
X43045582Y-53931612D01*
X43165280Y-53895302D01*
X43275594Y-53836337D01*
X43372285Y-53756985D01*
X43451637Y-53660294D01*
X43502520Y-53565100D01*
X45279487Y-53565100D01*
X45378301Y-53712986D01*
G37*
G04 #@! TD.AperFunction*
D31*
X35468354Y-50978180D02*
X35412652Y-50978180D01*
X35193373Y-51021797D01*
X34986816Y-51107356D01*
X34800920Y-51231568D01*
X34642828Y-51389660D01*
X34518616Y-51575556D01*
X34433057Y-51782113D01*
X34389440Y-52001392D01*
X34389440Y-52224968D01*
X34433057Y-52444247D01*
X34518616Y-52650804D01*
X34642828Y-52836700D01*
X34661114Y-52854986D01*
X32975923Y-54540177D01*
X32458919Y-54540177D01*
X32464102Y-54530480D01*
X32500412Y-54410782D01*
X32512672Y-54286300D01*
X32509600Y-54072050D01*
X32350850Y-53913300D01*
X31376600Y-53913300D01*
X31376600Y-53933300D01*
X31122600Y-53933300D01*
X31122600Y-53913300D01*
X31102600Y-53913300D01*
X31102600Y-53659300D01*
X31122600Y-53659300D01*
X31122600Y-53639300D01*
X31376600Y-53639300D01*
X31376600Y-53659300D01*
X32350850Y-53659300D01*
X32509600Y-53500550D01*
X32512672Y-53286300D01*
X32500412Y-53161818D01*
X32464102Y-53042120D01*
X32405137Y-52931806D01*
X32325785Y-52835115D01*
X32266304Y-52786300D01*
X32325785Y-52737485D01*
X32405137Y-52640794D01*
X32464102Y-52530480D01*
X32500412Y-52410782D01*
X32512672Y-52286300D01*
X32512672Y-51962774D01*
X33572907Y-50902540D01*
X34807253Y-50902540D01*
X34843358Y-50906096D01*
X34879463Y-50902540D01*
X34981615Y-50892479D01*
X35382653Y-50892479D01*
X35468354Y-50978180D01*
G04 #@! TA.AperFunction,Conductor*
D32*
G36*
X35468354Y-50978180D02*
G01*
X35412652Y-50978180D01*
X35193373Y-51021797D01*
X34986816Y-51107356D01*
X34800920Y-51231568D01*
X34642828Y-51389660D01*
X34518616Y-51575556D01*
X34433057Y-51782113D01*
X34389440Y-52001392D01*
X34389440Y-52224968D01*
X34433057Y-52444247D01*
X34518616Y-52650804D01*
X34642828Y-52836700D01*
X34661114Y-52854986D01*
X32975923Y-54540177D01*
X32458919Y-54540177D01*
X32464102Y-54530480D01*
X32500412Y-54410782D01*
X32512672Y-54286300D01*
X32509600Y-54072050D01*
X32350850Y-53913300D01*
X31376600Y-53913300D01*
X31376600Y-53933300D01*
X31122600Y-53933300D01*
X31122600Y-53913300D01*
X31102600Y-53913300D01*
X31102600Y-53659300D01*
X31122600Y-53659300D01*
X31122600Y-53639300D01*
X31376600Y-53639300D01*
X31376600Y-53659300D01*
X32350850Y-53659300D01*
X32509600Y-53500550D01*
X32512672Y-53286300D01*
X32500412Y-53161818D01*
X32464102Y-53042120D01*
X32405137Y-52931806D01*
X32325785Y-52835115D01*
X32266304Y-52786300D01*
X32325785Y-52737485D01*
X32405137Y-52640794D01*
X32464102Y-52530480D01*
X32500412Y-52410782D01*
X32512672Y-52286300D01*
X32512672Y-51962774D01*
X33572907Y-50902540D01*
X34807253Y-50902540D01*
X34843358Y-50906096D01*
X34879463Y-50902540D01*
X34981615Y-50892479D01*
X35382653Y-50892479D01*
X35468354Y-50978180D01*
G37*
G04 #@! TD.AperFunction*
D31*
X33943864Y-33891933D02*
X34012114Y-34019620D01*
X34103963Y-34131538D01*
X34132008Y-34154554D01*
X39341100Y-39363647D01*
X39341101Y-45758354D01*
X37744658Y-44161912D01*
X37721638Y-44133862D01*
X37609720Y-44042013D01*
X37482033Y-43973763D01*
X37343485Y-43931735D01*
X37235505Y-43921100D01*
X37199400Y-43917544D01*
X37163295Y-43921100D01*
X29512945Y-43921100D01*
X29409020Y-43765565D01*
X29214435Y-43570980D01*
X28985627Y-43418095D01*
X28731390Y-43312786D01*
X28461492Y-43259100D01*
X28186308Y-43259100D01*
X27916410Y-43312786D01*
X27662173Y-43418095D01*
X27433365Y-43570980D01*
X27238780Y-43765565D01*
X27085895Y-43994373D01*
X26980586Y-44248610D01*
X26926900Y-44518508D01*
X26926900Y-44793692D01*
X26980586Y-45063590D01*
X27085895Y-45317827D01*
X27238780Y-45546635D01*
X27433365Y-45741220D01*
X27662173Y-45894105D01*
X27738495Y-45925719D01*
X27730877Y-45928464D01*
X27614920Y-45990444D01*
X27547940Y-46230535D01*
X28333900Y-47016495D01*
X29119860Y-46230535D01*
X29052880Y-45990444D01*
X28912457Y-45924413D01*
X28985627Y-45894105D01*
X29214435Y-45741220D01*
X29409020Y-45546635D01*
X29512945Y-45391100D01*
X36894954Y-45391100D01*
X37335582Y-45831728D01*
X37213800Y-45831728D01*
X37089318Y-45843988D01*
X36969620Y-45880298D01*
X36859306Y-45939263D01*
X36762615Y-46018615D01*
X36683263Y-46115306D01*
X36624298Y-46225620D01*
X36587988Y-46345318D01*
X36575728Y-46469800D01*
X36575728Y-47169800D01*
X36587988Y-47294282D01*
X36624298Y-47413980D01*
X36683263Y-47524294D01*
X36762615Y-47620985D01*
X36859306Y-47700337D01*
X36969620Y-47759302D01*
X37004227Y-47769800D01*
X36969620Y-47780298D01*
X36859306Y-47839263D01*
X36762615Y-47918615D01*
X36683263Y-48015306D01*
X36679268Y-48022781D01*
X36630867Y-48037463D01*
X36503180Y-48105713D01*
X36391262Y-48197562D01*
X36368241Y-48225613D01*
X36178054Y-48415800D01*
X34747787Y-48415800D01*
X34745002Y-48406620D01*
X34686037Y-48296306D01*
X34606685Y-48199615D01*
X34547204Y-48150800D01*
X34606685Y-48101985D01*
X34686037Y-48005294D01*
X34745002Y-47894980D01*
X34781312Y-47775282D01*
X34793572Y-47650800D01*
X34790500Y-47436550D01*
X34631750Y-47277800D01*
X33657500Y-47277800D01*
X33657500Y-47297800D01*
X33403500Y-47297800D01*
X33403500Y-47277800D01*
X32429250Y-47277800D01*
X32270500Y-47436550D01*
X32267428Y-47650800D01*
X32279688Y-47775282D01*
X32315998Y-47894980D01*
X32374963Y-48005294D01*
X32454315Y-48101985D01*
X32513796Y-48150800D01*
X32454315Y-48199615D01*
X32374963Y-48296306D01*
X32315998Y-48406620D01*
X32314073Y-48412967D01*
X32285304Y-48415800D01*
X32285295Y-48415800D01*
X32177315Y-48426435D01*
X32038767Y-48468463D01*
X31911080Y-48536713D01*
X31799162Y-48628562D01*
X31776146Y-48656607D01*
X26905600Y-53527154D01*
X26905600Y-48161665D01*
X27547940Y-48161665D01*
X27614920Y-48401756D01*
X27863948Y-48518856D01*
X28131035Y-48585123D01*
X28405917Y-48598010D01*
X28678033Y-48557022D01*
X28936923Y-48463736D01*
X29052880Y-48401756D01*
X29119860Y-48161665D01*
X28333900Y-47375705D01*
X27547940Y-48161665D01*
X26905600Y-48161665D01*
X26905600Y-47268117D01*
X26931990Y-47268117D01*
X26972978Y-47540233D01*
X27066264Y-47799123D01*
X27128244Y-47915080D01*
X27368335Y-47982060D01*
X28154295Y-47196100D01*
X28513505Y-47196100D01*
X29299465Y-47982060D01*
X29539556Y-47915080D01*
X29656656Y-47666052D01*
X29722923Y-47398965D01*
X29735810Y-47124083D01*
X29694822Y-46851967D01*
X29622336Y-46650800D01*
X32267428Y-46650800D01*
X32270500Y-46865050D01*
X32429250Y-47023800D01*
X33403500Y-47023800D01*
X33403500Y-46174550D01*
X33657500Y-46174550D01*
X33657500Y-47023800D01*
X34631750Y-47023800D01*
X34790500Y-46865050D01*
X34793572Y-46650800D01*
X34781312Y-46526318D01*
X34745002Y-46406620D01*
X34686037Y-46296306D01*
X34606685Y-46199615D01*
X34509994Y-46120263D01*
X34399680Y-46061298D01*
X34279982Y-46024988D01*
X34155500Y-46012728D01*
X33816250Y-46015800D01*
X33657500Y-46174550D01*
X33403500Y-46174550D01*
X33244750Y-46015800D01*
X32905500Y-46012728D01*
X32781018Y-46024988D01*
X32661320Y-46061298D01*
X32551006Y-46120263D01*
X32454315Y-46199615D01*
X32374963Y-46296306D01*
X32315998Y-46406620D01*
X32279688Y-46526318D01*
X32267428Y-46650800D01*
X29622336Y-46650800D01*
X29601536Y-46593077D01*
X29539556Y-46477120D01*
X29299465Y-46410140D01*
X28513505Y-47196100D01*
X28154295Y-47196100D01*
X27368335Y-46410140D01*
X27128244Y-46477120D01*
X27011144Y-46726148D01*
X26944877Y-46993235D01*
X26931990Y-47268117D01*
X26905600Y-47268117D01*
X26905600Y-43969346D01*
X32935198Y-37939749D01*
X32963237Y-37916738D01*
X32986250Y-37888697D01*
X32986253Y-37888694D01*
X33055087Y-37804820D01*
X33123337Y-37677134D01*
X33165365Y-37538585D01*
X33179556Y-37394500D01*
X33176000Y-37358395D01*
X33176000Y-33823072D01*
X33801300Y-33823072D01*
X33919446Y-33811436D01*
X33943864Y-33891933D01*
G04 #@! TA.AperFunction,Conductor*
D32*
G36*
X33943864Y-33891933D02*
G01*
X34012114Y-34019620D01*
X34103963Y-34131538D01*
X34132008Y-34154554D01*
X39341100Y-39363647D01*
X39341101Y-45758354D01*
X37744658Y-44161912D01*
X37721638Y-44133862D01*
X37609720Y-44042013D01*
X37482033Y-43973763D01*
X37343485Y-43931735D01*
X37235505Y-43921100D01*
X37199400Y-43917544D01*
X37163295Y-43921100D01*
X29512945Y-43921100D01*
X29409020Y-43765565D01*
X29214435Y-43570980D01*
X28985627Y-43418095D01*
X28731390Y-43312786D01*
X28461492Y-43259100D01*
X28186308Y-43259100D01*
X27916410Y-43312786D01*
X27662173Y-43418095D01*
X27433365Y-43570980D01*
X27238780Y-43765565D01*
X27085895Y-43994373D01*
X26980586Y-44248610D01*
X26926900Y-44518508D01*
X26926900Y-44793692D01*
X26980586Y-45063590D01*
X27085895Y-45317827D01*
X27238780Y-45546635D01*
X27433365Y-45741220D01*
X27662173Y-45894105D01*
X27738495Y-45925719D01*
X27730877Y-45928464D01*
X27614920Y-45990444D01*
X27547940Y-46230535D01*
X28333900Y-47016495D01*
X29119860Y-46230535D01*
X29052880Y-45990444D01*
X28912457Y-45924413D01*
X28985627Y-45894105D01*
X29214435Y-45741220D01*
X29409020Y-45546635D01*
X29512945Y-45391100D01*
X36894954Y-45391100D01*
X37335582Y-45831728D01*
X37213800Y-45831728D01*
X37089318Y-45843988D01*
X36969620Y-45880298D01*
X36859306Y-45939263D01*
X36762615Y-46018615D01*
X36683263Y-46115306D01*
X36624298Y-46225620D01*
X36587988Y-46345318D01*
X36575728Y-46469800D01*
X36575728Y-47169800D01*
X36587988Y-47294282D01*
X36624298Y-47413980D01*
X36683263Y-47524294D01*
X36762615Y-47620985D01*
X36859306Y-47700337D01*
X36969620Y-47759302D01*
X37004227Y-47769800D01*
X36969620Y-47780298D01*
X36859306Y-47839263D01*
X36762615Y-47918615D01*
X36683263Y-48015306D01*
X36679268Y-48022781D01*
X36630867Y-48037463D01*
X36503180Y-48105713D01*
X36391262Y-48197562D01*
X36368241Y-48225613D01*
X36178054Y-48415800D01*
X34747787Y-48415800D01*
X34745002Y-48406620D01*
X34686037Y-48296306D01*
X34606685Y-48199615D01*
X34547204Y-48150800D01*
X34606685Y-48101985D01*
X34686037Y-48005294D01*
X34745002Y-47894980D01*
X34781312Y-47775282D01*
X34793572Y-47650800D01*
X34790500Y-47436550D01*
X34631750Y-47277800D01*
X33657500Y-47277800D01*
X33657500Y-47297800D01*
X33403500Y-47297800D01*
X33403500Y-47277800D01*
X32429250Y-47277800D01*
X32270500Y-47436550D01*
X32267428Y-47650800D01*
X32279688Y-47775282D01*
X32315998Y-47894980D01*
X32374963Y-48005294D01*
X32454315Y-48101985D01*
X32513796Y-48150800D01*
X32454315Y-48199615D01*
X32374963Y-48296306D01*
X32315998Y-48406620D01*
X32314073Y-48412967D01*
X32285304Y-48415800D01*
X32285295Y-48415800D01*
X32177315Y-48426435D01*
X32038767Y-48468463D01*
X31911080Y-48536713D01*
X31799162Y-48628562D01*
X31776146Y-48656607D01*
X26905600Y-53527154D01*
X26905600Y-48161665D01*
X27547940Y-48161665D01*
X27614920Y-48401756D01*
X27863948Y-48518856D01*
X28131035Y-48585123D01*
X28405917Y-48598010D01*
X28678033Y-48557022D01*
X28936923Y-48463736D01*
X29052880Y-48401756D01*
X29119860Y-48161665D01*
X28333900Y-47375705D01*
X27547940Y-48161665D01*
X26905600Y-48161665D01*
X26905600Y-47268117D01*
X26931990Y-47268117D01*
X26972978Y-47540233D01*
X27066264Y-47799123D01*
X27128244Y-47915080D01*
X27368335Y-47982060D01*
X28154295Y-47196100D01*
X28513505Y-47196100D01*
X29299465Y-47982060D01*
X29539556Y-47915080D01*
X29656656Y-47666052D01*
X29722923Y-47398965D01*
X29735810Y-47124083D01*
X29694822Y-46851967D01*
X29622336Y-46650800D01*
X32267428Y-46650800D01*
X32270500Y-46865050D01*
X32429250Y-47023800D01*
X33403500Y-47023800D01*
X33403500Y-46174550D01*
X33657500Y-46174550D01*
X33657500Y-47023800D01*
X34631750Y-47023800D01*
X34790500Y-46865050D01*
X34793572Y-46650800D01*
X34781312Y-46526318D01*
X34745002Y-46406620D01*
X34686037Y-46296306D01*
X34606685Y-46199615D01*
X34509994Y-46120263D01*
X34399680Y-46061298D01*
X34279982Y-46024988D01*
X34155500Y-46012728D01*
X33816250Y-46015800D01*
X33657500Y-46174550D01*
X33403500Y-46174550D01*
X33244750Y-46015800D01*
X32905500Y-46012728D01*
X32781018Y-46024988D01*
X32661320Y-46061298D01*
X32551006Y-46120263D01*
X32454315Y-46199615D01*
X32374963Y-46296306D01*
X32315998Y-46406620D01*
X32279688Y-46526318D01*
X32267428Y-46650800D01*
X29622336Y-46650800D01*
X29601536Y-46593077D01*
X29539556Y-46477120D01*
X29299465Y-46410140D01*
X28513505Y-47196100D01*
X28154295Y-47196100D01*
X27368335Y-46410140D01*
X27128244Y-46477120D01*
X27011144Y-46726148D01*
X26944877Y-46993235D01*
X26931990Y-47268117D01*
X26905600Y-47268117D01*
X26905600Y-43969346D01*
X32935198Y-37939749D01*
X32963237Y-37916738D01*
X32986250Y-37888697D01*
X32986253Y-37888694D01*
X33055087Y-37804820D01*
X33123337Y-37677134D01*
X33165365Y-37538585D01*
X33179556Y-37394500D01*
X33176000Y-37358395D01*
X33176000Y-33823072D01*
X33801300Y-33823072D01*
X33919446Y-33811436D01*
X33943864Y-33891933D01*
G37*
G04 #@! TD.AperFunction*
D31*
X45378301Y-48832986D02*
X45571214Y-49025899D01*
X45798057Y-49177471D01*
X46050111Y-49281875D01*
X46317689Y-49335100D01*
X46590511Y-49335100D01*
X46764954Y-49300401D01*
X46778500Y-49313947D01*
X46778500Y-51482494D01*
X46590511Y-51445100D01*
X46317689Y-51445100D01*
X46050111Y-51498325D01*
X45798057Y-51602729D01*
X45571214Y-51754301D01*
X45378301Y-51947214D01*
X45279487Y-52095100D01*
X43520758Y-52095100D01*
X43510602Y-52061620D01*
X43451637Y-51951306D01*
X43372285Y-51854615D01*
X43312804Y-51805800D01*
X43372285Y-51756985D01*
X43451637Y-51660294D01*
X43510602Y-51549980D01*
X43546912Y-51430282D01*
X43559172Y-51305800D01*
X43556100Y-51091550D01*
X43397350Y-50932800D01*
X42423100Y-50932800D01*
X42423100Y-50952800D01*
X42169100Y-50952800D01*
X42169100Y-50932800D01*
X42149100Y-50932800D01*
X42149100Y-50678800D01*
X42169100Y-50678800D01*
X42169100Y-50658800D01*
X42423100Y-50658800D01*
X42423100Y-50678800D01*
X43397350Y-50678800D01*
X43556100Y-50520050D01*
X43559172Y-50305800D01*
X43546912Y-50181318D01*
X43510602Y-50061620D01*
X43451637Y-49951306D01*
X43372285Y-49854615D01*
X43352954Y-49838750D01*
X43383037Y-49802094D01*
X43442002Y-49691780D01*
X43478312Y-49572082D01*
X43490572Y-49447600D01*
X43490572Y-48685100D01*
X45279487Y-48685100D01*
X45378301Y-48832986D01*
G04 #@! TA.AperFunction,Conductor*
D32*
G36*
X45378301Y-48832986D02*
G01*
X45571214Y-49025899D01*
X45798057Y-49177471D01*
X46050111Y-49281875D01*
X46317689Y-49335100D01*
X46590511Y-49335100D01*
X46764954Y-49300401D01*
X46778500Y-49313947D01*
X46778500Y-51482494D01*
X46590511Y-51445100D01*
X46317689Y-51445100D01*
X46050111Y-51498325D01*
X45798057Y-51602729D01*
X45571214Y-51754301D01*
X45378301Y-51947214D01*
X45279487Y-52095100D01*
X43520758Y-52095100D01*
X43510602Y-52061620D01*
X43451637Y-51951306D01*
X43372285Y-51854615D01*
X43312804Y-51805800D01*
X43372285Y-51756985D01*
X43451637Y-51660294D01*
X43510602Y-51549980D01*
X43546912Y-51430282D01*
X43559172Y-51305800D01*
X43556100Y-51091550D01*
X43397350Y-50932800D01*
X42423100Y-50932800D01*
X42423100Y-50952800D01*
X42169100Y-50952800D01*
X42169100Y-50932800D01*
X42149100Y-50932800D01*
X42149100Y-50678800D01*
X42169100Y-50678800D01*
X42169100Y-50658800D01*
X42423100Y-50658800D01*
X42423100Y-50678800D01*
X43397350Y-50678800D01*
X43556100Y-50520050D01*
X43559172Y-50305800D01*
X43546912Y-50181318D01*
X43510602Y-50061620D01*
X43451637Y-49951306D01*
X43372285Y-49854615D01*
X43352954Y-49838750D01*
X43383037Y-49802094D01*
X43442002Y-49691780D01*
X43478312Y-49572082D01*
X43490572Y-49447600D01*
X43490572Y-48685100D01*
X45279487Y-48685100D01*
X45378301Y-48832986D01*
G37*
G04 #@! TD.AperFunction*
M02*
