G04 #@! TF.GenerationSoftware,KiCad,Pcbnew,5.1.6-c6e7f7d~87~ubuntu18.04.1*
G04 #@! TF.CreationDate,2020-07-19T23:01:31+05:30*
G04 #@! TF.ProjectId,Sensor_pcb_v1,53656e73-6f72-45f7-9063-625f76312e6b,rev?*
G04 #@! TF.SameCoordinates,Original*
G04 #@! TF.FileFunction,Copper,L1,Top*
G04 #@! TF.FilePolarity,Positive*
%FSLAX46Y46*%
G04 Gerber Fmt 4.6, Leading zero omitted, Abs format (unit mm)*
G04 Created by KiCad (PCBNEW 5.1.6-c6e7f7d~87~ubuntu18.04.1) date 2020-07-19 23:01:31*
%MOMM*%
%LPD*%
G01*
G04 APERTURE LIST*
G04 #@! TA.AperFunction,ComponentPad*
%ADD10R,1.700000X1.700000*%
G04 #@! TD*
G04 #@! TA.AperFunction,ComponentPad*
%ADD11O,1.700000X1.700000*%
G04 #@! TD*
G04 #@! TA.AperFunction,ComponentPad*
%ADD12C,1.524000*%
G04 #@! TD*
G04 #@! TA.AperFunction,ComponentPad*
%ADD13C,2.000000*%
G04 #@! TD*
G04 #@! TA.AperFunction,ComponentPad*
%ADD14R,1.600000X1.600000*%
G04 #@! TD*
G04 #@! TA.AperFunction,ComponentPad*
%ADD15O,1.600000X1.600000*%
G04 #@! TD*
G04 #@! TA.AperFunction,SMDPad,CuDef*
%ADD16R,0.800000X0.900000*%
G04 #@! TD*
G04 #@! TA.AperFunction,ComponentPad*
%ADD17O,1.800000X1.800000*%
G04 #@! TD*
G04 #@! TA.AperFunction,ComponentPad*
%ADD18R,1.800000X1.800000*%
G04 #@! TD*
G04 #@! TA.AperFunction,SMDPad,CuDef*
%ADD19R,0.760000X1.600000*%
G04 #@! TD*
G04 #@! TA.AperFunction,SMDPad,CuDef*
%ADD20R,0.230000X1.000000*%
G04 #@! TD*
G04 #@! TA.AperFunction,SMDPad,CuDef*
%ADD21R,1.000000X0.230000*%
G04 #@! TD*
G04 #@! TA.AperFunction,ComponentPad*
%ADD22C,1.500000*%
G04 #@! TD*
G04 #@! TA.AperFunction,ViaPad*
%ADD23C,3.000000*%
G04 #@! TD*
G04 #@! TA.AperFunction,ViaPad*
%ADD24C,0.800000*%
G04 #@! TD*
G04 #@! TA.AperFunction,Conductor*
%ADD25C,0.250000*%
G04 #@! TD*
G04 APERTURE END LIST*
D10*
X67050000Y-56420000D03*
X24860000Y-32700000D03*
D11*
X24860000Y-35240000D03*
X24860000Y-37780000D03*
X24860000Y-40320000D03*
D12*
X33340000Y-57800000D03*
X30800000Y-57810000D03*
X41510000Y-57740000D03*
X38970000Y-57750000D03*
D13*
X38680000Y-51570000D03*
X38680000Y-47070000D03*
X45180000Y-51570000D03*
X45180000Y-47070000D03*
D14*
X32460000Y-46060000D03*
D15*
X27380000Y-53680000D03*
X29920000Y-46060000D03*
X29920000Y-53680000D03*
X27380000Y-46060000D03*
X32460000Y-53680000D03*
D16*
X46490000Y-54630000D03*
X48590000Y-54630000D03*
D12*
X60410000Y-26090000D03*
X55330000Y-25890000D03*
X65490000Y-25890000D03*
X65490000Y-28430000D03*
X60410000Y-28430000D03*
X55330000Y-28430000D03*
D11*
X65760000Y-43500000D03*
X65760000Y-40960000D03*
X65760000Y-38420000D03*
X65760000Y-35880000D03*
D10*
X65760000Y-33340000D03*
D11*
X49170000Y-20450000D03*
X46630000Y-20450000D03*
X44090000Y-20450000D03*
D10*
X41550000Y-20450000D03*
D17*
X63140000Y-20710000D03*
D18*
X58060000Y-20710000D03*
D19*
X38960000Y-40370000D03*
X38960000Y-32750000D03*
D20*
X49704000Y-31024000D03*
D21*
X43354000Y-32294000D03*
X43354000Y-32802000D03*
X43354000Y-33310000D03*
X43354000Y-33818000D03*
X43354000Y-34326000D03*
X43354000Y-34834000D03*
X43354000Y-35342000D03*
X43354000Y-35850000D03*
X43354000Y-36358000D03*
X43354000Y-36866000D03*
X43354000Y-37374000D03*
X43354000Y-37882000D03*
D20*
X44624000Y-39152000D03*
X45132000Y-39152000D03*
X46148000Y-39152000D03*
X46656000Y-39152000D03*
X47164000Y-39152000D03*
X47672000Y-39152000D03*
X48180000Y-39152000D03*
X48688000Y-39152000D03*
X49196000Y-39152000D03*
X49704000Y-39152000D03*
X50212000Y-39152000D03*
D21*
X51482000Y-37374000D03*
X51482000Y-36866000D03*
X51482000Y-36358000D03*
X51482000Y-35850000D03*
X51482000Y-35342000D03*
X51482000Y-34834000D03*
X51482000Y-34326000D03*
X51482000Y-33818000D03*
X51482000Y-33310000D03*
X51482000Y-32802000D03*
X51482000Y-32294000D03*
D20*
X50212000Y-31024000D03*
X49196000Y-31024000D03*
X48688000Y-31024000D03*
X48180000Y-31024000D03*
X47672000Y-31024000D03*
X47164000Y-31024000D03*
X46656000Y-31024000D03*
X46148000Y-31024000D03*
X45640000Y-31024000D03*
X45132000Y-31024000D03*
X44624000Y-31024000D03*
D21*
X51482000Y-37882000D03*
D20*
X45640000Y-39152000D03*
D12*
X28100000Y-40000000D03*
X28100000Y-37460000D03*
X28100000Y-34920000D03*
X28100000Y-32380000D03*
D22*
X40730000Y-25540000D03*
X45610000Y-25540000D03*
X27460000Y-26060000D03*
X31686204Y-23620000D03*
D23*
X24830000Y-20910000D03*
X67280000Y-20910000D03*
X67280000Y-60640000D03*
X24640000Y-60640000D03*
D24*
X37064900Y-31309200D03*
X46660000Y-34417300D03*
X41262000Y-33939100D03*
X48760900Y-40392300D03*
X51775700Y-48669800D03*
X54420000Y-53480600D03*
X62393700Y-45314900D03*
X55178300Y-43616500D03*
X56739200Y-41923900D03*
X53694900Y-44054900D03*
X42901500Y-50830300D03*
X40137700Y-37173800D03*
X52996800Y-49871100D03*
D25*
X51482000Y-32802000D02*
X46084700Y-32802000D01*
X46084700Y-32802000D02*
X45132000Y-31849300D01*
X65490000Y-25890000D02*
X64037400Y-27342600D01*
X64037400Y-27342600D02*
X56417400Y-27342600D01*
X56417400Y-27342600D02*
X55330000Y-28430000D01*
X45132000Y-31024000D02*
X45132000Y-31849300D01*
X43259200Y-35850000D02*
X43354000Y-35850000D01*
X55330000Y-28430000D02*
X55330000Y-29779300D01*
X55330000Y-29779300D02*
X52307300Y-32802000D01*
X38970000Y-57750000D02*
X37918100Y-56698100D01*
X37918100Y-56698100D02*
X31911900Y-56698100D01*
X31911900Y-56698100D02*
X30800000Y-57810000D01*
X64584700Y-43500000D02*
X61062000Y-39977300D01*
X61062000Y-39977300D02*
X49704000Y-39977300D01*
X43259200Y-35850000D02*
X42528700Y-35850000D01*
X51482000Y-32802000D02*
X52307300Y-32802000D01*
X49704000Y-39152000D02*
X49704000Y-39977300D01*
X28100000Y-37460000D02*
X37175300Y-37460000D01*
X37175300Y-37460000D02*
X38960000Y-39244700D01*
X38960000Y-40370000D02*
X38960000Y-39244700D01*
X42528700Y-35850000D02*
X39134000Y-39244700D01*
X39134000Y-39244700D02*
X38960000Y-39244700D01*
X65760000Y-43500000D02*
X64584700Y-43500000D01*
X38960000Y-32750000D02*
X38254700Y-32750000D01*
X38254700Y-32750000D02*
X38254700Y-32499000D01*
X38254700Y-32499000D02*
X37064900Y-31309200D01*
X39103900Y-32750000D02*
X38960000Y-32750000D01*
X39103900Y-32750000D02*
X39247800Y-32750000D01*
X39312700Y-32750000D02*
X39665300Y-32750000D01*
X39312700Y-32750000D02*
X39247800Y-32750000D01*
X39665300Y-32750000D02*
X39665300Y-33421900D01*
X39665300Y-33421900D02*
X41585400Y-35342000D01*
X41585400Y-35342000D02*
X42528700Y-35342000D01*
X43354000Y-35342000D02*
X42528700Y-35342000D01*
X45610000Y-25540000D02*
X44179300Y-26970700D01*
X44179300Y-26970700D02*
X44179300Y-30831800D01*
X44179300Y-30831800D02*
X44173700Y-30837400D01*
X44173700Y-30837400D02*
X44173700Y-31210600D01*
X44173700Y-31210600D02*
X44179300Y-31216200D01*
X44179300Y-31216200D02*
X44179300Y-33310000D01*
X43354000Y-33310000D02*
X44179300Y-33310000D01*
X43354000Y-33818000D02*
X42528700Y-33818000D01*
X40730000Y-25540000D02*
X42528700Y-27338700D01*
X42528700Y-27338700D02*
X42528700Y-33818000D01*
X43354000Y-34326000D02*
X46568700Y-34326000D01*
X46568700Y-34326000D02*
X46660000Y-34417300D01*
X27460000Y-26060000D02*
X34452400Y-26060000D01*
X34452400Y-26060000D02*
X42003000Y-33610600D01*
X42003000Y-33610600D02*
X42003000Y-33935000D01*
X42003000Y-33935000D02*
X42394000Y-34326000D01*
X42394000Y-34326000D02*
X43354000Y-34326000D01*
X41262000Y-33939100D02*
X42156900Y-34834000D01*
X42156900Y-34834000D02*
X43354000Y-34834000D01*
X27380000Y-46060000D02*
X27380000Y-53680000D01*
X47419700Y-36358000D02*
X48243300Y-36358000D01*
X48243300Y-36358000D02*
X50212000Y-38326700D01*
X43354000Y-36358000D02*
X47419700Y-36358000D01*
X44624000Y-31024000D02*
X44629700Y-31029700D01*
X44629700Y-31029700D02*
X44629700Y-31998300D01*
X44629700Y-31998300D02*
X45944200Y-33312800D01*
X45944200Y-33312800D02*
X46596100Y-33312800D01*
X46596100Y-33312800D02*
X47419700Y-34136400D01*
X47419700Y-34136400D02*
X47419700Y-36358000D01*
X29275400Y-41495400D02*
X39492200Y-41495400D01*
X39492200Y-41495400D02*
X40729700Y-40257900D01*
X40729700Y-40257900D02*
X40729700Y-38372900D01*
X40729700Y-38372900D02*
X42744600Y-36358000D01*
X42744600Y-36358000D02*
X43354000Y-36358000D01*
X28100000Y-40320000D02*
X29275400Y-41495400D01*
X28100000Y-40000000D02*
X28100000Y-40320000D01*
X28100000Y-40320000D02*
X26035300Y-40320000D01*
X24860000Y-40320000D02*
X26035300Y-40320000D01*
X38680000Y-51570000D02*
X33803100Y-51570000D01*
X33803100Y-51570000D02*
X28768200Y-46535100D01*
X28768200Y-46535100D02*
X28768200Y-42002600D01*
X28768200Y-42002600D02*
X29275400Y-41495400D01*
X51482000Y-32294000D02*
X53825700Y-29950300D01*
X53825700Y-29950300D02*
X53825700Y-28384700D01*
X53825700Y-28384700D02*
X55050400Y-27160000D01*
X55050400Y-27160000D02*
X55963100Y-27160000D01*
X55963100Y-27160000D02*
X57033100Y-26090000D01*
X57033100Y-26090000D02*
X60410000Y-26090000D01*
X65760000Y-38420000D02*
X64584700Y-38420000D01*
X50212000Y-39152000D02*
X50212000Y-38326700D01*
X64584700Y-38420000D02*
X64491400Y-38326700D01*
X64491400Y-38326700D02*
X50212000Y-38326700D01*
X46656000Y-31024000D02*
X46656000Y-31849300D01*
X46656000Y-31849300D02*
X50482100Y-31849300D01*
X50482100Y-31849300D02*
X53375400Y-28956000D01*
X53375400Y-28956000D02*
X53375400Y-27844600D01*
X53375400Y-27844600D02*
X55330000Y-25890000D01*
X48180000Y-39152000D02*
X48180000Y-39977300D01*
X48180000Y-39977300D02*
X48345900Y-39977300D01*
X48345900Y-39977300D02*
X48760900Y-40392300D01*
X65760000Y-35880000D02*
X64584700Y-35880000D01*
X51482000Y-34834000D02*
X63538700Y-34834000D01*
X63538700Y-34834000D02*
X64584700Y-35880000D01*
X65760000Y-33340000D02*
X65760000Y-34515300D01*
X51482000Y-35342000D02*
X52307300Y-35342000D01*
X52307300Y-35342000D02*
X54025400Y-37060100D01*
X54025400Y-37060100D02*
X66272400Y-37060100D01*
X66272400Y-37060100D02*
X66935300Y-36397200D01*
X66935300Y-36397200D02*
X66935300Y-35323200D01*
X66935300Y-35323200D02*
X66127400Y-34515300D01*
X66127400Y-34515300D02*
X65760000Y-34515300D01*
X47805300Y-20450000D02*
X47805300Y-20817300D01*
X47805300Y-20817300D02*
X49990900Y-23002900D01*
X49990900Y-23002900D02*
X64188500Y-23002900D01*
X64188500Y-23002900D02*
X66612700Y-25427100D01*
X66612700Y-25427100D02*
X66612700Y-26357900D01*
X66612700Y-26357900D02*
X65791500Y-27179100D01*
X65791500Y-27179100D02*
X65202900Y-27179100D01*
X65202900Y-27179100D02*
X59072000Y-33310000D01*
X59072000Y-33310000D02*
X51482000Y-33310000D01*
X46630000Y-20450000D02*
X47805300Y-20450000D01*
X50212000Y-31024000D02*
X50212000Y-30198700D01*
X44090000Y-20450000D02*
X50212000Y-26572000D01*
X50212000Y-26572000D02*
X50212000Y-30198700D01*
X58060000Y-20710000D02*
X59285300Y-20710000D01*
X47164000Y-39152000D02*
X47164000Y-39848400D01*
X47164000Y-39848400D02*
X48464600Y-41149000D01*
X48464600Y-41149000D02*
X60124900Y-41149000D01*
X60124900Y-41149000D02*
X63687400Y-44711500D01*
X63687400Y-44711500D02*
X66231300Y-44711500D01*
X66231300Y-44711500D02*
X67394100Y-43548700D01*
X67394100Y-43548700D02*
X67394100Y-25571500D01*
X67394100Y-25571500D02*
X63757900Y-21935300D01*
X63757900Y-21935300D02*
X60510600Y-21935300D01*
X60510600Y-21935300D02*
X59285300Y-20710000D01*
X44179300Y-37882000D02*
X44179300Y-38212200D01*
X44179300Y-38212200D02*
X44106600Y-38284900D01*
X44106600Y-38284900D02*
X44106600Y-41000700D01*
X44106600Y-41000700D02*
X51775700Y-48669800D01*
X43354000Y-37882000D02*
X44179300Y-37882000D01*
X44624000Y-39152000D02*
X44624000Y-40684900D01*
X44624000Y-40684900D02*
X49866400Y-45927300D01*
X49866400Y-45927300D02*
X50091500Y-45927300D01*
X50091500Y-45927300D02*
X54419900Y-50255700D01*
X54419900Y-50255700D02*
X54419900Y-53480600D01*
X54419900Y-53480600D02*
X54420000Y-53480600D01*
X45132000Y-39152000D02*
X45132000Y-40501300D01*
X45132000Y-40501300D02*
X49945600Y-45314900D01*
X49945600Y-45314900D02*
X62393700Y-45314900D01*
X46148000Y-39152000D02*
X46148000Y-40172800D01*
X46148000Y-40172800D02*
X49304800Y-43329600D01*
X49304800Y-43329600D02*
X54891400Y-43329600D01*
X54891400Y-43329600D02*
X55178300Y-43616500D01*
X46656000Y-39977300D02*
X48602600Y-41923900D01*
X48602600Y-41923900D02*
X56739200Y-41923900D01*
X46656000Y-39152000D02*
X46656000Y-39977300D01*
X28100000Y-34920000D02*
X26122100Y-32942100D01*
X26122100Y-32942100D02*
X26122100Y-30720400D01*
X26122100Y-30720400D02*
X25826200Y-30424500D01*
X25826200Y-30424500D02*
X25826200Y-25512200D01*
X25826200Y-25512200D02*
X28812400Y-22526000D01*
X28812400Y-22526000D02*
X44824600Y-22526000D01*
X44824600Y-22526000D02*
X47199400Y-24900800D01*
X47199400Y-24900800D02*
X47199400Y-27552100D01*
X47199400Y-27552100D02*
X46148000Y-28603500D01*
X46148000Y-28603500D02*
X46148000Y-31024000D01*
X28100000Y-32380000D02*
X28100000Y-31743100D01*
X28100000Y-31743100D02*
X26347200Y-29990300D01*
X26347200Y-29990300D02*
X26347200Y-25639100D01*
X26347200Y-25639100D02*
X27005100Y-24981200D01*
X27005100Y-24981200D02*
X39668600Y-24981200D01*
X39668600Y-24981200D02*
X40242400Y-24407400D01*
X40242400Y-24407400D02*
X46008200Y-24407400D01*
X46008200Y-24407400D02*
X46749000Y-25148200D01*
X46749000Y-25148200D02*
X46749000Y-26728700D01*
X46749000Y-26728700D02*
X45640000Y-27837700D01*
X45640000Y-27837700D02*
X45640000Y-31024000D01*
X45640000Y-39152000D02*
X45640000Y-40372400D01*
X45640000Y-40372400D02*
X49322500Y-44054900D01*
X49322500Y-44054900D02*
X53694900Y-44054900D01*
X42901500Y-50830300D02*
X42901500Y-51766800D01*
X42901500Y-51766800D02*
X45764700Y-54630000D01*
X46490000Y-54630000D02*
X45764700Y-54630000D01*
X29920000Y-46060000D02*
X31045300Y-46060000D01*
X38680000Y-47070000D02*
X38564700Y-47185300D01*
X38564700Y-47185300D02*
X31467200Y-47185300D01*
X31467200Y-47185300D02*
X31045300Y-46763400D01*
X31045300Y-46763400D02*
X31045300Y-46060000D01*
X45180000Y-47070000D02*
X38680000Y-47070000D01*
X48590000Y-54630000D02*
X48590000Y-50480000D01*
X48590000Y-50480000D02*
X45180000Y-47070000D01*
X26035300Y-35240000D02*
X26866400Y-36071100D01*
X26866400Y-36071100D02*
X39035000Y-36071100D01*
X39035000Y-36071100D02*
X40137700Y-37173800D01*
X24860000Y-35240000D02*
X26035300Y-35240000D01*
X24860000Y-36604700D02*
X24492600Y-36604700D01*
X24492600Y-36604700D02*
X23684700Y-35796800D01*
X23684700Y-35796800D02*
X23684700Y-26987400D01*
X23684700Y-26987400D02*
X28627800Y-22044300D01*
X28627800Y-22044300D02*
X44979800Y-22044300D01*
X44979800Y-22044300D02*
X48688000Y-25752500D01*
X48688000Y-25752500D02*
X48688000Y-31024000D01*
X24860000Y-37780000D02*
X24860000Y-36604700D01*
X42528700Y-37374000D02*
X42528700Y-40477800D01*
X42528700Y-40477800D02*
X51922000Y-49871100D01*
X51922000Y-49871100D02*
X52996800Y-49871100D01*
X43354000Y-37374000D02*
X42528700Y-37374000D01*
M02*
