G04 #@! TF.GenerationSoftware,KiCad,Pcbnew,5.1.6-c6e7f7d~87~ubuntu18.04.1*
G04 #@! TF.CreationDate,2020-07-19T23:01:31+05:30*
G04 #@! TF.ProjectId,Sensor_pcb_v1,53656e73-6f72-45f7-9063-625f76312e6b,rev?*
G04 #@! TF.SameCoordinates,Original*
G04 #@! TF.FileFunction,Paste,Bot*
G04 #@! TF.FilePolarity,Positive*
%FSLAX46Y46*%
G04 Gerber Fmt 4.6, Leading zero omitted, Abs format (unit mm)*
G04 Created by KiCad (PCBNEW 5.1.6-c6e7f7d~87~ubuntu18.04.1) date 2020-07-19 23:01:31*
%MOMM*%
%LPD*%
G01*
G04 APERTURE LIST*
%ADD10R,1.300000X0.700000*%
%ADD11R,0.700000X1.300000*%
%ADD12R,1.200000X1.700000*%
%ADD13R,1.000000X1.250000*%
%ADD14R,1.250000X1.000000*%
%ADD15R,0.900000X0.800000*%
%ADD16R,0.650000X1.060000*%
%ADD17R,0.230000X1.000000*%
%ADD18R,1.000000X0.230000*%
G04 APERTURE END LIST*
D10*
X55030000Y-42640000D03*
X55030000Y-40740000D03*
D11*
X54830000Y-36800000D03*
X56730000Y-36800000D03*
D12*
X64420000Y-46780000D03*
X62420000Y-46780000D03*
X60420000Y-46780000D03*
X58420000Y-46780000D03*
X56420000Y-46780000D03*
X54420000Y-46780000D03*
X52420000Y-46780000D03*
X50420000Y-46780000D03*
X50420000Y-60980000D03*
X52420000Y-60980000D03*
X54420000Y-60980000D03*
X56420000Y-60980000D03*
X58420000Y-60980000D03*
X60420000Y-60980000D03*
X62420000Y-60980000D03*
X64420000Y-60980000D03*
D13*
X35460000Y-32560000D03*
X37460000Y-32560000D03*
X35390000Y-29410000D03*
X33390000Y-29410000D03*
D14*
X45410000Y-36080000D03*
X45410000Y-34080000D03*
X47910000Y-34080000D03*
X47910000Y-36080000D03*
D13*
X37960000Y-29060000D03*
X39960000Y-29060000D03*
D14*
X47620000Y-61710000D03*
X47620000Y-59710000D03*
X30600000Y-42030000D03*
X30600000Y-44030000D03*
D15*
X45240000Y-58400000D03*
X45240000Y-56300000D03*
D10*
X30960000Y-34060000D03*
X30960000Y-32160000D03*
X49910000Y-34130000D03*
X49910000Y-36030000D03*
X41900000Y-41470000D03*
X41900000Y-43370000D03*
D11*
X52930000Y-21090000D03*
X54830000Y-21090000D03*
D16*
X34510000Y-41960000D03*
X35460000Y-41960000D03*
X36410000Y-41960000D03*
X36410000Y-44160000D03*
X34510000Y-44160000D03*
D17*
X49704000Y-31024000D03*
D18*
X43354000Y-32294000D03*
X43354000Y-32802000D03*
X43354000Y-33310000D03*
X43354000Y-33818000D03*
X43354000Y-34326000D03*
X43354000Y-34834000D03*
X43354000Y-35342000D03*
X43354000Y-35850000D03*
X43354000Y-36358000D03*
X43354000Y-36866000D03*
X43354000Y-37374000D03*
X43354000Y-37882000D03*
D17*
X44624000Y-39152000D03*
X45132000Y-39152000D03*
X46148000Y-39152000D03*
X46656000Y-39152000D03*
X47164000Y-39152000D03*
X47672000Y-39152000D03*
X48180000Y-39152000D03*
X48688000Y-39152000D03*
X49196000Y-39152000D03*
X49704000Y-39152000D03*
X50212000Y-39152000D03*
D18*
X51482000Y-37374000D03*
X51482000Y-36866000D03*
X51482000Y-36358000D03*
X51482000Y-35850000D03*
X51482000Y-35342000D03*
X51482000Y-34834000D03*
X51482000Y-34326000D03*
X51482000Y-33818000D03*
X51482000Y-33310000D03*
X51482000Y-32802000D03*
X51482000Y-32294000D03*
D17*
X50212000Y-31024000D03*
X49196000Y-31024000D03*
X48688000Y-31024000D03*
X48180000Y-31024000D03*
X47672000Y-31024000D03*
X47164000Y-31024000D03*
X46656000Y-31024000D03*
X46148000Y-31024000D03*
X45640000Y-31024000D03*
X45132000Y-31024000D03*
X44624000Y-31024000D03*
D18*
X51482000Y-37882000D03*
D17*
X45640000Y-39152000D03*
M02*
