G04 #@! TF.GenerationSoftware,KiCad,Pcbnew,5.1.6-c6e7f7d~87~ubuntu18.04.1*
G04 #@! TF.CreationDate,2020-07-19T23:01:31+05:30*
G04 #@! TF.ProjectId,Sensor_pcb_v1,53656e73-6f72-45f7-9063-625f76312e6b,rev?*
G04 #@! TF.SameCoordinates,Original*
G04 #@! TF.FileFunction,Soldermask,Bot*
G04 #@! TF.FilePolarity,Negative*
%FSLAX46Y46*%
G04 Gerber Fmt 4.6, Leading zero omitted, Abs format (unit mm)*
G04 Created by KiCad (PCBNEW 5.1.6-c6e7f7d~87~ubuntu18.04.1) date 2020-07-19 23:01:31*
%MOMM*%
%LPD*%
G01*
G04 APERTURE LIST*
%ADD10R,1.700000X1.700000*%
%ADD11R,1.300000X0.700000*%
%ADD12R,0.700000X1.300000*%
%ADD13O,1.700000X1.700000*%
%ADD14C,1.524000*%
%ADD15C,2.000000*%
%ADD16R,1.200000X1.700000*%
%ADD17R,1.600000X1.600000*%
%ADD18O,1.600000X1.600000*%
%ADD19R,1.000000X1.250000*%
%ADD20R,1.250000X1.000000*%
%ADD21R,0.900000X0.800000*%
%ADD22O,1.800000X1.800000*%
%ADD23R,1.800000X1.800000*%
%ADD24R,0.650000X1.060000*%
%ADD25R,0.230000X1.000000*%
%ADD26R,1.000000X0.230000*%
%ADD27C,1.500000*%
G04 APERTURE END LIST*
D10*
X67050000Y-56420000D03*
D11*
X55030000Y-42640000D03*
X55030000Y-40740000D03*
D12*
X54830000Y-36800000D03*
X56730000Y-36800000D03*
D10*
X24860000Y-32700000D03*
D13*
X24860000Y-35240000D03*
X24860000Y-37780000D03*
X24860000Y-40320000D03*
D14*
X33340000Y-57800000D03*
X30800000Y-57810000D03*
X41510000Y-57740000D03*
X38970000Y-57750000D03*
D15*
X38680000Y-51570000D03*
X38680000Y-47070000D03*
X45180000Y-51570000D03*
X45180000Y-47070000D03*
D16*
X64420000Y-46780000D03*
X62420000Y-46780000D03*
X60420000Y-46780000D03*
X58420000Y-46780000D03*
X56420000Y-46780000D03*
X54420000Y-46780000D03*
X52420000Y-46780000D03*
X50420000Y-46780000D03*
X50420000Y-60980000D03*
X52420000Y-60980000D03*
X54420000Y-60980000D03*
X56420000Y-60980000D03*
X58420000Y-60980000D03*
X60420000Y-60980000D03*
X62420000Y-60980000D03*
X64420000Y-60980000D03*
D17*
X32460000Y-46060000D03*
D18*
X27380000Y-53680000D03*
X29920000Y-46060000D03*
X29920000Y-53680000D03*
X27380000Y-46060000D03*
X32460000Y-53680000D03*
D19*
X35460000Y-32560000D03*
X37460000Y-32560000D03*
X35390000Y-29410000D03*
X33390000Y-29410000D03*
D20*
X45410000Y-36080000D03*
X45410000Y-34080000D03*
X47910000Y-34080000D03*
X47910000Y-36080000D03*
D19*
X37960000Y-29060000D03*
X39960000Y-29060000D03*
D20*
X47620000Y-61710000D03*
X47620000Y-59710000D03*
X30600000Y-42030000D03*
X30600000Y-44030000D03*
D21*
X45240000Y-58400000D03*
X45240000Y-56300000D03*
D14*
X60410000Y-26090000D03*
X55330000Y-25890000D03*
X65490000Y-25890000D03*
X65490000Y-28430000D03*
X60410000Y-28430000D03*
X55330000Y-28430000D03*
D13*
X65760000Y-43500000D03*
X65760000Y-40960000D03*
X65760000Y-38420000D03*
X65760000Y-35880000D03*
D10*
X65760000Y-33340000D03*
D13*
X49170000Y-20450000D03*
X46630000Y-20450000D03*
X44090000Y-20450000D03*
D10*
X41550000Y-20450000D03*
D11*
X30960000Y-34060000D03*
X30960000Y-32160000D03*
X49910000Y-34130000D03*
X49910000Y-36030000D03*
X41900000Y-41470000D03*
X41900000Y-43370000D03*
D12*
X52930000Y-21090000D03*
X54830000Y-21090000D03*
D22*
X63140000Y-20710000D03*
D23*
X58060000Y-20710000D03*
D24*
X34510000Y-41960000D03*
X35460000Y-41960000D03*
X36410000Y-41960000D03*
X36410000Y-44160000D03*
X34510000Y-44160000D03*
D25*
X49704000Y-31024000D03*
D26*
X43354000Y-32294000D03*
X43354000Y-32802000D03*
X43354000Y-33310000D03*
X43354000Y-33818000D03*
X43354000Y-34326000D03*
X43354000Y-34834000D03*
X43354000Y-35342000D03*
X43354000Y-35850000D03*
X43354000Y-36358000D03*
X43354000Y-36866000D03*
X43354000Y-37374000D03*
X43354000Y-37882000D03*
D25*
X44624000Y-39152000D03*
X45132000Y-39152000D03*
X46148000Y-39152000D03*
X46656000Y-39152000D03*
X47164000Y-39152000D03*
X47672000Y-39152000D03*
X48180000Y-39152000D03*
X48688000Y-39152000D03*
X49196000Y-39152000D03*
X49704000Y-39152000D03*
X50212000Y-39152000D03*
D26*
X51482000Y-37374000D03*
X51482000Y-36866000D03*
X51482000Y-36358000D03*
X51482000Y-35850000D03*
X51482000Y-35342000D03*
X51482000Y-34834000D03*
X51482000Y-34326000D03*
X51482000Y-33818000D03*
X51482000Y-33310000D03*
X51482000Y-32802000D03*
X51482000Y-32294000D03*
D25*
X50212000Y-31024000D03*
X49196000Y-31024000D03*
X48688000Y-31024000D03*
X48180000Y-31024000D03*
X47672000Y-31024000D03*
X47164000Y-31024000D03*
X46656000Y-31024000D03*
X46148000Y-31024000D03*
X45640000Y-31024000D03*
X45132000Y-31024000D03*
X44624000Y-31024000D03*
D26*
X51482000Y-37882000D03*
D25*
X45640000Y-39152000D03*
D14*
X28100000Y-40000000D03*
X28100000Y-37460000D03*
X28100000Y-34920000D03*
X28100000Y-32380000D03*
D27*
X40730000Y-25540000D03*
X45610000Y-25540000D03*
X27460000Y-26060000D03*
X31686204Y-23620000D03*
M02*
