M48
; DRILL file {KiCad 5.1.6-c6e7f7d~87~ubuntu18.04.1} date Sun Jul 19 23:01:54 2020
; FORMAT={-:-/ absolute / metric / decimal}
; #@! TF.CreationDate,2020-07-19T23:01:54+05:30
; #@! TF.GenerationSoftware,Kicad,Pcbnew,5.1.6-c6e7f7d~87~ubuntu18.04.1
FMAT,2
METRIC
T1C0.400
T2C0.762
T3C0.800
T4C0.900
T5C1.000
T6C1.100
T7C2.000
%
G90
G05
T1
X37.065Y-31.309
X40.138Y-37.174
X41.262Y-33.939
X42.901Y-50.83
X46.66Y-34.417
X48.761Y-40.392
X51.776Y-48.67
X52.997Y-49.871
X53.695Y-44.055
X54.42Y-53.481
X55.178Y-43.616
X56.739Y-41.924
X62.394Y-45.315
T2
X28.1Y-32.38
X28.1Y-34.92
X28.1Y-37.46
X28.1Y-40.0
X55.33Y-25.89
X55.33Y-28.43
X60.41Y-26.09
X60.41Y-28.43
X65.49Y-25.89
X65.49Y-28.43
X30.8Y-57.81
X33.34Y-57.8
X38.97Y-57.75
X41.51Y-57.74
T3
X27.38Y-46.06
X27.38Y-53.68
X29.92Y-46.06
X29.92Y-53.68
X32.46Y-46.06
X32.46Y-53.68
X27.46Y-26.06
X31.686Y-23.62
X40.73Y-25.54
X45.61Y-25.54
T4
X58.06Y-20.71
X63.14Y-20.71
T5
X24.86Y-32.7
X24.86Y-35.24
X24.86Y-37.78
X24.86Y-40.32
X67.05Y-56.42
X65.76Y-33.34
X65.76Y-35.88
X65.76Y-38.42
X65.76Y-40.96
X65.76Y-43.5
X41.55Y-20.45
X44.09Y-20.45
X46.63Y-20.45
X49.17Y-20.45
T6
X38.68Y-47.07
X38.68Y-51.57
X45.18Y-47.07
X45.18Y-51.57
T7
X24.64Y-60.64
X24.83Y-20.91
X67.28Y-20.91
X67.28Y-60.64
T0
M30
