G04 #@! TF.GenerationSoftware,KiCad,Pcbnew,5.1.6-c6e7f7d~87~ubuntu18.04.1*
G04 #@! TF.CreationDate,2020-07-22T22:23:17+05:30*
G04 #@! TF.ProjectId,Sensor_pcb_v1,53656e73-6f72-45f7-9063-625f76312e6b,rev?*
G04 #@! TF.SameCoordinates,Original*
G04 #@! TF.FileFunction,Copper,L2,Bot*
G04 #@! TF.FilePolarity,Positive*
%FSLAX46Y46*%
G04 Gerber Fmt 4.6, Leading zero omitted, Abs format (unit mm)*
G04 Created by KiCad (PCBNEW 5.1.6-c6e7f7d~87~ubuntu18.04.1) date 2020-07-22 22:23:17*
%MOMM*%
%LPD*%
G01*
G04 APERTURE LIST*
G04 #@! TA.AperFunction,ComponentPad*
%ADD10C,1.524000*%
G04 #@! TD*
G04 #@! TA.AperFunction,SMDPad,CuDef*
%ADD11R,1.200000X1.700000*%
G04 #@! TD*
G04 #@! TA.AperFunction,ComponentPad*
%ADD12R,1.700000X1.700000*%
G04 #@! TD*
G04 #@! TA.AperFunction,SMDPad,CuDef*
%ADD13R,1.300000X0.700000*%
G04 #@! TD*
G04 #@! TA.AperFunction,SMDPad,CuDef*
%ADD14R,0.700000X1.300000*%
G04 #@! TD*
G04 #@! TA.AperFunction,ComponentPad*
%ADD15O,1.700000X1.700000*%
G04 #@! TD*
G04 #@! TA.AperFunction,ComponentPad*
%ADD16C,2.000000*%
G04 #@! TD*
G04 #@! TA.AperFunction,ComponentPad*
%ADD17R,1.600000X1.600000*%
G04 #@! TD*
G04 #@! TA.AperFunction,ComponentPad*
%ADD18O,1.600000X1.600000*%
G04 #@! TD*
G04 #@! TA.AperFunction,SMDPad,CuDef*
%ADD19R,1.000000X1.250000*%
G04 #@! TD*
G04 #@! TA.AperFunction,SMDPad,CuDef*
%ADD20R,1.250000X1.000000*%
G04 #@! TD*
G04 #@! TA.AperFunction,SMDPad,CuDef*
%ADD21R,0.900000X0.800000*%
G04 #@! TD*
G04 #@! TA.AperFunction,ComponentPad*
%ADD22O,1.800000X1.800000*%
G04 #@! TD*
G04 #@! TA.AperFunction,ComponentPad*
%ADD23R,1.800000X1.800000*%
G04 #@! TD*
G04 #@! TA.AperFunction,SMDPad,CuDef*
%ADD24R,0.650000X1.060000*%
G04 #@! TD*
G04 #@! TA.AperFunction,ComponentPad*
%ADD25C,1.500000*%
G04 #@! TD*
G04 #@! TA.AperFunction,ViaPad*
%ADD26C,3.000000*%
G04 #@! TD*
G04 #@! TA.AperFunction,ViaPad*
%ADD27C,0.800000*%
G04 #@! TD*
G04 #@! TA.AperFunction,Conductor*
%ADD28C,0.250000*%
G04 #@! TD*
G04 #@! TA.AperFunction,Conductor*
%ADD29C,0.800000*%
G04 #@! TD*
G04 #@! TA.AperFunction,Conductor*
%ADD30C,0.254000*%
G04 #@! TD*
G04 APERTURE END LIST*
D10*
X60410000Y-26090000D03*
X55330000Y-25890000D03*
X65490000Y-25890000D03*
X65490000Y-28430000D03*
X60410000Y-28430000D03*
X55330000Y-28430000D03*
D11*
X64420000Y-46780000D03*
X62420000Y-46780000D03*
X60420000Y-46780000D03*
X58420000Y-46780000D03*
X56420000Y-46780000D03*
X54420000Y-46780000D03*
X52420000Y-46780000D03*
X50420000Y-46780000D03*
X50420000Y-60980000D03*
X52420000Y-60980000D03*
X54420000Y-60980000D03*
X56420000Y-60980000D03*
X58420000Y-60980000D03*
X60420000Y-60980000D03*
X62420000Y-60980000D03*
X64420000Y-60980000D03*
D12*
X67050000Y-56420000D03*
D13*
X55030000Y-42640000D03*
X55030000Y-40740000D03*
D14*
X54830000Y-36800000D03*
X56730000Y-36800000D03*
D12*
X24860000Y-32700000D03*
D15*
X24860000Y-35240000D03*
X24860000Y-37780000D03*
X24860000Y-40320000D03*
D10*
X33340000Y-57800000D03*
X30800000Y-57810000D03*
X41510000Y-57740000D03*
X38970000Y-57750000D03*
D16*
X38680000Y-51570000D03*
X38680000Y-47070000D03*
X45180000Y-51570000D03*
X45180000Y-47070000D03*
D17*
X32460000Y-46060000D03*
D18*
X27380000Y-53680000D03*
X29920000Y-46060000D03*
X29920000Y-53680000D03*
X27380000Y-46060000D03*
X32460000Y-53680000D03*
D19*
X35460000Y-32560000D03*
X37460000Y-32560000D03*
X35390000Y-29410000D03*
X33390000Y-29410000D03*
D20*
X45410000Y-36080000D03*
X45410000Y-34080000D03*
X47910000Y-34080000D03*
X47910000Y-36080000D03*
D19*
X37960000Y-29060000D03*
X39960000Y-29060000D03*
D20*
X47620000Y-61710000D03*
X47620000Y-59710000D03*
X30600000Y-42030000D03*
X30600000Y-44030000D03*
D21*
X45240000Y-58400000D03*
X45240000Y-56300000D03*
D15*
X64970000Y-43260000D03*
X64970000Y-40720000D03*
X64970000Y-38180000D03*
X64970000Y-35640000D03*
D12*
X64970000Y-33100000D03*
D15*
X49170000Y-20450000D03*
X46630000Y-20450000D03*
X44090000Y-20450000D03*
D12*
X41550000Y-20450000D03*
D13*
X30960000Y-34060000D03*
X30960000Y-32160000D03*
X49910000Y-34130000D03*
X49910000Y-36030000D03*
X41900000Y-41470000D03*
X41900000Y-43370000D03*
D14*
X52930000Y-21090000D03*
X54830000Y-21090000D03*
D22*
X63140000Y-20710000D03*
D23*
X58060000Y-20710000D03*
D24*
X34510000Y-41960000D03*
X35460000Y-41960000D03*
X36410000Y-41960000D03*
X36410000Y-44160000D03*
X34510000Y-44160000D03*
D10*
X28100000Y-40000000D03*
X28100000Y-37460000D03*
X28100000Y-34920000D03*
X28100000Y-32380000D03*
D25*
X40730000Y-25540000D03*
X45610000Y-25540000D03*
X27460000Y-26060000D03*
X31686204Y-23620000D03*
D26*
X24830000Y-20910000D03*
X67083940Y-20894040D03*
X24830000Y-60640000D03*
X67144900Y-60624720D03*
D27*
X52821000Y-36916700D03*
X39399300Y-34933700D03*
X52981992Y-32408008D03*
X53750000Y-37691700D03*
X54495700Y-56047640D03*
X60048140Y-56080660D03*
X54828440Y-22397720D03*
X47757800Y-29483600D03*
X55369460Y-31752540D03*
X58689240Y-29875480D03*
X41965880Y-39189660D03*
X53340000Y-59553300D03*
X62245200Y-45086500D03*
X47343200Y-41060000D03*
X47060600Y-37894300D03*
X47907400Y-42257400D03*
X43366100Y-47998200D03*
X51485800Y-28092400D03*
X48686720Y-28082240D03*
X41056560Y-37398960D03*
X46606460Y-35963860D03*
X46817280Y-34140140D03*
X47731680Y-57424320D03*
X31899860Y-42986960D03*
X31920180Y-40594280D03*
X38164808Y-34875192D03*
X49700000Y-37691700D03*
X60770000Y-36890000D03*
X47990000Y-32810000D03*
X45490000Y-32790000D03*
X54988460Y-57497980D03*
X62247780Y-57467500D03*
X61641732Y-41227752D03*
X59801760Y-50904140D03*
X62349380Y-50904140D03*
X39161720Y-27147520D03*
X33451800Y-25072340D03*
X36017200Y-21633180D03*
X40622220Y-33195260D03*
X40604440Y-31239460D03*
X51513740Y-30942280D03*
D28*
X67050000Y-56420000D02*
X67050000Y-56684260D01*
D29*
X64420000Y-59050000D02*
X67050000Y-56420000D01*
X64420000Y-60980000D02*
X64420000Y-59050000D01*
D28*
X39399300Y-34933700D02*
X41645700Y-34933700D01*
X41645700Y-34933700D02*
X43628700Y-36916700D01*
X37369200Y-33672500D02*
X38138100Y-33672500D01*
X38138100Y-33672500D02*
X39399300Y-34933700D01*
X30960000Y-34060000D02*
X36981700Y-34060000D01*
X36981700Y-34060000D02*
X37369200Y-33672500D01*
X37369200Y-33672500D02*
X37369200Y-32560000D01*
X37460000Y-32560000D02*
X37369200Y-32560000D01*
X44233300Y-36916700D02*
X44233300Y-37153300D01*
X43628700Y-36916700D02*
X44233300Y-36916700D01*
X44602299Y-37522299D02*
X45857701Y-37522299D01*
X44233300Y-37153300D02*
X44602299Y-37522299D01*
X46463300Y-36916700D02*
X46873300Y-36916700D01*
X45857701Y-37522299D02*
X46463300Y-36916700D01*
X49327999Y-36916699D02*
X50072001Y-36916699D01*
X47069299Y-37119299D02*
X49125399Y-37119299D01*
X49125399Y-37119299D02*
X49327999Y-36916699D01*
X46873300Y-36916700D02*
X46873300Y-36923300D01*
X46873300Y-36923300D02*
X47069299Y-37119299D01*
X50072001Y-36916699D02*
X50355302Y-37200000D01*
X51683400Y-37200000D02*
X51966700Y-36916700D01*
X50355302Y-37200000D02*
X51683400Y-37200000D01*
X51966700Y-36916700D02*
X52821000Y-36916700D01*
X35390000Y-29410000D02*
X35390000Y-28459700D01*
X45610000Y-25540000D02*
X44034500Y-23964500D01*
X36364850Y-27484850D02*
X35390000Y-28459700D01*
X36364850Y-23735150D02*
X36840000Y-23260000D01*
X36364850Y-24445150D02*
X36364850Y-24225150D01*
X36364850Y-24445150D02*
X36364850Y-23735150D01*
X36364850Y-27484850D02*
X36364850Y-24445150D01*
X36840000Y-23260000D02*
X42000000Y-23260000D01*
X43400000Y-23330000D02*
X44034500Y-23964500D01*
X42070000Y-23330000D02*
X43400000Y-23330000D01*
X42000000Y-23260000D02*
X42070000Y-23330000D01*
X45410000Y-34080000D02*
X45410000Y-33890000D01*
X44480000Y-32960000D02*
X44480000Y-29290000D01*
X45410000Y-33890000D02*
X44480000Y-32960000D01*
X40730000Y-25540000D02*
X44480000Y-29290000D01*
X49910000Y-34805300D02*
X49460700Y-35254600D01*
X49460700Y-35254600D02*
X47910000Y-35254600D01*
X47910000Y-35254600D02*
X47910000Y-35367300D01*
X47910000Y-36080000D02*
X47910000Y-35367300D01*
X49910000Y-34130000D02*
X49910000Y-34805300D01*
X29949370Y-28549370D02*
X29949370Y-31168110D01*
X27460000Y-26060000D02*
X29949370Y-28549370D01*
X29949370Y-31168110D02*
X30073860Y-31292600D01*
X39931340Y-32240220D02*
X38983720Y-31292600D01*
X41452640Y-32240220D02*
X39931340Y-32240220D01*
X30073860Y-31292600D02*
X38983720Y-31292600D01*
X47764630Y-35109230D02*
X47910000Y-35254600D01*
X43361530Y-35109230D02*
X47764630Y-35109230D01*
X41570830Y-33318530D02*
X43361530Y-35109230D01*
X41570830Y-32122030D02*
X41570830Y-33318530D01*
X37960000Y-29060000D02*
X37960000Y-24600000D01*
X37960000Y-24600000D02*
X38710000Y-23850000D01*
X42474150Y-24074150D02*
X42474150Y-25225850D01*
X38710000Y-23850000D02*
X42250000Y-23850000D01*
X42250000Y-23850000D02*
X42474150Y-24074150D01*
X50419850Y-33171550D02*
X51632270Y-33171550D01*
X51632270Y-33171550D02*
X51775360Y-33314640D01*
X51775360Y-33314640D02*
X51775360Y-36068000D01*
X51737360Y-36030000D02*
X49910000Y-36030000D01*
X51775360Y-36068000D02*
X51737360Y-36030000D01*
X46053590Y-28805290D02*
X46053590Y-30976990D01*
X42474150Y-25225850D02*
X46053590Y-28805290D01*
X46227580Y-31150980D02*
X48399280Y-31150980D01*
X46053590Y-30976990D02*
X46227580Y-31150980D01*
X48399280Y-31150980D02*
X50419850Y-33171550D01*
X31686204Y-23620000D02*
X30795204Y-24511000D01*
X30795204Y-28214076D02*
X30792420Y-28216860D01*
X30795204Y-24511000D02*
X30795204Y-28214076D01*
X30792420Y-28216860D02*
X30792420Y-28612422D01*
X30792420Y-28612422D02*
X32916538Y-30736540D01*
X36283460Y-30736540D02*
X37960000Y-29060000D01*
X32916538Y-30736540D02*
X36283460Y-30736540D01*
X28107900Y-44934700D02*
X27380000Y-44934700D01*
X27380000Y-46060000D02*
X27380000Y-44934700D01*
X30600000Y-42030000D02*
X30600000Y-42442600D01*
X29089260Y-43953340D02*
X29089260Y-42419360D01*
X29089260Y-43953340D02*
X28107900Y-44934700D01*
X29478620Y-42030000D02*
X30600000Y-42030000D01*
X29089260Y-42419360D02*
X29478620Y-42030000D01*
X33387860Y-44160000D02*
X33387860Y-41871460D01*
X33387860Y-44160000D02*
X34510000Y-44160000D01*
X33387860Y-41871460D02*
X33243520Y-41727120D01*
X30902880Y-41727120D02*
X30600000Y-42030000D01*
X33243520Y-41727120D02*
X30902880Y-41727120D01*
X32460000Y-46060000D02*
X32460000Y-53680000D01*
X33926600Y-46060000D02*
X32460000Y-46060000D01*
X34510000Y-41960000D02*
X34510000Y-42815300D01*
X32460000Y-53680000D02*
X32460000Y-54805300D01*
X32460000Y-54805300D02*
X33340000Y-55685300D01*
X33340000Y-55685300D02*
X33340000Y-57800000D01*
X45240000Y-58868700D02*
X45240000Y-59125300D01*
X45240000Y-58400000D02*
X45240000Y-58868700D01*
X47620000Y-61710000D02*
X47620000Y-60884700D01*
X45240000Y-59125300D02*
X46999400Y-60884700D01*
X46999400Y-60884700D02*
X47620000Y-60884700D01*
X33926600Y-46060000D02*
X34140002Y-46060000D01*
X36655841Y-45444161D02*
X36667022Y-45432980D01*
X34755841Y-45444161D02*
X36655841Y-45444161D01*
X34140002Y-46060000D02*
X34755841Y-45444161D01*
X36667022Y-45432980D02*
X37454840Y-45432980D01*
X37454840Y-45432980D02*
X38046660Y-44841160D01*
X36410000Y-42629998D02*
X36410000Y-41960000D01*
X38046660Y-44841160D02*
X38046660Y-44266658D01*
X43366300Y-58868700D02*
X45240000Y-58868700D01*
X42727880Y-59507120D02*
X43366300Y-58868700D01*
X37703760Y-59507120D02*
X42727880Y-59507120D01*
X34408700Y-58868700D02*
X37065340Y-58868700D01*
X37065340Y-58868700D02*
X37703760Y-59507120D01*
X33340000Y-57800000D02*
X34408700Y-58868700D01*
X34510000Y-42815300D02*
X34510000Y-43105360D01*
X34528301Y-43087059D02*
X36867061Y-43087059D01*
X34510000Y-43105360D02*
X34528301Y-43087059D01*
X38046660Y-44266658D02*
X36867061Y-43087059D01*
X36867061Y-43087059D02*
X36410000Y-42629998D01*
X45240000Y-56300000D02*
X42950000Y-56300000D01*
X42950000Y-56300000D02*
X41510000Y-57740000D01*
X60420000Y-60980000D02*
X61345300Y-60980000D01*
X45180000Y-51570000D02*
X46944400Y-51570000D01*
X54830000Y-21090000D02*
X55505300Y-21090000D01*
X55505300Y-21185300D02*
X55505300Y-21090000D01*
X49170000Y-20450000D02*
X50345300Y-20450000D01*
X52981992Y-32408008D02*
X53750000Y-33176016D01*
X30960000Y-32835300D02*
X30960000Y-32160000D01*
X29755380Y-32835300D02*
X30960000Y-32835300D01*
X29307800Y-33282880D02*
X29755380Y-32835300D01*
X28100000Y-40000000D02*
X29307800Y-38792200D01*
X29307800Y-38792200D02*
X29307800Y-33282880D01*
X64970000Y-38180000D02*
X66394340Y-38180000D01*
X66394340Y-38180000D02*
X66621660Y-37952680D01*
X63332740Y-40632760D02*
X63332740Y-38846380D01*
X63332740Y-40632760D02*
X61345300Y-42620200D01*
X63999120Y-38180000D02*
X64970000Y-38180000D01*
X63332740Y-38846380D02*
X63999120Y-38180000D01*
X61345300Y-45582060D02*
X61365620Y-45582060D01*
X61345300Y-42620200D02*
X61345300Y-45582060D01*
X61444999Y-48214421D02*
X61345300Y-48314120D01*
X61444999Y-45661439D02*
X61444999Y-48214421D01*
X61365620Y-45582060D02*
X61444999Y-45661439D01*
X54495570Y-56047770D02*
X54495700Y-56047640D01*
X51422170Y-56047770D02*
X54495570Y-56047770D01*
X46944400Y-51570000D02*
X51422170Y-56047770D01*
X61341980Y-56080660D02*
X61345300Y-56083980D01*
X60048140Y-56080660D02*
X61341980Y-56080660D01*
X61345300Y-48314120D02*
X61345300Y-56083980D01*
X61345300Y-56083980D02*
X61345300Y-60980000D01*
X51150270Y-21254970D02*
X51150270Y-21828510D01*
X50345300Y-20450000D02*
X51150270Y-21254970D01*
X52404250Y-23082490D02*
X57402490Y-23082490D01*
X51150270Y-21828510D02*
X52404250Y-23082490D01*
X57402490Y-23082490D02*
X55505300Y-21185300D01*
X54830000Y-21090000D02*
X54830000Y-22396160D01*
X54830000Y-22396160D02*
X54828440Y-22397720D01*
X55330000Y-25890000D02*
X55330000Y-28430000D01*
X56144461Y-29244461D02*
X55330000Y-28430000D01*
X56144461Y-32633619D02*
X56144461Y-29244461D01*
X54562800Y-34215280D02*
X56144461Y-32633619D01*
X53750000Y-34215280D02*
X54562800Y-34215280D01*
X53750000Y-34215280D02*
X53750000Y-37691700D01*
X53750000Y-33176016D02*
X53750000Y-34215280D01*
X52242419Y-27307239D02*
X53077590Y-28142410D01*
X47757800Y-27864158D02*
X48314719Y-27307239D01*
X48314719Y-27307239D02*
X52242419Y-27307239D01*
X47757800Y-29483600D02*
X47757800Y-27864158D01*
X58689240Y-29875480D02*
X58689240Y-26530300D01*
X59129540Y-26090000D02*
X60410000Y-26090000D01*
X58689240Y-26530300D02*
X59129540Y-26090000D01*
X52525717Y-31717281D02*
X52609991Y-31633007D01*
X50738739Y-30481261D02*
X50738739Y-31314281D01*
X55249927Y-31633007D02*
X55369460Y-31752540D01*
X50738739Y-31314281D02*
X51141739Y-31717281D01*
X53077590Y-28142410D02*
X50738739Y-30481261D01*
X51141739Y-31717281D02*
X52525717Y-31717281D01*
X52609991Y-31633007D02*
X55249927Y-31633007D01*
X52930000Y-21090000D02*
X52930000Y-19871480D01*
X52930000Y-19871480D02*
X53243480Y-19558000D01*
X56908000Y-19558000D02*
X58060000Y-20710000D01*
X53243480Y-19558000D02*
X56908000Y-19558000D01*
X56420000Y-60980000D02*
X56420000Y-56389400D01*
X43915310Y-40026610D02*
X43915310Y-41515010D01*
X43915310Y-41515010D02*
X45049440Y-42649140D01*
X45049440Y-42649140D02*
X45049440Y-44729400D01*
X45049440Y-44729400D02*
X45907960Y-44729400D01*
X47658080Y-46479520D02*
X47658080Y-47627480D01*
X45907960Y-44729400D02*
X47658080Y-46479520D01*
X41987490Y-39211270D02*
X41965880Y-39189660D01*
X43099970Y-39211270D02*
X41987490Y-39211270D01*
X43915310Y-40026610D02*
X43099970Y-39211270D01*
X56420000Y-56389400D02*
X47658080Y-47627480D01*
X54420000Y-60980000D02*
X54420000Y-59804700D01*
X54420000Y-59804700D02*
X53591400Y-59804700D01*
X53591400Y-59804700D02*
X53340000Y-59553300D01*
X62420000Y-46780000D02*
X62420000Y-45604700D01*
X62420000Y-45604700D02*
X62245200Y-45429900D01*
X62245200Y-45429900D02*
X62245200Y-45086500D01*
X58420000Y-46780000D02*
X58420000Y-45604700D01*
X47343200Y-41060000D02*
X47823500Y-41060000D01*
X47823500Y-41060000D02*
X51365700Y-44602200D01*
X51365700Y-44602200D02*
X57417500Y-44602200D01*
X57417500Y-44602200D02*
X58420000Y-45604700D01*
X60420000Y-46780000D02*
X59494700Y-46780000D01*
X59494700Y-46780000D02*
X59494700Y-45854700D01*
X59494700Y-45854700D02*
X57479800Y-43839800D01*
X57479800Y-43839800D02*
X53006100Y-43839800D01*
X53006100Y-43839800D02*
X47060600Y-37894300D01*
X51191370Y-45136550D02*
X51207360Y-45120560D01*
X50786550Y-45136550D02*
X51191370Y-45136550D01*
X47907400Y-42257400D02*
X50786550Y-45136550D01*
X51207360Y-45120560D02*
X56352440Y-45120560D01*
X56420000Y-45188120D02*
X56420000Y-46780000D01*
X56352440Y-45120560D02*
X56420000Y-45188120D01*
X41900000Y-43370000D02*
X41900000Y-44045300D01*
X41900000Y-44045300D02*
X43366100Y-45511400D01*
X43366100Y-45511400D02*
X43366100Y-47998200D01*
X29920000Y-53680000D02*
X29920000Y-46060000D01*
X24860000Y-34064700D02*
X24860000Y-35240000D01*
X25870302Y-34064700D02*
X24860000Y-34064700D01*
X30924500Y-21892260D02*
X30289560Y-22527200D01*
X26507440Y-33427562D02*
X25870302Y-34064700D01*
X30289560Y-22527200D02*
X29441700Y-22527200D01*
X29441700Y-22527200D02*
X28331410Y-23637490D01*
X25400000Y-25036780D02*
X25400000Y-26372820D01*
X28331410Y-23637490D02*
X26799290Y-23637490D01*
X26032760Y-27005580D02*
X26035300Y-27005580D01*
X26799290Y-23637490D02*
X25400000Y-25036780D01*
X26507440Y-31991300D02*
X26507440Y-33427562D01*
X25400000Y-26372820D02*
X26032760Y-27005580D01*
X26035300Y-27005580D02*
X26035300Y-31519160D01*
X26035300Y-31519160D02*
X26507440Y-31991300D01*
X57033160Y-30728920D02*
X56730000Y-31032080D01*
X57033160Y-25001220D02*
X57033160Y-30728920D01*
X56730000Y-36800000D02*
X56730000Y-31032080D01*
X50444460Y-22527200D02*
X50444460Y-22529860D01*
X52166520Y-24251920D02*
X56283860Y-24251920D01*
X50444460Y-22529860D02*
X52166520Y-24251920D01*
X56283860Y-24251920D02*
X57033160Y-25001220D01*
X33063180Y-21892260D02*
X30924500Y-21892260D01*
X33698120Y-22527200D02*
X33063180Y-21892260D01*
X50444460Y-22527200D02*
X33698120Y-22527200D01*
X51485800Y-28092400D02*
X48696880Y-28092400D01*
X48696880Y-28092400D02*
X48686720Y-28082240D01*
X55030000Y-40740000D02*
X55030000Y-40064700D01*
X54830000Y-36800000D02*
X54830000Y-39864700D01*
X54830000Y-39864700D02*
X55030000Y-40064700D01*
X58420000Y-57498900D02*
X58420000Y-60980000D01*
X48420020Y-47498920D02*
X58420000Y-57498900D01*
X48420020Y-45626020D02*
X48420020Y-47498920D01*
X47132399Y-44338399D02*
X48420020Y-45626020D01*
X46185100Y-41270600D02*
X46198200Y-41270600D01*
X46198200Y-41270600D02*
X47132399Y-42204799D01*
X47132399Y-42204799D02*
X47132399Y-44338399D01*
X43225520Y-38311020D02*
X46185100Y-41270600D01*
X43225520Y-38311020D02*
X40203320Y-38311020D01*
X40203320Y-38311020D02*
X40180260Y-38287960D01*
X40180260Y-38287960D02*
X40180260Y-37371020D01*
X41028620Y-37371020D02*
X41056560Y-37398960D01*
X40180260Y-37371020D02*
X41028620Y-37371020D01*
X38164808Y-34875192D02*
X38164808Y-37905192D01*
X38164808Y-37905192D02*
X37960000Y-38110000D01*
X37960000Y-38110000D02*
X37960000Y-38120000D01*
X35460000Y-40620000D02*
X35460000Y-41960000D01*
X54648300Y-42640000D02*
X55030000Y-42640000D01*
X49700000Y-37691700D02*
X54648300Y-42640000D01*
X60770000Y-36890000D02*
X60770000Y-38830000D01*
X60770000Y-38830000D02*
X60760000Y-38830000D01*
X56950000Y-42640000D02*
X55030000Y-42640000D01*
X47990000Y-34000000D02*
X47910000Y-34080000D01*
X47990000Y-32810000D02*
X47990000Y-34000000D01*
X47970000Y-32790000D02*
X47990000Y-32810000D01*
X45490000Y-32790000D02*
X47970000Y-32790000D01*
X35434280Y-40594280D02*
X35460000Y-40620000D01*
X31920180Y-40594280D02*
X35434280Y-40594280D01*
X30856820Y-44030000D02*
X31899860Y-42986960D01*
X30600000Y-44030000D02*
X30856820Y-44030000D01*
X24271999Y-36465001D02*
X23410010Y-35603012D01*
X28100000Y-37460000D02*
X27105001Y-36465001D01*
X27105001Y-36465001D02*
X24271999Y-36465001D01*
X23410010Y-35603012D02*
X23410010Y-32673190D01*
X23436820Y-32700000D02*
X24860000Y-32700000D01*
X23410010Y-32673190D02*
X23436820Y-32700000D01*
X40387700Y-39957700D02*
X41900000Y-41470000D01*
X36122300Y-39957700D02*
X40387700Y-39957700D01*
X36122300Y-39957700D02*
X35460000Y-40620000D01*
X37960000Y-38120000D02*
X36122300Y-39957700D01*
X47731680Y-59598320D02*
X47620000Y-59710000D01*
X47731680Y-57424320D02*
X47731680Y-59598320D01*
X47731680Y-57424320D02*
X54914800Y-57424320D01*
X54914800Y-57424320D02*
X54988460Y-57497980D01*
X62247780Y-60807780D02*
X62420000Y-60980000D01*
X62247780Y-57467500D02*
X62247780Y-60807780D01*
X62247780Y-55275480D02*
X62247780Y-54015640D01*
X62247780Y-55275480D02*
X62247780Y-55077360D01*
X62247780Y-57467500D02*
X62247780Y-55275480D01*
X62247780Y-54015640D02*
X64420000Y-51843420D01*
X64420000Y-43810000D02*
X64970000Y-43260000D01*
X64420000Y-46780000D02*
X64420000Y-43810000D01*
X61185630Y-40771650D02*
X58818350Y-40771650D01*
X61641732Y-41227752D02*
X61185630Y-40771650D01*
X60760000Y-38830000D02*
X58818350Y-40771650D01*
X58818350Y-40771650D02*
X56950000Y-42640000D01*
X50420000Y-46780000D02*
X50420000Y-48316880D01*
X50420000Y-48316880D02*
X53007260Y-50904140D01*
X53007260Y-50904140D02*
X59801760Y-50904140D01*
X64312800Y-50904140D02*
X64420000Y-50796940D01*
X62349380Y-50904140D02*
X64312800Y-50904140D01*
X64420000Y-51843420D02*
X64420000Y-50796940D01*
X64420000Y-50796940D02*
X64420000Y-46780000D01*
X63318520Y-23718520D02*
X65490000Y-25890000D01*
X63157100Y-23718520D02*
X63318520Y-23718520D01*
X63157100Y-20727100D02*
X63140000Y-20710000D01*
X63157100Y-23718520D02*
X63157100Y-20727100D01*
X39960000Y-29060000D02*
X39960000Y-27945800D01*
X39960000Y-27945800D02*
X39161720Y-27147520D01*
X33451800Y-29348200D02*
X33390000Y-29410000D01*
X33451800Y-25072340D02*
X33451800Y-29348200D01*
X41550000Y-20450000D02*
X37200380Y-20450000D01*
X37200380Y-20450000D02*
X36017200Y-21633180D01*
X41020000Y-33474820D02*
X41020000Y-33458420D01*
X41020000Y-33474820D02*
X40901780Y-33474820D01*
X40901780Y-33474820D02*
X40622220Y-33195260D01*
X40604440Y-29704440D02*
X39960000Y-29060000D01*
X40604440Y-31239460D02*
X40604440Y-29704440D01*
X43625180Y-36080000D02*
X45410000Y-36080000D01*
X41020000Y-33474820D02*
X43625180Y-36080000D01*
X46490320Y-36080000D02*
X46606460Y-35963860D01*
X45410000Y-36080000D02*
X46490320Y-36080000D01*
X47834620Y-34155380D02*
X47910000Y-34080000D01*
X47849860Y-34140140D02*
X47910000Y-34080000D01*
X46817280Y-34140140D02*
X47849860Y-34140140D01*
X65490000Y-25890000D02*
X65490000Y-28430000D01*
D30*
G36*
X27438273Y-33618005D02*
G01*
X27515515Y-33650000D01*
X27438273Y-33681995D01*
X27209465Y-33834880D01*
X27014880Y-34029465D01*
X26861995Y-34258273D01*
X26756686Y-34512510D01*
X26703000Y-34782408D01*
X26703000Y-35057592D01*
X26756686Y-35327490D01*
X26861995Y-35581727D01*
X27014880Y-35810535D01*
X27209465Y-36005120D01*
X27438273Y-36158005D01*
X27509943Y-36187692D01*
X27496977Y-36192364D01*
X27381020Y-36254344D01*
X27314040Y-36494435D01*
X28100000Y-37280395D01*
X28114143Y-37266253D01*
X28293748Y-37445858D01*
X28279605Y-37460000D01*
X28293748Y-37474143D01*
X28114143Y-37653748D01*
X28100000Y-37639605D01*
X27314040Y-38425565D01*
X27381020Y-38665656D01*
X27516760Y-38729485D01*
X27438273Y-38761995D01*
X27209465Y-38914880D01*
X27014880Y-39109465D01*
X26861995Y-39338273D01*
X26756686Y-39592510D01*
X26703000Y-39862408D01*
X26703000Y-40137592D01*
X26756686Y-40407490D01*
X26861995Y-40661727D01*
X27014880Y-40890535D01*
X27209465Y-41085120D01*
X27438273Y-41238005D01*
X27692510Y-41343314D01*
X27962408Y-41397000D01*
X28237592Y-41397000D01*
X28507490Y-41343314D01*
X28761727Y-41238005D01*
X28990535Y-41085120D01*
X29185120Y-40890535D01*
X29338005Y-40661727D01*
X29443314Y-40407490D01*
X29497000Y-40137592D01*
X29497000Y-39862408D01*
X29466372Y-39708430D01*
X29818804Y-39355998D01*
X29847801Y-39332201D01*
X29898310Y-39270656D01*
X29942774Y-39216477D01*
X30013346Y-39084447D01*
X30020755Y-39060023D01*
X30056803Y-38941186D01*
X30067800Y-38829533D01*
X30067800Y-38829524D01*
X30071476Y-38792201D01*
X30067800Y-38754878D01*
X30067800Y-35000103D01*
X30185518Y-35035812D01*
X30310000Y-35048072D01*
X31610000Y-35048072D01*
X31734482Y-35035812D01*
X31854180Y-34999502D01*
X31964494Y-34940537D01*
X32061185Y-34861185D01*
X32094985Y-34820000D01*
X36944378Y-34820000D01*
X36981700Y-34823676D01*
X37019022Y-34820000D01*
X37019033Y-34820000D01*
X37130686Y-34809003D01*
X37273947Y-34765546D01*
X37405976Y-34694974D01*
X37521701Y-34600001D01*
X37545504Y-34570997D01*
X37684001Y-34432500D01*
X37823299Y-34432500D01*
X38364300Y-34973502D01*
X38364300Y-35035639D01*
X38404074Y-35235598D01*
X38482095Y-35423956D01*
X38595363Y-35593474D01*
X38739526Y-35737637D01*
X38909044Y-35850905D01*
X39097402Y-35928926D01*
X39297361Y-35968700D01*
X39501239Y-35968700D01*
X39701198Y-35928926D01*
X39889556Y-35850905D01*
X40059074Y-35737637D01*
X40103011Y-35693700D01*
X41330899Y-35693700D01*
X43064905Y-37427708D01*
X43088699Y-37456701D01*
X43117692Y-37480495D01*
X43117696Y-37480499D01*
X43165835Y-37520005D01*
X43201974Y-37549663D01*
X43188198Y-37551020D01*
X42081590Y-37551020D01*
X42091560Y-37500899D01*
X42091560Y-37297021D01*
X42051786Y-37097062D01*
X41973765Y-36908704D01*
X41860497Y-36739186D01*
X41716334Y-36595023D01*
X41546816Y-36481755D01*
X41358458Y-36403734D01*
X41158499Y-36363960D01*
X40954621Y-36363960D01*
X40754662Y-36403734D01*
X40566304Y-36481755D01*
X40396786Y-36595023D01*
X40380789Y-36611020D01*
X40217593Y-36611020D01*
X40180260Y-36607343D01*
X40142927Y-36611020D01*
X40031274Y-36622017D01*
X39888013Y-36665474D01*
X39755984Y-36736046D01*
X39640259Y-36831019D01*
X39545286Y-36946744D01*
X39474714Y-37078773D01*
X39431257Y-37222034D01*
X39416583Y-37371020D01*
X39420261Y-37408362D01*
X39420260Y-38250637D01*
X39416584Y-38287960D01*
X39420260Y-38325282D01*
X39420260Y-38325292D01*
X39431257Y-38436945D01*
X39452121Y-38505724D01*
X39474714Y-38580206D01*
X39545286Y-38712236D01*
X39585131Y-38760786D01*
X39640259Y-38827961D01*
X39652925Y-38838355D01*
X39663319Y-38851021D01*
X39779044Y-38945994D01*
X39911073Y-39016566D01*
X40054334Y-39060023D01*
X40165987Y-39071020D01*
X40165995Y-39071020D01*
X40203320Y-39074696D01*
X40240645Y-39071020D01*
X40934202Y-39071020D01*
X40930880Y-39087721D01*
X40930880Y-39291599D01*
X40970654Y-39491558D01*
X41048675Y-39679916D01*
X41161943Y-39849434D01*
X41306106Y-39993597D01*
X41475624Y-40106865D01*
X41663982Y-40184886D01*
X41863941Y-40224660D01*
X42067819Y-40224660D01*
X42267778Y-40184886D01*
X42456136Y-40106865D01*
X42625654Y-39993597D01*
X42647981Y-39971270D01*
X42785169Y-39971270D01*
X43155310Y-40341412D01*
X43155311Y-40927934D01*
X43139502Y-40875820D01*
X43080537Y-40765506D01*
X43001185Y-40668815D01*
X42904494Y-40589463D01*
X42794180Y-40530498D01*
X42674482Y-40494188D01*
X42550000Y-40481928D01*
X42185750Y-40485000D01*
X42027000Y-40643750D01*
X42027000Y-41343000D01*
X42047000Y-41343000D01*
X42047000Y-41597000D01*
X42027000Y-41597000D01*
X42027000Y-41617000D01*
X41773000Y-41617000D01*
X41773000Y-41597000D01*
X40773750Y-41597000D01*
X40615000Y-41755750D01*
X40611928Y-41820000D01*
X40624188Y-41944482D01*
X40660498Y-42064180D01*
X40719463Y-42174494D01*
X40798815Y-42271185D01*
X40895506Y-42350537D01*
X41005820Y-42409502D01*
X41040427Y-42420000D01*
X41005820Y-42430498D01*
X40895506Y-42489463D01*
X40798815Y-42568815D01*
X40719463Y-42665506D01*
X40660498Y-42775820D01*
X40624188Y-42895518D01*
X40611928Y-43020000D01*
X40611928Y-43720000D01*
X40624188Y-43844482D01*
X40660498Y-43964180D01*
X40719463Y-44074494D01*
X40798815Y-44171185D01*
X40895506Y-44250537D01*
X41005820Y-44309502D01*
X41125518Y-44345812D01*
X41202949Y-44353438D01*
X41265026Y-44469576D01*
X41327210Y-44545346D01*
X41360000Y-44585301D01*
X41388998Y-44609099D01*
X42606100Y-45826202D01*
X42606101Y-47294488D01*
X42562163Y-47338426D01*
X42448895Y-47507944D01*
X42370874Y-47696302D01*
X42331100Y-47896261D01*
X42331100Y-48100139D01*
X42370874Y-48300098D01*
X42448895Y-48488456D01*
X42562163Y-48657974D01*
X42706326Y-48802137D01*
X42875844Y-48915405D01*
X43064202Y-48993426D01*
X43264161Y-49033200D01*
X43468039Y-49033200D01*
X43667998Y-48993426D01*
X43856356Y-48915405D01*
X44025874Y-48802137D01*
X44170037Y-48657974D01*
X44283305Y-48488456D01*
X44299919Y-48448346D01*
X44405537Y-48518918D01*
X44703088Y-48642168D01*
X45018967Y-48705000D01*
X45341033Y-48705000D01*
X45656912Y-48642168D01*
X45954463Y-48518918D01*
X46222252Y-48339987D01*
X46449987Y-48112252D01*
X46628918Y-47844463D01*
X46752168Y-47546912D01*
X46815000Y-47231033D01*
X46815000Y-46908967D01*
X46765905Y-46662147D01*
X46898080Y-46794323D01*
X46898081Y-47590148D01*
X46894404Y-47627480D01*
X46898081Y-47664813D01*
X46909078Y-47776466D01*
X46917163Y-47803118D01*
X46952534Y-47919726D01*
X47023106Y-48051756D01*
X47090516Y-48133894D01*
X47118080Y-48167481D01*
X47147078Y-48191279D01*
X54062570Y-55106772D01*
X54005444Y-55130435D01*
X53835926Y-55243703D01*
X53791859Y-55287770D01*
X51736972Y-55287770D01*
X47508204Y-51059003D01*
X47484401Y-51029999D01*
X47368676Y-50935026D01*
X47236647Y-50864454D01*
X47093386Y-50820997D01*
X46981733Y-50810000D01*
X46981722Y-50810000D01*
X46944400Y-50806324D01*
X46907078Y-50810000D01*
X46634909Y-50810000D01*
X46628918Y-50795537D01*
X46449987Y-50527748D01*
X46222252Y-50300013D01*
X45954463Y-50121082D01*
X45656912Y-49997832D01*
X45341033Y-49935000D01*
X45018967Y-49935000D01*
X44703088Y-49997832D01*
X44405537Y-50121082D01*
X44137748Y-50300013D01*
X43910013Y-50527748D01*
X43731082Y-50795537D01*
X43607832Y-51093088D01*
X43545000Y-51408967D01*
X43545000Y-51731033D01*
X43607832Y-52046912D01*
X43731082Y-52344463D01*
X43910013Y-52612252D01*
X44137748Y-52839987D01*
X44405537Y-53018918D01*
X44703088Y-53142168D01*
X45018967Y-53205000D01*
X45341033Y-53205000D01*
X45656912Y-53142168D01*
X45954463Y-53018918D01*
X46222252Y-52839987D01*
X46449987Y-52612252D01*
X46628918Y-52344463D01*
X46633354Y-52333755D01*
X50858371Y-56558773D01*
X50882169Y-56587771D01*
X50911167Y-56611569D01*
X50997893Y-56682744D01*
X51096074Y-56735223D01*
X51129923Y-56753316D01*
X51273184Y-56796773D01*
X51384837Y-56807770D01*
X51384846Y-56807770D01*
X51422169Y-56811446D01*
X51459492Y-56807770D01*
X53792119Y-56807770D01*
X53835926Y-56851577D01*
X54005444Y-56964845D01*
X54193802Y-57042866D01*
X54393761Y-57082640D01*
X54597639Y-57082640D01*
X54797598Y-57042866D01*
X54985956Y-56964845D01*
X55155474Y-56851577D01*
X55299637Y-56707414D01*
X55412905Y-56537896D01*
X55436568Y-56480770D01*
X55660001Y-56704203D01*
X55660000Y-59514962D01*
X55575820Y-59540498D01*
X55465506Y-59599463D01*
X55420000Y-59636809D01*
X55374494Y-59599463D01*
X55264180Y-59540498D01*
X55144482Y-59504188D01*
X55119830Y-59501760D01*
X55054974Y-59380424D01*
X54960001Y-59264699D01*
X54844276Y-59169726D01*
X54712247Y-59099154D01*
X54568986Y-59055697D01*
X54457333Y-59044700D01*
X54420000Y-59041023D01*
X54382667Y-59044700D01*
X54244948Y-59044700D01*
X54143937Y-58893526D01*
X53999774Y-58749363D01*
X53830256Y-58636095D01*
X53641898Y-58558074D01*
X53441939Y-58518300D01*
X53238061Y-58518300D01*
X53038102Y-58558074D01*
X52849744Y-58636095D01*
X52680226Y-58749363D01*
X52536063Y-58893526D01*
X52422795Y-59063044D01*
X52344774Y-59251402D01*
X52305000Y-59451361D01*
X52305000Y-59491928D01*
X51820000Y-59491928D01*
X51695518Y-59504188D01*
X51575820Y-59540498D01*
X51465506Y-59599463D01*
X51420000Y-59636809D01*
X51374494Y-59599463D01*
X51264180Y-59540498D01*
X51144482Y-59504188D01*
X51020000Y-59491928D01*
X49820000Y-59491928D01*
X49695518Y-59504188D01*
X49575820Y-59540498D01*
X49465506Y-59599463D01*
X49368815Y-59678815D01*
X49289463Y-59775506D01*
X49230498Y-59885820D01*
X49194188Y-60005518D01*
X49181928Y-60130000D01*
X49181928Y-61830000D01*
X49183898Y-61850000D01*
X48883072Y-61850000D01*
X48883072Y-61210000D01*
X48870812Y-61085518D01*
X48834502Y-60965820D01*
X48775537Y-60855506D01*
X48696185Y-60758815D01*
X48636704Y-60710000D01*
X48696185Y-60661185D01*
X48775537Y-60564494D01*
X48834502Y-60454180D01*
X48870812Y-60334482D01*
X48883072Y-60210000D01*
X48880000Y-59995750D01*
X48721250Y-59837000D01*
X47747000Y-59837000D01*
X47747000Y-59857000D01*
X47493000Y-59857000D01*
X47493000Y-59837000D01*
X47473000Y-59837000D01*
X47473000Y-59583000D01*
X47493000Y-59583000D01*
X47493000Y-58733750D01*
X47747000Y-58733750D01*
X47747000Y-59583000D01*
X48721250Y-59583000D01*
X48880000Y-59424250D01*
X48883072Y-59210000D01*
X48870812Y-59085518D01*
X48834502Y-58965820D01*
X48775537Y-58855506D01*
X48696185Y-58758815D01*
X48599494Y-58679463D01*
X48489180Y-58620498D01*
X48369482Y-58584188D01*
X48245000Y-58571928D01*
X47905750Y-58575000D01*
X47747000Y-58733750D01*
X47493000Y-58733750D01*
X47334250Y-58575000D01*
X46995000Y-58571928D01*
X46870518Y-58584188D01*
X46750820Y-58620498D01*
X46640506Y-58679463D01*
X46543815Y-58758815D01*
X46464463Y-58855506D01*
X46405498Y-58965820D01*
X46369188Y-59085518D01*
X46360745Y-59171244D01*
X46263541Y-59074040D01*
X46279502Y-59044180D01*
X46315812Y-58924482D01*
X46328072Y-58800000D01*
X46328072Y-58000000D01*
X46315812Y-57875518D01*
X46279502Y-57755820D01*
X46220537Y-57645506D01*
X46141185Y-57548815D01*
X46044494Y-57469463D01*
X45934180Y-57410498D01*
X45814482Y-57374188D01*
X45690000Y-57361928D01*
X44790000Y-57361928D01*
X44665518Y-57374188D01*
X44545820Y-57410498D01*
X44435506Y-57469463D01*
X44338815Y-57548815D01*
X44259463Y-57645506D01*
X44200498Y-57755820D01*
X44164188Y-57875518D01*
X44151928Y-58000000D01*
X44151928Y-58108700D01*
X43403622Y-58108700D01*
X43366299Y-58105024D01*
X43328976Y-58108700D01*
X43328967Y-58108700D01*
X43217314Y-58119697D01*
X43074053Y-58163154D01*
X42942024Y-58233726D01*
X42826299Y-58328699D01*
X42802501Y-58357697D01*
X42726929Y-58433269D01*
X42748005Y-58401727D01*
X42853314Y-58147490D01*
X42907000Y-57877592D01*
X42907000Y-57602408D01*
X42876372Y-57448430D01*
X43264802Y-57060000D01*
X44263982Y-57060000D01*
X44338815Y-57151185D01*
X44435506Y-57230537D01*
X44545820Y-57289502D01*
X44665518Y-57325812D01*
X44790000Y-57338072D01*
X45690000Y-57338072D01*
X45814482Y-57325812D01*
X45934180Y-57289502D01*
X46044494Y-57230537D01*
X46141185Y-57151185D01*
X46220537Y-57054494D01*
X46279502Y-56944180D01*
X46315812Y-56824482D01*
X46328072Y-56700000D01*
X46328072Y-55900000D01*
X46315812Y-55775518D01*
X46279502Y-55655820D01*
X46220537Y-55545506D01*
X46141185Y-55448815D01*
X46044494Y-55369463D01*
X45934180Y-55310498D01*
X45814482Y-55274188D01*
X45690000Y-55261928D01*
X44790000Y-55261928D01*
X44665518Y-55274188D01*
X44545820Y-55310498D01*
X44435506Y-55369463D01*
X44338815Y-55448815D01*
X44263982Y-55540000D01*
X42987333Y-55540000D01*
X42950000Y-55536323D01*
X42912667Y-55540000D01*
X42801014Y-55550997D01*
X42657753Y-55594454D01*
X42525724Y-55665026D01*
X42409999Y-55759999D01*
X42386201Y-55788997D01*
X41801570Y-56373628D01*
X41647592Y-56343000D01*
X41372408Y-56343000D01*
X41102510Y-56396686D01*
X40848273Y-56501995D01*
X40619465Y-56654880D01*
X40424880Y-56849465D01*
X40271995Y-57078273D01*
X40240381Y-57154595D01*
X40237636Y-57146977D01*
X40175656Y-57031020D01*
X39935565Y-56964040D01*
X39149605Y-57750000D01*
X39935565Y-58535960D01*
X40175656Y-58468980D01*
X40241687Y-58328557D01*
X40271995Y-58401727D01*
X40424880Y-58630535D01*
X40541465Y-58747120D01*
X39747157Y-58747120D01*
X39755960Y-58715565D01*
X38970000Y-57929605D01*
X38955858Y-57943748D01*
X38776253Y-57764143D01*
X38790395Y-57750000D01*
X38004435Y-56964040D01*
X37764344Y-57031020D01*
X37647244Y-57280048D01*
X37580977Y-57547135D01*
X37568090Y-57822017D01*
X37609078Y-58094133D01*
X37702364Y-58353023D01*
X37764344Y-58468980D01*
X38004433Y-58535959D01*
X37905917Y-58634475D01*
X37629143Y-58357702D01*
X37605341Y-58328699D01*
X37489616Y-58233726D01*
X37357587Y-58163154D01*
X37214326Y-58119697D01*
X37102673Y-58108700D01*
X37102662Y-58108700D01*
X37065340Y-58105024D01*
X37028018Y-58108700D01*
X34723502Y-58108700D01*
X34706372Y-58091570D01*
X34737000Y-57937592D01*
X34737000Y-57662408D01*
X34683314Y-57392510D01*
X34578005Y-57138273D01*
X34425120Y-56909465D01*
X34300090Y-56784435D01*
X38184040Y-56784435D01*
X38970000Y-57570395D01*
X39755960Y-56784435D01*
X39688980Y-56544344D01*
X39439952Y-56427244D01*
X39172865Y-56360977D01*
X38897983Y-56348090D01*
X38625867Y-56389078D01*
X38366977Y-56482364D01*
X38251020Y-56544344D01*
X38184040Y-56784435D01*
X34300090Y-56784435D01*
X34230535Y-56714880D01*
X34100000Y-56627659D01*
X34100000Y-55722623D01*
X34103676Y-55685300D01*
X34100000Y-55647977D01*
X34100000Y-55647967D01*
X34089003Y-55536314D01*
X34045546Y-55393053D01*
X34018377Y-55342224D01*
X33974974Y-55261023D01*
X33903799Y-55174297D01*
X33880001Y-55145299D01*
X33851004Y-55121502D01*
X33449449Y-54719947D01*
X33574637Y-54594759D01*
X33731680Y-54359727D01*
X33839853Y-54098574D01*
X33895000Y-53821335D01*
X33895000Y-53538665D01*
X33839853Y-53261426D01*
X33731680Y-53000273D01*
X33574637Y-52765241D01*
X33374759Y-52565363D01*
X33220000Y-52461957D01*
X33220000Y-51408967D01*
X37045000Y-51408967D01*
X37045000Y-51731033D01*
X37107832Y-52046912D01*
X37231082Y-52344463D01*
X37410013Y-52612252D01*
X37637748Y-52839987D01*
X37905537Y-53018918D01*
X38203088Y-53142168D01*
X38518967Y-53205000D01*
X38841033Y-53205000D01*
X39156912Y-53142168D01*
X39454463Y-53018918D01*
X39722252Y-52839987D01*
X39949987Y-52612252D01*
X40128918Y-52344463D01*
X40252168Y-52046912D01*
X40315000Y-51731033D01*
X40315000Y-51408967D01*
X40252168Y-51093088D01*
X40128918Y-50795537D01*
X39949987Y-50527748D01*
X39722252Y-50300013D01*
X39454463Y-50121082D01*
X39156912Y-49997832D01*
X38841033Y-49935000D01*
X38518967Y-49935000D01*
X38203088Y-49997832D01*
X37905537Y-50121082D01*
X37637748Y-50300013D01*
X37410013Y-50527748D01*
X37231082Y-50795537D01*
X37107832Y-51093088D01*
X37045000Y-51408967D01*
X33220000Y-51408967D01*
X33220000Y-47498072D01*
X33260000Y-47498072D01*
X33384482Y-47485812D01*
X33504180Y-47449502D01*
X33614494Y-47390537D01*
X33711185Y-47311185D01*
X33790537Y-47214494D01*
X33849502Y-47104180D01*
X33885812Y-46984482D01*
X33898072Y-46860000D01*
X33898072Y-46820000D01*
X34102680Y-46820000D01*
X34140002Y-46823676D01*
X34177324Y-46820000D01*
X34177335Y-46820000D01*
X34288988Y-46809003D01*
X34432249Y-46765546D01*
X34564278Y-46694974D01*
X34680003Y-46600001D01*
X34703805Y-46570998D01*
X35070643Y-46204161D01*
X36618519Y-46204161D01*
X36655841Y-46207837D01*
X36693163Y-46204161D01*
X36693174Y-46204161D01*
X36804827Y-46193164D01*
X36805434Y-46192980D01*
X37299608Y-46192980D01*
X37231082Y-46295537D01*
X37107832Y-46593088D01*
X37045000Y-46908967D01*
X37045000Y-47231033D01*
X37107832Y-47546912D01*
X37231082Y-47844463D01*
X37410013Y-48112252D01*
X37637748Y-48339987D01*
X37905537Y-48518918D01*
X38203088Y-48642168D01*
X38518967Y-48705000D01*
X38841033Y-48705000D01*
X39156912Y-48642168D01*
X39454463Y-48518918D01*
X39722252Y-48339987D01*
X39949987Y-48112252D01*
X40128918Y-47844463D01*
X40252168Y-47546912D01*
X40315000Y-47231033D01*
X40315000Y-46908967D01*
X40252168Y-46593088D01*
X40128918Y-46295537D01*
X39949987Y-46027748D01*
X39722252Y-45800013D01*
X39454463Y-45621082D01*
X39156912Y-45497832D01*
X38841033Y-45435000D01*
X38527622Y-45435000D01*
X38557664Y-45404958D01*
X38586661Y-45381161D01*
X38681634Y-45265436D01*
X38752206Y-45133407D01*
X38795663Y-44990146D01*
X38806660Y-44878493D01*
X38806660Y-44878483D01*
X38810336Y-44841160D01*
X38806660Y-44803837D01*
X38806660Y-44303981D01*
X38810336Y-44266658D01*
X38806660Y-44229335D01*
X38806660Y-44229325D01*
X38795663Y-44117672D01*
X38752206Y-43974411D01*
X38749528Y-43969400D01*
X38681634Y-43842381D01*
X38610459Y-43755655D01*
X38586661Y-43726657D01*
X38557663Y-43702859D01*
X37430865Y-42576062D01*
X37407062Y-42547058D01*
X37378058Y-42523255D01*
X37370537Y-42515734D01*
X37373072Y-42490000D01*
X37373072Y-41430000D01*
X37360812Y-41305518D01*
X37324502Y-41185820D01*
X37289320Y-41120000D01*
X40611928Y-41120000D01*
X40615000Y-41184250D01*
X40773750Y-41343000D01*
X41773000Y-41343000D01*
X41773000Y-40643750D01*
X41614250Y-40485000D01*
X41250000Y-40481928D01*
X41125518Y-40494188D01*
X41005820Y-40530498D01*
X40895506Y-40589463D01*
X40798815Y-40668815D01*
X40719463Y-40765506D01*
X40660498Y-40875820D01*
X40624188Y-40995518D01*
X40611928Y-41120000D01*
X37289320Y-41120000D01*
X37265537Y-41075506D01*
X37186185Y-40978815D01*
X37089494Y-40899463D01*
X36979180Y-40840498D01*
X36859482Y-40804188D01*
X36735000Y-40791928D01*
X36085000Y-40791928D01*
X35960518Y-40804188D01*
X35935000Y-40811929D01*
X35909482Y-40804188D01*
X35785000Y-40791928D01*
X35745750Y-40795000D01*
X35587000Y-40953750D01*
X35587000Y-41035859D01*
X35554463Y-41075506D01*
X35495498Y-41185820D01*
X35460000Y-41302841D01*
X35424502Y-41185820D01*
X35365537Y-41075506D01*
X35333000Y-41035859D01*
X35333000Y-40953750D01*
X35174250Y-40795000D01*
X35135000Y-40791928D01*
X35010518Y-40804188D01*
X34985000Y-40811929D01*
X34959482Y-40804188D01*
X34835000Y-40791928D01*
X34185000Y-40791928D01*
X34060518Y-40804188D01*
X33940820Y-40840498D01*
X33830506Y-40899463D01*
X33733815Y-40978815D01*
X33654463Y-41075506D01*
X33650508Y-41082905D01*
X33535767Y-41021574D01*
X33392506Y-40978117D01*
X33280853Y-40967120D01*
X33280842Y-40967120D01*
X33243520Y-40963444D01*
X33206198Y-40967120D01*
X31518985Y-40967120D01*
X31469180Y-40940498D01*
X31349482Y-40904188D01*
X31225000Y-40891928D01*
X29975000Y-40891928D01*
X29850518Y-40904188D01*
X29730820Y-40940498D01*
X29620506Y-40999463D01*
X29523815Y-41078815D01*
X29444463Y-41175506D01*
X29391324Y-41274921D01*
X29329634Y-41280997D01*
X29186373Y-41324454D01*
X29054344Y-41395026D01*
X28938619Y-41489999D01*
X28914816Y-41519003D01*
X28578258Y-41855561D01*
X28549260Y-41879359D01*
X28525462Y-41908357D01*
X28525461Y-41908358D01*
X28454286Y-41995084D01*
X28383714Y-42127114D01*
X28355370Y-42220556D01*
X28343487Y-42259731D01*
X28340258Y-42270375D01*
X28325584Y-42419360D01*
X28329261Y-42456692D01*
X28329260Y-43638538D01*
X27793099Y-44174700D01*
X27417333Y-44174700D01*
X27380000Y-44171023D01*
X27342667Y-44174700D01*
X27231014Y-44185697D01*
X27087753Y-44229154D01*
X26955724Y-44299726D01*
X26839999Y-44394699D01*
X26745026Y-44510424D01*
X26674454Y-44642453D01*
X26630997Y-44785714D01*
X26625842Y-44838053D01*
X26465241Y-44945363D01*
X26265363Y-45145241D01*
X26108320Y-45380273D01*
X26000147Y-45641426D01*
X25945000Y-45918665D01*
X25945000Y-46201335D01*
X26000147Y-46478574D01*
X26108320Y-46739727D01*
X26265363Y-46974759D01*
X26465241Y-47174637D01*
X26700273Y-47331680D01*
X26961426Y-47439853D01*
X27238665Y-47495000D01*
X27521335Y-47495000D01*
X27798574Y-47439853D01*
X28059727Y-47331680D01*
X28294759Y-47174637D01*
X28494637Y-46974759D01*
X28650000Y-46742241D01*
X28805363Y-46974759D01*
X29005241Y-47174637D01*
X29160001Y-47278044D01*
X29160000Y-52461956D01*
X29005241Y-52565363D01*
X28805363Y-52765241D01*
X28650000Y-52997759D01*
X28494637Y-52765241D01*
X28294759Y-52565363D01*
X28059727Y-52408320D01*
X27798574Y-52300147D01*
X27521335Y-52245000D01*
X27238665Y-52245000D01*
X26961426Y-52300147D01*
X26700273Y-52408320D01*
X26465241Y-52565363D01*
X26265363Y-52765241D01*
X26108320Y-53000273D01*
X26000147Y-53261426D01*
X25945000Y-53538665D01*
X25945000Y-53821335D01*
X26000147Y-54098574D01*
X26108320Y-54359727D01*
X26265363Y-54594759D01*
X26465241Y-54794637D01*
X26700273Y-54951680D01*
X26961426Y-55059853D01*
X27238665Y-55115000D01*
X27521335Y-55115000D01*
X27798574Y-55059853D01*
X28059727Y-54951680D01*
X28294759Y-54794637D01*
X28494637Y-54594759D01*
X28650000Y-54362241D01*
X28805363Y-54594759D01*
X29005241Y-54794637D01*
X29240273Y-54951680D01*
X29501426Y-55059853D01*
X29778665Y-55115000D01*
X30061335Y-55115000D01*
X30338574Y-55059853D01*
X30599727Y-54951680D01*
X30834759Y-54794637D01*
X31034637Y-54594759D01*
X31190000Y-54362241D01*
X31345363Y-54594759D01*
X31545241Y-54794637D01*
X31705843Y-54901948D01*
X31710004Y-54944188D01*
X31710998Y-54954285D01*
X31754454Y-55097546D01*
X31825026Y-55229576D01*
X31891438Y-55310498D01*
X31920000Y-55345301D01*
X31948998Y-55369099D01*
X32580000Y-56000102D01*
X32580000Y-56627659D01*
X32449465Y-56714880D01*
X32254880Y-56909465D01*
X32101995Y-57138273D01*
X32070381Y-57214595D01*
X32067636Y-57206977D01*
X32005656Y-57091020D01*
X31765565Y-57024040D01*
X30979605Y-57810000D01*
X31765565Y-58595960D01*
X32005656Y-58528980D01*
X32071687Y-58388557D01*
X32101995Y-58461727D01*
X32254880Y-58690535D01*
X32449465Y-58885120D01*
X32678273Y-59038005D01*
X32932510Y-59143314D01*
X33202408Y-59197000D01*
X33477592Y-59197000D01*
X33631570Y-59166372D01*
X33844900Y-59379702D01*
X33868699Y-59408701D01*
X33897697Y-59432499D01*
X33984423Y-59503674D01*
X34070299Y-59549576D01*
X34116453Y-59574246D01*
X34259714Y-59617703D01*
X34371367Y-59628700D01*
X34371376Y-59628700D01*
X34408699Y-59632376D01*
X34446022Y-59628700D01*
X36750539Y-59628700D01*
X37139960Y-60018122D01*
X37163759Y-60047121D01*
X37279484Y-60142094D01*
X37411513Y-60212666D01*
X37554774Y-60256123D01*
X37666427Y-60267120D01*
X37666436Y-60267120D01*
X37703759Y-60270796D01*
X37741082Y-60267120D01*
X42690558Y-60267120D01*
X42727880Y-60270796D01*
X42765202Y-60267120D01*
X42765213Y-60267120D01*
X42876866Y-60256123D01*
X43020127Y-60212666D01*
X43152156Y-60142094D01*
X43267881Y-60047121D01*
X43291683Y-60018118D01*
X43681102Y-59628700D01*
X44669961Y-59628700D01*
X44699999Y-59665301D01*
X44729001Y-59689102D01*
X46356928Y-61317030D01*
X46356928Y-61850000D01*
X26589246Y-61850000D01*
X26722012Y-61651302D01*
X26882953Y-61262756D01*
X26965000Y-60850279D01*
X26965000Y-60429721D01*
X26882953Y-60017244D01*
X26722012Y-59628698D01*
X26488363Y-59279017D01*
X26190983Y-58981637D01*
X25882574Y-58775565D01*
X30014040Y-58775565D01*
X30081020Y-59015656D01*
X30330048Y-59132756D01*
X30597135Y-59199023D01*
X30872017Y-59211910D01*
X31144133Y-59170922D01*
X31403023Y-59077636D01*
X31518980Y-59015656D01*
X31585960Y-58775565D01*
X30800000Y-57989605D01*
X30014040Y-58775565D01*
X25882574Y-58775565D01*
X25841302Y-58747988D01*
X25452756Y-58587047D01*
X25040279Y-58505000D01*
X24619721Y-58505000D01*
X24207244Y-58587047D01*
X23818698Y-58747988D01*
X23670000Y-58847345D01*
X23670000Y-57882017D01*
X29398090Y-57882017D01*
X29439078Y-58154133D01*
X29532364Y-58413023D01*
X29594344Y-58528980D01*
X29834435Y-58595960D01*
X30620395Y-57810000D01*
X29834435Y-57024040D01*
X29594344Y-57091020D01*
X29477244Y-57340048D01*
X29410977Y-57607135D01*
X29398090Y-57882017D01*
X23670000Y-57882017D01*
X23670000Y-56844435D01*
X30014040Y-56844435D01*
X30800000Y-57630395D01*
X31585960Y-56844435D01*
X31518980Y-56604344D01*
X31269952Y-56487244D01*
X31002865Y-56420977D01*
X30727983Y-56408090D01*
X30455867Y-56449078D01*
X30196977Y-56542364D01*
X30081020Y-56604344D01*
X30014040Y-56844435D01*
X23670000Y-56844435D01*
X23670000Y-41211968D01*
X23706525Y-41266632D01*
X23913368Y-41473475D01*
X24156589Y-41635990D01*
X24426842Y-41747932D01*
X24713740Y-41805000D01*
X25006260Y-41805000D01*
X25293158Y-41747932D01*
X25563411Y-41635990D01*
X25806632Y-41473475D01*
X26013475Y-41266632D01*
X26175990Y-41023411D01*
X26287932Y-40753158D01*
X26345000Y-40466260D01*
X26345000Y-40173740D01*
X26287932Y-39886842D01*
X26175990Y-39616589D01*
X26013475Y-39373368D01*
X25806632Y-39166525D01*
X25632240Y-39050000D01*
X25806632Y-38933475D01*
X26013475Y-38726632D01*
X26175990Y-38483411D01*
X26287932Y-38213158D01*
X26345000Y-37926260D01*
X26345000Y-37633740D01*
X26324766Y-37532017D01*
X26698090Y-37532017D01*
X26739078Y-37804133D01*
X26832364Y-38063023D01*
X26894344Y-38178980D01*
X27134435Y-38245960D01*
X27920395Y-37460000D01*
X27134435Y-36674040D01*
X26894344Y-36741020D01*
X26777244Y-36990048D01*
X26710977Y-37257135D01*
X26698090Y-37532017D01*
X26324766Y-37532017D01*
X26287932Y-37346842D01*
X26175990Y-37076589D01*
X26013475Y-36833368D01*
X25806632Y-36626525D01*
X25632240Y-36510000D01*
X25806632Y-36393475D01*
X26013475Y-36186632D01*
X26175990Y-35943411D01*
X26287932Y-35673158D01*
X26345000Y-35386260D01*
X26345000Y-35093740D01*
X26287932Y-34806842D01*
X26252793Y-34722009D01*
X26294578Y-34699674D01*
X26410303Y-34604701D01*
X26434105Y-34575698D01*
X27018442Y-33991362D01*
X27047441Y-33967563D01*
X27142414Y-33851838D01*
X27212986Y-33719809D01*
X27256443Y-33576548D01*
X27263839Y-33501452D01*
X27438273Y-33618005D01*
G37*
X27438273Y-33618005D02*
X27515515Y-33650000D01*
X27438273Y-33681995D01*
X27209465Y-33834880D01*
X27014880Y-34029465D01*
X26861995Y-34258273D01*
X26756686Y-34512510D01*
X26703000Y-34782408D01*
X26703000Y-35057592D01*
X26756686Y-35327490D01*
X26861995Y-35581727D01*
X27014880Y-35810535D01*
X27209465Y-36005120D01*
X27438273Y-36158005D01*
X27509943Y-36187692D01*
X27496977Y-36192364D01*
X27381020Y-36254344D01*
X27314040Y-36494435D01*
X28100000Y-37280395D01*
X28114143Y-37266253D01*
X28293748Y-37445858D01*
X28279605Y-37460000D01*
X28293748Y-37474143D01*
X28114143Y-37653748D01*
X28100000Y-37639605D01*
X27314040Y-38425565D01*
X27381020Y-38665656D01*
X27516760Y-38729485D01*
X27438273Y-38761995D01*
X27209465Y-38914880D01*
X27014880Y-39109465D01*
X26861995Y-39338273D01*
X26756686Y-39592510D01*
X26703000Y-39862408D01*
X26703000Y-40137592D01*
X26756686Y-40407490D01*
X26861995Y-40661727D01*
X27014880Y-40890535D01*
X27209465Y-41085120D01*
X27438273Y-41238005D01*
X27692510Y-41343314D01*
X27962408Y-41397000D01*
X28237592Y-41397000D01*
X28507490Y-41343314D01*
X28761727Y-41238005D01*
X28990535Y-41085120D01*
X29185120Y-40890535D01*
X29338005Y-40661727D01*
X29443314Y-40407490D01*
X29497000Y-40137592D01*
X29497000Y-39862408D01*
X29466372Y-39708430D01*
X29818804Y-39355998D01*
X29847801Y-39332201D01*
X29898310Y-39270656D01*
X29942774Y-39216477D01*
X30013346Y-39084447D01*
X30020755Y-39060023D01*
X30056803Y-38941186D01*
X30067800Y-38829533D01*
X30067800Y-38829524D01*
X30071476Y-38792201D01*
X30067800Y-38754878D01*
X30067800Y-35000103D01*
X30185518Y-35035812D01*
X30310000Y-35048072D01*
X31610000Y-35048072D01*
X31734482Y-35035812D01*
X31854180Y-34999502D01*
X31964494Y-34940537D01*
X32061185Y-34861185D01*
X32094985Y-34820000D01*
X36944378Y-34820000D01*
X36981700Y-34823676D01*
X37019022Y-34820000D01*
X37019033Y-34820000D01*
X37130686Y-34809003D01*
X37273947Y-34765546D01*
X37405976Y-34694974D01*
X37521701Y-34600001D01*
X37545504Y-34570997D01*
X37684001Y-34432500D01*
X37823299Y-34432500D01*
X38364300Y-34973502D01*
X38364300Y-35035639D01*
X38404074Y-35235598D01*
X38482095Y-35423956D01*
X38595363Y-35593474D01*
X38739526Y-35737637D01*
X38909044Y-35850905D01*
X39097402Y-35928926D01*
X39297361Y-35968700D01*
X39501239Y-35968700D01*
X39701198Y-35928926D01*
X39889556Y-35850905D01*
X40059074Y-35737637D01*
X40103011Y-35693700D01*
X41330899Y-35693700D01*
X43064905Y-37427708D01*
X43088699Y-37456701D01*
X43117692Y-37480495D01*
X43117696Y-37480499D01*
X43165835Y-37520005D01*
X43201974Y-37549663D01*
X43188198Y-37551020D01*
X42081590Y-37551020D01*
X42091560Y-37500899D01*
X42091560Y-37297021D01*
X42051786Y-37097062D01*
X41973765Y-36908704D01*
X41860497Y-36739186D01*
X41716334Y-36595023D01*
X41546816Y-36481755D01*
X41358458Y-36403734D01*
X41158499Y-36363960D01*
X40954621Y-36363960D01*
X40754662Y-36403734D01*
X40566304Y-36481755D01*
X40396786Y-36595023D01*
X40380789Y-36611020D01*
X40217593Y-36611020D01*
X40180260Y-36607343D01*
X40142927Y-36611020D01*
X40031274Y-36622017D01*
X39888013Y-36665474D01*
X39755984Y-36736046D01*
X39640259Y-36831019D01*
X39545286Y-36946744D01*
X39474714Y-37078773D01*
X39431257Y-37222034D01*
X39416583Y-37371020D01*
X39420261Y-37408362D01*
X39420260Y-38250637D01*
X39416584Y-38287960D01*
X39420260Y-38325282D01*
X39420260Y-38325292D01*
X39431257Y-38436945D01*
X39452121Y-38505724D01*
X39474714Y-38580206D01*
X39545286Y-38712236D01*
X39585131Y-38760786D01*
X39640259Y-38827961D01*
X39652925Y-38838355D01*
X39663319Y-38851021D01*
X39779044Y-38945994D01*
X39911073Y-39016566D01*
X40054334Y-39060023D01*
X40165987Y-39071020D01*
X40165995Y-39071020D01*
X40203320Y-39074696D01*
X40240645Y-39071020D01*
X40934202Y-39071020D01*
X40930880Y-39087721D01*
X40930880Y-39291599D01*
X40970654Y-39491558D01*
X41048675Y-39679916D01*
X41161943Y-39849434D01*
X41306106Y-39993597D01*
X41475624Y-40106865D01*
X41663982Y-40184886D01*
X41863941Y-40224660D01*
X42067819Y-40224660D01*
X42267778Y-40184886D01*
X42456136Y-40106865D01*
X42625654Y-39993597D01*
X42647981Y-39971270D01*
X42785169Y-39971270D01*
X43155310Y-40341412D01*
X43155311Y-40927934D01*
X43139502Y-40875820D01*
X43080537Y-40765506D01*
X43001185Y-40668815D01*
X42904494Y-40589463D01*
X42794180Y-40530498D01*
X42674482Y-40494188D01*
X42550000Y-40481928D01*
X42185750Y-40485000D01*
X42027000Y-40643750D01*
X42027000Y-41343000D01*
X42047000Y-41343000D01*
X42047000Y-41597000D01*
X42027000Y-41597000D01*
X42027000Y-41617000D01*
X41773000Y-41617000D01*
X41773000Y-41597000D01*
X40773750Y-41597000D01*
X40615000Y-41755750D01*
X40611928Y-41820000D01*
X40624188Y-41944482D01*
X40660498Y-42064180D01*
X40719463Y-42174494D01*
X40798815Y-42271185D01*
X40895506Y-42350537D01*
X41005820Y-42409502D01*
X41040427Y-42420000D01*
X41005820Y-42430498D01*
X40895506Y-42489463D01*
X40798815Y-42568815D01*
X40719463Y-42665506D01*
X40660498Y-42775820D01*
X40624188Y-42895518D01*
X40611928Y-43020000D01*
X40611928Y-43720000D01*
X40624188Y-43844482D01*
X40660498Y-43964180D01*
X40719463Y-44074494D01*
X40798815Y-44171185D01*
X40895506Y-44250537D01*
X41005820Y-44309502D01*
X41125518Y-44345812D01*
X41202949Y-44353438D01*
X41265026Y-44469576D01*
X41327210Y-44545346D01*
X41360000Y-44585301D01*
X41388998Y-44609099D01*
X42606100Y-45826202D01*
X42606101Y-47294488D01*
X42562163Y-47338426D01*
X42448895Y-47507944D01*
X42370874Y-47696302D01*
X42331100Y-47896261D01*
X42331100Y-48100139D01*
X42370874Y-48300098D01*
X42448895Y-48488456D01*
X42562163Y-48657974D01*
X42706326Y-48802137D01*
X42875844Y-48915405D01*
X43064202Y-48993426D01*
X43264161Y-49033200D01*
X43468039Y-49033200D01*
X43667998Y-48993426D01*
X43856356Y-48915405D01*
X44025874Y-48802137D01*
X44170037Y-48657974D01*
X44283305Y-48488456D01*
X44299919Y-48448346D01*
X44405537Y-48518918D01*
X44703088Y-48642168D01*
X45018967Y-48705000D01*
X45341033Y-48705000D01*
X45656912Y-48642168D01*
X45954463Y-48518918D01*
X46222252Y-48339987D01*
X46449987Y-48112252D01*
X46628918Y-47844463D01*
X46752168Y-47546912D01*
X46815000Y-47231033D01*
X46815000Y-46908967D01*
X46765905Y-46662147D01*
X46898080Y-46794323D01*
X46898081Y-47590148D01*
X46894404Y-47627480D01*
X46898081Y-47664813D01*
X46909078Y-47776466D01*
X46917163Y-47803118D01*
X46952534Y-47919726D01*
X47023106Y-48051756D01*
X47090516Y-48133894D01*
X47118080Y-48167481D01*
X47147078Y-48191279D01*
X54062570Y-55106772D01*
X54005444Y-55130435D01*
X53835926Y-55243703D01*
X53791859Y-55287770D01*
X51736972Y-55287770D01*
X47508204Y-51059003D01*
X47484401Y-51029999D01*
X47368676Y-50935026D01*
X47236647Y-50864454D01*
X47093386Y-50820997D01*
X46981733Y-50810000D01*
X46981722Y-50810000D01*
X46944400Y-50806324D01*
X46907078Y-50810000D01*
X46634909Y-50810000D01*
X46628918Y-50795537D01*
X46449987Y-50527748D01*
X46222252Y-50300013D01*
X45954463Y-50121082D01*
X45656912Y-49997832D01*
X45341033Y-49935000D01*
X45018967Y-49935000D01*
X44703088Y-49997832D01*
X44405537Y-50121082D01*
X44137748Y-50300013D01*
X43910013Y-50527748D01*
X43731082Y-50795537D01*
X43607832Y-51093088D01*
X43545000Y-51408967D01*
X43545000Y-51731033D01*
X43607832Y-52046912D01*
X43731082Y-52344463D01*
X43910013Y-52612252D01*
X44137748Y-52839987D01*
X44405537Y-53018918D01*
X44703088Y-53142168D01*
X45018967Y-53205000D01*
X45341033Y-53205000D01*
X45656912Y-53142168D01*
X45954463Y-53018918D01*
X46222252Y-52839987D01*
X46449987Y-52612252D01*
X46628918Y-52344463D01*
X46633354Y-52333755D01*
X50858371Y-56558773D01*
X50882169Y-56587771D01*
X50911167Y-56611569D01*
X50997893Y-56682744D01*
X51096074Y-56735223D01*
X51129923Y-56753316D01*
X51273184Y-56796773D01*
X51384837Y-56807770D01*
X51384846Y-56807770D01*
X51422169Y-56811446D01*
X51459492Y-56807770D01*
X53792119Y-56807770D01*
X53835926Y-56851577D01*
X54005444Y-56964845D01*
X54193802Y-57042866D01*
X54393761Y-57082640D01*
X54597639Y-57082640D01*
X54797598Y-57042866D01*
X54985956Y-56964845D01*
X55155474Y-56851577D01*
X55299637Y-56707414D01*
X55412905Y-56537896D01*
X55436568Y-56480770D01*
X55660001Y-56704203D01*
X55660000Y-59514962D01*
X55575820Y-59540498D01*
X55465506Y-59599463D01*
X55420000Y-59636809D01*
X55374494Y-59599463D01*
X55264180Y-59540498D01*
X55144482Y-59504188D01*
X55119830Y-59501760D01*
X55054974Y-59380424D01*
X54960001Y-59264699D01*
X54844276Y-59169726D01*
X54712247Y-59099154D01*
X54568986Y-59055697D01*
X54457333Y-59044700D01*
X54420000Y-59041023D01*
X54382667Y-59044700D01*
X54244948Y-59044700D01*
X54143937Y-58893526D01*
X53999774Y-58749363D01*
X53830256Y-58636095D01*
X53641898Y-58558074D01*
X53441939Y-58518300D01*
X53238061Y-58518300D01*
X53038102Y-58558074D01*
X52849744Y-58636095D01*
X52680226Y-58749363D01*
X52536063Y-58893526D01*
X52422795Y-59063044D01*
X52344774Y-59251402D01*
X52305000Y-59451361D01*
X52305000Y-59491928D01*
X51820000Y-59491928D01*
X51695518Y-59504188D01*
X51575820Y-59540498D01*
X51465506Y-59599463D01*
X51420000Y-59636809D01*
X51374494Y-59599463D01*
X51264180Y-59540498D01*
X51144482Y-59504188D01*
X51020000Y-59491928D01*
X49820000Y-59491928D01*
X49695518Y-59504188D01*
X49575820Y-59540498D01*
X49465506Y-59599463D01*
X49368815Y-59678815D01*
X49289463Y-59775506D01*
X49230498Y-59885820D01*
X49194188Y-60005518D01*
X49181928Y-60130000D01*
X49181928Y-61830000D01*
X49183898Y-61850000D01*
X48883072Y-61850000D01*
X48883072Y-61210000D01*
X48870812Y-61085518D01*
X48834502Y-60965820D01*
X48775537Y-60855506D01*
X48696185Y-60758815D01*
X48636704Y-60710000D01*
X48696185Y-60661185D01*
X48775537Y-60564494D01*
X48834502Y-60454180D01*
X48870812Y-60334482D01*
X48883072Y-60210000D01*
X48880000Y-59995750D01*
X48721250Y-59837000D01*
X47747000Y-59837000D01*
X47747000Y-59857000D01*
X47493000Y-59857000D01*
X47493000Y-59837000D01*
X47473000Y-59837000D01*
X47473000Y-59583000D01*
X47493000Y-59583000D01*
X47493000Y-58733750D01*
X47747000Y-58733750D01*
X47747000Y-59583000D01*
X48721250Y-59583000D01*
X48880000Y-59424250D01*
X48883072Y-59210000D01*
X48870812Y-59085518D01*
X48834502Y-58965820D01*
X48775537Y-58855506D01*
X48696185Y-58758815D01*
X48599494Y-58679463D01*
X48489180Y-58620498D01*
X48369482Y-58584188D01*
X48245000Y-58571928D01*
X47905750Y-58575000D01*
X47747000Y-58733750D01*
X47493000Y-58733750D01*
X47334250Y-58575000D01*
X46995000Y-58571928D01*
X46870518Y-58584188D01*
X46750820Y-58620498D01*
X46640506Y-58679463D01*
X46543815Y-58758815D01*
X46464463Y-58855506D01*
X46405498Y-58965820D01*
X46369188Y-59085518D01*
X46360745Y-59171244D01*
X46263541Y-59074040D01*
X46279502Y-59044180D01*
X46315812Y-58924482D01*
X46328072Y-58800000D01*
X46328072Y-58000000D01*
X46315812Y-57875518D01*
X46279502Y-57755820D01*
X46220537Y-57645506D01*
X46141185Y-57548815D01*
X46044494Y-57469463D01*
X45934180Y-57410498D01*
X45814482Y-57374188D01*
X45690000Y-57361928D01*
X44790000Y-57361928D01*
X44665518Y-57374188D01*
X44545820Y-57410498D01*
X44435506Y-57469463D01*
X44338815Y-57548815D01*
X44259463Y-57645506D01*
X44200498Y-57755820D01*
X44164188Y-57875518D01*
X44151928Y-58000000D01*
X44151928Y-58108700D01*
X43403622Y-58108700D01*
X43366299Y-58105024D01*
X43328976Y-58108700D01*
X43328967Y-58108700D01*
X43217314Y-58119697D01*
X43074053Y-58163154D01*
X42942024Y-58233726D01*
X42826299Y-58328699D01*
X42802501Y-58357697D01*
X42726929Y-58433269D01*
X42748005Y-58401727D01*
X42853314Y-58147490D01*
X42907000Y-57877592D01*
X42907000Y-57602408D01*
X42876372Y-57448430D01*
X43264802Y-57060000D01*
X44263982Y-57060000D01*
X44338815Y-57151185D01*
X44435506Y-57230537D01*
X44545820Y-57289502D01*
X44665518Y-57325812D01*
X44790000Y-57338072D01*
X45690000Y-57338072D01*
X45814482Y-57325812D01*
X45934180Y-57289502D01*
X46044494Y-57230537D01*
X46141185Y-57151185D01*
X46220537Y-57054494D01*
X46279502Y-56944180D01*
X46315812Y-56824482D01*
X46328072Y-56700000D01*
X46328072Y-55900000D01*
X46315812Y-55775518D01*
X46279502Y-55655820D01*
X46220537Y-55545506D01*
X46141185Y-55448815D01*
X46044494Y-55369463D01*
X45934180Y-55310498D01*
X45814482Y-55274188D01*
X45690000Y-55261928D01*
X44790000Y-55261928D01*
X44665518Y-55274188D01*
X44545820Y-55310498D01*
X44435506Y-55369463D01*
X44338815Y-55448815D01*
X44263982Y-55540000D01*
X42987333Y-55540000D01*
X42950000Y-55536323D01*
X42912667Y-55540000D01*
X42801014Y-55550997D01*
X42657753Y-55594454D01*
X42525724Y-55665026D01*
X42409999Y-55759999D01*
X42386201Y-55788997D01*
X41801570Y-56373628D01*
X41647592Y-56343000D01*
X41372408Y-56343000D01*
X41102510Y-56396686D01*
X40848273Y-56501995D01*
X40619465Y-56654880D01*
X40424880Y-56849465D01*
X40271995Y-57078273D01*
X40240381Y-57154595D01*
X40237636Y-57146977D01*
X40175656Y-57031020D01*
X39935565Y-56964040D01*
X39149605Y-57750000D01*
X39935565Y-58535960D01*
X40175656Y-58468980D01*
X40241687Y-58328557D01*
X40271995Y-58401727D01*
X40424880Y-58630535D01*
X40541465Y-58747120D01*
X39747157Y-58747120D01*
X39755960Y-58715565D01*
X38970000Y-57929605D01*
X38955858Y-57943748D01*
X38776253Y-57764143D01*
X38790395Y-57750000D01*
X38004435Y-56964040D01*
X37764344Y-57031020D01*
X37647244Y-57280048D01*
X37580977Y-57547135D01*
X37568090Y-57822017D01*
X37609078Y-58094133D01*
X37702364Y-58353023D01*
X37764344Y-58468980D01*
X38004433Y-58535959D01*
X37905917Y-58634475D01*
X37629143Y-58357702D01*
X37605341Y-58328699D01*
X37489616Y-58233726D01*
X37357587Y-58163154D01*
X37214326Y-58119697D01*
X37102673Y-58108700D01*
X37102662Y-58108700D01*
X37065340Y-58105024D01*
X37028018Y-58108700D01*
X34723502Y-58108700D01*
X34706372Y-58091570D01*
X34737000Y-57937592D01*
X34737000Y-57662408D01*
X34683314Y-57392510D01*
X34578005Y-57138273D01*
X34425120Y-56909465D01*
X34300090Y-56784435D01*
X38184040Y-56784435D01*
X38970000Y-57570395D01*
X39755960Y-56784435D01*
X39688980Y-56544344D01*
X39439952Y-56427244D01*
X39172865Y-56360977D01*
X38897983Y-56348090D01*
X38625867Y-56389078D01*
X38366977Y-56482364D01*
X38251020Y-56544344D01*
X38184040Y-56784435D01*
X34300090Y-56784435D01*
X34230535Y-56714880D01*
X34100000Y-56627659D01*
X34100000Y-55722623D01*
X34103676Y-55685300D01*
X34100000Y-55647977D01*
X34100000Y-55647967D01*
X34089003Y-55536314D01*
X34045546Y-55393053D01*
X34018377Y-55342224D01*
X33974974Y-55261023D01*
X33903799Y-55174297D01*
X33880001Y-55145299D01*
X33851004Y-55121502D01*
X33449449Y-54719947D01*
X33574637Y-54594759D01*
X33731680Y-54359727D01*
X33839853Y-54098574D01*
X33895000Y-53821335D01*
X33895000Y-53538665D01*
X33839853Y-53261426D01*
X33731680Y-53000273D01*
X33574637Y-52765241D01*
X33374759Y-52565363D01*
X33220000Y-52461957D01*
X33220000Y-51408967D01*
X37045000Y-51408967D01*
X37045000Y-51731033D01*
X37107832Y-52046912D01*
X37231082Y-52344463D01*
X37410013Y-52612252D01*
X37637748Y-52839987D01*
X37905537Y-53018918D01*
X38203088Y-53142168D01*
X38518967Y-53205000D01*
X38841033Y-53205000D01*
X39156912Y-53142168D01*
X39454463Y-53018918D01*
X39722252Y-52839987D01*
X39949987Y-52612252D01*
X40128918Y-52344463D01*
X40252168Y-52046912D01*
X40315000Y-51731033D01*
X40315000Y-51408967D01*
X40252168Y-51093088D01*
X40128918Y-50795537D01*
X39949987Y-50527748D01*
X39722252Y-50300013D01*
X39454463Y-50121082D01*
X39156912Y-49997832D01*
X38841033Y-49935000D01*
X38518967Y-49935000D01*
X38203088Y-49997832D01*
X37905537Y-50121082D01*
X37637748Y-50300013D01*
X37410013Y-50527748D01*
X37231082Y-50795537D01*
X37107832Y-51093088D01*
X37045000Y-51408967D01*
X33220000Y-51408967D01*
X33220000Y-47498072D01*
X33260000Y-47498072D01*
X33384482Y-47485812D01*
X33504180Y-47449502D01*
X33614494Y-47390537D01*
X33711185Y-47311185D01*
X33790537Y-47214494D01*
X33849502Y-47104180D01*
X33885812Y-46984482D01*
X33898072Y-46860000D01*
X33898072Y-46820000D01*
X34102680Y-46820000D01*
X34140002Y-46823676D01*
X34177324Y-46820000D01*
X34177335Y-46820000D01*
X34288988Y-46809003D01*
X34432249Y-46765546D01*
X34564278Y-46694974D01*
X34680003Y-46600001D01*
X34703805Y-46570998D01*
X35070643Y-46204161D01*
X36618519Y-46204161D01*
X36655841Y-46207837D01*
X36693163Y-46204161D01*
X36693174Y-46204161D01*
X36804827Y-46193164D01*
X36805434Y-46192980D01*
X37299608Y-46192980D01*
X37231082Y-46295537D01*
X37107832Y-46593088D01*
X37045000Y-46908967D01*
X37045000Y-47231033D01*
X37107832Y-47546912D01*
X37231082Y-47844463D01*
X37410013Y-48112252D01*
X37637748Y-48339987D01*
X37905537Y-48518918D01*
X38203088Y-48642168D01*
X38518967Y-48705000D01*
X38841033Y-48705000D01*
X39156912Y-48642168D01*
X39454463Y-48518918D01*
X39722252Y-48339987D01*
X39949987Y-48112252D01*
X40128918Y-47844463D01*
X40252168Y-47546912D01*
X40315000Y-47231033D01*
X40315000Y-46908967D01*
X40252168Y-46593088D01*
X40128918Y-46295537D01*
X39949987Y-46027748D01*
X39722252Y-45800013D01*
X39454463Y-45621082D01*
X39156912Y-45497832D01*
X38841033Y-45435000D01*
X38527622Y-45435000D01*
X38557664Y-45404958D01*
X38586661Y-45381161D01*
X38681634Y-45265436D01*
X38752206Y-45133407D01*
X38795663Y-44990146D01*
X38806660Y-44878493D01*
X38806660Y-44878483D01*
X38810336Y-44841160D01*
X38806660Y-44803837D01*
X38806660Y-44303981D01*
X38810336Y-44266658D01*
X38806660Y-44229335D01*
X38806660Y-44229325D01*
X38795663Y-44117672D01*
X38752206Y-43974411D01*
X38749528Y-43969400D01*
X38681634Y-43842381D01*
X38610459Y-43755655D01*
X38586661Y-43726657D01*
X38557663Y-43702859D01*
X37430865Y-42576062D01*
X37407062Y-42547058D01*
X37378058Y-42523255D01*
X37370537Y-42515734D01*
X37373072Y-42490000D01*
X37373072Y-41430000D01*
X37360812Y-41305518D01*
X37324502Y-41185820D01*
X37289320Y-41120000D01*
X40611928Y-41120000D01*
X40615000Y-41184250D01*
X40773750Y-41343000D01*
X41773000Y-41343000D01*
X41773000Y-40643750D01*
X41614250Y-40485000D01*
X41250000Y-40481928D01*
X41125518Y-40494188D01*
X41005820Y-40530498D01*
X40895506Y-40589463D01*
X40798815Y-40668815D01*
X40719463Y-40765506D01*
X40660498Y-40875820D01*
X40624188Y-40995518D01*
X40611928Y-41120000D01*
X37289320Y-41120000D01*
X37265537Y-41075506D01*
X37186185Y-40978815D01*
X37089494Y-40899463D01*
X36979180Y-40840498D01*
X36859482Y-40804188D01*
X36735000Y-40791928D01*
X36085000Y-40791928D01*
X35960518Y-40804188D01*
X35935000Y-40811929D01*
X35909482Y-40804188D01*
X35785000Y-40791928D01*
X35745750Y-40795000D01*
X35587000Y-40953750D01*
X35587000Y-41035859D01*
X35554463Y-41075506D01*
X35495498Y-41185820D01*
X35460000Y-41302841D01*
X35424502Y-41185820D01*
X35365537Y-41075506D01*
X35333000Y-41035859D01*
X35333000Y-40953750D01*
X35174250Y-40795000D01*
X35135000Y-40791928D01*
X35010518Y-40804188D01*
X34985000Y-40811929D01*
X34959482Y-40804188D01*
X34835000Y-40791928D01*
X34185000Y-40791928D01*
X34060518Y-40804188D01*
X33940820Y-40840498D01*
X33830506Y-40899463D01*
X33733815Y-40978815D01*
X33654463Y-41075506D01*
X33650508Y-41082905D01*
X33535767Y-41021574D01*
X33392506Y-40978117D01*
X33280853Y-40967120D01*
X33280842Y-40967120D01*
X33243520Y-40963444D01*
X33206198Y-40967120D01*
X31518985Y-40967120D01*
X31469180Y-40940498D01*
X31349482Y-40904188D01*
X31225000Y-40891928D01*
X29975000Y-40891928D01*
X29850518Y-40904188D01*
X29730820Y-40940498D01*
X29620506Y-40999463D01*
X29523815Y-41078815D01*
X29444463Y-41175506D01*
X29391324Y-41274921D01*
X29329634Y-41280997D01*
X29186373Y-41324454D01*
X29054344Y-41395026D01*
X28938619Y-41489999D01*
X28914816Y-41519003D01*
X28578258Y-41855561D01*
X28549260Y-41879359D01*
X28525462Y-41908357D01*
X28525461Y-41908358D01*
X28454286Y-41995084D01*
X28383714Y-42127114D01*
X28355370Y-42220556D01*
X28343487Y-42259731D01*
X28340258Y-42270375D01*
X28325584Y-42419360D01*
X28329261Y-42456692D01*
X28329260Y-43638538D01*
X27793099Y-44174700D01*
X27417333Y-44174700D01*
X27380000Y-44171023D01*
X27342667Y-44174700D01*
X27231014Y-44185697D01*
X27087753Y-44229154D01*
X26955724Y-44299726D01*
X26839999Y-44394699D01*
X26745026Y-44510424D01*
X26674454Y-44642453D01*
X26630997Y-44785714D01*
X26625842Y-44838053D01*
X26465241Y-44945363D01*
X26265363Y-45145241D01*
X26108320Y-45380273D01*
X26000147Y-45641426D01*
X25945000Y-45918665D01*
X25945000Y-46201335D01*
X26000147Y-46478574D01*
X26108320Y-46739727D01*
X26265363Y-46974759D01*
X26465241Y-47174637D01*
X26700273Y-47331680D01*
X26961426Y-47439853D01*
X27238665Y-47495000D01*
X27521335Y-47495000D01*
X27798574Y-47439853D01*
X28059727Y-47331680D01*
X28294759Y-47174637D01*
X28494637Y-46974759D01*
X28650000Y-46742241D01*
X28805363Y-46974759D01*
X29005241Y-47174637D01*
X29160001Y-47278044D01*
X29160000Y-52461956D01*
X29005241Y-52565363D01*
X28805363Y-52765241D01*
X28650000Y-52997759D01*
X28494637Y-52765241D01*
X28294759Y-52565363D01*
X28059727Y-52408320D01*
X27798574Y-52300147D01*
X27521335Y-52245000D01*
X27238665Y-52245000D01*
X26961426Y-52300147D01*
X26700273Y-52408320D01*
X26465241Y-52565363D01*
X26265363Y-52765241D01*
X26108320Y-53000273D01*
X26000147Y-53261426D01*
X25945000Y-53538665D01*
X25945000Y-53821335D01*
X26000147Y-54098574D01*
X26108320Y-54359727D01*
X26265363Y-54594759D01*
X26465241Y-54794637D01*
X26700273Y-54951680D01*
X26961426Y-55059853D01*
X27238665Y-55115000D01*
X27521335Y-55115000D01*
X27798574Y-55059853D01*
X28059727Y-54951680D01*
X28294759Y-54794637D01*
X28494637Y-54594759D01*
X28650000Y-54362241D01*
X28805363Y-54594759D01*
X29005241Y-54794637D01*
X29240273Y-54951680D01*
X29501426Y-55059853D01*
X29778665Y-55115000D01*
X30061335Y-55115000D01*
X30338574Y-55059853D01*
X30599727Y-54951680D01*
X30834759Y-54794637D01*
X31034637Y-54594759D01*
X31190000Y-54362241D01*
X31345363Y-54594759D01*
X31545241Y-54794637D01*
X31705843Y-54901948D01*
X31710004Y-54944188D01*
X31710998Y-54954285D01*
X31754454Y-55097546D01*
X31825026Y-55229576D01*
X31891438Y-55310498D01*
X31920000Y-55345301D01*
X31948998Y-55369099D01*
X32580000Y-56000102D01*
X32580000Y-56627659D01*
X32449465Y-56714880D01*
X32254880Y-56909465D01*
X32101995Y-57138273D01*
X32070381Y-57214595D01*
X32067636Y-57206977D01*
X32005656Y-57091020D01*
X31765565Y-57024040D01*
X30979605Y-57810000D01*
X31765565Y-58595960D01*
X32005656Y-58528980D01*
X32071687Y-58388557D01*
X32101995Y-58461727D01*
X32254880Y-58690535D01*
X32449465Y-58885120D01*
X32678273Y-59038005D01*
X32932510Y-59143314D01*
X33202408Y-59197000D01*
X33477592Y-59197000D01*
X33631570Y-59166372D01*
X33844900Y-59379702D01*
X33868699Y-59408701D01*
X33897697Y-59432499D01*
X33984423Y-59503674D01*
X34070299Y-59549576D01*
X34116453Y-59574246D01*
X34259714Y-59617703D01*
X34371367Y-59628700D01*
X34371376Y-59628700D01*
X34408699Y-59632376D01*
X34446022Y-59628700D01*
X36750539Y-59628700D01*
X37139960Y-60018122D01*
X37163759Y-60047121D01*
X37279484Y-60142094D01*
X37411513Y-60212666D01*
X37554774Y-60256123D01*
X37666427Y-60267120D01*
X37666436Y-60267120D01*
X37703759Y-60270796D01*
X37741082Y-60267120D01*
X42690558Y-60267120D01*
X42727880Y-60270796D01*
X42765202Y-60267120D01*
X42765213Y-60267120D01*
X42876866Y-60256123D01*
X43020127Y-60212666D01*
X43152156Y-60142094D01*
X43267881Y-60047121D01*
X43291683Y-60018118D01*
X43681102Y-59628700D01*
X44669961Y-59628700D01*
X44699999Y-59665301D01*
X44729001Y-59689102D01*
X46356928Y-61317030D01*
X46356928Y-61850000D01*
X26589246Y-61850000D01*
X26722012Y-61651302D01*
X26882953Y-61262756D01*
X26965000Y-60850279D01*
X26965000Y-60429721D01*
X26882953Y-60017244D01*
X26722012Y-59628698D01*
X26488363Y-59279017D01*
X26190983Y-58981637D01*
X25882574Y-58775565D01*
X30014040Y-58775565D01*
X30081020Y-59015656D01*
X30330048Y-59132756D01*
X30597135Y-59199023D01*
X30872017Y-59211910D01*
X31144133Y-59170922D01*
X31403023Y-59077636D01*
X31518980Y-59015656D01*
X31585960Y-58775565D01*
X30800000Y-57989605D01*
X30014040Y-58775565D01*
X25882574Y-58775565D01*
X25841302Y-58747988D01*
X25452756Y-58587047D01*
X25040279Y-58505000D01*
X24619721Y-58505000D01*
X24207244Y-58587047D01*
X23818698Y-58747988D01*
X23670000Y-58847345D01*
X23670000Y-57882017D01*
X29398090Y-57882017D01*
X29439078Y-58154133D01*
X29532364Y-58413023D01*
X29594344Y-58528980D01*
X29834435Y-58595960D01*
X30620395Y-57810000D01*
X29834435Y-57024040D01*
X29594344Y-57091020D01*
X29477244Y-57340048D01*
X29410977Y-57607135D01*
X29398090Y-57882017D01*
X23670000Y-57882017D01*
X23670000Y-56844435D01*
X30014040Y-56844435D01*
X30800000Y-57630395D01*
X31585960Y-56844435D01*
X31518980Y-56604344D01*
X31269952Y-56487244D01*
X31002865Y-56420977D01*
X30727983Y-56408090D01*
X30455867Y-56449078D01*
X30196977Y-56542364D01*
X30081020Y-56604344D01*
X30014040Y-56844435D01*
X23670000Y-56844435D01*
X23670000Y-41211968D01*
X23706525Y-41266632D01*
X23913368Y-41473475D01*
X24156589Y-41635990D01*
X24426842Y-41747932D01*
X24713740Y-41805000D01*
X25006260Y-41805000D01*
X25293158Y-41747932D01*
X25563411Y-41635990D01*
X25806632Y-41473475D01*
X26013475Y-41266632D01*
X26175990Y-41023411D01*
X26287932Y-40753158D01*
X26345000Y-40466260D01*
X26345000Y-40173740D01*
X26287932Y-39886842D01*
X26175990Y-39616589D01*
X26013475Y-39373368D01*
X25806632Y-39166525D01*
X25632240Y-39050000D01*
X25806632Y-38933475D01*
X26013475Y-38726632D01*
X26175990Y-38483411D01*
X26287932Y-38213158D01*
X26345000Y-37926260D01*
X26345000Y-37633740D01*
X26324766Y-37532017D01*
X26698090Y-37532017D01*
X26739078Y-37804133D01*
X26832364Y-38063023D01*
X26894344Y-38178980D01*
X27134435Y-38245960D01*
X27920395Y-37460000D01*
X27134435Y-36674040D01*
X26894344Y-36741020D01*
X26777244Y-36990048D01*
X26710977Y-37257135D01*
X26698090Y-37532017D01*
X26324766Y-37532017D01*
X26287932Y-37346842D01*
X26175990Y-37076589D01*
X26013475Y-36833368D01*
X25806632Y-36626525D01*
X25632240Y-36510000D01*
X25806632Y-36393475D01*
X26013475Y-36186632D01*
X26175990Y-35943411D01*
X26287932Y-35673158D01*
X26345000Y-35386260D01*
X26345000Y-35093740D01*
X26287932Y-34806842D01*
X26252793Y-34722009D01*
X26294578Y-34699674D01*
X26410303Y-34604701D01*
X26434105Y-34575698D01*
X27018442Y-33991362D01*
X27047441Y-33967563D01*
X27142414Y-33851838D01*
X27212986Y-33719809D01*
X27256443Y-33576548D01*
X27263839Y-33501452D01*
X27438273Y-33618005D01*
G36*
X62491380Y-19318766D02*
G01*
X62232427Y-19472038D01*
X62008351Y-19672884D01*
X61827764Y-19913586D01*
X61697606Y-20184893D01*
X61648964Y-20345260D01*
X61769622Y-20583000D01*
X63013000Y-20583000D01*
X63013000Y-20563000D01*
X63267000Y-20563000D01*
X63267000Y-20583000D01*
X64510378Y-20583000D01*
X64631036Y-20345260D01*
X64582394Y-20184893D01*
X64452236Y-19913586D01*
X64271649Y-19672884D01*
X64047573Y-19472038D01*
X63788620Y-19318766D01*
X63649916Y-19270000D01*
X65688634Y-19270000D01*
X65425577Y-19533057D01*
X65191928Y-19882738D01*
X65030987Y-20271284D01*
X64948940Y-20683761D01*
X64948940Y-21104319D01*
X65030987Y-21516796D01*
X65191928Y-21905342D01*
X65425577Y-22255023D01*
X65722957Y-22552403D01*
X66072638Y-22786052D01*
X66461184Y-22946993D01*
X66873661Y-23029040D01*
X67294219Y-23029040D01*
X67706696Y-22946993D01*
X68095242Y-22786052D01*
X68250000Y-22682646D01*
X68250001Y-55037061D01*
X68144180Y-54980498D01*
X68024482Y-54944188D01*
X67900000Y-54931928D01*
X66200000Y-54931928D01*
X66075518Y-54944188D01*
X65955820Y-54980498D01*
X65845506Y-55039463D01*
X65748815Y-55118815D01*
X65669463Y-55215506D01*
X65610498Y-55325820D01*
X65574188Y-55445518D01*
X65561928Y-55570000D01*
X65561928Y-56444361D01*
X63724092Y-58282198D01*
X63684605Y-58314604D01*
X63652198Y-58354092D01*
X63652197Y-58354093D01*
X63555266Y-58472203D01*
X63459160Y-58652007D01*
X63399977Y-58847105D01*
X63379994Y-59050000D01*
X63385001Y-59100837D01*
X63385001Y-59608086D01*
X63374494Y-59599463D01*
X63264180Y-59540498D01*
X63144482Y-59504188D01*
X63020000Y-59491928D01*
X62705750Y-59495000D01*
X62547000Y-59653750D01*
X62547000Y-60853000D01*
X62567000Y-60853000D01*
X62567000Y-61107000D01*
X62547000Y-61107000D01*
X62547000Y-61127000D01*
X62293000Y-61127000D01*
X62293000Y-61107000D01*
X62273000Y-61107000D01*
X62273000Y-60853000D01*
X62293000Y-60853000D01*
X62293000Y-59653750D01*
X62134250Y-59495000D01*
X62105300Y-59494717D01*
X62105300Y-56121302D01*
X62108976Y-56083979D01*
X62105300Y-56046657D01*
X62105300Y-48591314D01*
X62150545Y-48506668D01*
X62194002Y-48363407D01*
X62203392Y-48268072D01*
X63020000Y-48268072D01*
X63144482Y-48255812D01*
X63264180Y-48219502D01*
X63374494Y-48160537D01*
X63420000Y-48123191D01*
X63465506Y-48160537D01*
X63575820Y-48219502D01*
X63695518Y-48255812D01*
X63820000Y-48268072D01*
X64134250Y-48265000D01*
X64293000Y-48106250D01*
X64293000Y-46907000D01*
X64547000Y-46907000D01*
X64547000Y-48106250D01*
X64705750Y-48265000D01*
X65020000Y-48268072D01*
X65144482Y-48255812D01*
X65264180Y-48219502D01*
X65374494Y-48160537D01*
X65471185Y-48081185D01*
X65550537Y-47984494D01*
X65609502Y-47874180D01*
X65645812Y-47754482D01*
X65658072Y-47630000D01*
X65655000Y-47065750D01*
X65496250Y-46907000D01*
X64547000Y-46907000D01*
X64293000Y-46907000D01*
X64273000Y-46907000D01*
X64273000Y-46653000D01*
X64293000Y-46653000D01*
X64293000Y-45453750D01*
X64547000Y-45453750D01*
X64547000Y-46653000D01*
X65496250Y-46653000D01*
X65655000Y-46494250D01*
X65658072Y-45930000D01*
X65645812Y-45805518D01*
X65609502Y-45685820D01*
X65550537Y-45575506D01*
X65471185Y-45478815D01*
X65374494Y-45399463D01*
X65264180Y-45340498D01*
X65144482Y-45304188D01*
X65020000Y-45291928D01*
X64705750Y-45295000D01*
X64547000Y-45453750D01*
X64293000Y-45453750D01*
X64134250Y-45295000D01*
X63820000Y-45291928D01*
X63695518Y-45304188D01*
X63575820Y-45340498D01*
X63465506Y-45399463D01*
X63420000Y-45436809D01*
X63374494Y-45399463D01*
X63264180Y-45340498D01*
X63250763Y-45336428D01*
X63280200Y-45188439D01*
X63280200Y-44984561D01*
X63240426Y-44784602D01*
X63162405Y-44596244D01*
X63049137Y-44426726D01*
X62904974Y-44282563D01*
X62735456Y-44169295D01*
X62547098Y-44091274D01*
X62347139Y-44051500D01*
X62143261Y-44051500D01*
X62105300Y-44059051D01*
X62105300Y-43616890D01*
X63528524Y-43616890D01*
X63573175Y-43764099D01*
X63698359Y-44026920D01*
X63872412Y-44260269D01*
X64088645Y-44455178D01*
X64338748Y-44604157D01*
X64613109Y-44701481D01*
X64843000Y-44580814D01*
X64843000Y-43387000D01*
X65097000Y-43387000D01*
X65097000Y-44580814D01*
X65326891Y-44701481D01*
X65601252Y-44604157D01*
X65851355Y-44455178D01*
X66067588Y-44260269D01*
X66241641Y-44026920D01*
X66366825Y-43764099D01*
X66411476Y-43616890D01*
X66290155Y-43387000D01*
X65097000Y-43387000D01*
X64843000Y-43387000D01*
X63649845Y-43387000D01*
X63528524Y-43616890D01*
X62105300Y-43616890D01*
X62105300Y-42935001D01*
X63643138Y-41397164D01*
X63654010Y-41423411D01*
X63816525Y-41666632D01*
X64023368Y-41873475D01*
X64205534Y-41995195D01*
X64088645Y-42064822D01*
X63872412Y-42259731D01*
X63698359Y-42493080D01*
X63573175Y-42755901D01*
X63528524Y-42903110D01*
X63649845Y-43133000D01*
X64843000Y-43133000D01*
X64843000Y-43113000D01*
X65097000Y-43113000D01*
X65097000Y-43133000D01*
X66290155Y-43133000D01*
X66411476Y-42903110D01*
X66366825Y-42755901D01*
X66241641Y-42493080D01*
X66067588Y-42259731D01*
X65851355Y-42064822D01*
X65734466Y-41995195D01*
X65916632Y-41873475D01*
X66123475Y-41666632D01*
X66285990Y-41423411D01*
X66397932Y-41153158D01*
X66455000Y-40866260D01*
X66455000Y-40573740D01*
X66397932Y-40286842D01*
X66285990Y-40016589D01*
X66123475Y-39773368D01*
X65916632Y-39566525D01*
X65742240Y-39450000D01*
X65916632Y-39333475D01*
X66123475Y-39126632D01*
X66248178Y-38940000D01*
X66357018Y-38940000D01*
X66394340Y-38943676D01*
X66431662Y-38940000D01*
X66431673Y-38940000D01*
X66543326Y-38929003D01*
X66686587Y-38885546D01*
X66818616Y-38814974D01*
X66934341Y-38720001D01*
X66958144Y-38690997D01*
X67185459Y-38463682D01*
X67256634Y-38376956D01*
X67327206Y-38244926D01*
X67370662Y-38101667D01*
X67385336Y-37952681D01*
X67370662Y-37803695D01*
X67327206Y-37660434D01*
X67256634Y-37528404D01*
X67161661Y-37412679D01*
X67045936Y-37317706D01*
X66913906Y-37247134D01*
X66770645Y-37203678D01*
X66621659Y-37189004D01*
X66472673Y-37203678D01*
X66329414Y-37247134D01*
X66197384Y-37317706D01*
X66186045Y-37327011D01*
X66123475Y-37233368D01*
X65916632Y-37026525D01*
X65742240Y-36910000D01*
X65916632Y-36793475D01*
X66123475Y-36586632D01*
X66285990Y-36343411D01*
X66397932Y-36073158D01*
X66455000Y-35786260D01*
X66455000Y-35493740D01*
X66397932Y-35206842D01*
X66285990Y-34936589D01*
X66123475Y-34693368D01*
X65991620Y-34561513D01*
X66064180Y-34539502D01*
X66174494Y-34480537D01*
X66271185Y-34401185D01*
X66350537Y-34304494D01*
X66409502Y-34194180D01*
X66445812Y-34074482D01*
X66458072Y-33950000D01*
X66458072Y-32250000D01*
X66445812Y-32125518D01*
X66409502Y-32005820D01*
X66350537Y-31895506D01*
X66271185Y-31798815D01*
X66174494Y-31719463D01*
X66064180Y-31660498D01*
X65944482Y-31624188D01*
X65820000Y-31611928D01*
X64120000Y-31611928D01*
X63995518Y-31624188D01*
X63875820Y-31660498D01*
X63765506Y-31719463D01*
X63668815Y-31798815D01*
X63589463Y-31895506D01*
X63530498Y-32005820D01*
X63494188Y-32125518D01*
X63481928Y-32250000D01*
X63481928Y-33950000D01*
X63494188Y-34074482D01*
X63530498Y-34194180D01*
X63589463Y-34304494D01*
X63668815Y-34401185D01*
X63765506Y-34480537D01*
X63875820Y-34539502D01*
X63948380Y-34561513D01*
X63816525Y-34693368D01*
X63654010Y-34936589D01*
X63542068Y-35206842D01*
X63485000Y-35493740D01*
X63485000Y-35786260D01*
X63542068Y-36073158D01*
X63654010Y-36343411D01*
X63816525Y-36586632D01*
X64023368Y-36793475D01*
X64197760Y-36910000D01*
X64023368Y-37026525D01*
X63816525Y-37233368D01*
X63654010Y-37476589D01*
X63640114Y-37510138D01*
X63574844Y-37545026D01*
X63459119Y-37639999D01*
X63435320Y-37668998D01*
X62821738Y-38282581D01*
X62792740Y-38306379D01*
X62768942Y-38335377D01*
X62768941Y-38335378D01*
X62697766Y-38422104D01*
X62627194Y-38554134D01*
X62610580Y-38608905D01*
X62583738Y-38697394D01*
X62574913Y-38786994D01*
X62569064Y-38846380D01*
X62572741Y-38883712D01*
X62572740Y-40317958D01*
X60834303Y-42056396D01*
X60805299Y-42080199D01*
X60757751Y-42138137D01*
X60710326Y-42195924D01*
X60670531Y-42270375D01*
X60639754Y-42327954D01*
X60596297Y-42471215D01*
X60585300Y-42582868D01*
X60585300Y-42582878D01*
X60581624Y-42620200D01*
X60585300Y-42657523D01*
X60585301Y-45291928D01*
X60006954Y-45291928D01*
X60005703Y-45290901D01*
X58043604Y-43328803D01*
X58019801Y-43299799D01*
X57904076Y-43204826D01*
X57772047Y-43134254D01*
X57628786Y-43090797D01*
X57517133Y-43079800D01*
X57517122Y-43079800D01*
X57479800Y-43076124D01*
X57442478Y-43079800D01*
X56309228Y-43079800D01*
X56318072Y-42990000D01*
X56315000Y-42925750D01*
X56156250Y-42767000D01*
X55157000Y-42767000D01*
X55157000Y-42787000D01*
X54903000Y-42787000D01*
X54903000Y-42767000D01*
X53903750Y-42767000D01*
X53745000Y-42925750D01*
X53741928Y-42990000D01*
X53750772Y-43079800D01*
X53320902Y-43079800D01*
X48120400Y-37879299D01*
X49088077Y-37879299D01*
X49125399Y-37882975D01*
X49162721Y-37879299D01*
X49162732Y-37879299D01*
X49274385Y-37868302D01*
X49417646Y-37824845D01*
X49549675Y-37754273D01*
X49644199Y-37676699D01*
X49757200Y-37676699D01*
X49791498Y-37710997D01*
X49815301Y-37740001D01*
X49931026Y-37834974D01*
X50063055Y-37905546D01*
X50206316Y-37949003D01*
X50317969Y-37960000D01*
X50317978Y-37960000D01*
X50355301Y-37963676D01*
X50392624Y-37960000D01*
X51646078Y-37960000D01*
X51683400Y-37963676D01*
X51720722Y-37960000D01*
X51720733Y-37960000D01*
X51832386Y-37949003D01*
X51975647Y-37905546D01*
X52107676Y-37834974D01*
X52208504Y-37752227D01*
X52330744Y-37833905D01*
X52519102Y-37911926D01*
X52719061Y-37951700D01*
X52746440Y-37951700D01*
X52754774Y-37993598D01*
X52832795Y-38181956D01*
X52946063Y-38351474D01*
X53090226Y-38495637D01*
X53259744Y-38608905D01*
X53448102Y-38686926D01*
X53648061Y-38726700D01*
X53851939Y-38726700D01*
X54051898Y-38686926D01*
X54070001Y-38679428D01*
X54070001Y-39827368D01*
X54069137Y-39836141D01*
X54025506Y-39859463D01*
X53928815Y-39938815D01*
X53849463Y-40035506D01*
X53790498Y-40145820D01*
X53754188Y-40265518D01*
X53741928Y-40390000D01*
X53741928Y-41090000D01*
X53754188Y-41214482D01*
X53790498Y-41334180D01*
X53849463Y-41444494D01*
X53928815Y-41541185D01*
X54025506Y-41620537D01*
X54135820Y-41679502D01*
X54170427Y-41690000D01*
X54135820Y-41700498D01*
X54025506Y-41759463D01*
X53928815Y-41838815D01*
X53849463Y-41935506D01*
X53790498Y-42045820D01*
X53754188Y-42165518D01*
X53741928Y-42290000D01*
X53745000Y-42354250D01*
X53903750Y-42513000D01*
X54903000Y-42513000D01*
X54903000Y-42493000D01*
X55157000Y-42493000D01*
X55157000Y-42513000D01*
X56156250Y-42513000D01*
X56315000Y-42354250D01*
X56318072Y-42290000D01*
X56305812Y-42165518D01*
X56269502Y-42045820D01*
X56210537Y-41935506D01*
X56131185Y-41838815D01*
X56034494Y-41759463D01*
X55924180Y-41700498D01*
X55889573Y-41690000D01*
X55924180Y-41679502D01*
X56034494Y-41620537D01*
X56131185Y-41541185D01*
X56210537Y-41444494D01*
X56269502Y-41334180D01*
X56305812Y-41214482D01*
X56318072Y-41090000D01*
X56318072Y-40390000D01*
X56305812Y-40265518D01*
X56269502Y-40145820D01*
X56210537Y-40035506D01*
X56131185Y-39938815D01*
X56034494Y-39859463D01*
X55924180Y-39800498D01*
X55804482Y-39764188D01*
X55727052Y-39756562D01*
X55664974Y-39640424D01*
X55590000Y-39549068D01*
X55590000Y-37934985D01*
X55631185Y-37901185D01*
X55710537Y-37804494D01*
X55769502Y-37694180D01*
X55780000Y-37659573D01*
X55790498Y-37694180D01*
X55849463Y-37804494D01*
X55928815Y-37901185D01*
X56025506Y-37980537D01*
X56135820Y-38039502D01*
X56255518Y-38075812D01*
X56380000Y-38088072D01*
X57080000Y-38088072D01*
X57204482Y-38075812D01*
X57324180Y-38039502D01*
X57434494Y-37980537D01*
X57531185Y-37901185D01*
X57610537Y-37804494D01*
X57669502Y-37694180D01*
X57705812Y-37574482D01*
X57718072Y-37450000D01*
X57718072Y-36150000D01*
X57705812Y-36025518D01*
X57669502Y-35905820D01*
X57610537Y-35795506D01*
X57531185Y-35698815D01*
X57490000Y-35665015D01*
X57490000Y-31346881D01*
X57544157Y-31292724D01*
X57573161Y-31268921D01*
X57668134Y-31153196D01*
X57738706Y-31021167D01*
X57782163Y-30877906D01*
X57793160Y-30766253D01*
X57793160Y-30766243D01*
X57796836Y-30728920D01*
X57793160Y-30691598D01*
X57793160Y-30397352D01*
X57885303Y-30535254D01*
X58029466Y-30679417D01*
X58198984Y-30792685D01*
X58387342Y-30870706D01*
X58587301Y-30910480D01*
X58791179Y-30910480D01*
X58991138Y-30870706D01*
X59179496Y-30792685D01*
X59349014Y-30679417D01*
X59493177Y-30535254D01*
X59606445Y-30365736D01*
X59684466Y-30177378D01*
X59724240Y-29977419D01*
X59724240Y-29773541D01*
X59696346Y-29633309D01*
X59748273Y-29668005D01*
X60002510Y-29773314D01*
X60272408Y-29827000D01*
X60547592Y-29827000D01*
X60817490Y-29773314D01*
X61071727Y-29668005D01*
X61300535Y-29515120D01*
X61420090Y-29395565D01*
X64704040Y-29395565D01*
X64771020Y-29635656D01*
X65020048Y-29752756D01*
X65287135Y-29819023D01*
X65562017Y-29831910D01*
X65834133Y-29790922D01*
X66093023Y-29697636D01*
X66208980Y-29635656D01*
X66275960Y-29395565D01*
X65490000Y-28609605D01*
X64704040Y-29395565D01*
X61420090Y-29395565D01*
X61495120Y-29320535D01*
X61648005Y-29091727D01*
X61753314Y-28837490D01*
X61807000Y-28567592D01*
X61807000Y-28502017D01*
X64088090Y-28502017D01*
X64129078Y-28774133D01*
X64222364Y-29033023D01*
X64284344Y-29148980D01*
X64524435Y-29215960D01*
X65310395Y-28430000D01*
X65669605Y-28430000D01*
X66455565Y-29215960D01*
X66695656Y-29148980D01*
X66812756Y-28899952D01*
X66879023Y-28632865D01*
X66891910Y-28357983D01*
X66850922Y-28085867D01*
X66757636Y-27826977D01*
X66695656Y-27711020D01*
X66455565Y-27644040D01*
X65669605Y-28430000D01*
X65310395Y-28430000D01*
X64524435Y-27644040D01*
X64284344Y-27711020D01*
X64167244Y-27960048D01*
X64100977Y-28227135D01*
X64088090Y-28502017D01*
X61807000Y-28502017D01*
X61807000Y-28292408D01*
X61753314Y-28022510D01*
X61648005Y-27768273D01*
X61495120Y-27539465D01*
X61300535Y-27344880D01*
X61173503Y-27260000D01*
X61300535Y-27175120D01*
X61495120Y-26980535D01*
X61578622Y-26855565D01*
X64704040Y-26855565D01*
X64771020Y-27095656D01*
X64901644Y-27157079D01*
X64886977Y-27162364D01*
X64771020Y-27224344D01*
X64704040Y-27464435D01*
X65490000Y-28250395D01*
X66275960Y-27464435D01*
X66208980Y-27224344D01*
X66078356Y-27162921D01*
X66093023Y-27157636D01*
X66208980Y-27095656D01*
X66275960Y-26855565D01*
X65490000Y-26069605D01*
X64704040Y-26855565D01*
X61578622Y-26855565D01*
X61648005Y-26751727D01*
X61753314Y-26497490D01*
X61807000Y-26227592D01*
X61807000Y-25962017D01*
X64088090Y-25962017D01*
X64129078Y-26234133D01*
X64222364Y-26493023D01*
X64284344Y-26608980D01*
X64524435Y-26675960D01*
X65310395Y-25890000D01*
X65669605Y-25890000D01*
X66455565Y-26675960D01*
X66695656Y-26608980D01*
X66812756Y-26359952D01*
X66879023Y-26092865D01*
X66891910Y-25817983D01*
X66850922Y-25545867D01*
X66757636Y-25286977D01*
X66695656Y-25171020D01*
X66455565Y-25104040D01*
X65669605Y-25890000D01*
X65310395Y-25890000D01*
X64524435Y-25104040D01*
X64284344Y-25171020D01*
X64167244Y-25420048D01*
X64100977Y-25687135D01*
X64088090Y-25962017D01*
X61807000Y-25962017D01*
X61807000Y-25952408D01*
X61753314Y-25682510D01*
X61648005Y-25428273D01*
X61495120Y-25199465D01*
X61300535Y-25004880D01*
X61180141Y-24924435D01*
X64704040Y-24924435D01*
X65490000Y-25710395D01*
X66275960Y-24924435D01*
X66208980Y-24684344D01*
X65959952Y-24567244D01*
X65692865Y-24500977D01*
X65417983Y-24488090D01*
X65145867Y-24529078D01*
X64886977Y-24622364D01*
X64771020Y-24684344D01*
X64704040Y-24924435D01*
X61180141Y-24924435D01*
X61071727Y-24851995D01*
X60817490Y-24746686D01*
X60547592Y-24693000D01*
X60272408Y-24693000D01*
X60002510Y-24746686D01*
X59748273Y-24851995D01*
X59519465Y-25004880D01*
X59324880Y-25199465D01*
X59237659Y-25330000D01*
X59166862Y-25330000D01*
X59129539Y-25326324D01*
X59092216Y-25330000D01*
X59092207Y-25330000D01*
X58980554Y-25340997D01*
X58837293Y-25384454D01*
X58705264Y-25455026D01*
X58589539Y-25549999D01*
X58565736Y-25579003D01*
X58178238Y-25966501D01*
X58149240Y-25990299D01*
X58125442Y-26019297D01*
X58125441Y-26019298D01*
X58054266Y-26106024D01*
X57983694Y-26238054D01*
X57963789Y-26303676D01*
X57940238Y-26381314D01*
X57932095Y-26463989D01*
X57925564Y-26530300D01*
X57929241Y-26567632D01*
X57929240Y-29171769D01*
X57885303Y-29215706D01*
X57793160Y-29353608D01*
X57793160Y-25038542D01*
X57796836Y-25001219D01*
X57793160Y-24963896D01*
X57793160Y-24963887D01*
X57782163Y-24852234D01*
X57738706Y-24708973D01*
X57668134Y-24576944D01*
X57573161Y-24461219D01*
X57544164Y-24437422D01*
X56949231Y-23842490D01*
X57365167Y-23842490D01*
X57402490Y-23846166D01*
X57439813Y-23842490D01*
X57439823Y-23842490D01*
X57551476Y-23831493D01*
X57694737Y-23788036D01*
X57826766Y-23717464D01*
X57942491Y-23622491D01*
X58037464Y-23506766D01*
X58108036Y-23374737D01*
X58151493Y-23231476D01*
X58166167Y-23082490D01*
X58151493Y-22933504D01*
X58108036Y-22790243D01*
X58037464Y-22658214D01*
X57942491Y-22542489D01*
X57913493Y-22518691D01*
X57642874Y-22248072D01*
X58960000Y-22248072D01*
X59084482Y-22235812D01*
X59204180Y-22199502D01*
X59314494Y-22140537D01*
X59411185Y-22061185D01*
X59490537Y-21964494D01*
X59549502Y-21854180D01*
X59585812Y-21734482D01*
X59598072Y-21610000D01*
X59598072Y-21074740D01*
X61648964Y-21074740D01*
X61697606Y-21235107D01*
X61827764Y-21506414D01*
X62008351Y-21747116D01*
X62232427Y-21947962D01*
X62491380Y-22101234D01*
X62775259Y-22201041D01*
X63013000Y-22080992D01*
X63013000Y-20837000D01*
X63267000Y-20837000D01*
X63267000Y-22080992D01*
X63504741Y-22201041D01*
X63788620Y-22101234D01*
X64047573Y-21947962D01*
X64271649Y-21747116D01*
X64452236Y-21506414D01*
X64582394Y-21235107D01*
X64631036Y-21074740D01*
X64510378Y-20837000D01*
X63267000Y-20837000D01*
X63013000Y-20837000D01*
X61769622Y-20837000D01*
X61648964Y-21074740D01*
X59598072Y-21074740D01*
X59598072Y-19810000D01*
X59585812Y-19685518D01*
X59549502Y-19565820D01*
X59490537Y-19455506D01*
X59411185Y-19358815D01*
X59314494Y-19279463D01*
X59296790Y-19270000D01*
X62630084Y-19270000D01*
X62491380Y-19318766D01*
G37*
X62491380Y-19318766D02*
X62232427Y-19472038D01*
X62008351Y-19672884D01*
X61827764Y-19913586D01*
X61697606Y-20184893D01*
X61648964Y-20345260D01*
X61769622Y-20583000D01*
X63013000Y-20583000D01*
X63013000Y-20563000D01*
X63267000Y-20563000D01*
X63267000Y-20583000D01*
X64510378Y-20583000D01*
X64631036Y-20345260D01*
X64582394Y-20184893D01*
X64452236Y-19913586D01*
X64271649Y-19672884D01*
X64047573Y-19472038D01*
X63788620Y-19318766D01*
X63649916Y-19270000D01*
X65688634Y-19270000D01*
X65425577Y-19533057D01*
X65191928Y-19882738D01*
X65030987Y-20271284D01*
X64948940Y-20683761D01*
X64948940Y-21104319D01*
X65030987Y-21516796D01*
X65191928Y-21905342D01*
X65425577Y-22255023D01*
X65722957Y-22552403D01*
X66072638Y-22786052D01*
X66461184Y-22946993D01*
X66873661Y-23029040D01*
X67294219Y-23029040D01*
X67706696Y-22946993D01*
X68095242Y-22786052D01*
X68250000Y-22682646D01*
X68250001Y-55037061D01*
X68144180Y-54980498D01*
X68024482Y-54944188D01*
X67900000Y-54931928D01*
X66200000Y-54931928D01*
X66075518Y-54944188D01*
X65955820Y-54980498D01*
X65845506Y-55039463D01*
X65748815Y-55118815D01*
X65669463Y-55215506D01*
X65610498Y-55325820D01*
X65574188Y-55445518D01*
X65561928Y-55570000D01*
X65561928Y-56444361D01*
X63724092Y-58282198D01*
X63684605Y-58314604D01*
X63652198Y-58354092D01*
X63652197Y-58354093D01*
X63555266Y-58472203D01*
X63459160Y-58652007D01*
X63399977Y-58847105D01*
X63379994Y-59050000D01*
X63385001Y-59100837D01*
X63385001Y-59608086D01*
X63374494Y-59599463D01*
X63264180Y-59540498D01*
X63144482Y-59504188D01*
X63020000Y-59491928D01*
X62705750Y-59495000D01*
X62547000Y-59653750D01*
X62547000Y-60853000D01*
X62567000Y-60853000D01*
X62567000Y-61107000D01*
X62547000Y-61107000D01*
X62547000Y-61127000D01*
X62293000Y-61127000D01*
X62293000Y-61107000D01*
X62273000Y-61107000D01*
X62273000Y-60853000D01*
X62293000Y-60853000D01*
X62293000Y-59653750D01*
X62134250Y-59495000D01*
X62105300Y-59494717D01*
X62105300Y-56121302D01*
X62108976Y-56083979D01*
X62105300Y-56046657D01*
X62105300Y-48591314D01*
X62150545Y-48506668D01*
X62194002Y-48363407D01*
X62203392Y-48268072D01*
X63020000Y-48268072D01*
X63144482Y-48255812D01*
X63264180Y-48219502D01*
X63374494Y-48160537D01*
X63420000Y-48123191D01*
X63465506Y-48160537D01*
X63575820Y-48219502D01*
X63695518Y-48255812D01*
X63820000Y-48268072D01*
X64134250Y-48265000D01*
X64293000Y-48106250D01*
X64293000Y-46907000D01*
X64547000Y-46907000D01*
X64547000Y-48106250D01*
X64705750Y-48265000D01*
X65020000Y-48268072D01*
X65144482Y-48255812D01*
X65264180Y-48219502D01*
X65374494Y-48160537D01*
X65471185Y-48081185D01*
X65550537Y-47984494D01*
X65609502Y-47874180D01*
X65645812Y-47754482D01*
X65658072Y-47630000D01*
X65655000Y-47065750D01*
X65496250Y-46907000D01*
X64547000Y-46907000D01*
X64293000Y-46907000D01*
X64273000Y-46907000D01*
X64273000Y-46653000D01*
X64293000Y-46653000D01*
X64293000Y-45453750D01*
X64547000Y-45453750D01*
X64547000Y-46653000D01*
X65496250Y-46653000D01*
X65655000Y-46494250D01*
X65658072Y-45930000D01*
X65645812Y-45805518D01*
X65609502Y-45685820D01*
X65550537Y-45575506D01*
X65471185Y-45478815D01*
X65374494Y-45399463D01*
X65264180Y-45340498D01*
X65144482Y-45304188D01*
X65020000Y-45291928D01*
X64705750Y-45295000D01*
X64547000Y-45453750D01*
X64293000Y-45453750D01*
X64134250Y-45295000D01*
X63820000Y-45291928D01*
X63695518Y-45304188D01*
X63575820Y-45340498D01*
X63465506Y-45399463D01*
X63420000Y-45436809D01*
X63374494Y-45399463D01*
X63264180Y-45340498D01*
X63250763Y-45336428D01*
X63280200Y-45188439D01*
X63280200Y-44984561D01*
X63240426Y-44784602D01*
X63162405Y-44596244D01*
X63049137Y-44426726D01*
X62904974Y-44282563D01*
X62735456Y-44169295D01*
X62547098Y-44091274D01*
X62347139Y-44051500D01*
X62143261Y-44051500D01*
X62105300Y-44059051D01*
X62105300Y-43616890D01*
X63528524Y-43616890D01*
X63573175Y-43764099D01*
X63698359Y-44026920D01*
X63872412Y-44260269D01*
X64088645Y-44455178D01*
X64338748Y-44604157D01*
X64613109Y-44701481D01*
X64843000Y-44580814D01*
X64843000Y-43387000D01*
X65097000Y-43387000D01*
X65097000Y-44580814D01*
X65326891Y-44701481D01*
X65601252Y-44604157D01*
X65851355Y-44455178D01*
X66067588Y-44260269D01*
X66241641Y-44026920D01*
X66366825Y-43764099D01*
X66411476Y-43616890D01*
X66290155Y-43387000D01*
X65097000Y-43387000D01*
X64843000Y-43387000D01*
X63649845Y-43387000D01*
X63528524Y-43616890D01*
X62105300Y-43616890D01*
X62105300Y-42935001D01*
X63643138Y-41397164D01*
X63654010Y-41423411D01*
X63816525Y-41666632D01*
X64023368Y-41873475D01*
X64205534Y-41995195D01*
X64088645Y-42064822D01*
X63872412Y-42259731D01*
X63698359Y-42493080D01*
X63573175Y-42755901D01*
X63528524Y-42903110D01*
X63649845Y-43133000D01*
X64843000Y-43133000D01*
X64843000Y-43113000D01*
X65097000Y-43113000D01*
X65097000Y-43133000D01*
X66290155Y-43133000D01*
X66411476Y-42903110D01*
X66366825Y-42755901D01*
X66241641Y-42493080D01*
X66067588Y-42259731D01*
X65851355Y-42064822D01*
X65734466Y-41995195D01*
X65916632Y-41873475D01*
X66123475Y-41666632D01*
X66285990Y-41423411D01*
X66397932Y-41153158D01*
X66455000Y-40866260D01*
X66455000Y-40573740D01*
X66397932Y-40286842D01*
X66285990Y-40016589D01*
X66123475Y-39773368D01*
X65916632Y-39566525D01*
X65742240Y-39450000D01*
X65916632Y-39333475D01*
X66123475Y-39126632D01*
X66248178Y-38940000D01*
X66357018Y-38940000D01*
X66394340Y-38943676D01*
X66431662Y-38940000D01*
X66431673Y-38940000D01*
X66543326Y-38929003D01*
X66686587Y-38885546D01*
X66818616Y-38814974D01*
X66934341Y-38720001D01*
X66958144Y-38690997D01*
X67185459Y-38463682D01*
X67256634Y-38376956D01*
X67327206Y-38244926D01*
X67370662Y-38101667D01*
X67385336Y-37952681D01*
X67370662Y-37803695D01*
X67327206Y-37660434D01*
X67256634Y-37528404D01*
X67161661Y-37412679D01*
X67045936Y-37317706D01*
X66913906Y-37247134D01*
X66770645Y-37203678D01*
X66621659Y-37189004D01*
X66472673Y-37203678D01*
X66329414Y-37247134D01*
X66197384Y-37317706D01*
X66186045Y-37327011D01*
X66123475Y-37233368D01*
X65916632Y-37026525D01*
X65742240Y-36910000D01*
X65916632Y-36793475D01*
X66123475Y-36586632D01*
X66285990Y-36343411D01*
X66397932Y-36073158D01*
X66455000Y-35786260D01*
X66455000Y-35493740D01*
X66397932Y-35206842D01*
X66285990Y-34936589D01*
X66123475Y-34693368D01*
X65991620Y-34561513D01*
X66064180Y-34539502D01*
X66174494Y-34480537D01*
X66271185Y-34401185D01*
X66350537Y-34304494D01*
X66409502Y-34194180D01*
X66445812Y-34074482D01*
X66458072Y-33950000D01*
X66458072Y-32250000D01*
X66445812Y-32125518D01*
X66409502Y-32005820D01*
X66350537Y-31895506D01*
X66271185Y-31798815D01*
X66174494Y-31719463D01*
X66064180Y-31660498D01*
X65944482Y-31624188D01*
X65820000Y-31611928D01*
X64120000Y-31611928D01*
X63995518Y-31624188D01*
X63875820Y-31660498D01*
X63765506Y-31719463D01*
X63668815Y-31798815D01*
X63589463Y-31895506D01*
X63530498Y-32005820D01*
X63494188Y-32125518D01*
X63481928Y-32250000D01*
X63481928Y-33950000D01*
X63494188Y-34074482D01*
X63530498Y-34194180D01*
X63589463Y-34304494D01*
X63668815Y-34401185D01*
X63765506Y-34480537D01*
X63875820Y-34539502D01*
X63948380Y-34561513D01*
X63816525Y-34693368D01*
X63654010Y-34936589D01*
X63542068Y-35206842D01*
X63485000Y-35493740D01*
X63485000Y-35786260D01*
X63542068Y-36073158D01*
X63654010Y-36343411D01*
X63816525Y-36586632D01*
X64023368Y-36793475D01*
X64197760Y-36910000D01*
X64023368Y-37026525D01*
X63816525Y-37233368D01*
X63654010Y-37476589D01*
X63640114Y-37510138D01*
X63574844Y-37545026D01*
X63459119Y-37639999D01*
X63435320Y-37668998D01*
X62821738Y-38282581D01*
X62792740Y-38306379D01*
X62768942Y-38335377D01*
X62768941Y-38335378D01*
X62697766Y-38422104D01*
X62627194Y-38554134D01*
X62610580Y-38608905D01*
X62583738Y-38697394D01*
X62574913Y-38786994D01*
X62569064Y-38846380D01*
X62572741Y-38883712D01*
X62572740Y-40317958D01*
X60834303Y-42056396D01*
X60805299Y-42080199D01*
X60757751Y-42138137D01*
X60710326Y-42195924D01*
X60670531Y-42270375D01*
X60639754Y-42327954D01*
X60596297Y-42471215D01*
X60585300Y-42582868D01*
X60585300Y-42582878D01*
X60581624Y-42620200D01*
X60585300Y-42657523D01*
X60585301Y-45291928D01*
X60006954Y-45291928D01*
X60005703Y-45290901D01*
X58043604Y-43328803D01*
X58019801Y-43299799D01*
X57904076Y-43204826D01*
X57772047Y-43134254D01*
X57628786Y-43090797D01*
X57517133Y-43079800D01*
X57517122Y-43079800D01*
X57479800Y-43076124D01*
X57442478Y-43079800D01*
X56309228Y-43079800D01*
X56318072Y-42990000D01*
X56315000Y-42925750D01*
X56156250Y-42767000D01*
X55157000Y-42767000D01*
X55157000Y-42787000D01*
X54903000Y-42787000D01*
X54903000Y-42767000D01*
X53903750Y-42767000D01*
X53745000Y-42925750D01*
X53741928Y-42990000D01*
X53750772Y-43079800D01*
X53320902Y-43079800D01*
X48120400Y-37879299D01*
X49088077Y-37879299D01*
X49125399Y-37882975D01*
X49162721Y-37879299D01*
X49162732Y-37879299D01*
X49274385Y-37868302D01*
X49417646Y-37824845D01*
X49549675Y-37754273D01*
X49644199Y-37676699D01*
X49757200Y-37676699D01*
X49791498Y-37710997D01*
X49815301Y-37740001D01*
X49931026Y-37834974D01*
X50063055Y-37905546D01*
X50206316Y-37949003D01*
X50317969Y-37960000D01*
X50317978Y-37960000D01*
X50355301Y-37963676D01*
X50392624Y-37960000D01*
X51646078Y-37960000D01*
X51683400Y-37963676D01*
X51720722Y-37960000D01*
X51720733Y-37960000D01*
X51832386Y-37949003D01*
X51975647Y-37905546D01*
X52107676Y-37834974D01*
X52208504Y-37752227D01*
X52330744Y-37833905D01*
X52519102Y-37911926D01*
X52719061Y-37951700D01*
X52746440Y-37951700D01*
X52754774Y-37993598D01*
X52832795Y-38181956D01*
X52946063Y-38351474D01*
X53090226Y-38495637D01*
X53259744Y-38608905D01*
X53448102Y-38686926D01*
X53648061Y-38726700D01*
X53851939Y-38726700D01*
X54051898Y-38686926D01*
X54070001Y-38679428D01*
X54070001Y-39827368D01*
X54069137Y-39836141D01*
X54025506Y-39859463D01*
X53928815Y-39938815D01*
X53849463Y-40035506D01*
X53790498Y-40145820D01*
X53754188Y-40265518D01*
X53741928Y-40390000D01*
X53741928Y-41090000D01*
X53754188Y-41214482D01*
X53790498Y-41334180D01*
X53849463Y-41444494D01*
X53928815Y-41541185D01*
X54025506Y-41620537D01*
X54135820Y-41679502D01*
X54170427Y-41690000D01*
X54135820Y-41700498D01*
X54025506Y-41759463D01*
X53928815Y-41838815D01*
X53849463Y-41935506D01*
X53790498Y-42045820D01*
X53754188Y-42165518D01*
X53741928Y-42290000D01*
X53745000Y-42354250D01*
X53903750Y-42513000D01*
X54903000Y-42513000D01*
X54903000Y-42493000D01*
X55157000Y-42493000D01*
X55157000Y-42513000D01*
X56156250Y-42513000D01*
X56315000Y-42354250D01*
X56318072Y-42290000D01*
X56305812Y-42165518D01*
X56269502Y-42045820D01*
X56210537Y-41935506D01*
X56131185Y-41838815D01*
X56034494Y-41759463D01*
X55924180Y-41700498D01*
X55889573Y-41690000D01*
X55924180Y-41679502D01*
X56034494Y-41620537D01*
X56131185Y-41541185D01*
X56210537Y-41444494D01*
X56269502Y-41334180D01*
X56305812Y-41214482D01*
X56318072Y-41090000D01*
X56318072Y-40390000D01*
X56305812Y-40265518D01*
X56269502Y-40145820D01*
X56210537Y-40035506D01*
X56131185Y-39938815D01*
X56034494Y-39859463D01*
X55924180Y-39800498D01*
X55804482Y-39764188D01*
X55727052Y-39756562D01*
X55664974Y-39640424D01*
X55590000Y-39549068D01*
X55590000Y-37934985D01*
X55631185Y-37901185D01*
X55710537Y-37804494D01*
X55769502Y-37694180D01*
X55780000Y-37659573D01*
X55790498Y-37694180D01*
X55849463Y-37804494D01*
X55928815Y-37901185D01*
X56025506Y-37980537D01*
X56135820Y-38039502D01*
X56255518Y-38075812D01*
X56380000Y-38088072D01*
X57080000Y-38088072D01*
X57204482Y-38075812D01*
X57324180Y-38039502D01*
X57434494Y-37980537D01*
X57531185Y-37901185D01*
X57610537Y-37804494D01*
X57669502Y-37694180D01*
X57705812Y-37574482D01*
X57718072Y-37450000D01*
X57718072Y-36150000D01*
X57705812Y-36025518D01*
X57669502Y-35905820D01*
X57610537Y-35795506D01*
X57531185Y-35698815D01*
X57490000Y-35665015D01*
X57490000Y-31346881D01*
X57544157Y-31292724D01*
X57573161Y-31268921D01*
X57668134Y-31153196D01*
X57738706Y-31021167D01*
X57782163Y-30877906D01*
X57793160Y-30766253D01*
X57793160Y-30766243D01*
X57796836Y-30728920D01*
X57793160Y-30691598D01*
X57793160Y-30397352D01*
X57885303Y-30535254D01*
X58029466Y-30679417D01*
X58198984Y-30792685D01*
X58387342Y-30870706D01*
X58587301Y-30910480D01*
X58791179Y-30910480D01*
X58991138Y-30870706D01*
X59179496Y-30792685D01*
X59349014Y-30679417D01*
X59493177Y-30535254D01*
X59606445Y-30365736D01*
X59684466Y-30177378D01*
X59724240Y-29977419D01*
X59724240Y-29773541D01*
X59696346Y-29633309D01*
X59748273Y-29668005D01*
X60002510Y-29773314D01*
X60272408Y-29827000D01*
X60547592Y-29827000D01*
X60817490Y-29773314D01*
X61071727Y-29668005D01*
X61300535Y-29515120D01*
X61420090Y-29395565D01*
X64704040Y-29395565D01*
X64771020Y-29635656D01*
X65020048Y-29752756D01*
X65287135Y-29819023D01*
X65562017Y-29831910D01*
X65834133Y-29790922D01*
X66093023Y-29697636D01*
X66208980Y-29635656D01*
X66275960Y-29395565D01*
X65490000Y-28609605D01*
X64704040Y-29395565D01*
X61420090Y-29395565D01*
X61495120Y-29320535D01*
X61648005Y-29091727D01*
X61753314Y-28837490D01*
X61807000Y-28567592D01*
X61807000Y-28502017D01*
X64088090Y-28502017D01*
X64129078Y-28774133D01*
X64222364Y-29033023D01*
X64284344Y-29148980D01*
X64524435Y-29215960D01*
X65310395Y-28430000D01*
X65669605Y-28430000D01*
X66455565Y-29215960D01*
X66695656Y-29148980D01*
X66812756Y-28899952D01*
X66879023Y-28632865D01*
X66891910Y-28357983D01*
X66850922Y-28085867D01*
X66757636Y-27826977D01*
X66695656Y-27711020D01*
X66455565Y-27644040D01*
X65669605Y-28430000D01*
X65310395Y-28430000D01*
X64524435Y-27644040D01*
X64284344Y-27711020D01*
X64167244Y-27960048D01*
X64100977Y-28227135D01*
X64088090Y-28502017D01*
X61807000Y-28502017D01*
X61807000Y-28292408D01*
X61753314Y-28022510D01*
X61648005Y-27768273D01*
X61495120Y-27539465D01*
X61300535Y-27344880D01*
X61173503Y-27260000D01*
X61300535Y-27175120D01*
X61495120Y-26980535D01*
X61578622Y-26855565D01*
X64704040Y-26855565D01*
X64771020Y-27095656D01*
X64901644Y-27157079D01*
X64886977Y-27162364D01*
X64771020Y-27224344D01*
X64704040Y-27464435D01*
X65490000Y-28250395D01*
X66275960Y-27464435D01*
X66208980Y-27224344D01*
X66078356Y-27162921D01*
X66093023Y-27157636D01*
X66208980Y-27095656D01*
X66275960Y-26855565D01*
X65490000Y-26069605D01*
X64704040Y-26855565D01*
X61578622Y-26855565D01*
X61648005Y-26751727D01*
X61753314Y-26497490D01*
X61807000Y-26227592D01*
X61807000Y-25962017D01*
X64088090Y-25962017D01*
X64129078Y-26234133D01*
X64222364Y-26493023D01*
X64284344Y-26608980D01*
X64524435Y-26675960D01*
X65310395Y-25890000D01*
X65669605Y-25890000D01*
X66455565Y-26675960D01*
X66695656Y-26608980D01*
X66812756Y-26359952D01*
X66879023Y-26092865D01*
X66891910Y-25817983D01*
X66850922Y-25545867D01*
X66757636Y-25286977D01*
X66695656Y-25171020D01*
X66455565Y-25104040D01*
X65669605Y-25890000D01*
X65310395Y-25890000D01*
X64524435Y-25104040D01*
X64284344Y-25171020D01*
X64167244Y-25420048D01*
X64100977Y-25687135D01*
X64088090Y-25962017D01*
X61807000Y-25962017D01*
X61807000Y-25952408D01*
X61753314Y-25682510D01*
X61648005Y-25428273D01*
X61495120Y-25199465D01*
X61300535Y-25004880D01*
X61180141Y-24924435D01*
X64704040Y-24924435D01*
X65490000Y-25710395D01*
X66275960Y-24924435D01*
X66208980Y-24684344D01*
X65959952Y-24567244D01*
X65692865Y-24500977D01*
X65417983Y-24488090D01*
X65145867Y-24529078D01*
X64886977Y-24622364D01*
X64771020Y-24684344D01*
X64704040Y-24924435D01*
X61180141Y-24924435D01*
X61071727Y-24851995D01*
X60817490Y-24746686D01*
X60547592Y-24693000D01*
X60272408Y-24693000D01*
X60002510Y-24746686D01*
X59748273Y-24851995D01*
X59519465Y-25004880D01*
X59324880Y-25199465D01*
X59237659Y-25330000D01*
X59166862Y-25330000D01*
X59129539Y-25326324D01*
X59092216Y-25330000D01*
X59092207Y-25330000D01*
X58980554Y-25340997D01*
X58837293Y-25384454D01*
X58705264Y-25455026D01*
X58589539Y-25549999D01*
X58565736Y-25579003D01*
X58178238Y-25966501D01*
X58149240Y-25990299D01*
X58125442Y-26019297D01*
X58125441Y-26019298D01*
X58054266Y-26106024D01*
X57983694Y-26238054D01*
X57963789Y-26303676D01*
X57940238Y-26381314D01*
X57932095Y-26463989D01*
X57925564Y-26530300D01*
X57929241Y-26567632D01*
X57929240Y-29171769D01*
X57885303Y-29215706D01*
X57793160Y-29353608D01*
X57793160Y-25038542D01*
X57796836Y-25001219D01*
X57793160Y-24963896D01*
X57793160Y-24963887D01*
X57782163Y-24852234D01*
X57738706Y-24708973D01*
X57668134Y-24576944D01*
X57573161Y-24461219D01*
X57544164Y-24437422D01*
X56949231Y-23842490D01*
X57365167Y-23842490D01*
X57402490Y-23846166D01*
X57439813Y-23842490D01*
X57439823Y-23842490D01*
X57551476Y-23831493D01*
X57694737Y-23788036D01*
X57826766Y-23717464D01*
X57942491Y-23622491D01*
X58037464Y-23506766D01*
X58108036Y-23374737D01*
X58151493Y-23231476D01*
X58166167Y-23082490D01*
X58151493Y-22933504D01*
X58108036Y-22790243D01*
X58037464Y-22658214D01*
X57942491Y-22542489D01*
X57913493Y-22518691D01*
X57642874Y-22248072D01*
X58960000Y-22248072D01*
X59084482Y-22235812D01*
X59204180Y-22199502D01*
X59314494Y-22140537D01*
X59411185Y-22061185D01*
X59490537Y-21964494D01*
X59549502Y-21854180D01*
X59585812Y-21734482D01*
X59598072Y-21610000D01*
X59598072Y-21074740D01*
X61648964Y-21074740D01*
X61697606Y-21235107D01*
X61827764Y-21506414D01*
X62008351Y-21747116D01*
X62232427Y-21947962D01*
X62491380Y-22101234D01*
X62775259Y-22201041D01*
X63013000Y-22080992D01*
X63013000Y-20837000D01*
X63267000Y-20837000D01*
X63267000Y-22080992D01*
X63504741Y-22201041D01*
X63788620Y-22101234D01*
X64047573Y-21947962D01*
X64271649Y-21747116D01*
X64452236Y-21506414D01*
X64582394Y-21235107D01*
X64631036Y-21074740D01*
X64510378Y-20837000D01*
X63267000Y-20837000D01*
X63013000Y-20837000D01*
X61769622Y-20837000D01*
X61648964Y-21074740D01*
X59598072Y-21074740D01*
X59598072Y-19810000D01*
X59585812Y-19685518D01*
X59549502Y-19565820D01*
X59490537Y-19455506D01*
X59411185Y-19358815D01*
X59314494Y-19279463D01*
X59296790Y-19270000D01*
X62630084Y-19270000D01*
X62491380Y-19318766D01*
G36*
X49867591Y-45292393D02*
G01*
X49820000Y-45291928D01*
X49695518Y-45304188D01*
X49575820Y-45340498D01*
X49465506Y-45399463D01*
X49368815Y-45478815D01*
X49289463Y-45575506D01*
X49230498Y-45685820D01*
X49194188Y-45805518D01*
X49181928Y-45930000D01*
X49185000Y-46494250D01*
X49343750Y-46653000D01*
X50293000Y-46653000D01*
X50293000Y-46633000D01*
X50547000Y-46633000D01*
X50547000Y-46653000D01*
X50567000Y-46653000D01*
X50567000Y-46907000D01*
X50547000Y-46907000D01*
X50547000Y-48106250D01*
X50705750Y-48265000D01*
X51020000Y-48268072D01*
X51144482Y-48255812D01*
X51264180Y-48219502D01*
X51374494Y-48160537D01*
X51420000Y-48123191D01*
X51465506Y-48160537D01*
X51575820Y-48219502D01*
X51695518Y-48255812D01*
X51820000Y-48268072D01*
X53020000Y-48268072D01*
X53144482Y-48255812D01*
X53264180Y-48219502D01*
X53374494Y-48160537D01*
X53420000Y-48123191D01*
X53465506Y-48160537D01*
X53575820Y-48219502D01*
X53695518Y-48255812D01*
X53820000Y-48268072D01*
X55020000Y-48268072D01*
X55144482Y-48255812D01*
X55264180Y-48219502D01*
X55374494Y-48160537D01*
X55420000Y-48123191D01*
X55465506Y-48160537D01*
X55575820Y-48219502D01*
X55695518Y-48255812D01*
X55820000Y-48268072D01*
X57020000Y-48268072D01*
X57144482Y-48255812D01*
X57264180Y-48219502D01*
X57374494Y-48160537D01*
X57420000Y-48123191D01*
X57465506Y-48160537D01*
X57575820Y-48219502D01*
X57695518Y-48255812D01*
X57820000Y-48268072D01*
X59020000Y-48268072D01*
X59144482Y-48255812D01*
X59264180Y-48219502D01*
X59374494Y-48160537D01*
X59420000Y-48123191D01*
X59465506Y-48160537D01*
X59575820Y-48219502D01*
X59695518Y-48255812D01*
X59820000Y-48268072D01*
X60586158Y-48268072D01*
X60585300Y-48276788D01*
X60585300Y-48276798D01*
X60581624Y-48314120D01*
X60585300Y-48351442D01*
X60585301Y-55194796D01*
X60538396Y-55163455D01*
X60350038Y-55085434D01*
X60150079Y-55045660D01*
X59946201Y-55045660D01*
X59746242Y-55085434D01*
X59557884Y-55163455D01*
X59388366Y-55276723D01*
X59244203Y-55420886D01*
X59130935Y-55590404D01*
X59052914Y-55778762D01*
X59013140Y-55978721D01*
X59013140Y-56182599D01*
X59052914Y-56382558D01*
X59130935Y-56570916D01*
X59244203Y-56740434D01*
X59388366Y-56884597D01*
X59557884Y-56997865D01*
X59746242Y-57075886D01*
X59946201Y-57115660D01*
X60150079Y-57115660D01*
X60350038Y-57075886D01*
X60538396Y-56997865D01*
X60585300Y-56966525D01*
X60585301Y-59491928D01*
X59820000Y-59491928D01*
X59695518Y-59504188D01*
X59575820Y-59540498D01*
X59465506Y-59599463D01*
X59420000Y-59636809D01*
X59374494Y-59599463D01*
X59264180Y-59540498D01*
X59180000Y-59514962D01*
X59180000Y-57536222D01*
X59183676Y-57498899D01*
X59180000Y-57461576D01*
X59180000Y-57461567D01*
X59169003Y-57349914D01*
X59125546Y-57206653D01*
X59054974Y-57074624D01*
X58960001Y-56958899D01*
X58931004Y-56935102D01*
X50197576Y-48201674D01*
X50293000Y-48106250D01*
X50293000Y-46907000D01*
X49343750Y-46907000D01*
X49185000Y-47065750D01*
X49184332Y-47188431D01*
X49180020Y-47184119D01*
X49180020Y-45663342D01*
X49183696Y-45626019D01*
X49180020Y-45588696D01*
X49180020Y-45588687D01*
X49169023Y-45477034D01*
X49125566Y-45333773D01*
X49102069Y-45289813D01*
X49054994Y-45201743D01*
X48983819Y-45115017D01*
X48960021Y-45086019D01*
X48931024Y-45062222D01*
X47892399Y-44023598D01*
X47892399Y-43317200D01*
X49867591Y-45292393D01*
G37*
X49867591Y-45292393D02*
X49820000Y-45291928D01*
X49695518Y-45304188D01*
X49575820Y-45340498D01*
X49465506Y-45399463D01*
X49368815Y-45478815D01*
X49289463Y-45575506D01*
X49230498Y-45685820D01*
X49194188Y-45805518D01*
X49181928Y-45930000D01*
X49185000Y-46494250D01*
X49343750Y-46653000D01*
X50293000Y-46653000D01*
X50293000Y-46633000D01*
X50547000Y-46633000D01*
X50547000Y-46653000D01*
X50567000Y-46653000D01*
X50567000Y-46907000D01*
X50547000Y-46907000D01*
X50547000Y-48106250D01*
X50705750Y-48265000D01*
X51020000Y-48268072D01*
X51144482Y-48255812D01*
X51264180Y-48219502D01*
X51374494Y-48160537D01*
X51420000Y-48123191D01*
X51465506Y-48160537D01*
X51575820Y-48219502D01*
X51695518Y-48255812D01*
X51820000Y-48268072D01*
X53020000Y-48268072D01*
X53144482Y-48255812D01*
X53264180Y-48219502D01*
X53374494Y-48160537D01*
X53420000Y-48123191D01*
X53465506Y-48160537D01*
X53575820Y-48219502D01*
X53695518Y-48255812D01*
X53820000Y-48268072D01*
X55020000Y-48268072D01*
X55144482Y-48255812D01*
X55264180Y-48219502D01*
X55374494Y-48160537D01*
X55420000Y-48123191D01*
X55465506Y-48160537D01*
X55575820Y-48219502D01*
X55695518Y-48255812D01*
X55820000Y-48268072D01*
X57020000Y-48268072D01*
X57144482Y-48255812D01*
X57264180Y-48219502D01*
X57374494Y-48160537D01*
X57420000Y-48123191D01*
X57465506Y-48160537D01*
X57575820Y-48219502D01*
X57695518Y-48255812D01*
X57820000Y-48268072D01*
X59020000Y-48268072D01*
X59144482Y-48255812D01*
X59264180Y-48219502D01*
X59374494Y-48160537D01*
X59420000Y-48123191D01*
X59465506Y-48160537D01*
X59575820Y-48219502D01*
X59695518Y-48255812D01*
X59820000Y-48268072D01*
X60586158Y-48268072D01*
X60585300Y-48276788D01*
X60585300Y-48276798D01*
X60581624Y-48314120D01*
X60585300Y-48351442D01*
X60585301Y-55194796D01*
X60538396Y-55163455D01*
X60350038Y-55085434D01*
X60150079Y-55045660D01*
X59946201Y-55045660D01*
X59746242Y-55085434D01*
X59557884Y-55163455D01*
X59388366Y-55276723D01*
X59244203Y-55420886D01*
X59130935Y-55590404D01*
X59052914Y-55778762D01*
X59013140Y-55978721D01*
X59013140Y-56182599D01*
X59052914Y-56382558D01*
X59130935Y-56570916D01*
X59244203Y-56740434D01*
X59388366Y-56884597D01*
X59557884Y-56997865D01*
X59746242Y-57075886D01*
X59946201Y-57115660D01*
X60150079Y-57115660D01*
X60350038Y-57075886D01*
X60538396Y-56997865D01*
X60585300Y-56966525D01*
X60585301Y-59491928D01*
X59820000Y-59491928D01*
X59695518Y-59504188D01*
X59575820Y-59540498D01*
X59465506Y-59599463D01*
X59420000Y-59636809D01*
X59374494Y-59599463D01*
X59264180Y-59540498D01*
X59180000Y-59514962D01*
X59180000Y-57536222D01*
X59183676Y-57498899D01*
X59180000Y-57461576D01*
X59180000Y-57461567D01*
X59169003Y-57349914D01*
X59125546Y-57206653D01*
X59054974Y-57074624D01*
X58960001Y-56958899D01*
X58931004Y-56935102D01*
X50197576Y-48201674D01*
X50293000Y-48106250D01*
X50293000Y-46907000D01*
X49343750Y-46907000D01*
X49185000Y-47065750D01*
X49184332Y-47188431D01*
X49180020Y-47184119D01*
X49180020Y-45663342D01*
X49183696Y-45626019D01*
X49180020Y-45588696D01*
X49180020Y-45588687D01*
X49169023Y-45477034D01*
X49125566Y-45333773D01*
X49102069Y-45289813D01*
X49054994Y-45201743D01*
X48983819Y-45115017D01*
X48960021Y-45086019D01*
X48931024Y-45062222D01*
X47892399Y-44023598D01*
X47892399Y-43317200D01*
X49867591Y-45292393D01*
G36*
X32627860Y-44122667D02*
G01*
X32624183Y-44160000D01*
X32638857Y-44308986D01*
X32682314Y-44452247D01*
X32752886Y-44584276D01*
X32783786Y-44621928D01*
X31854018Y-44621928D01*
X31863072Y-44530000D01*
X31860000Y-44315750D01*
X31701250Y-44157000D01*
X30727000Y-44157000D01*
X30727000Y-44177000D01*
X30473000Y-44177000D01*
X30473000Y-44157000D01*
X30453000Y-44157000D01*
X30453000Y-43903000D01*
X30473000Y-43903000D01*
X30473000Y-43883000D01*
X30727000Y-43883000D01*
X30727000Y-43903000D01*
X31701250Y-43903000D01*
X31860000Y-43744250D01*
X31863072Y-43530000D01*
X31850812Y-43405518D01*
X31814502Y-43285820D01*
X31755537Y-43175506D01*
X31676185Y-43078815D01*
X31616704Y-43030000D01*
X31676185Y-42981185D01*
X31755537Y-42884494D01*
X31814502Y-42774180D01*
X31850812Y-42654482D01*
X31863072Y-42530000D01*
X31863072Y-42487120D01*
X32627861Y-42487120D01*
X32627860Y-44122667D01*
G37*
X32627860Y-44122667D02*
X32624183Y-44160000D01*
X32638857Y-44308986D01*
X32682314Y-44452247D01*
X32752886Y-44584276D01*
X32783786Y-44621928D01*
X31854018Y-44621928D01*
X31863072Y-44530000D01*
X31860000Y-44315750D01*
X31701250Y-44157000D01*
X30727000Y-44157000D01*
X30727000Y-44177000D01*
X30473000Y-44177000D01*
X30473000Y-44157000D01*
X30453000Y-44157000D01*
X30453000Y-43903000D01*
X30473000Y-43903000D01*
X30473000Y-43883000D01*
X30727000Y-43883000D01*
X30727000Y-43903000D01*
X31701250Y-43903000D01*
X31860000Y-43744250D01*
X31863072Y-43530000D01*
X31850812Y-43405518D01*
X31814502Y-43285820D01*
X31755537Y-43175506D01*
X31676185Y-43078815D01*
X31616704Y-43030000D01*
X31676185Y-42981185D01*
X31755537Y-42884494D01*
X31814502Y-42774180D01*
X31850812Y-42654482D01*
X31863072Y-42530000D01*
X31863072Y-42487120D01*
X32627861Y-42487120D01*
X32627860Y-44122667D01*
G36*
X44308750Y-35953000D02*
G01*
X45283000Y-35953000D01*
X45283000Y-35933000D01*
X45537000Y-35933000D01*
X45537000Y-35953000D01*
X45557000Y-35953000D01*
X45557000Y-36207000D01*
X45537000Y-36207000D01*
X45537000Y-36227000D01*
X45283000Y-36227000D01*
X45283000Y-36207000D01*
X44511853Y-36207000D01*
X44382286Y-36167697D01*
X44270633Y-36156700D01*
X44233300Y-36153023D01*
X44195967Y-36156700D01*
X43943503Y-36156700D01*
X43656032Y-35869230D01*
X44224980Y-35869230D01*
X44308750Y-35953000D01*
G37*
X44308750Y-35953000D02*
X45283000Y-35953000D01*
X45283000Y-35933000D01*
X45537000Y-35933000D01*
X45537000Y-35953000D01*
X45557000Y-35953000D01*
X45557000Y-36207000D01*
X45537000Y-36207000D01*
X45537000Y-36227000D01*
X45283000Y-36227000D01*
X45283000Y-36207000D01*
X44511853Y-36207000D01*
X44382286Y-36167697D01*
X44270633Y-36156700D01*
X44233300Y-36153023D01*
X44195967Y-36156700D01*
X43943503Y-36156700D01*
X43656032Y-35869230D01*
X44224980Y-35869230D01*
X44308750Y-35953000D01*
G36*
X46646928Y-35952998D02*
G01*
X46511252Y-35952998D01*
X46595020Y-35869230D01*
X46646928Y-35869230D01*
X46646928Y-35952998D01*
G37*
X46646928Y-35952998D02*
X46511252Y-35952998D01*
X46595020Y-35869230D01*
X46646928Y-35869230D01*
X46646928Y-35952998D01*
G36*
X39654201Y-24657114D02*
G01*
X39502629Y-24883957D01*
X39398225Y-25136011D01*
X39345000Y-25403589D01*
X39345000Y-25676411D01*
X39398225Y-25943989D01*
X39502629Y-26196043D01*
X39654201Y-26422886D01*
X39847114Y-26615799D01*
X40073957Y-26767371D01*
X40326011Y-26871775D01*
X40593589Y-26925000D01*
X40866411Y-26925000D01*
X41011365Y-26896167D01*
X43720001Y-29604803D01*
X43720000Y-32922677D01*
X43716324Y-32960000D01*
X43720000Y-32997322D01*
X43720000Y-32997332D01*
X43730997Y-33108985D01*
X43757081Y-33194974D01*
X43774454Y-33252246D01*
X43845026Y-33384276D01*
X43860585Y-33403234D01*
X43939999Y-33500001D01*
X43969002Y-33523803D01*
X44146928Y-33701729D01*
X44146928Y-34349230D01*
X43676332Y-34349230D01*
X42330830Y-33003729D01*
X42330830Y-32084697D01*
X42319833Y-31973044D01*
X42276376Y-31829783D01*
X42205804Y-31697754D01*
X42110831Y-31582029D01*
X41995105Y-31487056D01*
X41863076Y-31416484D01*
X41719815Y-31373027D01*
X41570830Y-31358353D01*
X41421844Y-31373027D01*
X41278583Y-31416484D01*
X41159343Y-31480220D01*
X40246142Y-31480220D01*
X39547524Y-30781602D01*
X39523721Y-30752599D01*
X39407996Y-30657626D01*
X39275967Y-30587054D01*
X39132706Y-30543597D01*
X39021053Y-30532600D01*
X39021042Y-30532600D01*
X38983720Y-30528924D01*
X38946398Y-30532600D01*
X37562201Y-30532600D01*
X37771730Y-30323072D01*
X38460000Y-30323072D01*
X38584482Y-30310812D01*
X38704180Y-30274502D01*
X38814494Y-30215537D01*
X38911185Y-30136185D01*
X38960000Y-30076704D01*
X39008815Y-30136185D01*
X39105506Y-30215537D01*
X39215820Y-30274502D01*
X39335518Y-30310812D01*
X39460000Y-30323072D01*
X39674250Y-30320000D01*
X39833000Y-30161250D01*
X39833000Y-29187000D01*
X40087000Y-29187000D01*
X40087000Y-30161250D01*
X40245750Y-30320000D01*
X40460000Y-30323072D01*
X40584482Y-30310812D01*
X40704180Y-30274502D01*
X40814494Y-30215537D01*
X40911185Y-30136185D01*
X40990537Y-30039494D01*
X41049502Y-29929180D01*
X41085812Y-29809482D01*
X41098072Y-29685000D01*
X41095000Y-29345750D01*
X40936250Y-29187000D01*
X40087000Y-29187000D01*
X39833000Y-29187000D01*
X39813000Y-29187000D01*
X39813000Y-28933000D01*
X39833000Y-28933000D01*
X39833000Y-27958750D01*
X40087000Y-27958750D01*
X40087000Y-28933000D01*
X40936250Y-28933000D01*
X41095000Y-28774250D01*
X41098072Y-28435000D01*
X41085812Y-28310518D01*
X41049502Y-28190820D01*
X40990537Y-28080506D01*
X40911185Y-27983815D01*
X40814494Y-27904463D01*
X40704180Y-27845498D01*
X40584482Y-27809188D01*
X40460000Y-27796928D01*
X40245750Y-27800000D01*
X40087000Y-27958750D01*
X39833000Y-27958750D01*
X39674250Y-27800000D01*
X39460000Y-27796928D01*
X39335518Y-27809188D01*
X39215820Y-27845498D01*
X39105506Y-27904463D01*
X39008815Y-27983815D01*
X38960000Y-28043296D01*
X38911185Y-27983815D01*
X38814494Y-27904463D01*
X38720000Y-27853954D01*
X38720000Y-24914801D01*
X39024802Y-24610000D01*
X39701315Y-24610000D01*
X39654201Y-24657114D01*
G37*
X39654201Y-24657114D02*
X39502629Y-24883957D01*
X39398225Y-25136011D01*
X39345000Y-25403589D01*
X39345000Y-25676411D01*
X39398225Y-25943989D01*
X39502629Y-26196043D01*
X39654201Y-26422886D01*
X39847114Y-26615799D01*
X40073957Y-26767371D01*
X40326011Y-26871775D01*
X40593589Y-26925000D01*
X40866411Y-26925000D01*
X41011365Y-26896167D01*
X43720001Y-29604803D01*
X43720000Y-32922677D01*
X43716324Y-32960000D01*
X43720000Y-32997322D01*
X43720000Y-32997332D01*
X43730997Y-33108985D01*
X43757081Y-33194974D01*
X43774454Y-33252246D01*
X43845026Y-33384276D01*
X43860585Y-33403234D01*
X43939999Y-33500001D01*
X43969002Y-33523803D01*
X44146928Y-33701729D01*
X44146928Y-34349230D01*
X43676332Y-34349230D01*
X42330830Y-33003729D01*
X42330830Y-32084697D01*
X42319833Y-31973044D01*
X42276376Y-31829783D01*
X42205804Y-31697754D01*
X42110831Y-31582029D01*
X41995105Y-31487056D01*
X41863076Y-31416484D01*
X41719815Y-31373027D01*
X41570830Y-31358353D01*
X41421844Y-31373027D01*
X41278583Y-31416484D01*
X41159343Y-31480220D01*
X40246142Y-31480220D01*
X39547524Y-30781602D01*
X39523721Y-30752599D01*
X39407996Y-30657626D01*
X39275967Y-30587054D01*
X39132706Y-30543597D01*
X39021053Y-30532600D01*
X39021042Y-30532600D01*
X38983720Y-30528924D01*
X38946398Y-30532600D01*
X37562201Y-30532600D01*
X37771730Y-30323072D01*
X38460000Y-30323072D01*
X38584482Y-30310812D01*
X38704180Y-30274502D01*
X38814494Y-30215537D01*
X38911185Y-30136185D01*
X38960000Y-30076704D01*
X39008815Y-30136185D01*
X39105506Y-30215537D01*
X39215820Y-30274502D01*
X39335518Y-30310812D01*
X39460000Y-30323072D01*
X39674250Y-30320000D01*
X39833000Y-30161250D01*
X39833000Y-29187000D01*
X40087000Y-29187000D01*
X40087000Y-30161250D01*
X40245750Y-30320000D01*
X40460000Y-30323072D01*
X40584482Y-30310812D01*
X40704180Y-30274502D01*
X40814494Y-30215537D01*
X40911185Y-30136185D01*
X40990537Y-30039494D01*
X41049502Y-29929180D01*
X41085812Y-29809482D01*
X41098072Y-29685000D01*
X41095000Y-29345750D01*
X40936250Y-29187000D01*
X40087000Y-29187000D01*
X39833000Y-29187000D01*
X39813000Y-29187000D01*
X39813000Y-28933000D01*
X39833000Y-28933000D01*
X39833000Y-27958750D01*
X40087000Y-27958750D01*
X40087000Y-28933000D01*
X40936250Y-28933000D01*
X41095000Y-28774250D01*
X41098072Y-28435000D01*
X41085812Y-28310518D01*
X41049502Y-28190820D01*
X40990537Y-28080506D01*
X40911185Y-27983815D01*
X40814494Y-27904463D01*
X40704180Y-27845498D01*
X40584482Y-27809188D01*
X40460000Y-27796928D01*
X40245750Y-27800000D01*
X40087000Y-27958750D01*
X39833000Y-27958750D01*
X39674250Y-27800000D01*
X39460000Y-27796928D01*
X39335518Y-27809188D01*
X39215820Y-27845498D01*
X39105506Y-27904463D01*
X39008815Y-27983815D01*
X38960000Y-28043296D01*
X38911185Y-27983815D01*
X38814494Y-27904463D01*
X38720000Y-27853954D01*
X38720000Y-24914801D01*
X39024802Y-24610000D01*
X39701315Y-24610000D01*
X39654201Y-24657114D01*
G36*
X46673072Y-34342678D02*
G01*
X46673072Y-34207002D01*
X46808748Y-34207002D01*
X46673072Y-34342678D01*
G37*
X46673072Y-34342678D02*
X46673072Y-34207002D01*
X46808748Y-34207002D01*
X46673072Y-34342678D01*
G36*
X45293590Y-29120092D02*
G01*
X45293591Y-30939658D01*
X45289914Y-30976990D01*
X45293591Y-31014323D01*
X45304588Y-31125976D01*
X45312173Y-31150980D01*
X45348044Y-31269236D01*
X45418616Y-31401266D01*
X45483413Y-31480220D01*
X45513590Y-31516991D01*
X45542588Y-31540789D01*
X45663776Y-31661977D01*
X45687579Y-31690981D01*
X45803304Y-31785954D01*
X45935333Y-31856526D01*
X46078594Y-31899983D01*
X46190247Y-31910980D01*
X46190257Y-31910980D01*
X46227579Y-31914656D01*
X46264902Y-31910980D01*
X48084479Y-31910980D01*
X49315426Y-33141928D01*
X49260000Y-33141928D01*
X49135518Y-33154188D01*
X49032624Y-33185401D01*
X48986185Y-33128815D01*
X48889494Y-33049463D01*
X48779180Y-32990498D01*
X48659482Y-32954188D01*
X48535000Y-32941928D01*
X48195750Y-32945000D01*
X48037000Y-33103750D01*
X48037000Y-33953000D01*
X48057000Y-33953000D01*
X48057000Y-34207000D01*
X48037000Y-34207000D01*
X48037000Y-34227000D01*
X47783000Y-34227000D01*
X47783000Y-34207000D01*
X47763000Y-34207000D01*
X47763000Y-33953000D01*
X47783000Y-33953000D01*
X47783000Y-33103750D01*
X47624250Y-32945000D01*
X47285000Y-32941928D01*
X47160518Y-32954188D01*
X47040820Y-32990498D01*
X46930506Y-33049463D01*
X46833815Y-33128815D01*
X46754463Y-33225506D01*
X46695498Y-33335820D01*
X46660000Y-33452841D01*
X46624502Y-33335820D01*
X46565537Y-33225506D01*
X46486185Y-33128815D01*
X46389494Y-33049463D01*
X46279180Y-32990498D01*
X46159482Y-32954188D01*
X46035000Y-32941928D01*
X45536730Y-32941928D01*
X45240000Y-32645199D01*
X45240000Y-29327323D01*
X45243676Y-29290000D01*
X45240000Y-29252677D01*
X45240000Y-29252667D01*
X45229003Y-29141014D01*
X45191770Y-29018272D01*
X45293590Y-29120092D01*
G37*
X45293590Y-29120092D02*
X45293591Y-30939658D01*
X45289914Y-30976990D01*
X45293591Y-31014323D01*
X45304588Y-31125976D01*
X45312173Y-31150980D01*
X45348044Y-31269236D01*
X45418616Y-31401266D01*
X45483413Y-31480220D01*
X45513590Y-31516991D01*
X45542588Y-31540789D01*
X45663776Y-31661977D01*
X45687579Y-31690981D01*
X45803304Y-31785954D01*
X45935333Y-31856526D01*
X46078594Y-31899983D01*
X46190247Y-31910980D01*
X46190257Y-31910980D01*
X46227579Y-31914656D01*
X46264902Y-31910980D01*
X48084479Y-31910980D01*
X49315426Y-33141928D01*
X49260000Y-33141928D01*
X49135518Y-33154188D01*
X49032624Y-33185401D01*
X48986185Y-33128815D01*
X48889494Y-33049463D01*
X48779180Y-32990498D01*
X48659482Y-32954188D01*
X48535000Y-32941928D01*
X48195750Y-32945000D01*
X48037000Y-33103750D01*
X48037000Y-33953000D01*
X48057000Y-33953000D01*
X48057000Y-34207000D01*
X48037000Y-34207000D01*
X48037000Y-34227000D01*
X47783000Y-34227000D01*
X47783000Y-34207000D01*
X47763000Y-34207000D01*
X47763000Y-33953000D01*
X47783000Y-33953000D01*
X47783000Y-33103750D01*
X47624250Y-32945000D01*
X47285000Y-32941928D01*
X47160518Y-32954188D01*
X47040820Y-32990498D01*
X46930506Y-33049463D01*
X46833815Y-33128815D01*
X46754463Y-33225506D01*
X46695498Y-33335820D01*
X46660000Y-33452841D01*
X46624502Y-33335820D01*
X46565537Y-33225506D01*
X46486185Y-33128815D01*
X46389494Y-33049463D01*
X46279180Y-32990498D01*
X46159482Y-32954188D01*
X46035000Y-32941928D01*
X45536730Y-32941928D01*
X45240000Y-32645199D01*
X45240000Y-29327323D01*
X45243676Y-29290000D01*
X45240000Y-29252677D01*
X45240000Y-29252667D01*
X45229003Y-29141014D01*
X45191770Y-29018272D01*
X45293590Y-29120092D01*
G36*
X39367541Y-32751223D02*
G01*
X39391339Y-32780221D01*
X39420337Y-32804019D01*
X39507063Y-32875194D01*
X39597431Y-32923497D01*
X39639093Y-32945766D01*
X39782354Y-32989223D01*
X39894007Y-33000220D01*
X39894016Y-33000220D01*
X39931339Y-33003896D01*
X39968662Y-33000220D01*
X40810831Y-33000220D01*
X40810831Y-33281198D01*
X40807154Y-33318530D01*
X40810831Y-33355863D01*
X40821828Y-33467516D01*
X40830173Y-33495026D01*
X40865284Y-33610776D01*
X40935856Y-33742806D01*
X41007031Y-33829532D01*
X41030830Y-33858531D01*
X41059828Y-33882329D01*
X41351199Y-34173700D01*
X40103011Y-34173700D01*
X40059074Y-34129763D01*
X39889556Y-34016495D01*
X39701198Y-33938474D01*
X39501239Y-33898700D01*
X39439102Y-33898700D01*
X38701904Y-33161503D01*
X38678101Y-33132499D01*
X38598072Y-33066821D01*
X38598072Y-32052600D01*
X38668919Y-32052600D01*
X39367541Y-32751223D01*
G37*
X39367541Y-32751223D02*
X39391339Y-32780221D01*
X39420337Y-32804019D01*
X39507063Y-32875194D01*
X39597431Y-32923497D01*
X39639093Y-32945766D01*
X39782354Y-32989223D01*
X39894007Y-33000220D01*
X39894016Y-33000220D01*
X39931339Y-33003896D01*
X39968662Y-33000220D01*
X40810831Y-33000220D01*
X40810831Y-33281198D01*
X40807154Y-33318530D01*
X40810831Y-33355863D01*
X40821828Y-33467516D01*
X40830173Y-33495026D01*
X40865284Y-33610776D01*
X40935856Y-33742806D01*
X41007031Y-33829532D01*
X41030830Y-33858531D01*
X41059828Y-33882329D01*
X41351199Y-34173700D01*
X40103011Y-34173700D01*
X40059074Y-34129763D01*
X39889556Y-34016495D01*
X39701198Y-33938474D01*
X39501239Y-33898700D01*
X39439102Y-33898700D01*
X38701904Y-33161503D01*
X38678101Y-33132499D01*
X38598072Y-33066821D01*
X38598072Y-32052600D01*
X38668919Y-32052600D01*
X39367541Y-32751223D01*
G36*
X40110498Y-19355820D02*
G01*
X40074188Y-19475518D01*
X40061928Y-19600000D01*
X40065000Y-20164250D01*
X40223750Y-20323000D01*
X41423000Y-20323000D01*
X41423000Y-20303000D01*
X41677000Y-20303000D01*
X41677000Y-20323000D01*
X41697000Y-20323000D01*
X41697000Y-20577000D01*
X41677000Y-20577000D01*
X41677000Y-20597000D01*
X41423000Y-20597000D01*
X41423000Y-20577000D01*
X40223750Y-20577000D01*
X40065000Y-20735750D01*
X40061928Y-21300000D01*
X40074188Y-21424482D01*
X40110498Y-21544180D01*
X40169463Y-21654494D01*
X40248815Y-21751185D01*
X40268329Y-21767200D01*
X34012922Y-21767200D01*
X33626983Y-21381262D01*
X33603181Y-21352259D01*
X33487456Y-21257286D01*
X33355427Y-21186714D01*
X33212166Y-21143257D01*
X33100513Y-21132260D01*
X33100502Y-21132260D01*
X33063180Y-21128584D01*
X33025858Y-21132260D01*
X30961825Y-21132260D01*
X30924500Y-21128584D01*
X30887175Y-21132260D01*
X30887167Y-21132260D01*
X30775514Y-21143257D01*
X30632253Y-21186714D01*
X30500224Y-21257286D01*
X30384499Y-21352259D01*
X30360700Y-21381258D01*
X29974759Y-21767200D01*
X29479022Y-21767200D01*
X29441699Y-21763524D01*
X29404376Y-21767200D01*
X29404367Y-21767200D01*
X29292714Y-21778197D01*
X29149453Y-21821654D01*
X29017424Y-21892226D01*
X28901699Y-21987199D01*
X28877901Y-22016197D01*
X28016609Y-22877490D01*
X26836613Y-22877490D01*
X26799290Y-22873814D01*
X26761967Y-22877490D01*
X26761957Y-22877490D01*
X26650304Y-22888487D01*
X26507043Y-22931944D01*
X26375013Y-23002516D01*
X26308023Y-23057494D01*
X26259289Y-23097489D01*
X26235491Y-23126487D01*
X24889003Y-24472976D01*
X24859999Y-24496779D01*
X24821110Y-24544166D01*
X24765026Y-24612504D01*
X24725822Y-24685849D01*
X24694454Y-24744534D01*
X24650997Y-24887795D01*
X24640000Y-24999448D01*
X24640000Y-24999458D01*
X24636324Y-25036780D01*
X24640000Y-25074103D01*
X24640001Y-26335488D01*
X24636324Y-26372820D01*
X24640001Y-26410153D01*
X24650257Y-26514277D01*
X24650998Y-26521805D01*
X24694454Y-26665066D01*
X24765026Y-26797096D01*
X24826314Y-26871775D01*
X24860000Y-26912821D01*
X24888998Y-26936619D01*
X25275300Y-27322922D01*
X25275301Y-31214295D01*
X25145750Y-31215000D01*
X24987000Y-31373750D01*
X24987000Y-32573000D01*
X25007000Y-32573000D01*
X25007000Y-32827000D01*
X24987000Y-32827000D01*
X24987000Y-32847000D01*
X24733000Y-32847000D01*
X24733000Y-32827000D01*
X24713000Y-32827000D01*
X24713000Y-32573000D01*
X24733000Y-32573000D01*
X24733000Y-31373750D01*
X24574250Y-31215000D01*
X24010000Y-31211928D01*
X23885518Y-31224188D01*
X23765820Y-31260498D01*
X23670000Y-31311716D01*
X23670000Y-22702655D01*
X23818698Y-22802012D01*
X24207244Y-22962953D01*
X24619721Y-23045000D01*
X25040279Y-23045000D01*
X25452756Y-22962953D01*
X25841302Y-22802012D01*
X26190983Y-22568363D01*
X26488363Y-22270983D01*
X26722012Y-21921302D01*
X26882953Y-21532756D01*
X26965000Y-21120279D01*
X26965000Y-20699721D01*
X26882953Y-20287244D01*
X26722012Y-19898698D01*
X26488363Y-19549017D01*
X26209346Y-19270000D01*
X40156370Y-19270000D01*
X40110498Y-19355820D01*
G37*
X40110498Y-19355820D02*
X40074188Y-19475518D01*
X40061928Y-19600000D01*
X40065000Y-20164250D01*
X40223750Y-20323000D01*
X41423000Y-20323000D01*
X41423000Y-20303000D01*
X41677000Y-20303000D01*
X41677000Y-20323000D01*
X41697000Y-20323000D01*
X41697000Y-20577000D01*
X41677000Y-20577000D01*
X41677000Y-20597000D01*
X41423000Y-20597000D01*
X41423000Y-20577000D01*
X40223750Y-20577000D01*
X40065000Y-20735750D01*
X40061928Y-21300000D01*
X40074188Y-21424482D01*
X40110498Y-21544180D01*
X40169463Y-21654494D01*
X40248815Y-21751185D01*
X40268329Y-21767200D01*
X34012922Y-21767200D01*
X33626983Y-21381262D01*
X33603181Y-21352259D01*
X33487456Y-21257286D01*
X33355427Y-21186714D01*
X33212166Y-21143257D01*
X33100513Y-21132260D01*
X33100502Y-21132260D01*
X33063180Y-21128584D01*
X33025858Y-21132260D01*
X30961825Y-21132260D01*
X30924500Y-21128584D01*
X30887175Y-21132260D01*
X30887167Y-21132260D01*
X30775514Y-21143257D01*
X30632253Y-21186714D01*
X30500224Y-21257286D01*
X30384499Y-21352259D01*
X30360700Y-21381258D01*
X29974759Y-21767200D01*
X29479022Y-21767200D01*
X29441699Y-21763524D01*
X29404376Y-21767200D01*
X29404367Y-21767200D01*
X29292714Y-21778197D01*
X29149453Y-21821654D01*
X29017424Y-21892226D01*
X28901699Y-21987199D01*
X28877901Y-22016197D01*
X28016609Y-22877490D01*
X26836613Y-22877490D01*
X26799290Y-22873814D01*
X26761967Y-22877490D01*
X26761957Y-22877490D01*
X26650304Y-22888487D01*
X26507043Y-22931944D01*
X26375013Y-23002516D01*
X26308023Y-23057494D01*
X26259289Y-23097489D01*
X26235491Y-23126487D01*
X24889003Y-24472976D01*
X24859999Y-24496779D01*
X24821110Y-24544166D01*
X24765026Y-24612504D01*
X24725822Y-24685849D01*
X24694454Y-24744534D01*
X24650997Y-24887795D01*
X24640000Y-24999448D01*
X24640000Y-24999458D01*
X24636324Y-25036780D01*
X24640000Y-25074103D01*
X24640001Y-26335488D01*
X24636324Y-26372820D01*
X24640001Y-26410153D01*
X24650257Y-26514277D01*
X24650998Y-26521805D01*
X24694454Y-26665066D01*
X24765026Y-26797096D01*
X24826314Y-26871775D01*
X24860000Y-26912821D01*
X24888998Y-26936619D01*
X25275300Y-27322922D01*
X25275301Y-31214295D01*
X25145750Y-31215000D01*
X24987000Y-31373750D01*
X24987000Y-32573000D01*
X25007000Y-32573000D01*
X25007000Y-32827000D01*
X24987000Y-32827000D01*
X24987000Y-32847000D01*
X24733000Y-32847000D01*
X24733000Y-32827000D01*
X24713000Y-32827000D01*
X24713000Y-32573000D01*
X24733000Y-32573000D01*
X24733000Y-31373750D01*
X24574250Y-31215000D01*
X24010000Y-31211928D01*
X23885518Y-31224188D01*
X23765820Y-31260498D01*
X23670000Y-31311716D01*
X23670000Y-22702655D01*
X23818698Y-22802012D01*
X24207244Y-22962953D01*
X24619721Y-23045000D01*
X25040279Y-23045000D01*
X25452756Y-22962953D01*
X25841302Y-22802012D01*
X26190983Y-22568363D01*
X26488363Y-22270983D01*
X26722012Y-21921302D01*
X26882953Y-21532756D01*
X26965000Y-21120279D01*
X26965000Y-20699721D01*
X26882953Y-20287244D01*
X26722012Y-19898698D01*
X26488363Y-19549017D01*
X26209346Y-19270000D01*
X40156370Y-19270000D01*
X40110498Y-19355820D01*
G36*
X33134320Y-23038202D02*
G01*
X33158119Y-23067201D01*
X33273844Y-23162174D01*
X33405873Y-23232746D01*
X33549134Y-23276203D01*
X33660787Y-23287200D01*
X33660795Y-23287200D01*
X33698120Y-23290876D01*
X33735445Y-23287200D01*
X35749305Y-23287200D01*
X35729876Y-23310874D01*
X35659304Y-23442904D01*
X35648359Y-23478986D01*
X35615847Y-23586164D01*
X35604850Y-23697817D01*
X35604850Y-23697828D01*
X35601174Y-23735150D01*
X35604850Y-23772472D01*
X35604850Y-24482482D01*
X35604851Y-24482492D01*
X35604850Y-27170048D01*
X34878998Y-27895901D01*
X34850000Y-27919699D01*
X34826202Y-27948697D01*
X34826201Y-27948698D01*
X34755026Y-28035424D01*
X34684454Y-28167454D01*
X34679000Y-28185433D01*
X34645820Y-28195498D01*
X34535506Y-28254463D01*
X34438815Y-28333815D01*
X34390000Y-28393296D01*
X34341185Y-28333815D01*
X34244494Y-28254463D01*
X34134180Y-28195498D01*
X34014482Y-28159188D01*
X33890000Y-28146928D01*
X33675750Y-28150000D01*
X33517000Y-28308750D01*
X33517000Y-29283000D01*
X33537000Y-29283000D01*
X33537000Y-29537000D01*
X33517000Y-29537000D01*
X33517000Y-29557000D01*
X33263000Y-29557000D01*
X33263000Y-29537000D01*
X33243000Y-29537000D01*
X33243000Y-29283000D01*
X33263000Y-29283000D01*
X33263000Y-28308750D01*
X33104250Y-28150000D01*
X32890000Y-28146928D01*
X32765518Y-28159188D01*
X32645820Y-28195498D01*
X32535506Y-28254463D01*
X32438815Y-28333815D01*
X32359463Y-28430506D01*
X32300498Y-28540820D01*
X32264188Y-28660518D01*
X32251928Y-28785000D01*
X32253866Y-28999067D01*
X31552420Y-28297621D01*
X31552420Y-28279675D01*
X31555204Y-28251409D01*
X31555204Y-28251399D01*
X31558880Y-28214077D01*
X31555204Y-28176754D01*
X31555204Y-25005000D01*
X31822615Y-25005000D01*
X32090193Y-24951775D01*
X32342247Y-24847371D01*
X32569090Y-24695799D01*
X32762003Y-24502886D01*
X32913575Y-24276043D01*
X33017979Y-24023989D01*
X33071204Y-23756411D01*
X33071204Y-23483589D01*
X33017979Y-23216011D01*
X32913575Y-22963957D01*
X32762003Y-22737114D01*
X32677149Y-22652260D01*
X32748379Y-22652260D01*
X33134320Y-23038202D01*
G37*
X33134320Y-23038202D02*
X33158119Y-23067201D01*
X33273844Y-23162174D01*
X33405873Y-23232746D01*
X33549134Y-23276203D01*
X33660787Y-23287200D01*
X33660795Y-23287200D01*
X33698120Y-23290876D01*
X33735445Y-23287200D01*
X35749305Y-23287200D01*
X35729876Y-23310874D01*
X35659304Y-23442904D01*
X35648359Y-23478986D01*
X35615847Y-23586164D01*
X35604850Y-23697817D01*
X35604850Y-23697828D01*
X35601174Y-23735150D01*
X35604850Y-23772472D01*
X35604850Y-24482482D01*
X35604851Y-24482492D01*
X35604850Y-27170048D01*
X34878998Y-27895901D01*
X34850000Y-27919699D01*
X34826202Y-27948697D01*
X34826201Y-27948698D01*
X34755026Y-28035424D01*
X34684454Y-28167454D01*
X34679000Y-28185433D01*
X34645820Y-28195498D01*
X34535506Y-28254463D01*
X34438815Y-28333815D01*
X34390000Y-28393296D01*
X34341185Y-28333815D01*
X34244494Y-28254463D01*
X34134180Y-28195498D01*
X34014482Y-28159188D01*
X33890000Y-28146928D01*
X33675750Y-28150000D01*
X33517000Y-28308750D01*
X33517000Y-29283000D01*
X33537000Y-29283000D01*
X33537000Y-29537000D01*
X33517000Y-29537000D01*
X33517000Y-29557000D01*
X33263000Y-29557000D01*
X33263000Y-29537000D01*
X33243000Y-29537000D01*
X33243000Y-29283000D01*
X33263000Y-29283000D01*
X33263000Y-28308750D01*
X33104250Y-28150000D01*
X32890000Y-28146928D01*
X32765518Y-28159188D01*
X32645820Y-28195498D01*
X32535506Y-28254463D01*
X32438815Y-28333815D01*
X32359463Y-28430506D01*
X32300498Y-28540820D01*
X32264188Y-28660518D01*
X32251928Y-28785000D01*
X32253866Y-28999067D01*
X31552420Y-28297621D01*
X31552420Y-28279675D01*
X31555204Y-28251409D01*
X31555204Y-28251399D01*
X31558880Y-28214077D01*
X31555204Y-28176754D01*
X31555204Y-25005000D01*
X31822615Y-25005000D01*
X32090193Y-24951775D01*
X32342247Y-24847371D01*
X32569090Y-24695799D01*
X32762003Y-24502886D01*
X32913575Y-24276043D01*
X33017979Y-24023989D01*
X33071204Y-23756411D01*
X33071204Y-23483589D01*
X33017979Y-23216011D01*
X32913575Y-22963957D01*
X32762003Y-22737114D01*
X32677149Y-22652260D01*
X32748379Y-22652260D01*
X33134320Y-23038202D01*
M02*
