G04 #@! TF.GenerationSoftware,KiCad,Pcbnew,5.1.6-c6e7f7d~87~ubuntu18.04.1*
G04 #@! TF.CreationDate,2020-11-02T00:43:46+05:30*
G04 #@! TF.ProjectId,Sensor_pcb_v3,53656e73-6f72-45f7-9063-625f76332e6b,rev?*
G04 #@! TF.SameCoordinates,Original*
G04 #@! TF.FileFunction,Legend,Bot*
G04 #@! TF.FilePolarity,Positive*
%FSLAX46Y46*%
G04 Gerber Fmt 4.6, Leading zero omitted, Abs format (unit mm)*
G04 Created by KiCad (PCBNEW 5.1.6-c6e7f7d~87~ubuntu18.04.1) date 2020-11-02 00:43:46*
%MOMM*%
%LPD*%
G01*
G04 APERTURE LIST*
%ADD10C,0.100000*%
%ADD11C,0.120000*%
%ADD12C,0.152400*%
%ADD13C,0.010000*%
%ADD14C,0.150000*%
%ADD15C,0.015000*%
G04 APERTURE END LIST*
D10*
X36705759Y-58682849D02*
X36820044Y-58720944D01*
X37010520Y-58720944D01*
X37086711Y-58682849D01*
X37124806Y-58644754D01*
X37162901Y-58568563D01*
X37162901Y-58492373D01*
X37124806Y-58416182D01*
X37086711Y-58378087D01*
X37010520Y-58339992D01*
X36858140Y-58301897D01*
X36781949Y-58263801D01*
X36743854Y-58225706D01*
X36705759Y-58149516D01*
X36705759Y-58073325D01*
X36743854Y-57997135D01*
X36781949Y-57959040D01*
X36858140Y-57920944D01*
X37048616Y-57920944D01*
X37162901Y-57959040D01*
X37391473Y-58187611D02*
X37696235Y-58187611D01*
X37505759Y-57920944D02*
X37505759Y-58606659D01*
X37543854Y-58682849D01*
X37620044Y-58720944D01*
X37696235Y-58720944D01*
X37962901Y-58720944D02*
X37962901Y-58187611D01*
X37962901Y-58263801D02*
X38000997Y-58225706D01*
X38077187Y-58187611D01*
X38191473Y-58187611D01*
X38267663Y-58225706D01*
X38305759Y-58301897D01*
X38305759Y-58720944D01*
X38305759Y-58301897D02*
X38343854Y-58225706D01*
X38420044Y-58187611D01*
X38534330Y-58187611D01*
X38610520Y-58225706D01*
X38648616Y-58301897D01*
X38648616Y-58720944D01*
X38953378Y-57920944D02*
X39448616Y-57920944D01*
X39181949Y-58225706D01*
X39296235Y-58225706D01*
X39372425Y-58263801D01*
X39410520Y-58301897D01*
X39448616Y-58378087D01*
X39448616Y-58568563D01*
X39410520Y-58644754D01*
X39372425Y-58682849D01*
X39296235Y-58720944D01*
X39067663Y-58720944D01*
X38991473Y-58682849D01*
X38953378Y-58644754D01*
X39753378Y-57997135D02*
X39791473Y-57959040D01*
X39867663Y-57920944D01*
X40058140Y-57920944D01*
X40134330Y-57959040D01*
X40172425Y-57997135D01*
X40210520Y-58073325D01*
X40210520Y-58149516D01*
X40172425Y-58263801D01*
X39715282Y-58720944D01*
X40210520Y-58720944D01*
D11*
X38468400Y-44735000D02*
X38468400Y-43275000D01*
X35308400Y-44735000D02*
X35308400Y-42575000D01*
X35308400Y-44735000D02*
X36238400Y-44735000D01*
X38468400Y-44735000D02*
X37538400Y-44735000D01*
D12*
X54279400Y-41443700D02*
X54279400Y-38943700D01*
X52709400Y-38943700D02*
X54279400Y-38943700D01*
X49779400Y-38943700D02*
X51349400Y-38943700D01*
X49779400Y-38943700D02*
X49779400Y-41443700D01*
X49779400Y-41443700D02*
X50749400Y-41443700D01*
X53309400Y-41443700D02*
X54279400Y-41443700D01*
D13*
G36*
X50279400Y-38943700D02*
G01*
X50779400Y-38943700D01*
X50779400Y-38803700D01*
X50279400Y-38803700D01*
X50279400Y-38943700D01*
G37*
X50279400Y-38943700D02*
X50779400Y-38943700D01*
X50779400Y-38803700D01*
X50279400Y-38803700D01*
X50279400Y-38943700D01*
G36*
X53279400Y-38943700D02*
G01*
X53779400Y-38943700D01*
X53779400Y-38803700D01*
X53279400Y-38803700D01*
X53279400Y-38943700D01*
G37*
X53279400Y-38943700D02*
X53779400Y-38943700D01*
X53779400Y-38803700D01*
X53279400Y-38803700D01*
X53279400Y-38943700D01*
D14*
X41451310Y-62501800D02*
G75*
G03*
X41451310Y-62501800I-359210J0D01*
G01*
X41854100Y-56659800D02*
X41854100Y-62755800D01*
X35250100Y-56151800D02*
X41346100Y-56151800D01*
X34742100Y-62755800D02*
X34742100Y-56659800D01*
X41346100Y-63263800D02*
X35250100Y-63263800D01*
X34742100Y-56659800D02*
G75*
G02*
X35250100Y-56151800I508000J0D01*
G01*
X35250100Y-63263800D02*
G75*
G02*
X34742100Y-62755800I0J508000D01*
G01*
X41346100Y-56151800D02*
G75*
G02*
X41854100Y-56659800I0J-508000D01*
G01*
X41854100Y-62755800D02*
G75*
G02*
X41346100Y-63263800I-508000J0D01*
G01*
D11*
X27547700Y-62369100D02*
X27547700Y-63569100D01*
X29307700Y-63569100D02*
X29307700Y-62369100D01*
X26521300Y-63581800D02*
X26521300Y-62381800D01*
X24761300Y-62381800D02*
X24761300Y-63581800D01*
X30373700Y-33037000D02*
X30373700Y-35157000D01*
X27173700Y-33037000D02*
X30373700Y-33037000D01*
X30373700Y-35157000D02*
X27173700Y-35157000D01*
X56803600Y-56425100D02*
X54143600Y-56425100D01*
X56803600Y-48745100D02*
X56803600Y-56425100D01*
X54143600Y-48745100D02*
X54143600Y-56425100D01*
X56803600Y-48745100D02*
X54143600Y-48745100D01*
X56803600Y-47475100D02*
X56803600Y-46145100D01*
X56803600Y-46145100D02*
X55473600Y-46145100D01*
X45943900Y-76505700D02*
X46943900Y-76505700D01*
X46943900Y-78205700D02*
X45943900Y-78205700D01*
X43077500Y-47447600D02*
X43077500Y-48447600D01*
X41377500Y-48447600D02*
X41377500Y-47447600D01*
X41446100Y-52305800D02*
X41446100Y-51305800D01*
X43146100Y-51305800D02*
X43146100Y-52305800D01*
X29873800Y-48252000D02*
X29873800Y-47252000D01*
X31573800Y-47252000D02*
X31573800Y-48252000D01*
X29828100Y-52658900D02*
X29828100Y-51658900D01*
X31528100Y-51658900D02*
X31528100Y-52658900D01*
X39107500Y-23947500D02*
X39107500Y-24947500D01*
X37407500Y-24947500D02*
X37407500Y-23947500D01*
X41764300Y-23969600D02*
X41764300Y-24969600D01*
X40064300Y-24969600D02*
X40064300Y-23969600D01*
X48471400Y-72538700D02*
X47271400Y-72538700D01*
X47271400Y-74298700D02*
X48471400Y-74298700D01*
X32460000Y-48998600D02*
X32460000Y-50198600D01*
X34220000Y-50198600D02*
X34220000Y-48998600D01*
X29518500Y-22040100D02*
X29518500Y-20840100D01*
X27758500Y-20840100D02*
X27758500Y-22040100D01*
X51398900Y-27039500D02*
X52598900Y-27039500D01*
X52598900Y-25279500D02*
X51398900Y-25279500D01*
X33471300Y-30300000D02*
X35271300Y-30300000D01*
X35271300Y-33520000D02*
X32821300Y-33520000D01*
X46495100Y-35754800D02*
X46495100Y-37874800D01*
X43295100Y-35754800D02*
X46495100Y-35754800D01*
X46495100Y-37874800D02*
X43295100Y-37874800D01*
D14*
X37075078Y-46884819D02*
X37170316Y-46837200D01*
X37265554Y-46741961D01*
X37408411Y-46599104D01*
X37503649Y-46551485D01*
X37598887Y-46551485D01*
X37551268Y-46789580D02*
X37646506Y-46741961D01*
X37741744Y-46646723D01*
X37789363Y-46456247D01*
X37789363Y-46122914D01*
X37741744Y-45932438D01*
X37646506Y-45837200D01*
X37551268Y-45789580D01*
X37360792Y-45789580D01*
X37265554Y-45837200D01*
X37170316Y-45932438D01*
X37122697Y-46122914D01*
X37122697Y-46456247D01*
X37170316Y-46646723D01*
X37265554Y-46741961D01*
X37360792Y-46789580D01*
X37551268Y-46789580D01*
X36170316Y-46789580D02*
X36741744Y-46789580D01*
X36456030Y-46789580D02*
X36456030Y-45789580D01*
X36551268Y-45932438D01*
X36646506Y-46027676D01*
X36741744Y-46075295D01*
D15*
X55186524Y-41984340D02*
X55186524Y-42793864D01*
X55138905Y-42889102D01*
X55091286Y-42936721D01*
X54996048Y-42984340D01*
X54805572Y-42984340D01*
X54710334Y-42936721D01*
X54662715Y-42889102D01*
X54615096Y-42793864D01*
X54615096Y-41984340D01*
X53662715Y-41984340D02*
X54138905Y-41984340D01*
X54186524Y-42460531D01*
X54138905Y-42412912D01*
X54043667Y-42365293D01*
X53805572Y-42365293D01*
X53710334Y-42412912D01*
X53662715Y-42460531D01*
X53615096Y-42555769D01*
X53615096Y-42793864D01*
X53662715Y-42889102D01*
X53710334Y-42936721D01*
X53805572Y-42984340D01*
X54043667Y-42984340D01*
X54138905Y-42936721D01*
X54186524Y-42889102D01*
D14*
X43548184Y-64227480D02*
X43548184Y-65037004D01*
X43500565Y-65132242D01*
X43452946Y-65179861D01*
X43357708Y-65227480D01*
X43167232Y-65227480D01*
X43071994Y-65179861D01*
X43024375Y-65132242D01*
X42976756Y-65037004D01*
X42976756Y-64227480D01*
X42595803Y-64227480D02*
X41976756Y-64227480D01*
X42310089Y-64608433D01*
X42167232Y-64608433D01*
X42071994Y-64656052D01*
X42024375Y-64703671D01*
X41976756Y-64798909D01*
X41976756Y-65037004D01*
X42024375Y-65132242D01*
X42071994Y-65179861D01*
X42167232Y-65227480D01*
X42452946Y-65227480D01*
X42548184Y-65179861D01*
X42595803Y-65132242D01*
X28657866Y-61155800D02*
X28991200Y-60679610D01*
X29229295Y-61155800D02*
X29229295Y-60155800D01*
X28848342Y-60155800D01*
X28753104Y-60203420D01*
X28705485Y-60251039D01*
X28657866Y-60346277D01*
X28657866Y-60489134D01*
X28705485Y-60584372D01*
X28753104Y-60631991D01*
X28848342Y-60679610D01*
X29229295Y-60679610D01*
X28181676Y-61155800D02*
X27991200Y-61155800D01*
X27895961Y-61108181D01*
X27848342Y-61060562D01*
X27753104Y-60917705D01*
X27705485Y-60727229D01*
X27705485Y-60346277D01*
X27753104Y-60251039D01*
X27800723Y-60203420D01*
X27895961Y-60155800D01*
X28086438Y-60155800D01*
X28181676Y-60203420D01*
X28229295Y-60251039D01*
X28276914Y-60346277D01*
X28276914Y-60584372D01*
X28229295Y-60679610D01*
X28181676Y-60727229D01*
X28086438Y-60774848D01*
X27895961Y-60774848D01*
X27800723Y-60727229D01*
X27753104Y-60679610D01*
X27705485Y-60584372D01*
X25810506Y-60896720D02*
X26143840Y-60420530D01*
X26381935Y-60896720D02*
X26381935Y-59896720D01*
X26000982Y-59896720D01*
X25905744Y-59944340D01*
X25858125Y-59991959D01*
X25810506Y-60087197D01*
X25810506Y-60230054D01*
X25858125Y-60325292D01*
X25905744Y-60372911D01*
X26000982Y-60420530D01*
X26381935Y-60420530D01*
X25239078Y-60325292D02*
X25334316Y-60277673D01*
X25381935Y-60230054D01*
X25429554Y-60134816D01*
X25429554Y-60087197D01*
X25381935Y-59991959D01*
X25334316Y-59944340D01*
X25239078Y-59896720D01*
X25048601Y-59896720D01*
X24953363Y-59944340D01*
X24905744Y-59991959D01*
X24858125Y-60087197D01*
X24858125Y-60134816D01*
X24905744Y-60230054D01*
X24953363Y-60277673D01*
X25048601Y-60325292D01*
X25239078Y-60325292D01*
X25334316Y-60372911D01*
X25381935Y-60420530D01*
X25429554Y-60515768D01*
X25429554Y-60706244D01*
X25381935Y-60801482D01*
X25334316Y-60849101D01*
X25239078Y-60896720D01*
X25048601Y-60896720D01*
X24953363Y-60849101D01*
X24905744Y-60801482D01*
X24858125Y-60706244D01*
X24858125Y-60515768D01*
X24905744Y-60420530D01*
X24953363Y-60372911D01*
X25048601Y-60325292D01*
X32218875Y-35156440D02*
X32218875Y-34156440D01*
X31980780Y-34156440D01*
X31837922Y-34204060D01*
X31742684Y-34299298D01*
X31695065Y-34394536D01*
X31647446Y-34585012D01*
X31647446Y-34727869D01*
X31695065Y-34918345D01*
X31742684Y-35013583D01*
X31837922Y-35108821D01*
X31980780Y-35156440D01*
X32218875Y-35156440D01*
X31266494Y-34251679D02*
X31218875Y-34204060D01*
X31123637Y-34156440D01*
X30885541Y-34156440D01*
X30790303Y-34204060D01*
X30742684Y-34251679D01*
X30695065Y-34346917D01*
X30695065Y-34442155D01*
X30742684Y-34585012D01*
X31314113Y-35156440D01*
X30695065Y-35156440D01*
X43521926Y-77946522D02*
X43569545Y-77994141D01*
X43712402Y-78041760D01*
X43807640Y-78041760D01*
X43950498Y-77994141D01*
X44045736Y-77898903D01*
X44093355Y-77803665D01*
X44140974Y-77613189D01*
X44140974Y-77470332D01*
X44093355Y-77279856D01*
X44045736Y-77184618D01*
X43950498Y-77089380D01*
X43807640Y-77041760D01*
X43712402Y-77041760D01*
X43569545Y-77089380D01*
X43521926Y-77136999D01*
X43140974Y-77136999D02*
X43093355Y-77089380D01*
X42998117Y-77041760D01*
X42760021Y-77041760D01*
X42664783Y-77089380D01*
X42617164Y-77136999D01*
X42569545Y-77232237D01*
X42569545Y-77327475D01*
X42617164Y-77470332D01*
X43188593Y-78041760D01*
X42569545Y-78041760D01*
X42498306Y-45914602D02*
X42545925Y-45962221D01*
X42688782Y-46009840D01*
X42784020Y-46009840D01*
X42926878Y-45962221D01*
X43022116Y-45866983D01*
X43069735Y-45771745D01*
X43117354Y-45581269D01*
X43117354Y-45438412D01*
X43069735Y-45247936D01*
X43022116Y-45152698D01*
X42926878Y-45057460D01*
X42784020Y-45009840D01*
X42688782Y-45009840D01*
X42545925Y-45057460D01*
X42498306Y-45105079D01*
X41641163Y-45343174D02*
X41641163Y-46009840D01*
X41879259Y-44962221D02*
X42117354Y-45676507D01*
X41498306Y-45676507D01*
X42498326Y-54578482D02*
X42545945Y-54626101D01*
X42688802Y-54673720D01*
X42784040Y-54673720D01*
X42926898Y-54626101D01*
X43022136Y-54530863D01*
X43069755Y-54435625D01*
X43117374Y-54245149D01*
X43117374Y-54102292D01*
X43069755Y-53911816D01*
X43022136Y-53816578D01*
X42926898Y-53721340D01*
X42784040Y-53673720D01*
X42688802Y-53673720D01*
X42545945Y-53721340D01*
X42498326Y-53768959D01*
X41593564Y-53673720D02*
X42069755Y-53673720D01*
X42117374Y-54149911D01*
X42069755Y-54102292D01*
X41974517Y-54054673D01*
X41736421Y-54054673D01*
X41641183Y-54102292D01*
X41593564Y-54149911D01*
X41545945Y-54245149D01*
X41545945Y-54483244D01*
X41593564Y-54578482D01*
X41641183Y-54626101D01*
X41736421Y-54673720D01*
X41974517Y-54673720D01*
X42069755Y-54626101D01*
X42117374Y-54578482D01*
X30816806Y-45721542D02*
X30864425Y-45769161D01*
X31007282Y-45816780D01*
X31102520Y-45816780D01*
X31245378Y-45769161D01*
X31340616Y-45673923D01*
X31388235Y-45578685D01*
X31435854Y-45388209D01*
X31435854Y-45245352D01*
X31388235Y-45054876D01*
X31340616Y-44959638D01*
X31245378Y-44864400D01*
X31102520Y-44816780D01*
X31007282Y-44816780D01*
X30864425Y-44864400D01*
X30816806Y-44912019D01*
X29959663Y-44816780D02*
X30150140Y-44816780D01*
X30245378Y-44864400D01*
X30292997Y-44912019D01*
X30388235Y-45054876D01*
X30435854Y-45245352D01*
X30435854Y-45626304D01*
X30388235Y-45721542D01*
X30340616Y-45769161D01*
X30245378Y-45816780D01*
X30054901Y-45816780D01*
X29959663Y-45769161D01*
X29912044Y-45721542D01*
X29864425Y-45626304D01*
X29864425Y-45388209D01*
X29912044Y-45292971D01*
X29959663Y-45245352D01*
X30054901Y-45197733D01*
X30245378Y-45197733D01*
X30340616Y-45245352D01*
X30388235Y-45292971D01*
X30435854Y-45388209D01*
X30999706Y-55251622D02*
X31047325Y-55299241D01*
X31190182Y-55346860D01*
X31285420Y-55346860D01*
X31428278Y-55299241D01*
X31523516Y-55204003D01*
X31571135Y-55108765D01*
X31618754Y-54918289D01*
X31618754Y-54775432D01*
X31571135Y-54584956D01*
X31523516Y-54489718D01*
X31428278Y-54394480D01*
X31285420Y-54346860D01*
X31190182Y-54346860D01*
X31047325Y-54394480D01*
X30999706Y-54442099D01*
X30666373Y-54346860D02*
X29999706Y-54346860D01*
X30428278Y-55346860D01*
X38342886Y-22411962D02*
X38390505Y-22459581D01*
X38533362Y-22507200D01*
X38628600Y-22507200D01*
X38771458Y-22459581D01*
X38866696Y-22364343D01*
X38914315Y-22269105D01*
X38961934Y-22078629D01*
X38961934Y-21935772D01*
X38914315Y-21745296D01*
X38866696Y-21650058D01*
X38771458Y-21554820D01*
X38628600Y-21507200D01*
X38533362Y-21507200D01*
X38390505Y-21554820D01*
X38342886Y-21602439D01*
X37390505Y-22507200D02*
X37961934Y-22507200D01*
X37676220Y-22507200D02*
X37676220Y-21507200D01*
X37771458Y-21650058D01*
X37866696Y-21745296D01*
X37961934Y-21792915D01*
X41139386Y-22437362D02*
X41187005Y-22484981D01*
X41329862Y-22532600D01*
X41425100Y-22532600D01*
X41567958Y-22484981D01*
X41663196Y-22389743D01*
X41710815Y-22294505D01*
X41758434Y-22104029D01*
X41758434Y-21961172D01*
X41710815Y-21770696D01*
X41663196Y-21675458D01*
X41567958Y-21580220D01*
X41425100Y-21532600D01*
X41329862Y-21532600D01*
X41187005Y-21580220D01*
X41139386Y-21627839D01*
X40806053Y-21532600D02*
X40187005Y-21532600D01*
X40520339Y-21913553D01*
X40377481Y-21913553D01*
X40282243Y-21961172D01*
X40234624Y-22008791D01*
X40187005Y-22104029D01*
X40187005Y-22342124D01*
X40234624Y-22437362D01*
X40282243Y-22484981D01*
X40377481Y-22532600D01*
X40663196Y-22532600D01*
X40758434Y-22484981D01*
X40806053Y-22437362D01*
X48886426Y-72283580D02*
X49219760Y-71807390D01*
X49457855Y-72283580D02*
X49457855Y-71283580D01*
X49076902Y-71283580D01*
X48981664Y-71331200D01*
X48934045Y-71378819D01*
X48886426Y-71474057D01*
X48886426Y-71616914D01*
X48934045Y-71712152D01*
X48981664Y-71759771D01*
X49076902Y-71807390D01*
X49457855Y-71807390D01*
X48505474Y-71378819D02*
X48457855Y-71331200D01*
X48362617Y-71283580D01*
X48124521Y-71283580D01*
X48029283Y-71331200D01*
X47981664Y-71378819D01*
X47934045Y-71474057D01*
X47934045Y-71569295D01*
X47981664Y-71712152D01*
X48553093Y-72283580D01*
X47934045Y-72283580D01*
X33504126Y-47841180D02*
X33837460Y-47364990D01*
X34075555Y-47841180D02*
X34075555Y-46841180D01*
X33694602Y-46841180D01*
X33599364Y-46888800D01*
X33551745Y-46936419D01*
X33504126Y-47031657D01*
X33504126Y-47174514D01*
X33551745Y-47269752D01*
X33599364Y-47317371D01*
X33694602Y-47364990D01*
X34075555Y-47364990D01*
X33170793Y-46841180D02*
X32551745Y-46841180D01*
X32885079Y-47222133D01*
X32742221Y-47222133D01*
X32646983Y-47269752D01*
X32599364Y-47317371D01*
X32551745Y-47412609D01*
X32551745Y-47650704D01*
X32599364Y-47745942D01*
X32646983Y-47793561D01*
X32742221Y-47841180D01*
X33027936Y-47841180D01*
X33123174Y-47793561D01*
X33170793Y-47745942D01*
X28723886Y-24175940D02*
X29057220Y-23699750D01*
X29295315Y-24175940D02*
X29295315Y-23175940D01*
X28914362Y-23175940D01*
X28819124Y-23223560D01*
X28771505Y-23271179D01*
X28723886Y-23366417D01*
X28723886Y-23509274D01*
X28771505Y-23604512D01*
X28819124Y-23652131D01*
X28914362Y-23699750D01*
X29295315Y-23699750D01*
X27771505Y-24175940D02*
X28342934Y-24175940D01*
X28057220Y-24175940D02*
X28057220Y-23175940D01*
X28152458Y-23318798D01*
X28247696Y-23414036D01*
X28342934Y-23461655D01*
X49513806Y-26949700D02*
X49847140Y-26473510D01*
X50085235Y-26949700D02*
X50085235Y-25949700D01*
X49704282Y-25949700D01*
X49609044Y-25997320D01*
X49561425Y-26044939D01*
X49513806Y-26140177D01*
X49513806Y-26283034D01*
X49561425Y-26378272D01*
X49609044Y-26425891D01*
X49704282Y-26473510D01*
X50085235Y-26473510D01*
X48656663Y-26283034D02*
X48656663Y-26949700D01*
X48894759Y-25902081D02*
X49132854Y-26616367D01*
X48513806Y-26616367D01*
X37586844Y-33564560D02*
X37586844Y-34374084D01*
X37539225Y-34469322D01*
X37491606Y-34516941D01*
X37396368Y-34564560D01*
X37205892Y-34564560D01*
X37110654Y-34516941D01*
X37063035Y-34469322D01*
X37015416Y-34374084D01*
X37015416Y-33564560D01*
X36015416Y-34564560D02*
X36586844Y-34564560D01*
X36301130Y-34564560D02*
X36301130Y-33564560D01*
X36396368Y-33707418D01*
X36491606Y-33802656D01*
X36586844Y-33850275D01*
X45127175Y-39690340D02*
X45127175Y-38690340D01*
X44889080Y-38690340D01*
X44746222Y-38737960D01*
X44650984Y-38833198D01*
X44603365Y-38928436D01*
X44555746Y-39118912D01*
X44555746Y-39261769D01*
X44603365Y-39452245D01*
X44650984Y-39547483D01*
X44746222Y-39642721D01*
X44889080Y-39690340D01*
X45127175Y-39690340D01*
X43650984Y-38690340D02*
X44127175Y-38690340D01*
X44174794Y-39166531D01*
X44127175Y-39118912D01*
X44031937Y-39071293D01*
X43793841Y-39071293D01*
X43698603Y-39118912D01*
X43650984Y-39166531D01*
X43603365Y-39261769D01*
X43603365Y-39499864D01*
X43650984Y-39595102D01*
X43698603Y-39642721D01*
X43793841Y-39690340D01*
X44031937Y-39690340D01*
X44127175Y-39642721D01*
X44174794Y-39595102D01*
M02*
