G04 #@! TF.GenerationSoftware,KiCad,Pcbnew,5.1.6-c6e7f7d~87~ubuntu18.04.1*
G04 #@! TF.CreationDate,2020-11-02T00:43:46+05:30*
G04 #@! TF.ProjectId,Sensor_pcb_v3,53656e73-6f72-45f7-9063-625f76332e6b,rev?*
G04 #@! TF.SameCoordinates,Original*
G04 #@! TF.FileFunction,Soldermask,Bot*
G04 #@! TF.FilePolarity,Negative*
%FSLAX46Y46*%
G04 Gerber Fmt 4.6, Leading zero omitted, Abs format (unit mm)*
G04 Created by KiCad (PCBNEW 5.1.6-c6e7f7d~87~ubuntu18.04.1) date 2020-11-02 00:43:46*
%MOMM*%
%LPD*%
G01*
G04 APERTURE LIST*
%ADD10C,2.150000*%
%ADD11R,0.800000X0.900000*%
%ADD12R,1.000000X1.500000*%
%ADD13C,0.100000*%
%ADD14R,1.700000X1.700000*%
%ADD15O,1.700000X1.700000*%
%ADD16C,1.524000*%
%ADD17R,1.000000X0.230000*%
%ADD18R,0.230000X1.000000*%
%ADD19C,0.900000*%
%ADD20R,1.300000X0.700000*%
%ADD21R,1.000000X1.600000*%
%ADD22R,1.000000X1.250000*%
%ADD23R,1.250000X1.000000*%
%ADD24R,0.700000X1.300000*%
%ADD25R,1.060000X0.650000*%
%ADD26C,1.500000*%
%ADD27C,2.000000*%
G04 APERTURE END LIST*
D10*
X58158000Y-87795100D03*
X25446400Y-87795100D03*
X25440640Y-21361400D03*
X58158000Y-21361400D03*
D11*
X36888400Y-44975000D03*
X37838400Y-42975000D03*
X35938400Y-42975000D03*
D12*
X50529400Y-37943700D03*
X53529400Y-37943700D03*
D13*
G36*
X51558949Y-37184620D02*
G01*
X51565211Y-37186266D01*
X51587513Y-37193700D01*
X52539400Y-37193700D01*
X52549155Y-37194661D01*
X52558534Y-37197506D01*
X52567179Y-37202127D01*
X52574755Y-37208345D01*
X52580973Y-37215921D01*
X52585594Y-37224566D01*
X52588439Y-37233945D01*
X52589400Y-37243700D01*
X52589400Y-39633700D01*
X53039400Y-39633700D01*
X53049155Y-39634661D01*
X53058534Y-39637506D01*
X53067179Y-39642127D01*
X53074755Y-39648345D01*
X53080973Y-39655921D01*
X53085594Y-39664566D01*
X53088439Y-39673945D01*
X53089400Y-39683531D01*
X53099400Y-42633531D01*
X53098472Y-42643288D01*
X53095659Y-42652677D01*
X53091067Y-42661337D01*
X53084875Y-42668935D01*
X53077319Y-42675179D01*
X53068691Y-42679829D01*
X53059321Y-42682706D01*
X53049400Y-42683700D01*
X52539400Y-42683700D01*
X52539400Y-42723700D01*
X51539400Y-42723700D01*
X51539400Y-42683700D01*
X50989400Y-42683700D01*
X50979645Y-42682739D01*
X50970266Y-42679894D01*
X50961621Y-42675273D01*
X50954045Y-42669055D01*
X50947827Y-42661479D01*
X50943206Y-42652834D01*
X50940361Y-42643455D01*
X50939400Y-42633700D01*
X50939400Y-39623700D01*
X50940361Y-39613945D01*
X50943206Y-39604566D01*
X50947827Y-39595921D01*
X50954045Y-39588345D01*
X50961621Y-39582127D01*
X50970266Y-39577506D01*
X50979645Y-39574661D01*
X50989400Y-39573700D01*
X51509190Y-39573700D01*
X51499400Y-37233909D01*
X51500320Y-37224151D01*
X51503126Y-37214759D01*
X51507711Y-37206096D01*
X51513897Y-37198493D01*
X51521448Y-37192243D01*
X51530073Y-37187586D01*
X51539440Y-37184702D01*
X51549191Y-37183700D01*
X51558949Y-37184620D01*
G37*
D14*
X37655500Y-86700400D03*
D15*
X40195500Y-86700400D03*
X42735500Y-86700400D03*
X45275500Y-86700400D03*
X47815500Y-86700400D03*
X50355500Y-86700400D03*
D16*
X28298400Y-41092500D03*
X28288400Y-38552500D03*
D17*
X42362100Y-57421800D03*
D18*
X41092100Y-63771800D03*
X40584100Y-63771800D03*
X40076100Y-63771800D03*
X39568100Y-63771800D03*
X39060100Y-63771800D03*
X38552100Y-63771800D03*
X38044100Y-63771800D03*
X37536100Y-63771800D03*
X37028100Y-63771800D03*
X36520100Y-63771800D03*
X36012100Y-63771800D03*
X35504100Y-63771800D03*
D17*
X34234100Y-62501800D03*
X34234100Y-61993800D03*
X34234100Y-60977800D03*
X34234100Y-60469800D03*
X34234100Y-59961800D03*
X34234100Y-59453800D03*
X34234100Y-58945800D03*
X34234100Y-58437800D03*
X34234100Y-57929800D03*
X34234100Y-57421800D03*
X34234100Y-56913800D03*
D18*
X36012100Y-55643800D03*
X36520100Y-55643800D03*
X37028100Y-55643800D03*
X37536100Y-55643800D03*
X38044100Y-55643800D03*
X38552100Y-55643800D03*
X39060100Y-55643800D03*
X39568100Y-55643800D03*
X40076100Y-55643800D03*
X40584100Y-55643800D03*
X41092100Y-55643800D03*
D17*
X42362100Y-56913800D03*
X42362100Y-57929800D03*
X42362100Y-58437800D03*
X42362100Y-58945800D03*
X42362100Y-59453800D03*
X42362100Y-59961800D03*
X42362100Y-60469800D03*
X42362100Y-60977800D03*
X42362100Y-61485800D03*
X42362100Y-61993800D03*
X42362100Y-62501800D03*
D18*
X35504100Y-55643800D03*
D17*
X34234100Y-61485800D03*
D19*
X45322400Y-21633200D03*
X48322400Y-21633200D03*
D20*
X28427700Y-63919100D03*
X28427700Y-62019100D03*
X25641300Y-62031800D03*
X25641300Y-63931800D03*
D14*
X56235600Y-80518000D03*
D15*
X56235600Y-77978000D03*
X56235600Y-75438000D03*
X56235600Y-72898000D03*
D16*
X28283100Y-29464300D03*
X28273100Y-26924300D03*
D21*
X29673700Y-34097000D03*
X26673700Y-34097000D03*
D14*
X28562300Y-87688420D03*
X55473600Y-47475100D03*
D15*
X55473600Y-50015100D03*
X55473600Y-52555100D03*
X55473600Y-55095100D03*
D22*
X47443900Y-77355700D03*
X45443900Y-77355700D03*
D23*
X42227500Y-48947600D03*
X42227500Y-46947600D03*
X42296100Y-50805800D03*
X42296100Y-52805800D03*
X30723800Y-46752000D03*
X30723800Y-48752000D03*
X30678100Y-51158900D03*
X30678100Y-53158900D03*
X38257500Y-25447500D03*
X38257500Y-23447500D03*
X40914300Y-25469600D03*
X40914300Y-23469600D03*
D24*
X46921400Y-73418700D03*
X48821400Y-73418700D03*
D20*
X33340000Y-50548600D03*
X33340000Y-48648600D03*
X28638500Y-20490100D03*
X28638500Y-22390100D03*
D24*
X52948900Y-26159500D03*
X51048900Y-26159500D03*
G36*
G01*
X55474000Y-22638514D02*
X55474000Y-22638514D01*
G75*
G02*
X54244577Y-22309091I-450000J779423D01*
G01*
X54244577Y-22309091D01*
G75*
G02*
X54574000Y-21079668I779423J450000D01*
G01*
X54574000Y-21079668D01*
G75*
G02*
X55803423Y-21409091I450000J-779423D01*
G01*
X55803423Y-21409091D01*
G75*
G02*
X55474000Y-22638514I-779423J-450000D01*
G01*
G37*
D13*
G36*
X58793423Y-26587923D02*
G01*
X57234577Y-27487923D01*
X56334577Y-25929077D01*
X57893423Y-25029077D01*
X58793423Y-26587923D01*
G37*
D25*
X33271300Y-32860000D03*
X33271300Y-31910000D03*
X33271300Y-30960000D03*
X35471300Y-30960000D03*
X35471300Y-32860000D03*
D16*
X55107500Y-60744100D03*
X55107500Y-63284100D03*
X55107500Y-65824100D03*
X55107500Y-68364100D03*
D26*
X46454100Y-52830100D03*
X46454100Y-47950100D03*
X26746200Y-47896800D03*
X26746200Y-52776800D03*
D27*
X44620000Y-79618800D03*
X44620000Y-75118800D03*
X51120000Y-79618800D03*
X51120000Y-75118800D03*
D21*
X42795100Y-36814800D03*
X45795100Y-36814800D03*
M02*
