G04 #@! TF.GenerationSoftware,KiCad,Pcbnew,5.1.6-c6e7f7d~87~ubuntu18.04.1*
G04 #@! TF.CreationDate,2020-11-02T00:43:46+05:30*
G04 #@! TF.ProjectId,Sensor_pcb_v3,53656e73-6f72-45f7-9063-625f76332e6b,rev?*
G04 #@! TF.SameCoordinates,Original*
G04 #@! TF.FileFunction,Copper,L1,Top*
G04 #@! TF.FilePolarity,Positive*
%FSLAX46Y46*%
G04 Gerber Fmt 4.6, Leading zero omitted, Abs format (unit mm)*
G04 Created by KiCad (PCBNEW 5.1.6-c6e7f7d~87~ubuntu18.04.1) date 2020-11-02 00:43:46*
%MOMM*%
%LPD*%
G01*
G04 APERTURE LIST*
G04 #@! TA.AperFunction,ComponentPad*
%ADD10C,2.150000*%
G04 #@! TD*
G04 #@! TA.AperFunction,ComponentPad*
%ADD11R,1.700000X1.700000*%
G04 #@! TD*
G04 #@! TA.AperFunction,ComponentPad*
%ADD12O,1.700000X1.700000*%
G04 #@! TD*
G04 #@! TA.AperFunction,ComponentPad*
%ADD13C,1.524000*%
G04 #@! TD*
G04 #@! TA.AperFunction,SMDPad,CuDef*
%ADD14R,1.000000X0.800000*%
G04 #@! TD*
G04 #@! TA.AperFunction,SMDPad,CuDef*
%ADD15R,0.700000X1.100000*%
G04 #@! TD*
G04 #@! TA.AperFunction,SMDPad,CuDef*
%ADD16R,0.900000X0.800000*%
G04 #@! TD*
G04 #@! TA.AperFunction,SMDPad,CuDef*
%ADD17R,1.200000X1.700000*%
G04 #@! TD*
G04 #@! TA.AperFunction,ComponentPad*
%ADD18C,0.100000*%
G04 #@! TD*
G04 #@! TA.AperFunction,ComponentPad*
%ADD19C,1.500000*%
G04 #@! TD*
G04 #@! TA.AperFunction,ComponentPad*
%ADD20C,2.000000*%
G04 #@! TD*
G04 #@! TA.AperFunction,SMDPad,CuDef*
%ADD21R,3.110000X1.580000*%
G04 #@! TD*
G04 #@! TA.AperFunction,SMDPad,CuDef*
%ADD22R,1.750000X3.000000*%
G04 #@! TD*
G04 #@! TA.AperFunction,ViaPad*
%ADD23C,1.000000*%
G04 #@! TD*
G04 #@! TA.AperFunction,Conductor*
%ADD24C,0.800000*%
G04 #@! TD*
G04 #@! TA.AperFunction,Conductor*
%ADD25C,0.150000*%
G04 #@! TD*
G04 #@! TA.AperFunction,Conductor*
%ADD26C,0.200000*%
G04 #@! TD*
G04 #@! TA.AperFunction,Conductor*
%ADD27C,0.254000*%
G04 #@! TD*
G04 APERTURE END LIST*
D10*
X58158000Y-87795100D03*
X25446400Y-87795100D03*
X25440640Y-21361400D03*
X58158000Y-21361400D03*
D11*
X37655500Y-86700400D03*
D12*
X40195500Y-86700400D03*
X42735500Y-86700400D03*
X45275500Y-86700400D03*
X47815500Y-86700400D03*
X50355500Y-86700400D03*
D13*
X28298400Y-41092500D03*
X28288400Y-38552500D03*
D14*
X43072400Y-20483200D03*
X43072400Y-22783200D03*
X50572400Y-20483200D03*
X50572400Y-22783200D03*
D15*
X44572400Y-23683200D03*
X46072400Y-23683200D03*
X49072400Y-23683200D03*
D16*
X37465000Y-49358800D03*
X37465000Y-51458800D03*
X36677600Y-37552900D03*
X36677600Y-39652900D03*
D11*
X56235600Y-80518000D03*
D12*
X56235600Y-77978000D03*
X56235600Y-75438000D03*
X56235600Y-72898000D03*
D13*
X28283100Y-29464300D03*
X28273100Y-26924300D03*
D17*
X25204700Y-68526400D03*
X27204700Y-68526400D03*
X29204700Y-68526400D03*
X31204700Y-68526400D03*
X33204700Y-68526400D03*
X35204700Y-68526400D03*
X37204700Y-68526400D03*
X39204700Y-68526400D03*
X39204700Y-83756400D03*
X37204700Y-83756400D03*
X35204700Y-83756400D03*
X33204700Y-83756400D03*
X31204700Y-83756400D03*
X29204700Y-83756400D03*
X27204700Y-83756400D03*
X25204700Y-83756400D03*
D11*
X28562300Y-87688420D03*
X55473600Y-47475100D03*
D12*
X55473600Y-50015100D03*
X55473600Y-52555100D03*
X55473600Y-55095100D03*
D16*
X36215000Y-25193300D03*
X36215000Y-27293300D03*
G04 #@! TA.AperFunction,ComponentPad*
G36*
G01*
X55474000Y-22638514D02*
X55474000Y-22638514D01*
G75*
G02*
X54244577Y-22309091I-450000J779423D01*
G01*
X54244577Y-22309091D01*
G75*
G02*
X54574000Y-21079668I779423J450000D01*
G01*
X54574000Y-21079668D01*
G75*
G02*
X55803423Y-21409091I450000J-779423D01*
G01*
X55803423Y-21409091D01*
G75*
G02*
X55474000Y-22638514I-779423J-450000D01*
G01*
G37*
G04 #@! TD.AperFunction*
G04 #@! TA.AperFunction,ComponentPad*
D18*
G36*
X58793423Y-26587923D02*
G01*
X57234577Y-27487923D01*
X56334577Y-25929077D01*
X57893423Y-25029077D01*
X58793423Y-26587923D01*
G37*
G04 #@! TD.AperFunction*
D13*
X55107500Y-60744100D03*
X55107500Y-63284100D03*
X55107500Y-65824100D03*
X55107500Y-68364100D03*
D19*
X46454100Y-52830100D03*
X46454100Y-47950100D03*
X26746200Y-47896800D03*
X26746200Y-52776800D03*
D20*
X44620000Y-79618800D03*
X44620000Y-75118800D03*
X51120000Y-79618800D03*
X51120000Y-75118800D03*
D21*
X45723200Y-31551900D03*
X40723200Y-31551900D03*
X55982200Y-32402800D03*
X50982200Y-32402800D03*
D22*
X40940400Y-39603700D03*
X47690400Y-39603700D03*
D23*
X38812200Y-59553300D03*
X37921300Y-58746600D03*
X37339600Y-61555000D03*
X38221900Y-62494700D03*
X43664500Y-25696000D03*
X35726500Y-57361100D03*
X43599000Y-57303200D03*
X34105000Y-82203400D03*
X33264700Y-63247900D03*
X33273200Y-64617100D03*
X29394400Y-66975700D03*
X32464400Y-66740200D03*
X29617700Y-24451200D03*
X39715530Y-57284600D03*
X40788100Y-70802400D03*
X36743640Y-46454060D03*
X34409380Y-44665900D03*
X35614000Y-59816700D03*
X31585200Y-55438600D03*
X32841000Y-56705100D03*
X35490032Y-48788320D03*
X48302400Y-36931400D03*
X39337200Y-54421600D03*
X38115518Y-57136500D03*
D24*
X25204700Y-83756400D02*
X25204700Y-85206700D01*
X28092400Y-87594400D02*
X28092400Y-86144100D01*
X28092400Y-86144100D02*
X26142100Y-86144100D01*
X26142100Y-86144100D02*
X25204700Y-85206700D01*
D25*
X28092400Y-87218520D02*
X28562300Y-87688420D01*
X28092400Y-86144100D02*
X28092400Y-87218520D01*
D26*
X51120000Y-75118800D02*
X44620000Y-75118800D01*
X36644580Y-54932580D02*
X36644580Y-58654980D01*
X37542900Y-59553300D02*
X38812200Y-59553300D01*
X36644580Y-58654980D02*
X37542900Y-59553300D01*
X46454100Y-47950100D02*
X43627060Y-47950100D01*
X43627060Y-47950100D02*
X36644580Y-54932580D01*
X37315516Y-55311484D02*
X37315516Y-58140816D01*
X46454100Y-52830100D02*
X39796900Y-52830100D01*
X39796900Y-52830100D02*
X37315516Y-55311484D01*
X37315516Y-58140816D02*
X37921300Y-58746600D01*
X26746200Y-47896800D02*
X30160500Y-51311100D01*
X30160500Y-51311100D02*
X30160500Y-55509500D01*
X30160500Y-55509500D02*
X36206000Y-61555000D01*
X36206000Y-61555000D02*
X37339600Y-61555000D01*
X35405600Y-62494700D02*
X38221900Y-62494700D01*
X26746200Y-52776800D02*
X26746200Y-53835300D01*
X26746200Y-53835300D02*
X35405600Y-62494700D01*
X44572400Y-25696000D02*
X44572400Y-23683200D01*
X45723200Y-30461600D02*
X44572400Y-29310800D01*
X44572400Y-29310800D02*
X44572400Y-25696000D01*
X44572400Y-25696000D02*
X43664500Y-25696000D01*
X45723200Y-31551900D02*
X45723200Y-32642200D01*
X40940400Y-39603700D02*
X42115700Y-39603700D01*
X42115700Y-39603700D02*
X42115700Y-36249700D01*
X42115700Y-36249700D02*
X45723200Y-32642200D01*
X45723200Y-31551900D02*
X45723200Y-30461600D01*
X46072400Y-23683200D02*
X46072400Y-24533500D01*
X30105000Y-84544200D02*
X30542400Y-84981600D01*
X29204700Y-83756400D02*
X30105000Y-83756400D01*
X30542400Y-84981600D02*
X48304000Y-84981600D01*
X30105000Y-83756400D02*
X30105000Y-84544200D01*
X48304000Y-84981600D02*
X49205200Y-85882800D01*
X49205200Y-85999000D02*
X49202340Y-86001860D01*
X49205200Y-85882800D02*
X49205200Y-85999000D01*
X49906600Y-86700400D02*
X50355500Y-86700400D01*
X49205200Y-85999000D02*
X49906600Y-86700400D01*
X47580800Y-26041900D02*
X46072400Y-24533500D01*
X47580800Y-34704900D02*
X47580800Y-26041900D01*
X45048600Y-37237100D02*
X47580800Y-34704900D01*
X45048600Y-45487160D02*
X45048600Y-37237100D01*
X35726500Y-57361100D02*
X35726500Y-54809260D01*
X35726500Y-54809260D02*
X45048600Y-45487160D01*
X35726500Y-58619520D02*
X35726500Y-57361100D01*
X37339080Y-60232100D02*
X35726500Y-58619520D01*
X38221500Y-60232100D02*
X37339080Y-60232100D01*
X55107500Y-60744100D02*
X38733500Y-60744100D01*
X38733500Y-60744100D02*
X38221500Y-60232100D01*
X45303440Y-24295640D02*
X45541300Y-24533500D01*
X44098000Y-22832900D02*
X45250940Y-22832900D01*
X43922100Y-23008800D02*
X44098000Y-22832900D01*
X43922100Y-23156760D02*
X43922100Y-23008800D01*
X43872401Y-23206459D02*
X43922100Y-23156760D01*
X43595659Y-23483201D02*
X43812401Y-23483201D01*
X45250940Y-22832900D02*
X45303440Y-22885400D01*
X45303440Y-22885400D02*
X45303440Y-24295640D01*
X39785560Y-27293300D02*
X40541350Y-26537510D01*
X40584089Y-26537510D02*
X43472408Y-23649190D01*
X43472408Y-23649190D02*
X43472408Y-23606452D01*
X40541350Y-26537510D02*
X40584089Y-26537510D01*
X43812401Y-23483201D02*
X43872401Y-23423201D01*
X36215000Y-27293300D02*
X39785560Y-27293300D01*
X43872401Y-23423201D02*
X43872401Y-23206459D01*
X43472408Y-23606452D02*
X43595659Y-23483201D01*
X45541300Y-24533500D02*
X46072400Y-24533500D01*
X56284660Y-57303200D02*
X43599000Y-57303200D01*
X40195500Y-86700400D02*
X41345800Y-86700400D01*
X41810940Y-89032080D02*
X53230780Y-89032080D01*
X41345800Y-86700400D02*
X41345800Y-88566940D01*
X41345800Y-88566940D02*
X41810940Y-89032080D01*
X53230780Y-89032080D02*
X58907680Y-83355180D01*
X58907680Y-59926220D02*
X56284660Y-57303200D01*
X58907680Y-83355180D02*
X58907680Y-59926220D01*
X34105000Y-83756400D02*
X34105000Y-82203400D01*
X33204700Y-83756400D02*
X34105000Y-83756400D01*
X27204700Y-67376100D02*
X31332900Y-63247900D01*
X31332900Y-63247900D02*
X33264700Y-63247900D01*
X27204700Y-68526400D02*
X27204700Y-67376100D01*
X31204700Y-68526400D02*
X31204700Y-66685600D01*
X31204700Y-66685600D02*
X33273200Y-64617100D01*
X29204700Y-68526400D02*
X29204700Y-67376100D01*
X29204700Y-67376100D02*
X29394400Y-67186400D01*
X29394400Y-67186400D02*
X29394400Y-66975700D01*
X33204700Y-67376100D02*
X32568800Y-66740200D01*
X32568800Y-66740200D02*
X32464400Y-66740200D01*
X33204700Y-68526400D02*
X33204700Y-67376100D01*
X36215000Y-25193300D02*
X36215000Y-24493000D01*
X29617700Y-24451200D02*
X36173200Y-24451200D01*
X36173200Y-24451200D02*
X36215000Y-24493000D01*
X40497230Y-56502900D02*
X39715530Y-57284600D01*
X55765300Y-56502900D02*
X40497230Y-56502900D01*
X56674700Y-53756200D02*
X56674700Y-55593500D01*
X55473600Y-52555100D02*
X56674700Y-53756200D01*
X56674700Y-55593500D02*
X55765300Y-56502900D01*
X32105000Y-83756400D02*
X32105000Y-79485500D01*
X32105000Y-79485500D02*
X40788100Y-70802400D01*
X31204700Y-83756400D02*
X32105000Y-83756400D01*
X50572400Y-22783200D02*
X51372700Y-22783200D01*
X55024000Y-21859100D02*
X53869200Y-22525900D01*
X53869200Y-22525900D02*
X53869100Y-22525800D01*
X53869100Y-22525800D02*
X51630100Y-22525800D01*
X51630100Y-22525800D02*
X51372700Y-22783200D01*
X49497000Y-22432600D02*
X49772100Y-22707700D01*
X49772100Y-22707700D02*
X49772100Y-22783200D01*
X49497000Y-22432600D02*
X50572400Y-21357200D01*
X50572400Y-21357200D02*
X50572400Y-20483200D01*
X39416600Y-31551900D02*
X36677600Y-34290900D01*
X36677600Y-34290900D02*
X36677600Y-37552900D01*
X39416600Y-31551900D02*
X38867900Y-31551900D01*
X40723200Y-31551900D02*
X39416600Y-31551900D01*
X50572400Y-22783200D02*
X49772100Y-22783200D01*
X51120000Y-79618800D02*
X44620000Y-79618800D01*
X54045100Y-77978000D02*
X52760800Y-77978000D01*
X52760800Y-77978000D02*
X51120000Y-79618800D01*
X39204700Y-68526400D02*
X40105000Y-68526400D01*
X44620000Y-79618800D02*
X43124900Y-78123700D01*
X43124900Y-78123700D02*
X43124900Y-71546300D01*
X43124900Y-71546300D02*
X40105000Y-68526400D01*
X27204700Y-83756400D02*
X28105000Y-83756400D01*
X37655500Y-86700400D02*
X30261200Y-86700400D01*
X30261200Y-86700400D02*
X28105000Y-84544200D01*
X28105000Y-84544200D02*
X28105000Y-83756400D01*
X54045100Y-77978000D02*
X56235600Y-77978000D01*
X55107500Y-63284100D02*
X54045100Y-64346500D01*
X54045100Y-64346500D02*
X54045100Y-77978000D01*
X55473600Y-47475100D02*
X55473600Y-46324800D01*
X55982200Y-32402800D02*
X55982200Y-45816200D01*
X55982200Y-45816200D02*
X55473600Y-46324800D01*
X50572400Y-23483500D02*
X55982200Y-28893300D01*
X55982200Y-28893300D02*
X55982200Y-32402800D01*
X50572400Y-22783200D02*
X50572400Y-22832800D01*
X50572400Y-22908100D02*
X50572400Y-22832800D01*
X50572400Y-22908100D02*
X50572400Y-23483500D01*
X39204700Y-68526400D02*
X38304400Y-68526400D01*
X38304400Y-68526400D02*
X38304400Y-69314200D01*
X38304400Y-69314200D02*
X37906000Y-69712600D01*
X37906000Y-69712600D02*
X26503400Y-69712600D01*
X26503400Y-69712600D02*
X26105000Y-69314200D01*
X26105000Y-69314200D02*
X26105000Y-68526400D01*
X25204700Y-68526400D02*
X26105000Y-68526400D01*
X36677600Y-38253200D02*
X36677600Y-38552500D01*
X36677600Y-38552500D02*
X28288400Y-38552500D01*
X35027900Y-26924300D02*
X35027900Y-27711900D01*
X35027900Y-27711900D02*
X38867900Y-31551900D01*
X35027900Y-26924300D02*
X28273100Y-26924300D01*
X36677600Y-37552900D02*
X36677600Y-38253200D01*
X35814700Y-26137500D02*
X35027900Y-26924300D01*
X43072400Y-22783200D02*
X43072400Y-22893940D01*
X39828840Y-26137500D02*
X35814700Y-26137500D01*
X43072400Y-22893940D02*
X39828840Y-26137500D01*
X49215740Y-22151340D02*
X49497000Y-22432600D01*
X48914262Y-22151340D02*
X49215740Y-22151340D01*
X47962399Y-22383201D02*
X48682401Y-22383201D01*
X47730538Y-22151340D02*
X47962399Y-22383201D01*
X43704260Y-22151340D02*
X44730538Y-22151340D01*
X43072400Y-22783200D02*
X43704260Y-22151340D01*
X48682401Y-22383201D02*
X48914262Y-22151340D01*
X45914262Y-22151340D02*
X47730538Y-22151340D01*
X45682401Y-22383201D02*
X45914262Y-22151340D01*
X44730538Y-22151340D02*
X44962399Y-22383201D01*
X44962399Y-22383201D02*
X45682401Y-22383201D01*
X37975540Y-48848260D02*
X37465000Y-49358800D01*
X37975540Y-39146480D02*
X37975540Y-48848260D01*
X36677600Y-38552500D02*
X37381560Y-38552500D01*
X37381560Y-38552500D02*
X37975540Y-39146480D01*
X36532000Y-60734700D02*
X35614000Y-59816700D01*
X56603900Y-72529700D02*
X56603900Y-62984380D01*
X56235600Y-72898000D02*
X56603900Y-72529700D01*
X56603900Y-62984380D02*
X55633620Y-62014100D01*
X38949900Y-62014100D02*
X37670500Y-60734700D01*
X55633620Y-62014100D02*
X38949900Y-62014100D01*
X37670500Y-60734700D02*
X36532000Y-60734700D01*
X36677600Y-39652900D02*
X36677600Y-40353200D01*
X36677600Y-40353200D02*
X31585200Y-45445600D01*
X31585200Y-45445600D02*
X31585200Y-55438600D01*
X37465000Y-52159100D02*
X37387000Y-52159100D01*
X37387000Y-52159100D02*
X32841000Y-56705100D01*
X37465000Y-51458800D02*
X37465000Y-52159100D01*
X34409380Y-44665900D02*
X35490032Y-45746552D01*
X35490032Y-45746552D02*
X35490032Y-48788320D01*
X55473600Y-55095100D02*
X55473600Y-53944800D01*
X50982200Y-32402800D02*
X50982200Y-49691800D01*
X50982200Y-49691800D02*
X55235200Y-53944800D01*
X55235200Y-53944800D02*
X55473600Y-53944800D01*
X47690400Y-39603700D02*
X47690400Y-37803400D01*
X47690400Y-37803400D02*
X48302400Y-37191400D01*
X48302400Y-37191400D02*
X48302400Y-36931400D01*
X55931900Y-58103600D02*
X39350526Y-58103600D01*
X47223680Y-88346280D02*
X52362100Y-88346280D01*
X58252360Y-60424060D02*
X55931900Y-58103600D01*
X38915528Y-54843272D02*
X39337200Y-54421600D01*
X46057820Y-87180420D02*
X47223680Y-88346280D01*
X46057820Y-87132160D02*
X46057820Y-87180420D01*
X52362100Y-88346280D02*
X58252360Y-82456020D01*
X38915528Y-57668602D02*
X38915528Y-54843272D01*
X58252360Y-82456020D02*
X58252360Y-60424060D01*
X45626060Y-86700400D02*
X46057820Y-87132160D01*
X45275500Y-86700400D02*
X45626060Y-86700400D01*
X39350526Y-58103600D02*
X38915528Y-57668602D01*
X47815500Y-86700400D02*
X49009700Y-87894600D01*
X49009700Y-87894600D02*
X51686020Y-87894600D01*
X39345032Y-58951200D02*
X38115518Y-57721686D01*
X54839200Y-58951200D02*
X39345032Y-58951200D01*
X57386000Y-82194620D02*
X57386000Y-61498000D01*
X51686020Y-87894600D02*
X57386000Y-82194620D01*
X38115518Y-57721686D02*
X38115518Y-57136500D01*
X57386000Y-61498000D02*
X54839200Y-58951200D01*
D27*
G36*
X42156992Y-19602653D02*
G01*
X42121215Y-19632015D01*
X42041863Y-19728706D01*
X41982898Y-19839020D01*
X41946588Y-19958718D01*
X41934328Y-20083200D01*
X41934328Y-20883200D01*
X41946588Y-21007682D01*
X41982898Y-21127380D01*
X42041863Y-21237694D01*
X42121215Y-21334385D01*
X42217906Y-21413737D01*
X42328220Y-21472702D01*
X42447918Y-21509012D01*
X42572400Y-21521272D01*
X43572400Y-21521272D01*
X43696882Y-21509012D01*
X43816580Y-21472702D01*
X43926894Y-21413737D01*
X44023585Y-21334385D01*
X44102937Y-21237694D01*
X44161902Y-21127380D01*
X44198212Y-21007682D01*
X44210472Y-20883200D01*
X44210472Y-20083200D01*
X44198212Y-19958718D01*
X44161902Y-19839020D01*
X44102937Y-19728706D01*
X44023585Y-19632015D01*
X43988578Y-19603285D01*
X49653840Y-19605240D01*
X49621215Y-19632015D01*
X49541863Y-19728706D01*
X49482898Y-19839020D01*
X49446588Y-19958718D01*
X49434328Y-20083200D01*
X49437400Y-20197450D01*
X49596150Y-20356200D01*
X50445400Y-20356200D01*
X50445400Y-20336200D01*
X50699400Y-20336200D01*
X50699400Y-20356200D01*
X51548650Y-20356200D01*
X51707400Y-20197450D01*
X51710472Y-20083200D01*
X51698212Y-19958718D01*
X51661902Y-19839020D01*
X51602937Y-19728706D01*
X51523585Y-19632015D01*
X51491733Y-19605875D01*
X59842019Y-19608756D01*
X59837724Y-21040772D01*
X59802286Y-20862611D01*
X59673382Y-20551411D01*
X59486244Y-20271339D01*
X59248061Y-20033156D01*
X58967989Y-19846018D01*
X58656789Y-19717114D01*
X58326420Y-19651400D01*
X57989580Y-19651400D01*
X57659211Y-19717114D01*
X57348011Y-19846018D01*
X57067939Y-20033156D01*
X56829756Y-20271339D01*
X56642618Y-20551411D01*
X56513714Y-20862611D01*
X56448000Y-21192980D01*
X56448000Y-21396945D01*
X56274814Y-21283580D01*
X55197485Y-21905576D01*
X55819174Y-22982373D01*
X56085392Y-22967996D01*
X56199953Y-22845687D01*
X56369833Y-22597314D01*
X56487993Y-22320570D01*
X56549893Y-22026091D01*
X56550723Y-21949535D01*
X56642618Y-22171389D01*
X56829756Y-22451461D01*
X57067939Y-22689644D01*
X57348011Y-22876782D01*
X57659211Y-23005686D01*
X57989580Y-23071400D01*
X58326420Y-23071400D01*
X58656789Y-23005686D01*
X58967989Y-22876782D01*
X59248061Y-22689644D01*
X59486244Y-22451461D01*
X59673382Y-22171389D01*
X59802286Y-21860189D01*
X59835771Y-21691845D01*
X59640093Y-86935290D01*
X59486244Y-86705039D01*
X59248061Y-86466856D01*
X58967989Y-86279718D01*
X58656789Y-86150814D01*
X58326420Y-86085100D01*
X57989580Y-86085100D01*
X57659211Y-86150814D01*
X57348011Y-86279718D01*
X57067939Y-86466856D01*
X56829756Y-86705039D01*
X56642618Y-86985111D01*
X56513714Y-87296311D01*
X56448000Y-87626680D01*
X56448000Y-87963520D01*
X56513714Y-88293889D01*
X56642618Y-88605089D01*
X56829756Y-88885161D01*
X57067939Y-89123344D01*
X57348011Y-89310482D01*
X57659211Y-89439386D01*
X57989580Y-89505100D01*
X58326420Y-89505100D01*
X58656789Y-89439386D01*
X58967989Y-89310482D01*
X59248061Y-89123344D01*
X59486244Y-88885161D01*
X59634912Y-88662663D01*
X59631962Y-89646337D01*
X53665168Y-89626414D01*
X53753018Y-89554318D01*
X53776039Y-89526267D01*
X59401878Y-83900429D01*
X59429917Y-83877418D01*
X59452930Y-83849377D01*
X59452933Y-83849374D01*
X59499605Y-83792504D01*
X59521767Y-83765500D01*
X59590017Y-83637813D01*
X59632045Y-83499265D01*
X59642680Y-83391285D01*
X59642680Y-83391284D01*
X59646236Y-83355180D01*
X59642680Y-83319075D01*
X59642680Y-59962314D01*
X59646235Y-59926219D01*
X59642680Y-59890124D01*
X59642680Y-59890115D01*
X59632045Y-59782135D01*
X59590017Y-59643587D01*
X59521767Y-59515900D01*
X59429918Y-59403982D01*
X59401873Y-59380966D01*
X56829919Y-56809012D01*
X56806898Y-56780962D01*
X56694980Y-56689113D01*
X56645162Y-56662485D01*
X57168893Y-56138754D01*
X57196938Y-56115738D01*
X57288787Y-56003820D01*
X57357037Y-55876133D01*
X57399065Y-55737585D01*
X57409700Y-55629605D01*
X57413256Y-55593500D01*
X57409700Y-55557395D01*
X57409700Y-53792305D01*
X57413256Y-53756200D01*
X57399065Y-53612115D01*
X57381577Y-53554465D01*
X57357037Y-53473567D01*
X57288787Y-53345880D01*
X57242965Y-53290047D01*
X57219953Y-53262006D01*
X57219950Y-53262003D01*
X57196937Y-53233962D01*
X57168897Y-53210950D01*
X56908944Y-52950997D01*
X56958600Y-52701360D01*
X56958600Y-52408840D01*
X56901532Y-52121942D01*
X56789590Y-51851689D01*
X56627075Y-51608468D01*
X56420232Y-51401625D01*
X56245840Y-51285100D01*
X56420232Y-51168575D01*
X56627075Y-50961732D01*
X56789590Y-50718511D01*
X56901532Y-50448258D01*
X56958600Y-50161360D01*
X56958600Y-49868840D01*
X56901532Y-49581942D01*
X56789590Y-49311689D01*
X56627075Y-49068468D01*
X56495220Y-48936613D01*
X56567780Y-48914602D01*
X56678094Y-48855637D01*
X56774785Y-48776285D01*
X56854137Y-48679594D01*
X56913102Y-48569280D01*
X56949412Y-48449582D01*
X56961672Y-48325100D01*
X56958600Y-47760850D01*
X56799850Y-47602100D01*
X55600600Y-47602100D01*
X55600600Y-47622100D01*
X55346600Y-47622100D01*
X55346600Y-47602100D01*
X54147350Y-47602100D01*
X53988600Y-47760850D01*
X53985528Y-48325100D01*
X53997788Y-48449582D01*
X54034098Y-48569280D01*
X54093063Y-48679594D01*
X54172415Y-48776285D01*
X54269106Y-48855637D01*
X54379420Y-48914602D01*
X54451980Y-48936613D01*
X54320125Y-49068468D01*
X54157610Y-49311689D01*
X54045668Y-49581942D01*
X53988600Y-49868840D01*
X53988600Y-50161360D01*
X54045668Y-50448258D01*
X54157610Y-50718511D01*
X54320125Y-50961732D01*
X54526968Y-51168575D01*
X54701360Y-51285100D01*
X54526968Y-51401625D01*
X54320125Y-51608468D01*
X54167193Y-51837347D01*
X51717200Y-49387354D01*
X51717200Y-46625100D01*
X53985528Y-46625100D01*
X53988600Y-47189350D01*
X54147350Y-47348100D01*
X55346600Y-47348100D01*
X55346600Y-46148850D01*
X55600600Y-46148850D01*
X55600600Y-47348100D01*
X56799850Y-47348100D01*
X56958600Y-47189350D01*
X56961672Y-46625100D01*
X56949412Y-46500618D01*
X56913102Y-46380920D01*
X56854137Y-46270606D01*
X56774785Y-46173915D01*
X56678094Y-46094563D01*
X56567780Y-46035598D01*
X56448082Y-45999288D01*
X56323600Y-45987028D01*
X55759350Y-45990100D01*
X55600600Y-46148850D01*
X55346600Y-46148850D01*
X55187850Y-45990100D01*
X54623600Y-45987028D01*
X54499118Y-45999288D01*
X54379420Y-46035598D01*
X54269106Y-46094563D01*
X54172415Y-46173915D01*
X54093063Y-46270606D01*
X54034098Y-46380920D01*
X53997788Y-46500618D01*
X53985528Y-46625100D01*
X51717200Y-46625100D01*
X51717200Y-33830872D01*
X52537200Y-33830872D01*
X52661682Y-33818612D01*
X52781380Y-33782302D01*
X52891694Y-33723337D01*
X52988385Y-33643985D01*
X53067737Y-33547294D01*
X53126702Y-33436980D01*
X53163012Y-33317282D01*
X53175272Y-33192800D01*
X53789128Y-33192800D01*
X53801388Y-33317282D01*
X53837698Y-33436980D01*
X53896663Y-33547294D01*
X53976015Y-33643985D01*
X54072706Y-33723337D01*
X54183020Y-33782302D01*
X54302718Y-33818612D01*
X54427200Y-33830872D01*
X55696450Y-33827800D01*
X55855200Y-33669050D01*
X55855200Y-32529800D01*
X56109200Y-32529800D01*
X56109200Y-33669050D01*
X56267950Y-33827800D01*
X57537200Y-33830872D01*
X57661682Y-33818612D01*
X57781380Y-33782302D01*
X57891694Y-33723337D01*
X57988385Y-33643985D01*
X58067737Y-33547294D01*
X58126702Y-33436980D01*
X58163012Y-33317282D01*
X58175272Y-33192800D01*
X58172200Y-32688550D01*
X58013450Y-32529800D01*
X56109200Y-32529800D01*
X55855200Y-32529800D01*
X53950950Y-32529800D01*
X53792200Y-32688550D01*
X53789128Y-33192800D01*
X53175272Y-33192800D01*
X53175272Y-31612800D01*
X53789128Y-31612800D01*
X53792200Y-32117050D01*
X53950950Y-32275800D01*
X55855200Y-32275800D01*
X55855200Y-31136550D01*
X56109200Y-31136550D01*
X56109200Y-32275800D01*
X58013450Y-32275800D01*
X58172200Y-32117050D01*
X58175272Y-31612800D01*
X58163012Y-31488318D01*
X58126702Y-31368620D01*
X58067737Y-31258306D01*
X57988385Y-31161615D01*
X57891694Y-31082263D01*
X57781380Y-31023298D01*
X57661682Y-30986988D01*
X57537200Y-30974728D01*
X56267950Y-30977800D01*
X56109200Y-31136550D01*
X55855200Y-31136550D01*
X55696450Y-30977800D01*
X54427200Y-30974728D01*
X54302718Y-30986988D01*
X54183020Y-31023298D01*
X54072706Y-31082263D01*
X53976015Y-31161615D01*
X53896663Y-31258306D01*
X53837698Y-31368620D01*
X53801388Y-31488318D01*
X53789128Y-31612800D01*
X53175272Y-31612800D01*
X53163012Y-31488318D01*
X53126702Y-31368620D01*
X53067737Y-31258306D01*
X52988385Y-31161615D01*
X52891694Y-31082263D01*
X52781380Y-31023298D01*
X52661682Y-30986988D01*
X52537200Y-30974728D01*
X49427200Y-30974728D01*
X49302718Y-30986988D01*
X49183020Y-31023298D01*
X49072706Y-31082263D01*
X48976015Y-31161615D01*
X48896663Y-31258306D01*
X48837698Y-31368620D01*
X48801388Y-31488318D01*
X48789128Y-31612800D01*
X48789128Y-33192800D01*
X48801388Y-33317282D01*
X48837698Y-33436980D01*
X48896663Y-33547294D01*
X48976015Y-33643985D01*
X49072706Y-33723337D01*
X49183020Y-33782302D01*
X49302718Y-33818612D01*
X49427200Y-33830872D01*
X50247200Y-33830872D01*
X50247201Y-49655685D01*
X50243644Y-49691800D01*
X50257835Y-49835885D01*
X50284359Y-49923320D01*
X50299864Y-49974433D01*
X50368114Y-50102120D01*
X50459963Y-50214038D01*
X50488008Y-50237054D01*
X54359773Y-54108820D01*
X54320125Y-54148468D01*
X54157610Y-54391689D01*
X54045668Y-54661942D01*
X53988600Y-54948840D01*
X53988600Y-55241360D01*
X54045668Y-55528258D01*
X54144931Y-55767900D01*
X40533335Y-55767900D01*
X40497230Y-55764344D01*
X40353145Y-55778535D01*
X40214596Y-55820563D01*
X40110631Y-55876134D01*
X40086910Y-55888813D01*
X39974992Y-55980662D01*
X39951976Y-56008707D01*
X39811083Y-56149600D01*
X39650528Y-56149600D01*
X39650528Y-55516511D01*
X39668267Y-55512983D01*
X39874824Y-55427424D01*
X40060720Y-55303212D01*
X40218812Y-55145120D01*
X40343024Y-54959224D01*
X40428583Y-54752667D01*
X40472200Y-54533388D01*
X40472200Y-54309812D01*
X40428583Y-54090533D01*
X40343024Y-53883976D01*
X40218812Y-53698080D01*
X40093589Y-53572857D01*
X40101347Y-53565100D01*
X45279487Y-53565100D01*
X45378301Y-53712986D01*
X45571214Y-53905899D01*
X45798057Y-54057471D01*
X46050111Y-54161875D01*
X46317689Y-54215100D01*
X46590511Y-54215100D01*
X46858089Y-54161875D01*
X47110143Y-54057471D01*
X47336986Y-53905899D01*
X47529899Y-53712986D01*
X47681471Y-53486143D01*
X47785875Y-53234089D01*
X47839100Y-52966511D01*
X47839100Y-52693689D01*
X47785875Y-52426111D01*
X47681471Y-52174057D01*
X47529899Y-51947214D01*
X47336986Y-51754301D01*
X47110143Y-51602729D01*
X46858089Y-51498325D01*
X46590511Y-51445100D01*
X46317689Y-51445100D01*
X46050111Y-51498325D01*
X45798057Y-51602729D01*
X45571214Y-51754301D01*
X45378301Y-51947214D01*
X45279487Y-52095100D01*
X40521506Y-52095100D01*
X43931507Y-48685100D01*
X45279487Y-48685100D01*
X45378301Y-48832986D01*
X45571214Y-49025899D01*
X45798057Y-49177471D01*
X46050111Y-49281875D01*
X46317689Y-49335100D01*
X46590511Y-49335100D01*
X46858089Y-49281875D01*
X47110143Y-49177471D01*
X47336986Y-49025899D01*
X47529899Y-48832986D01*
X47681471Y-48606143D01*
X47785875Y-48354089D01*
X47839100Y-48086511D01*
X47839100Y-47813689D01*
X47785875Y-47546111D01*
X47681471Y-47294057D01*
X47529899Y-47067214D01*
X47336986Y-46874301D01*
X47110143Y-46722729D01*
X46858089Y-46618325D01*
X46590511Y-46565100D01*
X46317689Y-46565100D01*
X46050111Y-46618325D01*
X45798057Y-46722729D01*
X45571214Y-46874301D01*
X45378301Y-47067214D01*
X45279487Y-47215100D01*
X44360107Y-47215100D01*
X45542798Y-46032409D01*
X45570837Y-46009398D01*
X45593850Y-45981357D01*
X45593853Y-45981354D01*
X45662686Y-45897481D01*
X45662687Y-45897480D01*
X45730937Y-45769793D01*
X45772965Y-45631245D01*
X45783600Y-45523265D01*
X45783600Y-45523256D01*
X45787155Y-45487161D01*
X45783600Y-45451066D01*
X45783600Y-38103700D01*
X46177328Y-38103700D01*
X46177328Y-41103700D01*
X46189588Y-41228182D01*
X46225898Y-41347880D01*
X46284863Y-41458194D01*
X46364215Y-41554885D01*
X46460906Y-41634237D01*
X46571220Y-41693202D01*
X46690918Y-41729512D01*
X46815400Y-41741772D01*
X48565400Y-41741772D01*
X48689882Y-41729512D01*
X48809580Y-41693202D01*
X48919894Y-41634237D01*
X49016585Y-41554885D01*
X49095937Y-41458194D01*
X49154902Y-41347880D01*
X49191212Y-41228182D01*
X49203472Y-41103700D01*
X49203472Y-38103700D01*
X49191212Y-37979218D01*
X49154902Y-37859520D01*
X49095937Y-37749206D01*
X49093137Y-37745795D01*
X49184012Y-37654920D01*
X49308224Y-37469024D01*
X49393783Y-37262467D01*
X49437400Y-37043188D01*
X49437400Y-36819612D01*
X49393783Y-36600333D01*
X49308224Y-36393776D01*
X49184012Y-36207880D01*
X49025920Y-36049788D01*
X48840024Y-35925576D01*
X48633467Y-35840017D01*
X48414188Y-35796400D01*
X48190612Y-35796400D01*
X47971333Y-35840017D01*
X47764776Y-35925576D01*
X47578880Y-36049788D01*
X47420788Y-36207880D01*
X47296576Y-36393776D01*
X47211017Y-36600333D01*
X47167400Y-36819612D01*
X47167400Y-37043188D01*
X47207843Y-37246511D01*
X47196208Y-37258146D01*
X47168163Y-37281162D01*
X47076314Y-37393080D01*
X47037536Y-37465628D01*
X46815400Y-37465628D01*
X46690918Y-37477888D01*
X46571220Y-37514198D01*
X46460906Y-37573163D01*
X46364215Y-37652515D01*
X46284863Y-37749206D01*
X46225898Y-37859520D01*
X46189588Y-37979218D01*
X46177328Y-38103700D01*
X45783600Y-38103700D01*
X45783600Y-37541546D01*
X48074997Y-35250150D01*
X48103037Y-35227138D01*
X48126050Y-35199097D01*
X48126053Y-35199094D01*
X48194887Y-35115220D01*
X48263137Y-34987534D01*
X48305165Y-34848985D01*
X48319356Y-34704900D01*
X48315800Y-34668795D01*
X48315800Y-26078005D01*
X48319356Y-26041900D01*
X48305165Y-25897815D01*
X48301989Y-25887345D01*
X55697871Y-25887345D01*
X55701964Y-26012362D01*
X55730367Y-26134178D01*
X55781990Y-26248113D01*
X56681990Y-27806959D01*
X56754849Y-27908633D01*
X56846143Y-27994140D01*
X56952365Y-28060192D01*
X57069432Y-28104253D01*
X57192845Y-28124629D01*
X57317862Y-28120536D01*
X57439678Y-28092133D01*
X57553613Y-28040510D01*
X59112459Y-27140510D01*
X59214133Y-27067651D01*
X59299640Y-26976357D01*
X59365692Y-26870135D01*
X59409753Y-26753068D01*
X59430129Y-26629655D01*
X59426036Y-26504638D01*
X59397633Y-26382822D01*
X59346010Y-26268887D01*
X58446010Y-24710041D01*
X58373151Y-24608367D01*
X58281857Y-24522860D01*
X58175635Y-24456808D01*
X58058568Y-24412747D01*
X57935155Y-24392371D01*
X57810138Y-24396464D01*
X57688322Y-24424867D01*
X57574387Y-24476490D01*
X56015541Y-25376490D01*
X55913867Y-25449349D01*
X55828360Y-25540643D01*
X55762308Y-25646865D01*
X55718247Y-25763932D01*
X55697871Y-25887345D01*
X48301989Y-25887345D01*
X48263137Y-25759266D01*
X48194887Y-25631580D01*
X48126053Y-25547706D01*
X48103038Y-25519662D01*
X48074993Y-25496646D01*
X47022102Y-24443756D01*
X47048212Y-24357682D01*
X47060472Y-24233200D01*
X47060472Y-23133200D01*
X47048212Y-23008718D01*
X47011902Y-22889020D01*
X46952937Y-22778706D01*
X46873585Y-22682015D01*
X46776894Y-22602663D01*
X46666580Y-22543698D01*
X46546882Y-22507388D01*
X46422400Y-22495128D01*
X45985383Y-22495128D01*
X46014047Y-22475975D01*
X46165175Y-22324847D01*
X46283915Y-22147140D01*
X46365704Y-21949683D01*
X46407400Y-21740063D01*
X46407400Y-21526337D01*
X47237400Y-21526337D01*
X47237400Y-21740063D01*
X47279096Y-21949683D01*
X47360885Y-22147140D01*
X47479625Y-22324847D01*
X47630753Y-22475975D01*
X47808460Y-22594715D01*
X48005917Y-22676504D01*
X48215537Y-22718200D01*
X48241519Y-22718200D01*
X48191863Y-22778706D01*
X48132898Y-22889020D01*
X48096588Y-23008718D01*
X48084328Y-23133200D01*
X48084328Y-24233200D01*
X48096588Y-24357682D01*
X48132898Y-24477380D01*
X48191863Y-24587694D01*
X48271215Y-24684385D01*
X48367906Y-24763737D01*
X48478220Y-24822702D01*
X48597918Y-24859012D01*
X48722400Y-24871272D01*
X49422400Y-24871272D01*
X49546882Y-24859012D01*
X49666580Y-24822702D01*
X49776894Y-24763737D01*
X49873585Y-24684385D01*
X49952937Y-24587694D01*
X50011902Y-24477380D01*
X50048212Y-24357682D01*
X50060472Y-24233200D01*
X50060472Y-23820097D01*
X50072400Y-23821272D01*
X50286650Y-23818200D01*
X50445400Y-23659450D01*
X50445400Y-22910200D01*
X50699400Y-22910200D01*
X50699400Y-23659450D01*
X50858150Y-23818200D01*
X51072400Y-23821272D01*
X51196882Y-23809012D01*
X51316580Y-23772702D01*
X51426894Y-23713737D01*
X51523585Y-23634385D01*
X51602937Y-23537694D01*
X51661902Y-23427380D01*
X51698212Y-23307682D01*
X51710472Y-23183200D01*
X51707400Y-23068950D01*
X51548650Y-22910200D01*
X50699400Y-22910200D01*
X50445400Y-22910200D01*
X50425400Y-22910200D01*
X50425400Y-22656200D01*
X50445400Y-22656200D01*
X50445400Y-21906950D01*
X50699400Y-21906950D01*
X50699400Y-22656200D01*
X51548650Y-22656200D01*
X51550278Y-22654572D01*
X53900186Y-22654572D01*
X53915091Y-22920486D01*
X54143466Y-23116429D01*
X54405680Y-23264053D01*
X54691656Y-23357686D01*
X54990403Y-23393728D01*
X55290441Y-23370794D01*
X55453644Y-23332736D01*
X55599204Y-23109373D01*
X54977515Y-22032576D01*
X53900186Y-22654572D01*
X51550278Y-22654572D01*
X51707400Y-22497450D01*
X51710472Y-22383200D01*
X51698212Y-22258718D01*
X51661902Y-22139020D01*
X51602937Y-22028706D01*
X51573624Y-21992987D01*
X53494846Y-21992987D01*
X53550350Y-22288737D01*
X53773186Y-22434602D01*
X54850515Y-21812606D01*
X54228826Y-20735809D01*
X53962608Y-20750186D01*
X53848047Y-20872495D01*
X53678167Y-21120868D01*
X53560007Y-21397612D01*
X53498107Y-21692091D01*
X53494846Y-21992987D01*
X51573624Y-21992987D01*
X51523585Y-21932015D01*
X51426894Y-21852663D01*
X51316580Y-21793698D01*
X51196882Y-21757388D01*
X51072400Y-21745128D01*
X50858150Y-21748200D01*
X50699400Y-21906950D01*
X50445400Y-21906950D01*
X50286650Y-21748200D01*
X50072400Y-21745128D01*
X49947918Y-21757388D01*
X49828220Y-21793698D01*
X49717906Y-21852663D01*
X49621215Y-21932015D01*
X49541863Y-22028706D01*
X49482898Y-22139020D01*
X49446588Y-22258718D01*
X49434328Y-22383200D01*
X49437377Y-22496603D01*
X49422400Y-22495128D01*
X48985383Y-22495128D01*
X49014047Y-22475975D01*
X49165175Y-22324847D01*
X49283915Y-22147140D01*
X49365704Y-21949683D01*
X49407400Y-21740063D01*
X49407400Y-21526337D01*
X49365704Y-21316717D01*
X49283915Y-21119260D01*
X49165175Y-20941553D01*
X49106822Y-20883200D01*
X49434328Y-20883200D01*
X49446588Y-21007682D01*
X49482898Y-21127380D01*
X49541863Y-21237694D01*
X49621215Y-21334385D01*
X49717906Y-21413737D01*
X49828220Y-21472702D01*
X49947918Y-21509012D01*
X50072400Y-21521272D01*
X50286650Y-21518200D01*
X50445400Y-21359450D01*
X50445400Y-20610200D01*
X50699400Y-20610200D01*
X50699400Y-21359450D01*
X50858150Y-21518200D01*
X51072400Y-21521272D01*
X51196882Y-21509012D01*
X51316580Y-21472702D01*
X51426894Y-21413737D01*
X51523585Y-21334385D01*
X51602937Y-21237694D01*
X51661902Y-21127380D01*
X51698212Y-21007682D01*
X51710472Y-20883200D01*
X51707400Y-20768950D01*
X51548650Y-20610200D01*
X50699400Y-20610200D01*
X50445400Y-20610200D01*
X49596150Y-20610200D01*
X49437400Y-20768950D01*
X49434328Y-20883200D01*
X49106822Y-20883200D01*
X49014047Y-20790425D01*
X48836340Y-20671685D01*
X48684544Y-20608809D01*
X54448796Y-20608809D01*
X55070485Y-21685606D01*
X56147814Y-21063610D01*
X56132909Y-20797696D01*
X55904534Y-20601753D01*
X55642320Y-20454129D01*
X55356344Y-20360496D01*
X55057597Y-20324454D01*
X54757559Y-20347388D01*
X54594356Y-20385446D01*
X54448796Y-20608809D01*
X48684544Y-20608809D01*
X48638883Y-20589896D01*
X48429263Y-20548200D01*
X48215537Y-20548200D01*
X48005917Y-20589896D01*
X47808460Y-20671685D01*
X47630753Y-20790425D01*
X47479625Y-20941553D01*
X47360885Y-21119260D01*
X47279096Y-21316717D01*
X47237400Y-21526337D01*
X46407400Y-21526337D01*
X46365704Y-21316717D01*
X46283915Y-21119260D01*
X46165175Y-20941553D01*
X46014047Y-20790425D01*
X45836340Y-20671685D01*
X45638883Y-20589896D01*
X45429263Y-20548200D01*
X45215537Y-20548200D01*
X45005917Y-20589896D01*
X44808460Y-20671685D01*
X44630753Y-20790425D01*
X44479625Y-20941553D01*
X44360885Y-21119260D01*
X44279096Y-21316717D01*
X44237400Y-21526337D01*
X44237400Y-21740063D01*
X44279096Y-21949683D01*
X44340489Y-22097900D01*
X44139923Y-22097900D01*
X44102937Y-22028706D01*
X44023585Y-21932015D01*
X43926894Y-21852663D01*
X43816580Y-21793698D01*
X43696882Y-21757388D01*
X43572400Y-21745128D01*
X43358150Y-21748200D01*
X43199400Y-21906950D01*
X43199400Y-22656200D01*
X43219400Y-22656200D01*
X43219400Y-22793295D01*
X43207386Y-22832900D01*
X43198541Y-22862057D01*
X43185339Y-22869114D01*
X43110906Y-22930200D01*
X42945400Y-22930200D01*
X42945400Y-22910200D01*
X42096150Y-22910200D01*
X41937400Y-23068950D01*
X41934328Y-23183200D01*
X41946588Y-23307682D01*
X41982898Y-23427380D01*
X42041863Y-23537694D01*
X42121215Y-23634385D01*
X42217906Y-23713737D01*
X42315988Y-23766164D01*
X40190537Y-25891616D01*
X40131030Y-25923423D01*
X40019112Y-26015272D01*
X39996096Y-26043317D01*
X39481114Y-26558300D01*
X37205957Y-26558300D01*
X37195537Y-26538806D01*
X37116185Y-26442115D01*
X37019494Y-26362763D01*
X36909180Y-26303798D01*
X36789482Y-26267488D01*
X36665000Y-26255228D01*
X35765000Y-26255228D01*
X35640518Y-26267488D01*
X35520820Y-26303798D01*
X35410506Y-26362763D01*
X35313815Y-26442115D01*
X35234463Y-26538806D01*
X35175498Y-26649120D01*
X35139188Y-26768818D01*
X35126928Y-26893300D01*
X35126928Y-27693300D01*
X35139188Y-27817782D01*
X35175498Y-27937480D01*
X35234463Y-28047794D01*
X35313815Y-28144485D01*
X35410506Y-28223837D01*
X35520820Y-28282802D01*
X35640518Y-28319112D01*
X35765000Y-28331372D01*
X36665000Y-28331372D01*
X36789482Y-28319112D01*
X36909180Y-28282802D01*
X37019494Y-28223837D01*
X37116185Y-28144485D01*
X37195537Y-28047794D01*
X37205957Y-28028300D01*
X39749455Y-28028300D01*
X39785560Y-28031856D01*
X39821665Y-28028300D01*
X39929645Y-28017665D01*
X40068193Y-27975637D01*
X40195880Y-27907387D01*
X40307798Y-27815538D01*
X40330818Y-27787488D01*
X40934904Y-27183403D01*
X40994409Y-27151597D01*
X41106327Y-27059748D01*
X41129348Y-27031697D01*
X42529500Y-25631545D01*
X42529500Y-25807788D01*
X42573117Y-26027067D01*
X42658676Y-26233624D01*
X42782888Y-26419520D01*
X42940980Y-26577612D01*
X43126876Y-26701824D01*
X43333433Y-26787383D01*
X43552712Y-26831000D01*
X43776288Y-26831000D01*
X43837401Y-26818844D01*
X43837400Y-29274695D01*
X43833844Y-29310800D01*
X43837400Y-29346904D01*
X43848035Y-29454884D01*
X43890063Y-29593432D01*
X43958313Y-29721119D01*
X44050162Y-29833037D01*
X44078208Y-29856054D01*
X44345982Y-30123828D01*
X44168200Y-30123828D01*
X44043718Y-30136088D01*
X43924020Y-30172398D01*
X43813706Y-30231363D01*
X43717015Y-30310715D01*
X43637663Y-30407406D01*
X43578698Y-30517720D01*
X43542388Y-30637418D01*
X43530128Y-30761900D01*
X43530128Y-32341900D01*
X43542388Y-32466382D01*
X43578698Y-32586080D01*
X43637663Y-32696394D01*
X43717015Y-32793085D01*
X43813706Y-32872437D01*
X43924020Y-32931402D01*
X44043718Y-32967712D01*
X44168200Y-32979972D01*
X44345981Y-32979972D01*
X41621508Y-35704446D01*
X41593463Y-35727462D01*
X41501614Y-35839380D01*
X41433364Y-35967067D01*
X41391335Y-36105615D01*
X41377144Y-36249700D01*
X41380701Y-36285815D01*
X41380701Y-37465628D01*
X40065400Y-37465628D01*
X39940918Y-37477888D01*
X39821220Y-37514198D01*
X39710906Y-37573163D01*
X39614215Y-37652515D01*
X39534863Y-37749206D01*
X39475898Y-37859520D01*
X39439588Y-37979218D01*
X39427328Y-38103700D01*
X39427328Y-41103700D01*
X39439588Y-41228182D01*
X39475898Y-41347880D01*
X39534863Y-41458194D01*
X39614215Y-41554885D01*
X39710906Y-41634237D01*
X39821220Y-41693202D01*
X39940918Y-41729512D01*
X40065400Y-41741772D01*
X41815400Y-41741772D01*
X41939882Y-41729512D01*
X42059580Y-41693202D01*
X42169894Y-41634237D01*
X42266585Y-41554885D01*
X42345937Y-41458194D01*
X42404902Y-41347880D01*
X42441212Y-41228182D01*
X42453472Y-41103700D01*
X42453472Y-40256565D01*
X42526020Y-40217787D01*
X42637938Y-40125938D01*
X42729787Y-40014020D01*
X42798037Y-39886333D01*
X42840065Y-39747785D01*
X42854256Y-39603700D01*
X42850700Y-39567595D01*
X42850700Y-36554146D01*
X46217393Y-33187454D01*
X46245438Y-33164438D01*
X46337287Y-33052520D01*
X46376065Y-32979972D01*
X46845800Y-32979972D01*
X46845800Y-34400453D01*
X44554408Y-36691846D01*
X44526363Y-36714862D01*
X44434514Y-36826780D01*
X44414734Y-36863786D01*
X44366264Y-36954467D01*
X44324235Y-37093015D01*
X44310044Y-37237100D01*
X44313601Y-37273215D01*
X44313600Y-45182713D01*
X38542711Y-50953602D01*
X38540812Y-50934318D01*
X38504502Y-50814620D01*
X38445537Y-50704306D01*
X38366185Y-50607615D01*
X38269494Y-50528263D01*
X38159180Y-50469298D01*
X38039482Y-50432988D01*
X37915000Y-50420728D01*
X37015000Y-50420728D01*
X36890518Y-50432988D01*
X36770820Y-50469298D01*
X36660506Y-50528263D01*
X36563815Y-50607615D01*
X36484463Y-50704306D01*
X36425498Y-50814620D01*
X36389188Y-50934318D01*
X36376928Y-51058800D01*
X36376928Y-51858800D01*
X36389188Y-51983282D01*
X36420418Y-52086235D01*
X32936554Y-55570100D01*
X32729212Y-55570100D01*
X32715746Y-55572778D01*
X32720200Y-55550388D01*
X32720200Y-55326812D01*
X32676583Y-55107533D01*
X32591024Y-54900976D01*
X32466812Y-54715080D01*
X32320200Y-54568468D01*
X32320200Y-45750046D01*
X33277396Y-44792850D01*
X33317997Y-44996967D01*
X33403556Y-45203524D01*
X33527768Y-45389420D01*
X33685860Y-45547512D01*
X33871756Y-45671724D01*
X34078313Y-45757283D01*
X34297592Y-45800900D01*
X34504933Y-45800900D01*
X34755032Y-46050999D01*
X34755033Y-47918187D01*
X34608420Y-48064800D01*
X34484208Y-48250696D01*
X34398649Y-48457253D01*
X34355032Y-48676532D01*
X34355032Y-48900108D01*
X34398649Y-49119387D01*
X34484208Y-49325944D01*
X34608420Y-49511840D01*
X34766512Y-49669932D01*
X34952408Y-49794144D01*
X35158965Y-49879703D01*
X35378244Y-49923320D01*
X35601820Y-49923320D01*
X35821099Y-49879703D01*
X36027656Y-49794144D01*
X36213552Y-49669932D01*
X36371644Y-49511840D01*
X36389042Y-49485802D01*
X36538748Y-49485802D01*
X36380000Y-49644550D01*
X36376928Y-49758800D01*
X36389188Y-49883282D01*
X36425498Y-50002980D01*
X36484463Y-50113294D01*
X36563815Y-50209985D01*
X36660506Y-50289337D01*
X36770820Y-50348302D01*
X36890518Y-50384612D01*
X37015000Y-50396872D01*
X37179250Y-50393800D01*
X37338000Y-50235050D01*
X37338000Y-49485800D01*
X37592000Y-49485800D01*
X37592000Y-50235050D01*
X37750750Y-50393800D01*
X37915000Y-50396872D01*
X38039482Y-50384612D01*
X38159180Y-50348302D01*
X38269494Y-50289337D01*
X38366185Y-50209985D01*
X38445537Y-50113294D01*
X38504502Y-50002980D01*
X38540812Y-49883282D01*
X38553072Y-49758800D01*
X38550000Y-49644550D01*
X38391250Y-49485800D01*
X37592000Y-49485800D01*
X37338000Y-49485800D01*
X37318000Y-49485800D01*
X37318000Y-49231800D01*
X37338000Y-49231800D01*
X37338000Y-48482550D01*
X37592000Y-48482550D01*
X37592000Y-49231800D01*
X38391250Y-49231800D01*
X38550000Y-49073050D01*
X38553072Y-48958800D01*
X38540812Y-48834318D01*
X38504502Y-48714620D01*
X38445537Y-48604306D01*
X38366185Y-48507615D01*
X38269494Y-48428263D01*
X38159180Y-48369298D01*
X38039482Y-48332988D01*
X37915000Y-48320728D01*
X37750750Y-48323800D01*
X37592000Y-48482550D01*
X37338000Y-48482550D01*
X37179250Y-48323800D01*
X37015000Y-48320728D01*
X36890518Y-48332988D01*
X36770820Y-48369298D01*
X36660506Y-48428263D01*
X36587557Y-48488131D01*
X36581415Y-48457253D01*
X36495856Y-48250696D01*
X36371644Y-48064800D01*
X36225032Y-47918188D01*
X36225032Y-47467761D01*
X36412573Y-47545443D01*
X36631852Y-47589060D01*
X36855428Y-47589060D01*
X37074707Y-47545443D01*
X37281264Y-47459884D01*
X37467160Y-47335672D01*
X37625252Y-47177580D01*
X37749464Y-46991684D01*
X37835023Y-46785127D01*
X37878640Y-46565848D01*
X37878640Y-46342272D01*
X37835023Y-46122993D01*
X37749464Y-45916436D01*
X37625252Y-45730540D01*
X37467160Y-45572448D01*
X37281264Y-45448236D01*
X37074707Y-45362677D01*
X36855428Y-45319060D01*
X36631852Y-45319060D01*
X36412573Y-45362677D01*
X36206016Y-45448236D01*
X36174084Y-45469572D01*
X36172369Y-45463918D01*
X36104119Y-45336232D01*
X36035285Y-45252358D01*
X36035282Y-45252355D01*
X36012269Y-45224314D01*
X35984229Y-45201302D01*
X35544380Y-44761453D01*
X35544380Y-44554112D01*
X35500763Y-44334833D01*
X35415204Y-44128276D01*
X35290992Y-43942380D01*
X35132900Y-43784288D01*
X34947004Y-43660076D01*
X34740447Y-43574517D01*
X34536330Y-43533916D01*
X37171793Y-40898454D01*
X37199838Y-40875438D01*
X37291687Y-40763520D01*
X37353454Y-40647961D01*
X37371780Y-40642402D01*
X37482094Y-40583437D01*
X37578785Y-40504085D01*
X37658137Y-40407394D01*
X37717102Y-40297080D01*
X37753412Y-40177382D01*
X37765672Y-40052900D01*
X37765672Y-39252900D01*
X37753412Y-39128418D01*
X37717102Y-39008720D01*
X37658137Y-38898406D01*
X37578785Y-38801715D01*
X37482094Y-38722363D01*
X37371780Y-38663398D01*
X37252082Y-38627088D01*
X37127600Y-38614828D01*
X36227600Y-38614828D01*
X36103118Y-38627088D01*
X35983420Y-38663398D01*
X35873106Y-38722363D01*
X35776415Y-38801715D01*
X35697063Y-38898406D01*
X35638098Y-39008720D01*
X35601788Y-39128418D01*
X35589528Y-39252900D01*
X35589528Y-40052900D01*
X35601788Y-40177382D01*
X35638098Y-40297080D01*
X35657665Y-40333688D01*
X31091008Y-44900346D01*
X31062962Y-44923363D01*
X30971113Y-45035281D01*
X30902863Y-45162968D01*
X30884254Y-45224314D01*
X30860835Y-45301515D01*
X30846644Y-45445600D01*
X30850200Y-45481705D01*
X30850201Y-51052741D01*
X30842837Y-51028467D01*
X30774587Y-50900780D01*
X30758014Y-50880587D01*
X30705753Y-50816906D01*
X30705750Y-50816903D01*
X30682737Y-50788862D01*
X30654697Y-50765850D01*
X28096501Y-48207655D01*
X28131200Y-48033211D01*
X28131200Y-47760389D01*
X28077975Y-47492811D01*
X27973571Y-47240757D01*
X27821999Y-47013914D01*
X27629086Y-46821001D01*
X27402243Y-46669429D01*
X27150189Y-46565025D01*
X26882611Y-46511800D01*
X26609789Y-46511800D01*
X26342211Y-46565025D01*
X26090157Y-46669429D01*
X25863314Y-46821001D01*
X25670401Y-47013914D01*
X25518829Y-47240757D01*
X25414425Y-47492811D01*
X25361200Y-47760389D01*
X25361200Y-48033211D01*
X25414425Y-48300789D01*
X25518829Y-48552843D01*
X25670401Y-48779686D01*
X25863314Y-48972599D01*
X26090157Y-49124171D01*
X26342211Y-49228575D01*
X26609789Y-49281800D01*
X26882611Y-49281800D01*
X27057055Y-49247101D01*
X29425500Y-51615547D01*
X29425501Y-55473385D01*
X29425342Y-55474996D01*
X27716016Y-53765669D01*
X27821999Y-53659686D01*
X27973571Y-53432843D01*
X28077975Y-53180789D01*
X28131200Y-52913211D01*
X28131200Y-52640389D01*
X28077975Y-52372811D01*
X27973571Y-52120757D01*
X27821999Y-51893914D01*
X27629086Y-51701001D01*
X27402243Y-51549429D01*
X27150189Y-51445025D01*
X26882611Y-51391800D01*
X26609789Y-51391800D01*
X26342211Y-51445025D01*
X26090157Y-51549429D01*
X25863314Y-51701001D01*
X25670401Y-51893914D01*
X25518829Y-52120757D01*
X25414425Y-52372811D01*
X25361200Y-52640389D01*
X25361200Y-52913211D01*
X25414425Y-53180789D01*
X25518829Y-53432843D01*
X25670401Y-53659686D01*
X25863314Y-53852599D01*
X26019635Y-53957050D01*
X26021835Y-53979385D01*
X26045523Y-54057471D01*
X26063864Y-54117933D01*
X26132114Y-54245620D01*
X26223963Y-54357538D01*
X26252008Y-54380554D01*
X34860346Y-62988893D01*
X34883362Y-63016938D01*
X34995280Y-63108787D01*
X35122967Y-63177037D01*
X35258729Y-63218220D01*
X35261515Y-63219065D01*
X35405600Y-63233256D01*
X35441705Y-63229700D01*
X37351768Y-63229700D01*
X37498380Y-63376312D01*
X37684276Y-63500524D01*
X37890833Y-63586083D01*
X38110112Y-63629700D01*
X38333688Y-63629700D01*
X38552967Y-63586083D01*
X38759524Y-63500524D01*
X38945420Y-63376312D01*
X39103512Y-63218220D01*
X39227724Y-63032324D01*
X39313283Y-62825767D01*
X39328533Y-62749100D01*
X53815331Y-62749100D01*
X53784744Y-62814148D01*
X53718477Y-63081235D01*
X53705590Y-63356117D01*
X53746578Y-63628233D01*
X53839864Y-63887123D01*
X53901844Y-64003080D01*
X54141935Y-64070060D01*
X54927895Y-63284100D01*
X54913753Y-63269958D01*
X55093358Y-63090353D01*
X55107500Y-63104495D01*
X55121643Y-63090353D01*
X55301248Y-63269958D01*
X55287105Y-63284100D01*
X55301248Y-63298243D01*
X55121643Y-63477848D01*
X55107500Y-63463705D01*
X54321540Y-64249665D01*
X54388520Y-64489756D01*
X54524260Y-64553585D01*
X54445773Y-64586095D01*
X54216965Y-64738980D01*
X54022380Y-64933565D01*
X53869495Y-65162373D01*
X53764186Y-65416610D01*
X53710500Y-65686508D01*
X53710500Y-65961692D01*
X53764186Y-66231590D01*
X53869495Y-66485827D01*
X54022380Y-66714635D01*
X54216965Y-66909220D01*
X54445773Y-67062105D01*
X54523015Y-67094100D01*
X54445773Y-67126095D01*
X54216965Y-67278980D01*
X54022380Y-67473565D01*
X53869495Y-67702373D01*
X53764186Y-67956610D01*
X53710500Y-68226508D01*
X53710500Y-68501692D01*
X53764186Y-68771590D01*
X53869495Y-69025827D01*
X54022380Y-69254635D01*
X54216965Y-69449220D01*
X54445773Y-69602105D01*
X54700010Y-69707414D01*
X54969908Y-69761100D01*
X55245092Y-69761100D01*
X55514990Y-69707414D01*
X55769227Y-69602105D01*
X55868900Y-69535505D01*
X55868900Y-71456849D01*
X55802442Y-71470068D01*
X55532189Y-71582010D01*
X55288968Y-71744525D01*
X55082125Y-71951368D01*
X54919610Y-72194589D01*
X54807668Y-72464842D01*
X54750600Y-72751740D01*
X54750600Y-73044260D01*
X54807668Y-73331158D01*
X54919610Y-73601411D01*
X55082125Y-73844632D01*
X55288968Y-74051475D01*
X55463360Y-74168000D01*
X55288968Y-74284525D01*
X55082125Y-74491368D01*
X54919610Y-74734589D01*
X54807668Y-75004842D01*
X54750600Y-75291740D01*
X54750600Y-75584260D01*
X54807668Y-75871158D01*
X54919610Y-76141411D01*
X55082125Y-76384632D01*
X55288968Y-76591475D01*
X55471134Y-76713195D01*
X55354245Y-76782822D01*
X55138012Y-76977731D01*
X54963959Y-77211080D01*
X54838775Y-77473901D01*
X54794124Y-77621110D01*
X54915445Y-77851000D01*
X56108600Y-77851000D01*
X56108600Y-77831000D01*
X56362600Y-77831000D01*
X56362600Y-77851000D01*
X56382600Y-77851000D01*
X56382600Y-78105000D01*
X56362600Y-78105000D01*
X56362600Y-78125000D01*
X56108600Y-78125000D01*
X56108600Y-78105000D01*
X54915445Y-78105000D01*
X54794124Y-78334890D01*
X54838775Y-78482099D01*
X54963959Y-78744920D01*
X55138012Y-78978269D01*
X55222066Y-79054034D01*
X55141420Y-79078498D01*
X55031106Y-79137463D01*
X54934415Y-79216815D01*
X54855063Y-79313506D01*
X54796098Y-79423820D01*
X54759788Y-79543518D01*
X54747528Y-79668000D01*
X54747528Y-81368000D01*
X54759788Y-81492482D01*
X54796098Y-81612180D01*
X54855063Y-81722494D01*
X54934415Y-81819185D01*
X55031106Y-81898537D01*
X55141420Y-81957502D01*
X55261118Y-81993812D01*
X55385600Y-82006072D01*
X56535101Y-82006072D01*
X51840500Y-86700674D01*
X51840500Y-86554140D01*
X51783432Y-86267242D01*
X51671490Y-85996989D01*
X51508975Y-85753768D01*
X51302132Y-85546925D01*
X51058911Y-85384410D01*
X50788658Y-85272468D01*
X50501760Y-85215400D01*
X50209240Y-85215400D01*
X49922342Y-85272468D01*
X49721475Y-85355669D01*
X49699397Y-85337550D01*
X48849258Y-84487412D01*
X48826238Y-84459362D01*
X48714320Y-84367513D01*
X48586633Y-84299263D01*
X48448085Y-84257235D01*
X48340105Y-84246600D01*
X48304000Y-84243044D01*
X48267895Y-84246600D01*
X40442772Y-84246600D01*
X40442772Y-82906400D01*
X40430512Y-82781918D01*
X40394202Y-82662220D01*
X40335237Y-82551906D01*
X40255885Y-82455215D01*
X40159194Y-82375863D01*
X40048880Y-82316898D01*
X39929182Y-82280588D01*
X39804700Y-82268328D01*
X38604700Y-82268328D01*
X38480218Y-82280588D01*
X38360520Y-82316898D01*
X38250206Y-82375863D01*
X38204700Y-82413209D01*
X38159194Y-82375863D01*
X38048880Y-82316898D01*
X37929182Y-82280588D01*
X37804700Y-82268328D01*
X36604700Y-82268328D01*
X36480218Y-82280588D01*
X36360520Y-82316898D01*
X36250206Y-82375863D01*
X36204700Y-82413209D01*
X36159194Y-82375863D01*
X36048880Y-82316898D01*
X35929182Y-82280588D01*
X35804700Y-82268328D01*
X35240000Y-82268328D01*
X35240000Y-82091612D01*
X35196383Y-81872333D01*
X35110824Y-81665776D01*
X34986612Y-81479880D01*
X34828520Y-81321788D01*
X34642624Y-81197576D01*
X34436067Y-81112017D01*
X34216788Y-81068400D01*
X33993212Y-81068400D01*
X33773933Y-81112017D01*
X33567376Y-81197576D01*
X33381480Y-81321788D01*
X33223388Y-81479880D01*
X33099176Y-81665776D01*
X33013617Y-81872333D01*
X32970000Y-82091612D01*
X32970000Y-82268328D01*
X32840000Y-82268328D01*
X32840000Y-80754213D01*
X43664192Y-80754213D01*
X43759956Y-81018614D01*
X44049571Y-81159504D01*
X44361108Y-81241184D01*
X44682595Y-81260518D01*
X45001675Y-81216761D01*
X45306088Y-81111595D01*
X45480044Y-81018614D01*
X45575808Y-80754213D01*
X50164192Y-80754213D01*
X50259956Y-81018614D01*
X50549571Y-81159504D01*
X50861108Y-81241184D01*
X51182595Y-81260518D01*
X51501675Y-81216761D01*
X51806088Y-81111595D01*
X51980044Y-81018614D01*
X52075808Y-80754213D01*
X51120000Y-79798405D01*
X50164192Y-80754213D01*
X45575808Y-80754213D01*
X44620000Y-79798405D01*
X43664192Y-80754213D01*
X32840000Y-80754213D01*
X32840000Y-79789946D01*
X32948551Y-79681395D01*
X42978282Y-79681395D01*
X43022039Y-80000475D01*
X43127205Y-80304888D01*
X43220186Y-80478844D01*
X43484587Y-80574608D01*
X44440395Y-79618800D01*
X44799605Y-79618800D01*
X45755413Y-80574608D01*
X46019814Y-80478844D01*
X46160704Y-80189229D01*
X46242384Y-79877692D01*
X46254189Y-79681395D01*
X49478282Y-79681395D01*
X49522039Y-80000475D01*
X49627205Y-80304888D01*
X49720186Y-80478844D01*
X49984587Y-80574608D01*
X50940395Y-79618800D01*
X51299605Y-79618800D01*
X52255413Y-80574608D01*
X52519814Y-80478844D01*
X52660704Y-80189229D01*
X52742384Y-79877692D01*
X52761718Y-79556205D01*
X52717961Y-79237125D01*
X52612795Y-78932712D01*
X52519814Y-78758756D01*
X52255413Y-78662992D01*
X51299605Y-79618800D01*
X50940395Y-79618800D01*
X49984587Y-78662992D01*
X49720186Y-78758756D01*
X49579296Y-79048371D01*
X49497616Y-79359908D01*
X49478282Y-79681395D01*
X46254189Y-79681395D01*
X46261718Y-79556205D01*
X46217961Y-79237125D01*
X46112795Y-78932712D01*
X46019814Y-78758756D01*
X45755413Y-78662992D01*
X44799605Y-79618800D01*
X44440395Y-79618800D01*
X43484587Y-78662992D01*
X43220186Y-78758756D01*
X43079296Y-79048371D01*
X42997616Y-79359908D01*
X42978282Y-79681395D01*
X32948551Y-79681395D01*
X34146559Y-78483387D01*
X43664192Y-78483387D01*
X44620000Y-79439195D01*
X45575808Y-78483387D01*
X50164192Y-78483387D01*
X51120000Y-79439195D01*
X52075808Y-78483387D01*
X51980044Y-78218986D01*
X51690429Y-78078096D01*
X51378892Y-77996416D01*
X51057405Y-77977082D01*
X50738325Y-78020839D01*
X50433912Y-78126005D01*
X50259956Y-78218986D01*
X50164192Y-78483387D01*
X45575808Y-78483387D01*
X45480044Y-78218986D01*
X45190429Y-78078096D01*
X44878892Y-77996416D01*
X44557405Y-77977082D01*
X44238325Y-78020839D01*
X43933912Y-78126005D01*
X43759956Y-78218986D01*
X43664192Y-78483387D01*
X34146559Y-78483387D01*
X37672179Y-74957767D01*
X42985000Y-74957767D01*
X42985000Y-75279833D01*
X43047832Y-75595712D01*
X43171082Y-75893263D01*
X43350013Y-76161052D01*
X43577748Y-76388787D01*
X43845537Y-76567718D01*
X44143088Y-76690968D01*
X44458967Y-76753800D01*
X44781033Y-76753800D01*
X45096912Y-76690968D01*
X45394463Y-76567718D01*
X45662252Y-76388787D01*
X45889987Y-76161052D01*
X46068918Y-75893263D01*
X46085264Y-75853800D01*
X49654736Y-75853800D01*
X49671082Y-75893263D01*
X49850013Y-76161052D01*
X50077748Y-76388787D01*
X50345537Y-76567718D01*
X50643088Y-76690968D01*
X50958967Y-76753800D01*
X51281033Y-76753800D01*
X51596912Y-76690968D01*
X51894463Y-76567718D01*
X52162252Y-76388787D01*
X52389987Y-76161052D01*
X52568918Y-75893263D01*
X52692168Y-75595712D01*
X52755000Y-75279833D01*
X52755000Y-74957767D01*
X52692168Y-74641888D01*
X52568918Y-74344337D01*
X52389987Y-74076548D01*
X52162252Y-73848813D01*
X51894463Y-73669882D01*
X51596912Y-73546632D01*
X51281033Y-73483800D01*
X50958967Y-73483800D01*
X50643088Y-73546632D01*
X50345537Y-73669882D01*
X50077748Y-73848813D01*
X49850013Y-74076548D01*
X49671082Y-74344337D01*
X49654736Y-74383800D01*
X46085264Y-74383800D01*
X46068918Y-74344337D01*
X45889987Y-74076548D01*
X45662252Y-73848813D01*
X45394463Y-73669882D01*
X45096912Y-73546632D01*
X44781033Y-73483800D01*
X44458967Y-73483800D01*
X44143088Y-73546632D01*
X43845537Y-73669882D01*
X43577748Y-73848813D01*
X43350013Y-74076548D01*
X43171082Y-74344337D01*
X43047832Y-74641888D01*
X42985000Y-74957767D01*
X37672179Y-74957767D01*
X40692547Y-71937400D01*
X40899888Y-71937400D01*
X41119167Y-71893783D01*
X41325724Y-71808224D01*
X41511620Y-71684012D01*
X41669712Y-71525920D01*
X41793924Y-71340024D01*
X41879483Y-71133467D01*
X41923100Y-70914188D01*
X41923100Y-70690612D01*
X41879483Y-70471333D01*
X41793924Y-70264776D01*
X41669712Y-70078880D01*
X41511620Y-69920788D01*
X41325724Y-69796576D01*
X41119167Y-69711017D01*
X40899888Y-69667400D01*
X40676312Y-69667400D01*
X40457033Y-69711017D01*
X40297225Y-69777212D01*
X40335237Y-69730894D01*
X40394202Y-69620580D01*
X40430512Y-69500882D01*
X40442772Y-69376400D01*
X40439700Y-68812150D01*
X40280950Y-68653400D01*
X39331700Y-68653400D01*
X39331700Y-69852650D01*
X39490450Y-70011400D01*
X39804700Y-70014472D01*
X39929182Y-70002212D01*
X40006658Y-69978710D01*
X39906488Y-70078880D01*
X39782276Y-70264776D01*
X39696717Y-70471333D01*
X39653100Y-70690612D01*
X39653100Y-70897953D01*
X31610808Y-78940246D01*
X31582763Y-78963262D01*
X31490914Y-79075180D01*
X31457623Y-79137463D01*
X31422664Y-79202867D01*
X31380635Y-79341415D01*
X31366444Y-79485500D01*
X31370001Y-79521615D01*
X31370000Y-82268328D01*
X30604700Y-82268328D01*
X30480218Y-82280588D01*
X30360520Y-82316898D01*
X30250206Y-82375863D01*
X30204700Y-82413209D01*
X30159194Y-82375863D01*
X30048880Y-82316898D01*
X29929182Y-82280588D01*
X29804700Y-82268328D01*
X28604700Y-82268328D01*
X28480218Y-82280588D01*
X28360520Y-82316898D01*
X28250206Y-82375863D01*
X28204700Y-82413209D01*
X28159194Y-82375863D01*
X28048880Y-82316898D01*
X27929182Y-82280588D01*
X27804700Y-82268328D01*
X27490450Y-82271400D01*
X27331700Y-82430150D01*
X27331700Y-83629400D01*
X27351700Y-83629400D01*
X27351700Y-83883400D01*
X27331700Y-83883400D01*
X27331700Y-83903400D01*
X27077700Y-83903400D01*
X27077700Y-83883400D01*
X27057700Y-83883400D01*
X27057700Y-83629400D01*
X27077700Y-83629400D01*
X27077700Y-82430150D01*
X26918950Y-82271400D01*
X26604700Y-82268328D01*
X26480218Y-82280588D01*
X26360520Y-82316898D01*
X26250206Y-82375863D01*
X26204700Y-82413209D01*
X26159194Y-82375863D01*
X26048880Y-82316898D01*
X25929182Y-82280588D01*
X25804700Y-82268328D01*
X24604700Y-82268328D01*
X24480218Y-82280588D01*
X24360520Y-82316898D01*
X24250206Y-82375863D01*
X24153515Y-82455215D01*
X24074163Y-82551906D01*
X24015198Y-82662220D01*
X23978888Y-82781918D01*
X23966628Y-82906400D01*
X23966628Y-84606400D01*
X23978888Y-84730882D01*
X24015198Y-84850580D01*
X24074163Y-84960894D01*
X24153515Y-85057585D01*
X24169701Y-85070868D01*
X24169701Y-85155863D01*
X24164694Y-85206700D01*
X24184677Y-85409595D01*
X24243860Y-85604693D01*
X24339966Y-85784497D01*
X24420641Y-85882799D01*
X24469305Y-85942096D01*
X24508792Y-85974502D01*
X24761991Y-86227701D01*
X24636411Y-86279718D01*
X24356339Y-86466856D01*
X24118156Y-86705039D01*
X23931018Y-86985111D01*
X23802114Y-87296311D01*
X23736400Y-87626680D01*
X23736400Y-87963520D01*
X23802114Y-88293889D01*
X23931018Y-88605089D01*
X24118156Y-88885161D01*
X24356339Y-89123344D01*
X24636411Y-89310482D01*
X24947611Y-89439386D01*
X25277980Y-89505100D01*
X25614820Y-89505100D01*
X25945189Y-89439386D01*
X26256389Y-89310482D01*
X26536461Y-89123344D01*
X26774644Y-88885161D01*
X26961782Y-88605089D01*
X27074228Y-88333622D01*
X27074228Y-88538420D01*
X27086488Y-88662902D01*
X27122798Y-88782600D01*
X27181763Y-88892914D01*
X27261115Y-88989605D01*
X27357806Y-89068957D01*
X27468120Y-89127922D01*
X27587818Y-89164232D01*
X27712300Y-89176492D01*
X29412300Y-89176492D01*
X29536782Y-89164232D01*
X29656480Y-89127922D01*
X29766794Y-89068957D01*
X29863485Y-88989605D01*
X29942837Y-88892914D01*
X30001802Y-88782600D01*
X30038112Y-88662902D01*
X30050372Y-88538420D01*
X30050372Y-87550400D01*
X36167428Y-87550400D01*
X36179688Y-87674882D01*
X36215998Y-87794580D01*
X36274963Y-87904894D01*
X36354315Y-88001585D01*
X36451006Y-88080937D01*
X36561320Y-88139902D01*
X36681018Y-88176212D01*
X36805500Y-88188472D01*
X37369750Y-88185400D01*
X37528500Y-88026650D01*
X37528500Y-86827400D01*
X36329250Y-86827400D01*
X36170500Y-86986150D01*
X36167428Y-87550400D01*
X30050372Y-87550400D01*
X30050372Y-86838420D01*
X30038112Y-86713938D01*
X30001802Y-86594240D01*
X29942837Y-86483926D01*
X29863485Y-86387235D01*
X29766794Y-86307883D01*
X29656480Y-86248918D01*
X29536782Y-86212608D01*
X29412300Y-86200348D01*
X29127400Y-86200348D01*
X29127400Y-86194938D01*
X29132407Y-86144100D01*
X29112424Y-85941205D01*
X29053241Y-85746107D01*
X28957134Y-85566303D01*
X28827796Y-85408704D01*
X28670197Y-85279366D01*
X28604915Y-85244472D01*
X29765826Y-85244472D01*
X29997141Y-85475787D01*
X30020162Y-85503838D01*
X30132080Y-85595687D01*
X30259767Y-85663937D01*
X30356286Y-85693216D01*
X30398314Y-85705965D01*
X30542399Y-85720156D01*
X30578504Y-85716600D01*
X36182515Y-85716600D01*
X36179688Y-85725918D01*
X36167428Y-85850400D01*
X36170500Y-86414650D01*
X36329250Y-86573400D01*
X37528500Y-86573400D01*
X37528500Y-86553400D01*
X37782500Y-86553400D01*
X37782500Y-86573400D01*
X37802500Y-86573400D01*
X37802500Y-86827400D01*
X37782500Y-86827400D01*
X37782500Y-88026650D01*
X37941250Y-88185400D01*
X38505500Y-88188472D01*
X38629982Y-88176212D01*
X38749680Y-88139902D01*
X38859994Y-88080937D01*
X38956685Y-88001585D01*
X39036037Y-87904894D01*
X39095002Y-87794580D01*
X39117013Y-87722020D01*
X39248868Y-87853875D01*
X39492089Y-88016390D01*
X39762342Y-88128332D01*
X40049240Y-88185400D01*
X40341760Y-88185400D01*
X40610801Y-88131884D01*
X40610801Y-88530825D01*
X40607244Y-88566940D01*
X40621435Y-88711025D01*
X40643148Y-88782600D01*
X40663464Y-88849573D01*
X40731714Y-88977260D01*
X40823563Y-89089178D01*
X40851608Y-89112194D01*
X41265681Y-89526267D01*
X41288702Y-89554318D01*
X41326352Y-89585216D01*
X23370380Y-89525263D01*
X23344859Y-69376400D01*
X23966628Y-69376400D01*
X23978888Y-69500882D01*
X24015198Y-69620580D01*
X24074163Y-69730894D01*
X24153515Y-69827585D01*
X24250206Y-69906937D01*
X24360520Y-69965902D01*
X24480218Y-70002212D01*
X24604700Y-70014472D01*
X24918950Y-70011400D01*
X25077700Y-69852650D01*
X25077700Y-68653400D01*
X24128450Y-68653400D01*
X23969700Y-68812150D01*
X23966628Y-69376400D01*
X23344859Y-69376400D01*
X23342706Y-67676400D01*
X23966628Y-67676400D01*
X23969700Y-68240650D01*
X24128450Y-68399400D01*
X25077700Y-68399400D01*
X25077700Y-67200150D01*
X25331700Y-67200150D01*
X25331700Y-68399400D01*
X25351700Y-68399400D01*
X25351700Y-68653400D01*
X25331700Y-68653400D01*
X25331700Y-69852650D01*
X25490450Y-70011400D01*
X25804700Y-70014472D01*
X25929182Y-70002212D01*
X26048880Y-69965902D01*
X26159194Y-69906937D01*
X26204700Y-69869591D01*
X26250206Y-69906937D01*
X26360520Y-69965902D01*
X26480218Y-70002212D01*
X26604700Y-70014472D01*
X27804700Y-70014472D01*
X27929182Y-70002212D01*
X28048880Y-69965902D01*
X28159194Y-69906937D01*
X28204700Y-69869591D01*
X28250206Y-69906937D01*
X28360520Y-69965902D01*
X28480218Y-70002212D01*
X28604700Y-70014472D01*
X29804700Y-70014472D01*
X29929182Y-70002212D01*
X30048880Y-69965902D01*
X30159194Y-69906937D01*
X30204700Y-69869591D01*
X30250206Y-69906937D01*
X30360520Y-69965902D01*
X30480218Y-70002212D01*
X30604700Y-70014472D01*
X31804700Y-70014472D01*
X31929182Y-70002212D01*
X32048880Y-69965902D01*
X32159194Y-69906937D01*
X32204700Y-69869591D01*
X32250206Y-69906937D01*
X32360520Y-69965902D01*
X32480218Y-70002212D01*
X32604700Y-70014472D01*
X33804700Y-70014472D01*
X33929182Y-70002212D01*
X34048880Y-69965902D01*
X34159194Y-69906937D01*
X34204700Y-69869591D01*
X34250206Y-69906937D01*
X34360520Y-69965902D01*
X34480218Y-70002212D01*
X34604700Y-70014472D01*
X35804700Y-70014472D01*
X35929182Y-70002212D01*
X36048880Y-69965902D01*
X36159194Y-69906937D01*
X36204700Y-69869591D01*
X36250206Y-69906937D01*
X36360520Y-69965902D01*
X36480218Y-70002212D01*
X36604700Y-70014472D01*
X37804700Y-70014472D01*
X37929182Y-70002212D01*
X38048880Y-69965902D01*
X38159194Y-69906937D01*
X38204700Y-69869591D01*
X38250206Y-69906937D01*
X38360520Y-69965902D01*
X38480218Y-70002212D01*
X38604700Y-70014472D01*
X38918950Y-70011400D01*
X39077700Y-69852650D01*
X39077700Y-68653400D01*
X39057700Y-68653400D01*
X39057700Y-68399400D01*
X39077700Y-68399400D01*
X39077700Y-67200150D01*
X39331700Y-67200150D01*
X39331700Y-68399400D01*
X40280950Y-68399400D01*
X40439700Y-68240650D01*
X40442772Y-67676400D01*
X40430512Y-67551918D01*
X40394202Y-67432220D01*
X40335237Y-67321906D01*
X40255885Y-67225215D01*
X40159194Y-67145863D01*
X40048880Y-67086898D01*
X39929182Y-67050588D01*
X39804700Y-67038328D01*
X39490450Y-67041400D01*
X39331700Y-67200150D01*
X39077700Y-67200150D01*
X38918950Y-67041400D01*
X38604700Y-67038328D01*
X38480218Y-67050588D01*
X38360520Y-67086898D01*
X38250206Y-67145863D01*
X38204700Y-67183209D01*
X38159194Y-67145863D01*
X38048880Y-67086898D01*
X37929182Y-67050588D01*
X37804700Y-67038328D01*
X36604700Y-67038328D01*
X36480218Y-67050588D01*
X36360520Y-67086898D01*
X36250206Y-67145863D01*
X36204700Y-67183209D01*
X36159194Y-67145863D01*
X36048880Y-67086898D01*
X35929182Y-67050588D01*
X35804700Y-67038328D01*
X34604700Y-67038328D01*
X34480218Y-67050588D01*
X34360520Y-67086898D01*
X34250206Y-67145863D01*
X34204700Y-67183209D01*
X34159194Y-67145863D01*
X34048880Y-67086898D01*
X33929182Y-67050588D01*
X33860502Y-67043824D01*
X33818787Y-66965780D01*
X33726938Y-66853862D01*
X33698893Y-66830846D01*
X33599400Y-66731353D01*
X33599400Y-66628412D01*
X33555783Y-66409133D01*
X33470224Y-66202576D01*
X33346012Y-66016680D01*
X33187920Y-65858588D01*
X33117927Y-65811820D01*
X33177647Y-65752100D01*
X33384988Y-65752100D01*
X33604267Y-65708483D01*
X33810824Y-65622924D01*
X33996720Y-65498712D01*
X34154812Y-65340620D01*
X34279024Y-65154724D01*
X34364583Y-64948167D01*
X34408200Y-64728888D01*
X34408200Y-64505312D01*
X34364583Y-64286033D01*
X34279024Y-64079476D01*
X34176568Y-63926139D01*
X34270524Y-63785524D01*
X34356083Y-63578967D01*
X34399700Y-63359688D01*
X34399700Y-63136112D01*
X34356083Y-62916833D01*
X34270524Y-62710276D01*
X34146312Y-62524380D01*
X33988220Y-62366288D01*
X33802324Y-62242076D01*
X33595767Y-62156517D01*
X33376488Y-62112900D01*
X33152912Y-62112900D01*
X32933633Y-62156517D01*
X32727076Y-62242076D01*
X32541180Y-62366288D01*
X32394568Y-62512900D01*
X31368994Y-62512900D01*
X31332899Y-62509345D01*
X31296804Y-62512900D01*
X31296795Y-62512900D01*
X31188815Y-62523535D01*
X31050267Y-62565563D01*
X30922580Y-62633813D01*
X30810662Y-62725662D01*
X30787646Y-62753707D01*
X26710508Y-66830846D01*
X26682463Y-66853862D01*
X26590614Y-66965780D01*
X26549705Y-67042316D01*
X26548899Y-67043824D01*
X26480218Y-67050588D01*
X26360520Y-67086898D01*
X26250206Y-67145863D01*
X26204700Y-67183209D01*
X26159194Y-67145863D01*
X26048880Y-67086898D01*
X25929182Y-67050588D01*
X25804700Y-67038328D01*
X25490450Y-67041400D01*
X25331700Y-67200150D01*
X25077700Y-67200150D01*
X24918950Y-67041400D01*
X24604700Y-67038328D01*
X24480218Y-67050588D01*
X24360520Y-67086898D01*
X24250206Y-67145863D01*
X24153515Y-67225215D01*
X24074163Y-67321906D01*
X24015198Y-67432220D01*
X23978888Y-67551918D01*
X23966628Y-67676400D01*
X23342706Y-67676400D01*
X23308860Y-40954908D01*
X26901400Y-40954908D01*
X26901400Y-41230092D01*
X26955086Y-41499990D01*
X27060395Y-41754227D01*
X27213280Y-41983035D01*
X27407865Y-42177620D01*
X27636673Y-42330505D01*
X27890910Y-42435814D01*
X28160808Y-42489500D01*
X28435992Y-42489500D01*
X28705890Y-42435814D01*
X28960127Y-42330505D01*
X29188935Y-42177620D01*
X29383520Y-41983035D01*
X29536405Y-41754227D01*
X29641714Y-41499990D01*
X29695400Y-41230092D01*
X29695400Y-40954908D01*
X29641714Y-40685010D01*
X29536405Y-40430773D01*
X29383520Y-40201965D01*
X29188935Y-40007380D01*
X28960127Y-39854495D01*
X28883805Y-39822881D01*
X28891423Y-39820136D01*
X29007380Y-39758156D01*
X29074360Y-39518065D01*
X28288400Y-38732105D01*
X27502440Y-39518065D01*
X27569420Y-39758156D01*
X27709843Y-39824187D01*
X27636673Y-39854495D01*
X27407865Y-40007380D01*
X27213280Y-40201965D01*
X27060395Y-40430773D01*
X26955086Y-40685010D01*
X26901400Y-40954908D01*
X23308860Y-40954908D01*
X23305908Y-38624517D01*
X26886490Y-38624517D01*
X26927478Y-38896633D01*
X27020764Y-39155523D01*
X27082744Y-39271480D01*
X27322835Y-39338460D01*
X28108795Y-38552500D01*
X28468005Y-38552500D01*
X29253965Y-39338460D01*
X29494056Y-39271480D01*
X29611156Y-39022452D01*
X29677423Y-38755365D01*
X29690310Y-38480483D01*
X29649322Y-38208367D01*
X29557270Y-37952900D01*
X35589528Y-37952900D01*
X35601788Y-38077382D01*
X35638098Y-38197080D01*
X35697063Y-38307394D01*
X35776415Y-38404085D01*
X35873106Y-38483437D01*
X35983420Y-38542402D01*
X36103118Y-38578712D01*
X36227600Y-38590972D01*
X36391850Y-38587900D01*
X36550600Y-38429150D01*
X36550600Y-37679900D01*
X36804600Y-37679900D01*
X36804600Y-38429150D01*
X36963350Y-38587900D01*
X37127600Y-38590972D01*
X37252082Y-38578712D01*
X37371780Y-38542402D01*
X37482094Y-38483437D01*
X37578785Y-38404085D01*
X37658137Y-38307394D01*
X37717102Y-38197080D01*
X37753412Y-38077382D01*
X37765672Y-37952900D01*
X37762600Y-37838650D01*
X37603850Y-37679900D01*
X36804600Y-37679900D01*
X36550600Y-37679900D01*
X35751350Y-37679900D01*
X35592600Y-37838650D01*
X35589528Y-37952900D01*
X29557270Y-37952900D01*
X29556036Y-37949477D01*
X29494056Y-37833520D01*
X29253965Y-37766540D01*
X28468005Y-38552500D01*
X28108795Y-38552500D01*
X27322835Y-37766540D01*
X27082744Y-37833520D01*
X26965644Y-38082548D01*
X26899377Y-38349635D01*
X26886490Y-38624517D01*
X23305908Y-38624517D01*
X23304594Y-37586935D01*
X27502440Y-37586935D01*
X28288400Y-38372895D01*
X29074360Y-37586935D01*
X29007380Y-37346844D01*
X28758352Y-37229744D01*
X28491265Y-37163477D01*
X28265656Y-37152900D01*
X35589528Y-37152900D01*
X35592600Y-37267150D01*
X35751350Y-37425900D01*
X36550600Y-37425900D01*
X36550600Y-36676650D01*
X36804600Y-36676650D01*
X36804600Y-37425900D01*
X37603850Y-37425900D01*
X37762600Y-37267150D01*
X37765672Y-37152900D01*
X37753412Y-37028418D01*
X37717102Y-36908720D01*
X37658137Y-36798406D01*
X37578785Y-36701715D01*
X37482094Y-36622363D01*
X37371780Y-36563398D01*
X37252082Y-36527088D01*
X37127600Y-36514828D01*
X36963350Y-36517900D01*
X36804600Y-36676650D01*
X36550600Y-36676650D01*
X36391850Y-36517900D01*
X36227600Y-36514828D01*
X36103118Y-36527088D01*
X35983420Y-36563398D01*
X35873106Y-36622363D01*
X35776415Y-36701715D01*
X35697063Y-36798406D01*
X35638098Y-36908720D01*
X35601788Y-37028418D01*
X35589528Y-37152900D01*
X28265656Y-37152900D01*
X28216383Y-37150590D01*
X27944267Y-37191578D01*
X27685377Y-37284864D01*
X27569420Y-37346844D01*
X27502440Y-37586935D01*
X23304594Y-37586935D01*
X23297950Y-32341900D01*
X38530128Y-32341900D01*
X38542388Y-32466382D01*
X38578698Y-32586080D01*
X38637663Y-32696394D01*
X38717015Y-32793085D01*
X38813706Y-32872437D01*
X38924020Y-32931402D01*
X39043718Y-32967712D01*
X39168200Y-32979972D01*
X40437450Y-32976900D01*
X40596200Y-32818150D01*
X40596200Y-31678900D01*
X40850200Y-31678900D01*
X40850200Y-32818150D01*
X41008950Y-32976900D01*
X42278200Y-32979972D01*
X42402682Y-32967712D01*
X42522380Y-32931402D01*
X42632694Y-32872437D01*
X42729385Y-32793085D01*
X42808737Y-32696394D01*
X42867702Y-32586080D01*
X42904012Y-32466382D01*
X42916272Y-32341900D01*
X42913200Y-31837650D01*
X42754450Y-31678900D01*
X40850200Y-31678900D01*
X40596200Y-31678900D01*
X38691950Y-31678900D01*
X38533200Y-31837650D01*
X38530128Y-32341900D01*
X23297950Y-32341900D01*
X23294130Y-29326708D01*
X26886100Y-29326708D01*
X26886100Y-29601892D01*
X26939786Y-29871790D01*
X27045095Y-30126027D01*
X27197980Y-30354835D01*
X27392565Y-30549420D01*
X27621373Y-30702305D01*
X27875610Y-30807614D01*
X28145508Y-30861300D01*
X28420692Y-30861300D01*
X28690590Y-30807614D01*
X28800952Y-30761900D01*
X38530128Y-30761900D01*
X38533200Y-31266150D01*
X38691950Y-31424900D01*
X40596200Y-31424900D01*
X40596200Y-30285650D01*
X40850200Y-30285650D01*
X40850200Y-31424900D01*
X42754450Y-31424900D01*
X42913200Y-31266150D01*
X42916272Y-30761900D01*
X42904012Y-30637418D01*
X42867702Y-30517720D01*
X42808737Y-30407406D01*
X42729385Y-30310715D01*
X42632694Y-30231363D01*
X42522380Y-30172398D01*
X42402682Y-30136088D01*
X42278200Y-30123828D01*
X41008950Y-30126900D01*
X40850200Y-30285650D01*
X40596200Y-30285650D01*
X40437450Y-30126900D01*
X39168200Y-30123828D01*
X39043718Y-30136088D01*
X38924020Y-30172398D01*
X38813706Y-30231363D01*
X38717015Y-30310715D01*
X38637663Y-30407406D01*
X38578698Y-30517720D01*
X38542388Y-30637418D01*
X38530128Y-30761900D01*
X28800952Y-30761900D01*
X28944827Y-30702305D01*
X29173635Y-30549420D01*
X29368220Y-30354835D01*
X29521105Y-30126027D01*
X29626414Y-29871790D01*
X29680100Y-29601892D01*
X29680100Y-29326708D01*
X29626414Y-29056810D01*
X29521105Y-28802573D01*
X29368220Y-28573765D01*
X29173635Y-28379180D01*
X28944827Y-28226295D01*
X28868505Y-28194681D01*
X28876123Y-28191936D01*
X28992080Y-28129956D01*
X29059060Y-27889865D01*
X28273100Y-27103905D01*
X27487140Y-27889865D01*
X27554120Y-28129956D01*
X27694543Y-28195987D01*
X27621373Y-28226295D01*
X27392565Y-28379180D01*
X27197980Y-28573765D01*
X27045095Y-28802573D01*
X26939786Y-29056810D01*
X26886100Y-29326708D01*
X23294130Y-29326708D01*
X23291178Y-26996317D01*
X26871190Y-26996317D01*
X26912178Y-27268433D01*
X27005464Y-27527323D01*
X27067444Y-27643280D01*
X27307535Y-27710260D01*
X28093495Y-26924300D01*
X28452705Y-26924300D01*
X29238665Y-27710260D01*
X29478756Y-27643280D01*
X29595856Y-27394252D01*
X29662123Y-27127165D01*
X29675010Y-26852283D01*
X29634022Y-26580167D01*
X29540736Y-26321277D01*
X29478756Y-26205320D01*
X29238665Y-26138340D01*
X28452705Y-26924300D01*
X28093495Y-26924300D01*
X27307535Y-26138340D01*
X27067444Y-26205320D01*
X26950344Y-26454348D01*
X26884077Y-26721435D01*
X26871190Y-26996317D01*
X23291178Y-26996317D01*
X23289864Y-25958735D01*
X27487140Y-25958735D01*
X28273100Y-26744695D01*
X29059060Y-25958735D01*
X28992080Y-25718644D01*
X28743052Y-25601544D01*
X28475965Y-25535277D01*
X28201083Y-25522390D01*
X27928967Y-25563378D01*
X27670077Y-25656664D01*
X27554120Y-25718644D01*
X27487140Y-25958735D01*
X23289864Y-25958735D01*
X23287813Y-24339412D01*
X28482700Y-24339412D01*
X28482700Y-24562988D01*
X28526317Y-24782267D01*
X28611876Y-24988824D01*
X28736088Y-25174720D01*
X28894180Y-25332812D01*
X29080076Y-25457024D01*
X29286633Y-25542583D01*
X29505912Y-25586200D01*
X29729488Y-25586200D01*
X29948767Y-25542583D01*
X30155324Y-25457024D01*
X30341220Y-25332812D01*
X30487832Y-25186200D01*
X35126928Y-25186200D01*
X35126928Y-25593300D01*
X35139188Y-25717782D01*
X35175498Y-25837480D01*
X35234463Y-25947794D01*
X35313815Y-26044485D01*
X35410506Y-26123837D01*
X35520820Y-26182802D01*
X35640518Y-26219112D01*
X35765000Y-26231372D01*
X36665000Y-26231372D01*
X36789482Y-26219112D01*
X36909180Y-26182802D01*
X37019494Y-26123837D01*
X37116185Y-26044485D01*
X37195537Y-25947794D01*
X37254502Y-25837480D01*
X37290812Y-25717782D01*
X37303072Y-25593300D01*
X37303072Y-24793300D01*
X37290812Y-24668818D01*
X37254502Y-24549120D01*
X37195537Y-24438806D01*
X37116185Y-24342115D01*
X37019494Y-24262763D01*
X36909180Y-24203798D01*
X36890854Y-24198239D01*
X36829087Y-24082680D01*
X36737238Y-23970762D01*
X36714280Y-23951920D01*
X36695438Y-23928962D01*
X36583520Y-23837113D01*
X36455833Y-23768863D01*
X36317285Y-23726835D01*
X36209305Y-23716200D01*
X36173200Y-23712644D01*
X36137095Y-23716200D01*
X30487832Y-23716200D01*
X30341220Y-23569588D01*
X30155324Y-23445376D01*
X29948767Y-23359817D01*
X29729488Y-23316200D01*
X29505912Y-23316200D01*
X29286633Y-23359817D01*
X29080076Y-23445376D01*
X28894180Y-23569588D01*
X28736088Y-23727680D01*
X28611876Y-23913576D01*
X28526317Y-24120133D01*
X28482700Y-24339412D01*
X23287813Y-24339412D01*
X23283827Y-21192980D01*
X23730640Y-21192980D01*
X23730640Y-21529820D01*
X23796354Y-21860189D01*
X23925258Y-22171389D01*
X24112396Y-22451461D01*
X24350579Y-22689644D01*
X24630651Y-22876782D01*
X24941851Y-23005686D01*
X25272220Y-23071400D01*
X25609060Y-23071400D01*
X25939429Y-23005686D01*
X26250629Y-22876782D01*
X26530701Y-22689644D01*
X26768884Y-22451461D01*
X26814494Y-22383200D01*
X41934328Y-22383200D01*
X41937400Y-22497450D01*
X42096150Y-22656200D01*
X42945400Y-22656200D01*
X42945400Y-21906950D01*
X42786650Y-21748200D01*
X42572400Y-21745128D01*
X42447918Y-21757388D01*
X42328220Y-21793698D01*
X42217906Y-21852663D01*
X42121215Y-21932015D01*
X42041863Y-22028706D01*
X41982898Y-22139020D01*
X41946588Y-22258718D01*
X41934328Y-22383200D01*
X26814494Y-22383200D01*
X26956022Y-22171389D01*
X27084926Y-21860189D01*
X27150640Y-21529820D01*
X27150640Y-21192980D01*
X27084926Y-20862611D01*
X26956022Y-20551411D01*
X26768884Y-20271339D01*
X26530701Y-20033156D01*
X26250629Y-19846018D01*
X25939429Y-19717114D01*
X25609060Y-19651400D01*
X25272220Y-19651400D01*
X24941851Y-19717114D01*
X24630651Y-19846018D01*
X24350579Y-20033156D01*
X24112396Y-20271339D01*
X23925258Y-20551411D01*
X23796354Y-20862611D01*
X23730640Y-21192980D01*
X23283827Y-21192980D01*
X23281804Y-19596140D01*
X42156992Y-19602653D01*
G37*
X42156992Y-19602653D02*
X42121215Y-19632015D01*
X42041863Y-19728706D01*
X41982898Y-19839020D01*
X41946588Y-19958718D01*
X41934328Y-20083200D01*
X41934328Y-20883200D01*
X41946588Y-21007682D01*
X41982898Y-21127380D01*
X42041863Y-21237694D01*
X42121215Y-21334385D01*
X42217906Y-21413737D01*
X42328220Y-21472702D01*
X42447918Y-21509012D01*
X42572400Y-21521272D01*
X43572400Y-21521272D01*
X43696882Y-21509012D01*
X43816580Y-21472702D01*
X43926894Y-21413737D01*
X44023585Y-21334385D01*
X44102937Y-21237694D01*
X44161902Y-21127380D01*
X44198212Y-21007682D01*
X44210472Y-20883200D01*
X44210472Y-20083200D01*
X44198212Y-19958718D01*
X44161902Y-19839020D01*
X44102937Y-19728706D01*
X44023585Y-19632015D01*
X43988578Y-19603285D01*
X49653840Y-19605240D01*
X49621215Y-19632015D01*
X49541863Y-19728706D01*
X49482898Y-19839020D01*
X49446588Y-19958718D01*
X49434328Y-20083200D01*
X49437400Y-20197450D01*
X49596150Y-20356200D01*
X50445400Y-20356200D01*
X50445400Y-20336200D01*
X50699400Y-20336200D01*
X50699400Y-20356200D01*
X51548650Y-20356200D01*
X51707400Y-20197450D01*
X51710472Y-20083200D01*
X51698212Y-19958718D01*
X51661902Y-19839020D01*
X51602937Y-19728706D01*
X51523585Y-19632015D01*
X51491733Y-19605875D01*
X59842019Y-19608756D01*
X59837724Y-21040772D01*
X59802286Y-20862611D01*
X59673382Y-20551411D01*
X59486244Y-20271339D01*
X59248061Y-20033156D01*
X58967989Y-19846018D01*
X58656789Y-19717114D01*
X58326420Y-19651400D01*
X57989580Y-19651400D01*
X57659211Y-19717114D01*
X57348011Y-19846018D01*
X57067939Y-20033156D01*
X56829756Y-20271339D01*
X56642618Y-20551411D01*
X56513714Y-20862611D01*
X56448000Y-21192980D01*
X56448000Y-21396945D01*
X56274814Y-21283580D01*
X55197485Y-21905576D01*
X55819174Y-22982373D01*
X56085392Y-22967996D01*
X56199953Y-22845687D01*
X56369833Y-22597314D01*
X56487993Y-22320570D01*
X56549893Y-22026091D01*
X56550723Y-21949535D01*
X56642618Y-22171389D01*
X56829756Y-22451461D01*
X57067939Y-22689644D01*
X57348011Y-22876782D01*
X57659211Y-23005686D01*
X57989580Y-23071400D01*
X58326420Y-23071400D01*
X58656789Y-23005686D01*
X58967989Y-22876782D01*
X59248061Y-22689644D01*
X59486244Y-22451461D01*
X59673382Y-22171389D01*
X59802286Y-21860189D01*
X59835771Y-21691845D01*
X59640093Y-86935290D01*
X59486244Y-86705039D01*
X59248061Y-86466856D01*
X58967989Y-86279718D01*
X58656789Y-86150814D01*
X58326420Y-86085100D01*
X57989580Y-86085100D01*
X57659211Y-86150814D01*
X57348011Y-86279718D01*
X57067939Y-86466856D01*
X56829756Y-86705039D01*
X56642618Y-86985111D01*
X56513714Y-87296311D01*
X56448000Y-87626680D01*
X56448000Y-87963520D01*
X56513714Y-88293889D01*
X56642618Y-88605089D01*
X56829756Y-88885161D01*
X57067939Y-89123344D01*
X57348011Y-89310482D01*
X57659211Y-89439386D01*
X57989580Y-89505100D01*
X58326420Y-89505100D01*
X58656789Y-89439386D01*
X58967989Y-89310482D01*
X59248061Y-89123344D01*
X59486244Y-88885161D01*
X59634912Y-88662663D01*
X59631962Y-89646337D01*
X53665168Y-89626414D01*
X53753018Y-89554318D01*
X53776039Y-89526267D01*
X59401878Y-83900429D01*
X59429917Y-83877418D01*
X59452930Y-83849377D01*
X59452933Y-83849374D01*
X59499605Y-83792504D01*
X59521767Y-83765500D01*
X59590017Y-83637813D01*
X59632045Y-83499265D01*
X59642680Y-83391285D01*
X59642680Y-83391284D01*
X59646236Y-83355180D01*
X59642680Y-83319075D01*
X59642680Y-59962314D01*
X59646235Y-59926219D01*
X59642680Y-59890124D01*
X59642680Y-59890115D01*
X59632045Y-59782135D01*
X59590017Y-59643587D01*
X59521767Y-59515900D01*
X59429918Y-59403982D01*
X59401873Y-59380966D01*
X56829919Y-56809012D01*
X56806898Y-56780962D01*
X56694980Y-56689113D01*
X56645162Y-56662485D01*
X57168893Y-56138754D01*
X57196938Y-56115738D01*
X57288787Y-56003820D01*
X57357037Y-55876133D01*
X57399065Y-55737585D01*
X57409700Y-55629605D01*
X57413256Y-55593500D01*
X57409700Y-55557395D01*
X57409700Y-53792305D01*
X57413256Y-53756200D01*
X57399065Y-53612115D01*
X57381577Y-53554465D01*
X57357037Y-53473567D01*
X57288787Y-53345880D01*
X57242965Y-53290047D01*
X57219953Y-53262006D01*
X57219950Y-53262003D01*
X57196937Y-53233962D01*
X57168897Y-53210950D01*
X56908944Y-52950997D01*
X56958600Y-52701360D01*
X56958600Y-52408840D01*
X56901532Y-52121942D01*
X56789590Y-51851689D01*
X56627075Y-51608468D01*
X56420232Y-51401625D01*
X56245840Y-51285100D01*
X56420232Y-51168575D01*
X56627075Y-50961732D01*
X56789590Y-50718511D01*
X56901532Y-50448258D01*
X56958600Y-50161360D01*
X56958600Y-49868840D01*
X56901532Y-49581942D01*
X56789590Y-49311689D01*
X56627075Y-49068468D01*
X56495220Y-48936613D01*
X56567780Y-48914602D01*
X56678094Y-48855637D01*
X56774785Y-48776285D01*
X56854137Y-48679594D01*
X56913102Y-48569280D01*
X56949412Y-48449582D01*
X56961672Y-48325100D01*
X56958600Y-47760850D01*
X56799850Y-47602100D01*
X55600600Y-47602100D01*
X55600600Y-47622100D01*
X55346600Y-47622100D01*
X55346600Y-47602100D01*
X54147350Y-47602100D01*
X53988600Y-47760850D01*
X53985528Y-48325100D01*
X53997788Y-48449582D01*
X54034098Y-48569280D01*
X54093063Y-48679594D01*
X54172415Y-48776285D01*
X54269106Y-48855637D01*
X54379420Y-48914602D01*
X54451980Y-48936613D01*
X54320125Y-49068468D01*
X54157610Y-49311689D01*
X54045668Y-49581942D01*
X53988600Y-49868840D01*
X53988600Y-50161360D01*
X54045668Y-50448258D01*
X54157610Y-50718511D01*
X54320125Y-50961732D01*
X54526968Y-51168575D01*
X54701360Y-51285100D01*
X54526968Y-51401625D01*
X54320125Y-51608468D01*
X54167193Y-51837347D01*
X51717200Y-49387354D01*
X51717200Y-46625100D01*
X53985528Y-46625100D01*
X53988600Y-47189350D01*
X54147350Y-47348100D01*
X55346600Y-47348100D01*
X55346600Y-46148850D01*
X55600600Y-46148850D01*
X55600600Y-47348100D01*
X56799850Y-47348100D01*
X56958600Y-47189350D01*
X56961672Y-46625100D01*
X56949412Y-46500618D01*
X56913102Y-46380920D01*
X56854137Y-46270606D01*
X56774785Y-46173915D01*
X56678094Y-46094563D01*
X56567780Y-46035598D01*
X56448082Y-45999288D01*
X56323600Y-45987028D01*
X55759350Y-45990100D01*
X55600600Y-46148850D01*
X55346600Y-46148850D01*
X55187850Y-45990100D01*
X54623600Y-45987028D01*
X54499118Y-45999288D01*
X54379420Y-46035598D01*
X54269106Y-46094563D01*
X54172415Y-46173915D01*
X54093063Y-46270606D01*
X54034098Y-46380920D01*
X53997788Y-46500618D01*
X53985528Y-46625100D01*
X51717200Y-46625100D01*
X51717200Y-33830872D01*
X52537200Y-33830872D01*
X52661682Y-33818612D01*
X52781380Y-33782302D01*
X52891694Y-33723337D01*
X52988385Y-33643985D01*
X53067737Y-33547294D01*
X53126702Y-33436980D01*
X53163012Y-33317282D01*
X53175272Y-33192800D01*
X53789128Y-33192800D01*
X53801388Y-33317282D01*
X53837698Y-33436980D01*
X53896663Y-33547294D01*
X53976015Y-33643985D01*
X54072706Y-33723337D01*
X54183020Y-33782302D01*
X54302718Y-33818612D01*
X54427200Y-33830872D01*
X55696450Y-33827800D01*
X55855200Y-33669050D01*
X55855200Y-32529800D01*
X56109200Y-32529800D01*
X56109200Y-33669050D01*
X56267950Y-33827800D01*
X57537200Y-33830872D01*
X57661682Y-33818612D01*
X57781380Y-33782302D01*
X57891694Y-33723337D01*
X57988385Y-33643985D01*
X58067737Y-33547294D01*
X58126702Y-33436980D01*
X58163012Y-33317282D01*
X58175272Y-33192800D01*
X58172200Y-32688550D01*
X58013450Y-32529800D01*
X56109200Y-32529800D01*
X55855200Y-32529800D01*
X53950950Y-32529800D01*
X53792200Y-32688550D01*
X53789128Y-33192800D01*
X53175272Y-33192800D01*
X53175272Y-31612800D01*
X53789128Y-31612800D01*
X53792200Y-32117050D01*
X53950950Y-32275800D01*
X55855200Y-32275800D01*
X55855200Y-31136550D01*
X56109200Y-31136550D01*
X56109200Y-32275800D01*
X58013450Y-32275800D01*
X58172200Y-32117050D01*
X58175272Y-31612800D01*
X58163012Y-31488318D01*
X58126702Y-31368620D01*
X58067737Y-31258306D01*
X57988385Y-31161615D01*
X57891694Y-31082263D01*
X57781380Y-31023298D01*
X57661682Y-30986988D01*
X57537200Y-30974728D01*
X56267950Y-30977800D01*
X56109200Y-31136550D01*
X55855200Y-31136550D01*
X55696450Y-30977800D01*
X54427200Y-30974728D01*
X54302718Y-30986988D01*
X54183020Y-31023298D01*
X54072706Y-31082263D01*
X53976015Y-31161615D01*
X53896663Y-31258306D01*
X53837698Y-31368620D01*
X53801388Y-31488318D01*
X53789128Y-31612800D01*
X53175272Y-31612800D01*
X53163012Y-31488318D01*
X53126702Y-31368620D01*
X53067737Y-31258306D01*
X52988385Y-31161615D01*
X52891694Y-31082263D01*
X52781380Y-31023298D01*
X52661682Y-30986988D01*
X52537200Y-30974728D01*
X49427200Y-30974728D01*
X49302718Y-30986988D01*
X49183020Y-31023298D01*
X49072706Y-31082263D01*
X48976015Y-31161615D01*
X48896663Y-31258306D01*
X48837698Y-31368620D01*
X48801388Y-31488318D01*
X48789128Y-31612800D01*
X48789128Y-33192800D01*
X48801388Y-33317282D01*
X48837698Y-33436980D01*
X48896663Y-33547294D01*
X48976015Y-33643985D01*
X49072706Y-33723337D01*
X49183020Y-33782302D01*
X49302718Y-33818612D01*
X49427200Y-33830872D01*
X50247200Y-33830872D01*
X50247201Y-49655685D01*
X50243644Y-49691800D01*
X50257835Y-49835885D01*
X50284359Y-49923320D01*
X50299864Y-49974433D01*
X50368114Y-50102120D01*
X50459963Y-50214038D01*
X50488008Y-50237054D01*
X54359773Y-54108820D01*
X54320125Y-54148468D01*
X54157610Y-54391689D01*
X54045668Y-54661942D01*
X53988600Y-54948840D01*
X53988600Y-55241360D01*
X54045668Y-55528258D01*
X54144931Y-55767900D01*
X40533335Y-55767900D01*
X40497230Y-55764344D01*
X40353145Y-55778535D01*
X40214596Y-55820563D01*
X40110631Y-55876134D01*
X40086910Y-55888813D01*
X39974992Y-55980662D01*
X39951976Y-56008707D01*
X39811083Y-56149600D01*
X39650528Y-56149600D01*
X39650528Y-55516511D01*
X39668267Y-55512983D01*
X39874824Y-55427424D01*
X40060720Y-55303212D01*
X40218812Y-55145120D01*
X40343024Y-54959224D01*
X40428583Y-54752667D01*
X40472200Y-54533388D01*
X40472200Y-54309812D01*
X40428583Y-54090533D01*
X40343024Y-53883976D01*
X40218812Y-53698080D01*
X40093589Y-53572857D01*
X40101347Y-53565100D01*
X45279487Y-53565100D01*
X45378301Y-53712986D01*
X45571214Y-53905899D01*
X45798057Y-54057471D01*
X46050111Y-54161875D01*
X46317689Y-54215100D01*
X46590511Y-54215100D01*
X46858089Y-54161875D01*
X47110143Y-54057471D01*
X47336986Y-53905899D01*
X47529899Y-53712986D01*
X47681471Y-53486143D01*
X47785875Y-53234089D01*
X47839100Y-52966511D01*
X47839100Y-52693689D01*
X47785875Y-52426111D01*
X47681471Y-52174057D01*
X47529899Y-51947214D01*
X47336986Y-51754301D01*
X47110143Y-51602729D01*
X46858089Y-51498325D01*
X46590511Y-51445100D01*
X46317689Y-51445100D01*
X46050111Y-51498325D01*
X45798057Y-51602729D01*
X45571214Y-51754301D01*
X45378301Y-51947214D01*
X45279487Y-52095100D01*
X40521506Y-52095100D01*
X43931507Y-48685100D01*
X45279487Y-48685100D01*
X45378301Y-48832986D01*
X45571214Y-49025899D01*
X45798057Y-49177471D01*
X46050111Y-49281875D01*
X46317689Y-49335100D01*
X46590511Y-49335100D01*
X46858089Y-49281875D01*
X47110143Y-49177471D01*
X47336986Y-49025899D01*
X47529899Y-48832986D01*
X47681471Y-48606143D01*
X47785875Y-48354089D01*
X47839100Y-48086511D01*
X47839100Y-47813689D01*
X47785875Y-47546111D01*
X47681471Y-47294057D01*
X47529899Y-47067214D01*
X47336986Y-46874301D01*
X47110143Y-46722729D01*
X46858089Y-46618325D01*
X46590511Y-46565100D01*
X46317689Y-46565100D01*
X46050111Y-46618325D01*
X45798057Y-46722729D01*
X45571214Y-46874301D01*
X45378301Y-47067214D01*
X45279487Y-47215100D01*
X44360107Y-47215100D01*
X45542798Y-46032409D01*
X45570837Y-46009398D01*
X45593850Y-45981357D01*
X45593853Y-45981354D01*
X45662686Y-45897481D01*
X45662687Y-45897480D01*
X45730937Y-45769793D01*
X45772965Y-45631245D01*
X45783600Y-45523265D01*
X45783600Y-45523256D01*
X45787155Y-45487161D01*
X45783600Y-45451066D01*
X45783600Y-38103700D01*
X46177328Y-38103700D01*
X46177328Y-41103700D01*
X46189588Y-41228182D01*
X46225898Y-41347880D01*
X46284863Y-41458194D01*
X46364215Y-41554885D01*
X46460906Y-41634237D01*
X46571220Y-41693202D01*
X46690918Y-41729512D01*
X46815400Y-41741772D01*
X48565400Y-41741772D01*
X48689882Y-41729512D01*
X48809580Y-41693202D01*
X48919894Y-41634237D01*
X49016585Y-41554885D01*
X49095937Y-41458194D01*
X49154902Y-41347880D01*
X49191212Y-41228182D01*
X49203472Y-41103700D01*
X49203472Y-38103700D01*
X49191212Y-37979218D01*
X49154902Y-37859520D01*
X49095937Y-37749206D01*
X49093137Y-37745795D01*
X49184012Y-37654920D01*
X49308224Y-37469024D01*
X49393783Y-37262467D01*
X49437400Y-37043188D01*
X49437400Y-36819612D01*
X49393783Y-36600333D01*
X49308224Y-36393776D01*
X49184012Y-36207880D01*
X49025920Y-36049788D01*
X48840024Y-35925576D01*
X48633467Y-35840017D01*
X48414188Y-35796400D01*
X48190612Y-35796400D01*
X47971333Y-35840017D01*
X47764776Y-35925576D01*
X47578880Y-36049788D01*
X47420788Y-36207880D01*
X47296576Y-36393776D01*
X47211017Y-36600333D01*
X47167400Y-36819612D01*
X47167400Y-37043188D01*
X47207843Y-37246511D01*
X47196208Y-37258146D01*
X47168163Y-37281162D01*
X47076314Y-37393080D01*
X47037536Y-37465628D01*
X46815400Y-37465628D01*
X46690918Y-37477888D01*
X46571220Y-37514198D01*
X46460906Y-37573163D01*
X46364215Y-37652515D01*
X46284863Y-37749206D01*
X46225898Y-37859520D01*
X46189588Y-37979218D01*
X46177328Y-38103700D01*
X45783600Y-38103700D01*
X45783600Y-37541546D01*
X48074997Y-35250150D01*
X48103037Y-35227138D01*
X48126050Y-35199097D01*
X48126053Y-35199094D01*
X48194887Y-35115220D01*
X48263137Y-34987534D01*
X48305165Y-34848985D01*
X48319356Y-34704900D01*
X48315800Y-34668795D01*
X48315800Y-26078005D01*
X48319356Y-26041900D01*
X48305165Y-25897815D01*
X48301989Y-25887345D01*
X55697871Y-25887345D01*
X55701964Y-26012362D01*
X55730367Y-26134178D01*
X55781990Y-26248113D01*
X56681990Y-27806959D01*
X56754849Y-27908633D01*
X56846143Y-27994140D01*
X56952365Y-28060192D01*
X57069432Y-28104253D01*
X57192845Y-28124629D01*
X57317862Y-28120536D01*
X57439678Y-28092133D01*
X57553613Y-28040510D01*
X59112459Y-27140510D01*
X59214133Y-27067651D01*
X59299640Y-26976357D01*
X59365692Y-26870135D01*
X59409753Y-26753068D01*
X59430129Y-26629655D01*
X59426036Y-26504638D01*
X59397633Y-26382822D01*
X59346010Y-26268887D01*
X58446010Y-24710041D01*
X58373151Y-24608367D01*
X58281857Y-24522860D01*
X58175635Y-24456808D01*
X58058568Y-24412747D01*
X57935155Y-24392371D01*
X57810138Y-24396464D01*
X57688322Y-24424867D01*
X57574387Y-24476490D01*
X56015541Y-25376490D01*
X55913867Y-25449349D01*
X55828360Y-25540643D01*
X55762308Y-25646865D01*
X55718247Y-25763932D01*
X55697871Y-25887345D01*
X48301989Y-25887345D01*
X48263137Y-25759266D01*
X48194887Y-25631580D01*
X48126053Y-25547706D01*
X48103038Y-25519662D01*
X48074993Y-25496646D01*
X47022102Y-24443756D01*
X47048212Y-24357682D01*
X47060472Y-24233200D01*
X47060472Y-23133200D01*
X47048212Y-23008718D01*
X47011902Y-22889020D01*
X46952937Y-22778706D01*
X46873585Y-22682015D01*
X46776894Y-22602663D01*
X46666580Y-22543698D01*
X46546882Y-22507388D01*
X46422400Y-22495128D01*
X45985383Y-22495128D01*
X46014047Y-22475975D01*
X46165175Y-22324847D01*
X46283915Y-22147140D01*
X46365704Y-21949683D01*
X46407400Y-21740063D01*
X46407400Y-21526337D01*
X47237400Y-21526337D01*
X47237400Y-21740063D01*
X47279096Y-21949683D01*
X47360885Y-22147140D01*
X47479625Y-22324847D01*
X47630753Y-22475975D01*
X47808460Y-22594715D01*
X48005917Y-22676504D01*
X48215537Y-22718200D01*
X48241519Y-22718200D01*
X48191863Y-22778706D01*
X48132898Y-22889020D01*
X48096588Y-23008718D01*
X48084328Y-23133200D01*
X48084328Y-24233200D01*
X48096588Y-24357682D01*
X48132898Y-24477380D01*
X48191863Y-24587694D01*
X48271215Y-24684385D01*
X48367906Y-24763737D01*
X48478220Y-24822702D01*
X48597918Y-24859012D01*
X48722400Y-24871272D01*
X49422400Y-24871272D01*
X49546882Y-24859012D01*
X49666580Y-24822702D01*
X49776894Y-24763737D01*
X49873585Y-24684385D01*
X49952937Y-24587694D01*
X50011902Y-24477380D01*
X50048212Y-24357682D01*
X50060472Y-24233200D01*
X50060472Y-23820097D01*
X50072400Y-23821272D01*
X50286650Y-23818200D01*
X50445400Y-23659450D01*
X50445400Y-22910200D01*
X50699400Y-22910200D01*
X50699400Y-23659450D01*
X50858150Y-23818200D01*
X51072400Y-23821272D01*
X51196882Y-23809012D01*
X51316580Y-23772702D01*
X51426894Y-23713737D01*
X51523585Y-23634385D01*
X51602937Y-23537694D01*
X51661902Y-23427380D01*
X51698212Y-23307682D01*
X51710472Y-23183200D01*
X51707400Y-23068950D01*
X51548650Y-22910200D01*
X50699400Y-22910200D01*
X50445400Y-22910200D01*
X50425400Y-22910200D01*
X50425400Y-22656200D01*
X50445400Y-22656200D01*
X50445400Y-21906950D01*
X50699400Y-21906950D01*
X50699400Y-22656200D01*
X51548650Y-22656200D01*
X51550278Y-22654572D01*
X53900186Y-22654572D01*
X53915091Y-22920486D01*
X54143466Y-23116429D01*
X54405680Y-23264053D01*
X54691656Y-23357686D01*
X54990403Y-23393728D01*
X55290441Y-23370794D01*
X55453644Y-23332736D01*
X55599204Y-23109373D01*
X54977515Y-22032576D01*
X53900186Y-22654572D01*
X51550278Y-22654572D01*
X51707400Y-22497450D01*
X51710472Y-22383200D01*
X51698212Y-22258718D01*
X51661902Y-22139020D01*
X51602937Y-22028706D01*
X51573624Y-21992987D01*
X53494846Y-21992987D01*
X53550350Y-22288737D01*
X53773186Y-22434602D01*
X54850515Y-21812606D01*
X54228826Y-20735809D01*
X53962608Y-20750186D01*
X53848047Y-20872495D01*
X53678167Y-21120868D01*
X53560007Y-21397612D01*
X53498107Y-21692091D01*
X53494846Y-21992987D01*
X51573624Y-21992987D01*
X51523585Y-21932015D01*
X51426894Y-21852663D01*
X51316580Y-21793698D01*
X51196882Y-21757388D01*
X51072400Y-21745128D01*
X50858150Y-21748200D01*
X50699400Y-21906950D01*
X50445400Y-21906950D01*
X50286650Y-21748200D01*
X50072400Y-21745128D01*
X49947918Y-21757388D01*
X49828220Y-21793698D01*
X49717906Y-21852663D01*
X49621215Y-21932015D01*
X49541863Y-22028706D01*
X49482898Y-22139020D01*
X49446588Y-22258718D01*
X49434328Y-22383200D01*
X49437377Y-22496603D01*
X49422400Y-22495128D01*
X48985383Y-22495128D01*
X49014047Y-22475975D01*
X49165175Y-22324847D01*
X49283915Y-22147140D01*
X49365704Y-21949683D01*
X49407400Y-21740063D01*
X49407400Y-21526337D01*
X49365704Y-21316717D01*
X49283915Y-21119260D01*
X49165175Y-20941553D01*
X49106822Y-20883200D01*
X49434328Y-20883200D01*
X49446588Y-21007682D01*
X49482898Y-21127380D01*
X49541863Y-21237694D01*
X49621215Y-21334385D01*
X49717906Y-21413737D01*
X49828220Y-21472702D01*
X49947918Y-21509012D01*
X50072400Y-21521272D01*
X50286650Y-21518200D01*
X50445400Y-21359450D01*
X50445400Y-20610200D01*
X50699400Y-20610200D01*
X50699400Y-21359450D01*
X50858150Y-21518200D01*
X51072400Y-21521272D01*
X51196882Y-21509012D01*
X51316580Y-21472702D01*
X51426894Y-21413737D01*
X51523585Y-21334385D01*
X51602937Y-21237694D01*
X51661902Y-21127380D01*
X51698212Y-21007682D01*
X51710472Y-20883200D01*
X51707400Y-20768950D01*
X51548650Y-20610200D01*
X50699400Y-20610200D01*
X50445400Y-20610200D01*
X49596150Y-20610200D01*
X49437400Y-20768950D01*
X49434328Y-20883200D01*
X49106822Y-20883200D01*
X49014047Y-20790425D01*
X48836340Y-20671685D01*
X48684544Y-20608809D01*
X54448796Y-20608809D01*
X55070485Y-21685606D01*
X56147814Y-21063610D01*
X56132909Y-20797696D01*
X55904534Y-20601753D01*
X55642320Y-20454129D01*
X55356344Y-20360496D01*
X55057597Y-20324454D01*
X54757559Y-20347388D01*
X54594356Y-20385446D01*
X54448796Y-20608809D01*
X48684544Y-20608809D01*
X48638883Y-20589896D01*
X48429263Y-20548200D01*
X48215537Y-20548200D01*
X48005917Y-20589896D01*
X47808460Y-20671685D01*
X47630753Y-20790425D01*
X47479625Y-20941553D01*
X47360885Y-21119260D01*
X47279096Y-21316717D01*
X47237400Y-21526337D01*
X46407400Y-21526337D01*
X46365704Y-21316717D01*
X46283915Y-21119260D01*
X46165175Y-20941553D01*
X46014047Y-20790425D01*
X45836340Y-20671685D01*
X45638883Y-20589896D01*
X45429263Y-20548200D01*
X45215537Y-20548200D01*
X45005917Y-20589896D01*
X44808460Y-20671685D01*
X44630753Y-20790425D01*
X44479625Y-20941553D01*
X44360885Y-21119260D01*
X44279096Y-21316717D01*
X44237400Y-21526337D01*
X44237400Y-21740063D01*
X44279096Y-21949683D01*
X44340489Y-22097900D01*
X44139923Y-22097900D01*
X44102937Y-22028706D01*
X44023585Y-21932015D01*
X43926894Y-21852663D01*
X43816580Y-21793698D01*
X43696882Y-21757388D01*
X43572400Y-21745128D01*
X43358150Y-21748200D01*
X43199400Y-21906950D01*
X43199400Y-22656200D01*
X43219400Y-22656200D01*
X43219400Y-22793295D01*
X43207386Y-22832900D01*
X43198541Y-22862057D01*
X43185339Y-22869114D01*
X43110906Y-22930200D01*
X42945400Y-22930200D01*
X42945400Y-22910200D01*
X42096150Y-22910200D01*
X41937400Y-23068950D01*
X41934328Y-23183200D01*
X41946588Y-23307682D01*
X41982898Y-23427380D01*
X42041863Y-23537694D01*
X42121215Y-23634385D01*
X42217906Y-23713737D01*
X42315988Y-23766164D01*
X40190537Y-25891616D01*
X40131030Y-25923423D01*
X40019112Y-26015272D01*
X39996096Y-26043317D01*
X39481114Y-26558300D01*
X37205957Y-26558300D01*
X37195537Y-26538806D01*
X37116185Y-26442115D01*
X37019494Y-26362763D01*
X36909180Y-26303798D01*
X36789482Y-26267488D01*
X36665000Y-26255228D01*
X35765000Y-26255228D01*
X35640518Y-26267488D01*
X35520820Y-26303798D01*
X35410506Y-26362763D01*
X35313815Y-26442115D01*
X35234463Y-26538806D01*
X35175498Y-26649120D01*
X35139188Y-26768818D01*
X35126928Y-26893300D01*
X35126928Y-27693300D01*
X35139188Y-27817782D01*
X35175498Y-27937480D01*
X35234463Y-28047794D01*
X35313815Y-28144485D01*
X35410506Y-28223837D01*
X35520820Y-28282802D01*
X35640518Y-28319112D01*
X35765000Y-28331372D01*
X36665000Y-28331372D01*
X36789482Y-28319112D01*
X36909180Y-28282802D01*
X37019494Y-28223837D01*
X37116185Y-28144485D01*
X37195537Y-28047794D01*
X37205957Y-28028300D01*
X39749455Y-28028300D01*
X39785560Y-28031856D01*
X39821665Y-28028300D01*
X39929645Y-28017665D01*
X40068193Y-27975637D01*
X40195880Y-27907387D01*
X40307798Y-27815538D01*
X40330818Y-27787488D01*
X40934904Y-27183403D01*
X40994409Y-27151597D01*
X41106327Y-27059748D01*
X41129348Y-27031697D01*
X42529500Y-25631545D01*
X42529500Y-25807788D01*
X42573117Y-26027067D01*
X42658676Y-26233624D01*
X42782888Y-26419520D01*
X42940980Y-26577612D01*
X43126876Y-26701824D01*
X43333433Y-26787383D01*
X43552712Y-26831000D01*
X43776288Y-26831000D01*
X43837401Y-26818844D01*
X43837400Y-29274695D01*
X43833844Y-29310800D01*
X43837400Y-29346904D01*
X43848035Y-29454884D01*
X43890063Y-29593432D01*
X43958313Y-29721119D01*
X44050162Y-29833037D01*
X44078208Y-29856054D01*
X44345982Y-30123828D01*
X44168200Y-30123828D01*
X44043718Y-30136088D01*
X43924020Y-30172398D01*
X43813706Y-30231363D01*
X43717015Y-30310715D01*
X43637663Y-30407406D01*
X43578698Y-30517720D01*
X43542388Y-30637418D01*
X43530128Y-30761900D01*
X43530128Y-32341900D01*
X43542388Y-32466382D01*
X43578698Y-32586080D01*
X43637663Y-32696394D01*
X43717015Y-32793085D01*
X43813706Y-32872437D01*
X43924020Y-32931402D01*
X44043718Y-32967712D01*
X44168200Y-32979972D01*
X44345981Y-32979972D01*
X41621508Y-35704446D01*
X41593463Y-35727462D01*
X41501614Y-35839380D01*
X41433364Y-35967067D01*
X41391335Y-36105615D01*
X41377144Y-36249700D01*
X41380701Y-36285815D01*
X41380701Y-37465628D01*
X40065400Y-37465628D01*
X39940918Y-37477888D01*
X39821220Y-37514198D01*
X39710906Y-37573163D01*
X39614215Y-37652515D01*
X39534863Y-37749206D01*
X39475898Y-37859520D01*
X39439588Y-37979218D01*
X39427328Y-38103700D01*
X39427328Y-41103700D01*
X39439588Y-41228182D01*
X39475898Y-41347880D01*
X39534863Y-41458194D01*
X39614215Y-41554885D01*
X39710906Y-41634237D01*
X39821220Y-41693202D01*
X39940918Y-41729512D01*
X40065400Y-41741772D01*
X41815400Y-41741772D01*
X41939882Y-41729512D01*
X42059580Y-41693202D01*
X42169894Y-41634237D01*
X42266585Y-41554885D01*
X42345937Y-41458194D01*
X42404902Y-41347880D01*
X42441212Y-41228182D01*
X42453472Y-41103700D01*
X42453472Y-40256565D01*
X42526020Y-40217787D01*
X42637938Y-40125938D01*
X42729787Y-40014020D01*
X42798037Y-39886333D01*
X42840065Y-39747785D01*
X42854256Y-39603700D01*
X42850700Y-39567595D01*
X42850700Y-36554146D01*
X46217393Y-33187454D01*
X46245438Y-33164438D01*
X46337287Y-33052520D01*
X46376065Y-32979972D01*
X46845800Y-32979972D01*
X46845800Y-34400453D01*
X44554408Y-36691846D01*
X44526363Y-36714862D01*
X44434514Y-36826780D01*
X44414734Y-36863786D01*
X44366264Y-36954467D01*
X44324235Y-37093015D01*
X44310044Y-37237100D01*
X44313601Y-37273215D01*
X44313600Y-45182713D01*
X38542711Y-50953602D01*
X38540812Y-50934318D01*
X38504502Y-50814620D01*
X38445537Y-50704306D01*
X38366185Y-50607615D01*
X38269494Y-50528263D01*
X38159180Y-50469298D01*
X38039482Y-50432988D01*
X37915000Y-50420728D01*
X37015000Y-50420728D01*
X36890518Y-50432988D01*
X36770820Y-50469298D01*
X36660506Y-50528263D01*
X36563815Y-50607615D01*
X36484463Y-50704306D01*
X36425498Y-50814620D01*
X36389188Y-50934318D01*
X36376928Y-51058800D01*
X36376928Y-51858800D01*
X36389188Y-51983282D01*
X36420418Y-52086235D01*
X32936554Y-55570100D01*
X32729212Y-55570100D01*
X32715746Y-55572778D01*
X32720200Y-55550388D01*
X32720200Y-55326812D01*
X32676583Y-55107533D01*
X32591024Y-54900976D01*
X32466812Y-54715080D01*
X32320200Y-54568468D01*
X32320200Y-45750046D01*
X33277396Y-44792850D01*
X33317997Y-44996967D01*
X33403556Y-45203524D01*
X33527768Y-45389420D01*
X33685860Y-45547512D01*
X33871756Y-45671724D01*
X34078313Y-45757283D01*
X34297592Y-45800900D01*
X34504933Y-45800900D01*
X34755032Y-46050999D01*
X34755033Y-47918187D01*
X34608420Y-48064800D01*
X34484208Y-48250696D01*
X34398649Y-48457253D01*
X34355032Y-48676532D01*
X34355032Y-48900108D01*
X34398649Y-49119387D01*
X34484208Y-49325944D01*
X34608420Y-49511840D01*
X34766512Y-49669932D01*
X34952408Y-49794144D01*
X35158965Y-49879703D01*
X35378244Y-49923320D01*
X35601820Y-49923320D01*
X35821099Y-49879703D01*
X36027656Y-49794144D01*
X36213552Y-49669932D01*
X36371644Y-49511840D01*
X36389042Y-49485802D01*
X36538748Y-49485802D01*
X36380000Y-49644550D01*
X36376928Y-49758800D01*
X36389188Y-49883282D01*
X36425498Y-50002980D01*
X36484463Y-50113294D01*
X36563815Y-50209985D01*
X36660506Y-50289337D01*
X36770820Y-50348302D01*
X36890518Y-50384612D01*
X37015000Y-50396872D01*
X37179250Y-50393800D01*
X37338000Y-50235050D01*
X37338000Y-49485800D01*
X37592000Y-49485800D01*
X37592000Y-50235050D01*
X37750750Y-50393800D01*
X37915000Y-50396872D01*
X38039482Y-50384612D01*
X38159180Y-50348302D01*
X38269494Y-50289337D01*
X38366185Y-50209985D01*
X38445537Y-50113294D01*
X38504502Y-50002980D01*
X38540812Y-49883282D01*
X38553072Y-49758800D01*
X38550000Y-49644550D01*
X38391250Y-49485800D01*
X37592000Y-49485800D01*
X37338000Y-49485800D01*
X37318000Y-49485800D01*
X37318000Y-49231800D01*
X37338000Y-49231800D01*
X37338000Y-48482550D01*
X37592000Y-48482550D01*
X37592000Y-49231800D01*
X38391250Y-49231800D01*
X38550000Y-49073050D01*
X38553072Y-48958800D01*
X38540812Y-48834318D01*
X38504502Y-48714620D01*
X38445537Y-48604306D01*
X38366185Y-48507615D01*
X38269494Y-48428263D01*
X38159180Y-48369298D01*
X38039482Y-48332988D01*
X37915000Y-48320728D01*
X37750750Y-48323800D01*
X37592000Y-48482550D01*
X37338000Y-48482550D01*
X37179250Y-48323800D01*
X37015000Y-48320728D01*
X36890518Y-48332988D01*
X36770820Y-48369298D01*
X36660506Y-48428263D01*
X36587557Y-48488131D01*
X36581415Y-48457253D01*
X36495856Y-48250696D01*
X36371644Y-48064800D01*
X36225032Y-47918188D01*
X36225032Y-47467761D01*
X36412573Y-47545443D01*
X36631852Y-47589060D01*
X36855428Y-47589060D01*
X37074707Y-47545443D01*
X37281264Y-47459884D01*
X37467160Y-47335672D01*
X37625252Y-47177580D01*
X37749464Y-46991684D01*
X37835023Y-46785127D01*
X37878640Y-46565848D01*
X37878640Y-46342272D01*
X37835023Y-46122993D01*
X37749464Y-45916436D01*
X37625252Y-45730540D01*
X37467160Y-45572448D01*
X37281264Y-45448236D01*
X37074707Y-45362677D01*
X36855428Y-45319060D01*
X36631852Y-45319060D01*
X36412573Y-45362677D01*
X36206016Y-45448236D01*
X36174084Y-45469572D01*
X36172369Y-45463918D01*
X36104119Y-45336232D01*
X36035285Y-45252358D01*
X36035282Y-45252355D01*
X36012269Y-45224314D01*
X35984229Y-45201302D01*
X35544380Y-44761453D01*
X35544380Y-44554112D01*
X35500763Y-44334833D01*
X35415204Y-44128276D01*
X35290992Y-43942380D01*
X35132900Y-43784288D01*
X34947004Y-43660076D01*
X34740447Y-43574517D01*
X34536330Y-43533916D01*
X37171793Y-40898454D01*
X37199838Y-40875438D01*
X37291687Y-40763520D01*
X37353454Y-40647961D01*
X37371780Y-40642402D01*
X37482094Y-40583437D01*
X37578785Y-40504085D01*
X37658137Y-40407394D01*
X37717102Y-40297080D01*
X37753412Y-40177382D01*
X37765672Y-40052900D01*
X37765672Y-39252900D01*
X37753412Y-39128418D01*
X37717102Y-39008720D01*
X37658137Y-38898406D01*
X37578785Y-38801715D01*
X37482094Y-38722363D01*
X37371780Y-38663398D01*
X37252082Y-38627088D01*
X37127600Y-38614828D01*
X36227600Y-38614828D01*
X36103118Y-38627088D01*
X35983420Y-38663398D01*
X35873106Y-38722363D01*
X35776415Y-38801715D01*
X35697063Y-38898406D01*
X35638098Y-39008720D01*
X35601788Y-39128418D01*
X35589528Y-39252900D01*
X35589528Y-40052900D01*
X35601788Y-40177382D01*
X35638098Y-40297080D01*
X35657665Y-40333688D01*
X31091008Y-44900346D01*
X31062962Y-44923363D01*
X30971113Y-45035281D01*
X30902863Y-45162968D01*
X30884254Y-45224314D01*
X30860835Y-45301515D01*
X30846644Y-45445600D01*
X30850200Y-45481705D01*
X30850201Y-51052741D01*
X30842837Y-51028467D01*
X30774587Y-50900780D01*
X30758014Y-50880587D01*
X30705753Y-50816906D01*
X30705750Y-50816903D01*
X30682737Y-50788862D01*
X30654697Y-50765850D01*
X28096501Y-48207655D01*
X28131200Y-48033211D01*
X28131200Y-47760389D01*
X28077975Y-47492811D01*
X27973571Y-47240757D01*
X27821999Y-47013914D01*
X27629086Y-46821001D01*
X27402243Y-46669429D01*
X27150189Y-46565025D01*
X26882611Y-46511800D01*
X26609789Y-46511800D01*
X26342211Y-46565025D01*
X26090157Y-46669429D01*
X25863314Y-46821001D01*
X25670401Y-47013914D01*
X25518829Y-47240757D01*
X25414425Y-47492811D01*
X25361200Y-47760389D01*
X25361200Y-48033211D01*
X25414425Y-48300789D01*
X25518829Y-48552843D01*
X25670401Y-48779686D01*
X25863314Y-48972599D01*
X26090157Y-49124171D01*
X26342211Y-49228575D01*
X26609789Y-49281800D01*
X26882611Y-49281800D01*
X27057055Y-49247101D01*
X29425500Y-51615547D01*
X29425501Y-55473385D01*
X29425342Y-55474996D01*
X27716016Y-53765669D01*
X27821999Y-53659686D01*
X27973571Y-53432843D01*
X28077975Y-53180789D01*
X28131200Y-52913211D01*
X28131200Y-52640389D01*
X28077975Y-52372811D01*
X27973571Y-52120757D01*
X27821999Y-51893914D01*
X27629086Y-51701001D01*
X27402243Y-51549429D01*
X27150189Y-51445025D01*
X26882611Y-51391800D01*
X26609789Y-51391800D01*
X26342211Y-51445025D01*
X26090157Y-51549429D01*
X25863314Y-51701001D01*
X25670401Y-51893914D01*
X25518829Y-52120757D01*
X25414425Y-52372811D01*
X25361200Y-52640389D01*
X25361200Y-52913211D01*
X25414425Y-53180789D01*
X25518829Y-53432843D01*
X25670401Y-53659686D01*
X25863314Y-53852599D01*
X26019635Y-53957050D01*
X26021835Y-53979385D01*
X26045523Y-54057471D01*
X26063864Y-54117933D01*
X26132114Y-54245620D01*
X26223963Y-54357538D01*
X26252008Y-54380554D01*
X34860346Y-62988893D01*
X34883362Y-63016938D01*
X34995280Y-63108787D01*
X35122967Y-63177037D01*
X35258729Y-63218220D01*
X35261515Y-63219065D01*
X35405600Y-63233256D01*
X35441705Y-63229700D01*
X37351768Y-63229700D01*
X37498380Y-63376312D01*
X37684276Y-63500524D01*
X37890833Y-63586083D01*
X38110112Y-63629700D01*
X38333688Y-63629700D01*
X38552967Y-63586083D01*
X38759524Y-63500524D01*
X38945420Y-63376312D01*
X39103512Y-63218220D01*
X39227724Y-63032324D01*
X39313283Y-62825767D01*
X39328533Y-62749100D01*
X53815331Y-62749100D01*
X53784744Y-62814148D01*
X53718477Y-63081235D01*
X53705590Y-63356117D01*
X53746578Y-63628233D01*
X53839864Y-63887123D01*
X53901844Y-64003080D01*
X54141935Y-64070060D01*
X54927895Y-63284100D01*
X54913753Y-63269958D01*
X55093358Y-63090353D01*
X55107500Y-63104495D01*
X55121643Y-63090353D01*
X55301248Y-63269958D01*
X55287105Y-63284100D01*
X55301248Y-63298243D01*
X55121643Y-63477848D01*
X55107500Y-63463705D01*
X54321540Y-64249665D01*
X54388520Y-64489756D01*
X54524260Y-64553585D01*
X54445773Y-64586095D01*
X54216965Y-64738980D01*
X54022380Y-64933565D01*
X53869495Y-65162373D01*
X53764186Y-65416610D01*
X53710500Y-65686508D01*
X53710500Y-65961692D01*
X53764186Y-66231590D01*
X53869495Y-66485827D01*
X54022380Y-66714635D01*
X54216965Y-66909220D01*
X54445773Y-67062105D01*
X54523015Y-67094100D01*
X54445773Y-67126095D01*
X54216965Y-67278980D01*
X54022380Y-67473565D01*
X53869495Y-67702373D01*
X53764186Y-67956610D01*
X53710500Y-68226508D01*
X53710500Y-68501692D01*
X53764186Y-68771590D01*
X53869495Y-69025827D01*
X54022380Y-69254635D01*
X54216965Y-69449220D01*
X54445773Y-69602105D01*
X54700010Y-69707414D01*
X54969908Y-69761100D01*
X55245092Y-69761100D01*
X55514990Y-69707414D01*
X55769227Y-69602105D01*
X55868900Y-69535505D01*
X55868900Y-71456849D01*
X55802442Y-71470068D01*
X55532189Y-71582010D01*
X55288968Y-71744525D01*
X55082125Y-71951368D01*
X54919610Y-72194589D01*
X54807668Y-72464842D01*
X54750600Y-72751740D01*
X54750600Y-73044260D01*
X54807668Y-73331158D01*
X54919610Y-73601411D01*
X55082125Y-73844632D01*
X55288968Y-74051475D01*
X55463360Y-74168000D01*
X55288968Y-74284525D01*
X55082125Y-74491368D01*
X54919610Y-74734589D01*
X54807668Y-75004842D01*
X54750600Y-75291740D01*
X54750600Y-75584260D01*
X54807668Y-75871158D01*
X54919610Y-76141411D01*
X55082125Y-76384632D01*
X55288968Y-76591475D01*
X55471134Y-76713195D01*
X55354245Y-76782822D01*
X55138012Y-76977731D01*
X54963959Y-77211080D01*
X54838775Y-77473901D01*
X54794124Y-77621110D01*
X54915445Y-77851000D01*
X56108600Y-77851000D01*
X56108600Y-77831000D01*
X56362600Y-77831000D01*
X56362600Y-77851000D01*
X56382600Y-77851000D01*
X56382600Y-78105000D01*
X56362600Y-78105000D01*
X56362600Y-78125000D01*
X56108600Y-78125000D01*
X56108600Y-78105000D01*
X54915445Y-78105000D01*
X54794124Y-78334890D01*
X54838775Y-78482099D01*
X54963959Y-78744920D01*
X55138012Y-78978269D01*
X55222066Y-79054034D01*
X55141420Y-79078498D01*
X55031106Y-79137463D01*
X54934415Y-79216815D01*
X54855063Y-79313506D01*
X54796098Y-79423820D01*
X54759788Y-79543518D01*
X54747528Y-79668000D01*
X54747528Y-81368000D01*
X54759788Y-81492482D01*
X54796098Y-81612180D01*
X54855063Y-81722494D01*
X54934415Y-81819185D01*
X55031106Y-81898537D01*
X55141420Y-81957502D01*
X55261118Y-81993812D01*
X55385600Y-82006072D01*
X56535101Y-82006072D01*
X51840500Y-86700674D01*
X51840500Y-86554140D01*
X51783432Y-86267242D01*
X51671490Y-85996989D01*
X51508975Y-85753768D01*
X51302132Y-85546925D01*
X51058911Y-85384410D01*
X50788658Y-85272468D01*
X50501760Y-85215400D01*
X50209240Y-85215400D01*
X49922342Y-85272468D01*
X49721475Y-85355669D01*
X49699397Y-85337550D01*
X48849258Y-84487412D01*
X48826238Y-84459362D01*
X48714320Y-84367513D01*
X48586633Y-84299263D01*
X48448085Y-84257235D01*
X48340105Y-84246600D01*
X48304000Y-84243044D01*
X48267895Y-84246600D01*
X40442772Y-84246600D01*
X40442772Y-82906400D01*
X40430512Y-82781918D01*
X40394202Y-82662220D01*
X40335237Y-82551906D01*
X40255885Y-82455215D01*
X40159194Y-82375863D01*
X40048880Y-82316898D01*
X39929182Y-82280588D01*
X39804700Y-82268328D01*
X38604700Y-82268328D01*
X38480218Y-82280588D01*
X38360520Y-82316898D01*
X38250206Y-82375863D01*
X38204700Y-82413209D01*
X38159194Y-82375863D01*
X38048880Y-82316898D01*
X37929182Y-82280588D01*
X37804700Y-82268328D01*
X36604700Y-82268328D01*
X36480218Y-82280588D01*
X36360520Y-82316898D01*
X36250206Y-82375863D01*
X36204700Y-82413209D01*
X36159194Y-82375863D01*
X36048880Y-82316898D01*
X35929182Y-82280588D01*
X35804700Y-82268328D01*
X35240000Y-82268328D01*
X35240000Y-82091612D01*
X35196383Y-81872333D01*
X35110824Y-81665776D01*
X34986612Y-81479880D01*
X34828520Y-81321788D01*
X34642624Y-81197576D01*
X34436067Y-81112017D01*
X34216788Y-81068400D01*
X33993212Y-81068400D01*
X33773933Y-81112017D01*
X33567376Y-81197576D01*
X33381480Y-81321788D01*
X33223388Y-81479880D01*
X33099176Y-81665776D01*
X33013617Y-81872333D01*
X32970000Y-82091612D01*
X32970000Y-82268328D01*
X32840000Y-82268328D01*
X32840000Y-80754213D01*
X43664192Y-80754213D01*
X43759956Y-81018614D01*
X44049571Y-81159504D01*
X44361108Y-81241184D01*
X44682595Y-81260518D01*
X45001675Y-81216761D01*
X45306088Y-81111595D01*
X45480044Y-81018614D01*
X45575808Y-80754213D01*
X50164192Y-80754213D01*
X50259956Y-81018614D01*
X50549571Y-81159504D01*
X50861108Y-81241184D01*
X51182595Y-81260518D01*
X51501675Y-81216761D01*
X51806088Y-81111595D01*
X51980044Y-81018614D01*
X52075808Y-80754213D01*
X51120000Y-79798405D01*
X50164192Y-80754213D01*
X45575808Y-80754213D01*
X44620000Y-79798405D01*
X43664192Y-80754213D01*
X32840000Y-80754213D01*
X32840000Y-79789946D01*
X32948551Y-79681395D01*
X42978282Y-79681395D01*
X43022039Y-80000475D01*
X43127205Y-80304888D01*
X43220186Y-80478844D01*
X43484587Y-80574608D01*
X44440395Y-79618800D01*
X44799605Y-79618800D01*
X45755413Y-80574608D01*
X46019814Y-80478844D01*
X46160704Y-80189229D01*
X46242384Y-79877692D01*
X46254189Y-79681395D01*
X49478282Y-79681395D01*
X49522039Y-80000475D01*
X49627205Y-80304888D01*
X49720186Y-80478844D01*
X49984587Y-80574608D01*
X50940395Y-79618800D01*
X51299605Y-79618800D01*
X52255413Y-80574608D01*
X52519814Y-80478844D01*
X52660704Y-80189229D01*
X52742384Y-79877692D01*
X52761718Y-79556205D01*
X52717961Y-79237125D01*
X52612795Y-78932712D01*
X52519814Y-78758756D01*
X52255413Y-78662992D01*
X51299605Y-79618800D01*
X50940395Y-79618800D01*
X49984587Y-78662992D01*
X49720186Y-78758756D01*
X49579296Y-79048371D01*
X49497616Y-79359908D01*
X49478282Y-79681395D01*
X46254189Y-79681395D01*
X46261718Y-79556205D01*
X46217961Y-79237125D01*
X46112795Y-78932712D01*
X46019814Y-78758756D01*
X45755413Y-78662992D01*
X44799605Y-79618800D01*
X44440395Y-79618800D01*
X43484587Y-78662992D01*
X43220186Y-78758756D01*
X43079296Y-79048371D01*
X42997616Y-79359908D01*
X42978282Y-79681395D01*
X32948551Y-79681395D01*
X34146559Y-78483387D01*
X43664192Y-78483387D01*
X44620000Y-79439195D01*
X45575808Y-78483387D01*
X50164192Y-78483387D01*
X51120000Y-79439195D01*
X52075808Y-78483387D01*
X51980044Y-78218986D01*
X51690429Y-78078096D01*
X51378892Y-77996416D01*
X51057405Y-77977082D01*
X50738325Y-78020839D01*
X50433912Y-78126005D01*
X50259956Y-78218986D01*
X50164192Y-78483387D01*
X45575808Y-78483387D01*
X45480044Y-78218986D01*
X45190429Y-78078096D01*
X44878892Y-77996416D01*
X44557405Y-77977082D01*
X44238325Y-78020839D01*
X43933912Y-78126005D01*
X43759956Y-78218986D01*
X43664192Y-78483387D01*
X34146559Y-78483387D01*
X37672179Y-74957767D01*
X42985000Y-74957767D01*
X42985000Y-75279833D01*
X43047832Y-75595712D01*
X43171082Y-75893263D01*
X43350013Y-76161052D01*
X43577748Y-76388787D01*
X43845537Y-76567718D01*
X44143088Y-76690968D01*
X44458967Y-76753800D01*
X44781033Y-76753800D01*
X45096912Y-76690968D01*
X45394463Y-76567718D01*
X45662252Y-76388787D01*
X45889987Y-76161052D01*
X46068918Y-75893263D01*
X46085264Y-75853800D01*
X49654736Y-75853800D01*
X49671082Y-75893263D01*
X49850013Y-76161052D01*
X50077748Y-76388787D01*
X50345537Y-76567718D01*
X50643088Y-76690968D01*
X50958967Y-76753800D01*
X51281033Y-76753800D01*
X51596912Y-76690968D01*
X51894463Y-76567718D01*
X52162252Y-76388787D01*
X52389987Y-76161052D01*
X52568918Y-75893263D01*
X52692168Y-75595712D01*
X52755000Y-75279833D01*
X52755000Y-74957767D01*
X52692168Y-74641888D01*
X52568918Y-74344337D01*
X52389987Y-74076548D01*
X52162252Y-73848813D01*
X51894463Y-73669882D01*
X51596912Y-73546632D01*
X51281033Y-73483800D01*
X50958967Y-73483800D01*
X50643088Y-73546632D01*
X50345537Y-73669882D01*
X50077748Y-73848813D01*
X49850013Y-74076548D01*
X49671082Y-74344337D01*
X49654736Y-74383800D01*
X46085264Y-74383800D01*
X46068918Y-74344337D01*
X45889987Y-74076548D01*
X45662252Y-73848813D01*
X45394463Y-73669882D01*
X45096912Y-73546632D01*
X44781033Y-73483800D01*
X44458967Y-73483800D01*
X44143088Y-73546632D01*
X43845537Y-73669882D01*
X43577748Y-73848813D01*
X43350013Y-74076548D01*
X43171082Y-74344337D01*
X43047832Y-74641888D01*
X42985000Y-74957767D01*
X37672179Y-74957767D01*
X40692547Y-71937400D01*
X40899888Y-71937400D01*
X41119167Y-71893783D01*
X41325724Y-71808224D01*
X41511620Y-71684012D01*
X41669712Y-71525920D01*
X41793924Y-71340024D01*
X41879483Y-71133467D01*
X41923100Y-70914188D01*
X41923100Y-70690612D01*
X41879483Y-70471333D01*
X41793924Y-70264776D01*
X41669712Y-70078880D01*
X41511620Y-69920788D01*
X41325724Y-69796576D01*
X41119167Y-69711017D01*
X40899888Y-69667400D01*
X40676312Y-69667400D01*
X40457033Y-69711017D01*
X40297225Y-69777212D01*
X40335237Y-69730894D01*
X40394202Y-69620580D01*
X40430512Y-69500882D01*
X40442772Y-69376400D01*
X40439700Y-68812150D01*
X40280950Y-68653400D01*
X39331700Y-68653400D01*
X39331700Y-69852650D01*
X39490450Y-70011400D01*
X39804700Y-70014472D01*
X39929182Y-70002212D01*
X40006658Y-69978710D01*
X39906488Y-70078880D01*
X39782276Y-70264776D01*
X39696717Y-70471333D01*
X39653100Y-70690612D01*
X39653100Y-70897953D01*
X31610808Y-78940246D01*
X31582763Y-78963262D01*
X31490914Y-79075180D01*
X31457623Y-79137463D01*
X31422664Y-79202867D01*
X31380635Y-79341415D01*
X31366444Y-79485500D01*
X31370001Y-79521615D01*
X31370000Y-82268328D01*
X30604700Y-82268328D01*
X30480218Y-82280588D01*
X30360520Y-82316898D01*
X30250206Y-82375863D01*
X30204700Y-82413209D01*
X30159194Y-82375863D01*
X30048880Y-82316898D01*
X29929182Y-82280588D01*
X29804700Y-82268328D01*
X28604700Y-82268328D01*
X28480218Y-82280588D01*
X28360520Y-82316898D01*
X28250206Y-82375863D01*
X28204700Y-82413209D01*
X28159194Y-82375863D01*
X28048880Y-82316898D01*
X27929182Y-82280588D01*
X27804700Y-82268328D01*
X27490450Y-82271400D01*
X27331700Y-82430150D01*
X27331700Y-83629400D01*
X27351700Y-83629400D01*
X27351700Y-83883400D01*
X27331700Y-83883400D01*
X27331700Y-83903400D01*
X27077700Y-83903400D01*
X27077700Y-83883400D01*
X27057700Y-83883400D01*
X27057700Y-83629400D01*
X27077700Y-83629400D01*
X27077700Y-82430150D01*
X26918950Y-82271400D01*
X26604700Y-82268328D01*
X26480218Y-82280588D01*
X26360520Y-82316898D01*
X26250206Y-82375863D01*
X26204700Y-82413209D01*
X26159194Y-82375863D01*
X26048880Y-82316898D01*
X25929182Y-82280588D01*
X25804700Y-82268328D01*
X24604700Y-82268328D01*
X24480218Y-82280588D01*
X24360520Y-82316898D01*
X24250206Y-82375863D01*
X24153515Y-82455215D01*
X24074163Y-82551906D01*
X24015198Y-82662220D01*
X23978888Y-82781918D01*
X23966628Y-82906400D01*
X23966628Y-84606400D01*
X23978888Y-84730882D01*
X24015198Y-84850580D01*
X24074163Y-84960894D01*
X24153515Y-85057585D01*
X24169701Y-85070868D01*
X24169701Y-85155863D01*
X24164694Y-85206700D01*
X24184677Y-85409595D01*
X24243860Y-85604693D01*
X24339966Y-85784497D01*
X24420641Y-85882799D01*
X24469305Y-85942096D01*
X24508792Y-85974502D01*
X24761991Y-86227701D01*
X24636411Y-86279718D01*
X24356339Y-86466856D01*
X24118156Y-86705039D01*
X23931018Y-86985111D01*
X23802114Y-87296311D01*
X23736400Y-87626680D01*
X23736400Y-87963520D01*
X23802114Y-88293889D01*
X23931018Y-88605089D01*
X24118156Y-88885161D01*
X24356339Y-89123344D01*
X24636411Y-89310482D01*
X24947611Y-89439386D01*
X25277980Y-89505100D01*
X25614820Y-89505100D01*
X25945189Y-89439386D01*
X26256389Y-89310482D01*
X26536461Y-89123344D01*
X26774644Y-88885161D01*
X26961782Y-88605089D01*
X27074228Y-88333622D01*
X27074228Y-88538420D01*
X27086488Y-88662902D01*
X27122798Y-88782600D01*
X27181763Y-88892914D01*
X27261115Y-88989605D01*
X27357806Y-89068957D01*
X27468120Y-89127922D01*
X27587818Y-89164232D01*
X27712300Y-89176492D01*
X29412300Y-89176492D01*
X29536782Y-89164232D01*
X29656480Y-89127922D01*
X29766794Y-89068957D01*
X29863485Y-88989605D01*
X29942837Y-88892914D01*
X30001802Y-88782600D01*
X30038112Y-88662902D01*
X30050372Y-88538420D01*
X30050372Y-87550400D01*
X36167428Y-87550400D01*
X36179688Y-87674882D01*
X36215998Y-87794580D01*
X36274963Y-87904894D01*
X36354315Y-88001585D01*
X36451006Y-88080937D01*
X36561320Y-88139902D01*
X36681018Y-88176212D01*
X36805500Y-88188472D01*
X37369750Y-88185400D01*
X37528500Y-88026650D01*
X37528500Y-86827400D01*
X36329250Y-86827400D01*
X36170500Y-86986150D01*
X36167428Y-87550400D01*
X30050372Y-87550400D01*
X30050372Y-86838420D01*
X30038112Y-86713938D01*
X30001802Y-86594240D01*
X29942837Y-86483926D01*
X29863485Y-86387235D01*
X29766794Y-86307883D01*
X29656480Y-86248918D01*
X29536782Y-86212608D01*
X29412300Y-86200348D01*
X29127400Y-86200348D01*
X29127400Y-86194938D01*
X29132407Y-86144100D01*
X29112424Y-85941205D01*
X29053241Y-85746107D01*
X28957134Y-85566303D01*
X28827796Y-85408704D01*
X28670197Y-85279366D01*
X28604915Y-85244472D01*
X29765826Y-85244472D01*
X29997141Y-85475787D01*
X30020162Y-85503838D01*
X30132080Y-85595687D01*
X30259767Y-85663937D01*
X30356286Y-85693216D01*
X30398314Y-85705965D01*
X30542399Y-85720156D01*
X30578504Y-85716600D01*
X36182515Y-85716600D01*
X36179688Y-85725918D01*
X36167428Y-85850400D01*
X36170500Y-86414650D01*
X36329250Y-86573400D01*
X37528500Y-86573400D01*
X37528500Y-86553400D01*
X37782500Y-86553400D01*
X37782500Y-86573400D01*
X37802500Y-86573400D01*
X37802500Y-86827400D01*
X37782500Y-86827400D01*
X37782500Y-88026650D01*
X37941250Y-88185400D01*
X38505500Y-88188472D01*
X38629982Y-88176212D01*
X38749680Y-88139902D01*
X38859994Y-88080937D01*
X38956685Y-88001585D01*
X39036037Y-87904894D01*
X39095002Y-87794580D01*
X39117013Y-87722020D01*
X39248868Y-87853875D01*
X39492089Y-88016390D01*
X39762342Y-88128332D01*
X40049240Y-88185400D01*
X40341760Y-88185400D01*
X40610801Y-88131884D01*
X40610801Y-88530825D01*
X40607244Y-88566940D01*
X40621435Y-88711025D01*
X40643148Y-88782600D01*
X40663464Y-88849573D01*
X40731714Y-88977260D01*
X40823563Y-89089178D01*
X40851608Y-89112194D01*
X41265681Y-89526267D01*
X41288702Y-89554318D01*
X41326352Y-89585216D01*
X23370380Y-89525263D01*
X23344859Y-69376400D01*
X23966628Y-69376400D01*
X23978888Y-69500882D01*
X24015198Y-69620580D01*
X24074163Y-69730894D01*
X24153515Y-69827585D01*
X24250206Y-69906937D01*
X24360520Y-69965902D01*
X24480218Y-70002212D01*
X24604700Y-70014472D01*
X24918950Y-70011400D01*
X25077700Y-69852650D01*
X25077700Y-68653400D01*
X24128450Y-68653400D01*
X23969700Y-68812150D01*
X23966628Y-69376400D01*
X23344859Y-69376400D01*
X23342706Y-67676400D01*
X23966628Y-67676400D01*
X23969700Y-68240650D01*
X24128450Y-68399400D01*
X25077700Y-68399400D01*
X25077700Y-67200150D01*
X25331700Y-67200150D01*
X25331700Y-68399400D01*
X25351700Y-68399400D01*
X25351700Y-68653400D01*
X25331700Y-68653400D01*
X25331700Y-69852650D01*
X25490450Y-70011400D01*
X25804700Y-70014472D01*
X25929182Y-70002212D01*
X26048880Y-69965902D01*
X26159194Y-69906937D01*
X26204700Y-69869591D01*
X26250206Y-69906937D01*
X26360520Y-69965902D01*
X26480218Y-70002212D01*
X26604700Y-70014472D01*
X27804700Y-70014472D01*
X27929182Y-70002212D01*
X28048880Y-69965902D01*
X28159194Y-69906937D01*
X28204700Y-69869591D01*
X28250206Y-69906937D01*
X28360520Y-69965902D01*
X28480218Y-70002212D01*
X28604700Y-70014472D01*
X29804700Y-70014472D01*
X29929182Y-70002212D01*
X30048880Y-69965902D01*
X30159194Y-69906937D01*
X30204700Y-69869591D01*
X30250206Y-69906937D01*
X30360520Y-69965902D01*
X30480218Y-70002212D01*
X30604700Y-70014472D01*
X31804700Y-70014472D01*
X31929182Y-70002212D01*
X32048880Y-69965902D01*
X32159194Y-69906937D01*
X32204700Y-69869591D01*
X32250206Y-69906937D01*
X32360520Y-69965902D01*
X32480218Y-70002212D01*
X32604700Y-70014472D01*
X33804700Y-70014472D01*
X33929182Y-70002212D01*
X34048880Y-69965902D01*
X34159194Y-69906937D01*
X34204700Y-69869591D01*
X34250206Y-69906937D01*
X34360520Y-69965902D01*
X34480218Y-70002212D01*
X34604700Y-70014472D01*
X35804700Y-70014472D01*
X35929182Y-70002212D01*
X36048880Y-69965902D01*
X36159194Y-69906937D01*
X36204700Y-69869591D01*
X36250206Y-69906937D01*
X36360520Y-69965902D01*
X36480218Y-70002212D01*
X36604700Y-70014472D01*
X37804700Y-70014472D01*
X37929182Y-70002212D01*
X38048880Y-69965902D01*
X38159194Y-69906937D01*
X38204700Y-69869591D01*
X38250206Y-69906937D01*
X38360520Y-69965902D01*
X38480218Y-70002212D01*
X38604700Y-70014472D01*
X38918950Y-70011400D01*
X39077700Y-69852650D01*
X39077700Y-68653400D01*
X39057700Y-68653400D01*
X39057700Y-68399400D01*
X39077700Y-68399400D01*
X39077700Y-67200150D01*
X39331700Y-67200150D01*
X39331700Y-68399400D01*
X40280950Y-68399400D01*
X40439700Y-68240650D01*
X40442772Y-67676400D01*
X40430512Y-67551918D01*
X40394202Y-67432220D01*
X40335237Y-67321906D01*
X40255885Y-67225215D01*
X40159194Y-67145863D01*
X40048880Y-67086898D01*
X39929182Y-67050588D01*
X39804700Y-67038328D01*
X39490450Y-67041400D01*
X39331700Y-67200150D01*
X39077700Y-67200150D01*
X38918950Y-67041400D01*
X38604700Y-67038328D01*
X38480218Y-67050588D01*
X38360520Y-67086898D01*
X38250206Y-67145863D01*
X38204700Y-67183209D01*
X38159194Y-67145863D01*
X38048880Y-67086898D01*
X37929182Y-67050588D01*
X37804700Y-67038328D01*
X36604700Y-67038328D01*
X36480218Y-67050588D01*
X36360520Y-67086898D01*
X36250206Y-67145863D01*
X36204700Y-67183209D01*
X36159194Y-67145863D01*
X36048880Y-67086898D01*
X35929182Y-67050588D01*
X35804700Y-67038328D01*
X34604700Y-67038328D01*
X34480218Y-67050588D01*
X34360520Y-67086898D01*
X34250206Y-67145863D01*
X34204700Y-67183209D01*
X34159194Y-67145863D01*
X34048880Y-67086898D01*
X33929182Y-67050588D01*
X33860502Y-67043824D01*
X33818787Y-66965780D01*
X33726938Y-66853862D01*
X33698893Y-66830846D01*
X33599400Y-66731353D01*
X33599400Y-66628412D01*
X33555783Y-66409133D01*
X33470224Y-66202576D01*
X33346012Y-66016680D01*
X33187920Y-65858588D01*
X33117927Y-65811820D01*
X33177647Y-65752100D01*
X33384988Y-65752100D01*
X33604267Y-65708483D01*
X33810824Y-65622924D01*
X33996720Y-65498712D01*
X34154812Y-65340620D01*
X34279024Y-65154724D01*
X34364583Y-64948167D01*
X34408200Y-64728888D01*
X34408200Y-64505312D01*
X34364583Y-64286033D01*
X34279024Y-64079476D01*
X34176568Y-63926139D01*
X34270524Y-63785524D01*
X34356083Y-63578967D01*
X34399700Y-63359688D01*
X34399700Y-63136112D01*
X34356083Y-62916833D01*
X34270524Y-62710276D01*
X34146312Y-62524380D01*
X33988220Y-62366288D01*
X33802324Y-62242076D01*
X33595767Y-62156517D01*
X33376488Y-62112900D01*
X33152912Y-62112900D01*
X32933633Y-62156517D01*
X32727076Y-62242076D01*
X32541180Y-62366288D01*
X32394568Y-62512900D01*
X31368994Y-62512900D01*
X31332899Y-62509345D01*
X31296804Y-62512900D01*
X31296795Y-62512900D01*
X31188815Y-62523535D01*
X31050267Y-62565563D01*
X30922580Y-62633813D01*
X30810662Y-62725662D01*
X30787646Y-62753707D01*
X26710508Y-66830846D01*
X26682463Y-66853862D01*
X26590614Y-66965780D01*
X26549705Y-67042316D01*
X26548899Y-67043824D01*
X26480218Y-67050588D01*
X26360520Y-67086898D01*
X26250206Y-67145863D01*
X26204700Y-67183209D01*
X26159194Y-67145863D01*
X26048880Y-67086898D01*
X25929182Y-67050588D01*
X25804700Y-67038328D01*
X25490450Y-67041400D01*
X25331700Y-67200150D01*
X25077700Y-67200150D01*
X24918950Y-67041400D01*
X24604700Y-67038328D01*
X24480218Y-67050588D01*
X24360520Y-67086898D01*
X24250206Y-67145863D01*
X24153515Y-67225215D01*
X24074163Y-67321906D01*
X24015198Y-67432220D01*
X23978888Y-67551918D01*
X23966628Y-67676400D01*
X23342706Y-67676400D01*
X23308860Y-40954908D01*
X26901400Y-40954908D01*
X26901400Y-41230092D01*
X26955086Y-41499990D01*
X27060395Y-41754227D01*
X27213280Y-41983035D01*
X27407865Y-42177620D01*
X27636673Y-42330505D01*
X27890910Y-42435814D01*
X28160808Y-42489500D01*
X28435992Y-42489500D01*
X28705890Y-42435814D01*
X28960127Y-42330505D01*
X29188935Y-42177620D01*
X29383520Y-41983035D01*
X29536405Y-41754227D01*
X29641714Y-41499990D01*
X29695400Y-41230092D01*
X29695400Y-40954908D01*
X29641714Y-40685010D01*
X29536405Y-40430773D01*
X29383520Y-40201965D01*
X29188935Y-40007380D01*
X28960127Y-39854495D01*
X28883805Y-39822881D01*
X28891423Y-39820136D01*
X29007380Y-39758156D01*
X29074360Y-39518065D01*
X28288400Y-38732105D01*
X27502440Y-39518065D01*
X27569420Y-39758156D01*
X27709843Y-39824187D01*
X27636673Y-39854495D01*
X27407865Y-40007380D01*
X27213280Y-40201965D01*
X27060395Y-40430773D01*
X26955086Y-40685010D01*
X26901400Y-40954908D01*
X23308860Y-40954908D01*
X23305908Y-38624517D01*
X26886490Y-38624517D01*
X26927478Y-38896633D01*
X27020764Y-39155523D01*
X27082744Y-39271480D01*
X27322835Y-39338460D01*
X28108795Y-38552500D01*
X28468005Y-38552500D01*
X29253965Y-39338460D01*
X29494056Y-39271480D01*
X29611156Y-39022452D01*
X29677423Y-38755365D01*
X29690310Y-38480483D01*
X29649322Y-38208367D01*
X29557270Y-37952900D01*
X35589528Y-37952900D01*
X35601788Y-38077382D01*
X35638098Y-38197080D01*
X35697063Y-38307394D01*
X35776415Y-38404085D01*
X35873106Y-38483437D01*
X35983420Y-38542402D01*
X36103118Y-38578712D01*
X36227600Y-38590972D01*
X36391850Y-38587900D01*
X36550600Y-38429150D01*
X36550600Y-37679900D01*
X36804600Y-37679900D01*
X36804600Y-38429150D01*
X36963350Y-38587900D01*
X37127600Y-38590972D01*
X37252082Y-38578712D01*
X37371780Y-38542402D01*
X37482094Y-38483437D01*
X37578785Y-38404085D01*
X37658137Y-38307394D01*
X37717102Y-38197080D01*
X37753412Y-38077382D01*
X37765672Y-37952900D01*
X37762600Y-37838650D01*
X37603850Y-37679900D01*
X36804600Y-37679900D01*
X36550600Y-37679900D01*
X35751350Y-37679900D01*
X35592600Y-37838650D01*
X35589528Y-37952900D01*
X29557270Y-37952900D01*
X29556036Y-37949477D01*
X29494056Y-37833520D01*
X29253965Y-37766540D01*
X28468005Y-38552500D01*
X28108795Y-38552500D01*
X27322835Y-37766540D01*
X27082744Y-37833520D01*
X26965644Y-38082548D01*
X26899377Y-38349635D01*
X26886490Y-38624517D01*
X23305908Y-38624517D01*
X23304594Y-37586935D01*
X27502440Y-37586935D01*
X28288400Y-38372895D01*
X29074360Y-37586935D01*
X29007380Y-37346844D01*
X28758352Y-37229744D01*
X28491265Y-37163477D01*
X28265656Y-37152900D01*
X35589528Y-37152900D01*
X35592600Y-37267150D01*
X35751350Y-37425900D01*
X36550600Y-37425900D01*
X36550600Y-36676650D01*
X36804600Y-36676650D01*
X36804600Y-37425900D01*
X37603850Y-37425900D01*
X37762600Y-37267150D01*
X37765672Y-37152900D01*
X37753412Y-37028418D01*
X37717102Y-36908720D01*
X37658137Y-36798406D01*
X37578785Y-36701715D01*
X37482094Y-36622363D01*
X37371780Y-36563398D01*
X37252082Y-36527088D01*
X37127600Y-36514828D01*
X36963350Y-36517900D01*
X36804600Y-36676650D01*
X36550600Y-36676650D01*
X36391850Y-36517900D01*
X36227600Y-36514828D01*
X36103118Y-36527088D01*
X35983420Y-36563398D01*
X35873106Y-36622363D01*
X35776415Y-36701715D01*
X35697063Y-36798406D01*
X35638098Y-36908720D01*
X35601788Y-37028418D01*
X35589528Y-37152900D01*
X28265656Y-37152900D01*
X28216383Y-37150590D01*
X27944267Y-37191578D01*
X27685377Y-37284864D01*
X27569420Y-37346844D01*
X27502440Y-37586935D01*
X23304594Y-37586935D01*
X23297950Y-32341900D01*
X38530128Y-32341900D01*
X38542388Y-32466382D01*
X38578698Y-32586080D01*
X38637663Y-32696394D01*
X38717015Y-32793085D01*
X38813706Y-32872437D01*
X38924020Y-32931402D01*
X39043718Y-32967712D01*
X39168200Y-32979972D01*
X40437450Y-32976900D01*
X40596200Y-32818150D01*
X40596200Y-31678900D01*
X40850200Y-31678900D01*
X40850200Y-32818150D01*
X41008950Y-32976900D01*
X42278200Y-32979972D01*
X42402682Y-32967712D01*
X42522380Y-32931402D01*
X42632694Y-32872437D01*
X42729385Y-32793085D01*
X42808737Y-32696394D01*
X42867702Y-32586080D01*
X42904012Y-32466382D01*
X42916272Y-32341900D01*
X42913200Y-31837650D01*
X42754450Y-31678900D01*
X40850200Y-31678900D01*
X40596200Y-31678900D01*
X38691950Y-31678900D01*
X38533200Y-31837650D01*
X38530128Y-32341900D01*
X23297950Y-32341900D01*
X23294130Y-29326708D01*
X26886100Y-29326708D01*
X26886100Y-29601892D01*
X26939786Y-29871790D01*
X27045095Y-30126027D01*
X27197980Y-30354835D01*
X27392565Y-30549420D01*
X27621373Y-30702305D01*
X27875610Y-30807614D01*
X28145508Y-30861300D01*
X28420692Y-30861300D01*
X28690590Y-30807614D01*
X28800952Y-30761900D01*
X38530128Y-30761900D01*
X38533200Y-31266150D01*
X38691950Y-31424900D01*
X40596200Y-31424900D01*
X40596200Y-30285650D01*
X40850200Y-30285650D01*
X40850200Y-31424900D01*
X42754450Y-31424900D01*
X42913200Y-31266150D01*
X42916272Y-30761900D01*
X42904012Y-30637418D01*
X42867702Y-30517720D01*
X42808737Y-30407406D01*
X42729385Y-30310715D01*
X42632694Y-30231363D01*
X42522380Y-30172398D01*
X42402682Y-30136088D01*
X42278200Y-30123828D01*
X41008950Y-30126900D01*
X40850200Y-30285650D01*
X40596200Y-30285650D01*
X40437450Y-30126900D01*
X39168200Y-30123828D01*
X39043718Y-30136088D01*
X38924020Y-30172398D01*
X38813706Y-30231363D01*
X38717015Y-30310715D01*
X38637663Y-30407406D01*
X38578698Y-30517720D01*
X38542388Y-30637418D01*
X38530128Y-30761900D01*
X28800952Y-30761900D01*
X28944827Y-30702305D01*
X29173635Y-30549420D01*
X29368220Y-30354835D01*
X29521105Y-30126027D01*
X29626414Y-29871790D01*
X29680100Y-29601892D01*
X29680100Y-29326708D01*
X29626414Y-29056810D01*
X29521105Y-28802573D01*
X29368220Y-28573765D01*
X29173635Y-28379180D01*
X28944827Y-28226295D01*
X28868505Y-28194681D01*
X28876123Y-28191936D01*
X28992080Y-28129956D01*
X29059060Y-27889865D01*
X28273100Y-27103905D01*
X27487140Y-27889865D01*
X27554120Y-28129956D01*
X27694543Y-28195987D01*
X27621373Y-28226295D01*
X27392565Y-28379180D01*
X27197980Y-28573765D01*
X27045095Y-28802573D01*
X26939786Y-29056810D01*
X26886100Y-29326708D01*
X23294130Y-29326708D01*
X23291178Y-26996317D01*
X26871190Y-26996317D01*
X26912178Y-27268433D01*
X27005464Y-27527323D01*
X27067444Y-27643280D01*
X27307535Y-27710260D01*
X28093495Y-26924300D01*
X28452705Y-26924300D01*
X29238665Y-27710260D01*
X29478756Y-27643280D01*
X29595856Y-27394252D01*
X29662123Y-27127165D01*
X29675010Y-26852283D01*
X29634022Y-26580167D01*
X29540736Y-26321277D01*
X29478756Y-26205320D01*
X29238665Y-26138340D01*
X28452705Y-26924300D01*
X28093495Y-26924300D01*
X27307535Y-26138340D01*
X27067444Y-26205320D01*
X26950344Y-26454348D01*
X26884077Y-26721435D01*
X26871190Y-26996317D01*
X23291178Y-26996317D01*
X23289864Y-25958735D01*
X27487140Y-25958735D01*
X28273100Y-26744695D01*
X29059060Y-25958735D01*
X28992080Y-25718644D01*
X28743052Y-25601544D01*
X28475965Y-25535277D01*
X28201083Y-25522390D01*
X27928967Y-25563378D01*
X27670077Y-25656664D01*
X27554120Y-25718644D01*
X27487140Y-25958735D01*
X23289864Y-25958735D01*
X23287813Y-24339412D01*
X28482700Y-24339412D01*
X28482700Y-24562988D01*
X28526317Y-24782267D01*
X28611876Y-24988824D01*
X28736088Y-25174720D01*
X28894180Y-25332812D01*
X29080076Y-25457024D01*
X29286633Y-25542583D01*
X29505912Y-25586200D01*
X29729488Y-25586200D01*
X29948767Y-25542583D01*
X30155324Y-25457024D01*
X30341220Y-25332812D01*
X30487832Y-25186200D01*
X35126928Y-25186200D01*
X35126928Y-25593300D01*
X35139188Y-25717782D01*
X35175498Y-25837480D01*
X35234463Y-25947794D01*
X35313815Y-26044485D01*
X35410506Y-26123837D01*
X35520820Y-26182802D01*
X35640518Y-26219112D01*
X35765000Y-26231372D01*
X36665000Y-26231372D01*
X36789482Y-26219112D01*
X36909180Y-26182802D01*
X37019494Y-26123837D01*
X37116185Y-26044485D01*
X37195537Y-25947794D01*
X37254502Y-25837480D01*
X37290812Y-25717782D01*
X37303072Y-25593300D01*
X37303072Y-24793300D01*
X37290812Y-24668818D01*
X37254502Y-24549120D01*
X37195537Y-24438806D01*
X37116185Y-24342115D01*
X37019494Y-24262763D01*
X36909180Y-24203798D01*
X36890854Y-24198239D01*
X36829087Y-24082680D01*
X36737238Y-23970762D01*
X36714280Y-23951920D01*
X36695438Y-23928962D01*
X36583520Y-23837113D01*
X36455833Y-23768863D01*
X36317285Y-23726835D01*
X36209305Y-23716200D01*
X36173200Y-23712644D01*
X36137095Y-23716200D01*
X30487832Y-23716200D01*
X30341220Y-23569588D01*
X30155324Y-23445376D01*
X29948767Y-23359817D01*
X29729488Y-23316200D01*
X29505912Y-23316200D01*
X29286633Y-23359817D01*
X29080076Y-23445376D01*
X28894180Y-23569588D01*
X28736088Y-23727680D01*
X28611876Y-23913576D01*
X28526317Y-24120133D01*
X28482700Y-24339412D01*
X23287813Y-24339412D01*
X23283827Y-21192980D01*
X23730640Y-21192980D01*
X23730640Y-21529820D01*
X23796354Y-21860189D01*
X23925258Y-22171389D01*
X24112396Y-22451461D01*
X24350579Y-22689644D01*
X24630651Y-22876782D01*
X24941851Y-23005686D01*
X25272220Y-23071400D01*
X25609060Y-23071400D01*
X25939429Y-23005686D01*
X26250629Y-22876782D01*
X26530701Y-22689644D01*
X26768884Y-22451461D01*
X26814494Y-22383200D01*
X41934328Y-22383200D01*
X41937400Y-22497450D01*
X42096150Y-22656200D01*
X42945400Y-22656200D01*
X42945400Y-21906950D01*
X42786650Y-21748200D01*
X42572400Y-21745128D01*
X42447918Y-21757388D01*
X42328220Y-21793698D01*
X42217906Y-21852663D01*
X42121215Y-21932015D01*
X42041863Y-22028706D01*
X41982898Y-22139020D01*
X41946588Y-22258718D01*
X41934328Y-22383200D01*
X26814494Y-22383200D01*
X26956022Y-22171389D01*
X27084926Y-21860189D01*
X27150640Y-21529820D01*
X27150640Y-21192980D01*
X27084926Y-20862611D01*
X26956022Y-20551411D01*
X26768884Y-20271339D01*
X26530701Y-20033156D01*
X26250629Y-19846018D01*
X25939429Y-19717114D01*
X25609060Y-19651400D01*
X25272220Y-19651400D01*
X24941851Y-19717114D01*
X24630651Y-19846018D01*
X24350579Y-20033156D01*
X24112396Y-20271339D01*
X23925258Y-20551411D01*
X23796354Y-20862611D01*
X23730640Y-21192980D01*
X23283827Y-21192980D01*
X23281804Y-19596140D01*
X42156992Y-19602653D01*
M02*
