G04 #@! TF.GenerationSoftware,KiCad,Pcbnew,5.1.6-c6e7f7d~87~ubuntu18.04.1*
G04 #@! TF.CreationDate,2020-11-02T00:43:46+05:30*
G04 #@! TF.ProjectId,Sensor_pcb_v3,53656e73-6f72-45f7-9063-625f76332e6b,rev?*
G04 #@! TF.SameCoordinates,Original*
G04 #@! TF.FileFunction,OtherDrawing,Comment*
%FSLAX46Y46*%
G04 Gerber Fmt 4.6, Leading zero omitted, Abs format (unit mm)*
G04 Created by KiCad (PCBNEW 5.1.6-c6e7f7d~87~ubuntu18.04.1) date 2020-11-02 00:43:46*
%MOMM*%
%LPD*%
G01*
G04 APERTURE LIST*
%ADD10C,0.150000*%
%ADD11C,0.080000*%
%ADD12C,0.100000*%
%ADD13C,0.050000*%
%ADD14C,0.200000*%
%ADD15C,0.010000*%
G04 APERTURE END LIST*
D10*
X37316207Y-91578684D02*
X37935255Y-91579289D01*
X37601549Y-91959915D01*
X37744406Y-91960055D01*
X37839598Y-92007767D01*
X37887170Y-92055432D01*
X37934696Y-92150717D01*
X37934464Y-92388812D01*
X37886752Y-92484003D01*
X37839086Y-92531576D01*
X37743802Y-92579102D01*
X37458087Y-92578823D01*
X37362896Y-92531111D01*
X37315323Y-92483445D01*
X38792397Y-91580126D02*
X38601921Y-91579940D01*
X38506636Y-91627466D01*
X38458971Y-91675038D01*
X38363593Y-91817802D01*
X38315788Y-92008232D01*
X38315416Y-92389184D01*
X38362942Y-92484469D01*
X38410514Y-92532134D01*
X38505706Y-92579846D01*
X38696182Y-92580032D01*
X38791467Y-92532506D01*
X38839132Y-92484934D01*
X38886844Y-92389742D01*
X38887077Y-92151647D01*
X38839551Y-92056363D01*
X38791978Y-92008697D01*
X38696787Y-91960985D01*
X38506311Y-91960799D01*
X38411026Y-92008325D01*
X38363361Y-92055897D01*
X38315649Y-92151089D01*
X39315322Y-92485399D02*
X39362895Y-92533065D01*
X39315229Y-92580637D01*
X39267657Y-92532972D01*
X39315322Y-92485399D01*
X39315229Y-92580637D01*
X39697159Y-91581010D02*
X40316206Y-91581615D01*
X39982501Y-91962241D01*
X40125358Y-91962381D01*
X40220549Y-92010093D01*
X40268122Y-92057758D01*
X40315648Y-92153043D01*
X40315415Y-92391138D01*
X40267703Y-92486330D01*
X40220037Y-92533902D01*
X40124753Y-92581428D01*
X39839039Y-92581149D01*
X39743847Y-92533437D01*
X39696275Y-92485771D01*
X40791419Y-92582079D02*
X40981895Y-92582265D01*
X41077180Y-92534740D01*
X41124845Y-92487167D01*
X41220223Y-92344403D01*
X41268028Y-92153973D01*
X41268400Y-91773021D01*
X41220874Y-91677737D01*
X41173302Y-91630071D01*
X41078110Y-91582359D01*
X40887634Y-91582173D01*
X40792350Y-91629699D01*
X40744684Y-91677271D01*
X40696972Y-91772463D01*
X40696739Y-92010558D01*
X40744265Y-92105843D01*
X40791838Y-92153508D01*
X40887029Y-92201220D01*
X41077505Y-92201406D01*
X41172790Y-92153880D01*
X41220456Y-92106308D01*
X41268168Y-92011116D01*
X41839596Y-92011675D02*
X41744404Y-91963963D01*
X41696832Y-91916297D01*
X41649306Y-91821012D01*
X41649352Y-91773393D01*
X41697065Y-91678202D01*
X41744730Y-91630629D01*
X41840015Y-91583103D01*
X42030491Y-91583289D01*
X42125682Y-91631002D01*
X42173255Y-91678667D01*
X42220781Y-91773952D01*
X42220734Y-91821571D01*
X42173022Y-91916762D01*
X42125357Y-91964335D01*
X42030072Y-92011861D01*
X41839596Y-92011675D01*
X41744311Y-92059201D01*
X41696646Y-92106773D01*
X41648934Y-92201965D01*
X41648748Y-92392441D01*
X41696274Y-92487725D01*
X41743846Y-92535391D01*
X41839038Y-92583103D01*
X42029514Y-92583289D01*
X42124798Y-92535763D01*
X42172464Y-92488191D01*
X42220176Y-92392999D01*
X42220362Y-92202523D01*
X42172836Y-92107238D01*
X42125264Y-92059573D01*
X42030072Y-92011861D01*
X43410466Y-92584638D02*
X43411117Y-91917972D01*
X43411024Y-92013210D02*
X43458689Y-91965637D01*
X43553974Y-91918111D01*
X43696831Y-91918251D01*
X43792023Y-91965963D01*
X43839549Y-92061248D01*
X43839037Y-92585057D01*
X43839549Y-92061248D02*
X43887261Y-91966056D01*
X43982545Y-91918530D01*
X44125402Y-91918670D01*
X44220594Y-91966382D01*
X44268120Y-92061666D01*
X44267608Y-92585476D01*
X44743798Y-92585941D02*
X44744450Y-91919274D01*
X44744356Y-92014512D02*
X44792022Y-91966940D01*
X44887307Y-91919414D01*
X45030164Y-91919554D01*
X45125355Y-91967266D01*
X45172881Y-92062550D01*
X45172369Y-92586359D01*
X45172881Y-92062550D02*
X45220593Y-91967359D01*
X45315878Y-91919833D01*
X45458735Y-91919972D01*
X45553926Y-91967684D01*
X45601452Y-92062969D01*
X45600941Y-92586778D01*
X23308317Y-90812618D02*
X59706517Y-90848178D01*
X23309580Y-89519760D02*
X23307744Y-91399039D01*
X59707780Y-89555320D02*
X59705944Y-91434599D01*
X59706517Y-90848178D02*
X58579441Y-91433498D01*
X59706517Y-90848178D02*
X58580587Y-90260657D01*
X23308317Y-90812618D02*
X24434247Y-91400139D01*
X23308317Y-90812618D02*
X24435393Y-90227298D01*
D11*
X45062009Y-88880166D02*
X45300104Y-88713500D01*
X45062009Y-88594452D02*
X45562009Y-88594452D01*
X45562009Y-88784928D01*
X45538200Y-88832547D01*
X45514390Y-88856357D01*
X45466771Y-88880166D01*
X45395342Y-88880166D01*
X45347723Y-88856357D01*
X45323914Y-88832547D01*
X45300104Y-88784928D01*
X45300104Y-88594452D01*
X45562009Y-89046833D02*
X45062009Y-89380166D01*
X45562009Y-89380166D02*
X45062009Y-89046833D01*
X48079149Y-88371727D02*
X48079149Y-88657441D01*
X47579149Y-88514584D02*
X48079149Y-88514584D01*
X48079149Y-88776489D02*
X47579149Y-89109822D01*
X48079149Y-89109822D02*
X47579149Y-88776489D01*
D10*
X34275757Y-36153720D02*
X34228138Y-36106100D01*
X34180519Y-35963243D01*
X34180519Y-35868005D01*
X34228138Y-35725148D01*
X34323376Y-35629910D01*
X34418614Y-35582291D01*
X34609090Y-35534672D01*
X34751947Y-35534672D01*
X34942423Y-35582291D01*
X35037661Y-35629910D01*
X35132900Y-35725148D01*
X35180519Y-35868005D01*
X35180519Y-35963243D01*
X35132900Y-36106100D01*
X35085280Y-36153720D01*
X34180519Y-36582291D02*
X35180519Y-36582291D01*
X34180519Y-37010862D02*
X34704328Y-37010862D01*
X34799566Y-36963243D01*
X34847185Y-36868005D01*
X34847185Y-36725148D01*
X34799566Y-36629910D01*
X34751947Y-36582291D01*
X34180519Y-37915624D02*
X34704328Y-37915624D01*
X34799566Y-37868005D01*
X34847185Y-37772767D01*
X34847185Y-37582291D01*
X34799566Y-37487053D01*
X34228138Y-37915624D02*
X34180519Y-37820386D01*
X34180519Y-37582291D01*
X34228138Y-37487053D01*
X34323376Y-37439434D01*
X34418614Y-37439434D01*
X34513852Y-37487053D01*
X34561471Y-37582291D01*
X34561471Y-37820386D01*
X34609090Y-37915624D01*
X34180519Y-38391815D02*
X34847185Y-38391815D01*
X34656709Y-38391815D02*
X34751947Y-38439434D01*
X34799566Y-38487053D01*
X34847185Y-38582291D01*
X34847185Y-38677529D01*
X34847185Y-39439434D02*
X34037661Y-39439434D01*
X33942423Y-39391815D01*
X33894804Y-39344196D01*
X33847185Y-39248958D01*
X33847185Y-39106100D01*
X33894804Y-39010862D01*
X34228138Y-39439434D02*
X34180519Y-39344196D01*
X34180519Y-39153720D01*
X34228138Y-39058481D01*
X34275757Y-39010862D01*
X34370995Y-38963243D01*
X34656709Y-38963243D01*
X34751947Y-39010862D01*
X34799566Y-39058481D01*
X34847185Y-39153720D01*
X34847185Y-39344196D01*
X34799566Y-39439434D01*
X34180519Y-39915624D02*
X34847185Y-39915624D01*
X35180519Y-39915624D02*
X35132900Y-39868005D01*
X35085280Y-39915624D01*
X35132900Y-39963243D01*
X35180519Y-39915624D01*
X35085280Y-39915624D01*
X34847185Y-40391815D02*
X34180519Y-40391815D01*
X34751947Y-40391815D02*
X34799566Y-40439434D01*
X34847185Y-40534672D01*
X34847185Y-40677529D01*
X34799566Y-40772767D01*
X34704328Y-40820386D01*
X34180519Y-40820386D01*
X34847185Y-41725148D02*
X34037661Y-41725148D01*
X33942423Y-41677529D01*
X33894804Y-41629910D01*
X33847185Y-41534672D01*
X33847185Y-41391815D01*
X33894804Y-41296577D01*
X34228138Y-41725148D02*
X34180519Y-41629910D01*
X34180519Y-41439434D01*
X34228138Y-41344196D01*
X34275757Y-41296577D01*
X34370995Y-41248958D01*
X34656709Y-41248958D01*
X34751947Y-41296577D01*
X34799566Y-41344196D01*
X34847185Y-41439434D01*
X34847185Y-41629910D01*
X34799566Y-41725148D01*
D12*
X52101819Y-24733204D02*
X51720866Y-24733204D01*
X51720866Y-23933204D01*
X52368485Y-24733204D02*
X52368485Y-23933204D01*
X52558961Y-23933204D01*
X52673247Y-23971300D01*
X52749438Y-24047490D01*
X52787533Y-24123680D01*
X52825628Y-24276061D01*
X52825628Y-24390347D01*
X52787533Y-24542728D01*
X52749438Y-24618919D01*
X52673247Y-24695109D01*
X52558961Y-24733204D01*
X52368485Y-24733204D01*
X53625628Y-24733204D02*
X53358961Y-24352252D01*
X53168485Y-24733204D02*
X53168485Y-23933204D01*
X53473247Y-23933204D01*
X53549438Y-23971300D01*
X53587533Y-24009395D01*
X53625628Y-24085585D01*
X53625628Y-24199871D01*
X53587533Y-24276061D01*
X53549438Y-24314157D01*
X53473247Y-24352252D01*
X53168485Y-24352252D01*
D13*
X24841045Y-42079301D02*
X24841045Y-42460254D01*
X24650569Y-42269778D02*
X25031521Y-42269778D01*
X24983902Y-42650730D02*
X24650569Y-42769778D01*
X24983902Y-42888825D01*
X24674379Y-43269778D02*
X24650569Y-43222159D01*
X24650569Y-43126920D01*
X24674379Y-43079301D01*
X24721998Y-43055492D01*
X24912474Y-43055492D01*
X24960093Y-43079301D01*
X24983902Y-43126920D01*
X24983902Y-43222159D01*
X24960093Y-43269778D01*
X24912474Y-43293587D01*
X24864855Y-43293587D01*
X24817236Y-43055492D01*
X24881685Y-36361761D02*
X24881685Y-36742714D01*
X25024542Y-36933190D02*
X24691209Y-37052238D01*
X25024542Y-37171285D01*
X24715019Y-37552238D02*
X24691209Y-37504619D01*
X24691209Y-37409380D01*
X24715019Y-37361761D01*
X24762638Y-37337952D01*
X24953114Y-37337952D01*
X25000733Y-37361761D01*
X25024542Y-37409380D01*
X25024542Y-37504619D01*
X25000733Y-37552238D01*
X24953114Y-37576047D01*
X24905495Y-37576047D01*
X24857876Y-37337952D01*
D10*
X23925898Y-38298975D02*
X23878279Y-38441832D01*
X23878279Y-38679927D01*
X23925898Y-38775165D01*
X23973517Y-38822784D01*
X24068755Y-38870403D01*
X24163993Y-38870403D01*
X24259231Y-38822784D01*
X24306850Y-38775165D01*
X24354469Y-38679927D01*
X24402088Y-38489451D01*
X24449707Y-38394213D01*
X24497326Y-38346594D01*
X24592564Y-38298975D01*
X24687802Y-38298975D01*
X24783040Y-38346594D01*
X24830660Y-38394213D01*
X24878279Y-38489451D01*
X24878279Y-38727546D01*
X24830660Y-38870403D01*
X23878279Y-39441832D02*
X23925898Y-39346594D01*
X23973517Y-39298975D01*
X24068755Y-39251356D01*
X24354469Y-39251356D01*
X24449707Y-39298975D01*
X24497326Y-39346594D01*
X24544945Y-39441832D01*
X24544945Y-39584689D01*
X24497326Y-39679927D01*
X24449707Y-39727546D01*
X24354469Y-39775165D01*
X24068755Y-39775165D01*
X23973517Y-39727546D01*
X23925898Y-39679927D01*
X23878279Y-39584689D01*
X23878279Y-39441832D01*
X23878279Y-40346594D02*
X23925898Y-40251356D01*
X24021136Y-40203737D01*
X24878279Y-40203737D01*
X23878279Y-41156118D02*
X24402088Y-41156118D01*
X24497326Y-41108499D01*
X24544945Y-41013260D01*
X24544945Y-40822784D01*
X24497326Y-40727546D01*
X23925898Y-41156118D02*
X23878279Y-41060880D01*
X23878279Y-40822784D01*
X23925898Y-40727546D01*
X24021136Y-40679927D01*
X24116374Y-40679927D01*
X24211612Y-40727546D01*
X24259231Y-40822784D01*
X24259231Y-41060880D01*
X24306850Y-41156118D01*
X23878279Y-41632308D02*
X24544945Y-41632308D01*
X24354469Y-41632308D02*
X24449707Y-41679927D01*
X24497326Y-41727546D01*
X24544945Y-41822784D01*
X24544945Y-41918022D01*
D13*
X24856285Y-31200481D02*
X24856285Y-31581434D01*
X24665809Y-31390958D02*
X25046761Y-31390958D01*
X24999142Y-31771910D02*
X24665809Y-31890958D01*
X24999142Y-32010005D01*
X24689619Y-32390958D02*
X24665809Y-32343339D01*
X24665809Y-32248100D01*
X24689619Y-32200481D01*
X24737238Y-32176672D01*
X24927714Y-32176672D01*
X24975333Y-32200481D01*
X24999142Y-32248100D01*
X24999142Y-32343339D01*
X24975333Y-32390958D01*
X24927714Y-32414767D01*
X24880095Y-32414767D01*
X24832476Y-32176672D01*
D10*
X16123386Y-58668931D02*
X16124304Y-58002265D01*
X17123713Y-58432214D01*
X16125092Y-57430837D02*
X16125223Y-57335599D01*
X16172973Y-57240427D01*
X16220658Y-57192873D01*
X16315962Y-57145386D01*
X16506503Y-57098029D01*
X16744598Y-57098357D01*
X16935009Y-57146239D01*
X17030181Y-57193989D01*
X17077734Y-57241673D01*
X17125222Y-57336977D01*
X17125091Y-57432215D01*
X17077341Y-57527387D01*
X17029656Y-57574941D01*
X16934352Y-57622429D01*
X16743811Y-57669785D01*
X16505716Y-57669457D01*
X16315305Y-57621576D01*
X16220133Y-57573825D01*
X16172580Y-57526141D01*
X16125092Y-57430837D01*
X17030903Y-56670180D02*
X17078587Y-56622626D01*
X17126141Y-56670311D01*
X17078456Y-56717864D01*
X17030903Y-56670180D01*
X17126141Y-56670311D01*
X16127060Y-56002267D02*
X16127192Y-55907029D01*
X16174942Y-55811857D01*
X16222626Y-55764303D01*
X16317930Y-55716815D01*
X16508472Y-55669459D01*
X16746567Y-55669787D01*
X16936977Y-55717668D01*
X17032149Y-55765419D01*
X17079703Y-55813103D01*
X17127191Y-55908407D01*
X17127059Y-56003645D01*
X17079309Y-56098817D01*
X17031625Y-56146371D01*
X16936321Y-56193858D01*
X16745779Y-56241215D01*
X16507684Y-56240887D01*
X16317274Y-56193005D01*
X16222101Y-56145255D01*
X16174548Y-56097571D01*
X16127060Y-56002267D01*
X16462034Y-54812251D02*
X17128700Y-54813170D01*
X16080754Y-55049821D02*
X16794711Y-55288901D01*
X16795564Y-54669854D01*
X16558190Y-54145716D02*
X16510440Y-54240889D01*
X16462755Y-54288442D01*
X16367452Y-54335930D01*
X16319833Y-54335864D01*
X16224660Y-54288114D01*
X16177107Y-54240430D01*
X16129619Y-54145126D01*
X16129882Y-53954650D01*
X16177632Y-53859478D01*
X16225317Y-53811924D01*
X16320620Y-53764436D01*
X16368239Y-53764502D01*
X16463412Y-53812252D01*
X16510965Y-53859937D01*
X16558453Y-53955240D01*
X16558190Y-54145716D01*
X16605678Y-54241020D01*
X16653231Y-54288705D01*
X16748404Y-54336455D01*
X16938880Y-54336717D01*
X17034183Y-54289230D01*
X17081868Y-54241676D01*
X17129618Y-54146504D01*
X17129881Y-53956028D01*
X17082393Y-53860724D01*
X17034840Y-53813040D01*
X16939667Y-53765289D01*
X16749191Y-53765027D01*
X16653888Y-53812515D01*
X16606203Y-53860068D01*
X16558453Y-53955240D01*
X17131784Y-52575077D02*
X16465118Y-52574158D01*
X16560356Y-52574289D02*
X16512802Y-52526605D01*
X16465314Y-52431301D01*
X16465511Y-52288444D01*
X16513261Y-52193272D01*
X16608565Y-52145784D01*
X17132374Y-52146506D01*
X16608565Y-52145784D02*
X16513393Y-52098034D01*
X16465905Y-52002730D01*
X16466102Y-51859873D01*
X16513852Y-51764701D01*
X16609156Y-51717213D01*
X17132965Y-51717935D01*
X17133621Y-51241745D02*
X16466955Y-51240826D01*
X16562193Y-51240957D02*
X16514639Y-51193273D01*
X16467152Y-51097969D01*
X16467348Y-50955112D01*
X16515099Y-50859940D01*
X16610402Y-50812452D01*
X17134211Y-50813174D01*
X16610402Y-50812452D02*
X16515230Y-50764702D01*
X16467742Y-50669398D01*
X16467939Y-50526541D01*
X16515689Y-50431369D01*
X16610993Y-50383881D01*
X17134802Y-50384603D01*
X18025038Y-19456945D02*
X17928518Y-89505065D01*
X23159720Y-19464020D02*
X17438618Y-19456137D01*
X23063200Y-89512140D02*
X17342098Y-89504257D01*
X17928518Y-89505065D02*
X17343650Y-88377754D01*
X17928518Y-89505065D02*
X18516490Y-88379370D01*
X18025038Y-19456945D02*
X17437066Y-20582640D01*
X18025038Y-19456945D02*
X18609906Y-20584256D01*
D11*
X37727700Y-88371727D02*
X37751509Y-88324108D01*
X37751509Y-88252680D01*
X37727700Y-88181251D01*
X37680080Y-88133632D01*
X37632461Y-88109822D01*
X37537223Y-88086013D01*
X37465795Y-88086013D01*
X37370557Y-88109822D01*
X37322938Y-88133632D01*
X37275319Y-88181251D01*
X37251509Y-88252680D01*
X37251509Y-88300299D01*
X37275319Y-88371727D01*
X37299128Y-88395537D01*
X37465795Y-88395537D01*
X37465795Y-88300299D01*
X37251509Y-88609822D02*
X37751509Y-88609822D01*
X37251509Y-88895537D01*
X37751509Y-88895537D01*
X37251509Y-89133632D02*
X37751509Y-89133632D01*
X37751509Y-89252680D01*
X37727700Y-89324108D01*
X37680080Y-89371727D01*
X37632461Y-89395537D01*
X37537223Y-89419346D01*
X37465795Y-89419346D01*
X37370557Y-89395537D01*
X37322938Y-89371727D01*
X37275319Y-89324108D01*
X37251509Y-89252680D01*
X37251509Y-89133632D01*
X39949939Y-87151827D02*
X39926129Y-87223256D01*
X39926129Y-87342303D01*
X39949939Y-87389922D01*
X39973748Y-87413732D01*
X40021367Y-87437541D01*
X40068986Y-87437541D01*
X40116605Y-87413732D01*
X40140415Y-87389922D01*
X40164224Y-87342303D01*
X40188034Y-87247065D01*
X40211843Y-87199446D01*
X40235653Y-87175637D01*
X40283272Y-87151827D01*
X40330891Y-87151827D01*
X40378510Y-87175637D01*
X40402320Y-87199446D01*
X40426129Y-87247065D01*
X40426129Y-87366113D01*
X40402320Y-87437541D01*
X40426129Y-87604208D02*
X39926129Y-87723256D01*
X40283272Y-87818494D01*
X39926129Y-87913732D01*
X40426129Y-88032780D01*
X39973748Y-88508970D02*
X39949939Y-88485160D01*
X39926129Y-88413732D01*
X39926129Y-88366113D01*
X39949939Y-88294684D01*
X39997558Y-88247065D01*
X40045177Y-88223256D01*
X40140415Y-88199446D01*
X40211843Y-88199446D01*
X40307081Y-88223256D01*
X40354700Y-88247065D01*
X40402320Y-88294684D01*
X40426129Y-88366113D01*
X40426129Y-88413732D01*
X40402320Y-88485160D01*
X40378510Y-88508970D01*
X39926129Y-88961351D02*
X39926129Y-88723256D01*
X40426129Y-88723256D01*
X39926129Y-89128018D02*
X40426129Y-89128018D01*
X39926129Y-89413732D02*
X40211843Y-89199446D01*
X40426129Y-89413732D02*
X40140415Y-89128018D01*
X42360399Y-87892356D02*
X42336589Y-87963784D01*
X42336589Y-88082832D01*
X42360399Y-88130451D01*
X42384208Y-88154260D01*
X42431827Y-88178070D01*
X42479446Y-88178070D01*
X42527065Y-88154260D01*
X42550875Y-88130451D01*
X42574684Y-88082832D01*
X42598494Y-87987594D01*
X42622303Y-87939975D01*
X42646113Y-87916165D01*
X42693732Y-87892356D01*
X42741351Y-87892356D01*
X42788970Y-87916165D01*
X42812780Y-87939975D01*
X42836589Y-87987594D01*
X42836589Y-88106641D01*
X42812780Y-88178070D01*
X42836589Y-88344737D02*
X42336589Y-88463784D01*
X42693732Y-88559022D01*
X42336589Y-88654260D01*
X42836589Y-88773308D01*
X42336589Y-88963784D02*
X42836589Y-88963784D01*
X42836589Y-89297118D02*
X42836589Y-89392356D01*
X42812780Y-89439975D01*
X42765160Y-89487594D01*
X42669922Y-89511403D01*
X42503256Y-89511403D01*
X42408018Y-89487594D01*
X42360399Y-89439975D01*
X42336589Y-89392356D01*
X42336589Y-89297118D01*
X42360399Y-89249499D01*
X42408018Y-89201880D01*
X42503256Y-89178070D01*
X42669922Y-89178070D01*
X42765160Y-89201880D01*
X42812780Y-89249499D01*
X42836589Y-89297118D01*
X50751229Y-87719968D02*
X50751229Y-88029492D01*
X50560753Y-87862825D01*
X50560753Y-87934254D01*
X50536943Y-87981873D01*
X50513134Y-88005682D01*
X50465515Y-88029492D01*
X50346467Y-88029492D01*
X50298848Y-88005682D01*
X50275039Y-87981873D01*
X50251229Y-87934254D01*
X50251229Y-87791397D01*
X50275039Y-87743778D01*
X50298848Y-87719968D01*
X50298848Y-88243778D02*
X50275039Y-88267587D01*
X50251229Y-88243778D01*
X50275039Y-88219968D01*
X50298848Y-88243778D01*
X50251229Y-88243778D01*
X50751229Y-88434254D02*
X50751229Y-88743778D01*
X50560753Y-88577111D01*
X50560753Y-88648540D01*
X50536943Y-88696159D01*
X50513134Y-88719968D01*
X50465515Y-88743778D01*
X50346467Y-88743778D01*
X50298848Y-88719968D01*
X50275039Y-88696159D01*
X50251229Y-88648540D01*
X50251229Y-88505682D01*
X50275039Y-88458063D01*
X50298848Y-88434254D01*
X50751229Y-89267587D02*
X50251229Y-89434254D01*
X50751229Y-89600920D01*
D14*
X40600380Y-19907000D02*
X40790857Y-19907000D01*
X40886095Y-19954620D01*
X40981333Y-20049858D01*
X41028952Y-20240334D01*
X41028952Y-20573667D01*
X40981333Y-20764143D01*
X40886095Y-20859381D01*
X40790857Y-20907000D01*
X40600380Y-20907000D01*
X40505142Y-20859381D01*
X40409904Y-20764143D01*
X40362285Y-20573667D01*
X40362285Y-20240334D01*
X40409904Y-20049858D01*
X40505142Y-19954620D01*
X40600380Y-19907000D01*
X41457523Y-20240334D02*
X41457523Y-20907000D01*
X41457523Y-20335572D02*
X41505142Y-20287953D01*
X41600380Y-20240334D01*
X41743238Y-20240334D01*
X41838476Y-20287953D01*
X41886095Y-20383191D01*
X41886095Y-20907000D01*
X52007853Y-20028920D02*
X52198329Y-20028920D01*
X52293567Y-20076540D01*
X52388805Y-20171778D01*
X52436424Y-20362254D01*
X52436424Y-20695587D01*
X52388805Y-20886063D01*
X52293567Y-20981301D01*
X52198329Y-21028920D01*
X52007853Y-21028920D01*
X51912615Y-20981301D01*
X51817377Y-20886063D01*
X51769758Y-20695587D01*
X51769758Y-20362254D01*
X51817377Y-20171778D01*
X51912615Y-20076540D01*
X52007853Y-20028920D01*
X52722139Y-20362254D02*
X53103091Y-20362254D01*
X52864996Y-21028920D02*
X52864996Y-20171778D01*
X52912615Y-20076540D01*
X53007853Y-20028920D01*
X53103091Y-20028920D01*
X53293567Y-20362254D02*
X53674520Y-20362254D01*
X53436424Y-21028920D02*
X53436424Y-20171778D01*
X53484043Y-20076540D01*
X53579281Y-20028920D01*
X53674520Y-20028920D01*
D13*
X24929945Y-24309461D02*
X24929945Y-24690414D01*
X25072802Y-24880890D02*
X24739469Y-24999938D01*
X25072802Y-25118985D01*
X24763279Y-25499938D02*
X24739469Y-25452319D01*
X24739469Y-25357080D01*
X24763279Y-25309461D01*
X24810898Y-25285652D01*
X25001374Y-25285652D01*
X25048993Y-25309461D01*
X25072802Y-25357080D01*
X25072802Y-25452319D01*
X25048993Y-25499938D01*
X25001374Y-25523747D01*
X24953755Y-25523747D01*
X24906136Y-25285652D01*
D12*
X56272228Y-60328050D02*
X56581752Y-60328050D01*
X56415085Y-60518526D01*
X56486514Y-60518526D01*
X56534133Y-60542336D01*
X56557942Y-60566145D01*
X56581752Y-60613764D01*
X56581752Y-60732812D01*
X56557942Y-60780431D01*
X56534133Y-60804240D01*
X56486514Y-60828050D01*
X56343657Y-60828050D01*
X56296038Y-60804240D01*
X56272228Y-60780431D01*
X56796038Y-60780431D02*
X56819847Y-60804240D01*
X56796038Y-60828050D01*
X56772228Y-60804240D01*
X56796038Y-60780431D01*
X56796038Y-60828050D01*
X56986514Y-60328050D02*
X57296038Y-60328050D01*
X57129371Y-60518526D01*
X57200800Y-60518526D01*
X57248419Y-60542336D01*
X57272228Y-60566145D01*
X57296038Y-60613764D01*
X57296038Y-60732812D01*
X57272228Y-60780431D01*
X57248419Y-60804240D01*
X57200800Y-60828050D01*
X57057942Y-60828050D01*
X57010323Y-60804240D01*
X56986514Y-60780431D01*
X57819847Y-60328050D02*
X57986514Y-60828050D01*
X58153180Y-60328050D01*
X56692847Y-63087440D02*
X56645228Y-63063630D01*
X56573800Y-63063630D01*
X56502371Y-63087440D01*
X56454752Y-63135059D01*
X56430942Y-63182678D01*
X56407133Y-63277916D01*
X56407133Y-63349344D01*
X56430942Y-63444582D01*
X56454752Y-63492201D01*
X56502371Y-63539820D01*
X56573800Y-63563630D01*
X56621419Y-63563630D01*
X56692847Y-63539820D01*
X56716657Y-63516011D01*
X56716657Y-63349344D01*
X56621419Y-63349344D01*
X56930942Y-63563630D02*
X56930942Y-63063630D01*
X57216657Y-63563630D01*
X57216657Y-63063630D01*
X57454752Y-63563630D02*
X57454752Y-63063630D01*
X57573800Y-63063630D01*
X57645228Y-63087440D01*
X57692847Y-63135059D01*
X57716657Y-63182678D01*
X57740466Y-63277916D01*
X57740466Y-63349344D01*
X57716657Y-63444582D01*
X57692847Y-63492201D01*
X57645228Y-63539820D01*
X57573800Y-63563630D01*
X57454752Y-63563630D01*
X56402361Y-66219520D02*
X56473790Y-66243330D01*
X56592838Y-66243330D01*
X56640457Y-66219520D01*
X56664266Y-66195711D01*
X56688076Y-66148092D01*
X56688076Y-66100473D01*
X56664266Y-66052854D01*
X56640457Y-66029044D01*
X56592838Y-66005235D01*
X56497600Y-65981425D01*
X56449980Y-65957616D01*
X56426171Y-65933806D01*
X56402361Y-65886187D01*
X56402361Y-65838568D01*
X56426171Y-65790949D01*
X56449980Y-65767140D01*
X56497600Y-65743330D01*
X56616647Y-65743330D01*
X56688076Y-65767140D01*
X57188076Y-66195711D02*
X57164266Y-66219520D01*
X57092838Y-66243330D01*
X57045219Y-66243330D01*
X56973790Y-66219520D01*
X56926171Y-66171901D01*
X56902361Y-66124282D01*
X56878552Y-66029044D01*
X56878552Y-65957616D01*
X56902361Y-65862378D01*
X56926171Y-65814759D01*
X56973790Y-65767140D01*
X57045219Y-65743330D01*
X57092838Y-65743330D01*
X57164266Y-65767140D01*
X57188076Y-65790949D01*
X57640457Y-66243330D02*
X57402361Y-66243330D01*
X57402361Y-65743330D01*
X56428557Y-68863660D02*
X56499985Y-68887470D01*
X56619033Y-68887470D01*
X56666652Y-68863660D01*
X56690461Y-68839851D01*
X56714271Y-68792232D01*
X56714271Y-68744613D01*
X56690461Y-68696994D01*
X56666652Y-68673184D01*
X56619033Y-68649375D01*
X56523795Y-68625565D01*
X56476176Y-68601756D01*
X56452366Y-68577946D01*
X56428557Y-68530327D01*
X56428557Y-68482708D01*
X56452366Y-68435089D01*
X56476176Y-68411280D01*
X56523795Y-68387470D01*
X56642842Y-68387470D01*
X56714271Y-68411280D01*
X56928557Y-68887470D02*
X56928557Y-68387470D01*
X57047604Y-68387470D01*
X57119033Y-68411280D01*
X57166652Y-68458899D01*
X57190461Y-68506518D01*
X57214271Y-68601756D01*
X57214271Y-68673184D01*
X57190461Y-68768422D01*
X57166652Y-68816041D01*
X57119033Y-68863660D01*
X57047604Y-68887470D01*
X56928557Y-68887470D01*
X57404747Y-68744613D02*
X57642842Y-68744613D01*
X57357128Y-68887470D02*
X57523795Y-68387470D01*
X57690461Y-68887470D01*
D10*
X24602748Y-26302911D02*
X24555129Y-26445768D01*
X24507510Y-26493387D01*
X24412272Y-26541006D01*
X24269415Y-26541006D01*
X24174177Y-26493387D01*
X24126558Y-26445768D01*
X24078939Y-26350530D01*
X24078939Y-25969578D01*
X25078939Y-25969578D01*
X25078939Y-26302911D01*
X25031320Y-26398149D01*
X24983700Y-26445768D01*
X24888462Y-26493387D01*
X24793224Y-26493387D01*
X24697986Y-26445768D01*
X24650367Y-26398149D01*
X24602748Y-26302911D01*
X24602748Y-25969578D01*
X24078939Y-27398149D02*
X24602748Y-27398149D01*
X24697986Y-27350530D01*
X24745605Y-27255292D01*
X24745605Y-27064816D01*
X24697986Y-26969578D01*
X24126558Y-27398149D02*
X24078939Y-27302911D01*
X24078939Y-27064816D01*
X24126558Y-26969578D01*
X24221796Y-26921959D01*
X24317034Y-26921959D01*
X24412272Y-26969578D01*
X24459891Y-27064816D01*
X24459891Y-27302911D01*
X24507510Y-27398149D01*
X24745605Y-27731482D02*
X24745605Y-28112435D01*
X25078939Y-27874340D02*
X24221796Y-27874340D01*
X24126558Y-27921959D01*
X24078939Y-28017197D01*
X24078939Y-28112435D01*
X24745605Y-28302911D02*
X24745605Y-28683863D01*
X25078939Y-28445768D02*
X24221796Y-28445768D01*
X24126558Y-28493387D01*
X24078939Y-28588625D01*
X24078939Y-28683863D01*
X24126558Y-29398149D02*
X24078939Y-29302911D01*
X24078939Y-29112435D01*
X24126558Y-29017197D01*
X24221796Y-28969578D01*
X24602748Y-28969578D01*
X24697986Y-29017197D01*
X24745605Y-29112435D01*
X24745605Y-29302911D01*
X24697986Y-29398149D01*
X24602748Y-29445768D01*
X24507510Y-29445768D01*
X24412272Y-28969578D01*
X24078939Y-29874340D02*
X24745605Y-29874340D01*
X24555129Y-29874340D02*
X24650367Y-29921959D01*
X24697986Y-29969578D01*
X24745605Y-30064816D01*
X24745605Y-30160054D01*
X24745605Y-30398149D02*
X24078939Y-30636244D01*
X24745605Y-30874340D02*
X24078939Y-30636244D01*
X23840843Y-30541006D01*
X23793224Y-30493387D01*
X23745605Y-30398149D01*
X46493584Y-82466440D02*
X46160251Y-81990250D01*
X45922156Y-82466440D02*
X45922156Y-81466440D01*
X46303108Y-81466440D01*
X46398346Y-81514060D01*
X46445965Y-81561679D01*
X46493584Y-81656917D01*
X46493584Y-81799774D01*
X46445965Y-81895012D01*
X46398346Y-81942631D01*
X46303108Y-81990250D01*
X45922156Y-81990250D01*
X47303108Y-82418821D02*
X47207870Y-82466440D01*
X47017394Y-82466440D01*
X46922156Y-82418821D01*
X46874537Y-82323583D01*
X46874537Y-81942631D01*
X46922156Y-81847393D01*
X47017394Y-81799774D01*
X47207870Y-81799774D01*
X47303108Y-81847393D01*
X47350727Y-81942631D01*
X47350727Y-82037869D01*
X46874537Y-82133107D01*
X47731680Y-82418821D02*
X47826918Y-82466440D01*
X48017394Y-82466440D01*
X48112632Y-82418821D01*
X48160251Y-82323583D01*
X48160251Y-82275964D01*
X48112632Y-82180726D01*
X48017394Y-82133107D01*
X47874537Y-82133107D01*
X47779299Y-82085488D01*
X47731680Y-81990250D01*
X47731680Y-81942631D01*
X47779299Y-81847393D01*
X47874537Y-81799774D01*
X48017394Y-81799774D01*
X48112632Y-81847393D01*
X48969775Y-82418821D02*
X48874537Y-82466440D01*
X48684060Y-82466440D01*
X48588822Y-82418821D01*
X48541203Y-82323583D01*
X48541203Y-81942631D01*
X48588822Y-81847393D01*
X48684060Y-81799774D01*
X48874537Y-81799774D01*
X48969775Y-81847393D01*
X49017394Y-81942631D01*
X49017394Y-82037869D01*
X48541203Y-82133107D01*
X49303108Y-81799774D02*
X49684060Y-81799774D01*
X49445965Y-81466440D02*
X49445965Y-82323583D01*
X49493584Y-82418821D01*
X49588822Y-82466440D01*
X49684060Y-82466440D01*
X34058599Y-24343289D02*
X35058599Y-24343289D01*
X35058599Y-24724241D01*
X35010980Y-24819479D01*
X34963360Y-24867099D01*
X34868122Y-24914718D01*
X34725265Y-24914718D01*
X34630027Y-24867099D01*
X34582408Y-24819479D01*
X34534789Y-24724241D01*
X34534789Y-24343289D01*
X34058599Y-25486146D02*
X34106218Y-25390908D01*
X34153837Y-25343289D01*
X34249075Y-25295670D01*
X34534789Y-25295670D01*
X34630027Y-25343289D01*
X34677646Y-25390908D01*
X34725265Y-25486146D01*
X34725265Y-25629003D01*
X34677646Y-25724241D01*
X34630027Y-25771860D01*
X34534789Y-25819480D01*
X34249075Y-25819480D01*
X34153837Y-25771860D01*
X34106218Y-25724241D01*
X34058599Y-25629003D01*
X34058599Y-25486146D01*
X34725265Y-26152813D02*
X34058599Y-26343289D01*
X34534789Y-26533765D01*
X34058599Y-26724241D01*
X34725265Y-26914718D01*
X34106218Y-27676622D02*
X34058599Y-27581384D01*
X34058599Y-27390908D01*
X34106218Y-27295670D01*
X34201456Y-27248051D01*
X34582408Y-27248051D01*
X34677646Y-27295670D01*
X34725265Y-27390908D01*
X34725265Y-27581384D01*
X34677646Y-27676622D01*
X34582408Y-27724241D01*
X34487170Y-27724241D01*
X34391932Y-27248051D01*
X34058599Y-28152813D02*
X34725265Y-28152813D01*
X34534789Y-28152813D02*
X34630027Y-28200432D01*
X34677646Y-28248051D01*
X34725265Y-28343289D01*
X34725265Y-28438527D01*
X32847371Y-66468277D02*
X32933085Y-66496848D01*
X33075942Y-66496848D01*
X33133085Y-66468277D01*
X33161657Y-66439705D01*
X33190228Y-66382562D01*
X33190228Y-66325420D01*
X33161657Y-66268277D01*
X33133085Y-66239705D01*
X33075942Y-66211134D01*
X32961657Y-66182562D01*
X32904514Y-66153991D01*
X32875942Y-66125420D01*
X32847371Y-66068277D01*
X32847371Y-66011134D01*
X32875942Y-65953991D01*
X32904514Y-65925420D01*
X32961657Y-65896848D01*
X33104514Y-65896848D01*
X33190228Y-65925420D01*
X33675942Y-66468277D02*
X33618800Y-66496848D01*
X33504514Y-66496848D01*
X33447371Y-66468277D01*
X33418800Y-66411134D01*
X33418800Y-66182562D01*
X33447371Y-66125420D01*
X33504514Y-66096848D01*
X33618800Y-66096848D01*
X33675942Y-66125420D01*
X33704514Y-66182562D01*
X33704514Y-66239705D01*
X33418800Y-66296848D01*
X33961657Y-66096848D02*
X33961657Y-66496848D01*
X33961657Y-66153991D02*
X33990228Y-66125420D01*
X34047371Y-66096848D01*
X34133085Y-66096848D01*
X34190228Y-66125420D01*
X34218800Y-66182562D01*
X34218800Y-66496848D01*
X34475942Y-66468277D02*
X34533085Y-66496848D01*
X34647371Y-66496848D01*
X34704514Y-66468277D01*
X34733085Y-66411134D01*
X34733085Y-66382562D01*
X34704514Y-66325420D01*
X34647371Y-66296848D01*
X34561657Y-66296848D01*
X34504514Y-66268277D01*
X34475942Y-66211134D01*
X34475942Y-66182562D01*
X34504514Y-66125420D01*
X34561657Y-66096848D01*
X34647371Y-66096848D01*
X34704514Y-66125420D01*
X35075942Y-66496848D02*
X35018800Y-66468277D01*
X34990228Y-66439705D01*
X34961657Y-66382562D01*
X34961657Y-66211134D01*
X34990228Y-66153991D01*
X35018800Y-66125420D01*
X35075942Y-66096848D01*
X35161657Y-66096848D01*
X35218800Y-66125420D01*
X35247371Y-66153991D01*
X35275942Y-66211134D01*
X35275942Y-66382562D01*
X35247371Y-66439705D01*
X35218800Y-66468277D01*
X35161657Y-66496848D01*
X35075942Y-66496848D01*
X35533085Y-66496848D02*
X35533085Y-66096848D01*
X35533085Y-66211134D02*
X35561657Y-66153991D01*
X35590228Y-66125420D01*
X35647371Y-66096848D01*
X35704514Y-66096848D01*
X35761657Y-66553991D02*
X36218800Y-66553991D01*
X36361657Y-66496848D02*
X36361657Y-65896848D01*
X36590228Y-65896848D01*
X36647371Y-65925420D01*
X36675942Y-65953991D01*
X36704514Y-66011134D01*
X36704514Y-66096848D01*
X36675942Y-66153991D01*
X36647371Y-66182562D01*
X36590228Y-66211134D01*
X36361657Y-66211134D01*
X37304514Y-66439705D02*
X37275942Y-66468277D01*
X37190228Y-66496848D01*
X37133085Y-66496848D01*
X37047371Y-66468277D01*
X36990228Y-66411134D01*
X36961657Y-66353991D01*
X36933085Y-66239705D01*
X36933085Y-66153991D01*
X36961657Y-66039705D01*
X36990228Y-65982562D01*
X37047371Y-65925420D01*
X37133085Y-65896848D01*
X37190228Y-65896848D01*
X37275942Y-65925420D01*
X37304514Y-65953991D01*
X37761657Y-66182562D02*
X37847371Y-66211134D01*
X37875942Y-66239705D01*
X37904514Y-66296848D01*
X37904514Y-66382562D01*
X37875942Y-66439705D01*
X37847371Y-66468277D01*
X37790228Y-66496848D01*
X37561657Y-66496848D01*
X37561657Y-65896848D01*
X37761657Y-65896848D01*
X37818800Y-65925420D01*
X37847371Y-65953991D01*
X37875942Y-66011134D01*
X37875942Y-66068277D01*
X37847371Y-66125420D01*
X37818800Y-66153991D01*
X37761657Y-66182562D01*
X37561657Y-66182562D01*
X38018800Y-66553991D02*
X38475942Y-66553991D01*
X38561657Y-66096848D02*
X38704514Y-66496848D01*
X38847371Y-66096848D01*
X39018800Y-65896848D02*
X39390228Y-65896848D01*
X39190228Y-66125420D01*
X39275942Y-66125420D01*
X39333085Y-66153991D01*
X39361657Y-66182562D01*
X39390228Y-66239705D01*
X39390228Y-66382562D01*
X39361657Y-66439705D01*
X39333085Y-66468277D01*
X39275942Y-66496848D01*
X39104514Y-66496848D01*
X39047371Y-66468277D01*
X39018800Y-66439705D01*
D14*
X28248909Y-65527180D02*
X28248909Y-64527180D01*
X28248909Y-65003371D02*
X28820338Y-65003371D01*
X28820338Y-65527180D02*
X28820338Y-64527180D01*
X29725099Y-64860514D02*
X29725099Y-65527180D01*
X29296528Y-64860514D02*
X29296528Y-65384323D01*
X29344147Y-65479561D01*
X29439385Y-65527180D01*
X29582242Y-65527180D01*
X29677480Y-65479561D01*
X29725099Y-65431942D01*
X30201290Y-65527180D02*
X30201290Y-64527180D01*
X30296528Y-65146228D02*
X30582242Y-65527180D01*
X30582242Y-64860514D02*
X30201290Y-65241466D01*
X31439385Y-65527180D02*
X31439385Y-65003371D01*
X31391766Y-64908133D01*
X31296528Y-64860514D01*
X31106052Y-64860514D01*
X31010814Y-64908133D01*
X31439385Y-65479561D02*
X31344147Y-65527180D01*
X31106052Y-65527180D01*
X31010814Y-65479561D01*
X30963195Y-65384323D01*
X30963195Y-65289085D01*
X31010814Y-65193847D01*
X31106052Y-65146228D01*
X31344147Y-65146228D01*
X31439385Y-65098609D01*
X31915576Y-65527180D02*
X31915576Y-64860514D01*
X31915576Y-64955752D02*
X31963195Y-64908133D01*
X32058433Y-64860514D01*
X32201290Y-64860514D01*
X32296528Y-64908133D01*
X32344147Y-65003371D01*
X32344147Y-65527180D01*
X32344147Y-65003371D02*
X32391766Y-64908133D01*
X32487004Y-64860514D01*
X32629861Y-64860514D01*
X32725099Y-64908133D01*
X32772719Y-65003371D01*
X32772719Y-65527180D01*
X33867957Y-64527180D02*
X34439385Y-64527180D01*
X34153671Y-65527180D02*
X34153671Y-64527180D01*
X35153671Y-65479561D02*
X35058433Y-65527180D01*
X34867957Y-65527180D01*
X34772719Y-65479561D01*
X34725100Y-65384323D01*
X34725100Y-65003371D01*
X34772719Y-64908133D01*
X34867957Y-64860514D01*
X35058433Y-64860514D01*
X35153671Y-64908133D01*
X35201290Y-65003371D01*
X35201290Y-65098609D01*
X34725100Y-65193847D01*
X36058433Y-65479561D02*
X35963195Y-65527180D01*
X35772719Y-65527180D01*
X35677480Y-65479561D01*
X35629861Y-65431942D01*
X35582242Y-65336704D01*
X35582242Y-65050990D01*
X35629861Y-64955752D01*
X35677480Y-64908133D01*
X35772719Y-64860514D01*
X35963195Y-64860514D01*
X36058433Y-64908133D01*
X36487004Y-65527180D02*
X36487004Y-64527180D01*
X36915576Y-65527180D02*
X36915576Y-65003371D01*
X36867957Y-64908133D01*
X36772719Y-64860514D01*
X36629861Y-64860514D01*
X36534623Y-64908133D01*
X36487004Y-64955752D01*
X37391766Y-64860514D02*
X37391766Y-65527180D01*
X37391766Y-64955752D02*
X37439385Y-64908133D01*
X37534623Y-64860514D01*
X37677480Y-64860514D01*
X37772719Y-64908133D01*
X37820338Y-65003371D01*
X37820338Y-65527180D01*
X38439385Y-65527180D02*
X38344147Y-65479561D01*
X38296528Y-65431942D01*
X38248909Y-65336704D01*
X38248909Y-65050990D01*
X38296528Y-64955752D01*
X38344147Y-64908133D01*
X38439385Y-64860514D01*
X38582242Y-64860514D01*
X38677480Y-64908133D01*
X38725100Y-64955752D01*
X38772719Y-65050990D01*
X38772719Y-65336704D01*
X38725100Y-65431942D01*
X38677480Y-65479561D01*
X38582242Y-65527180D01*
X38439385Y-65527180D01*
X39344147Y-65527180D02*
X39248909Y-65479561D01*
X39201290Y-65384323D01*
X39201290Y-64527180D01*
X39867957Y-65527180D02*
X39772719Y-65479561D01*
X39725100Y-65431942D01*
X39677480Y-65336704D01*
X39677480Y-65050990D01*
X39725100Y-64955752D01*
X39772719Y-64908133D01*
X39867957Y-64860514D01*
X40010814Y-64860514D01*
X40106052Y-64908133D01*
X40153671Y-64955752D01*
X40201290Y-65050990D01*
X40201290Y-65336704D01*
X40153671Y-65431942D01*
X40106052Y-65479561D01*
X40010814Y-65527180D01*
X39867957Y-65527180D01*
X41058433Y-64860514D02*
X41058433Y-65670038D01*
X41010814Y-65765276D01*
X40963195Y-65812895D01*
X40867957Y-65860514D01*
X40725100Y-65860514D01*
X40629861Y-65812895D01*
X41058433Y-65479561D02*
X40963195Y-65527180D01*
X40772719Y-65527180D01*
X40677480Y-65479561D01*
X40629861Y-65431942D01*
X40582242Y-65336704D01*
X40582242Y-65050990D01*
X40629861Y-64955752D01*
X40677480Y-64908133D01*
X40772719Y-64860514D01*
X40963195Y-64860514D01*
X41058433Y-64908133D01*
X41534623Y-65527180D02*
X41534623Y-64860514D01*
X41534623Y-64527180D02*
X41487004Y-64574800D01*
X41534623Y-64622419D01*
X41582242Y-64574800D01*
X41534623Y-64527180D01*
X41534623Y-64622419D01*
X42391766Y-65479561D02*
X42296528Y-65527180D01*
X42106052Y-65527180D01*
X42010814Y-65479561D01*
X41963195Y-65384323D01*
X41963195Y-65003371D01*
X42010814Y-64908133D01*
X42106052Y-64860514D01*
X42296528Y-64860514D01*
X42391766Y-64908133D01*
X42439385Y-65003371D01*
X42439385Y-65098609D01*
X41963195Y-65193847D01*
X42820338Y-65479561D02*
X42915576Y-65527180D01*
X43106052Y-65527180D01*
X43201290Y-65479561D01*
X43248909Y-65384323D01*
X43248909Y-65336704D01*
X43201290Y-65241466D01*
X43106052Y-65193847D01*
X42963195Y-65193847D01*
X42867957Y-65146228D01*
X42820338Y-65050990D01*
X42820338Y-65003371D01*
X42867957Y-64908133D01*
X42963195Y-64860514D01*
X43106052Y-64860514D01*
X43201290Y-64908133D01*
D13*
X58158000Y-89065100D02*
X58158000Y-86525100D01*
X56888000Y-87795100D02*
X59428000Y-87795100D01*
X24176400Y-87795100D02*
X26716400Y-87795100D01*
X25446400Y-89065100D02*
X25446400Y-86525100D01*
X24170640Y-21361400D02*
X26710640Y-21361400D01*
X25440640Y-22631400D02*
X25440640Y-20091400D01*
X58158000Y-22631400D02*
X58158000Y-20091400D01*
X56888000Y-21361400D02*
X59428000Y-21361400D01*
D15*
G36*
X40165400Y-38053700D02*
G01*
X40165400Y-35453700D01*
X48465400Y-35453700D01*
X48465400Y-38053700D01*
X46765400Y-38053700D01*
X46765400Y-41153700D01*
X48465400Y-41153700D01*
X48465400Y-43753700D01*
X40165400Y-43753700D01*
X40165400Y-41153700D01*
X41865400Y-41153700D01*
X41865400Y-38053700D01*
X40165400Y-38053700D01*
G37*
X40165400Y-38053700D02*
X40165400Y-35453700D01*
X48465400Y-35453700D01*
X48465400Y-38053700D01*
X46765400Y-38053700D01*
X46765400Y-41153700D01*
X48465400Y-41153700D01*
X48465400Y-43753700D01*
X40165400Y-43753700D01*
X40165400Y-41153700D01*
X41865400Y-41153700D01*
X41865400Y-38053700D01*
X40165400Y-38053700D01*
G36*
X40165400Y-38053700D02*
G01*
X40165400Y-35453700D01*
X48465400Y-35453700D01*
X48465400Y-38053700D01*
X46765400Y-38053700D01*
X46765400Y-41153700D01*
X48465400Y-41153700D01*
X48465400Y-43753700D01*
X40165400Y-43753700D01*
X40165400Y-41153700D01*
X41865400Y-41153700D01*
X41865400Y-38053700D01*
X40165400Y-38053700D01*
G37*
X40165400Y-38053700D02*
X40165400Y-35453700D01*
X48465400Y-35453700D01*
X48465400Y-38053700D01*
X46765400Y-38053700D01*
X46765400Y-41153700D01*
X48465400Y-41153700D01*
X48465400Y-43753700D01*
X40165400Y-43753700D01*
X40165400Y-41153700D01*
X41865400Y-41153700D01*
X41865400Y-38053700D01*
X40165400Y-38053700D01*
D10*
X48326071Y-66126004D02*
X48373690Y-65983147D01*
X48421309Y-65935528D01*
X48516547Y-65887909D01*
X48659404Y-65887909D01*
X48754642Y-65935528D01*
X48802261Y-65983147D01*
X48849880Y-66078385D01*
X48849880Y-66459338D01*
X47849880Y-66459338D01*
X47849880Y-66126004D01*
X47897500Y-66030766D01*
X47945119Y-65983147D01*
X48040357Y-65935528D01*
X48135595Y-65935528D01*
X48230833Y-65983147D01*
X48278452Y-66030766D01*
X48326071Y-66126004D01*
X48326071Y-66459338D01*
X48849880Y-65459338D02*
X47849880Y-65459338D01*
X48564166Y-65126004D01*
X47849880Y-64792671D01*
X48849880Y-64792671D01*
X48326071Y-64316480D02*
X48326071Y-63983147D01*
X48849880Y-63840290D02*
X48849880Y-64316480D01*
X47849880Y-64316480D01*
X47849880Y-63840290D01*
X48945119Y-63649814D02*
X48945119Y-62887909D01*
X47945119Y-62697433D02*
X47897500Y-62649814D01*
X47849880Y-62554576D01*
X47849880Y-62316480D01*
X47897500Y-62221242D01*
X47945119Y-62173623D01*
X48040357Y-62126004D01*
X48135595Y-62126004D01*
X48278452Y-62173623D01*
X48849880Y-62745052D01*
X48849880Y-62126004D01*
X48278452Y-61554576D02*
X48230833Y-61649814D01*
X48183214Y-61697433D01*
X48087976Y-61745052D01*
X48040357Y-61745052D01*
X47945119Y-61697433D01*
X47897500Y-61649814D01*
X47849880Y-61554576D01*
X47849880Y-61364100D01*
X47897500Y-61268861D01*
X47945119Y-61221242D01*
X48040357Y-61173623D01*
X48087976Y-61173623D01*
X48183214Y-61221242D01*
X48230833Y-61268861D01*
X48278452Y-61364100D01*
X48278452Y-61554576D01*
X48326071Y-61649814D01*
X48373690Y-61697433D01*
X48468928Y-61745052D01*
X48659404Y-61745052D01*
X48754642Y-61697433D01*
X48802261Y-61649814D01*
X48849880Y-61554576D01*
X48849880Y-61364100D01*
X48802261Y-61268861D01*
X48754642Y-61221242D01*
X48659404Y-61173623D01*
X48468928Y-61173623D01*
X48373690Y-61221242D01*
X48326071Y-61268861D01*
X48278452Y-61364100D01*
X47849880Y-60554576D02*
X47849880Y-60459338D01*
X47897500Y-60364100D01*
X47945119Y-60316480D01*
X48040357Y-60268861D01*
X48230833Y-60221242D01*
X48468928Y-60221242D01*
X48659404Y-60268861D01*
X48754642Y-60316480D01*
X48802261Y-60364100D01*
X48849880Y-60459338D01*
X48849880Y-60554576D01*
X48802261Y-60649814D01*
X48754642Y-60697433D01*
X48659404Y-60745052D01*
X48468928Y-60792671D01*
X48230833Y-60792671D01*
X48040357Y-60745052D01*
X47945119Y-60697433D01*
X47897500Y-60649814D01*
X47849880Y-60554576D01*
M02*
