M48
; DRILL file {KiCad 5.1.6-c6e7f7d~87~ubuntu18.04.1} date Mon Nov  2 00:43:33 2020
; FORMAT={3:3/ absolute / metric / suppress leading zeros}
; #@! TF.CreationDate,2020-11-02T00:43:33+05:30
; #@! TF.GenerationSoftware,Kicad,Pcbnew,5.1.6-c6e7f7d~87~ubuntu18.04.1
FMAT,2
METRIC,TZ
T1C0.600
T2C0.762
T3C0.800
T4C0.900
T5C1.000
T6C1.100
T7C2.100
T8C0.900
%
G90
G05
T1
X29394Y-66976
X29618Y-24451
X31585Y-55439
X32464Y-66740
X32841Y-56705
X33265Y-63248
X33273Y-64617
X34105Y-82203
X34409Y-44666
X35490Y-48788
X35614Y-59817
X35727Y-57361
X36744Y-46454
X37340Y-61555
X37921Y-58747
X38116Y-57137
X38222Y-62495
X38812Y-59553
X39337Y-54422
X39716Y-57285
X40788Y-70802
X43599Y-57303
X43665Y-25696
X48302Y-36931
T2
X28273Y-26924
X28283Y-29464
X55107Y-60744
X55107Y-63284
X55107Y-65824
X55107Y-68364
X28288Y-38553
X28298Y-41093
T3
X26746Y-47897
X26746Y-52777
X46454Y-47950
X46454Y-52830
T4
X55024Y-21859
X57564Y-26259
T5
X56236Y-72898
X56236Y-75438
X56236Y-77978
X56236Y-80518
X55474Y-47475
X55474Y-50015
X55474Y-52555
X55474Y-55095
X37655Y-86700
X40195Y-86700
X42735Y-86700
X45276Y-86700
X47815Y-86700
X50356Y-86700
X28562Y-87688
T6
X44620Y-75119
X44620Y-79619
X51120Y-75119
X51120Y-79619
T7
X25446Y-87795
X58158Y-21361
X58158Y-87795
X25441Y-21361
T8
X45322Y-21633
X48322Y-21633
T0
M30
