M48
; DRILL file {KiCad 5.1.7-a382d34a8~88~ubuntu18.04.1} date Tue May 25 16:00:26 2021
; FORMAT={3:3/ absolute / metric / suppress leading zeros}
; #@! TF.CreationDate,2021-05-25T16:00:26+05:30
; #@! TF.GenerationSoftware,Kicad,Pcbnew,5.1.7-a382d34a8~88~ubuntu18.04.1
FMAT,2
METRIC,TZ
T1C1.000
T2C1.016
T3C2.750
%
G90
G05
T1
X93269Y-74201
X144107Y-60035
X144107Y-62575
X144107Y-65115
X144107Y-67655
X144107Y-70195
X144107Y-72735
X144107Y-75275
X144107Y-77815
X144107Y-80355
X144107Y-82895
X144107Y-85435
X144107Y-87975
X144107Y-90515
X144107Y-93055
X144107Y-95595
X146647Y-60035
X146647Y-62575
X146647Y-65115
X146647Y-67655
X146647Y-70195
X146647Y-72735
X146647Y-75275
X146647Y-77815
X146647Y-80355
X146647Y-82895
X146647Y-85435
X146647Y-87975
X146647Y-90515
X146647Y-93055
X146647Y-95595
T2
X99797Y-51774
X99797Y-54314
X102337Y-51774
X102337Y-54314
X104877Y-51774
X104877Y-54314
X107417Y-51774
X107417Y-54314
X109957Y-51774
X109957Y-54314
X112497Y-51774
X112497Y-54314
X115037Y-51774
X115037Y-54314
X117577Y-51774
X117577Y-54314
X120117Y-51774
X120117Y-54314
X122657Y-51774
X122657Y-54314
X125197Y-51774
X125197Y-54314
X127737Y-51774
X127737Y-54314
X130277Y-51774
X130277Y-54314
X132817Y-51774
X132817Y-54314
X135357Y-51774
X135357Y-54314
X137897Y-51774
X137897Y-54314
X140437Y-51774
X140437Y-54314
X142977Y-51774
X142977Y-54314
X145517Y-51774
X145517Y-54314
X148057Y-51774
X148057Y-54314
T3
X94927Y-53044
X94927Y-102044
X152927Y-53044
X152927Y-102044
T0
M30
