G04 #@! TF.GenerationSoftware,KiCad,Pcbnew,5.1.7-a382d34a8~88~ubuntu18.04.1*
G04 #@! TF.CreationDate,2021-05-25T15:59:45+05:30*
G04 #@! TF.ProjectId,Gateway_v1,47617465-7761-4795-9f76-312e6b696361,rev?*
G04 #@! TF.SameCoordinates,Original*
G04 #@! TF.FileFunction,Copper,L2,Bot*
G04 #@! TF.FilePolarity,Positive*
%FSLAX46Y46*%
G04 Gerber Fmt 4.6, Leading zero omitted, Abs format (unit mm)*
G04 Created by KiCad (PCBNEW 5.1.7-a382d34a8~88~ubuntu18.04.1) date 2021-05-25 15:59:45*
%MOMM*%
%LPD*%
G01*
G04 APERTURE LIST*
G04 #@! TA.AperFunction,ComponentPad*
%ADD10C,1.524000*%
G04 #@! TD*
G04 #@! TA.AperFunction,ComponentPad*
%ADD11R,1.524000X1.524000*%
G04 #@! TD*
G04 #@! TA.AperFunction,ComponentPad*
%ADD12C,6.200000*%
G04 #@! TD*
G04 #@! TA.AperFunction,ComponentPad*
%ADD13R,1.700000X1.700000*%
G04 #@! TD*
G04 #@! TA.AperFunction,ComponentPad*
%ADD14O,1.700000X1.700000*%
G04 #@! TD*
G04 #@! TA.AperFunction,SMDPad,CuDef*
%ADD15R,1.200000X1.700000*%
G04 #@! TD*
G04 #@! TA.AperFunction,Conductor*
%ADD16C,0.250000*%
G04 #@! TD*
G04 #@! TA.AperFunction,Conductor*
%ADD17C,0.800000*%
G04 #@! TD*
G04 #@! TA.AperFunction,Conductor*
%ADD18C,0.254000*%
G04 #@! TD*
G04 #@! TA.AperFunction,Conductor*
%ADD19C,0.100000*%
G04 #@! TD*
G04 APERTURE END LIST*
D10*
G04 #@! TO.P,J1,40*
G04 #@! TO.N,/Pin_40*
X148057000Y-51773700D03*
G04 #@! TO.P,J1,38*
G04 #@! TO.N,/Pin_38*
X145517000Y-51773700D03*
G04 #@! TO.P,J1,36*
G04 #@! TO.N,/Pin_36*
X142977000Y-51773700D03*
G04 #@! TO.P,J1,34*
G04 #@! TO.N,/Pin_34*
X140437000Y-51773700D03*
G04 #@! TO.P,J1,32*
G04 #@! TO.N,/Pin_32*
X137897000Y-51773700D03*
G04 #@! TO.P,J1,30*
G04 #@! TO.N,/Pin_30*
X135357000Y-51773700D03*
G04 #@! TO.P,J1,39*
G04 #@! TO.N,/Pin_39*
X148057000Y-54313700D03*
G04 #@! TO.P,J1,37*
G04 #@! TO.N,/Pin_37*
X145517000Y-54313700D03*
G04 #@! TO.P,J1,35*
G04 #@! TO.N,/Pin_35*
X142977000Y-54313700D03*
G04 #@! TO.P,J1,33*
G04 #@! TO.N,/Pin_33*
X140437000Y-54313700D03*
G04 #@! TO.P,J1,31*
G04 #@! TO.N,/Pin_31*
X137897000Y-54313700D03*
G04 #@! TO.P,J1,29*
G04 #@! TO.N,/Pin_29*
X135357000Y-54313700D03*
G04 #@! TO.P,J1,28*
G04 #@! TO.N,/Pin_28*
X132817000Y-51773700D03*
G04 #@! TO.P,J1,27*
G04 #@! TO.N,/Pin_27*
X132817000Y-54313700D03*
G04 #@! TO.P,J1,26*
G04 #@! TO.N,/Pin_26*
X130277000Y-51773700D03*
G04 #@! TO.P,J1,24*
G04 #@! TO.N,/NSS*
X127737000Y-51773700D03*
G04 #@! TO.P,J1,22*
G04 #@! TO.N,/DIO0*
X125197000Y-51773700D03*
G04 #@! TO.P,J1,20*
G04 #@! TO.N,/Pin_20*
X122657000Y-51773700D03*
G04 #@! TO.P,J1,18*
G04 #@! TO.N,/Reset*
X120117000Y-51773700D03*
G04 #@! TO.P,J1,16*
G04 #@! TO.N,/Pin_16*
X117577000Y-51773700D03*
G04 #@! TO.P,J1,25*
G04 #@! TO.N,/Pin_25*
X130277000Y-54313700D03*
G04 #@! TO.P,J1,23*
G04 #@! TO.N,/SCK*
X127737000Y-54313700D03*
G04 #@! TO.P,J1,21*
G04 #@! TO.N,/MISO*
X125197000Y-54313700D03*
G04 #@! TO.P,J1,19*
G04 #@! TO.N,/MOSI*
X122657000Y-54313700D03*
G04 #@! TO.P,J1,17*
G04 #@! TO.N,/Pin_17*
X120117000Y-54313700D03*
G04 #@! TO.P,J1,15*
G04 #@! TO.N,/DIO3*
X117577000Y-54313700D03*
G04 #@! TO.P,J1,14*
G04 #@! TO.N,/Pin_14*
X115037000Y-51773700D03*
G04 #@! TO.P,J1,13*
G04 #@! TO.N,/DIO2*
X115037000Y-54313700D03*
G04 #@! TO.P,J1,12*
G04 #@! TO.N,/Pin_12*
X112497000Y-51773700D03*
G04 #@! TO.P,J1,10*
G04 #@! TO.N,/Pin_10*
X109957000Y-51773700D03*
G04 #@! TO.P,J1,8*
G04 #@! TO.N,/Pin_8*
X107417000Y-51773700D03*
G04 #@! TO.P,J1,6*
G04 #@! TO.N,/Gnd*
X104877000Y-51773700D03*
G04 #@! TO.P,J1,4*
G04 #@! TO.N,/Pin_4*
X102337000Y-51773700D03*
G04 #@! TO.P,J1,2*
G04 #@! TO.N,/Pin_2*
X99797000Y-51773700D03*
G04 #@! TO.P,J1,11*
G04 #@! TO.N,/DIO1*
X112497000Y-54313700D03*
G04 #@! TO.P,J1,9*
G04 #@! TO.N,/Pin_9*
X109957000Y-54313700D03*
G04 #@! TO.P,J1,7*
G04 #@! TO.N,/Pin_7*
X107417000Y-54313700D03*
G04 #@! TO.P,J1,5*
G04 #@! TO.N,/Pin_5*
X104877000Y-54313700D03*
G04 #@! TO.P,J1,3*
G04 #@! TO.N,/Pin_3*
X102337000Y-54313700D03*
D11*
G04 #@! TO.P,J1,1*
G04 #@! TO.N,/3.3v*
X99797000Y-54313700D03*
D12*
G04 #@! TO.P,J1,S1*
G04 #@! TO.N,N/C*
X94927000Y-53043700D03*
G04 #@! TO.P,J1,S2*
X152927000Y-53043700D03*
G04 #@! TO.P,J1,S3*
X152927000Y-102043700D03*
G04 #@! TO.P,J1,S4*
X94927000Y-102043700D03*
G04 #@! TD*
D13*
G04 #@! TO.P,AE1,1*
G04 #@! TO.N,Net-(AE1-Pad1)*
X93268800Y-74201000D03*
G04 #@! TD*
D14*
G04 #@! TO.P,J2,30*
G04 #@! TO.N,Net-(J2-Pad30)*
X144107000Y-60035400D03*
G04 #@! TO.P,J2,29*
G04 #@! TO.N,/Pin_40*
X146647000Y-60035400D03*
G04 #@! TO.P,J2,28*
G04 #@! TO.N,/Pin_39*
X144107000Y-62575400D03*
G04 #@! TO.P,J2,27*
G04 #@! TO.N,/Pin_38*
X146647000Y-62575400D03*
G04 #@! TO.P,J2,26*
G04 #@! TO.N,/Pin_37*
X144107000Y-65115400D03*
G04 #@! TO.P,J2,25*
G04 #@! TO.N,/Pin_36*
X146647000Y-65115400D03*
G04 #@! TO.P,J2,24*
G04 #@! TO.N,/Pin_35*
X144107000Y-67655400D03*
G04 #@! TO.P,J2,23*
G04 #@! TO.N,/Pin_34*
X146647000Y-67655400D03*
G04 #@! TO.P,J2,22*
G04 #@! TO.N,/Pin_33*
X144107000Y-70195400D03*
G04 #@! TO.P,J2,21*
G04 #@! TO.N,/Pin_32*
X146647000Y-70195400D03*
G04 #@! TO.P,J2,20*
G04 #@! TO.N,/Pin_31*
X144107000Y-72735400D03*
G04 #@! TO.P,J2,19*
G04 #@! TO.N,/Pin_30*
X146647000Y-72735400D03*
G04 #@! TO.P,J2,18*
G04 #@! TO.N,/Pin_29*
X144107000Y-75275400D03*
G04 #@! TO.P,J2,17*
G04 #@! TO.N,/Pin_28*
X146647000Y-75275400D03*
G04 #@! TO.P,J2,16*
G04 #@! TO.N,/Pin_27*
X144107000Y-77815400D03*
G04 #@! TO.P,J2,15*
G04 #@! TO.N,/Pin_26*
X146647000Y-77815400D03*
G04 #@! TO.P,J2,14*
G04 #@! TO.N,/Pin_25*
X144107000Y-80355400D03*
G04 #@! TO.P,J2,13*
G04 #@! TO.N,/Pin_20*
X146647000Y-80355400D03*
G04 #@! TO.P,J2,12*
G04 #@! TO.N,/Pin_17*
X144107000Y-82895400D03*
G04 #@! TO.P,J2,11*
G04 #@! TO.N,/Pin_16*
X146647000Y-82895400D03*
G04 #@! TO.P,J2,10*
G04 #@! TO.N,/Pin_14*
X144107000Y-85435400D03*
G04 #@! TO.P,J2,9*
G04 #@! TO.N,/Pin_12*
X146647000Y-85435400D03*
G04 #@! TO.P,J2,8*
G04 #@! TO.N,/Pin_10*
X144107000Y-87975400D03*
G04 #@! TO.P,J2,7*
G04 #@! TO.N,/Pin_9*
X146647000Y-87975400D03*
G04 #@! TO.P,J2,6*
G04 #@! TO.N,/Pin_8*
X144107000Y-90515400D03*
G04 #@! TO.P,J2,5*
G04 #@! TO.N,/Pin_7*
X146647000Y-90515400D03*
G04 #@! TO.P,J2,4*
G04 #@! TO.N,/Pin_5*
X144107000Y-93055400D03*
G04 #@! TO.P,J2,3*
G04 #@! TO.N,/Pin_4*
X146647000Y-93055400D03*
G04 #@! TO.P,J2,2*
G04 #@! TO.N,/Pin_3*
X144107000Y-95595400D03*
D13*
G04 #@! TO.P,J2,1*
G04 #@! TO.N,/Pin_2*
X146647000Y-95595400D03*
G04 #@! TD*
D15*
G04 #@! TO.P,U1,1*
G04 #@! TO.N,Net-(AE1-Pad1)*
X92611200Y-76982400D03*
G04 #@! TO.P,U1,2*
G04 #@! TO.N,/Gnd*
X94611200Y-76982400D03*
G04 #@! TO.P,U1,3*
G04 #@! TO.N,/3.3v*
X96611200Y-76982400D03*
G04 #@! TO.P,U1,4*
G04 #@! TO.N,/Reset*
X98611200Y-76982400D03*
G04 #@! TO.P,U1,5*
G04 #@! TO.N,/DIO0*
X100611200Y-76982400D03*
G04 #@! TO.P,U1,6*
G04 #@! TO.N,/DIO1*
X102611200Y-76982400D03*
G04 #@! TO.P,U1,7*
G04 #@! TO.N,/DIO2*
X104611200Y-76982400D03*
G04 #@! TO.P,U1,8*
G04 #@! TO.N,/DIO3*
X106611200Y-76982400D03*
G04 #@! TO.P,U1,9*
G04 #@! TO.N,/Gnd*
X106611200Y-92212400D03*
G04 #@! TO.P,U1,10*
G04 #@! TO.N,Net-(U1-Pad10)*
X104611200Y-92212400D03*
G04 #@! TO.P,U1,11*
G04 #@! TO.N,Net-(U1-Pad11)*
X102611200Y-92212400D03*
G04 #@! TO.P,U1,12*
G04 #@! TO.N,/SCK*
X100611200Y-92212400D03*
G04 #@! TO.P,U1,13*
G04 #@! TO.N,/MISO*
X98611200Y-92212400D03*
G04 #@! TO.P,U1,14*
G04 #@! TO.N,/MOSI*
X96611200Y-92212400D03*
G04 #@! TO.P,U1,15*
G04 #@! TO.N,/NSS*
X94611200Y-92212400D03*
G04 #@! TO.P,U1,16*
G04 #@! TO.N,/Gnd*
X92611200Y-92212400D03*
G04 #@! TD*
D16*
G04 #@! TO.N,/3.3v*
X99797000Y-54313700D02*
X99797000Y-55401000D01*
X96611200Y-76982400D02*
X96611200Y-58586800D01*
X96611200Y-58586800D02*
X99797000Y-55401000D01*
G04 #@! TO.N,/DIO1*
X102611200Y-76982400D02*
X102611200Y-64199500D01*
X102611200Y-64199500D02*
X112497000Y-54313700D01*
G04 #@! TO.N,/DIO2*
X104611200Y-76982400D02*
X104611200Y-64739500D01*
X104611200Y-64739500D02*
X115037000Y-54313700D01*
G04 #@! TO.N,/DIO3*
X106611200Y-76982400D02*
X106611200Y-65279500D01*
X106611200Y-65279500D02*
X117577000Y-54313700D01*
G04 #@! TO.N,/MOSI*
X122657000Y-54313700D02*
X122657000Y-65903100D01*
X122657000Y-65903100D02*
X97536500Y-91023600D01*
X97536500Y-91023600D02*
X97536500Y-92212400D01*
X96611200Y-92212400D02*
X97536500Y-92212400D01*
G04 #@! TO.N,/MISO*
X98611200Y-92212400D02*
X98611200Y-91037100D01*
X98611200Y-91037100D02*
X125197000Y-64451300D01*
X125197000Y-64451300D02*
X125197000Y-54313700D01*
G04 #@! TO.N,/SCK*
X100611200Y-92212400D02*
X101536500Y-92212400D01*
X101536500Y-92212400D02*
X101536500Y-91287100D01*
X101536500Y-91287100D02*
X127737000Y-65086600D01*
X127737000Y-65086600D02*
X127737000Y-54313700D01*
G04 #@! TO.N,/Reset*
X98611200Y-76982400D02*
X98611200Y-64843700D01*
X98611200Y-64843700D02*
X108869600Y-54585300D01*
X108869600Y-54585300D02*
X108869600Y-53814400D01*
X108869600Y-53814400D02*
X109640300Y-53043700D01*
X109640300Y-53043700D02*
X118847000Y-53043700D01*
X118847000Y-53043700D02*
X120117000Y-51773700D01*
G04 #@! TO.N,/DIO0*
X100611200Y-76982400D02*
X101536500Y-76982400D01*
X101536500Y-76982400D02*
X101536500Y-77907700D01*
X101536500Y-77907700D02*
X101786600Y-78157800D01*
X101786600Y-78157800D02*
X107348100Y-78157800D01*
X107348100Y-78157800D02*
X121569600Y-63936300D01*
X121569600Y-63936300D02*
X121569600Y-53798800D01*
X121569600Y-53798800D02*
X122324700Y-53043700D01*
X122324700Y-53043700D02*
X123927000Y-53043700D01*
X123927000Y-53043700D02*
X125197000Y-51773700D01*
G04 #@! TO.N,/NSS*
X94611200Y-92212400D02*
X95536500Y-92212400D01*
X95536500Y-92212400D02*
X95536500Y-93137700D01*
X95536500Y-93137700D02*
X95786500Y-93387700D01*
X95786500Y-93387700D02*
X99346000Y-93387700D01*
X99346000Y-93387700D02*
X99536600Y-93197100D01*
X99536600Y-93197100D02*
X99536600Y-91037000D01*
X99536600Y-91037000D02*
X126467200Y-64106400D01*
X126467200Y-64106400D02*
X126467200Y-53043500D01*
X126467200Y-53043500D02*
X127737000Y-51773700D01*
G04 #@! TO.N,/Pin_39*
X144107000Y-62575400D02*
X144107000Y-61400100D01*
X144107000Y-61400100D02*
X143739700Y-61400100D01*
X143739700Y-61400100D02*
X142887700Y-60548100D01*
X142887700Y-60548100D02*
X142887700Y-58054800D01*
X142887700Y-58054800D02*
X144429600Y-56512900D01*
X144429600Y-56512900D02*
X144429600Y-53798800D01*
X144429600Y-53798800D02*
X145007700Y-53220700D01*
X145007700Y-53220700D02*
X146964000Y-53220700D01*
X146964000Y-53220700D02*
X148057000Y-54313700D01*
G04 #@! TO.N,/Pin_37*
X144107000Y-65115400D02*
X144107000Y-63940100D01*
X144107000Y-63940100D02*
X144474400Y-63940100D01*
X144474400Y-63940100D02*
X145282300Y-63132200D01*
X145282300Y-63132200D02*
X145282300Y-54548400D01*
X145282300Y-54548400D02*
X145517000Y-54313700D01*
G04 #@! TO.N,/Pin_35*
X144107000Y-66480100D02*
X143739700Y-66480100D01*
X143739700Y-66480100D02*
X142437300Y-65177700D01*
X142437300Y-65177700D02*
X142437300Y-54853400D01*
X142437300Y-54853400D02*
X142977000Y-54313700D01*
X144107000Y-67655400D02*
X144107000Y-66480100D01*
G04 #@! TO.N,/Pin_32*
X146647000Y-70195400D02*
X145471700Y-70195400D01*
X145471700Y-70195400D02*
X145471700Y-69828000D01*
X145471700Y-69828000D02*
X144663800Y-69020100D01*
X144663800Y-69020100D02*
X143800000Y-69020100D01*
X143800000Y-69020100D02*
X139167000Y-64387100D01*
X139167000Y-64387100D02*
X139167000Y-53043700D01*
X139167000Y-53043700D02*
X137897000Y-51773700D01*
G04 #@! TO.N,/Pin_30*
X146647000Y-72735400D02*
X145471700Y-72735400D01*
X145471700Y-72735400D02*
X145471700Y-72368000D01*
X145471700Y-72368000D02*
X144663800Y-71560100D01*
X144663800Y-71560100D02*
X143785500Y-71560100D01*
X143785500Y-71560100D02*
X136627000Y-64401600D01*
X136627000Y-64401600D02*
X136627000Y-53043700D01*
X136627000Y-53043700D02*
X135357000Y-51773700D01*
G04 #@! TO.N,/Pin_29*
X144107000Y-75275400D02*
X144107000Y-74100100D01*
X144107000Y-74100100D02*
X143739700Y-74100100D01*
X143739700Y-74100100D02*
X135357000Y-65717400D01*
X135357000Y-65717400D02*
X135357000Y-54313700D01*
G04 #@! TO.N,/Pin_27*
X144107000Y-77815400D02*
X144107000Y-76640100D01*
X144107000Y-76640100D02*
X143739700Y-76640100D01*
X143739700Y-76640100D02*
X132817000Y-65717400D01*
X132817000Y-65717400D02*
X132817000Y-54313700D01*
G04 #@! TO.N,/Pin_25*
X144107000Y-80355400D02*
X144107000Y-79180100D01*
X144107000Y-79180100D02*
X143739700Y-79180100D01*
X143739700Y-79180100D02*
X130277000Y-65717400D01*
X130277000Y-65717400D02*
X130277000Y-54313700D01*
G04 #@! TO.N,/Pin_12*
X146647000Y-85435400D02*
X145471700Y-85435400D01*
X145471700Y-85435400D02*
X145471700Y-85068000D01*
X145471700Y-85068000D02*
X144663800Y-84260100D01*
X144663800Y-84260100D02*
X143790600Y-84260100D01*
X143790600Y-84260100D02*
X129007000Y-69476500D01*
X129007000Y-69476500D02*
X129007000Y-51438500D01*
X129007000Y-51438500D02*
X128242400Y-50673900D01*
X128242400Y-50673900D02*
X113596800Y-50673900D01*
X113596800Y-50673900D02*
X112497000Y-51773700D01*
D17*
G04 #@! TO.N,Net-(AE1-Pad1)*
X93268800Y-74201000D02*
X93268800Y-75651300D01*
X92611200Y-76982400D02*
X92611200Y-76308900D01*
X92611200Y-76308900D02*
X93268800Y-75651300D01*
D16*
G04 #@! TO.N,/Gnd*
X93536500Y-92212400D02*
X93536500Y-93075700D01*
X93536500Y-93075700D02*
X94298900Y-93838100D01*
X94298900Y-93838100D02*
X104985500Y-93838100D01*
X104985500Y-93838100D02*
X105685900Y-93137700D01*
X105685900Y-93137700D02*
X105685900Y-92212400D01*
X106611200Y-92212400D02*
X105685900Y-92212400D01*
X92611200Y-92212400D02*
X93536500Y-92212400D01*
X93536500Y-92212400D02*
X93536500Y-77636000D01*
X93536500Y-77636000D02*
X94190100Y-76982400D01*
X94190100Y-76982400D02*
X94638500Y-76534000D01*
X94638500Y-76534000D02*
X94638500Y-59274800D01*
X94638500Y-59274800D02*
X98535000Y-55378300D01*
X98535000Y-55378300D02*
X98535000Y-53554400D01*
X98535000Y-53554400D02*
X99045700Y-53043700D01*
X99045700Y-53043700D02*
X103607000Y-53043700D01*
X103607000Y-53043700D02*
X104877000Y-51773700D01*
X94611200Y-76982400D02*
X94190100Y-76982400D01*
G04 #@! TD*
D18*
G04 #@! TO.N,/Gnd*
X157238951Y-105681731D02*
X153789021Y-105680406D01*
X154016459Y-105635166D01*
X154696186Y-105353614D01*
X155307924Y-104944864D01*
X155828164Y-104424624D01*
X156236914Y-103812886D01*
X156518466Y-103133159D01*
X156662000Y-102411565D01*
X156662000Y-101675835D01*
X156518466Y-100954241D01*
X156236914Y-100274514D01*
X155828164Y-99662776D01*
X155307924Y-99142536D01*
X154696186Y-98733786D01*
X154016459Y-98452234D01*
X153294865Y-98308700D01*
X152559135Y-98308700D01*
X151837541Y-98452234D01*
X151157814Y-98733786D01*
X150546076Y-99142536D01*
X150025836Y-99662776D01*
X149617086Y-100274514D01*
X149335534Y-100954241D01*
X149192000Y-101675835D01*
X149192000Y-102411565D01*
X149335534Y-103133159D01*
X149617086Y-103812886D01*
X150025836Y-104424624D01*
X150546076Y-104944864D01*
X151157814Y-105353614D01*
X151837541Y-105635166D01*
X152061644Y-105679743D01*
X95900779Y-105658176D01*
X96016459Y-105635166D01*
X96696186Y-105353614D01*
X97307924Y-104944864D01*
X97828164Y-104424624D01*
X98236914Y-103812886D01*
X98518466Y-103133159D01*
X98662000Y-102411565D01*
X98662000Y-101675835D01*
X98518466Y-100954241D01*
X98236914Y-100274514D01*
X97828164Y-99662776D01*
X97307924Y-99142536D01*
X96696186Y-98733786D01*
X96016459Y-98452234D01*
X95294865Y-98308700D01*
X94559135Y-98308700D01*
X93837541Y-98452234D01*
X93157814Y-98733786D01*
X92546076Y-99142536D01*
X92025836Y-99662776D01*
X91617086Y-100274514D01*
X91350881Y-100917191D01*
X91350528Y-93062400D01*
X91373128Y-93062400D01*
X91385388Y-93186882D01*
X91421698Y-93306580D01*
X91480663Y-93416894D01*
X91560015Y-93513585D01*
X91656706Y-93592937D01*
X91767020Y-93651902D01*
X91886718Y-93688212D01*
X92011200Y-93700472D01*
X92325450Y-93697400D01*
X92484200Y-93538650D01*
X92484200Y-92339400D01*
X91534950Y-92339400D01*
X91376200Y-92498150D01*
X91373128Y-93062400D01*
X91350528Y-93062400D01*
X91350452Y-91362400D01*
X91373128Y-91362400D01*
X91376200Y-91926650D01*
X91534950Y-92085400D01*
X92484200Y-92085400D01*
X92484200Y-90886150D01*
X92325450Y-90727400D01*
X92011200Y-90724328D01*
X91886718Y-90736588D01*
X91767020Y-90772898D01*
X91656706Y-90831863D01*
X91560015Y-90911215D01*
X91480663Y-91007906D01*
X91421698Y-91118220D01*
X91385388Y-91237918D01*
X91373128Y-91362400D01*
X91350452Y-91362400D01*
X91349766Y-76132400D01*
X91373128Y-76132400D01*
X91373128Y-77832400D01*
X91385388Y-77956882D01*
X91421698Y-78076580D01*
X91480663Y-78186894D01*
X91560015Y-78283585D01*
X91656706Y-78362937D01*
X91767020Y-78421902D01*
X91886718Y-78458212D01*
X92011200Y-78470472D01*
X93211200Y-78470472D01*
X93335682Y-78458212D01*
X93455380Y-78421902D01*
X93565694Y-78362937D01*
X93611200Y-78325591D01*
X93656706Y-78362937D01*
X93767020Y-78421902D01*
X93886718Y-78458212D01*
X94011200Y-78470472D01*
X94325450Y-78467400D01*
X94484200Y-78308650D01*
X94484200Y-77109400D01*
X94464200Y-77109400D01*
X94464200Y-76855400D01*
X94484200Y-76855400D01*
X94484200Y-75656150D01*
X94431778Y-75603728D01*
X94473294Y-75581537D01*
X94569985Y-75502185D01*
X94649337Y-75405494D01*
X94708302Y-75295180D01*
X94744612Y-75175482D01*
X94756872Y-75051000D01*
X94756872Y-73351000D01*
X94744612Y-73226518D01*
X94708302Y-73106820D01*
X94649337Y-72996506D01*
X94569985Y-72899815D01*
X94473294Y-72820463D01*
X94362980Y-72761498D01*
X94243282Y-72725188D01*
X94118800Y-72712928D01*
X92418800Y-72712928D01*
X92294318Y-72725188D01*
X92174620Y-72761498D01*
X92064306Y-72820463D01*
X91967615Y-72899815D01*
X91888263Y-72996506D01*
X91829298Y-73106820D01*
X91792988Y-73226518D01*
X91780728Y-73351000D01*
X91780728Y-75051000D01*
X91792988Y-75175482D01*
X91829298Y-75295180D01*
X91888263Y-75405494D01*
X91961570Y-75494820D01*
X91956694Y-75499696D01*
X91886718Y-75506588D01*
X91767020Y-75542898D01*
X91656706Y-75601863D01*
X91560015Y-75681215D01*
X91480663Y-75777906D01*
X91421698Y-75888220D01*
X91385388Y-76007918D01*
X91373128Y-76132400D01*
X91349766Y-76132400D01*
X91348775Y-54165125D01*
X91617086Y-54812886D01*
X92025836Y-55424624D01*
X92546076Y-55944864D01*
X93157814Y-56353614D01*
X93837541Y-56635166D01*
X94559135Y-56778700D01*
X95294865Y-56778700D01*
X96016459Y-56635166D01*
X96696186Y-56353614D01*
X97307924Y-55944864D01*
X97828164Y-55424624D01*
X98236914Y-54812886D01*
X98396928Y-54426578D01*
X98396928Y-55075700D01*
X98409188Y-55200182D01*
X98445498Y-55319880D01*
X98504463Y-55430194D01*
X98583815Y-55526885D01*
X98590680Y-55532519D01*
X96100198Y-58023001D01*
X96071200Y-58046799D01*
X96047402Y-58075797D01*
X96047401Y-58075798D01*
X95976226Y-58162524D01*
X95905654Y-58294554D01*
X95862198Y-58437815D01*
X95847524Y-58586800D01*
X95851201Y-58624133D01*
X95851200Y-75517362D01*
X95767020Y-75542898D01*
X95656706Y-75601863D01*
X95611200Y-75639209D01*
X95565694Y-75601863D01*
X95455380Y-75542898D01*
X95335682Y-75506588D01*
X95211200Y-75494328D01*
X94896950Y-75497400D01*
X94738200Y-75656150D01*
X94738200Y-76855400D01*
X94758200Y-76855400D01*
X94758200Y-77109400D01*
X94738200Y-77109400D01*
X94738200Y-78308650D01*
X94896950Y-78467400D01*
X95211200Y-78470472D01*
X95335682Y-78458212D01*
X95455380Y-78421902D01*
X95565694Y-78362937D01*
X95611200Y-78325591D01*
X95656706Y-78362937D01*
X95767020Y-78421902D01*
X95886718Y-78458212D01*
X96011200Y-78470472D01*
X97211200Y-78470472D01*
X97335682Y-78458212D01*
X97455380Y-78421902D01*
X97565694Y-78362937D01*
X97611200Y-78325591D01*
X97656706Y-78362937D01*
X97767020Y-78421902D01*
X97886718Y-78458212D01*
X98011200Y-78470472D01*
X99211200Y-78470472D01*
X99335682Y-78458212D01*
X99455380Y-78421902D01*
X99565694Y-78362937D01*
X99611200Y-78325591D01*
X99656706Y-78362937D01*
X99767020Y-78421902D01*
X99886718Y-78458212D01*
X100011200Y-78470472D01*
X101024247Y-78470472D01*
X101025498Y-78471499D01*
X101222796Y-78668797D01*
X101246599Y-78697801D01*
X101362324Y-78792774D01*
X101494353Y-78863346D01*
X101637614Y-78906803D01*
X101749267Y-78917800D01*
X101749277Y-78917800D01*
X101786600Y-78921476D01*
X101823923Y-78917800D01*
X107310778Y-78917800D01*
X107348100Y-78921476D01*
X107385422Y-78917800D01*
X107385433Y-78917800D01*
X107497086Y-78906803D01*
X107640347Y-78863346D01*
X107772376Y-78792774D01*
X107888101Y-78697801D01*
X107911904Y-78668797D01*
X121897001Y-64683701D01*
X121897001Y-65588297D01*
X97025503Y-90459796D01*
X96996499Y-90483599D01*
X96951774Y-90538097D01*
X96901526Y-90599324D01*
X96834710Y-90724328D01*
X96011200Y-90724328D01*
X95886718Y-90736588D01*
X95767020Y-90772898D01*
X95656706Y-90831863D01*
X95611200Y-90869209D01*
X95565694Y-90831863D01*
X95455380Y-90772898D01*
X95335682Y-90736588D01*
X95211200Y-90724328D01*
X94011200Y-90724328D01*
X93886718Y-90736588D01*
X93767020Y-90772898D01*
X93656706Y-90831863D01*
X93611200Y-90869209D01*
X93565694Y-90831863D01*
X93455380Y-90772898D01*
X93335682Y-90736588D01*
X93211200Y-90724328D01*
X92896950Y-90727400D01*
X92738200Y-90886150D01*
X92738200Y-92085400D01*
X92758200Y-92085400D01*
X92758200Y-92339400D01*
X92738200Y-92339400D01*
X92738200Y-93538650D01*
X92896950Y-93697400D01*
X93211200Y-93700472D01*
X93335682Y-93688212D01*
X93455380Y-93651902D01*
X93565694Y-93592937D01*
X93611200Y-93555591D01*
X93656706Y-93592937D01*
X93767020Y-93651902D01*
X93886718Y-93688212D01*
X94011200Y-93700472D01*
X95024247Y-93700472D01*
X95025497Y-93701498D01*
X95222700Y-93898702D01*
X95246499Y-93927701D01*
X95362224Y-94022674D01*
X95494253Y-94093246D01*
X95637514Y-94136703D01*
X95749167Y-94147700D01*
X95749176Y-94147700D01*
X95786499Y-94151376D01*
X95823822Y-94147700D01*
X99308678Y-94147700D01*
X99346000Y-94151376D01*
X99383322Y-94147700D01*
X99383333Y-94147700D01*
X99494986Y-94136703D01*
X99638247Y-94093246D01*
X99770276Y-94022674D01*
X99886001Y-93927701D01*
X99909804Y-93898697D01*
X100047598Y-93760903D01*
X100076601Y-93737101D01*
X100106662Y-93700472D01*
X101211200Y-93700472D01*
X101335682Y-93688212D01*
X101455380Y-93651902D01*
X101565694Y-93592937D01*
X101611200Y-93555591D01*
X101656706Y-93592937D01*
X101767020Y-93651902D01*
X101886718Y-93688212D01*
X102011200Y-93700472D01*
X103211200Y-93700472D01*
X103335682Y-93688212D01*
X103455380Y-93651902D01*
X103565694Y-93592937D01*
X103611200Y-93555591D01*
X103656706Y-93592937D01*
X103767020Y-93651902D01*
X103886718Y-93688212D01*
X104011200Y-93700472D01*
X105211200Y-93700472D01*
X105335682Y-93688212D01*
X105455380Y-93651902D01*
X105565694Y-93592937D01*
X105611200Y-93555591D01*
X105656706Y-93592937D01*
X105767020Y-93651902D01*
X105886718Y-93688212D01*
X106011200Y-93700472D01*
X106325450Y-93697400D01*
X106484200Y-93538650D01*
X106484200Y-92339400D01*
X106738200Y-92339400D01*
X106738200Y-93538650D01*
X106896950Y-93697400D01*
X107211200Y-93700472D01*
X107335682Y-93688212D01*
X107455380Y-93651902D01*
X107565694Y-93592937D01*
X107662385Y-93513585D01*
X107741737Y-93416894D01*
X107800702Y-93306580D01*
X107837012Y-93186882D01*
X107849272Y-93062400D01*
X107846200Y-92498150D01*
X107687450Y-92339400D01*
X106738200Y-92339400D01*
X106484200Y-92339400D01*
X106464200Y-92339400D01*
X106464200Y-92085400D01*
X106484200Y-92085400D01*
X106484200Y-90886150D01*
X106738200Y-90886150D01*
X106738200Y-92085400D01*
X107687450Y-92085400D01*
X107846200Y-91926650D01*
X107849272Y-91362400D01*
X107837012Y-91237918D01*
X107800702Y-91118220D01*
X107741737Y-91007906D01*
X107662385Y-90911215D01*
X107565694Y-90831863D01*
X107455380Y-90772898D01*
X107335682Y-90736588D01*
X107211200Y-90724328D01*
X106896950Y-90727400D01*
X106738200Y-90886150D01*
X106484200Y-90886150D01*
X106325450Y-90727400D01*
X106011200Y-90724328D01*
X105886718Y-90736588D01*
X105767020Y-90772898D01*
X105656706Y-90831863D01*
X105611200Y-90869209D01*
X105565694Y-90831863D01*
X105455380Y-90772898D01*
X105335682Y-90736588D01*
X105211200Y-90724328D01*
X104011200Y-90724328D01*
X103886718Y-90736588D01*
X103767020Y-90772898D01*
X103656706Y-90831863D01*
X103611200Y-90869209D01*
X103565694Y-90831863D01*
X103455380Y-90772898D01*
X103335682Y-90736588D01*
X103211200Y-90724328D01*
X103174073Y-90724328D01*
X128247000Y-65651403D01*
X128247000Y-69439178D01*
X128243324Y-69476500D01*
X128247000Y-69513822D01*
X128247000Y-69513832D01*
X128257997Y-69625485D01*
X128274235Y-69679014D01*
X128301454Y-69768746D01*
X128372026Y-69900776D01*
X128411871Y-69949326D01*
X128466999Y-70016501D01*
X128496003Y-70040304D01*
X142949896Y-84494198D01*
X142791010Y-84731989D01*
X142679068Y-85002242D01*
X142622000Y-85289140D01*
X142622000Y-85581660D01*
X142679068Y-85868558D01*
X142791010Y-86138811D01*
X142953525Y-86382032D01*
X143160368Y-86588875D01*
X143334760Y-86705400D01*
X143160368Y-86821925D01*
X142953525Y-87028768D01*
X142791010Y-87271989D01*
X142679068Y-87542242D01*
X142622000Y-87829140D01*
X142622000Y-88121660D01*
X142679068Y-88408558D01*
X142791010Y-88678811D01*
X142953525Y-88922032D01*
X143160368Y-89128875D01*
X143334760Y-89245400D01*
X143160368Y-89361925D01*
X142953525Y-89568768D01*
X142791010Y-89811989D01*
X142679068Y-90082242D01*
X142622000Y-90369140D01*
X142622000Y-90661660D01*
X142679068Y-90948558D01*
X142791010Y-91218811D01*
X142953525Y-91462032D01*
X143160368Y-91668875D01*
X143334760Y-91785400D01*
X143160368Y-91901925D01*
X142953525Y-92108768D01*
X142791010Y-92351989D01*
X142679068Y-92622242D01*
X142622000Y-92909140D01*
X142622000Y-93201660D01*
X142679068Y-93488558D01*
X142791010Y-93758811D01*
X142953525Y-94002032D01*
X143160368Y-94208875D01*
X143334760Y-94325400D01*
X143160368Y-94441925D01*
X142953525Y-94648768D01*
X142791010Y-94891989D01*
X142679068Y-95162242D01*
X142622000Y-95449140D01*
X142622000Y-95741660D01*
X142679068Y-96028558D01*
X142791010Y-96298811D01*
X142953525Y-96542032D01*
X143160368Y-96748875D01*
X143403589Y-96911390D01*
X143673842Y-97023332D01*
X143960740Y-97080400D01*
X144253260Y-97080400D01*
X144540158Y-97023332D01*
X144810411Y-96911390D01*
X145053632Y-96748875D01*
X145185487Y-96617020D01*
X145207498Y-96689580D01*
X145266463Y-96799894D01*
X145345815Y-96896585D01*
X145442506Y-96975937D01*
X145552820Y-97034902D01*
X145672518Y-97071212D01*
X145797000Y-97083472D01*
X147497000Y-97083472D01*
X147621482Y-97071212D01*
X147741180Y-97034902D01*
X147851494Y-96975937D01*
X147948185Y-96896585D01*
X148027537Y-96799894D01*
X148086502Y-96689580D01*
X148122812Y-96569882D01*
X148135072Y-96445400D01*
X148135072Y-94745400D01*
X148122812Y-94620918D01*
X148086502Y-94501220D01*
X148027537Y-94390906D01*
X147948185Y-94294215D01*
X147851494Y-94214863D01*
X147741180Y-94155898D01*
X147668620Y-94133887D01*
X147800475Y-94002032D01*
X147962990Y-93758811D01*
X148074932Y-93488558D01*
X148132000Y-93201660D01*
X148132000Y-92909140D01*
X148074932Y-92622242D01*
X147962990Y-92351989D01*
X147800475Y-92108768D01*
X147593632Y-91901925D01*
X147419240Y-91785400D01*
X147593632Y-91668875D01*
X147800475Y-91462032D01*
X147962990Y-91218811D01*
X148074932Y-90948558D01*
X148132000Y-90661660D01*
X148132000Y-90369140D01*
X148074932Y-90082242D01*
X147962990Y-89811989D01*
X147800475Y-89568768D01*
X147593632Y-89361925D01*
X147419240Y-89245400D01*
X147593632Y-89128875D01*
X147800475Y-88922032D01*
X147962990Y-88678811D01*
X148074932Y-88408558D01*
X148132000Y-88121660D01*
X148132000Y-87829140D01*
X148074932Y-87542242D01*
X147962990Y-87271989D01*
X147800475Y-87028768D01*
X147593632Y-86821925D01*
X147419240Y-86705400D01*
X147593632Y-86588875D01*
X147800475Y-86382032D01*
X147962990Y-86138811D01*
X148074932Y-85868558D01*
X148132000Y-85581660D01*
X148132000Y-85289140D01*
X148074932Y-85002242D01*
X147962990Y-84731989D01*
X147800475Y-84488768D01*
X147593632Y-84281925D01*
X147419240Y-84165400D01*
X147593632Y-84048875D01*
X147800475Y-83842032D01*
X147962990Y-83598811D01*
X148074932Y-83328558D01*
X148132000Y-83041660D01*
X148132000Y-82749140D01*
X148074932Y-82462242D01*
X147962990Y-82191989D01*
X147800475Y-81948768D01*
X147593632Y-81741925D01*
X147419240Y-81625400D01*
X147593632Y-81508875D01*
X147800475Y-81302032D01*
X147962990Y-81058811D01*
X148074932Y-80788558D01*
X148132000Y-80501660D01*
X148132000Y-80209140D01*
X148074932Y-79922242D01*
X147962990Y-79651989D01*
X147800475Y-79408768D01*
X147593632Y-79201925D01*
X147419240Y-79085400D01*
X147593632Y-78968875D01*
X147800475Y-78762032D01*
X147962990Y-78518811D01*
X148074932Y-78248558D01*
X148132000Y-77961660D01*
X148132000Y-77669140D01*
X148074932Y-77382242D01*
X147962990Y-77111989D01*
X147800475Y-76868768D01*
X147593632Y-76661925D01*
X147419240Y-76545400D01*
X147593632Y-76428875D01*
X147800475Y-76222032D01*
X147962990Y-75978811D01*
X148074932Y-75708558D01*
X148132000Y-75421660D01*
X148132000Y-75129140D01*
X148074932Y-74842242D01*
X147962990Y-74571989D01*
X147800475Y-74328768D01*
X147593632Y-74121925D01*
X147419240Y-74005400D01*
X147593632Y-73888875D01*
X147800475Y-73682032D01*
X147962990Y-73438811D01*
X148074932Y-73168558D01*
X148132000Y-72881660D01*
X148132000Y-72589140D01*
X148074932Y-72302242D01*
X147962990Y-72031989D01*
X147800475Y-71788768D01*
X147593632Y-71581925D01*
X147419240Y-71465400D01*
X147593632Y-71348875D01*
X147800475Y-71142032D01*
X147962990Y-70898811D01*
X148074932Y-70628558D01*
X148132000Y-70341660D01*
X148132000Y-70049140D01*
X148074932Y-69762242D01*
X147962990Y-69491989D01*
X147800475Y-69248768D01*
X147593632Y-69041925D01*
X147419240Y-68925400D01*
X147593632Y-68808875D01*
X147800475Y-68602032D01*
X147962990Y-68358811D01*
X148074932Y-68088558D01*
X148132000Y-67801660D01*
X148132000Y-67509140D01*
X148074932Y-67222242D01*
X147962990Y-66951989D01*
X147800475Y-66708768D01*
X147593632Y-66501925D01*
X147419240Y-66385400D01*
X147593632Y-66268875D01*
X147800475Y-66062032D01*
X147962990Y-65818811D01*
X148074932Y-65548558D01*
X148132000Y-65261660D01*
X148132000Y-64969140D01*
X148074932Y-64682242D01*
X147962990Y-64411989D01*
X147800475Y-64168768D01*
X147593632Y-63961925D01*
X147419240Y-63845400D01*
X147593632Y-63728875D01*
X147800475Y-63522032D01*
X147962990Y-63278811D01*
X148074932Y-63008558D01*
X148132000Y-62721660D01*
X148132000Y-62429140D01*
X148074932Y-62142242D01*
X147962990Y-61871989D01*
X147800475Y-61628768D01*
X147593632Y-61421925D01*
X147419240Y-61305400D01*
X147593632Y-61188875D01*
X147800475Y-60982032D01*
X147962990Y-60738811D01*
X148074932Y-60468558D01*
X148132000Y-60181660D01*
X148132000Y-59889140D01*
X148074932Y-59602242D01*
X147962990Y-59331989D01*
X147800475Y-59088768D01*
X147593632Y-58881925D01*
X147350411Y-58719410D01*
X147080158Y-58607468D01*
X146793260Y-58550400D01*
X146500740Y-58550400D01*
X146213842Y-58607468D01*
X146042300Y-58678523D01*
X146042300Y-55608215D01*
X146178727Y-55551705D01*
X146407535Y-55398820D01*
X146602120Y-55204235D01*
X146755005Y-54975427D01*
X146787000Y-54898185D01*
X146818995Y-54975427D01*
X146971880Y-55204235D01*
X147166465Y-55398820D01*
X147395273Y-55551705D01*
X147649510Y-55657014D01*
X147919408Y-55710700D01*
X148194592Y-55710700D01*
X148464490Y-55657014D01*
X148718727Y-55551705D01*
X148947535Y-55398820D01*
X149142120Y-55204235D01*
X149295005Y-54975427D01*
X149400314Y-54721190D01*
X149454000Y-54451292D01*
X149454000Y-54419161D01*
X149617086Y-54812886D01*
X150025836Y-55424624D01*
X150546076Y-55944864D01*
X151157814Y-56353614D01*
X151837541Y-56635166D01*
X152559135Y-56778700D01*
X153294865Y-56778700D01*
X154016459Y-56635166D01*
X154696186Y-56353614D01*
X155307924Y-55944864D01*
X155828164Y-55424624D01*
X156236914Y-54812886D01*
X156518466Y-54133159D01*
X156662000Y-53411565D01*
X156662000Y-52675835D01*
X156518466Y-51954241D01*
X156236914Y-51274514D01*
X155828164Y-50662776D01*
X155307924Y-50142536D01*
X154696186Y-49733786D01*
X154093957Y-49484335D01*
X157350208Y-49481838D01*
X157238951Y-105681731D01*
G04 #@! TA.AperFunction,Conductor*
D19*
G36*
X157238951Y-105681731D02*
G01*
X153789021Y-105680406D01*
X154016459Y-105635166D01*
X154696186Y-105353614D01*
X155307924Y-104944864D01*
X155828164Y-104424624D01*
X156236914Y-103812886D01*
X156518466Y-103133159D01*
X156662000Y-102411565D01*
X156662000Y-101675835D01*
X156518466Y-100954241D01*
X156236914Y-100274514D01*
X155828164Y-99662776D01*
X155307924Y-99142536D01*
X154696186Y-98733786D01*
X154016459Y-98452234D01*
X153294865Y-98308700D01*
X152559135Y-98308700D01*
X151837541Y-98452234D01*
X151157814Y-98733786D01*
X150546076Y-99142536D01*
X150025836Y-99662776D01*
X149617086Y-100274514D01*
X149335534Y-100954241D01*
X149192000Y-101675835D01*
X149192000Y-102411565D01*
X149335534Y-103133159D01*
X149617086Y-103812886D01*
X150025836Y-104424624D01*
X150546076Y-104944864D01*
X151157814Y-105353614D01*
X151837541Y-105635166D01*
X152061644Y-105679743D01*
X95900779Y-105658176D01*
X96016459Y-105635166D01*
X96696186Y-105353614D01*
X97307924Y-104944864D01*
X97828164Y-104424624D01*
X98236914Y-103812886D01*
X98518466Y-103133159D01*
X98662000Y-102411565D01*
X98662000Y-101675835D01*
X98518466Y-100954241D01*
X98236914Y-100274514D01*
X97828164Y-99662776D01*
X97307924Y-99142536D01*
X96696186Y-98733786D01*
X96016459Y-98452234D01*
X95294865Y-98308700D01*
X94559135Y-98308700D01*
X93837541Y-98452234D01*
X93157814Y-98733786D01*
X92546076Y-99142536D01*
X92025836Y-99662776D01*
X91617086Y-100274514D01*
X91350881Y-100917191D01*
X91350528Y-93062400D01*
X91373128Y-93062400D01*
X91385388Y-93186882D01*
X91421698Y-93306580D01*
X91480663Y-93416894D01*
X91560015Y-93513585D01*
X91656706Y-93592937D01*
X91767020Y-93651902D01*
X91886718Y-93688212D01*
X92011200Y-93700472D01*
X92325450Y-93697400D01*
X92484200Y-93538650D01*
X92484200Y-92339400D01*
X91534950Y-92339400D01*
X91376200Y-92498150D01*
X91373128Y-93062400D01*
X91350528Y-93062400D01*
X91350452Y-91362400D01*
X91373128Y-91362400D01*
X91376200Y-91926650D01*
X91534950Y-92085400D01*
X92484200Y-92085400D01*
X92484200Y-90886150D01*
X92325450Y-90727400D01*
X92011200Y-90724328D01*
X91886718Y-90736588D01*
X91767020Y-90772898D01*
X91656706Y-90831863D01*
X91560015Y-90911215D01*
X91480663Y-91007906D01*
X91421698Y-91118220D01*
X91385388Y-91237918D01*
X91373128Y-91362400D01*
X91350452Y-91362400D01*
X91349766Y-76132400D01*
X91373128Y-76132400D01*
X91373128Y-77832400D01*
X91385388Y-77956882D01*
X91421698Y-78076580D01*
X91480663Y-78186894D01*
X91560015Y-78283585D01*
X91656706Y-78362937D01*
X91767020Y-78421902D01*
X91886718Y-78458212D01*
X92011200Y-78470472D01*
X93211200Y-78470472D01*
X93335682Y-78458212D01*
X93455380Y-78421902D01*
X93565694Y-78362937D01*
X93611200Y-78325591D01*
X93656706Y-78362937D01*
X93767020Y-78421902D01*
X93886718Y-78458212D01*
X94011200Y-78470472D01*
X94325450Y-78467400D01*
X94484200Y-78308650D01*
X94484200Y-77109400D01*
X94464200Y-77109400D01*
X94464200Y-76855400D01*
X94484200Y-76855400D01*
X94484200Y-75656150D01*
X94431778Y-75603728D01*
X94473294Y-75581537D01*
X94569985Y-75502185D01*
X94649337Y-75405494D01*
X94708302Y-75295180D01*
X94744612Y-75175482D01*
X94756872Y-75051000D01*
X94756872Y-73351000D01*
X94744612Y-73226518D01*
X94708302Y-73106820D01*
X94649337Y-72996506D01*
X94569985Y-72899815D01*
X94473294Y-72820463D01*
X94362980Y-72761498D01*
X94243282Y-72725188D01*
X94118800Y-72712928D01*
X92418800Y-72712928D01*
X92294318Y-72725188D01*
X92174620Y-72761498D01*
X92064306Y-72820463D01*
X91967615Y-72899815D01*
X91888263Y-72996506D01*
X91829298Y-73106820D01*
X91792988Y-73226518D01*
X91780728Y-73351000D01*
X91780728Y-75051000D01*
X91792988Y-75175482D01*
X91829298Y-75295180D01*
X91888263Y-75405494D01*
X91961570Y-75494820D01*
X91956694Y-75499696D01*
X91886718Y-75506588D01*
X91767020Y-75542898D01*
X91656706Y-75601863D01*
X91560015Y-75681215D01*
X91480663Y-75777906D01*
X91421698Y-75888220D01*
X91385388Y-76007918D01*
X91373128Y-76132400D01*
X91349766Y-76132400D01*
X91348775Y-54165125D01*
X91617086Y-54812886D01*
X92025836Y-55424624D01*
X92546076Y-55944864D01*
X93157814Y-56353614D01*
X93837541Y-56635166D01*
X94559135Y-56778700D01*
X95294865Y-56778700D01*
X96016459Y-56635166D01*
X96696186Y-56353614D01*
X97307924Y-55944864D01*
X97828164Y-55424624D01*
X98236914Y-54812886D01*
X98396928Y-54426578D01*
X98396928Y-55075700D01*
X98409188Y-55200182D01*
X98445498Y-55319880D01*
X98504463Y-55430194D01*
X98583815Y-55526885D01*
X98590680Y-55532519D01*
X96100198Y-58023001D01*
X96071200Y-58046799D01*
X96047402Y-58075797D01*
X96047401Y-58075798D01*
X95976226Y-58162524D01*
X95905654Y-58294554D01*
X95862198Y-58437815D01*
X95847524Y-58586800D01*
X95851201Y-58624133D01*
X95851200Y-75517362D01*
X95767020Y-75542898D01*
X95656706Y-75601863D01*
X95611200Y-75639209D01*
X95565694Y-75601863D01*
X95455380Y-75542898D01*
X95335682Y-75506588D01*
X95211200Y-75494328D01*
X94896950Y-75497400D01*
X94738200Y-75656150D01*
X94738200Y-76855400D01*
X94758200Y-76855400D01*
X94758200Y-77109400D01*
X94738200Y-77109400D01*
X94738200Y-78308650D01*
X94896950Y-78467400D01*
X95211200Y-78470472D01*
X95335682Y-78458212D01*
X95455380Y-78421902D01*
X95565694Y-78362937D01*
X95611200Y-78325591D01*
X95656706Y-78362937D01*
X95767020Y-78421902D01*
X95886718Y-78458212D01*
X96011200Y-78470472D01*
X97211200Y-78470472D01*
X97335682Y-78458212D01*
X97455380Y-78421902D01*
X97565694Y-78362937D01*
X97611200Y-78325591D01*
X97656706Y-78362937D01*
X97767020Y-78421902D01*
X97886718Y-78458212D01*
X98011200Y-78470472D01*
X99211200Y-78470472D01*
X99335682Y-78458212D01*
X99455380Y-78421902D01*
X99565694Y-78362937D01*
X99611200Y-78325591D01*
X99656706Y-78362937D01*
X99767020Y-78421902D01*
X99886718Y-78458212D01*
X100011200Y-78470472D01*
X101024247Y-78470472D01*
X101025498Y-78471499D01*
X101222796Y-78668797D01*
X101246599Y-78697801D01*
X101362324Y-78792774D01*
X101494353Y-78863346D01*
X101637614Y-78906803D01*
X101749267Y-78917800D01*
X101749277Y-78917800D01*
X101786600Y-78921476D01*
X101823923Y-78917800D01*
X107310778Y-78917800D01*
X107348100Y-78921476D01*
X107385422Y-78917800D01*
X107385433Y-78917800D01*
X107497086Y-78906803D01*
X107640347Y-78863346D01*
X107772376Y-78792774D01*
X107888101Y-78697801D01*
X107911904Y-78668797D01*
X121897001Y-64683701D01*
X121897001Y-65588297D01*
X97025503Y-90459796D01*
X96996499Y-90483599D01*
X96951774Y-90538097D01*
X96901526Y-90599324D01*
X96834710Y-90724328D01*
X96011200Y-90724328D01*
X95886718Y-90736588D01*
X95767020Y-90772898D01*
X95656706Y-90831863D01*
X95611200Y-90869209D01*
X95565694Y-90831863D01*
X95455380Y-90772898D01*
X95335682Y-90736588D01*
X95211200Y-90724328D01*
X94011200Y-90724328D01*
X93886718Y-90736588D01*
X93767020Y-90772898D01*
X93656706Y-90831863D01*
X93611200Y-90869209D01*
X93565694Y-90831863D01*
X93455380Y-90772898D01*
X93335682Y-90736588D01*
X93211200Y-90724328D01*
X92896950Y-90727400D01*
X92738200Y-90886150D01*
X92738200Y-92085400D01*
X92758200Y-92085400D01*
X92758200Y-92339400D01*
X92738200Y-92339400D01*
X92738200Y-93538650D01*
X92896950Y-93697400D01*
X93211200Y-93700472D01*
X93335682Y-93688212D01*
X93455380Y-93651902D01*
X93565694Y-93592937D01*
X93611200Y-93555591D01*
X93656706Y-93592937D01*
X93767020Y-93651902D01*
X93886718Y-93688212D01*
X94011200Y-93700472D01*
X95024247Y-93700472D01*
X95025497Y-93701498D01*
X95222700Y-93898702D01*
X95246499Y-93927701D01*
X95362224Y-94022674D01*
X95494253Y-94093246D01*
X95637514Y-94136703D01*
X95749167Y-94147700D01*
X95749176Y-94147700D01*
X95786499Y-94151376D01*
X95823822Y-94147700D01*
X99308678Y-94147700D01*
X99346000Y-94151376D01*
X99383322Y-94147700D01*
X99383333Y-94147700D01*
X99494986Y-94136703D01*
X99638247Y-94093246D01*
X99770276Y-94022674D01*
X99886001Y-93927701D01*
X99909804Y-93898697D01*
X100047598Y-93760903D01*
X100076601Y-93737101D01*
X100106662Y-93700472D01*
X101211200Y-93700472D01*
X101335682Y-93688212D01*
X101455380Y-93651902D01*
X101565694Y-93592937D01*
X101611200Y-93555591D01*
X101656706Y-93592937D01*
X101767020Y-93651902D01*
X101886718Y-93688212D01*
X102011200Y-93700472D01*
X103211200Y-93700472D01*
X103335682Y-93688212D01*
X103455380Y-93651902D01*
X103565694Y-93592937D01*
X103611200Y-93555591D01*
X103656706Y-93592937D01*
X103767020Y-93651902D01*
X103886718Y-93688212D01*
X104011200Y-93700472D01*
X105211200Y-93700472D01*
X105335682Y-93688212D01*
X105455380Y-93651902D01*
X105565694Y-93592937D01*
X105611200Y-93555591D01*
X105656706Y-93592937D01*
X105767020Y-93651902D01*
X105886718Y-93688212D01*
X106011200Y-93700472D01*
X106325450Y-93697400D01*
X106484200Y-93538650D01*
X106484200Y-92339400D01*
X106738200Y-92339400D01*
X106738200Y-93538650D01*
X106896950Y-93697400D01*
X107211200Y-93700472D01*
X107335682Y-93688212D01*
X107455380Y-93651902D01*
X107565694Y-93592937D01*
X107662385Y-93513585D01*
X107741737Y-93416894D01*
X107800702Y-93306580D01*
X107837012Y-93186882D01*
X107849272Y-93062400D01*
X107846200Y-92498150D01*
X107687450Y-92339400D01*
X106738200Y-92339400D01*
X106484200Y-92339400D01*
X106464200Y-92339400D01*
X106464200Y-92085400D01*
X106484200Y-92085400D01*
X106484200Y-90886150D01*
X106738200Y-90886150D01*
X106738200Y-92085400D01*
X107687450Y-92085400D01*
X107846200Y-91926650D01*
X107849272Y-91362400D01*
X107837012Y-91237918D01*
X107800702Y-91118220D01*
X107741737Y-91007906D01*
X107662385Y-90911215D01*
X107565694Y-90831863D01*
X107455380Y-90772898D01*
X107335682Y-90736588D01*
X107211200Y-90724328D01*
X106896950Y-90727400D01*
X106738200Y-90886150D01*
X106484200Y-90886150D01*
X106325450Y-90727400D01*
X106011200Y-90724328D01*
X105886718Y-90736588D01*
X105767020Y-90772898D01*
X105656706Y-90831863D01*
X105611200Y-90869209D01*
X105565694Y-90831863D01*
X105455380Y-90772898D01*
X105335682Y-90736588D01*
X105211200Y-90724328D01*
X104011200Y-90724328D01*
X103886718Y-90736588D01*
X103767020Y-90772898D01*
X103656706Y-90831863D01*
X103611200Y-90869209D01*
X103565694Y-90831863D01*
X103455380Y-90772898D01*
X103335682Y-90736588D01*
X103211200Y-90724328D01*
X103174073Y-90724328D01*
X128247000Y-65651403D01*
X128247000Y-69439178D01*
X128243324Y-69476500D01*
X128247000Y-69513822D01*
X128247000Y-69513832D01*
X128257997Y-69625485D01*
X128274235Y-69679014D01*
X128301454Y-69768746D01*
X128372026Y-69900776D01*
X128411871Y-69949326D01*
X128466999Y-70016501D01*
X128496003Y-70040304D01*
X142949896Y-84494198D01*
X142791010Y-84731989D01*
X142679068Y-85002242D01*
X142622000Y-85289140D01*
X142622000Y-85581660D01*
X142679068Y-85868558D01*
X142791010Y-86138811D01*
X142953525Y-86382032D01*
X143160368Y-86588875D01*
X143334760Y-86705400D01*
X143160368Y-86821925D01*
X142953525Y-87028768D01*
X142791010Y-87271989D01*
X142679068Y-87542242D01*
X142622000Y-87829140D01*
X142622000Y-88121660D01*
X142679068Y-88408558D01*
X142791010Y-88678811D01*
X142953525Y-88922032D01*
X143160368Y-89128875D01*
X143334760Y-89245400D01*
X143160368Y-89361925D01*
X142953525Y-89568768D01*
X142791010Y-89811989D01*
X142679068Y-90082242D01*
X142622000Y-90369140D01*
X142622000Y-90661660D01*
X142679068Y-90948558D01*
X142791010Y-91218811D01*
X142953525Y-91462032D01*
X143160368Y-91668875D01*
X143334760Y-91785400D01*
X143160368Y-91901925D01*
X142953525Y-92108768D01*
X142791010Y-92351989D01*
X142679068Y-92622242D01*
X142622000Y-92909140D01*
X142622000Y-93201660D01*
X142679068Y-93488558D01*
X142791010Y-93758811D01*
X142953525Y-94002032D01*
X143160368Y-94208875D01*
X143334760Y-94325400D01*
X143160368Y-94441925D01*
X142953525Y-94648768D01*
X142791010Y-94891989D01*
X142679068Y-95162242D01*
X142622000Y-95449140D01*
X142622000Y-95741660D01*
X142679068Y-96028558D01*
X142791010Y-96298811D01*
X142953525Y-96542032D01*
X143160368Y-96748875D01*
X143403589Y-96911390D01*
X143673842Y-97023332D01*
X143960740Y-97080400D01*
X144253260Y-97080400D01*
X144540158Y-97023332D01*
X144810411Y-96911390D01*
X145053632Y-96748875D01*
X145185487Y-96617020D01*
X145207498Y-96689580D01*
X145266463Y-96799894D01*
X145345815Y-96896585D01*
X145442506Y-96975937D01*
X145552820Y-97034902D01*
X145672518Y-97071212D01*
X145797000Y-97083472D01*
X147497000Y-97083472D01*
X147621482Y-97071212D01*
X147741180Y-97034902D01*
X147851494Y-96975937D01*
X147948185Y-96896585D01*
X148027537Y-96799894D01*
X148086502Y-96689580D01*
X148122812Y-96569882D01*
X148135072Y-96445400D01*
X148135072Y-94745400D01*
X148122812Y-94620918D01*
X148086502Y-94501220D01*
X148027537Y-94390906D01*
X147948185Y-94294215D01*
X147851494Y-94214863D01*
X147741180Y-94155898D01*
X147668620Y-94133887D01*
X147800475Y-94002032D01*
X147962990Y-93758811D01*
X148074932Y-93488558D01*
X148132000Y-93201660D01*
X148132000Y-92909140D01*
X148074932Y-92622242D01*
X147962990Y-92351989D01*
X147800475Y-92108768D01*
X147593632Y-91901925D01*
X147419240Y-91785400D01*
X147593632Y-91668875D01*
X147800475Y-91462032D01*
X147962990Y-91218811D01*
X148074932Y-90948558D01*
X148132000Y-90661660D01*
X148132000Y-90369140D01*
X148074932Y-90082242D01*
X147962990Y-89811989D01*
X147800475Y-89568768D01*
X147593632Y-89361925D01*
X147419240Y-89245400D01*
X147593632Y-89128875D01*
X147800475Y-88922032D01*
X147962990Y-88678811D01*
X148074932Y-88408558D01*
X148132000Y-88121660D01*
X148132000Y-87829140D01*
X148074932Y-87542242D01*
X147962990Y-87271989D01*
X147800475Y-87028768D01*
X147593632Y-86821925D01*
X147419240Y-86705400D01*
X147593632Y-86588875D01*
X147800475Y-86382032D01*
X147962990Y-86138811D01*
X148074932Y-85868558D01*
X148132000Y-85581660D01*
X148132000Y-85289140D01*
X148074932Y-85002242D01*
X147962990Y-84731989D01*
X147800475Y-84488768D01*
X147593632Y-84281925D01*
X147419240Y-84165400D01*
X147593632Y-84048875D01*
X147800475Y-83842032D01*
X147962990Y-83598811D01*
X148074932Y-83328558D01*
X148132000Y-83041660D01*
X148132000Y-82749140D01*
X148074932Y-82462242D01*
X147962990Y-82191989D01*
X147800475Y-81948768D01*
X147593632Y-81741925D01*
X147419240Y-81625400D01*
X147593632Y-81508875D01*
X147800475Y-81302032D01*
X147962990Y-81058811D01*
X148074932Y-80788558D01*
X148132000Y-80501660D01*
X148132000Y-80209140D01*
X148074932Y-79922242D01*
X147962990Y-79651989D01*
X147800475Y-79408768D01*
X147593632Y-79201925D01*
X147419240Y-79085400D01*
X147593632Y-78968875D01*
X147800475Y-78762032D01*
X147962990Y-78518811D01*
X148074932Y-78248558D01*
X148132000Y-77961660D01*
X148132000Y-77669140D01*
X148074932Y-77382242D01*
X147962990Y-77111989D01*
X147800475Y-76868768D01*
X147593632Y-76661925D01*
X147419240Y-76545400D01*
X147593632Y-76428875D01*
X147800475Y-76222032D01*
X147962990Y-75978811D01*
X148074932Y-75708558D01*
X148132000Y-75421660D01*
X148132000Y-75129140D01*
X148074932Y-74842242D01*
X147962990Y-74571989D01*
X147800475Y-74328768D01*
X147593632Y-74121925D01*
X147419240Y-74005400D01*
X147593632Y-73888875D01*
X147800475Y-73682032D01*
X147962990Y-73438811D01*
X148074932Y-73168558D01*
X148132000Y-72881660D01*
X148132000Y-72589140D01*
X148074932Y-72302242D01*
X147962990Y-72031989D01*
X147800475Y-71788768D01*
X147593632Y-71581925D01*
X147419240Y-71465400D01*
X147593632Y-71348875D01*
X147800475Y-71142032D01*
X147962990Y-70898811D01*
X148074932Y-70628558D01*
X148132000Y-70341660D01*
X148132000Y-70049140D01*
X148074932Y-69762242D01*
X147962990Y-69491989D01*
X147800475Y-69248768D01*
X147593632Y-69041925D01*
X147419240Y-68925400D01*
X147593632Y-68808875D01*
X147800475Y-68602032D01*
X147962990Y-68358811D01*
X148074932Y-68088558D01*
X148132000Y-67801660D01*
X148132000Y-67509140D01*
X148074932Y-67222242D01*
X147962990Y-66951989D01*
X147800475Y-66708768D01*
X147593632Y-66501925D01*
X147419240Y-66385400D01*
X147593632Y-66268875D01*
X147800475Y-66062032D01*
X147962990Y-65818811D01*
X148074932Y-65548558D01*
X148132000Y-65261660D01*
X148132000Y-64969140D01*
X148074932Y-64682242D01*
X147962990Y-64411989D01*
X147800475Y-64168768D01*
X147593632Y-63961925D01*
X147419240Y-63845400D01*
X147593632Y-63728875D01*
X147800475Y-63522032D01*
X147962990Y-63278811D01*
X148074932Y-63008558D01*
X148132000Y-62721660D01*
X148132000Y-62429140D01*
X148074932Y-62142242D01*
X147962990Y-61871989D01*
X147800475Y-61628768D01*
X147593632Y-61421925D01*
X147419240Y-61305400D01*
X147593632Y-61188875D01*
X147800475Y-60982032D01*
X147962990Y-60738811D01*
X148074932Y-60468558D01*
X148132000Y-60181660D01*
X148132000Y-59889140D01*
X148074932Y-59602242D01*
X147962990Y-59331989D01*
X147800475Y-59088768D01*
X147593632Y-58881925D01*
X147350411Y-58719410D01*
X147080158Y-58607468D01*
X146793260Y-58550400D01*
X146500740Y-58550400D01*
X146213842Y-58607468D01*
X146042300Y-58678523D01*
X146042300Y-55608215D01*
X146178727Y-55551705D01*
X146407535Y-55398820D01*
X146602120Y-55204235D01*
X146755005Y-54975427D01*
X146787000Y-54898185D01*
X146818995Y-54975427D01*
X146971880Y-55204235D01*
X147166465Y-55398820D01*
X147395273Y-55551705D01*
X147649510Y-55657014D01*
X147919408Y-55710700D01*
X148194592Y-55710700D01*
X148464490Y-55657014D01*
X148718727Y-55551705D01*
X148947535Y-55398820D01*
X149142120Y-55204235D01*
X149295005Y-54975427D01*
X149400314Y-54721190D01*
X149454000Y-54451292D01*
X149454000Y-54419161D01*
X149617086Y-54812886D01*
X150025836Y-55424624D01*
X150546076Y-55944864D01*
X151157814Y-56353614D01*
X151837541Y-56635166D01*
X152559135Y-56778700D01*
X153294865Y-56778700D01*
X154016459Y-56635166D01*
X154696186Y-56353614D01*
X155307924Y-55944864D01*
X155828164Y-55424624D01*
X156236914Y-54812886D01*
X156518466Y-54133159D01*
X156662000Y-53411565D01*
X156662000Y-52675835D01*
X156518466Y-51954241D01*
X156236914Y-51274514D01*
X155828164Y-50662776D01*
X155307924Y-50142536D01*
X154696186Y-49733786D01*
X154093957Y-49484335D01*
X157350208Y-49481838D01*
X157238951Y-105681731D01*
G37*
G04 #@! TD.AperFunction*
D18*
X151157814Y-49733786D02*
X150546076Y-50142536D01*
X150025836Y-50662776D01*
X149617086Y-51274514D01*
X149454000Y-51668239D01*
X149454000Y-51636108D01*
X149400314Y-51366210D01*
X149295005Y-51111973D01*
X149142120Y-50883165D01*
X148947535Y-50688580D01*
X148718727Y-50535695D01*
X148464490Y-50430386D01*
X148194592Y-50376700D01*
X147919408Y-50376700D01*
X147649510Y-50430386D01*
X147395273Y-50535695D01*
X147166465Y-50688580D01*
X146971880Y-50883165D01*
X146818995Y-51111973D01*
X146787000Y-51189215D01*
X146755005Y-51111973D01*
X146602120Y-50883165D01*
X146407535Y-50688580D01*
X146178727Y-50535695D01*
X145924490Y-50430386D01*
X145654592Y-50376700D01*
X145379408Y-50376700D01*
X145109510Y-50430386D01*
X144855273Y-50535695D01*
X144626465Y-50688580D01*
X144431880Y-50883165D01*
X144278995Y-51111973D01*
X144247000Y-51189215D01*
X144215005Y-51111973D01*
X144062120Y-50883165D01*
X143867535Y-50688580D01*
X143638727Y-50535695D01*
X143384490Y-50430386D01*
X143114592Y-50376700D01*
X142839408Y-50376700D01*
X142569510Y-50430386D01*
X142315273Y-50535695D01*
X142086465Y-50688580D01*
X141891880Y-50883165D01*
X141738995Y-51111973D01*
X141707000Y-51189215D01*
X141675005Y-51111973D01*
X141522120Y-50883165D01*
X141327535Y-50688580D01*
X141098727Y-50535695D01*
X140844490Y-50430386D01*
X140574592Y-50376700D01*
X140299408Y-50376700D01*
X140029510Y-50430386D01*
X139775273Y-50535695D01*
X139546465Y-50688580D01*
X139351880Y-50883165D01*
X139198995Y-51111973D01*
X139167000Y-51189215D01*
X139135005Y-51111973D01*
X138982120Y-50883165D01*
X138787535Y-50688580D01*
X138558727Y-50535695D01*
X138304490Y-50430386D01*
X138034592Y-50376700D01*
X137759408Y-50376700D01*
X137489510Y-50430386D01*
X137235273Y-50535695D01*
X137006465Y-50688580D01*
X136811880Y-50883165D01*
X136658995Y-51111973D01*
X136627000Y-51189215D01*
X136595005Y-51111973D01*
X136442120Y-50883165D01*
X136247535Y-50688580D01*
X136018727Y-50535695D01*
X135764490Y-50430386D01*
X135494592Y-50376700D01*
X135219408Y-50376700D01*
X134949510Y-50430386D01*
X134695273Y-50535695D01*
X134466465Y-50688580D01*
X134271880Y-50883165D01*
X134118995Y-51111973D01*
X134087000Y-51189215D01*
X134055005Y-51111973D01*
X133902120Y-50883165D01*
X133707535Y-50688580D01*
X133478727Y-50535695D01*
X133224490Y-50430386D01*
X132954592Y-50376700D01*
X132679408Y-50376700D01*
X132409510Y-50430386D01*
X132155273Y-50535695D01*
X131926465Y-50688580D01*
X131731880Y-50883165D01*
X131578995Y-51111973D01*
X131547000Y-51189215D01*
X131515005Y-51111973D01*
X131362120Y-50883165D01*
X131167535Y-50688580D01*
X130938727Y-50535695D01*
X130684490Y-50430386D01*
X130414592Y-50376700D01*
X130139408Y-50376700D01*
X129869510Y-50430386D01*
X129615273Y-50535695D01*
X129386465Y-50688580D01*
X129359173Y-50715872D01*
X128806203Y-50162902D01*
X128782401Y-50133899D01*
X128666676Y-50038926D01*
X128534647Y-49968354D01*
X128391386Y-49924897D01*
X128279733Y-49913900D01*
X128279722Y-49913900D01*
X128242400Y-49910224D01*
X128205078Y-49913900D01*
X113634122Y-49913900D01*
X113596799Y-49910224D01*
X113559476Y-49913900D01*
X113559467Y-49913900D01*
X113447814Y-49924897D01*
X113304553Y-49968354D01*
X113172523Y-50038926D01*
X113088883Y-50107568D01*
X113056799Y-50133899D01*
X113033001Y-50162897D01*
X112788570Y-50407328D01*
X112634592Y-50376700D01*
X112359408Y-50376700D01*
X112089510Y-50430386D01*
X111835273Y-50535695D01*
X111606465Y-50688580D01*
X111411880Y-50883165D01*
X111258995Y-51111973D01*
X111227000Y-51189215D01*
X111195005Y-51111973D01*
X111042120Y-50883165D01*
X110847535Y-50688580D01*
X110618727Y-50535695D01*
X110364490Y-50430386D01*
X110094592Y-50376700D01*
X109819408Y-50376700D01*
X109549510Y-50430386D01*
X109295273Y-50535695D01*
X109066465Y-50688580D01*
X108871880Y-50883165D01*
X108718995Y-51111973D01*
X108687000Y-51189215D01*
X108655005Y-51111973D01*
X108502120Y-50883165D01*
X108307535Y-50688580D01*
X108078727Y-50535695D01*
X107824490Y-50430386D01*
X107554592Y-50376700D01*
X107279408Y-50376700D01*
X107009510Y-50430386D01*
X106755273Y-50535695D01*
X106526465Y-50688580D01*
X106331880Y-50883165D01*
X106178995Y-51111973D01*
X106149308Y-51183643D01*
X106144636Y-51170677D01*
X106082656Y-51054720D01*
X105842565Y-50987740D01*
X105056605Y-51773700D01*
X105842565Y-52559660D01*
X106082656Y-52492680D01*
X106146485Y-52356940D01*
X106178995Y-52435427D01*
X106331880Y-52664235D01*
X106526465Y-52858820D01*
X106755273Y-53011705D01*
X106832515Y-53043700D01*
X106755273Y-53075695D01*
X106526465Y-53228580D01*
X106331880Y-53423165D01*
X106178995Y-53651973D01*
X106147000Y-53729215D01*
X106115005Y-53651973D01*
X105962120Y-53423165D01*
X105767535Y-53228580D01*
X105538727Y-53075695D01*
X105467057Y-53046008D01*
X105480023Y-53041336D01*
X105595980Y-52979356D01*
X105662960Y-52739265D01*
X104877000Y-51953305D01*
X104091040Y-52739265D01*
X104158020Y-52979356D01*
X104293760Y-53043185D01*
X104215273Y-53075695D01*
X103986465Y-53228580D01*
X103791880Y-53423165D01*
X103638995Y-53651973D01*
X103607000Y-53729215D01*
X103575005Y-53651973D01*
X103422120Y-53423165D01*
X103227535Y-53228580D01*
X102998727Y-53075695D01*
X102921485Y-53043700D01*
X102998727Y-53011705D01*
X103227535Y-52858820D01*
X103422120Y-52664235D01*
X103575005Y-52435427D01*
X103604692Y-52363757D01*
X103609364Y-52376723D01*
X103671344Y-52492680D01*
X103911435Y-52559660D01*
X104697395Y-51773700D01*
X103911435Y-50987740D01*
X103671344Y-51054720D01*
X103607515Y-51190460D01*
X103575005Y-51111973D01*
X103422120Y-50883165D01*
X103347090Y-50808135D01*
X104091040Y-50808135D01*
X104877000Y-51594095D01*
X105662960Y-50808135D01*
X105595980Y-50568044D01*
X105346952Y-50450944D01*
X105079865Y-50384677D01*
X104804983Y-50371790D01*
X104532867Y-50412778D01*
X104273977Y-50506064D01*
X104158020Y-50568044D01*
X104091040Y-50808135D01*
X103347090Y-50808135D01*
X103227535Y-50688580D01*
X102998727Y-50535695D01*
X102744490Y-50430386D01*
X102474592Y-50376700D01*
X102199408Y-50376700D01*
X101929510Y-50430386D01*
X101675273Y-50535695D01*
X101446465Y-50688580D01*
X101251880Y-50883165D01*
X101098995Y-51111973D01*
X101067000Y-51189215D01*
X101035005Y-51111973D01*
X100882120Y-50883165D01*
X100687535Y-50688580D01*
X100458727Y-50535695D01*
X100204490Y-50430386D01*
X99934592Y-50376700D01*
X99659408Y-50376700D01*
X99389510Y-50430386D01*
X99135273Y-50535695D01*
X98906465Y-50688580D01*
X98711880Y-50883165D01*
X98558995Y-51111973D01*
X98453686Y-51366210D01*
X98400000Y-51636108D01*
X98400000Y-51668239D01*
X98236914Y-51274514D01*
X97828164Y-50662776D01*
X97307924Y-50142536D01*
X96696186Y-49733786D01*
X96201123Y-49528724D01*
X151755715Y-49486128D01*
X151157814Y-49733786D01*
G04 #@! TA.AperFunction,Conductor*
D19*
G36*
X151157814Y-49733786D02*
G01*
X150546076Y-50142536D01*
X150025836Y-50662776D01*
X149617086Y-51274514D01*
X149454000Y-51668239D01*
X149454000Y-51636108D01*
X149400314Y-51366210D01*
X149295005Y-51111973D01*
X149142120Y-50883165D01*
X148947535Y-50688580D01*
X148718727Y-50535695D01*
X148464490Y-50430386D01*
X148194592Y-50376700D01*
X147919408Y-50376700D01*
X147649510Y-50430386D01*
X147395273Y-50535695D01*
X147166465Y-50688580D01*
X146971880Y-50883165D01*
X146818995Y-51111973D01*
X146787000Y-51189215D01*
X146755005Y-51111973D01*
X146602120Y-50883165D01*
X146407535Y-50688580D01*
X146178727Y-50535695D01*
X145924490Y-50430386D01*
X145654592Y-50376700D01*
X145379408Y-50376700D01*
X145109510Y-50430386D01*
X144855273Y-50535695D01*
X144626465Y-50688580D01*
X144431880Y-50883165D01*
X144278995Y-51111973D01*
X144247000Y-51189215D01*
X144215005Y-51111973D01*
X144062120Y-50883165D01*
X143867535Y-50688580D01*
X143638727Y-50535695D01*
X143384490Y-50430386D01*
X143114592Y-50376700D01*
X142839408Y-50376700D01*
X142569510Y-50430386D01*
X142315273Y-50535695D01*
X142086465Y-50688580D01*
X141891880Y-50883165D01*
X141738995Y-51111973D01*
X141707000Y-51189215D01*
X141675005Y-51111973D01*
X141522120Y-50883165D01*
X141327535Y-50688580D01*
X141098727Y-50535695D01*
X140844490Y-50430386D01*
X140574592Y-50376700D01*
X140299408Y-50376700D01*
X140029510Y-50430386D01*
X139775273Y-50535695D01*
X139546465Y-50688580D01*
X139351880Y-50883165D01*
X139198995Y-51111973D01*
X139167000Y-51189215D01*
X139135005Y-51111973D01*
X138982120Y-50883165D01*
X138787535Y-50688580D01*
X138558727Y-50535695D01*
X138304490Y-50430386D01*
X138034592Y-50376700D01*
X137759408Y-50376700D01*
X137489510Y-50430386D01*
X137235273Y-50535695D01*
X137006465Y-50688580D01*
X136811880Y-50883165D01*
X136658995Y-51111973D01*
X136627000Y-51189215D01*
X136595005Y-51111973D01*
X136442120Y-50883165D01*
X136247535Y-50688580D01*
X136018727Y-50535695D01*
X135764490Y-50430386D01*
X135494592Y-50376700D01*
X135219408Y-50376700D01*
X134949510Y-50430386D01*
X134695273Y-50535695D01*
X134466465Y-50688580D01*
X134271880Y-50883165D01*
X134118995Y-51111973D01*
X134087000Y-51189215D01*
X134055005Y-51111973D01*
X133902120Y-50883165D01*
X133707535Y-50688580D01*
X133478727Y-50535695D01*
X133224490Y-50430386D01*
X132954592Y-50376700D01*
X132679408Y-50376700D01*
X132409510Y-50430386D01*
X132155273Y-50535695D01*
X131926465Y-50688580D01*
X131731880Y-50883165D01*
X131578995Y-51111973D01*
X131547000Y-51189215D01*
X131515005Y-51111973D01*
X131362120Y-50883165D01*
X131167535Y-50688580D01*
X130938727Y-50535695D01*
X130684490Y-50430386D01*
X130414592Y-50376700D01*
X130139408Y-50376700D01*
X129869510Y-50430386D01*
X129615273Y-50535695D01*
X129386465Y-50688580D01*
X129359173Y-50715872D01*
X128806203Y-50162902D01*
X128782401Y-50133899D01*
X128666676Y-50038926D01*
X128534647Y-49968354D01*
X128391386Y-49924897D01*
X128279733Y-49913900D01*
X128279722Y-49913900D01*
X128242400Y-49910224D01*
X128205078Y-49913900D01*
X113634122Y-49913900D01*
X113596799Y-49910224D01*
X113559476Y-49913900D01*
X113559467Y-49913900D01*
X113447814Y-49924897D01*
X113304553Y-49968354D01*
X113172523Y-50038926D01*
X113088883Y-50107568D01*
X113056799Y-50133899D01*
X113033001Y-50162897D01*
X112788570Y-50407328D01*
X112634592Y-50376700D01*
X112359408Y-50376700D01*
X112089510Y-50430386D01*
X111835273Y-50535695D01*
X111606465Y-50688580D01*
X111411880Y-50883165D01*
X111258995Y-51111973D01*
X111227000Y-51189215D01*
X111195005Y-51111973D01*
X111042120Y-50883165D01*
X110847535Y-50688580D01*
X110618727Y-50535695D01*
X110364490Y-50430386D01*
X110094592Y-50376700D01*
X109819408Y-50376700D01*
X109549510Y-50430386D01*
X109295273Y-50535695D01*
X109066465Y-50688580D01*
X108871880Y-50883165D01*
X108718995Y-51111973D01*
X108687000Y-51189215D01*
X108655005Y-51111973D01*
X108502120Y-50883165D01*
X108307535Y-50688580D01*
X108078727Y-50535695D01*
X107824490Y-50430386D01*
X107554592Y-50376700D01*
X107279408Y-50376700D01*
X107009510Y-50430386D01*
X106755273Y-50535695D01*
X106526465Y-50688580D01*
X106331880Y-50883165D01*
X106178995Y-51111973D01*
X106149308Y-51183643D01*
X106144636Y-51170677D01*
X106082656Y-51054720D01*
X105842565Y-50987740D01*
X105056605Y-51773700D01*
X105842565Y-52559660D01*
X106082656Y-52492680D01*
X106146485Y-52356940D01*
X106178995Y-52435427D01*
X106331880Y-52664235D01*
X106526465Y-52858820D01*
X106755273Y-53011705D01*
X106832515Y-53043700D01*
X106755273Y-53075695D01*
X106526465Y-53228580D01*
X106331880Y-53423165D01*
X106178995Y-53651973D01*
X106147000Y-53729215D01*
X106115005Y-53651973D01*
X105962120Y-53423165D01*
X105767535Y-53228580D01*
X105538727Y-53075695D01*
X105467057Y-53046008D01*
X105480023Y-53041336D01*
X105595980Y-52979356D01*
X105662960Y-52739265D01*
X104877000Y-51953305D01*
X104091040Y-52739265D01*
X104158020Y-52979356D01*
X104293760Y-53043185D01*
X104215273Y-53075695D01*
X103986465Y-53228580D01*
X103791880Y-53423165D01*
X103638995Y-53651973D01*
X103607000Y-53729215D01*
X103575005Y-53651973D01*
X103422120Y-53423165D01*
X103227535Y-53228580D01*
X102998727Y-53075695D01*
X102921485Y-53043700D01*
X102998727Y-53011705D01*
X103227535Y-52858820D01*
X103422120Y-52664235D01*
X103575005Y-52435427D01*
X103604692Y-52363757D01*
X103609364Y-52376723D01*
X103671344Y-52492680D01*
X103911435Y-52559660D01*
X104697395Y-51773700D01*
X103911435Y-50987740D01*
X103671344Y-51054720D01*
X103607515Y-51190460D01*
X103575005Y-51111973D01*
X103422120Y-50883165D01*
X103347090Y-50808135D01*
X104091040Y-50808135D01*
X104877000Y-51594095D01*
X105662960Y-50808135D01*
X105595980Y-50568044D01*
X105346952Y-50450944D01*
X105079865Y-50384677D01*
X104804983Y-50371790D01*
X104532867Y-50412778D01*
X104273977Y-50506064D01*
X104158020Y-50568044D01*
X104091040Y-50808135D01*
X103347090Y-50808135D01*
X103227535Y-50688580D01*
X102998727Y-50535695D01*
X102744490Y-50430386D01*
X102474592Y-50376700D01*
X102199408Y-50376700D01*
X101929510Y-50430386D01*
X101675273Y-50535695D01*
X101446465Y-50688580D01*
X101251880Y-50883165D01*
X101098995Y-51111973D01*
X101067000Y-51189215D01*
X101035005Y-51111973D01*
X100882120Y-50883165D01*
X100687535Y-50688580D01*
X100458727Y-50535695D01*
X100204490Y-50430386D01*
X99934592Y-50376700D01*
X99659408Y-50376700D01*
X99389510Y-50430386D01*
X99135273Y-50535695D01*
X98906465Y-50688580D01*
X98711880Y-50883165D01*
X98558995Y-51111973D01*
X98453686Y-51366210D01*
X98400000Y-51636108D01*
X98400000Y-51668239D01*
X98236914Y-51274514D01*
X97828164Y-50662776D01*
X97307924Y-50142536D01*
X96696186Y-49733786D01*
X96201123Y-49528724D01*
X151755715Y-49486128D01*
X151157814Y-49733786D01*
G37*
G04 #@! TD.AperFunction*
G04 #@! TD*
M02*
