G04 #@! TF.GenerationSoftware,KiCad,Pcbnew,5.1.7-a382d34a8~88~ubuntu18.04.1*
G04 #@! TF.CreationDate,2021-05-25T15:59:45+05:30*
G04 #@! TF.ProjectId,Gateway_v1,47617465-7761-4795-9f76-312e6b696361,rev?*
G04 #@! TF.SameCoordinates,Original*
G04 #@! TF.FileFunction,Legend,Top*
G04 #@! TF.FilePolarity,Positive*
%FSLAX46Y46*%
G04 Gerber Fmt 4.6, Leading zero omitted, Abs format (unit mm)*
G04 Created by KiCad (PCBNEW 5.1.7-a382d34a8~88~ubuntu18.04.1) date 2021-05-25 15:59:45*
%MOMM*%
%LPD*%
G01*
G04 APERTURE LIST*
%ADD10C,0.400000*%
%ADD11C,0.300000*%
%ADD12C,0.200000*%
%ADD13C,0.127000*%
%ADD14C,0.120000*%
%ADD15C,0.150000*%
G04 APERTURE END LIST*
D10*
X108191899Y-100782641D02*
X108191899Y-98782641D01*
X108191899Y-99735022D02*
X109334756Y-99735022D01*
X109334756Y-100782641D02*
X109334756Y-98782641D01*
X111144280Y-99449308D02*
X111144280Y-100782641D01*
X110287137Y-99449308D02*
X110287137Y-100496927D01*
X110382375Y-100687403D01*
X110572851Y-100782641D01*
X110858565Y-100782641D01*
X111049041Y-100687403D01*
X111144280Y-100592165D01*
X112096660Y-100782641D02*
X112096660Y-98782641D01*
X112287137Y-100020737D02*
X112858565Y-100782641D01*
X112858565Y-99449308D02*
X112096660Y-100211213D01*
X114572851Y-100782641D02*
X114572851Y-99735022D01*
X114477613Y-99544546D01*
X114287137Y-99449308D01*
X113906184Y-99449308D01*
X113715708Y-99544546D01*
X114572851Y-100687403D02*
X114382375Y-100782641D01*
X113906184Y-100782641D01*
X113715708Y-100687403D01*
X113620470Y-100496927D01*
X113620470Y-100306451D01*
X113715708Y-100115975D01*
X113906184Y-100020737D01*
X114382375Y-100020737D01*
X114572851Y-99925499D01*
X115525232Y-100782641D02*
X115525232Y-99449308D01*
X115525232Y-99639784D02*
X115620470Y-99544546D01*
X115810946Y-99449308D01*
X116096660Y-99449308D01*
X116287137Y-99544546D01*
X116382375Y-99735022D01*
X116382375Y-100782641D01*
X116382375Y-99735022D02*
X116477613Y-99544546D01*
X116668089Y-99449308D01*
X116953803Y-99449308D01*
X117144280Y-99544546D01*
X117239518Y-99735022D01*
X117239518Y-100782641D01*
X119429994Y-98782641D02*
X120572851Y-98782641D01*
X120001422Y-100782641D02*
X120001422Y-98782641D01*
X122001422Y-100687403D02*
X121810946Y-100782641D01*
X121429994Y-100782641D01*
X121239518Y-100687403D01*
X121144280Y-100496927D01*
X121144280Y-99735022D01*
X121239518Y-99544546D01*
X121429994Y-99449308D01*
X121810946Y-99449308D01*
X122001422Y-99544546D01*
X122096660Y-99735022D01*
X122096660Y-99925499D01*
X121144280Y-100115975D01*
X123810946Y-100687403D02*
X123620470Y-100782641D01*
X123239518Y-100782641D01*
X123049041Y-100687403D01*
X122953803Y-100592165D01*
X122858565Y-100401689D01*
X122858565Y-99830260D01*
X122953803Y-99639784D01*
X123049041Y-99544546D01*
X123239518Y-99449308D01*
X123620470Y-99449308D01*
X123810946Y-99544546D01*
X124668089Y-100782641D02*
X124668089Y-98782641D01*
X125525232Y-100782641D02*
X125525232Y-99735022D01*
X125429994Y-99544546D01*
X125239518Y-99449308D01*
X124953803Y-99449308D01*
X124763327Y-99544546D01*
X124668089Y-99639784D01*
X126477613Y-99449308D02*
X126477613Y-100782641D01*
X126477613Y-99639784D02*
X126572851Y-99544546D01*
X126763327Y-99449308D01*
X127049041Y-99449308D01*
X127239518Y-99544546D01*
X127334756Y-99735022D01*
X127334756Y-100782641D01*
X128572851Y-100782641D02*
X128382375Y-100687403D01*
X128287137Y-100592165D01*
X128191899Y-100401689D01*
X128191899Y-99830260D01*
X128287137Y-99639784D01*
X128382375Y-99544546D01*
X128572851Y-99449308D01*
X128858565Y-99449308D01*
X129049041Y-99544546D01*
X129144280Y-99639784D01*
X129239518Y-99830260D01*
X129239518Y-100401689D01*
X129144280Y-100592165D01*
X129049041Y-100687403D01*
X128858565Y-100782641D01*
X128572851Y-100782641D01*
X130382375Y-100782641D02*
X130191899Y-100687403D01*
X130096660Y-100496927D01*
X130096660Y-98782641D01*
X131429994Y-100782641D02*
X131239518Y-100687403D01*
X131144280Y-100592165D01*
X131049041Y-100401689D01*
X131049041Y-99830260D01*
X131144280Y-99639784D01*
X131239518Y-99544546D01*
X131429994Y-99449308D01*
X131715708Y-99449308D01*
X131906184Y-99544546D01*
X132001422Y-99639784D01*
X132096660Y-99830260D01*
X132096660Y-100401689D01*
X132001422Y-100592165D01*
X131906184Y-100687403D01*
X131715708Y-100782641D01*
X131429994Y-100782641D01*
X133810946Y-99449308D02*
X133810946Y-101068356D01*
X133715708Y-101258832D01*
X133620470Y-101354070D01*
X133429994Y-101449308D01*
X133144280Y-101449308D01*
X132953803Y-101354070D01*
X133810946Y-100687403D02*
X133620470Y-100782641D01*
X133239518Y-100782641D01*
X133049041Y-100687403D01*
X132953803Y-100592165D01*
X132858565Y-100401689D01*
X132858565Y-99830260D01*
X132953803Y-99639784D01*
X133049041Y-99544546D01*
X133239518Y-99449308D01*
X133620470Y-99449308D01*
X133810946Y-99544546D01*
X134763327Y-100782641D02*
X134763327Y-99449308D01*
X134763327Y-98782641D02*
X134668089Y-98877880D01*
X134763327Y-98973118D01*
X134858565Y-98877880D01*
X134763327Y-98782641D01*
X134763327Y-98973118D01*
X136477613Y-100687403D02*
X136287137Y-100782641D01*
X135906184Y-100782641D01*
X135715708Y-100687403D01*
X135620470Y-100496927D01*
X135620470Y-99735022D01*
X135715708Y-99544546D01*
X135906184Y-99449308D01*
X136287137Y-99449308D01*
X136477613Y-99544546D01*
X136572851Y-99735022D01*
X136572851Y-99925499D01*
X135620470Y-100115975D01*
X137334756Y-100687403D02*
X137525232Y-100782641D01*
X137906184Y-100782641D01*
X138096660Y-100687403D01*
X138191899Y-100496927D01*
X138191899Y-100401689D01*
X138096660Y-100211213D01*
X137906184Y-100115975D01*
X137620470Y-100115975D01*
X137429994Y-100020737D01*
X137334756Y-99830260D01*
X137334756Y-99735022D01*
X137429994Y-99544546D01*
X137620470Y-99449308D01*
X137906184Y-99449308D01*
X138096660Y-99544546D01*
D11*
X115444248Y-102170800D02*
X115301391Y-102099371D01*
X115087105Y-102099371D01*
X114872820Y-102170800D01*
X114729962Y-102313657D01*
X114658534Y-102456514D01*
X114587105Y-102742228D01*
X114587105Y-102956514D01*
X114658534Y-103242228D01*
X114729962Y-103385085D01*
X114872820Y-103527942D01*
X115087105Y-103599371D01*
X115229962Y-103599371D01*
X115444248Y-103527942D01*
X115515677Y-103456514D01*
X115515677Y-102956514D01*
X115229962Y-102956514D01*
X116801391Y-103599371D02*
X116801391Y-102813657D01*
X116729962Y-102670800D01*
X116587105Y-102599371D01*
X116301391Y-102599371D01*
X116158534Y-102670800D01*
X116801391Y-103527942D02*
X116658534Y-103599371D01*
X116301391Y-103599371D01*
X116158534Y-103527942D01*
X116087105Y-103385085D01*
X116087105Y-103242228D01*
X116158534Y-103099371D01*
X116301391Y-103027942D01*
X116658534Y-103027942D01*
X116801391Y-102956514D01*
X117301391Y-102599371D02*
X117872820Y-102599371D01*
X117515677Y-102099371D02*
X117515677Y-103385085D01*
X117587105Y-103527942D01*
X117729962Y-103599371D01*
X117872820Y-103599371D01*
X118944248Y-103527942D02*
X118801391Y-103599371D01*
X118515677Y-103599371D01*
X118372820Y-103527942D01*
X118301391Y-103385085D01*
X118301391Y-102813657D01*
X118372820Y-102670800D01*
X118515677Y-102599371D01*
X118801391Y-102599371D01*
X118944248Y-102670800D01*
X119015677Y-102813657D01*
X119015677Y-102956514D01*
X118301391Y-103099371D01*
X119515677Y-102599371D02*
X119801391Y-103599371D01*
X120087105Y-102885085D01*
X120372820Y-103599371D01*
X120658534Y-102599371D01*
X121872820Y-103599371D02*
X121872820Y-102813657D01*
X121801391Y-102670800D01*
X121658534Y-102599371D01*
X121372820Y-102599371D01*
X121229962Y-102670800D01*
X121872820Y-103527942D02*
X121729962Y-103599371D01*
X121372820Y-103599371D01*
X121229962Y-103527942D01*
X121158534Y-103385085D01*
X121158534Y-103242228D01*
X121229962Y-103099371D01*
X121372820Y-103027942D01*
X121729962Y-103027942D01*
X121872820Y-102956514D01*
X122444248Y-102599371D02*
X122801391Y-103599371D01*
X123158534Y-102599371D02*
X122801391Y-103599371D01*
X122658534Y-103956514D01*
X122587105Y-104027942D01*
X122444248Y-104099371D01*
X124872820Y-103027942D02*
X126015677Y-103027942D01*
X127729962Y-102599371D02*
X128087105Y-103599371D01*
X128444248Y-102599371D01*
X129801391Y-103599371D02*
X128944248Y-103599371D01*
X129372820Y-103599371D02*
X129372820Y-102099371D01*
X129229962Y-102313657D01*
X129087105Y-102456514D01*
X128944248Y-102527942D01*
D12*
G04 #@! TO.C,J1*
X90627000Y-54543700D02*
G75*
G03*
X90627000Y-54543700I-100000J0D01*
G01*
D13*
X154167000Y-49553700D02*
X94427000Y-49543700D01*
X157127000Y-102623700D02*
X157127000Y-52623700D01*
X94427000Y-105543700D02*
X154307000Y-105543700D01*
X91427000Y-52543700D02*
X91427000Y-102543700D01*
X94427000Y-49543700D02*
G75*
G03*
X91427000Y-52543700I0J-3000000D01*
G01*
X157127000Y-52553700D02*
G75*
G03*
X154127000Y-49553700I-3000000J0D01*
G01*
X154147000Y-105533700D02*
G75*
G03*
X157147000Y-102533700I0J3000000D01*
G01*
X91427000Y-102543700D02*
G75*
G03*
X94427000Y-105543700I3000000J0D01*
G01*
D14*
G04 #@! TO.C,AE1*
X91938800Y-72871000D02*
X93268800Y-72871000D01*
X91938800Y-74201000D02*
X91938800Y-72871000D01*
X91938800Y-75471000D02*
X94598800Y-75471000D01*
X94598800Y-75471000D02*
X94598800Y-75531000D01*
X91938800Y-75471000D02*
X91938800Y-75531000D01*
X91938800Y-75531000D02*
X94598800Y-75531000D01*
G04 #@! TO.C,J2*
X147977000Y-58705400D02*
X142777000Y-58705400D01*
X147977000Y-94325400D02*
X147977000Y-58705400D01*
X142777000Y-96925400D02*
X142777000Y-58705400D01*
X147977000Y-94325400D02*
X145377000Y-94325400D01*
X145377000Y-94325400D02*
X145377000Y-96925400D01*
X145377000Y-96925400D02*
X142777000Y-96925400D01*
X147977000Y-95595400D02*
X147977000Y-96925400D01*
X147977000Y-96925400D02*
X146647000Y-96925400D01*
G04 #@! TO.C,AE1*
D15*
X92025933Y-71647326D02*
X92502123Y-71647326D01*
X91930695Y-71933040D02*
X92264028Y-70933040D01*
X92597361Y-71933040D01*
X92930695Y-71409231D02*
X93264028Y-71409231D01*
X93406885Y-71933040D02*
X92930695Y-71933040D01*
X92930695Y-70933040D01*
X93406885Y-70933040D01*
X94359266Y-71933040D02*
X93787838Y-71933040D01*
X94073552Y-71933040D02*
X94073552Y-70933040D01*
X93978314Y-71075898D01*
X93883076Y-71171136D01*
X93787838Y-71218755D01*
G04 #@! TO.C,J2*
X145043666Y-97377780D02*
X145043666Y-98092066D01*
X144996047Y-98234923D01*
X144900809Y-98330161D01*
X144757952Y-98377780D01*
X144662714Y-98377780D01*
X145472238Y-97473019D02*
X145519857Y-97425400D01*
X145615095Y-97377780D01*
X145853190Y-97377780D01*
X145948428Y-97425400D01*
X145996047Y-97473019D01*
X146043666Y-97568257D01*
X146043666Y-97663495D01*
X145996047Y-97806352D01*
X145424619Y-98377780D01*
X146043666Y-98377780D01*
G04 #@! TD*
M02*
