G04 #@! TF.GenerationSoftware,KiCad,Pcbnew,5.1.7-a382d34a8~88~ubuntu18.04.1*
G04 #@! TF.CreationDate,2021-05-25T15:59:45+05:30*
G04 #@! TF.ProjectId,Gateway_v1,47617465-7761-4795-9f76-312e6b696361,rev?*
G04 #@! TF.SameCoordinates,Original*
G04 #@! TF.FileFunction,Copper,L1,Top*
G04 #@! TF.FilePolarity,Positive*
%FSLAX46Y46*%
G04 Gerber Fmt 4.6, Leading zero omitted, Abs format (unit mm)*
G04 Created by KiCad (PCBNEW 5.1.7-a382d34a8~88~ubuntu18.04.1) date 2021-05-25 15:59:45*
%MOMM*%
%LPD*%
G01*
G04 APERTURE LIST*
G04 #@! TA.AperFunction,ComponentPad*
%ADD10C,1.524000*%
G04 #@! TD*
G04 #@! TA.AperFunction,ComponentPad*
%ADD11R,1.524000X1.524000*%
G04 #@! TD*
G04 #@! TA.AperFunction,ComponentPad*
%ADD12C,6.200000*%
G04 #@! TD*
G04 #@! TA.AperFunction,ComponentPad*
%ADD13R,1.700000X1.700000*%
G04 #@! TD*
G04 #@! TA.AperFunction,ComponentPad*
%ADD14O,1.700000X1.700000*%
G04 #@! TD*
G04 #@! TA.AperFunction,Conductor*
%ADD15C,0.250000*%
G04 #@! TD*
G04 #@! TA.AperFunction,Conductor*
%ADD16C,0.254000*%
G04 #@! TD*
G04 #@! TA.AperFunction,Conductor*
%ADD17C,0.100000*%
G04 #@! TD*
G04 APERTURE END LIST*
D10*
G04 #@! TO.P,J1,40*
G04 #@! TO.N,/Pin_40*
X148057000Y-51773700D03*
G04 #@! TO.P,J1,38*
G04 #@! TO.N,/Pin_38*
X145517000Y-51773700D03*
G04 #@! TO.P,J1,36*
G04 #@! TO.N,/Pin_36*
X142977000Y-51773700D03*
G04 #@! TO.P,J1,34*
G04 #@! TO.N,/Pin_34*
X140437000Y-51773700D03*
G04 #@! TO.P,J1,32*
G04 #@! TO.N,/Pin_32*
X137897000Y-51773700D03*
G04 #@! TO.P,J1,30*
G04 #@! TO.N,/Pin_30*
X135357000Y-51773700D03*
G04 #@! TO.P,J1,39*
G04 #@! TO.N,/Pin_39*
X148057000Y-54313700D03*
G04 #@! TO.P,J1,37*
G04 #@! TO.N,/Pin_37*
X145517000Y-54313700D03*
G04 #@! TO.P,J1,35*
G04 #@! TO.N,/Pin_35*
X142977000Y-54313700D03*
G04 #@! TO.P,J1,33*
G04 #@! TO.N,/Pin_33*
X140437000Y-54313700D03*
G04 #@! TO.P,J1,31*
G04 #@! TO.N,/Pin_31*
X137897000Y-54313700D03*
G04 #@! TO.P,J1,29*
G04 #@! TO.N,/Pin_29*
X135357000Y-54313700D03*
G04 #@! TO.P,J1,28*
G04 #@! TO.N,/Pin_28*
X132817000Y-51773700D03*
G04 #@! TO.P,J1,27*
G04 #@! TO.N,/Pin_27*
X132817000Y-54313700D03*
G04 #@! TO.P,J1,26*
G04 #@! TO.N,/Pin_26*
X130277000Y-51773700D03*
G04 #@! TO.P,J1,24*
G04 #@! TO.N,/NSS*
X127737000Y-51773700D03*
G04 #@! TO.P,J1,22*
G04 #@! TO.N,/DIO0*
X125197000Y-51773700D03*
G04 #@! TO.P,J1,20*
G04 #@! TO.N,/Pin_20*
X122657000Y-51773700D03*
G04 #@! TO.P,J1,18*
G04 #@! TO.N,/Reset*
X120117000Y-51773700D03*
G04 #@! TO.P,J1,16*
G04 #@! TO.N,/Pin_16*
X117577000Y-51773700D03*
G04 #@! TO.P,J1,25*
G04 #@! TO.N,/Pin_25*
X130277000Y-54313700D03*
G04 #@! TO.P,J1,23*
G04 #@! TO.N,/SCK*
X127737000Y-54313700D03*
G04 #@! TO.P,J1,21*
G04 #@! TO.N,/MISO*
X125197000Y-54313700D03*
G04 #@! TO.P,J1,19*
G04 #@! TO.N,/MOSI*
X122657000Y-54313700D03*
G04 #@! TO.P,J1,17*
G04 #@! TO.N,/Pin_17*
X120117000Y-54313700D03*
G04 #@! TO.P,J1,15*
G04 #@! TO.N,/DIO3*
X117577000Y-54313700D03*
G04 #@! TO.P,J1,14*
G04 #@! TO.N,/Pin_14*
X115037000Y-51773700D03*
G04 #@! TO.P,J1,13*
G04 #@! TO.N,/DIO2*
X115037000Y-54313700D03*
G04 #@! TO.P,J1,12*
G04 #@! TO.N,/Pin_12*
X112497000Y-51773700D03*
G04 #@! TO.P,J1,10*
G04 #@! TO.N,/Pin_10*
X109957000Y-51773700D03*
G04 #@! TO.P,J1,8*
G04 #@! TO.N,/Pin_8*
X107417000Y-51773700D03*
G04 #@! TO.P,J1,6*
G04 #@! TO.N,/Gnd*
X104877000Y-51773700D03*
G04 #@! TO.P,J1,4*
G04 #@! TO.N,/Pin_4*
X102337000Y-51773700D03*
G04 #@! TO.P,J1,2*
G04 #@! TO.N,/Pin_2*
X99797000Y-51773700D03*
G04 #@! TO.P,J1,11*
G04 #@! TO.N,/DIO1*
X112497000Y-54313700D03*
G04 #@! TO.P,J1,9*
G04 #@! TO.N,/Pin_9*
X109957000Y-54313700D03*
G04 #@! TO.P,J1,7*
G04 #@! TO.N,/Pin_7*
X107417000Y-54313700D03*
G04 #@! TO.P,J1,5*
G04 #@! TO.N,/Pin_5*
X104877000Y-54313700D03*
G04 #@! TO.P,J1,3*
G04 #@! TO.N,/Pin_3*
X102337000Y-54313700D03*
D11*
G04 #@! TO.P,J1,1*
G04 #@! TO.N,/3.3v*
X99797000Y-54313700D03*
D12*
G04 #@! TO.P,J1,S1*
G04 #@! TO.N,N/C*
X94927000Y-53043700D03*
G04 #@! TO.P,J1,S2*
X152927000Y-53043700D03*
G04 #@! TO.P,J1,S3*
X152927000Y-102043700D03*
G04 #@! TO.P,J1,S4*
X94927000Y-102043700D03*
G04 #@! TD*
D13*
G04 #@! TO.P,AE1,1*
G04 #@! TO.N,Net-(AE1-Pad1)*
X93268800Y-74201000D03*
G04 #@! TD*
D14*
G04 #@! TO.P,J2,30*
G04 #@! TO.N,Net-(J2-Pad30)*
X144107000Y-60035400D03*
G04 #@! TO.P,J2,29*
G04 #@! TO.N,/Pin_40*
X146647000Y-60035400D03*
G04 #@! TO.P,J2,28*
G04 #@! TO.N,/Pin_39*
X144107000Y-62575400D03*
G04 #@! TO.P,J2,27*
G04 #@! TO.N,/Pin_38*
X146647000Y-62575400D03*
G04 #@! TO.P,J2,26*
G04 #@! TO.N,/Pin_37*
X144107000Y-65115400D03*
G04 #@! TO.P,J2,25*
G04 #@! TO.N,/Pin_36*
X146647000Y-65115400D03*
G04 #@! TO.P,J2,24*
G04 #@! TO.N,/Pin_35*
X144107000Y-67655400D03*
G04 #@! TO.P,J2,23*
G04 #@! TO.N,/Pin_34*
X146647000Y-67655400D03*
G04 #@! TO.P,J2,22*
G04 #@! TO.N,/Pin_33*
X144107000Y-70195400D03*
G04 #@! TO.P,J2,21*
G04 #@! TO.N,/Pin_32*
X146647000Y-70195400D03*
G04 #@! TO.P,J2,20*
G04 #@! TO.N,/Pin_31*
X144107000Y-72735400D03*
G04 #@! TO.P,J2,19*
G04 #@! TO.N,/Pin_30*
X146647000Y-72735400D03*
G04 #@! TO.P,J2,18*
G04 #@! TO.N,/Pin_29*
X144107000Y-75275400D03*
G04 #@! TO.P,J2,17*
G04 #@! TO.N,/Pin_28*
X146647000Y-75275400D03*
G04 #@! TO.P,J2,16*
G04 #@! TO.N,/Pin_27*
X144107000Y-77815400D03*
G04 #@! TO.P,J2,15*
G04 #@! TO.N,/Pin_26*
X146647000Y-77815400D03*
G04 #@! TO.P,J2,14*
G04 #@! TO.N,/Pin_25*
X144107000Y-80355400D03*
G04 #@! TO.P,J2,13*
G04 #@! TO.N,/Pin_20*
X146647000Y-80355400D03*
G04 #@! TO.P,J2,12*
G04 #@! TO.N,/Pin_17*
X144107000Y-82895400D03*
G04 #@! TO.P,J2,11*
G04 #@! TO.N,/Pin_16*
X146647000Y-82895400D03*
G04 #@! TO.P,J2,10*
G04 #@! TO.N,/Pin_14*
X144107000Y-85435400D03*
G04 #@! TO.P,J2,9*
G04 #@! TO.N,/Pin_12*
X146647000Y-85435400D03*
G04 #@! TO.P,J2,8*
G04 #@! TO.N,/Pin_10*
X144107000Y-87975400D03*
G04 #@! TO.P,J2,7*
G04 #@! TO.N,/Pin_9*
X146647000Y-87975400D03*
G04 #@! TO.P,J2,6*
G04 #@! TO.N,/Pin_8*
X144107000Y-90515400D03*
G04 #@! TO.P,J2,5*
G04 #@! TO.N,/Pin_7*
X146647000Y-90515400D03*
G04 #@! TO.P,J2,4*
G04 #@! TO.N,/Pin_5*
X144107000Y-93055400D03*
G04 #@! TO.P,J2,3*
G04 #@! TO.N,/Pin_4*
X146647000Y-93055400D03*
G04 #@! TO.P,J2,2*
G04 #@! TO.N,/Pin_3*
X144107000Y-95595400D03*
D13*
G04 #@! TO.P,J2,1*
G04 #@! TO.N,/Pin_2*
X146647000Y-95595400D03*
G04 #@! TD*
D15*
G04 #@! TO.N,/Pin_38*
X146647000Y-62575400D02*
X146647000Y-61400100D01*
X146647000Y-61400100D02*
X147014300Y-61400100D01*
X147014300Y-61400100D02*
X149176300Y-59238100D01*
X149176300Y-59238100D02*
X149176300Y-51320000D01*
X149176300Y-51320000D02*
X148487700Y-50631400D01*
X148487700Y-50631400D02*
X146659300Y-50631400D01*
X146659300Y-50631400D02*
X145517000Y-51773700D01*
G04 #@! TO.N,/Pin_36*
X146647000Y-65115400D02*
X146647000Y-63940100D01*
X146647000Y-63940100D02*
X146279600Y-63940100D01*
X146279600Y-63940100D02*
X145471700Y-63132200D01*
X145471700Y-63132200D02*
X145471700Y-57939500D01*
X145471700Y-57939500D02*
X144247000Y-56714800D01*
X144247000Y-56714800D02*
X144247000Y-53043700D01*
X144247000Y-53043700D02*
X142977000Y-51773700D01*
G04 #@! TO.N,/Pin_34*
X146647000Y-66480100D02*
X146279600Y-66480100D01*
X146279600Y-66480100D02*
X145471700Y-65672200D01*
X145471700Y-65672200D02*
X145471700Y-64779100D01*
X145471700Y-64779100D02*
X144538000Y-63845400D01*
X144538000Y-63845400D02*
X143705200Y-63845400D01*
X143705200Y-63845400D02*
X141707100Y-61847300D01*
X141707100Y-61847300D02*
X141707100Y-53043700D01*
X141707100Y-53043700D02*
X141707000Y-53043700D01*
X141707000Y-53043700D02*
X140437000Y-51773700D01*
X146647000Y-67655400D02*
X146647000Y-66480100D01*
G04 #@! TO.N,/Pin_33*
X144107000Y-70195400D02*
X144107000Y-69020100D01*
X144107000Y-69020100D02*
X143739700Y-69020100D01*
X143739700Y-69020100D02*
X140437000Y-65717400D01*
X140437000Y-65717400D02*
X140437000Y-54313700D01*
G04 #@! TO.N,/Pin_31*
X144107000Y-72735400D02*
X144107000Y-71560100D01*
X144107000Y-71560100D02*
X143739700Y-71560100D01*
X143739700Y-71560100D02*
X137897000Y-65717400D01*
X137897000Y-65717400D02*
X137897000Y-54313700D01*
G04 #@! TO.N,/Pin_28*
X146647000Y-75275400D02*
X145471700Y-75275400D01*
X145471700Y-75275400D02*
X145471700Y-74908000D01*
X145471700Y-74908000D02*
X144663800Y-74100100D01*
X144663800Y-74100100D02*
X143790400Y-74100100D01*
X143790400Y-74100100D02*
X134087000Y-64396700D01*
X134087000Y-64396700D02*
X134087000Y-53043700D01*
X134087000Y-53043700D02*
X132817000Y-51773700D01*
G04 #@! TO.N,/Pin_26*
X146647000Y-77815400D02*
X145471700Y-77815400D01*
X145471700Y-77815400D02*
X145471700Y-77448000D01*
X145471700Y-77448000D02*
X144663800Y-76640100D01*
X144663800Y-76640100D02*
X143803400Y-76640100D01*
X143803400Y-76640100D02*
X131547000Y-64383700D01*
X131547000Y-64383700D02*
X131547000Y-53043700D01*
X131547000Y-53043700D02*
X130277000Y-51773700D01*
G04 #@! TO.N,/Pin_17*
X144107000Y-82895400D02*
X144107000Y-81720100D01*
X144107000Y-81720100D02*
X143739700Y-81720100D01*
X143739700Y-81720100D02*
X120117000Y-58097400D01*
X120117000Y-58097400D02*
X120117000Y-54313700D01*
G04 #@! TO.N,/Pin_14*
X115037000Y-51773700D02*
X116307000Y-53043700D01*
X116307000Y-53043700D02*
X116307000Y-56796200D01*
X116307000Y-56796200D02*
X143770900Y-84260100D01*
X143770900Y-84260100D02*
X144107000Y-84260100D01*
X144107000Y-85435400D02*
X144107000Y-84260100D01*
G04 #@! TO.N,/Pin_9*
X146647000Y-87975400D02*
X145471700Y-87975400D01*
X145471700Y-87975400D02*
X145471700Y-88342700D01*
X145471700Y-88342700D02*
X144653100Y-89161300D01*
X144653100Y-89161300D02*
X143621900Y-89161300D01*
X143621900Y-89161300D02*
X109957000Y-55496400D01*
X109957000Y-55496400D02*
X109957000Y-54313700D01*
G04 #@! TO.N,/Pin_8*
X144107000Y-90515400D02*
X108687000Y-55095400D01*
X108687000Y-55095400D02*
X108687000Y-53043700D01*
X108687000Y-53043700D02*
X107417000Y-51773700D01*
G04 #@! TO.N,/Pin_7*
X146647000Y-90515400D02*
X145471700Y-90515400D01*
X145471700Y-90515400D02*
X145471700Y-90882700D01*
X145471700Y-90882700D02*
X144648400Y-91706000D01*
X144648400Y-91706000D02*
X143558200Y-91706000D01*
X143558200Y-91706000D02*
X107417000Y-55564800D01*
X107417000Y-55564800D02*
X107417000Y-54313700D01*
G04 #@! TO.N,/Pin_5*
X144107000Y-93055400D02*
X142931700Y-93055400D01*
X142931700Y-93055400D02*
X142931700Y-92368400D01*
X142931700Y-92368400D02*
X104877000Y-54313700D01*
G04 #@! TO.N,/Pin_4*
X146647000Y-93055400D02*
X146647000Y-94230700D01*
X146647000Y-94230700D02*
X147455000Y-94230700D01*
X147455000Y-94230700D02*
X147822400Y-94598100D01*
X147822400Y-94598100D02*
X147822400Y-96612100D01*
X147822400Y-96612100D02*
X147627600Y-96806900D01*
X147627600Y-96806900D02*
X140244900Y-96806900D01*
X140244900Y-96806900D02*
X98649400Y-55211400D01*
X98649400Y-55211400D02*
X98649400Y-51317300D01*
X98649400Y-51317300D02*
X99353800Y-50612900D01*
X99353800Y-50612900D02*
X101176200Y-50612900D01*
X101176200Y-50612900D02*
X102337000Y-51773700D01*
G04 #@! TO.N,/Pin_3*
X102337000Y-54313700D02*
X142931700Y-94908400D01*
X142931700Y-94908400D02*
X142931700Y-95595400D01*
X144107000Y-95595400D02*
X142931700Y-95595400D01*
G04 #@! TO.N,/Pin_2*
X99797000Y-51773700D02*
X101249600Y-53226300D01*
X101249600Y-53226300D02*
X102851900Y-53226300D01*
X102851900Y-53226300D02*
X103607000Y-53981400D01*
X103607000Y-53981400D02*
X103607000Y-54584800D01*
X103607000Y-54584800D02*
X143442300Y-94420100D01*
X143442300Y-94420100D02*
X144663800Y-94420100D01*
X144663800Y-94420100D02*
X145471700Y-95228000D01*
X145471700Y-95228000D02*
X145471700Y-95595400D01*
X146647000Y-95595400D02*
X145471700Y-95595400D01*
G04 #@! TO.N,/Pin_10*
X144107000Y-87975400D02*
X144107000Y-86800100D01*
X144107000Y-86800100D02*
X143433200Y-86800100D01*
X143433200Y-86800100D02*
X111227000Y-54593900D01*
X111227000Y-54593900D02*
X111227000Y-53043700D01*
X111227000Y-53043700D02*
X109957000Y-51773700D01*
G04 #@! TO.N,/Pin_16*
X146647000Y-82895400D02*
X146647000Y-81720100D01*
X146647000Y-81720100D02*
X147014300Y-81720100D01*
X147014300Y-81720100D02*
X156360800Y-72373600D01*
X156360800Y-72373600D02*
X156360800Y-51560100D01*
X156360800Y-51560100D02*
X154361000Y-49560300D01*
X154361000Y-49560300D02*
X119790400Y-49560300D01*
X119790400Y-49560300D02*
X117577000Y-51773700D01*
G04 #@! TO.N,/Pin_20*
X146647000Y-80355400D02*
X145471700Y-80355400D01*
X145471700Y-80355400D02*
X145471700Y-79988000D01*
X145471700Y-79988000D02*
X144663800Y-79180100D01*
X144663800Y-79180100D02*
X143790400Y-79180100D01*
X143790400Y-79180100D02*
X123927000Y-59316700D01*
X123927000Y-59316700D02*
X123927000Y-53043700D01*
X123927000Y-53043700D02*
X122657000Y-51773700D01*
G04 #@! TO.N,/Pin_40*
X146647000Y-60035400D02*
X146647000Y-53183700D01*
X146647000Y-53183700D02*
X148057000Y-51773700D01*
G04 #@! TD*
D16*
G04 #@! TO.N,/Gnd*
X117868570Y-50407328D02*
X117714592Y-50376700D01*
X117439408Y-50376700D01*
X117169510Y-50430386D01*
X116915273Y-50535695D01*
X116686465Y-50688580D01*
X116491880Y-50883165D01*
X116338995Y-51111973D01*
X116307000Y-51189215D01*
X116275005Y-51111973D01*
X116122120Y-50883165D01*
X115927535Y-50688580D01*
X115698727Y-50535695D01*
X115444490Y-50430386D01*
X115174592Y-50376700D01*
X114899408Y-50376700D01*
X114629510Y-50430386D01*
X114375273Y-50535695D01*
X114146465Y-50688580D01*
X113951880Y-50883165D01*
X113798995Y-51111973D01*
X113767000Y-51189215D01*
X113735005Y-51111973D01*
X113582120Y-50883165D01*
X113387535Y-50688580D01*
X113158727Y-50535695D01*
X112904490Y-50430386D01*
X112634592Y-50376700D01*
X112359408Y-50376700D01*
X112089510Y-50430386D01*
X111835273Y-50535695D01*
X111606465Y-50688580D01*
X111411880Y-50883165D01*
X111258995Y-51111973D01*
X111227000Y-51189215D01*
X111195005Y-51111973D01*
X111042120Y-50883165D01*
X110847535Y-50688580D01*
X110618727Y-50535695D01*
X110364490Y-50430386D01*
X110094592Y-50376700D01*
X109819408Y-50376700D01*
X109549510Y-50430386D01*
X109295273Y-50535695D01*
X109066465Y-50688580D01*
X108871880Y-50883165D01*
X108718995Y-51111973D01*
X108687000Y-51189215D01*
X108655005Y-51111973D01*
X108502120Y-50883165D01*
X108307535Y-50688580D01*
X108078727Y-50535695D01*
X107824490Y-50430386D01*
X107554592Y-50376700D01*
X107279408Y-50376700D01*
X107009510Y-50430386D01*
X106755273Y-50535695D01*
X106526465Y-50688580D01*
X106331880Y-50883165D01*
X106178995Y-51111973D01*
X106149308Y-51183643D01*
X106144636Y-51170677D01*
X106082656Y-51054720D01*
X105842565Y-50987740D01*
X105056605Y-51773700D01*
X105842565Y-52559660D01*
X106082656Y-52492680D01*
X106146485Y-52356940D01*
X106178995Y-52435427D01*
X106331880Y-52664235D01*
X106526465Y-52858820D01*
X106755273Y-53011705D01*
X106832515Y-53043700D01*
X106755273Y-53075695D01*
X106526465Y-53228580D01*
X106331880Y-53423165D01*
X106178995Y-53651973D01*
X106147000Y-53729215D01*
X106115005Y-53651973D01*
X105962120Y-53423165D01*
X105767535Y-53228580D01*
X105538727Y-53075695D01*
X105467057Y-53046008D01*
X105480023Y-53041336D01*
X105595980Y-52979356D01*
X105662960Y-52739265D01*
X104877000Y-51953305D01*
X104091040Y-52739265D01*
X104158020Y-52979356D01*
X104293760Y-53043185D01*
X104215273Y-53075695D01*
X103986465Y-53228580D01*
X103957723Y-53257322D01*
X103415703Y-52715302D01*
X103395577Y-52690778D01*
X103422120Y-52664235D01*
X103575005Y-52435427D01*
X103604692Y-52363757D01*
X103609364Y-52376723D01*
X103671344Y-52492680D01*
X103911435Y-52559660D01*
X104697395Y-51773700D01*
X103911435Y-50987740D01*
X103671344Y-51054720D01*
X103607515Y-51190460D01*
X103575005Y-51111973D01*
X103422120Y-50883165D01*
X103347090Y-50808135D01*
X104091040Y-50808135D01*
X104877000Y-51594095D01*
X105662960Y-50808135D01*
X105595980Y-50568044D01*
X105346952Y-50450944D01*
X105079865Y-50384677D01*
X104804983Y-50371790D01*
X104532867Y-50412778D01*
X104273977Y-50506064D01*
X104158020Y-50568044D01*
X104091040Y-50808135D01*
X103347090Y-50808135D01*
X103227535Y-50688580D01*
X102998727Y-50535695D01*
X102744490Y-50430386D01*
X102474592Y-50376700D01*
X102199408Y-50376700D01*
X102045429Y-50407328D01*
X101740004Y-50101903D01*
X101716201Y-50072899D01*
X101600476Y-49977926D01*
X101468447Y-49907354D01*
X101325186Y-49863897D01*
X101213533Y-49852900D01*
X101213522Y-49852900D01*
X101176200Y-49849224D01*
X101138878Y-49852900D01*
X99391122Y-49852900D01*
X99353799Y-49849224D01*
X99316476Y-49852900D01*
X99316467Y-49852900D01*
X99204814Y-49863897D01*
X99061553Y-49907354D01*
X98929523Y-49977926D01*
X98845883Y-50046568D01*
X98813799Y-50072899D01*
X98790001Y-50101898D01*
X98138398Y-50753501D01*
X98109400Y-50777299D01*
X98085602Y-50806297D01*
X98085601Y-50806298D01*
X98014426Y-50893024D01*
X98000020Y-50919976D01*
X97828164Y-50662776D01*
X97307924Y-50142536D01*
X96696186Y-49733786D01*
X96081561Y-49479200D01*
X118796698Y-49479200D01*
X117868570Y-50407328D01*
G04 #@! TA.AperFunction,Conductor*
D17*
G36*
X117868570Y-50407328D02*
G01*
X117714592Y-50376700D01*
X117439408Y-50376700D01*
X117169510Y-50430386D01*
X116915273Y-50535695D01*
X116686465Y-50688580D01*
X116491880Y-50883165D01*
X116338995Y-51111973D01*
X116307000Y-51189215D01*
X116275005Y-51111973D01*
X116122120Y-50883165D01*
X115927535Y-50688580D01*
X115698727Y-50535695D01*
X115444490Y-50430386D01*
X115174592Y-50376700D01*
X114899408Y-50376700D01*
X114629510Y-50430386D01*
X114375273Y-50535695D01*
X114146465Y-50688580D01*
X113951880Y-50883165D01*
X113798995Y-51111973D01*
X113767000Y-51189215D01*
X113735005Y-51111973D01*
X113582120Y-50883165D01*
X113387535Y-50688580D01*
X113158727Y-50535695D01*
X112904490Y-50430386D01*
X112634592Y-50376700D01*
X112359408Y-50376700D01*
X112089510Y-50430386D01*
X111835273Y-50535695D01*
X111606465Y-50688580D01*
X111411880Y-50883165D01*
X111258995Y-51111973D01*
X111227000Y-51189215D01*
X111195005Y-51111973D01*
X111042120Y-50883165D01*
X110847535Y-50688580D01*
X110618727Y-50535695D01*
X110364490Y-50430386D01*
X110094592Y-50376700D01*
X109819408Y-50376700D01*
X109549510Y-50430386D01*
X109295273Y-50535695D01*
X109066465Y-50688580D01*
X108871880Y-50883165D01*
X108718995Y-51111973D01*
X108687000Y-51189215D01*
X108655005Y-51111973D01*
X108502120Y-50883165D01*
X108307535Y-50688580D01*
X108078727Y-50535695D01*
X107824490Y-50430386D01*
X107554592Y-50376700D01*
X107279408Y-50376700D01*
X107009510Y-50430386D01*
X106755273Y-50535695D01*
X106526465Y-50688580D01*
X106331880Y-50883165D01*
X106178995Y-51111973D01*
X106149308Y-51183643D01*
X106144636Y-51170677D01*
X106082656Y-51054720D01*
X105842565Y-50987740D01*
X105056605Y-51773700D01*
X105842565Y-52559660D01*
X106082656Y-52492680D01*
X106146485Y-52356940D01*
X106178995Y-52435427D01*
X106331880Y-52664235D01*
X106526465Y-52858820D01*
X106755273Y-53011705D01*
X106832515Y-53043700D01*
X106755273Y-53075695D01*
X106526465Y-53228580D01*
X106331880Y-53423165D01*
X106178995Y-53651973D01*
X106147000Y-53729215D01*
X106115005Y-53651973D01*
X105962120Y-53423165D01*
X105767535Y-53228580D01*
X105538727Y-53075695D01*
X105467057Y-53046008D01*
X105480023Y-53041336D01*
X105595980Y-52979356D01*
X105662960Y-52739265D01*
X104877000Y-51953305D01*
X104091040Y-52739265D01*
X104158020Y-52979356D01*
X104293760Y-53043185D01*
X104215273Y-53075695D01*
X103986465Y-53228580D01*
X103957723Y-53257322D01*
X103415703Y-52715302D01*
X103395577Y-52690778D01*
X103422120Y-52664235D01*
X103575005Y-52435427D01*
X103604692Y-52363757D01*
X103609364Y-52376723D01*
X103671344Y-52492680D01*
X103911435Y-52559660D01*
X104697395Y-51773700D01*
X103911435Y-50987740D01*
X103671344Y-51054720D01*
X103607515Y-51190460D01*
X103575005Y-51111973D01*
X103422120Y-50883165D01*
X103347090Y-50808135D01*
X104091040Y-50808135D01*
X104877000Y-51594095D01*
X105662960Y-50808135D01*
X105595980Y-50568044D01*
X105346952Y-50450944D01*
X105079865Y-50384677D01*
X104804983Y-50371790D01*
X104532867Y-50412778D01*
X104273977Y-50506064D01*
X104158020Y-50568044D01*
X104091040Y-50808135D01*
X103347090Y-50808135D01*
X103227535Y-50688580D01*
X102998727Y-50535695D01*
X102744490Y-50430386D01*
X102474592Y-50376700D01*
X102199408Y-50376700D01*
X102045429Y-50407328D01*
X101740004Y-50101903D01*
X101716201Y-50072899D01*
X101600476Y-49977926D01*
X101468447Y-49907354D01*
X101325186Y-49863897D01*
X101213533Y-49852900D01*
X101213522Y-49852900D01*
X101176200Y-49849224D01*
X101138878Y-49852900D01*
X99391122Y-49852900D01*
X99353799Y-49849224D01*
X99316476Y-49852900D01*
X99316467Y-49852900D01*
X99204814Y-49863897D01*
X99061553Y-49907354D01*
X98929523Y-49977926D01*
X98845883Y-50046568D01*
X98813799Y-50072899D01*
X98790001Y-50101898D01*
X98138398Y-50753501D01*
X98109400Y-50777299D01*
X98085602Y-50806297D01*
X98085601Y-50806298D01*
X98014426Y-50893024D01*
X98000020Y-50919976D01*
X97828164Y-50662776D01*
X97307924Y-50142536D01*
X96696186Y-49733786D01*
X96081561Y-49479200D01*
X118796698Y-49479200D01*
X117868570Y-50407328D01*
G37*
G04 #@! TD.AperFunction*
G04 #@! TD*
M02*
