G04 #@! TF.GenerationSoftware,KiCad,Pcbnew,5.1.7-a382d34a8~88~ubuntu18.04.1*
G04 #@! TF.CreationDate,2021-05-25T15:59:45+05:30*
G04 #@! TF.ProjectId,Gateway_v1,47617465-7761-4795-9f76-312e6b696361,rev?*
G04 #@! TF.SameCoordinates,Original*
G04 #@! TF.FileFunction,Legend,Bot*
G04 #@! TF.FilePolarity,Positive*
%FSLAX46Y46*%
G04 Gerber Fmt 4.6, Leading zero omitted, Abs format (unit mm)*
G04 Created by KiCad (PCBNEW 5.1.7-a382d34a8~88~ubuntu18.04.1) date 2021-05-25 15:59:45*
%MOMM*%
%LPD*%
G01*
G04 APERTURE LIST*
%ADD10C,0.150000*%
%ADD11C,0.125000*%
G04 APERTURE END LIST*
D10*
G04 #@! TO.C,U1*
X107601200Y-91282400D02*
X107611200Y-77882400D01*
X91611200Y-91282400D02*
X107601200Y-91282400D01*
X91611200Y-77882400D02*
X91611200Y-91282400D01*
X107611200Y-77882400D02*
X91611200Y-77882400D01*
X94751375Y-79682400D02*
G75*
G03*
X94751375Y-79682400I-1140175J0D01*
G01*
X93873244Y-94361980D02*
X93873244Y-95171504D01*
X93825625Y-95266742D01*
X93778006Y-95314361D01*
X93682768Y-95361980D01*
X93492292Y-95361980D01*
X93397054Y-95314361D01*
X93349435Y-95266742D01*
X93301816Y-95171504D01*
X93301816Y-94361980D01*
X92301816Y-95361980D02*
X92873244Y-95361980D01*
X92587530Y-95361980D02*
X92587530Y-94361980D01*
X92682768Y-94504838D01*
X92778006Y-94600076D01*
X92873244Y-94647695D01*
D11*
X95683580Y-82829542D02*
X95683580Y-82115257D01*
X94683580Y-82115257D01*
X95683580Y-83543828D02*
X95635961Y-83400971D01*
X95588342Y-83329542D01*
X95493104Y-83258114D01*
X95207390Y-83258114D01*
X95112152Y-83329542D01*
X95064533Y-83400971D01*
X95016914Y-83543828D01*
X95016914Y-83758114D01*
X95064533Y-83900971D01*
X95112152Y-83972400D01*
X95207390Y-84043828D01*
X95493104Y-84043828D01*
X95588342Y-83972400D01*
X95635961Y-83900971D01*
X95683580Y-83758114D01*
X95683580Y-83543828D01*
X95683580Y-85543828D02*
X95207390Y-85043828D01*
X95683580Y-84686685D02*
X94683580Y-84686685D01*
X94683580Y-85258114D01*
X94731200Y-85400971D01*
X94778819Y-85472400D01*
X94874057Y-85543828D01*
X95016914Y-85543828D01*
X95112152Y-85472400D01*
X95159771Y-85400971D01*
X95207390Y-85258114D01*
X95207390Y-84686685D01*
X95683580Y-86829542D02*
X95159771Y-86829542D01*
X95064533Y-86758114D01*
X95016914Y-86615257D01*
X95016914Y-86329542D01*
X95064533Y-86186685D01*
X95635961Y-86829542D02*
X95683580Y-86686685D01*
X95683580Y-86329542D01*
X95635961Y-86186685D01*
X95540723Y-86115257D01*
X95445485Y-86115257D01*
X95350247Y-86186685D01*
X95302628Y-86329542D01*
X95302628Y-86686685D01*
X95255009Y-86829542D01*
G04 #@! TD*
M02*
