G04 #@! TF.GenerationSoftware,KiCad,Pcbnew,5.1.7-a382d34a8~88~ubuntu18.04.1*
G04 #@! TF.CreationDate,2021-07-23T00:29:16+05:30*
G04 #@! TF.ProjectId,Sensor_PCB_v6,53656e73-6f72-45f5-9043-425f76362e6b,rev?*
G04 #@! TF.SameCoordinates,Original*
G04 #@! TF.FileFunction,Legend,Bot*
G04 #@! TF.FilePolarity,Positive*
%FSLAX46Y46*%
G04 Gerber Fmt 4.6, Leading zero omitted, Abs format (unit mm)*
G04 Created by KiCad (PCBNEW 5.1.7-a382d34a8~88~ubuntu18.04.1) date 2021-07-23 00:29:16*
%MOMM*%
%LPD*%
G01*
G04 APERTURE LIST*
%ADD10C,0.100000*%
%ADD11C,0.127000*%
%ADD12C,0.152400*%
%ADD13C,0.010000*%
%ADD14C,0.150000*%
%ADD15C,0.120000*%
%ADD16C,0.015000*%
G04 APERTURE END LIST*
D10*
X36705759Y-58682849D02*
X36820044Y-58720944D01*
X37010520Y-58720944D01*
X37086711Y-58682849D01*
X37124806Y-58644754D01*
X37162901Y-58568563D01*
X37162901Y-58492373D01*
X37124806Y-58416182D01*
X37086711Y-58378087D01*
X37010520Y-58339992D01*
X36858140Y-58301897D01*
X36781949Y-58263801D01*
X36743854Y-58225706D01*
X36705759Y-58149516D01*
X36705759Y-58073325D01*
X36743854Y-57997135D01*
X36781949Y-57959040D01*
X36858140Y-57920944D01*
X37048616Y-57920944D01*
X37162901Y-57959040D01*
X37391473Y-58187611D02*
X37696235Y-58187611D01*
X37505759Y-57920944D02*
X37505759Y-58606659D01*
X37543854Y-58682849D01*
X37620044Y-58720944D01*
X37696235Y-58720944D01*
X37962901Y-58720944D02*
X37962901Y-58187611D01*
X37962901Y-58263801D02*
X38000997Y-58225706D01*
X38077187Y-58187611D01*
X38191473Y-58187611D01*
X38267663Y-58225706D01*
X38305759Y-58301897D01*
X38305759Y-58720944D01*
X38305759Y-58301897D02*
X38343854Y-58225706D01*
X38420044Y-58187611D01*
X38534330Y-58187611D01*
X38610520Y-58225706D01*
X38648616Y-58301897D01*
X38648616Y-58720944D01*
X38953378Y-57920944D02*
X39448616Y-57920944D01*
X39181949Y-58225706D01*
X39296235Y-58225706D01*
X39372425Y-58263801D01*
X39410520Y-58301897D01*
X39448616Y-58378087D01*
X39448616Y-58568563D01*
X39410520Y-58644754D01*
X39372425Y-58682849D01*
X39296235Y-58720944D01*
X39067663Y-58720944D01*
X38991473Y-58682849D01*
X38953378Y-58644754D01*
X39753378Y-57997135D02*
X39791473Y-57959040D01*
X39867663Y-57920944D01*
X40058140Y-57920944D01*
X40134330Y-57959040D01*
X40172425Y-57997135D01*
X40210520Y-58073325D01*
X40210520Y-58149516D01*
X40172425Y-58263801D01*
X39715282Y-58720944D01*
X40210520Y-58720944D01*
D11*
X29771900Y-75674600D02*
X29771900Y-71274600D01*
X29771900Y-71274600D02*
X33971900Y-71274600D01*
X33971900Y-71274600D02*
X33971900Y-75674600D01*
X33971900Y-75674600D02*
X29771900Y-75674600D01*
D10*
X30495506Y-75174600D02*
G75*
G03*
X30495506Y-75174600I-223606J0D01*
G01*
D12*
X54279400Y-41443700D02*
X54279400Y-38943700D01*
X52709400Y-38943700D02*
X54279400Y-38943700D01*
X49779400Y-38943700D02*
X51349400Y-38943700D01*
X49779400Y-38943700D02*
X49779400Y-41443700D01*
X49779400Y-41443700D02*
X50749400Y-41443700D01*
X53309400Y-41443700D02*
X54279400Y-41443700D01*
D13*
G36*
X50279400Y-38943700D02*
G01*
X50779400Y-38943700D01*
X50779400Y-38803700D01*
X50279400Y-38803700D01*
X50279400Y-38943700D01*
G37*
X50279400Y-38943700D02*
X50779400Y-38943700D01*
X50779400Y-38803700D01*
X50279400Y-38803700D01*
X50279400Y-38943700D01*
G36*
X53279400Y-38943700D02*
G01*
X53779400Y-38943700D01*
X53779400Y-38803700D01*
X53279400Y-38803700D01*
X53279400Y-38943700D01*
G37*
X53279400Y-38943700D02*
X53779400Y-38943700D01*
X53779400Y-38803700D01*
X53279400Y-38803700D01*
X53279400Y-38943700D01*
D14*
X41451310Y-62501800D02*
G75*
G03*
X41451310Y-62501800I-359210J0D01*
G01*
X41854100Y-56659800D02*
X41854100Y-62755800D01*
X35250100Y-56151800D02*
X41346100Y-56151800D01*
X34742100Y-62755800D02*
X34742100Y-56659800D01*
X41346100Y-63263800D02*
X35250100Y-63263800D01*
X34742100Y-56659800D02*
G75*
G02*
X35250100Y-56151800I508000J0D01*
G01*
X35250100Y-63263800D02*
G75*
G02*
X34742100Y-62755800I0J508000D01*
G01*
X41346100Y-56151800D02*
G75*
G02*
X41854100Y-56659800I0J-508000D01*
G01*
X41854100Y-62755800D02*
G75*
G02*
X41346100Y-63263800I-508000J0D01*
G01*
D15*
X29381600Y-64728800D02*
X29381600Y-65928800D01*
X31141600Y-65928800D02*
X31141600Y-64728800D01*
X54257900Y-46229000D02*
X56917900Y-46229000D01*
X54257900Y-53909000D02*
X54257900Y-46229000D01*
X56917900Y-53909000D02*
X56917900Y-46229000D01*
X54257900Y-53909000D02*
X56917900Y-53909000D01*
X54257900Y-55179000D02*
X54257900Y-56509000D01*
X54257900Y-56509000D02*
X55587900Y-56509000D01*
X47435600Y-73434800D02*
X48435600Y-73434800D01*
X48435600Y-75134800D02*
X47435600Y-75134800D01*
X43077500Y-47447600D02*
X43077500Y-48447600D01*
X41377500Y-48447600D02*
X41377500Y-47447600D01*
X41446100Y-52305800D02*
X41446100Y-51305800D01*
X43146100Y-51305800D02*
X43146100Y-52305800D01*
X32680500Y-48650800D02*
X32680500Y-47650800D01*
X34380500Y-47650800D02*
X34380500Y-48650800D01*
X30399600Y-53286300D02*
X30399600Y-52286300D01*
X32099600Y-52286300D02*
X32099600Y-53286300D01*
X37296500Y-22791800D02*
X37296500Y-23791800D01*
X35596500Y-23791800D02*
X35596500Y-22791800D01*
X40263200Y-22977200D02*
X40263200Y-23977200D01*
X38563200Y-23977200D02*
X38563200Y-22977200D01*
X48951400Y-70504200D02*
X47751400Y-70504200D01*
X47751400Y-72264200D02*
X48951400Y-72264200D01*
X36983800Y-47169800D02*
X36983800Y-48369800D01*
X38743800Y-48369800D02*
X38743800Y-47169800D01*
X29518500Y-22040100D02*
X29518500Y-20840100D01*
X27758500Y-20840100D02*
X27758500Y-22040100D01*
X51325200Y-27369700D02*
X52525200Y-27369700D01*
X52525200Y-25609700D02*
X51325200Y-25609700D01*
X33374800Y-27892100D02*
X35174800Y-27892100D01*
X35174800Y-31112100D02*
X32724800Y-31112100D01*
X46495100Y-35754800D02*
X46495100Y-37874800D01*
X43295100Y-35754800D02*
X46495100Y-35754800D01*
X46495100Y-37874800D02*
X43295100Y-37874800D01*
X31129900Y-79254700D02*
X30129900Y-79254700D01*
X30129900Y-77554700D02*
X31129900Y-77554700D01*
X38947800Y-75497600D02*
X40147800Y-75497600D01*
X40147800Y-73737600D02*
X38947800Y-73737600D01*
X40208800Y-71019800D02*
X39008800Y-71019800D01*
X39008800Y-72779800D02*
X40208800Y-72779800D01*
X37917700Y-77829500D02*
X36717700Y-77829500D01*
X36717700Y-79589500D02*
X37917700Y-79589500D01*
D16*
X32213196Y-77103008D02*
X32213196Y-76102725D01*
X31165281Y-77007743D02*
X31212913Y-77055376D01*
X31355811Y-77103008D01*
X31451076Y-77103008D01*
X31593973Y-77055376D01*
X31689238Y-76960111D01*
X31736871Y-76864846D01*
X31784504Y-76674316D01*
X31784504Y-76531418D01*
X31736871Y-76340888D01*
X31689238Y-76245623D01*
X31593973Y-76150358D01*
X31451076Y-76102725D01*
X31355811Y-76102725D01*
X31212913Y-76150358D01*
X31165281Y-76197991D01*
X30212630Y-77103008D02*
X30784221Y-77103008D01*
X30498425Y-77103008D02*
X30498425Y-76102725D01*
X30593690Y-76245623D01*
X30688955Y-76340888D01*
X30784221Y-76388521D01*
X55186524Y-41984340D02*
X55186524Y-42793864D01*
X55138905Y-42889102D01*
X55091286Y-42936721D01*
X54996048Y-42984340D01*
X54805572Y-42984340D01*
X54710334Y-42936721D01*
X54662715Y-42889102D01*
X54615096Y-42793864D01*
X54615096Y-41984340D01*
X53662715Y-41984340D02*
X54138905Y-41984340D01*
X54186524Y-42460531D01*
X54138905Y-42412912D01*
X54043667Y-42365293D01*
X53805572Y-42365293D01*
X53710334Y-42412912D01*
X53662715Y-42460531D01*
X53615096Y-42555769D01*
X53615096Y-42793864D01*
X53662715Y-42889102D01*
X53710334Y-42936721D01*
X53805572Y-42984340D01*
X54043667Y-42984340D01*
X54138905Y-42936721D01*
X54186524Y-42889102D01*
D14*
X43548184Y-64227480D02*
X43548184Y-65037004D01*
X43500565Y-65132242D01*
X43452946Y-65179861D01*
X43357708Y-65227480D01*
X43167232Y-65227480D01*
X43071994Y-65179861D01*
X43024375Y-65132242D01*
X42976756Y-65037004D01*
X42976756Y-64227480D01*
X42595803Y-64227480D02*
X41976756Y-64227480D01*
X42310089Y-64608433D01*
X42167232Y-64608433D01*
X42071994Y-64656052D01*
X42024375Y-64703671D01*
X41976756Y-64798909D01*
X41976756Y-65037004D01*
X42024375Y-65132242D01*
X42071994Y-65179861D01*
X42167232Y-65227480D01*
X42452946Y-65227480D01*
X42548184Y-65179861D01*
X42595803Y-65132242D01*
X30491766Y-63515500D02*
X30825100Y-63039310D01*
X31063195Y-63515500D02*
X31063195Y-62515500D01*
X30682242Y-62515500D01*
X30587004Y-62563120D01*
X30539385Y-62610739D01*
X30491766Y-62705977D01*
X30491766Y-62848834D01*
X30539385Y-62944072D01*
X30587004Y-62991691D01*
X30682242Y-63039310D01*
X31063195Y-63039310D01*
X30015576Y-63515500D02*
X29825100Y-63515500D01*
X29729861Y-63467881D01*
X29682242Y-63420262D01*
X29587004Y-63277405D01*
X29539385Y-63086929D01*
X29539385Y-62705977D01*
X29587004Y-62610739D01*
X29634623Y-62563120D01*
X29729861Y-62515500D01*
X29920338Y-62515500D01*
X30015576Y-62563120D01*
X30063195Y-62610739D01*
X30110814Y-62705977D01*
X30110814Y-62944072D01*
X30063195Y-63039310D01*
X30015576Y-63086929D01*
X29920338Y-63134548D01*
X29729861Y-63134548D01*
X29634623Y-63086929D01*
X29587004Y-63039310D01*
X29539385Y-62944072D01*
X48236126Y-76470742D02*
X48283745Y-76518361D01*
X48426602Y-76565980D01*
X48521840Y-76565980D01*
X48664698Y-76518361D01*
X48759936Y-76423123D01*
X48807555Y-76327885D01*
X48855174Y-76137409D01*
X48855174Y-75994552D01*
X48807555Y-75804076D01*
X48759936Y-75708838D01*
X48664698Y-75613600D01*
X48521840Y-75565980D01*
X48426602Y-75565980D01*
X48283745Y-75613600D01*
X48236126Y-75661219D01*
X47855174Y-75661219D02*
X47807555Y-75613600D01*
X47712317Y-75565980D01*
X47474221Y-75565980D01*
X47378983Y-75613600D01*
X47331364Y-75661219D01*
X47283745Y-75756457D01*
X47283745Y-75851695D01*
X47331364Y-75994552D01*
X47902793Y-76565980D01*
X47283745Y-76565980D01*
X42498306Y-45914602D02*
X42545925Y-45962221D01*
X42688782Y-46009840D01*
X42784020Y-46009840D01*
X42926878Y-45962221D01*
X43022116Y-45866983D01*
X43069735Y-45771745D01*
X43117354Y-45581269D01*
X43117354Y-45438412D01*
X43069735Y-45247936D01*
X43022116Y-45152698D01*
X42926878Y-45057460D01*
X42784020Y-45009840D01*
X42688782Y-45009840D01*
X42545925Y-45057460D01*
X42498306Y-45105079D01*
X41641163Y-45343174D02*
X41641163Y-46009840D01*
X41879259Y-44962221D02*
X42117354Y-45676507D01*
X41498306Y-45676507D01*
X42498326Y-54578482D02*
X42545945Y-54626101D01*
X42688802Y-54673720D01*
X42784040Y-54673720D01*
X42926898Y-54626101D01*
X43022136Y-54530863D01*
X43069755Y-54435625D01*
X43117374Y-54245149D01*
X43117374Y-54102292D01*
X43069755Y-53911816D01*
X43022136Y-53816578D01*
X42926898Y-53721340D01*
X42784040Y-53673720D01*
X42688802Y-53673720D01*
X42545945Y-53721340D01*
X42498326Y-53768959D01*
X41593564Y-53673720D02*
X42069755Y-53673720D01*
X42117374Y-54149911D01*
X42069755Y-54102292D01*
X41974517Y-54054673D01*
X41736421Y-54054673D01*
X41641183Y-54102292D01*
X41593564Y-54149911D01*
X41545945Y-54245149D01*
X41545945Y-54483244D01*
X41593564Y-54578482D01*
X41641183Y-54626101D01*
X41736421Y-54673720D01*
X41974517Y-54673720D01*
X42069755Y-54626101D01*
X42117374Y-54578482D01*
X33623506Y-46120342D02*
X33671125Y-46167961D01*
X33813982Y-46215580D01*
X33909220Y-46215580D01*
X34052078Y-46167961D01*
X34147316Y-46072723D01*
X34194935Y-45977485D01*
X34242554Y-45787009D01*
X34242554Y-45644152D01*
X34194935Y-45453676D01*
X34147316Y-45358438D01*
X34052078Y-45263200D01*
X33909220Y-45215580D01*
X33813982Y-45215580D01*
X33671125Y-45263200D01*
X33623506Y-45310819D01*
X32766363Y-45215580D02*
X32956840Y-45215580D01*
X33052078Y-45263200D01*
X33099697Y-45310819D01*
X33194935Y-45453676D01*
X33242554Y-45644152D01*
X33242554Y-46025104D01*
X33194935Y-46120342D01*
X33147316Y-46167961D01*
X33052078Y-46215580D01*
X32861601Y-46215580D01*
X32766363Y-46167961D01*
X32718744Y-46120342D01*
X32671125Y-46025104D01*
X32671125Y-45787009D01*
X32718744Y-45691771D01*
X32766363Y-45644152D01*
X32861601Y-45596533D01*
X33052078Y-45596533D01*
X33147316Y-45644152D01*
X33194935Y-45691771D01*
X33242554Y-45787009D01*
X31571206Y-55879022D02*
X31618825Y-55926641D01*
X31761682Y-55974260D01*
X31856920Y-55974260D01*
X31999778Y-55926641D01*
X32095016Y-55831403D01*
X32142635Y-55736165D01*
X32190254Y-55545689D01*
X32190254Y-55402832D01*
X32142635Y-55212356D01*
X32095016Y-55117118D01*
X31999778Y-55021880D01*
X31856920Y-54974260D01*
X31761682Y-54974260D01*
X31618825Y-55021880D01*
X31571206Y-55069499D01*
X31237873Y-54974260D02*
X30571206Y-54974260D01*
X30999778Y-55974260D01*
X36531886Y-21256262D02*
X36579505Y-21303881D01*
X36722362Y-21351500D01*
X36817600Y-21351500D01*
X36960458Y-21303881D01*
X37055696Y-21208643D01*
X37103315Y-21113405D01*
X37150934Y-20922929D01*
X37150934Y-20780072D01*
X37103315Y-20589596D01*
X37055696Y-20494358D01*
X36960458Y-20399120D01*
X36817600Y-20351500D01*
X36722362Y-20351500D01*
X36579505Y-20399120D01*
X36531886Y-20446739D01*
X35579505Y-21351500D02*
X36150934Y-21351500D01*
X35865220Y-21351500D02*
X35865220Y-20351500D01*
X35960458Y-20494358D01*
X36055696Y-20589596D01*
X36150934Y-20637215D01*
X39638286Y-21444962D02*
X39685905Y-21492581D01*
X39828762Y-21540200D01*
X39924000Y-21540200D01*
X40066858Y-21492581D01*
X40162096Y-21397343D01*
X40209715Y-21302105D01*
X40257334Y-21111629D01*
X40257334Y-20968772D01*
X40209715Y-20778296D01*
X40162096Y-20683058D01*
X40066858Y-20587820D01*
X39924000Y-20540200D01*
X39828762Y-20540200D01*
X39685905Y-20587820D01*
X39638286Y-20635439D01*
X39304953Y-20540200D02*
X38685905Y-20540200D01*
X39019239Y-20921153D01*
X38876381Y-20921153D01*
X38781143Y-20968772D01*
X38733524Y-21016391D01*
X38685905Y-21111629D01*
X38685905Y-21349724D01*
X38733524Y-21444962D01*
X38781143Y-21492581D01*
X38876381Y-21540200D01*
X39162096Y-21540200D01*
X39257334Y-21492581D01*
X39304953Y-21444962D01*
X51113946Y-71684180D02*
X51447280Y-71207990D01*
X51685375Y-71684180D02*
X51685375Y-70684180D01*
X51304422Y-70684180D01*
X51209184Y-70731800D01*
X51161565Y-70779419D01*
X51113946Y-70874657D01*
X51113946Y-71017514D01*
X51161565Y-71112752D01*
X51209184Y-71160371D01*
X51304422Y-71207990D01*
X51685375Y-71207990D01*
X50732994Y-70779419D02*
X50685375Y-70731800D01*
X50590137Y-70684180D01*
X50352041Y-70684180D01*
X50256803Y-70731800D01*
X50209184Y-70779419D01*
X50161565Y-70874657D01*
X50161565Y-70969895D01*
X50209184Y-71112752D01*
X50780613Y-71684180D01*
X50161565Y-71684180D01*
X38027926Y-46012380D02*
X38361260Y-45536190D01*
X38599355Y-46012380D02*
X38599355Y-45012380D01*
X38218402Y-45012380D01*
X38123164Y-45060000D01*
X38075545Y-45107619D01*
X38027926Y-45202857D01*
X38027926Y-45345714D01*
X38075545Y-45440952D01*
X38123164Y-45488571D01*
X38218402Y-45536190D01*
X38599355Y-45536190D01*
X37694593Y-45012380D02*
X37075545Y-45012380D01*
X37408879Y-45393333D01*
X37266021Y-45393333D01*
X37170783Y-45440952D01*
X37123164Y-45488571D01*
X37075545Y-45583809D01*
X37075545Y-45821904D01*
X37123164Y-45917142D01*
X37170783Y-45964761D01*
X37266021Y-46012380D01*
X37551736Y-46012380D01*
X37646974Y-45964761D01*
X37694593Y-45917142D01*
X30854946Y-20863820D02*
X31188280Y-20387630D01*
X31426375Y-20863820D02*
X31426375Y-19863820D01*
X31045422Y-19863820D01*
X30950184Y-19911440D01*
X30902565Y-19959059D01*
X30854946Y-20054297D01*
X30854946Y-20197154D01*
X30902565Y-20292392D01*
X30950184Y-20340011D01*
X31045422Y-20387630D01*
X31426375Y-20387630D01*
X29902565Y-20863820D02*
X30473994Y-20863820D01*
X30188280Y-20863820D02*
X30188280Y-19863820D01*
X30283518Y-20006678D01*
X30378756Y-20101916D01*
X30473994Y-20149535D01*
X49440106Y-27279900D02*
X49773440Y-26803710D01*
X50011535Y-27279900D02*
X50011535Y-26279900D01*
X49630582Y-26279900D01*
X49535344Y-26327520D01*
X49487725Y-26375139D01*
X49440106Y-26470377D01*
X49440106Y-26613234D01*
X49487725Y-26708472D01*
X49535344Y-26756091D01*
X49630582Y-26803710D01*
X50011535Y-26803710D01*
X48582963Y-26613234D02*
X48582963Y-27279900D01*
X48821059Y-26232281D02*
X49059154Y-26946567D01*
X48440106Y-26946567D01*
X37490344Y-31156660D02*
X37490344Y-31966184D01*
X37442725Y-32061422D01*
X37395106Y-32109041D01*
X37299868Y-32156660D01*
X37109392Y-32156660D01*
X37014154Y-32109041D01*
X36966535Y-32061422D01*
X36918916Y-31966184D01*
X36918916Y-31156660D01*
X35918916Y-32156660D02*
X36490344Y-32156660D01*
X36204630Y-32156660D02*
X36204630Y-31156660D01*
X36299868Y-31299518D01*
X36395106Y-31394756D01*
X36490344Y-31442375D01*
X45127175Y-39690340D02*
X45127175Y-38690340D01*
X44889080Y-38690340D01*
X44746222Y-38737960D01*
X44650984Y-38833198D01*
X44603365Y-38928436D01*
X44555746Y-39118912D01*
X44555746Y-39261769D01*
X44603365Y-39452245D01*
X44650984Y-39547483D01*
X44746222Y-39642721D01*
X44889080Y-39690340D01*
X45127175Y-39690340D01*
X43650984Y-38690340D02*
X44127175Y-38690340D01*
X44174794Y-39166531D01*
X44127175Y-39118912D01*
X44031937Y-39071293D01*
X43793841Y-39071293D01*
X43698603Y-39118912D01*
X43650984Y-39166531D01*
X43603365Y-39261769D01*
X43603365Y-39499864D01*
X43650984Y-39595102D01*
X43698603Y-39642721D01*
X43793841Y-39690340D01*
X44031937Y-39690340D01*
X44127175Y-39642721D01*
X44174794Y-39595102D01*
X31272757Y-80261842D02*
X31320376Y-80309461D01*
X31463233Y-80357080D01*
X31558471Y-80357080D01*
X31701328Y-80309461D01*
X31796566Y-80214223D01*
X31844185Y-80118985D01*
X31891804Y-79928509D01*
X31891804Y-79785652D01*
X31844185Y-79595176D01*
X31796566Y-79499938D01*
X31701328Y-79404700D01*
X31558471Y-79357080D01*
X31463233Y-79357080D01*
X31320376Y-79404700D01*
X31272757Y-79452319D01*
X30320376Y-80357080D02*
X30891804Y-80357080D01*
X30606090Y-80357080D02*
X30606090Y-79357080D01*
X30701328Y-79499938D01*
X30796566Y-79595176D01*
X30891804Y-79642795D01*
X29367995Y-80357080D02*
X29939423Y-80357080D01*
X29653709Y-80357080D02*
X29653709Y-79357080D01*
X29748947Y-79499938D01*
X29844185Y-79595176D01*
X29939423Y-79642795D01*
X42310346Y-75191900D02*
X42643680Y-74715710D01*
X42881775Y-75191900D02*
X42881775Y-74191900D01*
X42500822Y-74191900D01*
X42405584Y-74239520D01*
X42357965Y-74287139D01*
X42310346Y-74382377D01*
X42310346Y-74525234D01*
X42357965Y-74620472D01*
X42405584Y-74668091D01*
X42500822Y-74715710D01*
X42881775Y-74715710D01*
X41453203Y-74191900D02*
X41643680Y-74191900D01*
X41738918Y-74239520D01*
X41786537Y-74287139D01*
X41881775Y-74429996D01*
X41929394Y-74620472D01*
X41929394Y-75001424D01*
X41881775Y-75096662D01*
X41834156Y-75144281D01*
X41738918Y-75191900D01*
X41548441Y-75191900D01*
X41453203Y-75144281D01*
X41405584Y-75096662D01*
X41357965Y-75001424D01*
X41357965Y-74763329D01*
X41405584Y-74668091D01*
X41453203Y-74620472D01*
X41548441Y-74572853D01*
X41738918Y-74572853D01*
X41834156Y-74620472D01*
X41881775Y-74668091D01*
X41929394Y-74763329D01*
X42310386Y-72260740D02*
X42643720Y-71784550D01*
X42881815Y-72260740D02*
X42881815Y-71260740D01*
X42500862Y-71260740D01*
X42405624Y-71308360D01*
X42358005Y-71355979D01*
X42310386Y-71451217D01*
X42310386Y-71594074D01*
X42358005Y-71689312D01*
X42405624Y-71736931D01*
X42500862Y-71784550D01*
X42881815Y-71784550D01*
X41977053Y-71260740D02*
X41310386Y-71260740D01*
X41738958Y-72260740D01*
X37960557Y-80811880D02*
X38293890Y-80335690D01*
X38531985Y-80811880D02*
X38531985Y-79811880D01*
X38151033Y-79811880D01*
X38055795Y-79859500D01*
X38008176Y-79907119D01*
X37960557Y-80002357D01*
X37960557Y-80145214D01*
X38008176Y-80240452D01*
X38055795Y-80288071D01*
X38151033Y-80335690D01*
X38531985Y-80335690D01*
X37008176Y-80811880D02*
X37579604Y-80811880D01*
X37293890Y-80811880D02*
X37293890Y-79811880D01*
X37389128Y-79954738D01*
X37484366Y-80049976D01*
X37579604Y-80097595D01*
X36055795Y-80811880D02*
X36627223Y-80811880D01*
X36341509Y-80811880D02*
X36341509Y-79811880D01*
X36436747Y-79954738D01*
X36531985Y-80049976D01*
X36627223Y-80097595D01*
M02*
