M48
; DRILL file {KiCad 5.1.7-a382d34a8~88~ubuntu18.04.1} date Fri Jul 23 00:29:09 2021
; FORMAT={3:3/ absolute / metric / suppress leading zeros}
; #@! TF.CreationDate,2021-07-23T00:29:09+05:30
; #@! TF.GenerationSoftware,Kicad,Pcbnew,5.1.7-a382d34a8~88~ubuntu18.04.1
FMAT,2
METRIC,TZ
T1C0.500
T2C0.600
T3C0.800
T4C0.813
T5C0.900
T6C1.000
T7C1.100
T8C2.500
T9C0.900
%
G90
G05
T2
X30258Y-23094
X32393Y-66295
X32413Y-59788
X32484Y-58389
X32528Y-65027
X32535Y-61403
X33312Y-63643
X33665Y-78622
X34495Y-55283
X34592Y-66285
X35725Y-51354
X36316Y-58584
X37516Y-58465
X37967Y-61549
X38795Y-65809
X41762Y-81821
X42734Y-24652
X44733Y-82319
X48994Y-36644
X51262Y-27936
T3
X46454Y-47950
X46454Y-52830
X27224Y-55598
X27224Y-60478
T4
X33924Y-37513
X35194Y-39418
X36464Y-37513
T5
X54336Y-21788
X56876Y-26187
T6
X35679Y-86670
X38219Y-86670
X40759Y-86670
X43299Y-86670
X45839Y-86670
X48379Y-86670
X55588Y-47559
X55588Y-50099
X55588Y-52639
X55588Y-55179
X55107Y-60744
X55107Y-63284
X55107Y-65824
X55107Y-68364
X28324Y-44656
X28334Y-47196
X28225Y-26325
X28235Y-28865
X28298Y-35558
X28309Y-38098
X29256Y-87610
X56200Y-72306
X56200Y-74846
X56200Y-77386
X56200Y-79926
T7
X44371Y-73580
X44371Y-78080
X50871Y-73580
X50871Y-78080
T8
X25235Y-87208
X58097Y-21377
X25044Y-21211
T9
X45416Y-21229
X48416Y-21229
T1
G00X51678Y-86391
M15
G01X51678Y-87091
M16
G05
G00X58828Y-86391
M15
G01X58828Y-87091
M16
G05
T2
G00X52828Y-83891
M15
G01X52828Y-84091
M16
G05
G00X57678Y-83891
M15
G01X57678Y-84091
M16
G05
T0
M30
