G04 #@! TF.GenerationSoftware,KiCad,Pcbnew,5.1.7-a382d34a8~88~ubuntu18.04.1*
G04 #@! TF.CreationDate,2021-07-23T00:29:16+05:30*
G04 #@! TF.ProjectId,Sensor_PCB_v6,53656e73-6f72-45f5-9043-425f76362e6b,rev?*
G04 #@! TF.SameCoordinates,Original*
G04 #@! TF.FileFunction,Copper,L2,Bot*
G04 #@! TF.FilePolarity,Positive*
%FSLAX46Y46*%
G04 Gerber Fmt 4.6, Leading zero omitted, Abs format (unit mm)*
G04 Created by KiCad (PCBNEW 5.1.7-a382d34a8~88~ubuntu18.04.1) date 2021-07-23 00:29:16*
%MOMM*%
%LPD*%
G01*
G04 APERTURE LIST*
G04 #@! TA.AperFunction,ComponentPad*
%ADD10C,2.600000*%
G04 #@! TD*
G04 #@! TA.AperFunction,ComponentPad*
%ADD11C,1.676400*%
G04 #@! TD*
G04 #@! TA.AperFunction,SMDPad,CuDef*
%ADD12R,1.300000X0.700000*%
G04 #@! TD*
G04 #@! TA.AperFunction,ComponentPad*
%ADD13C,1.524000*%
G04 #@! TD*
G04 #@! TA.AperFunction,ComponentPad*
%ADD14O,1.200000X2.000000*%
G04 #@! TD*
G04 #@! TA.AperFunction,ComponentPad*
%ADD15O,1.100000X1.300000*%
G04 #@! TD*
G04 #@! TA.AperFunction,SMDPad,CuDef*
%ADD16R,1.000000X1.500000*%
G04 #@! TD*
G04 #@! TA.AperFunction,SMDPad,CuDef*
%ADD17C,0.100000*%
G04 #@! TD*
G04 #@! TA.AperFunction,ComponentPad*
%ADD18R,1.700000X1.700000*%
G04 #@! TD*
G04 #@! TA.AperFunction,ComponentPad*
%ADD19O,1.700000X1.700000*%
G04 #@! TD*
G04 #@! TA.AperFunction,SMDPad,CuDef*
%ADD20R,1.000000X0.230000*%
G04 #@! TD*
G04 #@! TA.AperFunction,SMDPad,CuDef*
%ADD21R,0.230000X1.000000*%
G04 #@! TD*
G04 #@! TA.AperFunction,SMDPad,CuDef*
%ADD22R,1.000000X1.250000*%
G04 #@! TD*
G04 #@! TA.AperFunction,SMDPad,CuDef*
%ADD23R,1.250000X1.000000*%
G04 #@! TD*
G04 #@! TA.AperFunction,SMDPad,CuDef*
%ADD24R,0.700000X1.300000*%
G04 #@! TD*
G04 #@! TA.AperFunction,ComponentPad*
%ADD25C,0.100000*%
G04 #@! TD*
G04 #@! TA.AperFunction,SMDPad,CuDef*
%ADD26R,1.060000X0.650000*%
G04 #@! TD*
G04 #@! TA.AperFunction,ComponentPad*
%ADD27C,1.500000*%
G04 #@! TD*
G04 #@! TA.AperFunction,ComponentPad*
%ADD28C,2.000000*%
G04 #@! TD*
G04 #@! TA.AperFunction,SMDPad,CuDef*
%ADD29R,1.000000X1.600000*%
G04 #@! TD*
G04 #@! TA.AperFunction,ViaPad*
%ADD30C,1.000000*%
G04 #@! TD*
G04 #@! TA.AperFunction,Conductor*
%ADD31C,0.200000*%
G04 #@! TD*
G04 #@! TA.AperFunction,Conductor*
%ADD32C,0.254000*%
G04 #@! TD*
G04 #@! TA.AperFunction,Conductor*
%ADD33C,0.100000*%
G04 #@! TD*
G04 APERTURE END LIST*
D10*
X25234900Y-87208400D03*
X58097400Y-21376600D03*
X25044400Y-21211500D03*
D11*
X33924200Y-37513300D03*
X35194200Y-39418300D03*
X36464200Y-37513300D03*
D12*
X34621900Y-74109600D03*
X34621900Y-75379600D03*
X34621900Y-72839600D03*
X34621900Y-71569600D03*
X29121900Y-74109600D03*
X29121900Y-75379600D03*
X29121900Y-72839600D03*
X29121900Y-71569600D03*
D13*
X28323900Y-44656100D03*
X28333900Y-47196100D03*
D14*
X51677600Y-86741000D03*
X58827600Y-86741000D03*
D15*
X52827600Y-83991000D03*
X57677600Y-83991000D03*
D13*
X28224800Y-26324900D03*
X28234800Y-28864900D03*
X28298500Y-35557800D03*
X28308500Y-38097800D03*
X55107500Y-60744100D03*
X55107500Y-63284100D03*
X55107500Y-65824100D03*
X55107500Y-68364100D03*
D16*
X50529400Y-37943700D03*
X53529400Y-37943700D03*
G04 #@! TA.AperFunction,SMDPad,CuDef*
D17*
G36*
X51558949Y-37184620D02*
G01*
X51565211Y-37186266D01*
X51587513Y-37193700D01*
X52539400Y-37193700D01*
X52549155Y-37194661D01*
X52558534Y-37197506D01*
X52567179Y-37202127D01*
X52574755Y-37208345D01*
X52580973Y-37215921D01*
X52585594Y-37224566D01*
X52588439Y-37233945D01*
X52589400Y-37243700D01*
X52589400Y-39633700D01*
X53039400Y-39633700D01*
X53049155Y-39634661D01*
X53058534Y-39637506D01*
X53067179Y-39642127D01*
X53074755Y-39648345D01*
X53080973Y-39655921D01*
X53085594Y-39664566D01*
X53088439Y-39673945D01*
X53089400Y-39683531D01*
X53099400Y-42633531D01*
X53098472Y-42643288D01*
X53095659Y-42652677D01*
X53091067Y-42661337D01*
X53084875Y-42668935D01*
X53077319Y-42675179D01*
X53068691Y-42679829D01*
X53059321Y-42682706D01*
X53049400Y-42683700D01*
X52539400Y-42683700D01*
X52539400Y-42723700D01*
X51539400Y-42723700D01*
X51539400Y-42683700D01*
X50989400Y-42683700D01*
X50979645Y-42682739D01*
X50970266Y-42679894D01*
X50961621Y-42675273D01*
X50954045Y-42669055D01*
X50947827Y-42661479D01*
X50943206Y-42652834D01*
X50940361Y-42643455D01*
X50939400Y-42633700D01*
X50939400Y-39623700D01*
X50940361Y-39613945D01*
X50943206Y-39604566D01*
X50947827Y-39595921D01*
X50954045Y-39588345D01*
X50961621Y-39582127D01*
X50970266Y-39577506D01*
X50979645Y-39574661D01*
X50989400Y-39573700D01*
X51509190Y-39573700D01*
X51499400Y-37233909D01*
X51500320Y-37224151D01*
X51503126Y-37214759D01*
X51507711Y-37206096D01*
X51513897Y-37198493D01*
X51521448Y-37192243D01*
X51530073Y-37187586D01*
X51539440Y-37184702D01*
X51549191Y-37183700D01*
X51558949Y-37184620D01*
G37*
G04 #@! TD.AperFunction*
D18*
X35679400Y-86669900D03*
D19*
X38219400Y-86669900D03*
X40759400Y-86669900D03*
X43299400Y-86669900D03*
X45839400Y-86669900D03*
X48379400Y-86669900D03*
D20*
X42362100Y-57421800D03*
D21*
X41092100Y-63771800D03*
X40584100Y-63771800D03*
X40076100Y-63771800D03*
X39568100Y-63771800D03*
X39060100Y-63771800D03*
X38552100Y-63771800D03*
X38044100Y-63771800D03*
X37536100Y-63771800D03*
X37028100Y-63771800D03*
X36520100Y-63771800D03*
X36012100Y-63771800D03*
X35504100Y-63771800D03*
D20*
X34234100Y-62501800D03*
X34234100Y-61993800D03*
X34234100Y-60977800D03*
X34234100Y-60469800D03*
X34234100Y-59961800D03*
X34234100Y-59453800D03*
X34234100Y-58945800D03*
X34234100Y-58437800D03*
X34234100Y-57929800D03*
X34234100Y-57421800D03*
X34234100Y-56913800D03*
D21*
X36012100Y-55643800D03*
X36520100Y-55643800D03*
X37028100Y-55643800D03*
X37536100Y-55643800D03*
X38044100Y-55643800D03*
X38552100Y-55643800D03*
X39060100Y-55643800D03*
X39568100Y-55643800D03*
X40076100Y-55643800D03*
X40584100Y-55643800D03*
X41092100Y-55643800D03*
D20*
X42362100Y-56913800D03*
X42362100Y-57929800D03*
X42362100Y-58437800D03*
X42362100Y-58945800D03*
X42362100Y-59453800D03*
X42362100Y-59961800D03*
X42362100Y-60469800D03*
X42362100Y-60977800D03*
X42362100Y-61485800D03*
X42362100Y-61993800D03*
X42362100Y-62501800D03*
D21*
X35504100Y-55643800D03*
D20*
X34234100Y-61485800D03*
D12*
X30261600Y-66278800D03*
X30261600Y-64378800D03*
D18*
X56200000Y-79926200D03*
D19*
X56200000Y-77386200D03*
X56200000Y-74846200D03*
X56200000Y-72306200D03*
D18*
X29255700Y-87609700D03*
X55587900Y-55179000D03*
D19*
X55587900Y-52639000D03*
X55587900Y-50099000D03*
X55587900Y-47559000D03*
D22*
X48935600Y-74284800D03*
X46935600Y-74284800D03*
D23*
X42227500Y-48947600D03*
X42227500Y-46947600D03*
X42296100Y-50805800D03*
X42296100Y-52805800D03*
X33530500Y-47150800D03*
X33530500Y-49150800D03*
X31249600Y-51786300D03*
X31249600Y-53786300D03*
X36446500Y-24291800D03*
X36446500Y-22291800D03*
X39413200Y-24477200D03*
X39413200Y-22477200D03*
D24*
X47401400Y-71384200D03*
X49301400Y-71384200D03*
D12*
X37863800Y-48719800D03*
X37863800Y-46819800D03*
X28638500Y-20490100D03*
X28638500Y-22390100D03*
D24*
X52875200Y-26489700D03*
X50975200Y-26489700D03*
G04 #@! TA.AperFunction,ComponentPad*
G36*
G01*
X54785700Y-22567414D02*
X54785700Y-22567414D01*
G75*
G02*
X53556277Y-22237991I-450000J779423D01*
G01*
X53556277Y-22237991D01*
G75*
G02*
X53885700Y-21008568I779423J450000D01*
G01*
X53885700Y-21008568D01*
G75*
G02*
X55115123Y-21337991I450000J-779423D01*
G01*
X55115123Y-21337991D01*
G75*
G02*
X54785700Y-22567414I-779423J-450000D01*
G01*
G37*
G04 #@! TD.AperFunction*
G04 #@! TA.AperFunction,ComponentPad*
D25*
G36*
X58105123Y-26516823D02*
G01*
X56546277Y-27416823D01*
X55646277Y-25857977D01*
X57205123Y-24957977D01*
X58105123Y-26516823D01*
G37*
G04 #@! TD.AperFunction*
D26*
X33174800Y-30452100D03*
X33174800Y-29502100D03*
X33174800Y-28552100D03*
X35374800Y-28552100D03*
X35374800Y-30452100D03*
D27*
X46454100Y-52830100D03*
X46454100Y-47950100D03*
X27223700Y-55598100D03*
X27223700Y-60478100D03*
D28*
X44371100Y-78079600D03*
X44371100Y-73579600D03*
X50871100Y-78079600D03*
X50871100Y-73579600D03*
D29*
X42795100Y-36814800D03*
X45795100Y-36814800D03*
D22*
X31629900Y-78404700D03*
X29629900Y-78404700D03*
D24*
X38597800Y-74617600D03*
X40497800Y-74617600D03*
X40558800Y-71899800D03*
X38658800Y-71899800D03*
X38267700Y-78709500D03*
X36367700Y-78709500D03*
D30*
X38795000Y-65809000D03*
X42734200Y-24651900D03*
X51262100Y-27935600D03*
X32483600Y-58389200D03*
X34591800Y-66284800D03*
X33311900Y-63643000D03*
X32393300Y-66294900D03*
X32412600Y-59787500D03*
X32527500Y-65027300D03*
X30257600Y-23093600D03*
X37515900Y-58465200D03*
X36315500Y-58584400D03*
X33664700Y-78622300D03*
X37967400Y-61549200D03*
X32534600Y-61403200D03*
X48994400Y-36644400D03*
X44732700Y-82319100D03*
X41761800Y-81821400D03*
X35725000Y-51354100D03*
X34494900Y-55282900D03*
D31*
X38044100Y-63771800D02*
X38044100Y-62971500D01*
X47401400Y-71384200D02*
X47401400Y-69041400D01*
X47401400Y-69041400D02*
X41331500Y-62971500D01*
X41331500Y-62971500D02*
X38044100Y-62971500D01*
X47401400Y-71859300D02*
X47401400Y-71384200D01*
X50871100Y-73579600D02*
X49626000Y-72334500D01*
X49626000Y-72334500D02*
X47401400Y-72334500D01*
X47401400Y-71859300D02*
X47401400Y-72334500D01*
X44371100Y-73579600D02*
X45430100Y-73579600D01*
X45430100Y-73579600D02*
X46135300Y-74284800D01*
X47401400Y-72334500D02*
X46935600Y-72800300D01*
X46935600Y-72800300D02*
X46935600Y-74284800D01*
X46935600Y-74284800D02*
X46135300Y-74284800D01*
X42227500Y-48547400D02*
X39849500Y-46169400D01*
X39849500Y-46169400D02*
X37051000Y-46169400D01*
X37051000Y-46169400D02*
X35269200Y-47951200D01*
X35269200Y-47951200D02*
X32925600Y-47951200D01*
X32925600Y-47951200D02*
X25756400Y-55120400D01*
X25756400Y-55120400D02*
X25756400Y-65021000D01*
X25756400Y-65021000D02*
X29039300Y-68303900D01*
X29039300Y-68303900D02*
X37485300Y-68303900D01*
X37485300Y-68303900D02*
X40076100Y-65713100D01*
X40076100Y-65713100D02*
X40076100Y-63771800D01*
X42227500Y-48547400D02*
X42227500Y-48147300D01*
X42227500Y-48947600D02*
X42227500Y-48547400D01*
X46454100Y-47950100D02*
X42424700Y-47950100D01*
X42424700Y-47950100D02*
X42227500Y-48147300D01*
X39568100Y-63771800D02*
X39568100Y-65035900D01*
X39568100Y-65035900D02*
X38795000Y-65809000D01*
X46454100Y-52830100D02*
X43245700Y-52830100D01*
X43245700Y-52830100D02*
X43221400Y-52805800D01*
X42296100Y-52805800D02*
X43221400Y-52805800D01*
X27223700Y-55598100D02*
X27223700Y-54250200D01*
X27223700Y-54250200D02*
X32323100Y-49150800D01*
X32323100Y-49150800D02*
X33530500Y-49150800D01*
X39060100Y-64572100D02*
X38864400Y-64572100D01*
X38864400Y-64572100D02*
X35536200Y-67900300D01*
X35536200Y-67900300D02*
X29202000Y-67900300D01*
X29202000Y-67900300D02*
X26156800Y-64855100D01*
X26156800Y-64855100D02*
X26156800Y-56665000D01*
X26156800Y-56665000D02*
X27223700Y-55598100D01*
X39060100Y-63771800D02*
X39060100Y-64572100D01*
X36913500Y-48719800D02*
X36482500Y-49150800D01*
X36482500Y-49150800D02*
X33530500Y-49150800D01*
X37863800Y-48719800D02*
X36913500Y-48719800D01*
X38552100Y-63771800D02*
X38552100Y-64318100D01*
X38552100Y-64318100D02*
X35370400Y-67499800D01*
X35370400Y-67499800D02*
X29421200Y-67499800D01*
X29421200Y-67499800D02*
X27223800Y-65302400D01*
X27223800Y-65302400D02*
X27223800Y-60478100D01*
X27223800Y-60478100D02*
X27223700Y-60478100D01*
X37863800Y-47470100D02*
X38107700Y-47470100D01*
X38107700Y-47470100D02*
X38814200Y-48176600D01*
X38814200Y-48176600D02*
X38814200Y-49205600D01*
X38814200Y-49205600D02*
X38444600Y-49575200D01*
X38444600Y-49575200D02*
X34791400Y-49575200D01*
X34791400Y-49575200D02*
X33380600Y-50986000D01*
X33380600Y-50986000D02*
X31249600Y-50986000D01*
X31249600Y-51786300D02*
X31249600Y-52586600D01*
X27223700Y-60478100D02*
X30050000Y-57651800D01*
X30050000Y-57651800D02*
X30050000Y-53386000D01*
X30050000Y-53386000D02*
X30849400Y-52586600D01*
X30849400Y-52586600D02*
X31249600Y-52586600D01*
X31249600Y-51786300D02*
X31249600Y-50986000D01*
X37863800Y-46819800D02*
X37863800Y-47470100D01*
X39413200Y-24684500D02*
X42701600Y-24684500D01*
X42701600Y-24684500D02*
X42734200Y-24651900D01*
X39413200Y-24684500D02*
X39413200Y-25084700D01*
X39413200Y-24477200D02*
X39413200Y-24684500D01*
X39413200Y-25092200D02*
X39413200Y-25277500D01*
X39413200Y-25084700D02*
X39413200Y-25092200D01*
X35374800Y-30452100D02*
X36205100Y-30452100D01*
X36205100Y-30452100D02*
X36205100Y-28485600D01*
X36205100Y-28485600D02*
X39413200Y-25277500D01*
X32695800Y-72545400D02*
X25352000Y-65201600D01*
X25352000Y-65201600D02*
X25352000Y-44685500D01*
X25352000Y-44685500D02*
X29822000Y-40215500D01*
X29822000Y-40215500D02*
X29822000Y-30452100D01*
X32695800Y-72545400D02*
X33671600Y-71569600D01*
X31629900Y-78404700D02*
X31629900Y-73611300D01*
X31629900Y-73611300D02*
X32695800Y-72545400D01*
X29822000Y-30452100D02*
X28234800Y-28864900D01*
X32344500Y-30452100D02*
X29822000Y-30452100D01*
X34621900Y-71569600D02*
X33671600Y-71569600D01*
X33174800Y-30452100D02*
X32344500Y-30452100D01*
X33174800Y-30452100D02*
X34005100Y-30452100D01*
X34005100Y-30452100D02*
X34005100Y-28967200D01*
X34005100Y-28967200D02*
X33590000Y-28552100D01*
X36446500Y-24291800D02*
X36446500Y-25092100D01*
X33590000Y-28552100D02*
X33590000Y-27948600D01*
X33590000Y-27948600D02*
X36446500Y-25092100D01*
X33174800Y-28552100D02*
X33590000Y-28552100D01*
X29121900Y-71569600D02*
X28171600Y-71569600D01*
X28308500Y-38097800D02*
X24938400Y-41467900D01*
X24938400Y-41467900D02*
X24938400Y-68336400D01*
X24938400Y-68336400D02*
X28171600Y-71569600D01*
X30072200Y-71569600D02*
X29121900Y-71569600D01*
X30660340Y-78985940D02*
X30660340Y-72157740D01*
X32864400Y-76186800D02*
X32864400Y-78780400D01*
X33671600Y-75379600D02*
X32864400Y-76186800D01*
X32269800Y-79375000D02*
X31049400Y-79375000D01*
X30660340Y-72157740D02*
X30072200Y-71569600D01*
X31049400Y-79375000D02*
X30660340Y-78985940D01*
X34621900Y-75379600D02*
X33671600Y-75379600D01*
X32864400Y-78780400D02*
X32269800Y-79375000D01*
X35034400Y-56913800D02*
X35046000Y-56925400D01*
X35046000Y-56925400D02*
X39577100Y-56925400D01*
X49301400Y-71384200D02*
X49301400Y-68640800D01*
X49301400Y-68640800D02*
X43162400Y-62501800D01*
X52087400Y-71384200D02*
X49301400Y-71384200D01*
X42362100Y-62501800D02*
X43162400Y-62501800D01*
X39577100Y-61071400D02*
X39577100Y-56925400D01*
X37028100Y-62971500D02*
X37650100Y-62349500D01*
X37650100Y-62349500D02*
X38299000Y-62349500D01*
X38299000Y-62349500D02*
X39577100Y-61071400D01*
X39577100Y-61071400D02*
X41007500Y-62501800D01*
X41007500Y-62501800D02*
X42362100Y-62501800D01*
X37028100Y-63771800D02*
X37028100Y-62971500D01*
X39577100Y-56925400D02*
X40610800Y-56925400D01*
X40610800Y-56925400D02*
X41092100Y-56444100D01*
X41092100Y-55643800D02*
X41092100Y-56444100D01*
X50975200Y-26489700D02*
X50975200Y-27648700D01*
X50975200Y-27648700D02*
X51262100Y-27935600D01*
X34234100Y-56913800D02*
X35034400Y-56913800D01*
X56200000Y-79926200D02*
X56200000Y-81076500D01*
X56200000Y-81076500D02*
X54852300Y-82424200D01*
X54852300Y-82424200D02*
X54852300Y-83269000D01*
X54852300Y-83269000D02*
X52715900Y-85405400D01*
X52715900Y-85405400D02*
X50794200Y-85405400D01*
X50794200Y-85405400D02*
X49529700Y-86669900D01*
X52087400Y-71384200D02*
X55107500Y-68364100D01*
X56200000Y-79926200D02*
X56200000Y-78775900D01*
X56200000Y-78775900D02*
X55912300Y-78775900D01*
X55912300Y-78775900D02*
X55049700Y-77913300D01*
X55049700Y-77913300D02*
X55049700Y-74346500D01*
X55049700Y-74346500D02*
X52087400Y-71384200D01*
X48379400Y-86669900D02*
X49529700Y-86669900D01*
X55652900Y-83268900D02*
X58320940Y-80600860D01*
X41909700Y-86669900D02*
X41909700Y-87304580D01*
X40076100Y-54843500D02*
X40076100Y-55643800D01*
X58320940Y-80600860D02*
X58320940Y-61870740D01*
X40759400Y-86669900D02*
X41909700Y-86669900D01*
X43060320Y-88455200D02*
X52745940Y-88455200D01*
X50893400Y-54443200D02*
X40476400Y-54443200D01*
X58320940Y-61870740D02*
X50893400Y-54443200D01*
X52745940Y-88455200D02*
X55652900Y-85548240D01*
X40476400Y-54443200D02*
X40076100Y-54843500D01*
X41909700Y-87304580D02*
X43060320Y-88455200D01*
X55652900Y-85548240D02*
X55652900Y-83268900D01*
X57863740Y-61979640D02*
X52797900Y-56913800D01*
X55252600Y-83103100D02*
X57863740Y-80491960D01*
X57863740Y-80491960D02*
X57863740Y-61979640D01*
X55252600Y-85163680D02*
X55252600Y-83103100D01*
X52797900Y-56913800D02*
X42362100Y-56913800D01*
X52361380Y-88054900D02*
X55252600Y-85163680D01*
X40012660Y-84876640D02*
X43191640Y-84876640D01*
X45332100Y-88054900D02*
X52361380Y-88054900D01*
X38219400Y-86669900D02*
X40012660Y-84876640D01*
X43191640Y-84876640D02*
X44569400Y-86254400D01*
X44569400Y-86254400D02*
X44569400Y-87292200D01*
X44569400Y-87292200D02*
X45332100Y-88054900D01*
X33433800Y-59961800D02*
X33433800Y-59676800D01*
X33433800Y-59676800D02*
X32483600Y-58726600D01*
X32483600Y-58726600D02*
X32483600Y-58389200D01*
X34234100Y-59961800D02*
X33433800Y-59961800D01*
X56875700Y-26187400D02*
X55557700Y-26948400D01*
X55557700Y-26948400D02*
X55099000Y-26489700D01*
X55099000Y-26489700D02*
X52875200Y-26489700D01*
X36520100Y-64572100D02*
X36304500Y-64572100D01*
X36304500Y-64572100D02*
X34591800Y-66284800D01*
X36520100Y-63771800D02*
X36520100Y-64572100D01*
X33311900Y-63643000D02*
X33311900Y-62324800D01*
X33311900Y-62324800D02*
X33642900Y-61993800D01*
X33642900Y-61993800D02*
X34234100Y-61993800D01*
X34234100Y-60977800D02*
X35034400Y-60977800D01*
X35034400Y-60977800D02*
X35034400Y-63653800D01*
X35034400Y-63653800D02*
X32393300Y-66294900D01*
X34234100Y-60469800D02*
X33094900Y-60469800D01*
X33094900Y-60469800D02*
X32412600Y-59787500D01*
X55107500Y-63284100D02*
X52801200Y-60977800D01*
X52801200Y-60977800D02*
X42362100Y-60977800D01*
X42362100Y-61485800D02*
X49833300Y-61485800D01*
X49833300Y-61485800D02*
X52707600Y-64360100D01*
X52707600Y-64360100D02*
X55587900Y-64360100D01*
X55587900Y-64360100D02*
X56175200Y-63772800D01*
X56175200Y-63772800D02*
X56175200Y-61811800D01*
X56175200Y-61811800D02*
X55107500Y-60744100D01*
X33433800Y-61485800D02*
X33433800Y-61635900D01*
X33433800Y-61635900D02*
X32511600Y-62558100D01*
X32511600Y-62558100D02*
X32511600Y-65011400D01*
X32511600Y-65011400D02*
X32527500Y-65027300D01*
X34234100Y-61485800D02*
X33433800Y-61485800D01*
X28638500Y-22390100D02*
X29588800Y-22390100D01*
X29588800Y-22390100D02*
X29588800Y-22424800D01*
X29588800Y-22424800D02*
X30257600Y-23093600D01*
X35034400Y-57929800D02*
X35218000Y-57746200D01*
X35218000Y-57746200D02*
X36796900Y-57746200D01*
X36796900Y-57746200D02*
X37515900Y-58465200D01*
X34234100Y-57929800D02*
X35034400Y-57929800D01*
X35034400Y-58437800D02*
X36168900Y-58437800D01*
X36168900Y-58437800D02*
X36315500Y-58584400D01*
X34234100Y-58437800D02*
X35034400Y-58437800D01*
X33664700Y-78622300D02*
X35962900Y-76324100D01*
X35962900Y-76324100D02*
X38317200Y-76324100D01*
X38317200Y-76324100D02*
X39309200Y-75332100D01*
X39309200Y-75332100D02*
X39309200Y-68060400D01*
X39309200Y-68060400D02*
X40584100Y-66785500D01*
X40584100Y-66785500D02*
X40584100Y-64572100D01*
X40584100Y-63771800D02*
X40584100Y-64572100D01*
X40738400Y-37929500D02*
X36880400Y-37929500D01*
X36880400Y-37929500D02*
X36464200Y-37513300D01*
X49729100Y-37943700D02*
X49161900Y-37943700D01*
X49161900Y-37943700D02*
X46930300Y-35712100D01*
X46930300Y-35712100D02*
X45122600Y-35712100D01*
X45122600Y-35712100D02*
X44402600Y-36432100D01*
X44402600Y-36432100D02*
X44402600Y-36993700D01*
X44402600Y-36993700D02*
X43466800Y-37929500D01*
X43466800Y-37929500D02*
X40738400Y-37929500D01*
X40738400Y-45769000D02*
X34112000Y-45769000D01*
X34112000Y-45769000D02*
X33530500Y-46350500D01*
X42227500Y-46147300D02*
X41849200Y-45769000D01*
X41849200Y-45769000D02*
X40738400Y-45769000D01*
X40738400Y-37929500D02*
X40738400Y-45769000D01*
X42227500Y-46947600D02*
X42227500Y-46147300D01*
X42227500Y-46947600D02*
X43152800Y-46947600D01*
X43152800Y-46947600D02*
X43213200Y-46887200D01*
X43213200Y-46887200D02*
X46928900Y-46887200D01*
X46928900Y-46887200D02*
X47521000Y-47479300D01*
X47521000Y-47479300D02*
X47521000Y-48400100D01*
X47521000Y-48400100D02*
X45115300Y-50805800D01*
X45115300Y-50805800D02*
X42296100Y-50805800D01*
X33530500Y-47150800D02*
X33530500Y-46350500D01*
X41370800Y-50805800D02*
X41114100Y-50549100D01*
X41114100Y-50549100D02*
X34842600Y-50549100D01*
X34842600Y-50549100D02*
X31605400Y-53786300D01*
X29507400Y-65050300D02*
X31044800Y-65050300D01*
X31044800Y-65050300D02*
X31211900Y-64883200D01*
X31211900Y-64883200D02*
X31211900Y-58529100D01*
X31211900Y-58529100D02*
X32319200Y-57421800D01*
X32319200Y-57421800D02*
X33433800Y-57421800D01*
X31605400Y-53786300D02*
X31605400Y-56662700D01*
X31605400Y-56662700D02*
X29311200Y-58956900D01*
X29311200Y-58956900D02*
X29311200Y-64854100D01*
X29311200Y-64854100D02*
X29507400Y-65050300D01*
X42296100Y-50805800D02*
X41370800Y-50805800D01*
X55107500Y-65824100D02*
X48023300Y-65824100D01*
X48023300Y-65824100D02*
X44193000Y-61993800D01*
X44193000Y-61993800D02*
X42362100Y-61993800D01*
X56200000Y-76235900D02*
X56447200Y-76235900D01*
X56447200Y-76235900D02*
X57350900Y-75332200D01*
X57350900Y-75332200D02*
X57350900Y-68067500D01*
X57350900Y-68067500D02*
X55107500Y-65824100D01*
X33433800Y-57421800D02*
X33433800Y-56616600D01*
X33433800Y-56616600D02*
X33572000Y-56478400D01*
X33572000Y-56478400D02*
X40306000Y-56478400D01*
X40306000Y-56478400D02*
X40584100Y-56200300D01*
X40584100Y-56200300D02*
X40584100Y-55643800D01*
X37536100Y-64572100D02*
X35009300Y-67098900D01*
X35009300Y-67098900D02*
X29610800Y-67098900D01*
X29610800Y-67098900D02*
X29289600Y-66777700D01*
X29289600Y-66777700D02*
X29289600Y-65268100D01*
X29289600Y-65268100D02*
X29507400Y-65050300D01*
X37536100Y-63771800D02*
X37536100Y-64572100D01*
X31249600Y-53786300D02*
X31605400Y-53786300D01*
X41561800Y-60469800D02*
X41561800Y-61993800D01*
X58827600Y-86741000D02*
X58827600Y-85440700D01*
X57677600Y-83991000D02*
X58527900Y-83991000D01*
X58527900Y-83991000D02*
X58527900Y-85141000D01*
X58527900Y-85141000D02*
X58827600Y-85440700D01*
X33433800Y-58945800D02*
X33433800Y-57421800D01*
X54335700Y-21788000D02*
X53180900Y-22454800D01*
X39413200Y-22477200D02*
X53158500Y-22477200D01*
X53158500Y-22477200D02*
X53180900Y-22454800D01*
X37371800Y-22291800D02*
X37557200Y-22477200D01*
X37557200Y-22477200D02*
X39413200Y-22477200D01*
X56200000Y-77386200D02*
X56200000Y-76235900D01*
X41561800Y-60469800D02*
X41561800Y-55054000D01*
X41561800Y-55054000D02*
X41351300Y-54843500D01*
X41351300Y-54843500D02*
X40852700Y-54843500D01*
X40852700Y-54843500D02*
X40584100Y-55112100D01*
X40584100Y-55112100D02*
X40584100Y-55643800D01*
X41661900Y-60469800D02*
X41561800Y-60469800D01*
X42362100Y-60469800D02*
X41661900Y-60469800D01*
X42362100Y-61993800D02*
X41561800Y-61993800D01*
X34234100Y-58945800D02*
X33433800Y-58945800D01*
X34234100Y-57421800D02*
X33433800Y-57421800D01*
X33530500Y-47150800D02*
X32605200Y-47150800D01*
X28333900Y-47196100D02*
X32559900Y-47196100D01*
X32559900Y-47196100D02*
X32605200Y-47150800D01*
X36446500Y-22291800D02*
X37371800Y-22291800D01*
X36446500Y-22291800D02*
X36446500Y-23092100D01*
X32344400Y-27102000D02*
X32344400Y-29502000D01*
X32344400Y-29502000D02*
X32344500Y-29502100D01*
X28473100Y-27102000D02*
X32344400Y-27102000D01*
X32344400Y-27102000D02*
X32344400Y-26836500D01*
X32344400Y-26836500D02*
X36088800Y-23092100D01*
X36088800Y-23092100D02*
X36446500Y-23092100D01*
X35679400Y-86669900D02*
X35679400Y-85519600D01*
X37942600Y-78709500D02*
X37942600Y-83256400D01*
X37942600Y-83256400D02*
X35679400Y-85519600D01*
X38267700Y-78709500D02*
X37942600Y-78709500D01*
X33174800Y-29502100D02*
X32344500Y-29502100D01*
X28224800Y-26324900D02*
X28224800Y-26853700D01*
X28224800Y-26853700D02*
X28473100Y-27102000D01*
X28298500Y-35557800D02*
X27167100Y-34426400D01*
X27167100Y-34426400D02*
X27167100Y-28408000D01*
X27167100Y-28408000D02*
X28473100Y-27102000D01*
X50871100Y-78079600D02*
X48935600Y-76144100D01*
X48935600Y-76144100D02*
X48935600Y-74284800D01*
X50871100Y-78079600D02*
X50871100Y-82884800D01*
X50871100Y-82884800D02*
X51977300Y-83991000D01*
X44371100Y-78079600D02*
X43741200Y-78709500D01*
X43741200Y-78709500D02*
X38267700Y-78709500D01*
X28638500Y-21140400D02*
X28394600Y-21140400D01*
X28394600Y-21140400D02*
X27688100Y-21846900D01*
X27688100Y-21846900D02*
X27688100Y-25788200D01*
X27688100Y-25788200D02*
X28224800Y-26324900D01*
X52827600Y-83991000D02*
X51977300Y-83991000D01*
X50529400Y-37943700D02*
X49729100Y-37943700D01*
X28638500Y-20490100D02*
X28638500Y-21140400D01*
X29629900Y-78404700D02*
X29629900Y-77479400D01*
X29121900Y-75379600D02*
X30072200Y-75379600D01*
X29629900Y-77479400D02*
X30072200Y-77037100D01*
X30072200Y-77037100D02*
X30072200Y-75379600D01*
X37617400Y-78709500D02*
X37942600Y-78709500D01*
X37617400Y-78465600D02*
X37617400Y-78709500D01*
X29629900Y-79330000D02*
X30213380Y-79913480D01*
X29629900Y-78404700D02*
X29629900Y-79330000D01*
X33505420Y-79913480D02*
X35671700Y-77747200D01*
X30213380Y-79913480D02*
X33505420Y-79913480D01*
X35671700Y-77747200D02*
X36899000Y-77747200D01*
X36899000Y-77747200D02*
X37617400Y-78465600D01*
X30182820Y-75268980D02*
X30072200Y-75379600D01*
X29121900Y-72839600D02*
X30182820Y-72839600D01*
X30182820Y-72839600D02*
X30182820Y-75268980D01*
X37967400Y-61549200D02*
X35872000Y-59453800D01*
X35872000Y-59453800D02*
X34234100Y-59453800D01*
X31211900Y-66278800D02*
X31622500Y-65868200D01*
X31622500Y-65868200D02*
X31622500Y-62315300D01*
X31622500Y-62315300D02*
X32534600Y-61403200D01*
X30261600Y-66278800D02*
X31211900Y-66278800D01*
X37028100Y-54843500D02*
X36667200Y-54482600D01*
X36667200Y-54482600D02*
X34112000Y-54482600D01*
X34112000Y-54482600D02*
X33333700Y-55260900D01*
X33333700Y-55260900D02*
X33333700Y-55776700D01*
X33333700Y-55776700D02*
X30261600Y-58848800D01*
X30261600Y-58848800D02*
X30261600Y-64378800D01*
X37028100Y-55643800D02*
X37028100Y-54843500D01*
X55587900Y-47559000D02*
X55587900Y-46408700D01*
X52039400Y-39973700D02*
X52039400Y-42860200D01*
X52039400Y-42860200D02*
X55587900Y-46408700D01*
X46595400Y-36814800D02*
X49754300Y-39973700D01*
X49754300Y-39973700D02*
X52039400Y-39973700D01*
X45795100Y-36814800D02*
X46595400Y-36814800D01*
X53529400Y-36893400D02*
X53280400Y-36644400D01*
X53280400Y-36644400D02*
X48994400Y-36644400D01*
X48994400Y-36644400D02*
X47599400Y-35249400D01*
X47599400Y-35249400D02*
X44948500Y-35249400D01*
X44948500Y-35249400D02*
X43595400Y-36602500D01*
X43595400Y-36602500D02*
X43595400Y-36814800D01*
X53529400Y-37943700D02*
X53529400Y-36893400D01*
X42795100Y-36814800D02*
X43595400Y-36814800D01*
X39352700Y-54042900D02*
X38552100Y-54843500D01*
X58841640Y-61825340D02*
X51059200Y-54042900D01*
X38552100Y-54843500D02*
X38552100Y-55643800D01*
X56053300Y-86100340D02*
X56053300Y-83434600D01*
X39573300Y-86228100D02*
X39573300Y-87126600D01*
X58841640Y-80646260D02*
X58841640Y-61825340D01*
X56053300Y-83434600D02*
X58841640Y-80646260D01*
X43299400Y-86669900D02*
X42121700Y-85492200D01*
X51059200Y-54042900D02*
X39352700Y-54042900D01*
X40309200Y-85492200D02*
X39573300Y-86228100D01*
X39573300Y-87126600D02*
X41302200Y-88855500D01*
X53298140Y-88855500D02*
X56053300Y-86100340D01*
X42121700Y-85492200D02*
X40309200Y-85492200D01*
X41302200Y-88855500D02*
X53298140Y-88855500D01*
X41052500Y-51718900D02*
X38044100Y-54727300D01*
X49301600Y-51718900D02*
X41052500Y-51718900D01*
X59359800Y-80894200D02*
X59359800Y-61777100D01*
X56653700Y-83600300D02*
X59359800Y-80894200D01*
X56653700Y-86330520D02*
X56653700Y-83600300D01*
X38044100Y-54727300D02*
X38044100Y-55643800D01*
X43388280Y-84218780D02*
X39011220Y-84218780D01*
X39183500Y-89314700D02*
X53669520Y-89314700D01*
X53669520Y-89314700D02*
X56653700Y-86330520D01*
X39011220Y-84218780D02*
X37052700Y-86177300D01*
X59359800Y-61777100D02*
X49301600Y-51718900D01*
X45839400Y-86669900D02*
X43388280Y-84218780D01*
X37052700Y-86177300D02*
X37052700Y-87183900D01*
X37052700Y-87183900D02*
X39183500Y-89314700D01*
X41148100Y-74617600D02*
X43380900Y-74617600D01*
X43380900Y-74617600D02*
X46092100Y-77328800D01*
X46092100Y-77328800D02*
X46092100Y-80959700D01*
X46092100Y-80959700D02*
X44732700Y-82319100D01*
X40497800Y-74617600D02*
X41148100Y-74617600D01*
X40558800Y-71899800D02*
X39908500Y-71899800D01*
X39908500Y-71899800D02*
X39847400Y-71960900D01*
X39847400Y-71960900D02*
X39847400Y-75405400D01*
X39847400Y-75405400D02*
X40198900Y-75756900D01*
X40198900Y-75756900D02*
X43953900Y-75756900D01*
X43953900Y-75756900D02*
X45691700Y-77494700D01*
X45691700Y-77494700D02*
X45691700Y-78625200D01*
X45691700Y-78625200D02*
X42495500Y-81821400D01*
X42495500Y-81821400D02*
X41761800Y-81821400D01*
X34621900Y-74109600D02*
X35572200Y-74109600D01*
X38597800Y-74617600D02*
X36080200Y-74617600D01*
X36080200Y-74617600D02*
X35572200Y-74109600D01*
X34621900Y-72839600D02*
X35572200Y-72839600D01*
X35572200Y-72839600D02*
X37068700Y-72839600D01*
X37068700Y-72839600D02*
X38008500Y-71899800D01*
X38658800Y-71899800D02*
X38008500Y-71899800D01*
X28023820Y-78925420D02*
X28023820Y-74109600D01*
X28023820Y-74109600D02*
X29121900Y-74109600D01*
X36367700Y-78709500D02*
X35717400Y-78709500D01*
X29771340Y-80672940D02*
X28023820Y-78925420D01*
X33753960Y-80672940D02*
X29771340Y-80672940D01*
X35717400Y-78709500D02*
X33753960Y-80672940D01*
X37536100Y-55643800D02*
X37536100Y-53165200D01*
X37536100Y-53165200D02*
X35725000Y-51354100D01*
X35504100Y-55643800D02*
X34855800Y-55643800D01*
X34855800Y-55643800D02*
X34494900Y-55282900D01*
D32*
X59754501Y-85520121D02*
X59611074Y-85377922D01*
X59408133Y-85243579D01*
X59182882Y-85151409D01*
X59145209Y-85147538D01*
X58954600Y-85272269D01*
X58954600Y-86614000D01*
X58974600Y-86614000D01*
X58974600Y-86868000D01*
X58954600Y-86868000D01*
X58954600Y-88209731D01*
X59145209Y-88334462D01*
X59182882Y-88330591D01*
X59408133Y-88238421D01*
X59611074Y-88104078D01*
X59746634Y-87969679D01*
X59741210Y-89658660D01*
X54398672Y-89624994D01*
X57147897Y-86875770D01*
X57157364Y-86868000D01*
X57592600Y-86868000D01*
X57592600Y-87268000D01*
X57641107Y-87506496D01*
X57735210Y-87730946D01*
X57871293Y-87932725D01*
X58044126Y-88104078D01*
X58247067Y-88238421D01*
X58472318Y-88330591D01*
X58509991Y-88334462D01*
X58700600Y-88209731D01*
X58700600Y-86868000D01*
X57592600Y-86868000D01*
X57157364Y-86868000D01*
X57175937Y-86852758D01*
X57198950Y-86824717D01*
X57198953Y-86824714D01*
X57267787Y-86740840D01*
X57294697Y-86690494D01*
X57336037Y-86613153D01*
X57378065Y-86474605D01*
X57388700Y-86366625D01*
X57388700Y-86366624D01*
X57392256Y-86330520D01*
X57388700Y-86294415D01*
X57388700Y-86214000D01*
X57592600Y-86214000D01*
X57592600Y-86614000D01*
X58700600Y-86614000D01*
X58700600Y-85272269D01*
X58509991Y-85147538D01*
X58472318Y-85151409D01*
X58247067Y-85243579D01*
X58044126Y-85377922D01*
X57871293Y-85549275D01*
X57735210Y-85751054D01*
X57641107Y-85975504D01*
X57592600Y-86214000D01*
X57388700Y-86214000D01*
X57388700Y-85220495D01*
X57550600Y-85109361D01*
X57550600Y-84118000D01*
X57804600Y-84118000D01*
X57804600Y-85109361D01*
X57987344Y-85234803D01*
X58148587Y-85177140D01*
X58351433Y-85064385D01*
X58528383Y-84914223D01*
X58672638Y-84732426D01*
X58778655Y-84525979D01*
X58842359Y-84302816D01*
X58702404Y-84118000D01*
X57804600Y-84118000D01*
X57550600Y-84118000D01*
X57530600Y-84118000D01*
X57530600Y-83864000D01*
X57550600Y-83864000D01*
X57550600Y-83844000D01*
X57804600Y-83844000D01*
X57804600Y-83864000D01*
X58702404Y-83864000D01*
X58842359Y-83679184D01*
X58778655Y-83456021D01*
X58672638Y-83249574D01*
X58528383Y-83067777D01*
X58364631Y-82928815D01*
X59767328Y-81526119D01*
X59754501Y-85520121D01*
G04 #@! TA.AperFunction,Conductor*
D33*
G36*
X59754501Y-85520121D02*
G01*
X59611074Y-85377922D01*
X59408133Y-85243579D01*
X59182882Y-85151409D01*
X59145209Y-85147538D01*
X58954600Y-85272269D01*
X58954600Y-86614000D01*
X58974600Y-86614000D01*
X58974600Y-86868000D01*
X58954600Y-86868000D01*
X58954600Y-88209731D01*
X59145209Y-88334462D01*
X59182882Y-88330591D01*
X59408133Y-88238421D01*
X59611074Y-88104078D01*
X59746634Y-87969679D01*
X59741210Y-89658660D01*
X54398672Y-89624994D01*
X57147897Y-86875770D01*
X57157364Y-86868000D01*
X57592600Y-86868000D01*
X57592600Y-87268000D01*
X57641107Y-87506496D01*
X57735210Y-87730946D01*
X57871293Y-87932725D01*
X58044126Y-88104078D01*
X58247067Y-88238421D01*
X58472318Y-88330591D01*
X58509991Y-88334462D01*
X58700600Y-88209731D01*
X58700600Y-86868000D01*
X57592600Y-86868000D01*
X57157364Y-86868000D01*
X57175937Y-86852758D01*
X57198950Y-86824717D01*
X57198953Y-86824714D01*
X57267787Y-86740840D01*
X57294697Y-86690494D01*
X57336037Y-86613153D01*
X57378065Y-86474605D01*
X57388700Y-86366625D01*
X57388700Y-86366624D01*
X57392256Y-86330520D01*
X57388700Y-86294415D01*
X57388700Y-86214000D01*
X57592600Y-86214000D01*
X57592600Y-86614000D01*
X58700600Y-86614000D01*
X58700600Y-85272269D01*
X58509991Y-85147538D01*
X58472318Y-85151409D01*
X58247067Y-85243579D01*
X58044126Y-85377922D01*
X57871293Y-85549275D01*
X57735210Y-85751054D01*
X57641107Y-85975504D01*
X57592600Y-86214000D01*
X57388700Y-86214000D01*
X57388700Y-85220495D01*
X57550600Y-85109361D01*
X57550600Y-84118000D01*
X57804600Y-84118000D01*
X57804600Y-85109361D01*
X57987344Y-85234803D01*
X58148587Y-85177140D01*
X58351433Y-85064385D01*
X58528383Y-84914223D01*
X58672638Y-84732426D01*
X58778655Y-84525979D01*
X58842359Y-84302816D01*
X58702404Y-84118000D01*
X57804600Y-84118000D01*
X57550600Y-84118000D01*
X57530600Y-84118000D01*
X57530600Y-83864000D01*
X57550600Y-83864000D01*
X57550600Y-83844000D01*
X57804600Y-83844000D01*
X57804600Y-83864000D01*
X58702404Y-83864000D01*
X58842359Y-83679184D01*
X58778655Y-83456021D01*
X58672638Y-83249574D01*
X58528383Y-83067777D01*
X58364631Y-82928815D01*
X59767328Y-81526119D01*
X59754501Y-85520121D01*
G37*
G04 #@! TD.AperFunction*
D32*
X57180834Y-19661825D02*
X56863909Y-19873587D01*
X56594387Y-20143109D01*
X56382625Y-20460034D01*
X56236761Y-20812181D01*
X56162400Y-21186019D01*
X56162400Y-21567181D01*
X56236761Y-21941019D01*
X56382625Y-22293166D01*
X56594387Y-22610091D01*
X56863909Y-22879613D01*
X57180834Y-23091375D01*
X57532981Y-23237239D01*
X57906819Y-23311600D01*
X58287981Y-23311600D01*
X58661819Y-23237239D01*
X59013966Y-23091375D01*
X59330891Y-22879613D01*
X59600413Y-22610091D01*
X59812175Y-22293166D01*
X59958039Y-21941019D01*
X59958695Y-21937722D01*
X59832571Y-61210424D01*
X55289219Y-56667072D01*
X56437900Y-56667072D01*
X56562382Y-56654812D01*
X56682080Y-56618502D01*
X56792394Y-56559537D01*
X56889085Y-56480185D01*
X56968437Y-56383494D01*
X57027402Y-56273180D01*
X57063712Y-56153482D01*
X57075972Y-56029000D01*
X57075972Y-54329000D01*
X57063712Y-54204518D01*
X57027402Y-54084820D01*
X56968437Y-53974506D01*
X56889085Y-53877815D01*
X56792394Y-53798463D01*
X56682080Y-53739498D01*
X56609520Y-53717487D01*
X56741375Y-53585632D01*
X56903890Y-53342411D01*
X57015832Y-53072158D01*
X57072900Y-52785260D01*
X57072900Y-52492740D01*
X57015832Y-52205842D01*
X56903890Y-51935589D01*
X56741375Y-51692368D01*
X56534532Y-51485525D01*
X56360140Y-51369000D01*
X56534532Y-51252475D01*
X56741375Y-51045632D01*
X56903890Y-50802411D01*
X57015832Y-50532158D01*
X57072900Y-50245260D01*
X57072900Y-49952740D01*
X57015832Y-49665842D01*
X56903890Y-49395589D01*
X56741375Y-49152368D01*
X56534532Y-48945525D01*
X56360140Y-48829000D01*
X56534532Y-48712475D01*
X56741375Y-48505632D01*
X56903890Y-48262411D01*
X57015832Y-47992158D01*
X57072900Y-47705260D01*
X57072900Y-47412740D01*
X57015832Y-47125842D01*
X56903890Y-46855589D01*
X56741375Y-46612368D01*
X56534532Y-46405525D01*
X56309372Y-46255078D01*
X56294397Y-46205713D01*
X56270237Y-46126067D01*
X56201987Y-45998380D01*
X56110138Y-45886462D01*
X56082093Y-45863446D01*
X53425150Y-43206504D01*
X53483776Y-43167041D01*
X53491332Y-43160797D01*
X53579498Y-43072028D01*
X53585690Y-43064430D01*
X53654791Y-42960254D01*
X53659383Y-42951594D01*
X53706887Y-42835805D01*
X53709700Y-42826416D01*
X53733677Y-42703703D01*
X53734605Y-42693946D01*
X53737468Y-42631368D01*
X53727468Y-39681368D01*
X53724290Y-39619883D01*
X53723329Y-39610297D01*
X53699037Y-39488728D01*
X53696192Y-39479349D01*
X53648319Y-39363773D01*
X53643698Y-39355128D01*
X53628091Y-39331772D01*
X54029400Y-39331772D01*
X54153882Y-39319512D01*
X54273580Y-39283202D01*
X54383894Y-39224237D01*
X54480585Y-39144885D01*
X54559937Y-39048194D01*
X54618902Y-38937880D01*
X54655212Y-38818182D01*
X54667472Y-38693700D01*
X54667472Y-37193700D01*
X54655212Y-37069218D01*
X54618902Y-36949520D01*
X54559937Y-36839206D01*
X54480585Y-36742515D01*
X54383894Y-36663163D01*
X54273580Y-36604198D01*
X54195578Y-36580536D01*
X54143487Y-36483080D01*
X54051638Y-36371162D01*
X54023587Y-36348141D01*
X53825659Y-36150213D01*
X53802638Y-36122162D01*
X53690720Y-36030313D01*
X53563033Y-35962063D01*
X53424485Y-35920035D01*
X53316505Y-35909400D01*
X53280400Y-35905844D01*
X53244295Y-35909400D01*
X49864532Y-35909400D01*
X49717920Y-35762788D01*
X49532024Y-35638576D01*
X49325467Y-35553017D01*
X49106188Y-35509400D01*
X48898847Y-35509400D01*
X48144658Y-34755212D01*
X48121638Y-34727162D01*
X48009720Y-34635313D01*
X47882033Y-34567063D01*
X47743485Y-34525035D01*
X47635505Y-34514400D01*
X47599400Y-34510844D01*
X47563295Y-34514400D01*
X44984594Y-34514400D01*
X44948499Y-34510845D01*
X44912404Y-34514400D01*
X44912395Y-34514400D01*
X44804415Y-34525035D01*
X44665867Y-34567063D01*
X44538180Y-34635313D01*
X44426262Y-34727162D01*
X44403246Y-34755207D01*
X43663104Y-35495350D01*
X43649594Y-35484263D01*
X43539280Y-35425298D01*
X43419582Y-35388988D01*
X43295100Y-35376728D01*
X42295100Y-35376728D01*
X42170618Y-35388988D01*
X42050920Y-35425298D01*
X41940606Y-35484263D01*
X41843915Y-35563615D01*
X41764563Y-35660306D01*
X41705598Y-35770620D01*
X41669288Y-35890318D01*
X41657028Y-36014800D01*
X41657028Y-37614800D01*
X41669288Y-37739282D01*
X41705598Y-37858980D01*
X41764563Y-37969294D01*
X41843915Y-38065985D01*
X41940606Y-38145337D01*
X42050920Y-38204302D01*
X42170618Y-38240612D01*
X42295100Y-38252872D01*
X43295100Y-38252872D01*
X43419582Y-38240612D01*
X43539280Y-38204302D01*
X43649594Y-38145337D01*
X43746285Y-38065985D01*
X43825637Y-37969294D01*
X43884602Y-37858980D01*
X43920912Y-37739282D01*
X43933172Y-37614800D01*
X43933172Y-37467665D01*
X44005720Y-37428887D01*
X44117638Y-37337038D01*
X44209487Y-37225120D01*
X44277737Y-37097433D01*
X44319765Y-36958885D01*
X44324277Y-36913069D01*
X44657028Y-36580318D01*
X44657028Y-37614800D01*
X44669288Y-37739282D01*
X44705598Y-37858980D01*
X44764563Y-37969294D01*
X44843915Y-38065985D01*
X44940606Y-38145337D01*
X45050920Y-38204302D01*
X45170618Y-38240612D01*
X45295100Y-38252872D01*
X46295100Y-38252872D01*
X46419582Y-38240612D01*
X46539280Y-38204302D01*
X46649594Y-38145337D01*
X46746285Y-38065985D01*
X46773715Y-38032561D01*
X49209046Y-40467893D01*
X49232062Y-40495938D01*
X49343980Y-40587787D01*
X49471667Y-40656037D01*
X49610215Y-40698065D01*
X49718195Y-40708700D01*
X49718204Y-40708700D01*
X49754299Y-40712255D01*
X49790394Y-40708700D01*
X50301328Y-40708700D01*
X50301328Y-42633700D01*
X50304402Y-42696256D01*
X50305363Y-42706011D01*
X50329763Y-42828672D01*
X50332608Y-42838051D01*
X50380481Y-42953627D01*
X50385102Y-42962272D01*
X50454608Y-43066289D01*
X50460826Y-43073865D01*
X50549235Y-43162274D01*
X50556811Y-43168492D01*
X50660828Y-43237998D01*
X50669473Y-43242619D01*
X50785049Y-43290492D01*
X50794428Y-43293337D01*
X50917089Y-43317737D01*
X50926844Y-43318698D01*
X50989400Y-43321772D01*
X51323471Y-43321772D01*
X51414918Y-43349512D01*
X51496756Y-43357572D01*
X51517163Y-43382438D01*
X51545208Y-43405454D01*
X54593273Y-46453520D01*
X54434425Y-46612368D01*
X54271910Y-46855589D01*
X54159968Y-47125842D01*
X54102900Y-47412740D01*
X54102900Y-47705260D01*
X54159968Y-47992158D01*
X54271910Y-48262411D01*
X54434425Y-48505632D01*
X54641268Y-48712475D01*
X54815660Y-48829000D01*
X54641268Y-48945525D01*
X54434425Y-49152368D01*
X54271910Y-49395589D01*
X54159968Y-49665842D01*
X54102900Y-49952740D01*
X54102900Y-50245260D01*
X54159968Y-50532158D01*
X54271910Y-50802411D01*
X54434425Y-51045632D01*
X54641268Y-51252475D01*
X54815660Y-51369000D01*
X54641268Y-51485525D01*
X54434425Y-51692368D01*
X54271910Y-51935589D01*
X54159968Y-52205842D01*
X54102900Y-52492740D01*
X54102900Y-52785260D01*
X54159968Y-53072158D01*
X54271910Y-53342411D01*
X54434425Y-53585632D01*
X54566280Y-53717487D01*
X54493720Y-53739498D01*
X54383406Y-53798463D01*
X54286715Y-53877815D01*
X54207363Y-53974506D01*
X54148398Y-54084820D01*
X54112088Y-54204518D01*
X54099828Y-54329000D01*
X54099828Y-55477682D01*
X49846859Y-51224713D01*
X49823838Y-51196662D01*
X49711920Y-51104813D01*
X49584233Y-51036563D01*
X49445685Y-50994535D01*
X49337705Y-50983900D01*
X49301600Y-50980344D01*
X49265495Y-50983900D01*
X43448450Y-50983900D01*
X43397350Y-50932800D01*
X42423100Y-50932800D01*
X42423100Y-50952800D01*
X42169100Y-50952800D01*
X42169100Y-50932800D01*
X41194850Y-50932800D01*
X41143750Y-50983900D01*
X41088604Y-50983900D01*
X41052499Y-50980344D01*
X40908414Y-50994535D01*
X40866386Y-51007284D01*
X40769867Y-51036563D01*
X40642180Y-51104813D01*
X40530262Y-51196662D01*
X40507246Y-51224707D01*
X38271100Y-53460854D01*
X38271100Y-53201296D01*
X38274655Y-53165199D01*
X38271100Y-53129102D01*
X38271100Y-53129095D01*
X38260465Y-53021115D01*
X38218437Y-52882567D01*
X38150187Y-52754880D01*
X38058338Y-52642962D01*
X38030293Y-52619946D01*
X36860000Y-51449654D01*
X36860000Y-51242312D01*
X36816383Y-51023033D01*
X36730824Y-50816476D01*
X36606612Y-50630580D01*
X36448520Y-50472488D01*
X36262624Y-50348276D01*
X36170701Y-50310200D01*
X38408495Y-50310200D01*
X38444600Y-50313756D01*
X38480705Y-50310200D01*
X38588685Y-50299565D01*
X38727233Y-50257537D01*
X38854920Y-50189287D01*
X38966838Y-50097438D01*
X38989859Y-50069387D01*
X39308387Y-49750859D01*
X39336438Y-49727838D01*
X39428287Y-49615920D01*
X39496537Y-49488233D01*
X39538565Y-49349685D01*
X39549200Y-49241705D01*
X39549200Y-49241696D01*
X39552755Y-49205601D01*
X39549200Y-49169506D01*
X39549200Y-48212705D01*
X39552756Y-48176600D01*
X39538565Y-48032515D01*
X39532563Y-48012728D01*
X39496537Y-47893967D01*
X39428287Y-47766280D01*
X39384317Y-47712703D01*
X39359453Y-47682406D01*
X39359450Y-47682403D01*
X39336437Y-47654362D01*
X39308397Y-47631350D01*
X39099026Y-47421979D01*
X39103302Y-47413980D01*
X39139612Y-47294282D01*
X39151872Y-47169800D01*
X39151872Y-46904400D01*
X39545054Y-46904400D01*
X40975530Y-48334877D01*
X40964428Y-48447600D01*
X40964428Y-49447600D01*
X40976688Y-49572082D01*
X41012998Y-49691780D01*
X41071963Y-49802094D01*
X41151315Y-49898785D01*
X41170646Y-49914650D01*
X41140563Y-49951306D01*
X41081598Y-50061620D01*
X41045288Y-50181318D01*
X41033028Y-50305800D01*
X41036100Y-50520050D01*
X41194850Y-50678800D01*
X42169100Y-50678800D01*
X42169100Y-50658800D01*
X42423100Y-50658800D01*
X42423100Y-50678800D01*
X43397350Y-50678800D01*
X43556100Y-50520050D01*
X43559172Y-50305800D01*
X43546912Y-50181318D01*
X43510602Y-50061620D01*
X43451637Y-49951306D01*
X43372285Y-49854615D01*
X43352954Y-49838750D01*
X43383037Y-49802094D01*
X43442002Y-49691780D01*
X43478312Y-49572082D01*
X43490572Y-49447600D01*
X43490572Y-48685100D01*
X45279487Y-48685100D01*
X45378301Y-48832986D01*
X45571214Y-49025899D01*
X45798057Y-49177471D01*
X46050111Y-49281875D01*
X46317689Y-49335100D01*
X46590511Y-49335100D01*
X46858089Y-49281875D01*
X47110143Y-49177471D01*
X47336986Y-49025899D01*
X47529899Y-48832986D01*
X47681471Y-48606143D01*
X47785875Y-48354089D01*
X47839100Y-48086511D01*
X47839100Y-47813689D01*
X47785875Y-47546111D01*
X47681471Y-47294057D01*
X47529899Y-47067214D01*
X47336986Y-46874301D01*
X47110143Y-46722729D01*
X46858089Y-46618325D01*
X46590511Y-46565100D01*
X46317689Y-46565100D01*
X46050111Y-46618325D01*
X45798057Y-46722729D01*
X45571214Y-46874301D01*
X45378301Y-47067214D01*
X45279487Y-47215100D01*
X43469250Y-47215100D01*
X43328750Y-47074600D01*
X42354500Y-47074600D01*
X42354500Y-47094600D01*
X42100500Y-47094600D01*
X42100500Y-47074600D01*
X42080500Y-47074600D01*
X42080500Y-46820600D01*
X42100500Y-46820600D01*
X42100500Y-45971350D01*
X42354500Y-45971350D01*
X42354500Y-46820600D01*
X43328750Y-46820600D01*
X43487500Y-46661850D01*
X43490572Y-46447600D01*
X43478312Y-46323118D01*
X43442002Y-46203420D01*
X43383037Y-46093106D01*
X43303685Y-45996415D01*
X43206994Y-45917063D01*
X43096680Y-45858098D01*
X42976982Y-45821788D01*
X42852500Y-45809528D01*
X42513250Y-45812600D01*
X42354500Y-45971350D01*
X42100500Y-45971350D01*
X41941750Y-45812600D01*
X41602500Y-45809528D01*
X41478018Y-45821788D01*
X41358320Y-45858098D01*
X41248006Y-45917063D01*
X41151315Y-45996415D01*
X41071963Y-46093106D01*
X41012998Y-46203420D01*
X40992044Y-46272497D01*
X40394759Y-45675212D01*
X40371738Y-45647162D01*
X40259820Y-45555313D01*
X40132133Y-45487063D01*
X39993585Y-45445035D01*
X39885605Y-45434400D01*
X39849500Y-45430844D01*
X39813395Y-45434400D01*
X37087105Y-45434400D01*
X37051000Y-45430844D01*
X36906915Y-45445035D01*
X36768366Y-45487063D01*
X36656915Y-45546635D01*
X36640680Y-45555313D01*
X36528762Y-45647162D01*
X36505746Y-45675207D01*
X34964754Y-47216200D01*
X32961705Y-47216200D01*
X32925600Y-47212644D01*
X32889495Y-47216200D01*
X32781515Y-47226835D01*
X32642967Y-47268863D01*
X32626247Y-47277800D01*
X32429250Y-47277800D01*
X32270500Y-47436550D01*
X32268604Y-47568749D01*
X26087000Y-53750354D01*
X26087000Y-48161665D01*
X27547940Y-48161665D01*
X27614920Y-48401756D01*
X27863948Y-48518856D01*
X28131035Y-48585123D01*
X28405917Y-48598010D01*
X28678033Y-48557022D01*
X28936923Y-48463736D01*
X29052880Y-48401756D01*
X29119860Y-48161665D01*
X28333900Y-47375705D01*
X27547940Y-48161665D01*
X26087000Y-48161665D01*
X26087000Y-47268117D01*
X26931990Y-47268117D01*
X26972978Y-47540233D01*
X27066264Y-47799123D01*
X27128244Y-47915080D01*
X27368335Y-47982060D01*
X28154295Y-47196100D01*
X28513505Y-47196100D01*
X29299465Y-47982060D01*
X29539556Y-47915080D01*
X29656656Y-47666052D01*
X29722923Y-47398965D01*
X29735810Y-47124083D01*
X29694822Y-46851967D01*
X29622336Y-46650800D01*
X32267428Y-46650800D01*
X32270500Y-46865050D01*
X32429250Y-47023800D01*
X33403500Y-47023800D01*
X33403500Y-46174550D01*
X33657500Y-46174550D01*
X33657500Y-47023800D01*
X34631750Y-47023800D01*
X34790500Y-46865050D01*
X34793572Y-46650800D01*
X34781312Y-46526318D01*
X34745002Y-46406620D01*
X34686037Y-46296306D01*
X34606685Y-46199615D01*
X34509994Y-46120263D01*
X34399680Y-46061298D01*
X34279982Y-46024988D01*
X34155500Y-46012728D01*
X33816250Y-46015800D01*
X33657500Y-46174550D01*
X33403500Y-46174550D01*
X33244750Y-46015800D01*
X32905500Y-46012728D01*
X32781018Y-46024988D01*
X32661320Y-46061298D01*
X32551006Y-46120263D01*
X32454315Y-46199615D01*
X32374963Y-46296306D01*
X32315998Y-46406620D01*
X32279688Y-46526318D01*
X32267428Y-46650800D01*
X29622336Y-46650800D01*
X29601536Y-46593077D01*
X29539556Y-46477120D01*
X29299465Y-46410140D01*
X28513505Y-47196100D01*
X28154295Y-47196100D01*
X27368335Y-46410140D01*
X27128244Y-46477120D01*
X27011144Y-46726148D01*
X26944877Y-46993235D01*
X26931990Y-47268117D01*
X26087000Y-47268117D01*
X26087000Y-44989946D01*
X27092584Y-43984362D01*
X27085895Y-43994373D01*
X26980586Y-44248610D01*
X26926900Y-44518508D01*
X26926900Y-44793692D01*
X26980586Y-45063590D01*
X27085895Y-45317827D01*
X27238780Y-45546635D01*
X27433365Y-45741220D01*
X27662173Y-45894105D01*
X27738495Y-45925719D01*
X27730877Y-45928464D01*
X27614920Y-45990444D01*
X27547940Y-46230535D01*
X28333900Y-47016495D01*
X29119860Y-46230535D01*
X29052880Y-45990444D01*
X28912457Y-45924413D01*
X28985627Y-45894105D01*
X29214435Y-45741220D01*
X29409020Y-45546635D01*
X29561905Y-45317827D01*
X29667214Y-45063590D01*
X29720900Y-44793692D01*
X29720900Y-44518508D01*
X29667214Y-44248610D01*
X29561905Y-43994373D01*
X29409020Y-43765565D01*
X29214435Y-43570980D01*
X28985627Y-43418095D01*
X28731390Y-43312786D01*
X28461492Y-43259100D01*
X28186308Y-43259100D01*
X27916410Y-43312786D01*
X27662173Y-43418095D01*
X27652163Y-43424784D01*
X30316197Y-40760750D01*
X30344237Y-40737738D01*
X30367250Y-40709697D01*
X30367253Y-40709694D01*
X30436087Y-40625820D01*
X30504337Y-40498134D01*
X30546365Y-40359585D01*
X30560556Y-40215500D01*
X30557000Y-40179395D01*
X30557000Y-37368202D01*
X32451000Y-37368202D01*
X32451000Y-37658398D01*
X32507614Y-37943017D01*
X32618667Y-38211122D01*
X32779891Y-38452410D01*
X32985090Y-38657609D01*
X33226378Y-38818833D01*
X33494483Y-38929886D01*
X33778524Y-38986385D01*
X33777614Y-38988583D01*
X33721000Y-39273202D01*
X33721000Y-39563398D01*
X33777614Y-39848017D01*
X33888667Y-40116122D01*
X34049891Y-40357410D01*
X34255090Y-40562609D01*
X34496378Y-40723833D01*
X34764483Y-40834886D01*
X35049102Y-40891500D01*
X35339298Y-40891500D01*
X35623917Y-40834886D01*
X35892022Y-40723833D01*
X36133310Y-40562609D01*
X36338509Y-40357410D01*
X36499733Y-40116122D01*
X36610786Y-39848017D01*
X36667400Y-39563398D01*
X36667400Y-39273202D01*
X36610786Y-38988583D01*
X36607709Y-38981154D01*
X36820357Y-38950145D01*
X37093828Y-38853054D01*
X37228362Y-38781144D01*
X37304570Y-38533275D01*
X36464200Y-37692905D01*
X36450058Y-37707048D01*
X36270453Y-37527443D01*
X36284595Y-37513300D01*
X36643805Y-37513300D01*
X37484175Y-38353670D01*
X37732044Y-38277462D01*
X37856763Y-38015435D01*
X37927968Y-37734111D01*
X37942919Y-37444301D01*
X37901045Y-37157143D01*
X37803954Y-36883672D01*
X37732044Y-36749138D01*
X37484175Y-36672930D01*
X36643805Y-37513300D01*
X36284595Y-37513300D01*
X35444225Y-36672930D01*
X35196356Y-36749138D01*
X35191801Y-36758708D01*
X35068509Y-36574190D01*
X34987644Y-36493325D01*
X35623830Y-36493325D01*
X36464200Y-37333695D01*
X37304570Y-36493325D01*
X37228362Y-36245456D01*
X36966335Y-36120737D01*
X36685011Y-36049532D01*
X36395201Y-36034581D01*
X36108043Y-36076455D01*
X35834572Y-36173546D01*
X35700038Y-36245456D01*
X35623830Y-36493325D01*
X34987644Y-36493325D01*
X34863310Y-36368991D01*
X34622022Y-36207767D01*
X34353917Y-36096714D01*
X34069298Y-36040100D01*
X33779102Y-36040100D01*
X33494483Y-36096714D01*
X33226378Y-36207767D01*
X32985090Y-36368991D01*
X32779891Y-36574190D01*
X32618667Y-36815478D01*
X32507614Y-37083583D01*
X32451000Y-37368202D01*
X30557000Y-37368202D01*
X30557000Y-31187100D01*
X32159815Y-31187100D01*
X32193615Y-31228285D01*
X32290306Y-31307637D01*
X32400620Y-31366602D01*
X32520318Y-31402912D01*
X32644800Y-31415172D01*
X33704800Y-31415172D01*
X33829282Y-31402912D01*
X33948980Y-31366602D01*
X34059294Y-31307637D01*
X34155985Y-31228285D01*
X34214863Y-31156542D01*
X34287733Y-31134437D01*
X34309550Y-31122776D01*
X34314263Y-31131594D01*
X34393615Y-31228285D01*
X34490306Y-31307637D01*
X34600620Y-31366602D01*
X34720318Y-31402912D01*
X34844800Y-31415172D01*
X35904800Y-31415172D01*
X36029282Y-31402912D01*
X36148980Y-31366602D01*
X36259294Y-31307637D01*
X36355985Y-31228285D01*
X36414863Y-31156542D01*
X36487733Y-31134437D01*
X36615420Y-31066187D01*
X36727338Y-30974338D01*
X36819187Y-30862420D01*
X36887437Y-30734733D01*
X36929465Y-30596185D01*
X36943656Y-30452100D01*
X36940100Y-30415995D01*
X36940100Y-28790046D01*
X39890446Y-25839700D01*
X49987128Y-25839700D01*
X49987128Y-27139700D01*
X49999388Y-27264182D01*
X50035698Y-27383880D01*
X50094663Y-27494194D01*
X50174015Y-27590885D01*
X50175773Y-27592328D01*
X50170717Y-27604533D01*
X50127100Y-27823812D01*
X50127100Y-28047388D01*
X50170717Y-28266667D01*
X50256276Y-28473224D01*
X50380488Y-28659120D01*
X50538580Y-28817212D01*
X50724476Y-28941424D01*
X50931033Y-29026983D01*
X51150312Y-29070600D01*
X51373888Y-29070600D01*
X51593167Y-29026983D01*
X51799724Y-28941424D01*
X51985620Y-28817212D01*
X52143712Y-28659120D01*
X52267924Y-28473224D01*
X52353483Y-28266667D01*
X52397100Y-28047388D01*
X52397100Y-27823812D01*
X52384527Y-27760600D01*
X52400718Y-27765512D01*
X52525200Y-27777772D01*
X53225200Y-27777772D01*
X53349682Y-27765512D01*
X53469380Y-27729202D01*
X53579694Y-27670237D01*
X53676385Y-27590885D01*
X53755737Y-27494194D01*
X53814702Y-27383880D01*
X53851012Y-27264182D01*
X53854901Y-27224700D01*
X54794554Y-27224700D01*
X54995370Y-27425516D01*
X55002439Y-27435380D01*
X55046490Y-27476636D01*
X55063507Y-27493653D01*
X55072827Y-27501302D01*
X55108113Y-27534349D01*
X55128667Y-27547129D01*
X55147380Y-27562487D01*
X55190019Y-27585278D01*
X55231065Y-27610800D01*
X55253718Y-27619325D01*
X55275066Y-27630736D01*
X55321325Y-27644769D01*
X55366569Y-27661796D01*
X55390451Y-27665738D01*
X55413615Y-27672765D01*
X55461725Y-27677503D01*
X55509418Y-27685376D01*
X55533609Y-27684583D01*
X55557700Y-27686956D01*
X55605816Y-27682217D01*
X55654122Y-27680634D01*
X55677689Y-27675138D01*
X55701785Y-27672765D01*
X55748053Y-27658729D01*
X55795122Y-27647753D01*
X55817169Y-27637763D01*
X55840333Y-27630736D01*
X55882966Y-27607949D01*
X55893951Y-27602971D01*
X55911213Y-27593004D01*
X55993690Y-27735859D01*
X56066549Y-27837533D01*
X56157843Y-27923040D01*
X56264065Y-27989092D01*
X56381132Y-28033153D01*
X56504545Y-28053529D01*
X56629562Y-28049436D01*
X56751378Y-28021033D01*
X56865313Y-27969410D01*
X58424159Y-27069410D01*
X58525833Y-26996551D01*
X58611340Y-26905257D01*
X58677392Y-26799035D01*
X58721453Y-26681968D01*
X58741829Y-26558555D01*
X58737736Y-26433538D01*
X58709333Y-26311722D01*
X58657710Y-26197787D01*
X57757710Y-24638941D01*
X57684851Y-24537267D01*
X57593557Y-24451760D01*
X57487335Y-24385708D01*
X57370268Y-24341647D01*
X57246855Y-24321271D01*
X57121838Y-24325364D01*
X57000022Y-24353767D01*
X56886087Y-24405390D01*
X55327241Y-25305390D01*
X55225567Y-25378249D01*
X55140060Y-25469543D01*
X55074008Y-25575765D01*
X55029947Y-25692832D01*
X55019732Y-25754700D01*
X53854901Y-25754700D01*
X53851012Y-25715218D01*
X53814702Y-25595520D01*
X53755737Y-25485206D01*
X53676385Y-25388515D01*
X53579694Y-25309163D01*
X53469380Y-25250198D01*
X53349682Y-25213888D01*
X53225200Y-25201628D01*
X52525200Y-25201628D01*
X52400718Y-25213888D01*
X52281020Y-25250198D01*
X52170706Y-25309163D01*
X52074015Y-25388515D01*
X51994663Y-25485206D01*
X51935698Y-25595520D01*
X51925200Y-25630127D01*
X51914702Y-25595520D01*
X51855737Y-25485206D01*
X51776385Y-25388515D01*
X51679694Y-25309163D01*
X51569380Y-25250198D01*
X51449682Y-25213888D01*
X51325200Y-25201628D01*
X50625200Y-25201628D01*
X50500718Y-25213888D01*
X50381020Y-25250198D01*
X50270706Y-25309163D01*
X50174015Y-25388515D01*
X50094663Y-25485206D01*
X50035698Y-25595520D01*
X49999388Y-25715218D01*
X49987128Y-25839700D01*
X39890446Y-25839700D01*
X39907393Y-25822754D01*
X39935438Y-25799738D01*
X40027287Y-25687820D01*
X40067613Y-25612375D01*
X40162682Y-25603012D01*
X40282380Y-25566702D01*
X40392694Y-25507737D01*
X40489385Y-25428385D01*
X40496677Y-25419500D01*
X41896668Y-25419500D01*
X42010680Y-25533512D01*
X42196576Y-25657724D01*
X42403133Y-25743283D01*
X42622412Y-25786900D01*
X42845988Y-25786900D01*
X43065267Y-25743283D01*
X43271824Y-25657724D01*
X43457720Y-25533512D01*
X43615812Y-25375420D01*
X43740024Y-25189524D01*
X43825583Y-24982967D01*
X43869200Y-24763688D01*
X43869200Y-24540112D01*
X43825583Y-24320833D01*
X43740024Y-24114276D01*
X43615812Y-23928380D01*
X43457720Y-23770288D01*
X43271824Y-23646076D01*
X43065267Y-23560517D01*
X42845988Y-23516900D01*
X42622412Y-23516900D01*
X42403133Y-23560517D01*
X42196576Y-23646076D01*
X42010680Y-23770288D01*
X41852588Y-23928380D01*
X41838476Y-23949500D01*
X40673544Y-23949500D01*
X40664012Y-23852718D01*
X40627702Y-23733020D01*
X40568737Y-23622706D01*
X40489385Y-23526015D01*
X40429904Y-23477200D01*
X40489385Y-23428385D01*
X40568737Y-23331694D01*
X40627702Y-23221380D01*
X40664012Y-23101682D01*
X40676272Y-22977200D01*
X40673200Y-22762950D01*
X40514450Y-22604200D01*
X39540200Y-22604200D01*
X39540200Y-22624200D01*
X39286200Y-22624200D01*
X39286200Y-22604200D01*
X38311950Y-22604200D01*
X38153200Y-22762950D01*
X38150128Y-22977200D01*
X38162388Y-23101682D01*
X38198698Y-23221380D01*
X38257663Y-23331694D01*
X38337015Y-23428385D01*
X38396496Y-23477200D01*
X38337015Y-23526015D01*
X38257663Y-23622706D01*
X38198698Y-23733020D01*
X38162388Y-23852718D01*
X38150128Y-23977200D01*
X38150128Y-24977200D01*
X38162388Y-25101682D01*
X38198698Y-25221380D01*
X38257663Y-25331694D01*
X38285563Y-25365690D01*
X36045152Y-27606102D01*
X36029282Y-27601288D01*
X35904800Y-27589028D01*
X34989018Y-27589028D01*
X36940693Y-25637354D01*
X36968738Y-25614338D01*
X37060587Y-25502420D01*
X37100913Y-25426975D01*
X37195982Y-25417612D01*
X37315680Y-25381302D01*
X37425994Y-25322337D01*
X37522685Y-25242985D01*
X37602037Y-25146294D01*
X37661002Y-25035980D01*
X37697312Y-24916282D01*
X37709572Y-24791800D01*
X37709572Y-23791800D01*
X37697312Y-23667318D01*
X37661002Y-23547620D01*
X37602037Y-23437306D01*
X37522685Y-23340615D01*
X37463204Y-23291800D01*
X37522685Y-23242985D01*
X37602037Y-23146294D01*
X37661002Y-23035980D01*
X37697312Y-22916282D01*
X37709572Y-22791800D01*
X37706585Y-22583472D01*
X53211886Y-22583472D01*
X53226791Y-22849386D01*
X53455166Y-23045329D01*
X53717380Y-23192953D01*
X54003356Y-23286586D01*
X54302103Y-23322628D01*
X54602141Y-23299694D01*
X54765344Y-23261636D01*
X54910904Y-23038273D01*
X54289215Y-21961476D01*
X53211886Y-22583472D01*
X37706585Y-22583472D01*
X37706500Y-22577550D01*
X37547750Y-22418800D01*
X36573500Y-22418800D01*
X36573500Y-22438800D01*
X36319500Y-22438800D01*
X36319500Y-22418800D01*
X35345250Y-22418800D01*
X35186500Y-22577550D01*
X35183428Y-22791800D01*
X35195688Y-22916282D01*
X35231998Y-23035980D01*
X35290963Y-23146294D01*
X35370315Y-23242985D01*
X35429796Y-23291800D01*
X35370315Y-23340615D01*
X35290963Y-23437306D01*
X35231998Y-23547620D01*
X35195688Y-23667318D01*
X35183428Y-23791800D01*
X35183428Y-24791800D01*
X35195688Y-24916282D01*
X35231998Y-25035980D01*
X35290963Y-25146294D01*
X35318863Y-25180290D01*
X33095808Y-27403346D01*
X33067763Y-27426362D01*
X32975914Y-27538280D01*
X32948788Y-27589028D01*
X32644800Y-27589028D01*
X32520318Y-27601288D01*
X32400620Y-27637598D01*
X32290306Y-27696563D01*
X32193615Y-27775915D01*
X32114263Y-27872606D01*
X32055298Y-27982920D01*
X32018988Y-28102618D01*
X32006728Y-28227100D01*
X32006728Y-28877100D01*
X32018988Y-29001582D01*
X32026729Y-29027100D01*
X32018988Y-29052618D01*
X32006728Y-29177100D01*
X32009800Y-29216350D01*
X32168550Y-29375100D01*
X32250659Y-29375100D01*
X32290306Y-29407637D01*
X32400620Y-29466602D01*
X32517641Y-29502100D01*
X32400620Y-29537598D01*
X32290306Y-29596563D01*
X32250659Y-29629100D01*
X32168550Y-29629100D01*
X32080550Y-29717100D01*
X30126447Y-29717100D01*
X29595306Y-29185960D01*
X29631800Y-29002492D01*
X29631800Y-28727308D01*
X29578114Y-28457410D01*
X29472805Y-28203173D01*
X29319920Y-27974365D01*
X29125335Y-27779780D01*
X28896527Y-27626895D01*
X28820205Y-27595281D01*
X28827823Y-27592536D01*
X28943780Y-27530556D01*
X29010760Y-27290465D01*
X28224800Y-26504505D01*
X27438840Y-27290465D01*
X27505820Y-27530556D01*
X27646243Y-27596587D01*
X27573073Y-27626895D01*
X27344265Y-27779780D01*
X27149680Y-27974365D01*
X26996795Y-28203173D01*
X26891486Y-28457410D01*
X26837800Y-28727308D01*
X26837800Y-29002492D01*
X26891486Y-29272390D01*
X26996795Y-29526627D01*
X27149680Y-29755435D01*
X27344265Y-29950020D01*
X27573073Y-30102905D01*
X27827310Y-30208214D01*
X28097208Y-30261900D01*
X28372392Y-30261900D01*
X28555860Y-30225406D01*
X29087001Y-30756548D01*
X29087001Y-34589691D01*
X29084459Y-34592233D01*
X29017480Y-34352144D01*
X28768452Y-34235044D01*
X28501365Y-34168777D01*
X28226483Y-34155890D01*
X27954367Y-34196878D01*
X27695477Y-34290164D01*
X27579520Y-34352144D01*
X27512540Y-34592235D01*
X28298500Y-35378195D01*
X28312643Y-35364053D01*
X28492248Y-35543658D01*
X28478105Y-35557800D01*
X28492248Y-35571943D01*
X28312643Y-35751548D01*
X28298500Y-35737405D01*
X27512540Y-36523365D01*
X27579520Y-36763456D01*
X27719943Y-36829487D01*
X27646773Y-36859795D01*
X27417965Y-37012680D01*
X27223380Y-37207265D01*
X27070495Y-37436073D01*
X26965186Y-37690310D01*
X26911500Y-37960208D01*
X26911500Y-38235392D01*
X26947994Y-38418859D01*
X24444208Y-40922646D01*
X24416162Y-40945663D01*
X24324313Y-41057581D01*
X24256063Y-41185268D01*
X24226784Y-41281787D01*
X24214035Y-41323815D01*
X24199844Y-41467900D01*
X24203400Y-41504005D01*
X24203401Y-68300285D01*
X24199844Y-68336400D01*
X24214035Y-68480485D01*
X24245023Y-68582636D01*
X24256064Y-68619033D01*
X24324314Y-68746720D01*
X24416163Y-68858638D01*
X24444208Y-68881654D01*
X27626346Y-72063793D01*
X27649362Y-72091838D01*
X27761280Y-72183687D01*
X27881613Y-72248006D01*
X27846088Y-72365118D01*
X27833828Y-72489600D01*
X27836900Y-72553850D01*
X27995650Y-72712600D01*
X28994900Y-72712600D01*
X28994900Y-72692600D01*
X29248900Y-72692600D01*
X29248900Y-72712600D01*
X29268900Y-72712600D01*
X29268900Y-72966600D01*
X29248900Y-72966600D01*
X29248900Y-72986600D01*
X28994900Y-72986600D01*
X28994900Y-72966600D01*
X27995650Y-72966600D01*
X27836900Y-73125350D01*
X27833828Y-73189600D01*
X27846088Y-73314082D01*
X27868689Y-73388586D01*
X27741187Y-73427263D01*
X27613500Y-73495513D01*
X27501582Y-73587362D01*
X27409733Y-73699280D01*
X27341483Y-73826967D01*
X27299455Y-73965515D01*
X27285264Y-74109600D01*
X27288821Y-74145715D01*
X27288820Y-78889315D01*
X27285264Y-78925420D01*
X27299455Y-79069505D01*
X27306390Y-79092366D01*
X27341483Y-79208052D01*
X27409733Y-79335739D01*
X27501582Y-79447657D01*
X27529628Y-79470674D01*
X29226086Y-81167133D01*
X29249102Y-81195178D01*
X29361020Y-81287027D01*
X29488707Y-81355277D01*
X29627255Y-81397305D01*
X29735235Y-81407940D01*
X29735244Y-81407940D01*
X29771339Y-81411495D01*
X29807434Y-81407940D01*
X33717855Y-81407940D01*
X33753960Y-81411496D01*
X33790065Y-81407940D01*
X33898045Y-81397305D01*
X34036593Y-81355277D01*
X34164280Y-81287027D01*
X34276198Y-81195178D01*
X34299218Y-81167128D01*
X35615479Y-79850868D01*
X35663206Y-79890037D01*
X35773520Y-79949002D01*
X35893218Y-79985312D01*
X36017700Y-79997572D01*
X36717700Y-79997572D01*
X36842182Y-79985312D01*
X36961880Y-79949002D01*
X37072194Y-79890037D01*
X37168885Y-79810685D01*
X37248237Y-79713994D01*
X37307202Y-79603680D01*
X37317700Y-79569073D01*
X37328198Y-79603680D01*
X37387163Y-79713994D01*
X37466515Y-79810685D01*
X37563206Y-79890037D01*
X37673520Y-79949002D01*
X37793218Y-79985312D01*
X37917700Y-79997572D01*
X37981950Y-79994500D01*
X38140700Y-79835750D01*
X38140700Y-78836500D01*
X38394700Y-78836500D01*
X38394700Y-79835750D01*
X38553450Y-79994500D01*
X38617700Y-79997572D01*
X38742182Y-79985312D01*
X38861880Y-79949002D01*
X38972194Y-79890037D01*
X39068885Y-79810685D01*
X39148237Y-79713994D01*
X39207202Y-79603680D01*
X39243512Y-79483982D01*
X39255772Y-79359500D01*
X39252700Y-78995250D01*
X39093950Y-78836500D01*
X38394700Y-78836500D01*
X38140700Y-78836500D01*
X38120700Y-78836500D01*
X38120700Y-78582500D01*
X38140700Y-78582500D01*
X38140700Y-77583250D01*
X38394700Y-77583250D01*
X38394700Y-78582500D01*
X39093950Y-78582500D01*
X39252700Y-78423750D01*
X39255074Y-78142195D01*
X42729382Y-78142195D01*
X42773139Y-78461275D01*
X42878305Y-78765688D01*
X42971286Y-78939644D01*
X43235687Y-79035408D01*
X44191495Y-78079600D01*
X43235687Y-77123792D01*
X42971286Y-77219556D01*
X42830396Y-77509171D01*
X42748716Y-77820708D01*
X42729382Y-78142195D01*
X39255074Y-78142195D01*
X39255772Y-78059500D01*
X39243512Y-77935018D01*
X39207202Y-77815320D01*
X39148237Y-77705006D01*
X39068885Y-77608315D01*
X38972194Y-77528963D01*
X38861880Y-77469998D01*
X38742182Y-77433688D01*
X38617700Y-77421428D01*
X38553450Y-77424500D01*
X38394700Y-77583250D01*
X38140700Y-77583250D01*
X37981950Y-77424500D01*
X37917700Y-77421428D01*
X37793218Y-77433688D01*
X37673520Y-77469998D01*
X37563206Y-77528963D01*
X37466515Y-77608315D01*
X37387163Y-77705006D01*
X37328198Y-77815320D01*
X37317700Y-77849927D01*
X37307202Y-77815320D01*
X37248237Y-77705006D01*
X37168885Y-77608315D01*
X37072194Y-77528963D01*
X36961880Y-77469998D01*
X36842182Y-77433688D01*
X36717700Y-77421428D01*
X36017700Y-77421428D01*
X35893218Y-77433688D01*
X35892559Y-77433888D01*
X36267347Y-77059100D01*
X38281095Y-77059100D01*
X38317200Y-77062656D01*
X38353305Y-77059100D01*
X38461285Y-77048465D01*
X38599833Y-77006437D01*
X38727520Y-76938187D01*
X38839438Y-76846338D01*
X38862458Y-76818288D01*
X39541650Y-76139096D01*
X39653641Y-76251087D01*
X39676662Y-76279138D01*
X39788580Y-76370987D01*
X39916267Y-76439237D01*
X40011696Y-76468185D01*
X40054814Y-76481265D01*
X40198899Y-76495456D01*
X40235004Y-76491900D01*
X43649454Y-76491900D01*
X43729121Y-76571567D01*
X43685012Y-76586805D01*
X43511056Y-76679786D01*
X43415292Y-76944187D01*
X44371100Y-77899995D01*
X44385243Y-77885853D01*
X44564848Y-78065458D01*
X44550705Y-78079600D01*
X44564848Y-78093743D01*
X44385243Y-78273348D01*
X44371100Y-78259205D01*
X43415292Y-79215013D01*
X43511056Y-79479414D01*
X43704119Y-79573334D01*
X42396808Y-80880646D01*
X42299424Y-80815576D01*
X42092867Y-80730017D01*
X41873588Y-80686400D01*
X41650012Y-80686400D01*
X41430733Y-80730017D01*
X41224176Y-80815576D01*
X41038280Y-80939788D01*
X40880188Y-81097880D01*
X40755976Y-81283776D01*
X40670417Y-81490333D01*
X40626800Y-81709612D01*
X40626800Y-81933188D01*
X40670417Y-82152467D01*
X40755976Y-82359024D01*
X40880188Y-82544920D01*
X41038280Y-82703012D01*
X41224176Y-82827224D01*
X41430733Y-82912783D01*
X41650012Y-82956400D01*
X41873588Y-82956400D01*
X42092867Y-82912783D01*
X42299424Y-82827224D01*
X42485320Y-82703012D01*
X42643412Y-82544920D01*
X42643677Y-82544524D01*
X42778133Y-82503737D01*
X42905820Y-82435487D01*
X43017738Y-82343638D01*
X43040759Y-82315587D01*
X45357101Y-79999246D01*
X45357101Y-80655252D01*
X44828254Y-81184100D01*
X44620912Y-81184100D01*
X44401633Y-81227717D01*
X44195076Y-81313276D01*
X44009180Y-81437488D01*
X43851088Y-81595580D01*
X43726876Y-81781476D01*
X43641317Y-81988033D01*
X43597700Y-82207312D01*
X43597700Y-82430888D01*
X43641317Y-82650167D01*
X43726876Y-82856724D01*
X43851088Y-83042620D01*
X44009180Y-83200712D01*
X44195076Y-83324924D01*
X44401633Y-83410483D01*
X44620912Y-83454100D01*
X44844488Y-83454100D01*
X45063767Y-83410483D01*
X45270324Y-83324924D01*
X45456220Y-83200712D01*
X45614312Y-83042620D01*
X45738524Y-82856724D01*
X45824083Y-82650167D01*
X45867700Y-82430888D01*
X45867700Y-82223546D01*
X46586293Y-81504954D01*
X46614338Y-81481938D01*
X46706187Y-81370020D01*
X46774437Y-81242333D01*
X46816465Y-81103785D01*
X46827100Y-80995805D01*
X46830656Y-80959700D01*
X46827100Y-80923595D01*
X46827100Y-79215013D01*
X49915292Y-79215013D01*
X50011056Y-79479414D01*
X50300671Y-79620304D01*
X50612208Y-79701984D01*
X50933695Y-79721318D01*
X51252775Y-79677561D01*
X51557188Y-79572395D01*
X51731144Y-79479414D01*
X51826908Y-79215013D01*
X50871100Y-78259205D01*
X49915292Y-79215013D01*
X46827100Y-79215013D01*
X46827100Y-78142195D01*
X49229382Y-78142195D01*
X49273139Y-78461275D01*
X49378305Y-78765688D01*
X49471286Y-78939644D01*
X49735687Y-79035408D01*
X50691495Y-78079600D01*
X51050705Y-78079600D01*
X52006513Y-79035408D01*
X52270914Y-78939644D01*
X52411804Y-78650029D01*
X52493484Y-78338492D01*
X52512818Y-78017005D01*
X52469061Y-77697925D01*
X52363895Y-77393512D01*
X52270914Y-77219556D01*
X52006513Y-77123792D01*
X51050705Y-78079600D01*
X50691495Y-78079600D01*
X49735687Y-77123792D01*
X49471286Y-77219556D01*
X49330396Y-77509171D01*
X49248716Y-77820708D01*
X49229382Y-78142195D01*
X46827100Y-78142195D01*
X46827100Y-77364905D01*
X46830656Y-77328800D01*
X46816465Y-77184715D01*
X46807114Y-77153888D01*
X46774437Y-77046167D01*
X46719928Y-76944187D01*
X49915292Y-76944187D01*
X50871100Y-77899995D01*
X51826908Y-76944187D01*
X51731144Y-76679786D01*
X51441529Y-76538896D01*
X51129992Y-76457216D01*
X50808505Y-76437882D01*
X50489425Y-76481639D01*
X50185012Y-76586805D01*
X50011056Y-76679786D01*
X49915292Y-76944187D01*
X46719928Y-76944187D01*
X46706187Y-76918480D01*
X46646980Y-76846337D01*
X46637353Y-76834606D01*
X46637350Y-76834603D01*
X46614337Y-76806562D01*
X46586297Y-76783550D01*
X44923320Y-75120574D01*
X45145563Y-75028518D01*
X45413352Y-74849587D01*
X45536996Y-74725943D01*
X45590046Y-74778993D01*
X45613062Y-74807038D01*
X45724980Y-74898887D01*
X45800425Y-74939213D01*
X45809788Y-75034282D01*
X45846098Y-75153980D01*
X45905063Y-75264294D01*
X45984415Y-75360985D01*
X46081106Y-75440337D01*
X46191420Y-75499302D01*
X46311118Y-75535612D01*
X46435600Y-75547872D01*
X47435600Y-75547872D01*
X47560082Y-75535612D01*
X47679780Y-75499302D01*
X47790094Y-75440337D01*
X47886785Y-75360985D01*
X47935600Y-75301504D01*
X47984415Y-75360985D01*
X48081106Y-75440337D01*
X48191420Y-75499302D01*
X48311118Y-75535612D01*
X48435600Y-75547872D01*
X48649850Y-75544800D01*
X48808600Y-75386050D01*
X48808600Y-74411800D01*
X48788600Y-74411800D01*
X48788600Y-74157800D01*
X48808600Y-74157800D01*
X48808600Y-74137800D01*
X49062600Y-74137800D01*
X49062600Y-74157800D01*
X49082600Y-74157800D01*
X49082600Y-74411800D01*
X49062600Y-74411800D01*
X49062600Y-75386050D01*
X49221350Y-75544800D01*
X49435600Y-75547872D01*
X49560082Y-75535612D01*
X49679780Y-75499302D01*
X49790094Y-75440337D01*
X49886785Y-75360985D01*
X49966137Y-75264294D01*
X50025102Y-75153980D01*
X50061412Y-75034282D01*
X50064120Y-75006791D01*
X50096637Y-75028518D01*
X50394188Y-75151768D01*
X50710067Y-75214600D01*
X51032133Y-75214600D01*
X51348012Y-75151768D01*
X51645563Y-75028518D01*
X51913352Y-74849587D01*
X52141087Y-74621852D01*
X52320018Y-74354063D01*
X52443268Y-74056512D01*
X52506100Y-73740633D01*
X52506100Y-73418567D01*
X52443268Y-73102688D01*
X52320018Y-72805137D01*
X52141087Y-72537348D01*
X51913352Y-72309613D01*
X51645563Y-72130682D01*
X51617843Y-72119200D01*
X51782954Y-72119200D01*
X54314701Y-74650948D01*
X54314700Y-77877195D01*
X54311144Y-77913300D01*
X54324759Y-78051535D01*
X54325335Y-78057384D01*
X54367363Y-78195932D01*
X54435613Y-78323619D01*
X54527462Y-78435537D01*
X54555508Y-78458554D01*
X54819183Y-78722230D01*
X54760498Y-78832020D01*
X54724188Y-78951718D01*
X54711928Y-79076200D01*
X54711928Y-80776200D01*
X54724188Y-80900682D01*
X54760498Y-81020380D01*
X54819463Y-81130694D01*
X54898815Y-81227385D01*
X54959701Y-81277353D01*
X54358108Y-81878946D01*
X54330062Y-81901963D01*
X54238213Y-82013881D01*
X54169963Y-82141568D01*
X54166657Y-82152467D01*
X54127935Y-82280115D01*
X54113744Y-82424200D01*
X54117300Y-82460305D01*
X54117300Y-82964553D01*
X53825909Y-83255944D01*
X53822638Y-83249574D01*
X53678383Y-83067777D01*
X53501433Y-82917615D01*
X53298587Y-82804860D01*
X53137344Y-82747197D01*
X52954600Y-82872639D01*
X52954600Y-83864000D01*
X52974600Y-83864000D01*
X52974600Y-84107254D01*
X52963854Y-84118000D01*
X52954600Y-84118000D01*
X52954600Y-84127254D01*
X52943854Y-84138000D01*
X52700600Y-84138000D01*
X52700600Y-84118000D01*
X51802796Y-84118000D01*
X51662841Y-84302816D01*
X51726545Y-84525979D01*
X51800710Y-84670400D01*
X50830304Y-84670400D01*
X50794199Y-84666844D01*
X50650114Y-84681035D01*
X50608086Y-84693784D01*
X50511567Y-84723063D01*
X50383880Y-84791313D01*
X50271962Y-84883162D01*
X50248946Y-84911207D01*
X49484880Y-85675273D01*
X49326032Y-85516425D01*
X49082811Y-85353910D01*
X48812558Y-85241968D01*
X48525660Y-85184900D01*
X48233140Y-85184900D01*
X47946242Y-85241968D01*
X47675989Y-85353910D01*
X47432768Y-85516425D01*
X47225925Y-85723268D01*
X47109400Y-85897660D01*
X46992875Y-85723268D01*
X46786032Y-85516425D01*
X46542811Y-85353910D01*
X46272558Y-85241968D01*
X45985660Y-85184900D01*
X45693140Y-85184900D01*
X45443503Y-85234556D01*
X43933539Y-83724592D01*
X43910518Y-83696542D01*
X43889368Y-83679184D01*
X51662841Y-83679184D01*
X51802796Y-83864000D01*
X52700600Y-83864000D01*
X52700600Y-82872639D01*
X52517856Y-82747197D01*
X52356613Y-82804860D01*
X52153767Y-82917615D01*
X51976817Y-83067777D01*
X51832562Y-83249574D01*
X51726545Y-83456021D01*
X51662841Y-83679184D01*
X43889368Y-83679184D01*
X43798600Y-83604693D01*
X43670913Y-83536443D01*
X43532365Y-83494415D01*
X43424385Y-83483780D01*
X43388280Y-83480224D01*
X43352175Y-83483780D01*
X39047325Y-83483780D01*
X39011220Y-83480224D01*
X38867135Y-83494415D01*
X38728586Y-83536443D01*
X38609119Y-83600300D01*
X38600900Y-83604693D01*
X38488982Y-83696542D01*
X38465966Y-83724587D01*
X36893394Y-85297160D01*
X36883894Y-85289363D01*
X36773580Y-85230398D01*
X36653882Y-85194088D01*
X36529400Y-85181828D01*
X35965150Y-85184900D01*
X35806400Y-85343650D01*
X35806400Y-86542900D01*
X35826400Y-86542900D01*
X35826400Y-86796900D01*
X35806400Y-86796900D01*
X35806400Y-87996150D01*
X35965150Y-88154900D01*
X36529400Y-88157972D01*
X36653882Y-88145712D01*
X36773580Y-88109402D01*
X36881220Y-88051866D01*
X38353237Y-89523884D01*
X23314011Y-89429114D01*
X23303653Y-87417849D01*
X23374261Y-87772819D01*
X23520125Y-88124966D01*
X23731887Y-88441891D01*
X24001409Y-88711413D01*
X24318334Y-88923175D01*
X24670481Y-89069039D01*
X25044319Y-89143400D01*
X25425481Y-89143400D01*
X25799319Y-89069039D01*
X26151466Y-88923175D01*
X26468391Y-88711413D01*
X26737913Y-88441891D01*
X26949675Y-88124966D01*
X27095539Y-87772819D01*
X27169900Y-87398981D01*
X27169900Y-87017819D01*
X27118557Y-86759700D01*
X27767628Y-86759700D01*
X27767628Y-88459700D01*
X27779888Y-88584182D01*
X27816198Y-88703880D01*
X27875163Y-88814194D01*
X27954515Y-88910885D01*
X28051206Y-88990237D01*
X28161520Y-89049202D01*
X28281218Y-89085512D01*
X28405700Y-89097772D01*
X30105700Y-89097772D01*
X30230182Y-89085512D01*
X30349880Y-89049202D01*
X30460194Y-88990237D01*
X30556885Y-88910885D01*
X30636237Y-88814194D01*
X30695202Y-88703880D01*
X30731512Y-88584182D01*
X30743772Y-88459700D01*
X30743772Y-87519900D01*
X34191328Y-87519900D01*
X34203588Y-87644382D01*
X34239898Y-87764080D01*
X34298863Y-87874394D01*
X34378215Y-87971085D01*
X34474906Y-88050437D01*
X34585220Y-88109402D01*
X34704918Y-88145712D01*
X34829400Y-88157972D01*
X35393650Y-88154900D01*
X35552400Y-87996150D01*
X35552400Y-86796900D01*
X34353150Y-86796900D01*
X34194400Y-86955650D01*
X34191328Y-87519900D01*
X30743772Y-87519900D01*
X30743772Y-86759700D01*
X30731512Y-86635218D01*
X30695202Y-86515520D01*
X30636237Y-86405206D01*
X30556885Y-86308515D01*
X30460194Y-86229163D01*
X30349880Y-86170198D01*
X30230182Y-86133888D01*
X30105700Y-86121628D01*
X28405700Y-86121628D01*
X28281218Y-86133888D01*
X28161520Y-86170198D01*
X28051206Y-86229163D01*
X27954515Y-86308515D01*
X27875163Y-86405206D01*
X27816198Y-86515520D01*
X27779888Y-86635218D01*
X27767628Y-86759700D01*
X27118557Y-86759700D01*
X27095539Y-86643981D01*
X26949675Y-86291834D01*
X26737913Y-85974909D01*
X26582904Y-85819900D01*
X34191328Y-85819900D01*
X34194400Y-86384150D01*
X34353150Y-86542900D01*
X35552400Y-86542900D01*
X35552400Y-85343650D01*
X35393650Y-85184900D01*
X34829400Y-85181828D01*
X34704918Y-85194088D01*
X34585220Y-85230398D01*
X34474906Y-85289363D01*
X34378215Y-85368715D01*
X34298863Y-85465406D01*
X34239898Y-85575720D01*
X34203588Y-85695418D01*
X34191328Y-85819900D01*
X26582904Y-85819900D01*
X26468391Y-85705387D01*
X26151466Y-85493625D01*
X25799319Y-85347761D01*
X25425481Y-85273400D01*
X25044319Y-85273400D01*
X24670481Y-85347761D01*
X24318334Y-85493625D01*
X24001409Y-85705387D01*
X23731887Y-85974909D01*
X23520125Y-86291834D01*
X23374261Y-86643981D01*
X23301550Y-87009523D01*
X23036947Y-35629817D01*
X26896590Y-35629817D01*
X26937578Y-35901933D01*
X27030864Y-36160823D01*
X27092844Y-36276780D01*
X27332935Y-36343760D01*
X28118895Y-35557800D01*
X27332935Y-34771840D01*
X27092844Y-34838820D01*
X26975744Y-35087848D01*
X26909477Y-35354935D01*
X26896590Y-35629817D01*
X23036947Y-35629817D01*
X22989398Y-26396917D01*
X26822890Y-26396917D01*
X26863878Y-26669033D01*
X26957164Y-26927923D01*
X27019144Y-27043880D01*
X27259235Y-27110860D01*
X28045195Y-26324900D01*
X28404405Y-26324900D01*
X29190365Y-27110860D01*
X29430456Y-27043880D01*
X29547556Y-26794852D01*
X29613823Y-26527765D01*
X29626710Y-26252883D01*
X29585722Y-25980767D01*
X29492436Y-25721877D01*
X29430456Y-25605920D01*
X29190365Y-25538940D01*
X28404405Y-26324900D01*
X28045195Y-26324900D01*
X27259235Y-25538940D01*
X27019144Y-25605920D01*
X26902044Y-25854948D01*
X26835777Y-26122035D01*
X26822890Y-26396917D01*
X22989398Y-26396917D01*
X22984055Y-25359335D01*
X27438840Y-25359335D01*
X28224800Y-26145295D01*
X29010760Y-25359335D01*
X28943780Y-25119244D01*
X28694752Y-25002144D01*
X28427665Y-24935877D01*
X28152783Y-24922990D01*
X27880667Y-24963978D01*
X27621777Y-25057264D01*
X27505820Y-25119244D01*
X27438840Y-25359335D01*
X22984055Y-25359335D01*
X22954698Y-19659149D01*
X23889901Y-19655707D01*
X23810909Y-19708487D01*
X23541387Y-19978009D01*
X23329625Y-20294934D01*
X23183761Y-20647081D01*
X23109400Y-21020919D01*
X23109400Y-21402081D01*
X23183761Y-21775919D01*
X23329625Y-22128066D01*
X23541387Y-22444991D01*
X23810909Y-22714513D01*
X24127834Y-22926275D01*
X24479981Y-23072139D01*
X24853819Y-23146500D01*
X25234981Y-23146500D01*
X25608819Y-23072139D01*
X25960966Y-22926275D01*
X26277891Y-22714513D01*
X26547413Y-22444991D01*
X26759175Y-22128066D01*
X26905039Y-21775919D01*
X26979400Y-21402081D01*
X26979400Y-21020919D01*
X26943433Y-20840100D01*
X27350428Y-20840100D01*
X27362688Y-20964582D01*
X27398998Y-21084280D01*
X27457963Y-21194594D01*
X27537315Y-21291285D01*
X27634006Y-21370637D01*
X27744320Y-21429602D01*
X27778927Y-21440100D01*
X27744320Y-21450598D01*
X27634006Y-21509563D01*
X27537315Y-21588915D01*
X27457963Y-21685606D01*
X27398998Y-21795920D01*
X27362688Y-21915618D01*
X27350428Y-22040100D01*
X27350428Y-22740100D01*
X27362688Y-22864582D01*
X27398998Y-22984280D01*
X27457963Y-23094594D01*
X27537315Y-23191285D01*
X27634006Y-23270637D01*
X27744320Y-23329602D01*
X27864018Y-23365912D01*
X27988500Y-23378172D01*
X29156969Y-23378172D01*
X29166217Y-23424667D01*
X29251776Y-23631224D01*
X29375988Y-23817120D01*
X29534080Y-23975212D01*
X29719976Y-24099424D01*
X29926533Y-24184983D01*
X30145812Y-24228600D01*
X30369388Y-24228600D01*
X30588667Y-24184983D01*
X30795224Y-24099424D01*
X30981120Y-23975212D01*
X31139212Y-23817120D01*
X31263424Y-23631224D01*
X31348983Y-23424667D01*
X31392600Y-23205388D01*
X31392600Y-22981812D01*
X31348983Y-22762533D01*
X31263424Y-22555976D01*
X31139212Y-22370080D01*
X30981120Y-22211988D01*
X30795224Y-22087776D01*
X30588667Y-22002217D01*
X30369388Y-21958600D01*
X30185505Y-21958600D01*
X30111038Y-21867862D01*
X30018357Y-21791800D01*
X35183428Y-21791800D01*
X35186500Y-22006050D01*
X35345250Y-22164800D01*
X36319500Y-22164800D01*
X36319500Y-21315550D01*
X36573500Y-21315550D01*
X36573500Y-22164800D01*
X37547750Y-22164800D01*
X37706500Y-22006050D01*
X37706913Y-21977200D01*
X38150128Y-21977200D01*
X38153200Y-22191450D01*
X38311950Y-22350200D01*
X39286200Y-22350200D01*
X39286200Y-21500950D01*
X39540200Y-21500950D01*
X39540200Y-22350200D01*
X40514450Y-22350200D01*
X40673200Y-22191450D01*
X40676272Y-21977200D01*
X40664012Y-21852718D01*
X40627702Y-21733020D01*
X40568737Y-21622706D01*
X40489385Y-21526015D01*
X40392694Y-21446663D01*
X40282380Y-21387698D01*
X40162682Y-21351388D01*
X40038200Y-21339128D01*
X39698950Y-21342200D01*
X39540200Y-21500950D01*
X39286200Y-21500950D01*
X39127450Y-21342200D01*
X38788200Y-21339128D01*
X38663718Y-21351388D01*
X38544020Y-21387698D01*
X38433706Y-21446663D01*
X38337015Y-21526015D01*
X38257663Y-21622706D01*
X38198698Y-21733020D01*
X38162388Y-21852718D01*
X38150128Y-21977200D01*
X37706913Y-21977200D01*
X37709572Y-21791800D01*
X37697312Y-21667318D01*
X37661002Y-21547620D01*
X37602037Y-21437306D01*
X37522685Y-21340615D01*
X37425994Y-21261263D01*
X37315680Y-21202298D01*
X37195982Y-21165988D01*
X37071500Y-21153728D01*
X36732250Y-21156800D01*
X36573500Y-21315550D01*
X36319500Y-21315550D01*
X36160750Y-21156800D01*
X35821500Y-21153728D01*
X35697018Y-21165988D01*
X35577320Y-21202298D01*
X35467006Y-21261263D01*
X35370315Y-21340615D01*
X35290963Y-21437306D01*
X35231998Y-21547620D01*
X35195688Y-21667318D01*
X35183428Y-21791800D01*
X30018357Y-21791800D01*
X29999120Y-21776013D01*
X29871433Y-21707763D01*
X29823032Y-21693081D01*
X29819037Y-21685606D01*
X29739685Y-21588915D01*
X29642994Y-21509563D01*
X29532680Y-21450598D01*
X29498073Y-21440100D01*
X29532680Y-21429602D01*
X29642994Y-21370637D01*
X29739685Y-21291285D01*
X29819037Y-21194594D01*
X29857606Y-21122437D01*
X44331300Y-21122437D01*
X44331300Y-21336163D01*
X44372996Y-21545783D01*
X44454785Y-21743240D01*
X44573525Y-21920947D01*
X44724653Y-22072075D01*
X44902360Y-22190815D01*
X45099817Y-22272604D01*
X45309437Y-22314300D01*
X45523163Y-22314300D01*
X45732783Y-22272604D01*
X45930240Y-22190815D01*
X46107947Y-22072075D01*
X46259075Y-21920947D01*
X46377815Y-21743240D01*
X46459604Y-21545783D01*
X46501300Y-21336163D01*
X46501300Y-21122437D01*
X47331300Y-21122437D01*
X47331300Y-21336163D01*
X47372996Y-21545783D01*
X47454785Y-21743240D01*
X47573525Y-21920947D01*
X47724653Y-22072075D01*
X47902360Y-22190815D01*
X48099817Y-22272604D01*
X48309437Y-22314300D01*
X48523163Y-22314300D01*
X48732783Y-22272604D01*
X48930240Y-22190815D01*
X49107947Y-22072075D01*
X49258135Y-21921887D01*
X52806546Y-21921887D01*
X52862050Y-22217637D01*
X53084886Y-22363502D01*
X54001186Y-21834476D01*
X54509185Y-21834476D01*
X55130874Y-22911273D01*
X55397092Y-22896896D01*
X55511653Y-22774587D01*
X55681533Y-22526214D01*
X55799693Y-22249470D01*
X55861593Y-21954991D01*
X55864854Y-21654095D01*
X55809350Y-21358345D01*
X55586514Y-21212480D01*
X54509185Y-21834476D01*
X54001186Y-21834476D01*
X54162215Y-21741506D01*
X53540526Y-20664709D01*
X53274308Y-20679086D01*
X53159747Y-20801395D01*
X52989867Y-21049768D01*
X52871707Y-21326512D01*
X52809807Y-21620991D01*
X52806546Y-21921887D01*
X49258135Y-21921887D01*
X49259075Y-21920947D01*
X49377815Y-21743240D01*
X49459604Y-21545783D01*
X49501300Y-21336163D01*
X49501300Y-21122437D01*
X49459604Y-20912817D01*
X49377815Y-20715360D01*
X49259113Y-20537709D01*
X53760496Y-20537709D01*
X54382185Y-21614506D01*
X55459514Y-20992510D01*
X55444609Y-20726596D01*
X55216234Y-20530653D01*
X54954020Y-20383029D01*
X54668044Y-20289396D01*
X54369297Y-20253354D01*
X54069259Y-20276288D01*
X53906056Y-20314346D01*
X53760496Y-20537709D01*
X49259113Y-20537709D01*
X49259075Y-20537653D01*
X49107947Y-20386525D01*
X48930240Y-20267785D01*
X48732783Y-20185996D01*
X48523163Y-20144300D01*
X48309437Y-20144300D01*
X48099817Y-20185996D01*
X47902360Y-20267785D01*
X47724653Y-20386525D01*
X47573525Y-20537653D01*
X47454785Y-20715360D01*
X47372996Y-20912817D01*
X47331300Y-21122437D01*
X46501300Y-21122437D01*
X46459604Y-20912817D01*
X46377815Y-20715360D01*
X46259075Y-20537653D01*
X46107947Y-20386525D01*
X45930240Y-20267785D01*
X45732783Y-20185996D01*
X45523163Y-20144300D01*
X45309437Y-20144300D01*
X45099817Y-20185996D01*
X44902360Y-20267785D01*
X44724653Y-20386525D01*
X44573525Y-20537653D01*
X44454785Y-20715360D01*
X44372996Y-20912817D01*
X44331300Y-21122437D01*
X29857606Y-21122437D01*
X29878002Y-21084280D01*
X29914312Y-20964582D01*
X29926572Y-20840100D01*
X29923500Y-20775850D01*
X29764750Y-20617100D01*
X28765500Y-20617100D01*
X28765500Y-20637100D01*
X28511500Y-20637100D01*
X28511500Y-20617100D01*
X27512250Y-20617100D01*
X27353500Y-20775850D01*
X27350428Y-20840100D01*
X26943433Y-20840100D01*
X26905039Y-20647081D01*
X26759175Y-20294934D01*
X26547413Y-19978009D01*
X26277891Y-19708487D01*
X26186249Y-19647254D01*
X27594395Y-19642070D01*
X27537315Y-19688915D01*
X27457963Y-19785606D01*
X27398998Y-19895920D01*
X27362688Y-20015618D01*
X27350428Y-20140100D01*
X27353500Y-20204350D01*
X27512250Y-20363100D01*
X28511500Y-20363100D01*
X28511500Y-20343100D01*
X28765500Y-20343100D01*
X28765500Y-20363100D01*
X29764750Y-20363100D01*
X29923500Y-20204350D01*
X29926572Y-20140100D01*
X29914312Y-20015618D01*
X29878002Y-19895920D01*
X29819037Y-19785606D01*
X29739685Y-19688915D01*
X29673280Y-19634418D01*
X57494235Y-19532010D01*
X57180834Y-19661825D01*
G04 #@! TA.AperFunction,Conductor*
D33*
G36*
X57180834Y-19661825D02*
G01*
X56863909Y-19873587D01*
X56594387Y-20143109D01*
X56382625Y-20460034D01*
X56236761Y-20812181D01*
X56162400Y-21186019D01*
X56162400Y-21567181D01*
X56236761Y-21941019D01*
X56382625Y-22293166D01*
X56594387Y-22610091D01*
X56863909Y-22879613D01*
X57180834Y-23091375D01*
X57532981Y-23237239D01*
X57906819Y-23311600D01*
X58287981Y-23311600D01*
X58661819Y-23237239D01*
X59013966Y-23091375D01*
X59330891Y-22879613D01*
X59600413Y-22610091D01*
X59812175Y-22293166D01*
X59958039Y-21941019D01*
X59958695Y-21937722D01*
X59832571Y-61210424D01*
X55289219Y-56667072D01*
X56437900Y-56667072D01*
X56562382Y-56654812D01*
X56682080Y-56618502D01*
X56792394Y-56559537D01*
X56889085Y-56480185D01*
X56968437Y-56383494D01*
X57027402Y-56273180D01*
X57063712Y-56153482D01*
X57075972Y-56029000D01*
X57075972Y-54329000D01*
X57063712Y-54204518D01*
X57027402Y-54084820D01*
X56968437Y-53974506D01*
X56889085Y-53877815D01*
X56792394Y-53798463D01*
X56682080Y-53739498D01*
X56609520Y-53717487D01*
X56741375Y-53585632D01*
X56903890Y-53342411D01*
X57015832Y-53072158D01*
X57072900Y-52785260D01*
X57072900Y-52492740D01*
X57015832Y-52205842D01*
X56903890Y-51935589D01*
X56741375Y-51692368D01*
X56534532Y-51485525D01*
X56360140Y-51369000D01*
X56534532Y-51252475D01*
X56741375Y-51045632D01*
X56903890Y-50802411D01*
X57015832Y-50532158D01*
X57072900Y-50245260D01*
X57072900Y-49952740D01*
X57015832Y-49665842D01*
X56903890Y-49395589D01*
X56741375Y-49152368D01*
X56534532Y-48945525D01*
X56360140Y-48829000D01*
X56534532Y-48712475D01*
X56741375Y-48505632D01*
X56903890Y-48262411D01*
X57015832Y-47992158D01*
X57072900Y-47705260D01*
X57072900Y-47412740D01*
X57015832Y-47125842D01*
X56903890Y-46855589D01*
X56741375Y-46612368D01*
X56534532Y-46405525D01*
X56309372Y-46255078D01*
X56294397Y-46205713D01*
X56270237Y-46126067D01*
X56201987Y-45998380D01*
X56110138Y-45886462D01*
X56082093Y-45863446D01*
X53425150Y-43206504D01*
X53483776Y-43167041D01*
X53491332Y-43160797D01*
X53579498Y-43072028D01*
X53585690Y-43064430D01*
X53654791Y-42960254D01*
X53659383Y-42951594D01*
X53706887Y-42835805D01*
X53709700Y-42826416D01*
X53733677Y-42703703D01*
X53734605Y-42693946D01*
X53737468Y-42631368D01*
X53727468Y-39681368D01*
X53724290Y-39619883D01*
X53723329Y-39610297D01*
X53699037Y-39488728D01*
X53696192Y-39479349D01*
X53648319Y-39363773D01*
X53643698Y-39355128D01*
X53628091Y-39331772D01*
X54029400Y-39331772D01*
X54153882Y-39319512D01*
X54273580Y-39283202D01*
X54383894Y-39224237D01*
X54480585Y-39144885D01*
X54559937Y-39048194D01*
X54618902Y-38937880D01*
X54655212Y-38818182D01*
X54667472Y-38693700D01*
X54667472Y-37193700D01*
X54655212Y-37069218D01*
X54618902Y-36949520D01*
X54559937Y-36839206D01*
X54480585Y-36742515D01*
X54383894Y-36663163D01*
X54273580Y-36604198D01*
X54195578Y-36580536D01*
X54143487Y-36483080D01*
X54051638Y-36371162D01*
X54023587Y-36348141D01*
X53825659Y-36150213D01*
X53802638Y-36122162D01*
X53690720Y-36030313D01*
X53563033Y-35962063D01*
X53424485Y-35920035D01*
X53316505Y-35909400D01*
X53280400Y-35905844D01*
X53244295Y-35909400D01*
X49864532Y-35909400D01*
X49717920Y-35762788D01*
X49532024Y-35638576D01*
X49325467Y-35553017D01*
X49106188Y-35509400D01*
X48898847Y-35509400D01*
X48144658Y-34755212D01*
X48121638Y-34727162D01*
X48009720Y-34635313D01*
X47882033Y-34567063D01*
X47743485Y-34525035D01*
X47635505Y-34514400D01*
X47599400Y-34510844D01*
X47563295Y-34514400D01*
X44984594Y-34514400D01*
X44948499Y-34510845D01*
X44912404Y-34514400D01*
X44912395Y-34514400D01*
X44804415Y-34525035D01*
X44665867Y-34567063D01*
X44538180Y-34635313D01*
X44426262Y-34727162D01*
X44403246Y-34755207D01*
X43663104Y-35495350D01*
X43649594Y-35484263D01*
X43539280Y-35425298D01*
X43419582Y-35388988D01*
X43295100Y-35376728D01*
X42295100Y-35376728D01*
X42170618Y-35388988D01*
X42050920Y-35425298D01*
X41940606Y-35484263D01*
X41843915Y-35563615D01*
X41764563Y-35660306D01*
X41705598Y-35770620D01*
X41669288Y-35890318D01*
X41657028Y-36014800D01*
X41657028Y-37614800D01*
X41669288Y-37739282D01*
X41705598Y-37858980D01*
X41764563Y-37969294D01*
X41843915Y-38065985D01*
X41940606Y-38145337D01*
X42050920Y-38204302D01*
X42170618Y-38240612D01*
X42295100Y-38252872D01*
X43295100Y-38252872D01*
X43419582Y-38240612D01*
X43539280Y-38204302D01*
X43649594Y-38145337D01*
X43746285Y-38065985D01*
X43825637Y-37969294D01*
X43884602Y-37858980D01*
X43920912Y-37739282D01*
X43933172Y-37614800D01*
X43933172Y-37467665D01*
X44005720Y-37428887D01*
X44117638Y-37337038D01*
X44209487Y-37225120D01*
X44277737Y-37097433D01*
X44319765Y-36958885D01*
X44324277Y-36913069D01*
X44657028Y-36580318D01*
X44657028Y-37614800D01*
X44669288Y-37739282D01*
X44705598Y-37858980D01*
X44764563Y-37969294D01*
X44843915Y-38065985D01*
X44940606Y-38145337D01*
X45050920Y-38204302D01*
X45170618Y-38240612D01*
X45295100Y-38252872D01*
X46295100Y-38252872D01*
X46419582Y-38240612D01*
X46539280Y-38204302D01*
X46649594Y-38145337D01*
X46746285Y-38065985D01*
X46773715Y-38032561D01*
X49209046Y-40467893D01*
X49232062Y-40495938D01*
X49343980Y-40587787D01*
X49471667Y-40656037D01*
X49610215Y-40698065D01*
X49718195Y-40708700D01*
X49718204Y-40708700D01*
X49754299Y-40712255D01*
X49790394Y-40708700D01*
X50301328Y-40708700D01*
X50301328Y-42633700D01*
X50304402Y-42696256D01*
X50305363Y-42706011D01*
X50329763Y-42828672D01*
X50332608Y-42838051D01*
X50380481Y-42953627D01*
X50385102Y-42962272D01*
X50454608Y-43066289D01*
X50460826Y-43073865D01*
X50549235Y-43162274D01*
X50556811Y-43168492D01*
X50660828Y-43237998D01*
X50669473Y-43242619D01*
X50785049Y-43290492D01*
X50794428Y-43293337D01*
X50917089Y-43317737D01*
X50926844Y-43318698D01*
X50989400Y-43321772D01*
X51323471Y-43321772D01*
X51414918Y-43349512D01*
X51496756Y-43357572D01*
X51517163Y-43382438D01*
X51545208Y-43405454D01*
X54593273Y-46453520D01*
X54434425Y-46612368D01*
X54271910Y-46855589D01*
X54159968Y-47125842D01*
X54102900Y-47412740D01*
X54102900Y-47705260D01*
X54159968Y-47992158D01*
X54271910Y-48262411D01*
X54434425Y-48505632D01*
X54641268Y-48712475D01*
X54815660Y-48829000D01*
X54641268Y-48945525D01*
X54434425Y-49152368D01*
X54271910Y-49395589D01*
X54159968Y-49665842D01*
X54102900Y-49952740D01*
X54102900Y-50245260D01*
X54159968Y-50532158D01*
X54271910Y-50802411D01*
X54434425Y-51045632D01*
X54641268Y-51252475D01*
X54815660Y-51369000D01*
X54641268Y-51485525D01*
X54434425Y-51692368D01*
X54271910Y-51935589D01*
X54159968Y-52205842D01*
X54102900Y-52492740D01*
X54102900Y-52785260D01*
X54159968Y-53072158D01*
X54271910Y-53342411D01*
X54434425Y-53585632D01*
X54566280Y-53717487D01*
X54493720Y-53739498D01*
X54383406Y-53798463D01*
X54286715Y-53877815D01*
X54207363Y-53974506D01*
X54148398Y-54084820D01*
X54112088Y-54204518D01*
X54099828Y-54329000D01*
X54099828Y-55477682D01*
X49846859Y-51224713D01*
X49823838Y-51196662D01*
X49711920Y-51104813D01*
X49584233Y-51036563D01*
X49445685Y-50994535D01*
X49337705Y-50983900D01*
X49301600Y-50980344D01*
X49265495Y-50983900D01*
X43448450Y-50983900D01*
X43397350Y-50932800D01*
X42423100Y-50932800D01*
X42423100Y-50952800D01*
X42169100Y-50952800D01*
X42169100Y-50932800D01*
X41194850Y-50932800D01*
X41143750Y-50983900D01*
X41088604Y-50983900D01*
X41052499Y-50980344D01*
X40908414Y-50994535D01*
X40866386Y-51007284D01*
X40769867Y-51036563D01*
X40642180Y-51104813D01*
X40530262Y-51196662D01*
X40507246Y-51224707D01*
X38271100Y-53460854D01*
X38271100Y-53201296D01*
X38274655Y-53165199D01*
X38271100Y-53129102D01*
X38271100Y-53129095D01*
X38260465Y-53021115D01*
X38218437Y-52882567D01*
X38150187Y-52754880D01*
X38058338Y-52642962D01*
X38030293Y-52619946D01*
X36860000Y-51449654D01*
X36860000Y-51242312D01*
X36816383Y-51023033D01*
X36730824Y-50816476D01*
X36606612Y-50630580D01*
X36448520Y-50472488D01*
X36262624Y-50348276D01*
X36170701Y-50310200D01*
X38408495Y-50310200D01*
X38444600Y-50313756D01*
X38480705Y-50310200D01*
X38588685Y-50299565D01*
X38727233Y-50257537D01*
X38854920Y-50189287D01*
X38966838Y-50097438D01*
X38989859Y-50069387D01*
X39308387Y-49750859D01*
X39336438Y-49727838D01*
X39428287Y-49615920D01*
X39496537Y-49488233D01*
X39538565Y-49349685D01*
X39549200Y-49241705D01*
X39549200Y-49241696D01*
X39552755Y-49205601D01*
X39549200Y-49169506D01*
X39549200Y-48212705D01*
X39552756Y-48176600D01*
X39538565Y-48032515D01*
X39532563Y-48012728D01*
X39496537Y-47893967D01*
X39428287Y-47766280D01*
X39384317Y-47712703D01*
X39359453Y-47682406D01*
X39359450Y-47682403D01*
X39336437Y-47654362D01*
X39308397Y-47631350D01*
X39099026Y-47421979D01*
X39103302Y-47413980D01*
X39139612Y-47294282D01*
X39151872Y-47169800D01*
X39151872Y-46904400D01*
X39545054Y-46904400D01*
X40975530Y-48334877D01*
X40964428Y-48447600D01*
X40964428Y-49447600D01*
X40976688Y-49572082D01*
X41012998Y-49691780D01*
X41071963Y-49802094D01*
X41151315Y-49898785D01*
X41170646Y-49914650D01*
X41140563Y-49951306D01*
X41081598Y-50061620D01*
X41045288Y-50181318D01*
X41033028Y-50305800D01*
X41036100Y-50520050D01*
X41194850Y-50678800D01*
X42169100Y-50678800D01*
X42169100Y-50658800D01*
X42423100Y-50658800D01*
X42423100Y-50678800D01*
X43397350Y-50678800D01*
X43556100Y-50520050D01*
X43559172Y-50305800D01*
X43546912Y-50181318D01*
X43510602Y-50061620D01*
X43451637Y-49951306D01*
X43372285Y-49854615D01*
X43352954Y-49838750D01*
X43383037Y-49802094D01*
X43442002Y-49691780D01*
X43478312Y-49572082D01*
X43490572Y-49447600D01*
X43490572Y-48685100D01*
X45279487Y-48685100D01*
X45378301Y-48832986D01*
X45571214Y-49025899D01*
X45798057Y-49177471D01*
X46050111Y-49281875D01*
X46317689Y-49335100D01*
X46590511Y-49335100D01*
X46858089Y-49281875D01*
X47110143Y-49177471D01*
X47336986Y-49025899D01*
X47529899Y-48832986D01*
X47681471Y-48606143D01*
X47785875Y-48354089D01*
X47839100Y-48086511D01*
X47839100Y-47813689D01*
X47785875Y-47546111D01*
X47681471Y-47294057D01*
X47529899Y-47067214D01*
X47336986Y-46874301D01*
X47110143Y-46722729D01*
X46858089Y-46618325D01*
X46590511Y-46565100D01*
X46317689Y-46565100D01*
X46050111Y-46618325D01*
X45798057Y-46722729D01*
X45571214Y-46874301D01*
X45378301Y-47067214D01*
X45279487Y-47215100D01*
X43469250Y-47215100D01*
X43328750Y-47074600D01*
X42354500Y-47074600D01*
X42354500Y-47094600D01*
X42100500Y-47094600D01*
X42100500Y-47074600D01*
X42080500Y-47074600D01*
X42080500Y-46820600D01*
X42100500Y-46820600D01*
X42100500Y-45971350D01*
X42354500Y-45971350D01*
X42354500Y-46820600D01*
X43328750Y-46820600D01*
X43487500Y-46661850D01*
X43490572Y-46447600D01*
X43478312Y-46323118D01*
X43442002Y-46203420D01*
X43383037Y-46093106D01*
X43303685Y-45996415D01*
X43206994Y-45917063D01*
X43096680Y-45858098D01*
X42976982Y-45821788D01*
X42852500Y-45809528D01*
X42513250Y-45812600D01*
X42354500Y-45971350D01*
X42100500Y-45971350D01*
X41941750Y-45812600D01*
X41602500Y-45809528D01*
X41478018Y-45821788D01*
X41358320Y-45858098D01*
X41248006Y-45917063D01*
X41151315Y-45996415D01*
X41071963Y-46093106D01*
X41012998Y-46203420D01*
X40992044Y-46272497D01*
X40394759Y-45675212D01*
X40371738Y-45647162D01*
X40259820Y-45555313D01*
X40132133Y-45487063D01*
X39993585Y-45445035D01*
X39885605Y-45434400D01*
X39849500Y-45430844D01*
X39813395Y-45434400D01*
X37087105Y-45434400D01*
X37051000Y-45430844D01*
X36906915Y-45445035D01*
X36768366Y-45487063D01*
X36656915Y-45546635D01*
X36640680Y-45555313D01*
X36528762Y-45647162D01*
X36505746Y-45675207D01*
X34964754Y-47216200D01*
X32961705Y-47216200D01*
X32925600Y-47212644D01*
X32889495Y-47216200D01*
X32781515Y-47226835D01*
X32642967Y-47268863D01*
X32626247Y-47277800D01*
X32429250Y-47277800D01*
X32270500Y-47436550D01*
X32268604Y-47568749D01*
X26087000Y-53750354D01*
X26087000Y-48161665D01*
X27547940Y-48161665D01*
X27614920Y-48401756D01*
X27863948Y-48518856D01*
X28131035Y-48585123D01*
X28405917Y-48598010D01*
X28678033Y-48557022D01*
X28936923Y-48463736D01*
X29052880Y-48401756D01*
X29119860Y-48161665D01*
X28333900Y-47375705D01*
X27547940Y-48161665D01*
X26087000Y-48161665D01*
X26087000Y-47268117D01*
X26931990Y-47268117D01*
X26972978Y-47540233D01*
X27066264Y-47799123D01*
X27128244Y-47915080D01*
X27368335Y-47982060D01*
X28154295Y-47196100D01*
X28513505Y-47196100D01*
X29299465Y-47982060D01*
X29539556Y-47915080D01*
X29656656Y-47666052D01*
X29722923Y-47398965D01*
X29735810Y-47124083D01*
X29694822Y-46851967D01*
X29622336Y-46650800D01*
X32267428Y-46650800D01*
X32270500Y-46865050D01*
X32429250Y-47023800D01*
X33403500Y-47023800D01*
X33403500Y-46174550D01*
X33657500Y-46174550D01*
X33657500Y-47023800D01*
X34631750Y-47023800D01*
X34790500Y-46865050D01*
X34793572Y-46650800D01*
X34781312Y-46526318D01*
X34745002Y-46406620D01*
X34686037Y-46296306D01*
X34606685Y-46199615D01*
X34509994Y-46120263D01*
X34399680Y-46061298D01*
X34279982Y-46024988D01*
X34155500Y-46012728D01*
X33816250Y-46015800D01*
X33657500Y-46174550D01*
X33403500Y-46174550D01*
X33244750Y-46015800D01*
X32905500Y-46012728D01*
X32781018Y-46024988D01*
X32661320Y-46061298D01*
X32551006Y-46120263D01*
X32454315Y-46199615D01*
X32374963Y-46296306D01*
X32315998Y-46406620D01*
X32279688Y-46526318D01*
X32267428Y-46650800D01*
X29622336Y-46650800D01*
X29601536Y-46593077D01*
X29539556Y-46477120D01*
X29299465Y-46410140D01*
X28513505Y-47196100D01*
X28154295Y-47196100D01*
X27368335Y-46410140D01*
X27128244Y-46477120D01*
X27011144Y-46726148D01*
X26944877Y-46993235D01*
X26931990Y-47268117D01*
X26087000Y-47268117D01*
X26087000Y-44989946D01*
X27092584Y-43984362D01*
X27085895Y-43994373D01*
X26980586Y-44248610D01*
X26926900Y-44518508D01*
X26926900Y-44793692D01*
X26980586Y-45063590D01*
X27085895Y-45317827D01*
X27238780Y-45546635D01*
X27433365Y-45741220D01*
X27662173Y-45894105D01*
X27738495Y-45925719D01*
X27730877Y-45928464D01*
X27614920Y-45990444D01*
X27547940Y-46230535D01*
X28333900Y-47016495D01*
X29119860Y-46230535D01*
X29052880Y-45990444D01*
X28912457Y-45924413D01*
X28985627Y-45894105D01*
X29214435Y-45741220D01*
X29409020Y-45546635D01*
X29561905Y-45317827D01*
X29667214Y-45063590D01*
X29720900Y-44793692D01*
X29720900Y-44518508D01*
X29667214Y-44248610D01*
X29561905Y-43994373D01*
X29409020Y-43765565D01*
X29214435Y-43570980D01*
X28985627Y-43418095D01*
X28731390Y-43312786D01*
X28461492Y-43259100D01*
X28186308Y-43259100D01*
X27916410Y-43312786D01*
X27662173Y-43418095D01*
X27652163Y-43424784D01*
X30316197Y-40760750D01*
X30344237Y-40737738D01*
X30367250Y-40709697D01*
X30367253Y-40709694D01*
X30436087Y-40625820D01*
X30504337Y-40498134D01*
X30546365Y-40359585D01*
X30560556Y-40215500D01*
X30557000Y-40179395D01*
X30557000Y-37368202D01*
X32451000Y-37368202D01*
X32451000Y-37658398D01*
X32507614Y-37943017D01*
X32618667Y-38211122D01*
X32779891Y-38452410D01*
X32985090Y-38657609D01*
X33226378Y-38818833D01*
X33494483Y-38929886D01*
X33778524Y-38986385D01*
X33777614Y-38988583D01*
X33721000Y-39273202D01*
X33721000Y-39563398D01*
X33777614Y-39848017D01*
X33888667Y-40116122D01*
X34049891Y-40357410D01*
X34255090Y-40562609D01*
X34496378Y-40723833D01*
X34764483Y-40834886D01*
X35049102Y-40891500D01*
X35339298Y-40891500D01*
X35623917Y-40834886D01*
X35892022Y-40723833D01*
X36133310Y-40562609D01*
X36338509Y-40357410D01*
X36499733Y-40116122D01*
X36610786Y-39848017D01*
X36667400Y-39563398D01*
X36667400Y-39273202D01*
X36610786Y-38988583D01*
X36607709Y-38981154D01*
X36820357Y-38950145D01*
X37093828Y-38853054D01*
X37228362Y-38781144D01*
X37304570Y-38533275D01*
X36464200Y-37692905D01*
X36450058Y-37707048D01*
X36270453Y-37527443D01*
X36284595Y-37513300D01*
X36643805Y-37513300D01*
X37484175Y-38353670D01*
X37732044Y-38277462D01*
X37856763Y-38015435D01*
X37927968Y-37734111D01*
X37942919Y-37444301D01*
X37901045Y-37157143D01*
X37803954Y-36883672D01*
X37732044Y-36749138D01*
X37484175Y-36672930D01*
X36643805Y-37513300D01*
X36284595Y-37513300D01*
X35444225Y-36672930D01*
X35196356Y-36749138D01*
X35191801Y-36758708D01*
X35068509Y-36574190D01*
X34987644Y-36493325D01*
X35623830Y-36493325D01*
X36464200Y-37333695D01*
X37304570Y-36493325D01*
X37228362Y-36245456D01*
X36966335Y-36120737D01*
X36685011Y-36049532D01*
X36395201Y-36034581D01*
X36108043Y-36076455D01*
X35834572Y-36173546D01*
X35700038Y-36245456D01*
X35623830Y-36493325D01*
X34987644Y-36493325D01*
X34863310Y-36368991D01*
X34622022Y-36207767D01*
X34353917Y-36096714D01*
X34069298Y-36040100D01*
X33779102Y-36040100D01*
X33494483Y-36096714D01*
X33226378Y-36207767D01*
X32985090Y-36368991D01*
X32779891Y-36574190D01*
X32618667Y-36815478D01*
X32507614Y-37083583D01*
X32451000Y-37368202D01*
X30557000Y-37368202D01*
X30557000Y-31187100D01*
X32159815Y-31187100D01*
X32193615Y-31228285D01*
X32290306Y-31307637D01*
X32400620Y-31366602D01*
X32520318Y-31402912D01*
X32644800Y-31415172D01*
X33704800Y-31415172D01*
X33829282Y-31402912D01*
X33948980Y-31366602D01*
X34059294Y-31307637D01*
X34155985Y-31228285D01*
X34214863Y-31156542D01*
X34287733Y-31134437D01*
X34309550Y-31122776D01*
X34314263Y-31131594D01*
X34393615Y-31228285D01*
X34490306Y-31307637D01*
X34600620Y-31366602D01*
X34720318Y-31402912D01*
X34844800Y-31415172D01*
X35904800Y-31415172D01*
X36029282Y-31402912D01*
X36148980Y-31366602D01*
X36259294Y-31307637D01*
X36355985Y-31228285D01*
X36414863Y-31156542D01*
X36487733Y-31134437D01*
X36615420Y-31066187D01*
X36727338Y-30974338D01*
X36819187Y-30862420D01*
X36887437Y-30734733D01*
X36929465Y-30596185D01*
X36943656Y-30452100D01*
X36940100Y-30415995D01*
X36940100Y-28790046D01*
X39890446Y-25839700D01*
X49987128Y-25839700D01*
X49987128Y-27139700D01*
X49999388Y-27264182D01*
X50035698Y-27383880D01*
X50094663Y-27494194D01*
X50174015Y-27590885D01*
X50175773Y-27592328D01*
X50170717Y-27604533D01*
X50127100Y-27823812D01*
X50127100Y-28047388D01*
X50170717Y-28266667D01*
X50256276Y-28473224D01*
X50380488Y-28659120D01*
X50538580Y-28817212D01*
X50724476Y-28941424D01*
X50931033Y-29026983D01*
X51150312Y-29070600D01*
X51373888Y-29070600D01*
X51593167Y-29026983D01*
X51799724Y-28941424D01*
X51985620Y-28817212D01*
X52143712Y-28659120D01*
X52267924Y-28473224D01*
X52353483Y-28266667D01*
X52397100Y-28047388D01*
X52397100Y-27823812D01*
X52384527Y-27760600D01*
X52400718Y-27765512D01*
X52525200Y-27777772D01*
X53225200Y-27777772D01*
X53349682Y-27765512D01*
X53469380Y-27729202D01*
X53579694Y-27670237D01*
X53676385Y-27590885D01*
X53755737Y-27494194D01*
X53814702Y-27383880D01*
X53851012Y-27264182D01*
X53854901Y-27224700D01*
X54794554Y-27224700D01*
X54995370Y-27425516D01*
X55002439Y-27435380D01*
X55046490Y-27476636D01*
X55063507Y-27493653D01*
X55072827Y-27501302D01*
X55108113Y-27534349D01*
X55128667Y-27547129D01*
X55147380Y-27562487D01*
X55190019Y-27585278D01*
X55231065Y-27610800D01*
X55253718Y-27619325D01*
X55275066Y-27630736D01*
X55321325Y-27644769D01*
X55366569Y-27661796D01*
X55390451Y-27665738D01*
X55413615Y-27672765D01*
X55461725Y-27677503D01*
X55509418Y-27685376D01*
X55533609Y-27684583D01*
X55557700Y-27686956D01*
X55605816Y-27682217D01*
X55654122Y-27680634D01*
X55677689Y-27675138D01*
X55701785Y-27672765D01*
X55748053Y-27658729D01*
X55795122Y-27647753D01*
X55817169Y-27637763D01*
X55840333Y-27630736D01*
X55882966Y-27607949D01*
X55893951Y-27602971D01*
X55911213Y-27593004D01*
X55993690Y-27735859D01*
X56066549Y-27837533D01*
X56157843Y-27923040D01*
X56264065Y-27989092D01*
X56381132Y-28033153D01*
X56504545Y-28053529D01*
X56629562Y-28049436D01*
X56751378Y-28021033D01*
X56865313Y-27969410D01*
X58424159Y-27069410D01*
X58525833Y-26996551D01*
X58611340Y-26905257D01*
X58677392Y-26799035D01*
X58721453Y-26681968D01*
X58741829Y-26558555D01*
X58737736Y-26433538D01*
X58709333Y-26311722D01*
X58657710Y-26197787D01*
X57757710Y-24638941D01*
X57684851Y-24537267D01*
X57593557Y-24451760D01*
X57487335Y-24385708D01*
X57370268Y-24341647D01*
X57246855Y-24321271D01*
X57121838Y-24325364D01*
X57000022Y-24353767D01*
X56886087Y-24405390D01*
X55327241Y-25305390D01*
X55225567Y-25378249D01*
X55140060Y-25469543D01*
X55074008Y-25575765D01*
X55029947Y-25692832D01*
X55019732Y-25754700D01*
X53854901Y-25754700D01*
X53851012Y-25715218D01*
X53814702Y-25595520D01*
X53755737Y-25485206D01*
X53676385Y-25388515D01*
X53579694Y-25309163D01*
X53469380Y-25250198D01*
X53349682Y-25213888D01*
X53225200Y-25201628D01*
X52525200Y-25201628D01*
X52400718Y-25213888D01*
X52281020Y-25250198D01*
X52170706Y-25309163D01*
X52074015Y-25388515D01*
X51994663Y-25485206D01*
X51935698Y-25595520D01*
X51925200Y-25630127D01*
X51914702Y-25595520D01*
X51855737Y-25485206D01*
X51776385Y-25388515D01*
X51679694Y-25309163D01*
X51569380Y-25250198D01*
X51449682Y-25213888D01*
X51325200Y-25201628D01*
X50625200Y-25201628D01*
X50500718Y-25213888D01*
X50381020Y-25250198D01*
X50270706Y-25309163D01*
X50174015Y-25388515D01*
X50094663Y-25485206D01*
X50035698Y-25595520D01*
X49999388Y-25715218D01*
X49987128Y-25839700D01*
X39890446Y-25839700D01*
X39907393Y-25822754D01*
X39935438Y-25799738D01*
X40027287Y-25687820D01*
X40067613Y-25612375D01*
X40162682Y-25603012D01*
X40282380Y-25566702D01*
X40392694Y-25507737D01*
X40489385Y-25428385D01*
X40496677Y-25419500D01*
X41896668Y-25419500D01*
X42010680Y-25533512D01*
X42196576Y-25657724D01*
X42403133Y-25743283D01*
X42622412Y-25786900D01*
X42845988Y-25786900D01*
X43065267Y-25743283D01*
X43271824Y-25657724D01*
X43457720Y-25533512D01*
X43615812Y-25375420D01*
X43740024Y-25189524D01*
X43825583Y-24982967D01*
X43869200Y-24763688D01*
X43869200Y-24540112D01*
X43825583Y-24320833D01*
X43740024Y-24114276D01*
X43615812Y-23928380D01*
X43457720Y-23770288D01*
X43271824Y-23646076D01*
X43065267Y-23560517D01*
X42845988Y-23516900D01*
X42622412Y-23516900D01*
X42403133Y-23560517D01*
X42196576Y-23646076D01*
X42010680Y-23770288D01*
X41852588Y-23928380D01*
X41838476Y-23949500D01*
X40673544Y-23949500D01*
X40664012Y-23852718D01*
X40627702Y-23733020D01*
X40568737Y-23622706D01*
X40489385Y-23526015D01*
X40429904Y-23477200D01*
X40489385Y-23428385D01*
X40568737Y-23331694D01*
X40627702Y-23221380D01*
X40664012Y-23101682D01*
X40676272Y-22977200D01*
X40673200Y-22762950D01*
X40514450Y-22604200D01*
X39540200Y-22604200D01*
X39540200Y-22624200D01*
X39286200Y-22624200D01*
X39286200Y-22604200D01*
X38311950Y-22604200D01*
X38153200Y-22762950D01*
X38150128Y-22977200D01*
X38162388Y-23101682D01*
X38198698Y-23221380D01*
X38257663Y-23331694D01*
X38337015Y-23428385D01*
X38396496Y-23477200D01*
X38337015Y-23526015D01*
X38257663Y-23622706D01*
X38198698Y-23733020D01*
X38162388Y-23852718D01*
X38150128Y-23977200D01*
X38150128Y-24977200D01*
X38162388Y-25101682D01*
X38198698Y-25221380D01*
X38257663Y-25331694D01*
X38285563Y-25365690D01*
X36045152Y-27606102D01*
X36029282Y-27601288D01*
X35904800Y-27589028D01*
X34989018Y-27589028D01*
X36940693Y-25637354D01*
X36968738Y-25614338D01*
X37060587Y-25502420D01*
X37100913Y-25426975D01*
X37195982Y-25417612D01*
X37315680Y-25381302D01*
X37425994Y-25322337D01*
X37522685Y-25242985D01*
X37602037Y-25146294D01*
X37661002Y-25035980D01*
X37697312Y-24916282D01*
X37709572Y-24791800D01*
X37709572Y-23791800D01*
X37697312Y-23667318D01*
X37661002Y-23547620D01*
X37602037Y-23437306D01*
X37522685Y-23340615D01*
X37463204Y-23291800D01*
X37522685Y-23242985D01*
X37602037Y-23146294D01*
X37661002Y-23035980D01*
X37697312Y-22916282D01*
X37709572Y-22791800D01*
X37706585Y-22583472D01*
X53211886Y-22583472D01*
X53226791Y-22849386D01*
X53455166Y-23045329D01*
X53717380Y-23192953D01*
X54003356Y-23286586D01*
X54302103Y-23322628D01*
X54602141Y-23299694D01*
X54765344Y-23261636D01*
X54910904Y-23038273D01*
X54289215Y-21961476D01*
X53211886Y-22583472D01*
X37706585Y-22583472D01*
X37706500Y-22577550D01*
X37547750Y-22418800D01*
X36573500Y-22418800D01*
X36573500Y-22438800D01*
X36319500Y-22438800D01*
X36319500Y-22418800D01*
X35345250Y-22418800D01*
X35186500Y-22577550D01*
X35183428Y-22791800D01*
X35195688Y-22916282D01*
X35231998Y-23035980D01*
X35290963Y-23146294D01*
X35370315Y-23242985D01*
X35429796Y-23291800D01*
X35370315Y-23340615D01*
X35290963Y-23437306D01*
X35231998Y-23547620D01*
X35195688Y-23667318D01*
X35183428Y-23791800D01*
X35183428Y-24791800D01*
X35195688Y-24916282D01*
X35231998Y-25035980D01*
X35290963Y-25146294D01*
X35318863Y-25180290D01*
X33095808Y-27403346D01*
X33067763Y-27426362D01*
X32975914Y-27538280D01*
X32948788Y-27589028D01*
X32644800Y-27589028D01*
X32520318Y-27601288D01*
X32400620Y-27637598D01*
X32290306Y-27696563D01*
X32193615Y-27775915D01*
X32114263Y-27872606D01*
X32055298Y-27982920D01*
X32018988Y-28102618D01*
X32006728Y-28227100D01*
X32006728Y-28877100D01*
X32018988Y-29001582D01*
X32026729Y-29027100D01*
X32018988Y-29052618D01*
X32006728Y-29177100D01*
X32009800Y-29216350D01*
X32168550Y-29375100D01*
X32250659Y-29375100D01*
X32290306Y-29407637D01*
X32400620Y-29466602D01*
X32517641Y-29502100D01*
X32400620Y-29537598D01*
X32290306Y-29596563D01*
X32250659Y-29629100D01*
X32168550Y-29629100D01*
X32080550Y-29717100D01*
X30126447Y-29717100D01*
X29595306Y-29185960D01*
X29631800Y-29002492D01*
X29631800Y-28727308D01*
X29578114Y-28457410D01*
X29472805Y-28203173D01*
X29319920Y-27974365D01*
X29125335Y-27779780D01*
X28896527Y-27626895D01*
X28820205Y-27595281D01*
X28827823Y-27592536D01*
X28943780Y-27530556D01*
X29010760Y-27290465D01*
X28224800Y-26504505D01*
X27438840Y-27290465D01*
X27505820Y-27530556D01*
X27646243Y-27596587D01*
X27573073Y-27626895D01*
X27344265Y-27779780D01*
X27149680Y-27974365D01*
X26996795Y-28203173D01*
X26891486Y-28457410D01*
X26837800Y-28727308D01*
X26837800Y-29002492D01*
X26891486Y-29272390D01*
X26996795Y-29526627D01*
X27149680Y-29755435D01*
X27344265Y-29950020D01*
X27573073Y-30102905D01*
X27827310Y-30208214D01*
X28097208Y-30261900D01*
X28372392Y-30261900D01*
X28555860Y-30225406D01*
X29087001Y-30756548D01*
X29087001Y-34589691D01*
X29084459Y-34592233D01*
X29017480Y-34352144D01*
X28768452Y-34235044D01*
X28501365Y-34168777D01*
X28226483Y-34155890D01*
X27954367Y-34196878D01*
X27695477Y-34290164D01*
X27579520Y-34352144D01*
X27512540Y-34592235D01*
X28298500Y-35378195D01*
X28312643Y-35364053D01*
X28492248Y-35543658D01*
X28478105Y-35557800D01*
X28492248Y-35571943D01*
X28312643Y-35751548D01*
X28298500Y-35737405D01*
X27512540Y-36523365D01*
X27579520Y-36763456D01*
X27719943Y-36829487D01*
X27646773Y-36859795D01*
X27417965Y-37012680D01*
X27223380Y-37207265D01*
X27070495Y-37436073D01*
X26965186Y-37690310D01*
X26911500Y-37960208D01*
X26911500Y-38235392D01*
X26947994Y-38418859D01*
X24444208Y-40922646D01*
X24416162Y-40945663D01*
X24324313Y-41057581D01*
X24256063Y-41185268D01*
X24226784Y-41281787D01*
X24214035Y-41323815D01*
X24199844Y-41467900D01*
X24203400Y-41504005D01*
X24203401Y-68300285D01*
X24199844Y-68336400D01*
X24214035Y-68480485D01*
X24245023Y-68582636D01*
X24256064Y-68619033D01*
X24324314Y-68746720D01*
X24416163Y-68858638D01*
X24444208Y-68881654D01*
X27626346Y-72063793D01*
X27649362Y-72091838D01*
X27761280Y-72183687D01*
X27881613Y-72248006D01*
X27846088Y-72365118D01*
X27833828Y-72489600D01*
X27836900Y-72553850D01*
X27995650Y-72712600D01*
X28994900Y-72712600D01*
X28994900Y-72692600D01*
X29248900Y-72692600D01*
X29248900Y-72712600D01*
X29268900Y-72712600D01*
X29268900Y-72966600D01*
X29248900Y-72966600D01*
X29248900Y-72986600D01*
X28994900Y-72986600D01*
X28994900Y-72966600D01*
X27995650Y-72966600D01*
X27836900Y-73125350D01*
X27833828Y-73189600D01*
X27846088Y-73314082D01*
X27868689Y-73388586D01*
X27741187Y-73427263D01*
X27613500Y-73495513D01*
X27501582Y-73587362D01*
X27409733Y-73699280D01*
X27341483Y-73826967D01*
X27299455Y-73965515D01*
X27285264Y-74109600D01*
X27288821Y-74145715D01*
X27288820Y-78889315D01*
X27285264Y-78925420D01*
X27299455Y-79069505D01*
X27306390Y-79092366D01*
X27341483Y-79208052D01*
X27409733Y-79335739D01*
X27501582Y-79447657D01*
X27529628Y-79470674D01*
X29226086Y-81167133D01*
X29249102Y-81195178D01*
X29361020Y-81287027D01*
X29488707Y-81355277D01*
X29627255Y-81397305D01*
X29735235Y-81407940D01*
X29735244Y-81407940D01*
X29771339Y-81411495D01*
X29807434Y-81407940D01*
X33717855Y-81407940D01*
X33753960Y-81411496D01*
X33790065Y-81407940D01*
X33898045Y-81397305D01*
X34036593Y-81355277D01*
X34164280Y-81287027D01*
X34276198Y-81195178D01*
X34299218Y-81167128D01*
X35615479Y-79850868D01*
X35663206Y-79890037D01*
X35773520Y-79949002D01*
X35893218Y-79985312D01*
X36017700Y-79997572D01*
X36717700Y-79997572D01*
X36842182Y-79985312D01*
X36961880Y-79949002D01*
X37072194Y-79890037D01*
X37168885Y-79810685D01*
X37248237Y-79713994D01*
X37307202Y-79603680D01*
X37317700Y-79569073D01*
X37328198Y-79603680D01*
X37387163Y-79713994D01*
X37466515Y-79810685D01*
X37563206Y-79890037D01*
X37673520Y-79949002D01*
X37793218Y-79985312D01*
X37917700Y-79997572D01*
X37981950Y-79994500D01*
X38140700Y-79835750D01*
X38140700Y-78836500D01*
X38394700Y-78836500D01*
X38394700Y-79835750D01*
X38553450Y-79994500D01*
X38617700Y-79997572D01*
X38742182Y-79985312D01*
X38861880Y-79949002D01*
X38972194Y-79890037D01*
X39068885Y-79810685D01*
X39148237Y-79713994D01*
X39207202Y-79603680D01*
X39243512Y-79483982D01*
X39255772Y-79359500D01*
X39252700Y-78995250D01*
X39093950Y-78836500D01*
X38394700Y-78836500D01*
X38140700Y-78836500D01*
X38120700Y-78836500D01*
X38120700Y-78582500D01*
X38140700Y-78582500D01*
X38140700Y-77583250D01*
X38394700Y-77583250D01*
X38394700Y-78582500D01*
X39093950Y-78582500D01*
X39252700Y-78423750D01*
X39255074Y-78142195D01*
X42729382Y-78142195D01*
X42773139Y-78461275D01*
X42878305Y-78765688D01*
X42971286Y-78939644D01*
X43235687Y-79035408D01*
X44191495Y-78079600D01*
X43235687Y-77123792D01*
X42971286Y-77219556D01*
X42830396Y-77509171D01*
X42748716Y-77820708D01*
X42729382Y-78142195D01*
X39255074Y-78142195D01*
X39255772Y-78059500D01*
X39243512Y-77935018D01*
X39207202Y-77815320D01*
X39148237Y-77705006D01*
X39068885Y-77608315D01*
X38972194Y-77528963D01*
X38861880Y-77469998D01*
X38742182Y-77433688D01*
X38617700Y-77421428D01*
X38553450Y-77424500D01*
X38394700Y-77583250D01*
X38140700Y-77583250D01*
X37981950Y-77424500D01*
X37917700Y-77421428D01*
X37793218Y-77433688D01*
X37673520Y-77469998D01*
X37563206Y-77528963D01*
X37466515Y-77608315D01*
X37387163Y-77705006D01*
X37328198Y-77815320D01*
X37317700Y-77849927D01*
X37307202Y-77815320D01*
X37248237Y-77705006D01*
X37168885Y-77608315D01*
X37072194Y-77528963D01*
X36961880Y-77469998D01*
X36842182Y-77433688D01*
X36717700Y-77421428D01*
X36017700Y-77421428D01*
X35893218Y-77433688D01*
X35892559Y-77433888D01*
X36267347Y-77059100D01*
X38281095Y-77059100D01*
X38317200Y-77062656D01*
X38353305Y-77059100D01*
X38461285Y-77048465D01*
X38599833Y-77006437D01*
X38727520Y-76938187D01*
X38839438Y-76846338D01*
X38862458Y-76818288D01*
X39541650Y-76139096D01*
X39653641Y-76251087D01*
X39676662Y-76279138D01*
X39788580Y-76370987D01*
X39916267Y-76439237D01*
X40011696Y-76468185D01*
X40054814Y-76481265D01*
X40198899Y-76495456D01*
X40235004Y-76491900D01*
X43649454Y-76491900D01*
X43729121Y-76571567D01*
X43685012Y-76586805D01*
X43511056Y-76679786D01*
X43415292Y-76944187D01*
X44371100Y-77899995D01*
X44385243Y-77885853D01*
X44564848Y-78065458D01*
X44550705Y-78079600D01*
X44564848Y-78093743D01*
X44385243Y-78273348D01*
X44371100Y-78259205D01*
X43415292Y-79215013D01*
X43511056Y-79479414D01*
X43704119Y-79573334D01*
X42396808Y-80880646D01*
X42299424Y-80815576D01*
X42092867Y-80730017D01*
X41873588Y-80686400D01*
X41650012Y-80686400D01*
X41430733Y-80730017D01*
X41224176Y-80815576D01*
X41038280Y-80939788D01*
X40880188Y-81097880D01*
X40755976Y-81283776D01*
X40670417Y-81490333D01*
X40626800Y-81709612D01*
X40626800Y-81933188D01*
X40670417Y-82152467D01*
X40755976Y-82359024D01*
X40880188Y-82544920D01*
X41038280Y-82703012D01*
X41224176Y-82827224D01*
X41430733Y-82912783D01*
X41650012Y-82956400D01*
X41873588Y-82956400D01*
X42092867Y-82912783D01*
X42299424Y-82827224D01*
X42485320Y-82703012D01*
X42643412Y-82544920D01*
X42643677Y-82544524D01*
X42778133Y-82503737D01*
X42905820Y-82435487D01*
X43017738Y-82343638D01*
X43040759Y-82315587D01*
X45357101Y-79999246D01*
X45357101Y-80655252D01*
X44828254Y-81184100D01*
X44620912Y-81184100D01*
X44401633Y-81227717D01*
X44195076Y-81313276D01*
X44009180Y-81437488D01*
X43851088Y-81595580D01*
X43726876Y-81781476D01*
X43641317Y-81988033D01*
X43597700Y-82207312D01*
X43597700Y-82430888D01*
X43641317Y-82650167D01*
X43726876Y-82856724D01*
X43851088Y-83042620D01*
X44009180Y-83200712D01*
X44195076Y-83324924D01*
X44401633Y-83410483D01*
X44620912Y-83454100D01*
X44844488Y-83454100D01*
X45063767Y-83410483D01*
X45270324Y-83324924D01*
X45456220Y-83200712D01*
X45614312Y-83042620D01*
X45738524Y-82856724D01*
X45824083Y-82650167D01*
X45867700Y-82430888D01*
X45867700Y-82223546D01*
X46586293Y-81504954D01*
X46614338Y-81481938D01*
X46706187Y-81370020D01*
X46774437Y-81242333D01*
X46816465Y-81103785D01*
X46827100Y-80995805D01*
X46830656Y-80959700D01*
X46827100Y-80923595D01*
X46827100Y-79215013D01*
X49915292Y-79215013D01*
X50011056Y-79479414D01*
X50300671Y-79620304D01*
X50612208Y-79701984D01*
X50933695Y-79721318D01*
X51252775Y-79677561D01*
X51557188Y-79572395D01*
X51731144Y-79479414D01*
X51826908Y-79215013D01*
X50871100Y-78259205D01*
X49915292Y-79215013D01*
X46827100Y-79215013D01*
X46827100Y-78142195D01*
X49229382Y-78142195D01*
X49273139Y-78461275D01*
X49378305Y-78765688D01*
X49471286Y-78939644D01*
X49735687Y-79035408D01*
X50691495Y-78079600D01*
X51050705Y-78079600D01*
X52006513Y-79035408D01*
X52270914Y-78939644D01*
X52411804Y-78650029D01*
X52493484Y-78338492D01*
X52512818Y-78017005D01*
X52469061Y-77697925D01*
X52363895Y-77393512D01*
X52270914Y-77219556D01*
X52006513Y-77123792D01*
X51050705Y-78079600D01*
X50691495Y-78079600D01*
X49735687Y-77123792D01*
X49471286Y-77219556D01*
X49330396Y-77509171D01*
X49248716Y-77820708D01*
X49229382Y-78142195D01*
X46827100Y-78142195D01*
X46827100Y-77364905D01*
X46830656Y-77328800D01*
X46816465Y-77184715D01*
X46807114Y-77153888D01*
X46774437Y-77046167D01*
X46719928Y-76944187D01*
X49915292Y-76944187D01*
X50871100Y-77899995D01*
X51826908Y-76944187D01*
X51731144Y-76679786D01*
X51441529Y-76538896D01*
X51129992Y-76457216D01*
X50808505Y-76437882D01*
X50489425Y-76481639D01*
X50185012Y-76586805D01*
X50011056Y-76679786D01*
X49915292Y-76944187D01*
X46719928Y-76944187D01*
X46706187Y-76918480D01*
X46646980Y-76846337D01*
X46637353Y-76834606D01*
X46637350Y-76834603D01*
X46614337Y-76806562D01*
X46586297Y-76783550D01*
X44923320Y-75120574D01*
X45145563Y-75028518D01*
X45413352Y-74849587D01*
X45536996Y-74725943D01*
X45590046Y-74778993D01*
X45613062Y-74807038D01*
X45724980Y-74898887D01*
X45800425Y-74939213D01*
X45809788Y-75034282D01*
X45846098Y-75153980D01*
X45905063Y-75264294D01*
X45984415Y-75360985D01*
X46081106Y-75440337D01*
X46191420Y-75499302D01*
X46311118Y-75535612D01*
X46435600Y-75547872D01*
X47435600Y-75547872D01*
X47560082Y-75535612D01*
X47679780Y-75499302D01*
X47790094Y-75440337D01*
X47886785Y-75360985D01*
X47935600Y-75301504D01*
X47984415Y-75360985D01*
X48081106Y-75440337D01*
X48191420Y-75499302D01*
X48311118Y-75535612D01*
X48435600Y-75547872D01*
X48649850Y-75544800D01*
X48808600Y-75386050D01*
X48808600Y-74411800D01*
X48788600Y-74411800D01*
X48788600Y-74157800D01*
X48808600Y-74157800D01*
X48808600Y-74137800D01*
X49062600Y-74137800D01*
X49062600Y-74157800D01*
X49082600Y-74157800D01*
X49082600Y-74411800D01*
X49062600Y-74411800D01*
X49062600Y-75386050D01*
X49221350Y-75544800D01*
X49435600Y-75547872D01*
X49560082Y-75535612D01*
X49679780Y-75499302D01*
X49790094Y-75440337D01*
X49886785Y-75360985D01*
X49966137Y-75264294D01*
X50025102Y-75153980D01*
X50061412Y-75034282D01*
X50064120Y-75006791D01*
X50096637Y-75028518D01*
X50394188Y-75151768D01*
X50710067Y-75214600D01*
X51032133Y-75214600D01*
X51348012Y-75151768D01*
X51645563Y-75028518D01*
X51913352Y-74849587D01*
X52141087Y-74621852D01*
X52320018Y-74354063D01*
X52443268Y-74056512D01*
X52506100Y-73740633D01*
X52506100Y-73418567D01*
X52443268Y-73102688D01*
X52320018Y-72805137D01*
X52141087Y-72537348D01*
X51913352Y-72309613D01*
X51645563Y-72130682D01*
X51617843Y-72119200D01*
X51782954Y-72119200D01*
X54314701Y-74650948D01*
X54314700Y-77877195D01*
X54311144Y-77913300D01*
X54324759Y-78051535D01*
X54325335Y-78057384D01*
X54367363Y-78195932D01*
X54435613Y-78323619D01*
X54527462Y-78435537D01*
X54555508Y-78458554D01*
X54819183Y-78722230D01*
X54760498Y-78832020D01*
X54724188Y-78951718D01*
X54711928Y-79076200D01*
X54711928Y-80776200D01*
X54724188Y-80900682D01*
X54760498Y-81020380D01*
X54819463Y-81130694D01*
X54898815Y-81227385D01*
X54959701Y-81277353D01*
X54358108Y-81878946D01*
X54330062Y-81901963D01*
X54238213Y-82013881D01*
X54169963Y-82141568D01*
X54166657Y-82152467D01*
X54127935Y-82280115D01*
X54113744Y-82424200D01*
X54117300Y-82460305D01*
X54117300Y-82964553D01*
X53825909Y-83255944D01*
X53822638Y-83249574D01*
X53678383Y-83067777D01*
X53501433Y-82917615D01*
X53298587Y-82804860D01*
X53137344Y-82747197D01*
X52954600Y-82872639D01*
X52954600Y-83864000D01*
X52974600Y-83864000D01*
X52974600Y-84107254D01*
X52963854Y-84118000D01*
X52954600Y-84118000D01*
X52954600Y-84127254D01*
X52943854Y-84138000D01*
X52700600Y-84138000D01*
X52700600Y-84118000D01*
X51802796Y-84118000D01*
X51662841Y-84302816D01*
X51726545Y-84525979D01*
X51800710Y-84670400D01*
X50830304Y-84670400D01*
X50794199Y-84666844D01*
X50650114Y-84681035D01*
X50608086Y-84693784D01*
X50511567Y-84723063D01*
X50383880Y-84791313D01*
X50271962Y-84883162D01*
X50248946Y-84911207D01*
X49484880Y-85675273D01*
X49326032Y-85516425D01*
X49082811Y-85353910D01*
X48812558Y-85241968D01*
X48525660Y-85184900D01*
X48233140Y-85184900D01*
X47946242Y-85241968D01*
X47675989Y-85353910D01*
X47432768Y-85516425D01*
X47225925Y-85723268D01*
X47109400Y-85897660D01*
X46992875Y-85723268D01*
X46786032Y-85516425D01*
X46542811Y-85353910D01*
X46272558Y-85241968D01*
X45985660Y-85184900D01*
X45693140Y-85184900D01*
X45443503Y-85234556D01*
X43933539Y-83724592D01*
X43910518Y-83696542D01*
X43889368Y-83679184D01*
X51662841Y-83679184D01*
X51802796Y-83864000D01*
X52700600Y-83864000D01*
X52700600Y-82872639D01*
X52517856Y-82747197D01*
X52356613Y-82804860D01*
X52153767Y-82917615D01*
X51976817Y-83067777D01*
X51832562Y-83249574D01*
X51726545Y-83456021D01*
X51662841Y-83679184D01*
X43889368Y-83679184D01*
X43798600Y-83604693D01*
X43670913Y-83536443D01*
X43532365Y-83494415D01*
X43424385Y-83483780D01*
X43388280Y-83480224D01*
X43352175Y-83483780D01*
X39047325Y-83483780D01*
X39011220Y-83480224D01*
X38867135Y-83494415D01*
X38728586Y-83536443D01*
X38609119Y-83600300D01*
X38600900Y-83604693D01*
X38488982Y-83696542D01*
X38465966Y-83724587D01*
X36893394Y-85297160D01*
X36883894Y-85289363D01*
X36773580Y-85230398D01*
X36653882Y-85194088D01*
X36529400Y-85181828D01*
X35965150Y-85184900D01*
X35806400Y-85343650D01*
X35806400Y-86542900D01*
X35826400Y-86542900D01*
X35826400Y-86796900D01*
X35806400Y-86796900D01*
X35806400Y-87996150D01*
X35965150Y-88154900D01*
X36529400Y-88157972D01*
X36653882Y-88145712D01*
X36773580Y-88109402D01*
X36881220Y-88051866D01*
X38353237Y-89523884D01*
X23314011Y-89429114D01*
X23303653Y-87417849D01*
X23374261Y-87772819D01*
X23520125Y-88124966D01*
X23731887Y-88441891D01*
X24001409Y-88711413D01*
X24318334Y-88923175D01*
X24670481Y-89069039D01*
X25044319Y-89143400D01*
X25425481Y-89143400D01*
X25799319Y-89069039D01*
X26151466Y-88923175D01*
X26468391Y-88711413D01*
X26737913Y-88441891D01*
X26949675Y-88124966D01*
X27095539Y-87772819D01*
X27169900Y-87398981D01*
X27169900Y-87017819D01*
X27118557Y-86759700D01*
X27767628Y-86759700D01*
X27767628Y-88459700D01*
X27779888Y-88584182D01*
X27816198Y-88703880D01*
X27875163Y-88814194D01*
X27954515Y-88910885D01*
X28051206Y-88990237D01*
X28161520Y-89049202D01*
X28281218Y-89085512D01*
X28405700Y-89097772D01*
X30105700Y-89097772D01*
X30230182Y-89085512D01*
X30349880Y-89049202D01*
X30460194Y-88990237D01*
X30556885Y-88910885D01*
X30636237Y-88814194D01*
X30695202Y-88703880D01*
X30731512Y-88584182D01*
X30743772Y-88459700D01*
X30743772Y-87519900D01*
X34191328Y-87519900D01*
X34203588Y-87644382D01*
X34239898Y-87764080D01*
X34298863Y-87874394D01*
X34378215Y-87971085D01*
X34474906Y-88050437D01*
X34585220Y-88109402D01*
X34704918Y-88145712D01*
X34829400Y-88157972D01*
X35393650Y-88154900D01*
X35552400Y-87996150D01*
X35552400Y-86796900D01*
X34353150Y-86796900D01*
X34194400Y-86955650D01*
X34191328Y-87519900D01*
X30743772Y-87519900D01*
X30743772Y-86759700D01*
X30731512Y-86635218D01*
X30695202Y-86515520D01*
X30636237Y-86405206D01*
X30556885Y-86308515D01*
X30460194Y-86229163D01*
X30349880Y-86170198D01*
X30230182Y-86133888D01*
X30105700Y-86121628D01*
X28405700Y-86121628D01*
X28281218Y-86133888D01*
X28161520Y-86170198D01*
X28051206Y-86229163D01*
X27954515Y-86308515D01*
X27875163Y-86405206D01*
X27816198Y-86515520D01*
X27779888Y-86635218D01*
X27767628Y-86759700D01*
X27118557Y-86759700D01*
X27095539Y-86643981D01*
X26949675Y-86291834D01*
X26737913Y-85974909D01*
X26582904Y-85819900D01*
X34191328Y-85819900D01*
X34194400Y-86384150D01*
X34353150Y-86542900D01*
X35552400Y-86542900D01*
X35552400Y-85343650D01*
X35393650Y-85184900D01*
X34829400Y-85181828D01*
X34704918Y-85194088D01*
X34585220Y-85230398D01*
X34474906Y-85289363D01*
X34378215Y-85368715D01*
X34298863Y-85465406D01*
X34239898Y-85575720D01*
X34203588Y-85695418D01*
X34191328Y-85819900D01*
X26582904Y-85819900D01*
X26468391Y-85705387D01*
X26151466Y-85493625D01*
X25799319Y-85347761D01*
X25425481Y-85273400D01*
X25044319Y-85273400D01*
X24670481Y-85347761D01*
X24318334Y-85493625D01*
X24001409Y-85705387D01*
X23731887Y-85974909D01*
X23520125Y-86291834D01*
X23374261Y-86643981D01*
X23301550Y-87009523D01*
X23036947Y-35629817D01*
X26896590Y-35629817D01*
X26937578Y-35901933D01*
X27030864Y-36160823D01*
X27092844Y-36276780D01*
X27332935Y-36343760D01*
X28118895Y-35557800D01*
X27332935Y-34771840D01*
X27092844Y-34838820D01*
X26975744Y-35087848D01*
X26909477Y-35354935D01*
X26896590Y-35629817D01*
X23036947Y-35629817D01*
X22989398Y-26396917D01*
X26822890Y-26396917D01*
X26863878Y-26669033D01*
X26957164Y-26927923D01*
X27019144Y-27043880D01*
X27259235Y-27110860D01*
X28045195Y-26324900D01*
X28404405Y-26324900D01*
X29190365Y-27110860D01*
X29430456Y-27043880D01*
X29547556Y-26794852D01*
X29613823Y-26527765D01*
X29626710Y-26252883D01*
X29585722Y-25980767D01*
X29492436Y-25721877D01*
X29430456Y-25605920D01*
X29190365Y-25538940D01*
X28404405Y-26324900D01*
X28045195Y-26324900D01*
X27259235Y-25538940D01*
X27019144Y-25605920D01*
X26902044Y-25854948D01*
X26835777Y-26122035D01*
X26822890Y-26396917D01*
X22989398Y-26396917D01*
X22984055Y-25359335D01*
X27438840Y-25359335D01*
X28224800Y-26145295D01*
X29010760Y-25359335D01*
X28943780Y-25119244D01*
X28694752Y-25002144D01*
X28427665Y-24935877D01*
X28152783Y-24922990D01*
X27880667Y-24963978D01*
X27621777Y-25057264D01*
X27505820Y-25119244D01*
X27438840Y-25359335D01*
X22984055Y-25359335D01*
X22954698Y-19659149D01*
X23889901Y-19655707D01*
X23810909Y-19708487D01*
X23541387Y-19978009D01*
X23329625Y-20294934D01*
X23183761Y-20647081D01*
X23109400Y-21020919D01*
X23109400Y-21402081D01*
X23183761Y-21775919D01*
X23329625Y-22128066D01*
X23541387Y-22444991D01*
X23810909Y-22714513D01*
X24127834Y-22926275D01*
X24479981Y-23072139D01*
X24853819Y-23146500D01*
X25234981Y-23146500D01*
X25608819Y-23072139D01*
X25960966Y-22926275D01*
X26277891Y-22714513D01*
X26547413Y-22444991D01*
X26759175Y-22128066D01*
X26905039Y-21775919D01*
X26979400Y-21402081D01*
X26979400Y-21020919D01*
X26943433Y-20840100D01*
X27350428Y-20840100D01*
X27362688Y-20964582D01*
X27398998Y-21084280D01*
X27457963Y-21194594D01*
X27537315Y-21291285D01*
X27634006Y-21370637D01*
X27744320Y-21429602D01*
X27778927Y-21440100D01*
X27744320Y-21450598D01*
X27634006Y-21509563D01*
X27537315Y-21588915D01*
X27457963Y-21685606D01*
X27398998Y-21795920D01*
X27362688Y-21915618D01*
X27350428Y-22040100D01*
X27350428Y-22740100D01*
X27362688Y-22864582D01*
X27398998Y-22984280D01*
X27457963Y-23094594D01*
X27537315Y-23191285D01*
X27634006Y-23270637D01*
X27744320Y-23329602D01*
X27864018Y-23365912D01*
X27988500Y-23378172D01*
X29156969Y-23378172D01*
X29166217Y-23424667D01*
X29251776Y-23631224D01*
X29375988Y-23817120D01*
X29534080Y-23975212D01*
X29719976Y-24099424D01*
X29926533Y-24184983D01*
X30145812Y-24228600D01*
X30369388Y-24228600D01*
X30588667Y-24184983D01*
X30795224Y-24099424D01*
X30981120Y-23975212D01*
X31139212Y-23817120D01*
X31263424Y-23631224D01*
X31348983Y-23424667D01*
X31392600Y-23205388D01*
X31392600Y-22981812D01*
X31348983Y-22762533D01*
X31263424Y-22555976D01*
X31139212Y-22370080D01*
X30981120Y-22211988D01*
X30795224Y-22087776D01*
X30588667Y-22002217D01*
X30369388Y-21958600D01*
X30185505Y-21958600D01*
X30111038Y-21867862D01*
X30018357Y-21791800D01*
X35183428Y-21791800D01*
X35186500Y-22006050D01*
X35345250Y-22164800D01*
X36319500Y-22164800D01*
X36319500Y-21315550D01*
X36573500Y-21315550D01*
X36573500Y-22164800D01*
X37547750Y-22164800D01*
X37706500Y-22006050D01*
X37706913Y-21977200D01*
X38150128Y-21977200D01*
X38153200Y-22191450D01*
X38311950Y-22350200D01*
X39286200Y-22350200D01*
X39286200Y-21500950D01*
X39540200Y-21500950D01*
X39540200Y-22350200D01*
X40514450Y-22350200D01*
X40673200Y-22191450D01*
X40676272Y-21977200D01*
X40664012Y-21852718D01*
X40627702Y-21733020D01*
X40568737Y-21622706D01*
X40489385Y-21526015D01*
X40392694Y-21446663D01*
X40282380Y-21387698D01*
X40162682Y-21351388D01*
X40038200Y-21339128D01*
X39698950Y-21342200D01*
X39540200Y-21500950D01*
X39286200Y-21500950D01*
X39127450Y-21342200D01*
X38788200Y-21339128D01*
X38663718Y-21351388D01*
X38544020Y-21387698D01*
X38433706Y-21446663D01*
X38337015Y-21526015D01*
X38257663Y-21622706D01*
X38198698Y-21733020D01*
X38162388Y-21852718D01*
X38150128Y-21977200D01*
X37706913Y-21977200D01*
X37709572Y-21791800D01*
X37697312Y-21667318D01*
X37661002Y-21547620D01*
X37602037Y-21437306D01*
X37522685Y-21340615D01*
X37425994Y-21261263D01*
X37315680Y-21202298D01*
X37195982Y-21165988D01*
X37071500Y-21153728D01*
X36732250Y-21156800D01*
X36573500Y-21315550D01*
X36319500Y-21315550D01*
X36160750Y-21156800D01*
X35821500Y-21153728D01*
X35697018Y-21165988D01*
X35577320Y-21202298D01*
X35467006Y-21261263D01*
X35370315Y-21340615D01*
X35290963Y-21437306D01*
X35231998Y-21547620D01*
X35195688Y-21667318D01*
X35183428Y-21791800D01*
X30018357Y-21791800D01*
X29999120Y-21776013D01*
X29871433Y-21707763D01*
X29823032Y-21693081D01*
X29819037Y-21685606D01*
X29739685Y-21588915D01*
X29642994Y-21509563D01*
X29532680Y-21450598D01*
X29498073Y-21440100D01*
X29532680Y-21429602D01*
X29642994Y-21370637D01*
X29739685Y-21291285D01*
X29819037Y-21194594D01*
X29857606Y-21122437D01*
X44331300Y-21122437D01*
X44331300Y-21336163D01*
X44372996Y-21545783D01*
X44454785Y-21743240D01*
X44573525Y-21920947D01*
X44724653Y-22072075D01*
X44902360Y-22190815D01*
X45099817Y-22272604D01*
X45309437Y-22314300D01*
X45523163Y-22314300D01*
X45732783Y-22272604D01*
X45930240Y-22190815D01*
X46107947Y-22072075D01*
X46259075Y-21920947D01*
X46377815Y-21743240D01*
X46459604Y-21545783D01*
X46501300Y-21336163D01*
X46501300Y-21122437D01*
X47331300Y-21122437D01*
X47331300Y-21336163D01*
X47372996Y-21545783D01*
X47454785Y-21743240D01*
X47573525Y-21920947D01*
X47724653Y-22072075D01*
X47902360Y-22190815D01*
X48099817Y-22272604D01*
X48309437Y-22314300D01*
X48523163Y-22314300D01*
X48732783Y-22272604D01*
X48930240Y-22190815D01*
X49107947Y-22072075D01*
X49258135Y-21921887D01*
X52806546Y-21921887D01*
X52862050Y-22217637D01*
X53084886Y-22363502D01*
X54001186Y-21834476D01*
X54509185Y-21834476D01*
X55130874Y-22911273D01*
X55397092Y-22896896D01*
X55511653Y-22774587D01*
X55681533Y-22526214D01*
X55799693Y-22249470D01*
X55861593Y-21954991D01*
X55864854Y-21654095D01*
X55809350Y-21358345D01*
X55586514Y-21212480D01*
X54509185Y-21834476D01*
X54001186Y-21834476D01*
X54162215Y-21741506D01*
X53540526Y-20664709D01*
X53274308Y-20679086D01*
X53159747Y-20801395D01*
X52989867Y-21049768D01*
X52871707Y-21326512D01*
X52809807Y-21620991D01*
X52806546Y-21921887D01*
X49258135Y-21921887D01*
X49259075Y-21920947D01*
X49377815Y-21743240D01*
X49459604Y-21545783D01*
X49501300Y-21336163D01*
X49501300Y-21122437D01*
X49459604Y-20912817D01*
X49377815Y-20715360D01*
X49259113Y-20537709D01*
X53760496Y-20537709D01*
X54382185Y-21614506D01*
X55459514Y-20992510D01*
X55444609Y-20726596D01*
X55216234Y-20530653D01*
X54954020Y-20383029D01*
X54668044Y-20289396D01*
X54369297Y-20253354D01*
X54069259Y-20276288D01*
X53906056Y-20314346D01*
X53760496Y-20537709D01*
X49259113Y-20537709D01*
X49259075Y-20537653D01*
X49107947Y-20386525D01*
X48930240Y-20267785D01*
X48732783Y-20185996D01*
X48523163Y-20144300D01*
X48309437Y-20144300D01*
X48099817Y-20185996D01*
X47902360Y-20267785D01*
X47724653Y-20386525D01*
X47573525Y-20537653D01*
X47454785Y-20715360D01*
X47372996Y-20912817D01*
X47331300Y-21122437D01*
X46501300Y-21122437D01*
X46459604Y-20912817D01*
X46377815Y-20715360D01*
X46259075Y-20537653D01*
X46107947Y-20386525D01*
X45930240Y-20267785D01*
X45732783Y-20185996D01*
X45523163Y-20144300D01*
X45309437Y-20144300D01*
X45099817Y-20185996D01*
X44902360Y-20267785D01*
X44724653Y-20386525D01*
X44573525Y-20537653D01*
X44454785Y-20715360D01*
X44372996Y-20912817D01*
X44331300Y-21122437D01*
X29857606Y-21122437D01*
X29878002Y-21084280D01*
X29914312Y-20964582D01*
X29926572Y-20840100D01*
X29923500Y-20775850D01*
X29764750Y-20617100D01*
X28765500Y-20617100D01*
X28765500Y-20637100D01*
X28511500Y-20637100D01*
X28511500Y-20617100D01*
X27512250Y-20617100D01*
X27353500Y-20775850D01*
X27350428Y-20840100D01*
X26943433Y-20840100D01*
X26905039Y-20647081D01*
X26759175Y-20294934D01*
X26547413Y-19978009D01*
X26277891Y-19708487D01*
X26186249Y-19647254D01*
X27594395Y-19642070D01*
X27537315Y-19688915D01*
X27457963Y-19785606D01*
X27398998Y-19895920D01*
X27362688Y-20015618D01*
X27350428Y-20140100D01*
X27353500Y-20204350D01*
X27512250Y-20363100D01*
X28511500Y-20363100D01*
X28511500Y-20343100D01*
X28765500Y-20343100D01*
X28765500Y-20363100D01*
X29764750Y-20363100D01*
X29923500Y-20204350D01*
X29926572Y-20140100D01*
X29914312Y-20015618D01*
X29878002Y-19895920D01*
X29819037Y-19785606D01*
X29739685Y-19688915D01*
X29673280Y-19634418D01*
X57494235Y-19532010D01*
X57180834Y-19661825D01*
G37*
G04 #@! TD.AperFunction*
D32*
X51804600Y-86614000D02*
X51824600Y-86614000D01*
X51824600Y-86868000D01*
X51804600Y-86868000D01*
X51804600Y-86888000D01*
X51550600Y-86888000D01*
X51550600Y-86868000D01*
X51530600Y-86868000D01*
X51530600Y-86614000D01*
X51550600Y-86614000D01*
X51550600Y-86594000D01*
X51804600Y-86594000D01*
X51804600Y-86614000D01*
G04 #@! TA.AperFunction,Conductor*
D33*
G36*
X51804600Y-86614000D02*
G01*
X51824600Y-86614000D01*
X51824600Y-86868000D01*
X51804600Y-86868000D01*
X51804600Y-86888000D01*
X51550600Y-86888000D01*
X51550600Y-86868000D01*
X51530600Y-86868000D01*
X51530600Y-86614000D01*
X51550600Y-86614000D01*
X51550600Y-86594000D01*
X51804600Y-86594000D01*
X51804600Y-86614000D01*
G37*
G04 #@! TD.AperFunction*
D32*
X33127076Y-79628124D02*
X33333633Y-79713683D01*
X33552912Y-79757300D01*
X33630154Y-79757300D01*
X33449514Y-79937940D01*
X32742443Y-79937940D01*
X32792038Y-79897238D01*
X32815058Y-79869188D01*
X33084543Y-79599704D01*
X33127076Y-79628124D01*
G04 #@! TA.AperFunction,Conductor*
D33*
G36*
X33127076Y-79628124D02*
G01*
X33333633Y-79713683D01*
X33552912Y-79757300D01*
X33630154Y-79757300D01*
X33449514Y-79937940D01*
X32742443Y-79937940D01*
X32792038Y-79897238D01*
X32815058Y-79869188D01*
X33084543Y-79599704D01*
X33127076Y-79628124D01*
G37*
G04 #@! TD.AperFunction*
D32*
X29915650Y-79664700D02*
X30129900Y-79667772D01*
X30254382Y-79655512D01*
X30282068Y-79647114D01*
X30504141Y-79869187D01*
X30527162Y-79897238D01*
X30576757Y-79937940D01*
X30075787Y-79937940D01*
X29756902Y-79619055D01*
X29756902Y-79505952D01*
X29915650Y-79664700D01*
G04 #@! TA.AperFunction,Conductor*
D33*
G36*
X29915650Y-79664700D02*
G01*
X30129900Y-79667772D01*
X30254382Y-79655512D01*
X30282068Y-79647114D01*
X30504141Y-79869187D01*
X30527162Y-79897238D01*
X30576757Y-79937940D01*
X30075787Y-79937940D01*
X29756902Y-79619055D01*
X29756902Y-79505952D01*
X29915650Y-79664700D01*
G37*
G04 #@! TD.AperFunction*
D32*
X29248900Y-75252600D02*
X29268900Y-75252600D01*
X29268900Y-75506600D01*
X29248900Y-75506600D01*
X29248900Y-76205850D01*
X29407650Y-76364600D01*
X29771900Y-76367672D01*
X29896382Y-76355412D01*
X29925340Y-76346628D01*
X29925340Y-77144561D01*
X29915650Y-77144700D01*
X29756900Y-77303450D01*
X29756900Y-78277700D01*
X29776900Y-78277700D01*
X29776900Y-78531700D01*
X29756900Y-78531700D01*
X29756900Y-78551700D01*
X29502900Y-78551700D01*
X29502900Y-78531700D01*
X29482900Y-78531700D01*
X29482900Y-78277700D01*
X29502900Y-78277700D01*
X29502900Y-77303450D01*
X29344150Y-77144700D01*
X29129900Y-77141628D01*
X29005418Y-77153888D01*
X28885720Y-77190198D01*
X28775406Y-77249163D01*
X28758820Y-77262775D01*
X28758820Y-76365252D01*
X28836150Y-76364600D01*
X28994900Y-76205850D01*
X28994900Y-75506600D01*
X28974900Y-75506600D01*
X28974900Y-75252600D01*
X28994900Y-75252600D01*
X28994900Y-75232600D01*
X29248900Y-75232600D01*
X29248900Y-75252600D01*
G04 #@! TA.AperFunction,Conductor*
D33*
G36*
X29248900Y-75252600D02*
G01*
X29268900Y-75252600D01*
X29268900Y-75506600D01*
X29248900Y-75506600D01*
X29248900Y-76205850D01*
X29407650Y-76364600D01*
X29771900Y-76367672D01*
X29896382Y-76355412D01*
X29925340Y-76346628D01*
X29925340Y-77144561D01*
X29915650Y-77144700D01*
X29756900Y-77303450D01*
X29756900Y-78277700D01*
X29776900Y-78277700D01*
X29776900Y-78531700D01*
X29756900Y-78531700D01*
X29756900Y-78551700D01*
X29502900Y-78551700D01*
X29502900Y-78531700D01*
X29482900Y-78531700D01*
X29482900Y-78277700D01*
X29502900Y-78277700D01*
X29502900Y-77303450D01*
X29344150Y-77144700D01*
X29129900Y-77141628D01*
X29005418Y-77153888D01*
X28885720Y-77190198D01*
X28775406Y-77249163D01*
X28758820Y-77262775D01*
X28758820Y-76365252D01*
X28836150Y-76364600D01*
X28994900Y-76205850D01*
X28994900Y-75506600D01*
X28974900Y-75506600D01*
X28974900Y-75252600D01*
X28994900Y-75252600D01*
X28994900Y-75232600D01*
X29248900Y-75232600D01*
X29248900Y-75252600D01*
G37*
G04 #@! TD.AperFunction*
D32*
X56327000Y-77259200D02*
X56347000Y-77259200D01*
X56347000Y-77513200D01*
X56327000Y-77513200D01*
X56327000Y-77533200D01*
X56073000Y-77533200D01*
X56073000Y-77513200D01*
X56053000Y-77513200D01*
X56053000Y-77259200D01*
X56073000Y-77259200D01*
X56073000Y-77239200D01*
X56327000Y-77239200D01*
X56327000Y-77259200D01*
G04 #@! TA.AperFunction,Conductor*
D33*
G36*
X56327000Y-77259200D02*
G01*
X56347000Y-77259200D01*
X56347000Y-77513200D01*
X56327000Y-77513200D01*
X56327000Y-77533200D01*
X56073000Y-77533200D01*
X56073000Y-77513200D01*
X56053000Y-77513200D01*
X56053000Y-77259200D01*
X56073000Y-77259200D01*
X56073000Y-77239200D01*
X56327000Y-77239200D01*
X56327000Y-77259200D01*
G37*
G04 #@! TD.AperFunction*
D32*
X57128741Y-62284088D02*
X57128741Y-71140770D01*
X56903411Y-70990210D01*
X56633158Y-70878268D01*
X56346260Y-70821200D01*
X56053740Y-70821200D01*
X55766842Y-70878268D01*
X55496589Y-70990210D01*
X55253368Y-71152725D01*
X55046525Y-71359568D01*
X54884010Y-71602789D01*
X54772068Y-71873042D01*
X54715000Y-72159940D01*
X54715000Y-72452460D01*
X54772068Y-72739358D01*
X54884010Y-73009611D01*
X55046525Y-73252832D01*
X55253368Y-73459675D01*
X55427760Y-73576200D01*
X55362471Y-73619824D01*
X53126846Y-71384200D01*
X54786441Y-69724606D01*
X54969908Y-69761100D01*
X55245092Y-69761100D01*
X55514990Y-69707414D01*
X55769227Y-69602105D01*
X55998035Y-69449220D01*
X56192620Y-69254635D01*
X56345505Y-69025827D01*
X56450814Y-68771590D01*
X56504500Y-68501692D01*
X56504500Y-68226508D01*
X56450814Y-67956610D01*
X56345505Y-67702373D01*
X56192620Y-67473565D01*
X55998035Y-67278980D01*
X55769227Y-67126095D01*
X55697557Y-67096408D01*
X55710523Y-67091736D01*
X55826480Y-67029756D01*
X55893460Y-66789665D01*
X55107500Y-66003705D01*
X54321540Y-66789665D01*
X54388520Y-67029756D01*
X54524260Y-67093585D01*
X54445773Y-67126095D01*
X54216965Y-67278980D01*
X54022380Y-67473565D01*
X53869495Y-67702373D01*
X53764186Y-67956610D01*
X53710500Y-68226508D01*
X53710500Y-68501692D01*
X53746994Y-68685159D01*
X51782954Y-70649200D01*
X50281101Y-70649200D01*
X50277212Y-70609718D01*
X50240902Y-70490020D01*
X50181937Y-70379706D01*
X50102585Y-70283015D01*
X50036400Y-70228699D01*
X50036400Y-68676904D01*
X50039956Y-68640799D01*
X50025765Y-68496714D01*
X50004712Y-68427313D01*
X49983737Y-68358167D01*
X49915487Y-68230480D01*
X49823638Y-68118562D01*
X49795593Y-68095546D01*
X43920846Y-62220800D01*
X49528854Y-62220800D01*
X52162346Y-64854293D01*
X52185362Y-64882338D01*
X52297280Y-64974187D01*
X52424967Y-65042437D01*
X52521486Y-65071716D01*
X52563514Y-65084465D01*
X52707599Y-65098656D01*
X52743704Y-65095100D01*
X53937761Y-65095100D01*
X53901844Y-65105120D01*
X53784744Y-65354148D01*
X53718477Y-65621235D01*
X53705590Y-65896117D01*
X53746578Y-66168233D01*
X53839864Y-66427123D01*
X53901844Y-66543080D01*
X54141935Y-66610060D01*
X54927895Y-65824100D01*
X54913753Y-65809958D01*
X55093358Y-65630353D01*
X55107500Y-65644495D01*
X55121643Y-65630353D01*
X55301248Y-65809958D01*
X55287105Y-65824100D01*
X56073065Y-66610060D01*
X56313156Y-66543080D01*
X56430256Y-66294052D01*
X56496523Y-66026965D01*
X56509410Y-65752083D01*
X56468422Y-65479967D01*
X56375136Y-65221077D01*
X56313156Y-65105120D01*
X56073067Y-65038141D01*
X56189477Y-64921731D01*
X56128144Y-64860398D01*
X56133158Y-64854288D01*
X56669397Y-64318050D01*
X56697437Y-64295038D01*
X56720450Y-64266997D01*
X56720453Y-64266994D01*
X56789287Y-64183120D01*
X56857537Y-64055434D01*
X56899565Y-63916885D01*
X56913756Y-63772800D01*
X56910200Y-63736695D01*
X56910200Y-62065547D01*
X57128741Y-62284088D01*
G04 #@! TA.AperFunction,Conductor*
D33*
G36*
X57128741Y-62284088D02*
G01*
X57128741Y-71140770D01*
X56903411Y-70990210D01*
X56633158Y-70878268D01*
X56346260Y-70821200D01*
X56053740Y-70821200D01*
X55766842Y-70878268D01*
X55496589Y-70990210D01*
X55253368Y-71152725D01*
X55046525Y-71359568D01*
X54884010Y-71602789D01*
X54772068Y-71873042D01*
X54715000Y-72159940D01*
X54715000Y-72452460D01*
X54772068Y-72739358D01*
X54884010Y-73009611D01*
X55046525Y-73252832D01*
X55253368Y-73459675D01*
X55427760Y-73576200D01*
X55362471Y-73619824D01*
X53126846Y-71384200D01*
X54786441Y-69724606D01*
X54969908Y-69761100D01*
X55245092Y-69761100D01*
X55514990Y-69707414D01*
X55769227Y-69602105D01*
X55998035Y-69449220D01*
X56192620Y-69254635D01*
X56345505Y-69025827D01*
X56450814Y-68771590D01*
X56504500Y-68501692D01*
X56504500Y-68226508D01*
X56450814Y-67956610D01*
X56345505Y-67702373D01*
X56192620Y-67473565D01*
X55998035Y-67278980D01*
X55769227Y-67126095D01*
X55697557Y-67096408D01*
X55710523Y-67091736D01*
X55826480Y-67029756D01*
X55893460Y-66789665D01*
X55107500Y-66003705D01*
X54321540Y-66789665D01*
X54388520Y-67029756D01*
X54524260Y-67093585D01*
X54445773Y-67126095D01*
X54216965Y-67278980D01*
X54022380Y-67473565D01*
X53869495Y-67702373D01*
X53764186Y-67956610D01*
X53710500Y-68226508D01*
X53710500Y-68501692D01*
X53746994Y-68685159D01*
X51782954Y-70649200D01*
X50281101Y-70649200D01*
X50277212Y-70609718D01*
X50240902Y-70490020D01*
X50181937Y-70379706D01*
X50102585Y-70283015D01*
X50036400Y-70228699D01*
X50036400Y-68676904D01*
X50039956Y-68640799D01*
X50025765Y-68496714D01*
X50004712Y-68427313D01*
X49983737Y-68358167D01*
X49915487Y-68230480D01*
X49823638Y-68118562D01*
X49795593Y-68095546D01*
X43920846Y-62220800D01*
X49528854Y-62220800D01*
X52162346Y-64854293D01*
X52185362Y-64882338D01*
X52297280Y-64974187D01*
X52424967Y-65042437D01*
X52521486Y-65071716D01*
X52563514Y-65084465D01*
X52707599Y-65098656D01*
X52743704Y-65095100D01*
X53937761Y-65095100D01*
X53901844Y-65105120D01*
X53784744Y-65354148D01*
X53718477Y-65621235D01*
X53705590Y-65896117D01*
X53746578Y-66168233D01*
X53839864Y-66427123D01*
X53901844Y-66543080D01*
X54141935Y-66610060D01*
X54927895Y-65824100D01*
X54913753Y-65809958D01*
X55093358Y-65630353D01*
X55107500Y-65644495D01*
X55121643Y-65630353D01*
X55301248Y-65809958D01*
X55287105Y-65824100D01*
X56073065Y-66610060D01*
X56313156Y-66543080D01*
X56430256Y-66294052D01*
X56496523Y-66026965D01*
X56509410Y-65752083D01*
X56468422Y-65479967D01*
X56375136Y-65221077D01*
X56313156Y-65105120D01*
X56073067Y-65038141D01*
X56189477Y-64921731D01*
X56128144Y-64860398D01*
X56133158Y-64854288D01*
X56669397Y-64318050D01*
X56697437Y-64295038D01*
X56720450Y-64266997D01*
X56720453Y-64266994D01*
X56789287Y-64183120D01*
X56857537Y-64055434D01*
X56899565Y-63916885D01*
X56913756Y-63772800D01*
X56910200Y-63736695D01*
X56910200Y-62065547D01*
X57128741Y-62284088D01*
G37*
G04 #@! TD.AperFunction*
D32*
X29526601Y-63399099D02*
X29487118Y-63402988D01*
X29367420Y-63439298D01*
X29257106Y-63498263D01*
X29160415Y-63577615D01*
X29081063Y-63674306D01*
X29022098Y-63784620D01*
X28985788Y-63904318D01*
X28973528Y-64028800D01*
X28973528Y-64728800D01*
X28985788Y-64853282D01*
X29022098Y-64972980D01*
X29081063Y-65083294D01*
X29160415Y-65179985D01*
X29257106Y-65259337D01*
X29367420Y-65318302D01*
X29402027Y-65328800D01*
X29367420Y-65339298D01*
X29257106Y-65398263D01*
X29160415Y-65477615D01*
X29081063Y-65574306D01*
X29022098Y-65684620D01*
X28985788Y-65804318D01*
X28973528Y-65928800D01*
X28973528Y-66012681D01*
X27958800Y-64997954D01*
X27958800Y-61652647D01*
X28106586Y-61553899D01*
X28299499Y-61360986D01*
X28451071Y-61134143D01*
X28555475Y-60882089D01*
X28608700Y-60614511D01*
X28608700Y-60341689D01*
X28574001Y-60167246D01*
X29526600Y-59214647D01*
X29526601Y-63399099D01*
G04 #@! TA.AperFunction,Conductor*
D33*
G36*
X29526601Y-63399099D02*
G01*
X29487118Y-63402988D01*
X29367420Y-63439298D01*
X29257106Y-63498263D01*
X29160415Y-63577615D01*
X29081063Y-63674306D01*
X29022098Y-63784620D01*
X28985788Y-63904318D01*
X28973528Y-64028800D01*
X28973528Y-64728800D01*
X28985788Y-64853282D01*
X29022098Y-64972980D01*
X29081063Y-65083294D01*
X29160415Y-65179985D01*
X29257106Y-65259337D01*
X29367420Y-65318302D01*
X29402027Y-65328800D01*
X29367420Y-65339298D01*
X29257106Y-65398263D01*
X29160415Y-65477615D01*
X29081063Y-65574306D01*
X29022098Y-65684620D01*
X28985788Y-65804318D01*
X28973528Y-65928800D01*
X28973528Y-66012681D01*
X27958800Y-64997954D01*
X27958800Y-61652647D01*
X28106586Y-61553899D01*
X28299499Y-61360986D01*
X28451071Y-61134143D01*
X28555475Y-60882089D01*
X28608700Y-60614511D01*
X28608700Y-60341689D01*
X28574001Y-60167246D01*
X29526600Y-59214647D01*
X29526601Y-63399099D01*
G37*
G04 #@! TD.AperFunction*
D32*
X35187376Y-50348276D02*
X35001480Y-50472488D01*
X34843388Y-50630580D01*
X34719176Y-50816476D01*
X34633617Y-51023033D01*
X34590000Y-51242312D01*
X34590000Y-51465888D01*
X34633617Y-51685167D01*
X34719176Y-51891724D01*
X34843388Y-52077620D01*
X35001480Y-52235712D01*
X35187376Y-52359924D01*
X35393933Y-52445483D01*
X35613212Y-52489100D01*
X35820554Y-52489100D01*
X36801101Y-53469648D01*
X36801101Y-53757232D01*
X36703305Y-53747600D01*
X36667200Y-53744044D01*
X36631095Y-53747600D01*
X34148094Y-53747600D01*
X34111999Y-53744045D01*
X34075904Y-53747600D01*
X34075895Y-53747600D01*
X33967915Y-53758235D01*
X33829367Y-53800263D01*
X33701680Y-53868513D01*
X33589762Y-53960362D01*
X33566746Y-53988407D01*
X32839508Y-54715646D01*
X32811462Y-54738663D01*
X32719613Y-54850581D01*
X32651363Y-54978268D01*
X32633819Y-55036103D01*
X32609335Y-55116815D01*
X32595144Y-55260900D01*
X32598700Y-55297005D01*
X32598700Y-55472253D01*
X30785000Y-57285954D01*
X30785000Y-54922920D01*
X30963850Y-54921300D01*
X31122600Y-54762550D01*
X31122600Y-53913300D01*
X31376600Y-53913300D01*
X31376600Y-54762550D01*
X31535350Y-54921300D01*
X31874600Y-54924372D01*
X31999082Y-54912112D01*
X32118780Y-54875802D01*
X32229094Y-54816837D01*
X32325785Y-54737485D01*
X32405137Y-54640794D01*
X32464102Y-54530480D01*
X32500412Y-54410782D01*
X32512672Y-54286300D01*
X32509600Y-54072050D01*
X32350850Y-53913300D01*
X31376600Y-53913300D01*
X31122600Y-53913300D01*
X31102600Y-53913300D01*
X31102600Y-53659300D01*
X31122600Y-53659300D01*
X31122600Y-53639300D01*
X31376600Y-53639300D01*
X31376600Y-53659300D01*
X32350850Y-53659300D01*
X32509600Y-53500550D01*
X32512672Y-53286300D01*
X32500412Y-53161818D01*
X32464102Y-53042120D01*
X32405137Y-52931806D01*
X32325785Y-52835115D01*
X32266304Y-52786300D01*
X32325785Y-52737485D01*
X32405137Y-52640794D01*
X32464102Y-52530480D01*
X32500412Y-52410782D01*
X32512672Y-52286300D01*
X32512672Y-51721000D01*
X33344495Y-51721000D01*
X33380600Y-51724556D01*
X33416705Y-51721000D01*
X33524685Y-51710365D01*
X33663233Y-51668337D01*
X33790920Y-51600087D01*
X33902838Y-51508238D01*
X33925858Y-51480188D01*
X35095847Y-50310200D01*
X35279299Y-50310200D01*
X35187376Y-50348276D01*
G04 #@! TA.AperFunction,Conductor*
D33*
G36*
X35187376Y-50348276D02*
G01*
X35001480Y-50472488D01*
X34843388Y-50630580D01*
X34719176Y-50816476D01*
X34633617Y-51023033D01*
X34590000Y-51242312D01*
X34590000Y-51465888D01*
X34633617Y-51685167D01*
X34719176Y-51891724D01*
X34843388Y-52077620D01*
X35001480Y-52235712D01*
X35187376Y-52359924D01*
X35393933Y-52445483D01*
X35613212Y-52489100D01*
X35820554Y-52489100D01*
X36801101Y-53469648D01*
X36801101Y-53757232D01*
X36703305Y-53747600D01*
X36667200Y-53744044D01*
X36631095Y-53747600D01*
X34148094Y-53747600D01*
X34111999Y-53744045D01*
X34075904Y-53747600D01*
X34075895Y-53747600D01*
X33967915Y-53758235D01*
X33829367Y-53800263D01*
X33701680Y-53868513D01*
X33589762Y-53960362D01*
X33566746Y-53988407D01*
X32839508Y-54715646D01*
X32811462Y-54738663D01*
X32719613Y-54850581D01*
X32651363Y-54978268D01*
X32633819Y-55036103D01*
X32609335Y-55116815D01*
X32595144Y-55260900D01*
X32598700Y-55297005D01*
X32598700Y-55472253D01*
X30785000Y-57285954D01*
X30785000Y-54922920D01*
X30963850Y-54921300D01*
X31122600Y-54762550D01*
X31122600Y-53913300D01*
X31376600Y-53913300D01*
X31376600Y-54762550D01*
X31535350Y-54921300D01*
X31874600Y-54924372D01*
X31999082Y-54912112D01*
X32118780Y-54875802D01*
X32229094Y-54816837D01*
X32325785Y-54737485D01*
X32405137Y-54640794D01*
X32464102Y-54530480D01*
X32500412Y-54410782D01*
X32512672Y-54286300D01*
X32509600Y-54072050D01*
X32350850Y-53913300D01*
X31376600Y-53913300D01*
X31122600Y-53913300D01*
X31102600Y-53913300D01*
X31102600Y-53659300D01*
X31122600Y-53659300D01*
X31122600Y-53639300D01*
X31376600Y-53639300D01*
X31376600Y-53659300D01*
X32350850Y-53659300D01*
X32509600Y-53500550D01*
X32512672Y-53286300D01*
X32500412Y-53161818D01*
X32464102Y-53042120D01*
X32405137Y-52931806D01*
X32325785Y-52835115D01*
X32266304Y-52786300D01*
X32325785Y-52737485D01*
X32405137Y-52640794D01*
X32464102Y-52530480D01*
X32500412Y-52410782D01*
X32512672Y-52286300D01*
X32512672Y-51721000D01*
X33344495Y-51721000D01*
X33380600Y-51724556D01*
X33416705Y-51721000D01*
X33524685Y-51710365D01*
X33663233Y-51668337D01*
X33790920Y-51600087D01*
X33902838Y-51508238D01*
X33925858Y-51480188D01*
X35095847Y-50310200D01*
X35279299Y-50310200D01*
X35187376Y-50348276D01*
G37*
G04 #@! TD.AperFunction*
D32*
X48663333Y-37735783D02*
X48882612Y-37779400D01*
X49106188Y-37779400D01*
X49325467Y-37735783D01*
X49429246Y-37692796D01*
X49553150Y-37816700D01*
X50402400Y-37816700D01*
X50402400Y-37796700D01*
X50656400Y-37796700D01*
X50656400Y-37816700D01*
X50676400Y-37816700D01*
X50676400Y-38070700D01*
X50656400Y-38070700D01*
X50656400Y-38090700D01*
X50402400Y-38090700D01*
X50402400Y-38070700D01*
X49553150Y-38070700D01*
X49394400Y-38229450D01*
X49392133Y-38572086D01*
X48479812Y-37659766D01*
X48663333Y-37735783D01*
G04 #@! TA.AperFunction,Conductor*
D33*
G36*
X48663333Y-37735783D02*
G01*
X48882612Y-37779400D01*
X49106188Y-37779400D01*
X49325467Y-37735783D01*
X49429246Y-37692796D01*
X49553150Y-37816700D01*
X50402400Y-37816700D01*
X50402400Y-37796700D01*
X50656400Y-37796700D01*
X50656400Y-37816700D01*
X50676400Y-37816700D01*
X50676400Y-38070700D01*
X50656400Y-38070700D01*
X50656400Y-38090700D01*
X50402400Y-38090700D01*
X50402400Y-38070700D01*
X49553150Y-38070700D01*
X49394400Y-38229450D01*
X49392133Y-38572086D01*
X48479812Y-37659766D01*
X48663333Y-37735783D01*
G37*
G04 #@! TD.AperFunction*
M02*
