G04 #@! TF.GenerationSoftware,KiCad,Pcbnew,5.1.7-a382d34a8~88~ubuntu18.04.1*
G04 #@! TF.CreationDate,2021-07-23T00:29:16+05:30*
G04 #@! TF.ProjectId,Sensor_PCB_v6,53656e73-6f72-45f5-9043-425f76362e6b,rev?*
G04 #@! TF.SameCoordinates,Original*
G04 #@! TF.FileFunction,Soldermask,Bot*
G04 #@! TF.FilePolarity,Negative*
%FSLAX46Y46*%
G04 Gerber Fmt 4.6, Leading zero omitted, Abs format (unit mm)*
G04 Created by KiCad (PCBNEW 5.1.7-a382d34a8~88~ubuntu18.04.1) date 2021-07-23 00:29:16*
%MOMM*%
%LPD*%
G01*
G04 APERTURE LIST*
%ADD10C,2.600000*%
%ADD11C,1.676400*%
%ADD12R,1.300000X0.700000*%
%ADD13C,1.524000*%
%ADD14O,1.300000X2.100000*%
%ADD15O,1.200000X1.400000*%
%ADD16R,1.000000X1.500000*%
%ADD17C,0.100000*%
%ADD18R,1.700000X1.700000*%
%ADD19O,1.700000X1.700000*%
%ADD20R,1.000000X0.230000*%
%ADD21R,0.230000X1.000000*%
%ADD22C,0.900000*%
%ADD23R,1.000000X1.250000*%
%ADD24R,1.250000X1.000000*%
%ADD25R,0.700000X1.300000*%
%ADD26R,1.060000X0.650000*%
%ADD27C,1.500000*%
%ADD28C,2.000000*%
%ADD29R,1.000000X1.600000*%
G04 APERTURE END LIST*
D10*
X25234900Y-87208400D03*
X58097400Y-21376600D03*
X25044400Y-21211500D03*
D11*
X33924200Y-37513300D03*
X35194200Y-39418300D03*
X36464200Y-37513300D03*
D12*
X34621900Y-74109600D03*
X34621900Y-75379600D03*
X34621900Y-72839600D03*
X34621900Y-71569600D03*
X29121900Y-74109600D03*
X29121900Y-75379600D03*
X29121900Y-72839600D03*
X29121900Y-71569600D03*
D13*
X28323900Y-44656100D03*
X28333900Y-47196100D03*
D14*
X51677600Y-86741000D03*
X58827600Y-86741000D03*
D15*
X52827600Y-83991000D03*
X57677600Y-83991000D03*
D13*
X28224800Y-26324900D03*
X28234800Y-28864900D03*
X28298500Y-35557800D03*
X28308500Y-38097800D03*
X55107500Y-60744100D03*
X55107500Y-63284100D03*
X55107500Y-65824100D03*
X55107500Y-68364100D03*
D16*
X50529400Y-37943700D03*
X53529400Y-37943700D03*
D17*
G36*
X51558949Y-37184620D02*
G01*
X51565211Y-37186266D01*
X51587513Y-37193700D01*
X52539400Y-37193700D01*
X52549155Y-37194661D01*
X52558534Y-37197506D01*
X52567179Y-37202127D01*
X52574755Y-37208345D01*
X52580973Y-37215921D01*
X52585594Y-37224566D01*
X52588439Y-37233945D01*
X52589400Y-37243700D01*
X52589400Y-39633700D01*
X53039400Y-39633700D01*
X53049155Y-39634661D01*
X53058534Y-39637506D01*
X53067179Y-39642127D01*
X53074755Y-39648345D01*
X53080973Y-39655921D01*
X53085594Y-39664566D01*
X53088439Y-39673945D01*
X53089400Y-39683531D01*
X53099400Y-42633531D01*
X53098472Y-42643288D01*
X53095659Y-42652677D01*
X53091067Y-42661337D01*
X53084875Y-42668935D01*
X53077319Y-42675179D01*
X53068691Y-42679829D01*
X53059321Y-42682706D01*
X53049400Y-42683700D01*
X52539400Y-42683700D01*
X52539400Y-42723700D01*
X51539400Y-42723700D01*
X51539400Y-42683700D01*
X50989400Y-42683700D01*
X50979645Y-42682739D01*
X50970266Y-42679894D01*
X50961621Y-42675273D01*
X50954045Y-42669055D01*
X50947827Y-42661479D01*
X50943206Y-42652834D01*
X50940361Y-42643455D01*
X50939400Y-42633700D01*
X50939400Y-39623700D01*
X50940361Y-39613945D01*
X50943206Y-39604566D01*
X50947827Y-39595921D01*
X50954045Y-39588345D01*
X50961621Y-39582127D01*
X50970266Y-39577506D01*
X50979645Y-39574661D01*
X50989400Y-39573700D01*
X51509190Y-39573700D01*
X51499400Y-37233909D01*
X51500320Y-37224151D01*
X51503126Y-37214759D01*
X51507711Y-37206096D01*
X51513897Y-37198493D01*
X51521448Y-37192243D01*
X51530073Y-37187586D01*
X51539440Y-37184702D01*
X51549191Y-37183700D01*
X51558949Y-37184620D01*
G37*
D18*
X35679400Y-86669900D03*
D19*
X38219400Y-86669900D03*
X40759400Y-86669900D03*
X43299400Y-86669900D03*
X45839400Y-86669900D03*
X48379400Y-86669900D03*
D20*
X42362100Y-57421800D03*
D21*
X41092100Y-63771800D03*
X40584100Y-63771800D03*
X40076100Y-63771800D03*
X39568100Y-63771800D03*
X39060100Y-63771800D03*
X38552100Y-63771800D03*
X38044100Y-63771800D03*
X37536100Y-63771800D03*
X37028100Y-63771800D03*
X36520100Y-63771800D03*
X36012100Y-63771800D03*
X35504100Y-63771800D03*
D20*
X34234100Y-62501800D03*
X34234100Y-61993800D03*
X34234100Y-60977800D03*
X34234100Y-60469800D03*
X34234100Y-59961800D03*
X34234100Y-59453800D03*
X34234100Y-58945800D03*
X34234100Y-58437800D03*
X34234100Y-57929800D03*
X34234100Y-57421800D03*
X34234100Y-56913800D03*
D21*
X36012100Y-55643800D03*
X36520100Y-55643800D03*
X37028100Y-55643800D03*
X37536100Y-55643800D03*
X38044100Y-55643800D03*
X38552100Y-55643800D03*
X39060100Y-55643800D03*
X39568100Y-55643800D03*
X40076100Y-55643800D03*
X40584100Y-55643800D03*
X41092100Y-55643800D03*
D20*
X42362100Y-56913800D03*
X42362100Y-57929800D03*
X42362100Y-58437800D03*
X42362100Y-58945800D03*
X42362100Y-59453800D03*
X42362100Y-59961800D03*
X42362100Y-60469800D03*
X42362100Y-60977800D03*
X42362100Y-61485800D03*
X42362100Y-61993800D03*
X42362100Y-62501800D03*
D21*
X35504100Y-55643800D03*
D20*
X34234100Y-61485800D03*
D22*
X45416300Y-21229300D03*
X48416300Y-21229300D03*
D12*
X30261600Y-66278800D03*
X30261600Y-64378800D03*
D18*
X56200000Y-79926200D03*
D19*
X56200000Y-77386200D03*
X56200000Y-74846200D03*
X56200000Y-72306200D03*
D18*
X29255700Y-87609700D03*
X55587900Y-55179000D03*
D19*
X55587900Y-52639000D03*
X55587900Y-50099000D03*
X55587900Y-47559000D03*
D23*
X48935600Y-74284800D03*
X46935600Y-74284800D03*
D24*
X42227500Y-48947600D03*
X42227500Y-46947600D03*
X42296100Y-50805800D03*
X42296100Y-52805800D03*
X33530500Y-47150800D03*
X33530500Y-49150800D03*
X31249600Y-51786300D03*
X31249600Y-53786300D03*
X36446500Y-24291800D03*
X36446500Y-22291800D03*
X39413200Y-24477200D03*
X39413200Y-22477200D03*
D25*
X47401400Y-71384200D03*
X49301400Y-71384200D03*
D12*
X37863800Y-48719800D03*
X37863800Y-46819800D03*
X28638500Y-20490100D03*
X28638500Y-22390100D03*
D25*
X52875200Y-26489700D03*
X50975200Y-26489700D03*
G36*
G01*
X54785700Y-22567414D02*
X54785700Y-22567414D01*
G75*
G02*
X53556277Y-22237991I-450000J779423D01*
G01*
X53556277Y-22237991D01*
G75*
G02*
X53885700Y-21008568I779423J450000D01*
G01*
X53885700Y-21008568D01*
G75*
G02*
X55115123Y-21337991I450000J-779423D01*
G01*
X55115123Y-21337991D01*
G75*
G02*
X54785700Y-22567414I-779423J-450000D01*
G01*
G37*
D17*
G36*
X58105123Y-26516823D02*
G01*
X56546277Y-27416823D01*
X55646277Y-25857977D01*
X57205123Y-24957977D01*
X58105123Y-26516823D01*
G37*
D26*
X33174800Y-30452100D03*
X33174800Y-29502100D03*
X33174800Y-28552100D03*
X35374800Y-28552100D03*
X35374800Y-30452100D03*
D27*
X46454100Y-52830100D03*
X46454100Y-47950100D03*
X27223700Y-55598100D03*
X27223700Y-60478100D03*
D28*
X44371100Y-78079600D03*
X44371100Y-73579600D03*
X50871100Y-78079600D03*
X50871100Y-73579600D03*
D29*
X42795100Y-36814800D03*
X45795100Y-36814800D03*
D23*
X31629900Y-78404700D03*
X29629900Y-78404700D03*
D25*
X38597800Y-74617600D03*
X40497800Y-74617600D03*
X40558800Y-71899800D03*
X38658800Y-71899800D03*
X38267700Y-78709500D03*
X36367700Y-78709500D03*
M02*
