G04 #@! TF.GenerationSoftware,KiCad,Pcbnew,5.1.7-a382d34a8~88~ubuntu18.04.1*
G04 #@! TF.CreationDate,2021-07-23T00:29:16+05:30*
G04 #@! TF.ProjectId,Sensor_PCB_v6,53656e73-6f72-45f5-9043-425f76362e6b,rev?*
G04 #@! TF.SameCoordinates,Original*
G04 #@! TF.FileFunction,Copper,L1,Top*
G04 #@! TF.FilePolarity,Positive*
%FSLAX46Y46*%
G04 Gerber Fmt 4.6, Leading zero omitted, Abs format (unit mm)*
G04 Created by KiCad (PCBNEW 5.1.7-a382d34a8~88~ubuntu18.04.1) date 2021-07-23 00:29:16*
%MOMM*%
%LPD*%
G01*
G04 APERTURE LIST*
G04 #@! TA.AperFunction,ComponentPad*
%ADD10C,2.600000*%
G04 #@! TD*
G04 #@! TA.AperFunction,ComponentPad*
%ADD11C,1.676400*%
G04 #@! TD*
G04 #@! TA.AperFunction,ComponentPad*
%ADD12C,1.524000*%
G04 #@! TD*
G04 #@! TA.AperFunction,SMDPad,CuDef*
%ADD13R,1.750000X3.000000*%
G04 #@! TD*
G04 #@! TA.AperFunction,SMDPad,CuDef*
%ADD14R,3.110000X1.580000*%
G04 #@! TD*
G04 #@! TA.AperFunction,ComponentPad*
%ADD15O,1.200000X2.000000*%
G04 #@! TD*
G04 #@! TA.AperFunction,SMDPad,CuDef*
%ADD16R,2.000000X2.000000*%
G04 #@! TD*
G04 #@! TA.AperFunction,SMDPad,CuDef*
%ADD17R,0.400000X1.350000*%
G04 #@! TD*
G04 #@! TA.AperFunction,ComponentPad*
%ADD18O,1.100000X1.300000*%
G04 #@! TD*
G04 #@! TA.AperFunction,ComponentPad*
%ADD19R,1.700000X1.700000*%
G04 #@! TD*
G04 #@! TA.AperFunction,ComponentPad*
%ADD20O,1.700000X1.700000*%
G04 #@! TD*
G04 #@! TA.AperFunction,SMDPad,CuDef*
%ADD21R,1.000000X0.800000*%
G04 #@! TD*
G04 #@! TA.AperFunction,SMDPad,CuDef*
%ADD22R,0.700000X1.100000*%
G04 #@! TD*
G04 #@! TA.AperFunction,SMDPad,CuDef*
%ADD23R,0.900000X0.800000*%
G04 #@! TD*
G04 #@! TA.AperFunction,SMDPad,CuDef*
%ADD24R,1.200000X1.700000*%
G04 #@! TD*
G04 #@! TA.AperFunction,ComponentPad*
%ADD25C,0.100000*%
G04 #@! TD*
G04 #@! TA.AperFunction,ComponentPad*
%ADD26C,1.500000*%
G04 #@! TD*
G04 #@! TA.AperFunction,ComponentPad*
%ADD27C,2.000000*%
G04 #@! TD*
G04 #@! TA.AperFunction,SMDPad,CuDef*
%ADD28R,1.000000X1.250000*%
G04 #@! TD*
G04 #@! TA.AperFunction,SMDPad,CuDef*
%ADD29R,0.700000X1.300000*%
G04 #@! TD*
G04 #@! TA.AperFunction,ViaPad*
%ADD30C,1.000000*%
G04 #@! TD*
G04 #@! TA.AperFunction,Conductor*
%ADD31C,0.800000*%
G04 #@! TD*
G04 #@! TA.AperFunction,Conductor*
%ADD32C,0.200000*%
G04 #@! TD*
G04 #@! TA.AperFunction,Conductor*
%ADD33C,0.254000*%
G04 #@! TD*
G04 #@! TA.AperFunction,Conductor*
%ADD34C,0.100000*%
G04 #@! TD*
G04 APERTURE END LIST*
D10*
X25234900Y-87208400D03*
X58097400Y-21376600D03*
X25044400Y-21211500D03*
D11*
X33924200Y-37513300D03*
X35194200Y-39418300D03*
X36464200Y-37513300D03*
D12*
X28323900Y-44656100D03*
X28333900Y-47196100D03*
D13*
X48665400Y-39593700D03*
X39965400Y-39593700D03*
D14*
X44963700Y-30358100D03*
X39963700Y-30358100D03*
D15*
X51677600Y-86741000D03*
D16*
X55252600Y-86741000D03*
D15*
X58827600Y-86741000D03*
D17*
X53952600Y-84066000D03*
X54602600Y-84066000D03*
X55252600Y-84066000D03*
X55902600Y-84066000D03*
X56552600Y-84066000D03*
D18*
X52827600Y-83991000D03*
X57677600Y-83991000D03*
D12*
X28224800Y-26324900D03*
X28234800Y-28864900D03*
X28298500Y-35557800D03*
X28308500Y-38097800D03*
X55107500Y-60744100D03*
X55107500Y-63284100D03*
X55107500Y-65824100D03*
X55107500Y-68364100D03*
D19*
X35679400Y-86669900D03*
D20*
X38219400Y-86669900D03*
X40759400Y-86669900D03*
X43299400Y-86669900D03*
X45839400Y-86669900D03*
X48379400Y-86669900D03*
D21*
X43166300Y-20079300D03*
X43166300Y-22379300D03*
X50666300Y-20079300D03*
X50666300Y-22379300D03*
D22*
X44666300Y-23279300D03*
X46166300Y-23279300D03*
X49166300Y-23279300D03*
D23*
X37541200Y-49833800D03*
X37541200Y-51933800D03*
D19*
X56200000Y-79926200D03*
D20*
X56200000Y-77386200D03*
X56200000Y-74846200D03*
X56200000Y-72306200D03*
D24*
X25204700Y-68526400D03*
X27204700Y-68526400D03*
X29204700Y-68526400D03*
X31204700Y-68526400D03*
X33204700Y-68526400D03*
X35204700Y-68526400D03*
X37204700Y-68526400D03*
X39204700Y-68526400D03*
X39204700Y-83756400D03*
X37204700Y-83756400D03*
X35204700Y-83756400D03*
X33204700Y-83756400D03*
X31204700Y-83756400D03*
X29204700Y-83756400D03*
X27204700Y-83756400D03*
X25204700Y-83756400D03*
D19*
X29255700Y-87609700D03*
X55587900Y-55179000D03*
D20*
X55587900Y-52639000D03*
X55587900Y-50099000D03*
X55587900Y-47559000D03*
D23*
X33733700Y-23085100D03*
X33733700Y-25185100D03*
G04 #@! TA.AperFunction,ComponentPad*
G36*
G01*
X54785700Y-22567414D02*
X54785700Y-22567414D01*
G75*
G02*
X53556277Y-22237991I-450000J779423D01*
G01*
X53556277Y-22237991D01*
G75*
G02*
X53885700Y-21008568I779423J450000D01*
G01*
X53885700Y-21008568D01*
G75*
G02*
X55115123Y-21337991I450000J-779423D01*
G01*
X55115123Y-21337991D01*
G75*
G02*
X54785700Y-22567414I-779423J-450000D01*
G01*
G37*
G04 #@! TD.AperFunction*
G04 #@! TA.AperFunction,ComponentPad*
D25*
G36*
X58105123Y-26516823D02*
G01*
X56546277Y-27416823D01*
X55646277Y-25857977D01*
X57205123Y-24957977D01*
X58105123Y-26516823D01*
G37*
G04 #@! TD.AperFunction*
D26*
X46454100Y-52830100D03*
X46454100Y-47950100D03*
X27223700Y-55598100D03*
X27223700Y-60478100D03*
D27*
X44371100Y-78079600D03*
X44371100Y-73579600D03*
X50871100Y-78079600D03*
X50871100Y-73579600D03*
D14*
X58120900Y-32250400D03*
X53120900Y-32250400D03*
D28*
X33536400Y-33967400D03*
X35536400Y-33967400D03*
D23*
X45885100Y-82721200D03*
X45885100Y-80621200D03*
X42707600Y-80636400D03*
X42707600Y-82736400D03*
D29*
X37625000Y-47246500D03*
X35725000Y-47246500D03*
D30*
X38795000Y-65809000D03*
X42734200Y-24651900D03*
X51262100Y-27935600D03*
X32483600Y-58389200D03*
X34591800Y-66284800D03*
X33311900Y-63643000D03*
X32393300Y-66294900D03*
X32412600Y-59787500D03*
X32527500Y-65027300D03*
X30257600Y-23093600D03*
X37515900Y-58465200D03*
X36315500Y-58584400D03*
X33664700Y-78622300D03*
X37967400Y-61549200D03*
X32534600Y-61403200D03*
X48994400Y-36644400D03*
X44732700Y-82319100D03*
X41761800Y-81821400D03*
X35725000Y-51354100D03*
X34494900Y-55282900D03*
D31*
X25204700Y-85206700D02*
X25204700Y-83756400D01*
X26332040Y-85206700D02*
X25204700Y-85206700D01*
X27805400Y-86680060D02*
X26332040Y-85206700D01*
X29255700Y-87609700D02*
X27805400Y-87609700D01*
X27805400Y-87609700D02*
X27805400Y-86680060D01*
D32*
X38795000Y-65809000D02*
X35507400Y-62521400D01*
X35507400Y-62521400D02*
X35507400Y-58259000D01*
X35507400Y-58259000D02*
X40936300Y-52830100D01*
X40936300Y-52830100D02*
X46454100Y-52830100D01*
X44144000Y-24651900D02*
X42734200Y-24651900D01*
X44963700Y-30358100D02*
X44963700Y-29267800D01*
X44144000Y-24651900D02*
X44666300Y-24129600D01*
X44144000Y-24651900D02*
X44144000Y-28448100D01*
X44144000Y-28448100D02*
X44963700Y-29267800D01*
X44666300Y-23279300D02*
X44666300Y-24129600D01*
X39965400Y-39593700D02*
X41140700Y-39593700D01*
X44963700Y-30358100D02*
X44963700Y-35770700D01*
X44963700Y-35770700D02*
X41140700Y-39593700D01*
X42707600Y-79936100D02*
X36266800Y-73495300D01*
X36266800Y-73495300D02*
X36266800Y-65466000D01*
X36266800Y-65466000D02*
X33125500Y-62324700D01*
X33125500Y-62324700D02*
X32299700Y-62324700D01*
X32299700Y-62324700D02*
X31714500Y-61739500D01*
X31714500Y-61739500D02*
X31714500Y-61091500D01*
X31714500Y-61091500D02*
X32218200Y-60587800D01*
X32218200Y-60587800D02*
X32744200Y-60587800D01*
X32744200Y-60587800D02*
X33291300Y-60040700D01*
X33291300Y-60040700D02*
X33291300Y-55667700D01*
X33291300Y-55667700D02*
X26828900Y-49205300D01*
X26828900Y-49205300D02*
X26828900Y-46168000D01*
X26828900Y-46168000D02*
X27229200Y-45767700D01*
X27229200Y-45767700D02*
X27229200Y-44216700D01*
X27229200Y-44216700D02*
X28308500Y-43137400D01*
X28308500Y-43137400D02*
X28308500Y-38097800D01*
X42707600Y-80636400D02*
X42707600Y-79936100D01*
X42989300Y-80636400D02*
X42707600Y-80636400D01*
X42989300Y-80636400D02*
X43457900Y-80636400D01*
X53952600Y-84066000D02*
X53952600Y-83090700D01*
X45885100Y-80621200D02*
X51483100Y-80621200D01*
X51483100Y-80621200D02*
X53952600Y-83090700D01*
X45678200Y-80621200D02*
X45885100Y-80621200D01*
X43457900Y-80636400D02*
X45119600Y-80636400D01*
X45119600Y-80636400D02*
X45134800Y-80621200D01*
X33536400Y-33967400D02*
X32736100Y-33967400D01*
X32736100Y-33967400D02*
X28605700Y-38097800D01*
X28605700Y-38097800D02*
X28308500Y-38097800D01*
X45678200Y-80621200D02*
X45134800Y-80621200D01*
X51262100Y-27935600D02*
X47456100Y-24129600D01*
X47456100Y-24129600D02*
X46166300Y-24129600D01*
X55107500Y-68364100D02*
X57594800Y-65876800D01*
X57594800Y-65876800D02*
X57594800Y-47849200D01*
X57594800Y-47849200D02*
X56153400Y-46407800D01*
X56153400Y-46407800D02*
X56153400Y-32445600D01*
X56153400Y-32445600D02*
X51643400Y-27935600D01*
X51643400Y-27935600D02*
X51262100Y-27935600D01*
X46166300Y-23279300D02*
X46166300Y-24129600D01*
X46166300Y-23279300D02*
X46166300Y-22429000D01*
X33733700Y-25185100D02*
X40188700Y-25185100D01*
X40188700Y-25185100D02*
X42294100Y-23079700D01*
X42294100Y-23079700D02*
X43854100Y-23079700D01*
X43854100Y-23079700D02*
X43966700Y-22967100D01*
X43966700Y-22967100D02*
X43966700Y-22563400D01*
X43966700Y-22563400D02*
X44101100Y-22429000D01*
X44101100Y-22429000D02*
X46166300Y-22429000D01*
X30105000Y-83756400D02*
X29204700Y-83756400D01*
X47229100Y-86669900D02*
X47229100Y-86382300D01*
X48379400Y-86669900D02*
X47229100Y-86669900D01*
X47229100Y-86382300D02*
X46180100Y-85333300D01*
X30570900Y-85333300D02*
X30105000Y-84867400D01*
X46180100Y-85333300D02*
X30570900Y-85333300D01*
X30105000Y-84867400D02*
X30105000Y-83756400D01*
X56114700Y-24869400D02*
X56114800Y-24869300D01*
X56114800Y-24869300D02*
X56114800Y-21775300D01*
X56114800Y-21775300D02*
X53718400Y-19378900D01*
X53718400Y-19378900D02*
X40671600Y-19378900D01*
X40671600Y-19378900D02*
X36265000Y-23785500D01*
X36265000Y-23785500D02*
X33781800Y-23785500D01*
X33781800Y-23785500D02*
X31144500Y-26422800D01*
X31144500Y-26422800D02*
X31144500Y-30157700D01*
X31144500Y-30157700D02*
X27219800Y-34082400D01*
X27219800Y-34082400D02*
X27219800Y-42661600D01*
X27219800Y-42661600D02*
X26869500Y-43011900D01*
X26869500Y-43011900D02*
X26869500Y-43810000D01*
X26869500Y-43810000D02*
X26819500Y-43860000D01*
X26819500Y-43860000D02*
X26819500Y-45611300D01*
X26819500Y-45611300D02*
X26428600Y-46002200D01*
X26428600Y-46002200D02*
X26428600Y-49371200D01*
X26428600Y-49371200D02*
X26869500Y-49812100D01*
X26869500Y-49812100D02*
X26869500Y-50539100D01*
X26869500Y-50539100D02*
X30546900Y-54216500D01*
X30546900Y-54216500D02*
X30546900Y-55251000D01*
X30546900Y-55251000D02*
X31347500Y-56051600D01*
X31347500Y-56051600D02*
X31347500Y-56686000D01*
X31347500Y-56686000D02*
X31747800Y-57086300D01*
X31747800Y-57086300D02*
X31747800Y-57653400D01*
X31747800Y-57653400D02*
X32483600Y-58389200D01*
X56875700Y-26187400D02*
X56114700Y-24869400D01*
X33204700Y-83756400D02*
X34105000Y-83756400D01*
X34105000Y-83756400D02*
X34105000Y-82856100D01*
X34105000Y-82856100D02*
X34475600Y-82485500D01*
X34475600Y-82485500D02*
X34475600Y-77384200D01*
X34475600Y-77384200D02*
X34304300Y-77212900D01*
X34304300Y-77212900D02*
X34304300Y-66572300D01*
X34304300Y-66572300D02*
X34591800Y-66284800D01*
X27204700Y-68526400D02*
X28105000Y-68526400D01*
X28105000Y-68526400D02*
X28105000Y-69314200D01*
X28105000Y-69314200D02*
X28467600Y-69676800D01*
X28467600Y-69676800D02*
X29998800Y-69676800D01*
X29998800Y-69676800D02*
X30105100Y-69570500D01*
X30105100Y-69570500D02*
X30105100Y-66317700D01*
X30105100Y-66317700D02*
X32779800Y-63643000D01*
X32779800Y-63643000D02*
X33311900Y-63643000D01*
X31204700Y-67376100D02*
X31312100Y-67376100D01*
X31312100Y-67376100D02*
X32393300Y-66294900D01*
X31204700Y-68526400D02*
X31204700Y-67376100D01*
X29204700Y-68526400D02*
X29204700Y-62995400D01*
X29204700Y-62995400D02*
X32412600Y-59787500D01*
X33204700Y-67376100D02*
X33204700Y-65704500D01*
X33204700Y-65704500D02*
X32527500Y-65027300D01*
X33204700Y-68526400D02*
X33204700Y-67376100D01*
X32983400Y-23085100D02*
X32974900Y-23093600D01*
X32974900Y-23093600D02*
X30257600Y-23093600D01*
X33733700Y-23085100D02*
X32983400Y-23085100D01*
X55587900Y-51249300D02*
X55875500Y-51249300D01*
X55875500Y-51249300D02*
X57140200Y-52514000D01*
X57140200Y-52514000D02*
X57140200Y-56321600D01*
X57140200Y-56321600D02*
X54996600Y-58465200D01*
X54996600Y-58465200D02*
X37515900Y-58465200D01*
X55587900Y-50099000D02*
X55587900Y-51249300D01*
X55587900Y-53789300D02*
X56378700Y-53789300D01*
X56378700Y-53789300D02*
X56738300Y-54148900D01*
X56738300Y-54148900D02*
X56738300Y-56157200D01*
X56738300Y-56157200D02*
X55230600Y-57664900D01*
X55230600Y-57664900D02*
X37141900Y-57664900D01*
X37141900Y-57664900D02*
X36315500Y-58491300D01*
X36315500Y-58491300D02*
X36315500Y-58584400D01*
X55587900Y-52639000D02*
X55587900Y-53789300D01*
X31204700Y-83756400D02*
X32105000Y-83756400D01*
X32105000Y-83756400D02*
X32105000Y-80182000D01*
X32105000Y-80182000D02*
X33664700Y-78622300D01*
X37541200Y-49833800D02*
X37541200Y-50534100D01*
X28333900Y-47196100D02*
X33308300Y-52170500D01*
X33308300Y-52170500D02*
X36070200Y-52170500D01*
X36070200Y-52170500D02*
X36715400Y-51525300D01*
X36715400Y-51525300D02*
X36715400Y-51359900D01*
X36715400Y-51359900D02*
X37541200Y-50534100D01*
X44371100Y-78079600D02*
X39204700Y-72913200D01*
X39204700Y-72913200D02*
X39204700Y-68526400D01*
X50666300Y-21979700D02*
X43565900Y-21979700D01*
X43565900Y-21979700D02*
X43166300Y-22379300D01*
X50666300Y-21979700D02*
X50666300Y-22179200D01*
X50666300Y-22179200D02*
X50866400Y-22379300D01*
X50666300Y-20079300D02*
X50666300Y-21979700D01*
X50866400Y-22379300D02*
X51066500Y-22379300D01*
X50666300Y-22379300D02*
X50866400Y-22379300D01*
X54335700Y-21788000D02*
X53181000Y-22454700D01*
X53181000Y-22454700D02*
X53181000Y-26220200D01*
X53181000Y-26220200D02*
X58120900Y-31160100D01*
X53181000Y-22454700D02*
X53180900Y-22454800D01*
X58120900Y-32250400D02*
X58120900Y-31160100D01*
X53180900Y-22454800D02*
X53105400Y-22379300D01*
X53105400Y-22379300D02*
X51066500Y-22379300D01*
X57677600Y-83991000D02*
X56827300Y-83991000D01*
X56552600Y-84503600D02*
X56827300Y-84228900D01*
X56827300Y-84228900D02*
X56827300Y-83991000D01*
X56552600Y-84503600D02*
X56552600Y-84941200D01*
X56552600Y-84066000D02*
X56552600Y-84503600D01*
X56200000Y-77386200D02*
X55049700Y-77386200D01*
X50871100Y-78079600D02*
X54356300Y-78079600D01*
X54356300Y-78079600D02*
X55049700Y-77386200D01*
X44371100Y-78079600D02*
X50871100Y-78079600D01*
X27654900Y-83756400D02*
X25204700Y-81306200D01*
X25204700Y-81306200D02*
X25204700Y-68526400D01*
X27204700Y-83756400D02*
X27654900Y-83756400D01*
X39963700Y-30358100D02*
X38108400Y-30358100D01*
X51977300Y-85041300D02*
X51977300Y-85141000D01*
X51977300Y-85141000D02*
X51677600Y-85440700D01*
X51977300Y-83991000D02*
X51977300Y-85041300D01*
X56552600Y-84941200D02*
X56452500Y-85041300D01*
X56452500Y-85041300D02*
X51977300Y-85041300D01*
X51677600Y-86741000D02*
X51677600Y-85440700D01*
X52827600Y-83991000D02*
X51977300Y-83991000D01*
X38108400Y-30358100D02*
X38108400Y-30470100D01*
X38108400Y-30470100D02*
X35536400Y-33042100D01*
X28298500Y-35557800D02*
X30814200Y-33042100D01*
X30814200Y-33042100D02*
X35536400Y-33042100D01*
X35536400Y-33967400D02*
X35536400Y-33042100D01*
X35536400Y-33967400D02*
X35536400Y-36585500D01*
X35536400Y-36585500D02*
X36464200Y-37513300D01*
X27698600Y-83756400D02*
X27654900Y-83756400D01*
X28087320Y-84145120D02*
X27698600Y-83756400D01*
X28087320Y-84629022D02*
X28087320Y-84145120D01*
X34529100Y-86669900D02*
X34318500Y-86459300D01*
X35679400Y-86669900D02*
X34529100Y-86669900D01*
X28642278Y-85183980D02*
X28087320Y-84629022D01*
X34318500Y-86459300D02*
X30665660Y-86459300D01*
X30665660Y-86459300D02*
X29390340Y-85183980D01*
X29390340Y-85183980D02*
X28642278Y-85183980D01*
X56200000Y-72306200D02*
X55049700Y-72306200D01*
X55049700Y-72306200D02*
X44292700Y-61549200D01*
X44292700Y-61549200D02*
X37967400Y-61549200D01*
X32534600Y-61403200D02*
X34092100Y-59845700D01*
X34092100Y-59845700D02*
X34092100Y-57125900D01*
X34092100Y-57125900D02*
X37541200Y-53676800D01*
X37541200Y-53676800D02*
X37541200Y-52634100D01*
X37541200Y-51933800D02*
X37541200Y-52634100D01*
X55587900Y-47559000D02*
X55587900Y-46408700D01*
X55587900Y-46408700D02*
X53120900Y-43941700D01*
X53120900Y-43941700D02*
X53120900Y-32250400D01*
X48994400Y-36644400D02*
X48665400Y-36973400D01*
X48665400Y-36973400D02*
X48665400Y-39593700D01*
X44732700Y-82319100D02*
X45134800Y-82721200D01*
X45885100Y-82721200D02*
X45134800Y-82721200D01*
X41761800Y-81821400D02*
X42492900Y-81821400D01*
X42492900Y-81821400D02*
X42707600Y-82036100D01*
X42707600Y-82736400D02*
X42707600Y-82036100D01*
X37625000Y-47246500D02*
X37625000Y-41849100D01*
X37625000Y-41849100D02*
X35194200Y-39418300D01*
X35725000Y-47246500D02*
X35725000Y-51354100D01*
X55587900Y-55179000D02*
X54437600Y-55179000D01*
X54437600Y-55179000D02*
X48392000Y-49133400D01*
X48392000Y-49133400D02*
X38080200Y-49133400D01*
X38080200Y-49133400D02*
X36691300Y-47744500D01*
X36691300Y-47744500D02*
X36691300Y-42986000D01*
X36691300Y-42986000D02*
X33924200Y-40218900D01*
X33924200Y-40218900D02*
X33924200Y-37513300D01*
X28323900Y-44656100D02*
X28323900Y-45439400D01*
X28323900Y-45439400D02*
X27229200Y-46534100D01*
X27229200Y-46534100D02*
X27229200Y-48017200D01*
X27229200Y-48017200D02*
X34494900Y-55282900D01*
D33*
X42028228Y-20479300D02*
X42040488Y-20603782D01*
X42076798Y-20723480D01*
X42135763Y-20833794D01*
X42215115Y-20930485D01*
X42311806Y-21009837D01*
X42422120Y-21068802D01*
X42541818Y-21105112D01*
X42666300Y-21117372D01*
X43666300Y-21117372D01*
X43790782Y-21105112D01*
X43910480Y-21068802D01*
X44020794Y-21009837D01*
X44117485Y-20930485D01*
X44196837Y-20833794D01*
X44255802Y-20723480D01*
X44292112Y-20603782D01*
X44304372Y-20479300D01*
X44304372Y-20113900D01*
X49531300Y-20113900D01*
X49531300Y-20206302D01*
X49690048Y-20206302D01*
X49531300Y-20365050D01*
X49528228Y-20479300D01*
X49540488Y-20603782D01*
X49576798Y-20723480D01*
X49635763Y-20833794D01*
X49715115Y-20930485D01*
X49811806Y-21009837D01*
X49922120Y-21068802D01*
X50041818Y-21105112D01*
X50166300Y-21117372D01*
X50380550Y-21114300D01*
X50539300Y-20955550D01*
X50539300Y-20206300D01*
X50519300Y-20206300D01*
X50519300Y-20113900D01*
X50813300Y-20113900D01*
X50813300Y-20206300D01*
X50793300Y-20206300D01*
X50793300Y-20955550D01*
X50952050Y-21114300D01*
X51166300Y-21117372D01*
X51290782Y-21105112D01*
X51410480Y-21068802D01*
X51520794Y-21009837D01*
X51617485Y-20930485D01*
X51696837Y-20833794D01*
X51755802Y-20723480D01*
X51792112Y-20603782D01*
X51804372Y-20479300D01*
X51801300Y-20365050D01*
X51642552Y-20206302D01*
X51801300Y-20206302D01*
X51801300Y-20113900D01*
X53413954Y-20113900D01*
X53790982Y-20490928D01*
X53760496Y-20537709D01*
X54382185Y-21614506D01*
X54399506Y-21604506D01*
X54526506Y-21824476D01*
X54509185Y-21834476D01*
X55130874Y-22911273D01*
X55379801Y-22897830D01*
X55379800Y-24808541D01*
X55377724Y-24821118D01*
X55378517Y-24845309D01*
X55376144Y-24869400D01*
X55380883Y-24917516D01*
X55382466Y-24965822D01*
X55387962Y-24989389D01*
X55390335Y-25013485D01*
X55404371Y-25059753D01*
X55415347Y-25106822D01*
X55425337Y-25128869D01*
X55432364Y-25152033D01*
X55455148Y-25194659D01*
X55460129Y-25205651D01*
X55470096Y-25222913D01*
X55327241Y-25305390D01*
X55225567Y-25378249D01*
X55140060Y-25469543D01*
X55074008Y-25575765D01*
X55029947Y-25692832D01*
X55009571Y-25816245D01*
X55013664Y-25941262D01*
X55042067Y-26063078D01*
X55093690Y-26177013D01*
X55993690Y-27735859D01*
X56066549Y-27837533D01*
X56157843Y-27923040D01*
X56264065Y-27989092D01*
X56381132Y-28033153D01*
X56504545Y-28053529D01*
X56629562Y-28049436D01*
X56751378Y-28021033D01*
X56865313Y-27969410D01*
X58424159Y-27069410D01*
X58525833Y-26996551D01*
X58611340Y-26905257D01*
X58677392Y-26799035D01*
X58721453Y-26681968D01*
X58741829Y-26558555D01*
X58737736Y-26433538D01*
X58709333Y-26311722D01*
X58657710Y-26197787D01*
X57757710Y-24638941D01*
X57684851Y-24537267D01*
X57593557Y-24451760D01*
X57487335Y-24385708D01*
X57370268Y-24341647D01*
X57246855Y-24321271D01*
X57121838Y-24325364D01*
X57000022Y-24353767D01*
X56886087Y-24405390D01*
X56849800Y-24426340D01*
X56849800Y-22865504D01*
X56863909Y-22879613D01*
X57180834Y-23091375D01*
X57532981Y-23237239D01*
X57906819Y-23311600D01*
X58287981Y-23311600D01*
X58661819Y-23237239D01*
X59013966Y-23091375D01*
X59330891Y-22879613D01*
X59600413Y-22610091D01*
X59812175Y-22293166D01*
X59948906Y-21963068D01*
X59922541Y-30872213D01*
X59920080Y-30870898D01*
X59800382Y-30834588D01*
X59675900Y-30822328D01*
X58406650Y-30825400D01*
X58247900Y-30984150D01*
X58247900Y-32123400D01*
X58267900Y-32123400D01*
X58267900Y-32377400D01*
X58247900Y-32377400D01*
X58247900Y-33516650D01*
X58406650Y-33675400D01*
X59675900Y-33678472D01*
X59800382Y-33666212D01*
X59914375Y-33631633D01*
X59760801Y-85526367D01*
X59611074Y-85377922D01*
X59408133Y-85243579D01*
X59182882Y-85151409D01*
X59145209Y-85147538D01*
X58954600Y-85272269D01*
X58954600Y-86614000D01*
X58974600Y-86614000D01*
X58974600Y-86868000D01*
X58954600Y-86868000D01*
X58954600Y-88209731D01*
X59145209Y-88334462D01*
X59182882Y-88330591D01*
X59408133Y-88238421D01*
X59611074Y-88104078D01*
X59753591Y-87962782D01*
X59748797Y-89582670D01*
X23349497Y-89413665D01*
X23339071Y-87595909D01*
X23374261Y-87772819D01*
X23520125Y-88124966D01*
X23731887Y-88441891D01*
X24001409Y-88711413D01*
X24318334Y-88923175D01*
X24670481Y-89069039D01*
X25044319Y-89143400D01*
X25425481Y-89143400D01*
X25799319Y-89069039D01*
X26151466Y-88923175D01*
X26468391Y-88711413D01*
X26737913Y-88441891D01*
X26926101Y-88160247D01*
X26940666Y-88187497D01*
X27070004Y-88345096D01*
X27227603Y-88474434D01*
X27407407Y-88570541D01*
X27602505Y-88629724D01*
X27799591Y-88649135D01*
X27816198Y-88703880D01*
X27875163Y-88814194D01*
X27954515Y-88910885D01*
X28051206Y-88990237D01*
X28161520Y-89049202D01*
X28281218Y-89085512D01*
X28405700Y-89097772D01*
X30105700Y-89097772D01*
X30230182Y-89085512D01*
X30349880Y-89049202D01*
X30460194Y-88990237D01*
X30556885Y-88910885D01*
X30636237Y-88814194D01*
X30695202Y-88703880D01*
X30731512Y-88584182D01*
X30743772Y-88459700D01*
X30743772Y-87519900D01*
X34191328Y-87519900D01*
X34203588Y-87644382D01*
X34239898Y-87764080D01*
X34298863Y-87874394D01*
X34378215Y-87971085D01*
X34474906Y-88050437D01*
X34585220Y-88109402D01*
X34704918Y-88145712D01*
X34829400Y-88157972D01*
X35393650Y-88154900D01*
X35552400Y-87996150D01*
X35552400Y-86796900D01*
X34353150Y-86796900D01*
X34194400Y-86955650D01*
X34191328Y-87519900D01*
X30743772Y-87519900D01*
X30743772Y-86759700D01*
X30731512Y-86635218D01*
X30695202Y-86515520D01*
X30636237Y-86405206D01*
X30556885Y-86308515D01*
X30460194Y-86229163D01*
X30349880Y-86170198D01*
X30230182Y-86133888D01*
X30105700Y-86121628D01*
X28680485Y-86121628D01*
X28670134Y-86102262D01*
X28573203Y-85984152D01*
X28540796Y-85944664D01*
X28501308Y-85912257D01*
X27830938Y-85241888D01*
X27929182Y-85232212D01*
X28048880Y-85195902D01*
X28159194Y-85136937D01*
X28204700Y-85099591D01*
X28250206Y-85136937D01*
X28360520Y-85195902D01*
X28480218Y-85232212D01*
X28604700Y-85244472D01*
X29473142Y-85244472D01*
X29490913Y-85277719D01*
X29582762Y-85389637D01*
X29610808Y-85412654D01*
X30025641Y-85827487D01*
X30048662Y-85855538D01*
X30160580Y-85947387D01*
X30288267Y-86015637D01*
X30384786Y-86044916D01*
X30426814Y-86057665D01*
X30441032Y-86059065D01*
X30534795Y-86068300D01*
X30534802Y-86068300D01*
X30570899Y-86071855D01*
X30606996Y-86068300D01*
X34192680Y-86068300D01*
X34194400Y-86384150D01*
X34353150Y-86542900D01*
X35552400Y-86542900D01*
X35552400Y-86522900D01*
X35806400Y-86522900D01*
X35806400Y-86542900D01*
X35826400Y-86542900D01*
X35826400Y-86796900D01*
X35806400Y-86796900D01*
X35806400Y-87996150D01*
X35965150Y-88154900D01*
X36529400Y-88157972D01*
X36653882Y-88145712D01*
X36773580Y-88109402D01*
X36883894Y-88050437D01*
X36980585Y-87971085D01*
X37059937Y-87874394D01*
X37118902Y-87764080D01*
X37140913Y-87691520D01*
X37272768Y-87823375D01*
X37515989Y-87985890D01*
X37786242Y-88097832D01*
X38073140Y-88154900D01*
X38365660Y-88154900D01*
X38652558Y-88097832D01*
X38922811Y-87985890D01*
X39166032Y-87823375D01*
X39372875Y-87616532D01*
X39489400Y-87442140D01*
X39605925Y-87616532D01*
X39812768Y-87823375D01*
X40055989Y-87985890D01*
X40326242Y-88097832D01*
X40613140Y-88154900D01*
X40905660Y-88154900D01*
X41192558Y-88097832D01*
X41462811Y-87985890D01*
X41706032Y-87823375D01*
X41912875Y-87616532D01*
X42029400Y-87442140D01*
X42145925Y-87616532D01*
X42352768Y-87823375D01*
X42595989Y-87985890D01*
X42866242Y-88097832D01*
X43153140Y-88154900D01*
X43445660Y-88154900D01*
X43732558Y-88097832D01*
X44002811Y-87985890D01*
X44246032Y-87823375D01*
X44452875Y-87616532D01*
X44569400Y-87442140D01*
X44685925Y-87616532D01*
X44892768Y-87823375D01*
X45135989Y-87985890D01*
X45406242Y-88097832D01*
X45693140Y-88154900D01*
X45985660Y-88154900D01*
X46272558Y-88097832D01*
X46542811Y-87985890D01*
X46786032Y-87823375D01*
X46992875Y-87616532D01*
X47109400Y-87442140D01*
X47225925Y-87616532D01*
X47432768Y-87823375D01*
X47675989Y-87985890D01*
X47946242Y-88097832D01*
X48233140Y-88154900D01*
X48525660Y-88154900D01*
X48812558Y-88097832D01*
X49082811Y-87985890D01*
X49326032Y-87823375D01*
X49532875Y-87616532D01*
X49695390Y-87373311D01*
X49807332Y-87103058D01*
X49854088Y-86868000D01*
X50442600Y-86868000D01*
X50442600Y-87268000D01*
X50491107Y-87506496D01*
X50585210Y-87730946D01*
X50721293Y-87932725D01*
X50894126Y-88104078D01*
X51097067Y-88238421D01*
X51322318Y-88330591D01*
X51359991Y-88334462D01*
X51550600Y-88209731D01*
X51550600Y-86868000D01*
X51804600Y-86868000D01*
X51804600Y-88209731D01*
X51995209Y-88334462D01*
X52032882Y-88330591D01*
X52258133Y-88238421D01*
X52461074Y-88104078D01*
X52633907Y-87932725D01*
X52769990Y-87730946D01*
X52864093Y-87506496D01*
X52912600Y-87268000D01*
X52912600Y-86868000D01*
X51804600Y-86868000D01*
X51550600Y-86868000D01*
X50442600Y-86868000D01*
X49854088Y-86868000D01*
X49864400Y-86816160D01*
X49864400Y-86523640D01*
X49807332Y-86236742D01*
X49797912Y-86214000D01*
X50442600Y-86214000D01*
X50442600Y-86614000D01*
X51550600Y-86614000D01*
X51550600Y-85272269D01*
X51804600Y-85272269D01*
X51804600Y-86614000D01*
X52912600Y-86614000D01*
X52912600Y-86214000D01*
X52864093Y-85975504D01*
X52769990Y-85751054D01*
X52633907Y-85549275D01*
X52461074Y-85377922D01*
X52258133Y-85243579D01*
X52032882Y-85151409D01*
X51995209Y-85147538D01*
X51804600Y-85272269D01*
X51550600Y-85272269D01*
X51359991Y-85147538D01*
X51322318Y-85151409D01*
X51097067Y-85243579D01*
X50894126Y-85377922D01*
X50721293Y-85549275D01*
X50585210Y-85751054D01*
X50491107Y-85975504D01*
X50442600Y-86214000D01*
X49797912Y-86214000D01*
X49695390Y-85966489D01*
X49532875Y-85723268D01*
X49326032Y-85516425D01*
X49082811Y-85353910D01*
X48812558Y-85241968D01*
X48525660Y-85184900D01*
X48233140Y-85184900D01*
X47946242Y-85241968D01*
X47675989Y-85353910D01*
X47432768Y-85516425D01*
X47417720Y-85531473D01*
X46725358Y-84839112D01*
X46702338Y-84811062D01*
X46590420Y-84719213D01*
X46462733Y-84650963D01*
X46324185Y-84608935D01*
X46216205Y-84598300D01*
X46180100Y-84594744D01*
X46143995Y-84598300D01*
X40442772Y-84598300D01*
X40442772Y-84302816D01*
X51662841Y-84302816D01*
X51726545Y-84525979D01*
X51832562Y-84732426D01*
X51976817Y-84914223D01*
X52153767Y-85064385D01*
X52356613Y-85177140D01*
X52517856Y-85234803D01*
X52700600Y-85109361D01*
X52700600Y-84118000D01*
X51802796Y-84118000D01*
X51662841Y-84302816D01*
X40442772Y-84302816D01*
X40442772Y-82906400D01*
X40430512Y-82781918D01*
X40394202Y-82662220D01*
X40335237Y-82551906D01*
X40255885Y-82455215D01*
X40159194Y-82375863D01*
X40048880Y-82316898D01*
X39929182Y-82280588D01*
X39804700Y-82268328D01*
X38604700Y-82268328D01*
X38480218Y-82280588D01*
X38360520Y-82316898D01*
X38250206Y-82375863D01*
X38204700Y-82413209D01*
X38159194Y-82375863D01*
X38048880Y-82316898D01*
X37929182Y-82280588D01*
X37804700Y-82268328D01*
X36604700Y-82268328D01*
X36480218Y-82280588D01*
X36360520Y-82316898D01*
X36250206Y-82375863D01*
X36204700Y-82413209D01*
X36159194Y-82375863D01*
X36048880Y-82316898D01*
X35929182Y-82280588D01*
X35804700Y-82268328D01*
X35210600Y-82268328D01*
X35210600Y-77420305D01*
X35214156Y-77384200D01*
X35199965Y-77240115D01*
X35157937Y-77101567D01*
X35089687Y-76973880D01*
X35039300Y-76912483D01*
X35039300Y-70014472D01*
X35531800Y-70014472D01*
X35531800Y-73459195D01*
X35528244Y-73495300D01*
X35542435Y-73639384D01*
X35584463Y-73777932D01*
X35652713Y-73905619D01*
X35744562Y-74017537D01*
X35772608Y-74040554D01*
X41687665Y-79955612D01*
X41668098Y-79992220D01*
X41631788Y-80111918D01*
X41619528Y-80236400D01*
X41619528Y-80692464D01*
X41430733Y-80730017D01*
X41224176Y-80815576D01*
X41038280Y-80939788D01*
X40880188Y-81097880D01*
X40755976Y-81283776D01*
X40670417Y-81490333D01*
X40626800Y-81709612D01*
X40626800Y-81933188D01*
X40670417Y-82152467D01*
X40755976Y-82359024D01*
X40880188Y-82544920D01*
X41038280Y-82703012D01*
X41224176Y-82827224D01*
X41430733Y-82912783D01*
X41619528Y-82950336D01*
X41619528Y-83136400D01*
X41631788Y-83260882D01*
X41668098Y-83380580D01*
X41727063Y-83490894D01*
X41806415Y-83587585D01*
X41903106Y-83666937D01*
X42013420Y-83725902D01*
X42133118Y-83762212D01*
X42257600Y-83774472D01*
X43157600Y-83774472D01*
X43282082Y-83762212D01*
X43401780Y-83725902D01*
X43512094Y-83666937D01*
X43608785Y-83587585D01*
X43688137Y-83490894D01*
X43747102Y-83380580D01*
X43783412Y-83260882D01*
X43795672Y-83136400D01*
X43795672Y-82959684D01*
X43851088Y-83042620D01*
X44009180Y-83200712D01*
X44195076Y-83324924D01*
X44401633Y-83410483D01*
X44620912Y-83454100D01*
X44844488Y-83454100D01*
X44888356Y-83445374D01*
X44904563Y-83475694D01*
X44983915Y-83572385D01*
X45080606Y-83651737D01*
X45190920Y-83710702D01*
X45310618Y-83747012D01*
X45435100Y-83759272D01*
X46335100Y-83759272D01*
X46459582Y-83747012D01*
X46579280Y-83710702D01*
X46689594Y-83651737D01*
X46786285Y-83572385D01*
X46865637Y-83475694D01*
X46924602Y-83365380D01*
X46960912Y-83245682D01*
X46973172Y-83121200D01*
X46973172Y-82321200D01*
X46960912Y-82196718D01*
X46924602Y-82077020D01*
X46865637Y-81966706D01*
X46786285Y-81870015D01*
X46689594Y-81790663D01*
X46579280Y-81731698D01*
X46459582Y-81695388D01*
X46335100Y-81683128D01*
X45672810Y-81683128D01*
X45656870Y-81659272D01*
X46335100Y-81659272D01*
X46459582Y-81647012D01*
X46579280Y-81610702D01*
X46689594Y-81551737D01*
X46786285Y-81472385D01*
X46865637Y-81375694D01*
X46876057Y-81356200D01*
X51178654Y-81356200D01*
X52683035Y-82860582D01*
X52517856Y-82747197D01*
X52356613Y-82804860D01*
X52153767Y-82917615D01*
X51976817Y-83067777D01*
X51832562Y-83249574D01*
X51726545Y-83456021D01*
X51662841Y-83679184D01*
X51802796Y-83864000D01*
X52700600Y-83864000D01*
X52700600Y-83844000D01*
X52954600Y-83844000D01*
X52954600Y-83864000D01*
X52974600Y-83864000D01*
X52974600Y-84118000D01*
X52954600Y-84118000D01*
X52954600Y-85109361D01*
X53137344Y-85234803D01*
X53291228Y-85179772D01*
X53301415Y-85192185D01*
X53398106Y-85271537D01*
X53508420Y-85330502D01*
X53628118Y-85366812D01*
X53729991Y-85376845D01*
X53722063Y-85386506D01*
X53663098Y-85496820D01*
X53626788Y-85616518D01*
X53614528Y-85741000D01*
X53614528Y-87741000D01*
X53626788Y-87865482D01*
X53663098Y-87985180D01*
X53722063Y-88095494D01*
X53801415Y-88192185D01*
X53898106Y-88271537D01*
X54008420Y-88330502D01*
X54128118Y-88366812D01*
X54252600Y-88379072D01*
X56252600Y-88379072D01*
X56377082Y-88366812D01*
X56496780Y-88330502D01*
X56607094Y-88271537D01*
X56703785Y-88192185D01*
X56783137Y-88095494D01*
X56842102Y-87985180D01*
X56878412Y-87865482D01*
X56890672Y-87741000D01*
X56890672Y-86868000D01*
X57592600Y-86868000D01*
X57592600Y-87268000D01*
X57641107Y-87506496D01*
X57735210Y-87730946D01*
X57871293Y-87932725D01*
X58044126Y-88104078D01*
X58247067Y-88238421D01*
X58472318Y-88330591D01*
X58509991Y-88334462D01*
X58700600Y-88209731D01*
X58700600Y-86868000D01*
X57592600Y-86868000D01*
X56890672Y-86868000D01*
X56890672Y-86214000D01*
X57592600Y-86214000D01*
X57592600Y-86614000D01*
X58700600Y-86614000D01*
X58700600Y-85272269D01*
X58509991Y-85147538D01*
X58472318Y-85151409D01*
X58247067Y-85243579D01*
X58044126Y-85377922D01*
X57871293Y-85549275D01*
X57735210Y-85751054D01*
X57641107Y-85975504D01*
X57592600Y-86214000D01*
X56890672Y-86214000D01*
X56890672Y-85741000D01*
X56878412Y-85616518D01*
X56842102Y-85496820D01*
X56783137Y-85386506D01*
X56729505Y-85321155D01*
X56784350Y-85376000D01*
X56887074Y-85364741D01*
X57006176Y-85326521D01*
X57115533Y-85265800D01*
X57210943Y-85184912D01*
X57214793Y-85180065D01*
X57367856Y-85234803D01*
X57550600Y-85109361D01*
X57550600Y-84118000D01*
X57804600Y-84118000D01*
X57804600Y-85109361D01*
X57987344Y-85234803D01*
X58148587Y-85177140D01*
X58351433Y-85064385D01*
X58528383Y-84914223D01*
X58672638Y-84732426D01*
X58778655Y-84525979D01*
X58842359Y-84302816D01*
X58702404Y-84118000D01*
X57804600Y-84118000D01*
X57550600Y-84118000D01*
X57530600Y-84118000D01*
X57530600Y-83864000D01*
X57550600Y-83864000D01*
X57550600Y-82872639D01*
X57804600Y-82872639D01*
X57804600Y-83864000D01*
X58702404Y-83864000D01*
X58842359Y-83679184D01*
X58778655Y-83456021D01*
X58672638Y-83249574D01*
X58528383Y-83067777D01*
X58351433Y-82917615D01*
X58148587Y-82804860D01*
X57987344Y-82747197D01*
X57804600Y-82872639D01*
X57550600Y-82872639D01*
X57367856Y-82747197D01*
X57206613Y-82804860D01*
X57105892Y-82860847D01*
X57006176Y-82805479D01*
X56887074Y-82767259D01*
X56784350Y-82756000D01*
X56625600Y-82914750D01*
X56625600Y-83027322D01*
X56553785Y-82939815D01*
X56457094Y-82860463D01*
X56388818Y-82823968D01*
X56320850Y-82756000D01*
X56229720Y-82765988D01*
X56227082Y-82765188D01*
X56102600Y-82752928D01*
X55702600Y-82752928D01*
X55578118Y-82765188D01*
X55577600Y-82765345D01*
X55577082Y-82765188D01*
X55452600Y-82752928D01*
X55052600Y-82752928D01*
X54928118Y-82765188D01*
X54927600Y-82765345D01*
X54927082Y-82765188D01*
X54802600Y-82752928D01*
X54605465Y-82752928D01*
X54566687Y-82680380D01*
X54474838Y-82568462D01*
X54446793Y-82545446D01*
X52028359Y-80127012D01*
X52005338Y-80098962D01*
X51893420Y-80007113D01*
X51765733Y-79938863D01*
X51627185Y-79896835D01*
X51519205Y-79886200D01*
X51483100Y-79882644D01*
X51446995Y-79886200D01*
X46876057Y-79886200D01*
X46865637Y-79866706D01*
X46786285Y-79770015D01*
X46689594Y-79690663D01*
X46579280Y-79631698D01*
X46459582Y-79595388D01*
X46335100Y-79583128D01*
X45435100Y-79583128D01*
X45310618Y-79595388D01*
X45190920Y-79631698D01*
X45080606Y-79690663D01*
X44983915Y-79770015D01*
X44904563Y-79866706D01*
X44886018Y-79901400D01*
X43698557Y-79901400D01*
X43688137Y-79881906D01*
X43608785Y-79785215D01*
X43512094Y-79705863D01*
X43401780Y-79646898D01*
X43383455Y-79641339D01*
X43321687Y-79525780D01*
X43252853Y-79441906D01*
X43229838Y-79413862D01*
X43201793Y-79390846D01*
X43025960Y-79215013D01*
X43415292Y-79215013D01*
X43511056Y-79479414D01*
X43800671Y-79620304D01*
X44112208Y-79701984D01*
X44433695Y-79721318D01*
X44752775Y-79677561D01*
X45057188Y-79572395D01*
X45231144Y-79479414D01*
X45326908Y-79215013D01*
X49915292Y-79215013D01*
X50011056Y-79479414D01*
X50300671Y-79620304D01*
X50612208Y-79701984D01*
X50933695Y-79721318D01*
X51252775Y-79677561D01*
X51557188Y-79572395D01*
X51731144Y-79479414D01*
X51826908Y-79215013D01*
X51688095Y-79076200D01*
X54711928Y-79076200D01*
X54711928Y-80776200D01*
X54724188Y-80900682D01*
X54760498Y-81020380D01*
X54819463Y-81130694D01*
X54898815Y-81227385D01*
X54995506Y-81306737D01*
X55105820Y-81365702D01*
X55225518Y-81402012D01*
X55350000Y-81414272D01*
X57050000Y-81414272D01*
X57174482Y-81402012D01*
X57294180Y-81365702D01*
X57404494Y-81306737D01*
X57501185Y-81227385D01*
X57580537Y-81130694D01*
X57639502Y-81020380D01*
X57675812Y-80900682D01*
X57688072Y-80776200D01*
X57688072Y-79076200D01*
X57675812Y-78951718D01*
X57639502Y-78832020D01*
X57580537Y-78721706D01*
X57501185Y-78625015D01*
X57404494Y-78545663D01*
X57294180Y-78486698D01*
X57213534Y-78462234D01*
X57297588Y-78386469D01*
X57471641Y-78153120D01*
X57596825Y-77890299D01*
X57641476Y-77743090D01*
X57520155Y-77513200D01*
X56327000Y-77513200D01*
X56327000Y-77533200D01*
X56073000Y-77533200D01*
X56073000Y-77513200D01*
X54879845Y-77513200D01*
X54758524Y-77743090D01*
X54803175Y-77890299D01*
X54928359Y-78153120D01*
X55102412Y-78386469D01*
X55186466Y-78462234D01*
X55105820Y-78486698D01*
X54995506Y-78545663D01*
X54898815Y-78625015D01*
X54819463Y-78721706D01*
X54760498Y-78832020D01*
X54724188Y-78951718D01*
X54711928Y-79076200D01*
X51688095Y-79076200D01*
X50871100Y-78259205D01*
X49915292Y-79215013D01*
X45326908Y-79215013D01*
X44371100Y-78259205D01*
X43415292Y-79215013D01*
X43025960Y-79215013D01*
X41953142Y-78142195D01*
X42729382Y-78142195D01*
X42773139Y-78461275D01*
X42878305Y-78765688D01*
X42971286Y-78939644D01*
X43235687Y-79035408D01*
X44191495Y-78079600D01*
X44550705Y-78079600D01*
X45506513Y-79035408D01*
X45770914Y-78939644D01*
X45911804Y-78650029D01*
X45993484Y-78338492D01*
X46005289Y-78142195D01*
X49229382Y-78142195D01*
X49273139Y-78461275D01*
X49378305Y-78765688D01*
X49471286Y-78939644D01*
X49735687Y-79035408D01*
X50691495Y-78079600D01*
X51050705Y-78079600D01*
X52006513Y-79035408D01*
X52270914Y-78939644D01*
X52411804Y-78650029D01*
X52493484Y-78338492D01*
X52512818Y-78017005D01*
X52469061Y-77697925D01*
X52363895Y-77393512D01*
X52270914Y-77219556D01*
X52006513Y-77123792D01*
X51050705Y-78079600D01*
X50691495Y-78079600D01*
X49735687Y-77123792D01*
X49471286Y-77219556D01*
X49330396Y-77509171D01*
X49248716Y-77820708D01*
X49229382Y-78142195D01*
X46005289Y-78142195D01*
X46012818Y-78017005D01*
X45969061Y-77697925D01*
X45863895Y-77393512D01*
X45770914Y-77219556D01*
X45506513Y-77123792D01*
X44550705Y-78079600D01*
X44191495Y-78079600D01*
X43235687Y-77123792D01*
X42971286Y-77219556D01*
X42830396Y-77509171D01*
X42748716Y-77820708D01*
X42729382Y-78142195D01*
X41953142Y-78142195D01*
X40755134Y-76944187D01*
X43415292Y-76944187D01*
X44371100Y-77899995D01*
X45326908Y-76944187D01*
X49915292Y-76944187D01*
X50871100Y-77899995D01*
X51826908Y-76944187D01*
X51731144Y-76679786D01*
X51441529Y-76538896D01*
X51129992Y-76457216D01*
X50808505Y-76437882D01*
X50489425Y-76481639D01*
X50185012Y-76586805D01*
X50011056Y-76679786D01*
X49915292Y-76944187D01*
X45326908Y-76944187D01*
X45231144Y-76679786D01*
X44941529Y-76538896D01*
X44629992Y-76457216D01*
X44308505Y-76437882D01*
X43989425Y-76481639D01*
X43685012Y-76586805D01*
X43511056Y-76679786D01*
X43415292Y-76944187D01*
X40755134Y-76944187D01*
X37229514Y-73418567D01*
X42736100Y-73418567D01*
X42736100Y-73740633D01*
X42798932Y-74056512D01*
X42922182Y-74354063D01*
X43101113Y-74621852D01*
X43328848Y-74849587D01*
X43596637Y-75028518D01*
X43894188Y-75151768D01*
X44210067Y-75214600D01*
X44532133Y-75214600D01*
X44848012Y-75151768D01*
X45145563Y-75028518D01*
X45413352Y-74849587D01*
X45641087Y-74621852D01*
X45820018Y-74354063D01*
X45943268Y-74056512D01*
X46006100Y-73740633D01*
X46006100Y-73418567D01*
X49236100Y-73418567D01*
X49236100Y-73740633D01*
X49298932Y-74056512D01*
X49422182Y-74354063D01*
X49601113Y-74621852D01*
X49828848Y-74849587D01*
X50096637Y-75028518D01*
X50394188Y-75151768D01*
X50710067Y-75214600D01*
X51032133Y-75214600D01*
X51348012Y-75151768D01*
X51645563Y-75028518D01*
X51913352Y-74849587D01*
X52141087Y-74621852D01*
X52320018Y-74354063D01*
X52443268Y-74056512D01*
X52506100Y-73740633D01*
X52506100Y-73418567D01*
X52443268Y-73102688D01*
X52320018Y-72805137D01*
X52141087Y-72537348D01*
X51913352Y-72309613D01*
X51645563Y-72130682D01*
X51348012Y-72007432D01*
X51032133Y-71944600D01*
X50710067Y-71944600D01*
X50394188Y-72007432D01*
X50096637Y-72130682D01*
X49828848Y-72309613D01*
X49601113Y-72537348D01*
X49422182Y-72805137D01*
X49298932Y-73102688D01*
X49236100Y-73418567D01*
X46006100Y-73418567D01*
X45943268Y-73102688D01*
X45820018Y-72805137D01*
X45641087Y-72537348D01*
X45413352Y-72309613D01*
X45145563Y-72130682D01*
X44848012Y-72007432D01*
X44532133Y-71944600D01*
X44210067Y-71944600D01*
X43894188Y-72007432D01*
X43596637Y-72130682D01*
X43328848Y-72309613D01*
X43101113Y-72537348D01*
X42922182Y-72805137D01*
X42798932Y-73102688D01*
X42736100Y-73418567D01*
X37229514Y-73418567D01*
X37001800Y-73190854D01*
X37001800Y-70014472D01*
X37804700Y-70014472D01*
X37929182Y-70002212D01*
X38048880Y-69965902D01*
X38159194Y-69906937D01*
X38204700Y-69869591D01*
X38250206Y-69906937D01*
X38360520Y-69965902D01*
X38480218Y-70002212D01*
X38604700Y-70014472D01*
X38918950Y-70011400D01*
X39077700Y-69852650D01*
X39077700Y-68653400D01*
X39331700Y-68653400D01*
X39331700Y-69852650D01*
X39490450Y-70011400D01*
X39804700Y-70014472D01*
X39929182Y-70002212D01*
X40048880Y-69965902D01*
X40159194Y-69906937D01*
X40255885Y-69827585D01*
X40335237Y-69730894D01*
X40394202Y-69620580D01*
X40430512Y-69500882D01*
X40442772Y-69376400D01*
X40439700Y-68812150D01*
X40280950Y-68653400D01*
X39331700Y-68653400D01*
X39077700Y-68653400D01*
X39057700Y-68653400D01*
X39057700Y-68399400D01*
X39077700Y-68399400D01*
X39077700Y-67200150D01*
X39331700Y-67200150D01*
X39331700Y-68399400D01*
X40280950Y-68399400D01*
X40439700Y-68240650D01*
X40442772Y-67676400D01*
X40430512Y-67551918D01*
X40394202Y-67432220D01*
X40335237Y-67321906D01*
X40255885Y-67225215D01*
X40159194Y-67145863D01*
X40048880Y-67086898D01*
X39929182Y-67050588D01*
X39804700Y-67038328D01*
X39490450Y-67041400D01*
X39331700Y-67200150D01*
X39077700Y-67200150D01*
X38918950Y-67041400D01*
X38604700Y-67038328D01*
X38480218Y-67050588D01*
X38360520Y-67086898D01*
X38250206Y-67145863D01*
X38204700Y-67183209D01*
X38159194Y-67145863D01*
X38048880Y-67086898D01*
X37929182Y-67050588D01*
X37804700Y-67038328D01*
X37001800Y-67038328D01*
X37001800Y-65502104D01*
X37005356Y-65465999D01*
X36991165Y-65321914D01*
X36975834Y-65271376D01*
X36949137Y-65183367D01*
X36880887Y-65055680D01*
X36789038Y-64943762D01*
X36760993Y-64920746D01*
X33670759Y-61830513D01*
X33647738Y-61802462D01*
X33610421Y-61771837D01*
X33625983Y-61734267D01*
X33669600Y-61514988D01*
X33669600Y-61307646D01*
X34586297Y-60390950D01*
X34614337Y-60367938D01*
X34637350Y-60339897D01*
X34637353Y-60339894D01*
X34706187Y-60256020D01*
X34772401Y-60132144D01*
X34772400Y-62485295D01*
X34768844Y-62521400D01*
X34772400Y-62557504D01*
X34783035Y-62665484D01*
X34825063Y-62804032D01*
X34893313Y-62931719D01*
X34985162Y-63043637D01*
X35013208Y-63066654D01*
X37660000Y-65713447D01*
X37660000Y-65920788D01*
X37703617Y-66140067D01*
X37789176Y-66346624D01*
X37913388Y-66532520D01*
X38071480Y-66690612D01*
X38257376Y-66814824D01*
X38463933Y-66900383D01*
X38683212Y-66944000D01*
X38906788Y-66944000D01*
X39126067Y-66900383D01*
X39332624Y-66814824D01*
X39518520Y-66690612D01*
X39676612Y-66532520D01*
X39800824Y-66346624D01*
X39886383Y-66140067D01*
X39930000Y-65920788D01*
X39930000Y-65697212D01*
X39886383Y-65477933D01*
X39800824Y-65271376D01*
X39676612Y-65085480D01*
X39518520Y-64927388D01*
X39332624Y-64803176D01*
X39126067Y-64717617D01*
X38906788Y-64674000D01*
X38699447Y-64674000D01*
X36242400Y-62216954D01*
X36242400Y-61437412D01*
X36832400Y-61437412D01*
X36832400Y-61660988D01*
X36876017Y-61880267D01*
X36961576Y-62086824D01*
X37085788Y-62272720D01*
X37243880Y-62430812D01*
X37429776Y-62555024D01*
X37636333Y-62640583D01*
X37855612Y-62684200D01*
X38079188Y-62684200D01*
X38298467Y-62640583D01*
X38505024Y-62555024D01*
X38690920Y-62430812D01*
X38837532Y-62284200D01*
X43988254Y-62284200D01*
X54504446Y-72800393D01*
X54527462Y-72828438D01*
X54639380Y-72920287D01*
X54767067Y-72988537D01*
X54896078Y-73027672D01*
X55046525Y-73252832D01*
X55253368Y-73459675D01*
X55427760Y-73576200D01*
X55253368Y-73692725D01*
X55046525Y-73899568D01*
X54884010Y-74142789D01*
X54772068Y-74413042D01*
X54715000Y-74699940D01*
X54715000Y-74992460D01*
X54772068Y-75279358D01*
X54884010Y-75549611D01*
X55046525Y-75792832D01*
X55253368Y-75999675D01*
X55435534Y-76121395D01*
X55318645Y-76191022D01*
X55102412Y-76385931D01*
X54928359Y-76619280D01*
X54803175Y-76882101D01*
X54758524Y-77029310D01*
X54879845Y-77259200D01*
X56073000Y-77259200D01*
X56073000Y-77239200D01*
X56327000Y-77239200D01*
X56327000Y-77259200D01*
X57520155Y-77259200D01*
X57641476Y-77029310D01*
X57596825Y-76882101D01*
X57471641Y-76619280D01*
X57297588Y-76385931D01*
X57081355Y-76191022D01*
X56964466Y-76121395D01*
X57146632Y-75999675D01*
X57353475Y-75792832D01*
X57515990Y-75549611D01*
X57627932Y-75279358D01*
X57685000Y-74992460D01*
X57685000Y-74699940D01*
X57627932Y-74413042D01*
X57515990Y-74142789D01*
X57353475Y-73899568D01*
X57146632Y-73692725D01*
X56972240Y-73576200D01*
X57146632Y-73459675D01*
X57353475Y-73252832D01*
X57515990Y-73009611D01*
X57627932Y-72739358D01*
X57685000Y-72452460D01*
X57685000Y-72159940D01*
X57627932Y-71873042D01*
X57515990Y-71602789D01*
X57353475Y-71359568D01*
X57146632Y-71152725D01*
X56903411Y-70990210D01*
X56633158Y-70878268D01*
X56346260Y-70821200D01*
X56053740Y-70821200D01*
X55766842Y-70878268D01*
X55496589Y-70990210D01*
X55253368Y-71152725D01*
X55094520Y-71311573D01*
X49679064Y-65896117D01*
X53705590Y-65896117D01*
X53746578Y-66168233D01*
X53839864Y-66427123D01*
X53901844Y-66543080D01*
X54141935Y-66610060D01*
X54927895Y-65824100D01*
X54141935Y-65038140D01*
X53901844Y-65105120D01*
X53784744Y-65354148D01*
X53718477Y-65621235D01*
X53705590Y-65896117D01*
X49679064Y-65896117D01*
X44837959Y-61055013D01*
X44814938Y-61026962D01*
X44703020Y-60935113D01*
X44575333Y-60866863D01*
X44436785Y-60824835D01*
X44328805Y-60814200D01*
X44292700Y-60810644D01*
X44256595Y-60814200D01*
X38837532Y-60814200D01*
X38690920Y-60667588D01*
X38599508Y-60606508D01*
X53710500Y-60606508D01*
X53710500Y-60881692D01*
X53764186Y-61151590D01*
X53869495Y-61405827D01*
X54022380Y-61634635D01*
X54216965Y-61829220D01*
X54445773Y-61982105D01*
X54523015Y-62014100D01*
X54445773Y-62046095D01*
X54216965Y-62198980D01*
X54022380Y-62393565D01*
X53869495Y-62622373D01*
X53764186Y-62876610D01*
X53710500Y-63146508D01*
X53710500Y-63421692D01*
X53764186Y-63691590D01*
X53869495Y-63945827D01*
X54022380Y-64174635D01*
X54216965Y-64369220D01*
X54445773Y-64522105D01*
X54517443Y-64551792D01*
X54504477Y-64556464D01*
X54388520Y-64618444D01*
X54321540Y-64858535D01*
X55107500Y-65644495D01*
X55893460Y-64858535D01*
X55826480Y-64618444D01*
X55690740Y-64554615D01*
X55769227Y-64522105D01*
X55998035Y-64369220D01*
X56192620Y-64174635D01*
X56345505Y-63945827D01*
X56450814Y-63691590D01*
X56504500Y-63421692D01*
X56504500Y-63146508D01*
X56450814Y-62876610D01*
X56345505Y-62622373D01*
X56192620Y-62393565D01*
X55998035Y-62198980D01*
X55769227Y-62046095D01*
X55691985Y-62014100D01*
X55769227Y-61982105D01*
X55998035Y-61829220D01*
X56192620Y-61634635D01*
X56345505Y-61405827D01*
X56450814Y-61151590D01*
X56504500Y-60881692D01*
X56504500Y-60606508D01*
X56450814Y-60336610D01*
X56345505Y-60082373D01*
X56192620Y-59853565D01*
X55998035Y-59658980D01*
X55769227Y-59506095D01*
X55514990Y-59400786D01*
X55245092Y-59347100D01*
X54969908Y-59347100D01*
X54700010Y-59400786D01*
X54445773Y-59506095D01*
X54216965Y-59658980D01*
X54022380Y-59853565D01*
X53869495Y-60082373D01*
X53764186Y-60336610D01*
X53710500Y-60606508D01*
X38599508Y-60606508D01*
X38505024Y-60543376D01*
X38298467Y-60457817D01*
X38079188Y-60414200D01*
X37855612Y-60414200D01*
X37636333Y-60457817D01*
X37429776Y-60543376D01*
X37243880Y-60667588D01*
X37085788Y-60825680D01*
X36961576Y-61011576D01*
X36876017Y-61218133D01*
X36832400Y-61437412D01*
X36242400Y-61437412D01*
X36242400Y-59719400D01*
X36427288Y-59719400D01*
X36646567Y-59675783D01*
X36853124Y-59590224D01*
X37011144Y-59484638D01*
X37184833Y-59556583D01*
X37404112Y-59600200D01*
X37627688Y-59600200D01*
X37846967Y-59556583D01*
X38053524Y-59471024D01*
X38239420Y-59346812D01*
X38386032Y-59200200D01*
X54960495Y-59200200D01*
X54996600Y-59203756D01*
X55032705Y-59200200D01*
X55140685Y-59189565D01*
X55279233Y-59147537D01*
X55406920Y-59079287D01*
X55518838Y-58987438D01*
X55541858Y-58959388D01*
X56859800Y-57641446D01*
X56859800Y-65572353D01*
X56501016Y-65931138D01*
X56509410Y-65752083D01*
X56468422Y-65479967D01*
X56375136Y-65221077D01*
X56313156Y-65105120D01*
X56073065Y-65038140D01*
X55287105Y-65824100D01*
X55301248Y-65838243D01*
X55121643Y-66017848D01*
X55107500Y-66003705D01*
X54321540Y-66789665D01*
X54388520Y-67029756D01*
X54524260Y-67093585D01*
X54445773Y-67126095D01*
X54216965Y-67278980D01*
X54022380Y-67473565D01*
X53869495Y-67702373D01*
X53764186Y-67956610D01*
X53710500Y-68226508D01*
X53710500Y-68501692D01*
X53764186Y-68771590D01*
X53869495Y-69025827D01*
X54022380Y-69254635D01*
X54216965Y-69449220D01*
X54445773Y-69602105D01*
X54700010Y-69707414D01*
X54969908Y-69761100D01*
X55245092Y-69761100D01*
X55514990Y-69707414D01*
X55769227Y-69602105D01*
X55998035Y-69449220D01*
X56192620Y-69254635D01*
X56345505Y-69025827D01*
X56450814Y-68771590D01*
X56504500Y-68501692D01*
X56504500Y-68226508D01*
X56468006Y-68043040D01*
X58088997Y-66422050D01*
X58117037Y-66399038D01*
X58140050Y-66370997D01*
X58140053Y-66370994D01*
X58208886Y-66287121D01*
X58208887Y-66287120D01*
X58277137Y-66159433D01*
X58319165Y-66020885D01*
X58329800Y-65912905D01*
X58329800Y-65912896D01*
X58333355Y-65876801D01*
X58329800Y-65840706D01*
X58329800Y-47885294D01*
X58333355Y-47849199D01*
X58329800Y-47813104D01*
X58329800Y-47813095D01*
X58319165Y-47705115D01*
X58277137Y-47566567D01*
X58208887Y-47438880D01*
X58117038Y-47326962D01*
X58088993Y-47303946D01*
X56888400Y-46103354D01*
X56888400Y-33677691D01*
X57835150Y-33675400D01*
X57993900Y-33516650D01*
X57993900Y-32377400D01*
X57973900Y-32377400D01*
X57973900Y-32123400D01*
X57993900Y-32123400D01*
X57993900Y-30984150D01*
X57835150Y-30825400D01*
X56565900Y-30822328D01*
X56441418Y-30834588D01*
X56321720Y-30870898D01*
X56211406Y-30929863D01*
X56114715Y-31009215D01*
X56035363Y-31105906D01*
X55976398Y-31216220D01*
X55973388Y-31226142D01*
X52353906Y-27606660D01*
X52353483Y-27604533D01*
X52267924Y-27397976D01*
X52143712Y-27212080D01*
X51985620Y-27053988D01*
X51799724Y-26929776D01*
X51593167Y-26844217D01*
X51373888Y-26800600D01*
X51166547Y-26800600D01*
X48833318Y-24467372D01*
X49516300Y-24467372D01*
X49640782Y-24455112D01*
X49760480Y-24418802D01*
X49870794Y-24359837D01*
X49967485Y-24280485D01*
X50046837Y-24183794D01*
X50105802Y-24073480D01*
X50142112Y-23953782D01*
X50154372Y-23829300D01*
X50154372Y-23416197D01*
X50166300Y-23417372D01*
X50380550Y-23414300D01*
X50539300Y-23255550D01*
X50539300Y-22506300D01*
X50793300Y-22506300D01*
X50793300Y-23255550D01*
X50952050Y-23414300D01*
X51166300Y-23417372D01*
X51290782Y-23405112D01*
X51410480Y-23368802D01*
X51520794Y-23309837D01*
X51617485Y-23230485D01*
X51696837Y-23133794D01*
X51755802Y-23023480D01*
X51792112Y-22903782D01*
X51804372Y-22779300D01*
X51801300Y-22665050D01*
X51719722Y-22583472D01*
X53211886Y-22583472D01*
X53226791Y-22849386D01*
X53455166Y-23045329D01*
X53717380Y-23192953D01*
X54003356Y-23286586D01*
X54302103Y-23322628D01*
X54602141Y-23299694D01*
X54765344Y-23261636D01*
X54910904Y-23038273D01*
X54289215Y-21961476D01*
X53211886Y-22583472D01*
X51719722Y-22583472D01*
X51642550Y-22506300D01*
X50793300Y-22506300D01*
X50539300Y-22506300D01*
X50519300Y-22506300D01*
X50519300Y-22252300D01*
X50539300Y-22252300D01*
X50539300Y-21503050D01*
X50793300Y-21503050D01*
X50793300Y-22252300D01*
X51642550Y-22252300D01*
X51801300Y-22093550D01*
X51804372Y-21979300D01*
X51798718Y-21921887D01*
X52806546Y-21921887D01*
X52862050Y-22217637D01*
X53084886Y-22363502D01*
X54162215Y-21741506D01*
X53540526Y-20664709D01*
X53274308Y-20679086D01*
X53159747Y-20801395D01*
X52989867Y-21049768D01*
X52871707Y-21326512D01*
X52809807Y-21620991D01*
X52806546Y-21921887D01*
X51798718Y-21921887D01*
X51792112Y-21854818D01*
X51755802Y-21735120D01*
X51696837Y-21624806D01*
X51617485Y-21528115D01*
X51520794Y-21448763D01*
X51410480Y-21389798D01*
X51290782Y-21353488D01*
X51166300Y-21341228D01*
X50952050Y-21344300D01*
X50793300Y-21503050D01*
X50539300Y-21503050D01*
X50380550Y-21344300D01*
X50166300Y-21341228D01*
X50041818Y-21353488D01*
X49922120Y-21389798D01*
X49811806Y-21448763D01*
X49715115Y-21528115D01*
X49635763Y-21624806D01*
X49576798Y-21735120D01*
X49540488Y-21854818D01*
X49528228Y-21979300D01*
X49531277Y-22092703D01*
X49516300Y-22091228D01*
X49079283Y-22091228D01*
X49107947Y-22072075D01*
X49259075Y-21920947D01*
X49377815Y-21743240D01*
X49459604Y-21545783D01*
X49501300Y-21336163D01*
X49501300Y-21122437D01*
X49459604Y-20912817D01*
X49377815Y-20715360D01*
X49259075Y-20537653D01*
X49107947Y-20386525D01*
X48930240Y-20267785D01*
X48732783Y-20185996D01*
X48523163Y-20144300D01*
X48309437Y-20144300D01*
X48099817Y-20185996D01*
X47902360Y-20267785D01*
X47724653Y-20386525D01*
X47573525Y-20537653D01*
X47454785Y-20715360D01*
X47372996Y-20912817D01*
X47331300Y-21122437D01*
X47331300Y-21336163D01*
X47372996Y-21545783D01*
X47454785Y-21743240D01*
X47573525Y-21920947D01*
X47724653Y-22072075D01*
X47902360Y-22190815D01*
X48099817Y-22272604D01*
X48309437Y-22314300D01*
X48335419Y-22314300D01*
X48285763Y-22374806D01*
X48226798Y-22485120D01*
X48190488Y-22604818D01*
X48178228Y-22729300D01*
X48178228Y-23812282D01*
X48001359Y-23635413D01*
X47978338Y-23607362D01*
X47866420Y-23515513D01*
X47738733Y-23447263D01*
X47600185Y-23405235D01*
X47492205Y-23394600D01*
X47456100Y-23391044D01*
X47419995Y-23394600D01*
X47154372Y-23394600D01*
X47154372Y-22729300D01*
X47142112Y-22604818D01*
X47105802Y-22485120D01*
X47046837Y-22374806D01*
X46967485Y-22278115D01*
X46870794Y-22198763D01*
X46863319Y-22194768D01*
X46848637Y-22146367D01*
X46780387Y-22018680D01*
X46688538Y-21906762D01*
X46576620Y-21814913D01*
X46448933Y-21746663D01*
X46384494Y-21727116D01*
X46459604Y-21545783D01*
X46501300Y-21336163D01*
X46501300Y-21122437D01*
X46459604Y-20912817D01*
X46377815Y-20715360D01*
X46259075Y-20537653D01*
X46107947Y-20386525D01*
X45930240Y-20267785D01*
X45732783Y-20185996D01*
X45523163Y-20144300D01*
X45309437Y-20144300D01*
X45099817Y-20185996D01*
X44902360Y-20267785D01*
X44724653Y-20386525D01*
X44573525Y-20537653D01*
X44454785Y-20715360D01*
X44372996Y-20912817D01*
X44331300Y-21122437D01*
X44331300Y-21336163D01*
X44372996Y-21545783D01*
X44434389Y-21694000D01*
X44233823Y-21694000D01*
X44196837Y-21624806D01*
X44117485Y-21528115D01*
X44020794Y-21448763D01*
X43910480Y-21389798D01*
X43790782Y-21353488D01*
X43666300Y-21341228D01*
X43452050Y-21344300D01*
X43293300Y-21503050D01*
X43293300Y-22252300D01*
X43299579Y-22252300D01*
X43284363Y-22280767D01*
X43264969Y-22344700D01*
X42330194Y-22344700D01*
X42294099Y-22341145D01*
X42258004Y-22344700D01*
X42257995Y-22344700D01*
X42150015Y-22355335D01*
X42011467Y-22397363D01*
X41883780Y-22465613D01*
X41771862Y-22557462D01*
X41748846Y-22585507D01*
X39884254Y-24450100D01*
X36580817Y-24450100D01*
X36675320Y-24399587D01*
X36787238Y-24307738D01*
X36810259Y-24279687D01*
X39110646Y-21979300D01*
X42028228Y-21979300D01*
X42031300Y-22093550D01*
X42190050Y-22252300D01*
X43039300Y-22252300D01*
X43039300Y-21503050D01*
X42880550Y-21344300D01*
X42666300Y-21341228D01*
X42541818Y-21353488D01*
X42422120Y-21389798D01*
X42311806Y-21448763D01*
X42215115Y-21528115D01*
X42135763Y-21624806D01*
X42076798Y-21735120D01*
X42040488Y-21854818D01*
X42028228Y-21979300D01*
X39110646Y-21979300D01*
X40976047Y-20113900D01*
X42028228Y-20113900D01*
X42028228Y-20479300D01*
G04 #@! TA.AperFunction,Conductor*
D34*
G36*
X42028228Y-20479300D02*
G01*
X42040488Y-20603782D01*
X42076798Y-20723480D01*
X42135763Y-20833794D01*
X42215115Y-20930485D01*
X42311806Y-21009837D01*
X42422120Y-21068802D01*
X42541818Y-21105112D01*
X42666300Y-21117372D01*
X43666300Y-21117372D01*
X43790782Y-21105112D01*
X43910480Y-21068802D01*
X44020794Y-21009837D01*
X44117485Y-20930485D01*
X44196837Y-20833794D01*
X44255802Y-20723480D01*
X44292112Y-20603782D01*
X44304372Y-20479300D01*
X44304372Y-20113900D01*
X49531300Y-20113900D01*
X49531300Y-20206302D01*
X49690048Y-20206302D01*
X49531300Y-20365050D01*
X49528228Y-20479300D01*
X49540488Y-20603782D01*
X49576798Y-20723480D01*
X49635763Y-20833794D01*
X49715115Y-20930485D01*
X49811806Y-21009837D01*
X49922120Y-21068802D01*
X50041818Y-21105112D01*
X50166300Y-21117372D01*
X50380550Y-21114300D01*
X50539300Y-20955550D01*
X50539300Y-20206300D01*
X50519300Y-20206300D01*
X50519300Y-20113900D01*
X50813300Y-20113900D01*
X50813300Y-20206300D01*
X50793300Y-20206300D01*
X50793300Y-20955550D01*
X50952050Y-21114300D01*
X51166300Y-21117372D01*
X51290782Y-21105112D01*
X51410480Y-21068802D01*
X51520794Y-21009837D01*
X51617485Y-20930485D01*
X51696837Y-20833794D01*
X51755802Y-20723480D01*
X51792112Y-20603782D01*
X51804372Y-20479300D01*
X51801300Y-20365050D01*
X51642552Y-20206302D01*
X51801300Y-20206302D01*
X51801300Y-20113900D01*
X53413954Y-20113900D01*
X53790982Y-20490928D01*
X53760496Y-20537709D01*
X54382185Y-21614506D01*
X54399506Y-21604506D01*
X54526506Y-21824476D01*
X54509185Y-21834476D01*
X55130874Y-22911273D01*
X55379801Y-22897830D01*
X55379800Y-24808541D01*
X55377724Y-24821118D01*
X55378517Y-24845309D01*
X55376144Y-24869400D01*
X55380883Y-24917516D01*
X55382466Y-24965822D01*
X55387962Y-24989389D01*
X55390335Y-25013485D01*
X55404371Y-25059753D01*
X55415347Y-25106822D01*
X55425337Y-25128869D01*
X55432364Y-25152033D01*
X55455148Y-25194659D01*
X55460129Y-25205651D01*
X55470096Y-25222913D01*
X55327241Y-25305390D01*
X55225567Y-25378249D01*
X55140060Y-25469543D01*
X55074008Y-25575765D01*
X55029947Y-25692832D01*
X55009571Y-25816245D01*
X55013664Y-25941262D01*
X55042067Y-26063078D01*
X55093690Y-26177013D01*
X55993690Y-27735859D01*
X56066549Y-27837533D01*
X56157843Y-27923040D01*
X56264065Y-27989092D01*
X56381132Y-28033153D01*
X56504545Y-28053529D01*
X56629562Y-28049436D01*
X56751378Y-28021033D01*
X56865313Y-27969410D01*
X58424159Y-27069410D01*
X58525833Y-26996551D01*
X58611340Y-26905257D01*
X58677392Y-26799035D01*
X58721453Y-26681968D01*
X58741829Y-26558555D01*
X58737736Y-26433538D01*
X58709333Y-26311722D01*
X58657710Y-26197787D01*
X57757710Y-24638941D01*
X57684851Y-24537267D01*
X57593557Y-24451760D01*
X57487335Y-24385708D01*
X57370268Y-24341647D01*
X57246855Y-24321271D01*
X57121838Y-24325364D01*
X57000022Y-24353767D01*
X56886087Y-24405390D01*
X56849800Y-24426340D01*
X56849800Y-22865504D01*
X56863909Y-22879613D01*
X57180834Y-23091375D01*
X57532981Y-23237239D01*
X57906819Y-23311600D01*
X58287981Y-23311600D01*
X58661819Y-23237239D01*
X59013966Y-23091375D01*
X59330891Y-22879613D01*
X59600413Y-22610091D01*
X59812175Y-22293166D01*
X59948906Y-21963068D01*
X59922541Y-30872213D01*
X59920080Y-30870898D01*
X59800382Y-30834588D01*
X59675900Y-30822328D01*
X58406650Y-30825400D01*
X58247900Y-30984150D01*
X58247900Y-32123400D01*
X58267900Y-32123400D01*
X58267900Y-32377400D01*
X58247900Y-32377400D01*
X58247900Y-33516650D01*
X58406650Y-33675400D01*
X59675900Y-33678472D01*
X59800382Y-33666212D01*
X59914375Y-33631633D01*
X59760801Y-85526367D01*
X59611074Y-85377922D01*
X59408133Y-85243579D01*
X59182882Y-85151409D01*
X59145209Y-85147538D01*
X58954600Y-85272269D01*
X58954600Y-86614000D01*
X58974600Y-86614000D01*
X58974600Y-86868000D01*
X58954600Y-86868000D01*
X58954600Y-88209731D01*
X59145209Y-88334462D01*
X59182882Y-88330591D01*
X59408133Y-88238421D01*
X59611074Y-88104078D01*
X59753591Y-87962782D01*
X59748797Y-89582670D01*
X23349497Y-89413665D01*
X23339071Y-87595909D01*
X23374261Y-87772819D01*
X23520125Y-88124966D01*
X23731887Y-88441891D01*
X24001409Y-88711413D01*
X24318334Y-88923175D01*
X24670481Y-89069039D01*
X25044319Y-89143400D01*
X25425481Y-89143400D01*
X25799319Y-89069039D01*
X26151466Y-88923175D01*
X26468391Y-88711413D01*
X26737913Y-88441891D01*
X26926101Y-88160247D01*
X26940666Y-88187497D01*
X27070004Y-88345096D01*
X27227603Y-88474434D01*
X27407407Y-88570541D01*
X27602505Y-88629724D01*
X27799591Y-88649135D01*
X27816198Y-88703880D01*
X27875163Y-88814194D01*
X27954515Y-88910885D01*
X28051206Y-88990237D01*
X28161520Y-89049202D01*
X28281218Y-89085512D01*
X28405700Y-89097772D01*
X30105700Y-89097772D01*
X30230182Y-89085512D01*
X30349880Y-89049202D01*
X30460194Y-88990237D01*
X30556885Y-88910885D01*
X30636237Y-88814194D01*
X30695202Y-88703880D01*
X30731512Y-88584182D01*
X30743772Y-88459700D01*
X30743772Y-87519900D01*
X34191328Y-87519900D01*
X34203588Y-87644382D01*
X34239898Y-87764080D01*
X34298863Y-87874394D01*
X34378215Y-87971085D01*
X34474906Y-88050437D01*
X34585220Y-88109402D01*
X34704918Y-88145712D01*
X34829400Y-88157972D01*
X35393650Y-88154900D01*
X35552400Y-87996150D01*
X35552400Y-86796900D01*
X34353150Y-86796900D01*
X34194400Y-86955650D01*
X34191328Y-87519900D01*
X30743772Y-87519900D01*
X30743772Y-86759700D01*
X30731512Y-86635218D01*
X30695202Y-86515520D01*
X30636237Y-86405206D01*
X30556885Y-86308515D01*
X30460194Y-86229163D01*
X30349880Y-86170198D01*
X30230182Y-86133888D01*
X30105700Y-86121628D01*
X28680485Y-86121628D01*
X28670134Y-86102262D01*
X28573203Y-85984152D01*
X28540796Y-85944664D01*
X28501308Y-85912257D01*
X27830938Y-85241888D01*
X27929182Y-85232212D01*
X28048880Y-85195902D01*
X28159194Y-85136937D01*
X28204700Y-85099591D01*
X28250206Y-85136937D01*
X28360520Y-85195902D01*
X28480218Y-85232212D01*
X28604700Y-85244472D01*
X29473142Y-85244472D01*
X29490913Y-85277719D01*
X29582762Y-85389637D01*
X29610808Y-85412654D01*
X30025641Y-85827487D01*
X30048662Y-85855538D01*
X30160580Y-85947387D01*
X30288267Y-86015637D01*
X30384786Y-86044916D01*
X30426814Y-86057665D01*
X30441032Y-86059065D01*
X30534795Y-86068300D01*
X30534802Y-86068300D01*
X30570899Y-86071855D01*
X30606996Y-86068300D01*
X34192680Y-86068300D01*
X34194400Y-86384150D01*
X34353150Y-86542900D01*
X35552400Y-86542900D01*
X35552400Y-86522900D01*
X35806400Y-86522900D01*
X35806400Y-86542900D01*
X35826400Y-86542900D01*
X35826400Y-86796900D01*
X35806400Y-86796900D01*
X35806400Y-87996150D01*
X35965150Y-88154900D01*
X36529400Y-88157972D01*
X36653882Y-88145712D01*
X36773580Y-88109402D01*
X36883894Y-88050437D01*
X36980585Y-87971085D01*
X37059937Y-87874394D01*
X37118902Y-87764080D01*
X37140913Y-87691520D01*
X37272768Y-87823375D01*
X37515989Y-87985890D01*
X37786242Y-88097832D01*
X38073140Y-88154900D01*
X38365660Y-88154900D01*
X38652558Y-88097832D01*
X38922811Y-87985890D01*
X39166032Y-87823375D01*
X39372875Y-87616532D01*
X39489400Y-87442140D01*
X39605925Y-87616532D01*
X39812768Y-87823375D01*
X40055989Y-87985890D01*
X40326242Y-88097832D01*
X40613140Y-88154900D01*
X40905660Y-88154900D01*
X41192558Y-88097832D01*
X41462811Y-87985890D01*
X41706032Y-87823375D01*
X41912875Y-87616532D01*
X42029400Y-87442140D01*
X42145925Y-87616532D01*
X42352768Y-87823375D01*
X42595989Y-87985890D01*
X42866242Y-88097832D01*
X43153140Y-88154900D01*
X43445660Y-88154900D01*
X43732558Y-88097832D01*
X44002811Y-87985890D01*
X44246032Y-87823375D01*
X44452875Y-87616532D01*
X44569400Y-87442140D01*
X44685925Y-87616532D01*
X44892768Y-87823375D01*
X45135989Y-87985890D01*
X45406242Y-88097832D01*
X45693140Y-88154900D01*
X45985660Y-88154900D01*
X46272558Y-88097832D01*
X46542811Y-87985890D01*
X46786032Y-87823375D01*
X46992875Y-87616532D01*
X47109400Y-87442140D01*
X47225925Y-87616532D01*
X47432768Y-87823375D01*
X47675989Y-87985890D01*
X47946242Y-88097832D01*
X48233140Y-88154900D01*
X48525660Y-88154900D01*
X48812558Y-88097832D01*
X49082811Y-87985890D01*
X49326032Y-87823375D01*
X49532875Y-87616532D01*
X49695390Y-87373311D01*
X49807332Y-87103058D01*
X49854088Y-86868000D01*
X50442600Y-86868000D01*
X50442600Y-87268000D01*
X50491107Y-87506496D01*
X50585210Y-87730946D01*
X50721293Y-87932725D01*
X50894126Y-88104078D01*
X51097067Y-88238421D01*
X51322318Y-88330591D01*
X51359991Y-88334462D01*
X51550600Y-88209731D01*
X51550600Y-86868000D01*
X51804600Y-86868000D01*
X51804600Y-88209731D01*
X51995209Y-88334462D01*
X52032882Y-88330591D01*
X52258133Y-88238421D01*
X52461074Y-88104078D01*
X52633907Y-87932725D01*
X52769990Y-87730946D01*
X52864093Y-87506496D01*
X52912600Y-87268000D01*
X52912600Y-86868000D01*
X51804600Y-86868000D01*
X51550600Y-86868000D01*
X50442600Y-86868000D01*
X49854088Y-86868000D01*
X49864400Y-86816160D01*
X49864400Y-86523640D01*
X49807332Y-86236742D01*
X49797912Y-86214000D01*
X50442600Y-86214000D01*
X50442600Y-86614000D01*
X51550600Y-86614000D01*
X51550600Y-85272269D01*
X51804600Y-85272269D01*
X51804600Y-86614000D01*
X52912600Y-86614000D01*
X52912600Y-86214000D01*
X52864093Y-85975504D01*
X52769990Y-85751054D01*
X52633907Y-85549275D01*
X52461074Y-85377922D01*
X52258133Y-85243579D01*
X52032882Y-85151409D01*
X51995209Y-85147538D01*
X51804600Y-85272269D01*
X51550600Y-85272269D01*
X51359991Y-85147538D01*
X51322318Y-85151409D01*
X51097067Y-85243579D01*
X50894126Y-85377922D01*
X50721293Y-85549275D01*
X50585210Y-85751054D01*
X50491107Y-85975504D01*
X50442600Y-86214000D01*
X49797912Y-86214000D01*
X49695390Y-85966489D01*
X49532875Y-85723268D01*
X49326032Y-85516425D01*
X49082811Y-85353910D01*
X48812558Y-85241968D01*
X48525660Y-85184900D01*
X48233140Y-85184900D01*
X47946242Y-85241968D01*
X47675989Y-85353910D01*
X47432768Y-85516425D01*
X47417720Y-85531473D01*
X46725358Y-84839112D01*
X46702338Y-84811062D01*
X46590420Y-84719213D01*
X46462733Y-84650963D01*
X46324185Y-84608935D01*
X46216205Y-84598300D01*
X46180100Y-84594744D01*
X46143995Y-84598300D01*
X40442772Y-84598300D01*
X40442772Y-84302816D01*
X51662841Y-84302816D01*
X51726545Y-84525979D01*
X51832562Y-84732426D01*
X51976817Y-84914223D01*
X52153767Y-85064385D01*
X52356613Y-85177140D01*
X52517856Y-85234803D01*
X52700600Y-85109361D01*
X52700600Y-84118000D01*
X51802796Y-84118000D01*
X51662841Y-84302816D01*
X40442772Y-84302816D01*
X40442772Y-82906400D01*
X40430512Y-82781918D01*
X40394202Y-82662220D01*
X40335237Y-82551906D01*
X40255885Y-82455215D01*
X40159194Y-82375863D01*
X40048880Y-82316898D01*
X39929182Y-82280588D01*
X39804700Y-82268328D01*
X38604700Y-82268328D01*
X38480218Y-82280588D01*
X38360520Y-82316898D01*
X38250206Y-82375863D01*
X38204700Y-82413209D01*
X38159194Y-82375863D01*
X38048880Y-82316898D01*
X37929182Y-82280588D01*
X37804700Y-82268328D01*
X36604700Y-82268328D01*
X36480218Y-82280588D01*
X36360520Y-82316898D01*
X36250206Y-82375863D01*
X36204700Y-82413209D01*
X36159194Y-82375863D01*
X36048880Y-82316898D01*
X35929182Y-82280588D01*
X35804700Y-82268328D01*
X35210600Y-82268328D01*
X35210600Y-77420305D01*
X35214156Y-77384200D01*
X35199965Y-77240115D01*
X35157937Y-77101567D01*
X35089687Y-76973880D01*
X35039300Y-76912483D01*
X35039300Y-70014472D01*
X35531800Y-70014472D01*
X35531800Y-73459195D01*
X35528244Y-73495300D01*
X35542435Y-73639384D01*
X35584463Y-73777932D01*
X35652713Y-73905619D01*
X35744562Y-74017537D01*
X35772608Y-74040554D01*
X41687665Y-79955612D01*
X41668098Y-79992220D01*
X41631788Y-80111918D01*
X41619528Y-80236400D01*
X41619528Y-80692464D01*
X41430733Y-80730017D01*
X41224176Y-80815576D01*
X41038280Y-80939788D01*
X40880188Y-81097880D01*
X40755976Y-81283776D01*
X40670417Y-81490333D01*
X40626800Y-81709612D01*
X40626800Y-81933188D01*
X40670417Y-82152467D01*
X40755976Y-82359024D01*
X40880188Y-82544920D01*
X41038280Y-82703012D01*
X41224176Y-82827224D01*
X41430733Y-82912783D01*
X41619528Y-82950336D01*
X41619528Y-83136400D01*
X41631788Y-83260882D01*
X41668098Y-83380580D01*
X41727063Y-83490894D01*
X41806415Y-83587585D01*
X41903106Y-83666937D01*
X42013420Y-83725902D01*
X42133118Y-83762212D01*
X42257600Y-83774472D01*
X43157600Y-83774472D01*
X43282082Y-83762212D01*
X43401780Y-83725902D01*
X43512094Y-83666937D01*
X43608785Y-83587585D01*
X43688137Y-83490894D01*
X43747102Y-83380580D01*
X43783412Y-83260882D01*
X43795672Y-83136400D01*
X43795672Y-82959684D01*
X43851088Y-83042620D01*
X44009180Y-83200712D01*
X44195076Y-83324924D01*
X44401633Y-83410483D01*
X44620912Y-83454100D01*
X44844488Y-83454100D01*
X44888356Y-83445374D01*
X44904563Y-83475694D01*
X44983915Y-83572385D01*
X45080606Y-83651737D01*
X45190920Y-83710702D01*
X45310618Y-83747012D01*
X45435100Y-83759272D01*
X46335100Y-83759272D01*
X46459582Y-83747012D01*
X46579280Y-83710702D01*
X46689594Y-83651737D01*
X46786285Y-83572385D01*
X46865637Y-83475694D01*
X46924602Y-83365380D01*
X46960912Y-83245682D01*
X46973172Y-83121200D01*
X46973172Y-82321200D01*
X46960912Y-82196718D01*
X46924602Y-82077020D01*
X46865637Y-81966706D01*
X46786285Y-81870015D01*
X46689594Y-81790663D01*
X46579280Y-81731698D01*
X46459582Y-81695388D01*
X46335100Y-81683128D01*
X45672810Y-81683128D01*
X45656870Y-81659272D01*
X46335100Y-81659272D01*
X46459582Y-81647012D01*
X46579280Y-81610702D01*
X46689594Y-81551737D01*
X46786285Y-81472385D01*
X46865637Y-81375694D01*
X46876057Y-81356200D01*
X51178654Y-81356200D01*
X52683035Y-82860582D01*
X52517856Y-82747197D01*
X52356613Y-82804860D01*
X52153767Y-82917615D01*
X51976817Y-83067777D01*
X51832562Y-83249574D01*
X51726545Y-83456021D01*
X51662841Y-83679184D01*
X51802796Y-83864000D01*
X52700600Y-83864000D01*
X52700600Y-83844000D01*
X52954600Y-83844000D01*
X52954600Y-83864000D01*
X52974600Y-83864000D01*
X52974600Y-84118000D01*
X52954600Y-84118000D01*
X52954600Y-85109361D01*
X53137344Y-85234803D01*
X53291228Y-85179772D01*
X53301415Y-85192185D01*
X53398106Y-85271537D01*
X53508420Y-85330502D01*
X53628118Y-85366812D01*
X53729991Y-85376845D01*
X53722063Y-85386506D01*
X53663098Y-85496820D01*
X53626788Y-85616518D01*
X53614528Y-85741000D01*
X53614528Y-87741000D01*
X53626788Y-87865482D01*
X53663098Y-87985180D01*
X53722063Y-88095494D01*
X53801415Y-88192185D01*
X53898106Y-88271537D01*
X54008420Y-88330502D01*
X54128118Y-88366812D01*
X54252600Y-88379072D01*
X56252600Y-88379072D01*
X56377082Y-88366812D01*
X56496780Y-88330502D01*
X56607094Y-88271537D01*
X56703785Y-88192185D01*
X56783137Y-88095494D01*
X56842102Y-87985180D01*
X56878412Y-87865482D01*
X56890672Y-87741000D01*
X56890672Y-86868000D01*
X57592600Y-86868000D01*
X57592600Y-87268000D01*
X57641107Y-87506496D01*
X57735210Y-87730946D01*
X57871293Y-87932725D01*
X58044126Y-88104078D01*
X58247067Y-88238421D01*
X58472318Y-88330591D01*
X58509991Y-88334462D01*
X58700600Y-88209731D01*
X58700600Y-86868000D01*
X57592600Y-86868000D01*
X56890672Y-86868000D01*
X56890672Y-86214000D01*
X57592600Y-86214000D01*
X57592600Y-86614000D01*
X58700600Y-86614000D01*
X58700600Y-85272269D01*
X58509991Y-85147538D01*
X58472318Y-85151409D01*
X58247067Y-85243579D01*
X58044126Y-85377922D01*
X57871293Y-85549275D01*
X57735210Y-85751054D01*
X57641107Y-85975504D01*
X57592600Y-86214000D01*
X56890672Y-86214000D01*
X56890672Y-85741000D01*
X56878412Y-85616518D01*
X56842102Y-85496820D01*
X56783137Y-85386506D01*
X56729505Y-85321155D01*
X56784350Y-85376000D01*
X56887074Y-85364741D01*
X57006176Y-85326521D01*
X57115533Y-85265800D01*
X57210943Y-85184912D01*
X57214793Y-85180065D01*
X57367856Y-85234803D01*
X57550600Y-85109361D01*
X57550600Y-84118000D01*
X57804600Y-84118000D01*
X57804600Y-85109361D01*
X57987344Y-85234803D01*
X58148587Y-85177140D01*
X58351433Y-85064385D01*
X58528383Y-84914223D01*
X58672638Y-84732426D01*
X58778655Y-84525979D01*
X58842359Y-84302816D01*
X58702404Y-84118000D01*
X57804600Y-84118000D01*
X57550600Y-84118000D01*
X57530600Y-84118000D01*
X57530600Y-83864000D01*
X57550600Y-83864000D01*
X57550600Y-82872639D01*
X57804600Y-82872639D01*
X57804600Y-83864000D01*
X58702404Y-83864000D01*
X58842359Y-83679184D01*
X58778655Y-83456021D01*
X58672638Y-83249574D01*
X58528383Y-83067777D01*
X58351433Y-82917615D01*
X58148587Y-82804860D01*
X57987344Y-82747197D01*
X57804600Y-82872639D01*
X57550600Y-82872639D01*
X57367856Y-82747197D01*
X57206613Y-82804860D01*
X57105892Y-82860847D01*
X57006176Y-82805479D01*
X56887074Y-82767259D01*
X56784350Y-82756000D01*
X56625600Y-82914750D01*
X56625600Y-83027322D01*
X56553785Y-82939815D01*
X56457094Y-82860463D01*
X56388818Y-82823968D01*
X56320850Y-82756000D01*
X56229720Y-82765988D01*
X56227082Y-82765188D01*
X56102600Y-82752928D01*
X55702600Y-82752928D01*
X55578118Y-82765188D01*
X55577600Y-82765345D01*
X55577082Y-82765188D01*
X55452600Y-82752928D01*
X55052600Y-82752928D01*
X54928118Y-82765188D01*
X54927600Y-82765345D01*
X54927082Y-82765188D01*
X54802600Y-82752928D01*
X54605465Y-82752928D01*
X54566687Y-82680380D01*
X54474838Y-82568462D01*
X54446793Y-82545446D01*
X52028359Y-80127012D01*
X52005338Y-80098962D01*
X51893420Y-80007113D01*
X51765733Y-79938863D01*
X51627185Y-79896835D01*
X51519205Y-79886200D01*
X51483100Y-79882644D01*
X51446995Y-79886200D01*
X46876057Y-79886200D01*
X46865637Y-79866706D01*
X46786285Y-79770015D01*
X46689594Y-79690663D01*
X46579280Y-79631698D01*
X46459582Y-79595388D01*
X46335100Y-79583128D01*
X45435100Y-79583128D01*
X45310618Y-79595388D01*
X45190920Y-79631698D01*
X45080606Y-79690663D01*
X44983915Y-79770015D01*
X44904563Y-79866706D01*
X44886018Y-79901400D01*
X43698557Y-79901400D01*
X43688137Y-79881906D01*
X43608785Y-79785215D01*
X43512094Y-79705863D01*
X43401780Y-79646898D01*
X43383455Y-79641339D01*
X43321687Y-79525780D01*
X43252853Y-79441906D01*
X43229838Y-79413862D01*
X43201793Y-79390846D01*
X43025960Y-79215013D01*
X43415292Y-79215013D01*
X43511056Y-79479414D01*
X43800671Y-79620304D01*
X44112208Y-79701984D01*
X44433695Y-79721318D01*
X44752775Y-79677561D01*
X45057188Y-79572395D01*
X45231144Y-79479414D01*
X45326908Y-79215013D01*
X49915292Y-79215013D01*
X50011056Y-79479414D01*
X50300671Y-79620304D01*
X50612208Y-79701984D01*
X50933695Y-79721318D01*
X51252775Y-79677561D01*
X51557188Y-79572395D01*
X51731144Y-79479414D01*
X51826908Y-79215013D01*
X51688095Y-79076200D01*
X54711928Y-79076200D01*
X54711928Y-80776200D01*
X54724188Y-80900682D01*
X54760498Y-81020380D01*
X54819463Y-81130694D01*
X54898815Y-81227385D01*
X54995506Y-81306737D01*
X55105820Y-81365702D01*
X55225518Y-81402012D01*
X55350000Y-81414272D01*
X57050000Y-81414272D01*
X57174482Y-81402012D01*
X57294180Y-81365702D01*
X57404494Y-81306737D01*
X57501185Y-81227385D01*
X57580537Y-81130694D01*
X57639502Y-81020380D01*
X57675812Y-80900682D01*
X57688072Y-80776200D01*
X57688072Y-79076200D01*
X57675812Y-78951718D01*
X57639502Y-78832020D01*
X57580537Y-78721706D01*
X57501185Y-78625015D01*
X57404494Y-78545663D01*
X57294180Y-78486698D01*
X57213534Y-78462234D01*
X57297588Y-78386469D01*
X57471641Y-78153120D01*
X57596825Y-77890299D01*
X57641476Y-77743090D01*
X57520155Y-77513200D01*
X56327000Y-77513200D01*
X56327000Y-77533200D01*
X56073000Y-77533200D01*
X56073000Y-77513200D01*
X54879845Y-77513200D01*
X54758524Y-77743090D01*
X54803175Y-77890299D01*
X54928359Y-78153120D01*
X55102412Y-78386469D01*
X55186466Y-78462234D01*
X55105820Y-78486698D01*
X54995506Y-78545663D01*
X54898815Y-78625015D01*
X54819463Y-78721706D01*
X54760498Y-78832020D01*
X54724188Y-78951718D01*
X54711928Y-79076200D01*
X51688095Y-79076200D01*
X50871100Y-78259205D01*
X49915292Y-79215013D01*
X45326908Y-79215013D01*
X44371100Y-78259205D01*
X43415292Y-79215013D01*
X43025960Y-79215013D01*
X41953142Y-78142195D01*
X42729382Y-78142195D01*
X42773139Y-78461275D01*
X42878305Y-78765688D01*
X42971286Y-78939644D01*
X43235687Y-79035408D01*
X44191495Y-78079600D01*
X44550705Y-78079600D01*
X45506513Y-79035408D01*
X45770914Y-78939644D01*
X45911804Y-78650029D01*
X45993484Y-78338492D01*
X46005289Y-78142195D01*
X49229382Y-78142195D01*
X49273139Y-78461275D01*
X49378305Y-78765688D01*
X49471286Y-78939644D01*
X49735687Y-79035408D01*
X50691495Y-78079600D01*
X51050705Y-78079600D01*
X52006513Y-79035408D01*
X52270914Y-78939644D01*
X52411804Y-78650029D01*
X52493484Y-78338492D01*
X52512818Y-78017005D01*
X52469061Y-77697925D01*
X52363895Y-77393512D01*
X52270914Y-77219556D01*
X52006513Y-77123792D01*
X51050705Y-78079600D01*
X50691495Y-78079600D01*
X49735687Y-77123792D01*
X49471286Y-77219556D01*
X49330396Y-77509171D01*
X49248716Y-77820708D01*
X49229382Y-78142195D01*
X46005289Y-78142195D01*
X46012818Y-78017005D01*
X45969061Y-77697925D01*
X45863895Y-77393512D01*
X45770914Y-77219556D01*
X45506513Y-77123792D01*
X44550705Y-78079600D01*
X44191495Y-78079600D01*
X43235687Y-77123792D01*
X42971286Y-77219556D01*
X42830396Y-77509171D01*
X42748716Y-77820708D01*
X42729382Y-78142195D01*
X41953142Y-78142195D01*
X40755134Y-76944187D01*
X43415292Y-76944187D01*
X44371100Y-77899995D01*
X45326908Y-76944187D01*
X49915292Y-76944187D01*
X50871100Y-77899995D01*
X51826908Y-76944187D01*
X51731144Y-76679786D01*
X51441529Y-76538896D01*
X51129992Y-76457216D01*
X50808505Y-76437882D01*
X50489425Y-76481639D01*
X50185012Y-76586805D01*
X50011056Y-76679786D01*
X49915292Y-76944187D01*
X45326908Y-76944187D01*
X45231144Y-76679786D01*
X44941529Y-76538896D01*
X44629992Y-76457216D01*
X44308505Y-76437882D01*
X43989425Y-76481639D01*
X43685012Y-76586805D01*
X43511056Y-76679786D01*
X43415292Y-76944187D01*
X40755134Y-76944187D01*
X37229514Y-73418567D01*
X42736100Y-73418567D01*
X42736100Y-73740633D01*
X42798932Y-74056512D01*
X42922182Y-74354063D01*
X43101113Y-74621852D01*
X43328848Y-74849587D01*
X43596637Y-75028518D01*
X43894188Y-75151768D01*
X44210067Y-75214600D01*
X44532133Y-75214600D01*
X44848012Y-75151768D01*
X45145563Y-75028518D01*
X45413352Y-74849587D01*
X45641087Y-74621852D01*
X45820018Y-74354063D01*
X45943268Y-74056512D01*
X46006100Y-73740633D01*
X46006100Y-73418567D01*
X49236100Y-73418567D01*
X49236100Y-73740633D01*
X49298932Y-74056512D01*
X49422182Y-74354063D01*
X49601113Y-74621852D01*
X49828848Y-74849587D01*
X50096637Y-75028518D01*
X50394188Y-75151768D01*
X50710067Y-75214600D01*
X51032133Y-75214600D01*
X51348012Y-75151768D01*
X51645563Y-75028518D01*
X51913352Y-74849587D01*
X52141087Y-74621852D01*
X52320018Y-74354063D01*
X52443268Y-74056512D01*
X52506100Y-73740633D01*
X52506100Y-73418567D01*
X52443268Y-73102688D01*
X52320018Y-72805137D01*
X52141087Y-72537348D01*
X51913352Y-72309613D01*
X51645563Y-72130682D01*
X51348012Y-72007432D01*
X51032133Y-71944600D01*
X50710067Y-71944600D01*
X50394188Y-72007432D01*
X50096637Y-72130682D01*
X49828848Y-72309613D01*
X49601113Y-72537348D01*
X49422182Y-72805137D01*
X49298932Y-73102688D01*
X49236100Y-73418567D01*
X46006100Y-73418567D01*
X45943268Y-73102688D01*
X45820018Y-72805137D01*
X45641087Y-72537348D01*
X45413352Y-72309613D01*
X45145563Y-72130682D01*
X44848012Y-72007432D01*
X44532133Y-71944600D01*
X44210067Y-71944600D01*
X43894188Y-72007432D01*
X43596637Y-72130682D01*
X43328848Y-72309613D01*
X43101113Y-72537348D01*
X42922182Y-72805137D01*
X42798932Y-73102688D01*
X42736100Y-73418567D01*
X37229514Y-73418567D01*
X37001800Y-73190854D01*
X37001800Y-70014472D01*
X37804700Y-70014472D01*
X37929182Y-70002212D01*
X38048880Y-69965902D01*
X38159194Y-69906937D01*
X38204700Y-69869591D01*
X38250206Y-69906937D01*
X38360520Y-69965902D01*
X38480218Y-70002212D01*
X38604700Y-70014472D01*
X38918950Y-70011400D01*
X39077700Y-69852650D01*
X39077700Y-68653400D01*
X39331700Y-68653400D01*
X39331700Y-69852650D01*
X39490450Y-70011400D01*
X39804700Y-70014472D01*
X39929182Y-70002212D01*
X40048880Y-69965902D01*
X40159194Y-69906937D01*
X40255885Y-69827585D01*
X40335237Y-69730894D01*
X40394202Y-69620580D01*
X40430512Y-69500882D01*
X40442772Y-69376400D01*
X40439700Y-68812150D01*
X40280950Y-68653400D01*
X39331700Y-68653400D01*
X39077700Y-68653400D01*
X39057700Y-68653400D01*
X39057700Y-68399400D01*
X39077700Y-68399400D01*
X39077700Y-67200150D01*
X39331700Y-67200150D01*
X39331700Y-68399400D01*
X40280950Y-68399400D01*
X40439700Y-68240650D01*
X40442772Y-67676400D01*
X40430512Y-67551918D01*
X40394202Y-67432220D01*
X40335237Y-67321906D01*
X40255885Y-67225215D01*
X40159194Y-67145863D01*
X40048880Y-67086898D01*
X39929182Y-67050588D01*
X39804700Y-67038328D01*
X39490450Y-67041400D01*
X39331700Y-67200150D01*
X39077700Y-67200150D01*
X38918950Y-67041400D01*
X38604700Y-67038328D01*
X38480218Y-67050588D01*
X38360520Y-67086898D01*
X38250206Y-67145863D01*
X38204700Y-67183209D01*
X38159194Y-67145863D01*
X38048880Y-67086898D01*
X37929182Y-67050588D01*
X37804700Y-67038328D01*
X37001800Y-67038328D01*
X37001800Y-65502104D01*
X37005356Y-65465999D01*
X36991165Y-65321914D01*
X36975834Y-65271376D01*
X36949137Y-65183367D01*
X36880887Y-65055680D01*
X36789038Y-64943762D01*
X36760993Y-64920746D01*
X33670759Y-61830513D01*
X33647738Y-61802462D01*
X33610421Y-61771837D01*
X33625983Y-61734267D01*
X33669600Y-61514988D01*
X33669600Y-61307646D01*
X34586297Y-60390950D01*
X34614337Y-60367938D01*
X34637350Y-60339897D01*
X34637353Y-60339894D01*
X34706187Y-60256020D01*
X34772401Y-60132144D01*
X34772400Y-62485295D01*
X34768844Y-62521400D01*
X34772400Y-62557504D01*
X34783035Y-62665484D01*
X34825063Y-62804032D01*
X34893313Y-62931719D01*
X34985162Y-63043637D01*
X35013208Y-63066654D01*
X37660000Y-65713447D01*
X37660000Y-65920788D01*
X37703617Y-66140067D01*
X37789176Y-66346624D01*
X37913388Y-66532520D01*
X38071480Y-66690612D01*
X38257376Y-66814824D01*
X38463933Y-66900383D01*
X38683212Y-66944000D01*
X38906788Y-66944000D01*
X39126067Y-66900383D01*
X39332624Y-66814824D01*
X39518520Y-66690612D01*
X39676612Y-66532520D01*
X39800824Y-66346624D01*
X39886383Y-66140067D01*
X39930000Y-65920788D01*
X39930000Y-65697212D01*
X39886383Y-65477933D01*
X39800824Y-65271376D01*
X39676612Y-65085480D01*
X39518520Y-64927388D01*
X39332624Y-64803176D01*
X39126067Y-64717617D01*
X38906788Y-64674000D01*
X38699447Y-64674000D01*
X36242400Y-62216954D01*
X36242400Y-61437412D01*
X36832400Y-61437412D01*
X36832400Y-61660988D01*
X36876017Y-61880267D01*
X36961576Y-62086824D01*
X37085788Y-62272720D01*
X37243880Y-62430812D01*
X37429776Y-62555024D01*
X37636333Y-62640583D01*
X37855612Y-62684200D01*
X38079188Y-62684200D01*
X38298467Y-62640583D01*
X38505024Y-62555024D01*
X38690920Y-62430812D01*
X38837532Y-62284200D01*
X43988254Y-62284200D01*
X54504446Y-72800393D01*
X54527462Y-72828438D01*
X54639380Y-72920287D01*
X54767067Y-72988537D01*
X54896078Y-73027672D01*
X55046525Y-73252832D01*
X55253368Y-73459675D01*
X55427760Y-73576200D01*
X55253368Y-73692725D01*
X55046525Y-73899568D01*
X54884010Y-74142789D01*
X54772068Y-74413042D01*
X54715000Y-74699940D01*
X54715000Y-74992460D01*
X54772068Y-75279358D01*
X54884010Y-75549611D01*
X55046525Y-75792832D01*
X55253368Y-75999675D01*
X55435534Y-76121395D01*
X55318645Y-76191022D01*
X55102412Y-76385931D01*
X54928359Y-76619280D01*
X54803175Y-76882101D01*
X54758524Y-77029310D01*
X54879845Y-77259200D01*
X56073000Y-77259200D01*
X56073000Y-77239200D01*
X56327000Y-77239200D01*
X56327000Y-77259200D01*
X57520155Y-77259200D01*
X57641476Y-77029310D01*
X57596825Y-76882101D01*
X57471641Y-76619280D01*
X57297588Y-76385931D01*
X57081355Y-76191022D01*
X56964466Y-76121395D01*
X57146632Y-75999675D01*
X57353475Y-75792832D01*
X57515990Y-75549611D01*
X57627932Y-75279358D01*
X57685000Y-74992460D01*
X57685000Y-74699940D01*
X57627932Y-74413042D01*
X57515990Y-74142789D01*
X57353475Y-73899568D01*
X57146632Y-73692725D01*
X56972240Y-73576200D01*
X57146632Y-73459675D01*
X57353475Y-73252832D01*
X57515990Y-73009611D01*
X57627932Y-72739358D01*
X57685000Y-72452460D01*
X57685000Y-72159940D01*
X57627932Y-71873042D01*
X57515990Y-71602789D01*
X57353475Y-71359568D01*
X57146632Y-71152725D01*
X56903411Y-70990210D01*
X56633158Y-70878268D01*
X56346260Y-70821200D01*
X56053740Y-70821200D01*
X55766842Y-70878268D01*
X55496589Y-70990210D01*
X55253368Y-71152725D01*
X55094520Y-71311573D01*
X49679064Y-65896117D01*
X53705590Y-65896117D01*
X53746578Y-66168233D01*
X53839864Y-66427123D01*
X53901844Y-66543080D01*
X54141935Y-66610060D01*
X54927895Y-65824100D01*
X54141935Y-65038140D01*
X53901844Y-65105120D01*
X53784744Y-65354148D01*
X53718477Y-65621235D01*
X53705590Y-65896117D01*
X49679064Y-65896117D01*
X44837959Y-61055013D01*
X44814938Y-61026962D01*
X44703020Y-60935113D01*
X44575333Y-60866863D01*
X44436785Y-60824835D01*
X44328805Y-60814200D01*
X44292700Y-60810644D01*
X44256595Y-60814200D01*
X38837532Y-60814200D01*
X38690920Y-60667588D01*
X38599508Y-60606508D01*
X53710500Y-60606508D01*
X53710500Y-60881692D01*
X53764186Y-61151590D01*
X53869495Y-61405827D01*
X54022380Y-61634635D01*
X54216965Y-61829220D01*
X54445773Y-61982105D01*
X54523015Y-62014100D01*
X54445773Y-62046095D01*
X54216965Y-62198980D01*
X54022380Y-62393565D01*
X53869495Y-62622373D01*
X53764186Y-62876610D01*
X53710500Y-63146508D01*
X53710500Y-63421692D01*
X53764186Y-63691590D01*
X53869495Y-63945827D01*
X54022380Y-64174635D01*
X54216965Y-64369220D01*
X54445773Y-64522105D01*
X54517443Y-64551792D01*
X54504477Y-64556464D01*
X54388520Y-64618444D01*
X54321540Y-64858535D01*
X55107500Y-65644495D01*
X55893460Y-64858535D01*
X55826480Y-64618444D01*
X55690740Y-64554615D01*
X55769227Y-64522105D01*
X55998035Y-64369220D01*
X56192620Y-64174635D01*
X56345505Y-63945827D01*
X56450814Y-63691590D01*
X56504500Y-63421692D01*
X56504500Y-63146508D01*
X56450814Y-62876610D01*
X56345505Y-62622373D01*
X56192620Y-62393565D01*
X55998035Y-62198980D01*
X55769227Y-62046095D01*
X55691985Y-62014100D01*
X55769227Y-61982105D01*
X55998035Y-61829220D01*
X56192620Y-61634635D01*
X56345505Y-61405827D01*
X56450814Y-61151590D01*
X56504500Y-60881692D01*
X56504500Y-60606508D01*
X56450814Y-60336610D01*
X56345505Y-60082373D01*
X56192620Y-59853565D01*
X55998035Y-59658980D01*
X55769227Y-59506095D01*
X55514990Y-59400786D01*
X55245092Y-59347100D01*
X54969908Y-59347100D01*
X54700010Y-59400786D01*
X54445773Y-59506095D01*
X54216965Y-59658980D01*
X54022380Y-59853565D01*
X53869495Y-60082373D01*
X53764186Y-60336610D01*
X53710500Y-60606508D01*
X38599508Y-60606508D01*
X38505024Y-60543376D01*
X38298467Y-60457817D01*
X38079188Y-60414200D01*
X37855612Y-60414200D01*
X37636333Y-60457817D01*
X37429776Y-60543376D01*
X37243880Y-60667588D01*
X37085788Y-60825680D01*
X36961576Y-61011576D01*
X36876017Y-61218133D01*
X36832400Y-61437412D01*
X36242400Y-61437412D01*
X36242400Y-59719400D01*
X36427288Y-59719400D01*
X36646567Y-59675783D01*
X36853124Y-59590224D01*
X37011144Y-59484638D01*
X37184833Y-59556583D01*
X37404112Y-59600200D01*
X37627688Y-59600200D01*
X37846967Y-59556583D01*
X38053524Y-59471024D01*
X38239420Y-59346812D01*
X38386032Y-59200200D01*
X54960495Y-59200200D01*
X54996600Y-59203756D01*
X55032705Y-59200200D01*
X55140685Y-59189565D01*
X55279233Y-59147537D01*
X55406920Y-59079287D01*
X55518838Y-58987438D01*
X55541858Y-58959388D01*
X56859800Y-57641446D01*
X56859800Y-65572353D01*
X56501016Y-65931138D01*
X56509410Y-65752083D01*
X56468422Y-65479967D01*
X56375136Y-65221077D01*
X56313156Y-65105120D01*
X56073065Y-65038140D01*
X55287105Y-65824100D01*
X55301248Y-65838243D01*
X55121643Y-66017848D01*
X55107500Y-66003705D01*
X54321540Y-66789665D01*
X54388520Y-67029756D01*
X54524260Y-67093585D01*
X54445773Y-67126095D01*
X54216965Y-67278980D01*
X54022380Y-67473565D01*
X53869495Y-67702373D01*
X53764186Y-67956610D01*
X53710500Y-68226508D01*
X53710500Y-68501692D01*
X53764186Y-68771590D01*
X53869495Y-69025827D01*
X54022380Y-69254635D01*
X54216965Y-69449220D01*
X54445773Y-69602105D01*
X54700010Y-69707414D01*
X54969908Y-69761100D01*
X55245092Y-69761100D01*
X55514990Y-69707414D01*
X55769227Y-69602105D01*
X55998035Y-69449220D01*
X56192620Y-69254635D01*
X56345505Y-69025827D01*
X56450814Y-68771590D01*
X56504500Y-68501692D01*
X56504500Y-68226508D01*
X56468006Y-68043040D01*
X58088997Y-66422050D01*
X58117037Y-66399038D01*
X58140050Y-66370997D01*
X58140053Y-66370994D01*
X58208886Y-66287121D01*
X58208887Y-66287120D01*
X58277137Y-66159433D01*
X58319165Y-66020885D01*
X58329800Y-65912905D01*
X58329800Y-65912896D01*
X58333355Y-65876801D01*
X58329800Y-65840706D01*
X58329800Y-47885294D01*
X58333355Y-47849199D01*
X58329800Y-47813104D01*
X58329800Y-47813095D01*
X58319165Y-47705115D01*
X58277137Y-47566567D01*
X58208887Y-47438880D01*
X58117038Y-47326962D01*
X58088993Y-47303946D01*
X56888400Y-46103354D01*
X56888400Y-33677691D01*
X57835150Y-33675400D01*
X57993900Y-33516650D01*
X57993900Y-32377400D01*
X57973900Y-32377400D01*
X57973900Y-32123400D01*
X57993900Y-32123400D01*
X57993900Y-30984150D01*
X57835150Y-30825400D01*
X56565900Y-30822328D01*
X56441418Y-30834588D01*
X56321720Y-30870898D01*
X56211406Y-30929863D01*
X56114715Y-31009215D01*
X56035363Y-31105906D01*
X55976398Y-31216220D01*
X55973388Y-31226142D01*
X52353906Y-27606660D01*
X52353483Y-27604533D01*
X52267924Y-27397976D01*
X52143712Y-27212080D01*
X51985620Y-27053988D01*
X51799724Y-26929776D01*
X51593167Y-26844217D01*
X51373888Y-26800600D01*
X51166547Y-26800600D01*
X48833318Y-24467372D01*
X49516300Y-24467372D01*
X49640782Y-24455112D01*
X49760480Y-24418802D01*
X49870794Y-24359837D01*
X49967485Y-24280485D01*
X50046837Y-24183794D01*
X50105802Y-24073480D01*
X50142112Y-23953782D01*
X50154372Y-23829300D01*
X50154372Y-23416197D01*
X50166300Y-23417372D01*
X50380550Y-23414300D01*
X50539300Y-23255550D01*
X50539300Y-22506300D01*
X50793300Y-22506300D01*
X50793300Y-23255550D01*
X50952050Y-23414300D01*
X51166300Y-23417372D01*
X51290782Y-23405112D01*
X51410480Y-23368802D01*
X51520794Y-23309837D01*
X51617485Y-23230485D01*
X51696837Y-23133794D01*
X51755802Y-23023480D01*
X51792112Y-22903782D01*
X51804372Y-22779300D01*
X51801300Y-22665050D01*
X51719722Y-22583472D01*
X53211886Y-22583472D01*
X53226791Y-22849386D01*
X53455166Y-23045329D01*
X53717380Y-23192953D01*
X54003356Y-23286586D01*
X54302103Y-23322628D01*
X54602141Y-23299694D01*
X54765344Y-23261636D01*
X54910904Y-23038273D01*
X54289215Y-21961476D01*
X53211886Y-22583472D01*
X51719722Y-22583472D01*
X51642550Y-22506300D01*
X50793300Y-22506300D01*
X50539300Y-22506300D01*
X50519300Y-22506300D01*
X50519300Y-22252300D01*
X50539300Y-22252300D01*
X50539300Y-21503050D01*
X50793300Y-21503050D01*
X50793300Y-22252300D01*
X51642550Y-22252300D01*
X51801300Y-22093550D01*
X51804372Y-21979300D01*
X51798718Y-21921887D01*
X52806546Y-21921887D01*
X52862050Y-22217637D01*
X53084886Y-22363502D01*
X54162215Y-21741506D01*
X53540526Y-20664709D01*
X53274308Y-20679086D01*
X53159747Y-20801395D01*
X52989867Y-21049768D01*
X52871707Y-21326512D01*
X52809807Y-21620991D01*
X52806546Y-21921887D01*
X51798718Y-21921887D01*
X51792112Y-21854818D01*
X51755802Y-21735120D01*
X51696837Y-21624806D01*
X51617485Y-21528115D01*
X51520794Y-21448763D01*
X51410480Y-21389798D01*
X51290782Y-21353488D01*
X51166300Y-21341228D01*
X50952050Y-21344300D01*
X50793300Y-21503050D01*
X50539300Y-21503050D01*
X50380550Y-21344300D01*
X50166300Y-21341228D01*
X50041818Y-21353488D01*
X49922120Y-21389798D01*
X49811806Y-21448763D01*
X49715115Y-21528115D01*
X49635763Y-21624806D01*
X49576798Y-21735120D01*
X49540488Y-21854818D01*
X49528228Y-21979300D01*
X49531277Y-22092703D01*
X49516300Y-22091228D01*
X49079283Y-22091228D01*
X49107947Y-22072075D01*
X49259075Y-21920947D01*
X49377815Y-21743240D01*
X49459604Y-21545783D01*
X49501300Y-21336163D01*
X49501300Y-21122437D01*
X49459604Y-20912817D01*
X49377815Y-20715360D01*
X49259075Y-20537653D01*
X49107947Y-20386525D01*
X48930240Y-20267785D01*
X48732783Y-20185996D01*
X48523163Y-20144300D01*
X48309437Y-20144300D01*
X48099817Y-20185996D01*
X47902360Y-20267785D01*
X47724653Y-20386525D01*
X47573525Y-20537653D01*
X47454785Y-20715360D01*
X47372996Y-20912817D01*
X47331300Y-21122437D01*
X47331300Y-21336163D01*
X47372996Y-21545783D01*
X47454785Y-21743240D01*
X47573525Y-21920947D01*
X47724653Y-22072075D01*
X47902360Y-22190815D01*
X48099817Y-22272604D01*
X48309437Y-22314300D01*
X48335419Y-22314300D01*
X48285763Y-22374806D01*
X48226798Y-22485120D01*
X48190488Y-22604818D01*
X48178228Y-22729300D01*
X48178228Y-23812282D01*
X48001359Y-23635413D01*
X47978338Y-23607362D01*
X47866420Y-23515513D01*
X47738733Y-23447263D01*
X47600185Y-23405235D01*
X47492205Y-23394600D01*
X47456100Y-23391044D01*
X47419995Y-23394600D01*
X47154372Y-23394600D01*
X47154372Y-22729300D01*
X47142112Y-22604818D01*
X47105802Y-22485120D01*
X47046837Y-22374806D01*
X46967485Y-22278115D01*
X46870794Y-22198763D01*
X46863319Y-22194768D01*
X46848637Y-22146367D01*
X46780387Y-22018680D01*
X46688538Y-21906762D01*
X46576620Y-21814913D01*
X46448933Y-21746663D01*
X46384494Y-21727116D01*
X46459604Y-21545783D01*
X46501300Y-21336163D01*
X46501300Y-21122437D01*
X46459604Y-20912817D01*
X46377815Y-20715360D01*
X46259075Y-20537653D01*
X46107947Y-20386525D01*
X45930240Y-20267785D01*
X45732783Y-20185996D01*
X45523163Y-20144300D01*
X45309437Y-20144300D01*
X45099817Y-20185996D01*
X44902360Y-20267785D01*
X44724653Y-20386525D01*
X44573525Y-20537653D01*
X44454785Y-20715360D01*
X44372996Y-20912817D01*
X44331300Y-21122437D01*
X44331300Y-21336163D01*
X44372996Y-21545783D01*
X44434389Y-21694000D01*
X44233823Y-21694000D01*
X44196837Y-21624806D01*
X44117485Y-21528115D01*
X44020794Y-21448763D01*
X43910480Y-21389798D01*
X43790782Y-21353488D01*
X43666300Y-21341228D01*
X43452050Y-21344300D01*
X43293300Y-21503050D01*
X43293300Y-22252300D01*
X43299579Y-22252300D01*
X43284363Y-22280767D01*
X43264969Y-22344700D01*
X42330194Y-22344700D01*
X42294099Y-22341145D01*
X42258004Y-22344700D01*
X42257995Y-22344700D01*
X42150015Y-22355335D01*
X42011467Y-22397363D01*
X41883780Y-22465613D01*
X41771862Y-22557462D01*
X41748846Y-22585507D01*
X39884254Y-24450100D01*
X36580817Y-24450100D01*
X36675320Y-24399587D01*
X36787238Y-24307738D01*
X36810259Y-24279687D01*
X39110646Y-21979300D01*
X42028228Y-21979300D01*
X42031300Y-22093550D01*
X42190050Y-22252300D01*
X43039300Y-22252300D01*
X43039300Y-21503050D01*
X42880550Y-21344300D01*
X42666300Y-21341228D01*
X42541818Y-21353488D01*
X42422120Y-21389798D01*
X42311806Y-21448763D01*
X42215115Y-21528115D01*
X42135763Y-21624806D01*
X42076798Y-21735120D01*
X42040488Y-21854818D01*
X42028228Y-21979300D01*
X39110646Y-21979300D01*
X40976047Y-20113900D01*
X42028228Y-20113900D01*
X42028228Y-20479300D01*
G37*
G04 #@! TD.AperFunction*
D33*
X35960554Y-23050500D02*
X34821772Y-23050500D01*
X34821772Y-22685100D01*
X34809512Y-22560618D01*
X34773202Y-22440920D01*
X34714237Y-22330606D01*
X34634885Y-22233915D01*
X34538194Y-22154563D01*
X34427880Y-22095598D01*
X34308182Y-22059288D01*
X34183700Y-22047028D01*
X33283700Y-22047028D01*
X33159218Y-22059288D01*
X33039520Y-22095598D01*
X32929206Y-22154563D01*
X32832515Y-22233915D01*
X32753163Y-22330606D01*
X32738200Y-22358600D01*
X31127732Y-22358600D01*
X30981120Y-22211988D01*
X30795224Y-22087776D01*
X30588667Y-22002217D01*
X30369388Y-21958600D01*
X30145812Y-21958600D01*
X29926533Y-22002217D01*
X29719976Y-22087776D01*
X29534080Y-22211988D01*
X29375988Y-22370080D01*
X29251776Y-22555976D01*
X29166217Y-22762533D01*
X29122600Y-22981812D01*
X29122600Y-23205388D01*
X29166217Y-23424667D01*
X29251776Y-23631224D01*
X29375988Y-23817120D01*
X29534080Y-23975212D01*
X29719976Y-24099424D01*
X29926533Y-24184983D01*
X30145812Y-24228600D01*
X30369388Y-24228600D01*
X30588667Y-24184983D01*
X30795224Y-24099424D01*
X30981120Y-23975212D01*
X31127732Y-23828600D01*
X32699253Y-23828600D01*
X30650308Y-25877546D01*
X30622262Y-25900563D01*
X30530413Y-26012481D01*
X30462163Y-26140168D01*
X30440703Y-26210912D01*
X30420135Y-26278715D01*
X30405944Y-26422800D01*
X30409500Y-26458905D01*
X30409501Y-29853252D01*
X26725608Y-33537146D01*
X26697562Y-33560163D01*
X26605713Y-33672081D01*
X26537463Y-33799768D01*
X26508184Y-33896287D01*
X26495435Y-33938315D01*
X26481244Y-34082400D01*
X26484800Y-34118505D01*
X26484801Y-42357153D01*
X26375308Y-42466646D01*
X26347262Y-42489663D01*
X26255413Y-42601581D01*
X26187163Y-42729268D01*
X26163982Y-42805685D01*
X26145135Y-42867815D01*
X26130944Y-43011900D01*
X26134500Y-43048005D01*
X26134500Y-43586147D01*
X26122415Y-43625986D01*
X26095135Y-43715915D01*
X26080944Y-43860000D01*
X26084500Y-43896105D01*
X26084501Y-45306853D01*
X25934408Y-45456946D01*
X25906362Y-45479963D01*
X25814513Y-45591881D01*
X25746263Y-45719568D01*
X25718911Y-45809735D01*
X25704235Y-45858115D01*
X25690044Y-46002200D01*
X25693600Y-46038305D01*
X25693601Y-49335085D01*
X25690044Y-49371200D01*
X25704235Y-49515285D01*
X25722885Y-49576763D01*
X25746264Y-49653833D01*
X25814514Y-49781520D01*
X25906363Y-49893438D01*
X25934408Y-49916454D01*
X26134500Y-50116546D01*
X26134500Y-50502995D01*
X26130944Y-50539100D01*
X26134500Y-50575205D01*
X26145135Y-50683185D01*
X26187164Y-50821733D01*
X26255414Y-50949420D01*
X26347263Y-51061338D01*
X26375308Y-51084354D01*
X29811900Y-54520947D01*
X29811901Y-55214885D01*
X29808344Y-55251000D01*
X29822535Y-55395085D01*
X29861525Y-55523615D01*
X29864564Y-55533633D01*
X29932814Y-55661320D01*
X30024663Y-55773238D01*
X30052708Y-55796254D01*
X30612500Y-56356047D01*
X30612500Y-56649895D01*
X30608944Y-56686000D01*
X30612500Y-56722105D01*
X30623135Y-56830085D01*
X30665163Y-56968633D01*
X30733414Y-57096320D01*
X30825263Y-57208238D01*
X30853308Y-57231254D01*
X31012800Y-57390746D01*
X31012800Y-57617295D01*
X31009244Y-57653400D01*
X31012800Y-57689505D01*
X31023435Y-57797485D01*
X31065463Y-57936033D01*
X31133714Y-58063720D01*
X31225563Y-58175638D01*
X31253608Y-58198654D01*
X31348600Y-58293646D01*
X31348600Y-58500988D01*
X31392217Y-58720267D01*
X31477776Y-58926824D01*
X31554027Y-59040941D01*
X31530988Y-59063980D01*
X31406776Y-59249876D01*
X31321217Y-59456433D01*
X31277600Y-59675712D01*
X31277600Y-59883053D01*
X28710508Y-62450146D01*
X28682463Y-62473162D01*
X28590614Y-62585080D01*
X28578720Y-62607333D01*
X28522364Y-62712767D01*
X28480335Y-62851315D01*
X28466144Y-62995400D01*
X28469701Y-63031515D01*
X28469700Y-67053779D01*
X28360520Y-67086898D01*
X28250206Y-67145863D01*
X28204700Y-67183209D01*
X28159194Y-67145863D01*
X28048880Y-67086898D01*
X27929182Y-67050588D01*
X27804700Y-67038328D01*
X26604700Y-67038328D01*
X26480218Y-67050588D01*
X26360520Y-67086898D01*
X26250206Y-67145863D01*
X26204700Y-67183209D01*
X26159194Y-67145863D01*
X26048880Y-67086898D01*
X25929182Y-67050588D01*
X25804700Y-67038328D01*
X25490450Y-67041400D01*
X25331700Y-67200150D01*
X25331700Y-68399400D01*
X25351700Y-68399400D01*
X25351700Y-68653400D01*
X25331700Y-68653400D01*
X25331700Y-69852650D01*
X25490450Y-70011400D01*
X25804700Y-70014472D01*
X25929182Y-70002212D01*
X26048880Y-69965902D01*
X26159194Y-69906937D01*
X26204700Y-69869591D01*
X26250206Y-69906937D01*
X26360520Y-69965902D01*
X26480218Y-70002212D01*
X26604700Y-70014472D01*
X27765826Y-70014472D01*
X27922341Y-70170987D01*
X27945362Y-70199038D01*
X28057280Y-70290887D01*
X28184967Y-70359137D01*
X28323515Y-70401165D01*
X28467600Y-70415356D01*
X28503705Y-70411800D01*
X29962695Y-70411800D01*
X29998800Y-70415356D01*
X30034905Y-70411800D01*
X30142885Y-70401165D01*
X30281433Y-70359137D01*
X30409120Y-70290887D01*
X30521038Y-70199038D01*
X30544059Y-70170987D01*
X30599292Y-70115754D01*
X30627337Y-70092738D01*
X30691569Y-70014472D01*
X31804700Y-70014472D01*
X31929182Y-70002212D01*
X32048880Y-69965902D01*
X32159194Y-69906937D01*
X32204700Y-69869591D01*
X32250206Y-69906937D01*
X32360520Y-69965902D01*
X32480218Y-70002212D01*
X32604700Y-70014472D01*
X33569301Y-70014472D01*
X33569300Y-77176795D01*
X33565744Y-77212900D01*
X33579935Y-77356984D01*
X33619466Y-77487300D01*
X33552912Y-77487300D01*
X33333633Y-77530917D01*
X33127076Y-77616476D01*
X32941180Y-77740688D01*
X32783088Y-77898780D01*
X32658876Y-78084676D01*
X32573317Y-78291233D01*
X32529700Y-78510512D01*
X32529700Y-78717853D01*
X31610808Y-79636746D01*
X31582763Y-79659762D01*
X31490914Y-79771680D01*
X31480045Y-79792015D01*
X31422664Y-79899367D01*
X31380635Y-80037915D01*
X31366444Y-80182000D01*
X31370001Y-80218115D01*
X31370000Y-82268328D01*
X30604700Y-82268328D01*
X30480218Y-82280588D01*
X30360520Y-82316898D01*
X30250206Y-82375863D01*
X30204700Y-82413209D01*
X30159194Y-82375863D01*
X30048880Y-82316898D01*
X29929182Y-82280588D01*
X29804700Y-82268328D01*
X28604700Y-82268328D01*
X28480218Y-82280588D01*
X28360520Y-82316898D01*
X28250206Y-82375863D01*
X28204700Y-82413209D01*
X28159194Y-82375863D01*
X28048880Y-82316898D01*
X27929182Y-82280588D01*
X27804700Y-82268328D01*
X27490450Y-82271400D01*
X27331700Y-82430150D01*
X27331700Y-83629400D01*
X27351700Y-83629400D01*
X27351700Y-83883400D01*
X27331700Y-83883400D01*
X27331700Y-83903400D01*
X27077700Y-83903400D01*
X27077700Y-83883400D01*
X27057700Y-83883400D01*
X27057700Y-83629400D01*
X27077700Y-83629400D01*
X27077700Y-82430150D01*
X26918950Y-82271400D01*
X26604700Y-82268328D01*
X26480218Y-82280588D01*
X26360520Y-82316898D01*
X26250206Y-82375863D01*
X26204700Y-82413209D01*
X26159194Y-82375863D01*
X26048880Y-82316898D01*
X25929182Y-82280588D01*
X25804700Y-82268328D01*
X24604700Y-82268328D01*
X24480218Y-82280588D01*
X24360520Y-82316898D01*
X24250206Y-82375863D01*
X24153515Y-82455215D01*
X24074163Y-82551906D01*
X24015198Y-82662220D01*
X23978888Y-82781918D01*
X23966628Y-82906400D01*
X23966628Y-84606400D01*
X23978888Y-84730882D01*
X24015198Y-84850580D01*
X24074163Y-84960894D01*
X24153515Y-85057585D01*
X24169700Y-85070868D01*
X24169700Y-85155861D01*
X24164693Y-85206700D01*
X24184676Y-85409595D01*
X24228396Y-85553719D01*
X24001409Y-85705387D01*
X23731887Y-85974909D01*
X23520125Y-86291834D01*
X23374261Y-86643981D01*
X23334751Y-86842612D01*
X23234575Y-69376400D01*
X23966628Y-69376400D01*
X23978888Y-69500882D01*
X24015198Y-69620580D01*
X24074163Y-69730894D01*
X24153515Y-69827585D01*
X24250206Y-69906937D01*
X24360520Y-69965902D01*
X24480218Y-70002212D01*
X24604700Y-70014472D01*
X24918950Y-70011400D01*
X25077700Y-69852650D01*
X25077700Y-68653400D01*
X24128450Y-68653400D01*
X23969700Y-68812150D01*
X23966628Y-69376400D01*
X23234575Y-69376400D01*
X23224825Y-67676400D01*
X23966628Y-67676400D01*
X23969700Y-68240650D01*
X24128450Y-68399400D01*
X25077700Y-68399400D01*
X25077700Y-67200150D01*
X24918950Y-67041400D01*
X24604700Y-67038328D01*
X24480218Y-67050588D01*
X24360520Y-67086898D01*
X24250206Y-67145863D01*
X24153515Y-67225215D01*
X24074163Y-67321906D01*
X24015198Y-67432220D01*
X23978888Y-67551918D01*
X23966628Y-67676400D01*
X23224825Y-67676400D01*
X23182758Y-60341689D01*
X25838700Y-60341689D01*
X25838700Y-60614511D01*
X25891925Y-60882089D01*
X25996329Y-61134143D01*
X26147901Y-61360986D01*
X26340814Y-61553899D01*
X26567657Y-61705471D01*
X26819711Y-61809875D01*
X27087289Y-61863100D01*
X27360111Y-61863100D01*
X27627689Y-61809875D01*
X27879743Y-61705471D01*
X28106586Y-61553899D01*
X28299499Y-61360986D01*
X28451071Y-61134143D01*
X28555475Y-60882089D01*
X28608700Y-60614511D01*
X28608700Y-60341689D01*
X28555475Y-60074111D01*
X28451071Y-59822057D01*
X28299499Y-59595214D01*
X28106586Y-59402301D01*
X27879743Y-59250729D01*
X27627689Y-59146325D01*
X27360111Y-59093100D01*
X27087289Y-59093100D01*
X26819711Y-59146325D01*
X26567657Y-59250729D01*
X26340814Y-59402301D01*
X26147901Y-59595214D01*
X25996329Y-59822057D01*
X25891925Y-60074111D01*
X25838700Y-60341689D01*
X23182758Y-60341689D01*
X23154769Y-55461689D01*
X25838700Y-55461689D01*
X25838700Y-55734511D01*
X25891925Y-56002089D01*
X25996329Y-56254143D01*
X26147901Y-56480986D01*
X26340814Y-56673899D01*
X26567657Y-56825471D01*
X26819711Y-56929875D01*
X27087289Y-56983100D01*
X27360111Y-56983100D01*
X27627689Y-56929875D01*
X27879743Y-56825471D01*
X28106586Y-56673899D01*
X28299499Y-56480986D01*
X28451071Y-56254143D01*
X28555475Y-56002089D01*
X28608700Y-55734511D01*
X28608700Y-55461689D01*
X28555475Y-55194111D01*
X28451071Y-54942057D01*
X28299499Y-54715214D01*
X28106586Y-54522301D01*
X27879743Y-54370729D01*
X27627689Y-54266325D01*
X27360111Y-54213100D01*
X27087289Y-54213100D01*
X26819711Y-54266325D01*
X26567657Y-54370729D01*
X26340814Y-54522301D01*
X26147901Y-54715214D01*
X25996329Y-54942057D01*
X25891925Y-55194111D01*
X25838700Y-55461689D01*
X23154769Y-55461689D01*
X23001435Y-28727308D01*
X26837800Y-28727308D01*
X26837800Y-29002492D01*
X26891486Y-29272390D01*
X26996795Y-29526627D01*
X27149680Y-29755435D01*
X27344265Y-29950020D01*
X27573073Y-30102905D01*
X27827310Y-30208214D01*
X28097208Y-30261900D01*
X28372392Y-30261900D01*
X28642290Y-30208214D01*
X28896527Y-30102905D01*
X29125335Y-29950020D01*
X29319920Y-29755435D01*
X29472805Y-29526627D01*
X29578114Y-29272390D01*
X29631800Y-29002492D01*
X29631800Y-28727308D01*
X29578114Y-28457410D01*
X29472805Y-28203173D01*
X29319920Y-27974365D01*
X29125335Y-27779780D01*
X28896527Y-27626895D01*
X28820205Y-27595281D01*
X28827823Y-27592536D01*
X28943780Y-27530556D01*
X29010760Y-27290465D01*
X28224800Y-26504505D01*
X27438840Y-27290465D01*
X27505820Y-27530556D01*
X27646243Y-27596587D01*
X27573073Y-27626895D01*
X27344265Y-27779780D01*
X27149680Y-27974365D01*
X26996795Y-28203173D01*
X26891486Y-28457410D01*
X26837800Y-28727308D01*
X23001435Y-28727308D01*
X22988069Y-26396917D01*
X26822890Y-26396917D01*
X26863878Y-26669033D01*
X26957164Y-26927923D01*
X27019144Y-27043880D01*
X27259235Y-27110860D01*
X28045195Y-26324900D01*
X28404405Y-26324900D01*
X29190365Y-27110860D01*
X29430456Y-27043880D01*
X29547556Y-26794852D01*
X29613823Y-26527765D01*
X29626710Y-26252883D01*
X29585722Y-25980767D01*
X29492436Y-25721877D01*
X29430456Y-25605920D01*
X29190365Y-25538940D01*
X28404405Y-26324900D01*
X28045195Y-26324900D01*
X27259235Y-25538940D01*
X27019144Y-25605920D01*
X26902044Y-25854948D01*
X26835777Y-26122035D01*
X26822890Y-26396917D01*
X22988069Y-26396917D01*
X22982118Y-25359335D01*
X27438840Y-25359335D01*
X28224800Y-26145295D01*
X29010760Y-25359335D01*
X28943780Y-25119244D01*
X28694752Y-25002144D01*
X28427665Y-24935877D01*
X28152783Y-24922990D01*
X27880667Y-24963978D01*
X27621777Y-25057264D01*
X27505820Y-25119244D01*
X27438840Y-25359335D01*
X22982118Y-25359335D01*
X22949409Y-19656470D01*
X23896394Y-19651368D01*
X23810909Y-19708487D01*
X23541387Y-19978009D01*
X23329625Y-20294934D01*
X23183761Y-20647081D01*
X23109400Y-21020919D01*
X23109400Y-21402081D01*
X23183761Y-21775919D01*
X23329625Y-22128066D01*
X23541387Y-22444991D01*
X23810909Y-22714513D01*
X24127834Y-22926275D01*
X24479981Y-23072139D01*
X24853819Y-23146500D01*
X25234981Y-23146500D01*
X25608819Y-23072139D01*
X25960966Y-22926275D01*
X26277891Y-22714513D01*
X26547413Y-22444991D01*
X26759175Y-22128066D01*
X26905039Y-21775919D01*
X26979400Y-21402081D01*
X26979400Y-21020919D01*
X26905039Y-20647081D01*
X26759175Y-20294934D01*
X26547413Y-19978009D01*
X26277891Y-19708487D01*
X26174041Y-19639097D01*
X39443448Y-19567605D01*
X35960554Y-23050500D01*
G04 #@! TA.AperFunction,Conductor*
D34*
G36*
X35960554Y-23050500D02*
G01*
X34821772Y-23050500D01*
X34821772Y-22685100D01*
X34809512Y-22560618D01*
X34773202Y-22440920D01*
X34714237Y-22330606D01*
X34634885Y-22233915D01*
X34538194Y-22154563D01*
X34427880Y-22095598D01*
X34308182Y-22059288D01*
X34183700Y-22047028D01*
X33283700Y-22047028D01*
X33159218Y-22059288D01*
X33039520Y-22095598D01*
X32929206Y-22154563D01*
X32832515Y-22233915D01*
X32753163Y-22330606D01*
X32738200Y-22358600D01*
X31127732Y-22358600D01*
X30981120Y-22211988D01*
X30795224Y-22087776D01*
X30588667Y-22002217D01*
X30369388Y-21958600D01*
X30145812Y-21958600D01*
X29926533Y-22002217D01*
X29719976Y-22087776D01*
X29534080Y-22211988D01*
X29375988Y-22370080D01*
X29251776Y-22555976D01*
X29166217Y-22762533D01*
X29122600Y-22981812D01*
X29122600Y-23205388D01*
X29166217Y-23424667D01*
X29251776Y-23631224D01*
X29375988Y-23817120D01*
X29534080Y-23975212D01*
X29719976Y-24099424D01*
X29926533Y-24184983D01*
X30145812Y-24228600D01*
X30369388Y-24228600D01*
X30588667Y-24184983D01*
X30795224Y-24099424D01*
X30981120Y-23975212D01*
X31127732Y-23828600D01*
X32699253Y-23828600D01*
X30650308Y-25877546D01*
X30622262Y-25900563D01*
X30530413Y-26012481D01*
X30462163Y-26140168D01*
X30440703Y-26210912D01*
X30420135Y-26278715D01*
X30405944Y-26422800D01*
X30409500Y-26458905D01*
X30409501Y-29853252D01*
X26725608Y-33537146D01*
X26697562Y-33560163D01*
X26605713Y-33672081D01*
X26537463Y-33799768D01*
X26508184Y-33896287D01*
X26495435Y-33938315D01*
X26481244Y-34082400D01*
X26484800Y-34118505D01*
X26484801Y-42357153D01*
X26375308Y-42466646D01*
X26347262Y-42489663D01*
X26255413Y-42601581D01*
X26187163Y-42729268D01*
X26163982Y-42805685D01*
X26145135Y-42867815D01*
X26130944Y-43011900D01*
X26134500Y-43048005D01*
X26134500Y-43586147D01*
X26122415Y-43625986D01*
X26095135Y-43715915D01*
X26080944Y-43860000D01*
X26084500Y-43896105D01*
X26084501Y-45306853D01*
X25934408Y-45456946D01*
X25906362Y-45479963D01*
X25814513Y-45591881D01*
X25746263Y-45719568D01*
X25718911Y-45809735D01*
X25704235Y-45858115D01*
X25690044Y-46002200D01*
X25693600Y-46038305D01*
X25693601Y-49335085D01*
X25690044Y-49371200D01*
X25704235Y-49515285D01*
X25722885Y-49576763D01*
X25746264Y-49653833D01*
X25814514Y-49781520D01*
X25906363Y-49893438D01*
X25934408Y-49916454D01*
X26134500Y-50116546D01*
X26134500Y-50502995D01*
X26130944Y-50539100D01*
X26134500Y-50575205D01*
X26145135Y-50683185D01*
X26187164Y-50821733D01*
X26255414Y-50949420D01*
X26347263Y-51061338D01*
X26375308Y-51084354D01*
X29811900Y-54520947D01*
X29811901Y-55214885D01*
X29808344Y-55251000D01*
X29822535Y-55395085D01*
X29861525Y-55523615D01*
X29864564Y-55533633D01*
X29932814Y-55661320D01*
X30024663Y-55773238D01*
X30052708Y-55796254D01*
X30612500Y-56356047D01*
X30612500Y-56649895D01*
X30608944Y-56686000D01*
X30612500Y-56722105D01*
X30623135Y-56830085D01*
X30665163Y-56968633D01*
X30733414Y-57096320D01*
X30825263Y-57208238D01*
X30853308Y-57231254D01*
X31012800Y-57390746D01*
X31012800Y-57617295D01*
X31009244Y-57653400D01*
X31012800Y-57689505D01*
X31023435Y-57797485D01*
X31065463Y-57936033D01*
X31133714Y-58063720D01*
X31225563Y-58175638D01*
X31253608Y-58198654D01*
X31348600Y-58293646D01*
X31348600Y-58500988D01*
X31392217Y-58720267D01*
X31477776Y-58926824D01*
X31554027Y-59040941D01*
X31530988Y-59063980D01*
X31406776Y-59249876D01*
X31321217Y-59456433D01*
X31277600Y-59675712D01*
X31277600Y-59883053D01*
X28710508Y-62450146D01*
X28682463Y-62473162D01*
X28590614Y-62585080D01*
X28578720Y-62607333D01*
X28522364Y-62712767D01*
X28480335Y-62851315D01*
X28466144Y-62995400D01*
X28469701Y-63031515D01*
X28469700Y-67053779D01*
X28360520Y-67086898D01*
X28250206Y-67145863D01*
X28204700Y-67183209D01*
X28159194Y-67145863D01*
X28048880Y-67086898D01*
X27929182Y-67050588D01*
X27804700Y-67038328D01*
X26604700Y-67038328D01*
X26480218Y-67050588D01*
X26360520Y-67086898D01*
X26250206Y-67145863D01*
X26204700Y-67183209D01*
X26159194Y-67145863D01*
X26048880Y-67086898D01*
X25929182Y-67050588D01*
X25804700Y-67038328D01*
X25490450Y-67041400D01*
X25331700Y-67200150D01*
X25331700Y-68399400D01*
X25351700Y-68399400D01*
X25351700Y-68653400D01*
X25331700Y-68653400D01*
X25331700Y-69852650D01*
X25490450Y-70011400D01*
X25804700Y-70014472D01*
X25929182Y-70002212D01*
X26048880Y-69965902D01*
X26159194Y-69906937D01*
X26204700Y-69869591D01*
X26250206Y-69906937D01*
X26360520Y-69965902D01*
X26480218Y-70002212D01*
X26604700Y-70014472D01*
X27765826Y-70014472D01*
X27922341Y-70170987D01*
X27945362Y-70199038D01*
X28057280Y-70290887D01*
X28184967Y-70359137D01*
X28323515Y-70401165D01*
X28467600Y-70415356D01*
X28503705Y-70411800D01*
X29962695Y-70411800D01*
X29998800Y-70415356D01*
X30034905Y-70411800D01*
X30142885Y-70401165D01*
X30281433Y-70359137D01*
X30409120Y-70290887D01*
X30521038Y-70199038D01*
X30544059Y-70170987D01*
X30599292Y-70115754D01*
X30627337Y-70092738D01*
X30691569Y-70014472D01*
X31804700Y-70014472D01*
X31929182Y-70002212D01*
X32048880Y-69965902D01*
X32159194Y-69906937D01*
X32204700Y-69869591D01*
X32250206Y-69906937D01*
X32360520Y-69965902D01*
X32480218Y-70002212D01*
X32604700Y-70014472D01*
X33569301Y-70014472D01*
X33569300Y-77176795D01*
X33565744Y-77212900D01*
X33579935Y-77356984D01*
X33619466Y-77487300D01*
X33552912Y-77487300D01*
X33333633Y-77530917D01*
X33127076Y-77616476D01*
X32941180Y-77740688D01*
X32783088Y-77898780D01*
X32658876Y-78084676D01*
X32573317Y-78291233D01*
X32529700Y-78510512D01*
X32529700Y-78717853D01*
X31610808Y-79636746D01*
X31582763Y-79659762D01*
X31490914Y-79771680D01*
X31480045Y-79792015D01*
X31422664Y-79899367D01*
X31380635Y-80037915D01*
X31366444Y-80182000D01*
X31370001Y-80218115D01*
X31370000Y-82268328D01*
X30604700Y-82268328D01*
X30480218Y-82280588D01*
X30360520Y-82316898D01*
X30250206Y-82375863D01*
X30204700Y-82413209D01*
X30159194Y-82375863D01*
X30048880Y-82316898D01*
X29929182Y-82280588D01*
X29804700Y-82268328D01*
X28604700Y-82268328D01*
X28480218Y-82280588D01*
X28360520Y-82316898D01*
X28250206Y-82375863D01*
X28204700Y-82413209D01*
X28159194Y-82375863D01*
X28048880Y-82316898D01*
X27929182Y-82280588D01*
X27804700Y-82268328D01*
X27490450Y-82271400D01*
X27331700Y-82430150D01*
X27331700Y-83629400D01*
X27351700Y-83629400D01*
X27351700Y-83883400D01*
X27331700Y-83883400D01*
X27331700Y-83903400D01*
X27077700Y-83903400D01*
X27077700Y-83883400D01*
X27057700Y-83883400D01*
X27057700Y-83629400D01*
X27077700Y-83629400D01*
X27077700Y-82430150D01*
X26918950Y-82271400D01*
X26604700Y-82268328D01*
X26480218Y-82280588D01*
X26360520Y-82316898D01*
X26250206Y-82375863D01*
X26204700Y-82413209D01*
X26159194Y-82375863D01*
X26048880Y-82316898D01*
X25929182Y-82280588D01*
X25804700Y-82268328D01*
X24604700Y-82268328D01*
X24480218Y-82280588D01*
X24360520Y-82316898D01*
X24250206Y-82375863D01*
X24153515Y-82455215D01*
X24074163Y-82551906D01*
X24015198Y-82662220D01*
X23978888Y-82781918D01*
X23966628Y-82906400D01*
X23966628Y-84606400D01*
X23978888Y-84730882D01*
X24015198Y-84850580D01*
X24074163Y-84960894D01*
X24153515Y-85057585D01*
X24169700Y-85070868D01*
X24169700Y-85155861D01*
X24164693Y-85206700D01*
X24184676Y-85409595D01*
X24228396Y-85553719D01*
X24001409Y-85705387D01*
X23731887Y-85974909D01*
X23520125Y-86291834D01*
X23374261Y-86643981D01*
X23334751Y-86842612D01*
X23234575Y-69376400D01*
X23966628Y-69376400D01*
X23978888Y-69500882D01*
X24015198Y-69620580D01*
X24074163Y-69730894D01*
X24153515Y-69827585D01*
X24250206Y-69906937D01*
X24360520Y-69965902D01*
X24480218Y-70002212D01*
X24604700Y-70014472D01*
X24918950Y-70011400D01*
X25077700Y-69852650D01*
X25077700Y-68653400D01*
X24128450Y-68653400D01*
X23969700Y-68812150D01*
X23966628Y-69376400D01*
X23234575Y-69376400D01*
X23224825Y-67676400D01*
X23966628Y-67676400D01*
X23969700Y-68240650D01*
X24128450Y-68399400D01*
X25077700Y-68399400D01*
X25077700Y-67200150D01*
X24918950Y-67041400D01*
X24604700Y-67038328D01*
X24480218Y-67050588D01*
X24360520Y-67086898D01*
X24250206Y-67145863D01*
X24153515Y-67225215D01*
X24074163Y-67321906D01*
X24015198Y-67432220D01*
X23978888Y-67551918D01*
X23966628Y-67676400D01*
X23224825Y-67676400D01*
X23182758Y-60341689D01*
X25838700Y-60341689D01*
X25838700Y-60614511D01*
X25891925Y-60882089D01*
X25996329Y-61134143D01*
X26147901Y-61360986D01*
X26340814Y-61553899D01*
X26567657Y-61705471D01*
X26819711Y-61809875D01*
X27087289Y-61863100D01*
X27360111Y-61863100D01*
X27627689Y-61809875D01*
X27879743Y-61705471D01*
X28106586Y-61553899D01*
X28299499Y-61360986D01*
X28451071Y-61134143D01*
X28555475Y-60882089D01*
X28608700Y-60614511D01*
X28608700Y-60341689D01*
X28555475Y-60074111D01*
X28451071Y-59822057D01*
X28299499Y-59595214D01*
X28106586Y-59402301D01*
X27879743Y-59250729D01*
X27627689Y-59146325D01*
X27360111Y-59093100D01*
X27087289Y-59093100D01*
X26819711Y-59146325D01*
X26567657Y-59250729D01*
X26340814Y-59402301D01*
X26147901Y-59595214D01*
X25996329Y-59822057D01*
X25891925Y-60074111D01*
X25838700Y-60341689D01*
X23182758Y-60341689D01*
X23154769Y-55461689D01*
X25838700Y-55461689D01*
X25838700Y-55734511D01*
X25891925Y-56002089D01*
X25996329Y-56254143D01*
X26147901Y-56480986D01*
X26340814Y-56673899D01*
X26567657Y-56825471D01*
X26819711Y-56929875D01*
X27087289Y-56983100D01*
X27360111Y-56983100D01*
X27627689Y-56929875D01*
X27879743Y-56825471D01*
X28106586Y-56673899D01*
X28299499Y-56480986D01*
X28451071Y-56254143D01*
X28555475Y-56002089D01*
X28608700Y-55734511D01*
X28608700Y-55461689D01*
X28555475Y-55194111D01*
X28451071Y-54942057D01*
X28299499Y-54715214D01*
X28106586Y-54522301D01*
X27879743Y-54370729D01*
X27627689Y-54266325D01*
X27360111Y-54213100D01*
X27087289Y-54213100D01*
X26819711Y-54266325D01*
X26567657Y-54370729D01*
X26340814Y-54522301D01*
X26147901Y-54715214D01*
X25996329Y-54942057D01*
X25891925Y-55194111D01*
X25838700Y-55461689D01*
X23154769Y-55461689D01*
X23001435Y-28727308D01*
X26837800Y-28727308D01*
X26837800Y-29002492D01*
X26891486Y-29272390D01*
X26996795Y-29526627D01*
X27149680Y-29755435D01*
X27344265Y-29950020D01*
X27573073Y-30102905D01*
X27827310Y-30208214D01*
X28097208Y-30261900D01*
X28372392Y-30261900D01*
X28642290Y-30208214D01*
X28896527Y-30102905D01*
X29125335Y-29950020D01*
X29319920Y-29755435D01*
X29472805Y-29526627D01*
X29578114Y-29272390D01*
X29631800Y-29002492D01*
X29631800Y-28727308D01*
X29578114Y-28457410D01*
X29472805Y-28203173D01*
X29319920Y-27974365D01*
X29125335Y-27779780D01*
X28896527Y-27626895D01*
X28820205Y-27595281D01*
X28827823Y-27592536D01*
X28943780Y-27530556D01*
X29010760Y-27290465D01*
X28224800Y-26504505D01*
X27438840Y-27290465D01*
X27505820Y-27530556D01*
X27646243Y-27596587D01*
X27573073Y-27626895D01*
X27344265Y-27779780D01*
X27149680Y-27974365D01*
X26996795Y-28203173D01*
X26891486Y-28457410D01*
X26837800Y-28727308D01*
X23001435Y-28727308D01*
X22988069Y-26396917D01*
X26822890Y-26396917D01*
X26863878Y-26669033D01*
X26957164Y-26927923D01*
X27019144Y-27043880D01*
X27259235Y-27110860D01*
X28045195Y-26324900D01*
X28404405Y-26324900D01*
X29190365Y-27110860D01*
X29430456Y-27043880D01*
X29547556Y-26794852D01*
X29613823Y-26527765D01*
X29626710Y-26252883D01*
X29585722Y-25980767D01*
X29492436Y-25721877D01*
X29430456Y-25605920D01*
X29190365Y-25538940D01*
X28404405Y-26324900D01*
X28045195Y-26324900D01*
X27259235Y-25538940D01*
X27019144Y-25605920D01*
X26902044Y-25854948D01*
X26835777Y-26122035D01*
X26822890Y-26396917D01*
X22988069Y-26396917D01*
X22982118Y-25359335D01*
X27438840Y-25359335D01*
X28224800Y-26145295D01*
X29010760Y-25359335D01*
X28943780Y-25119244D01*
X28694752Y-25002144D01*
X28427665Y-24935877D01*
X28152783Y-24922990D01*
X27880667Y-24963978D01*
X27621777Y-25057264D01*
X27505820Y-25119244D01*
X27438840Y-25359335D01*
X22982118Y-25359335D01*
X22949409Y-19656470D01*
X23896394Y-19651368D01*
X23810909Y-19708487D01*
X23541387Y-19978009D01*
X23329625Y-20294934D01*
X23183761Y-20647081D01*
X23109400Y-21020919D01*
X23109400Y-21402081D01*
X23183761Y-21775919D01*
X23329625Y-22128066D01*
X23541387Y-22444991D01*
X23810909Y-22714513D01*
X24127834Y-22926275D01*
X24479981Y-23072139D01*
X24853819Y-23146500D01*
X25234981Y-23146500D01*
X25608819Y-23072139D01*
X25960966Y-22926275D01*
X26277891Y-22714513D01*
X26547413Y-22444991D01*
X26759175Y-22128066D01*
X26905039Y-21775919D01*
X26979400Y-21402081D01*
X26979400Y-21020919D01*
X26905039Y-20647081D01*
X26759175Y-20294934D01*
X26547413Y-19978009D01*
X26277891Y-19708487D01*
X26174041Y-19639097D01*
X39443448Y-19567605D01*
X35960554Y-23050500D01*
G37*
G04 #@! TD.AperFunction*
D33*
X37669880Y-49747487D02*
X37688200Y-49757279D01*
X37688200Y-49960800D01*
X37668200Y-49960800D01*
X37668200Y-50710050D01*
X37826950Y-50868800D01*
X37991200Y-50871872D01*
X38115682Y-50859612D01*
X38235380Y-50823302D01*
X38345694Y-50764337D01*
X38442385Y-50684985D01*
X38521737Y-50588294D01*
X38580702Y-50477980D01*
X38617012Y-50358282D01*
X38629272Y-50233800D01*
X38626200Y-50119550D01*
X38467452Y-49960802D01*
X38626200Y-49960802D01*
X38626200Y-49868400D01*
X48087554Y-49868400D01*
X53892346Y-55673193D01*
X53915362Y-55701238D01*
X53943406Y-55724253D01*
X54027280Y-55793087D01*
X54099828Y-55831865D01*
X54099828Y-56029000D01*
X54112088Y-56153482D01*
X54148398Y-56273180D01*
X54207363Y-56383494D01*
X54286715Y-56480185D01*
X54383406Y-56559537D01*
X54493720Y-56618502D01*
X54613418Y-56654812D01*
X54737900Y-56667072D01*
X55188982Y-56667072D01*
X54926154Y-56929900D01*
X37875946Y-56929900D01*
X41240747Y-53565100D01*
X45279487Y-53565100D01*
X45378301Y-53712986D01*
X45571214Y-53905899D01*
X45798057Y-54057471D01*
X46050111Y-54161875D01*
X46317689Y-54215100D01*
X46590511Y-54215100D01*
X46858089Y-54161875D01*
X47110143Y-54057471D01*
X47336986Y-53905899D01*
X47529899Y-53712986D01*
X47681471Y-53486143D01*
X47785875Y-53234089D01*
X47839100Y-52966511D01*
X47839100Y-52693689D01*
X47785875Y-52426111D01*
X47681471Y-52174057D01*
X47529899Y-51947214D01*
X47336986Y-51754301D01*
X47110143Y-51602729D01*
X46858089Y-51498325D01*
X46590511Y-51445100D01*
X46317689Y-51445100D01*
X46050111Y-51498325D01*
X45798057Y-51602729D01*
X45571214Y-51754301D01*
X45378301Y-51947214D01*
X45279487Y-52095100D01*
X40972404Y-52095100D01*
X40936299Y-52091544D01*
X40792214Y-52105735D01*
X40755864Y-52116762D01*
X40653667Y-52147763D01*
X40525980Y-52216013D01*
X40414062Y-52307862D01*
X40391046Y-52335907D01*
X35013208Y-57713746D01*
X34985163Y-57736762D01*
X34893314Y-57848680D01*
X34851143Y-57927576D01*
X34827100Y-57972558D01*
X34827100Y-57430346D01*
X38035397Y-54222050D01*
X38063437Y-54199038D01*
X38086450Y-54170997D01*
X38086453Y-54170994D01*
X38125020Y-54124000D01*
X38155287Y-54087120D01*
X38223537Y-53959433D01*
X38265565Y-53820885D01*
X38276200Y-53712905D01*
X38276200Y-53712904D01*
X38279756Y-53676800D01*
X38276200Y-53640695D01*
X38276200Y-52901483D01*
X38345694Y-52864337D01*
X38442385Y-52784985D01*
X38521737Y-52688294D01*
X38580702Y-52577980D01*
X38617012Y-52458282D01*
X38629272Y-52333800D01*
X38629272Y-51533800D01*
X38617012Y-51409318D01*
X38580702Y-51289620D01*
X38521737Y-51179306D01*
X38442385Y-51082615D01*
X38345694Y-51003263D01*
X38235380Y-50944298D01*
X38115682Y-50907988D01*
X37991200Y-50895728D01*
X37091200Y-50895728D01*
X36966718Y-50907988D01*
X36847020Y-50944298D01*
X36795235Y-50971978D01*
X36730824Y-50816476D01*
X36646545Y-50690344D01*
X36736706Y-50764337D01*
X36847020Y-50823302D01*
X36966718Y-50859612D01*
X37091200Y-50871872D01*
X37255450Y-50868800D01*
X37414200Y-50710050D01*
X37414200Y-49960800D01*
X37394200Y-49960800D01*
X37394200Y-49706800D01*
X37414200Y-49706800D01*
X37414200Y-49686800D01*
X37595933Y-49686800D01*
X37669880Y-49747487D01*
G04 #@! TA.AperFunction,Conductor*
D34*
G36*
X37669880Y-49747487D02*
G01*
X37688200Y-49757279D01*
X37688200Y-49960800D01*
X37668200Y-49960800D01*
X37668200Y-50710050D01*
X37826950Y-50868800D01*
X37991200Y-50871872D01*
X38115682Y-50859612D01*
X38235380Y-50823302D01*
X38345694Y-50764337D01*
X38442385Y-50684985D01*
X38521737Y-50588294D01*
X38580702Y-50477980D01*
X38617012Y-50358282D01*
X38629272Y-50233800D01*
X38626200Y-50119550D01*
X38467452Y-49960802D01*
X38626200Y-49960802D01*
X38626200Y-49868400D01*
X48087554Y-49868400D01*
X53892346Y-55673193D01*
X53915362Y-55701238D01*
X53943406Y-55724253D01*
X54027280Y-55793087D01*
X54099828Y-55831865D01*
X54099828Y-56029000D01*
X54112088Y-56153482D01*
X54148398Y-56273180D01*
X54207363Y-56383494D01*
X54286715Y-56480185D01*
X54383406Y-56559537D01*
X54493720Y-56618502D01*
X54613418Y-56654812D01*
X54737900Y-56667072D01*
X55188982Y-56667072D01*
X54926154Y-56929900D01*
X37875946Y-56929900D01*
X41240747Y-53565100D01*
X45279487Y-53565100D01*
X45378301Y-53712986D01*
X45571214Y-53905899D01*
X45798057Y-54057471D01*
X46050111Y-54161875D01*
X46317689Y-54215100D01*
X46590511Y-54215100D01*
X46858089Y-54161875D01*
X47110143Y-54057471D01*
X47336986Y-53905899D01*
X47529899Y-53712986D01*
X47681471Y-53486143D01*
X47785875Y-53234089D01*
X47839100Y-52966511D01*
X47839100Y-52693689D01*
X47785875Y-52426111D01*
X47681471Y-52174057D01*
X47529899Y-51947214D01*
X47336986Y-51754301D01*
X47110143Y-51602729D01*
X46858089Y-51498325D01*
X46590511Y-51445100D01*
X46317689Y-51445100D01*
X46050111Y-51498325D01*
X45798057Y-51602729D01*
X45571214Y-51754301D01*
X45378301Y-51947214D01*
X45279487Y-52095100D01*
X40972404Y-52095100D01*
X40936299Y-52091544D01*
X40792214Y-52105735D01*
X40755864Y-52116762D01*
X40653667Y-52147763D01*
X40525980Y-52216013D01*
X40414062Y-52307862D01*
X40391046Y-52335907D01*
X35013208Y-57713746D01*
X34985163Y-57736762D01*
X34893314Y-57848680D01*
X34851143Y-57927576D01*
X34827100Y-57972558D01*
X34827100Y-57430346D01*
X38035397Y-54222050D01*
X38063437Y-54199038D01*
X38086450Y-54170997D01*
X38086453Y-54170994D01*
X38125020Y-54124000D01*
X38155287Y-54087120D01*
X38223537Y-53959433D01*
X38265565Y-53820885D01*
X38276200Y-53712905D01*
X38276200Y-53712904D01*
X38279756Y-53676800D01*
X38276200Y-53640695D01*
X38276200Y-52901483D01*
X38345694Y-52864337D01*
X38442385Y-52784985D01*
X38521737Y-52688294D01*
X38580702Y-52577980D01*
X38617012Y-52458282D01*
X38629272Y-52333800D01*
X38629272Y-51533800D01*
X38617012Y-51409318D01*
X38580702Y-51289620D01*
X38521737Y-51179306D01*
X38442385Y-51082615D01*
X38345694Y-51003263D01*
X38235380Y-50944298D01*
X38115682Y-50907988D01*
X37991200Y-50895728D01*
X37091200Y-50895728D01*
X36966718Y-50907988D01*
X36847020Y-50944298D01*
X36795235Y-50971978D01*
X36730824Y-50816476D01*
X36646545Y-50690344D01*
X36736706Y-50764337D01*
X36847020Y-50823302D01*
X36966718Y-50859612D01*
X37091200Y-50871872D01*
X37255450Y-50868800D01*
X37414200Y-50710050D01*
X37414200Y-49960800D01*
X37394200Y-49960800D01*
X37394200Y-49706800D01*
X37414200Y-49706800D01*
X37414200Y-49686800D01*
X37595933Y-49686800D01*
X37669880Y-49747487D01*
G37*
G04 #@! TD.AperFunction*
D33*
X45461806Y-24359837D02*
X45469281Y-24363832D01*
X45483963Y-24412233D01*
X45552213Y-24539920D01*
X45644062Y-24651838D01*
X45755980Y-24743687D01*
X45883667Y-24811937D01*
X46022215Y-24853965D01*
X46130195Y-24864600D01*
X46166300Y-24868156D01*
X46202405Y-24864600D01*
X47151654Y-24864600D01*
X50127100Y-27840047D01*
X50127100Y-28047388D01*
X50170717Y-28266667D01*
X50256276Y-28473224D01*
X50380488Y-28659120D01*
X50538580Y-28817212D01*
X50724476Y-28941424D01*
X50931033Y-29026983D01*
X51150312Y-29070600D01*
X51373888Y-29070600D01*
X51593167Y-29026983D01*
X51665412Y-28997058D01*
X53490681Y-30822328D01*
X51565900Y-30822328D01*
X51441418Y-30834588D01*
X51321720Y-30870898D01*
X51211406Y-30929863D01*
X51114715Y-31009215D01*
X51035363Y-31105906D01*
X50976398Y-31216220D01*
X50940088Y-31335918D01*
X50927828Y-31460400D01*
X50927828Y-33040400D01*
X50940088Y-33164882D01*
X50976398Y-33284580D01*
X51035363Y-33394894D01*
X51114715Y-33491585D01*
X51211406Y-33570937D01*
X51321720Y-33629902D01*
X51441418Y-33666212D01*
X51565900Y-33678472D01*
X52385901Y-33678472D01*
X52385900Y-43905595D01*
X52382344Y-43941700D01*
X52396535Y-44085785D01*
X52409284Y-44127813D01*
X52438563Y-44224332D01*
X52506813Y-44352019D01*
X52598662Y-44463937D01*
X52626708Y-44486954D01*
X54593273Y-46453520D01*
X54434425Y-46612368D01*
X54271910Y-46855589D01*
X54159968Y-47125842D01*
X54102900Y-47412740D01*
X54102900Y-47705260D01*
X54159968Y-47992158D01*
X54271910Y-48262411D01*
X54434425Y-48505632D01*
X54641268Y-48712475D01*
X54815660Y-48829000D01*
X54641268Y-48945525D01*
X54434425Y-49152368D01*
X54271910Y-49395589D01*
X54159968Y-49665842D01*
X54102900Y-49952740D01*
X54102900Y-50245260D01*
X54159968Y-50532158D01*
X54271910Y-50802411D01*
X54434425Y-51045632D01*
X54641268Y-51252475D01*
X54815660Y-51369000D01*
X54641268Y-51485525D01*
X54434425Y-51692368D01*
X54271910Y-51935589D01*
X54159968Y-52205842D01*
X54102900Y-52492740D01*
X54102900Y-52785260D01*
X54159968Y-53072158D01*
X54271910Y-53342411D01*
X54434425Y-53585632D01*
X54566280Y-53717487D01*
X54493720Y-53739498D01*
X54383406Y-53798463D01*
X54286715Y-53877815D01*
X54236748Y-53938701D01*
X48937259Y-48639213D01*
X48914238Y-48611162D01*
X48802320Y-48519313D01*
X48674633Y-48451063D01*
X48536085Y-48409035D01*
X48428105Y-48398400D01*
X48392000Y-48394844D01*
X48355895Y-48398400D01*
X47767521Y-48398400D01*
X47785875Y-48354089D01*
X47839100Y-48086511D01*
X47839100Y-47813689D01*
X47785875Y-47546111D01*
X47681471Y-47294057D01*
X47529899Y-47067214D01*
X47336986Y-46874301D01*
X47110143Y-46722729D01*
X46858089Y-46618325D01*
X46590511Y-46565100D01*
X46317689Y-46565100D01*
X46050111Y-46618325D01*
X45798057Y-46722729D01*
X45571214Y-46874301D01*
X45378301Y-47067214D01*
X45226729Y-47294057D01*
X45122325Y-47546111D01*
X45069100Y-47813689D01*
X45069100Y-48086511D01*
X45122325Y-48354089D01*
X45140679Y-48398400D01*
X38384647Y-48398400D01*
X38375515Y-48389268D01*
X38426185Y-48347685D01*
X38505537Y-48250994D01*
X38564502Y-48140680D01*
X38600812Y-48020982D01*
X38613072Y-47896500D01*
X38613072Y-46596500D01*
X38600812Y-46472018D01*
X38564502Y-46352320D01*
X38505537Y-46242006D01*
X38426185Y-46145315D01*
X38360000Y-46090999D01*
X38360000Y-41885194D01*
X38363555Y-41849099D01*
X38360000Y-41813004D01*
X38360000Y-41812995D01*
X38349365Y-41705015D01*
X38307337Y-41566467D01*
X38239087Y-41438780D01*
X38147238Y-41326862D01*
X38119193Y-41303846D01*
X36619509Y-39804163D01*
X36667400Y-39563398D01*
X36667400Y-39273202D01*
X36610786Y-38988583D01*
X36607709Y-38981154D01*
X36820357Y-38950145D01*
X37093828Y-38853054D01*
X37228362Y-38781144D01*
X37304570Y-38533275D01*
X36464200Y-37692905D01*
X36450058Y-37707048D01*
X36270453Y-37527443D01*
X36284595Y-37513300D01*
X36643805Y-37513300D01*
X37484175Y-38353670D01*
X37732044Y-38277462D01*
X37856763Y-38015435D01*
X37927968Y-37734111D01*
X37942919Y-37444301D01*
X37901045Y-37157143D01*
X37803954Y-36883672D01*
X37732044Y-36749138D01*
X37484175Y-36672930D01*
X36643805Y-37513300D01*
X36284595Y-37513300D01*
X35444225Y-36672930D01*
X35196356Y-36749138D01*
X35191801Y-36758708D01*
X35068509Y-36574190D01*
X34987644Y-36493325D01*
X35623830Y-36493325D01*
X36464200Y-37333695D01*
X37304570Y-36493325D01*
X37228362Y-36245456D01*
X36966335Y-36120737D01*
X36685011Y-36049532D01*
X36395201Y-36034581D01*
X36108043Y-36076455D01*
X35834572Y-36173546D01*
X35700038Y-36245456D01*
X35623830Y-36493325D01*
X34987644Y-36493325D01*
X34863310Y-36368991D01*
X34622022Y-36207767D01*
X34353917Y-36096714D01*
X34069298Y-36040100D01*
X33779102Y-36040100D01*
X33494483Y-36096714D01*
X33226378Y-36207767D01*
X32985090Y-36368991D01*
X32779891Y-36574190D01*
X32618667Y-36815478D01*
X32507614Y-37083583D01*
X32451000Y-37368202D01*
X32451000Y-37658398D01*
X32507614Y-37943017D01*
X32618667Y-38211122D01*
X32779891Y-38452410D01*
X32985090Y-38657609D01*
X33189201Y-38793992D01*
X33189200Y-40182795D01*
X33185644Y-40218900D01*
X33199286Y-40357410D01*
X33199835Y-40362984D01*
X33241863Y-40501532D01*
X33310113Y-40629219D01*
X33401962Y-40741137D01*
X33430008Y-40764154D01*
X35956301Y-43290448D01*
X35956300Y-45958428D01*
X35375000Y-45958428D01*
X35250518Y-45970688D01*
X35130820Y-46006998D01*
X35020506Y-46065963D01*
X34923815Y-46145315D01*
X34844463Y-46242006D01*
X34785498Y-46352320D01*
X34749188Y-46472018D01*
X34736928Y-46596500D01*
X34736928Y-47896500D01*
X34749188Y-48020982D01*
X34785498Y-48140680D01*
X34844463Y-48250994D01*
X34923815Y-48347685D01*
X34990000Y-48402002D01*
X34990001Y-50483967D01*
X34843388Y-50630580D01*
X34719176Y-50816476D01*
X34633617Y-51023033D01*
X34590000Y-51242312D01*
X34590000Y-51465888D01*
X34633617Y-51685167D01*
X34719176Y-51891724D01*
X34843388Y-52077620D01*
X35001480Y-52235712D01*
X35187376Y-52359924D01*
X35393933Y-52445483D01*
X35613212Y-52489100D01*
X35836788Y-52489100D01*
X36056067Y-52445483D01*
X36262624Y-52359924D01*
X36448520Y-52235712D01*
X36453128Y-52231104D01*
X36453128Y-52333800D01*
X36465388Y-52458282D01*
X36501698Y-52577980D01*
X36560663Y-52688294D01*
X36640015Y-52784985D01*
X36736706Y-52864337D01*
X36806201Y-52901483D01*
X36806200Y-53372353D01*
X35473709Y-54704845D01*
X35376512Y-54559380D01*
X35218420Y-54401288D01*
X35032524Y-54277076D01*
X34825967Y-54191517D01*
X34606688Y-54147900D01*
X34399347Y-54147900D01*
X28773918Y-48522472D01*
X28936923Y-48463736D01*
X29052880Y-48401756D01*
X29119860Y-48161665D01*
X28333900Y-47375705D01*
X28319758Y-47389848D01*
X28140153Y-47210243D01*
X28154295Y-47196100D01*
X28513505Y-47196100D01*
X29299465Y-47982060D01*
X29539556Y-47915080D01*
X29656656Y-47666052D01*
X29722923Y-47398965D01*
X29735810Y-47124083D01*
X29694822Y-46851967D01*
X29601536Y-46593077D01*
X29539556Y-46477120D01*
X29299465Y-46410140D01*
X28513505Y-47196100D01*
X28154295Y-47196100D01*
X28140153Y-47181958D01*
X28319758Y-47002353D01*
X28333900Y-47016495D01*
X29119860Y-46230535D01*
X29052880Y-45990444D01*
X28912457Y-45924413D01*
X28985627Y-45894105D01*
X29214435Y-45741220D01*
X29409020Y-45546635D01*
X29561905Y-45317827D01*
X29667214Y-45063590D01*
X29720900Y-44793692D01*
X29720900Y-44518508D01*
X29667214Y-44248610D01*
X29561905Y-43994373D01*
X29409020Y-43765565D01*
X29214435Y-43570980D01*
X28990230Y-43421170D01*
X28990837Y-43420034D01*
X29032865Y-43281485D01*
X29047056Y-43137400D01*
X29043500Y-43101295D01*
X29043500Y-39286845D01*
X29199035Y-39182920D01*
X29393620Y-38988335D01*
X29546505Y-38759527D01*
X29651814Y-38505290D01*
X29705500Y-38235392D01*
X29705500Y-38037446D01*
X32647910Y-35095037D01*
X32681906Y-35122937D01*
X32792220Y-35181902D01*
X32911918Y-35218212D01*
X33036400Y-35230472D01*
X34036400Y-35230472D01*
X34160882Y-35218212D01*
X34280580Y-35181902D01*
X34390894Y-35122937D01*
X34487585Y-35043585D01*
X34536400Y-34984104D01*
X34585215Y-35043585D01*
X34681906Y-35122937D01*
X34792220Y-35181902D01*
X34911918Y-35218212D01*
X35036400Y-35230472D01*
X35250650Y-35227400D01*
X35409400Y-35068650D01*
X35409400Y-34094400D01*
X35663400Y-34094400D01*
X35663400Y-35068650D01*
X35822150Y-35227400D01*
X36036400Y-35230472D01*
X36160882Y-35218212D01*
X36280580Y-35181902D01*
X36390894Y-35122937D01*
X36487585Y-35043585D01*
X36566937Y-34946894D01*
X36625902Y-34836580D01*
X36662212Y-34716882D01*
X36674472Y-34592400D01*
X36671400Y-34253150D01*
X36512650Y-34094400D01*
X35663400Y-34094400D01*
X35409400Y-34094400D01*
X35389400Y-34094400D01*
X35389400Y-33840400D01*
X35409400Y-33840400D01*
X35409400Y-32866150D01*
X35663400Y-32866150D01*
X35663400Y-33840400D01*
X36512650Y-33840400D01*
X36671400Y-33681650D01*
X36674472Y-33342400D01*
X36662212Y-33217918D01*
X36625902Y-33098220D01*
X36566937Y-32987906D01*
X36487585Y-32891215D01*
X36390894Y-32811863D01*
X36280580Y-32752898D01*
X36160882Y-32716588D01*
X36036400Y-32704328D01*
X35822150Y-32707400D01*
X35663400Y-32866150D01*
X35409400Y-32866150D01*
X35250650Y-32707400D01*
X35036400Y-32704328D01*
X34911918Y-32716588D01*
X34792220Y-32752898D01*
X34681906Y-32811863D01*
X34585215Y-32891215D01*
X34536400Y-32950696D01*
X34487585Y-32891215D01*
X34390894Y-32811863D01*
X34280580Y-32752898D01*
X34160882Y-32716588D01*
X34036400Y-32704328D01*
X33036400Y-32704328D01*
X32911918Y-32716588D01*
X32792220Y-32752898D01*
X32681906Y-32811863D01*
X32585215Y-32891215D01*
X32505863Y-32987906D01*
X32446898Y-33098220D01*
X32410588Y-33217918D01*
X32401225Y-33312987D01*
X32346197Y-33342400D01*
X32325780Y-33353313D01*
X32213862Y-33445162D01*
X32190846Y-33473207D01*
X29607901Y-36056152D01*
X29621256Y-36027752D01*
X29687523Y-35760665D01*
X29700410Y-35485783D01*
X29659422Y-35213667D01*
X29566136Y-34954777D01*
X29504156Y-34838820D01*
X29264065Y-34771840D01*
X28478105Y-35557800D01*
X28492248Y-35571943D01*
X28312643Y-35751548D01*
X28298500Y-35737405D01*
X28284358Y-35751548D01*
X28104753Y-35571943D01*
X28118895Y-35557800D01*
X28104753Y-35543658D01*
X28284358Y-35364053D01*
X28298500Y-35378195D01*
X29084460Y-34592235D01*
X29017480Y-34352144D01*
X28768452Y-34235044D01*
X28501365Y-34168777D01*
X28226483Y-34155890D01*
X28178534Y-34163112D01*
X31193546Y-31148100D01*
X37770628Y-31148100D01*
X37782888Y-31272582D01*
X37819198Y-31392280D01*
X37878163Y-31502594D01*
X37957515Y-31599285D01*
X38054206Y-31678637D01*
X38164520Y-31737602D01*
X38284218Y-31773912D01*
X38408700Y-31786172D01*
X39677950Y-31783100D01*
X39836700Y-31624350D01*
X39836700Y-30485100D01*
X40090700Y-30485100D01*
X40090700Y-31624350D01*
X40249450Y-31783100D01*
X41518700Y-31786172D01*
X41643182Y-31773912D01*
X41762880Y-31737602D01*
X41873194Y-31678637D01*
X41969885Y-31599285D01*
X42049237Y-31502594D01*
X42108202Y-31392280D01*
X42144512Y-31272582D01*
X42156772Y-31148100D01*
X42153700Y-30643850D01*
X41994950Y-30485100D01*
X40090700Y-30485100D01*
X39836700Y-30485100D01*
X37932450Y-30485100D01*
X37773700Y-30643850D01*
X37770628Y-31148100D01*
X31193546Y-31148100D01*
X31638693Y-30702954D01*
X31666738Y-30679938D01*
X31758587Y-30568020D01*
X31826837Y-30440333D01*
X31862734Y-30321996D01*
X31868865Y-30301786D01*
X31883056Y-30157700D01*
X31879500Y-30121595D01*
X31879500Y-29568100D01*
X37770628Y-29568100D01*
X37773700Y-30072350D01*
X37932450Y-30231100D01*
X39836700Y-30231100D01*
X39836700Y-29091850D01*
X40090700Y-29091850D01*
X40090700Y-30231100D01*
X41994950Y-30231100D01*
X42153700Y-30072350D01*
X42156772Y-29568100D01*
X42144512Y-29443618D01*
X42108202Y-29323920D01*
X42049237Y-29213606D01*
X41969885Y-29116915D01*
X41873194Y-29037563D01*
X41762880Y-28978598D01*
X41643182Y-28942288D01*
X41518700Y-28930028D01*
X40249450Y-28933100D01*
X40090700Y-29091850D01*
X39836700Y-29091850D01*
X39677950Y-28933100D01*
X38408700Y-28930028D01*
X38284218Y-28942288D01*
X38164520Y-28978598D01*
X38054206Y-29037563D01*
X37957515Y-29116915D01*
X37878163Y-29213606D01*
X37819198Y-29323920D01*
X37782888Y-29443618D01*
X37770628Y-29568100D01*
X31879500Y-29568100D01*
X31879500Y-26727246D01*
X32723203Y-25883543D01*
X32753163Y-25939594D01*
X32832515Y-26036285D01*
X32929206Y-26115637D01*
X33039520Y-26174602D01*
X33159218Y-26210912D01*
X33283700Y-26223172D01*
X34183700Y-26223172D01*
X34308182Y-26210912D01*
X34427880Y-26174602D01*
X34538194Y-26115637D01*
X34634885Y-26036285D01*
X34714237Y-25939594D01*
X34724657Y-25920100D01*
X40152595Y-25920100D01*
X40188700Y-25923656D01*
X40224805Y-25920100D01*
X40332785Y-25909465D01*
X40471333Y-25867437D01*
X40599020Y-25799187D01*
X40710938Y-25707338D01*
X40733958Y-25679288D01*
X41607555Y-24805691D01*
X41642817Y-24982967D01*
X41728376Y-25189524D01*
X41852588Y-25375420D01*
X42010680Y-25533512D01*
X42196576Y-25657724D01*
X42403133Y-25743283D01*
X42622412Y-25786900D01*
X42845988Y-25786900D01*
X43065267Y-25743283D01*
X43271824Y-25657724D01*
X43409000Y-25566066D01*
X43409001Y-28411985D01*
X43405444Y-28448100D01*
X43419635Y-28592185D01*
X43460625Y-28727308D01*
X43461664Y-28730733D01*
X43529914Y-28858420D01*
X43588681Y-28930028D01*
X43408700Y-28930028D01*
X43284218Y-28942288D01*
X43164520Y-28978598D01*
X43054206Y-29037563D01*
X42957515Y-29116915D01*
X42878163Y-29213606D01*
X42819198Y-29323920D01*
X42782888Y-29443618D01*
X42770628Y-29568100D01*
X42770628Y-31148100D01*
X42782888Y-31272582D01*
X42819198Y-31392280D01*
X42878163Y-31502594D01*
X42957515Y-31599285D01*
X43054206Y-31678637D01*
X43164520Y-31737602D01*
X43284218Y-31773912D01*
X43408700Y-31786172D01*
X44228700Y-31786172D01*
X44228701Y-35466252D01*
X41478472Y-38216482D01*
X41478472Y-38093700D01*
X41466212Y-37969218D01*
X41429902Y-37849520D01*
X41370937Y-37739206D01*
X41291585Y-37642515D01*
X41194894Y-37563163D01*
X41084580Y-37504198D01*
X40964882Y-37467888D01*
X40840400Y-37455628D01*
X39090400Y-37455628D01*
X38965918Y-37467888D01*
X38846220Y-37504198D01*
X38735906Y-37563163D01*
X38639215Y-37642515D01*
X38559863Y-37739206D01*
X38500898Y-37849520D01*
X38464588Y-37969218D01*
X38452328Y-38093700D01*
X38452328Y-41093700D01*
X38464588Y-41218182D01*
X38500898Y-41337880D01*
X38559863Y-41448194D01*
X38639215Y-41544885D01*
X38735906Y-41624237D01*
X38846220Y-41683202D01*
X38965918Y-41719512D01*
X39090400Y-41731772D01*
X40840400Y-41731772D01*
X40964882Y-41719512D01*
X41084580Y-41683202D01*
X41194894Y-41624237D01*
X41291585Y-41544885D01*
X41370937Y-41448194D01*
X41429902Y-41337880D01*
X41466212Y-41218182D01*
X41478472Y-41093700D01*
X41478472Y-40246565D01*
X41551020Y-40207787D01*
X41662938Y-40115938D01*
X41685959Y-40087887D01*
X43680146Y-38093700D01*
X47152328Y-38093700D01*
X47152328Y-41093700D01*
X47164588Y-41218182D01*
X47200898Y-41337880D01*
X47259863Y-41448194D01*
X47339215Y-41544885D01*
X47435906Y-41624237D01*
X47546220Y-41683202D01*
X47665918Y-41719512D01*
X47790400Y-41731772D01*
X49540400Y-41731772D01*
X49664882Y-41719512D01*
X49784580Y-41683202D01*
X49894894Y-41624237D01*
X49991585Y-41544885D01*
X50070937Y-41448194D01*
X50129902Y-41337880D01*
X50166212Y-41218182D01*
X50178472Y-41093700D01*
X50178472Y-38093700D01*
X50166212Y-37969218D01*
X50129902Y-37849520D01*
X50070937Y-37739206D01*
X49991585Y-37642515D01*
X49894894Y-37563163D01*
X49784580Y-37504198D01*
X49750172Y-37493760D01*
X49876012Y-37367920D01*
X50000224Y-37182024D01*
X50085783Y-36975467D01*
X50129400Y-36756188D01*
X50129400Y-36532612D01*
X50085783Y-36313333D01*
X50000224Y-36106776D01*
X49876012Y-35920880D01*
X49717920Y-35762788D01*
X49532024Y-35638576D01*
X49325467Y-35553017D01*
X49106188Y-35509400D01*
X48882612Y-35509400D01*
X48663333Y-35553017D01*
X48456776Y-35638576D01*
X48270880Y-35762788D01*
X48112788Y-35920880D01*
X47988576Y-36106776D01*
X47903017Y-36313333D01*
X47859400Y-36532612D01*
X47859400Y-36756188D01*
X47903017Y-36975467D01*
X47930400Y-37041575D01*
X47930400Y-37455628D01*
X47790400Y-37455628D01*
X47665918Y-37467888D01*
X47546220Y-37504198D01*
X47435906Y-37563163D01*
X47339215Y-37642515D01*
X47259863Y-37739206D01*
X47200898Y-37849520D01*
X47164588Y-37969218D01*
X47152328Y-38093700D01*
X43680146Y-38093700D01*
X45457893Y-36315954D01*
X45485938Y-36292938D01*
X45577787Y-36181020D01*
X45646037Y-36053333D01*
X45688065Y-35914785D01*
X45698700Y-35806805D01*
X45698700Y-35806796D01*
X45702255Y-35770701D01*
X45698700Y-35734606D01*
X45698700Y-31786172D01*
X46518700Y-31786172D01*
X46643182Y-31773912D01*
X46762880Y-31737602D01*
X46873194Y-31678637D01*
X46969885Y-31599285D01*
X47049237Y-31502594D01*
X47108202Y-31392280D01*
X47144512Y-31272582D01*
X47156772Y-31148100D01*
X47156772Y-29568100D01*
X47144512Y-29443618D01*
X47108202Y-29323920D01*
X47049237Y-29213606D01*
X46969885Y-29116915D01*
X46873194Y-29037563D01*
X46762880Y-28978598D01*
X46643182Y-28942288D01*
X46518700Y-28930028D01*
X45616565Y-28930028D01*
X45577787Y-28857480D01*
X45485938Y-28745562D01*
X45457893Y-28722546D01*
X44879000Y-28143654D01*
X44879000Y-24956346D01*
X45160492Y-24674854D01*
X45188538Y-24651838D01*
X45280387Y-24539920D01*
X45281805Y-24537267D01*
X45348637Y-24412234D01*
X45363319Y-24363832D01*
X45370794Y-24359837D01*
X45416300Y-24322491D01*
X45461806Y-24359837D01*
G04 #@! TA.AperFunction,Conductor*
D34*
G36*
X45461806Y-24359837D02*
G01*
X45469281Y-24363832D01*
X45483963Y-24412233D01*
X45552213Y-24539920D01*
X45644062Y-24651838D01*
X45755980Y-24743687D01*
X45883667Y-24811937D01*
X46022215Y-24853965D01*
X46130195Y-24864600D01*
X46166300Y-24868156D01*
X46202405Y-24864600D01*
X47151654Y-24864600D01*
X50127100Y-27840047D01*
X50127100Y-28047388D01*
X50170717Y-28266667D01*
X50256276Y-28473224D01*
X50380488Y-28659120D01*
X50538580Y-28817212D01*
X50724476Y-28941424D01*
X50931033Y-29026983D01*
X51150312Y-29070600D01*
X51373888Y-29070600D01*
X51593167Y-29026983D01*
X51665412Y-28997058D01*
X53490681Y-30822328D01*
X51565900Y-30822328D01*
X51441418Y-30834588D01*
X51321720Y-30870898D01*
X51211406Y-30929863D01*
X51114715Y-31009215D01*
X51035363Y-31105906D01*
X50976398Y-31216220D01*
X50940088Y-31335918D01*
X50927828Y-31460400D01*
X50927828Y-33040400D01*
X50940088Y-33164882D01*
X50976398Y-33284580D01*
X51035363Y-33394894D01*
X51114715Y-33491585D01*
X51211406Y-33570937D01*
X51321720Y-33629902D01*
X51441418Y-33666212D01*
X51565900Y-33678472D01*
X52385901Y-33678472D01*
X52385900Y-43905595D01*
X52382344Y-43941700D01*
X52396535Y-44085785D01*
X52409284Y-44127813D01*
X52438563Y-44224332D01*
X52506813Y-44352019D01*
X52598662Y-44463937D01*
X52626708Y-44486954D01*
X54593273Y-46453520D01*
X54434425Y-46612368D01*
X54271910Y-46855589D01*
X54159968Y-47125842D01*
X54102900Y-47412740D01*
X54102900Y-47705260D01*
X54159968Y-47992158D01*
X54271910Y-48262411D01*
X54434425Y-48505632D01*
X54641268Y-48712475D01*
X54815660Y-48829000D01*
X54641268Y-48945525D01*
X54434425Y-49152368D01*
X54271910Y-49395589D01*
X54159968Y-49665842D01*
X54102900Y-49952740D01*
X54102900Y-50245260D01*
X54159968Y-50532158D01*
X54271910Y-50802411D01*
X54434425Y-51045632D01*
X54641268Y-51252475D01*
X54815660Y-51369000D01*
X54641268Y-51485525D01*
X54434425Y-51692368D01*
X54271910Y-51935589D01*
X54159968Y-52205842D01*
X54102900Y-52492740D01*
X54102900Y-52785260D01*
X54159968Y-53072158D01*
X54271910Y-53342411D01*
X54434425Y-53585632D01*
X54566280Y-53717487D01*
X54493720Y-53739498D01*
X54383406Y-53798463D01*
X54286715Y-53877815D01*
X54236748Y-53938701D01*
X48937259Y-48639213D01*
X48914238Y-48611162D01*
X48802320Y-48519313D01*
X48674633Y-48451063D01*
X48536085Y-48409035D01*
X48428105Y-48398400D01*
X48392000Y-48394844D01*
X48355895Y-48398400D01*
X47767521Y-48398400D01*
X47785875Y-48354089D01*
X47839100Y-48086511D01*
X47839100Y-47813689D01*
X47785875Y-47546111D01*
X47681471Y-47294057D01*
X47529899Y-47067214D01*
X47336986Y-46874301D01*
X47110143Y-46722729D01*
X46858089Y-46618325D01*
X46590511Y-46565100D01*
X46317689Y-46565100D01*
X46050111Y-46618325D01*
X45798057Y-46722729D01*
X45571214Y-46874301D01*
X45378301Y-47067214D01*
X45226729Y-47294057D01*
X45122325Y-47546111D01*
X45069100Y-47813689D01*
X45069100Y-48086511D01*
X45122325Y-48354089D01*
X45140679Y-48398400D01*
X38384647Y-48398400D01*
X38375515Y-48389268D01*
X38426185Y-48347685D01*
X38505537Y-48250994D01*
X38564502Y-48140680D01*
X38600812Y-48020982D01*
X38613072Y-47896500D01*
X38613072Y-46596500D01*
X38600812Y-46472018D01*
X38564502Y-46352320D01*
X38505537Y-46242006D01*
X38426185Y-46145315D01*
X38360000Y-46090999D01*
X38360000Y-41885194D01*
X38363555Y-41849099D01*
X38360000Y-41813004D01*
X38360000Y-41812995D01*
X38349365Y-41705015D01*
X38307337Y-41566467D01*
X38239087Y-41438780D01*
X38147238Y-41326862D01*
X38119193Y-41303846D01*
X36619509Y-39804163D01*
X36667400Y-39563398D01*
X36667400Y-39273202D01*
X36610786Y-38988583D01*
X36607709Y-38981154D01*
X36820357Y-38950145D01*
X37093828Y-38853054D01*
X37228362Y-38781144D01*
X37304570Y-38533275D01*
X36464200Y-37692905D01*
X36450058Y-37707048D01*
X36270453Y-37527443D01*
X36284595Y-37513300D01*
X36643805Y-37513300D01*
X37484175Y-38353670D01*
X37732044Y-38277462D01*
X37856763Y-38015435D01*
X37927968Y-37734111D01*
X37942919Y-37444301D01*
X37901045Y-37157143D01*
X37803954Y-36883672D01*
X37732044Y-36749138D01*
X37484175Y-36672930D01*
X36643805Y-37513300D01*
X36284595Y-37513300D01*
X35444225Y-36672930D01*
X35196356Y-36749138D01*
X35191801Y-36758708D01*
X35068509Y-36574190D01*
X34987644Y-36493325D01*
X35623830Y-36493325D01*
X36464200Y-37333695D01*
X37304570Y-36493325D01*
X37228362Y-36245456D01*
X36966335Y-36120737D01*
X36685011Y-36049532D01*
X36395201Y-36034581D01*
X36108043Y-36076455D01*
X35834572Y-36173546D01*
X35700038Y-36245456D01*
X35623830Y-36493325D01*
X34987644Y-36493325D01*
X34863310Y-36368991D01*
X34622022Y-36207767D01*
X34353917Y-36096714D01*
X34069298Y-36040100D01*
X33779102Y-36040100D01*
X33494483Y-36096714D01*
X33226378Y-36207767D01*
X32985090Y-36368991D01*
X32779891Y-36574190D01*
X32618667Y-36815478D01*
X32507614Y-37083583D01*
X32451000Y-37368202D01*
X32451000Y-37658398D01*
X32507614Y-37943017D01*
X32618667Y-38211122D01*
X32779891Y-38452410D01*
X32985090Y-38657609D01*
X33189201Y-38793992D01*
X33189200Y-40182795D01*
X33185644Y-40218900D01*
X33199286Y-40357410D01*
X33199835Y-40362984D01*
X33241863Y-40501532D01*
X33310113Y-40629219D01*
X33401962Y-40741137D01*
X33430008Y-40764154D01*
X35956301Y-43290448D01*
X35956300Y-45958428D01*
X35375000Y-45958428D01*
X35250518Y-45970688D01*
X35130820Y-46006998D01*
X35020506Y-46065963D01*
X34923815Y-46145315D01*
X34844463Y-46242006D01*
X34785498Y-46352320D01*
X34749188Y-46472018D01*
X34736928Y-46596500D01*
X34736928Y-47896500D01*
X34749188Y-48020982D01*
X34785498Y-48140680D01*
X34844463Y-48250994D01*
X34923815Y-48347685D01*
X34990000Y-48402002D01*
X34990001Y-50483967D01*
X34843388Y-50630580D01*
X34719176Y-50816476D01*
X34633617Y-51023033D01*
X34590000Y-51242312D01*
X34590000Y-51465888D01*
X34633617Y-51685167D01*
X34719176Y-51891724D01*
X34843388Y-52077620D01*
X35001480Y-52235712D01*
X35187376Y-52359924D01*
X35393933Y-52445483D01*
X35613212Y-52489100D01*
X35836788Y-52489100D01*
X36056067Y-52445483D01*
X36262624Y-52359924D01*
X36448520Y-52235712D01*
X36453128Y-52231104D01*
X36453128Y-52333800D01*
X36465388Y-52458282D01*
X36501698Y-52577980D01*
X36560663Y-52688294D01*
X36640015Y-52784985D01*
X36736706Y-52864337D01*
X36806201Y-52901483D01*
X36806200Y-53372353D01*
X35473709Y-54704845D01*
X35376512Y-54559380D01*
X35218420Y-54401288D01*
X35032524Y-54277076D01*
X34825967Y-54191517D01*
X34606688Y-54147900D01*
X34399347Y-54147900D01*
X28773918Y-48522472D01*
X28936923Y-48463736D01*
X29052880Y-48401756D01*
X29119860Y-48161665D01*
X28333900Y-47375705D01*
X28319758Y-47389848D01*
X28140153Y-47210243D01*
X28154295Y-47196100D01*
X28513505Y-47196100D01*
X29299465Y-47982060D01*
X29539556Y-47915080D01*
X29656656Y-47666052D01*
X29722923Y-47398965D01*
X29735810Y-47124083D01*
X29694822Y-46851967D01*
X29601536Y-46593077D01*
X29539556Y-46477120D01*
X29299465Y-46410140D01*
X28513505Y-47196100D01*
X28154295Y-47196100D01*
X28140153Y-47181958D01*
X28319758Y-47002353D01*
X28333900Y-47016495D01*
X29119860Y-46230535D01*
X29052880Y-45990444D01*
X28912457Y-45924413D01*
X28985627Y-45894105D01*
X29214435Y-45741220D01*
X29409020Y-45546635D01*
X29561905Y-45317827D01*
X29667214Y-45063590D01*
X29720900Y-44793692D01*
X29720900Y-44518508D01*
X29667214Y-44248610D01*
X29561905Y-43994373D01*
X29409020Y-43765565D01*
X29214435Y-43570980D01*
X28990230Y-43421170D01*
X28990837Y-43420034D01*
X29032865Y-43281485D01*
X29047056Y-43137400D01*
X29043500Y-43101295D01*
X29043500Y-39286845D01*
X29199035Y-39182920D01*
X29393620Y-38988335D01*
X29546505Y-38759527D01*
X29651814Y-38505290D01*
X29705500Y-38235392D01*
X29705500Y-38037446D01*
X32647910Y-35095037D01*
X32681906Y-35122937D01*
X32792220Y-35181902D01*
X32911918Y-35218212D01*
X33036400Y-35230472D01*
X34036400Y-35230472D01*
X34160882Y-35218212D01*
X34280580Y-35181902D01*
X34390894Y-35122937D01*
X34487585Y-35043585D01*
X34536400Y-34984104D01*
X34585215Y-35043585D01*
X34681906Y-35122937D01*
X34792220Y-35181902D01*
X34911918Y-35218212D01*
X35036400Y-35230472D01*
X35250650Y-35227400D01*
X35409400Y-35068650D01*
X35409400Y-34094400D01*
X35663400Y-34094400D01*
X35663400Y-35068650D01*
X35822150Y-35227400D01*
X36036400Y-35230472D01*
X36160882Y-35218212D01*
X36280580Y-35181902D01*
X36390894Y-35122937D01*
X36487585Y-35043585D01*
X36566937Y-34946894D01*
X36625902Y-34836580D01*
X36662212Y-34716882D01*
X36674472Y-34592400D01*
X36671400Y-34253150D01*
X36512650Y-34094400D01*
X35663400Y-34094400D01*
X35409400Y-34094400D01*
X35389400Y-34094400D01*
X35389400Y-33840400D01*
X35409400Y-33840400D01*
X35409400Y-32866150D01*
X35663400Y-32866150D01*
X35663400Y-33840400D01*
X36512650Y-33840400D01*
X36671400Y-33681650D01*
X36674472Y-33342400D01*
X36662212Y-33217918D01*
X36625902Y-33098220D01*
X36566937Y-32987906D01*
X36487585Y-32891215D01*
X36390894Y-32811863D01*
X36280580Y-32752898D01*
X36160882Y-32716588D01*
X36036400Y-32704328D01*
X35822150Y-32707400D01*
X35663400Y-32866150D01*
X35409400Y-32866150D01*
X35250650Y-32707400D01*
X35036400Y-32704328D01*
X34911918Y-32716588D01*
X34792220Y-32752898D01*
X34681906Y-32811863D01*
X34585215Y-32891215D01*
X34536400Y-32950696D01*
X34487585Y-32891215D01*
X34390894Y-32811863D01*
X34280580Y-32752898D01*
X34160882Y-32716588D01*
X34036400Y-32704328D01*
X33036400Y-32704328D01*
X32911918Y-32716588D01*
X32792220Y-32752898D01*
X32681906Y-32811863D01*
X32585215Y-32891215D01*
X32505863Y-32987906D01*
X32446898Y-33098220D01*
X32410588Y-33217918D01*
X32401225Y-33312987D01*
X32346197Y-33342400D01*
X32325780Y-33353313D01*
X32213862Y-33445162D01*
X32190846Y-33473207D01*
X29607901Y-36056152D01*
X29621256Y-36027752D01*
X29687523Y-35760665D01*
X29700410Y-35485783D01*
X29659422Y-35213667D01*
X29566136Y-34954777D01*
X29504156Y-34838820D01*
X29264065Y-34771840D01*
X28478105Y-35557800D01*
X28492248Y-35571943D01*
X28312643Y-35751548D01*
X28298500Y-35737405D01*
X28284358Y-35751548D01*
X28104753Y-35571943D01*
X28118895Y-35557800D01*
X28104753Y-35543658D01*
X28284358Y-35364053D01*
X28298500Y-35378195D01*
X29084460Y-34592235D01*
X29017480Y-34352144D01*
X28768452Y-34235044D01*
X28501365Y-34168777D01*
X28226483Y-34155890D01*
X28178534Y-34163112D01*
X31193546Y-31148100D01*
X37770628Y-31148100D01*
X37782888Y-31272582D01*
X37819198Y-31392280D01*
X37878163Y-31502594D01*
X37957515Y-31599285D01*
X38054206Y-31678637D01*
X38164520Y-31737602D01*
X38284218Y-31773912D01*
X38408700Y-31786172D01*
X39677950Y-31783100D01*
X39836700Y-31624350D01*
X39836700Y-30485100D01*
X40090700Y-30485100D01*
X40090700Y-31624350D01*
X40249450Y-31783100D01*
X41518700Y-31786172D01*
X41643182Y-31773912D01*
X41762880Y-31737602D01*
X41873194Y-31678637D01*
X41969885Y-31599285D01*
X42049237Y-31502594D01*
X42108202Y-31392280D01*
X42144512Y-31272582D01*
X42156772Y-31148100D01*
X42153700Y-30643850D01*
X41994950Y-30485100D01*
X40090700Y-30485100D01*
X39836700Y-30485100D01*
X37932450Y-30485100D01*
X37773700Y-30643850D01*
X37770628Y-31148100D01*
X31193546Y-31148100D01*
X31638693Y-30702954D01*
X31666738Y-30679938D01*
X31758587Y-30568020D01*
X31826837Y-30440333D01*
X31862734Y-30321996D01*
X31868865Y-30301786D01*
X31883056Y-30157700D01*
X31879500Y-30121595D01*
X31879500Y-29568100D01*
X37770628Y-29568100D01*
X37773700Y-30072350D01*
X37932450Y-30231100D01*
X39836700Y-30231100D01*
X39836700Y-29091850D01*
X40090700Y-29091850D01*
X40090700Y-30231100D01*
X41994950Y-30231100D01*
X42153700Y-30072350D01*
X42156772Y-29568100D01*
X42144512Y-29443618D01*
X42108202Y-29323920D01*
X42049237Y-29213606D01*
X41969885Y-29116915D01*
X41873194Y-29037563D01*
X41762880Y-28978598D01*
X41643182Y-28942288D01*
X41518700Y-28930028D01*
X40249450Y-28933100D01*
X40090700Y-29091850D01*
X39836700Y-29091850D01*
X39677950Y-28933100D01*
X38408700Y-28930028D01*
X38284218Y-28942288D01*
X38164520Y-28978598D01*
X38054206Y-29037563D01*
X37957515Y-29116915D01*
X37878163Y-29213606D01*
X37819198Y-29323920D01*
X37782888Y-29443618D01*
X37770628Y-29568100D01*
X31879500Y-29568100D01*
X31879500Y-26727246D01*
X32723203Y-25883543D01*
X32753163Y-25939594D01*
X32832515Y-26036285D01*
X32929206Y-26115637D01*
X33039520Y-26174602D01*
X33159218Y-26210912D01*
X33283700Y-26223172D01*
X34183700Y-26223172D01*
X34308182Y-26210912D01*
X34427880Y-26174602D01*
X34538194Y-26115637D01*
X34634885Y-26036285D01*
X34714237Y-25939594D01*
X34724657Y-25920100D01*
X40152595Y-25920100D01*
X40188700Y-25923656D01*
X40224805Y-25920100D01*
X40332785Y-25909465D01*
X40471333Y-25867437D01*
X40599020Y-25799187D01*
X40710938Y-25707338D01*
X40733958Y-25679288D01*
X41607555Y-24805691D01*
X41642817Y-24982967D01*
X41728376Y-25189524D01*
X41852588Y-25375420D01*
X42010680Y-25533512D01*
X42196576Y-25657724D01*
X42403133Y-25743283D01*
X42622412Y-25786900D01*
X42845988Y-25786900D01*
X43065267Y-25743283D01*
X43271824Y-25657724D01*
X43409000Y-25566066D01*
X43409001Y-28411985D01*
X43405444Y-28448100D01*
X43419635Y-28592185D01*
X43460625Y-28727308D01*
X43461664Y-28730733D01*
X43529914Y-28858420D01*
X43588681Y-28930028D01*
X43408700Y-28930028D01*
X43284218Y-28942288D01*
X43164520Y-28978598D01*
X43054206Y-29037563D01*
X42957515Y-29116915D01*
X42878163Y-29213606D01*
X42819198Y-29323920D01*
X42782888Y-29443618D01*
X42770628Y-29568100D01*
X42770628Y-31148100D01*
X42782888Y-31272582D01*
X42819198Y-31392280D01*
X42878163Y-31502594D01*
X42957515Y-31599285D01*
X43054206Y-31678637D01*
X43164520Y-31737602D01*
X43284218Y-31773912D01*
X43408700Y-31786172D01*
X44228700Y-31786172D01*
X44228701Y-35466252D01*
X41478472Y-38216482D01*
X41478472Y-38093700D01*
X41466212Y-37969218D01*
X41429902Y-37849520D01*
X41370937Y-37739206D01*
X41291585Y-37642515D01*
X41194894Y-37563163D01*
X41084580Y-37504198D01*
X40964882Y-37467888D01*
X40840400Y-37455628D01*
X39090400Y-37455628D01*
X38965918Y-37467888D01*
X38846220Y-37504198D01*
X38735906Y-37563163D01*
X38639215Y-37642515D01*
X38559863Y-37739206D01*
X38500898Y-37849520D01*
X38464588Y-37969218D01*
X38452328Y-38093700D01*
X38452328Y-41093700D01*
X38464588Y-41218182D01*
X38500898Y-41337880D01*
X38559863Y-41448194D01*
X38639215Y-41544885D01*
X38735906Y-41624237D01*
X38846220Y-41683202D01*
X38965918Y-41719512D01*
X39090400Y-41731772D01*
X40840400Y-41731772D01*
X40964882Y-41719512D01*
X41084580Y-41683202D01*
X41194894Y-41624237D01*
X41291585Y-41544885D01*
X41370937Y-41448194D01*
X41429902Y-41337880D01*
X41466212Y-41218182D01*
X41478472Y-41093700D01*
X41478472Y-40246565D01*
X41551020Y-40207787D01*
X41662938Y-40115938D01*
X41685959Y-40087887D01*
X43680146Y-38093700D01*
X47152328Y-38093700D01*
X47152328Y-41093700D01*
X47164588Y-41218182D01*
X47200898Y-41337880D01*
X47259863Y-41448194D01*
X47339215Y-41544885D01*
X47435906Y-41624237D01*
X47546220Y-41683202D01*
X47665918Y-41719512D01*
X47790400Y-41731772D01*
X49540400Y-41731772D01*
X49664882Y-41719512D01*
X49784580Y-41683202D01*
X49894894Y-41624237D01*
X49991585Y-41544885D01*
X50070937Y-41448194D01*
X50129902Y-41337880D01*
X50166212Y-41218182D01*
X50178472Y-41093700D01*
X50178472Y-38093700D01*
X50166212Y-37969218D01*
X50129902Y-37849520D01*
X50070937Y-37739206D01*
X49991585Y-37642515D01*
X49894894Y-37563163D01*
X49784580Y-37504198D01*
X49750172Y-37493760D01*
X49876012Y-37367920D01*
X50000224Y-37182024D01*
X50085783Y-36975467D01*
X50129400Y-36756188D01*
X50129400Y-36532612D01*
X50085783Y-36313333D01*
X50000224Y-36106776D01*
X49876012Y-35920880D01*
X49717920Y-35762788D01*
X49532024Y-35638576D01*
X49325467Y-35553017D01*
X49106188Y-35509400D01*
X48882612Y-35509400D01*
X48663333Y-35553017D01*
X48456776Y-35638576D01*
X48270880Y-35762788D01*
X48112788Y-35920880D01*
X47988576Y-36106776D01*
X47903017Y-36313333D01*
X47859400Y-36532612D01*
X47859400Y-36756188D01*
X47903017Y-36975467D01*
X47930400Y-37041575D01*
X47930400Y-37455628D01*
X47790400Y-37455628D01*
X47665918Y-37467888D01*
X47546220Y-37504198D01*
X47435906Y-37563163D01*
X47339215Y-37642515D01*
X47259863Y-37739206D01*
X47200898Y-37849520D01*
X47164588Y-37969218D01*
X47152328Y-38093700D01*
X43680146Y-38093700D01*
X45457893Y-36315954D01*
X45485938Y-36292938D01*
X45577787Y-36181020D01*
X45646037Y-36053333D01*
X45688065Y-35914785D01*
X45698700Y-35806805D01*
X45698700Y-35806796D01*
X45702255Y-35770701D01*
X45698700Y-35734606D01*
X45698700Y-31786172D01*
X46518700Y-31786172D01*
X46643182Y-31773912D01*
X46762880Y-31737602D01*
X46873194Y-31678637D01*
X46969885Y-31599285D01*
X47049237Y-31502594D01*
X47108202Y-31392280D01*
X47144512Y-31272582D01*
X47156772Y-31148100D01*
X47156772Y-29568100D01*
X47144512Y-29443618D01*
X47108202Y-29323920D01*
X47049237Y-29213606D01*
X46969885Y-29116915D01*
X46873194Y-29037563D01*
X46762880Y-28978598D01*
X46643182Y-28942288D01*
X46518700Y-28930028D01*
X45616565Y-28930028D01*
X45577787Y-28857480D01*
X45485938Y-28745562D01*
X45457893Y-28722546D01*
X44879000Y-28143654D01*
X44879000Y-24956346D01*
X45160492Y-24674854D01*
X45188538Y-24651838D01*
X45280387Y-24539920D01*
X45281805Y-24537267D01*
X45348637Y-24412234D01*
X45363319Y-24363832D01*
X45370794Y-24359837D01*
X45416300Y-24322491D01*
X45461806Y-24359837D01*
G37*
G04 #@! TD.AperFunction*
M02*
