G04 #@! TF.GenerationSoftware,KiCad,Pcbnew,5.1.7-a382d34a8~88~ubuntu18.04.1*
G04 #@! TF.CreationDate,2021-07-23T00:29:16+05:30*
G04 #@! TF.ProjectId,Sensor_PCB_v6,53656e73-6f72-45f5-9043-425f76362e6b,rev?*
G04 #@! TF.SameCoordinates,Original*
G04 #@! TF.FileFunction,Soldermask,Top*
G04 #@! TF.FilePolarity,Negative*
%FSLAX46Y46*%
G04 Gerber Fmt 4.6, Leading zero omitted, Abs format (unit mm)*
G04 Created by KiCad (PCBNEW 5.1.7-a382d34a8~88~ubuntu18.04.1) date 2021-07-23 00:29:16*
%MOMM*%
%LPD*%
G01*
G04 APERTURE LIST*
%ADD10C,2.600000*%
%ADD11C,1.676400*%
%ADD12C,1.524000*%
%ADD13R,1.750000X3.000000*%
%ADD14R,3.110000X1.580000*%
%ADD15O,1.300000X2.100000*%
%ADD16O,1.200000X1.400000*%
%ADD17R,1.700000X1.700000*%
%ADD18O,1.700000X1.700000*%
%ADD19R,1.000000X0.800000*%
%ADD20R,0.700000X1.100000*%
%ADD21C,0.900000*%
%ADD22R,0.900000X0.800000*%
%ADD23R,1.200000X1.700000*%
%ADD24C,0.100000*%
%ADD25C,1.500000*%
%ADD26C,2.000000*%
%ADD27R,1.000000X1.250000*%
%ADD28R,0.700000X1.300000*%
G04 APERTURE END LIST*
D10*
X25234900Y-87208400D03*
X58097400Y-21376600D03*
X25044400Y-21211500D03*
D11*
X33924200Y-37513300D03*
X35194200Y-39418300D03*
X36464200Y-37513300D03*
D12*
X28323900Y-44656100D03*
X28333900Y-47196100D03*
D13*
X48665400Y-39593700D03*
X39965400Y-39593700D03*
D14*
X44963700Y-30358100D03*
X39963700Y-30358100D03*
D15*
X51677600Y-86741000D03*
G36*
G01*
X54202600Y-87741000D02*
X54202600Y-85741000D01*
G75*
G02*
X54252600Y-85691000I50000J0D01*
G01*
X56252600Y-85691000D01*
G75*
G02*
X56302600Y-85741000I0J-50000D01*
G01*
X56302600Y-87741000D01*
G75*
G02*
X56252600Y-87791000I-50000J0D01*
G01*
X54252600Y-87791000D01*
G75*
G02*
X54202600Y-87741000I0J50000D01*
G01*
G37*
X58827600Y-86741000D03*
G36*
G01*
X53702600Y-84741000D02*
X53702600Y-83391000D01*
G75*
G02*
X53752600Y-83341000I50000J0D01*
G01*
X54152600Y-83341000D01*
G75*
G02*
X54202600Y-83391000I0J-50000D01*
G01*
X54202600Y-84741000D01*
G75*
G02*
X54152600Y-84791000I-50000J0D01*
G01*
X53752600Y-84791000D01*
G75*
G02*
X53702600Y-84741000I0J50000D01*
G01*
G37*
G36*
G01*
X54352600Y-84741000D02*
X54352600Y-83391000D01*
G75*
G02*
X54402600Y-83341000I50000J0D01*
G01*
X54802600Y-83341000D01*
G75*
G02*
X54852600Y-83391000I0J-50000D01*
G01*
X54852600Y-84741000D01*
G75*
G02*
X54802600Y-84791000I-50000J0D01*
G01*
X54402600Y-84791000D01*
G75*
G02*
X54352600Y-84741000I0J50000D01*
G01*
G37*
G36*
G01*
X55002600Y-84741000D02*
X55002600Y-83391000D01*
G75*
G02*
X55052600Y-83341000I50000J0D01*
G01*
X55452600Y-83341000D01*
G75*
G02*
X55502600Y-83391000I0J-50000D01*
G01*
X55502600Y-84741000D01*
G75*
G02*
X55452600Y-84791000I-50000J0D01*
G01*
X55052600Y-84791000D01*
G75*
G02*
X55002600Y-84741000I0J50000D01*
G01*
G37*
G36*
G01*
X55652600Y-84741000D02*
X55652600Y-83391000D01*
G75*
G02*
X55702600Y-83341000I50000J0D01*
G01*
X56102600Y-83341000D01*
G75*
G02*
X56152600Y-83391000I0J-50000D01*
G01*
X56152600Y-84741000D01*
G75*
G02*
X56102600Y-84791000I-50000J0D01*
G01*
X55702600Y-84791000D01*
G75*
G02*
X55652600Y-84741000I0J50000D01*
G01*
G37*
G36*
G01*
X56302600Y-84741000D02*
X56302600Y-83391000D01*
G75*
G02*
X56352600Y-83341000I50000J0D01*
G01*
X56752600Y-83341000D01*
G75*
G02*
X56802600Y-83391000I0J-50000D01*
G01*
X56802600Y-84741000D01*
G75*
G02*
X56752600Y-84791000I-50000J0D01*
G01*
X56352600Y-84791000D01*
G75*
G02*
X56302600Y-84741000I0J50000D01*
G01*
G37*
D16*
X52827600Y-83991000D03*
X57677600Y-83991000D03*
D12*
X28224800Y-26324900D03*
X28234800Y-28864900D03*
X28298500Y-35557800D03*
X28308500Y-38097800D03*
X55107500Y-60744100D03*
X55107500Y-63284100D03*
X55107500Y-65824100D03*
X55107500Y-68364100D03*
D17*
X35679400Y-86669900D03*
D18*
X38219400Y-86669900D03*
X40759400Y-86669900D03*
X43299400Y-86669900D03*
X45839400Y-86669900D03*
X48379400Y-86669900D03*
D19*
X43166300Y-20079300D03*
X43166300Y-22379300D03*
X50666300Y-20079300D03*
X50666300Y-22379300D03*
D20*
X44666300Y-23279300D03*
X46166300Y-23279300D03*
X49166300Y-23279300D03*
D21*
X45416300Y-21229300D03*
X48416300Y-21229300D03*
D22*
X37541200Y-49833800D03*
X37541200Y-51933800D03*
D17*
X56200000Y-79926200D03*
D18*
X56200000Y-77386200D03*
X56200000Y-74846200D03*
X56200000Y-72306200D03*
D23*
X25204700Y-68526400D03*
X27204700Y-68526400D03*
X29204700Y-68526400D03*
X31204700Y-68526400D03*
X33204700Y-68526400D03*
X35204700Y-68526400D03*
X37204700Y-68526400D03*
X39204700Y-68526400D03*
X39204700Y-83756400D03*
X37204700Y-83756400D03*
X35204700Y-83756400D03*
X33204700Y-83756400D03*
X31204700Y-83756400D03*
X29204700Y-83756400D03*
X27204700Y-83756400D03*
X25204700Y-83756400D03*
D17*
X29255700Y-87609700D03*
X55587900Y-55179000D03*
D18*
X55587900Y-52639000D03*
X55587900Y-50099000D03*
X55587900Y-47559000D03*
D22*
X33733700Y-23085100D03*
X33733700Y-25185100D03*
G36*
G01*
X54785700Y-22567414D02*
X54785700Y-22567414D01*
G75*
G02*
X53556277Y-22237991I-450000J779423D01*
G01*
X53556277Y-22237991D01*
G75*
G02*
X53885700Y-21008568I779423J450000D01*
G01*
X53885700Y-21008568D01*
G75*
G02*
X55115123Y-21337991I450000J-779423D01*
G01*
X55115123Y-21337991D01*
G75*
G02*
X54785700Y-22567414I-779423J-450000D01*
G01*
G37*
D24*
G36*
X58105123Y-26516823D02*
G01*
X56546277Y-27416823D01*
X55646277Y-25857977D01*
X57205123Y-24957977D01*
X58105123Y-26516823D01*
G37*
D25*
X46454100Y-52830100D03*
X46454100Y-47950100D03*
X27223700Y-55598100D03*
X27223700Y-60478100D03*
D26*
X44371100Y-78079600D03*
X44371100Y-73579600D03*
X50871100Y-78079600D03*
X50871100Y-73579600D03*
D14*
X58120900Y-32250400D03*
X53120900Y-32250400D03*
D27*
X33536400Y-33967400D03*
X35536400Y-33967400D03*
D22*
X45885100Y-82721200D03*
X45885100Y-80621200D03*
X42707600Y-80636400D03*
X42707600Y-82736400D03*
D28*
X37625000Y-47246500D03*
X35725000Y-47246500D03*
M02*
