M48
; DRILL file {KiCad 5.1.7-a382d34a8~88~ubuntu18.04.1} date Thu Dec  9 23:07:05 2021
; FORMAT={3:3/ absolute / metric / suppress leading zeros}
; #@! TF.CreationDate,2021-12-09T23:07:05+05:30
; #@! TF.GenerationSoftware,Kicad,Pcbnew,5.1.7-a382d34a8~88~ubuntu18.04.1
FMAT,2
METRIC,TZ
T1C0.500
T2C0.762
T3C0.800
T4C1.000
%
G90
G05
T1
X98478Y-115677
X106052Y-102305
X107926Y-108097
X112750Y-104434
X113772Y-99656
X115597Y-102446
X117237Y-85979
X118474Y-87557
X120325Y-92135
X120334Y-90237
X121412Y-101192
X121679Y-102238
X123383Y-90116
X124015Y-111151
X124511Y-97906
X124517Y-95837
X125016Y-94919
X125174Y-105484
X126019Y-91706
X126225Y-102004
X126430Y-94460
X126465Y-99809
X127027Y-98027
X128027Y-93868
X128433Y-102499
X129413Y-86781
X129744Y-98681
X129941Y-97498
X131087Y-100337
X133210Y-89355
X133412Y-100729
T2
X97287Y-117704
T3
X131796Y-105951
X131796Y-110831
X122997Y-88214
X127223Y-85774
T4
X110523Y-81834
X113063Y-81834
X115603Y-81834
X118143Y-81834
X120683Y-81834
X123223Y-81834
X98220Y-98380
X98220Y-100920
X98220Y-103460
X98220Y-106000
X98220Y-108540
X98220Y-111080
T0
M30
