G04 #@! TF.GenerationSoftware,KiCad,Pcbnew,5.1.7-a382d34a8~88~ubuntu18.04.1*
G04 #@! TF.CreationDate,2021-12-09T23:06:50+05:30*
G04 #@! TF.ProjectId,FrontEnd_switch_Normal_v2,46726f6e-7445-46e6-945f-737769746368,rev?*
G04 #@! TF.SameCoordinates,Original*
G04 #@! TF.FileFunction,Legend,Top*
G04 #@! TF.FilePolarity,Positive*
%FSLAX46Y46*%
G04 Gerber Fmt 4.6, Leading zero omitted, Abs format (unit mm)*
G04 Created by KiCad (PCBNEW 5.1.7-a382d34a8~88~ubuntu18.04.1) date 2021-12-09 23:06:50*
%MOMM*%
%LPD*%
G01*
G04 APERTURE LIST*
%ADD10C,0.100000*%
%ADD11C,0.150000*%
%ADD12C,0.127000*%
%ADD13C,0.200000*%
%ADD14C,0.120000*%
G04 APERTURE END LIST*
D10*
X99903066Y-108074666D02*
X100336400Y-108074666D01*
X100103066Y-108341333D01*
X100203066Y-108341333D01*
X100269733Y-108374666D01*
X100303066Y-108408000D01*
X100336400Y-108474666D01*
X100336400Y-108641333D01*
X100303066Y-108708000D01*
X100269733Y-108741333D01*
X100203066Y-108774666D01*
X100003066Y-108774666D01*
X99936400Y-108741333D01*
X99903066Y-108708000D01*
X100569733Y-108308000D02*
X100736400Y-108774666D01*
X100903066Y-108308000D01*
X101103066Y-108074666D02*
X101536400Y-108074666D01*
X101303066Y-108341333D01*
X101403066Y-108341333D01*
X101469733Y-108374666D01*
X101503066Y-108408000D01*
X101536400Y-108474666D01*
X101536400Y-108641333D01*
X101503066Y-108708000D01*
X101469733Y-108741333D01*
X101403066Y-108774666D01*
X101203066Y-108774666D01*
X101136400Y-108741333D01*
X101103066Y-108708000D01*
X100101113Y-98853426D02*
X100101113Y-98153426D01*
X100267780Y-98153426D01*
X100367780Y-98186760D01*
X100434446Y-98253426D01*
X100467780Y-98320093D01*
X100501113Y-98453426D01*
X100501113Y-98553426D01*
X100467780Y-98686760D01*
X100434446Y-98753426D01*
X100367780Y-98820093D01*
X100267780Y-98853426D01*
X100101113Y-98853426D01*
X100767780Y-98820093D02*
X100867780Y-98853426D01*
X101034446Y-98853426D01*
X101101113Y-98820093D01*
X101134446Y-98786760D01*
X101167780Y-98720093D01*
X101167780Y-98653426D01*
X101134446Y-98586760D01*
X101101113Y-98553426D01*
X101034446Y-98520093D01*
X100901113Y-98486760D01*
X100834446Y-98453426D01*
X100801113Y-98420093D01*
X100767780Y-98353426D01*
X100767780Y-98286760D01*
X100801113Y-98220093D01*
X100834446Y-98186760D01*
X100901113Y-98153426D01*
X101067780Y-98153426D01*
X101167780Y-98186760D01*
X101401113Y-98153426D02*
X101567780Y-98853426D01*
X101701113Y-98353426D01*
X101834446Y-98853426D01*
X102001113Y-98153426D01*
X102101113Y-98920093D02*
X102634446Y-98920093D01*
X103167780Y-98853426D02*
X102767780Y-98853426D01*
X102967780Y-98853426D02*
X102967780Y-98153426D01*
X102901113Y-98253426D01*
X102834446Y-98320093D01*
X102767780Y-98353426D01*
X100319906Y-111082340D02*
X100253240Y-111049006D01*
X100153240Y-111049006D01*
X100053240Y-111082340D01*
X99986573Y-111149006D01*
X99953240Y-111215673D01*
X99919906Y-111349006D01*
X99919906Y-111449006D01*
X99953240Y-111582340D01*
X99986573Y-111649006D01*
X100053240Y-111715673D01*
X100153240Y-111749006D01*
X100219906Y-111749006D01*
X100319906Y-111715673D01*
X100353240Y-111682340D01*
X100353240Y-111449006D01*
X100219906Y-111449006D01*
X100653240Y-111749006D02*
X100653240Y-111049006D01*
X101053240Y-111749006D01*
X101053240Y-111049006D01*
X101386573Y-111749006D02*
X101386573Y-111049006D01*
X101553240Y-111049006D01*
X101653240Y-111082340D01*
X101719906Y-111149006D01*
X101753240Y-111215673D01*
X101786573Y-111349006D01*
X101786573Y-111449006D01*
X101753240Y-111582340D01*
X101719906Y-111649006D01*
X101653240Y-111715673D01*
X101553240Y-111749006D01*
X101386573Y-111749006D01*
X100283713Y-105864866D02*
X100417046Y-105864866D01*
X100483713Y-105898200D01*
X100550380Y-105964866D01*
X100583713Y-106098200D01*
X100583713Y-106331533D01*
X100550380Y-106464866D01*
X100483713Y-106531533D01*
X100417046Y-106564866D01*
X100283713Y-106564866D01*
X100217046Y-106531533D01*
X100150380Y-106464866D01*
X100117046Y-106331533D01*
X100117046Y-106098200D01*
X100150380Y-105964866D01*
X100217046Y-105898200D01*
X100283713Y-105864866D01*
X100883713Y-106098200D02*
X100883713Y-106798200D01*
X100883713Y-106131533D02*
X100950380Y-106098200D01*
X101083713Y-106098200D01*
X101150380Y-106131533D01*
X101183713Y-106164866D01*
X101217046Y-106231533D01*
X101217046Y-106431533D01*
X101183713Y-106498200D01*
X101150380Y-106531533D01*
X101083713Y-106564866D01*
X100950380Y-106564866D01*
X100883713Y-106531533D01*
X101417046Y-106098200D02*
X101683713Y-106098200D01*
X101517046Y-105864866D02*
X101517046Y-106464866D01*
X101550380Y-106531533D01*
X101617046Y-106564866D01*
X101683713Y-106564866D01*
X102017046Y-106564866D02*
X101950380Y-106531533D01*
X101917046Y-106498200D01*
X101883713Y-106431533D01*
X101883713Y-106231533D01*
X101917046Y-106164866D01*
X101950380Y-106131533D01*
X102017046Y-106098200D01*
X102117046Y-106098200D01*
X102183713Y-106131533D01*
X102217046Y-106164866D01*
X102250380Y-106231533D01*
X102250380Y-106431533D01*
X102217046Y-106498200D01*
X102183713Y-106531533D01*
X102117046Y-106564866D01*
X102017046Y-106564866D01*
X102550380Y-106298200D02*
X103083713Y-106298200D01*
X103417046Y-106564866D02*
X103417046Y-105864866D01*
X103750380Y-106098200D02*
X103750380Y-106564866D01*
X103750380Y-106164866D02*
X103783713Y-106131533D01*
X103850380Y-106098200D01*
X103950380Y-106098200D01*
X104017046Y-106131533D01*
X104050380Y-106198200D01*
X104050380Y-106564866D01*
X100132393Y-103693760D02*
X100365726Y-103693760D01*
X100465726Y-104060426D02*
X100132393Y-104060426D01*
X100132393Y-103360426D01*
X100465726Y-103360426D01*
X100765726Y-103593760D02*
X100765726Y-104060426D01*
X100765726Y-103660426D02*
X100799060Y-103627093D01*
X100865726Y-103593760D01*
X100965726Y-103593760D01*
X101032393Y-103627093D01*
X101065726Y-103693760D01*
X101065726Y-104060426D01*
X101665726Y-104027093D02*
X101599060Y-104060426D01*
X101465726Y-104060426D01*
X101399060Y-104027093D01*
X101365726Y-103960426D01*
X101365726Y-103693760D01*
X101399060Y-103627093D01*
X101465726Y-103593760D01*
X101599060Y-103593760D01*
X101665726Y-103627093D01*
X101699060Y-103693760D01*
X101699060Y-103760426D01*
X101365726Y-103827093D01*
X101999060Y-104060426D02*
X101999060Y-103593760D01*
X101999060Y-103727093D02*
X102032393Y-103660426D01*
X102065726Y-103627093D01*
X102132393Y-103593760D01*
X102199060Y-103593760D01*
X102732393Y-103593760D02*
X102732393Y-104160426D01*
X102699060Y-104227093D01*
X102665726Y-104260426D01*
X102599060Y-104293760D01*
X102499060Y-104293760D01*
X102432393Y-104260426D01*
X102732393Y-104027093D02*
X102665726Y-104060426D01*
X102532393Y-104060426D01*
X102465726Y-104027093D01*
X102432393Y-103993760D01*
X102399060Y-103927093D01*
X102399060Y-103727093D01*
X102432393Y-103660426D01*
X102465726Y-103627093D01*
X102532393Y-103593760D01*
X102665726Y-103593760D01*
X102732393Y-103627093D01*
X102999060Y-103593760D02*
X103165726Y-104060426D01*
X103332393Y-103593760D02*
X103165726Y-104060426D01*
X103099060Y-104227093D01*
X103065726Y-104260426D01*
X102999060Y-104293760D01*
X100101113Y-101403586D02*
X100101113Y-100703586D01*
X100267780Y-100703586D01*
X100367780Y-100736920D01*
X100434446Y-100803586D01*
X100467780Y-100870253D01*
X100501113Y-101003586D01*
X100501113Y-101103586D01*
X100467780Y-101236920D01*
X100434446Y-101303586D01*
X100367780Y-101370253D01*
X100267780Y-101403586D01*
X100101113Y-101403586D01*
X100767780Y-101370253D02*
X100867780Y-101403586D01*
X101034446Y-101403586D01*
X101101113Y-101370253D01*
X101134446Y-101336920D01*
X101167780Y-101270253D01*
X101167780Y-101203586D01*
X101134446Y-101136920D01*
X101101113Y-101103586D01*
X101034446Y-101070253D01*
X100901113Y-101036920D01*
X100834446Y-101003586D01*
X100801113Y-100970253D01*
X100767780Y-100903586D01*
X100767780Y-100836920D01*
X100801113Y-100770253D01*
X100834446Y-100736920D01*
X100901113Y-100703586D01*
X101067780Y-100703586D01*
X101167780Y-100736920D01*
X101401113Y-100703586D02*
X101567780Y-101403586D01*
X101701113Y-100903586D01*
X101834446Y-101403586D01*
X102001113Y-100703586D01*
X102101113Y-101470253D02*
X102634446Y-101470253D01*
X102767780Y-100770253D02*
X102801113Y-100736920D01*
X102867780Y-100703586D01*
X103034446Y-100703586D01*
X103101113Y-100736920D01*
X103134446Y-100770253D01*
X103167780Y-100836920D01*
X103167780Y-100903586D01*
X103134446Y-101003586D01*
X102734446Y-101403586D01*
X103167780Y-101403586D01*
D11*
X109918239Y-84311193D02*
X110394429Y-83977860D01*
X109918239Y-83739764D02*
X110918239Y-83739764D01*
X110918239Y-84120717D01*
X110870620Y-84215955D01*
X110823000Y-84263574D01*
X110727762Y-84311193D01*
X110584905Y-84311193D01*
X110489667Y-84263574D01*
X110442048Y-84215955D01*
X110394429Y-84120717D01*
X110394429Y-83739764D01*
X110918239Y-84644526D02*
X109918239Y-85311193D01*
X110918239Y-85311193D02*
X109918239Y-84644526D01*
X113641119Y-83832795D02*
X113641119Y-84404223D01*
X112641119Y-84118509D02*
X113641119Y-84118509D01*
X113641119Y-84642319D02*
X112641119Y-85308985D01*
X113641119Y-85308985D02*
X112641119Y-84642319D01*
X116112539Y-83719824D02*
X116112539Y-84338872D01*
X115731586Y-84005539D01*
X115731586Y-84148396D01*
X115683967Y-84243634D01*
X115636348Y-84291253D01*
X115541110Y-84338872D01*
X115303015Y-84338872D01*
X115207777Y-84291253D01*
X115160158Y-84243634D01*
X115112539Y-84148396D01*
X115112539Y-83862681D01*
X115160158Y-83767443D01*
X115207777Y-83719824D01*
X116112539Y-84624586D02*
X115112539Y-84957920D01*
X116112539Y-85291253D01*
X116112539Y-85529348D02*
X116112539Y-86148396D01*
X115731586Y-85815062D01*
X115731586Y-85957920D01*
X115683967Y-86053158D01*
X115636348Y-86100777D01*
X115541110Y-86148396D01*
X115303015Y-86148396D01*
X115207777Y-86100777D01*
X115160158Y-86053158D01*
X115112539Y-85957920D01*
X115112539Y-85672205D01*
X115160158Y-85576967D01*
X115207777Y-85529348D01*
X120263018Y-83689155D02*
X120215399Y-83832012D01*
X120215399Y-84070107D01*
X120263018Y-84165345D01*
X120310637Y-84212964D01*
X120405875Y-84260583D01*
X120501113Y-84260583D01*
X120596351Y-84212964D01*
X120643970Y-84165345D01*
X120691589Y-84070107D01*
X120739208Y-83879631D01*
X120786827Y-83784393D01*
X120834446Y-83736774D01*
X120929684Y-83689155D01*
X121024922Y-83689155D01*
X121120160Y-83736774D01*
X121167780Y-83784393D01*
X121215399Y-83879631D01*
X121215399Y-84117726D01*
X121167780Y-84260583D01*
X121215399Y-84593917D02*
X120215399Y-84832012D01*
X120929684Y-85022488D01*
X120215399Y-85212964D01*
X121215399Y-85451060D01*
X120310637Y-86403440D02*
X120263018Y-86355821D01*
X120215399Y-86212964D01*
X120215399Y-86117726D01*
X120263018Y-85974869D01*
X120358256Y-85879631D01*
X120453494Y-85832012D01*
X120643970Y-85784393D01*
X120786827Y-85784393D01*
X120977303Y-85832012D01*
X121072541Y-85879631D01*
X121167780Y-85974869D01*
X121215399Y-86117726D01*
X121215399Y-86212964D01*
X121167780Y-86355821D01*
X121120160Y-86403440D01*
X120215399Y-87308202D02*
X120215399Y-86832012D01*
X121215399Y-86832012D01*
X120215399Y-87641536D02*
X121215399Y-87641536D01*
X120215399Y-88212964D02*
X120786827Y-87784393D01*
X121215399Y-88212964D02*
X120643970Y-87641536D01*
X117720478Y-83778292D02*
X117672859Y-83921149D01*
X117672859Y-84159244D01*
X117720478Y-84254482D01*
X117768097Y-84302101D01*
X117863335Y-84349720D01*
X117958573Y-84349720D01*
X118053811Y-84302101D01*
X118101430Y-84254482D01*
X118149049Y-84159244D01*
X118196668Y-83968768D01*
X118244287Y-83873530D01*
X118291906Y-83825911D01*
X118387144Y-83778292D01*
X118482382Y-83778292D01*
X118577620Y-83825911D01*
X118625240Y-83873530D01*
X118672859Y-83968768D01*
X118672859Y-84206863D01*
X118625240Y-84349720D01*
X118672859Y-84683054D02*
X117672859Y-84921149D01*
X118387144Y-85111625D01*
X117672859Y-85302101D01*
X118672859Y-85540197D01*
X117672859Y-85921149D02*
X118672859Y-85921149D01*
X118672859Y-86587816D02*
X118672859Y-86778292D01*
X118625240Y-86873530D01*
X118530001Y-86968768D01*
X118339525Y-87016387D01*
X118006192Y-87016387D01*
X117815716Y-86968768D01*
X117720478Y-86873530D01*
X117672859Y-86778292D01*
X117672859Y-86587816D01*
X117720478Y-86492578D01*
X117815716Y-86397340D01*
X118006192Y-86349720D01*
X118339525Y-86349720D01*
X118530001Y-86397340D01*
X118625240Y-86492578D01*
X118672859Y-86587816D01*
X123656980Y-84124895D02*
X123704599Y-84029657D01*
X123704599Y-83886800D01*
X123656980Y-83743942D01*
X123561741Y-83648704D01*
X123466503Y-83601085D01*
X123276027Y-83553466D01*
X123133170Y-83553466D01*
X122942694Y-83601085D01*
X122847456Y-83648704D01*
X122752218Y-83743942D01*
X122704599Y-83886800D01*
X122704599Y-83982038D01*
X122752218Y-84124895D01*
X122799837Y-84172514D01*
X123133170Y-84172514D01*
X123133170Y-83982038D01*
X122704599Y-84601085D02*
X123704599Y-84601085D01*
X122704599Y-85172514D01*
X123704599Y-85172514D01*
X122704599Y-85648704D02*
X123704599Y-85648704D01*
X123704599Y-85886800D01*
X123656980Y-86029657D01*
X123561741Y-86124895D01*
X123466503Y-86172514D01*
X123276027Y-86220133D01*
X123133170Y-86220133D01*
X122942694Y-86172514D01*
X122847456Y-86124895D01*
X122752218Y-86029657D01*
X122704599Y-85886800D01*
X122704599Y-85648704D01*
D12*
X113911000Y-90131400D02*
X115711000Y-90131400D01*
X113911000Y-93241400D02*
X115711000Y-93241400D01*
D13*
X117451000Y-92702400D02*
G75*
G03*
X117451000Y-92702400I-100000J0D01*
G01*
D14*
X132784000Y-95258100D02*
X132784000Y-98118100D01*
X134704000Y-95258100D02*
X132784000Y-95258100D01*
X134704000Y-98118100D02*
X134704000Y-95258100D01*
X96725000Y-85188900D02*
X99585000Y-85188900D01*
X96725000Y-83268900D02*
X96725000Y-85188900D01*
X99585000Y-83268900D02*
X96725000Y-83268900D01*
X101396748Y-110567000D02*
X101919252Y-110567000D01*
X101396748Y-109097000D02*
X101919252Y-109097000D01*
X101493748Y-116054000D02*
X102016252Y-116054000D01*
X101493748Y-114584000D02*
X102016252Y-114584000D01*
X128605748Y-82022600D02*
X129128252Y-82022600D01*
X128605748Y-80552600D02*
X129128252Y-80552600D01*
X107393748Y-100079500D02*
X107916252Y-100079500D01*
X107393748Y-98609500D02*
X107916252Y-98609500D01*
X126435000Y-112245252D02*
X126435000Y-111722748D01*
X124965000Y-112245252D02*
X124965000Y-111722748D01*
X124439000Y-107279748D02*
X124439000Y-107802252D01*
X125909000Y-107279748D02*
X125909000Y-107802252D01*
X128647000Y-112285252D02*
X128647000Y-111762748D01*
X127177000Y-112285252D02*
X127177000Y-111762748D01*
X127111000Y-107155748D02*
X127111000Y-107678252D01*
X128581000Y-107155748D02*
X128581000Y-107678252D01*
X101475748Y-113757000D02*
X101998252Y-113757000D01*
X101475748Y-112287000D02*
X101998252Y-112287000D01*
X132498000Y-83319948D02*
X132498000Y-83842452D01*
X133968000Y-83319948D02*
X133968000Y-83842452D01*
X98229748Y-82129300D02*
X98752252Y-82129300D01*
X98229748Y-80659300D02*
X98752252Y-80659300D01*
X124553000Y-80503700D02*
X124553000Y-81833700D01*
X123223000Y-80503700D02*
X124553000Y-80503700D01*
X121953000Y-80503700D02*
X121953000Y-83163700D01*
X121953000Y-83163700D02*
X109193000Y-83163700D01*
X121953000Y-80503700D02*
X109193000Y-80503700D01*
X109193000Y-80503700D02*
X109193000Y-83163700D01*
D11*
X130648210Y-94053700D02*
G75*
G03*
X130648210Y-94053700I-359210J0D01*
G01*
X131051000Y-99895700D02*
X131051000Y-93799700D01*
X124447000Y-100403700D02*
X130543000Y-100403700D01*
X123939000Y-93799700D02*
X123939000Y-99895700D01*
X130543000Y-93291700D02*
X124447000Y-93291700D01*
X123939000Y-99895700D02*
G75*
G03*
X124447000Y-100403700I508000J0D01*
G01*
X124447000Y-93291700D02*
G75*
G03*
X123939000Y-93799700I0J-508000D01*
G01*
X130543000Y-100403700D02*
G75*
G03*
X131051000Y-99895700I0J508000D01*
G01*
X131051000Y-93799700D02*
G75*
G03*
X130543000Y-93291700I-508000J0D01*
G01*
X96487100Y-118504000D02*
X96487100Y-116904000D01*
X98087100Y-118504000D02*
X96487100Y-118504000D01*
X98087100Y-116904000D02*
X98087100Y-118504000D01*
X96487100Y-116904000D02*
X98087100Y-116904000D01*
D14*
X125344000Y-115952000D02*
X132654000Y-115952000D01*
X127254000Y-118612000D02*
X132654000Y-118612000D01*
X109265000Y-89756800D02*
X109265000Y-87956800D01*
X106045000Y-87956800D02*
X106045000Y-90406800D01*
D11*
X120726000Y-118523000D02*
X107326000Y-118533000D01*
X120726000Y-102533000D02*
X120726000Y-118523000D01*
X107326000Y-102533000D02*
X120726000Y-102533000D01*
X107326000Y-118533000D02*
X107326000Y-102533000D01*
X110266175Y-104533000D02*
G75*
G03*
X110266175Y-104533000I-1140175J0D01*
G01*
D14*
X115655000Y-95821900D02*
X113205000Y-95821900D01*
X113855000Y-99041900D02*
X115655000Y-99041900D01*
X129271000Y-105191000D02*
X129271000Y-111591000D01*
X134321000Y-105191000D02*
X134321000Y-111591000D01*
X129271000Y-105191000D02*
G75*
G02*
X134321000Y-105191000I2525000J0D01*
G01*
X129271000Y-111591000D02*
G75*
G03*
X134321000Y-111591000I2525000J0D01*
G01*
X121076321Y-86407486D02*
X126618883Y-83207486D01*
X123601321Y-90780914D02*
X129143883Y-87580914D01*
X129143883Y-87580914D02*
G75*
G03*
X126618883Y-83207486I-1262500J2186714D01*
G01*
X123601321Y-90780914D02*
G75*
G02*
X121076321Y-86407486I-1262500J2186714D01*
G01*
X96890000Y-97050000D02*
X98220000Y-97050000D01*
X96890000Y-98380000D02*
X96890000Y-97050000D01*
X96890000Y-99650000D02*
X99550000Y-99650000D01*
X99550000Y-99650000D02*
X99550000Y-112410000D01*
X96890000Y-99650000D02*
X96890000Y-112410000D01*
X96890000Y-112410000D02*
X99550000Y-112410000D01*
D11*
X112050080Y-93596523D02*
X112050080Y-94114619D01*
X112080557Y-94175571D01*
X112111033Y-94206047D01*
X112171985Y-94236523D01*
X112293890Y-94236523D01*
X112354842Y-94206047D01*
X112385319Y-94175571D01*
X112415795Y-94114619D01*
X112415795Y-93596523D01*
X113025319Y-93596523D02*
X112720557Y-93596523D01*
X112690080Y-93901285D01*
X112720557Y-93870809D01*
X112781509Y-93840333D01*
X112933890Y-93840333D01*
X112994842Y-93870809D01*
X113025319Y-93901285D01*
X113055795Y-93962238D01*
X113055795Y-94114619D01*
X113025319Y-94175571D01*
X112994842Y-94206047D01*
X112933890Y-94236523D01*
X112781509Y-94236523D01*
X112720557Y-94206047D01*
X112690080Y-94175571D01*
X132627444Y-100593080D02*
X132627444Y-99593080D01*
X132865540Y-99593080D01*
X133008397Y-99640700D01*
X133103635Y-99735938D01*
X133151254Y-99831176D01*
X133198873Y-100021652D01*
X133198873Y-100164509D01*
X133151254Y-100354985D01*
X133103635Y-100450223D01*
X133008397Y-100545461D01*
X132865540Y-100593080D01*
X132627444Y-100593080D01*
X133579825Y-99688319D02*
X133627444Y-99640700D01*
X133722682Y-99593080D01*
X133960778Y-99593080D01*
X134056016Y-99640700D01*
X134103635Y-99688319D01*
X134151254Y-99783557D01*
X134151254Y-99878795D01*
X134103635Y-100021652D01*
X133532206Y-100593080D01*
X134151254Y-100593080D01*
X100772984Y-84721920D02*
X100772984Y-83721920D01*
X101011080Y-83721920D01*
X101153937Y-83769540D01*
X101249175Y-83864778D01*
X101296794Y-83960016D01*
X101344413Y-84150492D01*
X101344413Y-84293349D01*
X101296794Y-84483825D01*
X101249175Y-84579063D01*
X101153937Y-84674301D01*
X101011080Y-84721920D01*
X100772984Y-84721920D01*
X102296794Y-84721920D02*
X101725365Y-84721920D01*
X102011080Y-84721920D02*
X102011080Y-83721920D01*
X101915841Y-83864778D01*
X101820603Y-83960016D01*
X101725365Y-84007635D01*
X117278853Y-88224620D02*
X116945520Y-87748430D01*
X116707424Y-88224620D02*
X116707424Y-87224620D01*
X117088377Y-87224620D01*
X117183615Y-87272240D01*
X117231234Y-87319859D01*
X117278853Y-87415097D01*
X117278853Y-87557954D01*
X117231234Y-87653192D01*
X117183615Y-87700811D01*
X117088377Y-87748430D01*
X116707424Y-87748430D01*
X118183615Y-87224620D02*
X117707424Y-87224620D01*
X117659805Y-87700811D01*
X117707424Y-87653192D01*
X117802662Y-87605573D01*
X118040758Y-87605573D01*
X118135996Y-87653192D01*
X118183615Y-87700811D01*
X118231234Y-87796049D01*
X118231234Y-88034144D01*
X118183615Y-88129382D01*
X118135996Y-88177001D01*
X118040758Y-88224620D01*
X117802662Y-88224620D01*
X117707424Y-88177001D01*
X117659805Y-88129382D01*
X117137973Y-101590420D02*
X116804640Y-101114230D01*
X116566544Y-101590420D02*
X116566544Y-100590420D01*
X116947497Y-100590420D01*
X117042735Y-100638040D01*
X117090354Y-100685659D01*
X117137973Y-100780897D01*
X117137973Y-100923754D01*
X117090354Y-101018992D01*
X117042735Y-101066611D01*
X116947497Y-101114230D01*
X116566544Y-101114230D01*
X117995116Y-100923754D02*
X117995116Y-101590420D01*
X117757020Y-100542801D02*
X117518925Y-101257087D01*
X118137973Y-101257087D01*
X128718053Y-104484580D02*
X128384720Y-104008390D01*
X128146624Y-104484580D02*
X128146624Y-103484580D01*
X128527577Y-103484580D01*
X128622815Y-103532200D01*
X128670434Y-103579819D01*
X128718053Y-103675057D01*
X128718053Y-103817914D01*
X128670434Y-103913152D01*
X128622815Y-103960771D01*
X128527577Y-104008390D01*
X128146624Y-104008390D01*
X129051386Y-103484580D02*
X129670434Y-103484580D01*
X129337100Y-103865533D01*
X129479958Y-103865533D01*
X129575196Y-103913152D01*
X129622815Y-103960771D01*
X129670434Y-104056009D01*
X129670434Y-104294104D01*
X129622815Y-104389342D01*
X129575196Y-104436961D01*
X129479958Y-104484580D01*
X129194243Y-104484580D01*
X129099005Y-104436961D01*
X129051386Y-104389342D01*
X133297413Y-90300420D02*
X132964080Y-89824230D01*
X132725984Y-90300420D02*
X132725984Y-89300420D01*
X133106937Y-89300420D01*
X133202175Y-89348040D01*
X133249794Y-89395659D01*
X133297413Y-89490897D01*
X133297413Y-89633754D01*
X133249794Y-89728992D01*
X133202175Y-89776611D01*
X133106937Y-89824230D01*
X132725984Y-89824230D01*
X133678365Y-89395659D02*
X133725984Y-89348040D01*
X133821222Y-89300420D01*
X134059318Y-89300420D01*
X134154556Y-89348040D01*
X134202175Y-89395659D01*
X134249794Y-89490897D01*
X134249794Y-89586135D01*
X134202175Y-89728992D01*
X133630746Y-90300420D01*
X134249794Y-90300420D01*
X107956333Y-97687680D02*
X107623000Y-97211490D01*
X107384904Y-97687680D02*
X107384904Y-96687680D01*
X107765857Y-96687680D01*
X107861095Y-96735300D01*
X107908714Y-96782919D01*
X107956333Y-96878157D01*
X107956333Y-97021014D01*
X107908714Y-97116252D01*
X107861095Y-97163871D01*
X107765857Y-97211490D01*
X107384904Y-97211490D01*
X108908714Y-97687680D02*
X108337285Y-97687680D01*
X108623000Y-97687680D02*
X108623000Y-96687680D01*
X108527761Y-96830538D01*
X108432523Y-96925776D01*
X108337285Y-96973395D01*
X103225362Y-111751382D02*
X103177743Y-111799001D01*
X103034886Y-111846620D01*
X102939648Y-111846620D01*
X102796791Y-111799001D01*
X102701553Y-111703763D01*
X102653934Y-111608525D01*
X102606315Y-111418049D01*
X102606315Y-111275192D01*
X102653934Y-111084716D01*
X102701553Y-110989478D01*
X102796791Y-110894240D01*
X102939648Y-110846620D01*
X103034886Y-110846620D01*
X103177743Y-110894240D01*
X103225362Y-110941859D01*
X104177743Y-111846620D02*
X103606315Y-111846620D01*
X103892029Y-111846620D02*
X103892029Y-110846620D01*
X103796791Y-110989478D01*
X103701553Y-111084716D01*
X103606315Y-111132335D01*
X105130124Y-111846620D02*
X104558696Y-111846620D01*
X104844410Y-111846620D02*
X104844410Y-110846620D01*
X104749172Y-110989478D01*
X104653934Y-111084716D01*
X104558696Y-111132335D01*
X98051442Y-115820922D02*
X98003823Y-115868541D01*
X97860966Y-115916160D01*
X97765728Y-115916160D01*
X97622871Y-115868541D01*
X97527633Y-115773303D01*
X97480014Y-115678065D01*
X97432395Y-115487589D01*
X97432395Y-115344732D01*
X97480014Y-115154256D01*
X97527633Y-115059018D01*
X97622871Y-114963780D01*
X97765728Y-114916160D01*
X97860966Y-114916160D01*
X98003823Y-114963780D01*
X98051442Y-115011399D01*
X99003823Y-115916160D02*
X98432395Y-115916160D01*
X98718109Y-115916160D02*
X98718109Y-114916160D01*
X98622871Y-115059018D01*
X98527633Y-115154256D01*
X98432395Y-115201875D01*
X99622871Y-114916160D02*
X99718109Y-114916160D01*
X99813347Y-114963780D01*
X99860966Y-115011399D01*
X99908585Y-115106637D01*
X99956204Y-115297113D01*
X99956204Y-115535208D01*
X99908585Y-115725684D01*
X99860966Y-115820922D01*
X99813347Y-115868541D01*
X99718109Y-115916160D01*
X99622871Y-115916160D01*
X99527633Y-115868541D01*
X99480014Y-115820922D01*
X99432395Y-115725684D01*
X99384776Y-115535208D01*
X99384776Y-115297113D01*
X99432395Y-115106637D01*
X99480014Y-115011399D01*
X99527633Y-114963780D01*
X99622871Y-114916160D01*
X131265933Y-81703202D02*
X131218314Y-81750821D01*
X131075457Y-81798440D01*
X130980219Y-81798440D01*
X130837361Y-81750821D01*
X130742123Y-81655583D01*
X130694504Y-81560345D01*
X130646885Y-81369869D01*
X130646885Y-81227012D01*
X130694504Y-81036536D01*
X130742123Y-80941298D01*
X130837361Y-80846060D01*
X130980219Y-80798440D01*
X131075457Y-80798440D01*
X131218314Y-80846060D01*
X131265933Y-80893679D01*
X131742123Y-81798440D02*
X131932600Y-81798440D01*
X132027838Y-81750821D01*
X132075457Y-81703202D01*
X132170695Y-81560345D01*
X132218314Y-81369869D01*
X132218314Y-80988917D01*
X132170695Y-80893679D01*
X132123076Y-80846060D01*
X132027838Y-80798440D01*
X131837361Y-80798440D01*
X131742123Y-80846060D01*
X131694504Y-80893679D01*
X131646885Y-80988917D01*
X131646885Y-81227012D01*
X131694504Y-81322250D01*
X131742123Y-81369869D01*
X131837361Y-81417488D01*
X132027838Y-81417488D01*
X132123076Y-81369869D01*
X132170695Y-81322250D01*
X132218314Y-81227012D01*
X110173113Y-99742282D02*
X110125494Y-99789901D01*
X109982637Y-99837520D01*
X109887399Y-99837520D01*
X109744541Y-99789901D01*
X109649303Y-99694663D01*
X109601684Y-99599425D01*
X109554065Y-99408949D01*
X109554065Y-99266092D01*
X109601684Y-99075616D01*
X109649303Y-98980378D01*
X109744541Y-98885140D01*
X109887399Y-98837520D01*
X109982637Y-98837520D01*
X110125494Y-98885140D01*
X110173113Y-98932759D01*
X110744541Y-99266092D02*
X110649303Y-99218473D01*
X110601684Y-99170854D01*
X110554065Y-99075616D01*
X110554065Y-99027997D01*
X110601684Y-98932759D01*
X110649303Y-98885140D01*
X110744541Y-98837520D01*
X110935018Y-98837520D01*
X111030256Y-98885140D01*
X111077875Y-98932759D01*
X111125494Y-99027997D01*
X111125494Y-99075616D01*
X111077875Y-99170854D01*
X111030256Y-99218473D01*
X110935018Y-99266092D01*
X110744541Y-99266092D01*
X110649303Y-99313711D01*
X110601684Y-99361330D01*
X110554065Y-99456568D01*
X110554065Y-99647044D01*
X110601684Y-99742282D01*
X110649303Y-99789901D01*
X110744541Y-99837520D01*
X110935018Y-99837520D01*
X111030256Y-99789901D01*
X111077875Y-99742282D01*
X111125494Y-99647044D01*
X111125494Y-99456568D01*
X111077875Y-99361330D01*
X111030256Y-99313711D01*
X110935018Y-99266092D01*
X125482053Y-114753662D02*
X125434434Y-114801281D01*
X125291577Y-114848900D01*
X125196339Y-114848900D01*
X125053481Y-114801281D01*
X124958243Y-114706043D01*
X124910624Y-114610805D01*
X124863005Y-114420329D01*
X124863005Y-114277472D01*
X124910624Y-114086996D01*
X124958243Y-113991758D01*
X125053481Y-113896520D01*
X125196339Y-113848900D01*
X125291577Y-113848900D01*
X125434434Y-113896520D01*
X125482053Y-113944139D01*
X125815386Y-113848900D02*
X126482053Y-113848900D01*
X126053481Y-114848900D01*
X123399513Y-108134362D02*
X123351894Y-108181981D01*
X123209037Y-108229600D01*
X123113799Y-108229600D01*
X122970941Y-108181981D01*
X122875703Y-108086743D01*
X122828084Y-107991505D01*
X122780465Y-107801029D01*
X122780465Y-107658172D01*
X122828084Y-107467696D01*
X122875703Y-107372458D01*
X122970941Y-107277220D01*
X123113799Y-107229600D01*
X123209037Y-107229600D01*
X123351894Y-107277220D01*
X123399513Y-107324839D01*
X124256656Y-107229600D02*
X124066180Y-107229600D01*
X123970941Y-107277220D01*
X123923322Y-107324839D01*
X123828084Y-107467696D01*
X123780465Y-107658172D01*
X123780465Y-108039124D01*
X123828084Y-108134362D01*
X123875703Y-108181981D01*
X123970941Y-108229600D01*
X124161418Y-108229600D01*
X124256656Y-108181981D01*
X124304275Y-108134362D01*
X124351894Y-108039124D01*
X124351894Y-107801029D01*
X124304275Y-107705791D01*
X124256656Y-107658172D01*
X124161418Y-107610553D01*
X123970941Y-107610553D01*
X123875703Y-107658172D01*
X123828084Y-107705791D01*
X123780465Y-107801029D01*
X127750273Y-114860342D02*
X127702654Y-114907961D01*
X127559797Y-114955580D01*
X127464559Y-114955580D01*
X127321701Y-114907961D01*
X127226463Y-114812723D01*
X127178844Y-114717485D01*
X127131225Y-114527009D01*
X127131225Y-114384152D01*
X127178844Y-114193676D01*
X127226463Y-114098438D01*
X127321701Y-114003200D01*
X127464559Y-113955580D01*
X127559797Y-113955580D01*
X127702654Y-114003200D01*
X127750273Y-114050819D01*
X128655035Y-113955580D02*
X128178844Y-113955580D01*
X128131225Y-114431771D01*
X128178844Y-114384152D01*
X128274082Y-114336533D01*
X128512178Y-114336533D01*
X128607416Y-114384152D01*
X128655035Y-114431771D01*
X128702654Y-114527009D01*
X128702654Y-114765104D01*
X128655035Y-114860342D01*
X128607416Y-114907961D01*
X128512178Y-114955580D01*
X128274082Y-114955580D01*
X128178844Y-114907961D01*
X128131225Y-114860342D01*
X129357973Y-107766342D02*
X129310354Y-107813961D01*
X129167497Y-107861580D01*
X129072259Y-107861580D01*
X128929401Y-107813961D01*
X128834163Y-107718723D01*
X128786544Y-107623485D01*
X128738925Y-107433009D01*
X128738925Y-107290152D01*
X128786544Y-107099676D01*
X128834163Y-107004438D01*
X128929401Y-106909200D01*
X129072259Y-106861580D01*
X129167497Y-106861580D01*
X129310354Y-106909200D01*
X129357973Y-106956819D01*
X130215116Y-107194914D02*
X130215116Y-107861580D01*
X129977020Y-106813961D02*
X129738925Y-107528247D01*
X130357973Y-107528247D01*
X98672353Y-113765562D02*
X98624734Y-113813181D01*
X98481877Y-113860800D01*
X98386639Y-113860800D01*
X98243781Y-113813181D01*
X98148543Y-113717943D01*
X98100924Y-113622705D01*
X98053305Y-113432229D01*
X98053305Y-113289372D01*
X98100924Y-113098896D01*
X98148543Y-113003658D01*
X98243781Y-112908420D01*
X98386639Y-112860800D01*
X98481877Y-112860800D01*
X98624734Y-112908420D01*
X98672353Y-112956039D01*
X99005686Y-112860800D02*
X99624734Y-112860800D01*
X99291400Y-113241753D01*
X99434258Y-113241753D01*
X99529496Y-113289372D01*
X99577115Y-113336991D01*
X99624734Y-113432229D01*
X99624734Y-113670324D01*
X99577115Y-113765562D01*
X99529496Y-113813181D01*
X99434258Y-113860800D01*
X99148543Y-113860800D01*
X99053305Y-113813181D01*
X99005686Y-113765562D01*
X131153713Y-84796862D02*
X131106094Y-84844481D01*
X130963237Y-84892100D01*
X130867999Y-84892100D01*
X130725141Y-84844481D01*
X130629903Y-84749243D01*
X130582284Y-84654005D01*
X130534665Y-84463529D01*
X130534665Y-84320672D01*
X130582284Y-84130196D01*
X130629903Y-84034958D01*
X130725141Y-83939720D01*
X130867999Y-83892100D01*
X130963237Y-83892100D01*
X131106094Y-83939720D01*
X131153713Y-83987339D01*
X131534665Y-83987339D02*
X131582284Y-83939720D01*
X131677522Y-83892100D01*
X131915618Y-83892100D01*
X132010856Y-83939720D01*
X132058475Y-83987339D01*
X132106094Y-84082577D01*
X132106094Y-84177815D01*
X132058475Y-84320672D01*
X131487046Y-84892100D01*
X132106094Y-84892100D01*
X100849093Y-81952102D02*
X100801474Y-81999721D01*
X100658617Y-82047340D01*
X100563379Y-82047340D01*
X100420521Y-81999721D01*
X100325283Y-81904483D01*
X100277664Y-81809245D01*
X100230045Y-81618769D01*
X100230045Y-81475912D01*
X100277664Y-81285436D01*
X100325283Y-81190198D01*
X100420521Y-81094960D01*
X100563379Y-81047340D01*
X100658617Y-81047340D01*
X100801474Y-81094960D01*
X100849093Y-81142579D01*
X101801474Y-82047340D02*
X101230045Y-82047340D01*
X101515760Y-82047340D02*
X101515760Y-81047340D01*
X101420521Y-81190198D01*
X101325283Y-81285436D01*
X101230045Y-81333055D01*
X107309306Y-80455500D02*
X107309306Y-81169786D01*
X107261687Y-81312643D01*
X107166449Y-81407881D01*
X107023592Y-81455500D01*
X106928354Y-81455500D01*
X108309306Y-81455500D02*
X107737878Y-81455500D01*
X108023592Y-81455500D02*
X108023592Y-80455500D01*
X107928354Y-80598358D01*
X107833116Y-80693596D01*
X107737878Y-80741215D01*
X122161115Y-100422500D02*
X122161115Y-101232024D01*
X122208734Y-101327262D01*
X122256353Y-101374881D01*
X122351591Y-101422500D01*
X122542067Y-101422500D01*
X122637305Y-101374881D01*
X122684924Y-101327262D01*
X122732543Y-101232024D01*
X122732543Y-100422500D01*
X123161115Y-100517739D02*
X123208734Y-100470120D01*
X123303972Y-100422500D01*
X123542067Y-100422500D01*
X123637305Y-100470120D01*
X123684924Y-100517739D01*
X123732543Y-100612977D01*
X123732543Y-100708215D01*
X123684924Y-100851072D01*
X123113496Y-101422500D01*
X123732543Y-101422500D01*
X97027026Y-116485206D02*
X97027026Y-116009016D01*
X97312740Y-116580444D02*
X96312740Y-116247111D01*
X97312740Y-115913778D01*
X96788931Y-115580444D02*
X96788931Y-115247111D01*
X97312740Y-115104254D02*
X97312740Y-115580444D01*
X96312740Y-115580444D01*
X96312740Y-115104254D01*
X97312740Y-114151873D02*
X97312740Y-114723301D01*
X97312740Y-114437587D02*
X96312740Y-114437587D01*
X96455598Y-114532825D01*
X96550836Y-114628063D01*
X96598455Y-114723301D01*
X122001426Y-118639261D02*
X122144283Y-118686880D01*
X122382379Y-118686880D01*
X122477617Y-118639261D01*
X122525236Y-118591642D01*
X122572855Y-118496404D01*
X122572855Y-118401166D01*
X122525236Y-118305928D01*
X122477617Y-118258309D01*
X122382379Y-118210690D01*
X122191902Y-118163071D01*
X122096664Y-118115452D01*
X122049045Y-118067833D01*
X122001426Y-117972595D01*
X122001426Y-117877357D01*
X122049045Y-117782119D01*
X122096664Y-117734500D01*
X122191902Y-117686880D01*
X122429998Y-117686880D01*
X122572855Y-117734500D01*
X122906188Y-117686880D02*
X123144283Y-118686880D01*
X123334760Y-117972595D01*
X123525236Y-118686880D01*
X123763331Y-117686880D01*
X124668093Y-118686880D02*
X124096664Y-118686880D01*
X124382379Y-118686880D02*
X124382379Y-117686880D01*
X124287140Y-117829738D01*
X124191902Y-117924976D01*
X124096664Y-117972595D01*
X109928395Y-89589340D02*
X109928395Y-90398864D01*
X109976014Y-90494102D01*
X110023633Y-90541721D01*
X110118871Y-90589340D01*
X110309347Y-90589340D01*
X110404585Y-90541721D01*
X110452204Y-90494102D01*
X110499823Y-90398864D01*
X110499823Y-89589340D01*
X111499823Y-90589340D02*
X110928395Y-90589340D01*
X111214109Y-90589340D02*
X111214109Y-89589340D01*
X111118871Y-89732198D01*
X111023633Y-89827436D01*
X110928395Y-89875055D01*
X123868155Y-102830200D02*
X123868155Y-103639724D01*
X123915774Y-103734962D01*
X123963393Y-103782581D01*
X124058631Y-103830200D01*
X124249107Y-103830200D01*
X124344345Y-103782581D01*
X124391964Y-103734962D01*
X124439583Y-103639724D01*
X124439583Y-102830200D01*
X124820536Y-102830200D02*
X125439583Y-102830200D01*
X125106250Y-103211153D01*
X125249107Y-103211153D01*
X125344345Y-103258772D01*
X125391964Y-103306391D01*
X125439583Y-103401629D01*
X125439583Y-103639724D01*
X125391964Y-103734962D01*
X125344345Y-103782581D01*
X125249107Y-103830200D01*
X124963393Y-103830200D01*
X124868155Y-103782581D01*
X124820536Y-103734962D01*
X115834560Y-99507123D02*
X115834560Y-100025219D01*
X115865037Y-100086171D01*
X115895513Y-100116647D01*
X115956465Y-100147123D01*
X116078370Y-100147123D01*
X116139322Y-100116647D01*
X116169799Y-100086171D01*
X116200275Y-100025219D01*
X116200275Y-99507123D01*
X116779322Y-99720457D02*
X116779322Y-100147123D01*
X116626941Y-99476647D02*
X116474560Y-99933790D01*
X116870751Y-99933790D01*
X131213129Y-115078810D02*
X131213129Y-115555000D01*
X130879796Y-114555000D02*
X131213129Y-115078810D01*
X131546462Y-114555000D01*
X132403605Y-115555000D02*
X131832177Y-115555000D01*
X132117891Y-115555000D02*
X132117891Y-114555000D01*
X132022653Y-114697858D01*
X131927415Y-114793096D01*
X131832177Y-114840715D01*
X127746682Y-89310515D02*
X127984777Y-89722908D01*
X127196102Y-89023549D02*
X127746682Y-89310515D01*
X127773452Y-88690216D01*
X128068507Y-88629838D02*
X128085937Y-88564789D01*
X128144606Y-88475930D01*
X128350802Y-88356883D01*
X128457090Y-88350503D01*
X128522139Y-88367933D01*
X128610998Y-88426602D01*
X128658617Y-88509080D01*
X128688806Y-88656608D01*
X128479649Y-89437194D01*
X129015760Y-89127670D01*
X97886666Y-95038380D02*
X97886666Y-95752666D01*
X97839047Y-95895523D01*
X97743809Y-95990761D01*
X97600952Y-96038380D01*
X97505714Y-96038380D01*
X98315238Y-95133619D02*
X98362857Y-95086000D01*
X98458095Y-95038380D01*
X98696190Y-95038380D01*
X98791428Y-95086000D01*
X98839047Y-95133619D01*
X98886666Y-95228857D01*
X98886666Y-95324095D01*
X98839047Y-95466952D01*
X98267619Y-96038380D01*
X98886666Y-96038380D01*
M02*
