G04 #@! TF.GenerationSoftware,KiCad,Pcbnew,5.1.7-a382d34a8~88~ubuntu18.04.1*
G04 #@! TF.CreationDate,2022-03-02T17:55:55+05:30*
G04 #@! TF.ProjectId,WaterTank_module_v1,57617465-7254-4616-9e6b-5f6d6f64756c,rev?*
G04 #@! TF.SameCoordinates,Original*
G04 #@! TF.FileFunction,Copper,L2,Bot*
G04 #@! TF.FilePolarity,Positive*
%FSLAX46Y46*%
G04 Gerber Fmt 4.6, Leading zero omitted, Abs format (unit mm)*
G04 Created by KiCad (PCBNEW 5.1.7-a382d34a8~88~ubuntu18.04.1) date 2022-03-02 17:55:55*
%MOMM*%
%LPD*%
G01*
G04 APERTURE LIST*
G04 #@! TA.AperFunction,ComponentPad*
%ADD10R,1.700000X1.700000*%
G04 #@! TD*
G04 #@! TA.AperFunction,ComponentPad*
%ADD11O,1.700000X1.700000*%
G04 #@! TD*
G04 #@! TA.AperFunction,ComponentPad*
%ADD12C,1.676400*%
G04 #@! TD*
G04 #@! TA.AperFunction,ComponentPad*
%ADD13C,1.524000*%
G04 #@! TD*
G04 #@! TA.AperFunction,ComponentPad*
%ADD14O,1.200000X2.000000*%
G04 #@! TD*
G04 #@! TA.AperFunction,ComponentPad*
%ADD15O,1.100000X1.300000*%
G04 #@! TD*
G04 #@! TA.AperFunction,SMDPad,CuDef*
%ADD16R,1.000000X0.230000*%
G04 #@! TD*
G04 #@! TA.AperFunction,SMDPad,CuDef*
%ADD17R,0.230000X1.000000*%
G04 #@! TD*
G04 #@! TA.AperFunction,SMDPad,CuDef*
%ADD18R,1.300000X0.700000*%
G04 #@! TD*
G04 #@! TA.AperFunction,SMDPad,CuDef*
%ADD19R,1.000000X1.250000*%
G04 #@! TD*
G04 #@! TA.AperFunction,SMDPad,CuDef*
%ADD20R,1.250000X1.000000*%
G04 #@! TD*
G04 #@! TA.AperFunction,SMDPad,CuDef*
%ADD21R,0.700000X1.300000*%
G04 #@! TD*
G04 #@! TA.AperFunction,SMDPad,CuDef*
%ADD22R,1.060000X0.650000*%
G04 #@! TD*
G04 #@! TA.AperFunction,ComponentPad*
%ADD23C,1.500000*%
G04 #@! TD*
G04 #@! TA.AperFunction,ComponentPad*
%ADD24C,2.000000*%
G04 #@! TD*
G04 #@! TA.AperFunction,ComponentPad*
%ADD25C,1.308000*%
G04 #@! TD*
G04 #@! TA.AperFunction,ComponentPad*
%ADD26C,2.250000*%
G04 #@! TD*
G04 #@! TA.AperFunction,ViaPad*
%ADD27C,1.000000*%
G04 #@! TD*
G04 #@! TA.AperFunction,Conductor*
%ADD28C,0.200000*%
G04 #@! TD*
G04 #@! TA.AperFunction,Conductor*
%ADD29C,0.254000*%
G04 #@! TD*
G04 #@! TA.AperFunction,Conductor*
%ADD30C,0.100000*%
G04 #@! TD*
G04 APERTURE END LIST*
D10*
X35896040Y-87164240D03*
D11*
X38436040Y-87164240D03*
X40976040Y-87164240D03*
X43516040Y-87164240D03*
X46056040Y-87164240D03*
X48596040Y-87164240D03*
G04 #@! TA.AperFunction,SMDPad,CuDef*
G36*
G01*
X31988200Y-78525600D02*
X31988200Y-78009600D01*
G75*
G02*
X32030200Y-77967600I42000J0D01*
G01*
X33916200Y-77967600D01*
G75*
G02*
X33958200Y-78009600I0J-42000D01*
G01*
X33958200Y-78525600D01*
G75*
G02*
X33916200Y-78567600I-42000J0D01*
G01*
X32030200Y-78567600D01*
G75*
G02*
X31988200Y-78525600I0J42000D01*
G01*
G37*
G04 #@! TD.AperFunction*
G04 #@! TA.AperFunction,SMDPad,CuDef*
G36*
G01*
X31988200Y-77255600D02*
X31988200Y-76739600D01*
G75*
G02*
X32030200Y-76697600I42000J0D01*
G01*
X33916200Y-76697600D01*
G75*
G02*
X33958200Y-76739600I0J-42000D01*
G01*
X33958200Y-77255600D01*
G75*
G02*
X33916200Y-77297600I-42000J0D01*
G01*
X32030200Y-77297600D01*
G75*
G02*
X31988200Y-77255600I0J42000D01*
G01*
G37*
G04 #@! TD.AperFunction*
G04 #@! TA.AperFunction,SMDPad,CuDef*
G36*
G01*
X31988200Y-75985600D02*
X31988200Y-75469600D01*
G75*
G02*
X32030200Y-75427600I42000J0D01*
G01*
X33916200Y-75427600D01*
G75*
G02*
X33958200Y-75469600I0J-42000D01*
G01*
X33958200Y-75985600D01*
G75*
G02*
X33916200Y-76027600I-42000J0D01*
G01*
X32030200Y-76027600D01*
G75*
G02*
X31988200Y-75985600I0J42000D01*
G01*
G37*
G04 #@! TD.AperFunction*
G04 #@! TA.AperFunction,SMDPad,CuDef*
G36*
G01*
X31988200Y-74715600D02*
X31988200Y-74199600D01*
G75*
G02*
X32030200Y-74157600I42000J0D01*
G01*
X33916200Y-74157600D01*
G75*
G02*
X33958200Y-74199600I0J-42000D01*
G01*
X33958200Y-74715600D01*
G75*
G02*
X33916200Y-74757600I-42000J0D01*
G01*
X32030200Y-74757600D01*
G75*
G02*
X31988200Y-74715600I0J42000D01*
G01*
G37*
G04 #@! TD.AperFunction*
G04 #@! TA.AperFunction,SMDPad,CuDef*
G36*
G01*
X36938200Y-74715600D02*
X36938200Y-74199600D01*
G75*
G02*
X36980200Y-74157600I42000J0D01*
G01*
X38866200Y-74157600D01*
G75*
G02*
X38908200Y-74199600I0J-42000D01*
G01*
X38908200Y-74715600D01*
G75*
G02*
X38866200Y-74757600I-42000J0D01*
G01*
X36980200Y-74757600D01*
G75*
G02*
X36938200Y-74715600I0J42000D01*
G01*
G37*
G04 #@! TD.AperFunction*
G04 #@! TA.AperFunction,SMDPad,CuDef*
G36*
G01*
X36938200Y-75985600D02*
X36938200Y-75469600D01*
G75*
G02*
X36980200Y-75427600I42000J0D01*
G01*
X38866200Y-75427600D01*
G75*
G02*
X38908200Y-75469600I0J-42000D01*
G01*
X38908200Y-75985600D01*
G75*
G02*
X38866200Y-76027600I-42000J0D01*
G01*
X36980200Y-76027600D01*
G75*
G02*
X36938200Y-75985600I0J42000D01*
G01*
G37*
G04 #@! TD.AperFunction*
G04 #@! TA.AperFunction,SMDPad,CuDef*
G36*
G01*
X36938200Y-77255600D02*
X36938200Y-76739600D01*
G75*
G02*
X36980200Y-76697600I42000J0D01*
G01*
X38866200Y-76697600D01*
G75*
G02*
X38908200Y-76739600I0J-42000D01*
G01*
X38908200Y-77255600D01*
G75*
G02*
X38866200Y-77297600I-42000J0D01*
G01*
X36980200Y-77297600D01*
G75*
G02*
X36938200Y-77255600I0J42000D01*
G01*
G37*
G04 #@! TD.AperFunction*
G04 #@! TA.AperFunction,SMDPad,CuDef*
G36*
G01*
X36938200Y-78525600D02*
X36938200Y-78009600D01*
G75*
G02*
X36980200Y-77967600I42000J0D01*
G01*
X38866200Y-77967600D01*
G75*
G02*
X38908200Y-78009600I0J-42000D01*
G01*
X38908200Y-78525600D01*
G75*
G02*
X38866200Y-78567600I-42000J0D01*
G01*
X36980200Y-78567600D01*
G75*
G02*
X36938200Y-78525600I0J42000D01*
G01*
G37*
G04 #@! TD.AperFunction*
D12*
X26196000Y-63034200D03*
X28101000Y-61764200D03*
X26196000Y-60494200D03*
D13*
X55038900Y-49870000D03*
X55028900Y-47330000D03*
D14*
X51221040Y-86741000D03*
X58371040Y-86741000D03*
D15*
X52371040Y-83991000D03*
X57221040Y-83991000D03*
D13*
X55138000Y-68201200D03*
X55128000Y-65661200D03*
X55064300Y-58968300D03*
X55054300Y-56428300D03*
D16*
X48516500Y-60403700D03*
D17*
X47246500Y-66753700D03*
X46738500Y-66753700D03*
X46230500Y-66753700D03*
X45722500Y-66753700D03*
X45214500Y-66753700D03*
X44706500Y-66753700D03*
X44198500Y-66753700D03*
X43690500Y-66753700D03*
X43182500Y-66753700D03*
X42674500Y-66753700D03*
X42166500Y-66753700D03*
X41658500Y-66753700D03*
D16*
X40388500Y-65483700D03*
X40388500Y-64975700D03*
X40388500Y-63959700D03*
X40388500Y-63451700D03*
X40388500Y-62943700D03*
X40388500Y-62435700D03*
X40388500Y-61927700D03*
X40388500Y-61419700D03*
X40388500Y-60911700D03*
X40388500Y-60403700D03*
X40388500Y-59895700D03*
D17*
X42166500Y-58625700D03*
X42674500Y-58625700D03*
X43182500Y-58625700D03*
X43690500Y-58625700D03*
X44198500Y-58625700D03*
X44706500Y-58625700D03*
X45214500Y-58625700D03*
X45722500Y-58625700D03*
X46230500Y-58625700D03*
X46738500Y-58625700D03*
X47246500Y-58625700D03*
D16*
X48516500Y-59895700D03*
X48516500Y-60911700D03*
X48516500Y-61419700D03*
X48516500Y-61927700D03*
X48516500Y-62435700D03*
X48516500Y-62943700D03*
X48516500Y-63451700D03*
X48516500Y-63959700D03*
X48516500Y-64467700D03*
X48516500Y-64975700D03*
X48516500Y-65483700D03*
D17*
X41658500Y-58625700D03*
D16*
X40388500Y-64467700D03*
D18*
X26162000Y-73660000D03*
X26162000Y-71760000D03*
D10*
X30927000Y-87470000D03*
D19*
X45084200Y-69761100D03*
X43084200Y-69761100D03*
D20*
X42227500Y-48947600D03*
X42227500Y-46947600D03*
X42296100Y-50805800D03*
X42296100Y-52805800D03*
X33530500Y-47150800D03*
X33530500Y-49150800D03*
X33596000Y-60364200D03*
X33596000Y-58364200D03*
X52696000Y-66064200D03*
X52696000Y-68064200D03*
X53096000Y-75564200D03*
X53096000Y-77564200D03*
D21*
X47492900Y-70032900D03*
X49392900Y-70032900D03*
D18*
X37863800Y-48719800D03*
X37863800Y-46819800D03*
X47096000Y-81814200D03*
X47096000Y-83714200D03*
D22*
X51996000Y-73714200D03*
X51996000Y-72764200D03*
X51996000Y-71814200D03*
X54196000Y-71814200D03*
X54196000Y-73714200D03*
D23*
X47170300Y-53345700D03*
X47170300Y-48465700D03*
X36141700Y-54058800D03*
X36141700Y-58938800D03*
D24*
X43075700Y-78940700D03*
X43075700Y-74440700D03*
X49575700Y-78940700D03*
X49575700Y-74440700D03*
D20*
X52496000Y-56564200D03*
X52496000Y-58564200D03*
D19*
X31100800Y-80299600D03*
X29100800Y-80299600D03*
D21*
X36614000Y-72207100D03*
X38514000Y-72207100D03*
X30187900Y-71777900D03*
X28287900Y-71777900D03*
X38173700Y-80490100D03*
X36273700Y-80490100D03*
G04 #@! TA.AperFunction,SMDPad,CuDef*
G36*
G01*
X53771000Y-53214202D02*
X53771000Y-52314198D01*
G75*
G02*
X54020998Y-52064200I249998J0D01*
G01*
X54546002Y-52064200D01*
G75*
G02*
X54796000Y-52314198I0J-249998D01*
G01*
X54796000Y-53214202D01*
G75*
G02*
X54546002Y-53464200I-249998J0D01*
G01*
X54020998Y-53464200D01*
G75*
G02*
X53771000Y-53214202I0J249998D01*
G01*
G37*
G04 #@! TD.AperFunction*
G04 #@! TA.AperFunction,SMDPad,CuDef*
G36*
G01*
X55596000Y-53214202D02*
X55596000Y-52314198D01*
G75*
G02*
X55845998Y-52064200I249998J0D01*
G01*
X56371002Y-52064200D01*
G75*
G02*
X56621000Y-52314198I0J-249998D01*
G01*
X56621000Y-53214202D01*
G75*
G02*
X56371002Y-53464200I-249998J0D01*
G01*
X55845998Y-53464200D01*
G75*
G02*
X55596000Y-53214202I0J249998D01*
G01*
G37*
G04 #@! TD.AperFunction*
D25*
X56896040Y-78464240D03*
X56896040Y-76464240D03*
X56896040Y-74464240D03*
D26*
X56896040Y-80564240D03*
X56896040Y-72364240D03*
D27*
X48695900Y-66357600D03*
X45214500Y-64962600D03*
X44156500Y-60237500D03*
X54596030Y-75190600D03*
X51456300Y-76950900D03*
X36396040Y-82064240D03*
X50445200Y-83000200D03*
X39675900Y-54873100D03*
X44089300Y-75833300D03*
X52356600Y-63062800D03*
X46528800Y-63062800D03*
X56896040Y-85464240D03*
X57796040Y-82464244D03*
X42119500Y-68019100D03*
X41589400Y-64603200D03*
X38532200Y-64257400D03*
X39134100Y-61530400D03*
X38861900Y-65507600D03*
X49063100Y-81747100D03*
X45518100Y-68429500D03*
X40755500Y-67867900D03*
X34522600Y-57171300D03*
X32711397Y-79251797D03*
X27000800Y-70593400D03*
X29639500Y-59306000D03*
X40539200Y-58288300D03*
X34048500Y-50451700D03*
X40521000Y-84035600D03*
X34696040Y-80464240D03*
X35896040Y-77664240D03*
X43052300Y-57016400D03*
X42062800Y-62184900D03*
X24396040Y-58064240D03*
D28*
X43084200Y-69761100D02*
X43884500Y-69761100D01*
X44198500Y-66753700D02*
X44198500Y-69447100D01*
X44198500Y-69447100D02*
X43884500Y-69761100D01*
X43075700Y-74440700D02*
X43075700Y-70694900D01*
X43075700Y-70694900D02*
X43084200Y-70686400D01*
X43084200Y-69761100D02*
X43084200Y-69857400D01*
X43084200Y-70223700D02*
X43084200Y-70686400D01*
X43084200Y-70223700D02*
X43084200Y-69857400D01*
X49575700Y-74440700D02*
X47492900Y-72357900D01*
X47492900Y-72357900D02*
X47492900Y-70032900D01*
X46230500Y-66753700D02*
X46230500Y-65953400D01*
X48695900Y-66357600D02*
X48291700Y-65953400D01*
X48291700Y-65953400D02*
X46230500Y-65953400D01*
X43152800Y-48947600D02*
X46688400Y-48947600D01*
X46688400Y-48947600D02*
X47170300Y-48465700D01*
X42227500Y-48947600D02*
X43152800Y-48947600D01*
X45722500Y-66753700D02*
X45722500Y-65875000D01*
X45722500Y-65875000D02*
X46822000Y-64775500D01*
X46822000Y-64775500D02*
X46822000Y-63901500D01*
X46822000Y-63901500D02*
X47329100Y-63394400D01*
X47329100Y-63394400D02*
X47329100Y-63356000D01*
X47329100Y-63356000D02*
X47661800Y-63023300D01*
X47661800Y-63023300D02*
X47661800Y-53837200D01*
X47661800Y-53837200D02*
X47170300Y-53345700D01*
X43221400Y-52805800D02*
X43761300Y-53345700D01*
X43761300Y-53345700D02*
X47170300Y-53345700D01*
X42296100Y-52805800D02*
X43221400Y-52805800D01*
X45214500Y-64962600D02*
X45214500Y-66753700D01*
X36141700Y-54058800D02*
X33190100Y-51107200D01*
X33190100Y-51107200D02*
X33190100Y-49491200D01*
X33190100Y-49491200D02*
X33530500Y-49150800D01*
X37863800Y-48069500D02*
X33811500Y-48069500D01*
X33811500Y-48069500D02*
X33530500Y-48350500D01*
X37863800Y-48719800D02*
X37863800Y-48069500D01*
X33530500Y-49150800D02*
X33530500Y-48350500D01*
X44706500Y-66753700D02*
X44706500Y-65586400D01*
X44706500Y-65586400D02*
X44156500Y-65036400D01*
X44156500Y-65036400D02*
X44156500Y-60237500D01*
X33596000Y-59563900D02*
X33195800Y-59563900D01*
X33195800Y-59563900D02*
X32139900Y-58508000D01*
X32139900Y-58508000D02*
X32139900Y-46986400D01*
X32139900Y-46986400D02*
X32775900Y-46350400D01*
X32775900Y-46350400D02*
X36444100Y-46350400D01*
X36444100Y-46350400D02*
X36913500Y-46819800D01*
X36141700Y-58938800D02*
X35516600Y-59563900D01*
X35516600Y-59563900D02*
X33596000Y-59563900D01*
X33596000Y-60364200D02*
X33596000Y-59563900D01*
X37863800Y-46819800D02*
X36913500Y-46819800D01*
X53780900Y-73714200D02*
X53365700Y-73714200D01*
X54196000Y-73714200D02*
X53780900Y-73714200D01*
X53096000Y-75564200D02*
X53096000Y-74763900D01*
X53365700Y-73714200D02*
X53365700Y-74494200D01*
X53365700Y-74494200D02*
X53096000Y-74763900D01*
X54596030Y-74529330D02*
X54596030Y-75190600D01*
X53780900Y-73714200D02*
X54596030Y-74529330D01*
X37923200Y-74457600D02*
X37322700Y-73857100D01*
X37322700Y-73857100D02*
X31887700Y-73857100D01*
X31887700Y-73857100D02*
X30817700Y-74927100D01*
X30817700Y-74927100D02*
X30817700Y-79091200D01*
X30817700Y-79091200D02*
X31100800Y-79374300D01*
X51996000Y-73714200D02*
X51996000Y-76411200D01*
X51996000Y-76411200D02*
X51456300Y-76950900D01*
X31100800Y-79836900D02*
X31100800Y-80299600D01*
X31100800Y-79836900D02*
X31100800Y-79374300D01*
X54173200Y-66616000D02*
X55128000Y-65661200D01*
X53621300Y-66064200D02*
X54173200Y-66616000D01*
X52696000Y-66064200D02*
X53621300Y-66064200D01*
X52411200Y-71814200D02*
X52826300Y-71814200D01*
X51996000Y-71814200D02*
X52411200Y-71814200D01*
X51996000Y-73714200D02*
X52826300Y-73714200D01*
X52826300Y-71814200D02*
X52826300Y-73714200D01*
X32040440Y-82064240D02*
X36396040Y-82064240D01*
X31100800Y-81124600D02*
X32040440Y-82064240D01*
X31100800Y-80299600D02*
X31100800Y-81124600D01*
X53968400Y-70257000D02*
X53968400Y-66820800D01*
X52411200Y-71814200D02*
X53968400Y-70257000D01*
X53968400Y-66820800D02*
X54173200Y-66616000D01*
X55054300Y-56428300D02*
X54918400Y-56564200D01*
X54918400Y-56564200D02*
X52496000Y-56564200D01*
X36926559Y-79264241D02*
X34041659Y-79264241D01*
X33204101Y-80101799D02*
X32377395Y-80101799D01*
X31988200Y-74457600D02*
X32973200Y-74457600D01*
X31911395Y-79326595D02*
X31250900Y-78666100D01*
X32377395Y-80101799D02*
X31911395Y-79635799D01*
X34041659Y-79264241D02*
X33204101Y-80101799D01*
X31911395Y-79635799D02*
X31911395Y-79326595D01*
X37923200Y-78267600D02*
X36926559Y-79264241D01*
X31250900Y-78666100D02*
X31250900Y-75194900D01*
X31250900Y-75194900D02*
X31988200Y-74457600D01*
X42296400Y-88246200D02*
X42414429Y-88364229D01*
X37923200Y-78267600D02*
X39669800Y-80014200D01*
X42296400Y-84679000D02*
X42296400Y-88246200D01*
X39669800Y-82052400D02*
X42296400Y-84679000D01*
X44478971Y-88364229D02*
X44597000Y-88246200D01*
X39669800Y-80014200D02*
X39669800Y-82052400D01*
X42414429Y-88364229D02*
X44478971Y-88364229D01*
X39675900Y-58507500D02*
X39675900Y-54873100D01*
X36869700Y-61313700D02*
X39675900Y-58507500D01*
X44796040Y-88047160D02*
X44796040Y-85836840D01*
X44597000Y-88246200D02*
X44796040Y-88047160D01*
X44796040Y-85836840D02*
X40790600Y-81831400D01*
X40790600Y-81831400D02*
X40790600Y-71544000D01*
X40790600Y-71544000D02*
X36869700Y-67623100D01*
X36869700Y-67623100D02*
X36869700Y-61313700D01*
X50196040Y-83249360D02*
X50445200Y-83000200D01*
X49566571Y-88364229D02*
X50196040Y-87734760D01*
X44597000Y-88246200D02*
X44715029Y-88364229D01*
X50196040Y-87734760D02*
X50196040Y-83249360D01*
X44715029Y-88364229D02*
X49566571Y-88364229D01*
X41727500Y-69555800D02*
X41311600Y-69555800D01*
X41311600Y-69555800D02*
X37711200Y-65955400D01*
X37711200Y-65955400D02*
X37711200Y-61749400D01*
X37711200Y-61749400D02*
X39564900Y-59895700D01*
X39564900Y-59895700D02*
X40388500Y-59895700D01*
X49316800Y-69006500D02*
X49496200Y-68827100D01*
X49496200Y-68827100D02*
X49496200Y-65663100D01*
X49496200Y-65663100D02*
X49316800Y-65483700D01*
X41727500Y-69555800D02*
X43182500Y-68100800D01*
X43182500Y-68100800D02*
X43182500Y-66753700D01*
X42542600Y-75833300D02*
X41727500Y-75018200D01*
X41727500Y-75018200D02*
X41727500Y-69555800D01*
X48816600Y-65483700D02*
X48516500Y-65483700D01*
X48816600Y-65483700D02*
X49316800Y-65483700D01*
X46138400Y-80257100D02*
X46138400Y-84231100D01*
X46138400Y-84231100D02*
X48526700Y-86619400D01*
X49316800Y-69006500D02*
X47044200Y-69006500D01*
X47044200Y-69006500D02*
X46138400Y-69912300D01*
X46138400Y-69912300D02*
X46138400Y-80257100D01*
X46138400Y-80257100D02*
X42500400Y-80257100D01*
X42500400Y-80257100D02*
X41753900Y-79510600D01*
X41753900Y-79510600D02*
X41753900Y-76622000D01*
X41753900Y-76622000D02*
X42542600Y-75833300D01*
X44089300Y-75833300D02*
X42542600Y-75833300D01*
X49392900Y-69082600D02*
X49316800Y-69006500D01*
X48526700Y-87769700D02*
X48526700Y-86619400D01*
X49392900Y-70032900D02*
X49392900Y-69082600D01*
X26196000Y-52341400D02*
X26196000Y-60494200D01*
X32621300Y-45916100D02*
X26196000Y-52341400D01*
X46747900Y-45916100D02*
X32621300Y-45916100D01*
X48709800Y-48458600D02*
X48709800Y-47878000D01*
X48709800Y-47878000D02*
X46747900Y-45916100D01*
X46254880Y-52005400D02*
X48709800Y-49550480D01*
X41546800Y-52005400D02*
X46254880Y-52005400D01*
X47246500Y-57701100D02*
X44636300Y-55090900D01*
X47246500Y-58625700D02*
X47246500Y-57701100D01*
X44636300Y-55090900D02*
X43007800Y-55090900D01*
X48709800Y-49550480D02*
X48709800Y-48458600D01*
X43007800Y-55090900D02*
X41370800Y-53453900D01*
X41370800Y-53453900D02*
X41370800Y-52181400D01*
X41370800Y-52181400D02*
X41546800Y-52005400D01*
X46230500Y-58625700D02*
X46230500Y-62764500D01*
X46230500Y-62764500D02*
X46528800Y-63062800D01*
X40976040Y-87839040D02*
X41548640Y-88411640D01*
X40906700Y-87769700D02*
X41548640Y-88411640D01*
X40976040Y-87164240D02*
X40976040Y-87839040D01*
X53596040Y-88764240D02*
X56896040Y-85464240D01*
X41901240Y-88764240D02*
X53596040Y-88764240D01*
X41548640Y-88411640D02*
X41901240Y-88764240D01*
X58331812Y-81928472D02*
X57796040Y-82464244D01*
X54112600Y-63062800D02*
X58331812Y-67282012D01*
X58331812Y-67282012D02*
X58331812Y-81928472D01*
X52356600Y-63062800D02*
X54112600Y-63062800D01*
X38972160Y-87164240D02*
X38984590Y-87164240D01*
X38366700Y-87769700D02*
X38972160Y-87164240D01*
X38436040Y-87164240D02*
X38984590Y-87164240D01*
X59396040Y-83248244D02*
X59396040Y-81980236D01*
X59496040Y-83348244D02*
X59396040Y-83248244D01*
X56563200Y-51727900D02*
X55639600Y-51727900D01*
X48516500Y-58919800D02*
X48516500Y-59580700D01*
X58585560Y-89264240D02*
X59496040Y-88353760D01*
X59496040Y-81880236D02*
X59496040Y-54660740D01*
X38984590Y-87164240D02*
X41084590Y-89264240D01*
X41084590Y-89264240D02*
X58585560Y-89264240D01*
X48516500Y-59580700D02*
X48516500Y-59895700D01*
X59396040Y-81980236D02*
X59496040Y-81880236D01*
X59496040Y-54660740D02*
X56563200Y-51727900D01*
X59496040Y-88353760D02*
X59496040Y-83348244D01*
X53072700Y-54363600D02*
X48516500Y-58919800D01*
X55196000Y-52171500D02*
X55196000Y-53362300D01*
X55639600Y-51727900D02*
X55196000Y-52171500D01*
X55196000Y-53362300D02*
X54194700Y-54363600D01*
X54194700Y-54363600D02*
X53072700Y-54363600D01*
X42119500Y-68019100D02*
X42584600Y-67554000D01*
X42584600Y-67554000D02*
X42674500Y-67554000D01*
X42674500Y-66753700D02*
X42674500Y-67554000D01*
X40388500Y-64975700D02*
X41216900Y-64975700D01*
X41216900Y-64975700D02*
X41589400Y-64603200D01*
X40388500Y-63959700D02*
X38829900Y-63959700D01*
X38829900Y-63959700D02*
X38532200Y-64257400D01*
X39588200Y-63451700D02*
X39134100Y-62997600D01*
X39134100Y-62997600D02*
X39134100Y-61530400D01*
X40388500Y-63451700D02*
X39588200Y-63451700D01*
X39588200Y-64467700D02*
X39588200Y-64781300D01*
X39588200Y-64781300D02*
X38861900Y-65507600D01*
X40388500Y-64467700D02*
X39588200Y-64467700D01*
X47096000Y-83714200D02*
X47096000Y-83063900D01*
X47096000Y-83063900D02*
X47746300Y-83063900D01*
X47746300Y-83063900D02*
X49063100Y-81747100D01*
X46738500Y-67554000D02*
X46393600Y-67554000D01*
X46393600Y-67554000D02*
X45518100Y-68429500D01*
X46738500Y-66753700D02*
X46738500Y-67554000D01*
X32973200Y-78267600D02*
X32517600Y-78267600D01*
X32517600Y-78267600D02*
X31660900Y-77410900D01*
X31660900Y-77410900D02*
X31660900Y-76596500D01*
X31660900Y-76596500D02*
X32529800Y-75727600D01*
X32529800Y-75727600D02*
X32973200Y-75727600D01*
X47716200Y-64975700D02*
X47716200Y-63573400D01*
X47716200Y-63573400D02*
X47816300Y-63473300D01*
X47816300Y-63473300D02*
X47816300Y-63451700D01*
X46738500Y-57825400D02*
X44404300Y-55491200D01*
X44404300Y-55491200D02*
X42810400Y-55491200D01*
X42810400Y-55491200D02*
X40970500Y-53651300D01*
X40970500Y-53651300D02*
X40970500Y-50730900D01*
X40970500Y-50730900D02*
X41695900Y-50005500D01*
X38173700Y-80490100D02*
X38173700Y-81440400D01*
X50656000Y-78940700D02*
X51977300Y-78940700D01*
X49575700Y-78940700D02*
X50656000Y-78940700D01*
X51165700Y-72764200D02*
X51165700Y-75458000D01*
X51165700Y-75458000D02*
X50656000Y-75967700D01*
X50656000Y-75967700D02*
X50656000Y-78940700D01*
X35826700Y-86619400D02*
X38173700Y-84272400D01*
X38173700Y-84272400D02*
X38173700Y-81440400D01*
X41188800Y-61384600D02*
X41188800Y-60403700D01*
X41088700Y-61927700D02*
X41188800Y-61827600D01*
X41188800Y-61827600D02*
X41188800Y-61384600D01*
X42863100Y-65953300D02*
X42863100Y-61853300D01*
X42863100Y-61853300D02*
X42394400Y-61384600D01*
X42394400Y-61384600D02*
X41188800Y-61384600D01*
X42863100Y-65953300D02*
X43690400Y-65953300D01*
X43690400Y-65953300D02*
X43690500Y-65953400D01*
X40755500Y-67867900D02*
X40755500Y-66606600D01*
X40755500Y-66606600D02*
X41408800Y-65953300D01*
X41408800Y-65953300D02*
X42863100Y-65953300D01*
X43690500Y-66753700D02*
X43690500Y-65953400D01*
X33596000Y-57563900D02*
X33988600Y-57171300D01*
X33988600Y-57171300D02*
X34522600Y-57171300D01*
X33530500Y-47150800D02*
X32584500Y-48096800D01*
X32584500Y-48096800D02*
X32584500Y-56552400D01*
X32584500Y-56552400D02*
X33596000Y-57563900D01*
X46738500Y-58225500D02*
X46738500Y-58625700D01*
X43075700Y-78940700D02*
X45084200Y-76932200D01*
X45084200Y-76932200D02*
X45084200Y-69761100D01*
X46738500Y-58225500D02*
X46738500Y-57825400D01*
X41695900Y-50005500D02*
X41302100Y-49611700D01*
X41302100Y-49611700D02*
X41302100Y-48273200D01*
X42296100Y-50005500D02*
X41695900Y-50005500D01*
X48516500Y-63451700D02*
X47816300Y-63451700D01*
X35826700Y-86619400D02*
X34495300Y-86619400D01*
X34495300Y-86619400D02*
X29100800Y-81224900D01*
X52696000Y-68064200D02*
X52696000Y-67263900D01*
X49316700Y-63451700D02*
X51566200Y-65701200D01*
X51566200Y-65701200D02*
X51566200Y-66534300D01*
X51566200Y-66534300D02*
X52295800Y-67263900D01*
X52295800Y-67263900D02*
X52696000Y-67263900D01*
X49316700Y-63451700D02*
X49316800Y-63451700D01*
X48516500Y-63451700D02*
X49216700Y-63451700D01*
X49216700Y-63451700D02*
X49316700Y-63451700D01*
X57677600Y-83991000D02*
X52827600Y-83991000D01*
X58102800Y-83991000D02*
X57677600Y-83991000D01*
X58102800Y-83991000D02*
X58527900Y-83991000D01*
X58827600Y-86741000D02*
X58827600Y-85440700D01*
X58527900Y-83991000D02*
X58527900Y-85141000D01*
X58527900Y-85141000D02*
X58827600Y-85440700D01*
X51977300Y-83991000D02*
X51677600Y-84290700D01*
X51677600Y-84290700D02*
X51677600Y-86741000D01*
X40388500Y-60403700D02*
X41188800Y-60403700D01*
X52496000Y-58564200D02*
X52496000Y-59364500D01*
X49316800Y-63451700D02*
X49316800Y-62543700D01*
X49316800Y-62543700D02*
X52496000Y-59364500D01*
X40388500Y-61927700D02*
X41088700Y-61927700D01*
X48516500Y-64975700D02*
X47716200Y-64975700D01*
X41302100Y-48273200D02*
X41827400Y-47747900D01*
X41827400Y-47747900D02*
X42227500Y-47747900D01*
X41302100Y-48273200D02*
X40611300Y-47582400D01*
X40611300Y-47582400D02*
X34887400Y-47582400D01*
X34887400Y-47582400D02*
X34455800Y-47150800D01*
X33530500Y-47150800D02*
X34455800Y-47150800D01*
X33596000Y-58364200D02*
X33596000Y-57563900D01*
X42227500Y-46947600D02*
X42227500Y-47747900D01*
X42296100Y-50805800D02*
X42296100Y-50005500D01*
X52696000Y-68064200D02*
X52696000Y-68864500D01*
X51977300Y-78940700D02*
X52519800Y-78940700D01*
X52519800Y-78940700D02*
X53096000Y-78364500D01*
X52827600Y-83991000D02*
X51977300Y-83991000D01*
X47096000Y-81163900D02*
X47352500Y-81163900D01*
X47352500Y-81163900D02*
X49575700Y-78940700D01*
X53096000Y-77564200D02*
X53096000Y-78364500D01*
X51996000Y-72764200D02*
X51165700Y-72764200D01*
X51165700Y-72764200D02*
X51165700Y-70394800D01*
X51165700Y-70394800D02*
X52696000Y-68864500D01*
X47096000Y-81814200D02*
X47096000Y-81163900D01*
X52496000Y-58564200D02*
X54660200Y-58564200D01*
X54660200Y-58564200D02*
X55064300Y-58968300D01*
X29100800Y-80299600D02*
X29100800Y-81224900D01*
X35826700Y-87769700D02*
X35826700Y-86619400D01*
X56108500Y-52764200D02*
X56193300Y-52849000D01*
X56193300Y-52849000D02*
X56193300Y-57839300D01*
X56193300Y-57839300D02*
X55064300Y-58968300D01*
X32973200Y-78989994D02*
X32711397Y-79251797D01*
X32973200Y-78267600D02*
X32973200Y-78989994D01*
X51496040Y-83509740D02*
X51977300Y-83991000D01*
X51977300Y-78940700D02*
X51496040Y-79421960D01*
X51496040Y-79421960D02*
X51496040Y-83509740D01*
X54021300Y-77564200D02*
X53096000Y-77564200D01*
X55396040Y-68459240D02*
X55396040Y-76189460D01*
X55396040Y-76189460D02*
X54021300Y-77564200D01*
X55138000Y-68201200D02*
X55396040Y-68459240D01*
X26162000Y-73660000D02*
X26162000Y-73009700D01*
X27000800Y-70593400D02*
X27112400Y-70705000D01*
X27112400Y-70705000D02*
X27112400Y-72303200D01*
X27112400Y-72303200D02*
X26405900Y-73009700D01*
X26405900Y-73009700D02*
X26162000Y-73009700D01*
X43182500Y-57825400D02*
X41002100Y-57825400D01*
X41002100Y-57825400D02*
X40539200Y-58288300D01*
X43182500Y-58625700D02*
X43182500Y-57825400D01*
X29639500Y-59306000D02*
X29639500Y-65522500D01*
X29639500Y-65522500D02*
X26162000Y-69000000D01*
X26162000Y-69000000D02*
X26162000Y-71760000D01*
X44706500Y-58625700D02*
X44706500Y-57503200D01*
X44706500Y-57503200D02*
X43094800Y-55891500D01*
X43094800Y-55891500D02*
X42493700Y-55891500D01*
X42493700Y-55891500D02*
X40664800Y-54062600D01*
X40664800Y-54062600D02*
X39336000Y-54062600D01*
X39336000Y-54062600D02*
X38058400Y-55340200D01*
X38058400Y-55340200D02*
X38058400Y-59313600D01*
X38058400Y-59313600D02*
X36461700Y-60910300D01*
X36461700Y-60910300D02*
X36461700Y-68420200D01*
X36461700Y-68420200D02*
X40070100Y-72028600D01*
X40070100Y-72028600D02*
X40070100Y-81886500D01*
X40070100Y-81886500D02*
X43446700Y-85263100D01*
X43446700Y-85263100D02*
X43446700Y-87769700D01*
X44198500Y-59426000D02*
X44198500Y-58625700D01*
X45986700Y-86057950D02*
X41271400Y-81342650D01*
X45986700Y-87769700D02*
X45986700Y-86057950D01*
X37274400Y-61614500D02*
X39462900Y-59426000D01*
X41271400Y-81342650D02*
X41271400Y-71376000D01*
X41271400Y-71376000D02*
X37274400Y-67379000D01*
X39462900Y-59426000D02*
X44198500Y-59426000D01*
X37274400Y-67379000D02*
X37274400Y-61614500D01*
X34048500Y-50451700D02*
X37210900Y-53614100D01*
X37210900Y-53614100D02*
X37210900Y-59557400D01*
X37210900Y-59557400D02*
X36042900Y-60725400D01*
X36042900Y-60725400D02*
X36042900Y-69668100D01*
X36042900Y-69668100D02*
X37863700Y-71488900D01*
X37863700Y-71488900D02*
X37863700Y-72207100D01*
X38514000Y-72207100D02*
X37863700Y-72207100D01*
X39824680Y-84035600D02*
X40521000Y-84035600D01*
X36977100Y-88314241D02*
X36986041Y-88314241D01*
X36977100Y-88782000D02*
X36977100Y-88314241D01*
X37046041Y-86814239D02*
X39824680Y-84035600D01*
X36839000Y-88920100D02*
X36977100Y-88782000D01*
X29537600Y-71777900D02*
X29537600Y-72428200D01*
X29537600Y-72428200D02*
X28300400Y-73665400D01*
X30187900Y-71777900D02*
X29537600Y-71777900D01*
X28300400Y-73665400D02*
X28300400Y-82426000D01*
X36986041Y-88314241D02*
X37046041Y-88254241D01*
X28300400Y-82426000D02*
X34794500Y-88920100D01*
X37046041Y-88254241D02*
X37046041Y-86814239D01*
X34794500Y-88920100D02*
X36839000Y-88920100D01*
X37923200Y-76997600D02*
X38369100Y-76997600D01*
X38369100Y-76997600D02*
X39622000Y-75744700D01*
X39622000Y-75744700D02*
X39622000Y-73891400D01*
X39622000Y-73891400D02*
X39146000Y-73415400D01*
X39146000Y-73415400D02*
X38228700Y-73415400D01*
X38228700Y-73415400D02*
X37264300Y-72451000D01*
X37264300Y-72451000D02*
X37264300Y-72207100D01*
X36614000Y-72207100D02*
X37264300Y-72207100D01*
X28287900Y-71777900D02*
X28938200Y-71777900D01*
X37923200Y-75727600D02*
X38410200Y-75727600D01*
X38410200Y-75727600D02*
X39221700Y-74916100D01*
X39221700Y-74916100D02*
X39221700Y-74057200D01*
X39221700Y-74057200D02*
X39000900Y-73836400D01*
X39000900Y-73836400D02*
X38083400Y-73836400D01*
X38083400Y-73836400D02*
X37703700Y-73456700D01*
X37703700Y-73456700D02*
X33805400Y-73456700D01*
X33805400Y-73456700D02*
X31121900Y-70773200D01*
X31121900Y-70773200D02*
X29699000Y-70773200D01*
X29699000Y-70773200D02*
X28938200Y-71534000D01*
X28938200Y-71534000D02*
X28938200Y-71777900D01*
X34721900Y-80490100D02*
X34696040Y-80464240D01*
X36273700Y-80490100D02*
X34721900Y-80490100D01*
X32973200Y-76997600D02*
X35229400Y-76997600D01*
X35229400Y-76997600D02*
X35896040Y-77664240D01*
X43052300Y-57016400D02*
X43690500Y-57654600D01*
X43690500Y-57654600D02*
X43690500Y-58625700D01*
X41188800Y-62435700D02*
X41439600Y-62184900D01*
X41439600Y-62184900D02*
X42062800Y-62184900D01*
X40388500Y-62435700D02*
X41188800Y-62435700D01*
X54283500Y-52764200D02*
X54283500Y-50625400D01*
X54283500Y-50625400D02*
X55038900Y-49870000D01*
X26196000Y-63034200D02*
X24396040Y-61234240D01*
X24396040Y-61234240D02*
X24396040Y-58064240D01*
D29*
X46878813Y-72768219D02*
X46970662Y-72880137D01*
X46998708Y-72903154D01*
X48019878Y-73924325D01*
X48003532Y-73963788D01*
X47940700Y-74279667D01*
X47940700Y-74601733D01*
X48003532Y-74917612D01*
X48126782Y-75215163D01*
X48305713Y-75482952D01*
X48533448Y-75710687D01*
X48801237Y-75889618D01*
X49098788Y-76012868D01*
X49414667Y-76075700D01*
X49736733Y-76075700D01*
X50052612Y-76012868D01*
X50350163Y-75889618D01*
X50617952Y-75710687D01*
X50845687Y-75482952D01*
X51024618Y-75215163D01*
X51147868Y-74917612D01*
X51206920Y-74620738D01*
X51221820Y-74628702D01*
X51261000Y-74640587D01*
X51261001Y-75832511D01*
X51125233Y-75859517D01*
X50918676Y-75945076D01*
X50732780Y-76069288D01*
X50574688Y-76227380D01*
X50450476Y-76413276D01*
X50364917Y-76619833D01*
X50321300Y-76839112D01*
X50321300Y-77062688D01*
X50364917Y-77281967D01*
X50450476Y-77488524D01*
X50574688Y-77674420D01*
X50618530Y-77718262D01*
X50531507Y-77805285D01*
X50435744Y-77540886D01*
X50146129Y-77399996D01*
X49834592Y-77318316D01*
X49513105Y-77298982D01*
X49194025Y-77342739D01*
X48889612Y-77447905D01*
X48715656Y-77540886D01*
X48619892Y-77805287D01*
X49575700Y-78761095D01*
X49589843Y-78746953D01*
X49769448Y-78926558D01*
X49755305Y-78940700D01*
X50711113Y-79896508D01*
X50975514Y-79800744D01*
X51116404Y-79511129D01*
X51198084Y-79199592D01*
X51217418Y-78878105D01*
X51173661Y-78559025D01*
X51068495Y-78254612D01*
X50975514Y-78080656D01*
X50711115Y-77984893D01*
X50811138Y-77884870D01*
X50918676Y-77956724D01*
X51125233Y-78042283D01*
X51344512Y-78085900D01*
X51568088Y-78085900D01*
X51787367Y-78042283D01*
X51833516Y-78023167D01*
X51832928Y-78064200D01*
X51845188Y-78188682D01*
X51881498Y-78308380D01*
X51940463Y-78418694D01*
X52019815Y-78515385D01*
X52116506Y-78594737D01*
X52226820Y-78653702D01*
X52346518Y-78690012D01*
X52471000Y-78702272D01*
X52810250Y-78699200D01*
X52969000Y-78540450D01*
X52969000Y-77691200D01*
X53223000Y-77691200D01*
X53223000Y-78540450D01*
X53381750Y-78699200D01*
X53721000Y-78702272D01*
X53845482Y-78690012D01*
X53965180Y-78653702D01*
X54075494Y-78594737D01*
X54172185Y-78515385D01*
X54251537Y-78418694D01*
X54310502Y-78308380D01*
X54346812Y-78188682D01*
X54359072Y-78064200D01*
X54356000Y-77849950D01*
X54197250Y-77691200D01*
X53223000Y-77691200D01*
X52969000Y-77691200D01*
X52949000Y-77691200D01*
X52949000Y-77437200D01*
X52969000Y-77437200D01*
X52969000Y-77417200D01*
X53223000Y-77417200D01*
X53223000Y-77437200D01*
X54197250Y-77437200D01*
X54356000Y-77278450D01*
X54359072Y-77064200D01*
X54346812Y-76939718D01*
X54310502Y-76820020D01*
X54251537Y-76709706D01*
X54172185Y-76613015D01*
X54112704Y-76564200D01*
X54172185Y-76515385D01*
X54251537Y-76418694D01*
X54310502Y-76308380D01*
X54315462Y-76292028D01*
X54484242Y-76325600D01*
X54707818Y-76325600D01*
X54927097Y-76281983D01*
X55133654Y-76196424D01*
X55319550Y-76072212D01*
X55477642Y-75914120D01*
X55601854Y-75728224D01*
X55687413Y-75521667D01*
X55731030Y-75302388D01*
X55731030Y-75078812D01*
X55708515Y-74965620D01*
X55753743Y-75074810D01*
X55894808Y-75285930D01*
X56073118Y-75464240D01*
X55894808Y-75642550D01*
X55753743Y-75853670D01*
X55656575Y-76088253D01*
X55607040Y-76337285D01*
X55607040Y-76591195D01*
X55656575Y-76840227D01*
X55753743Y-77074810D01*
X55894808Y-77285930D01*
X56073118Y-77464240D01*
X55894808Y-77642550D01*
X55753743Y-77853670D01*
X55656575Y-78088253D01*
X55607040Y-78337285D01*
X55607040Y-78591195D01*
X55656575Y-78840227D01*
X55753743Y-79074810D01*
X55816545Y-79168801D01*
X55774105Y-79197159D01*
X55528959Y-79442305D01*
X55336348Y-79730567D01*
X55203676Y-80050867D01*
X55136040Y-80390895D01*
X55136040Y-80737585D01*
X55203676Y-81077613D01*
X55336348Y-81397913D01*
X55528959Y-81686175D01*
X55774105Y-81931321D01*
X56062367Y-82123932D01*
X56382667Y-82256604D01*
X56668785Y-82313517D01*
X56661040Y-82352456D01*
X56661040Y-82576032D01*
X56704657Y-82795311D01*
X56716368Y-82823584D01*
X56547207Y-82917615D01*
X56370257Y-83067777D01*
X56226002Y-83249574D01*
X56119985Y-83456021D01*
X56056281Y-83679184D01*
X56196236Y-83864000D01*
X57094040Y-83864000D01*
X57094040Y-83844000D01*
X57348040Y-83844000D01*
X57348040Y-83864000D01*
X58245844Y-83864000D01*
X58385799Y-83679184D01*
X58326904Y-83472868D01*
X58333664Y-83470068D01*
X58519560Y-83345856D01*
X58661040Y-83204376D01*
X58661040Y-83212138D01*
X58657484Y-83248244D01*
X58668905Y-83364200D01*
X58671675Y-83392328D01*
X58713703Y-83530876D01*
X58761041Y-83619439D01*
X58761041Y-85165615D01*
X58726322Y-85151409D01*
X58688649Y-85147538D01*
X58498040Y-85272269D01*
X58498040Y-86614000D01*
X58518040Y-86614000D01*
X58518040Y-86868000D01*
X58498040Y-86868000D01*
X58498040Y-88209731D01*
X58560047Y-88250307D01*
X58281114Y-88529240D01*
X54870486Y-88529240D01*
X56531726Y-86868000D01*
X57136040Y-86868000D01*
X57136040Y-87268000D01*
X57184547Y-87506496D01*
X57278650Y-87730946D01*
X57414733Y-87932725D01*
X57587566Y-88104078D01*
X57790507Y-88238421D01*
X58015758Y-88330591D01*
X58053431Y-88334462D01*
X58244040Y-88209731D01*
X58244040Y-86868000D01*
X57136040Y-86868000D01*
X56531726Y-86868000D01*
X56800487Y-86599240D01*
X57007828Y-86599240D01*
X57136040Y-86573737D01*
X57136040Y-86614000D01*
X58244040Y-86614000D01*
X58244040Y-85272269D01*
X58053431Y-85147538D01*
X58015758Y-85151409D01*
X57992910Y-85160758D01*
X57987423Y-85133173D01*
X57942270Y-85024164D01*
X58071823Y-84914223D01*
X58216078Y-84732426D01*
X58322095Y-84525979D01*
X58385799Y-84302816D01*
X58245844Y-84118000D01*
X57348040Y-84118000D01*
X57348040Y-84138000D01*
X57094040Y-84138000D01*
X57094040Y-84118000D01*
X56196236Y-84118000D01*
X56056281Y-84302816D01*
X56119985Y-84525979D01*
X56157030Y-84598118D01*
X56014428Y-84740720D01*
X55890216Y-84926616D01*
X55804657Y-85133173D01*
X55761040Y-85352452D01*
X55761040Y-85559793D01*
X53291594Y-88029240D01*
X52079998Y-88029240D01*
X52177347Y-87932725D01*
X52313430Y-87730946D01*
X52407533Y-87506496D01*
X52456040Y-87268000D01*
X52456040Y-86868000D01*
X51348040Y-86868000D01*
X51348040Y-86888000D01*
X51094040Y-86888000D01*
X51094040Y-86868000D01*
X51074040Y-86868000D01*
X51074040Y-86614000D01*
X51094040Y-86614000D01*
X51094040Y-85272269D01*
X51348040Y-85272269D01*
X51348040Y-86614000D01*
X52456040Y-86614000D01*
X52456040Y-86214000D01*
X52407533Y-85975504D01*
X52313430Y-85751054D01*
X52177347Y-85549275D01*
X52004514Y-85377922D01*
X51801573Y-85243579D01*
X51576322Y-85151409D01*
X51538649Y-85147538D01*
X51348040Y-85272269D01*
X51094040Y-85272269D01*
X50931040Y-85165605D01*
X50931040Y-84302816D01*
X51206281Y-84302816D01*
X51269985Y-84525979D01*
X51376002Y-84732426D01*
X51520257Y-84914223D01*
X51697207Y-85064385D01*
X51900053Y-85177140D01*
X52061296Y-85234803D01*
X52244040Y-85109361D01*
X52244040Y-84118000D01*
X52498040Y-84118000D01*
X52498040Y-85109361D01*
X52680784Y-85234803D01*
X52842027Y-85177140D01*
X53044873Y-85064385D01*
X53221823Y-84914223D01*
X53366078Y-84732426D01*
X53472095Y-84525979D01*
X53535799Y-84302816D01*
X53395844Y-84118000D01*
X52498040Y-84118000D01*
X52244040Y-84118000D01*
X51346236Y-84118000D01*
X51206281Y-84302816D01*
X50931040Y-84302816D01*
X50931040Y-84027474D01*
X50982824Y-84006024D01*
X51168720Y-83881812D01*
X51277414Y-83773118D01*
X51346236Y-83864000D01*
X52244040Y-83864000D01*
X52244040Y-82872639D01*
X52498040Y-82872639D01*
X52498040Y-83864000D01*
X53395844Y-83864000D01*
X53535799Y-83679184D01*
X53472095Y-83456021D01*
X53366078Y-83249574D01*
X53221823Y-83067777D01*
X53044873Y-82917615D01*
X52842027Y-82804860D01*
X52680784Y-82747197D01*
X52498040Y-82872639D01*
X52244040Y-82872639D01*
X52061296Y-82747197D01*
X51900053Y-82804860D01*
X51697207Y-82917615D01*
X51580200Y-83016909D01*
X51580200Y-82888412D01*
X51536583Y-82669133D01*
X51451024Y-82462576D01*
X51326812Y-82276680D01*
X51168720Y-82118588D01*
X50982824Y-81994376D01*
X50776267Y-81908817D01*
X50556988Y-81865200D01*
X50333412Y-81865200D01*
X50191219Y-81893484D01*
X50198100Y-81858888D01*
X50198100Y-81635312D01*
X50154483Y-81416033D01*
X50068924Y-81209476D01*
X49944712Y-81023580D01*
X49786620Y-80865488D01*
X49600724Y-80741276D01*
X49394167Y-80655717D01*
X49174888Y-80612100D01*
X48951312Y-80612100D01*
X48732033Y-80655717D01*
X48525476Y-80741276D01*
X48339580Y-80865488D01*
X48194366Y-81010702D01*
X48100494Y-80933663D01*
X47990180Y-80874698D01*
X47870482Y-80838388D01*
X47746000Y-80826128D01*
X47381750Y-80829200D01*
X47223000Y-80987950D01*
X47223000Y-81687200D01*
X47243000Y-81687200D01*
X47243000Y-81941200D01*
X47223000Y-81941200D01*
X47223000Y-81961200D01*
X46969000Y-81961200D01*
X46969000Y-81941200D01*
X46949000Y-81941200D01*
X46949000Y-81687200D01*
X46969000Y-81687200D01*
X46969000Y-80987950D01*
X46873400Y-80892350D01*
X46873400Y-80293205D01*
X46876956Y-80257100D01*
X46873400Y-80220995D01*
X46873400Y-80076113D01*
X48619892Y-80076113D01*
X48715656Y-80340514D01*
X49005271Y-80481404D01*
X49316808Y-80563084D01*
X49638295Y-80582418D01*
X49957375Y-80538661D01*
X50261788Y-80433495D01*
X50435744Y-80340514D01*
X50531508Y-80076113D01*
X49575700Y-79120305D01*
X48619892Y-80076113D01*
X46873400Y-80076113D01*
X46873400Y-79003295D01*
X47933982Y-79003295D01*
X47977739Y-79322375D01*
X48082905Y-79626788D01*
X48175886Y-79800744D01*
X48440287Y-79896508D01*
X49396095Y-78940700D01*
X48440287Y-77984892D01*
X48175886Y-78080656D01*
X48034996Y-78370271D01*
X47953316Y-78681808D01*
X47933982Y-79003295D01*
X46873400Y-79003295D01*
X46873400Y-72758092D01*
X46878813Y-72768219D01*
G04 #@! TA.AperFunction,Conductor*
D30*
G36*
X46878813Y-72768219D02*
G01*
X46970662Y-72880137D01*
X46998708Y-72903154D01*
X48019878Y-73924325D01*
X48003532Y-73963788D01*
X47940700Y-74279667D01*
X47940700Y-74601733D01*
X48003532Y-74917612D01*
X48126782Y-75215163D01*
X48305713Y-75482952D01*
X48533448Y-75710687D01*
X48801237Y-75889618D01*
X49098788Y-76012868D01*
X49414667Y-76075700D01*
X49736733Y-76075700D01*
X50052612Y-76012868D01*
X50350163Y-75889618D01*
X50617952Y-75710687D01*
X50845687Y-75482952D01*
X51024618Y-75215163D01*
X51147868Y-74917612D01*
X51206920Y-74620738D01*
X51221820Y-74628702D01*
X51261000Y-74640587D01*
X51261001Y-75832511D01*
X51125233Y-75859517D01*
X50918676Y-75945076D01*
X50732780Y-76069288D01*
X50574688Y-76227380D01*
X50450476Y-76413276D01*
X50364917Y-76619833D01*
X50321300Y-76839112D01*
X50321300Y-77062688D01*
X50364917Y-77281967D01*
X50450476Y-77488524D01*
X50574688Y-77674420D01*
X50618530Y-77718262D01*
X50531507Y-77805285D01*
X50435744Y-77540886D01*
X50146129Y-77399996D01*
X49834592Y-77318316D01*
X49513105Y-77298982D01*
X49194025Y-77342739D01*
X48889612Y-77447905D01*
X48715656Y-77540886D01*
X48619892Y-77805287D01*
X49575700Y-78761095D01*
X49589843Y-78746953D01*
X49769448Y-78926558D01*
X49755305Y-78940700D01*
X50711113Y-79896508D01*
X50975514Y-79800744D01*
X51116404Y-79511129D01*
X51198084Y-79199592D01*
X51217418Y-78878105D01*
X51173661Y-78559025D01*
X51068495Y-78254612D01*
X50975514Y-78080656D01*
X50711115Y-77984893D01*
X50811138Y-77884870D01*
X50918676Y-77956724D01*
X51125233Y-78042283D01*
X51344512Y-78085900D01*
X51568088Y-78085900D01*
X51787367Y-78042283D01*
X51833516Y-78023167D01*
X51832928Y-78064200D01*
X51845188Y-78188682D01*
X51881498Y-78308380D01*
X51940463Y-78418694D01*
X52019815Y-78515385D01*
X52116506Y-78594737D01*
X52226820Y-78653702D01*
X52346518Y-78690012D01*
X52471000Y-78702272D01*
X52810250Y-78699200D01*
X52969000Y-78540450D01*
X52969000Y-77691200D01*
X53223000Y-77691200D01*
X53223000Y-78540450D01*
X53381750Y-78699200D01*
X53721000Y-78702272D01*
X53845482Y-78690012D01*
X53965180Y-78653702D01*
X54075494Y-78594737D01*
X54172185Y-78515385D01*
X54251537Y-78418694D01*
X54310502Y-78308380D01*
X54346812Y-78188682D01*
X54359072Y-78064200D01*
X54356000Y-77849950D01*
X54197250Y-77691200D01*
X53223000Y-77691200D01*
X52969000Y-77691200D01*
X52949000Y-77691200D01*
X52949000Y-77437200D01*
X52969000Y-77437200D01*
X52969000Y-77417200D01*
X53223000Y-77417200D01*
X53223000Y-77437200D01*
X54197250Y-77437200D01*
X54356000Y-77278450D01*
X54359072Y-77064200D01*
X54346812Y-76939718D01*
X54310502Y-76820020D01*
X54251537Y-76709706D01*
X54172185Y-76613015D01*
X54112704Y-76564200D01*
X54172185Y-76515385D01*
X54251537Y-76418694D01*
X54310502Y-76308380D01*
X54315462Y-76292028D01*
X54484242Y-76325600D01*
X54707818Y-76325600D01*
X54927097Y-76281983D01*
X55133654Y-76196424D01*
X55319550Y-76072212D01*
X55477642Y-75914120D01*
X55601854Y-75728224D01*
X55687413Y-75521667D01*
X55731030Y-75302388D01*
X55731030Y-75078812D01*
X55708515Y-74965620D01*
X55753743Y-75074810D01*
X55894808Y-75285930D01*
X56073118Y-75464240D01*
X55894808Y-75642550D01*
X55753743Y-75853670D01*
X55656575Y-76088253D01*
X55607040Y-76337285D01*
X55607040Y-76591195D01*
X55656575Y-76840227D01*
X55753743Y-77074810D01*
X55894808Y-77285930D01*
X56073118Y-77464240D01*
X55894808Y-77642550D01*
X55753743Y-77853670D01*
X55656575Y-78088253D01*
X55607040Y-78337285D01*
X55607040Y-78591195D01*
X55656575Y-78840227D01*
X55753743Y-79074810D01*
X55816545Y-79168801D01*
X55774105Y-79197159D01*
X55528959Y-79442305D01*
X55336348Y-79730567D01*
X55203676Y-80050867D01*
X55136040Y-80390895D01*
X55136040Y-80737585D01*
X55203676Y-81077613D01*
X55336348Y-81397913D01*
X55528959Y-81686175D01*
X55774105Y-81931321D01*
X56062367Y-82123932D01*
X56382667Y-82256604D01*
X56668785Y-82313517D01*
X56661040Y-82352456D01*
X56661040Y-82576032D01*
X56704657Y-82795311D01*
X56716368Y-82823584D01*
X56547207Y-82917615D01*
X56370257Y-83067777D01*
X56226002Y-83249574D01*
X56119985Y-83456021D01*
X56056281Y-83679184D01*
X56196236Y-83864000D01*
X57094040Y-83864000D01*
X57094040Y-83844000D01*
X57348040Y-83844000D01*
X57348040Y-83864000D01*
X58245844Y-83864000D01*
X58385799Y-83679184D01*
X58326904Y-83472868D01*
X58333664Y-83470068D01*
X58519560Y-83345856D01*
X58661040Y-83204376D01*
X58661040Y-83212138D01*
X58657484Y-83248244D01*
X58668905Y-83364200D01*
X58671675Y-83392328D01*
X58713703Y-83530876D01*
X58761041Y-83619439D01*
X58761041Y-85165615D01*
X58726322Y-85151409D01*
X58688649Y-85147538D01*
X58498040Y-85272269D01*
X58498040Y-86614000D01*
X58518040Y-86614000D01*
X58518040Y-86868000D01*
X58498040Y-86868000D01*
X58498040Y-88209731D01*
X58560047Y-88250307D01*
X58281114Y-88529240D01*
X54870486Y-88529240D01*
X56531726Y-86868000D01*
X57136040Y-86868000D01*
X57136040Y-87268000D01*
X57184547Y-87506496D01*
X57278650Y-87730946D01*
X57414733Y-87932725D01*
X57587566Y-88104078D01*
X57790507Y-88238421D01*
X58015758Y-88330591D01*
X58053431Y-88334462D01*
X58244040Y-88209731D01*
X58244040Y-86868000D01*
X57136040Y-86868000D01*
X56531726Y-86868000D01*
X56800487Y-86599240D01*
X57007828Y-86599240D01*
X57136040Y-86573737D01*
X57136040Y-86614000D01*
X58244040Y-86614000D01*
X58244040Y-85272269D01*
X58053431Y-85147538D01*
X58015758Y-85151409D01*
X57992910Y-85160758D01*
X57987423Y-85133173D01*
X57942270Y-85024164D01*
X58071823Y-84914223D01*
X58216078Y-84732426D01*
X58322095Y-84525979D01*
X58385799Y-84302816D01*
X58245844Y-84118000D01*
X57348040Y-84118000D01*
X57348040Y-84138000D01*
X57094040Y-84138000D01*
X57094040Y-84118000D01*
X56196236Y-84118000D01*
X56056281Y-84302816D01*
X56119985Y-84525979D01*
X56157030Y-84598118D01*
X56014428Y-84740720D01*
X55890216Y-84926616D01*
X55804657Y-85133173D01*
X55761040Y-85352452D01*
X55761040Y-85559793D01*
X53291594Y-88029240D01*
X52079998Y-88029240D01*
X52177347Y-87932725D01*
X52313430Y-87730946D01*
X52407533Y-87506496D01*
X52456040Y-87268000D01*
X52456040Y-86868000D01*
X51348040Y-86868000D01*
X51348040Y-86888000D01*
X51094040Y-86888000D01*
X51094040Y-86868000D01*
X51074040Y-86868000D01*
X51074040Y-86614000D01*
X51094040Y-86614000D01*
X51094040Y-85272269D01*
X51348040Y-85272269D01*
X51348040Y-86614000D01*
X52456040Y-86614000D01*
X52456040Y-86214000D01*
X52407533Y-85975504D01*
X52313430Y-85751054D01*
X52177347Y-85549275D01*
X52004514Y-85377922D01*
X51801573Y-85243579D01*
X51576322Y-85151409D01*
X51538649Y-85147538D01*
X51348040Y-85272269D01*
X51094040Y-85272269D01*
X50931040Y-85165605D01*
X50931040Y-84302816D01*
X51206281Y-84302816D01*
X51269985Y-84525979D01*
X51376002Y-84732426D01*
X51520257Y-84914223D01*
X51697207Y-85064385D01*
X51900053Y-85177140D01*
X52061296Y-85234803D01*
X52244040Y-85109361D01*
X52244040Y-84118000D01*
X52498040Y-84118000D01*
X52498040Y-85109361D01*
X52680784Y-85234803D01*
X52842027Y-85177140D01*
X53044873Y-85064385D01*
X53221823Y-84914223D01*
X53366078Y-84732426D01*
X53472095Y-84525979D01*
X53535799Y-84302816D01*
X53395844Y-84118000D01*
X52498040Y-84118000D01*
X52244040Y-84118000D01*
X51346236Y-84118000D01*
X51206281Y-84302816D01*
X50931040Y-84302816D01*
X50931040Y-84027474D01*
X50982824Y-84006024D01*
X51168720Y-83881812D01*
X51277414Y-83773118D01*
X51346236Y-83864000D01*
X52244040Y-83864000D01*
X52244040Y-82872639D01*
X52498040Y-82872639D01*
X52498040Y-83864000D01*
X53395844Y-83864000D01*
X53535799Y-83679184D01*
X53472095Y-83456021D01*
X53366078Y-83249574D01*
X53221823Y-83067777D01*
X53044873Y-82917615D01*
X52842027Y-82804860D01*
X52680784Y-82747197D01*
X52498040Y-82872639D01*
X52244040Y-82872639D01*
X52061296Y-82747197D01*
X51900053Y-82804860D01*
X51697207Y-82917615D01*
X51580200Y-83016909D01*
X51580200Y-82888412D01*
X51536583Y-82669133D01*
X51451024Y-82462576D01*
X51326812Y-82276680D01*
X51168720Y-82118588D01*
X50982824Y-81994376D01*
X50776267Y-81908817D01*
X50556988Y-81865200D01*
X50333412Y-81865200D01*
X50191219Y-81893484D01*
X50198100Y-81858888D01*
X50198100Y-81635312D01*
X50154483Y-81416033D01*
X50068924Y-81209476D01*
X49944712Y-81023580D01*
X49786620Y-80865488D01*
X49600724Y-80741276D01*
X49394167Y-80655717D01*
X49174888Y-80612100D01*
X48951312Y-80612100D01*
X48732033Y-80655717D01*
X48525476Y-80741276D01*
X48339580Y-80865488D01*
X48194366Y-81010702D01*
X48100494Y-80933663D01*
X47990180Y-80874698D01*
X47870482Y-80838388D01*
X47746000Y-80826128D01*
X47381750Y-80829200D01*
X47223000Y-80987950D01*
X47223000Y-81687200D01*
X47243000Y-81687200D01*
X47243000Y-81941200D01*
X47223000Y-81941200D01*
X47223000Y-81961200D01*
X46969000Y-81961200D01*
X46969000Y-81941200D01*
X46949000Y-81941200D01*
X46949000Y-81687200D01*
X46969000Y-81687200D01*
X46969000Y-80987950D01*
X46873400Y-80892350D01*
X46873400Y-80293205D01*
X46876956Y-80257100D01*
X46873400Y-80220995D01*
X46873400Y-80076113D01*
X48619892Y-80076113D01*
X48715656Y-80340514D01*
X49005271Y-80481404D01*
X49316808Y-80563084D01*
X49638295Y-80582418D01*
X49957375Y-80538661D01*
X50261788Y-80433495D01*
X50435744Y-80340514D01*
X50531508Y-80076113D01*
X49575700Y-79120305D01*
X48619892Y-80076113D01*
X46873400Y-80076113D01*
X46873400Y-79003295D01*
X47933982Y-79003295D01*
X47977739Y-79322375D01*
X48082905Y-79626788D01*
X48175886Y-79800744D01*
X48440287Y-79896508D01*
X49396095Y-78940700D01*
X48440287Y-77984892D01*
X48175886Y-78080656D01*
X48034996Y-78370271D01*
X47953316Y-78681808D01*
X47933982Y-79003295D01*
X46873400Y-79003295D01*
X46873400Y-72758092D01*
X46878813Y-72768219D01*
G37*
G04 #@! TD.AperFunction*
D29*
X32431353Y-73122100D02*
X31923805Y-73122100D01*
X31887700Y-73118544D01*
X31743615Y-73132735D01*
X31605066Y-73174763D01*
X31516107Y-73222313D01*
X31477380Y-73243013D01*
X31365462Y-73334862D01*
X31342446Y-73362907D01*
X30323508Y-74381846D01*
X30295462Y-74404863D01*
X30203613Y-74516781D01*
X30135363Y-74644468D01*
X30106313Y-74740233D01*
X30093335Y-74783015D01*
X30079144Y-74927100D01*
X30082700Y-74963205D01*
X30082701Y-79055085D01*
X30079144Y-79091200D01*
X30093335Y-79235285D01*
X30105895Y-79276688D01*
X30100800Y-79282896D01*
X30051985Y-79223415D01*
X29955294Y-79144063D01*
X29844980Y-79085098D01*
X29725282Y-79048788D01*
X29600800Y-79036528D01*
X29386550Y-79039600D01*
X29227800Y-79198350D01*
X29227800Y-80172600D01*
X29247800Y-80172600D01*
X29247800Y-80426600D01*
X29227800Y-80426600D01*
X29227800Y-81400850D01*
X29386550Y-81559600D01*
X29600800Y-81562672D01*
X29725282Y-81550412D01*
X29844980Y-81514102D01*
X29955294Y-81455137D01*
X30051985Y-81375785D01*
X30100800Y-81316304D01*
X30149615Y-81375785D01*
X30246306Y-81455137D01*
X30356620Y-81514102D01*
X30476318Y-81550412D01*
X30501460Y-81552888D01*
X30578563Y-81646838D01*
X30606608Y-81669854D01*
X31495186Y-82558433D01*
X31518202Y-82586478D01*
X31599966Y-82653580D01*
X31630120Y-82678327D01*
X31757806Y-82746577D01*
X31896355Y-82788605D01*
X32040440Y-82802796D01*
X32076545Y-82799240D01*
X35525908Y-82799240D01*
X35672520Y-82945852D01*
X35858416Y-83070064D01*
X36064973Y-83155623D01*
X36284252Y-83199240D01*
X36507828Y-83199240D01*
X36727107Y-83155623D01*
X36933664Y-83070064D01*
X37119560Y-82945852D01*
X37277652Y-82787760D01*
X37401864Y-82601864D01*
X37487423Y-82395307D01*
X37531040Y-82176028D01*
X37531040Y-81952452D01*
X37487423Y-81733173D01*
X37457561Y-81661080D01*
X37469206Y-81670637D01*
X37579520Y-81729602D01*
X37699218Y-81765912D01*
X37823700Y-81778172D01*
X37887950Y-81775100D01*
X38046700Y-81616350D01*
X38046700Y-80617100D01*
X38026700Y-80617100D01*
X38026700Y-80363100D01*
X38046700Y-80363100D01*
X38046700Y-80343100D01*
X38300700Y-80343100D01*
X38300700Y-80363100D01*
X38320700Y-80363100D01*
X38320700Y-80617100D01*
X38300700Y-80617100D01*
X38300700Y-81616350D01*
X38459450Y-81775100D01*
X38523700Y-81778172D01*
X38648182Y-81765912D01*
X38767880Y-81729602D01*
X38878194Y-81670637D01*
X38934801Y-81624181D01*
X38934801Y-82016285D01*
X38931244Y-82052400D01*
X38945435Y-82196485D01*
X38973972Y-82290556D01*
X38987464Y-82335033D01*
X39055714Y-82462720D01*
X39147563Y-82574638D01*
X39175608Y-82597654D01*
X39764711Y-83186757D01*
X39639388Y-83312080D01*
X39629621Y-83326698D01*
X39542047Y-83353263D01*
X39414360Y-83421513D01*
X39302442Y-83513362D01*
X39279426Y-83541407D01*
X37059216Y-85761618D01*
X36990220Y-85724738D01*
X36870522Y-85688428D01*
X36746040Y-85676168D01*
X36181790Y-85679240D01*
X36023040Y-85837990D01*
X36023040Y-87037240D01*
X36043040Y-87037240D01*
X36043040Y-87291240D01*
X36023040Y-87291240D01*
X36023040Y-87311240D01*
X35769040Y-87311240D01*
X35769040Y-87291240D01*
X34569790Y-87291240D01*
X34411040Y-87449990D01*
X34410784Y-87496938D01*
X33228086Y-86314240D01*
X34407968Y-86314240D01*
X34411040Y-86878490D01*
X34569790Y-87037240D01*
X35769040Y-87037240D01*
X35769040Y-85837990D01*
X35610290Y-85679240D01*
X35046040Y-85676168D01*
X34921558Y-85688428D01*
X34801860Y-85724738D01*
X34691546Y-85783703D01*
X34594855Y-85863055D01*
X34515503Y-85959746D01*
X34456538Y-86070060D01*
X34420228Y-86189758D01*
X34407968Y-86314240D01*
X33228086Y-86314240D01*
X29035400Y-82121554D01*
X29035400Y-73969846D01*
X29939275Y-73065972D01*
X30537900Y-73065972D01*
X30662382Y-73053712D01*
X30782080Y-73017402D01*
X30892394Y-72958437D01*
X30989085Y-72879085D01*
X31068437Y-72782394D01*
X31127402Y-72672080D01*
X31163712Y-72552382D01*
X31175972Y-72427900D01*
X31175972Y-71866718D01*
X32431353Y-73122100D01*
G04 #@! TA.AperFunction,Conductor*
D30*
G36*
X32431353Y-73122100D02*
G01*
X31923805Y-73122100D01*
X31887700Y-73118544D01*
X31743615Y-73132735D01*
X31605066Y-73174763D01*
X31516107Y-73222313D01*
X31477380Y-73243013D01*
X31365462Y-73334862D01*
X31342446Y-73362907D01*
X30323508Y-74381846D01*
X30295462Y-74404863D01*
X30203613Y-74516781D01*
X30135363Y-74644468D01*
X30106313Y-74740233D01*
X30093335Y-74783015D01*
X30079144Y-74927100D01*
X30082700Y-74963205D01*
X30082701Y-79055085D01*
X30079144Y-79091200D01*
X30093335Y-79235285D01*
X30105895Y-79276688D01*
X30100800Y-79282896D01*
X30051985Y-79223415D01*
X29955294Y-79144063D01*
X29844980Y-79085098D01*
X29725282Y-79048788D01*
X29600800Y-79036528D01*
X29386550Y-79039600D01*
X29227800Y-79198350D01*
X29227800Y-80172600D01*
X29247800Y-80172600D01*
X29247800Y-80426600D01*
X29227800Y-80426600D01*
X29227800Y-81400850D01*
X29386550Y-81559600D01*
X29600800Y-81562672D01*
X29725282Y-81550412D01*
X29844980Y-81514102D01*
X29955294Y-81455137D01*
X30051985Y-81375785D01*
X30100800Y-81316304D01*
X30149615Y-81375785D01*
X30246306Y-81455137D01*
X30356620Y-81514102D01*
X30476318Y-81550412D01*
X30501460Y-81552888D01*
X30578563Y-81646838D01*
X30606608Y-81669854D01*
X31495186Y-82558433D01*
X31518202Y-82586478D01*
X31599966Y-82653580D01*
X31630120Y-82678327D01*
X31757806Y-82746577D01*
X31896355Y-82788605D01*
X32040440Y-82802796D01*
X32076545Y-82799240D01*
X35525908Y-82799240D01*
X35672520Y-82945852D01*
X35858416Y-83070064D01*
X36064973Y-83155623D01*
X36284252Y-83199240D01*
X36507828Y-83199240D01*
X36727107Y-83155623D01*
X36933664Y-83070064D01*
X37119560Y-82945852D01*
X37277652Y-82787760D01*
X37401864Y-82601864D01*
X37487423Y-82395307D01*
X37531040Y-82176028D01*
X37531040Y-81952452D01*
X37487423Y-81733173D01*
X37457561Y-81661080D01*
X37469206Y-81670637D01*
X37579520Y-81729602D01*
X37699218Y-81765912D01*
X37823700Y-81778172D01*
X37887950Y-81775100D01*
X38046700Y-81616350D01*
X38046700Y-80617100D01*
X38026700Y-80617100D01*
X38026700Y-80363100D01*
X38046700Y-80363100D01*
X38046700Y-80343100D01*
X38300700Y-80343100D01*
X38300700Y-80363100D01*
X38320700Y-80363100D01*
X38320700Y-80617100D01*
X38300700Y-80617100D01*
X38300700Y-81616350D01*
X38459450Y-81775100D01*
X38523700Y-81778172D01*
X38648182Y-81765912D01*
X38767880Y-81729602D01*
X38878194Y-81670637D01*
X38934801Y-81624181D01*
X38934801Y-82016285D01*
X38931244Y-82052400D01*
X38945435Y-82196485D01*
X38973972Y-82290556D01*
X38987464Y-82335033D01*
X39055714Y-82462720D01*
X39147563Y-82574638D01*
X39175608Y-82597654D01*
X39764711Y-83186757D01*
X39639388Y-83312080D01*
X39629621Y-83326698D01*
X39542047Y-83353263D01*
X39414360Y-83421513D01*
X39302442Y-83513362D01*
X39279426Y-83541407D01*
X37059216Y-85761618D01*
X36990220Y-85724738D01*
X36870522Y-85688428D01*
X36746040Y-85676168D01*
X36181790Y-85679240D01*
X36023040Y-85837990D01*
X36023040Y-87037240D01*
X36043040Y-87037240D01*
X36043040Y-87291240D01*
X36023040Y-87291240D01*
X36023040Y-87311240D01*
X35769040Y-87311240D01*
X35769040Y-87291240D01*
X34569790Y-87291240D01*
X34411040Y-87449990D01*
X34410784Y-87496938D01*
X33228086Y-86314240D01*
X34407968Y-86314240D01*
X34411040Y-86878490D01*
X34569790Y-87037240D01*
X35769040Y-87037240D01*
X35769040Y-85837990D01*
X35610290Y-85679240D01*
X35046040Y-85676168D01*
X34921558Y-85688428D01*
X34801860Y-85724738D01*
X34691546Y-85783703D01*
X34594855Y-85863055D01*
X34515503Y-85959746D01*
X34456538Y-86070060D01*
X34420228Y-86189758D01*
X34407968Y-86314240D01*
X33228086Y-86314240D01*
X29035400Y-82121554D01*
X29035400Y-73969846D01*
X29939275Y-73065972D01*
X30537900Y-73065972D01*
X30662382Y-73053712D01*
X30782080Y-73017402D01*
X30892394Y-72958437D01*
X30989085Y-72879085D01*
X31068437Y-72782394D01*
X31127402Y-72672080D01*
X31163712Y-72552382D01*
X31175972Y-72427900D01*
X31175972Y-71866718D01*
X32431353Y-73122100D01*
G37*
G04 #@! TD.AperFunction*
D29*
X45211200Y-69634100D02*
X45231200Y-69634100D01*
X45231200Y-69888100D01*
X45211200Y-69888100D01*
X45211200Y-70862350D01*
X45369950Y-71021100D01*
X45403400Y-71021580D01*
X45403401Y-79522100D01*
X44611067Y-79522100D01*
X44616404Y-79511129D01*
X44698084Y-79199592D01*
X44717418Y-78878105D01*
X44673661Y-78559025D01*
X44568495Y-78254612D01*
X44475514Y-78080656D01*
X44211113Y-77984892D01*
X43255305Y-78940700D01*
X43269448Y-78954843D01*
X43089843Y-79134448D01*
X43075700Y-79120305D01*
X43061558Y-79134448D01*
X42881953Y-78954843D01*
X42896095Y-78940700D01*
X42881953Y-78926558D01*
X43061558Y-78746953D01*
X43075700Y-78761095D01*
X44031508Y-77805287D01*
X43935744Y-77540886D01*
X43646129Y-77399996D01*
X43334592Y-77318316D01*
X43013105Y-77298982D01*
X42694025Y-77342739D01*
X42488900Y-77413604D01*
X42488900Y-76926446D01*
X42847047Y-76568300D01*
X43219168Y-76568300D01*
X43365780Y-76714912D01*
X43551676Y-76839124D01*
X43758233Y-76924683D01*
X43977512Y-76968300D01*
X44201088Y-76968300D01*
X44420367Y-76924683D01*
X44626924Y-76839124D01*
X44812820Y-76714912D01*
X44970912Y-76556820D01*
X45095124Y-76370924D01*
X45180683Y-76164367D01*
X45224300Y-75945088D01*
X45224300Y-75721512D01*
X45180683Y-75502233D01*
X45095124Y-75295676D01*
X44970912Y-75109780D01*
X44812820Y-74951688D01*
X44661237Y-74850403D01*
X44710700Y-74601733D01*
X44710700Y-74279667D01*
X44647868Y-73963788D01*
X44524618Y-73666237D01*
X44345687Y-73398448D01*
X44117952Y-73170713D01*
X43850163Y-72991782D01*
X43810700Y-72975436D01*
X43810700Y-70980965D01*
X43828380Y-70975602D01*
X43938694Y-70916637D01*
X44035385Y-70837285D01*
X44084200Y-70777804D01*
X44133015Y-70837285D01*
X44229706Y-70916637D01*
X44340020Y-70975602D01*
X44459718Y-71011912D01*
X44584200Y-71024172D01*
X44798450Y-71021100D01*
X44957200Y-70862350D01*
X44957200Y-69888100D01*
X44937200Y-69888100D01*
X44937200Y-69634100D01*
X44957200Y-69634100D01*
X44957200Y-69614100D01*
X45211200Y-69614100D01*
X45211200Y-69634100D01*
G04 #@! TA.AperFunction,Conductor*
D30*
G36*
X45211200Y-69634100D02*
G01*
X45231200Y-69634100D01*
X45231200Y-69888100D01*
X45211200Y-69888100D01*
X45211200Y-70862350D01*
X45369950Y-71021100D01*
X45403400Y-71021580D01*
X45403401Y-79522100D01*
X44611067Y-79522100D01*
X44616404Y-79511129D01*
X44698084Y-79199592D01*
X44717418Y-78878105D01*
X44673661Y-78559025D01*
X44568495Y-78254612D01*
X44475514Y-78080656D01*
X44211113Y-77984892D01*
X43255305Y-78940700D01*
X43269448Y-78954843D01*
X43089843Y-79134448D01*
X43075700Y-79120305D01*
X43061558Y-79134448D01*
X42881953Y-78954843D01*
X42896095Y-78940700D01*
X42881953Y-78926558D01*
X43061558Y-78746953D01*
X43075700Y-78761095D01*
X44031508Y-77805287D01*
X43935744Y-77540886D01*
X43646129Y-77399996D01*
X43334592Y-77318316D01*
X43013105Y-77298982D01*
X42694025Y-77342739D01*
X42488900Y-77413604D01*
X42488900Y-76926446D01*
X42847047Y-76568300D01*
X43219168Y-76568300D01*
X43365780Y-76714912D01*
X43551676Y-76839124D01*
X43758233Y-76924683D01*
X43977512Y-76968300D01*
X44201088Y-76968300D01*
X44420367Y-76924683D01*
X44626924Y-76839124D01*
X44812820Y-76714912D01*
X44970912Y-76556820D01*
X45095124Y-76370924D01*
X45180683Y-76164367D01*
X45224300Y-75945088D01*
X45224300Y-75721512D01*
X45180683Y-75502233D01*
X45095124Y-75295676D01*
X44970912Y-75109780D01*
X44812820Y-74951688D01*
X44661237Y-74850403D01*
X44710700Y-74601733D01*
X44710700Y-74279667D01*
X44647868Y-73963788D01*
X44524618Y-73666237D01*
X44345687Y-73398448D01*
X44117952Y-73170713D01*
X43850163Y-72991782D01*
X43810700Y-72975436D01*
X43810700Y-70980965D01*
X43828380Y-70975602D01*
X43938694Y-70916637D01*
X44035385Y-70837285D01*
X44084200Y-70777804D01*
X44133015Y-70837285D01*
X44229706Y-70916637D01*
X44340020Y-70975602D01*
X44459718Y-71011912D01*
X44584200Y-71024172D01*
X44798450Y-71021100D01*
X44957200Y-70862350D01*
X44957200Y-69888100D01*
X44937200Y-69888100D01*
X44937200Y-69634100D01*
X44957200Y-69634100D01*
X44957200Y-69614100D01*
X45211200Y-69614100D01*
X45211200Y-69634100D01*
G37*
G04 #@! TD.AperFunction*
D29*
X34761040Y-77776028D02*
X34804657Y-77995307D01*
X34890216Y-78201864D01*
X35014428Y-78387760D01*
X35155909Y-78529241D01*
X34569091Y-78529241D01*
X34434450Y-78394600D01*
X33100200Y-78394600D01*
X33100200Y-79043850D01*
X33161402Y-79105052D01*
X32899655Y-79366799D01*
X32681841Y-79366799D01*
X32649206Y-79334164D01*
X32649951Y-79326595D01*
X32637760Y-79202818D01*
X32687450Y-79202600D01*
X32846200Y-79043850D01*
X32846200Y-78394600D01*
X32826200Y-78394600D01*
X32826200Y-78140600D01*
X32846200Y-78140600D01*
X32846200Y-78120600D01*
X33100200Y-78120600D01*
X33100200Y-78140600D01*
X34434450Y-78140600D01*
X34593200Y-77981850D01*
X34596272Y-77967600D01*
X34584012Y-77843118D01*
X34550487Y-77732600D01*
X34761040Y-77732600D01*
X34761040Y-77776028D01*
G04 #@! TA.AperFunction,Conductor*
D30*
G36*
X34761040Y-77776028D02*
G01*
X34804657Y-77995307D01*
X34890216Y-78201864D01*
X35014428Y-78387760D01*
X35155909Y-78529241D01*
X34569091Y-78529241D01*
X34434450Y-78394600D01*
X33100200Y-78394600D01*
X33100200Y-79043850D01*
X33161402Y-79105052D01*
X32899655Y-79366799D01*
X32681841Y-79366799D01*
X32649206Y-79334164D01*
X32649951Y-79326595D01*
X32637760Y-79202818D01*
X32687450Y-79202600D01*
X32846200Y-79043850D01*
X32846200Y-78394600D01*
X32826200Y-78394600D01*
X32826200Y-78140600D01*
X32846200Y-78140600D01*
X32846200Y-78120600D01*
X33100200Y-78120600D01*
X33100200Y-78140600D01*
X34434450Y-78140600D01*
X34593200Y-77981850D01*
X34596272Y-77967600D01*
X34584012Y-77843118D01*
X34550487Y-77732600D01*
X34761040Y-77732600D01*
X34761040Y-77776028D01*
G37*
G04 #@! TD.AperFunction*
D29*
X36300128Y-74715600D02*
X36313195Y-74848275D01*
X36351895Y-74975852D01*
X36414298Y-75092600D01*
X36351895Y-75209348D01*
X36313195Y-75336925D01*
X36300128Y-75469600D01*
X36300128Y-75985600D01*
X36313195Y-76118275D01*
X36351895Y-76245852D01*
X36414298Y-76362600D01*
X36351895Y-76479348D01*
X36313195Y-76606925D01*
X36313044Y-76608454D01*
X36227107Y-76572857D01*
X36007828Y-76529240D01*
X35800486Y-76529240D01*
X35774658Y-76503412D01*
X35751638Y-76475362D01*
X35639720Y-76383513D01*
X35512033Y-76315263D01*
X35373485Y-76273235D01*
X35265505Y-76262600D01*
X35229400Y-76259044D01*
X35193295Y-76262600D01*
X34550487Y-76262600D01*
X34584012Y-76152082D01*
X34596272Y-76027600D01*
X34593200Y-76013350D01*
X34434450Y-75854600D01*
X33100200Y-75854600D01*
X33100200Y-75874600D01*
X32846200Y-75874600D01*
X32846200Y-75854600D01*
X32826200Y-75854600D01*
X32826200Y-75600600D01*
X32846200Y-75600600D01*
X32846200Y-75580600D01*
X33100200Y-75580600D01*
X33100200Y-75600600D01*
X34434450Y-75600600D01*
X34593200Y-75441850D01*
X34596272Y-75427600D01*
X34584012Y-75303118D01*
X34547702Y-75183420D01*
X34490629Y-75076646D01*
X34544505Y-74975852D01*
X34583205Y-74848275D01*
X34596272Y-74715600D01*
X34596272Y-74592100D01*
X36300128Y-74592100D01*
X36300128Y-74715600D01*
G04 #@! TA.AperFunction,Conductor*
D30*
G36*
X36300128Y-74715600D02*
G01*
X36313195Y-74848275D01*
X36351895Y-74975852D01*
X36414298Y-75092600D01*
X36351895Y-75209348D01*
X36313195Y-75336925D01*
X36300128Y-75469600D01*
X36300128Y-75985600D01*
X36313195Y-76118275D01*
X36351895Y-76245852D01*
X36414298Y-76362600D01*
X36351895Y-76479348D01*
X36313195Y-76606925D01*
X36313044Y-76608454D01*
X36227107Y-76572857D01*
X36007828Y-76529240D01*
X35800486Y-76529240D01*
X35774658Y-76503412D01*
X35751638Y-76475362D01*
X35639720Y-76383513D01*
X35512033Y-76315263D01*
X35373485Y-76273235D01*
X35265505Y-76262600D01*
X35229400Y-76259044D01*
X35193295Y-76262600D01*
X34550487Y-76262600D01*
X34584012Y-76152082D01*
X34596272Y-76027600D01*
X34593200Y-76013350D01*
X34434450Y-75854600D01*
X33100200Y-75854600D01*
X33100200Y-75874600D01*
X32846200Y-75874600D01*
X32846200Y-75854600D01*
X32826200Y-75854600D01*
X32826200Y-75600600D01*
X32846200Y-75600600D01*
X32846200Y-75580600D01*
X33100200Y-75580600D01*
X33100200Y-75600600D01*
X34434450Y-75600600D01*
X34593200Y-75441850D01*
X34596272Y-75427600D01*
X34584012Y-75303118D01*
X34547702Y-75183420D01*
X34490629Y-75076646D01*
X34544505Y-74975852D01*
X34583205Y-74848275D01*
X34596272Y-74715600D01*
X34596272Y-74592100D01*
X36300128Y-74592100D01*
X36300128Y-74715600D01*
G37*
G04 #@! TD.AperFunction*
D29*
X56235500Y-52637200D02*
X56255500Y-52637200D01*
X56255500Y-52891200D01*
X56235500Y-52891200D01*
X56235500Y-53940450D01*
X56394250Y-54099200D01*
X56621000Y-54102272D01*
X56745482Y-54090012D01*
X56865180Y-54053702D01*
X56975494Y-53994737D01*
X57072185Y-53915385D01*
X57151537Y-53818694D01*
X57210502Y-53708380D01*
X57246812Y-53588682D01*
X57259072Y-53464200D01*
X57259065Y-53463211D01*
X58761041Y-54965188D01*
X58761041Y-66671794D01*
X54657859Y-62568613D01*
X54634838Y-62540562D01*
X54522920Y-62448713D01*
X54395233Y-62380463D01*
X54256685Y-62338435D01*
X54148705Y-62327800D01*
X54112600Y-62324244D01*
X54076495Y-62327800D01*
X53226732Y-62327800D01*
X53080120Y-62181188D01*
X52894224Y-62056976D01*
X52687667Y-61971417D01*
X52468388Y-61927800D01*
X52244812Y-61927800D01*
X52025533Y-61971417D01*
X51818976Y-62056976D01*
X51633080Y-62181188D01*
X51474988Y-62339280D01*
X51350776Y-62525176D01*
X51265217Y-62731733D01*
X51221600Y-62951012D01*
X51221600Y-63174588D01*
X51265217Y-63393867D01*
X51350776Y-63600424D01*
X51474988Y-63786320D01*
X51633080Y-63944412D01*
X51818976Y-64068624D01*
X52025533Y-64154183D01*
X52244812Y-64197800D01*
X52468388Y-64197800D01*
X52687667Y-64154183D01*
X52894224Y-64068624D01*
X53080120Y-63944412D01*
X53226732Y-63797800D01*
X53808154Y-63797800D01*
X54446656Y-64436302D01*
X54237465Y-64576080D01*
X54042880Y-64770665D01*
X53889995Y-64999473D01*
X53819223Y-65170331D01*
X53772185Y-65113015D01*
X53675494Y-65033663D01*
X53565180Y-64974698D01*
X53445482Y-64938388D01*
X53321000Y-64926128D01*
X52071000Y-64926128D01*
X51946518Y-64938388D01*
X51826820Y-64974698D01*
X51716506Y-65033663D01*
X51619815Y-65113015D01*
X51540463Y-65209706D01*
X51481498Y-65320020D01*
X51445188Y-65439718D01*
X51432928Y-65564200D01*
X51432928Y-66564200D01*
X51445188Y-66688682D01*
X51481498Y-66808380D01*
X51540463Y-66918694D01*
X51619815Y-67015385D01*
X51679296Y-67064200D01*
X51619815Y-67113015D01*
X51540463Y-67209706D01*
X51481498Y-67320020D01*
X51445188Y-67439718D01*
X51432928Y-67564200D01*
X51436000Y-67778450D01*
X51594750Y-67937200D01*
X52569000Y-67937200D01*
X52569000Y-67917200D01*
X52823000Y-67917200D01*
X52823000Y-67937200D01*
X52843000Y-67937200D01*
X52843000Y-68191200D01*
X52823000Y-68191200D01*
X52823000Y-69040450D01*
X52981750Y-69199200D01*
X53233400Y-69201479D01*
X53233400Y-69952553D01*
X52334826Y-70851128D01*
X51466000Y-70851128D01*
X51341518Y-70863388D01*
X51221820Y-70899698D01*
X51111506Y-70958663D01*
X51014815Y-71038015D01*
X50935463Y-71134706D01*
X50876498Y-71245020D01*
X50840188Y-71364718D01*
X50827928Y-71489200D01*
X50827928Y-72139200D01*
X50840188Y-72263682D01*
X50847929Y-72289200D01*
X50840188Y-72314718D01*
X50827928Y-72439200D01*
X50831000Y-72478450D01*
X50989750Y-72637200D01*
X51071859Y-72637200D01*
X51111506Y-72669737D01*
X51221820Y-72728702D01*
X51338841Y-72764200D01*
X51221820Y-72799698D01*
X51111506Y-72858663D01*
X51071859Y-72891200D01*
X50989750Y-72891200D01*
X50831000Y-73049950D01*
X50827928Y-73089200D01*
X50840188Y-73213682D01*
X50847929Y-73239200D01*
X50840188Y-73264718D01*
X50828691Y-73381452D01*
X50617952Y-73170713D01*
X50350163Y-72991782D01*
X50052612Y-72868532D01*
X49736733Y-72805700D01*
X49414667Y-72805700D01*
X49098788Y-72868532D01*
X49059325Y-72884878D01*
X48227900Y-72053454D01*
X48227900Y-71188401D01*
X48294085Y-71134085D01*
X48373437Y-71037394D01*
X48432402Y-70927080D01*
X48442900Y-70892473D01*
X48453398Y-70927080D01*
X48512363Y-71037394D01*
X48591715Y-71134085D01*
X48688406Y-71213437D01*
X48798720Y-71272402D01*
X48918418Y-71308712D01*
X49042900Y-71320972D01*
X49742900Y-71320972D01*
X49867382Y-71308712D01*
X49987080Y-71272402D01*
X50097394Y-71213437D01*
X50194085Y-71134085D01*
X50273437Y-71037394D01*
X50332402Y-70927080D01*
X50368712Y-70807382D01*
X50380972Y-70682900D01*
X50380972Y-69382900D01*
X50368712Y-69258418D01*
X50332402Y-69138720D01*
X50273437Y-69028406D01*
X50221198Y-68964753D01*
X50231200Y-68863205D01*
X50231200Y-68863204D01*
X50234756Y-68827100D01*
X50231200Y-68790995D01*
X50231200Y-68564200D01*
X51432928Y-68564200D01*
X51445188Y-68688682D01*
X51481498Y-68808380D01*
X51540463Y-68918694D01*
X51619815Y-69015385D01*
X51716506Y-69094737D01*
X51826820Y-69153702D01*
X51946518Y-69190012D01*
X52071000Y-69202272D01*
X52410250Y-69199200D01*
X52569000Y-69040450D01*
X52569000Y-68191200D01*
X51594750Y-68191200D01*
X51436000Y-68349950D01*
X51432928Y-68564200D01*
X50231200Y-68564200D01*
X50231200Y-65699205D01*
X50234756Y-65663100D01*
X50220565Y-65519015D01*
X50214171Y-65497937D01*
X50178537Y-65380467D01*
X50110287Y-65252780D01*
X50018438Y-65140862D01*
X49990387Y-65117841D01*
X49862059Y-64989513D01*
X49839038Y-64961462D01*
X49727120Y-64869613D01*
X49643521Y-64824929D01*
X49651500Y-64816950D01*
X49638758Y-64719523D01*
X49638659Y-64719225D01*
X49642312Y-64707182D01*
X49654572Y-64582700D01*
X49654572Y-64352700D01*
X49642312Y-64228218D01*
X49637908Y-64213700D01*
X49642312Y-64199182D01*
X49654572Y-64074700D01*
X49654572Y-63844700D01*
X49642312Y-63720218D01*
X49638659Y-63708175D01*
X49638758Y-63707877D01*
X49651500Y-63610450D01*
X49565159Y-63524109D01*
X49547037Y-63490206D01*
X49515436Y-63451700D01*
X49547037Y-63413194D01*
X49565159Y-63379291D01*
X49651500Y-63292950D01*
X49638758Y-63195523D01*
X49638659Y-63195225D01*
X49642312Y-63183182D01*
X49654572Y-63058700D01*
X49654572Y-62828700D01*
X49642312Y-62704218D01*
X49637908Y-62689700D01*
X49642312Y-62675182D01*
X49654572Y-62550700D01*
X49654572Y-62320700D01*
X49642312Y-62196218D01*
X49637908Y-62181700D01*
X49642312Y-62167182D01*
X49654572Y-62042700D01*
X49654572Y-61812700D01*
X49642312Y-61688218D01*
X49637908Y-61673700D01*
X49642312Y-61659182D01*
X49654572Y-61534700D01*
X49654572Y-61304700D01*
X49642312Y-61180218D01*
X49637908Y-61165700D01*
X49642312Y-61151182D01*
X49654572Y-61026700D01*
X49654572Y-60796700D01*
X49642312Y-60672218D01*
X49637908Y-60657700D01*
X49642312Y-60643182D01*
X49654572Y-60518700D01*
X49654572Y-60288700D01*
X49642312Y-60164218D01*
X49637908Y-60149700D01*
X49642312Y-60135182D01*
X49654572Y-60010700D01*
X49654572Y-59933865D01*
X54278340Y-59933865D01*
X54345320Y-60173956D01*
X54594348Y-60291056D01*
X54861435Y-60357323D01*
X55136317Y-60370210D01*
X55408433Y-60329222D01*
X55667323Y-60235936D01*
X55783280Y-60173956D01*
X55850260Y-59933865D01*
X55064300Y-59147905D01*
X54278340Y-59933865D01*
X49654572Y-59933865D01*
X49654572Y-59780700D01*
X49642312Y-59656218D01*
X49606002Y-59536520D01*
X49547037Y-59426206D01*
X49467685Y-59329515D01*
X49370994Y-59250163D01*
X49276234Y-59199512D01*
X49411546Y-59064200D01*
X51232928Y-59064200D01*
X51245188Y-59188682D01*
X51281498Y-59308380D01*
X51340463Y-59418694D01*
X51419815Y-59515385D01*
X51516506Y-59594737D01*
X51626820Y-59653702D01*
X51746518Y-59690012D01*
X51871000Y-59702272D01*
X52210250Y-59699200D01*
X52369000Y-59540450D01*
X52369000Y-58691200D01*
X51394750Y-58691200D01*
X51236000Y-58849950D01*
X51232928Y-59064200D01*
X49411546Y-59064200D01*
X51254935Y-57220812D01*
X51281498Y-57308380D01*
X51340463Y-57418694D01*
X51419815Y-57515385D01*
X51479296Y-57564200D01*
X51419815Y-57613015D01*
X51340463Y-57709706D01*
X51281498Y-57820020D01*
X51245188Y-57939718D01*
X51232928Y-58064200D01*
X51236000Y-58278450D01*
X51394750Y-58437200D01*
X52369000Y-58437200D01*
X52369000Y-58417200D01*
X52623000Y-58417200D01*
X52623000Y-58437200D01*
X52643000Y-58437200D01*
X52643000Y-58691200D01*
X52623000Y-58691200D01*
X52623000Y-59540450D01*
X52781750Y-59699200D01*
X53121000Y-59702272D01*
X53245482Y-59690012D01*
X53365180Y-59653702D01*
X53475494Y-59594737D01*
X53572185Y-59515385D01*
X53651537Y-59418694D01*
X53705374Y-59317973D01*
X53796664Y-59571323D01*
X53858644Y-59687280D01*
X54098735Y-59754260D01*
X54884695Y-58968300D01*
X55243905Y-58968300D01*
X56029865Y-59754260D01*
X56269956Y-59687280D01*
X56387056Y-59438252D01*
X56453323Y-59171165D01*
X56466210Y-58896283D01*
X56425222Y-58624167D01*
X56331936Y-58365277D01*
X56269956Y-58249320D01*
X56029865Y-58182340D01*
X55243905Y-58968300D01*
X54884695Y-58968300D01*
X54098735Y-58182340D01*
X53858644Y-58249320D01*
X53756000Y-58467605D01*
X53756000Y-58437198D01*
X53597252Y-58437198D01*
X53756000Y-58278450D01*
X53759072Y-58064200D01*
X53746812Y-57939718D01*
X53710502Y-57820020D01*
X53651537Y-57709706D01*
X53572185Y-57613015D01*
X53512704Y-57564200D01*
X53572185Y-57515385D01*
X53651537Y-57418694D01*
X53710502Y-57308380D01*
X53713287Y-57299200D01*
X53956060Y-57299200D01*
X53969180Y-57318835D01*
X54163765Y-57513420D01*
X54392573Y-57666305D01*
X54468895Y-57697919D01*
X54461277Y-57700664D01*
X54345320Y-57762644D01*
X54278340Y-58002735D01*
X55064300Y-58788695D01*
X55850260Y-58002735D01*
X55783280Y-57762644D01*
X55642857Y-57696613D01*
X55716027Y-57666305D01*
X55944835Y-57513420D01*
X56139420Y-57318835D01*
X56292305Y-57090027D01*
X56397614Y-56835790D01*
X56451300Y-56565892D01*
X56451300Y-56290708D01*
X56397614Y-56020810D01*
X56292305Y-55766573D01*
X56139420Y-55537765D01*
X55944835Y-55343180D01*
X55716027Y-55190295D01*
X55461790Y-55084986D01*
X55191892Y-55031300D01*
X54916708Y-55031300D01*
X54646810Y-55084986D01*
X54392573Y-55190295D01*
X54163765Y-55343180D01*
X53969180Y-55537765D01*
X53816295Y-55766573D01*
X53790354Y-55829200D01*
X53713287Y-55829200D01*
X53710502Y-55820020D01*
X53651537Y-55709706D01*
X53572185Y-55613015D01*
X53475494Y-55533663D01*
X53365180Y-55474698D01*
X53245482Y-55438388D01*
X53121000Y-55426128D01*
X53049619Y-55426128D01*
X53377147Y-55098600D01*
X54158595Y-55098600D01*
X54194700Y-55102156D01*
X54230805Y-55098600D01*
X54338785Y-55087965D01*
X54477333Y-55045937D01*
X54605020Y-54977687D01*
X54716938Y-54885838D01*
X54739958Y-54857788D01*
X55504488Y-54093259D01*
X55596000Y-54102272D01*
X55822750Y-54099200D01*
X55981500Y-53940450D01*
X55981500Y-52891200D01*
X55961500Y-52891200D01*
X55961500Y-52637200D01*
X55981500Y-52637200D01*
X55981500Y-52617200D01*
X56235500Y-52617200D01*
X56235500Y-52637200D01*
G04 #@! TA.AperFunction,Conductor*
D30*
G36*
X56235500Y-52637200D02*
G01*
X56255500Y-52637200D01*
X56255500Y-52891200D01*
X56235500Y-52891200D01*
X56235500Y-53940450D01*
X56394250Y-54099200D01*
X56621000Y-54102272D01*
X56745482Y-54090012D01*
X56865180Y-54053702D01*
X56975494Y-53994737D01*
X57072185Y-53915385D01*
X57151537Y-53818694D01*
X57210502Y-53708380D01*
X57246812Y-53588682D01*
X57259072Y-53464200D01*
X57259065Y-53463211D01*
X58761041Y-54965188D01*
X58761041Y-66671794D01*
X54657859Y-62568613D01*
X54634838Y-62540562D01*
X54522920Y-62448713D01*
X54395233Y-62380463D01*
X54256685Y-62338435D01*
X54148705Y-62327800D01*
X54112600Y-62324244D01*
X54076495Y-62327800D01*
X53226732Y-62327800D01*
X53080120Y-62181188D01*
X52894224Y-62056976D01*
X52687667Y-61971417D01*
X52468388Y-61927800D01*
X52244812Y-61927800D01*
X52025533Y-61971417D01*
X51818976Y-62056976D01*
X51633080Y-62181188D01*
X51474988Y-62339280D01*
X51350776Y-62525176D01*
X51265217Y-62731733D01*
X51221600Y-62951012D01*
X51221600Y-63174588D01*
X51265217Y-63393867D01*
X51350776Y-63600424D01*
X51474988Y-63786320D01*
X51633080Y-63944412D01*
X51818976Y-64068624D01*
X52025533Y-64154183D01*
X52244812Y-64197800D01*
X52468388Y-64197800D01*
X52687667Y-64154183D01*
X52894224Y-64068624D01*
X53080120Y-63944412D01*
X53226732Y-63797800D01*
X53808154Y-63797800D01*
X54446656Y-64436302D01*
X54237465Y-64576080D01*
X54042880Y-64770665D01*
X53889995Y-64999473D01*
X53819223Y-65170331D01*
X53772185Y-65113015D01*
X53675494Y-65033663D01*
X53565180Y-64974698D01*
X53445482Y-64938388D01*
X53321000Y-64926128D01*
X52071000Y-64926128D01*
X51946518Y-64938388D01*
X51826820Y-64974698D01*
X51716506Y-65033663D01*
X51619815Y-65113015D01*
X51540463Y-65209706D01*
X51481498Y-65320020D01*
X51445188Y-65439718D01*
X51432928Y-65564200D01*
X51432928Y-66564200D01*
X51445188Y-66688682D01*
X51481498Y-66808380D01*
X51540463Y-66918694D01*
X51619815Y-67015385D01*
X51679296Y-67064200D01*
X51619815Y-67113015D01*
X51540463Y-67209706D01*
X51481498Y-67320020D01*
X51445188Y-67439718D01*
X51432928Y-67564200D01*
X51436000Y-67778450D01*
X51594750Y-67937200D01*
X52569000Y-67937200D01*
X52569000Y-67917200D01*
X52823000Y-67917200D01*
X52823000Y-67937200D01*
X52843000Y-67937200D01*
X52843000Y-68191200D01*
X52823000Y-68191200D01*
X52823000Y-69040450D01*
X52981750Y-69199200D01*
X53233400Y-69201479D01*
X53233400Y-69952553D01*
X52334826Y-70851128D01*
X51466000Y-70851128D01*
X51341518Y-70863388D01*
X51221820Y-70899698D01*
X51111506Y-70958663D01*
X51014815Y-71038015D01*
X50935463Y-71134706D01*
X50876498Y-71245020D01*
X50840188Y-71364718D01*
X50827928Y-71489200D01*
X50827928Y-72139200D01*
X50840188Y-72263682D01*
X50847929Y-72289200D01*
X50840188Y-72314718D01*
X50827928Y-72439200D01*
X50831000Y-72478450D01*
X50989750Y-72637200D01*
X51071859Y-72637200D01*
X51111506Y-72669737D01*
X51221820Y-72728702D01*
X51338841Y-72764200D01*
X51221820Y-72799698D01*
X51111506Y-72858663D01*
X51071859Y-72891200D01*
X50989750Y-72891200D01*
X50831000Y-73049950D01*
X50827928Y-73089200D01*
X50840188Y-73213682D01*
X50847929Y-73239200D01*
X50840188Y-73264718D01*
X50828691Y-73381452D01*
X50617952Y-73170713D01*
X50350163Y-72991782D01*
X50052612Y-72868532D01*
X49736733Y-72805700D01*
X49414667Y-72805700D01*
X49098788Y-72868532D01*
X49059325Y-72884878D01*
X48227900Y-72053454D01*
X48227900Y-71188401D01*
X48294085Y-71134085D01*
X48373437Y-71037394D01*
X48432402Y-70927080D01*
X48442900Y-70892473D01*
X48453398Y-70927080D01*
X48512363Y-71037394D01*
X48591715Y-71134085D01*
X48688406Y-71213437D01*
X48798720Y-71272402D01*
X48918418Y-71308712D01*
X49042900Y-71320972D01*
X49742900Y-71320972D01*
X49867382Y-71308712D01*
X49987080Y-71272402D01*
X50097394Y-71213437D01*
X50194085Y-71134085D01*
X50273437Y-71037394D01*
X50332402Y-70927080D01*
X50368712Y-70807382D01*
X50380972Y-70682900D01*
X50380972Y-69382900D01*
X50368712Y-69258418D01*
X50332402Y-69138720D01*
X50273437Y-69028406D01*
X50221198Y-68964753D01*
X50231200Y-68863205D01*
X50231200Y-68863204D01*
X50234756Y-68827100D01*
X50231200Y-68790995D01*
X50231200Y-68564200D01*
X51432928Y-68564200D01*
X51445188Y-68688682D01*
X51481498Y-68808380D01*
X51540463Y-68918694D01*
X51619815Y-69015385D01*
X51716506Y-69094737D01*
X51826820Y-69153702D01*
X51946518Y-69190012D01*
X52071000Y-69202272D01*
X52410250Y-69199200D01*
X52569000Y-69040450D01*
X52569000Y-68191200D01*
X51594750Y-68191200D01*
X51436000Y-68349950D01*
X51432928Y-68564200D01*
X50231200Y-68564200D01*
X50231200Y-65699205D01*
X50234756Y-65663100D01*
X50220565Y-65519015D01*
X50214171Y-65497937D01*
X50178537Y-65380467D01*
X50110287Y-65252780D01*
X50018438Y-65140862D01*
X49990387Y-65117841D01*
X49862059Y-64989513D01*
X49839038Y-64961462D01*
X49727120Y-64869613D01*
X49643521Y-64824929D01*
X49651500Y-64816950D01*
X49638758Y-64719523D01*
X49638659Y-64719225D01*
X49642312Y-64707182D01*
X49654572Y-64582700D01*
X49654572Y-64352700D01*
X49642312Y-64228218D01*
X49637908Y-64213700D01*
X49642312Y-64199182D01*
X49654572Y-64074700D01*
X49654572Y-63844700D01*
X49642312Y-63720218D01*
X49638659Y-63708175D01*
X49638758Y-63707877D01*
X49651500Y-63610450D01*
X49565159Y-63524109D01*
X49547037Y-63490206D01*
X49515436Y-63451700D01*
X49547037Y-63413194D01*
X49565159Y-63379291D01*
X49651500Y-63292950D01*
X49638758Y-63195523D01*
X49638659Y-63195225D01*
X49642312Y-63183182D01*
X49654572Y-63058700D01*
X49654572Y-62828700D01*
X49642312Y-62704218D01*
X49637908Y-62689700D01*
X49642312Y-62675182D01*
X49654572Y-62550700D01*
X49654572Y-62320700D01*
X49642312Y-62196218D01*
X49637908Y-62181700D01*
X49642312Y-62167182D01*
X49654572Y-62042700D01*
X49654572Y-61812700D01*
X49642312Y-61688218D01*
X49637908Y-61673700D01*
X49642312Y-61659182D01*
X49654572Y-61534700D01*
X49654572Y-61304700D01*
X49642312Y-61180218D01*
X49637908Y-61165700D01*
X49642312Y-61151182D01*
X49654572Y-61026700D01*
X49654572Y-60796700D01*
X49642312Y-60672218D01*
X49637908Y-60657700D01*
X49642312Y-60643182D01*
X49654572Y-60518700D01*
X49654572Y-60288700D01*
X49642312Y-60164218D01*
X49637908Y-60149700D01*
X49642312Y-60135182D01*
X49654572Y-60010700D01*
X49654572Y-59933865D01*
X54278340Y-59933865D01*
X54345320Y-60173956D01*
X54594348Y-60291056D01*
X54861435Y-60357323D01*
X55136317Y-60370210D01*
X55408433Y-60329222D01*
X55667323Y-60235936D01*
X55783280Y-60173956D01*
X55850260Y-59933865D01*
X55064300Y-59147905D01*
X54278340Y-59933865D01*
X49654572Y-59933865D01*
X49654572Y-59780700D01*
X49642312Y-59656218D01*
X49606002Y-59536520D01*
X49547037Y-59426206D01*
X49467685Y-59329515D01*
X49370994Y-59250163D01*
X49276234Y-59199512D01*
X49411546Y-59064200D01*
X51232928Y-59064200D01*
X51245188Y-59188682D01*
X51281498Y-59308380D01*
X51340463Y-59418694D01*
X51419815Y-59515385D01*
X51516506Y-59594737D01*
X51626820Y-59653702D01*
X51746518Y-59690012D01*
X51871000Y-59702272D01*
X52210250Y-59699200D01*
X52369000Y-59540450D01*
X52369000Y-58691200D01*
X51394750Y-58691200D01*
X51236000Y-58849950D01*
X51232928Y-59064200D01*
X49411546Y-59064200D01*
X51254935Y-57220812D01*
X51281498Y-57308380D01*
X51340463Y-57418694D01*
X51419815Y-57515385D01*
X51479296Y-57564200D01*
X51419815Y-57613015D01*
X51340463Y-57709706D01*
X51281498Y-57820020D01*
X51245188Y-57939718D01*
X51232928Y-58064200D01*
X51236000Y-58278450D01*
X51394750Y-58437200D01*
X52369000Y-58437200D01*
X52369000Y-58417200D01*
X52623000Y-58417200D01*
X52623000Y-58437200D01*
X52643000Y-58437200D01*
X52643000Y-58691200D01*
X52623000Y-58691200D01*
X52623000Y-59540450D01*
X52781750Y-59699200D01*
X53121000Y-59702272D01*
X53245482Y-59690012D01*
X53365180Y-59653702D01*
X53475494Y-59594737D01*
X53572185Y-59515385D01*
X53651537Y-59418694D01*
X53705374Y-59317973D01*
X53796664Y-59571323D01*
X53858644Y-59687280D01*
X54098735Y-59754260D01*
X54884695Y-58968300D01*
X55243905Y-58968300D01*
X56029865Y-59754260D01*
X56269956Y-59687280D01*
X56387056Y-59438252D01*
X56453323Y-59171165D01*
X56466210Y-58896283D01*
X56425222Y-58624167D01*
X56331936Y-58365277D01*
X56269956Y-58249320D01*
X56029865Y-58182340D01*
X55243905Y-58968300D01*
X54884695Y-58968300D01*
X54098735Y-58182340D01*
X53858644Y-58249320D01*
X53756000Y-58467605D01*
X53756000Y-58437198D01*
X53597252Y-58437198D01*
X53756000Y-58278450D01*
X53759072Y-58064200D01*
X53746812Y-57939718D01*
X53710502Y-57820020D01*
X53651537Y-57709706D01*
X53572185Y-57613015D01*
X53512704Y-57564200D01*
X53572185Y-57515385D01*
X53651537Y-57418694D01*
X53710502Y-57308380D01*
X53713287Y-57299200D01*
X53956060Y-57299200D01*
X53969180Y-57318835D01*
X54163765Y-57513420D01*
X54392573Y-57666305D01*
X54468895Y-57697919D01*
X54461277Y-57700664D01*
X54345320Y-57762644D01*
X54278340Y-58002735D01*
X55064300Y-58788695D01*
X55850260Y-58002735D01*
X55783280Y-57762644D01*
X55642857Y-57696613D01*
X55716027Y-57666305D01*
X55944835Y-57513420D01*
X56139420Y-57318835D01*
X56292305Y-57090027D01*
X56397614Y-56835790D01*
X56451300Y-56565892D01*
X56451300Y-56290708D01*
X56397614Y-56020810D01*
X56292305Y-55766573D01*
X56139420Y-55537765D01*
X55944835Y-55343180D01*
X55716027Y-55190295D01*
X55461790Y-55084986D01*
X55191892Y-55031300D01*
X54916708Y-55031300D01*
X54646810Y-55084986D01*
X54392573Y-55190295D01*
X54163765Y-55343180D01*
X53969180Y-55537765D01*
X53816295Y-55766573D01*
X53790354Y-55829200D01*
X53713287Y-55829200D01*
X53710502Y-55820020D01*
X53651537Y-55709706D01*
X53572185Y-55613015D01*
X53475494Y-55533663D01*
X53365180Y-55474698D01*
X53245482Y-55438388D01*
X53121000Y-55426128D01*
X53049619Y-55426128D01*
X53377147Y-55098600D01*
X54158595Y-55098600D01*
X54194700Y-55102156D01*
X54230805Y-55098600D01*
X54338785Y-55087965D01*
X54477333Y-55045937D01*
X54605020Y-54977687D01*
X54716938Y-54885838D01*
X54739958Y-54857788D01*
X55504488Y-54093259D01*
X55596000Y-54102272D01*
X55822750Y-54099200D01*
X55981500Y-53940450D01*
X55981500Y-52891200D01*
X55961500Y-52891200D01*
X55961500Y-52637200D01*
X55981500Y-52637200D01*
X55981500Y-52617200D01*
X56235500Y-52617200D01*
X56235500Y-52637200D01*
G37*
G04 #@! TD.AperFunction*
D29*
X57596812Y-67586459D02*
X57596812Y-70749499D01*
X57409413Y-70671876D01*
X57069385Y-70604240D01*
X56722695Y-70604240D01*
X56382667Y-70671876D01*
X56062367Y-70804548D01*
X55774105Y-70997159D01*
X55528959Y-71242305D01*
X55364061Y-71489091D01*
X55351812Y-71364718D01*
X55315502Y-71245020D01*
X55256537Y-71134706D01*
X55177185Y-71038015D01*
X55080494Y-70958663D01*
X54970180Y-70899698D01*
X54850482Y-70863388D01*
X54726000Y-70851128D01*
X54413719Y-70851128D01*
X54462597Y-70802250D01*
X54490637Y-70779238D01*
X54513650Y-70751197D01*
X54513653Y-70751194D01*
X54578748Y-70671876D01*
X54582487Y-70667320D01*
X54650737Y-70539633D01*
X54692765Y-70401085D01*
X54703400Y-70293105D01*
X54703400Y-70293096D01*
X54706955Y-70257001D01*
X54703400Y-70220906D01*
X54703400Y-69532727D01*
X54935135Y-69590223D01*
X55210017Y-69603110D01*
X55482133Y-69562122D01*
X55741023Y-69468836D01*
X55856980Y-69406856D01*
X55923960Y-69166765D01*
X55138000Y-68380805D01*
X55123858Y-68394948D01*
X54944253Y-68215343D01*
X54958395Y-68201200D01*
X55317605Y-68201200D01*
X56103565Y-68987160D01*
X56343656Y-68920180D01*
X56460756Y-68671152D01*
X56527023Y-68404065D01*
X56539910Y-68129183D01*
X56498922Y-67857067D01*
X56405636Y-67598177D01*
X56343656Y-67482220D01*
X56103565Y-67415240D01*
X55317605Y-68201200D01*
X54958395Y-68201200D01*
X54944253Y-68187058D01*
X55123858Y-68007453D01*
X55138000Y-68021595D01*
X55923960Y-67235635D01*
X55856980Y-66995544D01*
X55716557Y-66929513D01*
X55789727Y-66899205D01*
X56018535Y-66746320D01*
X56213120Y-66551735D01*
X56352897Y-66342544D01*
X57596812Y-67586459D01*
G04 #@! TA.AperFunction,Conductor*
D30*
G36*
X57596812Y-67586459D02*
G01*
X57596812Y-70749499D01*
X57409413Y-70671876D01*
X57069385Y-70604240D01*
X56722695Y-70604240D01*
X56382667Y-70671876D01*
X56062367Y-70804548D01*
X55774105Y-70997159D01*
X55528959Y-71242305D01*
X55364061Y-71489091D01*
X55351812Y-71364718D01*
X55315502Y-71245020D01*
X55256537Y-71134706D01*
X55177185Y-71038015D01*
X55080494Y-70958663D01*
X54970180Y-70899698D01*
X54850482Y-70863388D01*
X54726000Y-70851128D01*
X54413719Y-70851128D01*
X54462597Y-70802250D01*
X54490637Y-70779238D01*
X54513650Y-70751197D01*
X54513653Y-70751194D01*
X54578748Y-70671876D01*
X54582487Y-70667320D01*
X54650737Y-70539633D01*
X54692765Y-70401085D01*
X54703400Y-70293105D01*
X54703400Y-70293096D01*
X54706955Y-70257001D01*
X54703400Y-70220906D01*
X54703400Y-69532727D01*
X54935135Y-69590223D01*
X55210017Y-69603110D01*
X55482133Y-69562122D01*
X55741023Y-69468836D01*
X55856980Y-69406856D01*
X55923960Y-69166765D01*
X55138000Y-68380805D01*
X55123858Y-68394948D01*
X54944253Y-68215343D01*
X54958395Y-68201200D01*
X55317605Y-68201200D01*
X56103565Y-68987160D01*
X56343656Y-68920180D01*
X56460756Y-68671152D01*
X56527023Y-68404065D01*
X56539910Y-68129183D01*
X56498922Y-67857067D01*
X56405636Y-67598177D01*
X56343656Y-67482220D01*
X56103565Y-67415240D01*
X55317605Y-68201200D01*
X54958395Y-68201200D01*
X54944253Y-68187058D01*
X55123858Y-68007453D01*
X55138000Y-68021595D01*
X55923960Y-67235635D01*
X55856980Y-66995544D01*
X55716557Y-66929513D01*
X55789727Y-66899205D01*
X56018535Y-66746320D01*
X56213120Y-66551735D01*
X56352897Y-66342544D01*
X57596812Y-67586459D01*
G37*
G04 #@! TD.AperFunction*
D29*
X39764018Y-66224512D02*
X39888500Y-66236772D01*
X40888500Y-66236772D01*
X40907277Y-66234923D01*
X40905428Y-66253700D01*
X40905428Y-67253700D01*
X40917688Y-67378182D01*
X40953998Y-67497880D01*
X41012963Y-67608194D01*
X41045012Y-67647246D01*
X41028117Y-67688033D01*
X40984500Y-67907312D01*
X40984500Y-68130888D01*
X40998992Y-68203745D01*
X39335281Y-66540034D01*
X39399524Y-66513424D01*
X39585420Y-66389212D01*
X39743512Y-66231120D01*
X39750639Y-66220454D01*
X39764018Y-66224512D01*
G04 #@! TA.AperFunction,Conductor*
D30*
G36*
X39764018Y-66224512D02*
G01*
X39888500Y-66236772D01*
X40888500Y-66236772D01*
X40907277Y-66234923D01*
X40905428Y-66253700D01*
X40905428Y-67253700D01*
X40917688Y-67378182D01*
X40953998Y-67497880D01*
X41012963Y-67608194D01*
X41045012Y-67647246D01*
X41028117Y-67688033D01*
X40984500Y-67907312D01*
X40984500Y-68130888D01*
X40998992Y-68203745D01*
X39335281Y-66540034D01*
X39399524Y-66513424D01*
X39585420Y-66389212D01*
X39743512Y-66231120D01*
X39750639Y-66220454D01*
X39764018Y-66224512D01*
G37*
G04 #@! TD.AperFunction*
D29*
X34791399Y-53747946D02*
X34756700Y-53922389D01*
X34756700Y-54195211D01*
X34809925Y-54462789D01*
X34914329Y-54714843D01*
X35065901Y-54941686D01*
X35258814Y-55134599D01*
X35485657Y-55286171D01*
X35737711Y-55390575D01*
X36005289Y-55443800D01*
X36278111Y-55443800D01*
X36475900Y-55404457D01*
X36475901Y-57593143D01*
X36278111Y-57553800D01*
X36005289Y-57553800D01*
X35737711Y-57607025D01*
X35485657Y-57711429D01*
X35258814Y-57863001D01*
X35065901Y-58055914D01*
X34914329Y-58282757D01*
X34809925Y-58534811D01*
X34798466Y-58592416D01*
X34697250Y-58491200D01*
X33723000Y-58491200D01*
X33723000Y-58511200D01*
X33469000Y-58511200D01*
X33469000Y-58491200D01*
X33449000Y-58491200D01*
X33449000Y-58237200D01*
X33469000Y-58237200D01*
X33469000Y-57387950D01*
X33723000Y-57387950D01*
X33723000Y-58237200D01*
X34697250Y-58237200D01*
X34856000Y-58078450D01*
X34859072Y-57864200D01*
X34846812Y-57739718D01*
X34810502Y-57620020D01*
X34751537Y-57509706D01*
X34672185Y-57413015D01*
X34575494Y-57333663D01*
X34465180Y-57274698D01*
X34345482Y-57238388D01*
X34221000Y-57226128D01*
X33881750Y-57229200D01*
X33723000Y-57387950D01*
X33469000Y-57387950D01*
X33310250Y-57229200D01*
X32971000Y-57226128D01*
X32874900Y-57235593D01*
X32874900Y-51831446D01*
X34791399Y-53747946D01*
G04 #@! TA.AperFunction,Conductor*
D30*
G36*
X34791399Y-53747946D02*
G01*
X34756700Y-53922389D01*
X34756700Y-54195211D01*
X34809925Y-54462789D01*
X34914329Y-54714843D01*
X35065901Y-54941686D01*
X35258814Y-55134599D01*
X35485657Y-55286171D01*
X35737711Y-55390575D01*
X36005289Y-55443800D01*
X36278111Y-55443800D01*
X36475900Y-55404457D01*
X36475901Y-57593143D01*
X36278111Y-57553800D01*
X36005289Y-57553800D01*
X35737711Y-57607025D01*
X35485657Y-57711429D01*
X35258814Y-57863001D01*
X35065901Y-58055914D01*
X34914329Y-58282757D01*
X34809925Y-58534811D01*
X34798466Y-58592416D01*
X34697250Y-58491200D01*
X33723000Y-58491200D01*
X33723000Y-58511200D01*
X33469000Y-58511200D01*
X33469000Y-58491200D01*
X33449000Y-58491200D01*
X33449000Y-58237200D01*
X33469000Y-58237200D01*
X33469000Y-57387950D01*
X33723000Y-57387950D01*
X33723000Y-58237200D01*
X34697250Y-58237200D01*
X34856000Y-58078450D01*
X34859072Y-57864200D01*
X34846812Y-57739718D01*
X34810502Y-57620020D01*
X34751537Y-57509706D01*
X34672185Y-57413015D01*
X34575494Y-57333663D01*
X34465180Y-57274698D01*
X34345482Y-57238388D01*
X34221000Y-57226128D01*
X33881750Y-57229200D01*
X33723000Y-57387950D01*
X33469000Y-57387950D01*
X33310250Y-57229200D01*
X32971000Y-57226128D01*
X32874900Y-57235593D01*
X32874900Y-51831446D01*
X34791399Y-53747946D01*
G37*
G04 #@! TD.AperFunction*
D29*
X40967500Y-46661850D02*
X41126250Y-46820600D01*
X42100500Y-46820600D01*
X42100500Y-46800600D01*
X42354500Y-46800600D01*
X42354500Y-46820600D01*
X43328750Y-46820600D01*
X43487500Y-46661850D01*
X43487654Y-46651100D01*
X46443454Y-46651100D01*
X46899738Y-47107384D01*
X46766311Y-47133925D01*
X46514257Y-47238329D01*
X46287414Y-47389901D01*
X46094501Y-47582814D01*
X45942929Y-47809657D01*
X45838525Y-48061711D01*
X45808511Y-48212600D01*
X43444787Y-48212600D01*
X43442002Y-48203420D01*
X43383037Y-48093106D01*
X43303685Y-47996415D01*
X43244204Y-47947600D01*
X43303685Y-47898785D01*
X43383037Y-47802094D01*
X43442002Y-47691780D01*
X43478312Y-47572082D01*
X43490572Y-47447600D01*
X43487500Y-47233350D01*
X43328750Y-47074600D01*
X42354500Y-47074600D01*
X42354500Y-47094600D01*
X42100500Y-47094600D01*
X42100500Y-47074600D01*
X41126250Y-47074600D01*
X40967500Y-47233350D01*
X40964428Y-47447600D01*
X40976688Y-47572082D01*
X41012998Y-47691780D01*
X41071963Y-47802094D01*
X41151315Y-47898785D01*
X41210796Y-47947600D01*
X41151315Y-47996415D01*
X41071963Y-48093106D01*
X41012998Y-48203420D01*
X40976688Y-48323118D01*
X40964428Y-48447600D01*
X40964428Y-49447600D01*
X40976688Y-49572082D01*
X41012998Y-49691780D01*
X41071963Y-49802094D01*
X41151315Y-49898785D01*
X41170646Y-49914650D01*
X41140563Y-49951306D01*
X41081598Y-50061620D01*
X41045288Y-50181318D01*
X41033028Y-50305800D01*
X41036100Y-50520050D01*
X41194850Y-50678800D01*
X42169100Y-50678800D01*
X42169100Y-50658800D01*
X42423100Y-50658800D01*
X42423100Y-50678800D01*
X43397350Y-50678800D01*
X43556100Y-50520050D01*
X43559172Y-50305800D01*
X43546912Y-50181318D01*
X43510602Y-50061620D01*
X43451637Y-49951306D01*
X43372285Y-49854615D01*
X43352954Y-49838750D01*
X43383037Y-49802094D01*
X43442002Y-49691780D01*
X43444787Y-49682600D01*
X46498586Y-49682600D01*
X46514257Y-49693071D01*
X46766311Y-49797475D01*
X47033889Y-49850700D01*
X47306711Y-49850700D01*
X47385881Y-49834952D01*
X45950434Y-51270400D01*
X43558664Y-51270400D01*
X43556100Y-51091550D01*
X43397350Y-50932800D01*
X42423100Y-50932800D01*
X42423100Y-50952800D01*
X42169100Y-50952800D01*
X42169100Y-50932800D01*
X41194850Y-50932800D01*
X41036100Y-51091550D01*
X41033028Y-51305800D01*
X41045288Y-51430282D01*
X41054000Y-51459003D01*
X41024562Y-51483162D01*
X41001541Y-51511213D01*
X40876608Y-51636146D01*
X40848563Y-51659162D01*
X40756714Y-51771080D01*
X40702779Y-51871985D01*
X40688464Y-51898767D01*
X40646435Y-52037315D01*
X40632244Y-52181400D01*
X40635801Y-52217515D01*
X40635800Y-53326900D01*
X40628695Y-53327600D01*
X39372094Y-53327600D01*
X39335999Y-53324045D01*
X39299904Y-53327600D01*
X39299895Y-53327600D01*
X39191915Y-53338235D01*
X39053367Y-53380263D01*
X38925680Y-53448513D01*
X38813762Y-53540362D01*
X38790746Y-53568407D01*
X37945900Y-54413254D01*
X37945900Y-53650205D01*
X37949456Y-53614100D01*
X37935265Y-53470014D01*
X37920059Y-53419887D01*
X37893237Y-53331467D01*
X37824987Y-53203780D01*
X37781017Y-53150203D01*
X37756153Y-53119906D01*
X37756150Y-53119903D01*
X37733137Y-53091862D01*
X37705097Y-53068850D01*
X35183500Y-50547254D01*
X35183500Y-50339912D01*
X35139883Y-50120633D01*
X35054324Y-49914076D01*
X34930112Y-49728180D01*
X34793572Y-49591640D01*
X34793572Y-48804500D01*
X36575728Y-48804500D01*
X36575728Y-49069800D01*
X36587988Y-49194282D01*
X36624298Y-49313980D01*
X36683263Y-49424294D01*
X36762615Y-49520985D01*
X36859306Y-49600337D01*
X36969620Y-49659302D01*
X37089318Y-49695612D01*
X37213800Y-49707872D01*
X38513800Y-49707872D01*
X38638282Y-49695612D01*
X38757980Y-49659302D01*
X38868294Y-49600337D01*
X38964985Y-49520985D01*
X39044337Y-49424294D01*
X39103302Y-49313980D01*
X39139612Y-49194282D01*
X39151872Y-49069800D01*
X39151872Y-48369800D01*
X39139612Y-48245318D01*
X39103302Y-48125620D01*
X39044337Y-48015306D01*
X38964985Y-47918615D01*
X38868294Y-47839263D01*
X38757980Y-47780298D01*
X38723373Y-47769800D01*
X38757980Y-47759302D01*
X38868294Y-47700337D01*
X38964985Y-47620985D01*
X39044337Y-47524294D01*
X39103302Y-47413980D01*
X39139612Y-47294282D01*
X39151872Y-47169800D01*
X39151872Y-46651100D01*
X40967346Y-46651100D01*
X40967500Y-46661850D01*
G04 #@! TA.AperFunction,Conductor*
D30*
G36*
X40967500Y-46661850D02*
G01*
X41126250Y-46820600D01*
X42100500Y-46820600D01*
X42100500Y-46800600D01*
X42354500Y-46800600D01*
X42354500Y-46820600D01*
X43328750Y-46820600D01*
X43487500Y-46661850D01*
X43487654Y-46651100D01*
X46443454Y-46651100D01*
X46899738Y-47107384D01*
X46766311Y-47133925D01*
X46514257Y-47238329D01*
X46287414Y-47389901D01*
X46094501Y-47582814D01*
X45942929Y-47809657D01*
X45838525Y-48061711D01*
X45808511Y-48212600D01*
X43444787Y-48212600D01*
X43442002Y-48203420D01*
X43383037Y-48093106D01*
X43303685Y-47996415D01*
X43244204Y-47947600D01*
X43303685Y-47898785D01*
X43383037Y-47802094D01*
X43442002Y-47691780D01*
X43478312Y-47572082D01*
X43490572Y-47447600D01*
X43487500Y-47233350D01*
X43328750Y-47074600D01*
X42354500Y-47074600D01*
X42354500Y-47094600D01*
X42100500Y-47094600D01*
X42100500Y-47074600D01*
X41126250Y-47074600D01*
X40967500Y-47233350D01*
X40964428Y-47447600D01*
X40976688Y-47572082D01*
X41012998Y-47691780D01*
X41071963Y-47802094D01*
X41151315Y-47898785D01*
X41210796Y-47947600D01*
X41151315Y-47996415D01*
X41071963Y-48093106D01*
X41012998Y-48203420D01*
X40976688Y-48323118D01*
X40964428Y-48447600D01*
X40964428Y-49447600D01*
X40976688Y-49572082D01*
X41012998Y-49691780D01*
X41071963Y-49802094D01*
X41151315Y-49898785D01*
X41170646Y-49914650D01*
X41140563Y-49951306D01*
X41081598Y-50061620D01*
X41045288Y-50181318D01*
X41033028Y-50305800D01*
X41036100Y-50520050D01*
X41194850Y-50678800D01*
X42169100Y-50678800D01*
X42169100Y-50658800D01*
X42423100Y-50658800D01*
X42423100Y-50678800D01*
X43397350Y-50678800D01*
X43556100Y-50520050D01*
X43559172Y-50305800D01*
X43546912Y-50181318D01*
X43510602Y-50061620D01*
X43451637Y-49951306D01*
X43372285Y-49854615D01*
X43352954Y-49838750D01*
X43383037Y-49802094D01*
X43442002Y-49691780D01*
X43444787Y-49682600D01*
X46498586Y-49682600D01*
X46514257Y-49693071D01*
X46766311Y-49797475D01*
X47033889Y-49850700D01*
X47306711Y-49850700D01*
X47385881Y-49834952D01*
X45950434Y-51270400D01*
X43558664Y-51270400D01*
X43556100Y-51091550D01*
X43397350Y-50932800D01*
X42423100Y-50932800D01*
X42423100Y-50952800D01*
X42169100Y-50952800D01*
X42169100Y-50932800D01*
X41194850Y-50932800D01*
X41036100Y-51091550D01*
X41033028Y-51305800D01*
X41045288Y-51430282D01*
X41054000Y-51459003D01*
X41024562Y-51483162D01*
X41001541Y-51511213D01*
X40876608Y-51636146D01*
X40848563Y-51659162D01*
X40756714Y-51771080D01*
X40702779Y-51871985D01*
X40688464Y-51898767D01*
X40646435Y-52037315D01*
X40632244Y-52181400D01*
X40635801Y-52217515D01*
X40635800Y-53326900D01*
X40628695Y-53327600D01*
X39372094Y-53327600D01*
X39335999Y-53324045D01*
X39299904Y-53327600D01*
X39299895Y-53327600D01*
X39191915Y-53338235D01*
X39053367Y-53380263D01*
X38925680Y-53448513D01*
X38813762Y-53540362D01*
X38790746Y-53568407D01*
X37945900Y-54413254D01*
X37945900Y-53650205D01*
X37949456Y-53614100D01*
X37935265Y-53470014D01*
X37920059Y-53419887D01*
X37893237Y-53331467D01*
X37824987Y-53203780D01*
X37781017Y-53150203D01*
X37756153Y-53119906D01*
X37756150Y-53119903D01*
X37733137Y-53091862D01*
X37705097Y-53068850D01*
X35183500Y-50547254D01*
X35183500Y-50339912D01*
X35139883Y-50120633D01*
X35054324Y-49914076D01*
X34930112Y-49728180D01*
X34793572Y-49591640D01*
X34793572Y-48804500D01*
X36575728Y-48804500D01*
X36575728Y-49069800D01*
X36587988Y-49194282D01*
X36624298Y-49313980D01*
X36683263Y-49424294D01*
X36762615Y-49520985D01*
X36859306Y-49600337D01*
X36969620Y-49659302D01*
X37089318Y-49695612D01*
X37213800Y-49707872D01*
X38513800Y-49707872D01*
X38638282Y-49695612D01*
X38757980Y-49659302D01*
X38868294Y-49600337D01*
X38964985Y-49520985D01*
X39044337Y-49424294D01*
X39103302Y-49313980D01*
X39139612Y-49194282D01*
X39151872Y-49069800D01*
X39151872Y-48369800D01*
X39139612Y-48245318D01*
X39103302Y-48125620D01*
X39044337Y-48015306D01*
X38964985Y-47918615D01*
X38868294Y-47839263D01*
X38757980Y-47780298D01*
X38723373Y-47769800D01*
X38757980Y-47759302D01*
X38868294Y-47700337D01*
X38964985Y-47620985D01*
X39044337Y-47524294D01*
X39103302Y-47413980D01*
X39139612Y-47294282D01*
X39151872Y-47169800D01*
X39151872Y-46651100D01*
X40967346Y-46651100D01*
X40967500Y-46661850D01*
G37*
G04 #@! TD.AperFunction*
D29*
X36368241Y-47313987D02*
X36385076Y-47334500D01*
X34688450Y-47334500D01*
X34631750Y-47277800D01*
X33657500Y-47277800D01*
X33657500Y-47297800D01*
X33403500Y-47297800D01*
X33403500Y-47277800D01*
X33383500Y-47277800D01*
X33383500Y-47085400D01*
X36139654Y-47085400D01*
X36368241Y-47313987D01*
G04 #@! TA.AperFunction,Conductor*
D30*
G36*
X36368241Y-47313987D02*
G01*
X36385076Y-47334500D01*
X34688450Y-47334500D01*
X34631750Y-47277800D01*
X33657500Y-47277800D01*
X33657500Y-47297800D01*
X33403500Y-47297800D01*
X33403500Y-47277800D01*
X33383500Y-47277800D01*
X33383500Y-47085400D01*
X36139654Y-47085400D01*
X36368241Y-47313987D01*
G37*
G04 #@! TD.AperFunction*
M02*
