G04 #@! TF.GenerationSoftware,KiCad,Pcbnew,5.1.7-a382d34a8~88~ubuntu18.04.1*
G04 #@! TF.CreationDate,2022-03-02T17:55:55+05:30*
G04 #@! TF.ProjectId,WaterTank_module_v1,57617465-7254-4616-9e6b-5f6d6f64756c,rev?*
G04 #@! TF.SameCoordinates,Original*
G04 #@! TF.FileFunction,Other,User*
%FSLAX46Y46*%
G04 Gerber Fmt 4.6, Leading zero omitted, Abs format (unit mm)*
G04 Created by KiCad (PCBNEW 5.1.7-a382d34a8~88~ubuntu18.04.1) date 2022-03-02 17:55:55*
%MOMM*%
%LPD*%
G01*
G04 APERTURE LIST*
%ADD10C,0.050000*%
G04 APERTURE END LIST*
D10*
X34096040Y-85364240D02*
X34096040Y-88964240D01*
X50396040Y-85364240D02*
X34096040Y-85364240D01*
X50396040Y-88964240D02*
X50396040Y-85364240D01*
X34096040Y-88964240D02*
X50396040Y-88964240D01*
X28541500Y-89155900D02*
X24041500Y-89155900D01*
X24041500Y-89155900D02*
X24041500Y-86855900D01*
X24041500Y-86855900D02*
X28541500Y-86855900D01*
X28541500Y-86855900D02*
X28541500Y-89155900D01*
X57596040Y-83141000D02*
X51996040Y-83141000D01*
X57996040Y-83541000D02*
X57596040Y-83141000D01*
X58796040Y-83541000D02*
X57996040Y-83541000D01*
X58796040Y-85541000D02*
X58796040Y-83541000D01*
X59196040Y-85941000D02*
X58796040Y-85541000D01*
X59196040Y-87541000D02*
X59196040Y-85941000D01*
X58796040Y-87941000D02*
X59196040Y-87541000D01*
X58796040Y-88341000D02*
X58796040Y-87941000D01*
X59196040Y-88741000D02*
X58796040Y-88341000D01*
X59196040Y-89541000D02*
X59196040Y-88741000D01*
X50396040Y-89541000D02*
X59196040Y-89541000D01*
X50396040Y-88741000D02*
X50396040Y-89541000D01*
X50796040Y-88341000D02*
X50396040Y-88741000D01*
X50796040Y-87941000D02*
X50796040Y-88341000D01*
X50396040Y-87541000D02*
X50796040Y-87941000D01*
X50396040Y-85941000D02*
X50396040Y-87541000D01*
X50796040Y-85541000D02*
X50396040Y-85941000D01*
X50796040Y-83541000D02*
X50796040Y-85541000D01*
X51596040Y-83541000D02*
X50796040Y-83541000D01*
X51996040Y-83141000D02*
X51596040Y-83541000D01*
X31207800Y-57754800D02*
X32967800Y-57754800D01*
X31207800Y-61154800D02*
X31207800Y-57754800D01*
X32967800Y-61154800D02*
X31207800Y-61154800D01*
X32967800Y-57754800D02*
X32967800Y-61154800D01*
X29127000Y-89270000D02*
X32727000Y-89270000D01*
X32727000Y-89270000D02*
X32727000Y-85670000D01*
X32727000Y-85670000D02*
X29127000Y-85670000D01*
X29127000Y-85670000D02*
X29127000Y-89270000D01*
X53576000Y-82064200D02*
X51816000Y-82064200D01*
X53576000Y-78664200D02*
X53576000Y-82064200D01*
X51816000Y-78664200D02*
X53576000Y-78664200D01*
X51816000Y-82064200D02*
X51816000Y-78664200D01*
X49970300Y-56965700D02*
X49970300Y-44865700D01*
X44370300Y-56965700D02*
X49970300Y-56965700D01*
X44370300Y-44865700D02*
X44370300Y-56965700D01*
X49970300Y-44865700D02*
X44370300Y-44865700D01*
X38941700Y-50458800D02*
X33341700Y-50458800D01*
X33341700Y-50458800D02*
X33341700Y-62558800D01*
X33341700Y-62558800D02*
X38941700Y-62558800D01*
X38941700Y-62558800D02*
X38941700Y-50458800D01*
X41575700Y-80190700D02*
X41575700Y-73190700D01*
X41825700Y-72940700D02*
X50825700Y-72940700D01*
X51075700Y-73190700D02*
X51075700Y-80190700D01*
X50825700Y-80440700D02*
X41825700Y-80440700D01*
X51075700Y-72940700D02*
X50825700Y-72940700D01*
X51075700Y-73190700D02*
X51075700Y-72940700D01*
X51075700Y-80440700D02*
X50825700Y-80440700D01*
X51075700Y-80190700D02*
X51075700Y-80440700D01*
X41575700Y-80440700D02*
X41575700Y-80190700D01*
X41825700Y-80440700D02*
X41575700Y-80440700D01*
X41575700Y-72940700D02*
X41575700Y-73190700D01*
X41825700Y-72940700D02*
X41575700Y-72940700D01*
X32945000Y-49915300D02*
X32945000Y-53315300D01*
X32945000Y-53315300D02*
X31185000Y-53315300D01*
X31185000Y-53315300D02*
X31185000Y-49915300D01*
X31185000Y-49915300D02*
X32945000Y-49915300D01*
X43216700Y-84260200D02*
X41456700Y-84260200D01*
X43216700Y-80860200D02*
X43216700Y-84260200D01*
X41456700Y-80860200D02*
X43216700Y-80860200D01*
X41456700Y-84260200D02*
X41456700Y-80860200D01*
X35125000Y-46346500D02*
X38225000Y-46346500D01*
X35125000Y-46346500D02*
X35125000Y-48146500D01*
X38225000Y-48146500D02*
X38225000Y-46346500D01*
X38225000Y-48146500D02*
X35125000Y-48146500D01*
M02*
