G04 #@! TF.GenerationSoftware,KiCad,Pcbnew,5.1.7-a382d34a8~88~ubuntu18.04.1*
G04 #@! TF.CreationDate,2022-03-02T17:55:55+05:30*
G04 #@! TF.ProjectId,WaterTank_module_v1,57617465-7254-4616-9e6b-5f6d6f64756c,rev?*
G04 #@! TF.SameCoordinates,Original*
G04 #@! TF.FileFunction,Paste,Bot*
G04 #@! TF.FilePolarity,Positive*
%FSLAX46Y46*%
G04 Gerber Fmt 4.6, Leading zero omitted, Abs format (unit mm)*
G04 Created by KiCad (PCBNEW 5.1.7-a382d34a8~88~ubuntu18.04.1) date 2022-03-02 17:55:55*
%MOMM*%
%LPD*%
G01*
G04 APERTURE LIST*
%ADD10R,1.000000X0.230000*%
%ADD11R,0.230000X1.000000*%
%ADD12R,1.300000X0.700000*%
%ADD13R,1.000000X1.250000*%
%ADD14R,1.250000X1.000000*%
%ADD15R,0.700000X1.300000*%
%ADD16R,1.060000X0.650000*%
G04 APERTURE END LIST*
G36*
G01*
X31988200Y-78525600D02*
X31988200Y-78009600D01*
G75*
G02*
X32030200Y-77967600I42000J0D01*
G01*
X33916200Y-77967600D01*
G75*
G02*
X33958200Y-78009600I0J-42000D01*
G01*
X33958200Y-78525600D01*
G75*
G02*
X33916200Y-78567600I-42000J0D01*
G01*
X32030200Y-78567600D01*
G75*
G02*
X31988200Y-78525600I0J42000D01*
G01*
G37*
G36*
G01*
X31988200Y-77255600D02*
X31988200Y-76739600D01*
G75*
G02*
X32030200Y-76697600I42000J0D01*
G01*
X33916200Y-76697600D01*
G75*
G02*
X33958200Y-76739600I0J-42000D01*
G01*
X33958200Y-77255600D01*
G75*
G02*
X33916200Y-77297600I-42000J0D01*
G01*
X32030200Y-77297600D01*
G75*
G02*
X31988200Y-77255600I0J42000D01*
G01*
G37*
G36*
G01*
X31988200Y-75985600D02*
X31988200Y-75469600D01*
G75*
G02*
X32030200Y-75427600I42000J0D01*
G01*
X33916200Y-75427600D01*
G75*
G02*
X33958200Y-75469600I0J-42000D01*
G01*
X33958200Y-75985600D01*
G75*
G02*
X33916200Y-76027600I-42000J0D01*
G01*
X32030200Y-76027600D01*
G75*
G02*
X31988200Y-75985600I0J42000D01*
G01*
G37*
G36*
G01*
X31988200Y-74715600D02*
X31988200Y-74199600D01*
G75*
G02*
X32030200Y-74157600I42000J0D01*
G01*
X33916200Y-74157600D01*
G75*
G02*
X33958200Y-74199600I0J-42000D01*
G01*
X33958200Y-74715600D01*
G75*
G02*
X33916200Y-74757600I-42000J0D01*
G01*
X32030200Y-74757600D01*
G75*
G02*
X31988200Y-74715600I0J42000D01*
G01*
G37*
G36*
G01*
X36938200Y-74715600D02*
X36938200Y-74199600D01*
G75*
G02*
X36980200Y-74157600I42000J0D01*
G01*
X38866200Y-74157600D01*
G75*
G02*
X38908200Y-74199600I0J-42000D01*
G01*
X38908200Y-74715600D01*
G75*
G02*
X38866200Y-74757600I-42000J0D01*
G01*
X36980200Y-74757600D01*
G75*
G02*
X36938200Y-74715600I0J42000D01*
G01*
G37*
G36*
G01*
X36938200Y-75985600D02*
X36938200Y-75469600D01*
G75*
G02*
X36980200Y-75427600I42000J0D01*
G01*
X38866200Y-75427600D01*
G75*
G02*
X38908200Y-75469600I0J-42000D01*
G01*
X38908200Y-75985600D01*
G75*
G02*
X38866200Y-76027600I-42000J0D01*
G01*
X36980200Y-76027600D01*
G75*
G02*
X36938200Y-75985600I0J42000D01*
G01*
G37*
G36*
G01*
X36938200Y-77255600D02*
X36938200Y-76739600D01*
G75*
G02*
X36980200Y-76697600I42000J0D01*
G01*
X38866200Y-76697600D01*
G75*
G02*
X38908200Y-76739600I0J-42000D01*
G01*
X38908200Y-77255600D01*
G75*
G02*
X38866200Y-77297600I-42000J0D01*
G01*
X36980200Y-77297600D01*
G75*
G02*
X36938200Y-77255600I0J42000D01*
G01*
G37*
G36*
G01*
X36938200Y-78525600D02*
X36938200Y-78009600D01*
G75*
G02*
X36980200Y-77967600I42000J0D01*
G01*
X38866200Y-77967600D01*
G75*
G02*
X38908200Y-78009600I0J-42000D01*
G01*
X38908200Y-78525600D01*
G75*
G02*
X38866200Y-78567600I-42000J0D01*
G01*
X36980200Y-78567600D01*
G75*
G02*
X36938200Y-78525600I0J42000D01*
G01*
G37*
D10*
X48516500Y-60403700D03*
D11*
X47246500Y-66753700D03*
X46738500Y-66753700D03*
X46230500Y-66753700D03*
X45722500Y-66753700D03*
X45214500Y-66753700D03*
X44706500Y-66753700D03*
X44198500Y-66753700D03*
X43690500Y-66753700D03*
X43182500Y-66753700D03*
X42674500Y-66753700D03*
X42166500Y-66753700D03*
X41658500Y-66753700D03*
D10*
X40388500Y-65483700D03*
X40388500Y-64975700D03*
X40388500Y-63959700D03*
X40388500Y-63451700D03*
X40388500Y-62943700D03*
X40388500Y-62435700D03*
X40388500Y-61927700D03*
X40388500Y-61419700D03*
X40388500Y-60911700D03*
X40388500Y-60403700D03*
X40388500Y-59895700D03*
D11*
X42166500Y-58625700D03*
X42674500Y-58625700D03*
X43182500Y-58625700D03*
X43690500Y-58625700D03*
X44198500Y-58625700D03*
X44706500Y-58625700D03*
X45214500Y-58625700D03*
X45722500Y-58625700D03*
X46230500Y-58625700D03*
X46738500Y-58625700D03*
X47246500Y-58625700D03*
D10*
X48516500Y-59895700D03*
X48516500Y-60911700D03*
X48516500Y-61419700D03*
X48516500Y-61927700D03*
X48516500Y-62435700D03*
X48516500Y-62943700D03*
X48516500Y-63451700D03*
X48516500Y-63959700D03*
X48516500Y-64467700D03*
X48516500Y-64975700D03*
X48516500Y-65483700D03*
D11*
X41658500Y-58625700D03*
D10*
X40388500Y-64467700D03*
D12*
X26162000Y-73660000D03*
X26162000Y-71760000D03*
D13*
X45084200Y-69761100D03*
X43084200Y-69761100D03*
D14*
X42227500Y-48947600D03*
X42227500Y-46947600D03*
X42296100Y-50805800D03*
X42296100Y-52805800D03*
X33530500Y-47150800D03*
X33530500Y-49150800D03*
X33596000Y-60364200D03*
X33596000Y-58364200D03*
X52696000Y-66064200D03*
X52696000Y-68064200D03*
X53096000Y-75564200D03*
X53096000Y-77564200D03*
D15*
X47492900Y-70032900D03*
X49392900Y-70032900D03*
D12*
X37863800Y-48719800D03*
X37863800Y-46819800D03*
X47096000Y-81814200D03*
X47096000Y-83714200D03*
D16*
X51996000Y-73714200D03*
X51996000Y-72764200D03*
X51996000Y-71814200D03*
X54196000Y-71814200D03*
X54196000Y-73714200D03*
D14*
X52496000Y-56564200D03*
X52496000Y-58564200D03*
D13*
X31100800Y-80299600D03*
X29100800Y-80299600D03*
D15*
X36614000Y-72207100D03*
X38514000Y-72207100D03*
X30187900Y-71777900D03*
X28287900Y-71777900D03*
X38173700Y-80490100D03*
X36273700Y-80490100D03*
G36*
G01*
X53771000Y-53214202D02*
X53771000Y-52314198D01*
G75*
G02*
X54020998Y-52064200I249998J0D01*
G01*
X54546002Y-52064200D01*
G75*
G02*
X54796000Y-52314198I0J-249998D01*
G01*
X54796000Y-53214202D01*
G75*
G02*
X54546002Y-53464200I-249998J0D01*
G01*
X54020998Y-53464200D01*
G75*
G02*
X53771000Y-53214202I0J249998D01*
G01*
G37*
G36*
G01*
X55596000Y-53214202D02*
X55596000Y-52314198D01*
G75*
G02*
X55845998Y-52064200I249998J0D01*
G01*
X56371002Y-52064200D01*
G75*
G02*
X56621000Y-52314198I0J-249998D01*
G01*
X56621000Y-53214202D01*
G75*
G02*
X56371002Y-53464200I-249998J0D01*
G01*
X55845998Y-53464200D01*
G75*
G02*
X55596000Y-53214202I0J249998D01*
G01*
G37*
M02*
