G04 #@! TF.GenerationSoftware,KiCad,Pcbnew,5.1.7-a382d34a8~88~ubuntu18.04.1*
G04 #@! TF.CreationDate,2022-03-02T17:55:55+05:30*
G04 #@! TF.ProjectId,WaterTank_module_v1,57617465-7254-4616-9e6b-5f6d6f64756c,rev?*
G04 #@! TF.SameCoordinates,Original*
G04 #@! TF.FileFunction,Glue,Bot*
G04 #@! TF.FilePolarity,Positive*
%FSLAX46Y46*%
G04 Gerber Fmt 4.6, Leading zero omitted, Abs format (unit mm)*
G04 Created by KiCad (PCBNEW 5.1.7-a382d34a8~88~ubuntu18.04.1) date 2022-03-02 17:55:55*
%MOMM*%
%LPD*%
G01*
G04 APERTURE LIST*
%ADD10R,1.000000X0.230000*%
%ADD11R,0.230000X1.000000*%
G04 APERTURE END LIST*
D10*
X48516500Y-60403700D03*
D11*
X47246500Y-66753700D03*
X46738500Y-66753700D03*
X46230500Y-66753700D03*
X45722500Y-66753700D03*
X45214500Y-66753700D03*
X44706500Y-66753700D03*
X44198500Y-66753700D03*
X43690500Y-66753700D03*
X43182500Y-66753700D03*
X42674500Y-66753700D03*
X42166500Y-66753700D03*
X41658500Y-66753700D03*
D10*
X40388500Y-65483700D03*
X40388500Y-64975700D03*
X40388500Y-63959700D03*
X40388500Y-63451700D03*
X40388500Y-62943700D03*
X40388500Y-62435700D03*
X40388500Y-61927700D03*
X40388500Y-61419700D03*
X40388500Y-60911700D03*
X40388500Y-60403700D03*
X40388500Y-59895700D03*
D11*
X42166500Y-58625700D03*
X42674500Y-58625700D03*
X43182500Y-58625700D03*
X43690500Y-58625700D03*
X44198500Y-58625700D03*
X44706500Y-58625700D03*
X45214500Y-58625700D03*
X45722500Y-58625700D03*
X46230500Y-58625700D03*
X46738500Y-58625700D03*
X47246500Y-58625700D03*
D10*
X48516500Y-59895700D03*
X48516500Y-60911700D03*
X48516500Y-61419700D03*
X48516500Y-61927700D03*
X48516500Y-62435700D03*
X48516500Y-62943700D03*
X48516500Y-63451700D03*
X48516500Y-63959700D03*
X48516500Y-64467700D03*
X48516500Y-64975700D03*
X48516500Y-65483700D03*
D11*
X41658500Y-58625700D03*
D10*
X40388500Y-64467700D03*
M02*
