G04 #@! TF.GenerationSoftware,KiCad,Pcbnew,5.1.7-a382d34a8~88~ubuntu18.04.1*
G04 #@! TF.CreationDate,2022-03-02T17:55:55+05:30*
G04 #@! TF.ProjectId,WaterTank_module_v1,57617465-7254-4616-9e6b-5f6d6f64756c,rev?*
G04 #@! TF.SameCoordinates,Original*
G04 #@! TF.FileFunction,Legend,Bot*
G04 #@! TF.FilePolarity,Positive*
%FSLAX46Y46*%
G04 Gerber Fmt 4.6, Leading zero omitted, Abs format (unit mm)*
G04 Created by KiCad (PCBNEW 5.1.7-a382d34a8~88~ubuntu18.04.1) date 2022-03-02 17:55:55*
%MOMM*%
%LPD*%
G01*
G04 APERTURE LIST*
%ADD10C,0.100000*%
%ADD11C,0.127000*%
%ADD12C,0.200000*%
%ADD13C,0.150000*%
%ADD14C,0.120000*%
G04 APERTURE END LIST*
D10*
X39118759Y-57509369D02*
X39233044Y-57547464D01*
X39423520Y-57547464D01*
X39499711Y-57509369D01*
X39537806Y-57471274D01*
X39575901Y-57395083D01*
X39575901Y-57318893D01*
X39537806Y-57242702D01*
X39499711Y-57204607D01*
X39423520Y-57166512D01*
X39271140Y-57128417D01*
X39194949Y-57090321D01*
X39156854Y-57052226D01*
X39118759Y-56976036D01*
X39118759Y-56899845D01*
X39156854Y-56823655D01*
X39194949Y-56785560D01*
X39271140Y-56747464D01*
X39461616Y-56747464D01*
X39575901Y-56785560D01*
X39804473Y-57014131D02*
X40109235Y-57014131D01*
X39918759Y-56747464D02*
X39918759Y-57433179D01*
X39956854Y-57509369D01*
X40033044Y-57547464D01*
X40109235Y-57547464D01*
X40375901Y-57547464D02*
X40375901Y-57014131D01*
X40375901Y-57090321D02*
X40413997Y-57052226D01*
X40490187Y-57014131D01*
X40604473Y-57014131D01*
X40680663Y-57052226D01*
X40718759Y-57128417D01*
X40718759Y-57547464D01*
X40718759Y-57128417D02*
X40756854Y-57052226D01*
X40833044Y-57014131D01*
X40947330Y-57014131D01*
X41023520Y-57052226D01*
X41061616Y-57128417D01*
X41061616Y-57547464D01*
X41366378Y-56747464D02*
X41861616Y-56747464D01*
X41594949Y-57052226D01*
X41709235Y-57052226D01*
X41785425Y-57090321D01*
X41823520Y-57128417D01*
X41861616Y-57204607D01*
X41861616Y-57395083D01*
X41823520Y-57471274D01*
X41785425Y-57509369D01*
X41709235Y-57547464D01*
X41480663Y-57547464D01*
X41404473Y-57509369D01*
X41366378Y-57471274D01*
X42166378Y-56823655D02*
X42204473Y-56785560D01*
X42280663Y-56747464D01*
X42471140Y-56747464D01*
X42547330Y-56785560D01*
X42585425Y-56823655D01*
X42623520Y-56899845D01*
X42623520Y-56976036D01*
X42585425Y-57090321D01*
X42128282Y-57547464D01*
X42623520Y-57547464D01*
D11*
X33448200Y-73812600D02*
X37448200Y-73812600D01*
X33448200Y-78912600D02*
X37448200Y-78912600D01*
D12*
X31103200Y-78867600D02*
G75*
G03*
X31103200Y-78867600I-100000J0D01*
G01*
D13*
X47605710Y-65483700D02*
G75*
G03*
X47605710Y-65483700I-359210J0D01*
G01*
X48008500Y-59641700D02*
X48008500Y-65737700D01*
X41404500Y-59133700D02*
X47500500Y-59133700D01*
X40896500Y-65737700D02*
X40896500Y-59641700D01*
X47500500Y-66245700D02*
X41404500Y-66245700D01*
X40896500Y-59641700D02*
G75*
G02*
X41404500Y-59133700I508000J0D01*
G01*
X41404500Y-66245700D02*
G75*
G02*
X40896500Y-65737700I0J508000D01*
G01*
X47500500Y-59133700D02*
G75*
G02*
X48008500Y-59641700I0J-508000D01*
G01*
X48008500Y-65737700D02*
G75*
G02*
X47500500Y-66245700I-508000J0D01*
G01*
D14*
X25282000Y-72110000D02*
X25282000Y-73310000D01*
X27042000Y-73310000D02*
X27042000Y-72110000D01*
X43584200Y-68911100D02*
X44584200Y-68911100D01*
X44584200Y-70611100D02*
X43584200Y-70611100D01*
X43077500Y-47447600D02*
X43077500Y-48447600D01*
X41377500Y-48447600D02*
X41377500Y-47447600D01*
X41446100Y-52305800D02*
X41446100Y-51305800D01*
X43146100Y-51305800D02*
X43146100Y-52305800D01*
X32680500Y-48650800D02*
X32680500Y-47650800D01*
X34380500Y-47650800D02*
X34380500Y-48650800D01*
X34446000Y-58864200D02*
X34446000Y-59864200D01*
X32746000Y-59864200D02*
X32746000Y-58864200D01*
X51846000Y-67564200D02*
X51846000Y-66564200D01*
X53546000Y-66564200D02*
X53546000Y-67564200D01*
X52246000Y-77064200D02*
X52246000Y-76064200D01*
X53946000Y-76064200D02*
X53946000Y-77064200D01*
X49042900Y-69152900D02*
X47842900Y-69152900D01*
X47842900Y-70912900D02*
X49042900Y-70912900D01*
X36983800Y-47169800D02*
X36983800Y-48369800D01*
X38743800Y-48369800D02*
X38743800Y-47169800D01*
X47976000Y-83364200D02*
X47976000Y-82164200D01*
X46216000Y-82164200D02*
X46216000Y-83364200D01*
X52196000Y-71154200D02*
X53996000Y-71154200D01*
X53996000Y-74374200D02*
X51546000Y-74374200D01*
X53346000Y-57064200D02*
X53346000Y-58064200D01*
X51646000Y-58064200D02*
X51646000Y-57064200D01*
X30600800Y-81149600D02*
X29600800Y-81149600D01*
X29600800Y-79449600D02*
X30600800Y-79449600D01*
X36964000Y-73087100D02*
X38164000Y-73087100D01*
X38164000Y-71327100D02*
X36964000Y-71327100D01*
X29837900Y-70897900D02*
X28637900Y-70897900D01*
X28637900Y-72657900D02*
X29837900Y-72657900D01*
X37823700Y-79610100D02*
X36623700Y-79610100D01*
X36623700Y-81370100D02*
X37823700Y-81370100D01*
D13*
X35629390Y-80176980D02*
X35629390Y-79176980D01*
X34581771Y-80081742D02*
X34629390Y-80129361D01*
X34772247Y-80176980D01*
X34867485Y-80176980D01*
X35010342Y-80129361D01*
X35105580Y-80034123D01*
X35153200Y-79938885D01*
X35200819Y-79748409D01*
X35200819Y-79605552D01*
X35153200Y-79415076D01*
X35105580Y-79319838D01*
X35010342Y-79224600D01*
X34867485Y-79176980D01*
X34772247Y-79176980D01*
X34629390Y-79224600D01*
X34581771Y-79272219D01*
X33629390Y-80176980D02*
X34200819Y-80176980D01*
X33915104Y-80176980D02*
X33915104Y-79176980D01*
X34010342Y-79319838D01*
X34105580Y-79415076D01*
X34200819Y-79462695D01*
X49702584Y-67209380D02*
X49702584Y-68018904D01*
X49654965Y-68114142D01*
X49607346Y-68161761D01*
X49512108Y-68209380D01*
X49321632Y-68209380D01*
X49226394Y-68161761D01*
X49178775Y-68114142D01*
X49131156Y-68018904D01*
X49131156Y-67209380D01*
X48750203Y-67209380D02*
X48131156Y-67209380D01*
X48464489Y-67590333D01*
X48321632Y-67590333D01*
X48226394Y-67637952D01*
X48178775Y-67685571D01*
X48131156Y-67780809D01*
X48131156Y-68018904D01*
X48178775Y-68114142D01*
X48226394Y-68161761D01*
X48321632Y-68209380D01*
X48607346Y-68209380D01*
X48702584Y-68161761D01*
X48750203Y-68114142D01*
X26392166Y-70896700D02*
X26725500Y-70420510D01*
X26963595Y-70896700D02*
X26963595Y-69896700D01*
X26582642Y-69896700D01*
X26487404Y-69944320D01*
X26439785Y-69991939D01*
X26392166Y-70087177D01*
X26392166Y-70230034D01*
X26439785Y-70325272D01*
X26487404Y-70372891D01*
X26582642Y-70420510D01*
X26963595Y-70420510D01*
X25915976Y-70896700D02*
X25725500Y-70896700D01*
X25630261Y-70849081D01*
X25582642Y-70801462D01*
X25487404Y-70658605D01*
X25439785Y-70468129D01*
X25439785Y-70087177D01*
X25487404Y-69991939D01*
X25535023Y-69944320D01*
X25630261Y-69896700D01*
X25820738Y-69896700D01*
X25915976Y-69944320D01*
X25963595Y-69991939D01*
X26011214Y-70087177D01*
X26011214Y-70325272D01*
X25963595Y-70420510D01*
X25915976Y-70468129D01*
X25820738Y-70515748D01*
X25630261Y-70515748D01*
X25535023Y-70468129D01*
X25487404Y-70420510D01*
X25439785Y-70325272D01*
X44384726Y-71947042D02*
X44432345Y-71994661D01*
X44575202Y-72042280D01*
X44670440Y-72042280D01*
X44813298Y-71994661D01*
X44908536Y-71899423D01*
X44956155Y-71804185D01*
X45003774Y-71613709D01*
X45003774Y-71470852D01*
X44956155Y-71280376D01*
X44908536Y-71185138D01*
X44813298Y-71089900D01*
X44670440Y-71042280D01*
X44575202Y-71042280D01*
X44432345Y-71089900D01*
X44384726Y-71137519D01*
X44003774Y-71137519D02*
X43956155Y-71089900D01*
X43860917Y-71042280D01*
X43622821Y-71042280D01*
X43527583Y-71089900D01*
X43479964Y-71137519D01*
X43432345Y-71232757D01*
X43432345Y-71327995D01*
X43479964Y-71470852D01*
X44051393Y-72042280D01*
X43432345Y-72042280D01*
X42498306Y-45914602D02*
X42545925Y-45962221D01*
X42688782Y-46009840D01*
X42784020Y-46009840D01*
X42926878Y-45962221D01*
X43022116Y-45866983D01*
X43069735Y-45771745D01*
X43117354Y-45581269D01*
X43117354Y-45438412D01*
X43069735Y-45247936D01*
X43022116Y-45152698D01*
X42926878Y-45057460D01*
X42784020Y-45009840D01*
X42688782Y-45009840D01*
X42545925Y-45057460D01*
X42498306Y-45105079D01*
X41641163Y-45343174D02*
X41641163Y-46009840D01*
X41879259Y-44962221D02*
X42117354Y-45676507D01*
X41498306Y-45676507D01*
X42498326Y-54578482D02*
X42545945Y-54626101D01*
X42688802Y-54673720D01*
X42784040Y-54673720D01*
X42926898Y-54626101D01*
X43022136Y-54530863D01*
X43069755Y-54435625D01*
X43117374Y-54245149D01*
X43117374Y-54102292D01*
X43069755Y-53911816D01*
X43022136Y-53816578D01*
X42926898Y-53721340D01*
X42784040Y-53673720D01*
X42688802Y-53673720D01*
X42545945Y-53721340D01*
X42498326Y-53768959D01*
X41593564Y-53673720D02*
X42069755Y-53673720D01*
X42117374Y-54149911D01*
X42069755Y-54102292D01*
X41974517Y-54054673D01*
X41736421Y-54054673D01*
X41641183Y-54102292D01*
X41593564Y-54149911D01*
X41545945Y-54245149D01*
X41545945Y-54483244D01*
X41593564Y-54578482D01*
X41641183Y-54626101D01*
X41736421Y-54673720D01*
X41974517Y-54673720D01*
X42069755Y-54626101D01*
X42117374Y-54578482D01*
X33623506Y-46120342D02*
X33671125Y-46167961D01*
X33813982Y-46215580D01*
X33909220Y-46215580D01*
X34052078Y-46167961D01*
X34147316Y-46072723D01*
X34194935Y-45977485D01*
X34242554Y-45787009D01*
X34242554Y-45644152D01*
X34194935Y-45453676D01*
X34147316Y-45358438D01*
X34052078Y-45263200D01*
X33909220Y-45215580D01*
X33813982Y-45215580D01*
X33671125Y-45263200D01*
X33623506Y-45310819D01*
X32766363Y-45215580D02*
X32956840Y-45215580D01*
X33052078Y-45263200D01*
X33099697Y-45310819D01*
X33194935Y-45453676D01*
X33242554Y-45644152D01*
X33242554Y-46025104D01*
X33194935Y-46120342D01*
X33147316Y-46167961D01*
X33052078Y-46215580D01*
X32861601Y-46215580D01*
X32766363Y-46167961D01*
X32718744Y-46120342D01*
X32671125Y-46025104D01*
X32671125Y-45787009D01*
X32718744Y-45691771D01*
X32766363Y-45644152D01*
X32861601Y-45596533D01*
X33052078Y-45596533D01*
X33147316Y-45644152D01*
X33194935Y-45691771D01*
X33242554Y-45787009D01*
X33607726Y-56985762D02*
X33655345Y-57033381D01*
X33798202Y-57081000D01*
X33893440Y-57081000D01*
X34036298Y-57033381D01*
X34131536Y-56938143D01*
X34179155Y-56842905D01*
X34226774Y-56652429D01*
X34226774Y-56509572D01*
X34179155Y-56319096D01*
X34131536Y-56223858D01*
X34036298Y-56128620D01*
X33893440Y-56081000D01*
X33798202Y-56081000D01*
X33655345Y-56128620D01*
X33607726Y-56176239D01*
X33274393Y-56081000D02*
X32607726Y-56081000D01*
X33036298Y-57081000D01*
X51062666Y-66521342D02*
X51110285Y-66568961D01*
X51253142Y-66616580D01*
X51348380Y-66616580D01*
X51491238Y-66568961D01*
X51586476Y-66473723D01*
X51634095Y-66378485D01*
X51681714Y-66188009D01*
X51681714Y-66045152D01*
X51634095Y-65854676D01*
X51586476Y-65759438D01*
X51491238Y-65664200D01*
X51348380Y-65616580D01*
X51253142Y-65616580D01*
X51110285Y-65664200D01*
X51062666Y-65711819D01*
X50110285Y-66616580D02*
X50681714Y-66616580D01*
X50396000Y-66616580D02*
X50396000Y-65616580D01*
X50491238Y-65759438D01*
X50586476Y-65854676D01*
X50681714Y-65902295D01*
X51362666Y-77121342D02*
X51410285Y-77168961D01*
X51553142Y-77216580D01*
X51648380Y-77216580D01*
X51791238Y-77168961D01*
X51886476Y-77073723D01*
X51934095Y-76978485D01*
X51981714Y-76788009D01*
X51981714Y-76645152D01*
X51934095Y-76454676D01*
X51886476Y-76359438D01*
X51791238Y-76264200D01*
X51648380Y-76216580D01*
X51553142Y-76216580D01*
X51410285Y-76264200D01*
X51362666Y-76311819D01*
X51029333Y-76216580D02*
X50410285Y-76216580D01*
X50743619Y-76597533D01*
X50600761Y-76597533D01*
X50505523Y-76645152D01*
X50457904Y-76692771D01*
X50410285Y-76788009D01*
X50410285Y-77026104D01*
X50457904Y-77121342D01*
X50505523Y-77168961D01*
X50600761Y-77216580D01*
X50886476Y-77216580D01*
X50981714Y-77168961D01*
X51029333Y-77121342D01*
X51205446Y-70332880D02*
X51538780Y-69856690D01*
X51776875Y-70332880D02*
X51776875Y-69332880D01*
X51395922Y-69332880D01*
X51300684Y-69380500D01*
X51253065Y-69428119D01*
X51205446Y-69523357D01*
X51205446Y-69666214D01*
X51253065Y-69761452D01*
X51300684Y-69809071D01*
X51395922Y-69856690D01*
X51776875Y-69856690D01*
X50824494Y-69428119D02*
X50776875Y-69380500D01*
X50681637Y-69332880D01*
X50443541Y-69332880D01*
X50348303Y-69380500D01*
X50300684Y-69428119D01*
X50253065Y-69523357D01*
X50253065Y-69618595D01*
X50300684Y-69761452D01*
X50872113Y-70332880D01*
X50253065Y-70332880D01*
X38027926Y-46012380D02*
X38361260Y-45536190D01*
X38599355Y-46012380D02*
X38599355Y-45012380D01*
X38218402Y-45012380D01*
X38123164Y-45060000D01*
X38075545Y-45107619D01*
X38027926Y-45202857D01*
X38027926Y-45345714D01*
X38075545Y-45440952D01*
X38123164Y-45488571D01*
X38218402Y-45536190D01*
X38599355Y-45536190D01*
X37694593Y-45012380D02*
X37075545Y-45012380D01*
X37408879Y-45393333D01*
X37266021Y-45393333D01*
X37170783Y-45440952D01*
X37123164Y-45488571D01*
X37075545Y-45583809D01*
X37075545Y-45821904D01*
X37123164Y-45917142D01*
X37170783Y-45964761D01*
X37266021Y-46012380D01*
X37551736Y-46012380D01*
X37646974Y-45964761D01*
X37694593Y-45917142D01*
X45162666Y-84616580D02*
X45496000Y-84140390D01*
X45734095Y-84616580D02*
X45734095Y-83616580D01*
X45353142Y-83616580D01*
X45257904Y-83664200D01*
X45210285Y-83711819D01*
X45162666Y-83807057D01*
X45162666Y-83949914D01*
X45210285Y-84045152D01*
X45257904Y-84092771D01*
X45353142Y-84140390D01*
X45734095Y-84140390D01*
X44210285Y-84616580D02*
X44781714Y-84616580D01*
X44496000Y-84616580D02*
X44496000Y-83616580D01*
X44591238Y-83759438D01*
X44686476Y-83854676D01*
X44781714Y-83902295D01*
X56311544Y-74418760D02*
X56311544Y-75228284D01*
X56263925Y-75323522D01*
X56216306Y-75371141D01*
X56121068Y-75418760D01*
X55930592Y-75418760D01*
X55835354Y-75371141D01*
X55787735Y-75323522D01*
X55740116Y-75228284D01*
X55740116Y-74418760D01*
X54740116Y-75418760D02*
X55311544Y-75418760D01*
X55025830Y-75418760D02*
X55025830Y-74418760D01*
X55121068Y-74561618D01*
X55216306Y-74656856D01*
X55311544Y-74704475D01*
X50838857Y-58121342D02*
X50886476Y-58168961D01*
X51029333Y-58216580D01*
X51124571Y-58216580D01*
X51267428Y-58168961D01*
X51362666Y-58073723D01*
X51410285Y-57978485D01*
X51457904Y-57788009D01*
X51457904Y-57645152D01*
X51410285Y-57454676D01*
X51362666Y-57359438D01*
X51267428Y-57264200D01*
X51124571Y-57216580D01*
X51029333Y-57216580D01*
X50886476Y-57264200D01*
X50838857Y-57311819D01*
X49886476Y-58216580D02*
X50457904Y-58216580D01*
X50172190Y-58216580D02*
X50172190Y-57216580D01*
X50267428Y-57359438D01*
X50362666Y-57454676D01*
X50457904Y-57502295D01*
X49267428Y-57216580D02*
X49172190Y-57216580D01*
X49076952Y-57264200D01*
X49029333Y-57311819D01*
X48981714Y-57407057D01*
X48934095Y-57597533D01*
X48934095Y-57835628D01*
X48981714Y-58026104D01*
X49029333Y-58121342D01*
X49076952Y-58168961D01*
X49172190Y-58216580D01*
X49267428Y-58216580D01*
X49362666Y-58168961D01*
X49410285Y-58121342D01*
X49457904Y-58026104D01*
X49505523Y-57835628D01*
X49505523Y-57597533D01*
X49457904Y-57407057D01*
X49410285Y-57311819D01*
X49362666Y-57264200D01*
X49267428Y-57216580D01*
X30743657Y-82156742D02*
X30791276Y-82204361D01*
X30934133Y-82251980D01*
X31029371Y-82251980D01*
X31172228Y-82204361D01*
X31267466Y-82109123D01*
X31315085Y-82013885D01*
X31362704Y-81823409D01*
X31362704Y-81680552D01*
X31315085Y-81490076D01*
X31267466Y-81394838D01*
X31172228Y-81299600D01*
X31029371Y-81251980D01*
X30934133Y-81251980D01*
X30791276Y-81299600D01*
X30743657Y-81347219D01*
X29791276Y-82251980D02*
X30362704Y-82251980D01*
X30076990Y-82251980D02*
X30076990Y-81251980D01*
X30172228Y-81394838D01*
X30267466Y-81490076D01*
X30362704Y-81537695D01*
X28838895Y-82251980D02*
X29410323Y-82251980D01*
X29124609Y-82251980D02*
X29124609Y-81251980D01*
X29219847Y-81394838D01*
X29315085Y-81490076D01*
X29410323Y-81537695D01*
X37672286Y-70942440D02*
X38005620Y-70466250D01*
X38243715Y-70942440D02*
X38243715Y-69942440D01*
X37862762Y-69942440D01*
X37767524Y-69990060D01*
X37719905Y-70037679D01*
X37672286Y-70132917D01*
X37672286Y-70275774D01*
X37719905Y-70371012D01*
X37767524Y-70418631D01*
X37862762Y-70466250D01*
X38243715Y-70466250D01*
X36815143Y-69942440D02*
X37005620Y-69942440D01*
X37100858Y-69990060D01*
X37148477Y-70037679D01*
X37243715Y-70180536D01*
X37291334Y-70371012D01*
X37291334Y-70751964D01*
X37243715Y-70847202D01*
X37196096Y-70894821D01*
X37100858Y-70942440D01*
X36910381Y-70942440D01*
X36815143Y-70894821D01*
X36767524Y-70847202D01*
X36719905Y-70751964D01*
X36719905Y-70513869D01*
X36767524Y-70418631D01*
X36815143Y-70371012D01*
X36910381Y-70323393D01*
X37100858Y-70323393D01*
X37196096Y-70371012D01*
X37243715Y-70418631D01*
X37291334Y-70513869D01*
X29465526Y-70820580D02*
X29798860Y-70344390D01*
X30036955Y-70820580D02*
X30036955Y-69820580D01*
X29656002Y-69820580D01*
X29560764Y-69868200D01*
X29513145Y-69915819D01*
X29465526Y-70011057D01*
X29465526Y-70153914D01*
X29513145Y-70249152D01*
X29560764Y-70296771D01*
X29656002Y-70344390D01*
X30036955Y-70344390D01*
X29132193Y-69820580D02*
X28465526Y-69820580D01*
X28894098Y-70820580D01*
X37866557Y-82592480D02*
X38199890Y-82116290D01*
X38437985Y-82592480D02*
X38437985Y-81592480D01*
X38057033Y-81592480D01*
X37961795Y-81640100D01*
X37914176Y-81687719D01*
X37866557Y-81782957D01*
X37866557Y-81925814D01*
X37914176Y-82021052D01*
X37961795Y-82068671D01*
X38057033Y-82116290D01*
X38437985Y-82116290D01*
X36914176Y-82592480D02*
X37485604Y-82592480D01*
X37199890Y-82592480D02*
X37199890Y-81592480D01*
X37295128Y-81735338D01*
X37390366Y-81830576D01*
X37485604Y-81878195D01*
X35961795Y-82592480D02*
X36533223Y-82592480D01*
X36247509Y-82592480D02*
X36247509Y-81592480D01*
X36342747Y-81735338D01*
X36437985Y-81830576D01*
X36533223Y-81878195D01*
X52362666Y-53616580D02*
X52696000Y-53140390D01*
X52934095Y-53616580D02*
X52934095Y-52616580D01*
X52553142Y-52616580D01*
X52457904Y-52664200D01*
X52410285Y-52711819D01*
X52362666Y-52807057D01*
X52362666Y-52949914D01*
X52410285Y-53045152D01*
X52457904Y-53092771D01*
X52553142Y-53140390D01*
X52934095Y-53140390D01*
X51505523Y-52949914D02*
X51505523Y-53616580D01*
X51743619Y-52568961D02*
X51981714Y-53283247D01*
X51362666Y-53283247D01*
M02*
