G04 #@! TF.GenerationSoftware,KiCad,Pcbnew,5.1.7-a382d34a8~88~ubuntu18.04.1*
G04 #@! TF.CreationDate,2022-03-02T17:55:55+05:30*
G04 #@! TF.ProjectId,WaterTank_module_v1,57617465-7254-4616-9e6b-5f6d6f64756c,rev?*
G04 #@! TF.SameCoordinates,Original*
G04 #@! TF.FileFunction,Other,Fab,Bot*
%FSLAX46Y46*%
G04 Gerber Fmt 4.6, Leading zero omitted, Abs format (unit mm)*
G04 Created by KiCad (PCBNEW 5.1.7-a382d34a8~88~ubuntu18.04.1) date 2022-03-02 17:55:55*
%MOMM*%
%LPD*%
G01*
G04 APERTURE LIST*
%ADD10C,0.127000*%
%ADD11C,0.200000*%
%ADD12C,0.100000*%
G04 APERTURE END LIST*
D10*
X37448200Y-78912600D02*
X37448200Y-73812600D01*
X33448200Y-78912600D02*
X33448200Y-73812600D01*
X33448200Y-73812600D02*
X37448200Y-73812600D01*
X33448200Y-78912600D02*
X37448200Y-78912600D01*
D11*
X31103200Y-78867600D02*
G75*
G03*
X31103200Y-78867600I-100000J0D01*
G01*
D12*
X25542000Y-73710000D02*
X26782000Y-73710000D01*
X25542000Y-71710000D02*
X25542000Y-73710000D01*
X26782000Y-71710000D02*
X25542000Y-71710000D01*
X26782000Y-73710000D02*
X26782000Y-71710000D01*
X45084200Y-70381100D02*
X45084200Y-69141100D01*
X43084200Y-70381100D02*
X45084200Y-70381100D01*
X43084200Y-69141100D02*
X43084200Y-70381100D01*
X45084200Y-69141100D02*
X43084200Y-69141100D01*
X41607500Y-48947600D02*
X42847500Y-48947600D01*
X41607500Y-46947600D02*
X41607500Y-48947600D01*
X42847500Y-46947600D02*
X41607500Y-46947600D01*
X42847500Y-48947600D02*
X42847500Y-46947600D01*
X42916100Y-52805800D02*
X42916100Y-50805800D01*
X42916100Y-50805800D02*
X41676100Y-50805800D01*
X41676100Y-50805800D02*
X41676100Y-52805800D01*
X41676100Y-52805800D02*
X42916100Y-52805800D01*
X34150500Y-49150800D02*
X34150500Y-47150800D01*
X34150500Y-47150800D02*
X32910500Y-47150800D01*
X32910500Y-47150800D02*
X32910500Y-49150800D01*
X32910500Y-49150800D02*
X34150500Y-49150800D01*
X32976000Y-60364200D02*
X34216000Y-60364200D01*
X32976000Y-58364200D02*
X32976000Y-60364200D01*
X34216000Y-58364200D02*
X32976000Y-58364200D01*
X34216000Y-60364200D02*
X34216000Y-58364200D01*
X53316000Y-68064200D02*
X53316000Y-66064200D01*
X53316000Y-66064200D02*
X52076000Y-66064200D01*
X52076000Y-66064200D02*
X52076000Y-68064200D01*
X52076000Y-68064200D02*
X53316000Y-68064200D01*
X53716000Y-77564200D02*
X53716000Y-75564200D01*
X53716000Y-75564200D02*
X52476000Y-75564200D01*
X52476000Y-75564200D02*
X52476000Y-77564200D01*
X52476000Y-77564200D02*
X53716000Y-77564200D01*
X49442900Y-69412900D02*
X47442900Y-69412900D01*
X47442900Y-69412900D02*
X47442900Y-70652900D01*
X47442900Y-70652900D02*
X49442900Y-70652900D01*
X49442900Y-70652900D02*
X49442900Y-69412900D01*
X37243800Y-48769800D02*
X38483800Y-48769800D01*
X37243800Y-46769800D02*
X37243800Y-48769800D01*
X38483800Y-46769800D02*
X37243800Y-46769800D01*
X38483800Y-48769800D02*
X38483800Y-46769800D01*
X47716000Y-83764200D02*
X47716000Y-81764200D01*
X47716000Y-81764200D02*
X46476000Y-81764200D01*
X46476000Y-81764200D02*
X46476000Y-83764200D01*
X46476000Y-83764200D02*
X47716000Y-83764200D01*
X52196000Y-73664200D02*
X52846000Y-74314200D01*
X53996000Y-74314200D02*
X52846000Y-74314200D01*
X52196000Y-73664200D02*
X52196000Y-71214200D01*
X53996000Y-71214200D02*
X52196000Y-71214200D01*
X53996000Y-74314200D02*
X53996000Y-71214200D01*
X51876000Y-56564200D02*
X51876000Y-58564200D01*
X51876000Y-58564200D02*
X53116000Y-58564200D01*
X53116000Y-58564200D02*
X53116000Y-56564200D01*
X53116000Y-56564200D02*
X51876000Y-56564200D01*
X29100800Y-79679600D02*
X29100800Y-80919600D01*
X31100800Y-79679600D02*
X29100800Y-79679600D01*
X31100800Y-80919600D02*
X31100800Y-79679600D01*
X29100800Y-80919600D02*
X31100800Y-80919600D01*
X36564000Y-72827100D02*
X38564000Y-72827100D01*
X38564000Y-72827100D02*
X38564000Y-71587100D01*
X38564000Y-71587100D02*
X36564000Y-71587100D01*
X36564000Y-71587100D02*
X36564000Y-72827100D01*
X28237900Y-71157900D02*
X28237900Y-72397900D01*
X30237900Y-71157900D02*
X28237900Y-71157900D01*
X30237900Y-72397900D02*
X30237900Y-71157900D01*
X28237900Y-72397900D02*
X30237900Y-72397900D01*
X36223700Y-79870100D02*
X36223700Y-81110100D01*
X38223700Y-79870100D02*
X36223700Y-79870100D01*
X38223700Y-81110100D02*
X38223700Y-79870100D01*
X36223700Y-81110100D02*
X38223700Y-81110100D01*
X56196000Y-52139200D02*
X54196000Y-52139200D01*
X56196000Y-53389200D02*
X56196000Y-52139200D01*
X54196000Y-53389200D02*
X56196000Y-53389200D01*
X54196000Y-52139200D02*
X54196000Y-53389200D01*
M02*
