G04 #@! TF.GenerationSoftware,KiCad,Pcbnew,7.0.7-7.0.7~ubuntu22.04.1*
G04 #@! TF.CreationDate,2023-09-02T10:24:00+05:30*
G04 #@! TF.ProjectId,Dev_board_cc2652R7,4465765f-626f-4617-9264-5f6363323635,rev?*
G04 #@! TF.SameCoordinates,Original*
G04 #@! TF.FileFunction,Legend,Top*
G04 #@! TF.FilePolarity,Positive*
%FSLAX46Y46*%
G04 Gerber Fmt 4.6, Leading zero omitted, Abs format (unit mm)*
G04 Created by KiCad (PCBNEW 7.0.7-7.0.7~ubuntu22.04.1) date 2023-09-02 10:24:00*
%MOMM*%
%LPD*%
G01*
G04 APERTURE LIST*
G04 Aperture macros list*
%AMRoundRect*
0 Rectangle with rounded corners*
0 $1 Rounding radius*
0 $2 $3 $4 $5 $6 $7 $8 $9 X,Y pos of 4 corners*
0 Add a 4 corners polygon primitive as box body*
4,1,4,$2,$3,$4,$5,$6,$7,$8,$9,$2,$3,0*
0 Add four circle primitives for the rounded corners*
1,1,$1+$1,$2,$3*
1,1,$1+$1,$4,$5*
1,1,$1+$1,$6,$7*
1,1,$1+$1,$8,$9*
0 Add four rect primitives between the rounded corners*
20,1,$1+$1,$2,$3,$4,$5,0*
20,1,$1+$1,$4,$5,$6,$7,0*
20,1,$1+$1,$6,$7,$8,$9,0*
20,1,$1+$1,$8,$9,$2,$3,0*%
G04 Aperture macros list end*
%ADD10C,0.090000*%
%ADD11C,0.120000*%
%ADD12C,0.152400*%
%ADD13RoundRect,0.237500X0.237500X-0.300000X0.237500X0.300000X-0.237500X0.300000X-0.237500X-0.300000X0*%
%ADD14R,0.812800X0.304800*%
%ADD15R,0.304800X0.812800*%
%ADD16R,5.588000X5.588000*%
%ADD17RoundRect,0.237500X-0.237500X0.300000X-0.237500X-0.300000X0.237500X-0.300000X0.237500X0.300000X0*%
%ADD18RoundRect,0.237500X0.250000X0.237500X-0.250000X0.237500X-0.250000X-0.237500X0.250000X-0.237500X0*%
%ADD19RoundRect,0.160000X0.222500X0.160000X-0.222500X0.160000X-0.222500X-0.160000X0.222500X-0.160000X0*%
%ADD20RoundRect,0.237500X0.300000X0.237500X-0.300000X0.237500X-0.300000X-0.237500X0.300000X-0.237500X0*%
%ADD21R,2.700000X2.100000*%
%ADD22R,1.700000X1.700000*%
%ADD23O,1.700000X1.700000*%
%ADD24RoundRect,0.237500X-0.300000X-0.237500X0.300000X-0.237500X0.300000X0.237500X-0.300000X0.237500X0*%
%ADD25RoundRect,0.237500X-0.237500X0.250000X-0.237500X-0.250000X0.237500X-0.250000X0.237500X0.250000X0*%
%ADD26RoundRect,0.237500X-0.287500X-0.237500X0.287500X-0.237500X0.287500X0.237500X-0.287500X0.237500X0*%
%ADD27RoundRect,0.237500X-0.250000X-0.237500X0.250000X-0.237500X0.250000X0.237500X-0.250000X0.237500X0*%
%ADD28RoundRect,0.150000X-0.512500X-0.150000X0.512500X-0.150000X0.512500X0.150000X-0.512500X0.150000X0*%
%ADD29RoundRect,0.160000X0.160000X-0.222500X0.160000X0.222500X-0.160000X0.222500X-0.160000X-0.222500X0*%
%ADD30RoundRect,0.160000X-0.160000X0.222500X-0.160000X-0.222500X0.160000X-0.222500X0.160000X0.222500X0*%
%ADD31RoundRect,0.237500X0.287500X0.237500X-0.287500X0.237500X-0.287500X-0.237500X0.287500X-0.237500X0*%
%ADD32RoundRect,0.250000X-0.350000X-0.450000X0.350000X-0.450000X0.350000X0.450000X-0.350000X0.450000X0*%
%ADD33C,1.000000*%
%ADD34RoundRect,0.237500X-0.237500X0.287500X-0.237500X-0.287500X0.237500X-0.287500X0.237500X0.287500X0*%
G04 APERTURE END LIST*
D10*
X140834129Y-97193170D02*
X140834129Y-96907456D01*
X141334129Y-97050313D02*
X140834129Y-97050313D01*
X141334129Y-96740790D02*
X140834129Y-96740790D01*
X140834129Y-96740790D02*
X140834129Y-96621742D01*
X140834129Y-96621742D02*
X140857939Y-96550314D01*
X140857939Y-96550314D02*
X140905558Y-96502695D01*
X140905558Y-96502695D02*
X140953177Y-96478885D01*
X140953177Y-96478885D02*
X141048415Y-96455076D01*
X141048415Y-96455076D02*
X141119843Y-96455076D01*
X141119843Y-96455076D02*
X141215081Y-96478885D01*
X141215081Y-96478885D02*
X141262700Y-96502695D01*
X141262700Y-96502695D02*
X141310320Y-96550314D01*
X141310320Y-96550314D02*
X141334129Y-96621742D01*
X141334129Y-96621742D02*
X141334129Y-96740790D01*
X141334129Y-96240790D02*
X140834129Y-96240790D01*
X131234129Y-96836028D02*
X130996034Y-97002694D01*
X131234129Y-97121742D02*
X130734129Y-97121742D01*
X130734129Y-97121742D02*
X130734129Y-96931266D01*
X130734129Y-96931266D02*
X130757939Y-96883647D01*
X130757939Y-96883647D02*
X130781748Y-96859837D01*
X130781748Y-96859837D02*
X130829367Y-96836028D01*
X130829367Y-96836028D02*
X130900796Y-96836028D01*
X130900796Y-96836028D02*
X130948415Y-96859837D01*
X130948415Y-96859837D02*
X130972224Y-96883647D01*
X130972224Y-96883647D02*
X130996034Y-96931266D01*
X130996034Y-96931266D02*
X130996034Y-97121742D01*
X131210320Y-96645551D02*
X131234129Y-96574123D01*
X131234129Y-96574123D02*
X131234129Y-96455075D01*
X131234129Y-96455075D02*
X131210320Y-96407456D01*
X131210320Y-96407456D02*
X131186510Y-96383647D01*
X131186510Y-96383647D02*
X131138891Y-96359837D01*
X131138891Y-96359837D02*
X131091272Y-96359837D01*
X131091272Y-96359837D02*
X131043653Y-96383647D01*
X131043653Y-96383647D02*
X131019843Y-96407456D01*
X131019843Y-96407456D02*
X130996034Y-96455075D01*
X130996034Y-96455075D02*
X130972224Y-96550313D01*
X130972224Y-96550313D02*
X130948415Y-96597932D01*
X130948415Y-96597932D02*
X130924605Y-96621742D01*
X130924605Y-96621742D02*
X130876986Y-96645551D01*
X130876986Y-96645551D02*
X130829367Y-96645551D01*
X130829367Y-96645551D02*
X130781748Y-96621742D01*
X130781748Y-96621742D02*
X130757939Y-96597932D01*
X130757939Y-96597932D02*
X130734129Y-96550313D01*
X130734129Y-96550313D02*
X130734129Y-96431266D01*
X130734129Y-96431266D02*
X130757939Y-96359837D01*
X130734129Y-96216980D02*
X130734129Y-95931266D01*
X131234129Y-96074123D02*
X130734129Y-96074123D01*
X138234129Y-97193170D02*
X138234129Y-96907456D01*
X138734129Y-97050313D02*
X138234129Y-97050313D01*
X138734129Y-96740790D02*
X138234129Y-96740790D01*
X138234129Y-96740790D02*
X138234129Y-96621742D01*
X138234129Y-96621742D02*
X138257939Y-96550314D01*
X138257939Y-96550314D02*
X138305558Y-96502695D01*
X138305558Y-96502695D02*
X138353177Y-96478885D01*
X138353177Y-96478885D02*
X138448415Y-96455076D01*
X138448415Y-96455076D02*
X138519843Y-96455076D01*
X138519843Y-96455076D02*
X138615081Y-96478885D01*
X138615081Y-96478885D02*
X138662700Y-96502695D01*
X138662700Y-96502695D02*
X138710320Y-96550314D01*
X138710320Y-96550314D02*
X138734129Y-96621742D01*
X138734129Y-96621742D02*
X138734129Y-96740790D01*
X138234129Y-96145552D02*
X138234129Y-96050314D01*
X138234129Y-96050314D02*
X138257939Y-96002695D01*
X138257939Y-96002695D02*
X138305558Y-95955076D01*
X138305558Y-95955076D02*
X138400796Y-95931266D01*
X138400796Y-95931266D02*
X138567462Y-95931266D01*
X138567462Y-95931266D02*
X138662700Y-95955076D01*
X138662700Y-95955076D02*
X138710320Y-96002695D01*
X138710320Y-96002695D02*
X138734129Y-96050314D01*
X138734129Y-96050314D02*
X138734129Y-96145552D01*
X138734129Y-96145552D02*
X138710320Y-96193171D01*
X138710320Y-96193171D02*
X138662700Y-96240790D01*
X138662700Y-96240790D02*
X138567462Y-96264599D01*
X138567462Y-96264599D02*
X138400796Y-96264599D01*
X138400796Y-96264599D02*
X138305558Y-96240790D01*
X138305558Y-96240790D02*
X138257939Y-96193171D01*
X138257939Y-96193171D02*
X138234129Y-96145552D01*
X110934129Y-96893170D02*
X110934129Y-96607456D01*
X111434129Y-96750313D02*
X110934129Y-96750313D01*
X111434129Y-96488409D02*
X111100796Y-96226504D01*
X111100796Y-96488409D02*
X111434129Y-96226504D01*
X108434129Y-96869361D02*
X108434129Y-96559837D01*
X108434129Y-96559837D02*
X108624605Y-96726504D01*
X108624605Y-96726504D02*
X108624605Y-96655075D01*
X108624605Y-96655075D02*
X108648415Y-96607456D01*
X108648415Y-96607456D02*
X108672224Y-96583647D01*
X108672224Y-96583647D02*
X108719843Y-96559837D01*
X108719843Y-96559837D02*
X108838891Y-96559837D01*
X108838891Y-96559837D02*
X108886510Y-96583647D01*
X108886510Y-96583647D02*
X108910320Y-96607456D01*
X108910320Y-96607456D02*
X108934129Y-96655075D01*
X108934129Y-96655075D02*
X108934129Y-96797932D01*
X108934129Y-96797932D02*
X108910320Y-96845551D01*
X108910320Y-96845551D02*
X108886510Y-96869361D01*
X108434129Y-96416980D02*
X108934129Y-96250314D01*
X108934129Y-96250314D02*
X108434129Y-96083647D01*
X108434129Y-95964600D02*
X108434129Y-95655076D01*
X108434129Y-95655076D02*
X108624605Y-95821743D01*
X108624605Y-95821743D02*
X108624605Y-95750314D01*
X108624605Y-95750314D02*
X108648415Y-95702695D01*
X108648415Y-95702695D02*
X108672224Y-95678886D01*
X108672224Y-95678886D02*
X108719843Y-95655076D01*
X108719843Y-95655076D02*
X108838891Y-95655076D01*
X108838891Y-95655076D02*
X108886510Y-95678886D01*
X108886510Y-95678886D02*
X108910320Y-95702695D01*
X108910320Y-95702695D02*
X108934129Y-95750314D01*
X108934129Y-95750314D02*
X108934129Y-95893171D01*
X108934129Y-95893171D02*
X108910320Y-95940790D01*
X108910320Y-95940790D02*
X108886510Y-95964600D01*
X135734129Y-97193170D02*
X135734129Y-96907456D01*
X136234129Y-97050313D02*
X135734129Y-97050313D01*
X136186510Y-96455076D02*
X136210320Y-96478885D01*
X136210320Y-96478885D02*
X136234129Y-96550314D01*
X136234129Y-96550314D02*
X136234129Y-96597933D01*
X136234129Y-96597933D02*
X136210320Y-96669361D01*
X136210320Y-96669361D02*
X136162700Y-96716980D01*
X136162700Y-96716980D02*
X136115081Y-96740790D01*
X136115081Y-96740790D02*
X136019843Y-96764599D01*
X136019843Y-96764599D02*
X135948415Y-96764599D01*
X135948415Y-96764599D02*
X135853177Y-96740790D01*
X135853177Y-96740790D02*
X135805558Y-96716980D01*
X135805558Y-96716980D02*
X135757939Y-96669361D01*
X135757939Y-96669361D02*
X135734129Y-96597933D01*
X135734129Y-96597933D02*
X135734129Y-96550314D01*
X135734129Y-96550314D02*
X135757939Y-96478885D01*
X135757939Y-96478885D02*
X135781748Y-96455076D01*
X136234129Y-96240790D02*
X135734129Y-96240790D01*
X136234129Y-95955076D02*
X135948415Y-96169361D01*
X135734129Y-95955076D02*
X136019843Y-96240790D01*
X114234129Y-96636028D02*
X113996034Y-96802694D01*
X114234129Y-96921742D02*
X113734129Y-96921742D01*
X113734129Y-96921742D02*
X113734129Y-96731266D01*
X113734129Y-96731266D02*
X113757939Y-96683647D01*
X113757939Y-96683647D02*
X113781748Y-96659837D01*
X113781748Y-96659837D02*
X113829367Y-96636028D01*
X113829367Y-96636028D02*
X113900796Y-96636028D01*
X113900796Y-96636028D02*
X113948415Y-96659837D01*
X113948415Y-96659837D02*
X113972224Y-96683647D01*
X113972224Y-96683647D02*
X113996034Y-96731266D01*
X113996034Y-96731266D02*
X113996034Y-96921742D01*
X114234129Y-96469361D02*
X113900796Y-96207456D01*
X113900796Y-96469361D02*
X114234129Y-96207456D01*
X133134129Y-97193170D02*
X133134129Y-96907456D01*
X133634129Y-97050313D02*
X133134129Y-97050313D01*
X133634129Y-96740790D02*
X133134129Y-96740790D01*
X133134129Y-96740790D02*
X133491272Y-96574123D01*
X133491272Y-96574123D02*
X133134129Y-96407457D01*
X133134129Y-96407457D02*
X133634129Y-96407457D01*
X133610320Y-96193170D02*
X133634129Y-96121742D01*
X133634129Y-96121742D02*
X133634129Y-96002694D01*
X133634129Y-96002694D02*
X133610320Y-95955075D01*
X133610320Y-95955075D02*
X133586510Y-95931266D01*
X133586510Y-95931266D02*
X133538891Y-95907456D01*
X133538891Y-95907456D02*
X133491272Y-95907456D01*
X133491272Y-95907456D02*
X133443653Y-95931266D01*
X133443653Y-95931266D02*
X133419843Y-95955075D01*
X133419843Y-95955075D02*
X133396034Y-96002694D01*
X133396034Y-96002694D02*
X133372224Y-96097932D01*
X133372224Y-96097932D02*
X133348415Y-96145551D01*
X133348415Y-96145551D02*
X133324605Y-96169361D01*
X133324605Y-96169361D02*
X133276986Y-96193170D01*
X133276986Y-96193170D02*
X133229367Y-96193170D01*
X133229367Y-96193170D02*
X133181748Y-96169361D01*
X133181748Y-96169361D02*
X133157939Y-96145551D01*
X133157939Y-96145551D02*
X133134129Y-96097932D01*
X133134129Y-96097932D02*
X133134129Y-95978885D01*
X133134129Y-95978885D02*
X133157939Y-95907456D01*
X105934129Y-96483647D02*
X105934129Y-96721742D01*
X105934129Y-96721742D02*
X106172224Y-96745551D01*
X106172224Y-96745551D02*
X106148415Y-96721742D01*
X106148415Y-96721742D02*
X106124605Y-96674123D01*
X106124605Y-96674123D02*
X106124605Y-96555075D01*
X106124605Y-96555075D02*
X106148415Y-96507456D01*
X106148415Y-96507456D02*
X106172224Y-96483647D01*
X106172224Y-96483647D02*
X106219843Y-96459837D01*
X106219843Y-96459837D02*
X106338891Y-96459837D01*
X106338891Y-96459837D02*
X106386510Y-96483647D01*
X106386510Y-96483647D02*
X106410320Y-96507456D01*
X106410320Y-96507456D02*
X106434129Y-96555075D01*
X106434129Y-96555075D02*
X106434129Y-96674123D01*
X106434129Y-96674123D02*
X106410320Y-96721742D01*
X106410320Y-96721742D02*
X106386510Y-96745551D01*
X105934129Y-96316980D02*
X106434129Y-96150314D01*
X106434129Y-96150314D02*
X105934129Y-95983647D01*
X116057939Y-96559837D02*
X116034129Y-96607456D01*
X116034129Y-96607456D02*
X116034129Y-96678885D01*
X116034129Y-96678885D02*
X116057939Y-96750313D01*
X116057939Y-96750313D02*
X116105558Y-96797932D01*
X116105558Y-96797932D02*
X116153177Y-96821742D01*
X116153177Y-96821742D02*
X116248415Y-96845551D01*
X116248415Y-96845551D02*
X116319843Y-96845551D01*
X116319843Y-96845551D02*
X116415081Y-96821742D01*
X116415081Y-96821742D02*
X116462700Y-96797932D01*
X116462700Y-96797932D02*
X116510320Y-96750313D01*
X116510320Y-96750313D02*
X116534129Y-96678885D01*
X116534129Y-96678885D02*
X116534129Y-96631266D01*
X116534129Y-96631266D02*
X116510320Y-96559837D01*
X116510320Y-96559837D02*
X116486510Y-96536028D01*
X116486510Y-96536028D02*
X116319843Y-96536028D01*
X116319843Y-96536028D02*
X116319843Y-96631266D01*
X116200796Y-96321742D02*
X116534129Y-96321742D01*
X116248415Y-96321742D02*
X116224605Y-96297932D01*
X116224605Y-96297932D02*
X116200796Y-96250313D01*
X116200796Y-96250313D02*
X116200796Y-96178885D01*
X116200796Y-96178885D02*
X116224605Y-96131266D01*
X116224605Y-96131266D02*
X116272224Y-96107456D01*
X116272224Y-96107456D02*
X116534129Y-96107456D01*
X116534129Y-95655075D02*
X116034129Y-95655075D01*
X116510320Y-95655075D02*
X116534129Y-95702694D01*
X116534129Y-95702694D02*
X116534129Y-95797932D01*
X116534129Y-95797932D02*
X116510320Y-95845551D01*
X116510320Y-95845551D02*
X116486510Y-95869361D01*
X116486510Y-95869361D02*
X116438891Y-95893170D01*
X116438891Y-95893170D02*
X116296034Y-95893170D01*
X116296034Y-95893170D02*
X116248415Y-95869361D01*
X116248415Y-95869361D02*
X116224605Y-95845551D01*
X116224605Y-95845551D02*
X116200796Y-95797932D01*
X116200796Y-95797932D02*
X116200796Y-95702694D01*
X116200796Y-95702694D02*
X116224605Y-95655075D01*
X128134129Y-97069361D02*
X128134129Y-96759837D01*
X128134129Y-96759837D02*
X128324605Y-96926504D01*
X128324605Y-96926504D02*
X128324605Y-96855075D01*
X128324605Y-96855075D02*
X128348415Y-96807456D01*
X128348415Y-96807456D02*
X128372224Y-96783647D01*
X128372224Y-96783647D02*
X128419843Y-96759837D01*
X128419843Y-96759837D02*
X128538891Y-96759837D01*
X128538891Y-96759837D02*
X128586510Y-96783647D01*
X128586510Y-96783647D02*
X128610320Y-96807456D01*
X128610320Y-96807456D02*
X128634129Y-96855075D01*
X128634129Y-96855075D02*
X128634129Y-96997932D01*
X128634129Y-96997932D02*
X128610320Y-97045551D01*
X128610320Y-97045551D02*
X128586510Y-97069361D01*
X128134129Y-96616980D02*
X128634129Y-96450314D01*
X128634129Y-96450314D02*
X128134129Y-96283647D01*
X128134129Y-96164600D02*
X128134129Y-95855076D01*
X128134129Y-95855076D02*
X128324605Y-96021743D01*
X128324605Y-96021743D02*
X128324605Y-95950314D01*
X128324605Y-95950314D02*
X128348415Y-95902695D01*
X128348415Y-95902695D02*
X128372224Y-95878886D01*
X128372224Y-95878886D02*
X128419843Y-95855076D01*
X128419843Y-95855076D02*
X128538891Y-95855076D01*
X128538891Y-95855076D02*
X128586510Y-95878886D01*
X128586510Y-95878886D02*
X128610320Y-95902695D01*
X128610320Y-95902695D02*
X128634129Y-95950314D01*
X128634129Y-95950314D02*
X128634129Y-96093171D01*
X128634129Y-96093171D02*
X128610320Y-96140790D01*
X128610320Y-96140790D02*
X128586510Y-96164600D01*
X125557939Y-96759837D02*
X125534129Y-96807456D01*
X125534129Y-96807456D02*
X125534129Y-96878885D01*
X125534129Y-96878885D02*
X125557939Y-96950313D01*
X125557939Y-96950313D02*
X125605558Y-96997932D01*
X125605558Y-96997932D02*
X125653177Y-97021742D01*
X125653177Y-97021742D02*
X125748415Y-97045551D01*
X125748415Y-97045551D02*
X125819843Y-97045551D01*
X125819843Y-97045551D02*
X125915081Y-97021742D01*
X125915081Y-97021742D02*
X125962700Y-96997932D01*
X125962700Y-96997932D02*
X126010320Y-96950313D01*
X126010320Y-96950313D02*
X126034129Y-96878885D01*
X126034129Y-96878885D02*
X126034129Y-96831266D01*
X126034129Y-96831266D02*
X126010320Y-96759837D01*
X126010320Y-96759837D02*
X125986510Y-96736028D01*
X125986510Y-96736028D02*
X125819843Y-96736028D01*
X125819843Y-96736028D02*
X125819843Y-96831266D01*
X125700796Y-96521742D02*
X126034129Y-96521742D01*
X125748415Y-96521742D02*
X125724605Y-96497932D01*
X125724605Y-96497932D02*
X125700796Y-96450313D01*
X125700796Y-96450313D02*
X125700796Y-96378885D01*
X125700796Y-96378885D02*
X125724605Y-96331266D01*
X125724605Y-96331266D02*
X125772224Y-96307456D01*
X125772224Y-96307456D02*
X126034129Y-96307456D01*
X126034129Y-95855075D02*
X125534129Y-95855075D01*
X126010320Y-95855075D02*
X126034129Y-95902694D01*
X126034129Y-95902694D02*
X126034129Y-95997932D01*
X126034129Y-95997932D02*
X126010320Y-96045551D01*
X126010320Y-96045551D02*
X125986510Y-96069361D01*
X125986510Y-96069361D02*
X125938891Y-96093170D01*
X125938891Y-96093170D02*
X125796034Y-96093170D01*
X125796034Y-96093170D02*
X125748415Y-96069361D01*
X125748415Y-96069361D02*
X125724605Y-96045551D01*
X125724605Y-96045551D02*
X125700796Y-95997932D01*
X125700796Y-95997932D02*
X125700796Y-95902694D01*
X125700796Y-95902694D02*
X125724605Y-95855075D01*
X133478571Y-82216510D02*
X133454762Y-82240320D01*
X133454762Y-82240320D02*
X133383333Y-82264129D01*
X133383333Y-82264129D02*
X133335714Y-82264129D01*
X133335714Y-82264129D02*
X133264286Y-82240320D01*
X133264286Y-82240320D02*
X133216667Y-82192700D01*
X133216667Y-82192700D02*
X133192857Y-82145081D01*
X133192857Y-82145081D02*
X133169048Y-82049843D01*
X133169048Y-82049843D02*
X133169048Y-81978415D01*
X133169048Y-81978415D02*
X133192857Y-81883177D01*
X133192857Y-81883177D02*
X133216667Y-81835558D01*
X133216667Y-81835558D02*
X133264286Y-81787939D01*
X133264286Y-81787939D02*
X133335714Y-81764129D01*
X133335714Y-81764129D02*
X133383333Y-81764129D01*
X133383333Y-81764129D02*
X133454762Y-81787939D01*
X133454762Y-81787939D02*
X133478571Y-81811748D01*
X133954762Y-82264129D02*
X133669048Y-82264129D01*
X133811905Y-82264129D02*
X133811905Y-81764129D01*
X133811905Y-81764129D02*
X133764286Y-81835558D01*
X133764286Y-81835558D02*
X133716667Y-81883177D01*
X133716667Y-81883177D02*
X133669048Y-81906986D01*
X134192857Y-82264129D02*
X134288095Y-82264129D01*
X134288095Y-82264129D02*
X134335714Y-82240320D01*
X134335714Y-82240320D02*
X134359523Y-82216510D01*
X134359523Y-82216510D02*
X134407142Y-82145081D01*
X134407142Y-82145081D02*
X134430952Y-82049843D01*
X134430952Y-82049843D02*
X134430952Y-81859367D01*
X134430952Y-81859367D02*
X134407142Y-81811748D01*
X134407142Y-81811748D02*
X134383333Y-81787939D01*
X134383333Y-81787939D02*
X134335714Y-81764129D01*
X134335714Y-81764129D02*
X134240476Y-81764129D01*
X134240476Y-81764129D02*
X134192857Y-81787939D01*
X134192857Y-81787939D02*
X134169047Y-81811748D01*
X134169047Y-81811748D02*
X134145238Y-81859367D01*
X134145238Y-81859367D02*
X134145238Y-81978415D01*
X134145238Y-81978415D02*
X134169047Y-82026034D01*
X134169047Y-82026034D02*
X134192857Y-82049843D01*
X134192857Y-82049843D02*
X134240476Y-82073653D01*
X134240476Y-82073653D02*
X134335714Y-82073653D01*
X134335714Y-82073653D02*
X134383333Y-82049843D01*
X134383333Y-82049843D02*
X134407142Y-82026034D01*
X134407142Y-82026034D02*
X134430952Y-81978415D01*
X130319047Y-81326629D02*
X130319047Y-81731391D01*
X130319047Y-81731391D02*
X130342857Y-81779010D01*
X130342857Y-81779010D02*
X130366666Y-81802820D01*
X130366666Y-81802820D02*
X130414285Y-81826629D01*
X130414285Y-81826629D02*
X130509523Y-81826629D01*
X130509523Y-81826629D02*
X130557142Y-81802820D01*
X130557142Y-81802820D02*
X130580952Y-81779010D01*
X130580952Y-81779010D02*
X130604761Y-81731391D01*
X130604761Y-81731391D02*
X130604761Y-81326629D01*
X130819048Y-81374248D02*
X130842857Y-81350439D01*
X130842857Y-81350439D02*
X130890476Y-81326629D01*
X130890476Y-81326629D02*
X131009524Y-81326629D01*
X131009524Y-81326629D02*
X131057143Y-81350439D01*
X131057143Y-81350439D02*
X131080952Y-81374248D01*
X131080952Y-81374248D02*
X131104762Y-81421867D01*
X131104762Y-81421867D02*
X131104762Y-81469486D01*
X131104762Y-81469486D02*
X131080952Y-81540915D01*
X131080952Y-81540915D02*
X130795238Y-81826629D01*
X130795238Y-81826629D02*
X131104762Y-81826629D01*
X133541071Y-87241510D02*
X133517262Y-87265320D01*
X133517262Y-87265320D02*
X133445833Y-87289129D01*
X133445833Y-87289129D02*
X133398214Y-87289129D01*
X133398214Y-87289129D02*
X133326786Y-87265320D01*
X133326786Y-87265320D02*
X133279167Y-87217700D01*
X133279167Y-87217700D02*
X133255357Y-87170081D01*
X133255357Y-87170081D02*
X133231548Y-87074843D01*
X133231548Y-87074843D02*
X133231548Y-87003415D01*
X133231548Y-87003415D02*
X133255357Y-86908177D01*
X133255357Y-86908177D02*
X133279167Y-86860558D01*
X133279167Y-86860558D02*
X133326786Y-86812939D01*
X133326786Y-86812939D02*
X133398214Y-86789129D01*
X133398214Y-86789129D02*
X133445833Y-86789129D01*
X133445833Y-86789129D02*
X133517262Y-86812939D01*
X133517262Y-86812939D02*
X133541071Y-86836748D01*
X133731548Y-86836748D02*
X133755357Y-86812939D01*
X133755357Y-86812939D02*
X133802976Y-86789129D01*
X133802976Y-86789129D02*
X133922024Y-86789129D01*
X133922024Y-86789129D02*
X133969643Y-86812939D01*
X133969643Y-86812939D02*
X133993452Y-86836748D01*
X133993452Y-86836748D02*
X134017262Y-86884367D01*
X134017262Y-86884367D02*
X134017262Y-86931986D01*
X134017262Y-86931986D02*
X133993452Y-87003415D01*
X133993452Y-87003415D02*
X133707738Y-87289129D01*
X133707738Y-87289129D02*
X134017262Y-87289129D01*
X134326785Y-86789129D02*
X134374404Y-86789129D01*
X134374404Y-86789129D02*
X134422023Y-86812939D01*
X134422023Y-86812939D02*
X134445833Y-86836748D01*
X134445833Y-86836748D02*
X134469642Y-86884367D01*
X134469642Y-86884367D02*
X134493452Y-86979605D01*
X134493452Y-86979605D02*
X134493452Y-87098653D01*
X134493452Y-87098653D02*
X134469642Y-87193891D01*
X134469642Y-87193891D02*
X134445833Y-87241510D01*
X134445833Y-87241510D02*
X134422023Y-87265320D01*
X134422023Y-87265320D02*
X134374404Y-87289129D01*
X134374404Y-87289129D02*
X134326785Y-87289129D01*
X134326785Y-87289129D02*
X134279166Y-87265320D01*
X134279166Y-87265320D02*
X134255357Y-87241510D01*
X134255357Y-87241510D02*
X134231547Y-87193891D01*
X134231547Y-87193891D02*
X134207738Y-87098653D01*
X134207738Y-87098653D02*
X134207738Y-86979605D01*
X134207738Y-86979605D02*
X134231547Y-86884367D01*
X134231547Y-86884367D02*
X134255357Y-86836748D01*
X134255357Y-86836748D02*
X134279166Y-86812939D01*
X134279166Y-86812939D02*
X134326785Y-86789129D01*
X115679166Y-89436629D02*
X115512500Y-89198534D01*
X115393452Y-89436629D02*
X115393452Y-88936629D01*
X115393452Y-88936629D02*
X115583928Y-88936629D01*
X115583928Y-88936629D02*
X115631547Y-88960439D01*
X115631547Y-88960439D02*
X115655357Y-88984248D01*
X115655357Y-88984248D02*
X115679166Y-89031867D01*
X115679166Y-89031867D02*
X115679166Y-89103296D01*
X115679166Y-89103296D02*
X115655357Y-89150915D01*
X115655357Y-89150915D02*
X115631547Y-89174724D01*
X115631547Y-89174724D02*
X115583928Y-89198534D01*
X115583928Y-89198534D02*
X115393452Y-89198534D01*
X116107738Y-89103296D02*
X116107738Y-89436629D01*
X115988690Y-88912820D02*
X115869643Y-89269962D01*
X115869643Y-89269962D02*
X116179166Y-89269962D01*
X124991071Y-77399010D02*
X124967262Y-77422820D01*
X124967262Y-77422820D02*
X124895833Y-77446629D01*
X124895833Y-77446629D02*
X124848214Y-77446629D01*
X124848214Y-77446629D02*
X124776786Y-77422820D01*
X124776786Y-77422820D02*
X124729167Y-77375200D01*
X124729167Y-77375200D02*
X124705357Y-77327581D01*
X124705357Y-77327581D02*
X124681548Y-77232343D01*
X124681548Y-77232343D02*
X124681548Y-77160915D01*
X124681548Y-77160915D02*
X124705357Y-77065677D01*
X124705357Y-77065677D02*
X124729167Y-77018058D01*
X124729167Y-77018058D02*
X124776786Y-76970439D01*
X124776786Y-76970439D02*
X124848214Y-76946629D01*
X124848214Y-76946629D02*
X124895833Y-76946629D01*
X124895833Y-76946629D02*
X124967262Y-76970439D01*
X124967262Y-76970439D02*
X124991071Y-76994248D01*
X125467262Y-77446629D02*
X125181548Y-77446629D01*
X125324405Y-77446629D02*
X125324405Y-76946629D01*
X125324405Y-76946629D02*
X125276786Y-77018058D01*
X125276786Y-77018058D02*
X125229167Y-77065677D01*
X125229167Y-77065677D02*
X125181548Y-77089486D01*
X125633928Y-76946629D02*
X125943452Y-76946629D01*
X125943452Y-76946629D02*
X125776785Y-77137105D01*
X125776785Y-77137105D02*
X125848214Y-77137105D01*
X125848214Y-77137105D02*
X125895833Y-77160915D01*
X125895833Y-77160915D02*
X125919642Y-77184724D01*
X125919642Y-77184724D02*
X125943452Y-77232343D01*
X125943452Y-77232343D02*
X125943452Y-77351391D01*
X125943452Y-77351391D02*
X125919642Y-77399010D01*
X125919642Y-77399010D02*
X125895833Y-77422820D01*
X125895833Y-77422820D02*
X125848214Y-77446629D01*
X125848214Y-77446629D02*
X125705357Y-77446629D01*
X125705357Y-77446629D02*
X125657738Y-77422820D01*
X125657738Y-77422820D02*
X125633928Y-77399010D01*
X124216666Y-92079010D02*
X124192857Y-92102820D01*
X124192857Y-92102820D02*
X124121428Y-92126629D01*
X124121428Y-92126629D02*
X124073809Y-92126629D01*
X124073809Y-92126629D02*
X124002381Y-92102820D01*
X124002381Y-92102820D02*
X123954762Y-92055200D01*
X123954762Y-92055200D02*
X123930952Y-92007581D01*
X123930952Y-92007581D02*
X123907143Y-91912343D01*
X123907143Y-91912343D02*
X123907143Y-91840915D01*
X123907143Y-91840915D02*
X123930952Y-91745677D01*
X123930952Y-91745677D02*
X123954762Y-91698058D01*
X123954762Y-91698058D02*
X124002381Y-91650439D01*
X124002381Y-91650439D02*
X124073809Y-91626629D01*
X124073809Y-91626629D02*
X124121428Y-91626629D01*
X124121428Y-91626629D02*
X124192857Y-91650439D01*
X124192857Y-91650439D02*
X124216666Y-91674248D01*
X124645238Y-91793296D02*
X124645238Y-92126629D01*
X124526190Y-91602820D02*
X124407143Y-91959962D01*
X124407143Y-91959962D02*
X124716666Y-91959962D01*
X122016666Y-91979010D02*
X121992857Y-92002820D01*
X121992857Y-92002820D02*
X121921428Y-92026629D01*
X121921428Y-92026629D02*
X121873809Y-92026629D01*
X121873809Y-92026629D02*
X121802381Y-92002820D01*
X121802381Y-92002820D02*
X121754762Y-91955200D01*
X121754762Y-91955200D02*
X121730952Y-91907581D01*
X121730952Y-91907581D02*
X121707143Y-91812343D01*
X121707143Y-91812343D02*
X121707143Y-91740915D01*
X121707143Y-91740915D02*
X121730952Y-91645677D01*
X121730952Y-91645677D02*
X121754762Y-91598058D01*
X121754762Y-91598058D02*
X121802381Y-91550439D01*
X121802381Y-91550439D02*
X121873809Y-91526629D01*
X121873809Y-91526629D02*
X121921428Y-91526629D01*
X121921428Y-91526629D02*
X121992857Y-91550439D01*
X121992857Y-91550439D02*
X122016666Y-91574248D01*
X122183333Y-91526629D02*
X122492857Y-91526629D01*
X122492857Y-91526629D02*
X122326190Y-91717105D01*
X122326190Y-91717105D02*
X122397619Y-91717105D01*
X122397619Y-91717105D02*
X122445238Y-91740915D01*
X122445238Y-91740915D02*
X122469047Y-91764724D01*
X122469047Y-91764724D02*
X122492857Y-91812343D01*
X122492857Y-91812343D02*
X122492857Y-91931391D01*
X122492857Y-91931391D02*
X122469047Y-91979010D01*
X122469047Y-91979010D02*
X122445238Y-92002820D01*
X122445238Y-92002820D02*
X122397619Y-92026629D01*
X122397619Y-92026629D02*
X122254762Y-92026629D01*
X122254762Y-92026629D02*
X122207143Y-92002820D01*
X122207143Y-92002820D02*
X122183333Y-91979010D01*
X121516666Y-77926629D02*
X121278571Y-77926629D01*
X121278571Y-77926629D02*
X121278571Y-77426629D01*
X121897619Y-77593296D02*
X121897619Y-77926629D01*
X121778571Y-77402820D02*
X121659524Y-77759962D01*
X121659524Y-77759962D02*
X121969047Y-77759962D01*
X119816666Y-91979010D02*
X119792857Y-92002820D01*
X119792857Y-92002820D02*
X119721428Y-92026629D01*
X119721428Y-92026629D02*
X119673809Y-92026629D01*
X119673809Y-92026629D02*
X119602381Y-92002820D01*
X119602381Y-92002820D02*
X119554762Y-91955200D01*
X119554762Y-91955200D02*
X119530952Y-91907581D01*
X119530952Y-91907581D02*
X119507143Y-91812343D01*
X119507143Y-91812343D02*
X119507143Y-91740915D01*
X119507143Y-91740915D02*
X119530952Y-91645677D01*
X119530952Y-91645677D02*
X119554762Y-91598058D01*
X119554762Y-91598058D02*
X119602381Y-91550439D01*
X119602381Y-91550439D02*
X119673809Y-91526629D01*
X119673809Y-91526629D02*
X119721428Y-91526629D01*
X119721428Y-91526629D02*
X119792857Y-91550439D01*
X119792857Y-91550439D02*
X119816666Y-91574248D01*
X120007143Y-91574248D02*
X120030952Y-91550439D01*
X120030952Y-91550439D02*
X120078571Y-91526629D01*
X120078571Y-91526629D02*
X120197619Y-91526629D01*
X120197619Y-91526629D02*
X120245238Y-91550439D01*
X120245238Y-91550439D02*
X120269047Y-91574248D01*
X120269047Y-91574248D02*
X120292857Y-91621867D01*
X120292857Y-91621867D02*
X120292857Y-91669486D01*
X120292857Y-91669486D02*
X120269047Y-91740915D01*
X120269047Y-91740915D02*
X119983333Y-92026629D01*
X119983333Y-92026629D02*
X120292857Y-92026629D01*
X109316666Y-86979010D02*
X109292857Y-87002820D01*
X109292857Y-87002820D02*
X109221428Y-87026629D01*
X109221428Y-87026629D02*
X109173809Y-87026629D01*
X109173809Y-87026629D02*
X109102381Y-87002820D01*
X109102381Y-87002820D02*
X109054762Y-86955200D01*
X109054762Y-86955200D02*
X109030952Y-86907581D01*
X109030952Y-86907581D02*
X109007143Y-86812343D01*
X109007143Y-86812343D02*
X109007143Y-86740915D01*
X109007143Y-86740915D02*
X109030952Y-86645677D01*
X109030952Y-86645677D02*
X109054762Y-86598058D01*
X109054762Y-86598058D02*
X109102381Y-86550439D01*
X109102381Y-86550439D02*
X109173809Y-86526629D01*
X109173809Y-86526629D02*
X109221428Y-86526629D01*
X109221428Y-86526629D02*
X109292857Y-86550439D01*
X109292857Y-86550439D02*
X109316666Y-86574248D01*
X109769047Y-86526629D02*
X109530952Y-86526629D01*
X109530952Y-86526629D02*
X109507143Y-86764724D01*
X109507143Y-86764724D02*
X109530952Y-86740915D01*
X109530952Y-86740915D02*
X109578571Y-86717105D01*
X109578571Y-86717105D02*
X109697619Y-86717105D01*
X109697619Y-86717105D02*
X109745238Y-86740915D01*
X109745238Y-86740915D02*
X109769047Y-86764724D01*
X109769047Y-86764724D02*
X109792857Y-86812343D01*
X109792857Y-86812343D02*
X109792857Y-86931391D01*
X109792857Y-86931391D02*
X109769047Y-86979010D01*
X109769047Y-86979010D02*
X109745238Y-87002820D01*
X109745238Y-87002820D02*
X109697619Y-87026629D01*
X109697619Y-87026629D02*
X109578571Y-87026629D01*
X109578571Y-87026629D02*
X109530952Y-87002820D01*
X109530952Y-87002820D02*
X109507143Y-86979010D01*
X109228571Y-70889010D02*
X109204762Y-70912820D01*
X109204762Y-70912820D02*
X109133333Y-70936629D01*
X109133333Y-70936629D02*
X109085714Y-70936629D01*
X109085714Y-70936629D02*
X109014286Y-70912820D01*
X109014286Y-70912820D02*
X108966667Y-70865200D01*
X108966667Y-70865200D02*
X108942857Y-70817581D01*
X108942857Y-70817581D02*
X108919048Y-70722343D01*
X108919048Y-70722343D02*
X108919048Y-70650915D01*
X108919048Y-70650915D02*
X108942857Y-70555677D01*
X108942857Y-70555677D02*
X108966667Y-70508058D01*
X108966667Y-70508058D02*
X109014286Y-70460439D01*
X109014286Y-70460439D02*
X109085714Y-70436629D01*
X109085714Y-70436629D02*
X109133333Y-70436629D01*
X109133333Y-70436629D02*
X109204762Y-70460439D01*
X109204762Y-70460439D02*
X109228571Y-70484248D01*
X109704762Y-70936629D02*
X109419048Y-70936629D01*
X109561905Y-70936629D02*
X109561905Y-70436629D01*
X109561905Y-70436629D02*
X109514286Y-70508058D01*
X109514286Y-70508058D02*
X109466667Y-70555677D01*
X109466667Y-70555677D02*
X109419048Y-70579486D01*
X110014285Y-70436629D02*
X110061904Y-70436629D01*
X110061904Y-70436629D02*
X110109523Y-70460439D01*
X110109523Y-70460439D02*
X110133333Y-70484248D01*
X110133333Y-70484248D02*
X110157142Y-70531867D01*
X110157142Y-70531867D02*
X110180952Y-70627105D01*
X110180952Y-70627105D02*
X110180952Y-70746153D01*
X110180952Y-70746153D02*
X110157142Y-70841391D01*
X110157142Y-70841391D02*
X110133333Y-70889010D01*
X110133333Y-70889010D02*
X110109523Y-70912820D01*
X110109523Y-70912820D02*
X110061904Y-70936629D01*
X110061904Y-70936629D02*
X110014285Y-70936629D01*
X110014285Y-70936629D02*
X109966666Y-70912820D01*
X109966666Y-70912820D02*
X109942857Y-70889010D01*
X109942857Y-70889010D02*
X109919047Y-70841391D01*
X109919047Y-70841391D02*
X109895238Y-70746153D01*
X109895238Y-70746153D02*
X109895238Y-70627105D01*
X109895238Y-70627105D02*
X109919047Y-70531867D01*
X109919047Y-70531867D02*
X109942857Y-70484248D01*
X109942857Y-70484248D02*
X109966666Y-70460439D01*
X109966666Y-70460439D02*
X110014285Y-70436629D01*
X132295238Y-69826629D02*
X132628571Y-70326629D01*
X132628571Y-69826629D02*
X132295238Y-70326629D01*
X132795238Y-69874248D02*
X132819047Y-69850439D01*
X132819047Y-69850439D02*
X132866666Y-69826629D01*
X132866666Y-69826629D02*
X132985714Y-69826629D01*
X132985714Y-69826629D02*
X133033333Y-69850439D01*
X133033333Y-69850439D02*
X133057142Y-69874248D01*
X133057142Y-69874248D02*
X133080952Y-69921867D01*
X133080952Y-69921867D02*
X133080952Y-69969486D01*
X133080952Y-69969486D02*
X133057142Y-70040915D01*
X133057142Y-70040915D02*
X132771428Y-70326629D01*
X132771428Y-70326629D02*
X133080952Y-70326629D01*
X145094047Y-69276629D02*
X145094047Y-69681391D01*
X145094047Y-69681391D02*
X145117857Y-69729010D01*
X145117857Y-69729010D02*
X145141666Y-69752820D01*
X145141666Y-69752820D02*
X145189285Y-69776629D01*
X145189285Y-69776629D02*
X145284523Y-69776629D01*
X145284523Y-69776629D02*
X145332142Y-69752820D01*
X145332142Y-69752820D02*
X145355952Y-69729010D01*
X145355952Y-69729010D02*
X145379761Y-69681391D01*
X145379761Y-69681391D02*
X145379761Y-69276629D01*
X145879762Y-69776629D02*
X145594048Y-69776629D01*
X145736905Y-69776629D02*
X145736905Y-69276629D01*
X145736905Y-69276629D02*
X145689286Y-69348058D01*
X145689286Y-69348058D02*
X145641667Y-69395677D01*
X145641667Y-69395677D02*
X145594048Y-69419486D01*
X103151547Y-99086629D02*
X103151547Y-98586629D01*
X103151547Y-98824724D02*
X103437261Y-98824724D01*
X103437261Y-99086629D02*
X103437261Y-98586629D01*
X103627738Y-98586629D02*
X103937262Y-98586629D01*
X103937262Y-98586629D02*
X103770595Y-98777105D01*
X103770595Y-98777105D02*
X103842024Y-98777105D01*
X103842024Y-98777105D02*
X103889643Y-98800915D01*
X103889643Y-98800915D02*
X103913452Y-98824724D01*
X103913452Y-98824724D02*
X103937262Y-98872343D01*
X103937262Y-98872343D02*
X103937262Y-98991391D01*
X103937262Y-98991391D02*
X103913452Y-99039010D01*
X103913452Y-99039010D02*
X103889643Y-99062820D01*
X103889643Y-99062820D02*
X103842024Y-99086629D01*
X103842024Y-99086629D02*
X103699167Y-99086629D01*
X103699167Y-99086629D02*
X103651548Y-99062820D01*
X103651548Y-99062820D02*
X103627738Y-99039010D01*
X122016666Y-75279010D02*
X121992857Y-75302820D01*
X121992857Y-75302820D02*
X121921428Y-75326629D01*
X121921428Y-75326629D02*
X121873809Y-75326629D01*
X121873809Y-75326629D02*
X121802381Y-75302820D01*
X121802381Y-75302820D02*
X121754762Y-75255200D01*
X121754762Y-75255200D02*
X121730952Y-75207581D01*
X121730952Y-75207581D02*
X121707143Y-75112343D01*
X121707143Y-75112343D02*
X121707143Y-75040915D01*
X121707143Y-75040915D02*
X121730952Y-74945677D01*
X121730952Y-74945677D02*
X121754762Y-74898058D01*
X121754762Y-74898058D02*
X121802381Y-74850439D01*
X121802381Y-74850439D02*
X121873809Y-74826629D01*
X121873809Y-74826629D02*
X121921428Y-74826629D01*
X121921428Y-74826629D02*
X121992857Y-74850439D01*
X121992857Y-74850439D02*
X122016666Y-74874248D01*
X122302381Y-75040915D02*
X122254762Y-75017105D01*
X122254762Y-75017105D02*
X122230952Y-74993296D01*
X122230952Y-74993296D02*
X122207143Y-74945677D01*
X122207143Y-74945677D02*
X122207143Y-74921867D01*
X122207143Y-74921867D02*
X122230952Y-74874248D01*
X122230952Y-74874248D02*
X122254762Y-74850439D01*
X122254762Y-74850439D02*
X122302381Y-74826629D01*
X122302381Y-74826629D02*
X122397619Y-74826629D01*
X122397619Y-74826629D02*
X122445238Y-74850439D01*
X122445238Y-74850439D02*
X122469047Y-74874248D01*
X122469047Y-74874248D02*
X122492857Y-74921867D01*
X122492857Y-74921867D02*
X122492857Y-74945677D01*
X122492857Y-74945677D02*
X122469047Y-74993296D01*
X122469047Y-74993296D02*
X122445238Y-75017105D01*
X122445238Y-75017105D02*
X122397619Y-75040915D01*
X122397619Y-75040915D02*
X122302381Y-75040915D01*
X122302381Y-75040915D02*
X122254762Y-75064724D01*
X122254762Y-75064724D02*
X122230952Y-75088534D01*
X122230952Y-75088534D02*
X122207143Y-75136153D01*
X122207143Y-75136153D02*
X122207143Y-75231391D01*
X122207143Y-75231391D02*
X122230952Y-75279010D01*
X122230952Y-75279010D02*
X122254762Y-75302820D01*
X122254762Y-75302820D02*
X122302381Y-75326629D01*
X122302381Y-75326629D02*
X122397619Y-75326629D01*
X122397619Y-75326629D02*
X122445238Y-75302820D01*
X122445238Y-75302820D02*
X122469047Y-75279010D01*
X122469047Y-75279010D02*
X122492857Y-75231391D01*
X122492857Y-75231391D02*
X122492857Y-75136153D01*
X122492857Y-75136153D02*
X122469047Y-75088534D01*
X122469047Y-75088534D02*
X122445238Y-75064724D01*
X122445238Y-75064724D02*
X122397619Y-75040915D01*
X137978571Y-82216510D02*
X137954762Y-82240320D01*
X137954762Y-82240320D02*
X137883333Y-82264129D01*
X137883333Y-82264129D02*
X137835714Y-82264129D01*
X137835714Y-82264129D02*
X137764286Y-82240320D01*
X137764286Y-82240320D02*
X137716667Y-82192700D01*
X137716667Y-82192700D02*
X137692857Y-82145081D01*
X137692857Y-82145081D02*
X137669048Y-82049843D01*
X137669048Y-82049843D02*
X137669048Y-81978415D01*
X137669048Y-81978415D02*
X137692857Y-81883177D01*
X137692857Y-81883177D02*
X137716667Y-81835558D01*
X137716667Y-81835558D02*
X137764286Y-81787939D01*
X137764286Y-81787939D02*
X137835714Y-81764129D01*
X137835714Y-81764129D02*
X137883333Y-81764129D01*
X137883333Y-81764129D02*
X137954762Y-81787939D01*
X137954762Y-81787939D02*
X137978571Y-81811748D01*
X138454762Y-82264129D02*
X138169048Y-82264129D01*
X138311905Y-82264129D02*
X138311905Y-81764129D01*
X138311905Y-81764129D02*
X138264286Y-81835558D01*
X138264286Y-81835558D02*
X138216667Y-81883177D01*
X138216667Y-81883177D02*
X138169048Y-81906986D01*
X138907142Y-81764129D02*
X138669047Y-81764129D01*
X138669047Y-81764129D02*
X138645238Y-82002224D01*
X138645238Y-82002224D02*
X138669047Y-81978415D01*
X138669047Y-81978415D02*
X138716666Y-81954605D01*
X138716666Y-81954605D02*
X138835714Y-81954605D01*
X138835714Y-81954605D02*
X138883333Y-81978415D01*
X138883333Y-81978415D02*
X138907142Y-82002224D01*
X138907142Y-82002224D02*
X138930952Y-82049843D01*
X138930952Y-82049843D02*
X138930952Y-82168891D01*
X138930952Y-82168891D02*
X138907142Y-82216510D01*
X138907142Y-82216510D02*
X138883333Y-82240320D01*
X138883333Y-82240320D02*
X138835714Y-82264129D01*
X138835714Y-82264129D02*
X138716666Y-82264129D01*
X138716666Y-82264129D02*
X138669047Y-82240320D01*
X138669047Y-82240320D02*
X138645238Y-82216510D01*
X128678571Y-92279010D02*
X128654762Y-92302820D01*
X128654762Y-92302820D02*
X128583333Y-92326629D01*
X128583333Y-92326629D02*
X128535714Y-92326629D01*
X128535714Y-92326629D02*
X128464286Y-92302820D01*
X128464286Y-92302820D02*
X128416667Y-92255200D01*
X128416667Y-92255200D02*
X128392857Y-92207581D01*
X128392857Y-92207581D02*
X128369048Y-92112343D01*
X128369048Y-92112343D02*
X128369048Y-92040915D01*
X128369048Y-92040915D02*
X128392857Y-91945677D01*
X128392857Y-91945677D02*
X128416667Y-91898058D01*
X128416667Y-91898058D02*
X128464286Y-91850439D01*
X128464286Y-91850439D02*
X128535714Y-91826629D01*
X128535714Y-91826629D02*
X128583333Y-91826629D01*
X128583333Y-91826629D02*
X128654762Y-91850439D01*
X128654762Y-91850439D02*
X128678571Y-91874248D01*
X129154762Y-92326629D02*
X128869048Y-92326629D01*
X129011905Y-92326629D02*
X129011905Y-91826629D01*
X129011905Y-91826629D02*
X128964286Y-91898058D01*
X128964286Y-91898058D02*
X128916667Y-91945677D01*
X128916667Y-91945677D02*
X128869048Y-91969486D01*
X129583333Y-91826629D02*
X129488095Y-91826629D01*
X129488095Y-91826629D02*
X129440476Y-91850439D01*
X129440476Y-91850439D02*
X129416666Y-91874248D01*
X129416666Y-91874248D02*
X129369047Y-91945677D01*
X129369047Y-91945677D02*
X129345238Y-92040915D01*
X129345238Y-92040915D02*
X129345238Y-92231391D01*
X129345238Y-92231391D02*
X129369047Y-92279010D01*
X129369047Y-92279010D02*
X129392857Y-92302820D01*
X129392857Y-92302820D02*
X129440476Y-92326629D01*
X129440476Y-92326629D02*
X129535714Y-92326629D01*
X129535714Y-92326629D02*
X129583333Y-92302820D01*
X129583333Y-92302820D02*
X129607142Y-92279010D01*
X129607142Y-92279010D02*
X129630952Y-92231391D01*
X129630952Y-92231391D02*
X129630952Y-92112343D01*
X129630952Y-92112343D02*
X129607142Y-92064724D01*
X129607142Y-92064724D02*
X129583333Y-92040915D01*
X129583333Y-92040915D02*
X129535714Y-92017105D01*
X129535714Y-92017105D02*
X129440476Y-92017105D01*
X129440476Y-92017105D02*
X129392857Y-92040915D01*
X129392857Y-92040915D02*
X129369047Y-92064724D01*
X129369047Y-92064724D02*
X129345238Y-92112343D01*
X109616666Y-89414129D02*
X109450000Y-89176034D01*
X109330952Y-89414129D02*
X109330952Y-88914129D01*
X109330952Y-88914129D02*
X109521428Y-88914129D01*
X109521428Y-88914129D02*
X109569047Y-88937939D01*
X109569047Y-88937939D02*
X109592857Y-88961748D01*
X109592857Y-88961748D02*
X109616666Y-89009367D01*
X109616666Y-89009367D02*
X109616666Y-89080796D01*
X109616666Y-89080796D02*
X109592857Y-89128415D01*
X109592857Y-89128415D02*
X109569047Y-89152224D01*
X109569047Y-89152224D02*
X109521428Y-89176034D01*
X109521428Y-89176034D02*
X109330952Y-89176034D01*
X109783333Y-88914129D02*
X110092857Y-88914129D01*
X110092857Y-88914129D02*
X109926190Y-89104605D01*
X109926190Y-89104605D02*
X109997619Y-89104605D01*
X109997619Y-89104605D02*
X110045238Y-89128415D01*
X110045238Y-89128415D02*
X110069047Y-89152224D01*
X110069047Y-89152224D02*
X110092857Y-89199843D01*
X110092857Y-89199843D02*
X110092857Y-89318891D01*
X110092857Y-89318891D02*
X110069047Y-89366510D01*
X110069047Y-89366510D02*
X110045238Y-89390320D01*
X110045238Y-89390320D02*
X109997619Y-89414129D01*
X109997619Y-89414129D02*
X109854762Y-89414129D01*
X109854762Y-89414129D02*
X109807143Y-89390320D01*
X109807143Y-89390320D02*
X109783333Y-89366510D01*
X138430952Y-89746629D02*
X138430952Y-89246629D01*
X138430952Y-89246629D02*
X138550000Y-89246629D01*
X138550000Y-89246629D02*
X138621428Y-89270439D01*
X138621428Y-89270439D02*
X138669047Y-89318058D01*
X138669047Y-89318058D02*
X138692857Y-89365677D01*
X138692857Y-89365677D02*
X138716666Y-89460915D01*
X138716666Y-89460915D02*
X138716666Y-89532343D01*
X138716666Y-89532343D02*
X138692857Y-89627581D01*
X138692857Y-89627581D02*
X138669047Y-89675200D01*
X138669047Y-89675200D02*
X138621428Y-89722820D01*
X138621428Y-89722820D02*
X138550000Y-89746629D01*
X138550000Y-89746629D02*
X138430952Y-89746629D01*
X138907143Y-89294248D02*
X138930952Y-89270439D01*
X138930952Y-89270439D02*
X138978571Y-89246629D01*
X138978571Y-89246629D02*
X139097619Y-89246629D01*
X139097619Y-89246629D02*
X139145238Y-89270439D01*
X139145238Y-89270439D02*
X139169047Y-89294248D01*
X139169047Y-89294248D02*
X139192857Y-89341867D01*
X139192857Y-89341867D02*
X139192857Y-89389486D01*
X139192857Y-89389486D02*
X139169047Y-89460915D01*
X139169047Y-89460915D02*
X138883333Y-89746629D01*
X138883333Y-89746629D02*
X139192857Y-89746629D01*
X110879166Y-78719010D02*
X110855357Y-78742820D01*
X110855357Y-78742820D02*
X110783928Y-78766629D01*
X110783928Y-78766629D02*
X110736309Y-78766629D01*
X110736309Y-78766629D02*
X110664881Y-78742820D01*
X110664881Y-78742820D02*
X110617262Y-78695200D01*
X110617262Y-78695200D02*
X110593452Y-78647581D01*
X110593452Y-78647581D02*
X110569643Y-78552343D01*
X110569643Y-78552343D02*
X110569643Y-78480915D01*
X110569643Y-78480915D02*
X110593452Y-78385677D01*
X110593452Y-78385677D02*
X110617262Y-78338058D01*
X110617262Y-78338058D02*
X110664881Y-78290439D01*
X110664881Y-78290439D02*
X110736309Y-78266629D01*
X110736309Y-78266629D02*
X110783928Y-78266629D01*
X110783928Y-78266629D02*
X110855357Y-78290439D01*
X110855357Y-78290439D02*
X110879166Y-78314248D01*
X111117262Y-78766629D02*
X111212500Y-78766629D01*
X111212500Y-78766629D02*
X111260119Y-78742820D01*
X111260119Y-78742820D02*
X111283928Y-78719010D01*
X111283928Y-78719010D02*
X111331547Y-78647581D01*
X111331547Y-78647581D02*
X111355357Y-78552343D01*
X111355357Y-78552343D02*
X111355357Y-78361867D01*
X111355357Y-78361867D02*
X111331547Y-78314248D01*
X111331547Y-78314248D02*
X111307738Y-78290439D01*
X111307738Y-78290439D02*
X111260119Y-78266629D01*
X111260119Y-78266629D02*
X111164881Y-78266629D01*
X111164881Y-78266629D02*
X111117262Y-78290439D01*
X111117262Y-78290439D02*
X111093452Y-78314248D01*
X111093452Y-78314248D02*
X111069643Y-78361867D01*
X111069643Y-78361867D02*
X111069643Y-78480915D01*
X111069643Y-78480915D02*
X111093452Y-78528534D01*
X111093452Y-78528534D02*
X111117262Y-78552343D01*
X111117262Y-78552343D02*
X111164881Y-78576153D01*
X111164881Y-78576153D02*
X111260119Y-78576153D01*
X111260119Y-78576153D02*
X111307738Y-78552343D01*
X111307738Y-78552343D02*
X111331547Y-78528534D01*
X111331547Y-78528534D02*
X111355357Y-78480915D01*
X109316666Y-84279010D02*
X109292857Y-84302820D01*
X109292857Y-84302820D02*
X109221428Y-84326629D01*
X109221428Y-84326629D02*
X109173809Y-84326629D01*
X109173809Y-84326629D02*
X109102381Y-84302820D01*
X109102381Y-84302820D02*
X109054762Y-84255200D01*
X109054762Y-84255200D02*
X109030952Y-84207581D01*
X109030952Y-84207581D02*
X109007143Y-84112343D01*
X109007143Y-84112343D02*
X109007143Y-84040915D01*
X109007143Y-84040915D02*
X109030952Y-83945677D01*
X109030952Y-83945677D02*
X109054762Y-83898058D01*
X109054762Y-83898058D02*
X109102381Y-83850439D01*
X109102381Y-83850439D02*
X109173809Y-83826629D01*
X109173809Y-83826629D02*
X109221428Y-83826629D01*
X109221428Y-83826629D02*
X109292857Y-83850439D01*
X109292857Y-83850439D02*
X109316666Y-83874248D01*
X109745238Y-83826629D02*
X109650000Y-83826629D01*
X109650000Y-83826629D02*
X109602381Y-83850439D01*
X109602381Y-83850439D02*
X109578571Y-83874248D01*
X109578571Y-83874248D02*
X109530952Y-83945677D01*
X109530952Y-83945677D02*
X109507143Y-84040915D01*
X109507143Y-84040915D02*
X109507143Y-84231391D01*
X109507143Y-84231391D02*
X109530952Y-84279010D01*
X109530952Y-84279010D02*
X109554762Y-84302820D01*
X109554762Y-84302820D02*
X109602381Y-84326629D01*
X109602381Y-84326629D02*
X109697619Y-84326629D01*
X109697619Y-84326629D02*
X109745238Y-84302820D01*
X109745238Y-84302820D02*
X109769047Y-84279010D01*
X109769047Y-84279010D02*
X109792857Y-84231391D01*
X109792857Y-84231391D02*
X109792857Y-84112343D01*
X109792857Y-84112343D02*
X109769047Y-84064724D01*
X109769047Y-84064724D02*
X109745238Y-84040915D01*
X109745238Y-84040915D02*
X109697619Y-84017105D01*
X109697619Y-84017105D02*
X109602381Y-84017105D01*
X109602381Y-84017105D02*
X109554762Y-84040915D01*
X109554762Y-84040915D02*
X109530952Y-84064724D01*
X109530952Y-84064724D02*
X109507143Y-84112343D01*
X145104166Y-85716629D02*
X144937500Y-85478534D01*
X144818452Y-85716629D02*
X144818452Y-85216629D01*
X144818452Y-85216629D02*
X145008928Y-85216629D01*
X145008928Y-85216629D02*
X145056547Y-85240439D01*
X145056547Y-85240439D02*
X145080357Y-85264248D01*
X145080357Y-85264248D02*
X145104166Y-85311867D01*
X145104166Y-85311867D02*
X145104166Y-85383296D01*
X145104166Y-85383296D02*
X145080357Y-85430915D01*
X145080357Y-85430915D02*
X145056547Y-85454724D01*
X145056547Y-85454724D02*
X145008928Y-85478534D01*
X145008928Y-85478534D02*
X144818452Y-85478534D01*
X145556547Y-85216629D02*
X145318452Y-85216629D01*
X145318452Y-85216629D02*
X145294643Y-85454724D01*
X145294643Y-85454724D02*
X145318452Y-85430915D01*
X145318452Y-85430915D02*
X145366071Y-85407105D01*
X145366071Y-85407105D02*
X145485119Y-85407105D01*
X145485119Y-85407105D02*
X145532738Y-85430915D01*
X145532738Y-85430915D02*
X145556547Y-85454724D01*
X145556547Y-85454724D02*
X145580357Y-85502343D01*
X145580357Y-85502343D02*
X145580357Y-85621391D01*
X145580357Y-85621391D02*
X145556547Y-85669010D01*
X145556547Y-85669010D02*
X145532738Y-85692820D01*
X145532738Y-85692820D02*
X145485119Y-85716629D01*
X145485119Y-85716629D02*
X145366071Y-85716629D01*
X145366071Y-85716629D02*
X145318452Y-85692820D01*
X145318452Y-85692820D02*
X145294643Y-85669010D01*
X137541071Y-71179010D02*
X137517262Y-71202820D01*
X137517262Y-71202820D02*
X137445833Y-71226629D01*
X137445833Y-71226629D02*
X137398214Y-71226629D01*
X137398214Y-71226629D02*
X137326786Y-71202820D01*
X137326786Y-71202820D02*
X137279167Y-71155200D01*
X137279167Y-71155200D02*
X137255357Y-71107581D01*
X137255357Y-71107581D02*
X137231548Y-71012343D01*
X137231548Y-71012343D02*
X137231548Y-70940915D01*
X137231548Y-70940915D02*
X137255357Y-70845677D01*
X137255357Y-70845677D02*
X137279167Y-70798058D01*
X137279167Y-70798058D02*
X137326786Y-70750439D01*
X137326786Y-70750439D02*
X137398214Y-70726629D01*
X137398214Y-70726629D02*
X137445833Y-70726629D01*
X137445833Y-70726629D02*
X137517262Y-70750439D01*
X137517262Y-70750439D02*
X137541071Y-70774248D01*
X138017262Y-71226629D02*
X137731548Y-71226629D01*
X137874405Y-71226629D02*
X137874405Y-70726629D01*
X137874405Y-70726629D02*
X137826786Y-70798058D01*
X137826786Y-70798058D02*
X137779167Y-70845677D01*
X137779167Y-70845677D02*
X137731548Y-70869486D01*
X138493452Y-71226629D02*
X138207738Y-71226629D01*
X138350595Y-71226629D02*
X138350595Y-70726629D01*
X138350595Y-70726629D02*
X138302976Y-70798058D01*
X138302976Y-70798058D02*
X138255357Y-70845677D01*
X138255357Y-70845677D02*
X138207738Y-70869486D01*
X143299047Y-99526629D02*
X143299047Y-99026629D01*
X143299047Y-99264724D02*
X143584761Y-99264724D01*
X143584761Y-99526629D02*
X143584761Y-99026629D01*
X144084762Y-99526629D02*
X143799048Y-99526629D01*
X143941905Y-99526629D02*
X143941905Y-99026629D01*
X143941905Y-99026629D02*
X143894286Y-99098058D01*
X143894286Y-99098058D02*
X143846667Y-99145677D01*
X143846667Y-99145677D02*
X143799048Y-99169486D01*
X106619047Y-70126629D02*
X106619047Y-69626629D01*
X106619047Y-69864724D02*
X106904761Y-69864724D01*
X106904761Y-70126629D02*
X106904761Y-69626629D01*
X107119048Y-69674248D02*
X107142857Y-69650439D01*
X107142857Y-69650439D02*
X107190476Y-69626629D01*
X107190476Y-69626629D02*
X107309524Y-69626629D01*
X107309524Y-69626629D02*
X107357143Y-69650439D01*
X107357143Y-69650439D02*
X107380952Y-69674248D01*
X107380952Y-69674248D02*
X107404762Y-69721867D01*
X107404762Y-69721867D02*
X107404762Y-69769486D01*
X107404762Y-69769486D02*
X107380952Y-69840915D01*
X107380952Y-69840915D02*
X107095238Y-70126629D01*
X107095238Y-70126629D02*
X107404762Y-70126629D01*
X126316666Y-92079010D02*
X126292857Y-92102820D01*
X126292857Y-92102820D02*
X126221428Y-92126629D01*
X126221428Y-92126629D02*
X126173809Y-92126629D01*
X126173809Y-92126629D02*
X126102381Y-92102820D01*
X126102381Y-92102820D02*
X126054762Y-92055200D01*
X126054762Y-92055200D02*
X126030952Y-92007581D01*
X126030952Y-92007581D02*
X126007143Y-91912343D01*
X126007143Y-91912343D02*
X126007143Y-91840915D01*
X126007143Y-91840915D02*
X126030952Y-91745677D01*
X126030952Y-91745677D02*
X126054762Y-91698058D01*
X126054762Y-91698058D02*
X126102381Y-91650439D01*
X126102381Y-91650439D02*
X126173809Y-91626629D01*
X126173809Y-91626629D02*
X126221428Y-91626629D01*
X126221428Y-91626629D02*
X126292857Y-91650439D01*
X126292857Y-91650439D02*
X126316666Y-91674248D01*
X126483333Y-91626629D02*
X126816666Y-91626629D01*
X126816666Y-91626629D02*
X126602381Y-92126629D01*
X137541071Y-76679010D02*
X137517262Y-76702820D01*
X137517262Y-76702820D02*
X137445833Y-76726629D01*
X137445833Y-76726629D02*
X137398214Y-76726629D01*
X137398214Y-76726629D02*
X137326786Y-76702820D01*
X137326786Y-76702820D02*
X137279167Y-76655200D01*
X137279167Y-76655200D02*
X137255357Y-76607581D01*
X137255357Y-76607581D02*
X137231548Y-76512343D01*
X137231548Y-76512343D02*
X137231548Y-76440915D01*
X137231548Y-76440915D02*
X137255357Y-76345677D01*
X137255357Y-76345677D02*
X137279167Y-76298058D01*
X137279167Y-76298058D02*
X137326786Y-76250439D01*
X137326786Y-76250439D02*
X137398214Y-76226629D01*
X137398214Y-76226629D02*
X137445833Y-76226629D01*
X137445833Y-76226629D02*
X137517262Y-76250439D01*
X137517262Y-76250439D02*
X137541071Y-76274248D01*
X138017262Y-76726629D02*
X137731548Y-76726629D01*
X137874405Y-76726629D02*
X137874405Y-76226629D01*
X137874405Y-76226629D02*
X137826786Y-76298058D01*
X137826786Y-76298058D02*
X137779167Y-76345677D01*
X137779167Y-76345677D02*
X137731548Y-76369486D01*
X138207738Y-76274248D02*
X138231547Y-76250439D01*
X138231547Y-76250439D02*
X138279166Y-76226629D01*
X138279166Y-76226629D02*
X138398214Y-76226629D01*
X138398214Y-76226629D02*
X138445833Y-76250439D01*
X138445833Y-76250439D02*
X138469642Y-76274248D01*
X138469642Y-76274248D02*
X138493452Y-76321867D01*
X138493452Y-76321867D02*
X138493452Y-76369486D01*
X138493452Y-76369486D02*
X138469642Y-76440915D01*
X138469642Y-76440915D02*
X138183928Y-76726629D01*
X138183928Y-76726629D02*
X138493452Y-76726629D01*
X114919047Y-94426629D02*
X114919047Y-94831391D01*
X114919047Y-94831391D02*
X114942857Y-94879010D01*
X114942857Y-94879010D02*
X114966666Y-94902820D01*
X114966666Y-94902820D02*
X115014285Y-94926629D01*
X115014285Y-94926629D02*
X115109523Y-94926629D01*
X115109523Y-94926629D02*
X115157142Y-94902820D01*
X115157142Y-94902820D02*
X115180952Y-94879010D01*
X115180952Y-94879010D02*
X115204761Y-94831391D01*
X115204761Y-94831391D02*
X115204761Y-94426629D01*
X115657143Y-94593296D02*
X115657143Y-94926629D01*
X115538095Y-94402820D02*
X115419048Y-94759962D01*
X115419048Y-94759962D02*
X115728571Y-94759962D01*
X138016666Y-74026629D02*
X137850000Y-73788534D01*
X137730952Y-74026629D02*
X137730952Y-73526629D01*
X137730952Y-73526629D02*
X137921428Y-73526629D01*
X137921428Y-73526629D02*
X137969047Y-73550439D01*
X137969047Y-73550439D02*
X137992857Y-73574248D01*
X137992857Y-73574248D02*
X138016666Y-73621867D01*
X138016666Y-73621867D02*
X138016666Y-73693296D01*
X138016666Y-73693296D02*
X137992857Y-73740915D01*
X137992857Y-73740915D02*
X137969047Y-73764724D01*
X137969047Y-73764724D02*
X137921428Y-73788534D01*
X137921428Y-73788534D02*
X137730952Y-73788534D01*
X138207143Y-73574248D02*
X138230952Y-73550439D01*
X138230952Y-73550439D02*
X138278571Y-73526629D01*
X138278571Y-73526629D02*
X138397619Y-73526629D01*
X138397619Y-73526629D02*
X138445238Y-73550439D01*
X138445238Y-73550439D02*
X138469047Y-73574248D01*
X138469047Y-73574248D02*
X138492857Y-73621867D01*
X138492857Y-73621867D02*
X138492857Y-73669486D01*
X138492857Y-73669486D02*
X138469047Y-73740915D01*
X138469047Y-73740915D02*
X138183333Y-74026629D01*
X138183333Y-74026629D02*
X138492857Y-74026629D01*
X110116666Y-73479010D02*
X110092857Y-73502820D01*
X110092857Y-73502820D02*
X110021428Y-73526629D01*
X110021428Y-73526629D02*
X109973809Y-73526629D01*
X109973809Y-73526629D02*
X109902381Y-73502820D01*
X109902381Y-73502820D02*
X109854762Y-73455200D01*
X109854762Y-73455200D02*
X109830952Y-73407581D01*
X109830952Y-73407581D02*
X109807143Y-73312343D01*
X109807143Y-73312343D02*
X109807143Y-73240915D01*
X109807143Y-73240915D02*
X109830952Y-73145677D01*
X109830952Y-73145677D02*
X109854762Y-73098058D01*
X109854762Y-73098058D02*
X109902381Y-73050439D01*
X109902381Y-73050439D02*
X109973809Y-73026629D01*
X109973809Y-73026629D02*
X110021428Y-73026629D01*
X110021428Y-73026629D02*
X110092857Y-73050439D01*
X110092857Y-73050439D02*
X110116666Y-73074248D01*
X110592857Y-73526629D02*
X110307143Y-73526629D01*
X110450000Y-73526629D02*
X110450000Y-73026629D01*
X110450000Y-73026629D02*
X110402381Y-73098058D01*
X110402381Y-73098058D02*
X110354762Y-73145677D01*
X110354762Y-73145677D02*
X110307143Y-73169486D01*
X112916666Y-74026629D02*
X112678571Y-74026629D01*
X112678571Y-74026629D02*
X112678571Y-73526629D01*
X113297619Y-73526629D02*
X113202381Y-73526629D01*
X113202381Y-73526629D02*
X113154762Y-73550439D01*
X113154762Y-73550439D02*
X113130952Y-73574248D01*
X113130952Y-73574248D02*
X113083333Y-73645677D01*
X113083333Y-73645677D02*
X113059524Y-73740915D01*
X113059524Y-73740915D02*
X113059524Y-73931391D01*
X113059524Y-73931391D02*
X113083333Y-73979010D01*
X113083333Y-73979010D02*
X113107143Y-74002820D01*
X113107143Y-74002820D02*
X113154762Y-74026629D01*
X113154762Y-74026629D02*
X113250000Y-74026629D01*
X113250000Y-74026629D02*
X113297619Y-74002820D01*
X113297619Y-74002820D02*
X113321428Y-73979010D01*
X113321428Y-73979010D02*
X113345238Y-73931391D01*
X113345238Y-73931391D02*
X113345238Y-73812343D01*
X113345238Y-73812343D02*
X113321428Y-73764724D01*
X113321428Y-73764724D02*
X113297619Y-73740915D01*
X113297619Y-73740915D02*
X113250000Y-73717105D01*
X113250000Y-73717105D02*
X113154762Y-73717105D01*
X113154762Y-73717105D02*
X113107143Y-73740915D01*
X113107143Y-73740915D02*
X113083333Y-73764724D01*
X113083333Y-73764724D02*
X113059524Y-73812343D01*
X115916666Y-79126629D02*
X115678571Y-79126629D01*
X115678571Y-79126629D02*
X115678571Y-78626629D01*
X116321428Y-78626629D02*
X116083333Y-78626629D01*
X116083333Y-78626629D02*
X116059524Y-78864724D01*
X116059524Y-78864724D02*
X116083333Y-78840915D01*
X116083333Y-78840915D02*
X116130952Y-78817105D01*
X116130952Y-78817105D02*
X116250000Y-78817105D01*
X116250000Y-78817105D02*
X116297619Y-78840915D01*
X116297619Y-78840915D02*
X116321428Y-78864724D01*
X116321428Y-78864724D02*
X116345238Y-78912343D01*
X116345238Y-78912343D02*
X116345238Y-79031391D01*
X116345238Y-79031391D02*
X116321428Y-79079010D01*
X116321428Y-79079010D02*
X116297619Y-79102820D01*
X116297619Y-79102820D02*
X116250000Y-79126629D01*
X116250000Y-79126629D02*
X116130952Y-79126629D01*
X116130952Y-79126629D02*
X116083333Y-79102820D01*
X116083333Y-79102820D02*
X116059524Y-79079010D01*
X115516666Y-74126629D02*
X115278571Y-74126629D01*
X115278571Y-74126629D02*
X115278571Y-73626629D01*
X115635714Y-73626629D02*
X115969047Y-73626629D01*
X115969047Y-73626629D02*
X115754762Y-74126629D01*
X120158333Y-98726629D02*
X120158333Y-98226629D01*
X120158333Y-98226629D02*
X120348809Y-98226629D01*
X120348809Y-98226629D02*
X120396428Y-98250439D01*
X120396428Y-98250439D02*
X120420238Y-98274248D01*
X120420238Y-98274248D02*
X120444047Y-98321867D01*
X120444047Y-98321867D02*
X120444047Y-98393296D01*
X120444047Y-98393296D02*
X120420238Y-98440915D01*
X120420238Y-98440915D02*
X120396428Y-98464724D01*
X120396428Y-98464724D02*
X120348809Y-98488534D01*
X120348809Y-98488534D02*
X120158333Y-98488534D01*
X120610714Y-98226629D02*
X120729762Y-98726629D01*
X120729762Y-98726629D02*
X120825000Y-98369486D01*
X120825000Y-98369486D02*
X120920238Y-98726629D01*
X120920238Y-98726629D02*
X121039286Y-98226629D01*
X121515476Y-98726629D02*
X121348810Y-98488534D01*
X121229762Y-98726629D02*
X121229762Y-98226629D01*
X121229762Y-98226629D02*
X121420238Y-98226629D01*
X121420238Y-98226629D02*
X121467857Y-98250439D01*
X121467857Y-98250439D02*
X121491667Y-98274248D01*
X121491667Y-98274248D02*
X121515476Y-98321867D01*
X121515476Y-98321867D02*
X121515476Y-98393296D01*
X121515476Y-98393296D02*
X121491667Y-98440915D01*
X121491667Y-98440915D02*
X121467857Y-98464724D01*
X121467857Y-98464724D02*
X121420238Y-98488534D01*
X121420238Y-98488534D02*
X121229762Y-98488534D01*
X120383334Y-70164724D02*
X120216667Y-70164724D01*
X120216667Y-70426629D02*
X120216667Y-69926629D01*
X120216667Y-69926629D02*
X120454762Y-69926629D01*
X120811905Y-70164724D02*
X120883333Y-70188534D01*
X120883333Y-70188534D02*
X120907143Y-70212343D01*
X120907143Y-70212343D02*
X120930952Y-70259962D01*
X120930952Y-70259962D02*
X120930952Y-70331391D01*
X120930952Y-70331391D02*
X120907143Y-70379010D01*
X120907143Y-70379010D02*
X120883333Y-70402820D01*
X120883333Y-70402820D02*
X120835714Y-70426629D01*
X120835714Y-70426629D02*
X120645238Y-70426629D01*
X120645238Y-70426629D02*
X120645238Y-69926629D01*
X120645238Y-69926629D02*
X120811905Y-69926629D01*
X120811905Y-69926629D02*
X120859524Y-69950439D01*
X120859524Y-69950439D02*
X120883333Y-69974248D01*
X120883333Y-69974248D02*
X120907143Y-70021867D01*
X120907143Y-70021867D02*
X120907143Y-70069486D01*
X120907143Y-70069486D02*
X120883333Y-70117105D01*
X120883333Y-70117105D02*
X120859524Y-70140915D01*
X120859524Y-70140915D02*
X120811905Y-70164724D01*
X120811905Y-70164724D02*
X120645238Y-70164724D01*
X121407143Y-70426629D02*
X121121429Y-70426629D01*
X121264286Y-70426629D02*
X121264286Y-69926629D01*
X121264286Y-69926629D02*
X121216667Y-69998058D01*
X121216667Y-69998058D02*
X121169048Y-70045677D01*
X121169048Y-70045677D02*
X121121429Y-70069486D01*
X128241071Y-77486510D02*
X128217262Y-77510320D01*
X128217262Y-77510320D02*
X128145833Y-77534129D01*
X128145833Y-77534129D02*
X128098214Y-77534129D01*
X128098214Y-77534129D02*
X128026786Y-77510320D01*
X128026786Y-77510320D02*
X127979167Y-77462700D01*
X127979167Y-77462700D02*
X127955357Y-77415081D01*
X127955357Y-77415081D02*
X127931548Y-77319843D01*
X127931548Y-77319843D02*
X127931548Y-77248415D01*
X127931548Y-77248415D02*
X127955357Y-77153177D01*
X127955357Y-77153177D02*
X127979167Y-77105558D01*
X127979167Y-77105558D02*
X128026786Y-77057939D01*
X128026786Y-77057939D02*
X128098214Y-77034129D01*
X128098214Y-77034129D02*
X128145833Y-77034129D01*
X128145833Y-77034129D02*
X128217262Y-77057939D01*
X128217262Y-77057939D02*
X128241071Y-77081748D01*
X128717262Y-77534129D02*
X128431548Y-77534129D01*
X128574405Y-77534129D02*
X128574405Y-77034129D01*
X128574405Y-77034129D02*
X128526786Y-77105558D01*
X128526786Y-77105558D02*
X128479167Y-77153177D01*
X128479167Y-77153177D02*
X128431548Y-77176986D01*
X129002976Y-77248415D02*
X128955357Y-77224605D01*
X128955357Y-77224605D02*
X128931547Y-77200796D01*
X128931547Y-77200796D02*
X128907738Y-77153177D01*
X128907738Y-77153177D02*
X128907738Y-77129367D01*
X128907738Y-77129367D02*
X128931547Y-77081748D01*
X128931547Y-77081748D02*
X128955357Y-77057939D01*
X128955357Y-77057939D02*
X129002976Y-77034129D01*
X129002976Y-77034129D02*
X129098214Y-77034129D01*
X129098214Y-77034129D02*
X129145833Y-77057939D01*
X129145833Y-77057939D02*
X129169642Y-77081748D01*
X129169642Y-77081748D02*
X129193452Y-77129367D01*
X129193452Y-77129367D02*
X129193452Y-77153177D01*
X129193452Y-77153177D02*
X129169642Y-77200796D01*
X129169642Y-77200796D02*
X129145833Y-77224605D01*
X129145833Y-77224605D02*
X129098214Y-77248415D01*
X129098214Y-77248415D02*
X129002976Y-77248415D01*
X129002976Y-77248415D02*
X128955357Y-77272224D01*
X128955357Y-77272224D02*
X128931547Y-77296034D01*
X128931547Y-77296034D02*
X128907738Y-77343653D01*
X128907738Y-77343653D02*
X128907738Y-77438891D01*
X128907738Y-77438891D02*
X128931547Y-77486510D01*
X128931547Y-77486510D02*
X128955357Y-77510320D01*
X128955357Y-77510320D02*
X129002976Y-77534129D01*
X129002976Y-77534129D02*
X129098214Y-77534129D01*
X129098214Y-77534129D02*
X129145833Y-77510320D01*
X129145833Y-77510320D02*
X129169642Y-77486510D01*
X129169642Y-77486510D02*
X129193452Y-77438891D01*
X129193452Y-77438891D02*
X129193452Y-77343653D01*
X129193452Y-77343653D02*
X129169642Y-77296034D01*
X129169642Y-77296034D02*
X129145833Y-77272224D01*
X129145833Y-77272224D02*
X129098214Y-77248415D01*
X145629166Y-95226629D02*
X145462500Y-94988534D01*
X145343452Y-95226629D02*
X145343452Y-94726629D01*
X145343452Y-94726629D02*
X145533928Y-94726629D01*
X145533928Y-94726629D02*
X145581547Y-94750439D01*
X145581547Y-94750439D02*
X145605357Y-94774248D01*
X145605357Y-94774248D02*
X145629166Y-94821867D01*
X145629166Y-94821867D02*
X145629166Y-94893296D01*
X145629166Y-94893296D02*
X145605357Y-94940915D01*
X145605357Y-94940915D02*
X145581547Y-94964724D01*
X145581547Y-94964724D02*
X145533928Y-94988534D01*
X145533928Y-94988534D02*
X145343452Y-94988534D01*
X146105357Y-95226629D02*
X145819643Y-95226629D01*
X145962500Y-95226629D02*
X145962500Y-94726629D01*
X145962500Y-94726629D02*
X145914881Y-94798058D01*
X145914881Y-94798058D02*
X145867262Y-94845677D01*
X145867262Y-94845677D02*
X145819643Y-94869486D01*
X135878571Y-82116510D02*
X135854762Y-82140320D01*
X135854762Y-82140320D02*
X135783333Y-82164129D01*
X135783333Y-82164129D02*
X135735714Y-82164129D01*
X135735714Y-82164129D02*
X135664286Y-82140320D01*
X135664286Y-82140320D02*
X135616667Y-82092700D01*
X135616667Y-82092700D02*
X135592857Y-82045081D01*
X135592857Y-82045081D02*
X135569048Y-81949843D01*
X135569048Y-81949843D02*
X135569048Y-81878415D01*
X135569048Y-81878415D02*
X135592857Y-81783177D01*
X135592857Y-81783177D02*
X135616667Y-81735558D01*
X135616667Y-81735558D02*
X135664286Y-81687939D01*
X135664286Y-81687939D02*
X135735714Y-81664129D01*
X135735714Y-81664129D02*
X135783333Y-81664129D01*
X135783333Y-81664129D02*
X135854762Y-81687939D01*
X135854762Y-81687939D02*
X135878571Y-81711748D01*
X136354762Y-82164129D02*
X136069048Y-82164129D01*
X136211905Y-82164129D02*
X136211905Y-81664129D01*
X136211905Y-81664129D02*
X136164286Y-81735558D01*
X136164286Y-81735558D02*
X136116667Y-81783177D01*
X136116667Y-81783177D02*
X136069048Y-81806986D01*
X136783333Y-81830796D02*
X136783333Y-82164129D01*
X136664285Y-81640320D02*
X136545238Y-81997462D01*
X136545238Y-81997462D02*
X136854761Y-81997462D01*
X120195238Y-82776629D02*
X120528571Y-83276629D01*
X120528571Y-82776629D02*
X120195238Y-83276629D01*
X120980952Y-83276629D02*
X120695238Y-83276629D01*
X120838095Y-83276629D02*
X120838095Y-82776629D01*
X120838095Y-82776629D02*
X120790476Y-82848058D01*
X120790476Y-82848058D02*
X120742857Y-82895677D01*
X120742857Y-82895677D02*
X120695238Y-82919486D01*
X138430952Y-92826629D02*
X138430952Y-92326629D01*
X138430952Y-92326629D02*
X138550000Y-92326629D01*
X138550000Y-92326629D02*
X138621428Y-92350439D01*
X138621428Y-92350439D02*
X138669047Y-92398058D01*
X138669047Y-92398058D02*
X138692857Y-92445677D01*
X138692857Y-92445677D02*
X138716666Y-92540915D01*
X138716666Y-92540915D02*
X138716666Y-92612343D01*
X138716666Y-92612343D02*
X138692857Y-92707581D01*
X138692857Y-92707581D02*
X138669047Y-92755200D01*
X138669047Y-92755200D02*
X138621428Y-92802820D01*
X138621428Y-92802820D02*
X138550000Y-92826629D01*
X138550000Y-92826629D02*
X138430952Y-92826629D01*
X139192857Y-92826629D02*
X138907143Y-92826629D01*
X139050000Y-92826629D02*
X139050000Y-92326629D01*
X139050000Y-92326629D02*
X139002381Y-92398058D01*
X139002381Y-92398058D02*
X138954762Y-92445677D01*
X138954762Y-92445677D02*
X138907143Y-92469486D01*
X130778571Y-92279010D02*
X130754762Y-92302820D01*
X130754762Y-92302820D02*
X130683333Y-92326629D01*
X130683333Y-92326629D02*
X130635714Y-92326629D01*
X130635714Y-92326629D02*
X130564286Y-92302820D01*
X130564286Y-92302820D02*
X130516667Y-92255200D01*
X130516667Y-92255200D02*
X130492857Y-92207581D01*
X130492857Y-92207581D02*
X130469048Y-92112343D01*
X130469048Y-92112343D02*
X130469048Y-92040915D01*
X130469048Y-92040915D02*
X130492857Y-91945677D01*
X130492857Y-91945677D02*
X130516667Y-91898058D01*
X130516667Y-91898058D02*
X130564286Y-91850439D01*
X130564286Y-91850439D02*
X130635714Y-91826629D01*
X130635714Y-91826629D02*
X130683333Y-91826629D01*
X130683333Y-91826629D02*
X130754762Y-91850439D01*
X130754762Y-91850439D02*
X130778571Y-91874248D01*
X131254762Y-92326629D02*
X130969048Y-92326629D01*
X131111905Y-92326629D02*
X131111905Y-91826629D01*
X131111905Y-91826629D02*
X131064286Y-91898058D01*
X131064286Y-91898058D02*
X131016667Y-91945677D01*
X131016667Y-91945677D02*
X130969048Y-91969486D01*
X131421428Y-91826629D02*
X131754761Y-91826629D01*
X131754761Y-91826629D02*
X131540476Y-92326629D01*
X132878571Y-92279010D02*
X132854762Y-92302820D01*
X132854762Y-92302820D02*
X132783333Y-92326629D01*
X132783333Y-92326629D02*
X132735714Y-92326629D01*
X132735714Y-92326629D02*
X132664286Y-92302820D01*
X132664286Y-92302820D02*
X132616667Y-92255200D01*
X132616667Y-92255200D02*
X132592857Y-92207581D01*
X132592857Y-92207581D02*
X132569048Y-92112343D01*
X132569048Y-92112343D02*
X132569048Y-92040915D01*
X132569048Y-92040915D02*
X132592857Y-91945677D01*
X132592857Y-91945677D02*
X132616667Y-91898058D01*
X132616667Y-91898058D02*
X132664286Y-91850439D01*
X132664286Y-91850439D02*
X132735714Y-91826629D01*
X132735714Y-91826629D02*
X132783333Y-91826629D01*
X132783333Y-91826629D02*
X132854762Y-91850439D01*
X132854762Y-91850439D02*
X132878571Y-91874248D01*
X133069048Y-91874248D02*
X133092857Y-91850439D01*
X133092857Y-91850439D02*
X133140476Y-91826629D01*
X133140476Y-91826629D02*
X133259524Y-91826629D01*
X133259524Y-91826629D02*
X133307143Y-91850439D01*
X133307143Y-91850439D02*
X133330952Y-91874248D01*
X133330952Y-91874248D02*
X133354762Y-91921867D01*
X133354762Y-91921867D02*
X133354762Y-91969486D01*
X133354762Y-91969486D02*
X133330952Y-92040915D01*
X133330952Y-92040915D02*
X133045238Y-92326629D01*
X133045238Y-92326629D02*
X133354762Y-92326629D01*
X133545238Y-91874248D02*
X133569047Y-91850439D01*
X133569047Y-91850439D02*
X133616666Y-91826629D01*
X133616666Y-91826629D02*
X133735714Y-91826629D01*
X133735714Y-91826629D02*
X133783333Y-91850439D01*
X133783333Y-91850439D02*
X133807142Y-91874248D01*
X133807142Y-91874248D02*
X133830952Y-91921867D01*
X133830952Y-91921867D02*
X133830952Y-91969486D01*
X133830952Y-91969486D02*
X133807142Y-92040915D01*
X133807142Y-92040915D02*
X133521428Y-92326629D01*
X133521428Y-92326629D02*
X133830952Y-92326629D01*
X133316666Y-77026629D02*
X133078571Y-77026629D01*
X133078571Y-77026629D02*
X133078571Y-76526629D01*
X133554762Y-76740915D02*
X133507143Y-76717105D01*
X133507143Y-76717105D02*
X133483333Y-76693296D01*
X133483333Y-76693296D02*
X133459524Y-76645677D01*
X133459524Y-76645677D02*
X133459524Y-76621867D01*
X133459524Y-76621867D02*
X133483333Y-76574248D01*
X133483333Y-76574248D02*
X133507143Y-76550439D01*
X133507143Y-76550439D02*
X133554762Y-76526629D01*
X133554762Y-76526629D02*
X133650000Y-76526629D01*
X133650000Y-76526629D02*
X133697619Y-76550439D01*
X133697619Y-76550439D02*
X133721428Y-76574248D01*
X133721428Y-76574248D02*
X133745238Y-76621867D01*
X133745238Y-76621867D02*
X133745238Y-76645677D01*
X133745238Y-76645677D02*
X133721428Y-76693296D01*
X133721428Y-76693296D02*
X133697619Y-76717105D01*
X133697619Y-76717105D02*
X133650000Y-76740915D01*
X133650000Y-76740915D02*
X133554762Y-76740915D01*
X133554762Y-76740915D02*
X133507143Y-76764724D01*
X133507143Y-76764724D02*
X133483333Y-76788534D01*
X133483333Y-76788534D02*
X133459524Y-76836153D01*
X133459524Y-76836153D02*
X133459524Y-76931391D01*
X133459524Y-76931391D02*
X133483333Y-76979010D01*
X133483333Y-76979010D02*
X133507143Y-77002820D01*
X133507143Y-77002820D02*
X133554762Y-77026629D01*
X133554762Y-77026629D02*
X133650000Y-77026629D01*
X133650000Y-77026629D02*
X133697619Y-77002820D01*
X133697619Y-77002820D02*
X133721428Y-76979010D01*
X133721428Y-76979010D02*
X133745238Y-76931391D01*
X133745238Y-76931391D02*
X133745238Y-76836153D01*
X133745238Y-76836153D02*
X133721428Y-76788534D01*
X133721428Y-76788534D02*
X133697619Y-76764724D01*
X133697619Y-76764724D02*
X133650000Y-76740915D01*
D11*
X133427500Y-84283767D02*
X133427500Y-83991233D01*
X134447500Y-84283767D02*
X134447500Y-83991233D01*
D12*
X123418600Y-82778600D02*
X123418600Y-83134200D01*
X123418600Y-89585800D02*
X123418600Y-89941400D01*
X123418600Y-89941400D02*
X123774200Y-89941400D01*
X123774200Y-82778600D02*
X123418600Y-82778600D01*
X130225800Y-89941400D02*
X130581400Y-89941400D01*
X130581400Y-82778600D02*
X130225800Y-82778600D01*
X130581400Y-83134200D02*
X130581400Y-82778600D01*
X130581400Y-89941400D02*
X130581400Y-89585800D01*
D11*
X134410000Y-89016233D02*
X134410000Y-89308767D01*
X133390000Y-89016233D02*
X133390000Y-89308767D01*
X113854724Y-89722500D02*
X113345276Y-89722500D01*
X113854724Y-88677500D02*
X113345276Y-88677500D01*
X124890000Y-79446267D02*
X124890000Y-79153733D01*
X125910000Y-79446267D02*
X125910000Y-79153733D01*
X124810000Y-93753733D02*
X124810000Y-94046267D01*
X123790000Y-93753733D02*
X123790000Y-94046267D01*
X122610000Y-93753733D02*
X122610000Y-94046267D01*
X121590000Y-93753733D02*
X121590000Y-94046267D01*
X120000200Y-78160000D02*
X119799800Y-78160000D01*
X120000200Y-77440000D02*
X119799800Y-77440000D01*
X120410000Y-93753733D02*
X120410000Y-94046267D01*
X119390000Y-93753733D02*
X119390000Y-94046267D01*
X111746267Y-87210000D02*
X111453733Y-87210000D01*
X111746267Y-86190000D02*
X111453733Y-86190000D01*
X112183767Y-71110000D02*
X111891233Y-71110000D01*
X112183767Y-70090000D02*
X111891233Y-70090000D01*
X131700000Y-72600000D02*
X130700000Y-72600000D01*
X130700000Y-72600000D02*
X130700000Y-73200000D01*
X128600000Y-74850000D02*
X126400000Y-74850000D01*
X128600000Y-70950000D02*
X128600000Y-70100000D01*
X126400000Y-70950000D02*
X128600000Y-70950000D01*
X124300000Y-73200000D02*
X124300000Y-72600000D01*
X117730000Y-97670000D02*
X117730000Y-99000000D01*
X116400000Y-97670000D02*
X117730000Y-97670000D01*
X115130000Y-97670000D02*
X104910000Y-97670000D01*
X115130000Y-97670000D02*
X115130000Y-100330000D01*
X104910000Y-97670000D02*
X104910000Y-100330000D01*
X115130000Y-100330000D02*
X104910000Y-100330000D01*
X119653733Y-74490000D02*
X119946267Y-74490000D01*
X119653733Y-75510000D02*
X119946267Y-75510000D01*
X137890000Y-84283767D02*
X137890000Y-83991233D01*
X138910000Y-84283767D02*
X138910000Y-83991233D01*
X129510000Y-94053733D02*
X129510000Y-94346267D01*
X128490000Y-94053733D02*
X128490000Y-94346267D01*
X110222500Y-91032776D02*
X110222500Y-91542224D01*
X109177500Y-91032776D02*
X109177500Y-91542224D01*
X139740000Y-88565000D02*
X139740000Y-90035000D01*
X139740000Y-90035000D02*
X142200000Y-90035000D01*
X142200000Y-88565000D02*
X139740000Y-88565000D01*
X111108767Y-80110000D02*
X110816233Y-80110000D01*
X111108767Y-79090000D02*
X110816233Y-79090000D01*
X111746267Y-84510000D02*
X111453733Y-84510000D01*
X111746267Y-83490000D02*
X111453733Y-83490000D01*
X142745276Y-85077500D02*
X143254724Y-85077500D01*
X142745276Y-86122500D02*
X143254724Y-86122500D01*
X140253733Y-70490000D02*
X140546267Y-70490000D01*
X140253733Y-71510000D02*
X140546267Y-71510000D01*
X124550000Y-100430000D02*
X124550000Y-99100000D01*
X125880000Y-100430000D02*
X124550000Y-100430000D01*
X127150000Y-100430000D02*
X142450000Y-100430000D01*
X127150000Y-100430000D02*
X127150000Y-97770000D01*
X142450000Y-100430000D02*
X142450000Y-97770000D01*
X127150000Y-97770000D02*
X142450000Y-97770000D01*
X106030000Y-95190000D02*
X104700000Y-95190000D01*
X106030000Y-93860000D02*
X106030000Y-95190000D01*
X106030000Y-92590000D02*
X106030000Y-69670000D01*
X106030000Y-92590000D02*
X103370000Y-92590000D01*
X106030000Y-69670000D02*
X103370000Y-69670000D01*
X103370000Y-92590000D02*
X103370000Y-69670000D01*
X125890000Y-94046267D02*
X125890000Y-93753733D01*
X126910000Y-94046267D02*
X126910000Y-93753733D01*
X140353733Y-75990000D02*
X140646267Y-75990000D01*
X140353733Y-77010000D02*
X140646267Y-77010000D01*
X114000000Y-90740000D02*
X112200000Y-90740000D01*
X114000000Y-90740000D02*
X114800000Y-90740000D01*
X114000000Y-93860000D02*
X113200000Y-93860000D01*
X114000000Y-93860000D02*
X114800000Y-93860000D01*
X140145276Y-73177500D02*
X140654724Y-73177500D01*
X140145276Y-74222500D02*
X140654724Y-74222500D01*
X109690000Y-75483767D02*
X109690000Y-75191233D01*
X110710000Y-75483767D02*
X110710000Y-75191233D01*
X112640000Y-75500200D02*
X112640000Y-75299800D01*
X113360000Y-75500200D02*
X113360000Y-75299800D01*
X116260000Y-80374800D02*
X116260000Y-80575200D01*
X115540000Y-80374800D02*
X115540000Y-80575200D01*
X115960000Y-75299800D02*
X115960000Y-75500200D01*
X115240000Y-75299800D02*
X115240000Y-75500200D01*
X122860000Y-100535000D02*
X122860000Y-99065000D01*
X122860000Y-99065000D02*
X120400000Y-99065000D01*
X120400000Y-100535000D02*
X122860000Y-100535000D01*
X117972936Y-69465000D02*
X118427064Y-69465000D01*
X117972936Y-70935000D02*
X118427064Y-70935000D01*
X128090000Y-79483767D02*
X128090000Y-79191233D01*
X129110000Y-79483767D02*
X129110000Y-79191233D01*
X143245276Y-94477500D02*
X143754724Y-94477500D01*
X143245276Y-95522500D02*
X143754724Y-95522500D01*
X135790000Y-84283767D02*
X135790000Y-83991233D01*
X136810000Y-84283767D02*
X136810000Y-83991233D01*
X118800000Y-83400000D02*
G75*
G03*
X118800000Y-86800000I0J-1700000D01*
G01*
X118800000Y-86800000D02*
G75*
G03*
X118800000Y-83400000I0J1700000D01*
G01*
X139740000Y-91665000D02*
X139740000Y-93135000D01*
X139740000Y-93135000D02*
X142200000Y-93135000D01*
X142200000Y-91665000D02*
X139740000Y-91665000D01*
X131710000Y-94053733D02*
X131710000Y-94346267D01*
X130690000Y-94053733D02*
X130690000Y-94346267D01*
X133810000Y-94053733D02*
X133810000Y-94346267D01*
X132790000Y-94053733D02*
X132790000Y-94346267D01*
X133910000Y-78628733D02*
X133910000Y-78971267D01*
X132890000Y-78628733D02*
X132890000Y-78971267D01*
%LPC*%
D13*
X133937500Y-85000000D03*
X133937500Y-83275000D03*
D14*
X123520200Y-83616800D03*
X123520200Y-84099400D03*
X123520200Y-84607400D03*
X123520200Y-85115400D03*
X123520200Y-85598000D03*
X123520200Y-86106000D03*
X123520200Y-86614000D03*
X123520200Y-87122000D03*
X123520200Y-87604600D03*
X123520200Y-88112600D03*
X123520200Y-88620600D03*
X123520200Y-89103200D03*
D15*
X124256800Y-89839800D03*
X124739400Y-89839800D03*
X125247400Y-89839800D03*
X125755400Y-89839800D03*
X126238000Y-89839800D03*
X126746000Y-89839800D03*
X127254000Y-89839800D03*
X127762000Y-89839800D03*
X128244600Y-89839800D03*
X128752600Y-89839800D03*
X129260600Y-89839800D03*
X129743200Y-89839800D03*
D14*
X130479800Y-89103200D03*
X130479800Y-88620600D03*
X130479800Y-88112600D03*
X130479800Y-87604600D03*
X130479800Y-87122000D03*
X130479800Y-86614000D03*
X130479800Y-86106000D03*
X130479800Y-85598000D03*
X130479800Y-85115400D03*
X130479800Y-84607400D03*
X130479800Y-84099400D03*
X130479800Y-83616800D03*
D15*
X129743200Y-82880200D03*
X129260600Y-82880200D03*
X128752600Y-82880200D03*
X128244600Y-82880200D03*
X127762000Y-82880200D03*
X127254000Y-82880200D03*
X126746000Y-82880200D03*
X126238000Y-82880200D03*
X125755400Y-82880200D03*
X125247400Y-82880200D03*
X124739400Y-82880200D03*
X124256800Y-82880200D03*
D16*
X127000000Y-86360000D03*
D17*
X133900000Y-88300000D03*
X133900000Y-90025000D03*
D18*
X114512500Y-89200000D03*
X112687500Y-89200000D03*
D13*
X125400000Y-80162500D03*
X125400000Y-78437500D03*
D17*
X124300000Y-93037500D03*
X124300000Y-94762500D03*
X122100000Y-93037500D03*
X122100000Y-94762500D03*
D19*
X120472500Y-77800000D03*
X119327500Y-77800000D03*
D17*
X119900000Y-93037500D03*
X119900000Y-94762500D03*
D20*
X112462500Y-86700000D03*
X110737500Y-86700000D03*
X112900000Y-70600000D03*
X111175000Y-70600000D03*
D21*
X130150000Y-71350000D03*
X124850000Y-71350000D03*
X124850000Y-74450000D03*
X130150000Y-74450000D03*
D22*
X116400000Y-99000000D03*
D23*
X113860000Y-99000000D03*
X111320000Y-99000000D03*
X108780000Y-99000000D03*
X106240000Y-99000000D03*
D24*
X118937500Y-75000000D03*
X120662500Y-75000000D03*
D13*
X138400000Y-85000000D03*
X138400000Y-83275000D03*
D17*
X129000000Y-93337500D03*
X129000000Y-95062500D03*
D25*
X109700000Y-90375000D03*
X109700000Y-92200000D03*
D26*
X140525000Y-89300000D03*
X142275000Y-89300000D03*
D20*
X111825000Y-79600000D03*
X110100000Y-79600000D03*
X112462500Y-84000000D03*
X110737500Y-84000000D03*
D27*
X142087500Y-85600000D03*
X143912500Y-85600000D03*
D24*
X139537500Y-71000000D03*
X141262500Y-71000000D03*
D22*
X125880000Y-99100000D03*
D23*
X128420000Y-99100000D03*
X130960000Y-99100000D03*
X133500000Y-99100000D03*
X136040000Y-99100000D03*
X138580000Y-99100000D03*
X141120000Y-99100000D03*
D22*
X104700000Y-93860000D03*
D23*
X104700000Y-91320000D03*
X104700000Y-88780000D03*
X104700000Y-86240000D03*
X104700000Y-83700000D03*
X104700000Y-81160000D03*
X104700000Y-78620000D03*
X104700000Y-76080000D03*
X104700000Y-73540000D03*
X104700000Y-71000000D03*
D13*
X126400000Y-94762500D03*
X126400000Y-93037500D03*
D24*
X139637500Y-76500000D03*
X141362500Y-76500000D03*
D28*
X112862500Y-91350000D03*
X112862500Y-92300000D03*
X112862500Y-93250000D03*
X115137500Y-93250000D03*
X115137500Y-91350000D03*
D27*
X139487500Y-73700000D03*
X141312500Y-73700000D03*
D13*
X110200000Y-76200000D03*
X110200000Y-74475000D03*
D29*
X113000000Y-75972500D03*
X113000000Y-74827500D03*
D30*
X115900000Y-79902500D03*
X115900000Y-81047500D03*
X115600000Y-74827500D03*
X115600000Y-75972500D03*
D31*
X122075000Y-99800000D03*
X120325000Y-99800000D03*
D32*
X117200000Y-70200000D03*
X119200000Y-70200000D03*
D13*
X128600000Y-80200000D03*
X128600000Y-78475000D03*
D27*
X142587500Y-95000000D03*
X144412500Y-95000000D03*
D13*
X136300000Y-85000000D03*
X136300000Y-83275000D03*
D33*
X118800000Y-86050000D03*
X118800000Y-84150000D03*
D26*
X140525000Y-92400000D03*
X142275000Y-92400000D03*
D17*
X131200000Y-93337500D03*
X131200000Y-95062500D03*
X133300000Y-93337500D03*
X133300000Y-95062500D03*
D34*
X133400000Y-77925000D03*
X133400000Y-79675000D03*
%LPD*%
M02*
