M48
; DRILL file {KiCad 7.0.6-7.0.6~ubuntu22.04.1} date Sunday 06 August 2023 06:48:26 PM
; FORMAT={-:-/ absolute / inch / decimal}
; #@! TF.CreationDate,2023-08-06T18:48:26+05:30
; #@! TF.GenerationSoftware,Kicad,Pcbnew,7.0.6-7.0.6~ubuntu22.04.1
; #@! TF.FileFunction,Plated,1,2,PTH
FMAT,2
INCH
; #@! TA.AperFunction,Plated,PTH,ComponentDrill
T1C0.0118
; #@! TA.AperFunction,Plated,PTH,ViaDrill
T2C0.0157
; #@! TA.AperFunction,Plated,PTH,ComponentDrill
T3C0.0197
; #@! TA.AperFunction,Plated,PTH,ComponentDrill
T4C0.0394
%
G90
G05
T1
X5.7667Y-3.2815
T2
X4.0334Y-3.2157
X4.315Y-3.4724
X4.4828Y-3.7003
X4.5449Y-3.6334
X4.6462Y-3.6599
X4.6929Y-3.5315
X4.75Y-3.7702
X4.8031Y-3.9764
X4.8071Y-3.5591
X4.8221Y-3.489
X4.8268Y-3.2205
X4.8504Y-3.5945
X4.8619Y-3.5379
X4.8781Y-3.0791
X4.9054Y-3.6177
X4.943Y-3.0214
X4.9453Y-3.5901
X4.9488Y-3.2205
X4.9813Y-3.5769
X4.9993Y-3.1823
X5.0Y-3.0882
X5.0039Y-3.1299
X5.0216Y-2.8091
X5.0236Y-3.4094
X5.0349Y-3.6629
X5.0362Y-3.6073
X5.0942Y-3.1958
X5.155Y-3.6309
X5.1578Y-3.2309
X5.1866Y-3.6092
X5.1902Y-3.3634
X5.2063Y-3.3038
X5.2069Y-3.4116
X5.2074Y-3.1977
X5.3059Y-3.3825
X5.3142Y-3.4818
X5.5039Y-3.2904
X5.5784Y-3.4423
X5.6081Y-3.4129
X5.6417Y-3.1732
X5.6969Y-3.2913
T3
X4.6772Y-3.313
X4.6772Y-3.3878
T4
X4.122Y-2.7953
X4.122Y-2.8953
X4.122Y-2.9953
X4.122Y-3.0953
X4.122Y-3.1953
X4.122Y-3.2953
X4.122Y-3.3953
X4.122Y-3.4953
X4.122Y-3.5953
X4.122Y-3.6953
X4.1827Y-3.8976
X4.2827Y-3.8976
X4.3827Y-3.8976
X4.4827Y-3.8976
X4.5827Y-3.8976
X4.9559Y-3.9016
X5.0559Y-3.9016
X5.1559Y-3.9016
X5.2559Y-3.9016
X5.3559Y-3.9016
X5.4559Y-3.9016
X5.5559Y-3.9016
T0
M30
