G04 #@! TF.GenerationSoftware,KiCad,Pcbnew,5.1.7-a382d34a8~88~ubuntu18.04.1*
G04 #@! TF.CreationDate,2021-11-20T11:26:47+05:30*
G04 #@! TF.ProjectId,FrontEnd_switch_Normal_v1,46726f6e-7445-46e6-945f-737769746368,rev?*
G04 #@! TF.SameCoordinates,Original*
G04 #@! TF.FileFunction,Soldermask,Top*
G04 #@! TF.FilePolarity,Negative*
%FSLAX46Y46*%
G04 Gerber Fmt 4.6, Leading zero omitted, Abs format (unit mm)*
G04 Created by KiCad (PCBNEW 5.1.7-a382d34a8~88~ubuntu18.04.1) date 2021-11-20 11:26:47*
%MOMM*%
%LPD*%
G01*
G04 APERTURE LIST*
%ADD10O,2.000000X2.000000*%
%ADD11C,1.800000*%
G04 APERTURE END LIST*
G36*
G01*
X114451000Y-92497200D02*
X114451000Y-92775600D01*
G75*
G02*
X114155200Y-93071400I-295800J0D01*
G01*
X113096800Y-93071400D01*
G75*
G02*
X112801000Y-92775600I0J295800D01*
G01*
X112801000Y-92497200D01*
G75*
G02*
X113096800Y-92201400I295800J0D01*
G01*
X114155200Y-92201400D01*
G75*
G02*
X114451000Y-92497200I0J-295800D01*
G01*
G37*
G36*
G01*
X114451000Y-91547200D02*
X114451000Y-91825600D01*
G75*
G02*
X114155200Y-92121400I-295800J0D01*
G01*
X113096800Y-92121400D01*
G75*
G02*
X112801000Y-91825600I0J295800D01*
G01*
X112801000Y-91547200D01*
G75*
G02*
X113096800Y-91251400I295800J0D01*
G01*
X114155200Y-91251400D01*
G75*
G02*
X114451000Y-91547200I0J-295800D01*
G01*
G37*
G36*
G01*
X114451000Y-90597200D02*
X114451000Y-90875600D01*
G75*
G02*
X114155200Y-91171400I-295800J0D01*
G01*
X113096800Y-91171400D01*
G75*
G02*
X112801000Y-90875600I0J295800D01*
G01*
X112801000Y-90597200D01*
G75*
G02*
X113096800Y-90301400I295800J0D01*
G01*
X114155200Y-90301400D01*
G75*
G02*
X114451000Y-90597200I0J-295800D01*
G01*
G37*
G36*
G01*
X116821000Y-90597200D02*
X116821000Y-90875600D01*
G75*
G02*
X116525200Y-91171400I-295800J0D01*
G01*
X115466800Y-91171400D01*
G75*
G02*
X115171000Y-90875600I0J295800D01*
G01*
X115171000Y-90597200D01*
G75*
G02*
X115466800Y-90301400I295800J0D01*
G01*
X116525200Y-90301400D01*
G75*
G02*
X116821000Y-90597200I0J-295800D01*
G01*
G37*
G36*
G01*
X116821000Y-91547200D02*
X116821000Y-91825600D01*
G75*
G02*
X116525200Y-92121400I-295800J0D01*
G01*
X115466800Y-92121400D01*
G75*
G02*
X115171000Y-91825600I0J295800D01*
G01*
X115171000Y-91547200D01*
G75*
G02*
X115466800Y-91251400I295800J0D01*
G01*
X116525200Y-91251400D01*
G75*
G02*
X116821000Y-91547200I0J-295800D01*
G01*
G37*
G36*
G01*
X116821000Y-92497200D02*
X116821000Y-92775600D01*
G75*
G02*
X116525200Y-93071400I-295800J0D01*
G01*
X115466800Y-93071400D01*
G75*
G02*
X115171000Y-92775600I0J295800D01*
G01*
X115171000Y-92497200D01*
G75*
G02*
X115466800Y-92201400I295800J0D01*
G01*
X116525200Y-92201400D01*
G75*
G02*
X116821000Y-92497200I0J-295800D01*
G01*
G37*
G36*
G01*
X133209216Y-97418100D02*
X134278784Y-97418100D01*
G75*
G02*
X134594000Y-97733316I0J-315216D01*
G01*
X134594000Y-98552884D01*
G75*
G02*
X134278784Y-98868100I-315216J0D01*
G01*
X133209216Y-98868100D01*
G75*
G02*
X132894000Y-98552884I0J315216D01*
G01*
X132894000Y-97733316D01*
G75*
G02*
X133209216Y-97418100I315216J0D01*
G01*
G37*
G36*
G01*
X133209216Y-95368100D02*
X134278784Y-95368100D01*
G75*
G02*
X134594000Y-95683316I0J-315216D01*
G01*
X134594000Y-96502884D01*
G75*
G02*
X134278784Y-96818100I-315216J0D01*
G01*
X133209216Y-96818100D01*
G75*
G02*
X132894000Y-96502884I0J315216D01*
G01*
X132894000Y-95683316D01*
G75*
G02*
X133209216Y-95368100I315216J0D01*
G01*
G37*
G36*
G01*
X98885000Y-84763684D02*
X98885000Y-83694116D01*
G75*
G02*
X99200216Y-83378900I315216J0D01*
G01*
X100019784Y-83378900D01*
G75*
G02*
X100335000Y-83694116I0J-315216D01*
G01*
X100335000Y-84763684D01*
G75*
G02*
X100019784Y-85078900I-315216J0D01*
G01*
X99200216Y-85078900D01*
G75*
G02*
X98885000Y-84763684I0J315216D01*
G01*
G37*
G36*
G01*
X96835000Y-84763684D02*
X96835000Y-83694116D01*
G75*
G02*
X97150216Y-83378900I315216J0D01*
G01*
X97969784Y-83378900D01*
G75*
G02*
X98285000Y-83694116I0J-315216D01*
G01*
X98285000Y-84763684D01*
G75*
G02*
X97969784Y-85078900I-315216J0D01*
G01*
X97150216Y-85078900D01*
G75*
G02*
X96835000Y-84763684I0J315216D01*
G01*
G37*
G36*
G01*
X114599000Y-87725469D02*
X114599000Y-88779131D01*
G75*
G02*
X114275831Y-89102300I-323169J0D01*
G01*
X113597169Y-89102300D01*
G75*
G02*
X113274000Y-88779131I0J323169D01*
G01*
X113274000Y-87725469D01*
G75*
G02*
X113597169Y-87402300I323169J0D01*
G01*
X114275831Y-87402300D01*
G75*
G02*
X114599000Y-87725469I0J-323169D01*
G01*
G37*
G36*
G01*
X116424000Y-87725469D02*
X116424000Y-88779131D01*
G75*
G02*
X116100831Y-89102300I-323169J0D01*
G01*
X115422169Y-89102300D01*
G75*
G02*
X115099000Y-88779131I0J323169D01*
G01*
X115099000Y-87725469D01*
G75*
G02*
X115422169Y-87402300I323169J0D01*
G01*
X116100831Y-87402300D01*
G75*
G02*
X116424000Y-87725469I0J-323169D01*
G01*
G37*
G36*
G01*
X114434000Y-100418169D02*
X114434000Y-101471831D01*
G75*
G02*
X114110831Y-101795000I-323169J0D01*
G01*
X113432169Y-101795000D01*
G75*
G02*
X113109000Y-101471831I0J323169D01*
G01*
X113109000Y-100418169D01*
G75*
G02*
X113432169Y-100095000I323169J0D01*
G01*
X114110831Y-100095000D01*
G75*
G02*
X114434000Y-100418169I0J-323169D01*
G01*
G37*
G36*
G01*
X116259000Y-100418169D02*
X116259000Y-101471831D01*
G75*
G02*
X115935831Y-101795000I-323169J0D01*
G01*
X115257169Y-101795000D01*
G75*
G02*
X114934000Y-101471831I0J323169D01*
G01*
X114934000Y-100418169D01*
G75*
G02*
X115257169Y-100095000I323169J0D01*
G01*
X115935831Y-100095000D01*
G75*
G02*
X116259000Y-100418169I0J-323169D01*
G01*
G37*
G36*
G01*
X125950000Y-103522169D02*
X125950000Y-104575831D01*
G75*
G02*
X125626831Y-104899000I-323169J0D01*
G01*
X124948169Y-104899000D01*
G75*
G02*
X124625000Y-104575831I0J323169D01*
G01*
X124625000Y-103522169D01*
G75*
G02*
X124948169Y-103199000I323169J0D01*
G01*
X125626831Y-103199000D01*
G75*
G02*
X125950000Y-103522169I0J-323169D01*
G01*
G37*
G36*
G01*
X127775000Y-103522169D02*
X127775000Y-104575831D01*
G75*
G02*
X127451831Y-104899000I-323169J0D01*
G01*
X126773169Y-104899000D01*
G75*
G02*
X126450000Y-104575831I0J323169D01*
G01*
X126450000Y-103522169D01*
G75*
G02*
X126773169Y-103199000I323169J0D01*
G01*
X127451831Y-103199000D01*
G75*
G02*
X127775000Y-103522169I0J-323169D01*
G01*
G37*
G36*
G01*
X132805169Y-87593600D02*
X133858831Y-87593600D01*
G75*
G02*
X134182000Y-87916769I0J-323169D01*
G01*
X134182000Y-88595431D01*
G75*
G02*
X133858831Y-88918600I-323169J0D01*
G01*
X132805169Y-88918600D01*
G75*
G02*
X132482000Y-88595431I0J323169D01*
G01*
X132482000Y-87916769D01*
G75*
G02*
X132805169Y-87593600I323169J0D01*
G01*
G37*
G36*
G01*
X132805169Y-85768600D02*
X133858831Y-85768600D01*
G75*
G02*
X134182000Y-86091769I0J-323169D01*
G01*
X134182000Y-86770431D01*
G75*
G02*
X133858831Y-87093600I-323169J0D01*
G01*
X132805169Y-87093600D01*
G75*
G02*
X132482000Y-86770431I0J323169D01*
G01*
X132482000Y-86091769D01*
G75*
G02*
X132805169Y-85768600I323169J0D01*
G01*
G37*
G36*
G01*
X107873000Y-95058469D02*
X107873000Y-96112131D01*
G75*
G02*
X107549831Y-96435300I-323169J0D01*
G01*
X106871169Y-96435300D01*
G75*
G02*
X106548000Y-96112131I0J323169D01*
G01*
X106548000Y-95058469D01*
G75*
G02*
X106871169Y-94735300I323169J0D01*
G01*
X107549831Y-94735300D01*
G75*
G02*
X107873000Y-95058469I0J-323169D01*
G01*
G37*
G36*
G01*
X109698000Y-95058469D02*
X109698000Y-96112131D01*
G75*
G02*
X109374831Y-96435300I-323169J0D01*
G01*
X108696169Y-96435300D01*
G75*
G02*
X108373000Y-96112131I0J323169D01*
G01*
X108373000Y-95058469D01*
G75*
G02*
X108696169Y-94735300I323169J0D01*
G01*
X109374831Y-94735300D01*
G75*
G02*
X109698000Y-95058469I0J-323169D01*
G01*
G37*
D10*
X98221900Y-106001000D03*
X98221900Y-103461000D03*
X98221900Y-100921000D03*
X98221900Y-98381000D03*
X98221900Y-95841000D03*
X98221900Y-93301000D03*
G36*
G01*
X97221900Y-91611000D02*
X97221900Y-89911000D01*
G75*
G02*
X97371900Y-89761000I150000J0D01*
G01*
X99071900Y-89761000D01*
G75*
G02*
X99221900Y-89911000I0J-150000D01*
G01*
X99221900Y-91611000D01*
G75*
G02*
X99071900Y-91761000I-150000J0D01*
G01*
X97371900Y-91761000D01*
G75*
G02*
X97221900Y-91611000I0J150000D01*
G01*
G37*
G36*
G01*
X101958000Y-110382000D02*
X101958000Y-109282000D01*
G75*
G02*
X102283000Y-108957000I325000J0D01*
G01*
X102933000Y-108957000D01*
G75*
G02*
X103258000Y-109282000I0J-325000D01*
G01*
X103258000Y-110382000D01*
G75*
G02*
X102933000Y-110707000I-325000J0D01*
G01*
X102283000Y-110707000D01*
G75*
G02*
X101958000Y-110382000I0J325000D01*
G01*
G37*
G36*
G01*
X100058000Y-110382000D02*
X100058000Y-109282000D01*
G75*
G02*
X100383000Y-108957000I325000J0D01*
G01*
X101033000Y-108957000D01*
G75*
G02*
X101358000Y-109282000I0J-325000D01*
G01*
X101358000Y-110382000D01*
G75*
G02*
X101033000Y-110707000I-325000J0D01*
G01*
X100383000Y-110707000D01*
G75*
G02*
X100058000Y-110382000I0J325000D01*
G01*
G37*
G36*
G01*
X100541000Y-116359000D02*
X100541000Y-115259000D01*
G75*
G02*
X100866000Y-114934000I325000J0D01*
G01*
X101516000Y-114934000D01*
G75*
G02*
X101841000Y-115259000I0J-325000D01*
G01*
X101841000Y-116359000D01*
G75*
G02*
X101516000Y-116684000I-325000J0D01*
G01*
X100866000Y-116684000D01*
G75*
G02*
X100541000Y-116359000I0J325000D01*
G01*
G37*
G36*
G01*
X98641000Y-116359000D02*
X98641000Y-115259000D01*
G75*
G02*
X98966000Y-114934000I325000J0D01*
G01*
X99616000Y-114934000D01*
G75*
G02*
X99941000Y-115259000I0J-325000D01*
G01*
X99941000Y-116359000D01*
G75*
G02*
X99616000Y-116684000I-325000J0D01*
G01*
X98966000Y-116684000D01*
G75*
G02*
X98641000Y-116359000I0J325000D01*
G01*
G37*
G36*
G01*
X128275000Y-82317700D02*
X128275000Y-81217700D01*
G75*
G02*
X128600000Y-80892700I325000J0D01*
G01*
X129250000Y-80892700D01*
G75*
G02*
X129575000Y-81217700I0J-325000D01*
G01*
X129575000Y-82317700D01*
G75*
G02*
X129250000Y-82642700I-325000J0D01*
G01*
X128600000Y-82642700D01*
G75*
G02*
X128275000Y-82317700I0J325000D01*
G01*
G37*
G36*
G01*
X126375000Y-82317700D02*
X126375000Y-81217700D01*
G75*
G02*
X126700000Y-80892700I325000J0D01*
G01*
X127350000Y-80892700D01*
G75*
G02*
X127675000Y-81217700I0J-325000D01*
G01*
X127675000Y-82317700D01*
G75*
G02*
X127350000Y-82642700I-325000J0D01*
G01*
X126700000Y-82642700D01*
G75*
G02*
X126375000Y-82317700I0J325000D01*
G01*
G37*
G36*
G01*
X107955000Y-99894500D02*
X107955000Y-98794500D01*
G75*
G02*
X108280000Y-98469500I325000J0D01*
G01*
X108930000Y-98469500D01*
G75*
G02*
X109255000Y-98794500I0J-325000D01*
G01*
X109255000Y-99894500D01*
G75*
G02*
X108930000Y-100219500I-325000J0D01*
G01*
X108280000Y-100219500D01*
G75*
G02*
X107955000Y-99894500I0J325000D01*
G01*
G37*
G36*
G01*
X106055000Y-99894500D02*
X106055000Y-98794500D01*
G75*
G02*
X106380000Y-98469500I325000J0D01*
G01*
X107030000Y-98469500D01*
G75*
G02*
X107355000Y-98794500I0J-325000D01*
G01*
X107355000Y-99894500D01*
G75*
G02*
X107030000Y-100219500I-325000J0D01*
G01*
X106380000Y-100219500D01*
G75*
G02*
X106055000Y-99894500I0J325000D01*
G01*
G37*
G36*
G01*
X126250000Y-111684000D02*
X125150000Y-111684000D01*
G75*
G02*
X124825000Y-111359000I0J325000D01*
G01*
X124825000Y-110709000D01*
G75*
G02*
X125150000Y-110384000I325000J0D01*
G01*
X126250000Y-110384000D01*
G75*
G02*
X126575000Y-110709000I0J-325000D01*
G01*
X126575000Y-111359000D01*
G75*
G02*
X126250000Y-111684000I-325000J0D01*
G01*
G37*
G36*
G01*
X126250000Y-113584000D02*
X125150000Y-113584000D01*
G75*
G02*
X124825000Y-113259000I0J325000D01*
G01*
X124825000Y-112609000D01*
G75*
G02*
X125150000Y-112284000I325000J0D01*
G01*
X126250000Y-112284000D01*
G75*
G02*
X126575000Y-112609000I0J-325000D01*
G01*
X126575000Y-113259000D01*
G75*
G02*
X126250000Y-113584000I-325000J0D01*
G01*
G37*
G36*
G01*
X124624000Y-107841000D02*
X125724000Y-107841000D01*
G75*
G02*
X126049000Y-108166000I0J-325000D01*
G01*
X126049000Y-108816000D01*
G75*
G02*
X125724000Y-109141000I-325000J0D01*
G01*
X124624000Y-109141000D01*
G75*
G02*
X124299000Y-108816000I0J325000D01*
G01*
X124299000Y-108166000D01*
G75*
G02*
X124624000Y-107841000I325000J0D01*
G01*
G37*
G36*
G01*
X124624000Y-105941000D02*
X125724000Y-105941000D01*
G75*
G02*
X126049000Y-106266000I0J-325000D01*
G01*
X126049000Y-106916000D01*
G75*
G02*
X125724000Y-107241000I-325000J0D01*
G01*
X124624000Y-107241000D01*
G75*
G02*
X124299000Y-106916000I0J325000D01*
G01*
X124299000Y-106266000D01*
G75*
G02*
X124624000Y-105941000I325000J0D01*
G01*
G37*
G36*
G01*
X128462000Y-111724000D02*
X127362000Y-111724000D01*
G75*
G02*
X127037000Y-111399000I0J325000D01*
G01*
X127037000Y-110749000D01*
G75*
G02*
X127362000Y-110424000I325000J0D01*
G01*
X128462000Y-110424000D01*
G75*
G02*
X128787000Y-110749000I0J-325000D01*
G01*
X128787000Y-111399000D01*
G75*
G02*
X128462000Y-111724000I-325000J0D01*
G01*
G37*
G36*
G01*
X128462000Y-113624000D02*
X127362000Y-113624000D01*
G75*
G02*
X127037000Y-113299000I0J325000D01*
G01*
X127037000Y-112649000D01*
G75*
G02*
X127362000Y-112324000I325000J0D01*
G01*
X128462000Y-112324000D01*
G75*
G02*
X128787000Y-112649000I0J-325000D01*
G01*
X128787000Y-113299000D01*
G75*
G02*
X128462000Y-113624000I-325000J0D01*
G01*
G37*
G36*
G01*
X127296000Y-107717000D02*
X128396000Y-107717000D01*
G75*
G02*
X128721000Y-108042000I0J-325000D01*
G01*
X128721000Y-108692000D01*
G75*
G02*
X128396000Y-109017000I-325000J0D01*
G01*
X127296000Y-109017000D01*
G75*
G02*
X126971000Y-108692000I0J325000D01*
G01*
X126971000Y-108042000D01*
G75*
G02*
X127296000Y-107717000I325000J0D01*
G01*
G37*
G36*
G01*
X127296000Y-105817000D02*
X128396000Y-105817000D01*
G75*
G02*
X128721000Y-106142000I0J-325000D01*
G01*
X128721000Y-106792000D01*
G75*
G02*
X128396000Y-107117000I-325000J0D01*
G01*
X127296000Y-107117000D01*
G75*
G02*
X126971000Y-106792000I0J325000D01*
G01*
X126971000Y-106142000D01*
G75*
G02*
X127296000Y-105817000I325000J0D01*
G01*
G37*
G36*
G01*
X102037000Y-113760000D02*
X102037000Y-112660000D01*
G75*
G02*
X102362000Y-112335000I325000J0D01*
G01*
X103012000Y-112335000D01*
G75*
G02*
X103337000Y-112660000I0J-325000D01*
G01*
X103337000Y-113760000D01*
G75*
G02*
X103012000Y-114085000I-325000J0D01*
G01*
X102362000Y-114085000D01*
G75*
G02*
X102037000Y-113760000I0J325000D01*
G01*
G37*
G36*
G01*
X100137000Y-113760000D02*
X100137000Y-112660000D01*
G75*
G02*
X100462000Y-112335000I325000J0D01*
G01*
X101112000Y-112335000D01*
G75*
G02*
X101437000Y-112660000I0J-325000D01*
G01*
X101437000Y-113760000D01*
G75*
G02*
X101112000Y-114085000I-325000J0D01*
G01*
X100462000Y-114085000D01*
G75*
G02*
X100137000Y-113760000I0J325000D01*
G01*
G37*
G36*
G01*
X132683000Y-83881200D02*
X133783000Y-83881200D01*
G75*
G02*
X134108000Y-84206200I0J-325000D01*
G01*
X134108000Y-84856200D01*
G75*
G02*
X133783000Y-85181200I-325000J0D01*
G01*
X132683000Y-85181200D01*
G75*
G02*
X132358000Y-84856200I0J325000D01*
G01*
X132358000Y-84206200D01*
G75*
G02*
X132683000Y-83881200I325000J0D01*
G01*
G37*
G36*
G01*
X132683000Y-81981200D02*
X133783000Y-81981200D01*
G75*
G02*
X134108000Y-82306200I0J-325000D01*
G01*
X134108000Y-82956200D01*
G75*
G02*
X133783000Y-83281200I-325000J0D01*
G01*
X132683000Y-83281200D01*
G75*
G02*
X132358000Y-82956200I0J325000D01*
G01*
X132358000Y-82306200D01*
G75*
G02*
X132683000Y-81981200I325000J0D01*
G01*
G37*
G36*
G01*
X98791000Y-81944300D02*
X98791000Y-80844300D01*
G75*
G02*
X99116000Y-80519300I325000J0D01*
G01*
X99766000Y-80519300D01*
G75*
G02*
X100091000Y-80844300I0J-325000D01*
G01*
X100091000Y-81944300D01*
G75*
G02*
X99766000Y-82269300I-325000J0D01*
G01*
X99116000Y-82269300D01*
G75*
G02*
X98791000Y-81944300I0J325000D01*
G01*
G37*
G36*
G01*
X96891000Y-81944300D02*
X96891000Y-80844300D01*
G75*
G02*
X97216000Y-80519300I325000J0D01*
G01*
X97866000Y-80519300D01*
G75*
G02*
X98191000Y-80844300I0J-325000D01*
G01*
X98191000Y-81944300D01*
G75*
G02*
X97866000Y-82269300I-325000J0D01*
G01*
X97216000Y-82269300D01*
G75*
G02*
X96891000Y-81944300I0J325000D01*
G01*
G37*
X110523000Y-81833700D03*
X113063000Y-81833700D03*
X115603000Y-81833700D03*
X118143000Y-81833700D03*
X120683000Y-81833700D03*
G36*
G01*
X122373000Y-80833700D02*
X124073000Y-80833700D01*
G75*
G02*
X124223000Y-80983700I0J-150000D01*
G01*
X124223000Y-82683700D01*
G75*
G02*
X124073000Y-82833700I-150000J0D01*
G01*
X122373000Y-82833700D01*
G75*
G02*
X122223000Y-82683700I0J150000D01*
G01*
X122223000Y-80983700D01*
G75*
G02*
X122373000Y-80833700I150000J0D01*
G01*
G37*
G36*
G01*
X131059000Y-98868700D02*
X132059000Y-98868700D01*
G75*
G02*
X132209000Y-99018700I0J-150000D01*
G01*
X132209000Y-99248700D01*
G75*
G02*
X132059000Y-99398700I-150000J0D01*
G01*
X131059000Y-99398700D01*
G75*
G02*
X130909000Y-99248700I0J150000D01*
G01*
X130909000Y-99018700D01*
G75*
G02*
X131059000Y-98868700I150000J0D01*
G01*
G37*
G36*
G01*
X130174000Y-92133700D02*
X130404000Y-92133700D01*
G75*
G02*
X130554000Y-92283700I0J-150000D01*
G01*
X130554000Y-93283700D01*
G75*
G02*
X130404000Y-93433700I-150000J0D01*
G01*
X130174000Y-93433700D01*
G75*
G02*
X130024000Y-93283700I0J150000D01*
G01*
X130024000Y-92283700D01*
G75*
G02*
X130174000Y-92133700I150000J0D01*
G01*
G37*
G36*
G01*
X129666000Y-92133700D02*
X129896000Y-92133700D01*
G75*
G02*
X130046000Y-92283700I0J-150000D01*
G01*
X130046000Y-93283700D01*
G75*
G02*
X129896000Y-93433700I-150000J0D01*
G01*
X129666000Y-93433700D01*
G75*
G02*
X129516000Y-93283700I0J150000D01*
G01*
X129516000Y-92283700D01*
G75*
G02*
X129666000Y-92133700I150000J0D01*
G01*
G37*
G36*
G01*
X129158000Y-92133700D02*
X129388000Y-92133700D01*
G75*
G02*
X129538000Y-92283700I0J-150000D01*
G01*
X129538000Y-93283700D01*
G75*
G02*
X129388000Y-93433700I-150000J0D01*
G01*
X129158000Y-93433700D01*
G75*
G02*
X129008000Y-93283700I0J150000D01*
G01*
X129008000Y-92283700D01*
G75*
G02*
X129158000Y-92133700I150000J0D01*
G01*
G37*
G36*
G01*
X128650000Y-92133700D02*
X128880000Y-92133700D01*
G75*
G02*
X129030000Y-92283700I0J-150000D01*
G01*
X129030000Y-93283700D01*
G75*
G02*
X128880000Y-93433700I-150000J0D01*
G01*
X128650000Y-93433700D01*
G75*
G02*
X128500000Y-93283700I0J150000D01*
G01*
X128500000Y-92283700D01*
G75*
G02*
X128650000Y-92133700I150000J0D01*
G01*
G37*
G36*
G01*
X128142000Y-92133700D02*
X128372000Y-92133700D01*
G75*
G02*
X128522000Y-92283700I0J-150000D01*
G01*
X128522000Y-93283700D01*
G75*
G02*
X128372000Y-93433700I-150000J0D01*
G01*
X128142000Y-93433700D01*
G75*
G02*
X127992000Y-93283700I0J150000D01*
G01*
X127992000Y-92283700D01*
G75*
G02*
X128142000Y-92133700I150000J0D01*
G01*
G37*
G36*
G01*
X127634000Y-92133700D02*
X127864000Y-92133700D01*
G75*
G02*
X128014000Y-92283700I0J-150000D01*
G01*
X128014000Y-93283700D01*
G75*
G02*
X127864000Y-93433700I-150000J0D01*
G01*
X127634000Y-93433700D01*
G75*
G02*
X127484000Y-93283700I0J150000D01*
G01*
X127484000Y-92283700D01*
G75*
G02*
X127634000Y-92133700I150000J0D01*
G01*
G37*
G36*
G01*
X127126000Y-92133700D02*
X127356000Y-92133700D01*
G75*
G02*
X127506000Y-92283700I0J-150000D01*
G01*
X127506000Y-93283700D01*
G75*
G02*
X127356000Y-93433700I-150000J0D01*
G01*
X127126000Y-93433700D01*
G75*
G02*
X126976000Y-93283700I0J150000D01*
G01*
X126976000Y-92283700D01*
G75*
G02*
X127126000Y-92133700I150000J0D01*
G01*
G37*
G36*
G01*
X126618000Y-92133700D02*
X126848000Y-92133700D01*
G75*
G02*
X126998000Y-92283700I0J-150000D01*
G01*
X126998000Y-93283700D01*
G75*
G02*
X126848000Y-93433700I-150000J0D01*
G01*
X126618000Y-93433700D01*
G75*
G02*
X126468000Y-93283700I0J150000D01*
G01*
X126468000Y-92283700D01*
G75*
G02*
X126618000Y-92133700I150000J0D01*
G01*
G37*
G36*
G01*
X126110000Y-92133700D02*
X126340000Y-92133700D01*
G75*
G02*
X126490000Y-92283700I0J-150000D01*
G01*
X126490000Y-93283700D01*
G75*
G02*
X126340000Y-93433700I-150000J0D01*
G01*
X126110000Y-93433700D01*
G75*
G02*
X125960000Y-93283700I0J150000D01*
G01*
X125960000Y-92283700D01*
G75*
G02*
X126110000Y-92133700I150000J0D01*
G01*
G37*
G36*
G01*
X125602000Y-92133700D02*
X125832000Y-92133700D01*
G75*
G02*
X125982000Y-92283700I0J-150000D01*
G01*
X125982000Y-93283700D01*
G75*
G02*
X125832000Y-93433700I-150000J0D01*
G01*
X125602000Y-93433700D01*
G75*
G02*
X125452000Y-93283700I0J150000D01*
G01*
X125452000Y-92283700D01*
G75*
G02*
X125602000Y-92133700I150000J0D01*
G01*
G37*
G36*
G01*
X125094000Y-92133700D02*
X125324000Y-92133700D01*
G75*
G02*
X125474000Y-92283700I0J-150000D01*
G01*
X125474000Y-93283700D01*
G75*
G02*
X125324000Y-93433700I-150000J0D01*
G01*
X125094000Y-93433700D01*
G75*
G02*
X124944000Y-93283700I0J150000D01*
G01*
X124944000Y-92283700D01*
G75*
G02*
X125094000Y-92133700I150000J0D01*
G01*
G37*
G36*
G01*
X124586000Y-92133700D02*
X124816000Y-92133700D01*
G75*
G02*
X124966000Y-92283700I0J-150000D01*
G01*
X124966000Y-93283700D01*
G75*
G02*
X124816000Y-93433700I-150000J0D01*
G01*
X124586000Y-93433700D01*
G75*
G02*
X124436000Y-93283700I0J150000D01*
G01*
X124436000Y-92283700D01*
G75*
G02*
X124586000Y-92133700I150000J0D01*
G01*
G37*
G36*
G01*
X122931000Y-93788700D02*
X123931000Y-93788700D01*
G75*
G02*
X124081000Y-93938700I0J-150000D01*
G01*
X124081000Y-94168700D01*
G75*
G02*
X123931000Y-94318700I-150000J0D01*
G01*
X122931000Y-94318700D01*
G75*
G02*
X122781000Y-94168700I0J150000D01*
G01*
X122781000Y-93938700D01*
G75*
G02*
X122931000Y-93788700I150000J0D01*
G01*
G37*
G36*
G01*
X122931000Y-94296700D02*
X123931000Y-94296700D01*
G75*
G02*
X124081000Y-94446700I0J-150000D01*
G01*
X124081000Y-94676700D01*
G75*
G02*
X123931000Y-94826700I-150000J0D01*
G01*
X122931000Y-94826700D01*
G75*
G02*
X122781000Y-94676700I0J150000D01*
G01*
X122781000Y-94446700D01*
G75*
G02*
X122931000Y-94296700I150000J0D01*
G01*
G37*
G36*
G01*
X122931000Y-95312700D02*
X123931000Y-95312700D01*
G75*
G02*
X124081000Y-95462700I0J-150000D01*
G01*
X124081000Y-95692700D01*
G75*
G02*
X123931000Y-95842700I-150000J0D01*
G01*
X122931000Y-95842700D01*
G75*
G02*
X122781000Y-95692700I0J150000D01*
G01*
X122781000Y-95462700D01*
G75*
G02*
X122931000Y-95312700I150000J0D01*
G01*
G37*
G36*
G01*
X122931000Y-95820700D02*
X123931000Y-95820700D01*
G75*
G02*
X124081000Y-95970700I0J-150000D01*
G01*
X124081000Y-96200700D01*
G75*
G02*
X123931000Y-96350700I-150000J0D01*
G01*
X122931000Y-96350700D01*
G75*
G02*
X122781000Y-96200700I0J150000D01*
G01*
X122781000Y-95970700D01*
G75*
G02*
X122931000Y-95820700I150000J0D01*
G01*
G37*
G36*
G01*
X122931000Y-96328700D02*
X123931000Y-96328700D01*
G75*
G02*
X124081000Y-96478700I0J-150000D01*
G01*
X124081000Y-96708700D01*
G75*
G02*
X123931000Y-96858700I-150000J0D01*
G01*
X122931000Y-96858700D01*
G75*
G02*
X122781000Y-96708700I0J150000D01*
G01*
X122781000Y-96478700D01*
G75*
G02*
X122931000Y-96328700I150000J0D01*
G01*
G37*
G36*
G01*
X122931000Y-96836700D02*
X123931000Y-96836700D01*
G75*
G02*
X124081000Y-96986700I0J-150000D01*
G01*
X124081000Y-97216700D01*
G75*
G02*
X123931000Y-97366700I-150000J0D01*
G01*
X122931000Y-97366700D01*
G75*
G02*
X122781000Y-97216700I0J150000D01*
G01*
X122781000Y-96986700D01*
G75*
G02*
X122931000Y-96836700I150000J0D01*
G01*
G37*
G36*
G01*
X122931000Y-97344700D02*
X123931000Y-97344700D01*
G75*
G02*
X124081000Y-97494700I0J-150000D01*
G01*
X124081000Y-97724700D01*
G75*
G02*
X123931000Y-97874700I-150000J0D01*
G01*
X122931000Y-97874700D01*
G75*
G02*
X122781000Y-97724700I0J150000D01*
G01*
X122781000Y-97494700D01*
G75*
G02*
X122931000Y-97344700I150000J0D01*
G01*
G37*
G36*
G01*
X122931000Y-97852700D02*
X123931000Y-97852700D01*
G75*
G02*
X124081000Y-98002700I0J-150000D01*
G01*
X124081000Y-98232700D01*
G75*
G02*
X123931000Y-98382700I-150000J0D01*
G01*
X122931000Y-98382700D01*
G75*
G02*
X122781000Y-98232700I0J150000D01*
G01*
X122781000Y-98002700D01*
G75*
G02*
X122931000Y-97852700I150000J0D01*
G01*
G37*
G36*
G01*
X122931000Y-98360700D02*
X123931000Y-98360700D01*
G75*
G02*
X124081000Y-98510700I0J-150000D01*
G01*
X124081000Y-98740700D01*
G75*
G02*
X123931000Y-98890700I-150000J0D01*
G01*
X122931000Y-98890700D01*
G75*
G02*
X122781000Y-98740700I0J150000D01*
G01*
X122781000Y-98510700D01*
G75*
G02*
X122931000Y-98360700I150000J0D01*
G01*
G37*
G36*
G01*
X122931000Y-98868700D02*
X123931000Y-98868700D01*
G75*
G02*
X124081000Y-99018700I0J-150000D01*
G01*
X124081000Y-99248700D01*
G75*
G02*
X123931000Y-99398700I-150000J0D01*
G01*
X122931000Y-99398700D01*
G75*
G02*
X122781000Y-99248700I0J150000D01*
G01*
X122781000Y-99018700D01*
G75*
G02*
X122931000Y-98868700I150000J0D01*
G01*
G37*
G36*
G01*
X122931000Y-99376700D02*
X123931000Y-99376700D01*
G75*
G02*
X124081000Y-99526700I0J-150000D01*
G01*
X124081000Y-99756700D01*
G75*
G02*
X123931000Y-99906700I-150000J0D01*
G01*
X122931000Y-99906700D01*
G75*
G02*
X122781000Y-99756700I0J150000D01*
G01*
X122781000Y-99526700D01*
G75*
G02*
X122931000Y-99376700I150000J0D01*
G01*
G37*
G36*
G01*
X125094000Y-100261700D02*
X125324000Y-100261700D01*
G75*
G02*
X125474000Y-100411700I0J-150000D01*
G01*
X125474000Y-101411700D01*
G75*
G02*
X125324000Y-101561700I-150000J0D01*
G01*
X125094000Y-101561700D01*
G75*
G02*
X124944000Y-101411700I0J150000D01*
G01*
X124944000Y-100411700D01*
G75*
G02*
X125094000Y-100261700I150000J0D01*
G01*
G37*
G36*
G01*
X125602000Y-100261700D02*
X125832000Y-100261700D01*
G75*
G02*
X125982000Y-100411700I0J-150000D01*
G01*
X125982000Y-101411700D01*
G75*
G02*
X125832000Y-101561700I-150000J0D01*
G01*
X125602000Y-101561700D01*
G75*
G02*
X125452000Y-101411700I0J150000D01*
G01*
X125452000Y-100411700D01*
G75*
G02*
X125602000Y-100261700I150000J0D01*
G01*
G37*
G36*
G01*
X126110000Y-100261700D02*
X126340000Y-100261700D01*
G75*
G02*
X126490000Y-100411700I0J-150000D01*
G01*
X126490000Y-101411700D01*
G75*
G02*
X126340000Y-101561700I-150000J0D01*
G01*
X126110000Y-101561700D01*
G75*
G02*
X125960000Y-101411700I0J150000D01*
G01*
X125960000Y-100411700D01*
G75*
G02*
X126110000Y-100261700I150000J0D01*
G01*
G37*
G36*
G01*
X126618000Y-100261700D02*
X126848000Y-100261700D01*
G75*
G02*
X126998000Y-100411700I0J-150000D01*
G01*
X126998000Y-101411700D01*
G75*
G02*
X126848000Y-101561700I-150000J0D01*
G01*
X126618000Y-101561700D01*
G75*
G02*
X126468000Y-101411700I0J150000D01*
G01*
X126468000Y-100411700D01*
G75*
G02*
X126618000Y-100261700I150000J0D01*
G01*
G37*
G36*
G01*
X127126000Y-100261700D02*
X127356000Y-100261700D01*
G75*
G02*
X127506000Y-100411700I0J-150000D01*
G01*
X127506000Y-101411700D01*
G75*
G02*
X127356000Y-101561700I-150000J0D01*
G01*
X127126000Y-101561700D01*
G75*
G02*
X126976000Y-101411700I0J150000D01*
G01*
X126976000Y-100411700D01*
G75*
G02*
X127126000Y-100261700I150000J0D01*
G01*
G37*
G36*
G01*
X127634000Y-100261700D02*
X127864000Y-100261700D01*
G75*
G02*
X128014000Y-100411700I0J-150000D01*
G01*
X128014000Y-101411700D01*
G75*
G02*
X127864000Y-101561700I-150000J0D01*
G01*
X127634000Y-101561700D01*
G75*
G02*
X127484000Y-101411700I0J150000D01*
G01*
X127484000Y-100411700D01*
G75*
G02*
X127634000Y-100261700I150000J0D01*
G01*
G37*
G36*
G01*
X128142000Y-100261700D02*
X128372000Y-100261700D01*
G75*
G02*
X128522000Y-100411700I0J-150000D01*
G01*
X128522000Y-101411700D01*
G75*
G02*
X128372000Y-101561700I-150000J0D01*
G01*
X128142000Y-101561700D01*
G75*
G02*
X127992000Y-101411700I0J150000D01*
G01*
X127992000Y-100411700D01*
G75*
G02*
X128142000Y-100261700I150000J0D01*
G01*
G37*
G36*
G01*
X128650000Y-100261700D02*
X128880000Y-100261700D01*
G75*
G02*
X129030000Y-100411700I0J-150000D01*
G01*
X129030000Y-101411700D01*
G75*
G02*
X128880000Y-101561700I-150000J0D01*
G01*
X128650000Y-101561700D01*
G75*
G02*
X128500000Y-101411700I0J150000D01*
G01*
X128500000Y-100411700D01*
G75*
G02*
X128650000Y-100261700I150000J0D01*
G01*
G37*
G36*
G01*
X129158000Y-100261700D02*
X129388000Y-100261700D01*
G75*
G02*
X129538000Y-100411700I0J-150000D01*
G01*
X129538000Y-101411700D01*
G75*
G02*
X129388000Y-101561700I-150000J0D01*
G01*
X129158000Y-101561700D01*
G75*
G02*
X129008000Y-101411700I0J150000D01*
G01*
X129008000Y-100411700D01*
G75*
G02*
X129158000Y-100261700I150000J0D01*
G01*
G37*
G36*
G01*
X129666000Y-100261700D02*
X129896000Y-100261700D01*
G75*
G02*
X130046000Y-100411700I0J-150000D01*
G01*
X130046000Y-101411700D01*
G75*
G02*
X129896000Y-101561700I-150000J0D01*
G01*
X129666000Y-101561700D01*
G75*
G02*
X129516000Y-101411700I0J150000D01*
G01*
X129516000Y-100411700D01*
G75*
G02*
X129666000Y-100261700I150000J0D01*
G01*
G37*
G36*
G01*
X130174000Y-100261700D02*
X130404000Y-100261700D01*
G75*
G02*
X130554000Y-100411700I0J-150000D01*
G01*
X130554000Y-101411700D01*
G75*
G02*
X130404000Y-101561700I-150000J0D01*
G01*
X130174000Y-101561700D01*
G75*
G02*
X130024000Y-101411700I0J150000D01*
G01*
X130024000Y-100411700D01*
G75*
G02*
X130174000Y-100261700I150000J0D01*
G01*
G37*
G36*
G01*
X131059000Y-99376700D02*
X132059000Y-99376700D01*
G75*
G02*
X132209000Y-99526700I0J-150000D01*
G01*
X132209000Y-99756700D01*
G75*
G02*
X132059000Y-99906700I-150000J0D01*
G01*
X131059000Y-99906700D01*
G75*
G02*
X130909000Y-99756700I0J150000D01*
G01*
X130909000Y-99526700D01*
G75*
G02*
X131059000Y-99376700I150000J0D01*
G01*
G37*
G36*
G01*
X131059000Y-98360700D02*
X132059000Y-98360700D01*
G75*
G02*
X132209000Y-98510700I0J-150000D01*
G01*
X132209000Y-98740700D01*
G75*
G02*
X132059000Y-98890700I-150000J0D01*
G01*
X131059000Y-98890700D01*
G75*
G02*
X130909000Y-98740700I0J150000D01*
G01*
X130909000Y-98510700D01*
G75*
G02*
X131059000Y-98360700I150000J0D01*
G01*
G37*
G36*
G01*
X131059000Y-97852700D02*
X132059000Y-97852700D01*
G75*
G02*
X132209000Y-98002700I0J-150000D01*
G01*
X132209000Y-98232700D01*
G75*
G02*
X132059000Y-98382700I-150000J0D01*
G01*
X131059000Y-98382700D01*
G75*
G02*
X130909000Y-98232700I0J150000D01*
G01*
X130909000Y-98002700D01*
G75*
G02*
X131059000Y-97852700I150000J0D01*
G01*
G37*
G36*
G01*
X131059000Y-97344700D02*
X132059000Y-97344700D01*
G75*
G02*
X132209000Y-97494700I0J-150000D01*
G01*
X132209000Y-97724700D01*
G75*
G02*
X132059000Y-97874700I-150000J0D01*
G01*
X131059000Y-97874700D01*
G75*
G02*
X130909000Y-97724700I0J150000D01*
G01*
X130909000Y-97494700D01*
G75*
G02*
X131059000Y-97344700I150000J0D01*
G01*
G37*
G36*
G01*
X131059000Y-96836700D02*
X132059000Y-96836700D01*
G75*
G02*
X132209000Y-96986700I0J-150000D01*
G01*
X132209000Y-97216700D01*
G75*
G02*
X132059000Y-97366700I-150000J0D01*
G01*
X131059000Y-97366700D01*
G75*
G02*
X130909000Y-97216700I0J150000D01*
G01*
X130909000Y-96986700D01*
G75*
G02*
X131059000Y-96836700I150000J0D01*
G01*
G37*
G36*
G01*
X131059000Y-96328700D02*
X132059000Y-96328700D01*
G75*
G02*
X132209000Y-96478700I0J-150000D01*
G01*
X132209000Y-96708700D01*
G75*
G02*
X132059000Y-96858700I-150000J0D01*
G01*
X131059000Y-96858700D01*
G75*
G02*
X130909000Y-96708700I0J150000D01*
G01*
X130909000Y-96478700D01*
G75*
G02*
X131059000Y-96328700I150000J0D01*
G01*
G37*
G36*
G01*
X131059000Y-95820700D02*
X132059000Y-95820700D01*
G75*
G02*
X132209000Y-95970700I0J-150000D01*
G01*
X132209000Y-96200700D01*
G75*
G02*
X132059000Y-96350700I-150000J0D01*
G01*
X131059000Y-96350700D01*
G75*
G02*
X130909000Y-96200700I0J150000D01*
G01*
X130909000Y-95970700D01*
G75*
G02*
X131059000Y-95820700I150000J0D01*
G01*
G37*
G36*
G01*
X131059000Y-95312700D02*
X132059000Y-95312700D01*
G75*
G02*
X132209000Y-95462700I0J-150000D01*
G01*
X132209000Y-95692700D01*
G75*
G02*
X132059000Y-95842700I-150000J0D01*
G01*
X131059000Y-95842700D01*
G75*
G02*
X130909000Y-95692700I0J150000D01*
G01*
X130909000Y-95462700D01*
G75*
G02*
X131059000Y-95312700I150000J0D01*
G01*
G37*
G36*
G01*
X131059000Y-94804700D02*
X132059000Y-94804700D01*
G75*
G02*
X132209000Y-94954700I0J-150000D01*
G01*
X132209000Y-95184700D01*
G75*
G02*
X132059000Y-95334700I-150000J0D01*
G01*
X131059000Y-95334700D01*
G75*
G02*
X130909000Y-95184700I0J150000D01*
G01*
X130909000Y-94954700D01*
G75*
G02*
X131059000Y-94804700I150000J0D01*
G01*
G37*
G36*
G01*
X131059000Y-94296700D02*
X132059000Y-94296700D01*
G75*
G02*
X132209000Y-94446700I0J-150000D01*
G01*
X132209000Y-94676700D01*
G75*
G02*
X132059000Y-94826700I-150000J0D01*
G01*
X131059000Y-94826700D01*
G75*
G02*
X130909000Y-94676700I0J150000D01*
G01*
X130909000Y-94446700D01*
G75*
G02*
X131059000Y-94296700I150000J0D01*
G01*
G37*
G36*
G01*
X131059000Y-93788700D02*
X132059000Y-93788700D01*
G75*
G02*
X132209000Y-93938700I0J-150000D01*
G01*
X132209000Y-94168700D01*
G75*
G02*
X132059000Y-94318700I-150000J0D01*
G01*
X131059000Y-94318700D01*
G75*
G02*
X130909000Y-94168700I0J150000D01*
G01*
X130909000Y-93938700D01*
G75*
G02*
X131059000Y-93788700I150000J0D01*
G01*
G37*
G36*
G01*
X124586000Y-100261700D02*
X124816000Y-100261700D01*
G75*
G02*
X124966000Y-100411700I0J-150000D01*
G01*
X124966000Y-101411700D01*
G75*
G02*
X124816000Y-101561700I-150000J0D01*
G01*
X124586000Y-101561700D01*
G75*
G02*
X124436000Y-101411700I0J150000D01*
G01*
X124436000Y-100411700D01*
G75*
G02*
X124586000Y-100261700I150000J0D01*
G01*
G37*
G36*
G01*
X122931000Y-94804700D02*
X123931000Y-94804700D01*
G75*
G02*
X124081000Y-94954700I0J-150000D01*
G01*
X124081000Y-95184700D01*
G75*
G02*
X123931000Y-95334700I-150000J0D01*
G01*
X122931000Y-95334700D01*
G75*
G02*
X122781000Y-95184700I0J150000D01*
G01*
X122781000Y-94954700D01*
G75*
G02*
X122931000Y-94804700I150000J0D01*
G01*
G37*
G36*
G01*
X96375100Y-118466000D02*
X96375100Y-116942000D01*
G75*
G02*
X96525100Y-116792000I150000J0D01*
G01*
X98049100Y-116792000D01*
G75*
G02*
X98199100Y-116942000I0J-150000D01*
G01*
X98199100Y-118466000D01*
G75*
G02*
X98049100Y-118616000I-150000J0D01*
G01*
X96525100Y-118616000D01*
G75*
G02*
X96375100Y-118466000I0J150000D01*
G01*
G37*
G36*
G01*
X132814000Y-117662000D02*
X132814000Y-116902000D01*
G75*
G02*
X132964000Y-116752000I150000J0D01*
G01*
X134564000Y-116752000D01*
G75*
G02*
X134714000Y-116902000I0J-150000D01*
G01*
X134714000Y-117662000D01*
G75*
G02*
X134564000Y-117812000I-150000J0D01*
G01*
X132964000Y-117812000D01*
G75*
G02*
X132814000Y-117662000I0J150000D01*
G01*
G37*
G36*
G01*
X125194000Y-117662000D02*
X125194000Y-116902000D01*
G75*
G02*
X125344000Y-116752000I150000J0D01*
G01*
X126944000Y-116752000D01*
G75*
G02*
X127094000Y-116902000I0J-150000D01*
G01*
X127094000Y-117662000D01*
G75*
G02*
X126944000Y-117812000I-150000J0D01*
G01*
X125344000Y-117812000D01*
G75*
G02*
X125194000Y-117662000I0J150000D01*
G01*
G37*
G36*
G01*
X107030000Y-88436800D02*
X106380000Y-88436800D01*
G75*
G02*
X106230000Y-88286800I0J150000D01*
G01*
X106230000Y-87226800D01*
G75*
G02*
X106380000Y-87076800I150000J0D01*
G01*
X107030000Y-87076800D01*
G75*
G02*
X107180000Y-87226800I0J-150000D01*
G01*
X107180000Y-88286800D01*
G75*
G02*
X107030000Y-88436800I-150000J0D01*
G01*
G37*
G36*
G01*
X108930000Y-88436800D02*
X108280000Y-88436800D01*
G75*
G02*
X108130000Y-88286800I0J150000D01*
G01*
X108130000Y-87226800D01*
G75*
G02*
X108280000Y-87076800I150000J0D01*
G01*
X108930000Y-87076800D01*
G75*
G02*
X109080000Y-87226800I0J-150000D01*
G01*
X109080000Y-88286800D01*
G75*
G02*
X108930000Y-88436800I-150000J0D01*
G01*
G37*
G36*
G01*
X108930000Y-90636800D02*
X108280000Y-90636800D01*
G75*
G02*
X108130000Y-90486800I0J150000D01*
G01*
X108130000Y-89426800D01*
G75*
G02*
X108280000Y-89276800I150000J0D01*
G01*
X108930000Y-89276800D01*
G75*
G02*
X109080000Y-89426800I0J-150000D01*
G01*
X109080000Y-90486800D01*
G75*
G02*
X108930000Y-90636800I-150000J0D01*
G01*
G37*
G36*
G01*
X107980000Y-90636800D02*
X107330000Y-90636800D01*
G75*
G02*
X107180000Y-90486800I0J150000D01*
G01*
X107180000Y-89426800D01*
G75*
G02*
X107330000Y-89276800I150000J0D01*
G01*
X107980000Y-89276800D01*
G75*
G02*
X108130000Y-89426800I0J-150000D01*
G01*
X108130000Y-90486800D01*
G75*
G02*
X107980000Y-90636800I-150000J0D01*
G01*
G37*
G36*
G01*
X107030000Y-90636800D02*
X106380000Y-90636800D01*
G75*
G02*
X106230000Y-90486800I0J150000D01*
G01*
X106230000Y-89426800D01*
G75*
G02*
X106380000Y-89276800I150000J0D01*
G01*
X107030000Y-89276800D01*
G75*
G02*
X107180000Y-89426800I0J-150000D01*
G01*
X107180000Y-90486800D01*
G75*
G02*
X107030000Y-90636800I-150000J0D01*
G01*
G37*
G36*
G01*
X105426000Y-104133000D02*
X105426000Y-102933000D01*
G75*
G02*
X105576000Y-102783000I150000J0D01*
G01*
X107276000Y-102783000D01*
G75*
G02*
X107426000Y-102933000I0J-150000D01*
G01*
X107426000Y-104133000D01*
G75*
G02*
X107276000Y-104283000I-150000J0D01*
G01*
X105576000Y-104283000D01*
G75*
G02*
X105426000Y-104133000I0J150000D01*
G01*
G37*
G36*
G01*
X105426000Y-106133000D02*
X105426000Y-104933000D01*
G75*
G02*
X105576000Y-104783000I150000J0D01*
G01*
X107276000Y-104783000D01*
G75*
G02*
X107426000Y-104933000I0J-150000D01*
G01*
X107426000Y-106133000D01*
G75*
G02*
X107276000Y-106283000I-150000J0D01*
G01*
X105576000Y-106283000D01*
G75*
G02*
X105426000Y-106133000I0J150000D01*
G01*
G37*
G36*
G01*
X105426000Y-108133000D02*
X105426000Y-106933000D01*
G75*
G02*
X105576000Y-106783000I150000J0D01*
G01*
X107276000Y-106783000D01*
G75*
G02*
X107426000Y-106933000I0J-150000D01*
G01*
X107426000Y-108133000D01*
G75*
G02*
X107276000Y-108283000I-150000J0D01*
G01*
X105576000Y-108283000D01*
G75*
G02*
X105426000Y-108133000I0J150000D01*
G01*
G37*
G36*
G01*
X105426000Y-110133000D02*
X105426000Y-108933000D01*
G75*
G02*
X105576000Y-108783000I150000J0D01*
G01*
X107276000Y-108783000D01*
G75*
G02*
X107426000Y-108933000I0J-150000D01*
G01*
X107426000Y-110133000D01*
G75*
G02*
X107276000Y-110283000I-150000J0D01*
G01*
X105576000Y-110283000D01*
G75*
G02*
X105426000Y-110133000I0J150000D01*
G01*
G37*
G36*
G01*
X105426000Y-112133000D02*
X105426000Y-110933000D01*
G75*
G02*
X105576000Y-110783000I150000J0D01*
G01*
X107276000Y-110783000D01*
G75*
G02*
X107426000Y-110933000I0J-150000D01*
G01*
X107426000Y-112133000D01*
G75*
G02*
X107276000Y-112283000I-150000J0D01*
G01*
X105576000Y-112283000D01*
G75*
G02*
X105426000Y-112133000I0J150000D01*
G01*
G37*
G36*
G01*
X105426000Y-114133000D02*
X105426000Y-112933000D01*
G75*
G02*
X105576000Y-112783000I150000J0D01*
G01*
X107276000Y-112783000D01*
G75*
G02*
X107426000Y-112933000I0J-150000D01*
G01*
X107426000Y-114133000D01*
G75*
G02*
X107276000Y-114283000I-150000J0D01*
G01*
X105576000Y-114283000D01*
G75*
G02*
X105426000Y-114133000I0J150000D01*
G01*
G37*
G36*
G01*
X105426000Y-116133000D02*
X105426000Y-114933000D01*
G75*
G02*
X105576000Y-114783000I150000J0D01*
G01*
X107276000Y-114783000D01*
G75*
G02*
X107426000Y-114933000I0J-150000D01*
G01*
X107426000Y-116133000D01*
G75*
G02*
X107276000Y-116283000I-150000J0D01*
G01*
X105576000Y-116283000D01*
G75*
G02*
X105426000Y-116133000I0J150000D01*
G01*
G37*
G36*
G01*
X105426000Y-118133000D02*
X105426000Y-116933000D01*
G75*
G02*
X105576000Y-116783000I150000J0D01*
G01*
X107276000Y-116783000D01*
G75*
G02*
X107426000Y-116933000I0J-150000D01*
G01*
X107426000Y-118133000D01*
G75*
G02*
X107276000Y-118283000I-150000J0D01*
G01*
X105576000Y-118283000D01*
G75*
G02*
X105426000Y-118133000I0J150000D01*
G01*
G37*
G36*
G01*
X120656000Y-118133000D02*
X120656000Y-116933000D01*
G75*
G02*
X120806000Y-116783000I150000J0D01*
G01*
X122506000Y-116783000D01*
G75*
G02*
X122656000Y-116933000I0J-150000D01*
G01*
X122656000Y-118133000D01*
G75*
G02*
X122506000Y-118283000I-150000J0D01*
G01*
X120806000Y-118283000D01*
G75*
G02*
X120656000Y-118133000I0J150000D01*
G01*
G37*
G36*
G01*
X120656000Y-116133000D02*
X120656000Y-114933000D01*
G75*
G02*
X120806000Y-114783000I150000J0D01*
G01*
X122506000Y-114783000D01*
G75*
G02*
X122656000Y-114933000I0J-150000D01*
G01*
X122656000Y-116133000D01*
G75*
G02*
X122506000Y-116283000I-150000J0D01*
G01*
X120806000Y-116283000D01*
G75*
G02*
X120656000Y-116133000I0J150000D01*
G01*
G37*
G36*
G01*
X120656000Y-114133000D02*
X120656000Y-112933000D01*
G75*
G02*
X120806000Y-112783000I150000J0D01*
G01*
X122506000Y-112783000D01*
G75*
G02*
X122656000Y-112933000I0J-150000D01*
G01*
X122656000Y-114133000D01*
G75*
G02*
X122506000Y-114283000I-150000J0D01*
G01*
X120806000Y-114283000D01*
G75*
G02*
X120656000Y-114133000I0J150000D01*
G01*
G37*
G36*
G01*
X120656000Y-112133000D02*
X120656000Y-110933000D01*
G75*
G02*
X120806000Y-110783000I150000J0D01*
G01*
X122506000Y-110783000D01*
G75*
G02*
X122656000Y-110933000I0J-150000D01*
G01*
X122656000Y-112133000D01*
G75*
G02*
X122506000Y-112283000I-150000J0D01*
G01*
X120806000Y-112283000D01*
G75*
G02*
X120656000Y-112133000I0J150000D01*
G01*
G37*
G36*
G01*
X120656000Y-110133000D02*
X120656000Y-108933000D01*
G75*
G02*
X120806000Y-108783000I150000J0D01*
G01*
X122506000Y-108783000D01*
G75*
G02*
X122656000Y-108933000I0J-150000D01*
G01*
X122656000Y-110133000D01*
G75*
G02*
X122506000Y-110283000I-150000J0D01*
G01*
X120806000Y-110283000D01*
G75*
G02*
X120656000Y-110133000I0J150000D01*
G01*
G37*
G36*
G01*
X120656000Y-108133000D02*
X120656000Y-106933000D01*
G75*
G02*
X120806000Y-106783000I150000J0D01*
G01*
X122506000Y-106783000D01*
G75*
G02*
X122656000Y-106933000I0J-150000D01*
G01*
X122656000Y-108133000D01*
G75*
G02*
X122506000Y-108283000I-150000J0D01*
G01*
X120806000Y-108283000D01*
G75*
G02*
X120656000Y-108133000I0J150000D01*
G01*
G37*
G36*
G01*
X120656000Y-106133000D02*
X120656000Y-104933000D01*
G75*
G02*
X120806000Y-104783000I150000J0D01*
G01*
X122506000Y-104783000D01*
G75*
G02*
X122656000Y-104933000I0J-150000D01*
G01*
X122656000Y-106133000D01*
G75*
G02*
X122506000Y-106283000I-150000J0D01*
G01*
X120806000Y-106283000D01*
G75*
G02*
X120656000Y-106133000I0J150000D01*
G01*
G37*
G36*
G01*
X120656000Y-104133000D02*
X120656000Y-102933000D01*
G75*
G02*
X120806000Y-102783000I150000J0D01*
G01*
X122506000Y-102783000D01*
G75*
G02*
X122656000Y-102933000I0J-150000D01*
G01*
X122656000Y-104133000D01*
G75*
G02*
X122506000Y-104283000I-150000J0D01*
G01*
X120806000Y-104283000D01*
G75*
G02*
X120656000Y-104133000I0J150000D01*
G01*
G37*
G36*
G01*
X113409000Y-109012000D02*
X113409000Y-108362000D01*
G75*
G02*
X113559000Y-108212000I150000J0D01*
G01*
X114619000Y-108212000D01*
G75*
G02*
X114769000Y-108362000I0J-150000D01*
G01*
X114769000Y-109012000D01*
G75*
G02*
X114619000Y-109162000I-150000J0D01*
G01*
X113559000Y-109162000D01*
G75*
G02*
X113409000Y-109012000I0J150000D01*
G01*
G37*
G36*
G01*
X113409000Y-109962000D02*
X113409000Y-109312000D01*
G75*
G02*
X113559000Y-109162000I150000J0D01*
G01*
X114619000Y-109162000D01*
G75*
G02*
X114769000Y-109312000I0J-150000D01*
G01*
X114769000Y-109962000D01*
G75*
G02*
X114619000Y-110112000I-150000J0D01*
G01*
X113559000Y-110112000D01*
G75*
G02*
X113409000Y-109962000I0J150000D01*
G01*
G37*
G36*
G01*
X113409000Y-110912000D02*
X113409000Y-110262000D01*
G75*
G02*
X113559000Y-110112000I150000J0D01*
G01*
X114619000Y-110112000D01*
G75*
G02*
X114769000Y-110262000I0J-150000D01*
G01*
X114769000Y-110912000D01*
G75*
G02*
X114619000Y-111062000I-150000J0D01*
G01*
X113559000Y-111062000D01*
G75*
G02*
X113409000Y-110912000I0J150000D01*
G01*
G37*
G36*
G01*
X115609000Y-110912000D02*
X115609000Y-110262000D01*
G75*
G02*
X115759000Y-110112000I150000J0D01*
G01*
X116819000Y-110112000D01*
G75*
G02*
X116969000Y-110262000I0J-150000D01*
G01*
X116969000Y-110912000D01*
G75*
G02*
X116819000Y-111062000I-150000J0D01*
G01*
X115759000Y-111062000D01*
G75*
G02*
X115609000Y-110912000I0J150000D01*
G01*
G37*
G36*
G01*
X115609000Y-109012000D02*
X115609000Y-108362000D01*
G75*
G02*
X115759000Y-108212000I150000J0D01*
G01*
X116819000Y-108212000D01*
G75*
G02*
X116969000Y-108362000I0J-150000D01*
G01*
X116969000Y-109012000D01*
G75*
G02*
X116819000Y-109162000I-150000J0D01*
G01*
X115759000Y-109162000D01*
G75*
G02*
X115609000Y-109012000I0J150000D01*
G01*
G37*
G36*
G01*
X115609000Y-109962000D02*
X115609000Y-109312000D01*
G75*
G02*
X115759000Y-109162000I150000J0D01*
G01*
X116819000Y-109162000D01*
G75*
G02*
X116969000Y-109312000I0J-150000D01*
G01*
X116969000Y-109962000D01*
G75*
G02*
X116819000Y-110112000I-150000J0D01*
G01*
X115759000Y-110112000D01*
G75*
G02*
X115609000Y-109962000I0J150000D01*
G01*
G37*
D11*
X131796000Y-105951000D03*
X131796000Y-110831000D03*
X127223204Y-85774200D03*
X122997000Y-88214200D03*
M02*
