G04 #@! TF.GenerationSoftware,KiCad,Pcbnew,5.1.7-a382d34a8~88~ubuntu18.04.1*
G04 #@! TF.CreationDate,2021-11-20T11:26:47+05:30*
G04 #@! TF.ProjectId,FrontEnd_switch_Normal_v1,46726f6e-7445-46e6-945f-737769746368,rev?*
G04 #@! TF.SameCoordinates,Original*
G04 #@! TF.FileFunction,Soldermask,Bot*
G04 #@! TF.FilePolarity,Negative*
%FSLAX46Y46*%
G04 Gerber Fmt 4.6, Leading zero omitted, Abs format (unit mm)*
G04 Created by KiCad (PCBNEW 5.1.7-a382d34a8~88~ubuntu18.04.1) date 2021-11-20 11:26:47*
%MOMM*%
%LPD*%
G01*
G04 APERTURE LIST*
%ADD10C,10.300000*%
%ADD11O,2.000000X2.000000*%
%ADD12C,1.800000*%
G04 APERTURE END LIST*
G36*
G01*
X115070000Y-85924484D02*
X115070000Y-84854916D01*
G75*
G02*
X115385216Y-84539700I315216J0D01*
G01*
X116204784Y-84539700D01*
G75*
G02*
X116520000Y-84854916I0J-315216D01*
G01*
X116520000Y-85924484D01*
G75*
G02*
X116204784Y-86239700I-315216J0D01*
G01*
X115385216Y-86239700D01*
G75*
G02*
X115070000Y-85924484I0J315216D01*
G01*
G37*
G36*
G01*
X113020000Y-85924484D02*
X113020000Y-84854916D01*
G75*
G02*
X113335216Y-84539700I315216J0D01*
G01*
X114154784Y-84539700D01*
G75*
G02*
X114470000Y-84854916I0J-315216D01*
G01*
X114470000Y-85924484D01*
G75*
G02*
X114154784Y-86239700I-315216J0D01*
G01*
X113335216Y-86239700D01*
G75*
G02*
X113020000Y-85924484I0J315216D01*
G01*
G37*
G36*
G01*
X115255000Y-104288784D02*
X115255000Y-103219216D01*
G75*
G02*
X115570216Y-102904000I315216J0D01*
G01*
X116389784Y-102904000D01*
G75*
G02*
X116705000Y-103219216I0J-315216D01*
G01*
X116705000Y-104288784D01*
G75*
G02*
X116389784Y-104604000I-315216J0D01*
G01*
X115570216Y-104604000D01*
G75*
G02*
X115255000Y-104288784I0J315216D01*
G01*
G37*
G36*
G01*
X113205000Y-104288784D02*
X113205000Y-103219216D01*
G75*
G02*
X113520216Y-102904000I315216J0D01*
G01*
X114339784Y-102904000D01*
G75*
G02*
X114655000Y-103219216I0J-315216D01*
G01*
X114655000Y-104288784D01*
G75*
G02*
X114339784Y-104604000I-315216J0D01*
G01*
X113520216Y-104604000D01*
G75*
G02*
X113205000Y-104288784I0J315216D01*
G01*
G37*
D10*
X114717000Y-91686400D03*
D11*
X98221900Y-106001000D03*
X98221900Y-103461000D03*
X98221900Y-100921000D03*
X98221900Y-98381000D03*
X98221900Y-95841000D03*
X98221900Y-93301000D03*
G36*
G01*
X97221900Y-91611000D02*
X97221900Y-89911000D01*
G75*
G02*
X97371900Y-89761000I150000J0D01*
G01*
X99071900Y-89761000D01*
G75*
G02*
X99221900Y-89911000I0J-150000D01*
G01*
X99221900Y-91611000D01*
G75*
G02*
X99071900Y-91761000I-150000J0D01*
G01*
X97371900Y-91761000D01*
G75*
G02*
X97221900Y-91611000I0J150000D01*
G01*
G37*
G36*
G01*
X97558000Y-109445000D02*
X98298000Y-109445000D01*
G75*
G02*
X98448000Y-109595000I0J-150000D01*
G01*
X98448000Y-110845000D01*
G75*
G02*
X98298000Y-110995000I-150000J0D01*
G01*
X97558000Y-110995000D01*
G75*
G02*
X97408000Y-110845000I0J150000D01*
G01*
X97408000Y-109595000D01*
G75*
G02*
X97558000Y-109445000I150000J0D01*
G01*
G37*
G36*
G01*
X97558000Y-112195000D02*
X99358000Y-112195000D01*
G75*
G02*
X99508000Y-112345000I0J-150000D01*
G01*
X99508000Y-113595000D01*
G75*
G02*
X99358000Y-113745000I-150000J0D01*
G01*
X97558000Y-113745000D01*
G75*
G02*
X97408000Y-113595000I0J150000D01*
G01*
X97408000Y-112345000D01*
G75*
G02*
X97558000Y-112195000I150000J0D01*
G01*
G37*
G36*
G01*
X98618000Y-109445000D02*
X99358000Y-109445000D01*
G75*
G02*
X99508000Y-109595000I0J-150000D01*
G01*
X99508000Y-110845000D01*
G75*
G02*
X99358000Y-110995000I-150000J0D01*
G01*
X98618000Y-110995000D01*
G75*
G02*
X98468000Y-110845000I0J150000D01*
G01*
X98468000Y-109595000D01*
G75*
G02*
X98618000Y-109445000I150000J0D01*
G01*
G37*
X110523000Y-81833700D03*
X113063000Y-81833700D03*
X115603000Y-81833700D03*
X118143000Y-81833700D03*
X120683000Y-81833700D03*
G36*
G01*
X122373000Y-80833700D02*
X124073000Y-80833700D01*
G75*
G02*
X124223000Y-80983700I0J-150000D01*
G01*
X124223000Y-82683700D01*
G75*
G02*
X124073000Y-82833700I-150000J0D01*
G01*
X122373000Y-82833700D01*
G75*
G02*
X122223000Y-82683700I0J150000D01*
G01*
X122223000Y-80983700D01*
G75*
G02*
X122373000Y-80833700I150000J0D01*
G01*
G37*
G36*
G01*
X131059000Y-98868700D02*
X132059000Y-98868700D01*
G75*
G02*
X132209000Y-99018700I0J-150000D01*
G01*
X132209000Y-99248700D01*
G75*
G02*
X132059000Y-99398700I-150000J0D01*
G01*
X131059000Y-99398700D01*
G75*
G02*
X130909000Y-99248700I0J150000D01*
G01*
X130909000Y-99018700D01*
G75*
G02*
X131059000Y-98868700I150000J0D01*
G01*
G37*
G36*
G01*
X130174000Y-92133700D02*
X130404000Y-92133700D01*
G75*
G02*
X130554000Y-92283700I0J-150000D01*
G01*
X130554000Y-93283700D01*
G75*
G02*
X130404000Y-93433700I-150000J0D01*
G01*
X130174000Y-93433700D01*
G75*
G02*
X130024000Y-93283700I0J150000D01*
G01*
X130024000Y-92283700D01*
G75*
G02*
X130174000Y-92133700I150000J0D01*
G01*
G37*
G36*
G01*
X129666000Y-92133700D02*
X129896000Y-92133700D01*
G75*
G02*
X130046000Y-92283700I0J-150000D01*
G01*
X130046000Y-93283700D01*
G75*
G02*
X129896000Y-93433700I-150000J0D01*
G01*
X129666000Y-93433700D01*
G75*
G02*
X129516000Y-93283700I0J150000D01*
G01*
X129516000Y-92283700D01*
G75*
G02*
X129666000Y-92133700I150000J0D01*
G01*
G37*
G36*
G01*
X129158000Y-92133700D02*
X129388000Y-92133700D01*
G75*
G02*
X129538000Y-92283700I0J-150000D01*
G01*
X129538000Y-93283700D01*
G75*
G02*
X129388000Y-93433700I-150000J0D01*
G01*
X129158000Y-93433700D01*
G75*
G02*
X129008000Y-93283700I0J150000D01*
G01*
X129008000Y-92283700D01*
G75*
G02*
X129158000Y-92133700I150000J0D01*
G01*
G37*
G36*
G01*
X128650000Y-92133700D02*
X128880000Y-92133700D01*
G75*
G02*
X129030000Y-92283700I0J-150000D01*
G01*
X129030000Y-93283700D01*
G75*
G02*
X128880000Y-93433700I-150000J0D01*
G01*
X128650000Y-93433700D01*
G75*
G02*
X128500000Y-93283700I0J150000D01*
G01*
X128500000Y-92283700D01*
G75*
G02*
X128650000Y-92133700I150000J0D01*
G01*
G37*
G36*
G01*
X128142000Y-92133700D02*
X128372000Y-92133700D01*
G75*
G02*
X128522000Y-92283700I0J-150000D01*
G01*
X128522000Y-93283700D01*
G75*
G02*
X128372000Y-93433700I-150000J0D01*
G01*
X128142000Y-93433700D01*
G75*
G02*
X127992000Y-93283700I0J150000D01*
G01*
X127992000Y-92283700D01*
G75*
G02*
X128142000Y-92133700I150000J0D01*
G01*
G37*
G36*
G01*
X127634000Y-92133700D02*
X127864000Y-92133700D01*
G75*
G02*
X128014000Y-92283700I0J-150000D01*
G01*
X128014000Y-93283700D01*
G75*
G02*
X127864000Y-93433700I-150000J0D01*
G01*
X127634000Y-93433700D01*
G75*
G02*
X127484000Y-93283700I0J150000D01*
G01*
X127484000Y-92283700D01*
G75*
G02*
X127634000Y-92133700I150000J0D01*
G01*
G37*
G36*
G01*
X127126000Y-92133700D02*
X127356000Y-92133700D01*
G75*
G02*
X127506000Y-92283700I0J-150000D01*
G01*
X127506000Y-93283700D01*
G75*
G02*
X127356000Y-93433700I-150000J0D01*
G01*
X127126000Y-93433700D01*
G75*
G02*
X126976000Y-93283700I0J150000D01*
G01*
X126976000Y-92283700D01*
G75*
G02*
X127126000Y-92133700I150000J0D01*
G01*
G37*
G36*
G01*
X126618000Y-92133700D02*
X126848000Y-92133700D01*
G75*
G02*
X126998000Y-92283700I0J-150000D01*
G01*
X126998000Y-93283700D01*
G75*
G02*
X126848000Y-93433700I-150000J0D01*
G01*
X126618000Y-93433700D01*
G75*
G02*
X126468000Y-93283700I0J150000D01*
G01*
X126468000Y-92283700D01*
G75*
G02*
X126618000Y-92133700I150000J0D01*
G01*
G37*
G36*
G01*
X126110000Y-92133700D02*
X126340000Y-92133700D01*
G75*
G02*
X126490000Y-92283700I0J-150000D01*
G01*
X126490000Y-93283700D01*
G75*
G02*
X126340000Y-93433700I-150000J0D01*
G01*
X126110000Y-93433700D01*
G75*
G02*
X125960000Y-93283700I0J150000D01*
G01*
X125960000Y-92283700D01*
G75*
G02*
X126110000Y-92133700I150000J0D01*
G01*
G37*
G36*
G01*
X125602000Y-92133700D02*
X125832000Y-92133700D01*
G75*
G02*
X125982000Y-92283700I0J-150000D01*
G01*
X125982000Y-93283700D01*
G75*
G02*
X125832000Y-93433700I-150000J0D01*
G01*
X125602000Y-93433700D01*
G75*
G02*
X125452000Y-93283700I0J150000D01*
G01*
X125452000Y-92283700D01*
G75*
G02*
X125602000Y-92133700I150000J0D01*
G01*
G37*
G36*
G01*
X125094000Y-92133700D02*
X125324000Y-92133700D01*
G75*
G02*
X125474000Y-92283700I0J-150000D01*
G01*
X125474000Y-93283700D01*
G75*
G02*
X125324000Y-93433700I-150000J0D01*
G01*
X125094000Y-93433700D01*
G75*
G02*
X124944000Y-93283700I0J150000D01*
G01*
X124944000Y-92283700D01*
G75*
G02*
X125094000Y-92133700I150000J0D01*
G01*
G37*
G36*
G01*
X124586000Y-92133700D02*
X124816000Y-92133700D01*
G75*
G02*
X124966000Y-92283700I0J-150000D01*
G01*
X124966000Y-93283700D01*
G75*
G02*
X124816000Y-93433700I-150000J0D01*
G01*
X124586000Y-93433700D01*
G75*
G02*
X124436000Y-93283700I0J150000D01*
G01*
X124436000Y-92283700D01*
G75*
G02*
X124586000Y-92133700I150000J0D01*
G01*
G37*
G36*
G01*
X122931000Y-93788700D02*
X123931000Y-93788700D01*
G75*
G02*
X124081000Y-93938700I0J-150000D01*
G01*
X124081000Y-94168700D01*
G75*
G02*
X123931000Y-94318700I-150000J0D01*
G01*
X122931000Y-94318700D01*
G75*
G02*
X122781000Y-94168700I0J150000D01*
G01*
X122781000Y-93938700D01*
G75*
G02*
X122931000Y-93788700I150000J0D01*
G01*
G37*
G36*
G01*
X122931000Y-94296700D02*
X123931000Y-94296700D01*
G75*
G02*
X124081000Y-94446700I0J-150000D01*
G01*
X124081000Y-94676700D01*
G75*
G02*
X123931000Y-94826700I-150000J0D01*
G01*
X122931000Y-94826700D01*
G75*
G02*
X122781000Y-94676700I0J150000D01*
G01*
X122781000Y-94446700D01*
G75*
G02*
X122931000Y-94296700I150000J0D01*
G01*
G37*
G36*
G01*
X122931000Y-95312700D02*
X123931000Y-95312700D01*
G75*
G02*
X124081000Y-95462700I0J-150000D01*
G01*
X124081000Y-95692700D01*
G75*
G02*
X123931000Y-95842700I-150000J0D01*
G01*
X122931000Y-95842700D01*
G75*
G02*
X122781000Y-95692700I0J150000D01*
G01*
X122781000Y-95462700D01*
G75*
G02*
X122931000Y-95312700I150000J0D01*
G01*
G37*
G36*
G01*
X122931000Y-95820700D02*
X123931000Y-95820700D01*
G75*
G02*
X124081000Y-95970700I0J-150000D01*
G01*
X124081000Y-96200700D01*
G75*
G02*
X123931000Y-96350700I-150000J0D01*
G01*
X122931000Y-96350700D01*
G75*
G02*
X122781000Y-96200700I0J150000D01*
G01*
X122781000Y-95970700D01*
G75*
G02*
X122931000Y-95820700I150000J0D01*
G01*
G37*
G36*
G01*
X122931000Y-96328700D02*
X123931000Y-96328700D01*
G75*
G02*
X124081000Y-96478700I0J-150000D01*
G01*
X124081000Y-96708700D01*
G75*
G02*
X123931000Y-96858700I-150000J0D01*
G01*
X122931000Y-96858700D01*
G75*
G02*
X122781000Y-96708700I0J150000D01*
G01*
X122781000Y-96478700D01*
G75*
G02*
X122931000Y-96328700I150000J0D01*
G01*
G37*
G36*
G01*
X122931000Y-96836700D02*
X123931000Y-96836700D01*
G75*
G02*
X124081000Y-96986700I0J-150000D01*
G01*
X124081000Y-97216700D01*
G75*
G02*
X123931000Y-97366700I-150000J0D01*
G01*
X122931000Y-97366700D01*
G75*
G02*
X122781000Y-97216700I0J150000D01*
G01*
X122781000Y-96986700D01*
G75*
G02*
X122931000Y-96836700I150000J0D01*
G01*
G37*
G36*
G01*
X122931000Y-97344700D02*
X123931000Y-97344700D01*
G75*
G02*
X124081000Y-97494700I0J-150000D01*
G01*
X124081000Y-97724700D01*
G75*
G02*
X123931000Y-97874700I-150000J0D01*
G01*
X122931000Y-97874700D01*
G75*
G02*
X122781000Y-97724700I0J150000D01*
G01*
X122781000Y-97494700D01*
G75*
G02*
X122931000Y-97344700I150000J0D01*
G01*
G37*
G36*
G01*
X122931000Y-97852700D02*
X123931000Y-97852700D01*
G75*
G02*
X124081000Y-98002700I0J-150000D01*
G01*
X124081000Y-98232700D01*
G75*
G02*
X123931000Y-98382700I-150000J0D01*
G01*
X122931000Y-98382700D01*
G75*
G02*
X122781000Y-98232700I0J150000D01*
G01*
X122781000Y-98002700D01*
G75*
G02*
X122931000Y-97852700I150000J0D01*
G01*
G37*
G36*
G01*
X122931000Y-98360700D02*
X123931000Y-98360700D01*
G75*
G02*
X124081000Y-98510700I0J-150000D01*
G01*
X124081000Y-98740700D01*
G75*
G02*
X123931000Y-98890700I-150000J0D01*
G01*
X122931000Y-98890700D01*
G75*
G02*
X122781000Y-98740700I0J150000D01*
G01*
X122781000Y-98510700D01*
G75*
G02*
X122931000Y-98360700I150000J0D01*
G01*
G37*
G36*
G01*
X122931000Y-98868700D02*
X123931000Y-98868700D01*
G75*
G02*
X124081000Y-99018700I0J-150000D01*
G01*
X124081000Y-99248700D01*
G75*
G02*
X123931000Y-99398700I-150000J0D01*
G01*
X122931000Y-99398700D01*
G75*
G02*
X122781000Y-99248700I0J150000D01*
G01*
X122781000Y-99018700D01*
G75*
G02*
X122931000Y-98868700I150000J0D01*
G01*
G37*
G36*
G01*
X122931000Y-99376700D02*
X123931000Y-99376700D01*
G75*
G02*
X124081000Y-99526700I0J-150000D01*
G01*
X124081000Y-99756700D01*
G75*
G02*
X123931000Y-99906700I-150000J0D01*
G01*
X122931000Y-99906700D01*
G75*
G02*
X122781000Y-99756700I0J150000D01*
G01*
X122781000Y-99526700D01*
G75*
G02*
X122931000Y-99376700I150000J0D01*
G01*
G37*
G36*
G01*
X125094000Y-100261700D02*
X125324000Y-100261700D01*
G75*
G02*
X125474000Y-100411700I0J-150000D01*
G01*
X125474000Y-101411700D01*
G75*
G02*
X125324000Y-101561700I-150000J0D01*
G01*
X125094000Y-101561700D01*
G75*
G02*
X124944000Y-101411700I0J150000D01*
G01*
X124944000Y-100411700D01*
G75*
G02*
X125094000Y-100261700I150000J0D01*
G01*
G37*
G36*
G01*
X125602000Y-100261700D02*
X125832000Y-100261700D01*
G75*
G02*
X125982000Y-100411700I0J-150000D01*
G01*
X125982000Y-101411700D01*
G75*
G02*
X125832000Y-101561700I-150000J0D01*
G01*
X125602000Y-101561700D01*
G75*
G02*
X125452000Y-101411700I0J150000D01*
G01*
X125452000Y-100411700D01*
G75*
G02*
X125602000Y-100261700I150000J0D01*
G01*
G37*
G36*
G01*
X126110000Y-100261700D02*
X126340000Y-100261700D01*
G75*
G02*
X126490000Y-100411700I0J-150000D01*
G01*
X126490000Y-101411700D01*
G75*
G02*
X126340000Y-101561700I-150000J0D01*
G01*
X126110000Y-101561700D01*
G75*
G02*
X125960000Y-101411700I0J150000D01*
G01*
X125960000Y-100411700D01*
G75*
G02*
X126110000Y-100261700I150000J0D01*
G01*
G37*
G36*
G01*
X126618000Y-100261700D02*
X126848000Y-100261700D01*
G75*
G02*
X126998000Y-100411700I0J-150000D01*
G01*
X126998000Y-101411700D01*
G75*
G02*
X126848000Y-101561700I-150000J0D01*
G01*
X126618000Y-101561700D01*
G75*
G02*
X126468000Y-101411700I0J150000D01*
G01*
X126468000Y-100411700D01*
G75*
G02*
X126618000Y-100261700I150000J0D01*
G01*
G37*
G36*
G01*
X127126000Y-100261700D02*
X127356000Y-100261700D01*
G75*
G02*
X127506000Y-100411700I0J-150000D01*
G01*
X127506000Y-101411700D01*
G75*
G02*
X127356000Y-101561700I-150000J0D01*
G01*
X127126000Y-101561700D01*
G75*
G02*
X126976000Y-101411700I0J150000D01*
G01*
X126976000Y-100411700D01*
G75*
G02*
X127126000Y-100261700I150000J0D01*
G01*
G37*
G36*
G01*
X127634000Y-100261700D02*
X127864000Y-100261700D01*
G75*
G02*
X128014000Y-100411700I0J-150000D01*
G01*
X128014000Y-101411700D01*
G75*
G02*
X127864000Y-101561700I-150000J0D01*
G01*
X127634000Y-101561700D01*
G75*
G02*
X127484000Y-101411700I0J150000D01*
G01*
X127484000Y-100411700D01*
G75*
G02*
X127634000Y-100261700I150000J0D01*
G01*
G37*
G36*
G01*
X128142000Y-100261700D02*
X128372000Y-100261700D01*
G75*
G02*
X128522000Y-100411700I0J-150000D01*
G01*
X128522000Y-101411700D01*
G75*
G02*
X128372000Y-101561700I-150000J0D01*
G01*
X128142000Y-101561700D01*
G75*
G02*
X127992000Y-101411700I0J150000D01*
G01*
X127992000Y-100411700D01*
G75*
G02*
X128142000Y-100261700I150000J0D01*
G01*
G37*
G36*
G01*
X128650000Y-100261700D02*
X128880000Y-100261700D01*
G75*
G02*
X129030000Y-100411700I0J-150000D01*
G01*
X129030000Y-101411700D01*
G75*
G02*
X128880000Y-101561700I-150000J0D01*
G01*
X128650000Y-101561700D01*
G75*
G02*
X128500000Y-101411700I0J150000D01*
G01*
X128500000Y-100411700D01*
G75*
G02*
X128650000Y-100261700I150000J0D01*
G01*
G37*
G36*
G01*
X129158000Y-100261700D02*
X129388000Y-100261700D01*
G75*
G02*
X129538000Y-100411700I0J-150000D01*
G01*
X129538000Y-101411700D01*
G75*
G02*
X129388000Y-101561700I-150000J0D01*
G01*
X129158000Y-101561700D01*
G75*
G02*
X129008000Y-101411700I0J150000D01*
G01*
X129008000Y-100411700D01*
G75*
G02*
X129158000Y-100261700I150000J0D01*
G01*
G37*
G36*
G01*
X129666000Y-100261700D02*
X129896000Y-100261700D01*
G75*
G02*
X130046000Y-100411700I0J-150000D01*
G01*
X130046000Y-101411700D01*
G75*
G02*
X129896000Y-101561700I-150000J0D01*
G01*
X129666000Y-101561700D01*
G75*
G02*
X129516000Y-101411700I0J150000D01*
G01*
X129516000Y-100411700D01*
G75*
G02*
X129666000Y-100261700I150000J0D01*
G01*
G37*
G36*
G01*
X130174000Y-100261700D02*
X130404000Y-100261700D01*
G75*
G02*
X130554000Y-100411700I0J-150000D01*
G01*
X130554000Y-101411700D01*
G75*
G02*
X130404000Y-101561700I-150000J0D01*
G01*
X130174000Y-101561700D01*
G75*
G02*
X130024000Y-101411700I0J150000D01*
G01*
X130024000Y-100411700D01*
G75*
G02*
X130174000Y-100261700I150000J0D01*
G01*
G37*
G36*
G01*
X131059000Y-99376700D02*
X132059000Y-99376700D01*
G75*
G02*
X132209000Y-99526700I0J-150000D01*
G01*
X132209000Y-99756700D01*
G75*
G02*
X132059000Y-99906700I-150000J0D01*
G01*
X131059000Y-99906700D01*
G75*
G02*
X130909000Y-99756700I0J150000D01*
G01*
X130909000Y-99526700D01*
G75*
G02*
X131059000Y-99376700I150000J0D01*
G01*
G37*
G36*
G01*
X131059000Y-98360700D02*
X132059000Y-98360700D01*
G75*
G02*
X132209000Y-98510700I0J-150000D01*
G01*
X132209000Y-98740700D01*
G75*
G02*
X132059000Y-98890700I-150000J0D01*
G01*
X131059000Y-98890700D01*
G75*
G02*
X130909000Y-98740700I0J150000D01*
G01*
X130909000Y-98510700D01*
G75*
G02*
X131059000Y-98360700I150000J0D01*
G01*
G37*
G36*
G01*
X131059000Y-97852700D02*
X132059000Y-97852700D01*
G75*
G02*
X132209000Y-98002700I0J-150000D01*
G01*
X132209000Y-98232700D01*
G75*
G02*
X132059000Y-98382700I-150000J0D01*
G01*
X131059000Y-98382700D01*
G75*
G02*
X130909000Y-98232700I0J150000D01*
G01*
X130909000Y-98002700D01*
G75*
G02*
X131059000Y-97852700I150000J0D01*
G01*
G37*
G36*
G01*
X131059000Y-97344700D02*
X132059000Y-97344700D01*
G75*
G02*
X132209000Y-97494700I0J-150000D01*
G01*
X132209000Y-97724700D01*
G75*
G02*
X132059000Y-97874700I-150000J0D01*
G01*
X131059000Y-97874700D01*
G75*
G02*
X130909000Y-97724700I0J150000D01*
G01*
X130909000Y-97494700D01*
G75*
G02*
X131059000Y-97344700I150000J0D01*
G01*
G37*
G36*
G01*
X131059000Y-96836700D02*
X132059000Y-96836700D01*
G75*
G02*
X132209000Y-96986700I0J-150000D01*
G01*
X132209000Y-97216700D01*
G75*
G02*
X132059000Y-97366700I-150000J0D01*
G01*
X131059000Y-97366700D01*
G75*
G02*
X130909000Y-97216700I0J150000D01*
G01*
X130909000Y-96986700D01*
G75*
G02*
X131059000Y-96836700I150000J0D01*
G01*
G37*
G36*
G01*
X131059000Y-96328700D02*
X132059000Y-96328700D01*
G75*
G02*
X132209000Y-96478700I0J-150000D01*
G01*
X132209000Y-96708700D01*
G75*
G02*
X132059000Y-96858700I-150000J0D01*
G01*
X131059000Y-96858700D01*
G75*
G02*
X130909000Y-96708700I0J150000D01*
G01*
X130909000Y-96478700D01*
G75*
G02*
X131059000Y-96328700I150000J0D01*
G01*
G37*
G36*
G01*
X131059000Y-95820700D02*
X132059000Y-95820700D01*
G75*
G02*
X132209000Y-95970700I0J-150000D01*
G01*
X132209000Y-96200700D01*
G75*
G02*
X132059000Y-96350700I-150000J0D01*
G01*
X131059000Y-96350700D01*
G75*
G02*
X130909000Y-96200700I0J150000D01*
G01*
X130909000Y-95970700D01*
G75*
G02*
X131059000Y-95820700I150000J0D01*
G01*
G37*
G36*
G01*
X131059000Y-95312700D02*
X132059000Y-95312700D01*
G75*
G02*
X132209000Y-95462700I0J-150000D01*
G01*
X132209000Y-95692700D01*
G75*
G02*
X132059000Y-95842700I-150000J0D01*
G01*
X131059000Y-95842700D01*
G75*
G02*
X130909000Y-95692700I0J150000D01*
G01*
X130909000Y-95462700D01*
G75*
G02*
X131059000Y-95312700I150000J0D01*
G01*
G37*
G36*
G01*
X131059000Y-94804700D02*
X132059000Y-94804700D01*
G75*
G02*
X132209000Y-94954700I0J-150000D01*
G01*
X132209000Y-95184700D01*
G75*
G02*
X132059000Y-95334700I-150000J0D01*
G01*
X131059000Y-95334700D01*
G75*
G02*
X130909000Y-95184700I0J150000D01*
G01*
X130909000Y-94954700D01*
G75*
G02*
X131059000Y-94804700I150000J0D01*
G01*
G37*
G36*
G01*
X131059000Y-94296700D02*
X132059000Y-94296700D01*
G75*
G02*
X132209000Y-94446700I0J-150000D01*
G01*
X132209000Y-94676700D01*
G75*
G02*
X132059000Y-94826700I-150000J0D01*
G01*
X131059000Y-94826700D01*
G75*
G02*
X130909000Y-94676700I0J150000D01*
G01*
X130909000Y-94446700D01*
G75*
G02*
X131059000Y-94296700I150000J0D01*
G01*
G37*
G36*
G01*
X131059000Y-93788700D02*
X132059000Y-93788700D01*
G75*
G02*
X132209000Y-93938700I0J-150000D01*
G01*
X132209000Y-94168700D01*
G75*
G02*
X132059000Y-94318700I-150000J0D01*
G01*
X131059000Y-94318700D01*
G75*
G02*
X130909000Y-94168700I0J150000D01*
G01*
X130909000Y-93938700D01*
G75*
G02*
X131059000Y-93788700I150000J0D01*
G01*
G37*
G36*
G01*
X124586000Y-100261700D02*
X124816000Y-100261700D01*
G75*
G02*
X124966000Y-100411700I0J-150000D01*
G01*
X124966000Y-101411700D01*
G75*
G02*
X124816000Y-101561700I-150000J0D01*
G01*
X124586000Y-101561700D01*
G75*
G02*
X124436000Y-101411700I0J150000D01*
G01*
X124436000Y-100411700D01*
G75*
G02*
X124586000Y-100261700I150000J0D01*
G01*
G37*
G36*
G01*
X122931000Y-94804700D02*
X123931000Y-94804700D01*
G75*
G02*
X124081000Y-94954700I0J-150000D01*
G01*
X124081000Y-95184700D01*
G75*
G02*
X123931000Y-95334700I-150000J0D01*
G01*
X122931000Y-95334700D01*
G75*
G02*
X122781000Y-95184700I0J150000D01*
G01*
X122781000Y-94954700D01*
G75*
G02*
X122931000Y-94804700I150000J0D01*
G01*
G37*
G36*
G01*
X96375100Y-118466000D02*
X96375100Y-116942000D01*
G75*
G02*
X96525100Y-116792000I150000J0D01*
G01*
X98049100Y-116792000D01*
G75*
G02*
X98199100Y-116942000I0J-150000D01*
G01*
X98199100Y-118466000D01*
G75*
G02*
X98049100Y-118616000I-150000J0D01*
G01*
X96525100Y-118616000D01*
G75*
G02*
X96375100Y-118466000I0J150000D01*
G01*
G37*
D10*
X114930000Y-110023000D03*
D12*
X131796000Y-105951000D03*
X131796000Y-110831000D03*
X127223204Y-85774200D03*
X122997000Y-88214200D03*
M02*
