G04 #@! TF.GenerationSoftware,KiCad,Pcbnew,5.1.7-a382d34a8~88~ubuntu18.04.1*
G04 #@! TF.CreationDate,2021-11-20T11:26:47+05:30*
G04 #@! TF.ProjectId,FrontEnd_switch_Normal_v1,46726f6e-7445-46e6-945f-737769746368,rev?*
G04 #@! TF.SameCoordinates,Original*
G04 #@! TF.FileFunction,OtherDrawing,Comment*
%FSLAX46Y46*%
G04 Gerber Fmt 4.6, Leading zero omitted, Abs format (unit mm)*
G04 Created by KiCad (PCBNEW 5.1.7-a382d34a8~88~ubuntu18.04.1) date 2021-11-20 11:26:47*
%MOMM*%
%LPD*%
G01*
G04 APERTURE LIST*
%ADD10C,0.150000*%
%ADD11C,0.010000*%
G04 APERTURE END LIST*
D10*
X111401211Y-123869265D02*
X112020259Y-123869185D01*
X111686975Y-124250181D01*
X111829832Y-124250162D01*
X111925076Y-124297769D01*
X111972702Y-124345382D01*
X112020333Y-124440614D01*
X112020364Y-124678709D01*
X111972757Y-124773953D01*
X111925145Y-124821578D01*
X111829913Y-124869210D01*
X111544198Y-124869247D01*
X111448954Y-124821640D01*
X111401329Y-124774027D01*
X112496579Y-124869123D02*
X112687055Y-124869098D01*
X112782287Y-124821467D01*
X112829900Y-124773842D01*
X112925120Y-124630972D01*
X112972714Y-124440490D01*
X112972664Y-124059537D01*
X112925033Y-123964305D01*
X112877408Y-123916693D01*
X112782163Y-123869086D01*
X112591687Y-123869111D01*
X112496455Y-123916742D01*
X112448843Y-123964367D01*
X112401236Y-124059612D01*
X112401267Y-124297707D01*
X112448898Y-124392939D01*
X112496524Y-124440552D01*
X112591768Y-124488158D01*
X112782244Y-124488133D01*
X112877476Y-124440502D01*
X112925089Y-124392877D01*
X112972695Y-124297633D01*
X113401329Y-124773767D02*
X113448954Y-124821380D01*
X113401341Y-124869005D01*
X113353716Y-124821392D01*
X113401329Y-124773767D01*
X113401341Y-124869005D01*
X114067878Y-123868919D02*
X114163116Y-123868906D01*
X114258360Y-123916513D01*
X114305985Y-123964126D01*
X114353617Y-124059358D01*
X114401261Y-124249828D01*
X114401292Y-124487923D01*
X114353697Y-124678405D01*
X114306091Y-124773650D01*
X114258478Y-124821275D01*
X114163246Y-124868906D01*
X114068008Y-124868919D01*
X113972764Y-124821312D01*
X113925138Y-124773699D01*
X113877507Y-124678467D01*
X113829863Y-124487997D01*
X113829832Y-124249902D01*
X113877426Y-124059420D01*
X113925033Y-123964175D01*
X113972646Y-123916550D01*
X114067878Y-123868919D01*
X115305973Y-123868758D02*
X114829783Y-123868820D01*
X114782225Y-124345016D01*
X114829838Y-124297391D01*
X114925070Y-124249760D01*
X115163165Y-124249729D01*
X115258410Y-124297335D01*
X115306035Y-124344948D01*
X115353666Y-124440180D01*
X115353697Y-124678275D01*
X115306091Y-124773520D01*
X115258478Y-124821145D01*
X115163246Y-124868776D01*
X114925151Y-124868807D01*
X114829906Y-124821200D01*
X114782281Y-124773588D01*
X115925076Y-124297249D02*
X115829832Y-124249642D01*
X115782207Y-124202029D01*
X115734575Y-124106797D01*
X115734569Y-124059178D01*
X115782176Y-123963934D01*
X115829789Y-123916309D01*
X115925021Y-123868677D01*
X116115497Y-123868652D01*
X116210741Y-123916259D01*
X116258366Y-123963872D01*
X116305998Y-124059104D01*
X116306004Y-124106723D01*
X116258397Y-124201967D01*
X116210784Y-124249592D01*
X116115553Y-124297224D01*
X115925076Y-124297249D01*
X115829844Y-124344880D01*
X115782232Y-124392505D01*
X115734625Y-124487749D01*
X115734650Y-124678226D01*
X115782281Y-124773458D01*
X115829906Y-124821070D01*
X115925151Y-124868677D01*
X116115627Y-124868652D01*
X116210859Y-124821021D01*
X116258472Y-124773396D01*
X116306078Y-124678151D01*
X116306053Y-124487675D01*
X116258422Y-124392443D01*
X116210797Y-124344830D01*
X116115553Y-124297224D01*
X117496579Y-124868473D02*
X117496493Y-124201806D01*
X117496505Y-124297044D02*
X117544118Y-124249419D01*
X117639350Y-124201787D01*
X117782207Y-124201769D01*
X117877451Y-124249376D01*
X117925083Y-124344607D01*
X117925151Y-124868417D01*
X117925083Y-124344607D02*
X117972689Y-124249363D01*
X118067921Y-124201732D01*
X118210778Y-124201713D01*
X118306023Y-124249320D01*
X118353654Y-124344552D01*
X118353722Y-124868361D01*
X118829913Y-124868299D02*
X118829826Y-124201633D01*
X118829838Y-124296871D02*
X118877451Y-124249245D01*
X118972683Y-124201614D01*
X119115540Y-124201595D01*
X119210784Y-124249202D01*
X119258416Y-124344434D01*
X119258484Y-124868244D01*
X119258416Y-124344434D02*
X119306023Y-124249190D01*
X119401254Y-124201558D01*
X119544112Y-124201540D01*
X119639356Y-124249146D01*
X119686987Y-124344378D01*
X119687055Y-124868188D01*
X96062800Y-123118880D02*
X135120380Y-123113800D01*
X96062313Y-119377452D02*
X96062876Y-123705301D01*
X135119893Y-119372372D02*
X135120456Y-123700221D01*
X135120380Y-123113800D02*
X133993953Y-123700367D01*
X135120380Y-123113800D02*
X133993800Y-122527526D01*
X96062800Y-123118880D02*
X97189380Y-123705154D01*
X96062800Y-123118880D02*
X97189227Y-122532313D01*
X89535221Y-103549780D02*
X89535785Y-102930732D01*
X89916434Y-103264413D01*
X89916564Y-103121556D01*
X89964270Y-103026361D01*
X90011932Y-102978785D01*
X90107214Y-102931253D01*
X90345309Y-102931470D01*
X90440504Y-102979176D01*
X90488079Y-103026839D01*
X90535611Y-103122120D01*
X90535351Y-103407834D01*
X90487645Y-103503029D01*
X90439983Y-103550605D01*
X90536219Y-102455454D02*
X90536393Y-102264978D01*
X90488861Y-102169696D01*
X90441285Y-102122034D01*
X90298515Y-102026665D01*
X90108082Y-101978873D01*
X89727130Y-101978525D01*
X89631848Y-102026058D01*
X89584186Y-102073633D01*
X89536480Y-102168828D01*
X89536306Y-102359304D01*
X89583839Y-102454585D01*
X89631414Y-102502248D01*
X89726609Y-102549954D01*
X89964704Y-102550171D01*
X90059985Y-102502639D01*
X90107648Y-102455063D01*
X90155354Y-102359868D01*
X90155527Y-102169392D01*
X90107995Y-102074111D01*
X90060420Y-102026448D01*
X89965225Y-101978742D01*
X90441806Y-101550605D02*
X90489468Y-101503030D01*
X90537044Y-101550692D01*
X90489382Y-101598268D01*
X90441806Y-101550605D01*
X90537044Y-101550692D01*
X89537652Y-100883114D02*
X89537739Y-100787876D01*
X89585445Y-100692681D01*
X89633107Y-100645106D01*
X89728389Y-100597574D01*
X89918908Y-100550128D01*
X90157004Y-100550345D01*
X90347436Y-100598138D01*
X90442631Y-100645844D01*
X90490207Y-100693506D01*
X90537739Y-100788788D01*
X90537652Y-100884026D01*
X90489946Y-100979220D01*
X90442284Y-101026796D01*
X90347002Y-101074328D01*
X90156483Y-101121774D01*
X89918387Y-101121557D01*
X89727955Y-101073764D01*
X89632760Y-101026058D01*
X89585185Y-100978396D01*
X89537652Y-100883114D01*
X89538521Y-99930734D02*
X89538608Y-99835495D01*
X89586313Y-99740301D01*
X89633976Y-99692725D01*
X89729257Y-99645193D01*
X89919777Y-99597748D01*
X90157872Y-99597965D01*
X90348305Y-99645757D01*
X90443499Y-99693463D01*
X90491075Y-99741126D01*
X90538607Y-99836407D01*
X90538520Y-99931645D01*
X90490814Y-100026840D01*
X90443152Y-100074416D01*
X90347870Y-100121948D01*
X90157351Y-100169393D01*
X89919256Y-100169176D01*
X89728823Y-100121383D01*
X89633628Y-100073677D01*
X89586053Y-100026015D01*
X89538521Y-99930734D01*
X89634410Y-99216535D02*
X89586834Y-99168873D01*
X89539302Y-99073591D01*
X89539519Y-98835496D01*
X89587225Y-98740301D01*
X89634888Y-98692726D01*
X89730169Y-98645193D01*
X89825407Y-98645280D01*
X89968221Y-98693030D01*
X90539128Y-99264979D01*
X90539693Y-98645932D01*
X90540778Y-97455456D02*
X89874112Y-97454848D01*
X89969350Y-97454935D02*
X89921774Y-97407272D01*
X89874242Y-97311991D01*
X89874372Y-97169134D01*
X89922078Y-97073939D01*
X90017359Y-97026407D01*
X90541169Y-97026885D01*
X90017359Y-97026407D02*
X89922165Y-96978701D01*
X89874633Y-96883420D01*
X89874763Y-96740563D01*
X89922469Y-96645368D01*
X90017750Y-96597836D01*
X90541559Y-96598313D01*
X90541994Y-96122123D02*
X89875327Y-96121515D01*
X89970565Y-96121602D02*
X89922990Y-96073940D01*
X89875457Y-95978658D01*
X89875588Y-95835801D01*
X89923294Y-95740606D01*
X90018575Y-95693074D01*
X90542384Y-95693552D01*
X90018575Y-95693074D02*
X89923380Y-95645368D01*
X89875848Y-95550087D01*
X89875978Y-95407230D01*
X89923684Y-95312035D01*
X90018966Y-95264503D01*
X90542775Y-95264981D01*
X91368880Y-118861840D02*
X91404440Y-79860140D01*
X94833859Y-118864999D02*
X90782460Y-118861305D01*
X94869419Y-79863299D02*
X90818020Y-79859605D01*
X91404440Y-79860140D02*
X91989833Y-80987178D01*
X91404440Y-79860140D02*
X90816992Y-80986109D01*
X91368880Y-118861840D02*
X91956328Y-117735871D01*
X91368880Y-118861840D02*
X90783487Y-117734802D01*
D11*
G36*
X99353000Y-112340000D02*
G01*
X99353000Y-110850000D01*
X98613000Y-110850000D01*
X98613000Y-109600000D01*
X98303000Y-109600000D01*
X98303000Y-110850000D01*
X97563000Y-110850000D01*
X97563000Y-112340000D01*
X99353000Y-112340000D01*
G37*
X99353000Y-112340000D02*
X99353000Y-110850000D01*
X98613000Y-110850000D01*
X98613000Y-109600000D01*
X98303000Y-109600000D01*
X98303000Y-110850000D01*
X97563000Y-110850000D01*
X97563000Y-112340000D01*
X99353000Y-112340000D01*
G36*
X99353000Y-112340000D02*
G01*
X99353000Y-110850000D01*
X98613000Y-110850000D01*
X98613000Y-109600000D01*
X98303000Y-109600000D01*
X98303000Y-110850000D01*
X97563000Y-110850000D01*
X97563000Y-112340000D01*
X99353000Y-112340000D01*
G37*
X99353000Y-112340000D02*
X99353000Y-110850000D01*
X98613000Y-110850000D01*
X98613000Y-109600000D01*
X98303000Y-109600000D01*
X98303000Y-110850000D01*
X97563000Y-110850000D01*
X97563000Y-112340000D01*
X99353000Y-112340000D01*
D10*
X131134000Y-99093700D02*
X131134000Y-99173700D01*
X131984000Y-99173700D01*
X131984000Y-99093700D01*
X131134000Y-99093700D01*
X130249000Y-92358700D02*
X130249000Y-93208700D01*
X130329000Y-93208700D01*
X130329000Y-92358700D01*
X130249000Y-92358700D01*
X129741000Y-92358700D02*
X129741000Y-93208700D01*
X129821000Y-93208700D01*
X129821000Y-92358700D01*
X129741000Y-92358700D01*
X129233000Y-92358700D02*
X129233000Y-93208700D01*
X129313000Y-93208700D01*
X129313000Y-92358700D01*
X129233000Y-92358700D01*
X128725000Y-92358700D02*
X128725000Y-93208700D01*
X128805000Y-93208700D01*
X128805000Y-92358700D01*
X128725000Y-92358700D01*
X128217000Y-92358700D02*
X128217000Y-93208700D01*
X128297000Y-93208700D01*
X128297000Y-92358700D01*
X128217000Y-92358700D01*
X127709000Y-92358700D02*
X127709000Y-93208700D01*
X127789000Y-93208700D01*
X127789000Y-92358700D01*
X127709000Y-92358700D01*
X127201000Y-92358700D02*
X127201000Y-93208700D01*
X127281000Y-93208700D01*
X127281000Y-92358700D01*
X127201000Y-92358700D01*
X126693000Y-92358700D02*
X126693000Y-93208700D01*
X126773000Y-93208700D01*
X126773000Y-92358700D01*
X126693000Y-92358700D01*
X126185000Y-92358700D02*
X126185000Y-93208700D01*
X126265000Y-93208700D01*
X126265000Y-92358700D01*
X126185000Y-92358700D01*
X125677000Y-92358700D02*
X125677000Y-93208700D01*
X125757000Y-93208700D01*
X125757000Y-92358700D01*
X125677000Y-92358700D01*
X125169000Y-92358700D02*
X125169000Y-93208700D01*
X125249000Y-93208700D01*
X125249000Y-92358700D01*
X125169000Y-92358700D01*
X124661000Y-92358700D02*
X124661000Y-93208700D01*
X124741000Y-93208700D01*
X124741000Y-92358700D01*
X124661000Y-92358700D01*
X123006000Y-94013700D02*
X123006000Y-94093700D01*
X123856000Y-94093700D01*
X123856000Y-94013700D01*
X123006000Y-94013700D01*
X123006000Y-94521700D02*
X123006000Y-94601700D01*
X123856000Y-94601700D01*
X123856000Y-94521700D01*
X123006000Y-94521700D01*
X123006000Y-95537700D02*
X123006000Y-95617700D01*
X123856000Y-95617700D01*
X123856000Y-95537700D01*
X123006000Y-95537700D01*
X123006000Y-96045700D02*
X123006000Y-96125700D01*
X123856000Y-96125700D01*
X123856000Y-96045700D01*
X123006000Y-96045700D01*
X123006000Y-96553700D02*
X123006000Y-96633700D01*
X123856000Y-96633700D01*
X123856000Y-96553700D01*
X123006000Y-96553700D01*
X123006000Y-97061700D02*
X123006000Y-97141700D01*
X123856000Y-97141700D01*
X123856000Y-97061700D01*
X123006000Y-97061700D01*
X123006000Y-97569700D02*
X123006000Y-97649700D01*
X123856000Y-97649700D01*
X123856000Y-97569700D01*
X123006000Y-97569700D01*
X123006000Y-98077700D02*
X123006000Y-98157700D01*
X123856000Y-98157700D01*
X123856000Y-98077700D01*
X123006000Y-98077700D01*
X123006000Y-98585700D02*
X123006000Y-98665700D01*
X123856000Y-98665700D01*
X123856000Y-98585700D01*
X123006000Y-98585700D01*
X123006000Y-99093700D02*
X123006000Y-99173700D01*
X123856000Y-99173700D01*
X123856000Y-99093700D01*
X123006000Y-99093700D01*
X123006000Y-99601700D02*
X123006000Y-99681700D01*
X123856000Y-99681700D01*
X123856000Y-99601700D01*
X123006000Y-99601700D01*
X125169000Y-100486700D02*
X125169000Y-101336700D01*
X125249000Y-101336700D01*
X125249000Y-100486700D01*
X125169000Y-100486700D01*
X125677000Y-100486700D02*
X125677000Y-101336700D01*
X125757000Y-101336700D01*
X125757000Y-100486700D01*
X125677000Y-100486700D01*
X126185000Y-100486700D02*
X126185000Y-101336700D01*
X126265000Y-101336700D01*
X126265000Y-100486700D01*
X126185000Y-100486700D01*
X126693000Y-100486700D02*
X126693000Y-101336700D01*
X126773000Y-101336700D01*
X126773000Y-100486700D01*
X126693000Y-100486700D01*
X127201000Y-100486700D02*
X127201000Y-101336700D01*
X127281000Y-101336700D01*
X127281000Y-100486700D01*
X127201000Y-100486700D01*
X127709000Y-100486700D02*
X127709000Y-101336700D01*
X127789000Y-101336700D01*
X127789000Y-100486700D01*
X127709000Y-100486700D01*
X128217000Y-100486700D02*
X128217000Y-101336700D01*
X128297000Y-101336700D01*
X128297000Y-100486700D01*
X128217000Y-100486700D01*
X128725000Y-100486700D02*
X128725000Y-101336700D01*
X128805000Y-101336700D01*
X128805000Y-100486700D01*
X128725000Y-100486700D01*
X129233000Y-100486700D02*
X129233000Y-101336700D01*
X129313000Y-101336700D01*
X129313000Y-100486700D01*
X129233000Y-100486700D01*
X129741000Y-100486700D02*
X129741000Y-101336700D01*
X129821000Y-101336700D01*
X129821000Y-100486700D01*
X129741000Y-100486700D01*
X130249000Y-100486700D02*
X130249000Y-101336700D01*
X130329000Y-101336700D01*
X130329000Y-100486700D01*
X130249000Y-100486700D01*
X131134000Y-99601700D02*
X131134000Y-99681700D01*
X131984000Y-99681700D01*
X131984000Y-99601700D01*
X131134000Y-99601700D01*
X131134000Y-98585700D02*
X131134000Y-98665700D01*
X131984000Y-98665700D01*
X131984000Y-98585700D01*
X131134000Y-98585700D01*
X131134000Y-98077700D02*
X131134000Y-98157700D01*
X131984000Y-98157700D01*
X131984000Y-98077700D01*
X131134000Y-98077700D01*
X131134000Y-97569700D02*
X131134000Y-97649700D01*
X131984000Y-97649700D01*
X131984000Y-97569700D01*
X131134000Y-97569700D01*
X131134000Y-97061700D02*
X131134000Y-97141700D01*
X131984000Y-97141700D01*
X131984000Y-97061700D01*
X131134000Y-97061700D01*
X131134000Y-96553700D02*
X131134000Y-96633700D01*
X131984000Y-96633700D01*
X131984000Y-96553700D01*
X131134000Y-96553700D01*
X131134000Y-96045700D02*
X131134000Y-96125700D01*
X131984000Y-96125700D01*
X131984000Y-96045700D01*
X131134000Y-96045700D01*
X131134000Y-95537700D02*
X131134000Y-95617700D01*
X131984000Y-95617700D01*
X131984000Y-95537700D01*
X131134000Y-95537700D01*
X131134000Y-95029700D02*
X131134000Y-95109700D01*
X131984000Y-95109700D01*
X131984000Y-95029700D01*
X131134000Y-95029700D01*
X131134000Y-94521700D02*
X131134000Y-94601700D01*
X131984000Y-94601700D01*
X131984000Y-94521700D01*
X131134000Y-94521700D01*
X131134000Y-94013700D02*
X131134000Y-94093700D01*
X131984000Y-94093700D01*
X131984000Y-94013700D01*
X131134000Y-94013700D01*
X124661000Y-100486700D02*
X124661000Y-101336700D01*
X124741000Y-101336700D01*
X124741000Y-100486700D01*
X124661000Y-100486700D01*
X123006000Y-95029700D02*
X123006000Y-95109700D01*
X123856000Y-95109700D01*
X123856000Y-95029700D01*
X123006000Y-95029700D01*
M02*
