G04 #@! TF.GenerationSoftware,KiCad,Pcbnew,5.1.7-a382d34a8~88~ubuntu18.04.1*
G04 #@! TF.CreationDate,2021-11-20T11:26:47+05:30*
G04 #@! TF.ProjectId,FrontEnd_switch_Normal_v1,46726f6e-7445-46e6-945f-737769746368,rev?*
G04 #@! TF.SameCoordinates,Original*
G04 #@! TF.FileFunction,Glue,Top*
G04 #@! TF.FilePolarity,Positive*
%FSLAX46Y46*%
G04 Gerber Fmt 4.6, Leading zero omitted, Abs format (unit mm)*
G04 Created by KiCad (PCBNEW 5.1.7-a382d34a8~88~ubuntu18.04.1) date 2021-11-20 11:26:47*
%MOMM*%
%LPD*%
G01*
G04 APERTURE LIST*
%ADD10R,1.000000X0.230000*%
%ADD11R,0.230000X1.000000*%
%ADD12R,1.700000X1.200000*%
G04 APERTURE END LIST*
D10*
X131559000Y-99133700D03*
D11*
X130289000Y-92783700D03*
X129781000Y-92783700D03*
X129273000Y-92783700D03*
X128765000Y-92783700D03*
X128257000Y-92783700D03*
X127749000Y-92783700D03*
X127241000Y-92783700D03*
X126733000Y-92783700D03*
X126225000Y-92783700D03*
X125717000Y-92783700D03*
X125209000Y-92783700D03*
X124701000Y-92783700D03*
D10*
X123431000Y-94053700D03*
X123431000Y-94561700D03*
X123431000Y-95577700D03*
X123431000Y-96085700D03*
X123431000Y-96593700D03*
X123431000Y-97101700D03*
X123431000Y-97609700D03*
X123431000Y-98117700D03*
X123431000Y-98625700D03*
X123431000Y-99133700D03*
X123431000Y-99641700D03*
D11*
X125209000Y-100911700D03*
X125717000Y-100911700D03*
X126225000Y-100911700D03*
X126733000Y-100911700D03*
X127241000Y-100911700D03*
X127749000Y-100911700D03*
X128257000Y-100911700D03*
X128765000Y-100911700D03*
X129273000Y-100911700D03*
X129781000Y-100911700D03*
X130289000Y-100911700D03*
D10*
X131559000Y-99641700D03*
X131559000Y-98625700D03*
X131559000Y-98117700D03*
X131559000Y-97609700D03*
X131559000Y-97101700D03*
X131559000Y-96593700D03*
X131559000Y-96085700D03*
X131559000Y-95577700D03*
X131559000Y-95069700D03*
X131559000Y-94561700D03*
X131559000Y-94053700D03*
D11*
X124701000Y-100911700D03*
D10*
X123431000Y-95069700D03*
D12*
X106426000Y-103533000D03*
X106426000Y-105533000D03*
X106426000Y-107533000D03*
X106426000Y-109533000D03*
X106426000Y-111533000D03*
X106426000Y-113533000D03*
X106426000Y-115533000D03*
X106426000Y-117533000D03*
X121656000Y-117533000D03*
X121656000Y-115533000D03*
X121656000Y-113533000D03*
X121656000Y-111533000D03*
X121656000Y-109533000D03*
X121656000Y-107533000D03*
X121656000Y-105533000D03*
X121656000Y-103533000D03*
M02*
