G04 #@! TF.GenerationSoftware,KiCad,Pcbnew,5.1.7-a382d34a8~88~ubuntu18.04.1*
G04 #@! TF.CreationDate,2021-07-23T19:11:00+05:30*
G04 #@! TF.ProjectId,BackEnd_HeavyDevice_v2,4261636b-456e-4645-9f48-656176794465,rev?*
G04 #@! TF.SameCoordinates,Original*
G04 #@! TF.FileFunction,Soldermask,Bot*
G04 #@! TF.FilePolarity,Negative*
%FSLAX46Y46*%
G04 Gerber Fmt 4.6, Leading zero omitted, Abs format (unit mm)*
G04 Created by KiCad (PCBNEW 5.1.7-a382d34a8~88~ubuntu18.04.1) date 2021-07-23 19:11:00*
%MOMM*%
%LPD*%
G01*
G04 APERTURE LIST*
%ADD10C,1.500000*%
%ADD11C,1.950000*%
%ADD12R,1.950000X1.950000*%
%ADD13R,1.500000X1.250000*%
%ADD14R,0.900000X0.800000*%
%ADD15C,2.000000*%
%ADD16C,2.500000*%
%ADD17R,2.500000X2.500000*%
%ADD18O,4.500000X2.500000*%
%ADD19R,4.500000X2.500000*%
%ADD20R,1.500000X1.300000*%
%ADD21C,1.750000*%
%ADD22R,3.100000X1.600000*%
%ADD23R,0.650000X1.560000*%
%ADD24R,1.700000X1.700000*%
%ADD25O,1.700000X1.700000*%
G04 APERTURE END LIST*
D10*
X113195100Y-128112520D03*
D11*
X132225000Y-133535000D03*
X120541000Y-100007000D03*
X126129000Y-133535000D03*
D12*
X137813000Y-100007000D03*
D13*
X135884000Y-105357000D03*
X138384000Y-105357000D03*
D14*
X138136000Y-129124000D03*
X138136000Y-127024000D03*
D15*
X109903000Y-133198000D03*
X114983000Y-133208000D03*
D16*
X146078000Y-132904000D03*
D17*
X146078000Y-127904000D03*
X146027000Y-95631000D03*
D16*
X146027000Y-100631000D03*
D18*
X146515000Y-108500000D03*
X146515000Y-113950000D03*
D19*
X146515000Y-119400000D03*
D20*
X135611000Y-103152000D03*
X132911000Y-103152000D03*
X126909000Y-105474000D03*
X129609000Y-105474000D03*
X131646000Y-128468000D03*
X134346000Y-128468000D03*
D21*
X110368080Y-98368980D03*
X115448080Y-98368980D03*
X112908080Y-98368980D03*
X112018080Y-122368980D03*
X114878080Y-122368980D03*
D22*
X128156000Y-113629000D03*
X137046000Y-108549000D03*
X128156000Y-111089000D03*
X137046000Y-111089000D03*
X128156000Y-108549000D03*
X137046000Y-113629000D03*
D23*
X126357000Y-102824000D03*
X128257000Y-102824000D03*
X128257000Y-100124000D03*
X127307000Y-100124000D03*
X126357000Y-100124000D03*
D22*
X136835000Y-123670000D03*
X127945000Y-118590000D03*
X136835000Y-121130000D03*
X127945000Y-121130000D03*
X136835000Y-118590000D03*
X127945000Y-123670000D03*
D24*
X123309000Y-94800400D03*
D25*
X125849000Y-94800400D03*
X128389000Y-94800400D03*
X130929000Y-94800400D03*
X133469000Y-94800400D03*
X136009000Y-94800400D03*
M02*
