G04 #@! TF.GenerationSoftware,KiCad,Pcbnew,5.1.7-a382d34a8~88~ubuntu18.04.1*
G04 #@! TF.CreationDate,2021-07-23T19:11:00+05:30*
G04 #@! TF.ProjectId,BackEnd_HeavyDevice_v2,4261636b-456e-4645-9f48-656176794465,rev?*
G04 #@! TF.SameCoordinates,Original*
G04 #@! TF.FileFunction,Copper,L1,Top*
G04 #@! TF.FilePolarity,Positive*
%FSLAX46Y46*%
G04 Gerber Fmt 4.6, Leading zero omitted, Abs format (unit mm)*
G04 Created by KiCad (PCBNEW 5.1.7-a382d34a8~88~ubuntu18.04.1) date 2021-07-23 19:11:00*
%MOMM*%
%LPD*%
G01*
G04 APERTURE LIST*
G04 #@! TA.AperFunction,ComponentPad*
%ADD10C,1.950000*%
G04 #@! TD*
G04 #@! TA.AperFunction,ComponentPad*
%ADD11R,1.950000X1.950000*%
G04 #@! TD*
G04 #@! TA.AperFunction,ComponentPad*
%ADD12C,2.000000*%
G04 #@! TD*
G04 #@! TA.AperFunction,ComponentPad*
%ADD13C,2.500000*%
G04 #@! TD*
G04 #@! TA.AperFunction,ComponentPad*
%ADD14R,2.500000X2.500000*%
G04 #@! TD*
G04 #@! TA.AperFunction,ComponentPad*
%ADD15O,4.500000X2.500000*%
G04 #@! TD*
G04 #@! TA.AperFunction,ComponentPad*
%ADD16R,4.500000X2.500000*%
G04 #@! TD*
G04 #@! TA.AperFunction,ComponentPad*
%ADD17C,1.750000*%
G04 #@! TD*
G04 #@! TA.AperFunction,ComponentPad*
%ADD18R,1.700000X1.700000*%
G04 #@! TD*
G04 #@! TA.AperFunction,ComponentPad*
%ADD19O,1.700000X1.700000*%
G04 #@! TD*
G04 #@! TA.AperFunction,ViaPad*
%ADD20C,0.800000*%
G04 #@! TD*
G04 #@! TA.AperFunction,Conductor*
%ADD21C,0.350000*%
G04 #@! TD*
G04 #@! TA.AperFunction,Conductor*
%ADD22C,0.800000*%
G04 #@! TD*
G04 #@! TA.AperFunction,Conductor*
%ADD23C,0.254000*%
G04 #@! TD*
G04 #@! TA.AperFunction,Conductor*
%ADD24C,0.100000*%
G04 #@! TD*
G04 APERTURE END LIST*
D10*
X132225000Y-133535000D03*
X120541000Y-100007000D03*
X126129000Y-133535000D03*
D11*
X137813000Y-100007000D03*
D12*
X109903000Y-133198000D03*
X114983000Y-133208000D03*
D13*
X146078000Y-132904000D03*
D14*
X146078000Y-127904000D03*
X146027000Y-95631000D03*
D13*
X146027000Y-100631000D03*
D15*
X146515000Y-108500000D03*
X146515000Y-113950000D03*
D16*
X146515000Y-119400000D03*
D17*
X110368080Y-98368980D03*
X115448080Y-98368980D03*
X112908080Y-98368980D03*
X112018080Y-122368980D03*
X114878080Y-122368980D03*
D18*
X123309000Y-94800400D03*
D19*
X125849000Y-94800400D03*
X128389000Y-94800400D03*
X130929000Y-94800400D03*
X133469000Y-94800400D03*
X136009000Y-94800400D03*
D20*
X139182900Y-103466800D03*
X130362960Y-101318060D03*
X136197340Y-126301500D03*
X132100320Y-111323120D03*
X132425440Y-106939080D03*
X133464300Y-104907078D03*
X134307800Y-111197500D03*
X124448300Y-116222600D03*
D21*
X136462700Y-100007000D02*
X137813000Y-100007000D01*
X135211400Y-100007000D02*
X136462700Y-100007000D01*
X133469000Y-94800400D02*
X133469000Y-98264600D01*
X133469000Y-98264600D02*
X135211400Y-100007000D01*
X136009000Y-96025700D02*
X136315300Y-96025700D01*
X136315300Y-96025700D02*
X139182900Y-98893300D01*
X139182900Y-98893300D02*
X139182900Y-103466800D01*
X136009000Y-94800400D02*
X136009000Y-96025700D01*
X112006100Y-100007000D02*
X110368080Y-98368980D01*
X120541000Y-100007000D02*
X112006100Y-100007000D01*
X130929000Y-100752020D02*
X130362960Y-101318060D01*
X130929000Y-94800400D02*
X130929000Y-100752020D01*
D22*
X116494540Y-131696460D02*
X114983000Y-133208000D01*
X146078000Y-132904000D02*
X144870460Y-131696460D01*
X144870460Y-131696460D02*
X116494540Y-131696460D01*
X133017260Y-112240060D02*
X132100320Y-111323120D01*
X136197340Y-126301500D02*
X133017260Y-123121420D01*
X133017260Y-123121420D02*
X133017260Y-112240060D01*
X132425440Y-106939080D02*
X133464300Y-105900220D01*
X133464300Y-105900220D02*
X133464300Y-104907078D01*
X146078000Y-125953700D02*
X146078000Y-127904000D01*
X146027000Y-100631000D02*
X142069820Y-104588180D01*
X142069820Y-121945520D02*
X146078000Y-125953700D01*
X142069820Y-104588180D02*
X142069820Y-121945520D01*
D21*
X109903000Y-126057000D02*
X109903000Y-133198000D01*
X109903000Y-124484060D02*
X112018080Y-122368980D01*
X109903000Y-126057000D02*
X109903000Y-124484060D01*
D22*
X128389000Y-94800400D02*
X128389000Y-105278700D01*
X128389000Y-105278700D02*
X134307800Y-111197500D01*
D21*
X123309000Y-94800400D02*
X123309000Y-115083300D01*
X123309000Y-115083300D02*
X124448300Y-116222600D01*
D22*
X146027000Y-96677340D02*
X146027000Y-95631000D01*
X150246080Y-100896420D02*
X146027000Y-96677340D01*
X146515000Y-117510380D02*
X146969480Y-117055900D01*
X146515000Y-119400000D02*
X146515000Y-117510380D01*
X146969480Y-117055900D02*
X148115020Y-117055900D01*
X148115020Y-117055900D02*
X150246080Y-114924840D01*
X150246080Y-114924840D02*
X150246080Y-100896420D01*
D23*
X151826057Y-92864482D02*
X151858882Y-135729651D01*
X107820512Y-135616007D01*
X107821575Y-133036967D01*
X108268000Y-133036967D01*
X108268000Y-133359033D01*
X108330832Y-133674912D01*
X108454082Y-133972463D01*
X108633013Y-134240252D01*
X108860748Y-134467987D01*
X109128537Y-134646918D01*
X109426088Y-134770168D01*
X109741967Y-134833000D01*
X110064033Y-134833000D01*
X110379912Y-134770168D01*
X110677463Y-134646918D01*
X110945252Y-134467987D01*
X111172987Y-134240252D01*
X111351918Y-133972463D01*
X111475168Y-133674912D01*
X111538000Y-133359033D01*
X111538000Y-133046967D01*
X113348000Y-133046967D01*
X113348000Y-133369033D01*
X113410832Y-133684912D01*
X113534082Y-133982463D01*
X113713013Y-134250252D01*
X113940748Y-134477987D01*
X114208537Y-134656918D01*
X114506088Y-134780168D01*
X114821967Y-134843000D01*
X115144033Y-134843000D01*
X115459912Y-134780168D01*
X115757463Y-134656918D01*
X116025252Y-134477987D01*
X116252987Y-134250252D01*
X116431918Y-133982463D01*
X116555168Y-133684912D01*
X116618000Y-133369033D01*
X116618000Y-133046967D01*
X116616298Y-133038412D01*
X116923251Y-132731460D01*
X124729578Y-132731460D01*
X124702237Y-132772379D01*
X124580871Y-133065380D01*
X124519000Y-133376429D01*
X124519000Y-133693571D01*
X124580871Y-134004620D01*
X124702237Y-134297621D01*
X124878431Y-134561315D01*
X125102685Y-134785569D01*
X125366379Y-134961763D01*
X125659380Y-135083129D01*
X125970429Y-135145000D01*
X126287571Y-135145000D01*
X126598620Y-135083129D01*
X126891621Y-134961763D01*
X127155315Y-134785569D01*
X127379569Y-134561315D01*
X127555763Y-134297621D01*
X127677129Y-134004620D01*
X127739000Y-133693571D01*
X127739000Y-133376429D01*
X127677129Y-133065380D01*
X127555763Y-132772379D01*
X127528422Y-132731460D01*
X130825578Y-132731460D01*
X130798237Y-132772379D01*
X130676871Y-133065380D01*
X130615000Y-133376429D01*
X130615000Y-133693571D01*
X130676871Y-134004620D01*
X130798237Y-134297621D01*
X130974431Y-134561315D01*
X131198685Y-134785569D01*
X131462379Y-134961763D01*
X131755380Y-135083129D01*
X132066429Y-135145000D01*
X132383571Y-135145000D01*
X132694620Y-135083129D01*
X132987621Y-134961763D01*
X133251315Y-134785569D01*
X133475569Y-134561315D01*
X133651763Y-134297621D01*
X133773129Y-134004620D01*
X133835000Y-133693571D01*
X133835000Y-133376429D01*
X133773129Y-133065380D01*
X133651763Y-132772379D01*
X133624422Y-132731460D01*
X144193000Y-132731460D01*
X144193000Y-133089656D01*
X144265439Y-133453834D01*
X144407534Y-133796882D01*
X144613825Y-134105618D01*
X144876382Y-134368175D01*
X145185118Y-134574466D01*
X145528166Y-134716561D01*
X145892344Y-134789000D01*
X146263656Y-134789000D01*
X146627834Y-134716561D01*
X146970882Y-134574466D01*
X147279618Y-134368175D01*
X147542175Y-134105618D01*
X147748466Y-133796882D01*
X147890561Y-133453834D01*
X147963000Y-133089656D01*
X147963000Y-132718344D01*
X147890561Y-132354166D01*
X147748466Y-132011118D01*
X147542175Y-131702382D01*
X147279618Y-131439825D01*
X146970882Y-131233534D01*
X146627834Y-131091439D01*
X146263656Y-131019000D01*
X145892344Y-131019000D01*
X145695804Y-131058094D01*
X145638267Y-131000557D01*
X145605856Y-130961064D01*
X145448257Y-130831726D01*
X145268453Y-130735619D01*
X145073355Y-130676436D01*
X144921298Y-130661460D01*
X144921288Y-130661460D01*
X144870460Y-130656454D01*
X144819632Y-130661460D01*
X116545367Y-130661460D01*
X116494539Y-130656454D01*
X116443711Y-130661460D01*
X116443702Y-130661460D01*
X116291645Y-130676436D01*
X116096547Y-130735619D01*
X116012849Y-130780356D01*
X115916742Y-130831726D01*
X115798632Y-130928657D01*
X115759144Y-130961064D01*
X115726737Y-131000552D01*
X115152588Y-131574702D01*
X115144033Y-131573000D01*
X114821967Y-131573000D01*
X114506088Y-131635832D01*
X114208537Y-131759082D01*
X113940748Y-131938013D01*
X113713013Y-132165748D01*
X113534082Y-132433537D01*
X113410832Y-132731088D01*
X113348000Y-133046967D01*
X111538000Y-133046967D01*
X111538000Y-133036967D01*
X111475168Y-132721088D01*
X111351918Y-132423537D01*
X111172987Y-132155748D01*
X110945252Y-131928013D01*
X110713000Y-131772827D01*
X110713000Y-127976109D01*
X111810100Y-127976109D01*
X111810100Y-128248931D01*
X111863325Y-128516509D01*
X111967729Y-128768563D01*
X112119301Y-128995406D01*
X112312214Y-129188319D01*
X112539057Y-129339891D01*
X112791111Y-129444295D01*
X113058689Y-129497520D01*
X113331511Y-129497520D01*
X113599089Y-129444295D01*
X113851143Y-129339891D01*
X114077986Y-129188319D01*
X114270899Y-128995406D01*
X114422471Y-128768563D01*
X114526875Y-128516509D01*
X114580100Y-128248931D01*
X114580100Y-127976109D01*
X114526875Y-127708531D01*
X114422471Y-127456477D01*
X114270899Y-127229634D01*
X114077986Y-127036721D01*
X113851143Y-126885149D01*
X113599089Y-126780745D01*
X113331511Y-126727520D01*
X113058689Y-126727520D01*
X112791111Y-126780745D01*
X112539057Y-126885149D01*
X112312214Y-127036721D01*
X112119301Y-127229634D01*
X111967729Y-127456477D01*
X111863325Y-127708531D01*
X111810100Y-127976109D01*
X110713000Y-127976109D01*
X110713000Y-124819572D01*
X111689391Y-123843182D01*
X111869358Y-123878980D01*
X112166802Y-123878980D01*
X112458531Y-123820951D01*
X112733333Y-123707124D01*
X112980649Y-123541873D01*
X113190973Y-123331549D01*
X113356224Y-123084233D01*
X113448080Y-122862474D01*
X113539936Y-123084233D01*
X113705187Y-123331549D01*
X113915511Y-123541873D01*
X114162827Y-123707124D01*
X114437629Y-123820951D01*
X114729358Y-123878980D01*
X115026802Y-123878980D01*
X115318531Y-123820951D01*
X115593333Y-123707124D01*
X115840649Y-123541873D01*
X116050973Y-123331549D01*
X116216224Y-123084233D01*
X116330051Y-122809431D01*
X116388080Y-122517702D01*
X116388080Y-122220258D01*
X116330051Y-121928529D01*
X116216224Y-121653727D01*
X116050973Y-121406411D01*
X115840649Y-121196087D01*
X115593333Y-121030836D01*
X115318531Y-120917009D01*
X115026802Y-120858980D01*
X114729358Y-120858980D01*
X114437629Y-120917009D01*
X114162827Y-121030836D01*
X113915511Y-121196087D01*
X113705187Y-121406411D01*
X113539936Y-121653727D01*
X113448080Y-121875486D01*
X113356224Y-121653727D01*
X113190973Y-121406411D01*
X112980649Y-121196087D01*
X112733333Y-121030836D01*
X112458531Y-120917009D01*
X112166802Y-120858980D01*
X111869358Y-120858980D01*
X111577629Y-120917009D01*
X111302827Y-121030836D01*
X111055511Y-121196087D01*
X110845187Y-121406411D01*
X110679936Y-121653727D01*
X110566109Y-121928529D01*
X110508080Y-122220258D01*
X110508080Y-122517702D01*
X110543878Y-122697669D01*
X109358383Y-123883165D01*
X109327473Y-123908532D01*
X109302108Y-123939440D01*
X109226251Y-124031871D01*
X109151038Y-124172587D01*
X109104721Y-124325273D01*
X109089081Y-124484060D01*
X109093001Y-124523858D01*
X109093000Y-126017209D01*
X109093000Y-126017210D01*
X109093001Y-131772827D01*
X108860748Y-131928013D01*
X108633013Y-132155748D01*
X108454082Y-132423537D01*
X108330832Y-132721088D01*
X108268000Y-133036967D01*
X107821575Y-133036967D01*
X107834737Y-101124584D01*
X119603021Y-101124584D01*
X119695766Y-101386429D01*
X119981120Y-101524820D01*
X120287990Y-101604883D01*
X120604584Y-101623540D01*
X120918733Y-101580074D01*
X121218367Y-101476156D01*
X121386234Y-101386429D01*
X121478979Y-101124584D01*
X120541000Y-100186605D01*
X119603021Y-101124584D01*
X107834737Y-101124584D01*
X107835172Y-100070584D01*
X118924460Y-100070584D01*
X118967926Y-100384733D01*
X119071844Y-100684367D01*
X119161571Y-100852234D01*
X119423416Y-100944979D01*
X120361395Y-100007000D01*
X120720605Y-100007000D01*
X121658584Y-100944979D01*
X121920429Y-100852234D01*
X122058820Y-100566880D01*
X122138883Y-100260010D01*
X122157540Y-99943416D01*
X122114074Y-99629267D01*
X122010156Y-99329633D01*
X121920429Y-99161766D01*
X121658584Y-99069021D01*
X120720605Y-100007000D01*
X120361395Y-100007000D01*
X119423416Y-99069021D01*
X119161571Y-99161766D01*
X119023180Y-99447120D01*
X118943117Y-99753990D01*
X118924460Y-100070584D01*
X107835172Y-100070584D01*
X107835443Y-99415220D01*
X109501445Y-99415220D01*
X109582105Y-99666848D01*
X109850409Y-99795247D01*
X110138606Y-99868835D01*
X110435623Y-99884784D01*
X110730043Y-99842481D01*
X111010554Y-99743552D01*
X111154055Y-99666848D01*
X111234715Y-99415220D01*
X110368080Y-98548585D01*
X109501445Y-99415220D01*
X107835443Y-99415220D01*
X107835847Y-98436523D01*
X108852276Y-98436523D01*
X108894579Y-98730943D01*
X108993508Y-99011454D01*
X109070212Y-99154955D01*
X109321840Y-99235615D01*
X110188475Y-98368980D01*
X110547685Y-98368980D01*
X111414320Y-99235615D01*
X111625792Y-99167827D01*
X111735187Y-99331549D01*
X111945511Y-99541873D01*
X112192827Y-99707124D01*
X112467629Y-99820951D01*
X112759358Y-99878980D01*
X113056802Y-99878980D01*
X113348531Y-99820951D01*
X113623333Y-99707124D01*
X113870649Y-99541873D01*
X114080973Y-99331549D01*
X114178080Y-99186218D01*
X114275187Y-99331549D01*
X114485511Y-99541873D01*
X114732827Y-99707124D01*
X115007629Y-99820951D01*
X115299358Y-99878980D01*
X115596802Y-99878980D01*
X115888531Y-99820951D01*
X116163333Y-99707124D01*
X116410649Y-99541873D01*
X116620973Y-99331549D01*
X116786224Y-99084233D01*
X116866920Y-98889416D01*
X119603021Y-98889416D01*
X120541000Y-99827395D01*
X121478979Y-98889416D01*
X121386234Y-98627571D01*
X121100880Y-98489180D01*
X120794010Y-98409117D01*
X120477416Y-98390460D01*
X120163267Y-98433926D01*
X119863633Y-98537844D01*
X119695766Y-98627571D01*
X119603021Y-98889416D01*
X116866920Y-98889416D01*
X116900051Y-98809431D01*
X116958080Y-98517702D01*
X116958080Y-98220258D01*
X116900051Y-97928529D01*
X116786224Y-97653727D01*
X116620973Y-97406411D01*
X116410649Y-97196087D01*
X116163333Y-97030836D01*
X115888531Y-96917009D01*
X115596802Y-96858980D01*
X115299358Y-96858980D01*
X115007629Y-96917009D01*
X114732827Y-97030836D01*
X114485511Y-97196087D01*
X114275187Y-97406411D01*
X114178080Y-97551742D01*
X114080973Y-97406411D01*
X113870649Y-97196087D01*
X113623333Y-97030836D01*
X113348531Y-96917009D01*
X113056802Y-96858980D01*
X112759358Y-96858980D01*
X112467629Y-96917009D01*
X112192827Y-97030836D01*
X111945511Y-97196087D01*
X111735187Y-97406411D01*
X111625792Y-97570133D01*
X111414320Y-97502345D01*
X110547685Y-98368980D01*
X110188475Y-98368980D01*
X109321840Y-97502345D01*
X109070212Y-97583005D01*
X108941813Y-97851309D01*
X108868225Y-98139506D01*
X108852276Y-98436523D01*
X107835847Y-98436523D01*
X107836306Y-97322740D01*
X109501445Y-97322740D01*
X110368080Y-98189375D01*
X111234715Y-97322740D01*
X111154055Y-97071112D01*
X110885751Y-96942713D01*
X110597554Y-96869125D01*
X110300537Y-96853176D01*
X110006117Y-96895479D01*
X109725606Y-96994408D01*
X109582105Y-97071112D01*
X109501445Y-97322740D01*
X107836306Y-97322740D01*
X107837698Y-93950400D01*
X121820928Y-93950400D01*
X121820928Y-95650400D01*
X121833188Y-95774882D01*
X121869498Y-95894580D01*
X121928463Y-96004894D01*
X122007815Y-96101585D01*
X122104506Y-96180937D01*
X122214820Y-96239902D01*
X122334518Y-96276212D01*
X122459000Y-96288472D01*
X122499000Y-96288472D01*
X122499001Y-115043502D01*
X122495081Y-115083300D01*
X122499458Y-115127734D01*
X122510721Y-115242088D01*
X122529925Y-115305395D01*
X122557038Y-115394773D01*
X122632251Y-115535489D01*
X122687852Y-115603239D01*
X122733473Y-115658828D01*
X122764383Y-115684195D01*
X123415429Y-116335241D01*
X123453074Y-116524498D01*
X123531095Y-116712856D01*
X123644363Y-116882374D01*
X123788526Y-117026537D01*
X123958044Y-117139805D01*
X124146402Y-117217826D01*
X124346361Y-117257600D01*
X124550239Y-117257600D01*
X124750198Y-117217826D01*
X124938556Y-117139805D01*
X125108074Y-117026537D01*
X125252237Y-116882374D01*
X125365505Y-116712856D01*
X125443526Y-116524498D01*
X125483300Y-116324539D01*
X125483300Y-116120661D01*
X125443526Y-115920702D01*
X125365505Y-115732344D01*
X125252237Y-115562826D01*
X125108074Y-115418663D01*
X124938556Y-115305395D01*
X124750198Y-115227374D01*
X124560941Y-115189729D01*
X124119000Y-114747788D01*
X124119000Y-96288472D01*
X124159000Y-96288472D01*
X124283482Y-96276212D01*
X124403180Y-96239902D01*
X124513494Y-96180937D01*
X124610185Y-96101585D01*
X124689537Y-96004894D01*
X124748502Y-95894580D01*
X124770513Y-95822020D01*
X124902368Y-95953875D01*
X125145589Y-96116390D01*
X125415842Y-96228332D01*
X125702740Y-96285400D01*
X125995260Y-96285400D01*
X126282158Y-96228332D01*
X126552411Y-96116390D01*
X126795632Y-95953875D01*
X127002475Y-95747032D01*
X127119000Y-95572640D01*
X127235525Y-95747032D01*
X127354000Y-95865507D01*
X127354001Y-105227862D01*
X127348994Y-105278700D01*
X127368977Y-105481595D01*
X127428160Y-105676693D01*
X127524266Y-105856497D01*
X127563317Y-105904080D01*
X127653605Y-106014096D01*
X127693093Y-106046503D01*
X131945001Y-110298411D01*
X131897425Y-110303097D01*
X131848552Y-110317923D01*
X131798422Y-110327894D01*
X131751198Y-110347455D01*
X131702327Y-110362280D01*
X131657284Y-110386356D01*
X131610064Y-110405915D01*
X131567572Y-110434307D01*
X131522523Y-110458386D01*
X131483036Y-110490792D01*
X131440546Y-110519183D01*
X131404412Y-110555317D01*
X131364924Y-110587724D01*
X131332517Y-110627212D01*
X131296383Y-110663346D01*
X131267992Y-110705836D01*
X131235586Y-110745323D01*
X131211507Y-110790372D01*
X131183115Y-110832864D01*
X131163556Y-110880084D01*
X131139480Y-110925127D01*
X131124655Y-110973998D01*
X131105094Y-111021222D01*
X131095123Y-111071352D01*
X131080297Y-111120225D01*
X131075291Y-111171053D01*
X131065320Y-111221181D01*
X131065320Y-111272292D01*
X131060314Y-111323120D01*
X131065320Y-111373948D01*
X131065320Y-111425059D01*
X131075291Y-111475187D01*
X131080297Y-111526015D01*
X131095123Y-111574888D01*
X131105094Y-111625018D01*
X131124655Y-111672242D01*
X131139480Y-111721113D01*
X131163556Y-111766156D01*
X131183115Y-111813376D01*
X131211507Y-111855868D01*
X131235586Y-111900917D01*
X131267991Y-111940403D01*
X131296383Y-111982894D01*
X131440546Y-112127057D01*
X131440549Y-112127059D01*
X131982261Y-112668772D01*
X131982260Y-123070592D01*
X131977254Y-123121420D01*
X131982260Y-123172248D01*
X131982260Y-123172257D01*
X131997236Y-123324314D01*
X132056419Y-123519412D01*
X132152526Y-123699217D01*
X132281864Y-123856816D01*
X132321357Y-123889227D01*
X135393403Y-126961274D01*
X135537566Y-127105437D01*
X135580052Y-127133825D01*
X135619542Y-127166234D01*
X135664596Y-127190316D01*
X135707084Y-127218705D01*
X135754299Y-127238262D01*
X135799346Y-127262340D01*
X135848221Y-127277166D01*
X135895442Y-127296726D01*
X135945569Y-127306697D01*
X135994444Y-127321523D01*
X136045274Y-127326529D01*
X136095401Y-127336500D01*
X136146511Y-127336500D01*
X136197339Y-127341506D01*
X136248167Y-127336500D01*
X136299279Y-127336500D01*
X136349408Y-127326529D01*
X136400234Y-127321523D01*
X136449106Y-127306698D01*
X136499238Y-127296726D01*
X136546463Y-127277165D01*
X136595333Y-127262340D01*
X136640376Y-127238264D01*
X136687596Y-127218705D01*
X136730088Y-127190313D01*
X136775137Y-127166234D01*
X136814621Y-127133830D01*
X136857114Y-127105437D01*
X136893256Y-127069295D01*
X136932735Y-127036895D01*
X136965135Y-126997416D01*
X137001277Y-126961274D01*
X137029670Y-126918781D01*
X137062074Y-126879297D01*
X137086153Y-126834248D01*
X137114545Y-126791756D01*
X137134104Y-126744536D01*
X137158180Y-126699493D01*
X137173005Y-126650623D01*
X137192566Y-126603398D01*
X137202538Y-126553266D01*
X137217363Y-126504394D01*
X137222369Y-126453568D01*
X137232340Y-126403439D01*
X137232340Y-126352327D01*
X137237346Y-126301499D01*
X137232340Y-126250671D01*
X137232340Y-126199561D01*
X137222369Y-126149434D01*
X137217363Y-126098604D01*
X137202537Y-126049729D01*
X137192566Y-125999602D01*
X137173006Y-125952381D01*
X137158180Y-125903506D01*
X137134102Y-125858459D01*
X137114545Y-125811244D01*
X137086156Y-125768756D01*
X137062074Y-125723702D01*
X137029665Y-125684212D01*
X137001277Y-125641726D01*
X136857114Y-125497563D01*
X134052260Y-122692710D01*
X134052260Y-112290895D01*
X134057267Y-112240060D01*
X134053538Y-112202201D01*
X134056029Y-112202697D01*
X134104904Y-112217523D01*
X134155734Y-112222529D01*
X134205861Y-112232500D01*
X134256971Y-112232500D01*
X134307799Y-112237506D01*
X134358627Y-112232500D01*
X134409739Y-112232500D01*
X134459868Y-112222529D01*
X134510694Y-112217523D01*
X134559566Y-112202698D01*
X134609698Y-112192726D01*
X134656923Y-112173165D01*
X134705793Y-112158340D01*
X134750836Y-112134264D01*
X134798056Y-112114705D01*
X134840548Y-112086313D01*
X134885597Y-112062234D01*
X134925081Y-112029830D01*
X134967574Y-112001437D01*
X135003716Y-111965295D01*
X135043195Y-111932895D01*
X135075595Y-111893416D01*
X135111737Y-111857274D01*
X135140130Y-111814781D01*
X135172534Y-111775297D01*
X135196613Y-111730248D01*
X135225005Y-111687756D01*
X135244564Y-111640536D01*
X135268640Y-111595493D01*
X135283465Y-111546623D01*
X135303026Y-111499398D01*
X135312998Y-111449266D01*
X135327823Y-111400394D01*
X135332829Y-111349568D01*
X135342800Y-111299439D01*
X135342800Y-111248327D01*
X135347806Y-111197499D01*
X135342800Y-111146671D01*
X135342800Y-111095561D01*
X135332829Y-111045434D01*
X135327823Y-110994604D01*
X135312997Y-110945729D01*
X135303026Y-110895602D01*
X135283466Y-110848381D01*
X135268640Y-110799506D01*
X135244562Y-110754459D01*
X135225005Y-110707244D01*
X135196616Y-110664756D01*
X135172534Y-110619702D01*
X135140125Y-110580212D01*
X135111737Y-110537726D01*
X134967574Y-110393563D01*
X132544654Y-107970644D01*
X132577507Y-107964109D01*
X132628335Y-107959103D01*
X132677208Y-107944277D01*
X132727338Y-107934306D01*
X132774562Y-107914745D01*
X132823433Y-107899920D01*
X132868476Y-107875844D01*
X132915696Y-107856285D01*
X132958188Y-107827893D01*
X133003237Y-107803814D01*
X133042723Y-107771409D01*
X133085214Y-107743017D01*
X133229377Y-107598854D01*
X133229379Y-107598851D01*
X134160208Y-106668023D01*
X134199696Y-106635616D01*
X134277274Y-106541087D01*
X134329034Y-106478018D01*
X134391429Y-106361283D01*
X134425141Y-106298213D01*
X134484324Y-106103115D01*
X134499300Y-105951058D01*
X134499300Y-105951056D01*
X134504307Y-105900220D01*
X134499300Y-105849385D01*
X134499300Y-104805139D01*
X134489331Y-104755021D01*
X134484324Y-104704183D01*
X134469496Y-104655301D01*
X134459526Y-104605180D01*
X134452485Y-104588180D01*
X141029814Y-104588180D01*
X141034820Y-104639008D01*
X141034821Y-121894682D01*
X141029814Y-121945520D01*
X141049797Y-122148415D01*
X141108980Y-122343513D01*
X141205086Y-122523317D01*
X141302017Y-122641427D01*
X141334425Y-122680916D01*
X141373912Y-122713323D01*
X144692208Y-126031619D01*
X144583820Y-126064498D01*
X144473506Y-126123463D01*
X144376815Y-126202815D01*
X144297463Y-126299506D01*
X144238498Y-126409820D01*
X144202188Y-126529518D01*
X144189928Y-126654000D01*
X144189928Y-129154000D01*
X144202188Y-129278482D01*
X144238498Y-129398180D01*
X144297463Y-129508494D01*
X144376815Y-129605185D01*
X144473506Y-129684537D01*
X144583820Y-129743502D01*
X144703518Y-129779812D01*
X144828000Y-129792072D01*
X147328000Y-129792072D01*
X147452482Y-129779812D01*
X147572180Y-129743502D01*
X147682494Y-129684537D01*
X147779185Y-129605185D01*
X147858537Y-129508494D01*
X147917502Y-129398180D01*
X147953812Y-129278482D01*
X147966072Y-129154000D01*
X147966072Y-126654000D01*
X147953812Y-126529518D01*
X147917502Y-126409820D01*
X147858537Y-126299506D01*
X147779185Y-126202815D01*
X147682494Y-126123463D01*
X147572180Y-126064498D01*
X147452482Y-126028188D01*
X147328000Y-126015928D01*
X147113000Y-126015928D01*
X147113000Y-126004535D01*
X147118007Y-125953700D01*
X147112542Y-125898212D01*
X147098024Y-125750805D01*
X147052615Y-125601115D01*
X147038841Y-125555706D01*
X146942734Y-125375902D01*
X146845803Y-125257792D01*
X146813396Y-125218304D01*
X146773908Y-125185897D01*
X143104820Y-121516810D01*
X143104820Y-105016890D01*
X145644805Y-102476906D01*
X145841344Y-102516000D01*
X146212656Y-102516000D01*
X146576834Y-102443561D01*
X146919882Y-102301466D01*
X147228618Y-102095175D01*
X147491175Y-101832618D01*
X147697466Y-101523882D01*
X147839561Y-101180834D01*
X147912000Y-100816656D01*
X147912000Y-100445344D01*
X147839561Y-100081166D01*
X147749367Y-99863417D01*
X149211081Y-101325132D01*
X149211081Y-107674390D01*
X149089903Y-107447683D01*
X148854345Y-107160655D01*
X148567317Y-106925097D01*
X148239848Y-106750061D01*
X147884524Y-106642275D01*
X147607597Y-106615000D01*
X145422403Y-106615000D01*
X145145476Y-106642275D01*
X144790152Y-106750061D01*
X144462683Y-106925097D01*
X144175655Y-107160655D01*
X143940097Y-107447683D01*
X143765061Y-107775152D01*
X143657275Y-108130476D01*
X143620880Y-108500000D01*
X143657275Y-108869524D01*
X143765061Y-109224848D01*
X143940097Y-109552317D01*
X144175655Y-109839345D01*
X144462683Y-110074903D01*
X144790152Y-110249939D01*
X145145476Y-110357725D01*
X145422403Y-110385000D01*
X147607597Y-110385000D01*
X147884524Y-110357725D01*
X148239848Y-110249939D01*
X148567317Y-110074903D01*
X148854345Y-109839345D01*
X149089903Y-109552317D01*
X149211080Y-109325610D01*
X149211080Y-113124389D01*
X149089903Y-112897683D01*
X148854345Y-112610655D01*
X148567317Y-112375097D01*
X148239848Y-112200061D01*
X147884524Y-112092275D01*
X147607597Y-112065000D01*
X145422403Y-112065000D01*
X145145476Y-112092275D01*
X144790152Y-112200061D01*
X144462683Y-112375097D01*
X144175655Y-112610655D01*
X143940097Y-112897683D01*
X143765061Y-113225152D01*
X143657275Y-113580476D01*
X143620880Y-113950000D01*
X143657275Y-114319524D01*
X143765061Y-114674848D01*
X143940097Y-115002317D01*
X144175655Y-115289345D01*
X144462683Y-115524903D01*
X144790152Y-115699939D01*
X145145476Y-115807725D01*
X145422403Y-115835000D01*
X147607597Y-115835000D01*
X147884524Y-115807725D01*
X147905999Y-115801211D01*
X147686310Y-116020900D01*
X147020315Y-116020900D01*
X146969480Y-116015893D01*
X146918645Y-116020900D01*
X146918642Y-116020900D01*
X146766585Y-116035876D01*
X146571487Y-116095059D01*
X146391683Y-116191166D01*
X146234084Y-116320504D01*
X146201673Y-116359997D01*
X145819093Y-116742577D01*
X145779605Y-116774984D01*
X145747198Y-116814472D01*
X145747197Y-116814473D01*
X145650266Y-116932583D01*
X145554160Y-117112387D01*
X145494977Y-117307485D01*
X145474994Y-117510380D01*
X145475146Y-117511928D01*
X144265000Y-117511928D01*
X144140518Y-117524188D01*
X144020820Y-117560498D01*
X143910506Y-117619463D01*
X143813815Y-117698815D01*
X143734463Y-117795506D01*
X143675498Y-117905820D01*
X143639188Y-118025518D01*
X143626928Y-118150000D01*
X143626928Y-120650000D01*
X143639188Y-120774482D01*
X143675498Y-120894180D01*
X143734463Y-121004494D01*
X143813815Y-121101185D01*
X143910506Y-121180537D01*
X144020820Y-121239502D01*
X144140518Y-121275812D01*
X144265000Y-121288072D01*
X148765000Y-121288072D01*
X148889482Y-121275812D01*
X149009180Y-121239502D01*
X149119494Y-121180537D01*
X149216185Y-121101185D01*
X149295537Y-121004494D01*
X149354502Y-120894180D01*
X149390812Y-120774482D01*
X149403072Y-120650000D01*
X149403072Y-118150000D01*
X149390812Y-118025518D01*
X149354502Y-117905820D01*
X149295537Y-117795506D01*
X149216185Y-117698815D01*
X149119494Y-117619463D01*
X149051507Y-117583123D01*
X150941988Y-115692643D01*
X150981476Y-115660236D01*
X151013883Y-115620748D01*
X151110814Y-115502638D01*
X151206920Y-115322834D01*
X151206921Y-115322833D01*
X151266104Y-115127735D01*
X151281080Y-114975678D01*
X151281080Y-114975676D01*
X151286087Y-114924840D01*
X151281080Y-114874005D01*
X151281080Y-100947247D01*
X151286086Y-100896419D01*
X151281080Y-100845591D01*
X151281080Y-100845582D01*
X151266104Y-100693525D01*
X151206921Y-100498427D01*
X151154768Y-100400855D01*
X151110814Y-100318622D01*
X151013883Y-100200512D01*
X150981476Y-100161024D01*
X150941988Y-100128617D01*
X147883271Y-97069901D01*
X147902812Y-97005482D01*
X147915072Y-96881000D01*
X147915072Y-94381000D01*
X147902812Y-94256518D01*
X147866502Y-94136820D01*
X147807537Y-94026506D01*
X147728185Y-93929815D01*
X147631494Y-93850463D01*
X147521180Y-93791498D01*
X147401482Y-93755188D01*
X147277000Y-93742928D01*
X144777000Y-93742928D01*
X144652518Y-93755188D01*
X144532820Y-93791498D01*
X144422506Y-93850463D01*
X144325815Y-93929815D01*
X144246463Y-94026506D01*
X144187498Y-94136820D01*
X144151188Y-94256518D01*
X144138928Y-94381000D01*
X144138928Y-96881000D01*
X144151188Y-97005482D01*
X144187498Y-97125180D01*
X144246463Y-97235494D01*
X144325815Y-97332185D01*
X144422506Y-97411537D01*
X144532820Y-97470502D01*
X144652518Y-97506812D01*
X144777000Y-97519072D01*
X145405022Y-97519072D01*
X146794583Y-98908634D01*
X146576834Y-98818439D01*
X146212656Y-98746000D01*
X145841344Y-98746000D01*
X145477166Y-98818439D01*
X145134118Y-98960534D01*
X144825382Y-99166825D01*
X144562825Y-99429382D01*
X144356534Y-99738118D01*
X144214439Y-100081166D01*
X144142000Y-100445344D01*
X144142000Y-100816656D01*
X144181094Y-101013195D01*
X141373917Y-103820373D01*
X141334424Y-103852784D01*
X141205086Y-104010383D01*
X141108979Y-104190188D01*
X141049796Y-104385286D01*
X141034820Y-104537343D01*
X141034820Y-104537352D01*
X141029814Y-104588180D01*
X134452485Y-104588180D01*
X134439969Y-104557965D01*
X134425141Y-104509085D01*
X134401062Y-104464036D01*
X134381505Y-104416822D01*
X134353114Y-104374332D01*
X134329034Y-104329281D01*
X134296628Y-104289794D01*
X134268237Y-104247304D01*
X134232103Y-104211170D01*
X134199696Y-104171682D01*
X134160208Y-104139275D01*
X134124074Y-104103141D01*
X134081584Y-104074750D01*
X134042097Y-104042344D01*
X133997046Y-104018264D01*
X133954556Y-103989873D01*
X133907342Y-103970316D01*
X133862293Y-103946237D01*
X133813413Y-103931409D01*
X133766198Y-103911852D01*
X133716077Y-103901882D01*
X133667195Y-103887054D01*
X133616357Y-103882047D01*
X133566239Y-103872078D01*
X133515138Y-103872078D01*
X133464300Y-103867071D01*
X133413462Y-103872078D01*
X133362361Y-103872078D01*
X133312242Y-103882047D01*
X133261406Y-103887054D01*
X133212526Y-103901882D01*
X133162402Y-103911852D01*
X133115184Y-103931410D01*
X133066308Y-103946237D01*
X133021262Y-103970315D01*
X132974044Y-103989873D01*
X132931550Y-104018266D01*
X132886504Y-104042344D01*
X132847021Y-104074747D01*
X132804526Y-104103141D01*
X132768387Y-104139280D01*
X132728905Y-104171682D01*
X132696503Y-104211164D01*
X132660363Y-104247304D01*
X132631968Y-104289800D01*
X132599567Y-104329281D01*
X132575491Y-104374325D01*
X132547095Y-104416822D01*
X132527535Y-104464044D01*
X132503460Y-104509085D01*
X132488635Y-104557956D01*
X132469074Y-104605180D01*
X132459103Y-104655310D01*
X132444277Y-104704183D01*
X132439271Y-104755011D01*
X132429300Y-104805139D01*
X132429300Y-105009017D01*
X132429301Y-105009021D01*
X132429300Y-105471509D01*
X131765669Y-106135141D01*
X131765666Y-106135143D01*
X131621503Y-106279306D01*
X131593111Y-106321797D01*
X131560706Y-106361283D01*
X131536627Y-106406332D01*
X131508235Y-106448824D01*
X131488676Y-106496044D01*
X131464600Y-106541087D01*
X131449775Y-106589958D01*
X131430214Y-106637182D01*
X131420243Y-106687312D01*
X131405417Y-106736185D01*
X131400411Y-106787013D01*
X131393876Y-106819866D01*
X129424000Y-104849990D01*
X129424000Y-101755795D01*
X129445755Y-101808316D01*
X129559023Y-101977834D01*
X129703186Y-102121997D01*
X129872704Y-102235265D01*
X130061062Y-102313286D01*
X130261021Y-102353060D01*
X130464899Y-102353060D01*
X130664858Y-102313286D01*
X130853216Y-102235265D01*
X131022734Y-102121997D01*
X131166897Y-101977834D01*
X131280165Y-101808316D01*
X131358186Y-101619958D01*
X131395831Y-101430702D01*
X131473617Y-101352915D01*
X131504528Y-101327548D01*
X131605749Y-101204209D01*
X131680963Y-101063493D01*
X131727280Y-100910808D01*
X131739000Y-100791811D01*
X131739000Y-100791809D01*
X131742919Y-100752021D01*
X131739000Y-100712233D01*
X131739000Y-96045170D01*
X131875632Y-95953875D01*
X132082475Y-95747032D01*
X132199000Y-95572640D01*
X132315525Y-95747032D01*
X132522368Y-95953875D01*
X132659000Y-96045170D01*
X132659001Y-98224802D01*
X132655081Y-98264600D01*
X132670721Y-98423387D01*
X132717038Y-98576073D01*
X132792251Y-98716789D01*
X132847852Y-98784539D01*
X132893473Y-98840128D01*
X132924383Y-98865495D01*
X134610505Y-100551618D01*
X134635872Y-100582528D01*
X134666780Y-100607893D01*
X134759211Y-100683749D01*
X134899926Y-100758963D01*
X134935463Y-100769743D01*
X135052612Y-100805280D01*
X135171609Y-100817000D01*
X135171612Y-100817000D01*
X135211400Y-100820919D01*
X135251188Y-100817000D01*
X136199928Y-100817000D01*
X136199928Y-100982000D01*
X136212188Y-101106482D01*
X136248498Y-101226180D01*
X136307463Y-101336494D01*
X136386815Y-101433185D01*
X136483506Y-101512537D01*
X136593820Y-101571502D01*
X136713518Y-101607812D01*
X136838000Y-101620072D01*
X138788000Y-101620072D01*
X138912482Y-101607812D01*
X139032180Y-101571502D01*
X139142494Y-101512537D01*
X139239185Y-101433185D01*
X139318537Y-101336494D01*
X139377502Y-101226180D01*
X139413812Y-101106482D01*
X139426072Y-100982000D01*
X139426072Y-99032000D01*
X139413812Y-98907518D01*
X139377502Y-98787820D01*
X139318537Y-98677506D01*
X139239185Y-98580815D01*
X139142494Y-98501463D01*
X139032180Y-98442498D01*
X138912482Y-98406188D01*
X138788000Y-98393928D01*
X136838000Y-98393928D01*
X136713518Y-98406188D01*
X136593820Y-98442498D01*
X136483506Y-98501463D01*
X136386815Y-98580815D01*
X136307463Y-98677506D01*
X136248498Y-98787820D01*
X136212188Y-98907518D01*
X136199928Y-99032000D01*
X136199928Y-99197000D01*
X135546913Y-99197000D01*
X134279000Y-97929088D01*
X134279000Y-96045170D01*
X134415632Y-95953875D01*
X134622475Y-95747032D01*
X134744195Y-95564866D01*
X134813822Y-95681755D01*
X135008731Y-95897988D01*
X135242080Y-96072041D01*
X135504901Y-96197225D01*
X135652110Y-96241876D01*
X135882000Y-96120555D01*
X135882000Y-94927400D01*
X136136000Y-94927400D01*
X136136000Y-96120555D01*
X136365890Y-96241876D01*
X136513099Y-96197225D01*
X136775920Y-96072041D01*
X137009269Y-95897988D01*
X137204178Y-95681755D01*
X137353157Y-95431652D01*
X137450481Y-95157291D01*
X137329814Y-94927400D01*
X136136000Y-94927400D01*
X135882000Y-94927400D01*
X135862000Y-94927400D01*
X135862000Y-94673400D01*
X135882000Y-94673400D01*
X135882000Y-93480245D01*
X136136000Y-93480245D01*
X136136000Y-94673400D01*
X137329814Y-94673400D01*
X137450481Y-94443509D01*
X137353157Y-94169148D01*
X137204178Y-93919045D01*
X137009269Y-93702812D01*
X136775920Y-93528759D01*
X136513099Y-93403575D01*
X136365890Y-93358924D01*
X136136000Y-93480245D01*
X135882000Y-93480245D01*
X135652110Y-93358924D01*
X135504901Y-93403575D01*
X135242080Y-93528759D01*
X135008731Y-93702812D01*
X134813822Y-93919045D01*
X134744195Y-94035934D01*
X134622475Y-93853768D01*
X134415632Y-93646925D01*
X134172411Y-93484410D01*
X133902158Y-93372468D01*
X133615260Y-93315400D01*
X133322740Y-93315400D01*
X133035842Y-93372468D01*
X132765589Y-93484410D01*
X132522368Y-93646925D01*
X132315525Y-93853768D01*
X132199000Y-94028160D01*
X132082475Y-93853768D01*
X131875632Y-93646925D01*
X131632411Y-93484410D01*
X131362158Y-93372468D01*
X131075260Y-93315400D01*
X130782740Y-93315400D01*
X130495842Y-93372468D01*
X130225589Y-93484410D01*
X129982368Y-93646925D01*
X129775525Y-93853768D01*
X129659000Y-94028160D01*
X129542475Y-93853768D01*
X129335632Y-93646925D01*
X129092411Y-93484410D01*
X128822158Y-93372468D01*
X128535260Y-93315400D01*
X128242740Y-93315400D01*
X127955842Y-93372468D01*
X127685589Y-93484410D01*
X127442368Y-93646925D01*
X127235525Y-93853768D01*
X127119000Y-94028160D01*
X127002475Y-93853768D01*
X126795632Y-93646925D01*
X126552411Y-93484410D01*
X126282158Y-93372468D01*
X125995260Y-93315400D01*
X125702740Y-93315400D01*
X125415842Y-93372468D01*
X125145589Y-93484410D01*
X124902368Y-93646925D01*
X124770513Y-93778780D01*
X124748502Y-93706220D01*
X124689537Y-93595906D01*
X124610185Y-93499215D01*
X124513494Y-93419863D01*
X124403180Y-93360898D01*
X124283482Y-93324588D01*
X124159000Y-93312328D01*
X122459000Y-93312328D01*
X122334518Y-93324588D01*
X122214820Y-93360898D01*
X122104506Y-93419863D01*
X122007815Y-93499215D01*
X121928463Y-93595906D01*
X121869498Y-93706220D01*
X121833188Y-93825918D01*
X121820928Y-93950400D01*
X107837698Y-93950400D01*
X107838212Y-92705389D01*
X151826057Y-92864482D01*
G04 #@! TA.AperFunction,Conductor*
D24*
G36*
X151826057Y-92864482D02*
G01*
X151858882Y-135729651D01*
X107820512Y-135616007D01*
X107821575Y-133036967D01*
X108268000Y-133036967D01*
X108268000Y-133359033D01*
X108330832Y-133674912D01*
X108454082Y-133972463D01*
X108633013Y-134240252D01*
X108860748Y-134467987D01*
X109128537Y-134646918D01*
X109426088Y-134770168D01*
X109741967Y-134833000D01*
X110064033Y-134833000D01*
X110379912Y-134770168D01*
X110677463Y-134646918D01*
X110945252Y-134467987D01*
X111172987Y-134240252D01*
X111351918Y-133972463D01*
X111475168Y-133674912D01*
X111538000Y-133359033D01*
X111538000Y-133046967D01*
X113348000Y-133046967D01*
X113348000Y-133369033D01*
X113410832Y-133684912D01*
X113534082Y-133982463D01*
X113713013Y-134250252D01*
X113940748Y-134477987D01*
X114208537Y-134656918D01*
X114506088Y-134780168D01*
X114821967Y-134843000D01*
X115144033Y-134843000D01*
X115459912Y-134780168D01*
X115757463Y-134656918D01*
X116025252Y-134477987D01*
X116252987Y-134250252D01*
X116431918Y-133982463D01*
X116555168Y-133684912D01*
X116618000Y-133369033D01*
X116618000Y-133046967D01*
X116616298Y-133038412D01*
X116923251Y-132731460D01*
X124729578Y-132731460D01*
X124702237Y-132772379D01*
X124580871Y-133065380D01*
X124519000Y-133376429D01*
X124519000Y-133693571D01*
X124580871Y-134004620D01*
X124702237Y-134297621D01*
X124878431Y-134561315D01*
X125102685Y-134785569D01*
X125366379Y-134961763D01*
X125659380Y-135083129D01*
X125970429Y-135145000D01*
X126287571Y-135145000D01*
X126598620Y-135083129D01*
X126891621Y-134961763D01*
X127155315Y-134785569D01*
X127379569Y-134561315D01*
X127555763Y-134297621D01*
X127677129Y-134004620D01*
X127739000Y-133693571D01*
X127739000Y-133376429D01*
X127677129Y-133065380D01*
X127555763Y-132772379D01*
X127528422Y-132731460D01*
X130825578Y-132731460D01*
X130798237Y-132772379D01*
X130676871Y-133065380D01*
X130615000Y-133376429D01*
X130615000Y-133693571D01*
X130676871Y-134004620D01*
X130798237Y-134297621D01*
X130974431Y-134561315D01*
X131198685Y-134785569D01*
X131462379Y-134961763D01*
X131755380Y-135083129D01*
X132066429Y-135145000D01*
X132383571Y-135145000D01*
X132694620Y-135083129D01*
X132987621Y-134961763D01*
X133251315Y-134785569D01*
X133475569Y-134561315D01*
X133651763Y-134297621D01*
X133773129Y-134004620D01*
X133835000Y-133693571D01*
X133835000Y-133376429D01*
X133773129Y-133065380D01*
X133651763Y-132772379D01*
X133624422Y-132731460D01*
X144193000Y-132731460D01*
X144193000Y-133089656D01*
X144265439Y-133453834D01*
X144407534Y-133796882D01*
X144613825Y-134105618D01*
X144876382Y-134368175D01*
X145185118Y-134574466D01*
X145528166Y-134716561D01*
X145892344Y-134789000D01*
X146263656Y-134789000D01*
X146627834Y-134716561D01*
X146970882Y-134574466D01*
X147279618Y-134368175D01*
X147542175Y-134105618D01*
X147748466Y-133796882D01*
X147890561Y-133453834D01*
X147963000Y-133089656D01*
X147963000Y-132718344D01*
X147890561Y-132354166D01*
X147748466Y-132011118D01*
X147542175Y-131702382D01*
X147279618Y-131439825D01*
X146970882Y-131233534D01*
X146627834Y-131091439D01*
X146263656Y-131019000D01*
X145892344Y-131019000D01*
X145695804Y-131058094D01*
X145638267Y-131000557D01*
X145605856Y-130961064D01*
X145448257Y-130831726D01*
X145268453Y-130735619D01*
X145073355Y-130676436D01*
X144921298Y-130661460D01*
X144921288Y-130661460D01*
X144870460Y-130656454D01*
X144819632Y-130661460D01*
X116545367Y-130661460D01*
X116494539Y-130656454D01*
X116443711Y-130661460D01*
X116443702Y-130661460D01*
X116291645Y-130676436D01*
X116096547Y-130735619D01*
X116012849Y-130780356D01*
X115916742Y-130831726D01*
X115798632Y-130928657D01*
X115759144Y-130961064D01*
X115726737Y-131000552D01*
X115152588Y-131574702D01*
X115144033Y-131573000D01*
X114821967Y-131573000D01*
X114506088Y-131635832D01*
X114208537Y-131759082D01*
X113940748Y-131938013D01*
X113713013Y-132165748D01*
X113534082Y-132433537D01*
X113410832Y-132731088D01*
X113348000Y-133046967D01*
X111538000Y-133046967D01*
X111538000Y-133036967D01*
X111475168Y-132721088D01*
X111351918Y-132423537D01*
X111172987Y-132155748D01*
X110945252Y-131928013D01*
X110713000Y-131772827D01*
X110713000Y-127976109D01*
X111810100Y-127976109D01*
X111810100Y-128248931D01*
X111863325Y-128516509D01*
X111967729Y-128768563D01*
X112119301Y-128995406D01*
X112312214Y-129188319D01*
X112539057Y-129339891D01*
X112791111Y-129444295D01*
X113058689Y-129497520D01*
X113331511Y-129497520D01*
X113599089Y-129444295D01*
X113851143Y-129339891D01*
X114077986Y-129188319D01*
X114270899Y-128995406D01*
X114422471Y-128768563D01*
X114526875Y-128516509D01*
X114580100Y-128248931D01*
X114580100Y-127976109D01*
X114526875Y-127708531D01*
X114422471Y-127456477D01*
X114270899Y-127229634D01*
X114077986Y-127036721D01*
X113851143Y-126885149D01*
X113599089Y-126780745D01*
X113331511Y-126727520D01*
X113058689Y-126727520D01*
X112791111Y-126780745D01*
X112539057Y-126885149D01*
X112312214Y-127036721D01*
X112119301Y-127229634D01*
X111967729Y-127456477D01*
X111863325Y-127708531D01*
X111810100Y-127976109D01*
X110713000Y-127976109D01*
X110713000Y-124819572D01*
X111689391Y-123843182D01*
X111869358Y-123878980D01*
X112166802Y-123878980D01*
X112458531Y-123820951D01*
X112733333Y-123707124D01*
X112980649Y-123541873D01*
X113190973Y-123331549D01*
X113356224Y-123084233D01*
X113448080Y-122862474D01*
X113539936Y-123084233D01*
X113705187Y-123331549D01*
X113915511Y-123541873D01*
X114162827Y-123707124D01*
X114437629Y-123820951D01*
X114729358Y-123878980D01*
X115026802Y-123878980D01*
X115318531Y-123820951D01*
X115593333Y-123707124D01*
X115840649Y-123541873D01*
X116050973Y-123331549D01*
X116216224Y-123084233D01*
X116330051Y-122809431D01*
X116388080Y-122517702D01*
X116388080Y-122220258D01*
X116330051Y-121928529D01*
X116216224Y-121653727D01*
X116050973Y-121406411D01*
X115840649Y-121196087D01*
X115593333Y-121030836D01*
X115318531Y-120917009D01*
X115026802Y-120858980D01*
X114729358Y-120858980D01*
X114437629Y-120917009D01*
X114162827Y-121030836D01*
X113915511Y-121196087D01*
X113705187Y-121406411D01*
X113539936Y-121653727D01*
X113448080Y-121875486D01*
X113356224Y-121653727D01*
X113190973Y-121406411D01*
X112980649Y-121196087D01*
X112733333Y-121030836D01*
X112458531Y-120917009D01*
X112166802Y-120858980D01*
X111869358Y-120858980D01*
X111577629Y-120917009D01*
X111302827Y-121030836D01*
X111055511Y-121196087D01*
X110845187Y-121406411D01*
X110679936Y-121653727D01*
X110566109Y-121928529D01*
X110508080Y-122220258D01*
X110508080Y-122517702D01*
X110543878Y-122697669D01*
X109358383Y-123883165D01*
X109327473Y-123908532D01*
X109302108Y-123939440D01*
X109226251Y-124031871D01*
X109151038Y-124172587D01*
X109104721Y-124325273D01*
X109089081Y-124484060D01*
X109093001Y-124523858D01*
X109093000Y-126017209D01*
X109093000Y-126017210D01*
X109093001Y-131772827D01*
X108860748Y-131928013D01*
X108633013Y-132155748D01*
X108454082Y-132423537D01*
X108330832Y-132721088D01*
X108268000Y-133036967D01*
X107821575Y-133036967D01*
X107834737Y-101124584D01*
X119603021Y-101124584D01*
X119695766Y-101386429D01*
X119981120Y-101524820D01*
X120287990Y-101604883D01*
X120604584Y-101623540D01*
X120918733Y-101580074D01*
X121218367Y-101476156D01*
X121386234Y-101386429D01*
X121478979Y-101124584D01*
X120541000Y-100186605D01*
X119603021Y-101124584D01*
X107834737Y-101124584D01*
X107835172Y-100070584D01*
X118924460Y-100070584D01*
X118967926Y-100384733D01*
X119071844Y-100684367D01*
X119161571Y-100852234D01*
X119423416Y-100944979D01*
X120361395Y-100007000D01*
X120720605Y-100007000D01*
X121658584Y-100944979D01*
X121920429Y-100852234D01*
X122058820Y-100566880D01*
X122138883Y-100260010D01*
X122157540Y-99943416D01*
X122114074Y-99629267D01*
X122010156Y-99329633D01*
X121920429Y-99161766D01*
X121658584Y-99069021D01*
X120720605Y-100007000D01*
X120361395Y-100007000D01*
X119423416Y-99069021D01*
X119161571Y-99161766D01*
X119023180Y-99447120D01*
X118943117Y-99753990D01*
X118924460Y-100070584D01*
X107835172Y-100070584D01*
X107835443Y-99415220D01*
X109501445Y-99415220D01*
X109582105Y-99666848D01*
X109850409Y-99795247D01*
X110138606Y-99868835D01*
X110435623Y-99884784D01*
X110730043Y-99842481D01*
X111010554Y-99743552D01*
X111154055Y-99666848D01*
X111234715Y-99415220D01*
X110368080Y-98548585D01*
X109501445Y-99415220D01*
X107835443Y-99415220D01*
X107835847Y-98436523D01*
X108852276Y-98436523D01*
X108894579Y-98730943D01*
X108993508Y-99011454D01*
X109070212Y-99154955D01*
X109321840Y-99235615D01*
X110188475Y-98368980D01*
X110547685Y-98368980D01*
X111414320Y-99235615D01*
X111625792Y-99167827D01*
X111735187Y-99331549D01*
X111945511Y-99541873D01*
X112192827Y-99707124D01*
X112467629Y-99820951D01*
X112759358Y-99878980D01*
X113056802Y-99878980D01*
X113348531Y-99820951D01*
X113623333Y-99707124D01*
X113870649Y-99541873D01*
X114080973Y-99331549D01*
X114178080Y-99186218D01*
X114275187Y-99331549D01*
X114485511Y-99541873D01*
X114732827Y-99707124D01*
X115007629Y-99820951D01*
X115299358Y-99878980D01*
X115596802Y-99878980D01*
X115888531Y-99820951D01*
X116163333Y-99707124D01*
X116410649Y-99541873D01*
X116620973Y-99331549D01*
X116786224Y-99084233D01*
X116866920Y-98889416D01*
X119603021Y-98889416D01*
X120541000Y-99827395D01*
X121478979Y-98889416D01*
X121386234Y-98627571D01*
X121100880Y-98489180D01*
X120794010Y-98409117D01*
X120477416Y-98390460D01*
X120163267Y-98433926D01*
X119863633Y-98537844D01*
X119695766Y-98627571D01*
X119603021Y-98889416D01*
X116866920Y-98889416D01*
X116900051Y-98809431D01*
X116958080Y-98517702D01*
X116958080Y-98220258D01*
X116900051Y-97928529D01*
X116786224Y-97653727D01*
X116620973Y-97406411D01*
X116410649Y-97196087D01*
X116163333Y-97030836D01*
X115888531Y-96917009D01*
X115596802Y-96858980D01*
X115299358Y-96858980D01*
X115007629Y-96917009D01*
X114732827Y-97030836D01*
X114485511Y-97196087D01*
X114275187Y-97406411D01*
X114178080Y-97551742D01*
X114080973Y-97406411D01*
X113870649Y-97196087D01*
X113623333Y-97030836D01*
X113348531Y-96917009D01*
X113056802Y-96858980D01*
X112759358Y-96858980D01*
X112467629Y-96917009D01*
X112192827Y-97030836D01*
X111945511Y-97196087D01*
X111735187Y-97406411D01*
X111625792Y-97570133D01*
X111414320Y-97502345D01*
X110547685Y-98368980D01*
X110188475Y-98368980D01*
X109321840Y-97502345D01*
X109070212Y-97583005D01*
X108941813Y-97851309D01*
X108868225Y-98139506D01*
X108852276Y-98436523D01*
X107835847Y-98436523D01*
X107836306Y-97322740D01*
X109501445Y-97322740D01*
X110368080Y-98189375D01*
X111234715Y-97322740D01*
X111154055Y-97071112D01*
X110885751Y-96942713D01*
X110597554Y-96869125D01*
X110300537Y-96853176D01*
X110006117Y-96895479D01*
X109725606Y-96994408D01*
X109582105Y-97071112D01*
X109501445Y-97322740D01*
X107836306Y-97322740D01*
X107837698Y-93950400D01*
X121820928Y-93950400D01*
X121820928Y-95650400D01*
X121833188Y-95774882D01*
X121869498Y-95894580D01*
X121928463Y-96004894D01*
X122007815Y-96101585D01*
X122104506Y-96180937D01*
X122214820Y-96239902D01*
X122334518Y-96276212D01*
X122459000Y-96288472D01*
X122499000Y-96288472D01*
X122499001Y-115043502D01*
X122495081Y-115083300D01*
X122499458Y-115127734D01*
X122510721Y-115242088D01*
X122529925Y-115305395D01*
X122557038Y-115394773D01*
X122632251Y-115535489D01*
X122687852Y-115603239D01*
X122733473Y-115658828D01*
X122764383Y-115684195D01*
X123415429Y-116335241D01*
X123453074Y-116524498D01*
X123531095Y-116712856D01*
X123644363Y-116882374D01*
X123788526Y-117026537D01*
X123958044Y-117139805D01*
X124146402Y-117217826D01*
X124346361Y-117257600D01*
X124550239Y-117257600D01*
X124750198Y-117217826D01*
X124938556Y-117139805D01*
X125108074Y-117026537D01*
X125252237Y-116882374D01*
X125365505Y-116712856D01*
X125443526Y-116524498D01*
X125483300Y-116324539D01*
X125483300Y-116120661D01*
X125443526Y-115920702D01*
X125365505Y-115732344D01*
X125252237Y-115562826D01*
X125108074Y-115418663D01*
X124938556Y-115305395D01*
X124750198Y-115227374D01*
X124560941Y-115189729D01*
X124119000Y-114747788D01*
X124119000Y-96288472D01*
X124159000Y-96288472D01*
X124283482Y-96276212D01*
X124403180Y-96239902D01*
X124513494Y-96180937D01*
X124610185Y-96101585D01*
X124689537Y-96004894D01*
X124748502Y-95894580D01*
X124770513Y-95822020D01*
X124902368Y-95953875D01*
X125145589Y-96116390D01*
X125415842Y-96228332D01*
X125702740Y-96285400D01*
X125995260Y-96285400D01*
X126282158Y-96228332D01*
X126552411Y-96116390D01*
X126795632Y-95953875D01*
X127002475Y-95747032D01*
X127119000Y-95572640D01*
X127235525Y-95747032D01*
X127354000Y-95865507D01*
X127354001Y-105227862D01*
X127348994Y-105278700D01*
X127368977Y-105481595D01*
X127428160Y-105676693D01*
X127524266Y-105856497D01*
X127563317Y-105904080D01*
X127653605Y-106014096D01*
X127693093Y-106046503D01*
X131945001Y-110298411D01*
X131897425Y-110303097D01*
X131848552Y-110317923D01*
X131798422Y-110327894D01*
X131751198Y-110347455D01*
X131702327Y-110362280D01*
X131657284Y-110386356D01*
X131610064Y-110405915D01*
X131567572Y-110434307D01*
X131522523Y-110458386D01*
X131483036Y-110490792D01*
X131440546Y-110519183D01*
X131404412Y-110555317D01*
X131364924Y-110587724D01*
X131332517Y-110627212D01*
X131296383Y-110663346D01*
X131267992Y-110705836D01*
X131235586Y-110745323D01*
X131211507Y-110790372D01*
X131183115Y-110832864D01*
X131163556Y-110880084D01*
X131139480Y-110925127D01*
X131124655Y-110973998D01*
X131105094Y-111021222D01*
X131095123Y-111071352D01*
X131080297Y-111120225D01*
X131075291Y-111171053D01*
X131065320Y-111221181D01*
X131065320Y-111272292D01*
X131060314Y-111323120D01*
X131065320Y-111373948D01*
X131065320Y-111425059D01*
X131075291Y-111475187D01*
X131080297Y-111526015D01*
X131095123Y-111574888D01*
X131105094Y-111625018D01*
X131124655Y-111672242D01*
X131139480Y-111721113D01*
X131163556Y-111766156D01*
X131183115Y-111813376D01*
X131211507Y-111855868D01*
X131235586Y-111900917D01*
X131267991Y-111940403D01*
X131296383Y-111982894D01*
X131440546Y-112127057D01*
X131440549Y-112127059D01*
X131982261Y-112668772D01*
X131982260Y-123070592D01*
X131977254Y-123121420D01*
X131982260Y-123172248D01*
X131982260Y-123172257D01*
X131997236Y-123324314D01*
X132056419Y-123519412D01*
X132152526Y-123699217D01*
X132281864Y-123856816D01*
X132321357Y-123889227D01*
X135393403Y-126961274D01*
X135537566Y-127105437D01*
X135580052Y-127133825D01*
X135619542Y-127166234D01*
X135664596Y-127190316D01*
X135707084Y-127218705D01*
X135754299Y-127238262D01*
X135799346Y-127262340D01*
X135848221Y-127277166D01*
X135895442Y-127296726D01*
X135945569Y-127306697D01*
X135994444Y-127321523D01*
X136045274Y-127326529D01*
X136095401Y-127336500D01*
X136146511Y-127336500D01*
X136197339Y-127341506D01*
X136248167Y-127336500D01*
X136299279Y-127336500D01*
X136349408Y-127326529D01*
X136400234Y-127321523D01*
X136449106Y-127306698D01*
X136499238Y-127296726D01*
X136546463Y-127277165D01*
X136595333Y-127262340D01*
X136640376Y-127238264D01*
X136687596Y-127218705D01*
X136730088Y-127190313D01*
X136775137Y-127166234D01*
X136814621Y-127133830D01*
X136857114Y-127105437D01*
X136893256Y-127069295D01*
X136932735Y-127036895D01*
X136965135Y-126997416D01*
X137001277Y-126961274D01*
X137029670Y-126918781D01*
X137062074Y-126879297D01*
X137086153Y-126834248D01*
X137114545Y-126791756D01*
X137134104Y-126744536D01*
X137158180Y-126699493D01*
X137173005Y-126650623D01*
X137192566Y-126603398D01*
X137202538Y-126553266D01*
X137217363Y-126504394D01*
X137222369Y-126453568D01*
X137232340Y-126403439D01*
X137232340Y-126352327D01*
X137237346Y-126301499D01*
X137232340Y-126250671D01*
X137232340Y-126199561D01*
X137222369Y-126149434D01*
X137217363Y-126098604D01*
X137202537Y-126049729D01*
X137192566Y-125999602D01*
X137173006Y-125952381D01*
X137158180Y-125903506D01*
X137134102Y-125858459D01*
X137114545Y-125811244D01*
X137086156Y-125768756D01*
X137062074Y-125723702D01*
X137029665Y-125684212D01*
X137001277Y-125641726D01*
X136857114Y-125497563D01*
X134052260Y-122692710D01*
X134052260Y-112290895D01*
X134057267Y-112240060D01*
X134053538Y-112202201D01*
X134056029Y-112202697D01*
X134104904Y-112217523D01*
X134155734Y-112222529D01*
X134205861Y-112232500D01*
X134256971Y-112232500D01*
X134307799Y-112237506D01*
X134358627Y-112232500D01*
X134409739Y-112232500D01*
X134459868Y-112222529D01*
X134510694Y-112217523D01*
X134559566Y-112202698D01*
X134609698Y-112192726D01*
X134656923Y-112173165D01*
X134705793Y-112158340D01*
X134750836Y-112134264D01*
X134798056Y-112114705D01*
X134840548Y-112086313D01*
X134885597Y-112062234D01*
X134925081Y-112029830D01*
X134967574Y-112001437D01*
X135003716Y-111965295D01*
X135043195Y-111932895D01*
X135075595Y-111893416D01*
X135111737Y-111857274D01*
X135140130Y-111814781D01*
X135172534Y-111775297D01*
X135196613Y-111730248D01*
X135225005Y-111687756D01*
X135244564Y-111640536D01*
X135268640Y-111595493D01*
X135283465Y-111546623D01*
X135303026Y-111499398D01*
X135312998Y-111449266D01*
X135327823Y-111400394D01*
X135332829Y-111349568D01*
X135342800Y-111299439D01*
X135342800Y-111248327D01*
X135347806Y-111197499D01*
X135342800Y-111146671D01*
X135342800Y-111095561D01*
X135332829Y-111045434D01*
X135327823Y-110994604D01*
X135312997Y-110945729D01*
X135303026Y-110895602D01*
X135283466Y-110848381D01*
X135268640Y-110799506D01*
X135244562Y-110754459D01*
X135225005Y-110707244D01*
X135196616Y-110664756D01*
X135172534Y-110619702D01*
X135140125Y-110580212D01*
X135111737Y-110537726D01*
X134967574Y-110393563D01*
X132544654Y-107970644D01*
X132577507Y-107964109D01*
X132628335Y-107959103D01*
X132677208Y-107944277D01*
X132727338Y-107934306D01*
X132774562Y-107914745D01*
X132823433Y-107899920D01*
X132868476Y-107875844D01*
X132915696Y-107856285D01*
X132958188Y-107827893D01*
X133003237Y-107803814D01*
X133042723Y-107771409D01*
X133085214Y-107743017D01*
X133229377Y-107598854D01*
X133229379Y-107598851D01*
X134160208Y-106668023D01*
X134199696Y-106635616D01*
X134277274Y-106541087D01*
X134329034Y-106478018D01*
X134391429Y-106361283D01*
X134425141Y-106298213D01*
X134484324Y-106103115D01*
X134499300Y-105951058D01*
X134499300Y-105951056D01*
X134504307Y-105900220D01*
X134499300Y-105849385D01*
X134499300Y-104805139D01*
X134489331Y-104755021D01*
X134484324Y-104704183D01*
X134469496Y-104655301D01*
X134459526Y-104605180D01*
X134452485Y-104588180D01*
X141029814Y-104588180D01*
X141034820Y-104639008D01*
X141034821Y-121894682D01*
X141029814Y-121945520D01*
X141049797Y-122148415D01*
X141108980Y-122343513D01*
X141205086Y-122523317D01*
X141302017Y-122641427D01*
X141334425Y-122680916D01*
X141373912Y-122713323D01*
X144692208Y-126031619D01*
X144583820Y-126064498D01*
X144473506Y-126123463D01*
X144376815Y-126202815D01*
X144297463Y-126299506D01*
X144238498Y-126409820D01*
X144202188Y-126529518D01*
X144189928Y-126654000D01*
X144189928Y-129154000D01*
X144202188Y-129278482D01*
X144238498Y-129398180D01*
X144297463Y-129508494D01*
X144376815Y-129605185D01*
X144473506Y-129684537D01*
X144583820Y-129743502D01*
X144703518Y-129779812D01*
X144828000Y-129792072D01*
X147328000Y-129792072D01*
X147452482Y-129779812D01*
X147572180Y-129743502D01*
X147682494Y-129684537D01*
X147779185Y-129605185D01*
X147858537Y-129508494D01*
X147917502Y-129398180D01*
X147953812Y-129278482D01*
X147966072Y-129154000D01*
X147966072Y-126654000D01*
X147953812Y-126529518D01*
X147917502Y-126409820D01*
X147858537Y-126299506D01*
X147779185Y-126202815D01*
X147682494Y-126123463D01*
X147572180Y-126064498D01*
X147452482Y-126028188D01*
X147328000Y-126015928D01*
X147113000Y-126015928D01*
X147113000Y-126004535D01*
X147118007Y-125953700D01*
X147112542Y-125898212D01*
X147098024Y-125750805D01*
X147052615Y-125601115D01*
X147038841Y-125555706D01*
X146942734Y-125375902D01*
X146845803Y-125257792D01*
X146813396Y-125218304D01*
X146773908Y-125185897D01*
X143104820Y-121516810D01*
X143104820Y-105016890D01*
X145644805Y-102476906D01*
X145841344Y-102516000D01*
X146212656Y-102516000D01*
X146576834Y-102443561D01*
X146919882Y-102301466D01*
X147228618Y-102095175D01*
X147491175Y-101832618D01*
X147697466Y-101523882D01*
X147839561Y-101180834D01*
X147912000Y-100816656D01*
X147912000Y-100445344D01*
X147839561Y-100081166D01*
X147749367Y-99863417D01*
X149211081Y-101325132D01*
X149211081Y-107674390D01*
X149089903Y-107447683D01*
X148854345Y-107160655D01*
X148567317Y-106925097D01*
X148239848Y-106750061D01*
X147884524Y-106642275D01*
X147607597Y-106615000D01*
X145422403Y-106615000D01*
X145145476Y-106642275D01*
X144790152Y-106750061D01*
X144462683Y-106925097D01*
X144175655Y-107160655D01*
X143940097Y-107447683D01*
X143765061Y-107775152D01*
X143657275Y-108130476D01*
X143620880Y-108500000D01*
X143657275Y-108869524D01*
X143765061Y-109224848D01*
X143940097Y-109552317D01*
X144175655Y-109839345D01*
X144462683Y-110074903D01*
X144790152Y-110249939D01*
X145145476Y-110357725D01*
X145422403Y-110385000D01*
X147607597Y-110385000D01*
X147884524Y-110357725D01*
X148239848Y-110249939D01*
X148567317Y-110074903D01*
X148854345Y-109839345D01*
X149089903Y-109552317D01*
X149211080Y-109325610D01*
X149211080Y-113124389D01*
X149089903Y-112897683D01*
X148854345Y-112610655D01*
X148567317Y-112375097D01*
X148239848Y-112200061D01*
X147884524Y-112092275D01*
X147607597Y-112065000D01*
X145422403Y-112065000D01*
X145145476Y-112092275D01*
X144790152Y-112200061D01*
X144462683Y-112375097D01*
X144175655Y-112610655D01*
X143940097Y-112897683D01*
X143765061Y-113225152D01*
X143657275Y-113580476D01*
X143620880Y-113950000D01*
X143657275Y-114319524D01*
X143765061Y-114674848D01*
X143940097Y-115002317D01*
X144175655Y-115289345D01*
X144462683Y-115524903D01*
X144790152Y-115699939D01*
X145145476Y-115807725D01*
X145422403Y-115835000D01*
X147607597Y-115835000D01*
X147884524Y-115807725D01*
X147905999Y-115801211D01*
X147686310Y-116020900D01*
X147020315Y-116020900D01*
X146969480Y-116015893D01*
X146918645Y-116020900D01*
X146918642Y-116020900D01*
X146766585Y-116035876D01*
X146571487Y-116095059D01*
X146391683Y-116191166D01*
X146234084Y-116320504D01*
X146201673Y-116359997D01*
X145819093Y-116742577D01*
X145779605Y-116774984D01*
X145747198Y-116814472D01*
X145747197Y-116814473D01*
X145650266Y-116932583D01*
X145554160Y-117112387D01*
X145494977Y-117307485D01*
X145474994Y-117510380D01*
X145475146Y-117511928D01*
X144265000Y-117511928D01*
X144140518Y-117524188D01*
X144020820Y-117560498D01*
X143910506Y-117619463D01*
X143813815Y-117698815D01*
X143734463Y-117795506D01*
X143675498Y-117905820D01*
X143639188Y-118025518D01*
X143626928Y-118150000D01*
X143626928Y-120650000D01*
X143639188Y-120774482D01*
X143675498Y-120894180D01*
X143734463Y-121004494D01*
X143813815Y-121101185D01*
X143910506Y-121180537D01*
X144020820Y-121239502D01*
X144140518Y-121275812D01*
X144265000Y-121288072D01*
X148765000Y-121288072D01*
X148889482Y-121275812D01*
X149009180Y-121239502D01*
X149119494Y-121180537D01*
X149216185Y-121101185D01*
X149295537Y-121004494D01*
X149354502Y-120894180D01*
X149390812Y-120774482D01*
X149403072Y-120650000D01*
X149403072Y-118150000D01*
X149390812Y-118025518D01*
X149354502Y-117905820D01*
X149295537Y-117795506D01*
X149216185Y-117698815D01*
X149119494Y-117619463D01*
X149051507Y-117583123D01*
X150941988Y-115692643D01*
X150981476Y-115660236D01*
X151013883Y-115620748D01*
X151110814Y-115502638D01*
X151206920Y-115322834D01*
X151206921Y-115322833D01*
X151266104Y-115127735D01*
X151281080Y-114975678D01*
X151281080Y-114975676D01*
X151286087Y-114924840D01*
X151281080Y-114874005D01*
X151281080Y-100947247D01*
X151286086Y-100896419D01*
X151281080Y-100845591D01*
X151281080Y-100845582D01*
X151266104Y-100693525D01*
X151206921Y-100498427D01*
X151154768Y-100400855D01*
X151110814Y-100318622D01*
X151013883Y-100200512D01*
X150981476Y-100161024D01*
X150941988Y-100128617D01*
X147883271Y-97069901D01*
X147902812Y-97005482D01*
X147915072Y-96881000D01*
X147915072Y-94381000D01*
X147902812Y-94256518D01*
X147866502Y-94136820D01*
X147807537Y-94026506D01*
X147728185Y-93929815D01*
X147631494Y-93850463D01*
X147521180Y-93791498D01*
X147401482Y-93755188D01*
X147277000Y-93742928D01*
X144777000Y-93742928D01*
X144652518Y-93755188D01*
X144532820Y-93791498D01*
X144422506Y-93850463D01*
X144325815Y-93929815D01*
X144246463Y-94026506D01*
X144187498Y-94136820D01*
X144151188Y-94256518D01*
X144138928Y-94381000D01*
X144138928Y-96881000D01*
X144151188Y-97005482D01*
X144187498Y-97125180D01*
X144246463Y-97235494D01*
X144325815Y-97332185D01*
X144422506Y-97411537D01*
X144532820Y-97470502D01*
X144652518Y-97506812D01*
X144777000Y-97519072D01*
X145405022Y-97519072D01*
X146794583Y-98908634D01*
X146576834Y-98818439D01*
X146212656Y-98746000D01*
X145841344Y-98746000D01*
X145477166Y-98818439D01*
X145134118Y-98960534D01*
X144825382Y-99166825D01*
X144562825Y-99429382D01*
X144356534Y-99738118D01*
X144214439Y-100081166D01*
X144142000Y-100445344D01*
X144142000Y-100816656D01*
X144181094Y-101013195D01*
X141373917Y-103820373D01*
X141334424Y-103852784D01*
X141205086Y-104010383D01*
X141108979Y-104190188D01*
X141049796Y-104385286D01*
X141034820Y-104537343D01*
X141034820Y-104537352D01*
X141029814Y-104588180D01*
X134452485Y-104588180D01*
X134439969Y-104557965D01*
X134425141Y-104509085D01*
X134401062Y-104464036D01*
X134381505Y-104416822D01*
X134353114Y-104374332D01*
X134329034Y-104329281D01*
X134296628Y-104289794D01*
X134268237Y-104247304D01*
X134232103Y-104211170D01*
X134199696Y-104171682D01*
X134160208Y-104139275D01*
X134124074Y-104103141D01*
X134081584Y-104074750D01*
X134042097Y-104042344D01*
X133997046Y-104018264D01*
X133954556Y-103989873D01*
X133907342Y-103970316D01*
X133862293Y-103946237D01*
X133813413Y-103931409D01*
X133766198Y-103911852D01*
X133716077Y-103901882D01*
X133667195Y-103887054D01*
X133616357Y-103882047D01*
X133566239Y-103872078D01*
X133515138Y-103872078D01*
X133464300Y-103867071D01*
X133413462Y-103872078D01*
X133362361Y-103872078D01*
X133312242Y-103882047D01*
X133261406Y-103887054D01*
X133212526Y-103901882D01*
X133162402Y-103911852D01*
X133115184Y-103931410D01*
X133066308Y-103946237D01*
X133021262Y-103970315D01*
X132974044Y-103989873D01*
X132931550Y-104018266D01*
X132886504Y-104042344D01*
X132847021Y-104074747D01*
X132804526Y-104103141D01*
X132768387Y-104139280D01*
X132728905Y-104171682D01*
X132696503Y-104211164D01*
X132660363Y-104247304D01*
X132631968Y-104289800D01*
X132599567Y-104329281D01*
X132575491Y-104374325D01*
X132547095Y-104416822D01*
X132527535Y-104464044D01*
X132503460Y-104509085D01*
X132488635Y-104557956D01*
X132469074Y-104605180D01*
X132459103Y-104655310D01*
X132444277Y-104704183D01*
X132439271Y-104755011D01*
X132429300Y-104805139D01*
X132429300Y-105009017D01*
X132429301Y-105009021D01*
X132429300Y-105471509D01*
X131765669Y-106135141D01*
X131765666Y-106135143D01*
X131621503Y-106279306D01*
X131593111Y-106321797D01*
X131560706Y-106361283D01*
X131536627Y-106406332D01*
X131508235Y-106448824D01*
X131488676Y-106496044D01*
X131464600Y-106541087D01*
X131449775Y-106589958D01*
X131430214Y-106637182D01*
X131420243Y-106687312D01*
X131405417Y-106736185D01*
X131400411Y-106787013D01*
X131393876Y-106819866D01*
X129424000Y-104849990D01*
X129424000Y-101755795D01*
X129445755Y-101808316D01*
X129559023Y-101977834D01*
X129703186Y-102121997D01*
X129872704Y-102235265D01*
X130061062Y-102313286D01*
X130261021Y-102353060D01*
X130464899Y-102353060D01*
X130664858Y-102313286D01*
X130853216Y-102235265D01*
X131022734Y-102121997D01*
X131166897Y-101977834D01*
X131280165Y-101808316D01*
X131358186Y-101619958D01*
X131395831Y-101430702D01*
X131473617Y-101352915D01*
X131504528Y-101327548D01*
X131605749Y-101204209D01*
X131680963Y-101063493D01*
X131727280Y-100910808D01*
X131739000Y-100791811D01*
X131739000Y-100791809D01*
X131742919Y-100752021D01*
X131739000Y-100712233D01*
X131739000Y-96045170D01*
X131875632Y-95953875D01*
X132082475Y-95747032D01*
X132199000Y-95572640D01*
X132315525Y-95747032D01*
X132522368Y-95953875D01*
X132659000Y-96045170D01*
X132659001Y-98224802D01*
X132655081Y-98264600D01*
X132670721Y-98423387D01*
X132717038Y-98576073D01*
X132792251Y-98716789D01*
X132847852Y-98784539D01*
X132893473Y-98840128D01*
X132924383Y-98865495D01*
X134610505Y-100551618D01*
X134635872Y-100582528D01*
X134666780Y-100607893D01*
X134759211Y-100683749D01*
X134899926Y-100758963D01*
X134935463Y-100769743D01*
X135052612Y-100805280D01*
X135171609Y-100817000D01*
X135171612Y-100817000D01*
X135211400Y-100820919D01*
X135251188Y-100817000D01*
X136199928Y-100817000D01*
X136199928Y-100982000D01*
X136212188Y-101106482D01*
X136248498Y-101226180D01*
X136307463Y-101336494D01*
X136386815Y-101433185D01*
X136483506Y-101512537D01*
X136593820Y-101571502D01*
X136713518Y-101607812D01*
X136838000Y-101620072D01*
X138788000Y-101620072D01*
X138912482Y-101607812D01*
X139032180Y-101571502D01*
X139142494Y-101512537D01*
X139239185Y-101433185D01*
X139318537Y-101336494D01*
X139377502Y-101226180D01*
X139413812Y-101106482D01*
X139426072Y-100982000D01*
X139426072Y-99032000D01*
X139413812Y-98907518D01*
X139377502Y-98787820D01*
X139318537Y-98677506D01*
X139239185Y-98580815D01*
X139142494Y-98501463D01*
X139032180Y-98442498D01*
X138912482Y-98406188D01*
X138788000Y-98393928D01*
X136838000Y-98393928D01*
X136713518Y-98406188D01*
X136593820Y-98442498D01*
X136483506Y-98501463D01*
X136386815Y-98580815D01*
X136307463Y-98677506D01*
X136248498Y-98787820D01*
X136212188Y-98907518D01*
X136199928Y-99032000D01*
X136199928Y-99197000D01*
X135546913Y-99197000D01*
X134279000Y-97929088D01*
X134279000Y-96045170D01*
X134415632Y-95953875D01*
X134622475Y-95747032D01*
X134744195Y-95564866D01*
X134813822Y-95681755D01*
X135008731Y-95897988D01*
X135242080Y-96072041D01*
X135504901Y-96197225D01*
X135652110Y-96241876D01*
X135882000Y-96120555D01*
X135882000Y-94927400D01*
X136136000Y-94927400D01*
X136136000Y-96120555D01*
X136365890Y-96241876D01*
X136513099Y-96197225D01*
X136775920Y-96072041D01*
X137009269Y-95897988D01*
X137204178Y-95681755D01*
X137353157Y-95431652D01*
X137450481Y-95157291D01*
X137329814Y-94927400D01*
X136136000Y-94927400D01*
X135882000Y-94927400D01*
X135862000Y-94927400D01*
X135862000Y-94673400D01*
X135882000Y-94673400D01*
X135882000Y-93480245D01*
X136136000Y-93480245D01*
X136136000Y-94673400D01*
X137329814Y-94673400D01*
X137450481Y-94443509D01*
X137353157Y-94169148D01*
X137204178Y-93919045D01*
X137009269Y-93702812D01*
X136775920Y-93528759D01*
X136513099Y-93403575D01*
X136365890Y-93358924D01*
X136136000Y-93480245D01*
X135882000Y-93480245D01*
X135652110Y-93358924D01*
X135504901Y-93403575D01*
X135242080Y-93528759D01*
X135008731Y-93702812D01*
X134813822Y-93919045D01*
X134744195Y-94035934D01*
X134622475Y-93853768D01*
X134415632Y-93646925D01*
X134172411Y-93484410D01*
X133902158Y-93372468D01*
X133615260Y-93315400D01*
X133322740Y-93315400D01*
X133035842Y-93372468D01*
X132765589Y-93484410D01*
X132522368Y-93646925D01*
X132315525Y-93853768D01*
X132199000Y-94028160D01*
X132082475Y-93853768D01*
X131875632Y-93646925D01*
X131632411Y-93484410D01*
X131362158Y-93372468D01*
X131075260Y-93315400D01*
X130782740Y-93315400D01*
X130495842Y-93372468D01*
X130225589Y-93484410D01*
X129982368Y-93646925D01*
X129775525Y-93853768D01*
X129659000Y-94028160D01*
X129542475Y-93853768D01*
X129335632Y-93646925D01*
X129092411Y-93484410D01*
X128822158Y-93372468D01*
X128535260Y-93315400D01*
X128242740Y-93315400D01*
X127955842Y-93372468D01*
X127685589Y-93484410D01*
X127442368Y-93646925D01*
X127235525Y-93853768D01*
X127119000Y-94028160D01*
X127002475Y-93853768D01*
X126795632Y-93646925D01*
X126552411Y-93484410D01*
X126282158Y-93372468D01*
X125995260Y-93315400D01*
X125702740Y-93315400D01*
X125415842Y-93372468D01*
X125145589Y-93484410D01*
X124902368Y-93646925D01*
X124770513Y-93778780D01*
X124748502Y-93706220D01*
X124689537Y-93595906D01*
X124610185Y-93499215D01*
X124513494Y-93419863D01*
X124403180Y-93360898D01*
X124283482Y-93324588D01*
X124159000Y-93312328D01*
X122459000Y-93312328D01*
X122334518Y-93324588D01*
X122214820Y-93360898D01*
X122104506Y-93419863D01*
X122007815Y-93499215D01*
X121928463Y-93595906D01*
X121869498Y-93706220D01*
X121833188Y-93825918D01*
X121820928Y-93950400D01*
X107837698Y-93950400D01*
X107838212Y-92705389D01*
X151826057Y-92864482D01*
G37*
G04 #@! TD.AperFunction*
M02*
