G04 #@! TF.GenerationSoftware,KiCad,Pcbnew,5.1.7-a382d34a8~88~ubuntu18.04.1*
G04 #@! TF.CreationDate,2021-07-23T19:11:00+05:30*
G04 #@! TF.ProjectId,BackEnd_HeavyDevice_v2,4261636b-456e-4645-9f48-656176794465,rev?*
G04 #@! TF.SameCoordinates,Original*
G04 #@! TF.FileFunction,Other,Fab,Top*
%FSLAX46Y46*%
G04 Gerber Fmt 4.6, Leading zero omitted, Abs format (unit mm)*
G04 Created by KiCad (PCBNEW 5.1.7-a382d34a8~88~ubuntu18.04.1) date 2021-07-23 19:11:00*
%MOMM*%
%LPD*%
G01*
G04 APERTURE LIST*
%ADD10C,0.127000*%
%ADD11C,0.400000*%
%ADD12C,0.100000*%
G04 APERTURE END LIST*
D10*
X118271000Y-97633000D02*
X140099000Y-97633000D01*
X140099000Y-97633000D02*
X140083000Y-135313000D01*
X140083000Y-135313000D02*
X118271000Y-135313000D01*
X118271000Y-135313000D02*
X118271000Y-97633000D01*
D11*
X139537000Y-98229000D02*
G75*
G03*
X139537000Y-98229000I-200000J0D01*
G01*
D12*
X116693000Y-135208000D02*
X116693000Y-131208000D01*
X108193000Y-135208000D02*
X116693000Y-135208000D01*
X108193000Y-131208000D02*
X108193000Y-135208000D01*
X116693000Y-131208000D02*
X108193000Y-131208000D01*
X144615000Y-123950000D02*
X149615000Y-123950000D01*
X149615000Y-123950000D02*
X149615000Y-103950000D01*
X149615000Y-103950000D02*
X144615000Y-103950000D01*
X144615000Y-103950000D02*
X144615000Y-123950000D01*
X146615000Y-123950000D02*
X146615000Y-103950000D01*
X144615000Y-115600000D02*
X146615000Y-115600000D01*
X144615000Y-112300000D02*
X146615000Y-112300000D01*
X122039000Y-95435400D02*
X122039000Y-93530400D01*
X122039000Y-93530400D02*
X137279000Y-93530400D01*
X137279000Y-93530400D02*
X137279000Y-96070400D01*
X137279000Y-96070400D02*
X122674000Y-96070400D01*
X122674000Y-96070400D02*
X122039000Y-95435400D01*
M02*
