G04 #@! TF.GenerationSoftware,KiCad,Pcbnew,5.1.7-a382d34a8~88~ubuntu18.04.1*
G04 #@! TF.CreationDate,2021-07-23T19:11:00+05:30*
G04 #@! TF.ProjectId,BackEnd_HeavyDevice_v2,4261636b-456e-4645-9f48-656176794465,rev?*
G04 #@! TF.SameCoordinates,Original*
G04 #@! TF.FileFunction,Other,Fab,Bot*
%FSLAX46Y46*%
G04 Gerber Fmt 4.6, Leading zero omitted, Abs format (unit mm)*
G04 Created by KiCad (PCBNEW 5.1.7-a382d34a8~88~ubuntu18.04.1) date 2021-07-23 19:11:00*
%MOMM*%
%LPD*%
G01*
G04 APERTURE LIST*
%ADD10C,0.100000*%
G04 APERTURE END LIST*
D10*
X138134000Y-104737000D02*
X136134000Y-104737000D01*
X136134000Y-104737000D02*
X136134000Y-105977000D01*
X136134000Y-105977000D02*
X138134000Y-105977000D01*
X138134000Y-105977000D02*
X138134000Y-104737000D01*
X138136000Y-127874000D02*
X138136000Y-127674000D01*
X138136000Y-128174000D02*
X138136000Y-128374000D01*
X138336000Y-128174000D02*
X137936000Y-128174000D01*
X137936000Y-127874000D02*
X138336000Y-127874000D01*
X138136000Y-128174000D02*
X137936000Y-127874000D01*
X138336000Y-127874000D02*
X138136000Y-128174000D01*
X137486000Y-129074000D02*
X138786000Y-129074000D01*
X137486000Y-127074000D02*
X137486000Y-129074000D01*
X138786000Y-127074000D02*
X137486000Y-127074000D01*
X138786000Y-129074000D02*
X138786000Y-127074000D01*
X135261000Y-103772000D02*
X135261000Y-102532000D01*
X133261000Y-103772000D02*
X135261000Y-103772000D01*
X133261000Y-102532000D02*
X133261000Y-103772000D01*
X135261000Y-102532000D02*
X133261000Y-102532000D01*
X129259000Y-104854000D02*
X127259000Y-104854000D01*
X127259000Y-104854000D02*
X127259000Y-106094000D01*
X127259000Y-106094000D02*
X129259000Y-106094000D01*
X129259000Y-106094000D02*
X129259000Y-104854000D01*
X131996000Y-127848000D02*
X131996000Y-129088000D01*
X133996000Y-127848000D02*
X131996000Y-127848000D01*
X133996000Y-129088000D02*
X133996000Y-127848000D01*
X131996000Y-129088000D02*
X133996000Y-129088000D01*
X130426000Y-114899000D02*
X135776000Y-114899000D01*
X135776000Y-114899000D02*
X135776000Y-107279000D01*
X135776000Y-107279000D02*
X129426000Y-107279000D01*
X129426000Y-107279000D02*
X129426000Y-113899000D01*
X129426000Y-113899000D02*
X130426000Y-114899000D01*
X127521000Y-114959000D02*
X127521000Y-107219000D01*
X127521000Y-107219000D02*
X137681000Y-107219000D01*
X137681000Y-107219000D02*
X137681000Y-114959000D01*
X137681000Y-114959000D02*
X127521000Y-114959000D01*
X125757000Y-102374000D02*
X128857000Y-102374000D01*
X128857000Y-102374000D02*
X128857000Y-100574000D01*
X126407000Y-100574000D02*
X128857000Y-100574000D01*
X125757000Y-102374000D02*
X125757000Y-101224000D01*
X126407000Y-100574000D02*
X125757000Y-101224000D01*
X137470000Y-125000000D02*
X127310000Y-125000000D01*
X137470000Y-117260000D02*
X137470000Y-125000000D01*
X127310000Y-117260000D02*
X137470000Y-117260000D01*
X127310000Y-125000000D02*
X127310000Y-117260000D01*
X129215000Y-123940000D02*
X130215000Y-124940000D01*
X129215000Y-117320000D02*
X129215000Y-123940000D01*
X135565000Y-117320000D02*
X129215000Y-117320000D01*
X135565000Y-124940000D02*
X135565000Y-117320000D01*
X130215000Y-124940000D02*
X135565000Y-124940000D01*
M02*
