G04 #@! TF.GenerationSoftware,KiCad,Pcbnew,5.1.7-a382d34a8~88~ubuntu18.04.1*
G04 #@! TF.CreationDate,2021-07-23T19:11:00+05:30*
G04 #@! TF.ProjectId,BackEnd_HeavyDevice_v2,4261636b-456e-4645-9f48-656176794465,rev?*
G04 #@! TF.SameCoordinates,Original*
G04 #@! TF.FileFunction,Legend,Top*
G04 #@! TF.FilePolarity,Positive*
%FSLAX46Y46*%
G04 Gerber Fmt 4.6, Leading zero omitted, Abs format (unit mm)*
G04 Created by KiCad (PCBNEW 5.1.7-a382d34a8~88~ubuntu18.04.1) date 2021-07-23 19:11:00*
%MOMM*%
%LPD*%
G01*
G04 APERTURE LIST*
%ADD10C,0.127000*%
%ADD11C,0.400000*%
%ADD12C,0.120000*%
%ADD13C,0.150000*%
G04 APERTURE END LIST*
D10*
X118271000Y-97633000D02*
X140099000Y-97633000D01*
X140099000Y-97633000D02*
X140083000Y-135313000D01*
X140083000Y-135313000D02*
X118271000Y-135313000D01*
X118271000Y-135313000D02*
X118271000Y-97633000D01*
D11*
X139537000Y-98229000D02*
G75*
G03*
X139537000Y-98229000I-200000J0D01*
G01*
D12*
X108073000Y-131088000D02*
X116813000Y-131088000D01*
X108073000Y-131088000D02*
X108073000Y-135328000D01*
X116813000Y-135328000D02*
X116813000Y-131088000D01*
X116813000Y-135328000D02*
X108073000Y-135328000D01*
D13*
X147978000Y-127904000D02*
G75*
G03*
X147978000Y-127904000I-2000000J0D01*
G01*
X147978000Y-132904000D02*
G75*
G03*
X147978000Y-132904000I-2000000J0D01*
G01*
X151278000Y-125404000D02*
X141478000Y-125404000D01*
X151278000Y-135404000D02*
X151278000Y-125404000D01*
X141478000Y-135404000D02*
X151278000Y-135404000D01*
X141478000Y-125404000D02*
X141478000Y-135404000D01*
X141978000Y-125404000D02*
X141978000Y-135404000D01*
X148378000Y-125404000D02*
X148378000Y-135404000D01*
X143478000Y-125404000D02*
X143478000Y-135404000D01*
X141978000Y-130404000D02*
X141478000Y-130404000D01*
X141927000Y-98131000D02*
X141427000Y-98131000D01*
X143427000Y-93131000D02*
X143427000Y-103131000D01*
X148327000Y-93131000D02*
X148327000Y-103131000D01*
X141927000Y-93131000D02*
X141927000Y-103131000D01*
X141427000Y-93131000D02*
X141427000Y-103131000D01*
X141427000Y-103131000D02*
X151227000Y-103131000D01*
X151227000Y-103131000D02*
X151227000Y-93131000D01*
X151227000Y-93131000D02*
X141427000Y-93131000D01*
X147927000Y-100631000D02*
G75*
G03*
X147927000Y-100631000I-2000000J0D01*
G01*
X147927000Y-95631000D02*
G75*
G03*
X147927000Y-95631000I-2000000J0D01*
G01*
D12*
X144494000Y-124070000D02*
X144494000Y-120800000D01*
X144494000Y-118000000D02*
X144494000Y-115349000D01*
X144494000Y-112550000D02*
X144494000Y-109900000D01*
X144494000Y-107100000D02*
X144494000Y-103830000D01*
X149735000Y-124070000D02*
X149735000Y-103830000D01*
X144494000Y-124070000D02*
X149735000Y-124070000D01*
X144494000Y-103830000D02*
X149735000Y-103830000D01*
X146735000Y-124070000D02*
X146735000Y-120800000D01*
X146735000Y-118000000D02*
X146735000Y-115349000D01*
X146735000Y-112550000D02*
X146735000Y-109900000D01*
X146735000Y-107100000D02*
X146735000Y-103830000D01*
X144494000Y-115600000D02*
X146735000Y-115600000D01*
X144494000Y-112300000D02*
X146735000Y-112300000D01*
D13*
X117418080Y-95348980D02*
X108608080Y-95348980D01*
X117558080Y-124998980D02*
X117418080Y-95348980D01*
X108738080Y-124988980D02*
X117558080Y-124998980D01*
X108608080Y-95348980D02*
X108638080Y-125008980D01*
D12*
X137339000Y-96130400D02*
X137339000Y-93470400D01*
X124579000Y-96130400D02*
X137339000Y-96130400D01*
X124579000Y-93470400D02*
X137339000Y-93470400D01*
X124579000Y-96130400D02*
X124579000Y-93470400D01*
X123309000Y-96130400D02*
X121979000Y-96130400D01*
X121979000Y-96130400D02*
X121979000Y-94800400D01*
D13*
X126852160Y-131143193D02*
X126852160Y-129743193D01*
X127385493Y-129743193D01*
X127518826Y-129809860D01*
X127585493Y-129876526D01*
X127652160Y-130009860D01*
X127652160Y-130209860D01*
X127585493Y-130343193D01*
X127518826Y-130409860D01*
X127385493Y-130476526D01*
X126852160Y-130476526D01*
X128185493Y-131076526D02*
X128385493Y-131143193D01*
X128718826Y-131143193D01*
X128852160Y-131076526D01*
X128918826Y-131009860D01*
X128985493Y-130876526D01*
X128985493Y-130743193D01*
X128918826Y-130609860D01*
X128852160Y-130543193D01*
X128718826Y-130476526D01*
X128452160Y-130409860D01*
X128318826Y-130343193D01*
X128252160Y-130276526D01*
X128185493Y-130143193D01*
X128185493Y-130009860D01*
X128252160Y-129876526D01*
X128318826Y-129809860D01*
X128452160Y-129743193D01*
X128785493Y-129743193D01*
X128985493Y-129809860D01*
X130318826Y-131143193D02*
X129518826Y-131143193D01*
X129918826Y-131143193D02*
X129918826Y-129743193D01*
X129785493Y-129943193D01*
X129652160Y-130076526D01*
X129518826Y-130143193D01*
X118010086Y-132847011D02*
X117676753Y-132847011D01*
X117676753Y-133370820D02*
X117676753Y-132370820D01*
X118152943Y-132370820D01*
X119057705Y-133370820D02*
X118486277Y-133370820D01*
X118771991Y-133370820D02*
X118771991Y-132370820D01*
X118676753Y-132513678D01*
X118581515Y-132608916D01*
X118486277Y-132656535D01*
X139630380Y-130737333D02*
X140344666Y-130737333D01*
X140487523Y-130784952D01*
X140582761Y-130880190D01*
X140630380Y-131023047D01*
X140630380Y-131118285D01*
X139725619Y-130308761D02*
X139678000Y-130261142D01*
X139630380Y-130165904D01*
X139630380Y-129927809D01*
X139678000Y-129832571D01*
X139725619Y-129784952D01*
X139820857Y-129737333D01*
X139916095Y-129737333D01*
X140058952Y-129784952D01*
X140630380Y-130356380D01*
X140630380Y-129737333D01*
X139579380Y-98464333D02*
X140293666Y-98464333D01*
X140436523Y-98511952D01*
X140531761Y-98607190D01*
X140579380Y-98750047D01*
X140579380Y-98845285D01*
X139579380Y-97511952D02*
X139579380Y-97988142D01*
X140055571Y-98035761D01*
X140007952Y-97988142D01*
X139960333Y-97892904D01*
X139960333Y-97654809D01*
X140007952Y-97559571D01*
X140055571Y-97511952D01*
X140150809Y-97464333D01*
X140388904Y-97464333D01*
X140484142Y-97511952D01*
X140531761Y-97559571D01*
X140579380Y-97654809D01*
X140579380Y-97892904D01*
X140531761Y-97988142D01*
X140484142Y-98035761D01*
X142990761Y-114186899D02*
X142895523Y-114139280D01*
X142800285Y-114044041D01*
X142657428Y-113901184D01*
X142562190Y-113853565D01*
X142466952Y-113853565D01*
X142514571Y-114091660D02*
X142419333Y-114044041D01*
X142324095Y-113948803D01*
X142276476Y-113758327D01*
X142276476Y-113424994D01*
X142324095Y-113234518D01*
X142419333Y-113139280D01*
X142514571Y-113091660D01*
X142705047Y-113091660D01*
X142800285Y-113139280D01*
X142895523Y-113234518D01*
X142943142Y-113424994D01*
X142943142Y-113758327D01*
X142895523Y-113948803D01*
X142800285Y-114044041D01*
X142705047Y-114091660D01*
X142514571Y-114091660D01*
X143895523Y-114091660D02*
X143324095Y-114091660D01*
X143609809Y-114091660D02*
X143609809Y-113091660D01*
X143514571Y-113234518D01*
X143419333Y-113329756D01*
X143324095Y-113377375D01*
X108988955Y-93805760D02*
X108988955Y-94615284D01*
X109036574Y-94710522D01*
X109084193Y-94758141D01*
X109179431Y-94805760D01*
X109369907Y-94805760D01*
X109465145Y-94758141D01*
X109512764Y-94710522D01*
X109560383Y-94615284D01*
X109560383Y-93805760D01*
X109988955Y-93900999D02*
X110036574Y-93853380D01*
X110131812Y-93805760D01*
X110369907Y-93805760D01*
X110465145Y-93853380D01*
X110512764Y-93900999D01*
X110560383Y-93996237D01*
X110560383Y-94091475D01*
X110512764Y-94234332D01*
X109941336Y-94805760D01*
X110560383Y-94805760D01*
X120298506Y-93099620D02*
X120298506Y-93813906D01*
X120250887Y-93956763D01*
X120155649Y-94052001D01*
X120012792Y-94099620D01*
X119917554Y-94099620D01*
X120679459Y-93099620D02*
X121298506Y-93099620D01*
X120965173Y-93480573D01*
X121108030Y-93480573D01*
X121203268Y-93528192D01*
X121250887Y-93575811D01*
X121298506Y-93671049D01*
X121298506Y-93909144D01*
X121250887Y-94004382D01*
X121203268Y-94052001D01*
X121108030Y-94099620D01*
X120822316Y-94099620D01*
X120727078Y-94052001D01*
X120679459Y-94004382D01*
M02*
