G04 #@! TF.GenerationSoftware,KiCad,Pcbnew,5.1.6-c6e7f7d~87~ubuntu18.04.1*
G04 #@! TF.CreationDate,2020-08-15T23:02:31+05:30*
G04 #@! TF.ProjectId,stm32wb_Dev_v1,73746d33-3277-4625-9f44-65765f76312e,rev?*
G04 #@! TF.SameCoordinates,Original*
G04 #@! TF.FileFunction,Soldermask,Top*
G04 #@! TF.FilePolarity,Negative*
%FSLAX46Y46*%
G04 Gerber Fmt 4.6, Leading zero omitted, Abs format (unit mm)*
G04 Created by KiCad (PCBNEW 5.1.6-c6e7f7d~87~ubuntu18.04.1) date 2020-08-15 23:02:31*
%MOMM*%
%LPD*%
G01*
G04 APERTURE LIST*
%ADD10C,0.010000*%
%ADD11R,0.400000X0.950000*%
%ADD12R,0.950000X0.400000*%
%ADD13R,5.800000X5.800000*%
%ADD14R,1.700000X2.100000*%
%ADD15R,1.800000X1.800000*%
%ADD16O,1.800000X1.800000*%
%ADD17R,1.400000X1.600000*%
%ADD18R,1.600000X1.400000*%
%ADD19R,1.400000X0.800000*%
%ADD20R,1.800000X1.000000*%
%ADD21C,1.100000*%
%ADD22C,1.600000*%
G04 APERTURE END LIST*
D10*
G36*
X118301000Y-87548100D02*
G01*
X118301000Y-87948100D01*
X117701000Y-87948100D01*
X117701000Y-87548100D01*
X118301000Y-87548100D01*
G37*
X118301000Y-87548100D02*
X118301000Y-87948100D01*
X117701000Y-87948100D01*
X117701000Y-87548100D01*
X118301000Y-87548100D01*
G36*
X118276000Y-88178100D02*
G01*
X118276000Y-88428100D01*
X117726000Y-88428100D01*
X117726000Y-88178100D01*
X118276000Y-88178100D01*
G37*
X118276000Y-88178100D02*
X118276000Y-88428100D01*
X117726000Y-88428100D01*
X117726000Y-88178100D01*
X118276000Y-88178100D01*
G36*
X118276000Y-87068100D02*
G01*
X118276000Y-87318100D01*
X117726000Y-87318100D01*
X117726000Y-87068100D01*
X118276000Y-87068100D01*
G37*
X118276000Y-87068100D02*
X118276000Y-87318100D01*
X117726000Y-87318100D01*
X117726000Y-87068100D01*
X118276000Y-87068100D01*
D11*
X111056000Y-59897600D03*
X110556000Y-59897600D03*
X110056000Y-59897600D03*
X109556000Y-59897600D03*
X109056000Y-59897600D03*
X108556000Y-59897600D03*
X108056000Y-59897600D03*
X107556000Y-59897600D03*
X107056000Y-59897600D03*
X106556000Y-59897600D03*
X106056000Y-59897600D03*
X105556000Y-59897600D03*
D12*
X104856000Y-60597600D03*
X104856000Y-61097600D03*
X104856000Y-61597600D03*
X104856000Y-62097600D03*
X104856000Y-62597600D03*
X104856000Y-63097600D03*
X104856000Y-63597600D03*
X104856000Y-64097600D03*
X104856000Y-64597600D03*
X104856000Y-65097600D03*
X104856000Y-65597600D03*
X104856000Y-66097600D03*
D11*
X105556000Y-66797600D03*
X106056000Y-66797600D03*
X106556000Y-66797600D03*
X107056000Y-66797600D03*
X107556000Y-66797600D03*
X108056000Y-66797600D03*
X108556000Y-66797600D03*
X109056000Y-66797600D03*
X109556000Y-66797600D03*
X110056000Y-66797600D03*
X110556000Y-66797600D03*
X111056000Y-66797600D03*
D12*
X111756000Y-66097600D03*
X111756000Y-65597600D03*
X111756000Y-65097600D03*
X111756000Y-64597600D03*
X111756000Y-64097600D03*
X111756000Y-63597600D03*
X111756000Y-63097600D03*
X111756000Y-62597600D03*
X111756000Y-62097600D03*
X111756000Y-61597600D03*
X111756000Y-61097600D03*
X111756000Y-60597600D03*
D13*
X108306000Y-63347600D03*
D14*
X99402900Y-61405000D03*
X99402900Y-65405000D03*
D15*
X125067000Y-92130900D03*
X85905300Y-92151200D03*
D16*
X88445300Y-92151200D03*
X90985300Y-92151200D03*
X93525300Y-92151200D03*
X96065300Y-92151200D03*
X113022000Y-92115600D03*
X110482000Y-92115600D03*
X107942000Y-92115600D03*
X105402000Y-92115600D03*
D15*
X102862000Y-92115600D03*
D16*
X92514400Y-80789800D03*
X92514400Y-78249800D03*
X92514400Y-75709800D03*
X92514400Y-73169800D03*
X92514400Y-70629800D03*
X92514400Y-68089800D03*
X92514400Y-65549800D03*
X92514400Y-63009800D03*
X92514400Y-60469800D03*
X92514400Y-57929800D03*
X92514400Y-55389800D03*
D15*
X92514400Y-52849800D03*
X121953000Y-51968400D03*
D16*
X121953000Y-54508400D03*
X121953000Y-57048400D03*
X121953000Y-59588400D03*
X121953000Y-62128400D03*
X121953000Y-64668400D03*
X121953000Y-67208400D03*
X121953000Y-69748400D03*
X121953000Y-72288400D03*
X121953000Y-74828400D03*
X121953000Y-77368400D03*
X121953000Y-79908400D03*
D17*
X96004400Y-64307700D03*
X96004400Y-61607700D03*
D18*
X96398100Y-57355700D03*
X99098100Y-57355700D03*
D19*
X125263000Y-51704300D03*
X125263000Y-49804300D03*
D20*
X114828000Y-51207500D03*
X114828000Y-54607500D03*
D21*
X117912000Y-69639300D03*
X117912000Y-67739300D03*
D22*
X98470700Y-79883300D03*
X98470700Y-74983300D03*
M02*
