G04 #@! TF.GenerationSoftware,KiCad,Pcbnew,5.1.7-a382d34a8~88~ubuntu18.04.1*
G04 #@! TF.CreationDate,2021-07-31T18:48:42+05:30*
G04 #@! TF.ProjectId,FrontEnd_HeavyDevice_v1,46726f6e-7445-46e6-945f-486561767944,rev?*
G04 #@! TF.SameCoordinates,Original*
G04 #@! TF.FileFunction,Other,Fab,Top*
%FSLAX46Y46*%
G04 Gerber Fmt 4.6, Leading zero omitted, Abs format (unit mm)*
G04 Created by KiCad (PCBNEW 5.1.7-a382d34a8~88~ubuntu18.04.1) date 2021-07-31 18:48:42*
%MOMM*%
%LPD*%
G01*
G04 APERTURE LIST*
%ADD10C,0.100000*%
%ADD11C,0.150000*%
G04 APERTURE END LIST*
D10*
X119199000Y-88186500D02*
X117199000Y-88186500D01*
X117199000Y-88186500D02*
X117199000Y-86946500D01*
X117199000Y-86946500D02*
X119199000Y-86946500D01*
X119199000Y-86946500D02*
X119199000Y-88186500D01*
X117140480Y-90528380D02*
X119140480Y-90528380D01*
X119140480Y-90528380D02*
X119140480Y-91828380D01*
X119140480Y-91828380D02*
X117140480Y-91828380D01*
X117140480Y-91828380D02*
X117140480Y-90528380D01*
X118340480Y-90978380D02*
X118040480Y-91178380D01*
X118040480Y-91178380D02*
X118340480Y-91378380D01*
X118340480Y-91378380D02*
X118340480Y-90978380D01*
X118040480Y-90978380D02*
X118040480Y-91378380D01*
X118040480Y-91178380D02*
X117840480Y-91178380D01*
X118340480Y-91178380D02*
X118540480Y-91178380D01*
D11*
X114171857Y-96325780D02*
X114743285Y-96325780D01*
X114457571Y-97325780D02*
X114457571Y-96325780D01*
X115219476Y-97325780D02*
X115124238Y-97278161D01*
X115076619Y-97230542D01*
X115029000Y-97135304D01*
X115029000Y-96849590D01*
X115076619Y-96754352D01*
X115124238Y-96706733D01*
X115219476Y-96659114D01*
X115362333Y-96659114D01*
X115457571Y-96706733D01*
X115505190Y-96754352D01*
X115552809Y-96849590D01*
X115552809Y-97135304D01*
X115505190Y-97230542D01*
X115457571Y-97278161D01*
X115362333Y-97325780D01*
X115219476Y-97325780D01*
X116409952Y-96659114D02*
X116409952Y-97325780D01*
X115981380Y-96659114D02*
X115981380Y-97182923D01*
X116029000Y-97278161D01*
X116124238Y-97325780D01*
X116267095Y-97325780D01*
X116362333Y-97278161D01*
X116409952Y-97230542D01*
X117314714Y-97278161D02*
X117219476Y-97325780D01*
X117029000Y-97325780D01*
X116933761Y-97278161D01*
X116886142Y-97230542D01*
X116838523Y-97135304D01*
X116838523Y-96849590D01*
X116886142Y-96754352D01*
X116933761Y-96706733D01*
X117029000Y-96659114D01*
X117219476Y-96659114D01*
X117314714Y-96706733D01*
X117743285Y-97325780D02*
X117743285Y-96325780D01*
X118171857Y-97325780D02*
X118171857Y-96801971D01*
X118124238Y-96706733D01*
X118029000Y-96659114D01*
X117886142Y-96659114D01*
X117790904Y-96706733D01*
X117743285Y-96754352D01*
X118409952Y-97421019D02*
X119171857Y-97421019D01*
X119409952Y-97325780D02*
X119409952Y-96325780D01*
X119790904Y-96325780D01*
X119886142Y-96373400D01*
X119933761Y-96421019D01*
X119981380Y-96516257D01*
X119981380Y-96659114D01*
X119933761Y-96754352D01*
X119886142Y-96801971D01*
X119790904Y-96849590D01*
X119409952Y-96849590D01*
X120838523Y-97325780D02*
X120838523Y-96801971D01*
X120790904Y-96706733D01*
X120695666Y-96659114D01*
X120505190Y-96659114D01*
X120409952Y-96706733D01*
X120838523Y-97278161D02*
X120743285Y-97325780D01*
X120505190Y-97325780D01*
X120409952Y-97278161D01*
X120362333Y-97182923D01*
X120362333Y-97087685D01*
X120409952Y-96992447D01*
X120505190Y-96944828D01*
X120743285Y-96944828D01*
X120838523Y-96897209D01*
X121743285Y-97325780D02*
X121743285Y-96325780D01*
X121743285Y-97278161D02*
X121648047Y-97325780D01*
X121457571Y-97325780D01*
X121362333Y-97278161D01*
X121314714Y-97230542D01*
X121267095Y-97135304D01*
X121267095Y-96849590D01*
X121314714Y-96754352D01*
X121362333Y-96706733D01*
X121457571Y-96659114D01*
X121648047Y-96659114D01*
X121743285Y-96706733D01*
M02*
