G04 #@! TF.GenerationSoftware,KiCad,Pcbnew,5.1.7-a382d34a8~88~ubuntu18.04.1*
G04 #@! TF.CreationDate,2021-07-31T18:48:42+05:30*
G04 #@! TF.ProjectId,FrontEnd_HeavyDevice_v1,46726f6e-7445-46e6-945f-486561767944,rev?*
G04 #@! TF.SameCoordinates,Original*
G04 #@! TF.FileFunction,Paste,Bot*
G04 #@! TF.FilePolarity,Positive*
%FSLAX46Y46*%
G04 Gerber Fmt 4.6, Leading zero omitted, Abs format (unit mm)*
G04 Created by KiCad (PCBNEW 5.1.7-a382d34a8~88~ubuntu18.04.1) date 2021-07-31 18:48:42*
%MOMM*%
%LPD*%
G01*
G04 APERTURE LIST*
%ADD10R,1.000000X0.230000*%
%ADD11R,0.230000X1.000000*%
%ADD12R,1.000000X1.250000*%
%ADD13R,1.250000X1.000000*%
%ADD14R,0.900000X0.800000*%
%ADD15R,0.700000X1.300000*%
%ADD16R,1.300000X0.700000*%
%ADD17R,1.600000X0.760000*%
%ADD18R,0.650000X1.060000*%
%ADD19R,1.700000X1.200000*%
G04 APERTURE END LIST*
D10*
X136464000Y-90878700D03*
D11*
X135194000Y-97228700D03*
X134686000Y-97228700D03*
X134178000Y-97228700D03*
X133670000Y-97228700D03*
X133162000Y-97228700D03*
X132654000Y-97228700D03*
X132146000Y-97228700D03*
X131638000Y-97228700D03*
X131130000Y-97228700D03*
X130622000Y-97228700D03*
X130114000Y-97228700D03*
X129606000Y-97228700D03*
D10*
X128336000Y-95958700D03*
X128336000Y-95450700D03*
X128336000Y-94434700D03*
X128336000Y-93926700D03*
X128336000Y-93418700D03*
X128336000Y-92910700D03*
X128336000Y-92402700D03*
X128336000Y-91894700D03*
X128336000Y-91386700D03*
X128336000Y-90878700D03*
X128336000Y-90370700D03*
D11*
X130114000Y-89100700D03*
X130622000Y-89100700D03*
X131130000Y-89100700D03*
X131638000Y-89100700D03*
X132146000Y-89100700D03*
X132654000Y-89100700D03*
X133162000Y-89100700D03*
X133670000Y-89100700D03*
X134178000Y-89100700D03*
X134686000Y-89100700D03*
X135194000Y-89100700D03*
D10*
X136464000Y-90370700D03*
X136464000Y-91386700D03*
X136464000Y-91894700D03*
X136464000Y-92402700D03*
X136464000Y-92910700D03*
X136464000Y-93418700D03*
X136464000Y-93926700D03*
X136464000Y-94434700D03*
X136464000Y-94942700D03*
X136464000Y-95450700D03*
X136464000Y-95958700D03*
D11*
X129606000Y-89100700D03*
D10*
X128336000Y-94942700D03*
D12*
X127588000Y-81087000D03*
X129588000Y-81087000D03*
X130347000Y-85750400D03*
X128347000Y-85750400D03*
D13*
X138613000Y-88114400D03*
X138613000Y-86114400D03*
X124153000Y-114741000D03*
X124153000Y-112741000D03*
X119266000Y-110699000D03*
X119266000Y-112699000D03*
X125611000Y-106904000D03*
X125611000Y-108904000D03*
X121176000Y-108564000D03*
X121176000Y-106564000D03*
X134290000Y-83681100D03*
X134290000Y-85681100D03*
X136538000Y-84943700D03*
X136538000Y-82943700D03*
D14*
X125430000Y-102901000D03*
X125430000Y-100801000D03*
X136738000Y-77936400D03*
X136738000Y-80036400D03*
D15*
X107506000Y-95168700D03*
X105606000Y-95168700D03*
D16*
X138671000Y-100131900D03*
X138671000Y-98231900D03*
D15*
X130424000Y-78516500D03*
X132324000Y-78516500D03*
D17*
X137645000Y-116535000D03*
X130025000Y-116535000D03*
D18*
X123500000Y-85534700D03*
X125400000Y-85534700D03*
X125400000Y-83334700D03*
X124450000Y-83334700D03*
X123500000Y-83334700D03*
D19*
X99814000Y-117360000D03*
X99814000Y-115360000D03*
X99814000Y-113360000D03*
X99814000Y-111360000D03*
X99814000Y-109360000D03*
X99814000Y-107360000D03*
X99814000Y-105360000D03*
X99814000Y-103360000D03*
X115044000Y-103360000D03*
X115044000Y-105360000D03*
X115044000Y-107360000D03*
X115044000Y-109360000D03*
X115044000Y-111360000D03*
X115044000Y-113360000D03*
X115044000Y-115360000D03*
X115044000Y-117360000D03*
D18*
X125235000Y-92918500D03*
X124285000Y-92918500D03*
X123335000Y-92918500D03*
X123335000Y-90718500D03*
X125235000Y-90718500D03*
X124285000Y-90718500D03*
M02*
