M48
; DRILL file {KiCad 5.1.7-a382d34a8~88~ubuntu18.04.1} date Sat Jul 31 18:49:16 2021
; FORMAT={3:3/ absolute / metric / suppress leading zeros}
; #@! TF.CreationDate,2021-07-31T18:49:16+05:30
; #@! TF.GenerationSoftware,Kicad,Pcbnew,5.1.7-a382d34a8~88~ubuntu18.04.1
FMAT,2
METRIC,TZ
T1C0.400
T2C0.762
T3C0.800
T4C1.000
%
G90
G05
T1
X100684Y-87466
X106197Y-115209
X116450Y-109360
X116798Y-111360
X118030Y-84135
X118110Y-112622
X118610Y-113738
X120566Y-88720
X120819Y-83480
X123216Y-93985
X123614Y-95048
X124318Y-95860
X125094Y-95048
X126419Y-91895
X126495Y-118219
X126560Y-90691
X126645Y-94943
X127541Y-87025
X128702Y-99248
X129739Y-93058
X130106Y-79704
X130106Y-90965
X131524Y-99141
X133589Y-77605
X134159Y-88073
X135388Y-90643
X137067Y-88552
T2
X97287Y-117704
T3
X131297Y-111097
X136177Y-111097
X131282Y-104140
X136162Y-104140
T4
X111540Y-77890
X114080Y-77890
X116620Y-77890
X119160Y-77890
X121700Y-77890
X124240Y-77890
X98623Y-78400
X98623Y-80940
X98623Y-83480
X98623Y-86020
X98623Y-88560
X98623Y-91100
T0
M30
