G04 #@! TF.GenerationSoftware,KiCad,Pcbnew,5.1.7-a382d34a8~88~ubuntu18.04.1*
G04 #@! TF.CreationDate,2021-07-31T18:48:42+05:30*
G04 #@! TF.ProjectId,FrontEnd_HeavyDevice_v1,46726f6e-7445-46e6-945f-486561767944,rev?*
G04 #@! TF.SameCoordinates,Original*
G04 #@! TF.FileFunction,Copper,L1,Top*
G04 #@! TF.FilePolarity,Positive*
%FSLAX46Y46*%
G04 Gerber Fmt 4.6, Leading zero omitted, Abs format (unit mm)*
G04 Created by KiCad (PCBNEW 5.1.7-a382d34a8~88~ubuntu18.04.1) date 2021-07-31 18:48:42*
%MOMM*%
%LPD*%
G01*
G04 APERTURE LIST*
G04 #@! TA.AperFunction,ComponentPad*
%ADD10O,1.700000X1.700000*%
G04 #@! TD*
G04 #@! TA.AperFunction,ComponentPad*
%ADD11R,1.700000X1.700000*%
G04 #@! TD*
G04 #@! TA.AperFunction,SMDPad,CuDef*
%ADD12R,0.700000X1.300000*%
G04 #@! TD*
G04 #@! TA.AperFunction,SMDPad,CuDef*
%ADD13R,0.800000X0.900000*%
G04 #@! TD*
G04 #@! TA.AperFunction,ComponentPad*
%ADD14R,1.524000X1.524000*%
G04 #@! TD*
G04 #@! TA.AperFunction,SMDPad,CuDef*
%ADD15C,10.000000*%
G04 #@! TD*
G04 #@! TA.AperFunction,ComponentPad*
%ADD16C,1.500000*%
G04 #@! TD*
G04 #@! TA.AperFunction,ViaPad*
%ADD17C,0.550000*%
G04 #@! TD*
G04 #@! TA.AperFunction,Conductor*
%ADD18C,0.250000*%
G04 #@! TD*
G04 #@! TA.AperFunction,Conductor*
%ADD19C,0.254000*%
G04 #@! TD*
G04 #@! TA.AperFunction,Conductor*
%ADD20C,0.150000*%
G04 #@! TD*
G04 APERTURE END LIST*
D10*
X124240000Y-77890000D03*
X121700000Y-77890000D03*
X119160000Y-77890000D03*
X116620000Y-77890000D03*
X114080000Y-77890000D03*
D11*
X111540000Y-77890000D03*
X98623100Y-78399600D03*
D10*
X98623100Y-80939600D03*
X98623100Y-83479600D03*
X98623100Y-86019600D03*
X98623100Y-88559600D03*
X98623100Y-91099600D03*
D12*
X119149000Y-87566500D03*
X117249000Y-87566500D03*
D13*
X117090480Y-91178380D03*
X119190480Y-91178380D03*
D14*
X97287100Y-117704000D03*
D15*
X118029000Y-97373400D03*
D16*
X136177000Y-111097000D03*
X131297000Y-111097000D03*
X131282000Y-104140000D03*
X136162000Y-104140000D03*
D17*
X126559600Y-90690500D03*
X128701800Y-99247960D03*
X137066500Y-88552000D03*
X131523740Y-99141280D03*
X100684200Y-87466000D03*
X120818600Y-83479600D03*
X134159100Y-88073000D03*
X135387500Y-90642900D03*
X133588760Y-77604620D03*
X120566180Y-88719660D03*
X126418800Y-91894700D03*
X118030400Y-84135300D03*
X127540500Y-87024700D03*
X129739400Y-93058400D03*
X130106100Y-90964500D03*
X130106100Y-79704300D03*
X124317800Y-95859900D03*
X118610300Y-113737800D03*
X106197400Y-115209320D03*
X126494540Y-118219220D03*
X126644600Y-94942700D03*
X116449800Y-109360000D03*
X125094200Y-95048200D03*
X116798400Y-111360000D03*
X123613700Y-95048200D03*
X118110300Y-112621500D03*
X123215900Y-93984600D03*
D18*
X126559600Y-90690500D02*
X127233600Y-91364500D01*
X127233600Y-91364500D02*
X127233600Y-93968500D01*
X127233600Y-93968500D02*
X126983000Y-94219100D01*
X124240000Y-77890000D02*
X124240000Y-79115300D01*
X124240000Y-79115300D02*
X126559600Y-81434900D01*
X126559600Y-81434900D02*
X126559600Y-90690500D01*
X126983000Y-94219100D02*
X128701800Y-95937900D01*
X128701800Y-98859052D02*
X128701800Y-99247960D01*
X128701800Y-95937900D02*
X128701800Y-98859052D01*
X124767800Y-94219100D02*
X126983000Y-94219100D01*
X119965481Y-91363800D02*
X121912500Y-91363800D01*
X118415479Y-91178380D02*
X118415479Y-91928381D01*
X119965481Y-91928381D02*
X119965481Y-91363800D01*
X117090480Y-91178380D02*
X118415479Y-91178380D01*
X118415479Y-91928381D02*
X118490479Y-92003381D01*
X121912500Y-91363800D02*
X124767800Y-94219100D01*
X118490479Y-92003381D02*
X119890481Y-92003381D01*
X119890481Y-92003381D02*
X119965481Y-91928381D01*
X137066500Y-93598520D02*
X131523740Y-99141280D01*
X137066500Y-88552000D02*
X137066500Y-93598520D01*
X98623100Y-91099600D02*
X98623100Y-89874300D01*
X100684200Y-87466000D02*
X100684200Y-88321000D01*
X100684200Y-88321000D02*
X99130900Y-89874300D01*
X99130900Y-89874300D02*
X98623100Y-89874300D01*
X120818600Y-83479600D02*
X122970100Y-81328100D01*
X122970100Y-81328100D02*
X122970100Y-77336000D01*
X122970100Y-77336000D02*
X123641500Y-76664600D01*
X123641500Y-76664600D02*
X128019900Y-76664600D01*
X128019900Y-76664600D02*
X134159100Y-82803800D01*
X134159100Y-82803800D02*
X134159100Y-88073000D01*
X135387500Y-79403360D02*
X133588760Y-77604620D01*
X135387500Y-90642900D02*
X135387500Y-79403360D01*
X116886400Y-87566500D02*
X116523700Y-87566500D01*
X117249000Y-87566500D02*
X116886400Y-87566500D01*
X111540000Y-77890000D02*
X111540000Y-79115300D01*
X116523700Y-87566500D02*
X116523700Y-84099000D01*
X116523700Y-84099000D02*
X111540000Y-79115300D01*
X120566180Y-87432480D02*
X120566180Y-88719660D01*
X116886400Y-87566500D02*
X117942100Y-86510800D01*
X117942100Y-86510800D02*
X119644500Y-86510800D01*
X119644500Y-86510800D02*
X120566180Y-87432480D01*
X126418800Y-91894700D02*
X126418800Y-91604000D01*
X126418800Y-91604000D02*
X116620000Y-81805200D01*
X116620000Y-81805200D02*
X116620000Y-77890000D01*
X114080000Y-77890000D02*
X114080000Y-80184900D01*
X114080000Y-80184900D02*
X118030400Y-84135300D01*
X129739400Y-93058400D02*
X127540500Y-90859500D01*
X127540500Y-90859500D02*
X127540500Y-87024700D01*
X130106100Y-90964500D02*
X130106100Y-79704300D01*
X124317800Y-95859900D02*
X124317800Y-108457960D01*
X119037960Y-113737800D02*
X118610300Y-113737800D01*
X124317800Y-108457960D02*
X119037960Y-113737800D01*
X109207300Y-118219220D02*
X126494540Y-118219220D01*
X106197400Y-115209320D02*
X109207300Y-118219220D01*
X116101200Y-112929600D02*
X116101200Y-109708600D01*
X118104100Y-114932500D02*
X116101200Y-112929600D01*
X116101200Y-109708600D02*
X116449800Y-109360000D01*
X119844780Y-114932500D02*
X118104100Y-114932500D01*
X126644600Y-94942700D02*
X126644600Y-108132680D01*
X126644600Y-108132680D02*
X119844780Y-114932500D01*
X119492260Y-114401100D02*
X125094200Y-108799160D01*
X118307900Y-114401100D02*
X119492260Y-114401100D01*
X116798400Y-111360000D02*
X116798400Y-112891600D01*
X125094200Y-108799160D02*
X125094200Y-95048200D01*
X116798400Y-112891600D02*
X118307900Y-114401100D01*
X118110300Y-112621500D02*
X123613700Y-107118100D01*
X123613700Y-107118100D02*
X123613700Y-95048200D01*
X118029000Y-97373400D02*
X121417800Y-93984600D01*
X121417800Y-93984600D02*
X123215900Y-93984600D01*
X119240300Y-88683100D02*
X119149000Y-88591800D01*
X119257000Y-89786500D02*
X119240300Y-89769800D01*
X119149000Y-88591800D02*
X119149000Y-87566500D01*
X119240300Y-89769800D02*
X119240300Y-88683100D01*
X119240300Y-91128560D02*
X119190480Y-91178380D01*
X119240300Y-89769800D02*
X119240300Y-91128560D01*
D19*
X140060538Y-118760181D02*
X127231476Y-118754273D01*
X127300971Y-118650267D01*
X127369569Y-118484657D01*
X127404540Y-118308847D01*
X127404540Y-118129593D01*
X127369569Y-117953783D01*
X127300971Y-117788173D01*
X127201383Y-117639129D01*
X127074631Y-117512377D01*
X126925587Y-117412789D01*
X126759977Y-117344191D01*
X126584167Y-117309220D01*
X126404913Y-117309220D01*
X126229103Y-117344191D01*
X126063493Y-117412789D01*
X125994004Y-117459220D01*
X109522103Y-117459220D01*
X107088734Y-115025853D01*
X107072429Y-114943883D01*
X107003831Y-114778273D01*
X106904243Y-114629229D01*
X106777491Y-114502477D01*
X106628447Y-114402889D01*
X106462837Y-114334291D01*
X106287027Y-114299320D01*
X106107773Y-114299320D01*
X105931963Y-114334291D01*
X105766353Y-114402889D01*
X105617309Y-114502477D01*
X105490557Y-114629229D01*
X105390969Y-114778273D01*
X105322371Y-114943883D01*
X105287400Y-115119693D01*
X105287400Y-115298947D01*
X105322371Y-115474757D01*
X105390969Y-115640367D01*
X105490557Y-115789411D01*
X105617309Y-115916163D01*
X105766353Y-116015751D01*
X105931963Y-116084349D01*
X106013933Y-116100654D01*
X108643505Y-118730228D01*
X108656219Y-118745720D01*
X98622075Y-118741099D01*
X98638602Y-118710180D01*
X98674912Y-118590482D01*
X98687172Y-118466000D01*
X98687172Y-116942000D01*
X98674912Y-116817518D01*
X98638602Y-116697820D01*
X98579637Y-116587506D01*
X98500285Y-116490815D01*
X98403594Y-116411463D01*
X98293280Y-116352498D01*
X98173582Y-116316188D01*
X98049100Y-116303928D01*
X96525100Y-116303928D01*
X96400618Y-116316188D01*
X96280920Y-116352498D01*
X96184792Y-116403880D01*
X96147554Y-79249600D01*
X97135028Y-79249600D01*
X97147288Y-79374082D01*
X97183598Y-79493780D01*
X97242563Y-79604094D01*
X97321915Y-79700785D01*
X97418606Y-79780137D01*
X97528920Y-79839102D01*
X97601480Y-79861113D01*
X97469625Y-79992968D01*
X97307110Y-80236189D01*
X97195168Y-80506442D01*
X97138100Y-80793340D01*
X97138100Y-81085860D01*
X97195168Y-81372758D01*
X97307110Y-81643011D01*
X97469625Y-81886232D01*
X97676468Y-82093075D01*
X97850860Y-82209600D01*
X97676468Y-82326125D01*
X97469625Y-82532968D01*
X97307110Y-82776189D01*
X97195168Y-83046442D01*
X97138100Y-83333340D01*
X97138100Y-83625860D01*
X97195168Y-83912758D01*
X97307110Y-84183011D01*
X97469625Y-84426232D01*
X97676468Y-84633075D01*
X97850860Y-84749600D01*
X97676468Y-84866125D01*
X97469625Y-85072968D01*
X97307110Y-85316189D01*
X97195168Y-85586442D01*
X97138100Y-85873340D01*
X97138100Y-86165860D01*
X97195168Y-86452758D01*
X97307110Y-86723011D01*
X97469625Y-86966232D01*
X97676468Y-87173075D01*
X97850860Y-87289600D01*
X97676468Y-87406125D01*
X97469625Y-87612968D01*
X97307110Y-87856189D01*
X97195168Y-88126442D01*
X97138100Y-88413340D01*
X97138100Y-88705860D01*
X97195168Y-88992758D01*
X97307110Y-89263011D01*
X97469625Y-89506232D01*
X97676468Y-89713075D01*
X97850860Y-89829600D01*
X97676468Y-89946125D01*
X97469625Y-90152968D01*
X97307110Y-90396189D01*
X97195168Y-90666442D01*
X97138100Y-90953340D01*
X97138100Y-91245860D01*
X97195168Y-91532758D01*
X97307110Y-91803011D01*
X97469625Y-92046232D01*
X97676468Y-92253075D01*
X97919689Y-92415590D01*
X98189942Y-92527532D01*
X98476840Y-92584600D01*
X98769360Y-92584600D01*
X99056258Y-92527532D01*
X99326511Y-92415590D01*
X99569732Y-92253075D01*
X99776575Y-92046232D01*
X99939090Y-91803011D01*
X100051032Y-91532758D01*
X100108100Y-91245860D01*
X100108100Y-90953340D01*
X100063353Y-90728380D01*
X116052408Y-90728380D01*
X116055480Y-90892630D01*
X116214230Y-91051380D01*
X116963480Y-91051380D01*
X116963480Y-90252130D01*
X117217480Y-90252130D01*
X117217480Y-91051380D01*
X117966730Y-91051380D01*
X118125480Y-90892630D01*
X118128552Y-90728380D01*
X118116292Y-90603898D01*
X118079982Y-90484200D01*
X118021017Y-90373886D01*
X117941665Y-90277195D01*
X117844974Y-90197843D01*
X117734660Y-90138878D01*
X117614962Y-90102568D01*
X117490480Y-90090308D01*
X117376230Y-90093380D01*
X117217480Y-90252130D01*
X116963480Y-90252130D01*
X116804730Y-90093380D01*
X116690480Y-90090308D01*
X116565998Y-90102568D01*
X116446300Y-90138878D01*
X116335986Y-90197843D01*
X116239295Y-90277195D01*
X116159943Y-90373886D01*
X116100978Y-90484200D01*
X116064668Y-90603898D01*
X116052408Y-90728380D01*
X100063353Y-90728380D01*
X100051032Y-90666442D01*
X99939090Y-90396189D01*
X99836840Y-90243161D01*
X101195203Y-88884799D01*
X101224201Y-88861001D01*
X101266642Y-88809287D01*
X101319174Y-88745277D01*
X101389746Y-88613247D01*
X101402563Y-88570994D01*
X101433203Y-88469986D01*
X101444200Y-88358333D01*
X101444200Y-88358323D01*
X101447876Y-88321000D01*
X101444200Y-88283677D01*
X101444200Y-87966536D01*
X101490631Y-87897047D01*
X101559229Y-87731437D01*
X101594200Y-87555627D01*
X101594200Y-87376373D01*
X101559229Y-87200563D01*
X101490631Y-87034953D01*
X101391043Y-86885909D01*
X101264291Y-86759157D01*
X101115247Y-86659569D01*
X100949637Y-86590971D01*
X100773827Y-86556000D01*
X100594573Y-86556000D01*
X100418763Y-86590971D01*
X100253153Y-86659569D01*
X100104109Y-86759157D01*
X99977357Y-86885909D01*
X99877769Y-87034953D01*
X99809171Y-87200563D01*
X99774200Y-87376373D01*
X99774200Y-87555627D01*
X99789434Y-87632213D01*
X99776575Y-87612968D01*
X99569732Y-87406125D01*
X99395340Y-87289600D01*
X99569732Y-87173075D01*
X99776575Y-86966232D01*
X99939090Y-86723011D01*
X100051032Y-86452758D01*
X100108100Y-86165860D01*
X100108100Y-85873340D01*
X100051032Y-85586442D01*
X99939090Y-85316189D01*
X99776575Y-85072968D01*
X99569732Y-84866125D01*
X99395340Y-84749600D01*
X99569732Y-84633075D01*
X99776575Y-84426232D01*
X99939090Y-84183011D01*
X100051032Y-83912758D01*
X100108100Y-83625860D01*
X100108100Y-83333340D01*
X100051032Y-83046442D01*
X99939090Y-82776189D01*
X99776575Y-82532968D01*
X99569732Y-82326125D01*
X99395340Y-82209600D01*
X99569732Y-82093075D01*
X99776575Y-81886232D01*
X99939090Y-81643011D01*
X100051032Y-81372758D01*
X100108100Y-81085860D01*
X100108100Y-80793340D01*
X100051032Y-80506442D01*
X99939090Y-80236189D01*
X99776575Y-79992968D01*
X99644720Y-79861113D01*
X99717280Y-79839102D01*
X99827594Y-79780137D01*
X99924285Y-79700785D01*
X100003637Y-79604094D01*
X100062602Y-79493780D01*
X100098912Y-79374082D01*
X100111172Y-79249600D01*
X100108100Y-78685350D01*
X99949350Y-78526600D01*
X98750100Y-78526600D01*
X98750100Y-78546600D01*
X98496100Y-78546600D01*
X98496100Y-78526600D01*
X97296850Y-78526600D01*
X97138100Y-78685350D01*
X97135028Y-79249600D01*
X96147554Y-79249600D01*
X96145851Y-77549600D01*
X97135028Y-77549600D01*
X97138100Y-78113850D01*
X97296850Y-78272600D01*
X98496100Y-78272600D01*
X98496100Y-77073350D01*
X98750100Y-77073350D01*
X98750100Y-78272600D01*
X99949350Y-78272600D01*
X100108100Y-78113850D01*
X100111172Y-77549600D01*
X100098912Y-77425118D01*
X100062602Y-77305420D01*
X100003637Y-77195106D01*
X99924285Y-77098415D01*
X99853106Y-77040000D01*
X110051928Y-77040000D01*
X110051928Y-78740000D01*
X110064188Y-78864482D01*
X110100498Y-78984180D01*
X110159463Y-79094494D01*
X110238815Y-79191185D01*
X110335506Y-79270537D01*
X110445820Y-79329502D01*
X110565518Y-79365812D01*
X110690000Y-79378072D01*
X110825514Y-79378072D01*
X110834454Y-79407546D01*
X110905026Y-79539576D01*
X110966657Y-79614673D01*
X111000000Y-79655301D01*
X111028998Y-79679099D01*
X115763701Y-84413803D01*
X115763700Y-87529167D01*
X115760023Y-87566500D01*
X115774697Y-87715486D01*
X115818154Y-87858747D01*
X115888726Y-87990776D01*
X115951653Y-88067453D01*
X115983699Y-88106501D01*
X116099424Y-88201474D01*
X116231453Y-88272046D01*
X116267475Y-88282973D01*
X116273188Y-88340982D01*
X116309498Y-88460680D01*
X116368463Y-88570994D01*
X116447815Y-88667685D01*
X116544506Y-88747037D01*
X116654820Y-88806002D01*
X116774518Y-88842312D01*
X116899000Y-88854572D01*
X117599000Y-88854572D01*
X117723482Y-88842312D01*
X117843180Y-88806002D01*
X117953494Y-88747037D01*
X118050185Y-88667685D01*
X118129537Y-88570994D01*
X118188502Y-88460680D01*
X118199000Y-88426073D01*
X118209498Y-88460680D01*
X118268463Y-88570994D01*
X118347815Y-88667685D01*
X118396753Y-88707847D01*
X118399997Y-88740785D01*
X118438783Y-88868646D01*
X118443454Y-88884046D01*
X118480301Y-88952981D01*
X118480300Y-89732467D01*
X118480300Y-89732478D01*
X118476624Y-89769800D01*
X118480300Y-89807123D01*
X118480300Y-90174156D01*
X118435986Y-90197843D01*
X118339295Y-90277195D01*
X118259943Y-90373886D01*
X118200978Y-90484200D01*
X118164668Y-90603898D01*
X118152408Y-90728380D01*
X118152408Y-91628380D01*
X118163244Y-91738400D01*
X118117716Y-91738400D01*
X118128552Y-91628380D01*
X118125480Y-91464130D01*
X117966730Y-91305380D01*
X117217480Y-91305380D01*
X117217480Y-91325380D01*
X116963480Y-91325380D01*
X116963480Y-91305380D01*
X116214230Y-91305380D01*
X116055480Y-91464130D01*
X116052408Y-91628380D01*
X116064668Y-91752862D01*
X116100978Y-91872560D01*
X116159943Y-91982874D01*
X116200020Y-92031708D01*
X115359827Y-92379728D01*
X114436897Y-92996410D01*
X113652010Y-93781297D01*
X113035328Y-94704227D01*
X112610550Y-95729731D01*
X112394000Y-96818401D01*
X112394000Y-97928399D01*
X112610550Y-99017069D01*
X113035328Y-100042573D01*
X113652010Y-100965503D01*
X114436897Y-101750390D01*
X115359827Y-102367072D01*
X116385331Y-102791850D01*
X117474001Y-103008400D01*
X118583999Y-103008400D01*
X119672669Y-102791850D01*
X120698173Y-102367072D01*
X121621103Y-101750390D01*
X122405990Y-100965503D01*
X122853701Y-100295457D01*
X122853700Y-106803298D01*
X117926833Y-111730166D01*
X117844863Y-111746471D01*
X117679253Y-111815069D01*
X117558400Y-111895820D01*
X117558400Y-111860536D01*
X117604831Y-111791047D01*
X117673429Y-111625437D01*
X117708400Y-111449627D01*
X117708400Y-111270373D01*
X117673429Y-111094563D01*
X117604831Y-110928953D01*
X117505243Y-110779909D01*
X117378491Y-110653157D01*
X117229447Y-110553569D01*
X117063837Y-110484971D01*
X116888027Y-110450000D01*
X116861200Y-110450000D01*
X116861200Y-110174569D01*
X116880847Y-110166431D01*
X117029891Y-110066843D01*
X117156643Y-109940091D01*
X117256231Y-109791047D01*
X117324829Y-109625437D01*
X117359800Y-109449627D01*
X117359800Y-109270373D01*
X117324829Y-109094563D01*
X117256231Y-108928953D01*
X117156643Y-108779909D01*
X117029891Y-108653157D01*
X116880847Y-108553569D01*
X116715237Y-108484971D01*
X116539427Y-108450000D01*
X116360173Y-108450000D01*
X116184363Y-108484971D01*
X116018753Y-108553569D01*
X115869709Y-108653157D01*
X115742957Y-108779909D01*
X115643369Y-108928953D01*
X115574771Y-109094563D01*
X115559674Y-109170458D01*
X115537402Y-109197597D01*
X115537401Y-109197598D01*
X115466226Y-109284324D01*
X115395654Y-109416354D01*
X115352198Y-109559615D01*
X115337524Y-109708600D01*
X115341201Y-109745932D01*
X115341200Y-112892277D01*
X115337524Y-112929600D01*
X115341200Y-112966922D01*
X115341200Y-112966932D01*
X115352197Y-113078585D01*
X115384568Y-113185299D01*
X115395654Y-113221846D01*
X115466226Y-113353876D01*
X115479871Y-113370502D01*
X115561199Y-113469601D01*
X115590203Y-113493404D01*
X117540301Y-115443503D01*
X117564099Y-115472501D01*
X117679824Y-115567474D01*
X117811853Y-115638046D01*
X117955114Y-115681503D01*
X118066767Y-115692500D01*
X118066776Y-115692500D01*
X118104099Y-115696176D01*
X118141422Y-115692500D01*
X119807458Y-115692500D01*
X119844780Y-115696176D01*
X119882102Y-115692500D01*
X119882113Y-115692500D01*
X119993766Y-115681503D01*
X120137027Y-115638046D01*
X120269056Y-115567474D01*
X120384781Y-115472501D01*
X120408584Y-115443497D01*
X124891492Y-110960589D01*
X129912000Y-110960589D01*
X129912000Y-111233411D01*
X129965225Y-111500989D01*
X130069629Y-111753043D01*
X130221201Y-111979886D01*
X130414114Y-112172799D01*
X130640957Y-112324371D01*
X130893011Y-112428775D01*
X131160589Y-112482000D01*
X131433411Y-112482000D01*
X131700989Y-112428775D01*
X131953043Y-112324371D01*
X132179886Y-112172799D01*
X132372799Y-111979886D01*
X132524371Y-111753043D01*
X132628775Y-111500989D01*
X132682000Y-111233411D01*
X132682000Y-110960589D01*
X134792000Y-110960589D01*
X134792000Y-111233411D01*
X134845225Y-111500989D01*
X134949629Y-111753043D01*
X135101201Y-111979886D01*
X135294114Y-112172799D01*
X135520957Y-112324371D01*
X135773011Y-112428775D01*
X136040589Y-112482000D01*
X136313411Y-112482000D01*
X136580989Y-112428775D01*
X136833043Y-112324371D01*
X137059886Y-112172799D01*
X137252799Y-111979886D01*
X137404371Y-111753043D01*
X137508775Y-111500989D01*
X137562000Y-111233411D01*
X137562000Y-110960589D01*
X137508775Y-110693011D01*
X137404371Y-110440957D01*
X137252799Y-110214114D01*
X137059886Y-110021201D01*
X136833043Y-109869629D01*
X136580989Y-109765225D01*
X136313411Y-109712000D01*
X136040589Y-109712000D01*
X135773011Y-109765225D01*
X135520957Y-109869629D01*
X135294114Y-110021201D01*
X135101201Y-110214114D01*
X134949629Y-110440957D01*
X134845225Y-110693011D01*
X134792000Y-110960589D01*
X132682000Y-110960589D01*
X132628775Y-110693011D01*
X132524371Y-110440957D01*
X132372799Y-110214114D01*
X132179886Y-110021201D01*
X131953043Y-109869629D01*
X131700989Y-109765225D01*
X131433411Y-109712000D01*
X131160589Y-109712000D01*
X130893011Y-109765225D01*
X130640957Y-109869629D01*
X130414114Y-110021201D01*
X130221201Y-110214114D01*
X130069629Y-110440957D01*
X129965225Y-110693011D01*
X129912000Y-110960589D01*
X124891492Y-110960589D01*
X127155603Y-108696479D01*
X127184601Y-108672681D01*
X127279574Y-108556956D01*
X127350146Y-108424927D01*
X127393603Y-108281666D01*
X127404600Y-108170013D01*
X127404600Y-108170005D01*
X127408276Y-108132680D01*
X127404600Y-108095355D01*
X127404600Y-104003589D01*
X129897000Y-104003589D01*
X129897000Y-104276411D01*
X129950225Y-104543989D01*
X130054629Y-104796043D01*
X130206201Y-105022886D01*
X130399114Y-105215799D01*
X130625957Y-105367371D01*
X130878011Y-105471775D01*
X131145589Y-105525000D01*
X131418411Y-105525000D01*
X131685989Y-105471775D01*
X131938043Y-105367371D01*
X132164886Y-105215799D01*
X132357799Y-105022886D01*
X132509371Y-104796043D01*
X132613775Y-104543989D01*
X132667000Y-104276411D01*
X132667000Y-104003589D01*
X134777000Y-104003589D01*
X134777000Y-104276411D01*
X134830225Y-104543989D01*
X134934629Y-104796043D01*
X135086201Y-105022886D01*
X135279114Y-105215799D01*
X135505957Y-105367371D01*
X135758011Y-105471775D01*
X136025589Y-105525000D01*
X136298411Y-105525000D01*
X136565989Y-105471775D01*
X136818043Y-105367371D01*
X137044886Y-105215799D01*
X137237799Y-105022886D01*
X137389371Y-104796043D01*
X137493775Y-104543989D01*
X137547000Y-104276411D01*
X137547000Y-104003589D01*
X137493775Y-103736011D01*
X137389371Y-103483957D01*
X137237799Y-103257114D01*
X137044886Y-103064201D01*
X136818043Y-102912629D01*
X136565989Y-102808225D01*
X136298411Y-102755000D01*
X136025589Y-102755000D01*
X135758011Y-102808225D01*
X135505957Y-102912629D01*
X135279114Y-103064201D01*
X135086201Y-103257114D01*
X134934629Y-103483957D01*
X134830225Y-103736011D01*
X134777000Y-104003589D01*
X132667000Y-104003589D01*
X132613775Y-103736011D01*
X132509371Y-103483957D01*
X132357799Y-103257114D01*
X132164886Y-103064201D01*
X131938043Y-102912629D01*
X131685989Y-102808225D01*
X131418411Y-102755000D01*
X131145589Y-102755000D01*
X130878011Y-102808225D01*
X130625957Y-102912629D01*
X130399114Y-103064201D01*
X130206201Y-103257114D01*
X130054629Y-103483957D01*
X129950225Y-103736011D01*
X129897000Y-104003589D01*
X127404600Y-104003589D01*
X127404600Y-99051653D01*
X130613740Y-99051653D01*
X130613740Y-99230907D01*
X130648711Y-99406717D01*
X130717309Y-99572327D01*
X130816897Y-99721371D01*
X130943649Y-99848123D01*
X131092693Y-99947711D01*
X131258303Y-100016309D01*
X131434113Y-100051280D01*
X131613367Y-100051280D01*
X131789177Y-100016309D01*
X131954787Y-99947711D01*
X132103831Y-99848123D01*
X132230583Y-99721371D01*
X132330171Y-99572327D01*
X132398769Y-99406717D01*
X132415074Y-99324747D01*
X137577503Y-94162319D01*
X137606501Y-94138521D01*
X137701474Y-94022796D01*
X137772046Y-93890767D01*
X137815503Y-93747506D01*
X137826500Y-93635853D01*
X137826500Y-93635844D01*
X137830176Y-93598521D01*
X137826500Y-93561198D01*
X137826500Y-89052536D01*
X137872931Y-88983047D01*
X137941529Y-88817437D01*
X137976500Y-88641627D01*
X137976500Y-88462373D01*
X137941529Y-88286563D01*
X137872931Y-88120953D01*
X137773343Y-87971909D01*
X137646591Y-87845157D01*
X137497547Y-87745569D01*
X137331937Y-87676971D01*
X137156127Y-87642000D01*
X136976873Y-87642000D01*
X136801063Y-87676971D01*
X136635453Y-87745569D01*
X136486409Y-87845157D01*
X136359657Y-87971909D01*
X136260069Y-88120953D01*
X136191471Y-88286563D01*
X136156500Y-88462373D01*
X136156500Y-88641627D01*
X136191471Y-88817437D01*
X136260069Y-88983047D01*
X136306500Y-89052536D01*
X136306501Y-93283717D01*
X131340273Y-98249946D01*
X131258303Y-98266251D01*
X131092693Y-98334849D01*
X130943649Y-98434437D01*
X130816897Y-98561189D01*
X130717309Y-98710233D01*
X130648711Y-98875843D01*
X130613740Y-99051653D01*
X127404600Y-99051653D01*
X127404600Y-95443236D01*
X127451031Y-95373747D01*
X127519629Y-95208137D01*
X127554600Y-95032327D01*
X127554600Y-94853073D01*
X127519629Y-94677263D01*
X127451031Y-94511653D01*
X127351443Y-94362609D01*
X127224691Y-94235857D01*
X127075647Y-94136269D01*
X126910037Y-94067671D01*
X126734227Y-94032700D01*
X126554973Y-94032700D01*
X126379163Y-94067671D01*
X126213553Y-94136269D01*
X126064509Y-94235857D01*
X125937757Y-94362609D01*
X125838169Y-94511653D01*
X125835096Y-94519073D01*
X125801043Y-94468109D01*
X125674291Y-94341357D01*
X125525247Y-94241769D01*
X125359637Y-94173171D01*
X125183827Y-94138200D01*
X125004573Y-94138200D01*
X124828763Y-94173171D01*
X124663153Y-94241769D01*
X124514109Y-94341357D01*
X124387357Y-94468109D01*
X124353950Y-94518106D01*
X124320543Y-94468109D01*
X124193791Y-94341357D01*
X124083600Y-94267730D01*
X124090929Y-94250037D01*
X124125900Y-94074227D01*
X124125900Y-93894973D01*
X124090929Y-93719163D01*
X124022331Y-93553553D01*
X123922743Y-93404509D01*
X123795991Y-93277757D01*
X123646947Y-93178169D01*
X123481337Y-93109571D01*
X123305527Y-93074600D01*
X123126273Y-93074600D01*
X122950463Y-93109571D01*
X122784853Y-93178169D01*
X122715364Y-93224600D01*
X121849293Y-93224600D01*
X121621103Y-92996410D01*
X120698173Y-92379728D01*
X120018806Y-92098325D01*
X120041665Y-92079565D01*
X120121017Y-91982874D01*
X120179982Y-91872560D01*
X120216292Y-91752862D01*
X120228552Y-91628380D01*
X120228552Y-90728380D01*
X120216292Y-90603898D01*
X120179982Y-90484200D01*
X120121017Y-90373886D01*
X120041665Y-90277195D01*
X120000300Y-90243248D01*
X120000300Y-89954282D01*
X120006002Y-89935485D01*
X120020676Y-89786499D01*
X120006002Y-89637514D01*
X120000300Y-89618717D01*
X120000300Y-89435998D01*
X120135133Y-89526091D01*
X120300743Y-89594689D01*
X120476553Y-89629660D01*
X120655807Y-89629660D01*
X120831617Y-89594689D01*
X120997227Y-89526091D01*
X121146271Y-89426503D01*
X121273023Y-89299751D01*
X121372611Y-89150707D01*
X121441209Y-88985097D01*
X121476180Y-88809287D01*
X121476180Y-88630033D01*
X121441209Y-88454223D01*
X121372611Y-88288613D01*
X121326180Y-88219124D01*
X121326180Y-87586182D01*
X125514818Y-91774820D01*
X125508800Y-91805073D01*
X125508800Y-91984327D01*
X125543771Y-92160137D01*
X125612369Y-92325747D01*
X125711957Y-92474791D01*
X125838709Y-92601543D01*
X125987753Y-92701131D01*
X126153363Y-92769729D01*
X126329173Y-92804700D01*
X126508427Y-92804700D01*
X126684237Y-92769729D01*
X126849847Y-92701131D01*
X126998891Y-92601543D01*
X127125643Y-92474791D01*
X127225231Y-92325747D01*
X127293829Y-92160137D01*
X127328800Y-91984327D01*
X127328800Y-91805073D01*
X127308322Y-91702123D01*
X128848066Y-93241868D01*
X128864371Y-93323837D01*
X128932969Y-93489447D01*
X129032557Y-93638491D01*
X129159309Y-93765243D01*
X129308353Y-93864831D01*
X129473963Y-93933429D01*
X129649773Y-93968400D01*
X129829027Y-93968400D01*
X130004837Y-93933429D01*
X130170447Y-93864831D01*
X130319491Y-93765243D01*
X130446243Y-93638491D01*
X130545831Y-93489447D01*
X130614429Y-93323837D01*
X130649400Y-93148027D01*
X130649400Y-92968773D01*
X130614429Y-92792963D01*
X130545831Y-92627353D01*
X130446243Y-92478309D01*
X130319491Y-92351557D01*
X130170447Y-92251969D01*
X130004837Y-92183371D01*
X129922868Y-92167066D01*
X128300500Y-90544699D01*
X128300500Y-87525236D01*
X128346931Y-87455747D01*
X128415529Y-87290137D01*
X128450500Y-87114327D01*
X128450500Y-86935073D01*
X128415529Y-86759263D01*
X128346931Y-86593653D01*
X128247343Y-86444609D01*
X128120591Y-86317857D01*
X127971547Y-86218269D01*
X127805937Y-86149671D01*
X127630127Y-86114700D01*
X127450873Y-86114700D01*
X127275063Y-86149671D01*
X127109453Y-86218269D01*
X126960409Y-86317857D01*
X126833657Y-86444609D01*
X126734069Y-86593653D01*
X126665471Y-86759263D01*
X126630500Y-86935073D01*
X126630500Y-87114327D01*
X126665471Y-87290137D01*
X126734069Y-87455747D01*
X126780501Y-87525237D01*
X126780500Y-90822177D01*
X126776824Y-90859500D01*
X126779853Y-90890251D01*
X117380000Y-81490399D01*
X117380000Y-79168178D01*
X117566632Y-79043475D01*
X117773475Y-78836632D01*
X117890000Y-78662240D01*
X118006525Y-78836632D01*
X118213368Y-79043475D01*
X118456589Y-79205990D01*
X118726842Y-79317932D01*
X119013740Y-79375000D01*
X119306260Y-79375000D01*
X119593158Y-79317932D01*
X119863411Y-79205990D01*
X120106632Y-79043475D01*
X120313475Y-78836632D01*
X120430000Y-78662240D01*
X120546525Y-78836632D01*
X120753368Y-79043475D01*
X120996589Y-79205990D01*
X121266842Y-79317932D01*
X121553740Y-79375000D01*
X121846260Y-79375000D01*
X122133158Y-79317932D01*
X122210101Y-79286061D01*
X122210100Y-81013297D01*
X120635133Y-82588266D01*
X120553163Y-82604571D01*
X120387553Y-82673169D01*
X120238509Y-82772757D01*
X120111757Y-82899509D01*
X120012169Y-83048553D01*
X119943571Y-83214163D01*
X119908600Y-83389973D01*
X119908600Y-83569227D01*
X119943571Y-83745037D01*
X120012169Y-83910647D01*
X120111757Y-84059691D01*
X120238509Y-84186443D01*
X120387553Y-84286031D01*
X120553163Y-84354629D01*
X120728973Y-84389600D01*
X120908227Y-84389600D01*
X121084037Y-84354629D01*
X121249647Y-84286031D01*
X121398691Y-84186443D01*
X121525443Y-84059691D01*
X121625031Y-83910647D01*
X121693629Y-83745037D01*
X121709934Y-83663067D01*
X123481109Y-81891894D01*
X123510101Y-81868101D01*
X123533895Y-81839108D01*
X123533899Y-81839104D01*
X123605073Y-81752377D01*
X123605074Y-81752376D01*
X123675646Y-81620347D01*
X123719103Y-81477086D01*
X123730100Y-81365433D01*
X123730100Y-81365424D01*
X123733776Y-81328101D01*
X123730100Y-81290778D01*
X123730100Y-79284062D01*
X123735901Y-79286825D01*
X123883110Y-79331476D01*
X124113000Y-79210155D01*
X124113000Y-78017000D01*
X124367000Y-78017000D01*
X124367000Y-79210155D01*
X124596890Y-79331476D01*
X124744099Y-79286825D01*
X125006920Y-79161641D01*
X125240269Y-78987588D01*
X125435178Y-78771355D01*
X125584157Y-78521252D01*
X125681481Y-78246891D01*
X125560814Y-78017000D01*
X124367000Y-78017000D01*
X124113000Y-78017000D01*
X124093000Y-78017000D01*
X124093000Y-77763000D01*
X124113000Y-77763000D01*
X124113000Y-77743000D01*
X124367000Y-77743000D01*
X124367000Y-77763000D01*
X125560814Y-77763000D01*
X125681481Y-77533109D01*
X125642990Y-77424600D01*
X127705099Y-77424600D01*
X129401982Y-79121484D01*
X129399257Y-79124209D01*
X129299669Y-79273253D01*
X129231071Y-79438863D01*
X129196100Y-79614673D01*
X129196100Y-79793927D01*
X129231071Y-79969737D01*
X129299669Y-80135347D01*
X129346101Y-80204837D01*
X129346100Y-90463964D01*
X129299669Y-90533453D01*
X129231071Y-90699063D01*
X129196100Y-90874873D01*
X129196100Y-91054127D01*
X129231071Y-91229937D01*
X129299669Y-91395547D01*
X129399257Y-91544591D01*
X129526009Y-91671343D01*
X129675053Y-91770931D01*
X129840663Y-91839529D01*
X130016473Y-91874500D01*
X130195727Y-91874500D01*
X130371537Y-91839529D01*
X130537147Y-91770931D01*
X130686191Y-91671343D01*
X130812943Y-91544591D01*
X130912531Y-91395547D01*
X130981129Y-91229937D01*
X131016100Y-91054127D01*
X131016100Y-90874873D01*
X130981129Y-90699063D01*
X130912531Y-90533453D01*
X130866100Y-90463964D01*
X130866100Y-80585602D01*
X133399100Y-83118602D01*
X133399101Y-87572463D01*
X133352669Y-87641953D01*
X133284071Y-87807563D01*
X133249100Y-87983373D01*
X133249100Y-88162627D01*
X133284071Y-88338437D01*
X133352669Y-88504047D01*
X133452257Y-88653091D01*
X133579009Y-88779843D01*
X133728053Y-88879431D01*
X133893663Y-88948029D01*
X134069473Y-88983000D01*
X134248727Y-88983000D01*
X134424537Y-88948029D01*
X134590147Y-88879431D01*
X134627500Y-88854472D01*
X134627500Y-90142364D01*
X134581069Y-90211853D01*
X134512471Y-90377463D01*
X134477500Y-90553273D01*
X134477500Y-90732527D01*
X134512471Y-90908337D01*
X134581069Y-91073947D01*
X134680657Y-91222991D01*
X134807409Y-91349743D01*
X134956453Y-91449331D01*
X135122063Y-91517929D01*
X135297873Y-91552900D01*
X135477127Y-91552900D01*
X135652937Y-91517929D01*
X135818547Y-91449331D01*
X135967591Y-91349743D01*
X136094343Y-91222991D01*
X136193931Y-91073947D01*
X136262529Y-90908337D01*
X136297500Y-90732527D01*
X136297500Y-90553273D01*
X136262529Y-90377463D01*
X136193931Y-90211853D01*
X136147500Y-90142364D01*
X136147500Y-79440693D01*
X136151177Y-79403360D01*
X136136503Y-79254374D01*
X136093046Y-79111113D01*
X136022474Y-78979084D01*
X135951299Y-78892357D01*
X135927501Y-78863359D01*
X135898503Y-78839561D01*
X134480094Y-77421153D01*
X134463789Y-77339183D01*
X134395191Y-77173573D01*
X134295603Y-77024529D01*
X134168851Y-76897777D01*
X134019807Y-76798189D01*
X133854197Y-76729591D01*
X133678387Y-76694620D01*
X133499133Y-76694620D01*
X133323323Y-76729591D01*
X133157713Y-76798189D01*
X133008669Y-76897777D01*
X132881917Y-77024529D01*
X132782329Y-77173573D01*
X132713731Y-77339183D01*
X132678760Y-77514993D01*
X132678760Y-77694247D01*
X132713731Y-77870057D01*
X132782329Y-78035667D01*
X132881917Y-78184711D01*
X133008669Y-78311463D01*
X133157713Y-78411051D01*
X133323323Y-78479649D01*
X133405293Y-78495954D01*
X134627501Y-79718163D01*
X134627501Y-82197399D01*
X128583704Y-76153603D01*
X128559901Y-76124599D01*
X128444176Y-76029626D01*
X128312147Y-75959054D01*
X128168886Y-75915597D01*
X128057233Y-75904600D01*
X128057222Y-75904600D01*
X128019900Y-75900924D01*
X127982578Y-75904600D01*
X123678822Y-75904600D01*
X123641500Y-75900924D01*
X123604177Y-75904600D01*
X123604167Y-75904600D01*
X123492514Y-75915597D01*
X123349253Y-75959054D01*
X123217223Y-76029626D01*
X123133583Y-76098268D01*
X123101499Y-76124599D01*
X123077700Y-76153598D01*
X122555600Y-76675699D01*
X122403411Y-76574010D01*
X122133158Y-76462068D01*
X121846260Y-76405000D01*
X121553740Y-76405000D01*
X121266842Y-76462068D01*
X120996589Y-76574010D01*
X120753368Y-76736525D01*
X120546525Y-76943368D01*
X120430000Y-77117760D01*
X120313475Y-76943368D01*
X120106632Y-76736525D01*
X119863411Y-76574010D01*
X119593158Y-76462068D01*
X119306260Y-76405000D01*
X119013740Y-76405000D01*
X118726842Y-76462068D01*
X118456589Y-76574010D01*
X118213368Y-76736525D01*
X118006525Y-76943368D01*
X117890000Y-77117760D01*
X117773475Y-76943368D01*
X117566632Y-76736525D01*
X117323411Y-76574010D01*
X117053158Y-76462068D01*
X116766260Y-76405000D01*
X116473740Y-76405000D01*
X116186842Y-76462068D01*
X115916589Y-76574010D01*
X115673368Y-76736525D01*
X115466525Y-76943368D01*
X115350000Y-77117760D01*
X115233475Y-76943368D01*
X115026632Y-76736525D01*
X114783411Y-76574010D01*
X114513158Y-76462068D01*
X114226260Y-76405000D01*
X113933740Y-76405000D01*
X113646842Y-76462068D01*
X113376589Y-76574010D01*
X113133368Y-76736525D01*
X113001513Y-76868380D01*
X112979502Y-76795820D01*
X112920537Y-76685506D01*
X112841185Y-76588815D01*
X112744494Y-76509463D01*
X112634180Y-76450498D01*
X112514482Y-76414188D01*
X112390000Y-76401928D01*
X110690000Y-76401928D01*
X110565518Y-76414188D01*
X110445820Y-76450498D01*
X110335506Y-76509463D01*
X110238815Y-76588815D01*
X110159463Y-76685506D01*
X110100498Y-76795820D01*
X110064188Y-76915518D01*
X110051928Y-77040000D01*
X99853106Y-77040000D01*
X99827594Y-77019063D01*
X99717280Y-76960098D01*
X99597582Y-76923788D01*
X99473100Y-76911528D01*
X98908850Y-76914600D01*
X98750100Y-77073350D01*
X98496100Y-77073350D01*
X98337350Y-76914600D01*
X97773100Y-76911528D01*
X97648618Y-76923788D01*
X97528920Y-76960098D01*
X97418606Y-77019063D01*
X97321915Y-77098415D01*
X97242563Y-77195106D01*
X97183598Y-77305420D01*
X97147288Y-77425118D01*
X97135028Y-77549600D01*
X96145851Y-77549600D01*
X96144207Y-75910361D01*
X140012562Y-75882580D01*
X140060538Y-118760181D01*
G04 #@! TA.AperFunction,Conductor*
D20*
G36*
X140060538Y-118760181D02*
G01*
X127231476Y-118754273D01*
X127300971Y-118650267D01*
X127369569Y-118484657D01*
X127404540Y-118308847D01*
X127404540Y-118129593D01*
X127369569Y-117953783D01*
X127300971Y-117788173D01*
X127201383Y-117639129D01*
X127074631Y-117512377D01*
X126925587Y-117412789D01*
X126759977Y-117344191D01*
X126584167Y-117309220D01*
X126404913Y-117309220D01*
X126229103Y-117344191D01*
X126063493Y-117412789D01*
X125994004Y-117459220D01*
X109522103Y-117459220D01*
X107088734Y-115025853D01*
X107072429Y-114943883D01*
X107003831Y-114778273D01*
X106904243Y-114629229D01*
X106777491Y-114502477D01*
X106628447Y-114402889D01*
X106462837Y-114334291D01*
X106287027Y-114299320D01*
X106107773Y-114299320D01*
X105931963Y-114334291D01*
X105766353Y-114402889D01*
X105617309Y-114502477D01*
X105490557Y-114629229D01*
X105390969Y-114778273D01*
X105322371Y-114943883D01*
X105287400Y-115119693D01*
X105287400Y-115298947D01*
X105322371Y-115474757D01*
X105390969Y-115640367D01*
X105490557Y-115789411D01*
X105617309Y-115916163D01*
X105766353Y-116015751D01*
X105931963Y-116084349D01*
X106013933Y-116100654D01*
X108643505Y-118730228D01*
X108656219Y-118745720D01*
X98622075Y-118741099D01*
X98638602Y-118710180D01*
X98674912Y-118590482D01*
X98687172Y-118466000D01*
X98687172Y-116942000D01*
X98674912Y-116817518D01*
X98638602Y-116697820D01*
X98579637Y-116587506D01*
X98500285Y-116490815D01*
X98403594Y-116411463D01*
X98293280Y-116352498D01*
X98173582Y-116316188D01*
X98049100Y-116303928D01*
X96525100Y-116303928D01*
X96400618Y-116316188D01*
X96280920Y-116352498D01*
X96184792Y-116403880D01*
X96147554Y-79249600D01*
X97135028Y-79249600D01*
X97147288Y-79374082D01*
X97183598Y-79493780D01*
X97242563Y-79604094D01*
X97321915Y-79700785D01*
X97418606Y-79780137D01*
X97528920Y-79839102D01*
X97601480Y-79861113D01*
X97469625Y-79992968D01*
X97307110Y-80236189D01*
X97195168Y-80506442D01*
X97138100Y-80793340D01*
X97138100Y-81085860D01*
X97195168Y-81372758D01*
X97307110Y-81643011D01*
X97469625Y-81886232D01*
X97676468Y-82093075D01*
X97850860Y-82209600D01*
X97676468Y-82326125D01*
X97469625Y-82532968D01*
X97307110Y-82776189D01*
X97195168Y-83046442D01*
X97138100Y-83333340D01*
X97138100Y-83625860D01*
X97195168Y-83912758D01*
X97307110Y-84183011D01*
X97469625Y-84426232D01*
X97676468Y-84633075D01*
X97850860Y-84749600D01*
X97676468Y-84866125D01*
X97469625Y-85072968D01*
X97307110Y-85316189D01*
X97195168Y-85586442D01*
X97138100Y-85873340D01*
X97138100Y-86165860D01*
X97195168Y-86452758D01*
X97307110Y-86723011D01*
X97469625Y-86966232D01*
X97676468Y-87173075D01*
X97850860Y-87289600D01*
X97676468Y-87406125D01*
X97469625Y-87612968D01*
X97307110Y-87856189D01*
X97195168Y-88126442D01*
X97138100Y-88413340D01*
X97138100Y-88705860D01*
X97195168Y-88992758D01*
X97307110Y-89263011D01*
X97469625Y-89506232D01*
X97676468Y-89713075D01*
X97850860Y-89829600D01*
X97676468Y-89946125D01*
X97469625Y-90152968D01*
X97307110Y-90396189D01*
X97195168Y-90666442D01*
X97138100Y-90953340D01*
X97138100Y-91245860D01*
X97195168Y-91532758D01*
X97307110Y-91803011D01*
X97469625Y-92046232D01*
X97676468Y-92253075D01*
X97919689Y-92415590D01*
X98189942Y-92527532D01*
X98476840Y-92584600D01*
X98769360Y-92584600D01*
X99056258Y-92527532D01*
X99326511Y-92415590D01*
X99569732Y-92253075D01*
X99776575Y-92046232D01*
X99939090Y-91803011D01*
X100051032Y-91532758D01*
X100108100Y-91245860D01*
X100108100Y-90953340D01*
X100063353Y-90728380D01*
X116052408Y-90728380D01*
X116055480Y-90892630D01*
X116214230Y-91051380D01*
X116963480Y-91051380D01*
X116963480Y-90252130D01*
X117217480Y-90252130D01*
X117217480Y-91051380D01*
X117966730Y-91051380D01*
X118125480Y-90892630D01*
X118128552Y-90728380D01*
X118116292Y-90603898D01*
X118079982Y-90484200D01*
X118021017Y-90373886D01*
X117941665Y-90277195D01*
X117844974Y-90197843D01*
X117734660Y-90138878D01*
X117614962Y-90102568D01*
X117490480Y-90090308D01*
X117376230Y-90093380D01*
X117217480Y-90252130D01*
X116963480Y-90252130D01*
X116804730Y-90093380D01*
X116690480Y-90090308D01*
X116565998Y-90102568D01*
X116446300Y-90138878D01*
X116335986Y-90197843D01*
X116239295Y-90277195D01*
X116159943Y-90373886D01*
X116100978Y-90484200D01*
X116064668Y-90603898D01*
X116052408Y-90728380D01*
X100063353Y-90728380D01*
X100051032Y-90666442D01*
X99939090Y-90396189D01*
X99836840Y-90243161D01*
X101195203Y-88884799D01*
X101224201Y-88861001D01*
X101266642Y-88809287D01*
X101319174Y-88745277D01*
X101389746Y-88613247D01*
X101402563Y-88570994D01*
X101433203Y-88469986D01*
X101444200Y-88358333D01*
X101444200Y-88358323D01*
X101447876Y-88321000D01*
X101444200Y-88283677D01*
X101444200Y-87966536D01*
X101490631Y-87897047D01*
X101559229Y-87731437D01*
X101594200Y-87555627D01*
X101594200Y-87376373D01*
X101559229Y-87200563D01*
X101490631Y-87034953D01*
X101391043Y-86885909D01*
X101264291Y-86759157D01*
X101115247Y-86659569D01*
X100949637Y-86590971D01*
X100773827Y-86556000D01*
X100594573Y-86556000D01*
X100418763Y-86590971D01*
X100253153Y-86659569D01*
X100104109Y-86759157D01*
X99977357Y-86885909D01*
X99877769Y-87034953D01*
X99809171Y-87200563D01*
X99774200Y-87376373D01*
X99774200Y-87555627D01*
X99789434Y-87632213D01*
X99776575Y-87612968D01*
X99569732Y-87406125D01*
X99395340Y-87289600D01*
X99569732Y-87173075D01*
X99776575Y-86966232D01*
X99939090Y-86723011D01*
X100051032Y-86452758D01*
X100108100Y-86165860D01*
X100108100Y-85873340D01*
X100051032Y-85586442D01*
X99939090Y-85316189D01*
X99776575Y-85072968D01*
X99569732Y-84866125D01*
X99395340Y-84749600D01*
X99569732Y-84633075D01*
X99776575Y-84426232D01*
X99939090Y-84183011D01*
X100051032Y-83912758D01*
X100108100Y-83625860D01*
X100108100Y-83333340D01*
X100051032Y-83046442D01*
X99939090Y-82776189D01*
X99776575Y-82532968D01*
X99569732Y-82326125D01*
X99395340Y-82209600D01*
X99569732Y-82093075D01*
X99776575Y-81886232D01*
X99939090Y-81643011D01*
X100051032Y-81372758D01*
X100108100Y-81085860D01*
X100108100Y-80793340D01*
X100051032Y-80506442D01*
X99939090Y-80236189D01*
X99776575Y-79992968D01*
X99644720Y-79861113D01*
X99717280Y-79839102D01*
X99827594Y-79780137D01*
X99924285Y-79700785D01*
X100003637Y-79604094D01*
X100062602Y-79493780D01*
X100098912Y-79374082D01*
X100111172Y-79249600D01*
X100108100Y-78685350D01*
X99949350Y-78526600D01*
X98750100Y-78526600D01*
X98750100Y-78546600D01*
X98496100Y-78546600D01*
X98496100Y-78526600D01*
X97296850Y-78526600D01*
X97138100Y-78685350D01*
X97135028Y-79249600D01*
X96147554Y-79249600D01*
X96145851Y-77549600D01*
X97135028Y-77549600D01*
X97138100Y-78113850D01*
X97296850Y-78272600D01*
X98496100Y-78272600D01*
X98496100Y-77073350D01*
X98750100Y-77073350D01*
X98750100Y-78272600D01*
X99949350Y-78272600D01*
X100108100Y-78113850D01*
X100111172Y-77549600D01*
X100098912Y-77425118D01*
X100062602Y-77305420D01*
X100003637Y-77195106D01*
X99924285Y-77098415D01*
X99853106Y-77040000D01*
X110051928Y-77040000D01*
X110051928Y-78740000D01*
X110064188Y-78864482D01*
X110100498Y-78984180D01*
X110159463Y-79094494D01*
X110238815Y-79191185D01*
X110335506Y-79270537D01*
X110445820Y-79329502D01*
X110565518Y-79365812D01*
X110690000Y-79378072D01*
X110825514Y-79378072D01*
X110834454Y-79407546D01*
X110905026Y-79539576D01*
X110966657Y-79614673D01*
X111000000Y-79655301D01*
X111028998Y-79679099D01*
X115763701Y-84413803D01*
X115763700Y-87529167D01*
X115760023Y-87566500D01*
X115774697Y-87715486D01*
X115818154Y-87858747D01*
X115888726Y-87990776D01*
X115951653Y-88067453D01*
X115983699Y-88106501D01*
X116099424Y-88201474D01*
X116231453Y-88272046D01*
X116267475Y-88282973D01*
X116273188Y-88340982D01*
X116309498Y-88460680D01*
X116368463Y-88570994D01*
X116447815Y-88667685D01*
X116544506Y-88747037D01*
X116654820Y-88806002D01*
X116774518Y-88842312D01*
X116899000Y-88854572D01*
X117599000Y-88854572D01*
X117723482Y-88842312D01*
X117843180Y-88806002D01*
X117953494Y-88747037D01*
X118050185Y-88667685D01*
X118129537Y-88570994D01*
X118188502Y-88460680D01*
X118199000Y-88426073D01*
X118209498Y-88460680D01*
X118268463Y-88570994D01*
X118347815Y-88667685D01*
X118396753Y-88707847D01*
X118399997Y-88740785D01*
X118438783Y-88868646D01*
X118443454Y-88884046D01*
X118480301Y-88952981D01*
X118480300Y-89732467D01*
X118480300Y-89732478D01*
X118476624Y-89769800D01*
X118480300Y-89807123D01*
X118480300Y-90174156D01*
X118435986Y-90197843D01*
X118339295Y-90277195D01*
X118259943Y-90373886D01*
X118200978Y-90484200D01*
X118164668Y-90603898D01*
X118152408Y-90728380D01*
X118152408Y-91628380D01*
X118163244Y-91738400D01*
X118117716Y-91738400D01*
X118128552Y-91628380D01*
X118125480Y-91464130D01*
X117966730Y-91305380D01*
X117217480Y-91305380D01*
X117217480Y-91325380D01*
X116963480Y-91325380D01*
X116963480Y-91305380D01*
X116214230Y-91305380D01*
X116055480Y-91464130D01*
X116052408Y-91628380D01*
X116064668Y-91752862D01*
X116100978Y-91872560D01*
X116159943Y-91982874D01*
X116200020Y-92031708D01*
X115359827Y-92379728D01*
X114436897Y-92996410D01*
X113652010Y-93781297D01*
X113035328Y-94704227D01*
X112610550Y-95729731D01*
X112394000Y-96818401D01*
X112394000Y-97928399D01*
X112610550Y-99017069D01*
X113035328Y-100042573D01*
X113652010Y-100965503D01*
X114436897Y-101750390D01*
X115359827Y-102367072D01*
X116385331Y-102791850D01*
X117474001Y-103008400D01*
X118583999Y-103008400D01*
X119672669Y-102791850D01*
X120698173Y-102367072D01*
X121621103Y-101750390D01*
X122405990Y-100965503D01*
X122853701Y-100295457D01*
X122853700Y-106803298D01*
X117926833Y-111730166D01*
X117844863Y-111746471D01*
X117679253Y-111815069D01*
X117558400Y-111895820D01*
X117558400Y-111860536D01*
X117604831Y-111791047D01*
X117673429Y-111625437D01*
X117708400Y-111449627D01*
X117708400Y-111270373D01*
X117673429Y-111094563D01*
X117604831Y-110928953D01*
X117505243Y-110779909D01*
X117378491Y-110653157D01*
X117229447Y-110553569D01*
X117063837Y-110484971D01*
X116888027Y-110450000D01*
X116861200Y-110450000D01*
X116861200Y-110174569D01*
X116880847Y-110166431D01*
X117029891Y-110066843D01*
X117156643Y-109940091D01*
X117256231Y-109791047D01*
X117324829Y-109625437D01*
X117359800Y-109449627D01*
X117359800Y-109270373D01*
X117324829Y-109094563D01*
X117256231Y-108928953D01*
X117156643Y-108779909D01*
X117029891Y-108653157D01*
X116880847Y-108553569D01*
X116715237Y-108484971D01*
X116539427Y-108450000D01*
X116360173Y-108450000D01*
X116184363Y-108484971D01*
X116018753Y-108553569D01*
X115869709Y-108653157D01*
X115742957Y-108779909D01*
X115643369Y-108928953D01*
X115574771Y-109094563D01*
X115559674Y-109170458D01*
X115537402Y-109197597D01*
X115537401Y-109197598D01*
X115466226Y-109284324D01*
X115395654Y-109416354D01*
X115352198Y-109559615D01*
X115337524Y-109708600D01*
X115341201Y-109745932D01*
X115341200Y-112892277D01*
X115337524Y-112929600D01*
X115341200Y-112966922D01*
X115341200Y-112966932D01*
X115352197Y-113078585D01*
X115384568Y-113185299D01*
X115395654Y-113221846D01*
X115466226Y-113353876D01*
X115479871Y-113370502D01*
X115561199Y-113469601D01*
X115590203Y-113493404D01*
X117540301Y-115443503D01*
X117564099Y-115472501D01*
X117679824Y-115567474D01*
X117811853Y-115638046D01*
X117955114Y-115681503D01*
X118066767Y-115692500D01*
X118066776Y-115692500D01*
X118104099Y-115696176D01*
X118141422Y-115692500D01*
X119807458Y-115692500D01*
X119844780Y-115696176D01*
X119882102Y-115692500D01*
X119882113Y-115692500D01*
X119993766Y-115681503D01*
X120137027Y-115638046D01*
X120269056Y-115567474D01*
X120384781Y-115472501D01*
X120408584Y-115443497D01*
X124891492Y-110960589D01*
X129912000Y-110960589D01*
X129912000Y-111233411D01*
X129965225Y-111500989D01*
X130069629Y-111753043D01*
X130221201Y-111979886D01*
X130414114Y-112172799D01*
X130640957Y-112324371D01*
X130893011Y-112428775D01*
X131160589Y-112482000D01*
X131433411Y-112482000D01*
X131700989Y-112428775D01*
X131953043Y-112324371D01*
X132179886Y-112172799D01*
X132372799Y-111979886D01*
X132524371Y-111753043D01*
X132628775Y-111500989D01*
X132682000Y-111233411D01*
X132682000Y-110960589D01*
X134792000Y-110960589D01*
X134792000Y-111233411D01*
X134845225Y-111500989D01*
X134949629Y-111753043D01*
X135101201Y-111979886D01*
X135294114Y-112172799D01*
X135520957Y-112324371D01*
X135773011Y-112428775D01*
X136040589Y-112482000D01*
X136313411Y-112482000D01*
X136580989Y-112428775D01*
X136833043Y-112324371D01*
X137059886Y-112172799D01*
X137252799Y-111979886D01*
X137404371Y-111753043D01*
X137508775Y-111500989D01*
X137562000Y-111233411D01*
X137562000Y-110960589D01*
X137508775Y-110693011D01*
X137404371Y-110440957D01*
X137252799Y-110214114D01*
X137059886Y-110021201D01*
X136833043Y-109869629D01*
X136580989Y-109765225D01*
X136313411Y-109712000D01*
X136040589Y-109712000D01*
X135773011Y-109765225D01*
X135520957Y-109869629D01*
X135294114Y-110021201D01*
X135101201Y-110214114D01*
X134949629Y-110440957D01*
X134845225Y-110693011D01*
X134792000Y-110960589D01*
X132682000Y-110960589D01*
X132628775Y-110693011D01*
X132524371Y-110440957D01*
X132372799Y-110214114D01*
X132179886Y-110021201D01*
X131953043Y-109869629D01*
X131700989Y-109765225D01*
X131433411Y-109712000D01*
X131160589Y-109712000D01*
X130893011Y-109765225D01*
X130640957Y-109869629D01*
X130414114Y-110021201D01*
X130221201Y-110214114D01*
X130069629Y-110440957D01*
X129965225Y-110693011D01*
X129912000Y-110960589D01*
X124891492Y-110960589D01*
X127155603Y-108696479D01*
X127184601Y-108672681D01*
X127279574Y-108556956D01*
X127350146Y-108424927D01*
X127393603Y-108281666D01*
X127404600Y-108170013D01*
X127404600Y-108170005D01*
X127408276Y-108132680D01*
X127404600Y-108095355D01*
X127404600Y-104003589D01*
X129897000Y-104003589D01*
X129897000Y-104276411D01*
X129950225Y-104543989D01*
X130054629Y-104796043D01*
X130206201Y-105022886D01*
X130399114Y-105215799D01*
X130625957Y-105367371D01*
X130878011Y-105471775D01*
X131145589Y-105525000D01*
X131418411Y-105525000D01*
X131685989Y-105471775D01*
X131938043Y-105367371D01*
X132164886Y-105215799D01*
X132357799Y-105022886D01*
X132509371Y-104796043D01*
X132613775Y-104543989D01*
X132667000Y-104276411D01*
X132667000Y-104003589D01*
X134777000Y-104003589D01*
X134777000Y-104276411D01*
X134830225Y-104543989D01*
X134934629Y-104796043D01*
X135086201Y-105022886D01*
X135279114Y-105215799D01*
X135505957Y-105367371D01*
X135758011Y-105471775D01*
X136025589Y-105525000D01*
X136298411Y-105525000D01*
X136565989Y-105471775D01*
X136818043Y-105367371D01*
X137044886Y-105215799D01*
X137237799Y-105022886D01*
X137389371Y-104796043D01*
X137493775Y-104543989D01*
X137547000Y-104276411D01*
X137547000Y-104003589D01*
X137493775Y-103736011D01*
X137389371Y-103483957D01*
X137237799Y-103257114D01*
X137044886Y-103064201D01*
X136818043Y-102912629D01*
X136565989Y-102808225D01*
X136298411Y-102755000D01*
X136025589Y-102755000D01*
X135758011Y-102808225D01*
X135505957Y-102912629D01*
X135279114Y-103064201D01*
X135086201Y-103257114D01*
X134934629Y-103483957D01*
X134830225Y-103736011D01*
X134777000Y-104003589D01*
X132667000Y-104003589D01*
X132613775Y-103736011D01*
X132509371Y-103483957D01*
X132357799Y-103257114D01*
X132164886Y-103064201D01*
X131938043Y-102912629D01*
X131685989Y-102808225D01*
X131418411Y-102755000D01*
X131145589Y-102755000D01*
X130878011Y-102808225D01*
X130625957Y-102912629D01*
X130399114Y-103064201D01*
X130206201Y-103257114D01*
X130054629Y-103483957D01*
X129950225Y-103736011D01*
X129897000Y-104003589D01*
X127404600Y-104003589D01*
X127404600Y-99051653D01*
X130613740Y-99051653D01*
X130613740Y-99230907D01*
X130648711Y-99406717D01*
X130717309Y-99572327D01*
X130816897Y-99721371D01*
X130943649Y-99848123D01*
X131092693Y-99947711D01*
X131258303Y-100016309D01*
X131434113Y-100051280D01*
X131613367Y-100051280D01*
X131789177Y-100016309D01*
X131954787Y-99947711D01*
X132103831Y-99848123D01*
X132230583Y-99721371D01*
X132330171Y-99572327D01*
X132398769Y-99406717D01*
X132415074Y-99324747D01*
X137577503Y-94162319D01*
X137606501Y-94138521D01*
X137701474Y-94022796D01*
X137772046Y-93890767D01*
X137815503Y-93747506D01*
X137826500Y-93635853D01*
X137826500Y-93635844D01*
X137830176Y-93598521D01*
X137826500Y-93561198D01*
X137826500Y-89052536D01*
X137872931Y-88983047D01*
X137941529Y-88817437D01*
X137976500Y-88641627D01*
X137976500Y-88462373D01*
X137941529Y-88286563D01*
X137872931Y-88120953D01*
X137773343Y-87971909D01*
X137646591Y-87845157D01*
X137497547Y-87745569D01*
X137331937Y-87676971D01*
X137156127Y-87642000D01*
X136976873Y-87642000D01*
X136801063Y-87676971D01*
X136635453Y-87745569D01*
X136486409Y-87845157D01*
X136359657Y-87971909D01*
X136260069Y-88120953D01*
X136191471Y-88286563D01*
X136156500Y-88462373D01*
X136156500Y-88641627D01*
X136191471Y-88817437D01*
X136260069Y-88983047D01*
X136306500Y-89052536D01*
X136306501Y-93283717D01*
X131340273Y-98249946D01*
X131258303Y-98266251D01*
X131092693Y-98334849D01*
X130943649Y-98434437D01*
X130816897Y-98561189D01*
X130717309Y-98710233D01*
X130648711Y-98875843D01*
X130613740Y-99051653D01*
X127404600Y-99051653D01*
X127404600Y-95443236D01*
X127451031Y-95373747D01*
X127519629Y-95208137D01*
X127554600Y-95032327D01*
X127554600Y-94853073D01*
X127519629Y-94677263D01*
X127451031Y-94511653D01*
X127351443Y-94362609D01*
X127224691Y-94235857D01*
X127075647Y-94136269D01*
X126910037Y-94067671D01*
X126734227Y-94032700D01*
X126554973Y-94032700D01*
X126379163Y-94067671D01*
X126213553Y-94136269D01*
X126064509Y-94235857D01*
X125937757Y-94362609D01*
X125838169Y-94511653D01*
X125835096Y-94519073D01*
X125801043Y-94468109D01*
X125674291Y-94341357D01*
X125525247Y-94241769D01*
X125359637Y-94173171D01*
X125183827Y-94138200D01*
X125004573Y-94138200D01*
X124828763Y-94173171D01*
X124663153Y-94241769D01*
X124514109Y-94341357D01*
X124387357Y-94468109D01*
X124353950Y-94518106D01*
X124320543Y-94468109D01*
X124193791Y-94341357D01*
X124083600Y-94267730D01*
X124090929Y-94250037D01*
X124125900Y-94074227D01*
X124125900Y-93894973D01*
X124090929Y-93719163D01*
X124022331Y-93553553D01*
X123922743Y-93404509D01*
X123795991Y-93277757D01*
X123646947Y-93178169D01*
X123481337Y-93109571D01*
X123305527Y-93074600D01*
X123126273Y-93074600D01*
X122950463Y-93109571D01*
X122784853Y-93178169D01*
X122715364Y-93224600D01*
X121849293Y-93224600D01*
X121621103Y-92996410D01*
X120698173Y-92379728D01*
X120018806Y-92098325D01*
X120041665Y-92079565D01*
X120121017Y-91982874D01*
X120179982Y-91872560D01*
X120216292Y-91752862D01*
X120228552Y-91628380D01*
X120228552Y-90728380D01*
X120216292Y-90603898D01*
X120179982Y-90484200D01*
X120121017Y-90373886D01*
X120041665Y-90277195D01*
X120000300Y-90243248D01*
X120000300Y-89954282D01*
X120006002Y-89935485D01*
X120020676Y-89786499D01*
X120006002Y-89637514D01*
X120000300Y-89618717D01*
X120000300Y-89435998D01*
X120135133Y-89526091D01*
X120300743Y-89594689D01*
X120476553Y-89629660D01*
X120655807Y-89629660D01*
X120831617Y-89594689D01*
X120997227Y-89526091D01*
X121146271Y-89426503D01*
X121273023Y-89299751D01*
X121372611Y-89150707D01*
X121441209Y-88985097D01*
X121476180Y-88809287D01*
X121476180Y-88630033D01*
X121441209Y-88454223D01*
X121372611Y-88288613D01*
X121326180Y-88219124D01*
X121326180Y-87586182D01*
X125514818Y-91774820D01*
X125508800Y-91805073D01*
X125508800Y-91984327D01*
X125543771Y-92160137D01*
X125612369Y-92325747D01*
X125711957Y-92474791D01*
X125838709Y-92601543D01*
X125987753Y-92701131D01*
X126153363Y-92769729D01*
X126329173Y-92804700D01*
X126508427Y-92804700D01*
X126684237Y-92769729D01*
X126849847Y-92701131D01*
X126998891Y-92601543D01*
X127125643Y-92474791D01*
X127225231Y-92325747D01*
X127293829Y-92160137D01*
X127328800Y-91984327D01*
X127328800Y-91805073D01*
X127308322Y-91702123D01*
X128848066Y-93241868D01*
X128864371Y-93323837D01*
X128932969Y-93489447D01*
X129032557Y-93638491D01*
X129159309Y-93765243D01*
X129308353Y-93864831D01*
X129473963Y-93933429D01*
X129649773Y-93968400D01*
X129829027Y-93968400D01*
X130004837Y-93933429D01*
X130170447Y-93864831D01*
X130319491Y-93765243D01*
X130446243Y-93638491D01*
X130545831Y-93489447D01*
X130614429Y-93323837D01*
X130649400Y-93148027D01*
X130649400Y-92968773D01*
X130614429Y-92792963D01*
X130545831Y-92627353D01*
X130446243Y-92478309D01*
X130319491Y-92351557D01*
X130170447Y-92251969D01*
X130004837Y-92183371D01*
X129922868Y-92167066D01*
X128300500Y-90544699D01*
X128300500Y-87525236D01*
X128346931Y-87455747D01*
X128415529Y-87290137D01*
X128450500Y-87114327D01*
X128450500Y-86935073D01*
X128415529Y-86759263D01*
X128346931Y-86593653D01*
X128247343Y-86444609D01*
X128120591Y-86317857D01*
X127971547Y-86218269D01*
X127805937Y-86149671D01*
X127630127Y-86114700D01*
X127450873Y-86114700D01*
X127275063Y-86149671D01*
X127109453Y-86218269D01*
X126960409Y-86317857D01*
X126833657Y-86444609D01*
X126734069Y-86593653D01*
X126665471Y-86759263D01*
X126630500Y-86935073D01*
X126630500Y-87114327D01*
X126665471Y-87290137D01*
X126734069Y-87455747D01*
X126780501Y-87525237D01*
X126780500Y-90822177D01*
X126776824Y-90859500D01*
X126779853Y-90890251D01*
X117380000Y-81490399D01*
X117380000Y-79168178D01*
X117566632Y-79043475D01*
X117773475Y-78836632D01*
X117890000Y-78662240D01*
X118006525Y-78836632D01*
X118213368Y-79043475D01*
X118456589Y-79205990D01*
X118726842Y-79317932D01*
X119013740Y-79375000D01*
X119306260Y-79375000D01*
X119593158Y-79317932D01*
X119863411Y-79205990D01*
X120106632Y-79043475D01*
X120313475Y-78836632D01*
X120430000Y-78662240D01*
X120546525Y-78836632D01*
X120753368Y-79043475D01*
X120996589Y-79205990D01*
X121266842Y-79317932D01*
X121553740Y-79375000D01*
X121846260Y-79375000D01*
X122133158Y-79317932D01*
X122210101Y-79286061D01*
X122210100Y-81013297D01*
X120635133Y-82588266D01*
X120553163Y-82604571D01*
X120387553Y-82673169D01*
X120238509Y-82772757D01*
X120111757Y-82899509D01*
X120012169Y-83048553D01*
X119943571Y-83214163D01*
X119908600Y-83389973D01*
X119908600Y-83569227D01*
X119943571Y-83745037D01*
X120012169Y-83910647D01*
X120111757Y-84059691D01*
X120238509Y-84186443D01*
X120387553Y-84286031D01*
X120553163Y-84354629D01*
X120728973Y-84389600D01*
X120908227Y-84389600D01*
X121084037Y-84354629D01*
X121249647Y-84286031D01*
X121398691Y-84186443D01*
X121525443Y-84059691D01*
X121625031Y-83910647D01*
X121693629Y-83745037D01*
X121709934Y-83663067D01*
X123481109Y-81891894D01*
X123510101Y-81868101D01*
X123533895Y-81839108D01*
X123533899Y-81839104D01*
X123605073Y-81752377D01*
X123605074Y-81752376D01*
X123675646Y-81620347D01*
X123719103Y-81477086D01*
X123730100Y-81365433D01*
X123730100Y-81365424D01*
X123733776Y-81328101D01*
X123730100Y-81290778D01*
X123730100Y-79284062D01*
X123735901Y-79286825D01*
X123883110Y-79331476D01*
X124113000Y-79210155D01*
X124113000Y-78017000D01*
X124367000Y-78017000D01*
X124367000Y-79210155D01*
X124596890Y-79331476D01*
X124744099Y-79286825D01*
X125006920Y-79161641D01*
X125240269Y-78987588D01*
X125435178Y-78771355D01*
X125584157Y-78521252D01*
X125681481Y-78246891D01*
X125560814Y-78017000D01*
X124367000Y-78017000D01*
X124113000Y-78017000D01*
X124093000Y-78017000D01*
X124093000Y-77763000D01*
X124113000Y-77763000D01*
X124113000Y-77743000D01*
X124367000Y-77743000D01*
X124367000Y-77763000D01*
X125560814Y-77763000D01*
X125681481Y-77533109D01*
X125642990Y-77424600D01*
X127705099Y-77424600D01*
X129401982Y-79121484D01*
X129399257Y-79124209D01*
X129299669Y-79273253D01*
X129231071Y-79438863D01*
X129196100Y-79614673D01*
X129196100Y-79793927D01*
X129231071Y-79969737D01*
X129299669Y-80135347D01*
X129346101Y-80204837D01*
X129346100Y-90463964D01*
X129299669Y-90533453D01*
X129231071Y-90699063D01*
X129196100Y-90874873D01*
X129196100Y-91054127D01*
X129231071Y-91229937D01*
X129299669Y-91395547D01*
X129399257Y-91544591D01*
X129526009Y-91671343D01*
X129675053Y-91770931D01*
X129840663Y-91839529D01*
X130016473Y-91874500D01*
X130195727Y-91874500D01*
X130371537Y-91839529D01*
X130537147Y-91770931D01*
X130686191Y-91671343D01*
X130812943Y-91544591D01*
X130912531Y-91395547D01*
X130981129Y-91229937D01*
X131016100Y-91054127D01*
X131016100Y-90874873D01*
X130981129Y-90699063D01*
X130912531Y-90533453D01*
X130866100Y-90463964D01*
X130866100Y-80585602D01*
X133399100Y-83118602D01*
X133399101Y-87572463D01*
X133352669Y-87641953D01*
X133284071Y-87807563D01*
X133249100Y-87983373D01*
X133249100Y-88162627D01*
X133284071Y-88338437D01*
X133352669Y-88504047D01*
X133452257Y-88653091D01*
X133579009Y-88779843D01*
X133728053Y-88879431D01*
X133893663Y-88948029D01*
X134069473Y-88983000D01*
X134248727Y-88983000D01*
X134424537Y-88948029D01*
X134590147Y-88879431D01*
X134627500Y-88854472D01*
X134627500Y-90142364D01*
X134581069Y-90211853D01*
X134512471Y-90377463D01*
X134477500Y-90553273D01*
X134477500Y-90732527D01*
X134512471Y-90908337D01*
X134581069Y-91073947D01*
X134680657Y-91222991D01*
X134807409Y-91349743D01*
X134956453Y-91449331D01*
X135122063Y-91517929D01*
X135297873Y-91552900D01*
X135477127Y-91552900D01*
X135652937Y-91517929D01*
X135818547Y-91449331D01*
X135967591Y-91349743D01*
X136094343Y-91222991D01*
X136193931Y-91073947D01*
X136262529Y-90908337D01*
X136297500Y-90732527D01*
X136297500Y-90553273D01*
X136262529Y-90377463D01*
X136193931Y-90211853D01*
X136147500Y-90142364D01*
X136147500Y-79440693D01*
X136151177Y-79403360D01*
X136136503Y-79254374D01*
X136093046Y-79111113D01*
X136022474Y-78979084D01*
X135951299Y-78892357D01*
X135927501Y-78863359D01*
X135898503Y-78839561D01*
X134480094Y-77421153D01*
X134463789Y-77339183D01*
X134395191Y-77173573D01*
X134295603Y-77024529D01*
X134168851Y-76897777D01*
X134019807Y-76798189D01*
X133854197Y-76729591D01*
X133678387Y-76694620D01*
X133499133Y-76694620D01*
X133323323Y-76729591D01*
X133157713Y-76798189D01*
X133008669Y-76897777D01*
X132881917Y-77024529D01*
X132782329Y-77173573D01*
X132713731Y-77339183D01*
X132678760Y-77514993D01*
X132678760Y-77694247D01*
X132713731Y-77870057D01*
X132782329Y-78035667D01*
X132881917Y-78184711D01*
X133008669Y-78311463D01*
X133157713Y-78411051D01*
X133323323Y-78479649D01*
X133405293Y-78495954D01*
X134627501Y-79718163D01*
X134627501Y-82197399D01*
X128583704Y-76153603D01*
X128559901Y-76124599D01*
X128444176Y-76029626D01*
X128312147Y-75959054D01*
X128168886Y-75915597D01*
X128057233Y-75904600D01*
X128057222Y-75904600D01*
X128019900Y-75900924D01*
X127982578Y-75904600D01*
X123678822Y-75904600D01*
X123641500Y-75900924D01*
X123604177Y-75904600D01*
X123604167Y-75904600D01*
X123492514Y-75915597D01*
X123349253Y-75959054D01*
X123217223Y-76029626D01*
X123133583Y-76098268D01*
X123101499Y-76124599D01*
X123077700Y-76153598D01*
X122555600Y-76675699D01*
X122403411Y-76574010D01*
X122133158Y-76462068D01*
X121846260Y-76405000D01*
X121553740Y-76405000D01*
X121266842Y-76462068D01*
X120996589Y-76574010D01*
X120753368Y-76736525D01*
X120546525Y-76943368D01*
X120430000Y-77117760D01*
X120313475Y-76943368D01*
X120106632Y-76736525D01*
X119863411Y-76574010D01*
X119593158Y-76462068D01*
X119306260Y-76405000D01*
X119013740Y-76405000D01*
X118726842Y-76462068D01*
X118456589Y-76574010D01*
X118213368Y-76736525D01*
X118006525Y-76943368D01*
X117890000Y-77117760D01*
X117773475Y-76943368D01*
X117566632Y-76736525D01*
X117323411Y-76574010D01*
X117053158Y-76462068D01*
X116766260Y-76405000D01*
X116473740Y-76405000D01*
X116186842Y-76462068D01*
X115916589Y-76574010D01*
X115673368Y-76736525D01*
X115466525Y-76943368D01*
X115350000Y-77117760D01*
X115233475Y-76943368D01*
X115026632Y-76736525D01*
X114783411Y-76574010D01*
X114513158Y-76462068D01*
X114226260Y-76405000D01*
X113933740Y-76405000D01*
X113646842Y-76462068D01*
X113376589Y-76574010D01*
X113133368Y-76736525D01*
X113001513Y-76868380D01*
X112979502Y-76795820D01*
X112920537Y-76685506D01*
X112841185Y-76588815D01*
X112744494Y-76509463D01*
X112634180Y-76450498D01*
X112514482Y-76414188D01*
X112390000Y-76401928D01*
X110690000Y-76401928D01*
X110565518Y-76414188D01*
X110445820Y-76450498D01*
X110335506Y-76509463D01*
X110238815Y-76588815D01*
X110159463Y-76685506D01*
X110100498Y-76795820D01*
X110064188Y-76915518D01*
X110051928Y-77040000D01*
X99853106Y-77040000D01*
X99827594Y-77019063D01*
X99717280Y-76960098D01*
X99597582Y-76923788D01*
X99473100Y-76911528D01*
X98908850Y-76914600D01*
X98750100Y-77073350D01*
X98496100Y-77073350D01*
X98337350Y-76914600D01*
X97773100Y-76911528D01*
X97648618Y-76923788D01*
X97528920Y-76960098D01*
X97418606Y-77019063D01*
X97321915Y-77098415D01*
X97242563Y-77195106D01*
X97183598Y-77305420D01*
X97147288Y-77425118D01*
X97135028Y-77549600D01*
X96145851Y-77549600D01*
X96144207Y-75910361D01*
X140012562Y-75882580D01*
X140060538Y-118760181D01*
G37*
G04 #@! TD.AperFunction*
M02*
