G04 #@! TF.GenerationSoftware,KiCad,Pcbnew,5.1.6-c6e7f7d~87~ubuntu18.04.1*
G04 #@! TF.CreationDate,2020-10-10T14:26:16+05:30*
G04 #@! TF.ProjectId,BackEnd_HeavyDevice_v1,4261636b-456e-4645-9f48-656176794465,rev?*
G04 #@! TF.SameCoordinates,Original*
G04 #@! TF.FileFunction,Other,Fab,Top*
%FSLAX46Y46*%
G04 Gerber Fmt 4.6, Leading zero omitted, Abs format (unit mm)*
G04 Created by KiCad (PCBNEW 5.1.6-c6e7f7d~87~ubuntu18.04.1) date 2020-10-10 14:26:16*
%MOMM*%
%LPD*%
G01*
G04 APERTURE LIST*
%ADD10C,0.100000*%
%ADD11C,0.150000*%
G04 APERTURE END LIST*
D10*
X116911000Y-99844000D02*
X116911000Y-100744000D01*
X116461000Y-100294000D02*
X117361000Y-100294000D01*
X121161000Y-100294000D02*
G75*
G03*
X121161000Y-100294000I-2000000J0D01*
G01*
X116916000Y-89443100D02*
X116916000Y-90343100D01*
X116466000Y-89893100D02*
X117366000Y-89893100D01*
X121166000Y-89893100D02*
G75*
G03*
X121166000Y-89893100I-2000000J0D01*
G01*
X127141000Y-92070400D02*
X127141000Y-94670400D01*
X127141000Y-94670400D02*
X130941000Y-94670400D01*
X130941000Y-94670400D02*
X130941000Y-92070400D01*
X130941000Y-92070400D02*
X127141000Y-92070400D01*
X125291000Y-93370400D02*
X127141000Y-93370400D01*
X132791000Y-93370400D02*
X130941000Y-93370400D01*
X141178000Y-98473300D02*
G75*
G03*
X141178000Y-98473300I-2000000J0D01*
G01*
X141878000Y-98473300D02*
X140978000Y-98473300D01*
X141428000Y-98923300D02*
X141428000Y-98023300D01*
X137350000Y-113780000D02*
X137350000Y-115630000D01*
X137350000Y-121280000D02*
X137350000Y-119430000D01*
X136050000Y-115630000D02*
X136050000Y-119430000D01*
X138650000Y-115630000D02*
X136050000Y-115630000D01*
X138650000Y-119430000D02*
X138650000Y-115630000D01*
X136050000Y-119430000D02*
X138650000Y-119430000D01*
X121166000Y-95079800D02*
G75*
G03*
X121166000Y-95079800I-2000000J0D01*
G01*
X116466000Y-95079800D02*
X117366000Y-95079800D01*
X116916000Y-94629800D02*
X116916000Y-95529800D01*
X137427000Y-103714000D02*
X137427000Y-105564000D01*
X137427000Y-111214000D02*
X137427000Y-109364000D01*
X136127000Y-105564000D02*
X136127000Y-109364000D01*
X138727000Y-105564000D02*
X136127000Y-105564000D01*
X138727000Y-109364000D02*
X138727000Y-105564000D01*
X136127000Y-109364000D02*
X138727000Y-109364000D01*
X115825000Y-125678000D02*
X115825000Y-121678000D01*
X107325000Y-125678000D02*
X115825000Y-125678000D01*
X107325000Y-121678000D02*
X107325000Y-125678000D01*
X115825000Y-121678000D02*
X107325000Y-121678000D01*
X124028000Y-90172500D02*
X123393000Y-89537500D01*
X141173000Y-90172500D02*
X124028000Y-90172500D01*
X141173000Y-87632500D02*
X141173000Y-90172500D01*
X123393000Y-87632500D02*
X141173000Y-87632500D01*
X123393000Y-89537500D02*
X123393000Y-87632500D01*
X120586000Y-131168000D02*
X120586000Y-136168000D01*
X120586000Y-136168000D02*
X140586000Y-136168000D01*
X140586000Y-136168000D02*
X140586000Y-131168000D01*
X140586000Y-131168000D02*
X120586000Y-131168000D01*
X120586000Y-133168000D02*
X140586000Y-133168000D01*
X128936000Y-131168000D02*
X128936000Y-133168000D01*
X132236000Y-131168000D02*
X132236000Y-133168000D01*
X135059000Y-96000300D02*
X124899000Y-96000300D01*
X135059000Y-101200300D02*
X135059000Y-96000300D01*
X124899000Y-101200300D02*
X135059000Y-101200300D01*
X124899000Y-96000300D02*
X124899000Y-101200300D01*
X126804000Y-97060300D02*
X127804000Y-96060300D01*
X126804000Y-101140300D02*
X126804000Y-97060300D01*
X133154000Y-101140300D02*
X126804000Y-101140300D01*
X133154000Y-96060300D02*
X133154000Y-101140300D01*
X127804000Y-96060300D02*
X133154000Y-96060300D01*
X152070000Y-116132000D02*
X141910000Y-116132000D01*
X152070000Y-123872000D02*
X152070000Y-116132000D01*
X141910000Y-123872000D02*
X152070000Y-123872000D01*
X141910000Y-116132000D02*
X141910000Y-123872000D01*
X143815000Y-117192000D02*
X144815000Y-116192000D01*
X143815000Y-123812000D02*
X143815000Y-117192000D01*
X150165000Y-123812000D02*
X143815000Y-123812000D01*
X150165000Y-116192000D02*
X150165000Y-123812000D01*
X144815000Y-116192000D02*
X150165000Y-116192000D01*
D11*
X118999333Y-95436942D02*
X118951714Y-95484561D01*
X118808857Y-95532180D01*
X118713619Y-95532180D01*
X118570761Y-95484561D01*
X118475523Y-95389323D01*
X118427904Y-95294085D01*
X118380285Y-95103609D01*
X118380285Y-94960752D01*
X118427904Y-94770276D01*
X118475523Y-94675038D01*
X118570761Y-94579800D01*
X118713619Y-94532180D01*
X118808857Y-94532180D01*
X118951714Y-94579800D01*
X118999333Y-94627419D01*
X119856476Y-94532180D02*
X119666000Y-94532180D01*
X119570761Y-94579800D01*
X119523142Y-94627419D01*
X119427904Y-94770276D01*
X119380285Y-94960752D01*
X119380285Y-95341704D01*
X119427904Y-95436942D01*
X119475523Y-95484561D01*
X119570761Y-95532180D01*
X119761238Y-95532180D01*
X119856476Y-95484561D01*
X119904095Y-95436942D01*
X119951714Y-95341704D01*
X119951714Y-95103609D01*
X119904095Y-95008371D01*
X119856476Y-94960752D01*
X119761238Y-94913133D01*
X119570761Y-94913133D01*
X119475523Y-94960752D01*
X119427904Y-95008371D01*
X119380285Y-95103609D01*
M02*
