G04 #@! TF.GenerationSoftware,KiCad,Pcbnew,5.1.6-c6e7f7d~87~ubuntu18.04.1*
G04 #@! TF.CreationDate,2020-10-10T14:26:16+05:30*
G04 #@! TF.ProjectId,BackEnd_HeavyDevice_v1,4261636b-456e-4645-9f48-656176794465,rev?*
G04 #@! TF.SameCoordinates,Original*
G04 #@! TF.FileFunction,OtherDrawing,Comment*
%FSLAX46Y46*%
G04 Gerber Fmt 4.6, Leading zero omitted, Abs format (unit mm)*
G04 Created by KiCad (PCBNEW 5.1.6-c6e7f7d~87~ubuntu18.04.1) date 2020-10-10 14:26:16*
%MOMM*%
%LPD*%
G01*
G04 APERTURE LIST*
%ADD10C,0.150000*%
%ADD11C,0.200000*%
%ADD12C,0.300000*%
%ADD13C,0.050000*%
G04 APERTURE END LIST*
D10*
X101065891Y-115319435D02*
X101065770Y-115795626D01*
X101541949Y-115843365D01*
X101494342Y-115795734D01*
X101446747Y-115700484D01*
X101446807Y-115462389D01*
X101494450Y-115367163D01*
X101542081Y-115319556D01*
X101637332Y-115271961D01*
X101875427Y-115272021D01*
X101970653Y-115319664D01*
X102018260Y-115367295D01*
X102065855Y-115462546D01*
X102065794Y-115700641D01*
X102018151Y-115795867D01*
X101970520Y-115843474D01*
X101066060Y-114652769D02*
X101066084Y-114557531D01*
X101113727Y-114462305D01*
X101161358Y-114414698D01*
X101256608Y-114367103D01*
X101447096Y-114319532D01*
X101685191Y-114319592D01*
X101875656Y-114367259D01*
X101970882Y-114414902D01*
X102018489Y-114462534D01*
X102066084Y-114557784D01*
X102066060Y-114653022D01*
X102018416Y-114748248D01*
X101970785Y-114795855D01*
X101875535Y-114843450D01*
X101685047Y-114891021D01*
X101446952Y-114890960D01*
X101256488Y-114843293D01*
X101161262Y-114795650D01*
X101113655Y-114748019D01*
X101066060Y-114652769D01*
X101971014Y-113891093D02*
X102018645Y-113843486D01*
X102066252Y-113891117D01*
X102018621Y-113938724D01*
X101971014Y-113891093D01*
X102066252Y-113891117D01*
X101161599Y-113462317D02*
X101113992Y-113414686D01*
X101066397Y-113319436D01*
X101066457Y-113081340D01*
X101114100Y-112986114D01*
X101161731Y-112938507D01*
X101256981Y-112890912D01*
X101352220Y-112890936D01*
X101495065Y-112938592D01*
X102066349Y-113510165D01*
X102066505Y-112891117D01*
X101066662Y-112271817D02*
X101066686Y-112176578D01*
X101114329Y-112081352D01*
X101161960Y-112033745D01*
X101257210Y-111986150D01*
X101447699Y-111938580D01*
X101685794Y-111938640D01*
X101876258Y-111986307D01*
X101971484Y-112033950D01*
X102019091Y-112081581D01*
X102066686Y-112176831D01*
X102066662Y-112272069D01*
X102019019Y-112367296D01*
X101971388Y-112414903D01*
X101876138Y-112462497D01*
X101685649Y-112510068D01*
X101447554Y-112510008D01*
X101257090Y-112462341D01*
X101161864Y-112414698D01*
X101114257Y-112367067D01*
X101066662Y-112271817D01*
X102066987Y-110986355D02*
X102066843Y-111557784D01*
X102066915Y-111272070D02*
X101066915Y-111271817D01*
X101209748Y-111367091D01*
X101304962Y-111462353D01*
X101352557Y-111557603D01*
X102067288Y-109795879D02*
X101400622Y-109795710D01*
X101495860Y-109795735D02*
X101448253Y-109748103D01*
X101400658Y-109652853D01*
X101400694Y-109509996D01*
X101448337Y-109414770D01*
X101543587Y-109367175D01*
X102067397Y-109367308D01*
X101543587Y-109367175D02*
X101448361Y-109319532D01*
X101400766Y-109224282D01*
X101400802Y-109081425D01*
X101448446Y-108986199D01*
X101543696Y-108938604D01*
X102067505Y-108938736D01*
X102067626Y-108462546D02*
X101400959Y-108462377D01*
X101496197Y-108462401D02*
X101448590Y-108414770D01*
X101400995Y-108319520D01*
X101401031Y-108176663D01*
X101448674Y-108081437D01*
X101543925Y-108033842D01*
X102067734Y-108033974D01*
X101543925Y-108033842D02*
X101448698Y-107986199D01*
X101401104Y-107890949D01*
X101401140Y-107748091D01*
X101448783Y-107652865D01*
X101544033Y-107605270D01*
X102067842Y-107605403D01*
X102908076Y-136801136D02*
X102920776Y-86600576D01*
X105768140Y-136801860D02*
X102321655Y-136800988D01*
X105780840Y-86601300D02*
X102334355Y-86600428D01*
X102920776Y-86600576D02*
X103506912Y-87727228D01*
X102920776Y-86600576D02*
X102334070Y-87726931D01*
X102908076Y-136801136D02*
X103494782Y-135674781D01*
X102908076Y-136801136D02*
X102321940Y-135674484D01*
X126810099Y-140803672D02*
X126809680Y-141470338D01*
X126572244Y-140422570D02*
X126333699Y-141136705D01*
X126952747Y-141137095D01*
X127476706Y-140899329D02*
X127381498Y-140851650D01*
X127333909Y-140804001D01*
X127286350Y-140708733D01*
X127286380Y-140661114D01*
X127334059Y-140565906D01*
X127381708Y-140518317D01*
X127476976Y-140470758D01*
X127667452Y-140470878D01*
X127762660Y-140518557D01*
X127810249Y-140566206D01*
X127857808Y-140661474D01*
X127857778Y-140709093D01*
X127810099Y-140804301D01*
X127762450Y-140851890D01*
X127667182Y-140899449D01*
X127476706Y-140899329D01*
X127381438Y-140946889D01*
X127333789Y-140994478D01*
X127286110Y-141089686D01*
X127285990Y-141280162D01*
X127333549Y-141375430D01*
X127381138Y-141423079D01*
X127476346Y-141470758D01*
X127666822Y-141470878D01*
X127762091Y-141423319D01*
X127809740Y-141375730D01*
X127857419Y-141280522D01*
X127857538Y-141090045D01*
X127809979Y-140994777D01*
X127762390Y-140947128D01*
X127667182Y-140899449D01*
X128285930Y-141376029D02*
X128333519Y-141423678D01*
X128285870Y-141471267D01*
X128238281Y-141423618D01*
X128285930Y-141376029D01*
X128285870Y-141471267D01*
X129191051Y-140805170D02*
X129190632Y-141471837D01*
X128953196Y-140424068D02*
X128714651Y-141138204D01*
X129333699Y-141138594D01*
X129667392Y-140567375D02*
X129715041Y-140519786D01*
X129810309Y-140472227D01*
X130048404Y-140472377D01*
X130143612Y-140520056D01*
X130191201Y-140567705D01*
X130238760Y-140662973D01*
X130238700Y-140758211D01*
X130190991Y-140901038D01*
X129619203Y-141472107D01*
X130238251Y-141472496D01*
X130857928Y-140472886D02*
X130953166Y-140472946D01*
X131048374Y-140520625D01*
X131095963Y-140568274D01*
X131143522Y-140663542D01*
X131191021Y-140854049D01*
X131190871Y-141092144D01*
X131143132Y-141282590D01*
X131095453Y-141377798D01*
X131047804Y-141425387D01*
X130952536Y-141472946D01*
X130857298Y-141472886D01*
X130762090Y-141425207D01*
X130714501Y-141377558D01*
X130666942Y-141282290D01*
X130619443Y-141091784D01*
X130619593Y-140853689D01*
X130667331Y-140663243D01*
X130715010Y-140568035D01*
X130762659Y-140520445D01*
X130857928Y-140472886D01*
X132381107Y-141473845D02*
X132381527Y-140807179D01*
X132381467Y-140902417D02*
X132429116Y-140854828D01*
X132524384Y-140807269D01*
X132667241Y-140807359D01*
X132762449Y-140855038D01*
X132810008Y-140950306D01*
X132809679Y-141474115D01*
X132810008Y-140950306D02*
X132857687Y-140855098D01*
X132952955Y-140807539D01*
X133095812Y-140807628D01*
X133191021Y-140855307D01*
X133238580Y-140950576D01*
X133238250Y-141474385D01*
X133714440Y-141474685D02*
X133714860Y-140808018D01*
X133714800Y-140903256D02*
X133762449Y-140855667D01*
X133857717Y-140808108D01*
X134000574Y-140808198D01*
X134095782Y-140855877D01*
X134143341Y-140951145D01*
X134143012Y-141474954D01*
X134143341Y-140951145D02*
X134191020Y-140855937D01*
X134286288Y-140808378D01*
X134429146Y-140808468D01*
X134524354Y-140856147D01*
X134571913Y-140951415D01*
X134571583Y-141475224D01*
X106267439Y-139705026D02*
X154687459Y-139735506D01*
X106268520Y-137988040D02*
X106267070Y-140291446D01*
X154688540Y-138018520D02*
X154687090Y-140321926D01*
X154687459Y-139735506D02*
X153560586Y-140321217D01*
X154687459Y-139735506D02*
X153561325Y-139148376D01*
X106267439Y-139705026D02*
X107393573Y-140292156D01*
X106267439Y-139705026D02*
X107394312Y-139119315D01*
D11*
X138929284Y-128254451D02*
X138786427Y-128302070D01*
X138738808Y-128349689D01*
X138691189Y-128444927D01*
X138691189Y-128587784D01*
X138738808Y-128683022D01*
X138786427Y-128730641D01*
X138881665Y-128778260D01*
X139262618Y-128778260D01*
X139262618Y-127778260D01*
X138929284Y-127778260D01*
X138834046Y-127825880D01*
X138786427Y-127873499D01*
X138738808Y-127968737D01*
X138738808Y-128063975D01*
X138786427Y-128159213D01*
X138834046Y-128206832D01*
X138929284Y-128254451D01*
X139262618Y-128254451D01*
X137834046Y-128778260D02*
X137834046Y-128254451D01*
X137881665Y-128159213D01*
X137976903Y-128111594D01*
X138167380Y-128111594D01*
X138262618Y-128159213D01*
X137834046Y-128730641D02*
X137929284Y-128778260D01*
X138167380Y-128778260D01*
X138262618Y-128730641D01*
X138310237Y-128635403D01*
X138310237Y-128540165D01*
X138262618Y-128444927D01*
X138167380Y-128397308D01*
X137929284Y-128397308D01*
X137834046Y-128349689D01*
X136929284Y-128730641D02*
X137024522Y-128778260D01*
X137214999Y-128778260D01*
X137310237Y-128730641D01*
X137357856Y-128683022D01*
X137405475Y-128587784D01*
X137405475Y-128302070D01*
X137357856Y-128206832D01*
X137310237Y-128159213D01*
X137214999Y-128111594D01*
X137024522Y-128111594D01*
X136929284Y-128159213D01*
X136500713Y-128778260D02*
X136500713Y-127778260D01*
X136405475Y-128397308D02*
X136119760Y-128778260D01*
X136119760Y-128111594D02*
X136500713Y-128492546D01*
X135691189Y-128254451D02*
X135357856Y-128254451D01*
X135214999Y-128778260D02*
X135691189Y-128778260D01*
X135691189Y-127778260D01*
X135214999Y-127778260D01*
X134786427Y-128111594D02*
X134786427Y-128778260D01*
X134786427Y-128206832D02*
X134738808Y-128159213D01*
X134643570Y-128111594D01*
X134500713Y-128111594D01*
X134405475Y-128159213D01*
X134357856Y-128254451D01*
X134357856Y-128778260D01*
X133453094Y-128778260D02*
X133453094Y-127778260D01*
X133453094Y-128730641D02*
X133548332Y-128778260D01*
X133738808Y-128778260D01*
X133834046Y-128730641D01*
X133881665Y-128683022D01*
X133929284Y-128587784D01*
X133929284Y-128302070D01*
X133881665Y-128206832D01*
X133834046Y-128159213D01*
X133738808Y-128111594D01*
X133548332Y-128111594D01*
X133453094Y-128159213D01*
X133214999Y-128873499D02*
X132453094Y-128873499D01*
X132214999Y-128778260D02*
X132214999Y-127778260D01*
X132214999Y-128254451D02*
X131643570Y-128254451D01*
X131643570Y-128778260D02*
X131643570Y-127778260D01*
X130786427Y-128730641D02*
X130881665Y-128778260D01*
X131072141Y-128778260D01*
X131167380Y-128730641D01*
X131214999Y-128635403D01*
X131214999Y-128254451D01*
X131167380Y-128159213D01*
X131072141Y-128111594D01*
X130881665Y-128111594D01*
X130786427Y-128159213D01*
X130738808Y-128254451D01*
X130738808Y-128349689D01*
X131214999Y-128444927D01*
X129881665Y-128778260D02*
X129881665Y-128254451D01*
X129929284Y-128159213D01*
X130024522Y-128111594D01*
X130214999Y-128111594D01*
X130310237Y-128159213D01*
X129881665Y-128730641D02*
X129976903Y-128778260D01*
X130214999Y-128778260D01*
X130310237Y-128730641D01*
X130357856Y-128635403D01*
X130357856Y-128540165D01*
X130310237Y-128444927D01*
X130214999Y-128397308D01*
X129976903Y-128397308D01*
X129881665Y-128349689D01*
X129500713Y-128111594D02*
X129262618Y-128778260D01*
X129024522Y-128111594D01*
X128738808Y-128111594D02*
X128500713Y-128778260D01*
X128262618Y-128111594D02*
X128500713Y-128778260D01*
X128595951Y-129016356D01*
X128643570Y-129063975D01*
X128738808Y-129111594D01*
X127881665Y-128778260D02*
X127881665Y-127778260D01*
X127643570Y-127778260D01*
X127500713Y-127825880D01*
X127405475Y-127921118D01*
X127357856Y-128016356D01*
X127310237Y-128206832D01*
X127310237Y-128349689D01*
X127357856Y-128540165D01*
X127405475Y-128635403D01*
X127500713Y-128730641D01*
X127643570Y-128778260D01*
X127881665Y-128778260D01*
X126500713Y-128730641D02*
X126595951Y-128778260D01*
X126786427Y-128778260D01*
X126881665Y-128730641D01*
X126929284Y-128635403D01*
X126929284Y-128254451D01*
X126881665Y-128159213D01*
X126786427Y-128111594D01*
X126595951Y-128111594D01*
X126500713Y-128159213D01*
X126453094Y-128254451D01*
X126453094Y-128349689D01*
X126929284Y-128444927D01*
X126119760Y-128111594D02*
X125881665Y-128778260D01*
X125643570Y-128111594D01*
X125262618Y-128778260D02*
X125262618Y-128111594D01*
X125262618Y-127778260D02*
X125310237Y-127825880D01*
X125262618Y-127873499D01*
X125214999Y-127825880D01*
X125262618Y-127778260D01*
X125262618Y-127873499D01*
X124357856Y-128730641D02*
X124453094Y-128778260D01*
X124643570Y-128778260D01*
X124738808Y-128730641D01*
X124786427Y-128683022D01*
X124834046Y-128587784D01*
X124834046Y-128302070D01*
X124786427Y-128206832D01*
X124738808Y-128159213D01*
X124643570Y-128111594D01*
X124453094Y-128111594D01*
X124357856Y-128159213D01*
X123548332Y-128730641D02*
X123643570Y-128778260D01*
X123834046Y-128778260D01*
X123929284Y-128730641D01*
X123976903Y-128635403D01*
X123976903Y-128254451D01*
X123929284Y-128159213D01*
X123834046Y-128111594D01*
X123643570Y-128111594D01*
X123548332Y-128159213D01*
X123500713Y-128254451D01*
X123500713Y-128349689D01*
X123976903Y-128444927D01*
X123310237Y-128873499D02*
X122548332Y-128873499D01*
X122405475Y-128111594D02*
X122167380Y-128778260D01*
X121929284Y-128111594D01*
X121024522Y-128778260D02*
X121595951Y-128778260D01*
X121310237Y-128778260D02*
X121310237Y-127778260D01*
X121405475Y-127921118D01*
X121500713Y-128016356D01*
X121595951Y-128063975D01*
D12*
X142489874Y-125550181D02*
X142489874Y-123550181D01*
X142489874Y-124502562D02*
X141461302Y-124502562D01*
X141461302Y-125550181D02*
X141461302Y-123550181D01*
X139832731Y-124216848D02*
X139832731Y-125550181D01*
X140604160Y-124216848D02*
X140604160Y-125264467D01*
X140518445Y-125454943D01*
X140347017Y-125550181D01*
X140089874Y-125550181D01*
X139918445Y-125454943D01*
X139832731Y-125359705D01*
X138975588Y-125550181D02*
X138975588Y-123550181D01*
X138804160Y-124788277D02*
X138289874Y-125550181D01*
X138289874Y-124216848D02*
X138975588Y-124978753D01*
X136747017Y-125550181D02*
X136747017Y-124502562D01*
X136832731Y-124312086D01*
X137004160Y-124216848D01*
X137347017Y-124216848D01*
X137518445Y-124312086D01*
X136747017Y-125454943D02*
X136918445Y-125550181D01*
X137347017Y-125550181D01*
X137518445Y-125454943D01*
X137604160Y-125264467D01*
X137604160Y-125073991D01*
X137518445Y-124883515D01*
X137347017Y-124788277D01*
X136918445Y-124788277D01*
X136747017Y-124693039D01*
X135889874Y-125550181D02*
X135889874Y-124216848D01*
X135889874Y-124407324D02*
X135804160Y-124312086D01*
X135632731Y-124216848D01*
X135375588Y-124216848D01*
X135204160Y-124312086D01*
X135118445Y-124502562D01*
X135118445Y-125550181D01*
X135118445Y-124502562D02*
X135032731Y-124312086D01*
X134861302Y-124216848D01*
X134604160Y-124216848D01*
X134432731Y-124312086D01*
X134347017Y-124502562D01*
X134347017Y-125550181D01*
X132375588Y-123550181D02*
X131347017Y-123550181D01*
X131861302Y-125550181D02*
X131861302Y-123550181D01*
X130061302Y-125454943D02*
X130232731Y-125550181D01*
X130575588Y-125550181D01*
X130747017Y-125454943D01*
X130832731Y-125264467D01*
X130832731Y-124502562D01*
X130747017Y-124312086D01*
X130575588Y-124216848D01*
X130232731Y-124216848D01*
X130061302Y-124312086D01*
X129975588Y-124502562D01*
X129975588Y-124693039D01*
X130832731Y-124883515D01*
X129204160Y-125550181D02*
X129204160Y-123550181D01*
X128432731Y-125550181D02*
X128432731Y-124502562D01*
X128518445Y-124312086D01*
X128689874Y-124216848D01*
X128947017Y-124216848D01*
X129118445Y-124312086D01*
X129204160Y-124407324D01*
X127575588Y-124216848D02*
X127575588Y-125550181D01*
X127575588Y-124407324D02*
X127489874Y-124312086D01*
X127318445Y-124216848D01*
X127061302Y-124216848D01*
X126889874Y-124312086D01*
X126804160Y-124502562D01*
X126804160Y-125550181D01*
X125689874Y-125550181D02*
X125861302Y-125454943D01*
X125947017Y-125359705D01*
X126032731Y-125169229D01*
X126032731Y-124597800D01*
X125947017Y-124407324D01*
X125861302Y-124312086D01*
X125689874Y-124216848D01*
X125432731Y-124216848D01*
X125261302Y-124312086D01*
X125175588Y-124407324D01*
X125089874Y-124597800D01*
X125089874Y-125169229D01*
X125175588Y-125359705D01*
X125261302Y-125454943D01*
X125432731Y-125550181D01*
X125689874Y-125550181D01*
X124061302Y-125550181D02*
X124232731Y-125454943D01*
X124318445Y-125264467D01*
X124318445Y-123550181D01*
X123118445Y-125550181D02*
X123289874Y-125454943D01*
X123375588Y-125359705D01*
X123461302Y-125169229D01*
X123461302Y-124597800D01*
X123375588Y-124407324D01*
X123289874Y-124312086D01*
X123118445Y-124216848D01*
X122861302Y-124216848D01*
X122689874Y-124312086D01*
X122604160Y-124407324D01*
X122518445Y-124597800D01*
X122518445Y-125169229D01*
X122604160Y-125359705D01*
X122689874Y-125454943D01*
X122861302Y-125550181D01*
X123118445Y-125550181D01*
X120975588Y-124216848D02*
X120975588Y-125835896D01*
X121061302Y-126026372D01*
X121147017Y-126121610D01*
X121318445Y-126216848D01*
X121575588Y-126216848D01*
X121747017Y-126121610D01*
X120975588Y-125454943D02*
X121147017Y-125550181D01*
X121489874Y-125550181D01*
X121661302Y-125454943D01*
X121747017Y-125359705D01*
X121832731Y-125169229D01*
X121832731Y-124597800D01*
X121747017Y-124407324D01*
X121661302Y-124312086D01*
X121489874Y-124216848D01*
X121147017Y-124216848D01*
X120975588Y-124312086D01*
X120118445Y-125550181D02*
X120118445Y-124216848D01*
X120118445Y-123550181D02*
X120204160Y-123645420D01*
X120118445Y-123740658D01*
X120032731Y-123645420D01*
X120118445Y-123550181D01*
X120118445Y-123740658D01*
X118575588Y-125454943D02*
X118747017Y-125550181D01*
X119089874Y-125550181D01*
X119261302Y-125454943D01*
X119347017Y-125264467D01*
X119347017Y-124502562D01*
X119261302Y-124312086D01*
X119089874Y-124216848D01*
X118747017Y-124216848D01*
X118575588Y-124312086D01*
X118489874Y-124502562D01*
X118489874Y-124693039D01*
X119347017Y-124883515D01*
X117804160Y-125454943D02*
X117632731Y-125550181D01*
X117289874Y-125550181D01*
X117118445Y-125454943D01*
X117032731Y-125264467D01*
X117032731Y-125169229D01*
X117118445Y-124978753D01*
X117289874Y-124883515D01*
X117547017Y-124883515D01*
X117718445Y-124788277D01*
X117804160Y-124597800D01*
X117804160Y-124502562D01*
X117718445Y-124312086D01*
X117547017Y-124216848D01*
X117289874Y-124216848D01*
X117118445Y-124312086D01*
D13*
X153101000Y-136426000D02*
X153101000Y-133886000D01*
X151831000Y-135156000D02*
X154371000Y-135156000D01*
X106952000Y-134567000D02*
X109492000Y-134567000D01*
X108222000Y-135837000D02*
X108222000Y-133297000D01*
X152916000Y-89847400D02*
X152916000Y-87307400D01*
X151646000Y-88577400D02*
X154186000Y-88577400D01*
M02*
