G04 #@! TF.GenerationSoftware,KiCad,Pcbnew,5.1.6-c6e7f7d~87~ubuntu18.04.1*
G04 #@! TF.CreationDate,2020-10-10T14:26:16+05:30*
G04 #@! TF.ProjectId,BackEnd_HeavyDevice_v1,4261636b-456e-4645-9f48-656176794465,rev?*
G04 #@! TF.SameCoordinates,Original*
G04 #@! TF.FileFunction,Paste,Bot*
G04 #@! TF.FilePolarity,Positive*
%FSLAX46Y46*%
G04 Gerber Fmt 4.6, Leading zero omitted, Abs format (unit mm)*
G04 Created by KiCad (PCBNEW 5.1.6-c6e7f7d~87~ubuntu18.04.1) date 2020-10-10 14:26:16*
%MOMM*%
%LPD*%
G01*
G04 APERTURE LIST*
%ADD10R,1.250000X1.500000*%
%ADD11R,0.800000X0.900000*%
%ADD12R,0.900000X0.800000*%
%ADD13R,1.600000X1.600000*%
%ADD14R,1.500000X1.300000*%
%ADD15R,1.300000X1.500000*%
%ADD16R,3.100000X1.600000*%
%ADD17R,0.650000X1.560000*%
G04 APERTURE END LIST*
D10*
X126967000Y-104912000D03*
X126967000Y-107412000D03*
D11*
X147253000Y-127284000D03*
X145153000Y-127284000D03*
D12*
X137229000Y-118677000D03*
X137229000Y-116577000D03*
X117986000Y-103613000D03*
X117986000Y-105713000D03*
D11*
X147334000Y-94300000D03*
X145234000Y-94300000D03*
X120695000Y-109276000D03*
X122795000Y-109276000D03*
X122708000Y-113063000D03*
X120608000Y-113063000D03*
X127131000Y-113182000D03*
X125031000Y-113182000D03*
X145769000Y-100396000D03*
X143669000Y-100396000D03*
D12*
X141503000Y-94608400D03*
X141503000Y-92508400D03*
D11*
X126831000Y-110015000D03*
X124731000Y-110015000D03*
D13*
X149972000Y-112425000D03*
X142352000Y-104805000D03*
X149972000Y-109885000D03*
X142352000Y-107345000D03*
X149972000Y-107345000D03*
X142352000Y-109885000D03*
X149972000Y-104805000D03*
X142352000Y-112425000D03*
D14*
X139313000Y-92095300D03*
X136613000Y-92095300D03*
D15*
X124506000Y-104789000D03*
X124506000Y-107489000D03*
D14*
X152589000Y-97266800D03*
X149889000Y-97266800D03*
X145180000Y-88996500D03*
X147880000Y-88996500D03*
X146524000Y-97373400D03*
X143824000Y-97373400D03*
X145320000Y-91648300D03*
X148020000Y-91648300D03*
X137892000Y-126520000D03*
X140592000Y-126520000D03*
D16*
X142464000Y-122410000D03*
X151354000Y-117330000D03*
X142464000Y-119870000D03*
X151354000Y-119870000D03*
X142464000Y-117330000D03*
X151354000Y-122410000D03*
D17*
X129266000Y-99721700D03*
X131166000Y-99721700D03*
X131166000Y-97021700D03*
X130216000Y-97021700D03*
X129266000Y-97021700D03*
M02*
