G04 #@! TF.GenerationSoftware,KiCad,Pcbnew,5.1.6-c6e7f7d~87~ubuntu18.04.1*
G04 #@! TF.CreationDate,2020-10-10T14:26:16+05:30*
G04 #@! TF.ProjectId,BackEnd_HeavyDevice_v1,4261636b-456e-4645-9f48-656176794465,rev?*
G04 #@! TF.SameCoordinates,Original*
G04 #@! TF.FileFunction,Other,Fab,Bot*
%FSLAX46Y46*%
G04 Gerber Fmt 4.6, Leading zero omitted, Abs format (unit mm)*
G04 Created by KiCad (PCBNEW 5.1.6-c6e7f7d~87~ubuntu18.04.1) date 2020-10-10 14:26:16*
%MOMM*%
%LPD*%
G01*
G04 APERTURE LIST*
%ADD10C,0.100000*%
%ADD11C,0.150000*%
G04 APERTURE END LIST*
D10*
X127587000Y-107162000D02*
X127587000Y-105162000D01*
X127587000Y-105162000D02*
X126347000Y-105162000D01*
X126347000Y-105162000D02*
X126347000Y-107162000D01*
X126347000Y-107162000D02*
X127587000Y-107162000D01*
X145203000Y-127934000D02*
X147203000Y-127934000D01*
X147203000Y-127934000D02*
X147203000Y-126634000D01*
X147203000Y-126634000D02*
X145203000Y-126634000D01*
X145203000Y-126634000D02*
X145203000Y-127934000D01*
X146403000Y-127484000D02*
X146103000Y-127284000D01*
X146103000Y-127284000D02*
X146403000Y-127084000D01*
X146403000Y-127084000D02*
X146403000Y-127484000D01*
X146103000Y-127484000D02*
X146103000Y-127084000D01*
X146103000Y-127284000D02*
X145903000Y-127284000D01*
X146403000Y-127284000D02*
X146603000Y-127284000D01*
X137229000Y-117427000D02*
X137229000Y-117227000D01*
X137229000Y-117727000D02*
X137229000Y-117927000D01*
X137429000Y-117727000D02*
X137029000Y-117727000D01*
X137029000Y-117427000D02*
X137429000Y-117427000D01*
X137229000Y-117727000D02*
X137029000Y-117427000D01*
X137429000Y-117427000D02*
X137229000Y-117727000D01*
X136579000Y-118627000D02*
X137879000Y-118627000D01*
X136579000Y-116627000D02*
X136579000Y-118627000D01*
X137879000Y-116627000D02*
X136579000Y-116627000D01*
X137879000Y-118627000D02*
X137879000Y-116627000D01*
X117986000Y-104863000D02*
X117986000Y-105063000D01*
X117986000Y-104563000D02*
X117986000Y-104363000D01*
X117786000Y-104563000D02*
X118186000Y-104563000D01*
X118186000Y-104863000D02*
X117786000Y-104863000D01*
X117986000Y-104563000D02*
X118186000Y-104863000D01*
X117786000Y-104863000D02*
X117986000Y-104563000D01*
X118636000Y-103663000D02*
X117336000Y-103663000D01*
X118636000Y-105663000D02*
X118636000Y-103663000D01*
X117336000Y-105663000D02*
X118636000Y-105663000D01*
X117336000Y-103663000D02*
X117336000Y-105663000D01*
X146084000Y-94300000D02*
X145884000Y-94300000D01*
X146384000Y-94300000D02*
X146584000Y-94300000D01*
X146384000Y-94100000D02*
X146384000Y-94500000D01*
X146084000Y-94500000D02*
X146084000Y-94100000D01*
X146384000Y-94300000D02*
X146084000Y-94500000D01*
X146084000Y-94100000D02*
X146384000Y-94300000D01*
X147284000Y-94950000D02*
X147284000Y-93650000D01*
X145284000Y-94950000D02*
X147284000Y-94950000D01*
X145284000Y-93650000D02*
X145284000Y-94950000D01*
X147284000Y-93650000D02*
X145284000Y-93650000D01*
X121945000Y-109276000D02*
X122145000Y-109276000D01*
X121645000Y-109276000D02*
X121445000Y-109276000D01*
X121645000Y-109476000D02*
X121645000Y-109076000D01*
X121945000Y-109076000D02*
X121945000Y-109476000D01*
X121645000Y-109276000D02*
X121945000Y-109076000D01*
X121945000Y-109476000D02*
X121645000Y-109276000D01*
X120745000Y-108626000D02*
X120745000Y-109926000D01*
X122745000Y-108626000D02*
X120745000Y-108626000D01*
X122745000Y-109926000D02*
X122745000Y-108626000D01*
X120745000Y-109926000D02*
X122745000Y-109926000D01*
X120658000Y-113713000D02*
X122658000Y-113713000D01*
X122658000Y-113713000D02*
X122658000Y-112413000D01*
X122658000Y-112413000D02*
X120658000Y-112413000D01*
X120658000Y-112413000D02*
X120658000Y-113713000D01*
X121858000Y-113263000D02*
X121558000Y-113063000D01*
X121558000Y-113063000D02*
X121858000Y-112863000D01*
X121858000Y-112863000D02*
X121858000Y-113263000D01*
X121558000Y-113263000D02*
X121558000Y-112863000D01*
X121558000Y-113063000D02*
X121358000Y-113063000D01*
X121858000Y-113063000D02*
X122058000Y-113063000D01*
X125081000Y-113832000D02*
X127081000Y-113832000D01*
X127081000Y-113832000D02*
X127081000Y-112532000D01*
X127081000Y-112532000D02*
X125081000Y-112532000D01*
X125081000Y-112532000D02*
X125081000Y-113832000D01*
X126281000Y-113382000D02*
X125981000Y-113182000D01*
X125981000Y-113182000D02*
X126281000Y-112982000D01*
X126281000Y-112982000D02*
X126281000Y-113382000D01*
X125981000Y-113382000D02*
X125981000Y-112982000D01*
X125981000Y-113182000D02*
X125781000Y-113182000D01*
X126281000Y-113182000D02*
X126481000Y-113182000D01*
X143719000Y-101046000D02*
X145719000Y-101046000D01*
X145719000Y-101046000D02*
X145719000Y-99746000D01*
X145719000Y-99746000D02*
X143719000Y-99746000D01*
X143719000Y-99746000D02*
X143719000Y-101046000D01*
X144919000Y-100596000D02*
X144619000Y-100396000D01*
X144619000Y-100396000D02*
X144919000Y-100196000D01*
X144919000Y-100196000D02*
X144919000Y-100596000D01*
X144619000Y-100596000D02*
X144619000Y-100196000D01*
X144619000Y-100396000D02*
X144419000Y-100396000D01*
X144919000Y-100396000D02*
X145119000Y-100396000D01*
X141503000Y-93358400D02*
X141503000Y-93158400D01*
X141503000Y-93658400D02*
X141503000Y-93858400D01*
X141703000Y-93658400D02*
X141303000Y-93658400D01*
X141303000Y-93358400D02*
X141703000Y-93358400D01*
X141503000Y-93658400D02*
X141303000Y-93358400D01*
X141703000Y-93358400D02*
X141503000Y-93658400D01*
X140853000Y-94558400D02*
X142153000Y-94558400D01*
X140853000Y-92558400D02*
X140853000Y-94558400D01*
X142153000Y-92558400D02*
X140853000Y-92558400D01*
X142153000Y-94558400D02*
X142153000Y-92558400D01*
X124781000Y-110665000D02*
X126781000Y-110665000D01*
X126781000Y-110665000D02*
X126781000Y-109365000D01*
X126781000Y-109365000D02*
X124781000Y-109365000D01*
X124781000Y-109365000D02*
X124781000Y-110665000D01*
X125981000Y-110215000D02*
X125681000Y-110015000D01*
X125681000Y-110015000D02*
X125981000Y-109815000D01*
X125981000Y-109815000D02*
X125981000Y-110215000D01*
X125681000Y-110215000D02*
X125681000Y-109815000D01*
X125681000Y-110015000D02*
X125481000Y-110015000D01*
X125981000Y-110015000D02*
X126181000Y-110015000D01*
X151242000Y-113755000D02*
X141082000Y-113755000D01*
X151242000Y-103475000D02*
X151242000Y-113755000D01*
X141082000Y-103475000D02*
X151242000Y-103475000D01*
X141082000Y-113755000D02*
X141082000Y-103475000D01*
X142987000Y-112695000D02*
X143987000Y-113695000D01*
X142987000Y-103535000D02*
X142987000Y-112695000D01*
X149337000Y-103535000D02*
X142987000Y-103535000D01*
X149337000Y-113695000D02*
X149337000Y-103535000D01*
X143987000Y-113695000D02*
X149337000Y-113695000D01*
X138963000Y-92715300D02*
X138963000Y-91475300D01*
X136963000Y-92715300D02*
X138963000Y-92715300D01*
X136963000Y-91475300D02*
X136963000Y-92715300D01*
X138963000Y-91475300D02*
X136963000Y-91475300D01*
X125126000Y-107139000D02*
X125126000Y-105139000D01*
X125126000Y-105139000D02*
X123886000Y-105139000D01*
X123886000Y-105139000D02*
X123886000Y-107139000D01*
X123886000Y-107139000D02*
X125126000Y-107139000D01*
X150239000Y-97886800D02*
X152239000Y-97886800D01*
X152239000Y-97886800D02*
X152239000Y-96646800D01*
X152239000Y-96646800D02*
X150239000Y-96646800D01*
X150239000Y-96646800D02*
X150239000Y-97886800D01*
X145530000Y-88376500D02*
X145530000Y-89616500D01*
X147530000Y-88376500D02*
X145530000Y-88376500D01*
X147530000Y-89616500D02*
X147530000Y-88376500D01*
X145530000Y-89616500D02*
X147530000Y-89616500D01*
X144174000Y-97993400D02*
X146174000Y-97993400D01*
X146174000Y-97993400D02*
X146174000Y-96753400D01*
X146174000Y-96753400D02*
X144174000Y-96753400D01*
X144174000Y-96753400D02*
X144174000Y-97993400D01*
X145670000Y-91028300D02*
X145670000Y-92268300D01*
X147670000Y-91028300D02*
X145670000Y-91028300D01*
X147670000Y-92268300D02*
X147670000Y-91028300D01*
X145670000Y-92268300D02*
X147670000Y-92268300D01*
X138242000Y-125900000D02*
X138242000Y-127140000D01*
X140242000Y-125900000D02*
X138242000Y-125900000D01*
X140242000Y-127140000D02*
X140242000Y-125900000D01*
X138242000Y-127140000D02*
X140242000Y-127140000D01*
X144734000Y-123680000D02*
X150084000Y-123680000D01*
X150084000Y-123680000D02*
X150084000Y-116060000D01*
X150084000Y-116060000D02*
X143734000Y-116060000D01*
X143734000Y-116060000D02*
X143734000Y-122680000D01*
X143734000Y-122680000D02*
X144734000Y-123680000D01*
X141829000Y-123740000D02*
X141829000Y-116000000D01*
X141829000Y-116000000D02*
X151989000Y-116000000D01*
X151989000Y-116000000D02*
X151989000Y-123740000D01*
X151989000Y-123740000D02*
X141829000Y-123740000D01*
X128666000Y-99271700D02*
X131766000Y-99271700D01*
X131766000Y-99271700D02*
X131766000Y-97471700D01*
X129316000Y-97471700D02*
X131766000Y-97471700D01*
X128666000Y-99271700D02*
X128666000Y-98121700D01*
X129316000Y-97471700D02*
X128666000Y-98121700D01*
D11*
X122396095Y-115115380D02*
X122396095Y-114115380D01*
X122158000Y-114115380D01*
X122015142Y-114163000D01*
X121919904Y-114258238D01*
X121872285Y-114353476D01*
X121824666Y-114543952D01*
X121824666Y-114686809D01*
X121872285Y-114877285D01*
X121919904Y-114972523D01*
X122015142Y-115067761D01*
X122158000Y-115115380D01*
X122396095Y-115115380D01*
X120967523Y-114115380D02*
X121158000Y-114115380D01*
X121253238Y-114163000D01*
X121300857Y-114210619D01*
X121396095Y-114353476D01*
X121443714Y-114543952D01*
X121443714Y-114924904D01*
X121396095Y-115020142D01*
X121348476Y-115067761D01*
X121253238Y-115115380D01*
X121062761Y-115115380D01*
X120967523Y-115067761D01*
X120919904Y-115020142D01*
X120872285Y-114924904D01*
X120872285Y-114686809D01*
X120919904Y-114591571D01*
X120967523Y-114543952D01*
X121062761Y-114496333D01*
X121253238Y-114496333D01*
X121348476Y-114543952D01*
X121396095Y-114591571D01*
X121443714Y-114686809D01*
M02*
