G04 #@! TF.GenerationSoftware,KiCad,Pcbnew,5.1.6-c6e7f7d~87~ubuntu18.04.1*
G04 #@! TF.CreationDate,2020-10-10T14:26:16+05:30*
G04 #@! TF.ProjectId,BackEnd_HeavyDevice_v1,4261636b-456e-4645-9f48-656176794465,rev?*
G04 #@! TF.SameCoordinates,Original*
G04 #@! TF.FileFunction,Legend,Top*
G04 #@! TF.FilePolarity,Positive*
%FSLAX46Y46*%
G04 Gerber Fmt 4.6, Leading zero omitted, Abs format (unit mm)*
G04 Created by KiCad (PCBNEW 5.1.6-c6e7f7d~87~ubuntu18.04.1) date 2020-10-10 14:26:16*
%MOMM*%
%LPD*%
G01*
G04 APERTURE LIST*
%ADD10C,0.120000*%
%ADD11C,0.150000*%
%ADD12C,0.200000*%
G04 APERTURE END LIST*
D10*
X116911000Y-99844000D02*
X116911000Y-100744000D01*
X116461000Y-100294000D02*
X117361000Y-100294000D01*
X121242000Y-100129000D02*
X121242000Y-100459000D01*
X121202000Y-99879000D02*
X121202000Y-100709000D01*
X121162000Y-99727000D02*
X121162000Y-100861000D01*
X121122000Y-99608000D02*
X121122000Y-100980000D01*
X121082000Y-99508000D02*
X121082000Y-101080000D01*
X121042000Y-99420000D02*
X121042000Y-101168000D01*
X121002000Y-99342000D02*
X121002000Y-101246000D01*
X120962000Y-99271000D02*
X120962000Y-101317000D01*
X120922000Y-101074000D02*
X120922000Y-101382000D01*
X120922000Y-99206000D02*
X120922000Y-99514000D01*
X120882000Y-101074000D02*
X120882000Y-101442000D01*
X120882000Y-99146000D02*
X120882000Y-99514000D01*
X120842000Y-101074000D02*
X120842000Y-101498000D01*
X120842000Y-99090000D02*
X120842000Y-99514000D01*
X120802000Y-101074000D02*
X120802000Y-101550000D01*
X120802000Y-99038000D02*
X120802000Y-99514000D01*
X120762000Y-101074000D02*
X120762000Y-101599000D01*
X120762000Y-98989000D02*
X120762000Y-99514000D01*
X120722000Y-101074000D02*
X120722000Y-101645000D01*
X120722000Y-98943000D02*
X120722000Y-99514000D01*
X120682000Y-101074000D02*
X120682000Y-101689000D01*
X120682000Y-98899000D02*
X120682000Y-99514000D01*
X120642000Y-101074000D02*
X120642000Y-101730000D01*
X120642000Y-98858000D02*
X120642000Y-99514000D01*
X120602000Y-101074000D02*
X120602000Y-101769000D01*
X120602000Y-98819000D02*
X120602000Y-99514000D01*
X120562000Y-101074000D02*
X120562000Y-101806000D01*
X120562000Y-98782000D02*
X120562000Y-99514000D01*
X120522000Y-101074000D02*
X120522000Y-101841000D01*
X120522000Y-98747000D02*
X120522000Y-99514000D01*
X120482000Y-101074000D02*
X120482000Y-101875000D01*
X120482000Y-98713000D02*
X120482000Y-99514000D01*
X120442000Y-101074000D02*
X120442000Y-101907000D01*
X120442000Y-98681000D02*
X120442000Y-99514000D01*
X120402000Y-101074000D02*
X120402000Y-101937000D01*
X120402000Y-98651000D02*
X120402000Y-99514000D01*
X120362000Y-101074000D02*
X120362000Y-101966000D01*
X120362000Y-98622000D02*
X120362000Y-99514000D01*
X120322000Y-101074000D02*
X120322000Y-101993000D01*
X120322000Y-98595000D02*
X120322000Y-99514000D01*
X120282000Y-101074000D02*
X120282000Y-102019000D01*
X120282000Y-98569000D02*
X120282000Y-99514000D01*
X120242000Y-101074000D02*
X120242000Y-102044000D01*
X120242000Y-98544000D02*
X120242000Y-99514000D01*
X120202000Y-101074000D02*
X120202000Y-102067000D01*
X120202000Y-98521000D02*
X120202000Y-99514000D01*
X120162000Y-101074000D02*
X120162000Y-102090000D01*
X120162000Y-98498000D02*
X120162000Y-99514000D01*
X120122000Y-101074000D02*
X120122000Y-102111000D01*
X120122000Y-98477000D02*
X120122000Y-99514000D01*
X120082000Y-101074000D02*
X120082000Y-102131000D01*
X120082000Y-98457000D02*
X120082000Y-99514000D01*
X120042000Y-101074000D02*
X120042000Y-102150000D01*
X120042000Y-98438000D02*
X120042000Y-99514000D01*
X120002000Y-101074000D02*
X120002000Y-102168000D01*
X120002000Y-98420000D02*
X120002000Y-99514000D01*
X119962000Y-101074000D02*
X119962000Y-102185000D01*
X119962000Y-98403000D02*
X119962000Y-99514000D01*
X119922000Y-101074000D02*
X119922000Y-102201000D01*
X119922000Y-98387000D02*
X119922000Y-99514000D01*
X119882000Y-101074000D02*
X119882000Y-102217000D01*
X119882000Y-98371000D02*
X119882000Y-99514000D01*
X119841000Y-101074000D02*
X119841000Y-102231000D01*
X119841000Y-98357000D02*
X119841000Y-99514000D01*
X119801000Y-101074000D02*
X119801000Y-102244000D01*
X119801000Y-98344000D02*
X119801000Y-99514000D01*
X119761000Y-101074000D02*
X119761000Y-102257000D01*
X119761000Y-98331000D02*
X119761000Y-99514000D01*
X119721000Y-101074000D02*
X119721000Y-102268000D01*
X119721000Y-98320000D02*
X119721000Y-99514000D01*
X119681000Y-101074000D02*
X119681000Y-102279000D01*
X119681000Y-98309000D02*
X119681000Y-99514000D01*
X119641000Y-101074000D02*
X119641000Y-102289000D01*
X119641000Y-98299000D02*
X119641000Y-99514000D01*
X119601000Y-101074000D02*
X119601000Y-102298000D01*
X119601000Y-98290000D02*
X119601000Y-99514000D01*
X119561000Y-101074000D02*
X119561000Y-102306000D01*
X119561000Y-98282000D02*
X119561000Y-99514000D01*
X119521000Y-101074000D02*
X119521000Y-102313000D01*
X119521000Y-98275000D02*
X119521000Y-99514000D01*
X119481000Y-101074000D02*
X119481000Y-102320000D01*
X119481000Y-98268000D02*
X119481000Y-99514000D01*
X119441000Y-101074000D02*
X119441000Y-102326000D01*
X119441000Y-98262000D02*
X119441000Y-99514000D01*
X119401000Y-101074000D02*
X119401000Y-102331000D01*
X119401000Y-98257000D02*
X119401000Y-99514000D01*
X119361000Y-98253000D02*
X119361000Y-102335000D01*
X119321000Y-98250000D02*
X119321000Y-102338000D01*
X119281000Y-98247000D02*
X119281000Y-102341000D01*
X119241000Y-98245000D02*
X119241000Y-102343000D01*
X119201000Y-98244000D02*
X119201000Y-102344000D01*
X119161000Y-98244000D02*
X119161000Y-102344000D01*
X121007436Y-101273170D02*
G75*
G03*
X121006996Y-99314000I-1846436J979170D01*
G01*
X121007436Y-101273170D02*
G75*
G02*
X117315004Y-101274000I-1846436J979170D01*
G01*
X121007436Y-99314830D02*
G75*
G03*
X117315004Y-99314000I-1846436J-979170D01*
G01*
X116916000Y-89443100D02*
X116916000Y-90343100D01*
X116466000Y-89893100D02*
X117366000Y-89893100D01*
X121247000Y-89728100D02*
X121247000Y-90058100D01*
X121207000Y-89478100D02*
X121207000Y-90308100D01*
X121167000Y-89326100D02*
X121167000Y-90460100D01*
X121127000Y-89207100D02*
X121127000Y-90579100D01*
X121087000Y-89107100D02*
X121087000Y-90679100D01*
X121047000Y-89019100D02*
X121047000Y-90767100D01*
X121007000Y-88941100D02*
X121007000Y-90845100D01*
X120967000Y-88870100D02*
X120967000Y-90916100D01*
X120927000Y-90673100D02*
X120927000Y-90981100D01*
X120927000Y-88805100D02*
X120927000Y-89113100D01*
X120887000Y-90673100D02*
X120887000Y-91041100D01*
X120887000Y-88745100D02*
X120887000Y-89113100D01*
X120847000Y-90673100D02*
X120847000Y-91097100D01*
X120847000Y-88689100D02*
X120847000Y-89113100D01*
X120807000Y-90673100D02*
X120807000Y-91149100D01*
X120807000Y-88637100D02*
X120807000Y-89113100D01*
X120767000Y-90673100D02*
X120767000Y-91198100D01*
X120767000Y-88588100D02*
X120767000Y-89113100D01*
X120727000Y-90673100D02*
X120727000Y-91244100D01*
X120727000Y-88542100D02*
X120727000Y-89113100D01*
X120687000Y-90673100D02*
X120687000Y-91288100D01*
X120687000Y-88498100D02*
X120687000Y-89113100D01*
X120647000Y-90673100D02*
X120647000Y-91329100D01*
X120647000Y-88457100D02*
X120647000Y-89113100D01*
X120607000Y-90673100D02*
X120607000Y-91368100D01*
X120607000Y-88418100D02*
X120607000Y-89113100D01*
X120567000Y-90673100D02*
X120567000Y-91405100D01*
X120567000Y-88381100D02*
X120567000Y-89113100D01*
X120527000Y-90673100D02*
X120527000Y-91440100D01*
X120527000Y-88346100D02*
X120527000Y-89113100D01*
X120487000Y-90673100D02*
X120487000Y-91474100D01*
X120487000Y-88312100D02*
X120487000Y-89113100D01*
X120447000Y-90673100D02*
X120447000Y-91506100D01*
X120447000Y-88280100D02*
X120447000Y-89113100D01*
X120407000Y-90673100D02*
X120407000Y-91536100D01*
X120407000Y-88250100D02*
X120407000Y-89113100D01*
X120367000Y-90673100D02*
X120367000Y-91565100D01*
X120367000Y-88221100D02*
X120367000Y-89113100D01*
X120327000Y-90673100D02*
X120327000Y-91592100D01*
X120327000Y-88194100D02*
X120327000Y-89113100D01*
X120287000Y-90673100D02*
X120287000Y-91618100D01*
X120287000Y-88168100D02*
X120287000Y-89113100D01*
X120247000Y-90673100D02*
X120247000Y-91643100D01*
X120247000Y-88143100D02*
X120247000Y-89113100D01*
X120207000Y-90673100D02*
X120207000Y-91666100D01*
X120207000Y-88120100D02*
X120207000Y-89113100D01*
X120167000Y-90673100D02*
X120167000Y-91689100D01*
X120167000Y-88097100D02*
X120167000Y-89113100D01*
X120127000Y-90673100D02*
X120127000Y-91710100D01*
X120127000Y-88076100D02*
X120127000Y-89113100D01*
X120087000Y-90673100D02*
X120087000Y-91730100D01*
X120087000Y-88056100D02*
X120087000Y-89113100D01*
X120047000Y-90673100D02*
X120047000Y-91749100D01*
X120047000Y-88037100D02*
X120047000Y-89113100D01*
X120007000Y-90673100D02*
X120007000Y-91767100D01*
X120007000Y-88019100D02*
X120007000Y-89113100D01*
X119967000Y-90673100D02*
X119967000Y-91784100D01*
X119967000Y-88002100D02*
X119967000Y-89113100D01*
X119927000Y-90673100D02*
X119927000Y-91800100D01*
X119927000Y-87986100D02*
X119927000Y-89113100D01*
X119887000Y-90673100D02*
X119887000Y-91816100D01*
X119887000Y-87970100D02*
X119887000Y-89113100D01*
X119846000Y-90673100D02*
X119846000Y-91830100D01*
X119846000Y-87956100D02*
X119846000Y-89113100D01*
X119806000Y-90673100D02*
X119806000Y-91843100D01*
X119806000Y-87943100D02*
X119806000Y-89113100D01*
X119766000Y-90673100D02*
X119766000Y-91856100D01*
X119766000Y-87930100D02*
X119766000Y-89113100D01*
X119726000Y-90673100D02*
X119726000Y-91867100D01*
X119726000Y-87919100D02*
X119726000Y-89113100D01*
X119686000Y-90673100D02*
X119686000Y-91878100D01*
X119686000Y-87908100D02*
X119686000Y-89113100D01*
X119646000Y-90673100D02*
X119646000Y-91888100D01*
X119646000Y-87898100D02*
X119646000Y-89113100D01*
X119606000Y-90673100D02*
X119606000Y-91897100D01*
X119606000Y-87889100D02*
X119606000Y-89113100D01*
X119566000Y-90673100D02*
X119566000Y-91905100D01*
X119566000Y-87881100D02*
X119566000Y-89113100D01*
X119526000Y-90673100D02*
X119526000Y-91912100D01*
X119526000Y-87874100D02*
X119526000Y-89113100D01*
X119486000Y-90673100D02*
X119486000Y-91919100D01*
X119486000Y-87867100D02*
X119486000Y-89113100D01*
X119446000Y-90673100D02*
X119446000Y-91925100D01*
X119446000Y-87861100D02*
X119446000Y-89113100D01*
X119406000Y-90673100D02*
X119406000Y-91930100D01*
X119406000Y-87856100D02*
X119406000Y-89113100D01*
X119366000Y-87852100D02*
X119366000Y-91934100D01*
X119326000Y-87849100D02*
X119326000Y-91937100D01*
X119286000Y-87846100D02*
X119286000Y-91940100D01*
X119246000Y-87844100D02*
X119246000Y-91942100D01*
X119206000Y-87843100D02*
X119206000Y-91943100D01*
X119166000Y-87843100D02*
X119166000Y-91943100D01*
X121012436Y-90872270D02*
G75*
G03*
X121011996Y-88913100I-1846436J979170D01*
G01*
X121012436Y-90872270D02*
G75*
G02*
X117320004Y-90873100I-1846436J979170D01*
G01*
X121012436Y-88913930D02*
G75*
G03*
X117320004Y-88913100I-1846436J-979170D01*
G01*
X127081000Y-92010400D02*
X127081000Y-94730400D01*
X127081000Y-94730400D02*
X131001000Y-94730400D01*
X131001000Y-94730400D02*
X131001000Y-92010400D01*
X131001000Y-92010400D02*
X127081000Y-92010400D01*
X126271000Y-93370400D02*
X127081000Y-93370400D01*
X131811000Y-93370400D02*
X131001000Y-93370400D01*
X139178000Y-100523300D02*
X139178000Y-96423300D01*
X139138000Y-100523300D02*
X139138000Y-96423300D01*
X139098000Y-100522300D02*
X139098000Y-96424300D01*
X139058000Y-100520300D02*
X139058000Y-96426300D01*
X139018000Y-100517300D02*
X139018000Y-96429300D01*
X138978000Y-100514300D02*
X138978000Y-96432300D01*
X138938000Y-100510300D02*
X138938000Y-99253300D01*
X138938000Y-97693300D02*
X138938000Y-96436300D01*
X138898000Y-100505300D02*
X138898000Y-99253300D01*
X138898000Y-97693300D02*
X138898000Y-96441300D01*
X138858000Y-100499300D02*
X138858000Y-99253300D01*
X138858000Y-97693300D02*
X138858000Y-96447300D01*
X138818000Y-100492300D02*
X138818000Y-99253300D01*
X138818000Y-97693300D02*
X138818000Y-96454300D01*
X138778000Y-100485300D02*
X138778000Y-99253300D01*
X138778000Y-97693300D02*
X138778000Y-96461300D01*
X138738000Y-100477300D02*
X138738000Y-99253300D01*
X138738000Y-97693300D02*
X138738000Y-96469300D01*
X138698000Y-100468300D02*
X138698000Y-99253300D01*
X138698000Y-97693300D02*
X138698000Y-96478300D01*
X138658000Y-100458300D02*
X138658000Y-99253300D01*
X138658000Y-97693300D02*
X138658000Y-96488300D01*
X138618000Y-100447300D02*
X138618000Y-99253300D01*
X138618000Y-97693300D02*
X138618000Y-96499300D01*
X138578000Y-100436300D02*
X138578000Y-99253300D01*
X138578000Y-97693300D02*
X138578000Y-96510300D01*
X138538000Y-100423300D02*
X138538000Y-99253300D01*
X138538000Y-97693300D02*
X138538000Y-96523300D01*
X138498000Y-100410300D02*
X138498000Y-99253300D01*
X138498000Y-97693300D02*
X138498000Y-96536300D01*
X138457000Y-100396300D02*
X138457000Y-99253300D01*
X138457000Y-97693300D02*
X138457000Y-96550300D01*
X138417000Y-100380300D02*
X138417000Y-99253300D01*
X138417000Y-97693300D02*
X138417000Y-96566300D01*
X138377000Y-100364300D02*
X138377000Y-99253300D01*
X138377000Y-97693300D02*
X138377000Y-96582300D01*
X138337000Y-100347300D02*
X138337000Y-99253300D01*
X138337000Y-97693300D02*
X138337000Y-96599300D01*
X138297000Y-100329300D02*
X138297000Y-99253300D01*
X138297000Y-97693300D02*
X138297000Y-96617300D01*
X138257000Y-100310300D02*
X138257000Y-99253300D01*
X138257000Y-97693300D02*
X138257000Y-96636300D01*
X138217000Y-100290300D02*
X138217000Y-99253300D01*
X138217000Y-97693300D02*
X138217000Y-96656300D01*
X138177000Y-100269300D02*
X138177000Y-99253300D01*
X138177000Y-97693300D02*
X138177000Y-96677300D01*
X138137000Y-100246300D02*
X138137000Y-99253300D01*
X138137000Y-97693300D02*
X138137000Y-96700300D01*
X138097000Y-100223300D02*
X138097000Y-99253300D01*
X138097000Y-97693300D02*
X138097000Y-96723300D01*
X138057000Y-100198300D02*
X138057000Y-99253300D01*
X138057000Y-97693300D02*
X138057000Y-96748300D01*
X138017000Y-100172300D02*
X138017000Y-99253300D01*
X138017000Y-97693300D02*
X138017000Y-96774300D01*
X137977000Y-100145300D02*
X137977000Y-99253300D01*
X137977000Y-97693300D02*
X137977000Y-96801300D01*
X137937000Y-100116300D02*
X137937000Y-99253300D01*
X137937000Y-97693300D02*
X137937000Y-96830300D01*
X137897000Y-100086300D02*
X137897000Y-99253300D01*
X137897000Y-97693300D02*
X137897000Y-96860300D01*
X137857000Y-100054300D02*
X137857000Y-99253300D01*
X137857000Y-97693300D02*
X137857000Y-96892300D01*
X137817000Y-100020300D02*
X137817000Y-99253300D01*
X137817000Y-97693300D02*
X137817000Y-96926300D01*
X137777000Y-99985300D02*
X137777000Y-99253300D01*
X137777000Y-97693300D02*
X137777000Y-96961300D01*
X137737000Y-99948300D02*
X137737000Y-99253300D01*
X137737000Y-97693300D02*
X137737000Y-96998300D01*
X137697000Y-99909300D02*
X137697000Y-99253300D01*
X137697000Y-97693300D02*
X137697000Y-97037300D01*
X137657000Y-99868300D02*
X137657000Y-99253300D01*
X137657000Y-97693300D02*
X137657000Y-97078300D01*
X137617000Y-99824300D02*
X137617000Y-99253300D01*
X137617000Y-97693300D02*
X137617000Y-97122300D01*
X137577000Y-99778300D02*
X137577000Y-99253300D01*
X137577000Y-97693300D02*
X137577000Y-97168300D01*
X137537000Y-99729300D02*
X137537000Y-99253300D01*
X137537000Y-97693300D02*
X137537000Y-97217300D01*
X137497000Y-99677300D02*
X137497000Y-99253300D01*
X137497000Y-97693300D02*
X137497000Y-97269300D01*
X137457000Y-99621300D02*
X137457000Y-99253300D01*
X137457000Y-97693300D02*
X137457000Y-97325300D01*
X137417000Y-99561300D02*
X137417000Y-99253300D01*
X137417000Y-97693300D02*
X137417000Y-97385300D01*
X137377000Y-99496300D02*
X137377000Y-97450300D01*
X137337000Y-99425300D02*
X137337000Y-97521300D01*
X137297000Y-99347300D02*
X137297000Y-97599300D01*
X137257000Y-99259300D02*
X137257000Y-97687300D01*
X137217000Y-99159300D02*
X137217000Y-97787300D01*
X137177000Y-99040300D02*
X137177000Y-97906300D01*
X137137000Y-98888300D02*
X137137000Y-98058300D01*
X137097000Y-98638300D02*
X137097000Y-98308300D01*
X141878000Y-98473300D02*
X140978000Y-98473300D01*
X141428000Y-98923300D02*
X141428000Y-98023300D01*
X137331564Y-99452470D02*
G75*
G03*
X141023996Y-99453300I1846436J979170D01*
G01*
X137331564Y-97494130D02*
G75*
G02*
X141023996Y-97493300I1846436J-979170D01*
G01*
X137331564Y-97494130D02*
G75*
G03*
X137332004Y-99453300I1846436J-979170D01*
G01*
X137350000Y-114760000D02*
X137350000Y-115570000D01*
X137350000Y-120300000D02*
X137350000Y-119490000D01*
X135990000Y-115570000D02*
X135990000Y-119490000D01*
X138710000Y-115570000D02*
X135990000Y-115570000D01*
X138710000Y-119490000D02*
X138710000Y-115570000D01*
X135990000Y-119490000D02*
X138710000Y-119490000D01*
X119166000Y-93029800D02*
X119166000Y-97129800D01*
X119206000Y-93029800D02*
X119206000Y-97129800D01*
X119246000Y-93030800D02*
X119246000Y-97128800D01*
X119286000Y-93032800D02*
X119286000Y-97126800D01*
X119326000Y-93035800D02*
X119326000Y-97123800D01*
X119366000Y-93038800D02*
X119366000Y-97120800D01*
X119406000Y-93042800D02*
X119406000Y-94299800D01*
X119406000Y-95859800D02*
X119406000Y-97116800D01*
X119446000Y-93047800D02*
X119446000Y-94299800D01*
X119446000Y-95859800D02*
X119446000Y-97111800D01*
X119486000Y-93053800D02*
X119486000Y-94299800D01*
X119486000Y-95859800D02*
X119486000Y-97105800D01*
X119526000Y-93060800D02*
X119526000Y-94299800D01*
X119526000Y-95859800D02*
X119526000Y-97098800D01*
X119566000Y-93067800D02*
X119566000Y-94299800D01*
X119566000Y-95859800D02*
X119566000Y-97091800D01*
X119606000Y-93075800D02*
X119606000Y-94299800D01*
X119606000Y-95859800D02*
X119606000Y-97083800D01*
X119646000Y-93084800D02*
X119646000Y-94299800D01*
X119646000Y-95859800D02*
X119646000Y-97074800D01*
X119686000Y-93094800D02*
X119686000Y-94299800D01*
X119686000Y-95859800D02*
X119686000Y-97064800D01*
X119726000Y-93105800D02*
X119726000Y-94299800D01*
X119726000Y-95859800D02*
X119726000Y-97053800D01*
X119766000Y-93116800D02*
X119766000Y-94299800D01*
X119766000Y-95859800D02*
X119766000Y-97042800D01*
X119806000Y-93129800D02*
X119806000Y-94299800D01*
X119806000Y-95859800D02*
X119806000Y-97029800D01*
X119846000Y-93142800D02*
X119846000Y-94299800D01*
X119846000Y-95859800D02*
X119846000Y-97016800D01*
X119887000Y-93156800D02*
X119887000Y-94299800D01*
X119887000Y-95859800D02*
X119887000Y-97002800D01*
X119927000Y-93172800D02*
X119927000Y-94299800D01*
X119927000Y-95859800D02*
X119927000Y-96986800D01*
X119967000Y-93188800D02*
X119967000Y-94299800D01*
X119967000Y-95859800D02*
X119967000Y-96970800D01*
X120007000Y-93205800D02*
X120007000Y-94299800D01*
X120007000Y-95859800D02*
X120007000Y-96953800D01*
X120047000Y-93223800D02*
X120047000Y-94299800D01*
X120047000Y-95859800D02*
X120047000Y-96935800D01*
X120087000Y-93242800D02*
X120087000Y-94299800D01*
X120087000Y-95859800D02*
X120087000Y-96916800D01*
X120127000Y-93262800D02*
X120127000Y-94299800D01*
X120127000Y-95859800D02*
X120127000Y-96896800D01*
X120167000Y-93283800D02*
X120167000Y-94299800D01*
X120167000Y-95859800D02*
X120167000Y-96875800D01*
X120207000Y-93306800D02*
X120207000Y-94299800D01*
X120207000Y-95859800D02*
X120207000Y-96852800D01*
X120247000Y-93329800D02*
X120247000Y-94299800D01*
X120247000Y-95859800D02*
X120247000Y-96829800D01*
X120287000Y-93354800D02*
X120287000Y-94299800D01*
X120287000Y-95859800D02*
X120287000Y-96804800D01*
X120327000Y-93380800D02*
X120327000Y-94299800D01*
X120327000Y-95859800D02*
X120327000Y-96778800D01*
X120367000Y-93407800D02*
X120367000Y-94299800D01*
X120367000Y-95859800D02*
X120367000Y-96751800D01*
X120407000Y-93436800D02*
X120407000Y-94299800D01*
X120407000Y-95859800D02*
X120407000Y-96722800D01*
X120447000Y-93466800D02*
X120447000Y-94299800D01*
X120447000Y-95859800D02*
X120447000Y-96692800D01*
X120487000Y-93498800D02*
X120487000Y-94299800D01*
X120487000Y-95859800D02*
X120487000Y-96660800D01*
X120527000Y-93532800D02*
X120527000Y-94299800D01*
X120527000Y-95859800D02*
X120527000Y-96626800D01*
X120567000Y-93567800D02*
X120567000Y-94299800D01*
X120567000Y-95859800D02*
X120567000Y-96591800D01*
X120607000Y-93604800D02*
X120607000Y-94299800D01*
X120607000Y-95859800D02*
X120607000Y-96554800D01*
X120647000Y-93643800D02*
X120647000Y-94299800D01*
X120647000Y-95859800D02*
X120647000Y-96515800D01*
X120687000Y-93684800D02*
X120687000Y-94299800D01*
X120687000Y-95859800D02*
X120687000Y-96474800D01*
X120727000Y-93728800D02*
X120727000Y-94299800D01*
X120727000Y-95859800D02*
X120727000Y-96430800D01*
X120767000Y-93774800D02*
X120767000Y-94299800D01*
X120767000Y-95859800D02*
X120767000Y-96384800D01*
X120807000Y-93823800D02*
X120807000Y-94299800D01*
X120807000Y-95859800D02*
X120807000Y-96335800D01*
X120847000Y-93875800D02*
X120847000Y-94299800D01*
X120847000Y-95859800D02*
X120847000Y-96283800D01*
X120887000Y-93931800D02*
X120887000Y-94299800D01*
X120887000Y-95859800D02*
X120887000Y-96227800D01*
X120927000Y-93991800D02*
X120927000Y-94299800D01*
X120927000Y-95859800D02*
X120927000Y-96167800D01*
X120967000Y-94056800D02*
X120967000Y-96102800D01*
X121007000Y-94127800D02*
X121007000Y-96031800D01*
X121047000Y-94205800D02*
X121047000Y-95953800D01*
X121087000Y-94293800D02*
X121087000Y-95865800D01*
X121127000Y-94393800D02*
X121127000Y-95765800D01*
X121167000Y-94512800D02*
X121167000Y-95646800D01*
X121207000Y-94664800D02*
X121207000Y-95494800D01*
X121247000Y-94914800D02*
X121247000Y-95244800D01*
X116466000Y-95079800D02*
X117366000Y-95079800D01*
X116916000Y-94629800D02*
X116916000Y-95529800D01*
X121012436Y-94100630D02*
G75*
G03*
X117320004Y-94099800I-1846436J-979170D01*
G01*
X121012436Y-96058970D02*
G75*
G02*
X117320004Y-96059800I-1846436J979170D01*
G01*
X121012436Y-96058970D02*
G75*
G03*
X121011996Y-94099800I-1846436J979170D01*
G01*
X137427000Y-104694000D02*
X137427000Y-105504000D01*
X137427000Y-110234000D02*
X137427000Y-109424000D01*
X136067000Y-105504000D02*
X136067000Y-109424000D01*
X138787000Y-105504000D02*
X136067000Y-105504000D01*
X138787000Y-109424000D02*
X138787000Y-105504000D01*
X136067000Y-109424000D02*
X138787000Y-109424000D01*
X107205000Y-121558000D02*
X115945000Y-121558000D01*
X107205000Y-121558000D02*
X107205000Y-125798000D01*
X115945000Y-125798000D02*
X115945000Y-121558000D01*
X115945000Y-125798000D02*
X107205000Y-125798000D01*
D11*
X114418000Y-131748000D02*
G75*
G03*
X114418000Y-131748000I-2000000J0D01*
G01*
X119418000Y-131748000D02*
G75*
G03*
X119418000Y-131748000I-2000000J0D01*
G01*
X109918000Y-126448000D02*
X109918000Y-136248000D01*
X119918000Y-126448000D02*
X109918000Y-126448000D01*
X119918000Y-136248000D02*
X119918000Y-126448000D01*
X109918000Y-136248000D02*
X119918000Y-136248000D01*
X109918000Y-135748000D02*
X119918000Y-135748000D01*
X109918000Y-129348000D02*
X119918000Y-129348000D01*
X109918000Y-134248000D02*
X119918000Y-134248000D01*
X114918000Y-135748000D02*
X114918000Y-136248000D01*
D10*
X123333000Y-90232500D02*
X123333000Y-88902500D01*
X124663000Y-90232500D02*
X123333000Y-90232500D01*
X125933000Y-90232500D02*
X125933000Y-87572500D01*
X125933000Y-87572500D02*
X141233000Y-87572500D01*
X125933000Y-90232500D02*
X141233000Y-90232500D01*
X141233000Y-90232500D02*
X141233000Y-87572500D01*
D11*
X146284000Y-135903000D02*
X146284000Y-136403000D01*
X141284000Y-134403000D02*
X151284000Y-134403000D01*
X141284000Y-129503000D02*
X151284000Y-129503000D01*
X141284000Y-135903000D02*
X151284000Y-135903000D01*
X141284000Y-136403000D02*
X151284000Y-136403000D01*
X151284000Y-136403000D02*
X151284000Y-126603000D01*
X151284000Y-126603000D02*
X141284000Y-126603000D01*
X141284000Y-126603000D02*
X141284000Y-136403000D01*
X150784000Y-131903000D02*
G75*
G03*
X150784000Y-131903000I-2000000J0D01*
G01*
X145784000Y-131903000D02*
G75*
G03*
X145784000Y-131903000I-2000000J0D01*
G01*
D10*
X120466000Y-131047000D02*
X123736000Y-131047000D01*
X126536000Y-131047000D02*
X129187000Y-131047000D01*
X131986000Y-131047000D02*
X134636000Y-131047000D01*
X137436000Y-131047000D02*
X140706000Y-131047000D01*
X120466000Y-136288000D02*
X140706000Y-136288000D01*
X120466000Y-131047000D02*
X120466000Y-136288000D01*
X140706000Y-131047000D02*
X140706000Y-136288000D01*
X120466000Y-133288000D02*
X123736000Y-133288000D01*
X126536000Y-133288000D02*
X129187000Y-133288000D01*
X131986000Y-133288000D02*
X134636000Y-133288000D01*
X137436000Y-133288000D02*
X140706000Y-133288000D01*
X128936000Y-131047000D02*
X128936000Y-133288000D01*
X132236000Y-131047000D02*
X132236000Y-133288000D01*
D11*
X119571000Y-120476000D02*
X133751000Y-120466000D01*
X133751000Y-120466000D02*
X133761000Y-103326000D01*
X133761000Y-103326000D02*
X119581000Y-103316000D01*
X119581000Y-103316000D02*
X119571000Y-120436000D01*
X119571000Y-120436000D02*
X119561000Y-120436000D01*
X119561000Y-120436000D02*
X119571000Y-120436000D01*
X119571000Y-120436000D02*
X119561000Y-120436000D01*
D12*
X120371000Y-119956000D02*
G75*
G03*
X120371000Y-119956000I-250000J0D01*
G01*
D11*
X107400000Y-117586000D02*
X107400000Y-120986000D01*
X114400000Y-117586000D02*
X114400000Y-120986000D01*
X107400000Y-117586000D02*
X114400000Y-117586000D01*
X107400000Y-120986000D02*
X114400000Y-120986000D01*
D10*
X136214000Y-95940300D02*
X123744000Y-95940300D01*
X136214000Y-101260300D02*
X136214000Y-95940300D01*
X123744000Y-101260300D02*
X136214000Y-101260300D01*
X123744000Y-95940300D02*
X123744000Y-101260300D01*
X132514000Y-96000300D02*
X130979000Y-96000300D01*
X132514000Y-101200300D02*
X132514000Y-96000300D01*
X127444000Y-101200300D02*
X132514000Y-101200300D01*
X127444000Y-96000300D02*
X127444000Y-101200300D01*
X128979000Y-96000300D02*
X127444000Y-96000300D01*
X130979000Y-96000300D02*
G75*
G02*
X128979000Y-96000300I-1000000J0D01*
G01*
D11*
X115841000Y-87030500D02*
X107031000Y-87030500D01*
X115981000Y-116680500D02*
X115841000Y-87030500D01*
X107161000Y-116670500D02*
X115981000Y-116680500D01*
X107031000Y-87030500D02*
X107061000Y-116690500D01*
D10*
X153225000Y-116072000D02*
X140755000Y-116072000D01*
X153225000Y-123932000D02*
X153225000Y-116072000D01*
X140755000Y-123932000D02*
X153225000Y-123932000D01*
X140755000Y-116072000D02*
X140755000Y-123932000D01*
X149525000Y-116132000D02*
X147990000Y-116132000D01*
X149525000Y-123872000D02*
X149525000Y-116132000D01*
X144455000Y-123872000D02*
X149525000Y-123872000D01*
X144455000Y-116132000D02*
X144455000Y-123872000D01*
X145990000Y-116132000D02*
X144455000Y-116132000D01*
X147990000Y-116132000D02*
G75*
G02*
X145990000Y-116132000I-1000000J0D01*
G01*
D11*
X122352973Y-99614822D02*
X122305354Y-99662441D01*
X122162497Y-99710060D01*
X122067259Y-99710060D01*
X121924401Y-99662441D01*
X121829163Y-99567203D01*
X121781544Y-99471965D01*
X121733925Y-99281489D01*
X121733925Y-99138632D01*
X121781544Y-98948156D01*
X121829163Y-98852918D01*
X121924401Y-98757680D01*
X122067259Y-98710060D01*
X122162497Y-98710060D01*
X122305354Y-98757680D01*
X122352973Y-98805299D01*
X123305354Y-99710060D02*
X122733925Y-99710060D01*
X123019640Y-99710060D02*
X123019640Y-98710060D01*
X122924401Y-98852918D01*
X122829163Y-98948156D01*
X122733925Y-98995775D01*
X122307053Y-92429602D02*
X122259434Y-92477221D01*
X122116577Y-92524840D01*
X122021339Y-92524840D01*
X121878481Y-92477221D01*
X121783243Y-92381983D01*
X121735624Y-92286745D01*
X121688005Y-92096269D01*
X121688005Y-91953412D01*
X121735624Y-91762936D01*
X121783243Y-91667698D01*
X121878481Y-91572460D01*
X122021339Y-91524840D01*
X122116577Y-91524840D01*
X122259434Y-91572460D01*
X122307053Y-91620079D01*
X122688005Y-91620079D02*
X122735624Y-91572460D01*
X122830862Y-91524840D01*
X123068958Y-91524840D01*
X123164196Y-91572460D01*
X123211815Y-91620079D01*
X123259434Y-91715317D01*
X123259434Y-91810555D01*
X123211815Y-91953412D01*
X122640386Y-92524840D01*
X123259434Y-92524840D01*
X128837813Y-91675222D02*
X128790194Y-91722841D01*
X128647337Y-91770460D01*
X128552099Y-91770460D01*
X128409241Y-91722841D01*
X128314003Y-91627603D01*
X128266384Y-91532365D01*
X128218765Y-91341889D01*
X128218765Y-91199032D01*
X128266384Y-91008556D01*
X128314003Y-90913318D01*
X128409241Y-90818080D01*
X128552099Y-90770460D01*
X128647337Y-90770460D01*
X128790194Y-90818080D01*
X128837813Y-90865699D01*
X129171146Y-90770460D02*
X129790194Y-90770460D01*
X129456860Y-91151413D01*
X129599718Y-91151413D01*
X129694956Y-91199032D01*
X129742575Y-91246651D01*
X129790194Y-91341889D01*
X129790194Y-91579984D01*
X129742575Y-91675222D01*
X129694956Y-91722841D01*
X129599718Y-91770460D01*
X129314003Y-91770460D01*
X129218765Y-91722841D01*
X129171146Y-91675222D01*
X142254153Y-96193922D02*
X142206534Y-96241541D01*
X142063677Y-96289160D01*
X141968439Y-96289160D01*
X141825581Y-96241541D01*
X141730343Y-96146303D01*
X141682724Y-96051065D01*
X141635105Y-95860589D01*
X141635105Y-95717732D01*
X141682724Y-95527256D01*
X141730343Y-95432018D01*
X141825581Y-95336780D01*
X141968439Y-95289160D01*
X142063677Y-95289160D01*
X142206534Y-95336780D01*
X142254153Y-95384399D01*
X143111296Y-95622494D02*
X143111296Y-96289160D01*
X142873200Y-95241541D02*
X142635105Y-95955827D01*
X143254153Y-95955827D01*
X138951173Y-120463662D02*
X138903554Y-120511281D01*
X138760697Y-120558900D01*
X138665459Y-120558900D01*
X138522601Y-120511281D01*
X138427363Y-120416043D01*
X138379744Y-120320805D01*
X138332125Y-120130329D01*
X138332125Y-119987472D01*
X138379744Y-119796996D01*
X138427363Y-119701758D01*
X138522601Y-119606520D01*
X138665459Y-119558900D01*
X138760697Y-119558900D01*
X138903554Y-119606520D01*
X138951173Y-119654139D01*
X139855935Y-119558900D02*
X139379744Y-119558900D01*
X139332125Y-120035091D01*
X139379744Y-119987472D01*
X139474982Y-119939853D01*
X139713078Y-119939853D01*
X139808316Y-119987472D01*
X139855935Y-120035091D01*
X139903554Y-120130329D01*
X139903554Y-120368424D01*
X139855935Y-120463662D01*
X139808316Y-120511281D01*
X139713078Y-120558900D01*
X139474982Y-120558900D01*
X139379744Y-120511281D01*
X139332125Y-120463662D01*
X122218273Y-94052642D02*
X122170654Y-94100261D01*
X122027797Y-94147880D01*
X121932559Y-94147880D01*
X121789701Y-94100261D01*
X121694463Y-94005023D01*
X121646844Y-93909785D01*
X121599225Y-93719309D01*
X121599225Y-93576452D01*
X121646844Y-93385976D01*
X121694463Y-93290738D01*
X121789701Y-93195500D01*
X121932559Y-93147880D01*
X122027797Y-93147880D01*
X122170654Y-93195500D01*
X122218273Y-93243119D01*
X123075416Y-93147880D02*
X122884940Y-93147880D01*
X122789701Y-93195500D01*
X122742082Y-93243119D01*
X122646844Y-93385976D01*
X122599225Y-93576452D01*
X122599225Y-93957404D01*
X122646844Y-94052642D01*
X122694463Y-94100261D01*
X122789701Y-94147880D01*
X122980178Y-94147880D01*
X123075416Y-94100261D01*
X123123035Y-94052642D01*
X123170654Y-93957404D01*
X123170654Y-93719309D01*
X123123035Y-93624071D01*
X123075416Y-93576452D01*
X122980178Y-93528833D01*
X122789701Y-93528833D01*
X122694463Y-93576452D01*
X122646844Y-93624071D01*
X122599225Y-93719309D01*
X139233913Y-110618642D02*
X139186294Y-110666261D01*
X139043437Y-110713880D01*
X138948199Y-110713880D01*
X138805341Y-110666261D01*
X138710103Y-110571023D01*
X138662484Y-110475785D01*
X138614865Y-110285309D01*
X138614865Y-110142452D01*
X138662484Y-109951976D01*
X138710103Y-109856738D01*
X138805341Y-109761500D01*
X138948199Y-109713880D01*
X139043437Y-109713880D01*
X139186294Y-109761500D01*
X139233913Y-109809119D01*
X139805341Y-110142452D02*
X139710103Y-110094833D01*
X139662484Y-110047214D01*
X139614865Y-109951976D01*
X139614865Y-109904357D01*
X139662484Y-109809119D01*
X139710103Y-109761500D01*
X139805341Y-109713880D01*
X139995818Y-109713880D01*
X140091056Y-109761500D01*
X140138675Y-109809119D01*
X140186294Y-109904357D01*
X140186294Y-109951976D01*
X140138675Y-110047214D01*
X140091056Y-110094833D01*
X139995818Y-110142452D01*
X139805341Y-110142452D01*
X139710103Y-110190071D01*
X139662484Y-110237690D01*
X139614865Y-110332928D01*
X139614865Y-110523404D01*
X139662484Y-110618642D01*
X139710103Y-110666261D01*
X139805341Y-110713880D01*
X139995818Y-110713880D01*
X140091056Y-110666261D01*
X140138675Y-110618642D01*
X140186294Y-110523404D01*
X140186294Y-110332928D01*
X140138675Y-110237690D01*
X140091056Y-110190071D01*
X139995818Y-110142452D01*
X117142086Y-123317011D02*
X116808753Y-123317011D01*
X116808753Y-123840820D02*
X116808753Y-122840820D01*
X117284943Y-122840820D01*
X118189705Y-123840820D02*
X117618277Y-123840820D01*
X117903991Y-123840820D02*
X117903991Y-122840820D01*
X117808753Y-122983678D01*
X117713515Y-123078916D01*
X117618277Y-123126535D01*
X114584666Y-137000380D02*
X114584666Y-137714666D01*
X114537047Y-137857523D01*
X114441809Y-137952761D01*
X114298952Y-138000380D01*
X114203714Y-138000380D01*
X115013238Y-137095619D02*
X115060857Y-137048000D01*
X115156095Y-137000380D01*
X115394190Y-137000380D01*
X115489428Y-137048000D01*
X115537047Y-137095619D01*
X115584666Y-137190857D01*
X115584666Y-137286095D01*
X115537047Y-137428952D01*
X114965619Y-138000380D01*
X115584666Y-138000380D01*
X121677906Y-86973120D02*
X121677906Y-87687406D01*
X121630287Y-87830263D01*
X121535049Y-87925501D01*
X121392192Y-87973120D01*
X121296954Y-87973120D01*
X122058859Y-86973120D02*
X122677906Y-86973120D01*
X122344573Y-87354073D01*
X122487430Y-87354073D01*
X122582668Y-87401692D01*
X122630287Y-87449311D01*
X122677906Y-87544549D01*
X122677906Y-87782644D01*
X122630287Y-87877882D01*
X122582668Y-87925501D01*
X122487430Y-87973120D01*
X122201716Y-87973120D01*
X122106478Y-87925501D01*
X122058859Y-87877882D01*
X145950666Y-137155380D02*
X145950666Y-137869666D01*
X145903047Y-138012523D01*
X145807809Y-138107761D01*
X145664952Y-138155380D01*
X145569714Y-138155380D01*
X146903047Y-137155380D02*
X146426857Y-137155380D01*
X146379238Y-137631571D01*
X146426857Y-137583952D01*
X146522095Y-137536333D01*
X146760190Y-137536333D01*
X146855428Y-137583952D01*
X146903047Y-137631571D01*
X146950666Y-137726809D01*
X146950666Y-137964904D01*
X146903047Y-138060142D01*
X146855428Y-138107761D01*
X146760190Y-138155380D01*
X146522095Y-138155380D01*
X146426857Y-138107761D01*
X146379238Y-138060142D01*
X130490761Y-130595619D02*
X130395523Y-130548000D01*
X130300285Y-130452761D01*
X130157428Y-130309904D01*
X130062190Y-130262285D01*
X129966952Y-130262285D01*
X130014571Y-130500380D02*
X129919333Y-130452761D01*
X129824095Y-130357523D01*
X129776476Y-130167047D01*
X129776476Y-129833714D01*
X129824095Y-129643238D01*
X129919333Y-129548000D01*
X130014571Y-129500380D01*
X130205047Y-129500380D01*
X130300285Y-129548000D01*
X130395523Y-129643238D01*
X130443142Y-129833714D01*
X130443142Y-130167047D01*
X130395523Y-130357523D01*
X130300285Y-130452761D01*
X130205047Y-130500380D01*
X130014571Y-130500380D01*
X131395523Y-130500380D02*
X130824095Y-130500380D01*
X131109809Y-130500380D02*
X131109809Y-129500380D01*
X131014571Y-129643238D01*
X130919333Y-129738476D01*
X130824095Y-129786095D01*
X126579095Y-110108380D02*
X127150523Y-110108380D01*
X126864809Y-111108380D02*
X126864809Y-110108380D01*
X128007666Y-111108380D02*
X127436238Y-111108380D01*
X127721952Y-111108380D02*
X127721952Y-110108380D01*
X127626714Y-110251238D01*
X127531476Y-110346476D01*
X127436238Y-110394095D01*
X114653005Y-118375400D02*
X115224434Y-118375400D01*
X114938720Y-119375400D02*
X114938720Y-118375400D01*
X115557767Y-119375400D02*
X115557767Y-118375400D01*
X115557767Y-118851591D02*
X116129196Y-118851591D01*
X116129196Y-119375400D02*
X116129196Y-118375400D01*
X117129196Y-119375400D02*
X116557767Y-119375400D01*
X116843481Y-119375400D02*
X116843481Y-118375400D01*
X116748243Y-118518258D01*
X116653005Y-118613496D01*
X116557767Y-118661115D01*
X129173915Y-95408540D02*
X129173915Y-96218064D01*
X129221534Y-96313302D01*
X129269153Y-96360921D01*
X129364391Y-96408540D01*
X129554867Y-96408540D01*
X129650105Y-96360921D01*
X129697724Y-96313302D01*
X129745343Y-96218064D01*
X129745343Y-95408540D01*
X130745343Y-96408540D02*
X130173915Y-96408540D01*
X130459629Y-96408540D02*
X130459629Y-95408540D01*
X130364391Y-95551398D01*
X130269153Y-95646636D01*
X130173915Y-95694255D01*
X107411875Y-85487280D02*
X107411875Y-86296804D01*
X107459494Y-86392042D01*
X107507113Y-86439661D01*
X107602351Y-86487280D01*
X107792827Y-86487280D01*
X107888065Y-86439661D01*
X107935684Y-86392042D01*
X107983303Y-86296804D01*
X107983303Y-85487280D01*
X108411875Y-85582519D02*
X108459494Y-85534900D01*
X108554732Y-85487280D01*
X108792827Y-85487280D01*
X108888065Y-85534900D01*
X108935684Y-85582519D01*
X108983303Y-85677757D01*
X108983303Y-85772995D01*
X108935684Y-85915852D01*
X108364256Y-86487280D01*
X108983303Y-86487280D01*
X146228095Y-114584380D02*
X146228095Y-115393904D01*
X146275714Y-115489142D01*
X146323333Y-115536761D01*
X146418571Y-115584380D01*
X146609047Y-115584380D01*
X146704285Y-115536761D01*
X146751904Y-115489142D01*
X146799523Y-115393904D01*
X146799523Y-114584380D01*
X147751904Y-114584380D02*
X147275714Y-114584380D01*
X147228095Y-115060571D01*
X147275714Y-115012952D01*
X147370952Y-114965333D01*
X147609047Y-114965333D01*
X147704285Y-115012952D01*
X147751904Y-115060571D01*
X147799523Y-115155809D01*
X147799523Y-115393904D01*
X147751904Y-115489142D01*
X147704285Y-115536761D01*
X147609047Y-115584380D01*
X147370952Y-115584380D01*
X147275714Y-115536761D01*
X147228095Y-115489142D01*
M02*
