G04 Layer: TopLayer*
G04 EasyEDA v6.5.1, 2022-03-21 16:47:25*
G04 955ef46bbe064569b540ea905b21d435,97f3a3507f384188ab3f8c3e8ba95b97,10*
G04 Gerber Generator version 0.2*
G04 Scale: 100 percent, Rotated: No, Reflected: No *
G04 Dimensions in millimeters *
G04 leading zeros omitted , absolute positions ,4 integer and 5 decimal *
%FSLAX45Y45*%
%MOMM*%

%ADD10C,0.2540*%
%ADD11C,0.8000*%
%ADD12C,0.2032*%
%ADD13C,0.6100*%
%ADD14R,2.0000X1.0000*%
%ADD16R,2.7000X3.7500*%
%ADD17R,1.3500X1.4100*%
%ADD18R,1.3005X1.3995*%
%ADD20R,4.0640X1.5240*%
%ADD21R,2.0320X1.0160*%
%ADD22R,1.5494X0.9500*%
%ADD23R,0.9500X1.5494*%
%ADD24R,4.0000X4.0000*%
%ADD25R,0.5500X1.0000*%
%ADD27C,1.8000*%
%ADD28C,1.8200*%
%ADD29C,8.0000*%
%ADD30C,2.0000*%
%ADD31C,1.4986*%
%ADD32R,1.4986X1.4986*%
%ADD33C,1.6764*%
%ADD34R,1.6764X1.6764*%

%LPD*%
G36*
X6332931Y4363364D02*
G01*
X6329019Y4364177D01*
X6325717Y4366361D01*
X6323533Y4369663D01*
X6322771Y4373524D01*
X6323533Y4377436D01*
X6325717Y4380738D01*
X6329172Y4384192D01*
X6332270Y4389069D01*
X6334150Y4394555D01*
X6334912Y4400854D01*
X6334912Y4514189D01*
X6335674Y4518101D01*
X6337858Y4521403D01*
X6341160Y4523587D01*
X6345072Y4524349D01*
X6405778Y4524146D01*
X6409639Y4523384D01*
X6412941Y4521149D01*
X6415125Y4517847D01*
X6415938Y4513986D01*
X6415938Y4400854D01*
X6416649Y4394555D01*
X6418529Y4389069D01*
X6421628Y4384192D01*
X6425082Y4380738D01*
X6427266Y4377436D01*
X6428028Y4373524D01*
X6427266Y4369663D01*
X6425082Y4366361D01*
X6421780Y4364177D01*
X6417868Y4363364D01*
G37*

%LPD*%
G36*
X6386169Y4105198D02*
G01*
X6373520Y4106672D01*
X6365443Y4106672D01*
X6361531Y4107434D01*
X6358229Y4109669D01*
X6356045Y4112920D01*
X6355283Y4116832D01*
X6355283Y4164837D01*
X6345072Y4164837D01*
X6341160Y4165600D01*
X6337858Y4167835D01*
X6335674Y4171086D01*
X6334912Y4174998D01*
X6334912Y4227322D01*
X6335674Y4231233D01*
X6337858Y4234484D01*
X6341160Y4236720D01*
X6345072Y4237482D01*
X6355283Y4237482D01*
X6356045Y4241698D01*
X6358229Y4244949D01*
X6361531Y4247184D01*
X6365443Y4247946D01*
X6385356Y4247946D01*
X6389268Y4247184D01*
X6392570Y4244949D01*
X6394754Y4241698D01*
X6395516Y4237482D01*
X6405778Y4237482D01*
X6409639Y4236720D01*
X6412941Y4234484D01*
X6415125Y4231233D01*
X6415938Y4227322D01*
X6415938Y4174998D01*
X6415125Y4171086D01*
X6412941Y4167835D01*
X6409639Y4165600D01*
X6405778Y4164837D01*
X6395516Y4164837D01*
X6395516Y4115308D01*
X6394805Y4111650D01*
X6392824Y4108450D01*
X6389827Y4106214D01*
G37*

%LPD*%
G36*
X7174280Y3862882D02*
G01*
X7170369Y3863644D01*
X7167118Y3865879D01*
X6915556Y4117441D01*
X6913321Y4120743D01*
X6912559Y4124604D01*
X6912559Y4304792D01*
X6911746Y4312818D01*
X6909562Y4320032D01*
X6906006Y4326737D01*
X6901230Y4332579D01*
X6895388Y4337354D01*
X6888683Y4340910D01*
X6881622Y4343095D01*
X6877862Y4345178D01*
X6875322Y4348581D01*
X6874408Y4352798D01*
X6874408Y4354779D01*
X6873697Y4361078D01*
X6871766Y4366514D01*
X6868718Y4371441D01*
X6864603Y4375505D01*
X6859727Y4378604D01*
X6854240Y4380534D01*
X6847941Y4381246D01*
X6649059Y4381246D01*
X6642760Y4380534D01*
X6637274Y4378604D01*
X6632397Y4375505D01*
X6628282Y4371441D01*
X6624980Y4366209D01*
X6621932Y4363059D01*
X6617817Y4361535D01*
X6613448Y4361891D01*
X6611112Y4362602D01*
X6603085Y4363364D01*
X6520891Y4363364D01*
X6516979Y4364177D01*
X6513677Y4366361D01*
X6511493Y4369663D01*
X6510731Y4373524D01*
X6511493Y4377436D01*
X6513677Y4380738D01*
X6517131Y4384192D01*
X6520230Y4389069D01*
X6522110Y4394555D01*
X6522872Y4400854D01*
X6522872Y4513580D01*
X6523634Y4517491D01*
X6525818Y4520793D01*
X6529120Y4522978D01*
X6533032Y4523740D01*
X7431633Y4520793D01*
X7435494Y4520031D01*
X7438796Y4517847D01*
X7440980Y4514545D01*
X7441742Y4510684D01*
X7441996Y4391406D01*
X7441184Y4387494D01*
X7438999Y4384192D01*
X7435697Y4382008D01*
X7431836Y4381246D01*
X7405065Y4381246D01*
X7405065Y4336694D01*
X7431938Y4336694D01*
X7435799Y4335881D01*
X7439101Y4333697D01*
X7441285Y4330395D01*
X7442098Y4326534D01*
X7442149Y4284167D01*
X7441387Y4280255D01*
X7439202Y4276953D01*
X7435900Y4274769D01*
X7431989Y4273956D01*
X7405065Y4273956D01*
X7405065Y4229404D01*
X7432141Y4229404D01*
X7436002Y4228642D01*
X7439304Y4226458D01*
X7441488Y4223156D01*
X7442301Y4219295D01*
X7442809Y3934155D01*
X7442047Y3930243D01*
X7439812Y3926941D01*
X7436510Y3924757D01*
X7432649Y3923995D01*
X7285990Y3923995D01*
X7282332Y3924655D01*
X7279182Y3926586D01*
X7276947Y3929532D01*
X7275880Y3933088D01*
X7276185Y3936796D01*
X7278573Y3945686D01*
X7279436Y3955440D01*
X7278573Y3965244D01*
X7276033Y3974744D01*
X7271867Y3983634D01*
X7266228Y3991711D01*
X7259269Y3998671D01*
X7251242Y4004259D01*
X7242352Y4008424D01*
X7232853Y4010964D01*
X7223048Y4011828D01*
X7213244Y4010964D01*
X7203744Y4008424D01*
X7194854Y4004259D01*
X7186828Y3998671D01*
X7179868Y3991711D01*
X7174230Y3983634D01*
X7170064Y3974744D01*
X7167524Y3965244D01*
X7166660Y3955440D01*
X7167524Y3945686D01*
X7170064Y3936187D01*
X7174230Y3927297D01*
X7179868Y3919220D01*
X7181443Y3917645D01*
X7183678Y3914343D01*
X7184440Y3910431D01*
X7184440Y3873042D01*
X7183678Y3869182D01*
X7181443Y3865879D01*
X7178192Y3863644D01*
G37*

%LPC*%
G36*
X7249261Y4229404D02*
G01*
X7292340Y4229404D01*
X7292340Y4273956D01*
X7222794Y4273956D01*
X7222794Y4255871D01*
X7223506Y4249572D01*
X7225436Y4244136D01*
X7228484Y4239209D01*
X7232599Y4235145D01*
X7237475Y4232046D01*
X7242962Y4230116D01*
G37*
G36*
X7222794Y4336694D02*
G01*
X7292340Y4336694D01*
X7292340Y4381246D01*
X7249261Y4381246D01*
X7242962Y4380534D01*
X7237475Y4378604D01*
X7232599Y4375505D01*
X7228484Y4371441D01*
X7225436Y4366514D01*
X7223506Y4361078D01*
X7222794Y4354779D01*
G37*

%LPD*%
G36*
X3793083Y3700830D02*
G01*
X3789019Y3702507D01*
X3786022Y3705758D01*
X3784701Y3709924D01*
X3785260Y3714292D01*
X3787597Y3718001D01*
X3789476Y3719880D01*
X3792778Y3722115D01*
X3796690Y3722878D01*
X3801668Y3722878D01*
X3805682Y3722014D01*
X3809085Y3719626D01*
X3811219Y3716121D01*
X3811778Y3712006D01*
X3810660Y3707993D01*
X3808018Y3704793D01*
X3804310Y3702913D01*
X3797503Y3701034D01*
G37*

%LPD*%
G36*
X4037787Y3016300D02*
G01*
X4033774Y3017012D01*
X4030370Y3019247D01*
X3927805Y3121863D01*
X3926128Y3124098D01*
X3920134Y3139744D01*
X3913682Y3151530D01*
X3905707Y3162401D01*
X3896309Y3172053D01*
X3885742Y3180435D01*
X3874160Y3187293D01*
X3861765Y3192526D01*
X3848760Y3196082D01*
X3835450Y3197910D01*
X3821988Y3197910D01*
X3808628Y3196082D01*
X3795623Y3192526D01*
X3782568Y3186988D01*
X3778656Y3186176D01*
X3774744Y3186938D01*
X3771442Y3189122D01*
X3769207Y3192424D01*
X3768445Y3196336D01*
X3768445Y3252520D01*
X3769258Y3256584D01*
X3771595Y3259937D01*
X3775100Y3262071D01*
X3779215Y3262680D01*
X3783177Y3261614D01*
X3789324Y3258464D01*
X3802075Y3254044D01*
X3815283Y3251403D01*
X3828694Y3250488D01*
X3842156Y3251403D01*
X3855313Y3254044D01*
X3868064Y3258464D01*
X3880053Y3264560D01*
X3891178Y3272180D01*
X3901186Y3281222D01*
X3909872Y3291484D01*
X3917086Y3302863D01*
X3922776Y3315055D01*
X3926789Y3327908D01*
X3929024Y3341217D01*
X3929481Y3354679D01*
X3928110Y3368090D01*
X3925011Y3381146D01*
X3920134Y3393744D01*
X3913682Y3405530D01*
X3905707Y3416401D01*
X3896309Y3426053D01*
X3885742Y3434435D01*
X3874160Y3441293D01*
X3861765Y3446526D01*
X3848760Y3450082D01*
X3835450Y3451910D01*
X3821988Y3451910D01*
X3808628Y3450082D01*
X3795623Y3446526D01*
X3782568Y3440988D01*
X3778656Y3440176D01*
X3774744Y3440937D01*
X3771442Y3443122D01*
X3769207Y3446424D01*
X3768445Y3450336D01*
X3768445Y3486200D01*
X3769207Y3490112D01*
X3771392Y3493414D01*
X3785666Y3507689D01*
X3788816Y3509822D01*
X3792474Y3510635D01*
X3796182Y3510127D01*
X3802075Y3508044D01*
X3815283Y3505403D01*
X3828694Y3504488D01*
X3842156Y3505403D01*
X3855313Y3508044D01*
X3868064Y3512464D01*
X3880053Y3518560D01*
X3891178Y3526180D01*
X3901186Y3535222D01*
X3909872Y3545484D01*
X3917086Y3556863D01*
X3922776Y3569055D01*
X3926789Y3581908D01*
X3929024Y3595217D01*
X3929481Y3608679D01*
X3928110Y3622090D01*
X3925011Y3635146D01*
X3920134Y3647744D01*
X3913682Y3659530D01*
X3905707Y3670401D01*
X3896309Y3680053D01*
X3885742Y3688435D01*
X3874160Y3695293D01*
X3861765Y3700526D01*
X3853078Y3702913D01*
X3849370Y3704793D01*
X3846728Y3707993D01*
X3845610Y3712006D01*
X3846169Y3716121D01*
X3848303Y3719626D01*
X3851706Y3722014D01*
X3855770Y3722878D01*
X4039768Y3722878D01*
X4043679Y3722115D01*
X4046982Y3719880D01*
X4049166Y3716629D01*
X4049928Y3712718D01*
X4049928Y3698392D01*
X4097832Y3698392D01*
X4097832Y3712718D01*
X4098594Y3716629D01*
X4100779Y3719880D01*
X4104081Y3722115D01*
X4107992Y3722878D01*
X4156964Y3722878D01*
X4160875Y3722115D01*
X4164177Y3719880D01*
X4166362Y3716629D01*
X4167124Y3712718D01*
X4167124Y3698392D01*
X4180332Y3698392D01*
X4184243Y3697579D01*
X4187494Y3695395D01*
X4189729Y3692093D01*
X4190492Y3688232D01*
X4190492Y3626967D01*
X4189729Y3623106D01*
X4187494Y3619804D01*
X4184243Y3617620D01*
X4180332Y3616807D01*
X4167124Y3616807D01*
X4167124Y3562858D01*
X4180332Y3562858D01*
X4184243Y3562045D01*
X4187494Y3559860D01*
X4189729Y3556558D01*
X4190492Y3552698D01*
X4190492Y3134614D01*
X4191304Y3126587D01*
X4193489Y3119374D01*
X4197045Y3112668D01*
X4202176Y3106470D01*
X4250893Y3057702D01*
X4253077Y3054451D01*
X4253839Y3050540D01*
X4253077Y3046628D01*
X4250893Y3043377D01*
X4242104Y3034588D01*
X4238802Y3032353D01*
X4234942Y3031591D01*
X4231030Y3032353D01*
X4227728Y3034588D01*
X4223816Y3038500D01*
X4218889Y3041599D01*
X4213453Y3043478D01*
X4207154Y3044190D01*
X4073245Y3044190D01*
X4066946Y3043478D01*
X4061510Y3041599D01*
X4056583Y3038500D01*
X4052519Y3034436D01*
X4049420Y3029508D01*
X4047185Y3023108D01*
X4045102Y3019602D01*
X4041800Y3017215D01*
G37*

%LPC*%
G36*
X4076395Y3562858D02*
G01*
X4097832Y3562858D01*
X4097832Y3616807D01*
X4049928Y3616807D01*
X4049928Y3589324D01*
X4050639Y3582974D01*
X4052570Y3577539D01*
X4055618Y3572611D01*
X4059732Y3568547D01*
X4064609Y3565448D01*
X4070096Y3563569D01*
G37*

%LPD*%
G36*
X4047845Y1686712D02*
G01*
X4043934Y1687525D01*
X4040632Y1689709D01*
X4036212Y1694129D01*
X4029964Y1699260D01*
X4023309Y1702816D01*
X4016197Y1705000D01*
X4012488Y1707083D01*
X4009898Y1710486D01*
X4008983Y1714703D01*
X4008983Y1854149D01*
X4008272Y1860448D01*
X4006392Y1865934D01*
X4003294Y1870811D01*
X3999229Y1874926D01*
X3994302Y1877974D01*
X3988866Y1879904D01*
X3982516Y1880616D01*
X3713683Y1880616D01*
X3707333Y1879904D01*
X3701897Y1877974D01*
X3696970Y1874926D01*
X3692906Y1870811D01*
X3689807Y1865934D01*
X3687927Y1860448D01*
X3687216Y1854149D01*
X3687216Y1746757D01*
X3686403Y1742897D01*
X3684219Y1739595D01*
X3680917Y1737360D01*
X3677056Y1736598D01*
X3673144Y1737360D01*
X3669842Y1739595D01*
X3661105Y1748332D01*
X3658870Y1751634D01*
X3658108Y1755546D01*
X3658108Y3584295D01*
X3658870Y3588207D01*
X3661105Y3591509D01*
X3715867Y3646271D01*
X3719118Y3648456D01*
X3722979Y3649218D01*
X3726789Y3648506D01*
X3730091Y3646373D01*
X3732326Y3643122D01*
X3733190Y3639312D01*
X3732428Y3635146D01*
X3729278Y3622090D01*
X3727958Y3608679D01*
X3728415Y3595217D01*
X3730650Y3581908D01*
X3733546Y3572459D01*
X3734003Y3568801D01*
X3733139Y3565245D01*
X3731056Y3562248D01*
X3702862Y3534054D01*
X3697732Y3527856D01*
X3694176Y3521151D01*
X3691991Y3513937D01*
X3691229Y3505911D01*
X3691229Y3049574D01*
X3691991Y3041548D01*
X3694176Y3034334D01*
X3697732Y3027680D01*
X3702862Y3021431D01*
X3775252Y2949041D01*
X3778554Y2946349D01*
X3780993Y2943352D01*
X3782212Y2939643D01*
X3781907Y2935782D01*
X3780180Y2932328D01*
X3777284Y2929737D01*
X3771646Y2926435D01*
X3761079Y2918053D01*
X3751732Y2908401D01*
X3743706Y2897530D01*
X3738016Y2887116D01*
X3784904Y2887116D01*
X3784904Y2928010D01*
X3785768Y2932125D01*
X3788206Y2935528D01*
X3791864Y2937662D01*
X3796029Y2938119D01*
X3803396Y2937357D01*
X3814165Y2937357D01*
X3818077Y2936595D01*
X3821379Y2934411D01*
X4008221Y2747568D01*
X4010406Y2744266D01*
X4011218Y2740355D01*
X4011218Y2640736D01*
X4010304Y2636570D01*
X4007713Y2633116D01*
X4003954Y2631033D01*
X3999687Y2630678D01*
X3995623Y2632151D01*
X3994302Y2632964D01*
X3988866Y2634894D01*
X3982516Y2635605D01*
X3921963Y2635605D01*
X3921963Y2522270D01*
X4001008Y2522270D01*
X4004919Y2521508D01*
X4008221Y2519324D01*
X4010406Y2516022D01*
X4011218Y2512110D01*
X4011218Y2477566D01*
X4011980Y2469540D01*
X4014165Y2462326D01*
X4017721Y2455672D01*
X4022851Y2449423D01*
X4251350Y2220976D01*
X4257548Y2215845D01*
X4264253Y2212289D01*
X4271314Y2210104D01*
X4275074Y2208022D01*
X4277614Y2204618D01*
X4278528Y2200402D01*
X4278528Y2179624D01*
X4279239Y2173274D01*
X4281170Y2167839D01*
X4284218Y2162911D01*
X4288332Y2158847D01*
X4293209Y2155748D01*
X4298696Y2153869D01*
X4304995Y2153158D01*
X4417110Y2153158D01*
X4423460Y2153869D01*
X4428896Y2155748D01*
X4433824Y2158847D01*
X4437888Y2162911D01*
X4440986Y2167839D01*
X4442917Y2173274D01*
X4443628Y2179624D01*
X4443628Y2316175D01*
X4442917Y2322525D01*
X4440986Y2327960D01*
X4437888Y2332888D01*
X4433824Y2336952D01*
X4428896Y2340051D01*
X4423460Y2341930D01*
X4417110Y2342642D01*
X4304995Y2342642D01*
X4298696Y2341930D01*
X4293209Y2340051D01*
X4288332Y2336952D01*
X4284218Y2332888D01*
X4281170Y2327960D01*
X4279341Y2322728D01*
X4277258Y2319274D01*
X4273956Y2316835D01*
X4269994Y2315972D01*
X4265980Y2316683D01*
X4262577Y2318918D01*
X4091381Y2490114D01*
X4089196Y2493416D01*
X4088434Y2497277D01*
X4088434Y2635250D01*
X4089196Y2639110D01*
X4091381Y2642412D01*
X4094683Y2644597D01*
X4100118Y2645410D01*
X4100118Y2700223D01*
X4094683Y2700985D01*
X4091381Y2703169D01*
X4089196Y2706471D01*
X4088434Y2710383D01*
X4088434Y2760065D01*
X4087622Y2768092D01*
X4086961Y2770276D01*
X4086555Y2774035D01*
X4087520Y2777693D01*
X4089755Y2780690D01*
X4092956Y2782722D01*
X4096664Y2783382D01*
X4100118Y2783382D01*
X4100118Y2841244D01*
X4100880Y2845104D01*
X4103065Y2848406D01*
X4106367Y2850642D01*
X4110278Y2851404D01*
X4170121Y2851404D01*
X4174032Y2850642D01*
X4177334Y2848406D01*
X4179519Y2845104D01*
X4180281Y2841244D01*
X4180281Y2783382D01*
X4233621Y2783382D01*
X4233621Y2811729D01*
X4232910Y2818028D01*
X4230979Y2823514D01*
X4227880Y2828391D01*
X4223816Y2832506D01*
X4217924Y2836214D01*
X4214977Y2839008D01*
X4213402Y2842768D01*
X4213402Y2846832D01*
X4214977Y2850591D01*
X4217924Y2853385D01*
X4223816Y2857093D01*
X4227880Y2861208D01*
X4230979Y2866085D01*
X4232910Y2871571D01*
X4233621Y2877870D01*
X4233621Y2900273D01*
X4234535Y2904490D01*
X4237075Y2907944D01*
X4240834Y2910027D01*
X4247896Y2912160D01*
X4254601Y2915716D01*
X4260443Y2920542D01*
X4265218Y2926384D01*
X4268774Y2933039D01*
X4270959Y2940253D01*
X4271772Y2948279D01*
X4271772Y2950819D01*
X4272534Y2954731D01*
X4274769Y2958033D01*
X4298035Y2981299D01*
X4301337Y2983534D01*
X4305249Y2984296D01*
X4309110Y2983534D01*
X4312412Y2981299D01*
X4314596Y2978048D01*
X4315409Y2974136D01*
X4315409Y2925673D01*
X4316120Y2919374D01*
X4318000Y2913888D01*
X4321098Y2909011D01*
X4325162Y2904896D01*
X4330090Y2901797D01*
X4335526Y2899918D01*
X4341876Y2899206D01*
X4395724Y2899206D01*
X4402074Y2899918D01*
X4407509Y2901797D01*
X4410913Y2903931D01*
X4414418Y2905302D01*
X4418177Y2905302D01*
X4421682Y2903931D01*
X4425086Y2901797D01*
X4430522Y2899918D01*
X4436872Y2899206D01*
X4490720Y2899206D01*
X4497070Y2899918D01*
X4502505Y2901797D01*
X4505909Y2903931D01*
X4509414Y2905302D01*
X4513173Y2905302D01*
X4516678Y2903931D01*
X4520082Y2901797D01*
X4525518Y2899918D01*
X4531868Y2899206D01*
X4563008Y2899206D01*
X4566869Y2898444D01*
X4570171Y2896209D01*
X4572355Y2892907D01*
X4573168Y2889046D01*
X4573168Y2853740D01*
X4572355Y2849829D01*
X4570171Y2846527D01*
X4531868Y2808224D01*
X4526737Y2801975D01*
X4523181Y2795320D01*
X4520996Y2788107D01*
X4520590Y2784398D01*
X4519371Y2780487D01*
X4516729Y2777337D01*
X4513021Y2775559D01*
X4508957Y2775356D01*
X4505096Y2776778D01*
X4502505Y2778404D01*
X4497070Y2780334D01*
X4490720Y2781046D01*
X4483912Y2781046D01*
X4483912Y2736494D01*
X4495241Y2736494D01*
X4499102Y2735681D01*
X4502404Y2733497D01*
X4504588Y2730195D01*
X4505401Y2726334D01*
X4505401Y2683916D01*
X4504588Y2680055D01*
X4502404Y2676753D01*
X4499102Y2674569D01*
X4495241Y2673756D01*
X4483912Y2673756D01*
X4483912Y2629204D01*
X4490720Y2629204D01*
X4497070Y2629916D01*
X4502505Y2631846D01*
X4504639Y2633167D01*
X4508652Y2634640D01*
X4512970Y2634284D01*
X4516729Y2632202D01*
X4519269Y2628747D01*
X4520184Y2624582D01*
X4520184Y2592781D01*
X4519422Y2588869D01*
X4517186Y2585567D01*
X4513935Y2583383D01*
X4510024Y2582621D01*
X4492650Y2582621D01*
X4489094Y2583281D01*
X4485944Y2585110D01*
X4483709Y2587955D01*
X4480102Y2594711D01*
X4474972Y2600909D01*
X4446676Y2629255D01*
X4444492Y2632557D01*
X4443679Y2636418D01*
X4443679Y2673756D01*
X4432350Y2673756D01*
X4428490Y2674569D01*
X4425188Y2676753D01*
X4423003Y2680055D01*
X4422190Y2683916D01*
X4422190Y2726334D01*
X4423003Y2730195D01*
X4425188Y2733497D01*
X4428490Y2735681D01*
X4432350Y2736494D01*
X4443679Y2736494D01*
X4443679Y2781046D01*
X4436872Y2781046D01*
X4430522Y2780334D01*
X4425086Y2778404D01*
X4421682Y2776270D01*
X4418177Y2774899D01*
X4414418Y2774899D01*
X4410913Y2776270D01*
X4407509Y2778404D01*
X4402074Y2780334D01*
X4395724Y2781046D01*
X4341876Y2781046D01*
X4335526Y2780334D01*
X4330090Y2778404D01*
X4325162Y2775305D01*
X4321098Y2771241D01*
X4318000Y2766314D01*
X4316120Y2760878D01*
X4315409Y2754579D01*
X4315409Y2655671D01*
X4316120Y2649372D01*
X4318000Y2643936D01*
X4321098Y2639009D01*
X4328109Y2632506D01*
X4329734Y2629916D01*
X4330496Y2626918D01*
X4331004Y2622143D01*
X4333189Y2614930D01*
X4336745Y2608224D01*
X4341520Y2602382D01*
X4347362Y2597607D01*
X4354068Y2594051D01*
X4361281Y2591866D01*
X4369308Y2591054D01*
X4371441Y2591054D01*
X4375353Y2590292D01*
X4378655Y2588056D01*
X4393336Y2573375D01*
X4395520Y2570124D01*
X4396282Y2566212D01*
X4396282Y2529281D01*
X4399280Y2529281D01*
X4403191Y2528519D01*
X4406442Y2526334D01*
X4408678Y2523032D01*
X4409440Y2519121D01*
X4409440Y2459278D01*
X4408678Y2455367D01*
X4406442Y2452065D01*
X4403191Y2449880D01*
X4399280Y2449118D01*
X4396282Y2449118D01*
X4396282Y2395778D01*
X4422444Y2395778D01*
X4426356Y2395016D01*
X4429658Y2392832D01*
X4468164Y2354326D01*
X4477867Y2346553D01*
X4479747Y2343302D01*
X4480356Y2339644D01*
X4479544Y2335987D01*
X4474413Y2327960D01*
X4472482Y2322525D01*
X4471771Y2316175D01*
X4471771Y2179624D01*
X4472482Y2173274D01*
X4474413Y2167839D01*
X4477512Y2162911D01*
X4481576Y2158847D01*
X4486503Y2155748D01*
X4491939Y2153869D01*
X4498289Y2153158D01*
X4506823Y2153158D01*
X4511040Y2152243D01*
X4514443Y2149703D01*
X4516526Y2145944D01*
X4518710Y2138832D01*
X4522266Y2132177D01*
X4527397Y2125929D01*
X4560011Y2093315D01*
X4562195Y2090013D01*
X4563008Y2086102D01*
X4562195Y2082241D01*
X4560011Y2078939D01*
X4556709Y2076754D01*
X4552848Y2075942D01*
X4485589Y2075942D01*
X4479239Y2075230D01*
X4473803Y2073351D01*
X4468876Y2070252D01*
X4464812Y2066188D01*
X4461713Y2061260D01*
X4459782Y2055825D01*
X4459071Y2049475D01*
X4459071Y1912924D01*
X4459782Y1906574D01*
X4461713Y1901139D01*
X4465167Y1895652D01*
X4466488Y1892503D01*
X4466640Y1889099D01*
X4465726Y1885848D01*
X4463745Y1883054D01*
X4425492Y1844802D01*
X4419650Y1837639D01*
X4417110Y1835404D01*
X4414012Y1834134D01*
X4410659Y1833981D01*
X4404410Y1834642D01*
X4383024Y1834642D01*
X4383024Y1780692D01*
X4403648Y1780692D01*
X4407560Y1779879D01*
X4410811Y1777695D01*
X4413046Y1774393D01*
X4413808Y1770532D01*
X4413808Y1709267D01*
X4413046Y1705406D01*
X4410811Y1702104D01*
X4407560Y1699920D01*
X4403648Y1699107D01*
X4383024Y1699107D01*
X4383024Y1696872D01*
X4382262Y1693011D01*
X4380077Y1689709D01*
X4376775Y1687525D01*
X4372864Y1686712D01*
X4323892Y1686712D01*
X4319981Y1687525D01*
X4316679Y1689709D01*
X4314494Y1693011D01*
X4313732Y1696872D01*
X4313732Y1699107D01*
X4265828Y1699107D01*
X4265828Y1696872D01*
X4265066Y1693011D01*
X4262882Y1689709D01*
X4259580Y1687525D01*
X4255668Y1686712D01*
G37*

%LPC*%
G36*
X4265828Y1780692D02*
G01*
X4313732Y1780692D01*
X4313732Y1834642D01*
X4292295Y1834642D01*
X4285996Y1833930D01*
X4280509Y1832051D01*
X4275632Y1828952D01*
X4271518Y1824888D01*
X4268470Y1819960D01*
X4266539Y1814525D01*
X4265828Y1808175D01*
G37*
G36*
X4292295Y1886457D02*
G01*
X4404410Y1886457D01*
X4410760Y1887169D01*
X4416196Y1889048D01*
X4421124Y1892147D01*
X4425188Y1896211D01*
X4428286Y1901139D01*
X4430217Y1906574D01*
X4430928Y1912924D01*
X4430928Y2049475D01*
X4430217Y2055825D01*
X4428286Y2061260D01*
X4425188Y2066188D01*
X4421124Y2070252D01*
X4416196Y2073351D01*
X4410760Y2075230D01*
X4404410Y2075942D01*
X4309110Y2075942D01*
X4305554Y2076602D01*
X4302404Y2078482D01*
X4300169Y2081326D01*
X4298340Y2084730D01*
X4293209Y2090928D01*
X4273753Y2110435D01*
X4271721Y2113330D01*
X4270806Y2116734D01*
X4270095Y2124760D01*
X4267555Y2134260D01*
X4263390Y2143150D01*
X4257802Y2151227D01*
X4250842Y2158187D01*
X4242765Y2163775D01*
X4233875Y2167940D01*
X4224375Y2170480D01*
X4214622Y2171344D01*
X4204817Y2170480D01*
X4195318Y2167940D01*
X4186428Y2163775D01*
X4178350Y2158187D01*
X4171391Y2151227D01*
X4165803Y2143150D01*
X4161637Y2134260D01*
X4159097Y2124760D01*
X4158234Y2114956D01*
X4159097Y2105202D01*
X4161637Y2095703D01*
X4165803Y2086813D01*
X4171391Y2078736D01*
X4178350Y2071776D01*
X4186428Y2066188D01*
X4195318Y2062022D01*
X4204817Y2059482D01*
X4212844Y2058771D01*
X4216247Y2057857D01*
X4219143Y2055825D01*
X4224680Y2050288D01*
X4226915Y2046986D01*
X4227677Y2043074D01*
X4227677Y1981707D01*
X4228490Y1973681D01*
X4230674Y1966468D01*
X4234230Y1959762D01*
X4239006Y1953920D01*
X4244848Y1949145D01*
X4251553Y1945589D01*
X4258614Y1943404D01*
X4262374Y1941322D01*
X4264914Y1937918D01*
X4265828Y1933702D01*
X4265828Y1912924D01*
X4266539Y1906574D01*
X4268470Y1901139D01*
X4271518Y1896211D01*
X4275632Y1892147D01*
X4280509Y1889048D01*
X4285996Y1887169D01*
G37*
G36*
X3713683Y2208784D02*
G01*
X3774236Y2208784D01*
X3774236Y2322118D01*
X3687216Y2322118D01*
X3687216Y2235250D01*
X3687927Y2228951D01*
X3689807Y2223465D01*
X3692906Y2218588D01*
X3696970Y2214473D01*
X3701897Y2211425D01*
X3707333Y2209495D01*
G37*
G36*
X3921963Y2208784D02*
G01*
X3982516Y2208784D01*
X3988866Y2209495D01*
X3994302Y2211425D01*
X3999229Y2214473D01*
X4003294Y2218588D01*
X4006392Y2223465D01*
X4008272Y2228951D01*
X4008983Y2235250D01*
X4008983Y2322118D01*
X3921963Y2322118D01*
G37*
G36*
X4284776Y2395778D02*
G01*
X4313123Y2395778D01*
X4313123Y2449118D01*
X4258310Y2449118D01*
X4258310Y2422245D01*
X4259021Y2415946D01*
X4260900Y2410510D01*
X4263999Y2405583D01*
X4268063Y2401519D01*
X4272991Y2398420D01*
X4278426Y2396490D01*
G37*
G36*
X3687216Y2522270D02*
G01*
X3774236Y2522270D01*
X3774236Y2635605D01*
X3713683Y2635605D01*
X3707333Y2634894D01*
X3701897Y2632964D01*
X3696970Y2629916D01*
X3692906Y2625801D01*
X3689807Y2620924D01*
X3687927Y2615438D01*
X3687216Y2609138D01*
G37*
G36*
X4258310Y2529281D02*
G01*
X4313123Y2529281D01*
X4313123Y2582621D01*
X4284776Y2582621D01*
X4278426Y2581910D01*
X4272991Y2579979D01*
X4268063Y2576880D01*
X4263999Y2572816D01*
X4260900Y2567889D01*
X4259021Y2562453D01*
X4258310Y2556154D01*
G37*
G36*
X4180281Y2645410D02*
G01*
X4207154Y2645410D01*
X4213453Y2646121D01*
X4218889Y2648000D01*
X4223816Y2651099D01*
X4227880Y2655163D01*
X4230979Y2660091D01*
X4232910Y2665526D01*
X4233621Y2671876D01*
X4233621Y2700223D01*
X4180281Y2700223D01*
G37*
G36*
X3784904Y2752750D02*
G01*
X3784904Y2799486D01*
X3738118Y2799486D01*
X3740302Y2794863D01*
X3747515Y2783484D01*
X3756253Y2773222D01*
X3766210Y2764180D01*
X3777335Y2756560D01*
G37*
G36*
X3872534Y2752750D02*
G01*
X3880053Y2756560D01*
X3891178Y2764180D01*
X3901186Y2773222D01*
X3909872Y2783484D01*
X3917086Y2794863D01*
X3919270Y2799486D01*
X3872534Y2799486D01*
G37*

%LPD*%
G36*
X7383221Y631291D02*
G01*
X7323328Y631342D01*
X7319467Y632155D01*
X7316165Y634339D01*
X7313980Y637641D01*
X7313218Y641502D01*
X7313218Y706323D01*
X7259878Y706323D01*
X7259878Y677976D01*
X7260590Y671626D01*
X7262520Y666191D01*
X7265619Y661263D01*
X7269683Y657199D01*
X7274610Y654100D01*
X7280046Y652221D01*
X7284923Y651662D01*
X7289038Y650240D01*
X7292187Y647242D01*
X7293813Y643178D01*
X7293559Y638810D01*
X7291476Y634949D01*
X7288022Y632358D01*
X7283754Y631393D01*
X7232497Y631444D01*
X7228636Y632206D01*
X7225385Y634339D01*
X7223201Y637590D01*
X7222337Y641400D01*
X7222998Y645261D01*
X7228179Y653491D01*
X7230109Y658926D01*
X7230821Y665276D01*
X7230821Y693623D01*
X7177481Y693623D01*
X7177481Y641705D01*
X7176719Y637794D01*
X7174534Y634492D01*
X7171232Y632307D01*
X7167321Y631545D01*
X7107428Y631596D01*
X7103567Y632358D01*
X7100265Y634593D01*
X7098080Y637895D01*
X7097318Y641756D01*
X7097318Y693623D01*
X7043978Y693623D01*
X7043978Y665276D01*
X7044690Y658926D01*
X7046569Y653542D01*
X7050633Y647344D01*
X7052157Y643280D01*
X7051852Y638962D01*
X7049770Y635203D01*
X7046315Y632561D01*
X7042048Y631647D01*
X3963924Y635050D01*
X3960012Y635863D01*
X3956761Y638048D01*
X3954526Y641350D01*
X3953764Y645210D01*
X3953764Y746201D01*
X3953052Y752500D01*
X3951122Y757986D01*
X3948074Y762863D01*
X3943959Y766978D01*
X3939082Y770026D01*
X3933596Y771956D01*
X3927297Y772668D01*
X3893870Y772668D01*
X3889451Y773684D01*
X3885946Y776478D01*
X3883964Y780491D01*
X3883914Y785012D01*
X3885844Y789076D01*
X3888181Y792073D01*
X3896055Y805078D01*
X3902303Y818946D01*
X3906824Y833475D01*
X3909568Y848410D01*
X3910482Y863600D01*
X3909568Y878789D01*
X3907942Y887526D01*
X3907891Y890828D01*
X3908856Y893927D01*
X3910787Y896569D01*
X3974033Y959815D01*
X3977335Y961999D01*
X3981196Y962812D01*
X4546600Y962812D01*
X4550460Y961999D01*
X4553762Y959815D01*
X4555896Y957681D01*
X4560773Y954633D01*
X4566259Y952703D01*
X4572558Y951992D01*
X4774641Y951992D01*
X4780940Y952703D01*
X4786426Y954633D01*
X4791303Y957681D01*
X4795418Y961796D01*
X4798466Y966673D01*
X4800396Y972159D01*
X4801108Y978458D01*
X4801108Y1078941D01*
X4800396Y1085240D01*
X4798466Y1090726D01*
X4795418Y1095603D01*
X4791303Y1099718D01*
X4786426Y1102766D01*
X4780940Y1104696D01*
X4774641Y1105408D01*
X4572558Y1105408D01*
X4566259Y1104696D01*
X4560773Y1102766D01*
X4555896Y1099718D01*
X4553762Y1097584D01*
X4550460Y1095400D01*
X4546600Y1094587D01*
X3950106Y1094587D01*
X3939387Y1093774D01*
X3929329Y1091336D01*
X3919778Y1087374D01*
X3910990Y1081989D01*
X3902811Y1075029D01*
X3817569Y989787D01*
X3814927Y987856D01*
X3811828Y986891D01*
X3808526Y986942D01*
X3799789Y988568D01*
X3784600Y989482D01*
X3769410Y988568D01*
X3754475Y985824D01*
X3739946Y981303D01*
X3726078Y975055D01*
X3713073Y967181D01*
X3701135Y957834D01*
X3690365Y947064D01*
X3681018Y935126D01*
X3673144Y922121D01*
X3666896Y908253D01*
X3662375Y893724D01*
X3659632Y878789D01*
X3658717Y863600D01*
X3659632Y848410D01*
X3662375Y833475D01*
X3666896Y818946D01*
X3673144Y805078D01*
X3681018Y792073D01*
X3683355Y789076D01*
X3685286Y785012D01*
X3685235Y780491D01*
X3683254Y776478D01*
X3679748Y773684D01*
X3675329Y772668D01*
X3647998Y772668D01*
X3641699Y771956D01*
X3636213Y770026D01*
X3631336Y766978D01*
X3627221Y762863D01*
X3624173Y757986D01*
X3622243Y752500D01*
X3621532Y746201D01*
X3621532Y645617D01*
X3620770Y641705D01*
X3618534Y638454D01*
X3615232Y636219D01*
X3611372Y635457D01*
X3604768Y635457D01*
X3600856Y636270D01*
X3597554Y638454D01*
X3595370Y641756D01*
X3594608Y645617D01*
X3594608Y1681073D01*
X3595370Y1684985D01*
X3597605Y1688287D01*
X3600856Y1690471D01*
X3604768Y1691233D01*
X3608679Y1690471D01*
X3611930Y1688287D01*
X3659936Y1640332D01*
X3666134Y1635201D01*
X3672890Y1631594D01*
X3680002Y1629410D01*
X3683711Y1627327D01*
X3686301Y1623923D01*
X3687216Y1619707D01*
X3687216Y1480261D01*
X3687927Y1473962D01*
X3689807Y1468475D01*
X3692906Y1463598D01*
X3696970Y1459484D01*
X3701897Y1456436D01*
X3707333Y1454505D01*
X3713683Y1453794D01*
X3970020Y1453794D01*
X3973880Y1453032D01*
X3977182Y1450797D01*
X3979367Y1447546D01*
X3980129Y1443634D01*
X3980129Y1316990D01*
X3979418Y1313230D01*
X3977386Y1310030D01*
X3974287Y1307795D01*
X3970731Y1306118D01*
X3962704Y1300480D01*
X3955745Y1293520D01*
X3950106Y1285494D01*
X3945940Y1276604D01*
X3943400Y1267104D01*
X3942537Y1257300D01*
X3943400Y1247495D01*
X3945940Y1237996D01*
X3950106Y1229106D01*
X3955745Y1221079D01*
X3962704Y1214120D01*
X3970731Y1208481D01*
X3979621Y1204315D01*
X3989120Y1201775D01*
X3998925Y1200912D01*
X4008729Y1201775D01*
X4018229Y1204315D01*
X4027119Y1208481D01*
X4035145Y1214120D01*
X4042105Y1221079D01*
X4047744Y1229106D01*
X4051909Y1237996D01*
X4054449Y1247495D01*
X4055313Y1257300D01*
X4054906Y1261618D01*
X4055313Y1265428D01*
X4056583Y1269593D01*
X4057345Y1277620D01*
X4057345Y1599336D01*
X4058158Y1603248D01*
X4060342Y1606550D01*
X4063644Y1608734D01*
X4067556Y1609496D01*
X4420006Y1609496D01*
X4428032Y1610309D01*
X4435246Y1612493D01*
X4441952Y1616049D01*
X4448149Y1621180D01*
X4470044Y1643024D01*
X4472482Y1644853D01*
X4475327Y1645818D01*
X4478324Y1645970D01*
X4485589Y1645157D01*
X4597704Y1645157D01*
X4604004Y1645869D01*
X4609490Y1647748D01*
X4614367Y1650847D01*
X4618482Y1654911D01*
X4621530Y1659839D01*
X4623460Y1665274D01*
X4624171Y1671624D01*
X4624171Y1774037D01*
X4625035Y1778101D01*
X4627422Y1781505D01*
X4630978Y1783638D01*
X4635093Y1784146D01*
X4639056Y1783029D01*
X4642256Y1780336D01*
X4644136Y1776628D01*
X4646930Y1766163D01*
X4651095Y1757273D01*
X4656683Y1749247D01*
X4663643Y1742287D01*
X4671720Y1736648D01*
X4680610Y1732483D01*
X4690110Y1729943D01*
X4699914Y1729079D01*
X4709668Y1729943D01*
X4719167Y1732483D01*
X4728057Y1736648D01*
X4736134Y1742287D01*
X4743094Y1749247D01*
X4748682Y1757273D01*
X4752848Y1766163D01*
X4755388Y1775663D01*
X4756251Y1785467D01*
X4755388Y1795272D01*
X4752848Y1804771D01*
X4748682Y1813661D01*
X4743094Y1821688D01*
X4736134Y1828647D01*
X4728057Y1834286D01*
X4719167Y1838452D01*
X4709668Y1840992D01*
X4701641Y1841703D01*
X4698238Y1842617D01*
X4695342Y1844598D01*
X4664913Y1875078D01*
X4662678Y1878380D01*
X4661916Y1882241D01*
X4661916Y2084120D01*
X4661103Y2092147D01*
X4658918Y2099360D01*
X4655362Y2106015D01*
X4650232Y2112264D01*
X4621682Y2140813D01*
X4619650Y2143810D01*
X4618736Y2147316D01*
X4619142Y2150922D01*
X4620818Y2154123D01*
X4623460Y2156612D01*
X4627067Y2158847D01*
X4631182Y2162911D01*
X4634230Y2167839D01*
X4636160Y2173274D01*
X4636871Y2179624D01*
X4636871Y2316175D01*
X4636160Y2322525D01*
X4633874Y2329027D01*
X4633315Y2333193D01*
X4635042Y2338222D01*
X4637582Y2341270D01*
X4641037Y2343150D01*
X4649216Y2345639D01*
X4655921Y2349195D01*
X4662119Y2354326D01*
X4751324Y2443530D01*
X4756505Y2449779D01*
X4758334Y2453081D01*
X4761230Y2456434D01*
X4765344Y2458212D01*
X4769764Y2458059D01*
X4773726Y2456027D01*
X4776419Y2452522D01*
X4777384Y2448204D01*
X4777384Y2353767D01*
X4778095Y2347468D01*
X4780483Y2340762D01*
X4781092Y2337308D01*
X4780483Y2333904D01*
X4777994Y2327046D01*
X4777282Y2320747D01*
X4777282Y2226919D01*
X4777994Y2220671D01*
X4780483Y2213762D01*
X4781092Y2210257D01*
X4780483Y2206802D01*
X4777994Y2199894D01*
X4777282Y2193645D01*
X4777282Y2099767D01*
X4777994Y2093518D01*
X4780534Y2086559D01*
X4781143Y2083104D01*
X4780534Y2079599D01*
X4778095Y2072792D01*
X4777384Y2066543D01*
X4777384Y1972665D01*
X4778095Y1966366D01*
X4780483Y1959711D01*
X4781042Y1956257D01*
X4780432Y1952853D01*
X4777994Y1945995D01*
X4777282Y1939747D01*
X4777282Y1845868D01*
X4777994Y1839620D01*
X4780432Y1832813D01*
X4781042Y1829358D01*
X4780432Y1825904D01*
X4777994Y1819097D01*
X4777282Y1812798D01*
X4777282Y1718970D01*
X4777994Y1712671D01*
X4780483Y1705864D01*
X4781092Y1702358D01*
X4780483Y1698904D01*
X4777994Y1692097D01*
X4777282Y1685798D01*
X4777282Y1591970D01*
X4777994Y1585671D01*
X4780483Y1578813D01*
X4781092Y1575358D01*
X4780483Y1571853D01*
X4777994Y1564995D01*
X4777282Y1558747D01*
X4777282Y1464868D01*
X4777994Y1458620D01*
X4780432Y1451864D01*
X4780991Y1448409D01*
X4780432Y1444955D01*
X4777994Y1438198D01*
X4777282Y1431950D01*
X4777282Y1415135D01*
X4835601Y1415135D01*
X4835601Y1428242D01*
X4836363Y1432102D01*
X4838547Y1435404D01*
X4841849Y1437640D01*
X4845761Y1438402D01*
X4915611Y1438402D01*
X4919472Y1437640D01*
X4922774Y1435404D01*
X4924958Y1432102D01*
X4925771Y1428242D01*
X4925771Y1415135D01*
X4984038Y1415135D01*
X4984038Y1431950D01*
X4983327Y1438198D01*
X4980889Y1444955D01*
X4980330Y1448409D01*
X4980889Y1451864D01*
X4983327Y1458620D01*
X4984038Y1464868D01*
X4984038Y1558747D01*
X4983327Y1564995D01*
X4980838Y1571853D01*
X4980228Y1575358D01*
X4980838Y1578813D01*
X4983327Y1585671D01*
X4984038Y1591970D01*
X4984038Y1612798D01*
X4984800Y1616608D01*
X4986934Y1619859D01*
X4990134Y1622094D01*
X4993944Y1622958D01*
X4997805Y1622298D01*
X5001107Y1620215D01*
X5003393Y1617065D01*
X5005070Y1613560D01*
X5010658Y1605534D01*
X5017617Y1598574D01*
X5025694Y1592935D01*
X5034584Y1588770D01*
X5044084Y1586230D01*
X5053888Y1585366D01*
X5063642Y1586230D01*
X5073142Y1588770D01*
X5082032Y1592935D01*
X5090109Y1598574D01*
X5097068Y1605534D01*
X5102656Y1613560D01*
X5106822Y1622450D01*
X5109362Y1631950D01*
X5110226Y1641754D01*
X5109362Y1651558D01*
X5106822Y1661058D01*
X5102656Y1669948D01*
X5097068Y1677974D01*
X5095443Y1679600D01*
X5093258Y1682902D01*
X5092496Y1686763D01*
X5092496Y1692503D01*
X5093258Y1696415D01*
X5095443Y1699717D01*
X5098745Y1701901D01*
X5102656Y1702663D01*
X5106517Y1701901D01*
X5109819Y1699717D01*
X5116169Y1693316D01*
X5124246Y1687728D01*
X5133136Y1683562D01*
X5142636Y1681022D01*
X5152440Y1680159D01*
X5162194Y1681022D01*
X5171694Y1683562D01*
X5180584Y1687728D01*
X5188661Y1693316D01*
X5195620Y1700275D01*
X5201208Y1708353D01*
X5205374Y1717243D01*
X5207914Y1726742D01*
X5208778Y1736496D01*
X5207914Y1746300D01*
X5205374Y1755800D01*
X5201208Y1764690D01*
X5195620Y1772767D01*
X5193995Y1774342D01*
X5191810Y1777644D01*
X5191048Y1781556D01*
X5191048Y2358339D01*
X5190236Y2366365D01*
X5188051Y2373579D01*
X5184495Y2380284D01*
X5179364Y2386482D01*
X5011318Y2554528D01*
X5005070Y2559659D01*
X4998415Y2563215D01*
X4991303Y2565400D01*
X4987848Y2567228D01*
X4985308Y2570226D01*
X4984140Y2573985D01*
X4983378Y2580792D01*
X4980940Y2587599D01*
X4980330Y2591054D01*
X4980940Y2594508D01*
X4983480Y2601366D01*
X4984191Y2607665D01*
X4984191Y2701493D01*
X4983480Y2707792D01*
X4980940Y2714650D01*
X4980330Y2718104D01*
X4980940Y2721559D01*
X4983429Y2728417D01*
X4984140Y2734665D01*
X4984140Y2828544D01*
X4983429Y2834843D01*
X4980584Y2843834D01*
X4980432Y2846476D01*
X4980940Y2849067D01*
X4983226Y2855620D01*
X4983988Y2861919D01*
X4983988Y2955798D01*
X4983276Y2962046D01*
X4980838Y2968853D01*
X4980228Y2972816D01*
X4981244Y2976727D01*
X4983734Y2979978D01*
X4987239Y2981960D01*
X4991252Y2982417D01*
X4998974Y2981706D01*
X5008727Y2982569D01*
X5018227Y2985109D01*
X5027117Y2989275D01*
X5035194Y2994914D01*
X5042154Y3001873D01*
X5047742Y3009900D01*
X5051907Y3018790D01*
X5054447Y3028289D01*
X5055311Y3038094D01*
X5054447Y3047898D01*
X5051907Y3057398D01*
X5047742Y3066288D01*
X5042154Y3074314D01*
X5035194Y3081274D01*
X5027117Y3086912D01*
X5018227Y3091078D01*
X5008727Y3093618D01*
X4998974Y3094482D01*
X4988712Y3093567D01*
X4985004Y3093923D01*
X4981702Y3095548D01*
X4978400Y3099562D01*
X4974285Y3103676D01*
X4969408Y3106724D01*
X4963922Y3108655D01*
X4957622Y3109366D01*
X4863490Y3109366D01*
X4859629Y3110128D01*
X4856327Y3112363D01*
X4854092Y3115665D01*
X4853330Y3119526D01*
X4854092Y3123438D01*
X4856327Y3126689D01*
X5182666Y3453079D01*
X5185968Y3455263D01*
X5189880Y3456025D01*
X5318658Y3456025D01*
X5322773Y3455212D01*
X5326176Y3452774D01*
X5328310Y3449167D01*
X5328767Y3445001D01*
X5327954Y3435654D01*
X5328818Y3425901D01*
X5331358Y3416401D01*
X5335524Y3407511D01*
X5341162Y3399434D01*
X5342737Y3397859D01*
X5344972Y3394557D01*
X5345734Y3390646D01*
X5345734Y3346805D01*
X5345074Y3343198D01*
X5343144Y3340049D01*
X5340248Y3337763D01*
X5336692Y3336696D01*
X5331104Y3336086D01*
X5325008Y3333953D01*
X5320639Y3333445D01*
X5310987Y3336696D01*
X5304688Y3337407D01*
X5210810Y3337407D01*
X5204510Y3336696D01*
X5199024Y3334816D01*
X5194147Y3331718D01*
X5190032Y3327654D01*
X5186984Y3322726D01*
X5185054Y3317290D01*
X5184343Y3310940D01*
X5184343Y3157169D01*
X5185054Y3150819D01*
X5186984Y3145383D01*
X5190032Y3140456D01*
X5194147Y3136392D01*
X5199024Y3133293D01*
X5204510Y3131413D01*
X5210810Y3130651D01*
X5304688Y3130651D01*
X5310987Y3131413D01*
X5317083Y3133496D01*
X5321452Y3134055D01*
X5331104Y3130753D01*
X5337403Y3130042D01*
X5431282Y3130042D01*
X5437581Y3130753D01*
X5443067Y3132683D01*
X5446979Y3134614D01*
X5449976Y3134918D01*
X5452973Y3134360D01*
X5458561Y3132429D01*
X5464911Y3131667D01*
X5558739Y3131667D01*
X5565089Y3132429D01*
X5571337Y3134614D01*
X5575706Y3135122D01*
X5585358Y3131820D01*
X5591657Y3131108D01*
X5685536Y3131108D01*
X5691835Y3131820D01*
X5697321Y3133750D01*
X5701233Y3135680D01*
X5704230Y3135985D01*
X5707227Y3135426D01*
X5712561Y3133598D01*
X5718860Y3132836D01*
X5812739Y3132836D01*
X5818987Y3133547D01*
X5825845Y3136087D01*
X5829300Y3136696D01*
X5832754Y3136087D01*
X5839561Y3133648D01*
X5845810Y3132937D01*
X5939688Y3132937D01*
X5945936Y3133648D01*
X5952794Y3136138D01*
X5956249Y3136747D01*
X5959703Y3136138D01*
X5966510Y3133648D01*
X5972810Y3132937D01*
X6066637Y3132937D01*
X6072936Y3133648D01*
X6079642Y3136087D01*
X6083096Y3136646D01*
X6086551Y3136036D01*
X6093460Y3133496D01*
X6099708Y3132785D01*
X6193586Y3132785D01*
X6199835Y3133496D01*
X6206794Y3136087D01*
X6210300Y3136696D01*
X6213754Y3136087D01*
X6220714Y3133496D01*
X6226962Y3132785D01*
X6320840Y3132785D01*
X6327140Y3133547D01*
X6336690Y3137154D01*
X6340449Y3137154D01*
X6349441Y3133852D01*
X6355791Y3133140D01*
X6372606Y3133140D01*
X6372606Y3191408D01*
X6357467Y3191408D01*
X6353606Y3192221D01*
X6350304Y3194405D01*
X6348069Y3197707D01*
X6347307Y3201568D01*
X6347307Y3271418D01*
X6348069Y3275329D01*
X6350304Y3278632D01*
X6353606Y3280816D01*
X6357467Y3281578D01*
X6372606Y3281578D01*
X6372606Y3339896D01*
X6355791Y3339896D01*
X6349441Y3339185D01*
X6339941Y3335528D01*
X6336131Y3335528D01*
X6327140Y3338829D01*
X6320840Y3339541D01*
X6226962Y3339541D01*
X6220714Y3338880D01*
X6213754Y3336290D01*
X6210300Y3335680D01*
X6206794Y3336290D01*
X6199835Y3338880D01*
X6193586Y3339541D01*
X6099708Y3339541D01*
X6093409Y3338880D01*
X6086703Y3336442D01*
X6083249Y3335883D01*
X6079845Y3336493D01*
X6072886Y3339033D01*
X6066637Y3339693D01*
X5972810Y3339693D01*
X5966510Y3339033D01*
X5959652Y3336544D01*
X5956198Y3335934D01*
X5952744Y3336544D01*
X5945936Y3338982D01*
X5939688Y3339693D01*
X5883300Y3339693D01*
X5878880Y3340709D01*
X5875375Y3343503D01*
X5873394Y3347567D01*
X5873394Y3352088D01*
X5875324Y3356152D01*
X5878830Y3358997D01*
X5902655Y3370681D01*
X5927598Y3385058D01*
X5951474Y3401110D01*
X5974232Y3418687D01*
X5995720Y3437788D01*
X6015888Y3458311D01*
X6034633Y3480155D01*
X6051854Y3503218D01*
X6067501Y3527348D01*
X6081471Y3552494D01*
X6093663Y3578555D01*
X6104128Y3605326D01*
X6112764Y3632809D01*
X6119469Y3660749D01*
X6124295Y3689146D01*
X6127242Y3717747D01*
X6128207Y3746500D01*
X6127242Y3775252D01*
X6124295Y3803853D01*
X6119469Y3832250D01*
X6112764Y3860190D01*
X6104128Y3887673D01*
X6093663Y3914444D01*
X6081471Y3940505D01*
X6067501Y3965651D01*
X6051854Y3989781D01*
X6034633Y4012844D01*
X6015888Y4034688D01*
X5995720Y4055211D01*
X5974232Y4074312D01*
X5951474Y4091889D01*
X5927598Y4107942D01*
X5902655Y4122318D01*
X5876848Y4134967D01*
X5850229Y4145889D01*
X5822899Y4154982D01*
X5795060Y4162196D01*
X5766816Y4167479D01*
X5738215Y4170883D01*
X5709513Y4172356D01*
X5680710Y4171848D01*
X5652058Y4169410D01*
X5623610Y4165092D01*
X5595569Y4158792D01*
X5567934Y4150664D01*
X5540959Y4140657D01*
X5514746Y4128871D01*
X5489346Y4115358D01*
X5464911Y4100118D01*
X5441594Y4083304D01*
X5419445Y4064914D01*
X5398617Y4045102D01*
X5379161Y4023918D01*
X5361178Y4001465D01*
X5344718Y3977843D01*
X5329936Y3953205D01*
X5316829Y3927601D01*
X5305450Y3901135D01*
X5295950Y3874008D01*
X5288229Y3846271D01*
X5282438Y3818077D01*
X5278577Y3789578D01*
X5276646Y3760876D01*
X5276646Y3732123D01*
X5278577Y3703421D01*
X5282438Y3674922D01*
X5288229Y3646728D01*
X5295950Y3618992D01*
X5305450Y3591864D01*
X5316829Y3565398D01*
X5325719Y3548075D01*
X5326786Y3544062D01*
X5326227Y3539998D01*
X5324043Y3536492D01*
X5320690Y3534105D01*
X5316626Y3533241D01*
X5234736Y3533241D01*
X5230622Y3534105D01*
X5227218Y3536543D01*
X5225135Y3540150D01*
X5224627Y3544315D01*
X5224932Y3548024D01*
X5224068Y3557828D01*
X5221528Y3567328D01*
X5217363Y3576218D01*
X5211775Y3584295D01*
X5210149Y3585870D01*
X5207965Y3589172D01*
X5207203Y3593084D01*
X5207203Y3861562D01*
X5206390Y3869588D01*
X5204206Y3876801D01*
X5200650Y3883456D01*
X5195519Y3889705D01*
X5146649Y3938524D01*
X5140452Y3943654D01*
X5133746Y3947210D01*
X5126685Y3949395D01*
X5122926Y3951478D01*
X5120386Y3954881D01*
X5119471Y3959098D01*
X5119471Y3979875D01*
X5118760Y3986225D01*
X5116830Y3991660D01*
X5113782Y3996588D01*
X5109667Y4000652D01*
X5104790Y4003751D01*
X5099304Y4005630D01*
X5093004Y4006342D01*
X4980889Y4006342D01*
X4974539Y4005630D01*
X4969103Y4003751D01*
X4964176Y4000652D01*
X4960112Y3996588D01*
X4957013Y3991660D01*
X4955082Y3986225D01*
X4954371Y3979875D01*
X4954371Y3843324D01*
X4955082Y3836974D01*
X4957013Y3831539D01*
X4960112Y3826611D01*
X4964176Y3822547D01*
X4969103Y3819448D01*
X4974539Y3817569D01*
X4980889Y3816858D01*
X5093004Y3816858D01*
X5099304Y3817569D01*
X5104790Y3819448D01*
X5109667Y3822547D01*
X5112613Y3825494D01*
X5115915Y3827678D01*
X5119827Y3828491D01*
X5123688Y3827678D01*
X5126990Y3825494D01*
X5129174Y3822192D01*
X5129987Y3818331D01*
X5129987Y3773170D01*
X5129072Y3769055D01*
X5126583Y3765600D01*
X5122875Y3763518D01*
X5118658Y3763111D01*
X5113223Y3763721D01*
X5084876Y3763721D01*
X5084876Y3710381D01*
X5119827Y3710381D01*
X5123688Y3709619D01*
X5126990Y3707434D01*
X5129174Y3704132D01*
X5129987Y3700221D01*
X5129987Y3640378D01*
X5129174Y3636467D01*
X5126990Y3633165D01*
X5123688Y3630980D01*
X5119827Y3630218D01*
X5084876Y3630218D01*
X5084876Y3576878D01*
X5104942Y3576878D01*
X5108549Y3576218D01*
X5111699Y3574287D01*
X5113985Y3571341D01*
X5115001Y3567785D01*
X5114747Y3564077D01*
X5113070Y3557828D01*
X5112207Y3548024D01*
X5113070Y3538270D01*
X5115610Y3528771D01*
X5119776Y3519881D01*
X5123332Y3514801D01*
X5124805Y3511600D01*
X5125110Y3508044D01*
X5124196Y3504641D01*
X5122164Y3501745D01*
X4629556Y3009138D01*
X4626254Y3006953D01*
X4622342Y3006140D01*
X4618482Y3006953D01*
X4615180Y3009138D01*
X4612995Y3012440D01*
X4612182Y3016300D01*
X4612182Y3024530D01*
X4611471Y3030829D01*
X4609592Y3036316D01*
X4606493Y3041192D01*
X4602429Y3045307D01*
X4597501Y3048406D01*
X4592066Y3050286D01*
X4585716Y3050997D01*
X4545939Y3050997D01*
X4542028Y3051759D01*
X4538726Y3053994D01*
X4536541Y3057296D01*
X4535779Y3061157D01*
X4536541Y3065068D01*
X4538726Y3068370D01*
X4864252Y3393846D01*
X4869383Y3400094D01*
X4872939Y3406749D01*
X4875123Y3413963D01*
X4875936Y3421989D01*
X4875936Y3566718D01*
X4876698Y3570630D01*
X4878882Y3573932D01*
X4882184Y3576116D01*
X4886096Y3576878D01*
X4907229Y3576878D01*
X4913528Y3577590D01*
X4919014Y3579520D01*
X4923891Y3582619D01*
X4928006Y3586683D01*
X4931714Y3592576D01*
X4934508Y3595522D01*
X4938268Y3597097D01*
X4942332Y3597097D01*
X4946091Y3595522D01*
X4948885Y3592576D01*
X4952593Y3586683D01*
X4956708Y3582619D01*
X4961585Y3579520D01*
X4967071Y3577590D01*
X4973370Y3576878D01*
X5001717Y3576878D01*
X5001717Y3630218D01*
X4943856Y3630218D01*
X4939995Y3630980D01*
X4936693Y3633165D01*
X4934458Y3636467D01*
X4933696Y3640378D01*
X4933696Y3700221D01*
X4934458Y3704132D01*
X4936693Y3707434D01*
X4939995Y3709619D01*
X4943856Y3710381D01*
X5001717Y3710381D01*
X5001717Y3763721D01*
X4973370Y3763721D01*
X4967071Y3763010D01*
X4961585Y3761079D01*
X4956708Y3757980D01*
X4952593Y3753916D01*
X4948885Y3748024D01*
X4946091Y3745077D01*
X4942332Y3743502D01*
X4938268Y3743502D01*
X4934508Y3745077D01*
X4931714Y3748024D01*
X4928006Y3753916D01*
X4923891Y3757980D01*
X4919014Y3761079D01*
X4913528Y3763010D01*
X4907229Y3763721D01*
X4886096Y3763721D01*
X4882184Y3764483D01*
X4878882Y3766667D01*
X4876698Y3769969D01*
X4875936Y3773881D01*
X4875936Y3793642D01*
X4876190Y3796131D01*
X4877104Y3798417D01*
X4879289Y3802532D01*
X4881473Y3809644D01*
X4883556Y3813403D01*
X4886960Y3815943D01*
X4891176Y3816858D01*
X4899710Y3816858D01*
X4906060Y3817569D01*
X4911496Y3819448D01*
X4916424Y3822547D01*
X4920488Y3826611D01*
X4923586Y3831539D01*
X4925517Y3836974D01*
X4926228Y3843324D01*
X4926228Y3979875D01*
X4925517Y3986225D01*
X4923586Y3991660D01*
X4920488Y3996588D01*
X4916424Y4000652D01*
X4911496Y4003751D01*
X4906060Y4005630D01*
X4899710Y4006342D01*
X4892446Y4006342D01*
X4888534Y4007154D01*
X4885283Y4009339D01*
X4883048Y4012641D01*
X4882286Y4016501D01*
X4882286Y4074718D01*
X4883048Y4078630D01*
X4885283Y4081932D01*
X4888534Y4084116D01*
X4892446Y4084878D01*
X4932629Y4084878D01*
X4938928Y4085590D01*
X4944414Y4087520D01*
X4949291Y4090619D01*
X4953406Y4094683D01*
X4957114Y4100576D01*
X4959908Y4103522D01*
X4963668Y4105097D01*
X4967732Y4105097D01*
X4971491Y4103522D01*
X4974285Y4100576D01*
X4977993Y4094683D01*
X4982108Y4090619D01*
X4986985Y4087520D01*
X4992471Y4085590D01*
X4998770Y4084878D01*
X5027117Y4084878D01*
X5027117Y4138218D01*
X4969256Y4138218D01*
X4965395Y4138980D01*
X4962093Y4141165D01*
X4959858Y4144467D01*
X4959096Y4148378D01*
X4959096Y4208221D01*
X4959858Y4212132D01*
X4962093Y4215434D01*
X4965395Y4217619D01*
X4969256Y4218381D01*
X5027117Y4218381D01*
X5027117Y4271721D01*
X4998770Y4271721D01*
X4992471Y4271010D01*
X4986985Y4269079D01*
X4982108Y4265980D01*
X4977993Y4261916D01*
X4974285Y4256024D01*
X4971491Y4253077D01*
X4967732Y4251502D01*
X4963668Y4251502D01*
X4959908Y4253077D01*
X4957114Y4256024D01*
X4953406Y4261916D01*
X4949291Y4265980D01*
X4944414Y4269079D01*
X4938928Y4271010D01*
X4932629Y4271721D01*
X4923942Y4271721D01*
X4919827Y4272584D01*
X4916424Y4275023D01*
X4914341Y4278680D01*
X4913833Y4282846D01*
X4914036Y4284472D01*
X4914036Y4303318D01*
X4914798Y4307230D01*
X4916982Y4310532D01*
X4920284Y4312716D01*
X4924196Y4313478D01*
X4945329Y4313478D01*
X4951628Y4314190D01*
X4957114Y4316120D01*
X4961991Y4319219D01*
X4966106Y4323283D01*
X4969814Y4329176D01*
X4972608Y4332122D01*
X4976368Y4333697D01*
X4980432Y4333697D01*
X4984191Y4332122D01*
X4986985Y4329176D01*
X4990693Y4323283D01*
X4994808Y4319219D01*
X4999685Y4316120D01*
X5005171Y4314190D01*
X5011470Y4313478D01*
X5039817Y4313478D01*
X5039817Y4366818D01*
X4981956Y4366818D01*
X4978095Y4367580D01*
X4974793Y4369765D01*
X4972558Y4373067D01*
X4971796Y4376978D01*
X4971796Y4436821D01*
X4972558Y4440732D01*
X4974793Y4444034D01*
X4978095Y4446219D01*
X4981956Y4446981D01*
X5039817Y4446981D01*
X5039817Y4451096D01*
X5040579Y4455007D01*
X5042763Y4458258D01*
X5046065Y4460494D01*
X5049977Y4461256D01*
X5112816Y4461256D01*
X5116728Y4460494D01*
X5120030Y4458258D01*
X5122214Y4455007D01*
X5122976Y4451096D01*
X5122976Y4446981D01*
X5177790Y4446981D01*
X5177790Y4451096D01*
X5178602Y4455007D01*
X5180787Y4458258D01*
X5184089Y4460494D01*
X5187950Y4461256D01*
X6217818Y4461256D01*
X6221679Y4460494D01*
X6224981Y4458258D01*
X6227165Y4455007D01*
X6227978Y4451096D01*
X6227978Y4400854D01*
X6228689Y4394555D01*
X6230569Y4389069D01*
X6233668Y4384192D01*
X6237732Y4380077D01*
X6241745Y4377588D01*
X6244742Y4374642D01*
X6246317Y4370730D01*
X6246164Y4366514D01*
X6244336Y4362754D01*
X6241135Y4360011D01*
X6235141Y4356862D01*
X6228943Y4351731D01*
X6193739Y4316526D01*
X6188608Y4310329D01*
X6185052Y4303623D01*
X6182868Y4296410D01*
X6182106Y4288383D01*
X6182106Y4128922D01*
X6182868Y4120896D01*
X6185052Y4113682D01*
X6188608Y4106976D01*
X6193739Y4100779D01*
X6253378Y4041140D01*
X6259626Y4036009D01*
X6266281Y4032453D01*
X6270396Y4031183D01*
X6274155Y4029100D01*
X6276695Y4025646D01*
X6277610Y4021480D01*
X6277610Y3908145D01*
X6278321Y3901846D01*
X6280200Y3896410D01*
X6283299Y3891483D01*
X6287363Y3887419D01*
X6292291Y3884320D01*
X6297726Y3882390D01*
X6304076Y3881678D01*
X6443929Y3881678D01*
X6450228Y3882390D01*
X6455714Y3884320D01*
X6460591Y3887419D01*
X6464706Y3891483D01*
X6468414Y3897376D01*
X6471208Y3900322D01*
X6474968Y3901897D01*
X6479032Y3901897D01*
X6482791Y3900322D01*
X6485585Y3897376D01*
X6489293Y3891483D01*
X6493408Y3887419D01*
X6498285Y3884320D01*
X6503771Y3882390D01*
X6510070Y3881678D01*
X6538417Y3881678D01*
X6538417Y3935018D01*
X6480556Y3935018D01*
X6476695Y3935780D01*
X6473393Y3937965D01*
X6471158Y3941267D01*
X6470396Y3945178D01*
X6470396Y4005021D01*
X6471158Y4008932D01*
X6473393Y4012234D01*
X6476695Y4014419D01*
X6480556Y4015181D01*
X6538417Y4015181D01*
X6538417Y4068521D01*
X6510070Y4068521D01*
X6503771Y4067810D01*
X6498285Y4065879D01*
X6493408Y4062780D01*
X6489293Y4058716D01*
X6485585Y4052824D01*
X6482791Y4049877D01*
X6479032Y4048302D01*
X6474968Y4048302D01*
X6471208Y4049877D01*
X6468414Y4052824D01*
X6464706Y4058716D01*
X6460591Y4062780D01*
X6455714Y4065879D01*
X6450228Y4067810D01*
X6443929Y4068521D01*
X6421526Y4068521D01*
X6417310Y4069435D01*
X6413855Y4071975D01*
X6411772Y4075734D01*
X6409639Y4082796D01*
X6406083Y4089501D01*
X6401257Y4095343D01*
X6398564Y4097528D01*
X6396075Y4100576D01*
X6394907Y4104335D01*
X6395313Y4108246D01*
X6397142Y4111751D01*
X6400139Y4114292D01*
X6403898Y4115460D01*
X6408724Y4116019D01*
X6414160Y4117949D01*
X6417005Y4119676D01*
X6420510Y4121099D01*
X6424269Y4121099D01*
X6427774Y4119676D01*
X6430619Y4117949D01*
X6436055Y4116019D01*
X6442405Y4115308D01*
X6496354Y4115308D01*
X6502704Y4116019D01*
X6508140Y4117949D01*
X6513068Y4120997D01*
X6517131Y4125112D01*
X6520230Y4129989D01*
X6522110Y4135475D01*
X6522872Y4141774D01*
X6522872Y4182618D01*
X6523634Y4186529D01*
X6525818Y4189831D01*
X6529120Y4192015D01*
X6533032Y4192778D01*
X6536893Y4192015D01*
X6540195Y4189831D01*
X6644182Y4085844D01*
X6646367Y4082542D01*
X6647129Y4078681D01*
X6646367Y4074769D01*
X6644182Y4071467D01*
X6640880Y4069283D01*
X6636969Y4068521D01*
X6621576Y4068521D01*
X6621576Y4015181D01*
X6676390Y4015181D01*
X6676390Y4029100D01*
X6677202Y4032961D01*
X6679387Y4036263D01*
X6682689Y4038447D01*
X6686550Y4039260D01*
X6690461Y4038447D01*
X6693763Y4036263D01*
X6801662Y3928364D01*
X6803898Y3925062D01*
X6804659Y3921150D01*
X6804659Y3879443D01*
X6846366Y3879443D01*
X6850278Y3878630D01*
X6853580Y3876446D01*
X7060692Y3669334D01*
X7062876Y3666083D01*
X7063689Y3662324D01*
X7062978Y3658514D01*
X7060946Y3655212D01*
X7057796Y3652926D01*
X7054392Y3651300D01*
X7046315Y3645712D01*
X7039356Y3638753D01*
X7033768Y3630676D01*
X7029602Y3621786D01*
X7027062Y3612286D01*
X7026198Y3602482D01*
X7027062Y3592728D01*
X7029602Y3583228D01*
X7033768Y3574338D01*
X7039356Y3566261D01*
X7040981Y3564686D01*
X7043166Y3561384D01*
X7043978Y3557473D01*
X7043978Y2550160D01*
X7044740Y2542133D01*
X7046925Y2534920D01*
X7050481Y2528214D01*
X7055612Y2522016D01*
X7240320Y2337308D01*
X7243927Y2334310D01*
X7246569Y2331008D01*
X7247636Y2326894D01*
X7246924Y2322728D01*
X7244537Y2319172D01*
X7233970Y2308961D01*
X7225233Y2297988D01*
X7217918Y2285949D01*
X7212228Y2273096D01*
X7208266Y2259634D01*
X7205980Y2245715D01*
X7205573Y2231694D01*
X7206894Y2217674D01*
X7210044Y2204008D01*
X7214870Y2190800D01*
X7221372Y2178304D01*
X7229449Y2166823D01*
X7238898Y2156409D01*
X7249566Y2147265D01*
X7261352Y2139594D01*
X7274052Y2133498D01*
X7287361Y2129078D01*
X7301179Y2126386D01*
X7315200Y2125472D01*
X7329220Y2126386D01*
X7343038Y2129078D01*
X7356348Y2133498D01*
X7369048Y2139594D01*
X7380833Y2147265D01*
X7385202Y2151024D01*
X7388504Y2152904D01*
X7392314Y2153412D01*
X7396022Y2152497D01*
X7399172Y2150262D01*
X7401204Y2147011D01*
X7401966Y2143252D01*
X7401966Y2073351D01*
X7400950Y2068982D01*
X7398207Y2065477D01*
X7394244Y2063496D01*
X7389774Y2063394D01*
X7385710Y2065172D01*
X7375042Y2073148D01*
X7363459Y2079650D01*
X7363459Y2029460D01*
X7391806Y2029460D01*
X7395667Y2028698D01*
X7398969Y2026462D01*
X7401153Y2023211D01*
X7401966Y2019300D01*
X7401966Y1943100D01*
X7401153Y1939188D01*
X7398969Y1935937D01*
X7395667Y1933702D01*
X7391806Y1932939D01*
X7363459Y1932939D01*
X7363459Y1882902D01*
X7369048Y1885594D01*
X7380833Y1893265D01*
X7385202Y1897024D01*
X7388504Y1898904D01*
X7392314Y1899412D01*
X7396022Y1898497D01*
X7399172Y1896262D01*
X7401204Y1893011D01*
X7401966Y1889252D01*
X7401966Y1845411D01*
X7401153Y1841449D01*
X7398816Y1838096D01*
X7395413Y1835912D01*
X7391450Y1835251D01*
X7387488Y1836216D01*
X7380325Y1839569D01*
X7370825Y1842109D01*
X7361021Y1842973D01*
X7351217Y1842109D01*
X7341717Y1839569D01*
X7332827Y1835404D01*
X7324801Y1829765D01*
X7317841Y1822805D01*
X7312202Y1814779D01*
X7308037Y1805889D01*
X7305497Y1796389D01*
X7304633Y1786585D01*
X7305141Y1780844D01*
X7304582Y1776425D01*
X7302144Y1772716D01*
X7298385Y1770380D01*
X7293203Y1768551D01*
X7288275Y1765452D01*
X7284212Y1761388D01*
X7281113Y1756460D01*
X7279182Y1751025D01*
X7278471Y1744675D01*
X7278471Y1608124D01*
X7279182Y1601774D01*
X7281113Y1596339D01*
X7284212Y1591411D01*
X7288275Y1587347D01*
X7293203Y1584248D01*
X7298791Y1582318D01*
X7303922Y1580845D01*
X7306818Y1578356D01*
X7308596Y1574952D01*
X7309002Y1571142D01*
X7308037Y1560474D01*
X7308900Y1550670D01*
X7311745Y1540611D01*
X7312710Y1536293D01*
X7312710Y1486001D01*
X7311847Y1481937D01*
X7309459Y1478584D01*
X7300975Y1473352D01*
X7296912Y1469288D01*
X7293813Y1464360D01*
X7291882Y1458925D01*
X7291171Y1452575D01*
X7291171Y1316024D01*
X7291882Y1309674D01*
X7293813Y1304239D01*
X7296912Y1299311D01*
X7300975Y1295247D01*
X7305903Y1292148D01*
X7311339Y1290269D01*
X7317689Y1289558D01*
X7429804Y1289558D01*
X7436307Y1290269D01*
X7440523Y1289862D01*
X7444181Y1287780D01*
X7446670Y1284325D01*
X7447584Y1280210D01*
X7447991Y1056030D01*
X7447076Y1051864D01*
X7444536Y1048359D01*
X7440777Y1046276D01*
X7436459Y1045971D01*
X7426553Y1049578D01*
X7420254Y1050290D01*
X7416495Y1050290D01*
X7412431Y1051153D01*
X7409027Y1053592D01*
X7406894Y1057198D01*
X7406386Y1061364D01*
X7406792Y1065682D01*
X7405928Y1075486D01*
X7403388Y1084986D01*
X7399223Y1093876D01*
X7393584Y1101953D01*
X7386624Y1108913D01*
X7378598Y1114501D01*
X7369708Y1118666D01*
X7360208Y1121206D01*
X7350404Y1122070D01*
X7340600Y1121206D01*
X7331100Y1118666D01*
X7322210Y1114501D01*
X7314184Y1108913D01*
X7307224Y1101953D01*
X7301585Y1093876D01*
X7297420Y1084986D01*
X7294880Y1075486D01*
X7294016Y1065682D01*
X7294422Y1061161D01*
X7294016Y1057300D01*
X7292187Y1053846D01*
X7289190Y1051356D01*
X7285431Y1050188D01*
X7280046Y1049578D01*
X7274610Y1047699D01*
X7269683Y1044600D01*
X7265619Y1040536D01*
X7262520Y1035608D01*
X7260590Y1030173D01*
X7259878Y1023823D01*
X7259878Y883970D01*
X7260590Y877671D01*
X7262520Y872185D01*
X7265619Y867308D01*
X7269683Y863193D01*
X7275575Y859485D01*
X7278522Y856691D01*
X7280097Y852932D01*
X7280097Y848868D01*
X7278522Y845108D01*
X7275575Y842314D01*
X7269683Y838606D01*
X7265619Y834491D01*
X7262520Y829614D01*
X7260590Y824128D01*
X7259878Y817829D01*
X7259878Y789482D01*
X7313218Y789482D01*
X7313218Y847344D01*
X7313980Y851204D01*
X7316165Y854506D01*
X7319467Y856742D01*
X7323378Y857503D01*
X7383221Y857503D01*
X7387132Y856742D01*
X7390434Y854506D01*
X7392619Y851204D01*
X7393381Y847344D01*
X7393381Y789482D01*
X7438339Y789482D01*
X7442200Y788720D01*
X7445502Y786536D01*
X7447686Y783234D01*
X7448499Y779373D01*
X7448600Y716483D01*
X7447838Y712571D01*
X7445654Y709269D01*
X7442352Y707085D01*
X7438440Y706323D01*
X7393381Y706323D01*
X7393381Y641451D01*
X7392619Y637540D01*
X7390434Y634238D01*
X7387132Y632053D01*
G37*

%LPC*%
G36*
X4369358Y672592D02*
G01*
X4464050Y672592D01*
X4464050Y730250D01*
X4342892Y730250D01*
X4342892Y699058D01*
X4343603Y692759D01*
X4345533Y687273D01*
X4348581Y682396D01*
X4352696Y678281D01*
X4357573Y675233D01*
X4363059Y673303D01*
G37*
G36*
X4679950Y672592D02*
G01*
X4774641Y672592D01*
X4780940Y673303D01*
X4786426Y675233D01*
X4791303Y678281D01*
X4795418Y682396D01*
X4798466Y687273D01*
X4800396Y692759D01*
X4801108Y699058D01*
X4801108Y730250D01*
X4679950Y730250D01*
G37*
G36*
X7043978Y776782D02*
G01*
X7097318Y776782D01*
X7097318Y834644D01*
X7098080Y838504D01*
X7100265Y841806D01*
X7103567Y844042D01*
X7107478Y844803D01*
X7167321Y844803D01*
X7171232Y844042D01*
X7174534Y841806D01*
X7176719Y838504D01*
X7177481Y834644D01*
X7177481Y776782D01*
X7230821Y776782D01*
X7230821Y805129D01*
X7230109Y811428D01*
X7228179Y816914D01*
X7225080Y821791D01*
X7221016Y825906D01*
X7215124Y829614D01*
X7212177Y832408D01*
X7210602Y836168D01*
X7210602Y840232D01*
X7212177Y843991D01*
X7215124Y846785D01*
X7221016Y850493D01*
X7225080Y854608D01*
X7228179Y859485D01*
X7230109Y864971D01*
X7230821Y871270D01*
X7230821Y1011123D01*
X7230109Y1017473D01*
X7228179Y1022908D01*
X7225080Y1027836D01*
X7221016Y1031900D01*
X7216089Y1034999D01*
X7210653Y1036878D01*
X7204354Y1037590D01*
X7198969Y1037590D01*
X7194905Y1038453D01*
X7191502Y1040892D01*
X7189368Y1044498D01*
X7188860Y1048664D01*
X7189368Y1054100D01*
X7188504Y1063904D01*
X7185964Y1073404D01*
X7181799Y1082294D01*
X7176160Y1090320D01*
X7169200Y1097280D01*
X7161174Y1102918D01*
X7152284Y1107084D01*
X7139178Y1110640D01*
X7136180Y1112875D01*
X7134199Y1116076D01*
X7133539Y1119733D01*
X7133539Y1279398D01*
X7134301Y1283258D01*
X7136485Y1286560D01*
X7139787Y1288745D01*
X7143699Y1289558D01*
X7236510Y1289558D01*
X7242860Y1290269D01*
X7248296Y1292148D01*
X7253224Y1295247D01*
X7257288Y1299311D01*
X7260386Y1304239D01*
X7262317Y1309674D01*
X7263028Y1316024D01*
X7263028Y1452575D01*
X7262317Y1458925D01*
X7260386Y1464360D01*
X7257288Y1469288D01*
X7253224Y1473352D01*
X7248296Y1476451D01*
X7242860Y1478330D01*
X7236510Y1479042D01*
X7224318Y1479042D01*
X7220762Y1479702D01*
X7217613Y1481582D01*
X7215378Y1484426D01*
X7212634Y1489557D01*
X7207503Y1495755D01*
X7139025Y1564284D01*
X7136790Y1567586D01*
X7136028Y1571498D01*
X7136790Y1575358D01*
X7139025Y1578660D01*
X7142276Y1580845D01*
X7146188Y1581658D01*
X7223810Y1581658D01*
X7230160Y1582369D01*
X7235596Y1584248D01*
X7240524Y1587347D01*
X7244588Y1591411D01*
X7247686Y1596339D01*
X7249617Y1601774D01*
X7250328Y1608124D01*
X7250328Y1744675D01*
X7249617Y1751025D01*
X7247686Y1756460D01*
X7244588Y1761388D01*
X7240524Y1765452D01*
X7235596Y1768551D01*
X7230160Y1770430D01*
X7223810Y1771142D01*
X7111695Y1771142D01*
X7105396Y1770430D01*
X7099909Y1768551D01*
X7095032Y1765452D01*
X7090918Y1761388D01*
X7087870Y1756460D01*
X7085990Y1751177D01*
X7083907Y1747672D01*
X7080605Y1745284D01*
X7076643Y1744370D01*
X7072630Y1745081D01*
X7069226Y1747367D01*
X7013905Y1802688D01*
X7011670Y1805990D01*
X7010908Y1809902D01*
X7010908Y3459734D01*
X7010095Y3467760D01*
X7007910Y3474974D01*
X7004354Y3481679D01*
X6999224Y3487877D01*
X6878777Y3608324D01*
X6872579Y3613454D01*
X6865874Y3617010D01*
X6858660Y3619195D01*
X6850634Y3620008D01*
X6670548Y3620008D01*
X6666636Y3620770D01*
X6663385Y3623005D01*
X6661150Y3626256D01*
X6660388Y3630168D01*
X6660388Y3650691D01*
X6659676Y3656990D01*
X6657746Y3662476D01*
X6654698Y3667353D01*
X6650583Y3671468D01*
X6645706Y3674516D01*
X6640220Y3676446D01*
X6633921Y3677158D01*
X6504990Y3677158D01*
X6498691Y3676446D01*
X6493205Y3674516D01*
X6488328Y3671468D01*
X6484213Y3667353D01*
X6481165Y3662476D01*
X6479235Y3656990D01*
X6478524Y3650691D01*
X6478524Y3511854D01*
X6479235Y3505555D01*
X6481165Y3500069D01*
X6484213Y3495192D01*
X6488328Y3491077D01*
X6493205Y3488029D01*
X6498691Y3486099D01*
X6504990Y3485387D01*
X6633921Y3485387D01*
X6640220Y3486099D01*
X6645706Y3488029D01*
X6650583Y3491077D01*
X6654698Y3495192D01*
X6657746Y3500069D01*
X6659676Y3505555D01*
X6660388Y3511854D01*
X6660388Y3532632D01*
X6661150Y3536543D01*
X6663385Y3539794D01*
X6666636Y3542029D01*
X6670548Y3542792D01*
X6788353Y3542792D01*
X6792315Y3541979D01*
X6795668Y3539693D01*
X6797852Y3536289D01*
X6798513Y3532276D01*
X6797548Y3528314D01*
X6793331Y3519322D01*
X6790791Y3509822D01*
X6790080Y3501745D01*
X6789166Y3498342D01*
X6787184Y3495446D01*
X6580886Y3289198D01*
X6575755Y3282950D01*
X6572199Y3276295D01*
X6570014Y3269081D01*
X6569252Y3261055D01*
X6569252Y2778912D01*
X6568440Y2775000D01*
X6566255Y2771698D01*
X6346342Y2551785D01*
X6343446Y2549804D01*
X6340043Y2548890D01*
X6332016Y2548178D01*
X6322517Y2545638D01*
X6313627Y2541473D01*
X6305550Y2535834D01*
X6298590Y2528874D01*
X6293002Y2520848D01*
X6288836Y2511958D01*
X6286296Y2502458D01*
X6285433Y2492654D01*
X6286296Y2482850D01*
X6288836Y2473350D01*
X6293002Y2464460D01*
X6298590Y2456434D01*
X6305346Y2449677D01*
X6307582Y2446375D01*
X6308344Y2442514D01*
X6307582Y2438603D01*
X6305346Y2435301D01*
X6247434Y2377389D01*
X6244183Y2375204D01*
X6240272Y2374442D01*
X6236360Y2375204D01*
X6233109Y2377389D01*
X6230874Y2380691D01*
X6230112Y2384602D01*
X6230112Y2705201D01*
X6230874Y2709113D01*
X6233109Y2712415D01*
X6236614Y2715971D01*
X6239510Y2717952D01*
X6242913Y2718866D01*
X6250990Y2719578D01*
X6260490Y2722118D01*
X6269380Y2726283D01*
X6277406Y2731922D01*
X6284366Y2738882D01*
X6290005Y2746908D01*
X6294170Y2755798D01*
X6296710Y2765298D01*
X6297574Y2775102D01*
X6296710Y2784906D01*
X6294170Y2794406D01*
X6290005Y2803296D01*
X6284366Y2811322D01*
X6277406Y2818282D01*
X6269380Y2823921D01*
X6260490Y2828086D01*
X6250990Y2830626D01*
X6241186Y2831490D01*
X6231382Y2830626D01*
X6221882Y2828086D01*
X6212992Y2823921D01*
X6204966Y2818282D01*
X6198006Y2811322D01*
X6192367Y2803296D01*
X6188202Y2794406D01*
X6185662Y2784906D01*
X6184950Y2776829D01*
X6184036Y2773426D01*
X6182055Y2770530D01*
X6164580Y2753055D01*
X6159449Y2746857D01*
X6155893Y2740152D01*
X6153708Y2732938D01*
X6152896Y2724912D01*
X6152896Y1247597D01*
X6153708Y1239570D01*
X6155893Y1232357D01*
X6159449Y1225702D01*
X6164580Y1219454D01*
X6525361Y858672D01*
X6531559Y853541D01*
X6538264Y849985D01*
X6545478Y847801D01*
X6553504Y846988D01*
X6772656Y846988D01*
X6776516Y846226D01*
X6779818Y844042D01*
X6781444Y842416D01*
X6789470Y836828D01*
X6798360Y832662D01*
X6807860Y830122D01*
X6817664Y829259D01*
X6827469Y830122D01*
X6836968Y832662D01*
X6845858Y836828D01*
X6853885Y842416D01*
X6860844Y849376D01*
X6866483Y857453D01*
X6870649Y866343D01*
X6873189Y875842D01*
X6874052Y885596D01*
X6873189Y895400D01*
X6870649Y904900D01*
X6866483Y913790D01*
X6860844Y921867D01*
X6853885Y928827D01*
X6845858Y934415D01*
X6836968Y938580D01*
X6827469Y941120D01*
X6817664Y941984D01*
X6807860Y941120D01*
X6798360Y938580D01*
X6789470Y934415D01*
X6781444Y928827D01*
X6779818Y927201D01*
X6776516Y925017D01*
X6772656Y924204D01*
X6573215Y924204D01*
X6569303Y925017D01*
X6566001Y927201D01*
X6281877Y1211326D01*
X6279540Y1215034D01*
X6278981Y1219403D01*
X6280251Y1223568D01*
X6290208Y1233779D01*
X6295796Y1241806D01*
X6299962Y1250696D01*
X6302502Y1260195D01*
X6303365Y1270000D01*
X6302502Y1279804D01*
X6299962Y1289304D01*
X6295796Y1298194D01*
X6290208Y1306220D01*
X6288582Y1307846D01*
X6286398Y1311148D01*
X6285636Y1315008D01*
X6285636Y2302154D01*
X6286398Y2306015D01*
X6288582Y2309317D01*
X6600291Y2621076D01*
X6604000Y2623413D01*
X6608368Y2623972D01*
X6612585Y2622651D01*
X6615836Y2619705D01*
X6617411Y2617368D01*
X6624370Y2610408D01*
X6632448Y2604820D01*
X6641338Y2600655D01*
X6650837Y2598115D01*
X6660642Y2597251D01*
X6668160Y2597912D01*
X6672173Y2597454D01*
X6675678Y2595473D01*
X6678168Y2592324D01*
X6679184Y2588412D01*
X6678675Y2584450D01*
X6677406Y2580843D01*
X6676694Y2574544D01*
X6676694Y2497836D01*
X6675932Y2493924D01*
X6673697Y2490673D01*
X6670446Y2488438D01*
X6666534Y2487676D01*
X6662877Y2487676D01*
X6659118Y2488387D01*
X6655866Y2490470D01*
X6653631Y2493518D01*
X6651853Y2497378D01*
X6646214Y2505456D01*
X6639255Y2512415D01*
X6631228Y2518003D01*
X6622338Y2522169D01*
X6612839Y2524709D01*
X6603034Y2525572D01*
X6593230Y2524709D01*
X6583730Y2522169D01*
X6574840Y2518003D01*
X6566814Y2512415D01*
X6559854Y2505456D01*
X6554216Y2497378D01*
X6550050Y2488488D01*
X6547510Y2478989D01*
X6546646Y2469184D01*
X6547510Y2459431D01*
X6550050Y2449931D01*
X6554216Y2441041D01*
X6559854Y2432964D01*
X6566814Y2426004D01*
X6574840Y2420416D01*
X6583730Y2416251D01*
X6587286Y2415286D01*
X6590487Y2413812D01*
X6592976Y2411323D01*
X6594449Y2408123D01*
X6594754Y2404618D01*
X6594144Y2397404D01*
X6593230Y2394000D01*
X6591198Y2391105D01*
X6571742Y2371648D01*
X6566611Y2365400D01*
X6563055Y2358745D01*
X6560870Y2351532D01*
X6560058Y2343505D01*
X6560058Y2145334D01*
X6560870Y2137308D01*
X6563055Y2130094D01*
X6566611Y2123389D01*
X6571742Y2117191D01*
X6611670Y2077262D01*
X6617868Y2072132D01*
X6621525Y2070201D01*
X6624828Y2067356D01*
X6626656Y2063394D01*
X6626656Y2059025D01*
X6624828Y2055114D01*
X6613804Y2046224D01*
X6611213Y2044700D01*
X6608318Y2043988D01*
X6600139Y2043175D01*
X6590588Y2040636D01*
X6581698Y2036470D01*
X6573621Y2030831D01*
X6566662Y2023872D01*
X6561074Y2015845D01*
X6556908Y2006955D01*
X6554368Y1997456D01*
X6553504Y1987651D01*
X6554368Y1977847D01*
X6556908Y1968347D01*
X6561074Y1959457D01*
X6566662Y1951431D01*
X6573621Y1944471D01*
X6581698Y1938832D01*
X6590588Y1934667D01*
X6600088Y1932127D01*
X6609892Y1931263D01*
X6619646Y1932127D01*
X6629146Y1934667D01*
X6638036Y1938832D01*
X6646113Y1944471D01*
X6653072Y1951431D01*
X6658660Y1959457D01*
X6659981Y1962251D01*
X6662318Y1965452D01*
X6665722Y1967484D01*
X6669633Y1968093D01*
X6673494Y1967128D01*
X6676644Y1964791D01*
X6678726Y1961438D01*
X6680047Y1956003D01*
X6679488Y1952599D01*
X6677202Y1946046D01*
X6676491Y1939747D01*
X6676491Y1845868D01*
X6677202Y1839620D01*
X6679641Y1832813D01*
X6680250Y1829358D01*
X6679641Y1825904D01*
X6677152Y1819097D01*
X6676440Y1812798D01*
X6676440Y1718970D01*
X6677152Y1712722D01*
X6679692Y1705762D01*
X6680301Y1702307D01*
X6679692Y1698853D01*
X6677253Y1692097D01*
X6676593Y1685798D01*
X6676593Y1591970D01*
X6677253Y1585671D01*
X6679742Y1578813D01*
X6680352Y1575358D01*
X6679742Y1571904D01*
X6677253Y1564995D01*
X6676542Y1558747D01*
X6676542Y1464868D01*
X6677253Y1458569D01*
X6679184Y1453083D01*
X6681368Y1449578D01*
X6682587Y1446834D01*
X6682892Y1443837D01*
X6681470Y1438249D01*
X6680758Y1431950D01*
X6680758Y1415135D01*
X6739026Y1415135D01*
X6739026Y1428242D01*
X6739788Y1432102D01*
X6742023Y1435404D01*
X6745274Y1437640D01*
X6749186Y1438402D01*
X6819036Y1438402D01*
X6822948Y1437640D01*
X6826199Y1435404D01*
X6828434Y1432102D01*
X6829196Y1428242D01*
X6829196Y1415135D01*
X6839203Y1415135D01*
X6843115Y1414322D01*
X6846366Y1412138D01*
X6848602Y1408836D01*
X6849364Y1404975D01*
X6849364Y1365046D01*
X6848602Y1361186D01*
X6846366Y1357884D01*
X6843115Y1355699D01*
X6839203Y1354886D01*
X6829196Y1354886D01*
X6829196Y1311605D01*
X6839203Y1311605D01*
X6843115Y1310843D01*
X6846366Y1308608D01*
X6848602Y1305306D01*
X6849364Y1301445D01*
X6849364Y1171600D01*
X6850176Y1163574D01*
X6852361Y1156360D01*
X6855917Y1149654D01*
X6861048Y1143457D01*
X6864400Y1140053D01*
X6870649Y1134922D01*
X6877303Y1131366D01*
X6884365Y1129233D01*
X6888124Y1127150D01*
X6890664Y1123696D01*
X6891578Y1119530D01*
X6891578Y1097076D01*
X6892290Y1090726D01*
X6894220Y1085291D01*
X6897319Y1080363D01*
X6901383Y1076299D01*
X6906310Y1073200D01*
X6911746Y1071321D01*
X6918045Y1070610D01*
X7051954Y1070610D01*
X7056577Y1071118D01*
X7059930Y1070914D01*
X7063028Y1069644D01*
X7065568Y1067460D01*
X7067956Y1064514D01*
X7073849Y1058672D01*
X7075830Y1055776D01*
X7076744Y1052372D01*
X7077100Y1048308D01*
X7076694Y1044448D01*
X7074865Y1040993D01*
X7071868Y1038504D01*
X7068108Y1037336D01*
X7064146Y1036878D01*
X7058710Y1034999D01*
X7053783Y1031900D01*
X7049719Y1027836D01*
X7046620Y1022908D01*
X7044690Y1017473D01*
X7043978Y1011123D01*
X7043978Y871270D01*
X7044690Y864971D01*
X7046620Y859485D01*
X7049719Y854608D01*
X7053783Y850493D01*
X7059675Y846785D01*
X7062622Y843991D01*
X7064197Y840232D01*
X7064197Y836168D01*
X7062622Y832408D01*
X7059675Y829614D01*
X7053783Y825906D01*
X7049719Y821791D01*
X7046620Y816914D01*
X7044690Y811428D01*
X7043978Y805129D01*
G37*
G36*
X4679950Y819150D02*
G01*
X4801108Y819150D01*
X4801108Y850341D01*
X4800396Y856640D01*
X4798466Y862126D01*
X4795418Y867003D01*
X4791303Y871118D01*
X4786426Y874166D01*
X4780940Y876096D01*
X4774641Y876808D01*
X4679950Y876808D01*
G37*
G36*
X4342892Y819150D02*
G01*
X4464050Y819150D01*
X4464050Y876808D01*
X4369358Y876808D01*
X4363059Y876096D01*
X4357573Y874166D01*
X4352696Y871118D01*
X4348581Y867003D01*
X4345533Y862126D01*
X4343603Y856640D01*
X4342892Y850341D01*
G37*
G36*
X4679950Y1180592D02*
G01*
X4774641Y1180592D01*
X4780940Y1181303D01*
X4786426Y1183233D01*
X4791303Y1186281D01*
X4795418Y1190396D01*
X4798466Y1195273D01*
X4800396Y1200759D01*
X4801108Y1207058D01*
X4801108Y1238250D01*
X4679950Y1238250D01*
G37*
G36*
X4369358Y1180592D02*
G01*
X4464050Y1180592D01*
X4464050Y1238250D01*
X4342892Y1238250D01*
X4342892Y1207058D01*
X4343603Y1200759D01*
X4345533Y1195273D01*
X4348581Y1190396D01*
X4352696Y1186281D01*
X4357573Y1183233D01*
X4363059Y1181303D01*
G37*
G36*
X4925771Y1311605D02*
G01*
X4957572Y1311605D01*
X4963871Y1312316D01*
X4969357Y1314246D01*
X4974234Y1317294D01*
X4978349Y1321409D01*
X4981397Y1326286D01*
X4983327Y1331772D01*
X4984038Y1338072D01*
X4984038Y1354886D01*
X4925771Y1354886D01*
G37*
G36*
X6707225Y1311605D02*
G01*
X6739026Y1311605D01*
X6739026Y1354886D01*
X6680758Y1354886D01*
X6680758Y1338072D01*
X6681470Y1331772D01*
X6683349Y1326286D01*
X6686448Y1321409D01*
X6690512Y1317294D01*
X6695440Y1314246D01*
X6700875Y1312316D01*
G37*
G36*
X4821428Y1311605D02*
G01*
X4835601Y1311605D01*
X4835601Y1354886D01*
X4767122Y1354886D01*
X4763211Y1355699D01*
X4759960Y1357884D01*
X4757724Y1361186D01*
X4756962Y1365046D01*
X4756962Y1384808D01*
X4679950Y1384808D01*
X4679950Y1327150D01*
X4811268Y1327150D01*
X4815179Y1326388D01*
X4818430Y1324152D01*
X4820666Y1320901D01*
X4821428Y1316990D01*
G37*
G36*
X4342892Y1327150D02*
G01*
X4464050Y1327150D01*
X4464050Y1384808D01*
X4369358Y1384808D01*
X4363059Y1384096D01*
X4357573Y1382166D01*
X4352696Y1379118D01*
X4348581Y1375003D01*
X4345533Y1370126D01*
X4343603Y1364640D01*
X4342892Y1358341D01*
G37*
G36*
X7266940Y1882902D02*
G01*
X7266940Y1932939D01*
X7216902Y1932939D01*
X7221372Y1924304D01*
X7229449Y1912823D01*
X7238898Y1902409D01*
X7249566Y1893265D01*
X7261352Y1885594D01*
G37*
G36*
X6007354Y2029053D02*
G01*
X6100419Y2029053D01*
X6106769Y2029815D01*
X6112205Y2031695D01*
X6117132Y2034793D01*
X6121196Y2038857D01*
X6124295Y2043785D01*
X6126175Y2049221D01*
X6126937Y2055571D01*
X6126937Y2148636D01*
X6007354Y2148636D01*
G37*
G36*
X5701588Y2029053D02*
G01*
X5794654Y2029053D01*
X5794654Y2148636D01*
X5675122Y2148636D01*
X5675122Y2055571D01*
X5675833Y2049221D01*
X5677712Y2043785D01*
X5680811Y2038857D01*
X5684875Y2034793D01*
X5689803Y2031695D01*
X5695238Y2029815D01*
G37*
G36*
X7216851Y2029460D02*
G01*
X7266940Y2029460D01*
X7266940Y2079650D01*
X7255357Y2073148D01*
X7244080Y2064715D01*
X7233970Y2054961D01*
X7225233Y2043988D01*
X7217918Y2031949D01*
G37*
G36*
X5675122Y2361336D02*
G01*
X5794654Y2361336D01*
X5794654Y2480868D01*
X5701588Y2480868D01*
X5695238Y2480157D01*
X5689803Y2478278D01*
X5684875Y2475179D01*
X5680811Y2471115D01*
X5677712Y2466187D01*
X5675833Y2460752D01*
X5675122Y2454402D01*
G37*
G36*
X6007354Y2361336D02*
G01*
X6126937Y2361336D01*
X6126937Y2454402D01*
X6126175Y2460752D01*
X6124295Y2466187D01*
X6121196Y2471115D01*
X6117132Y2475179D01*
X6112205Y2478278D01*
X6106769Y2480157D01*
X6100419Y2480868D01*
X6007354Y2480868D01*
G37*
G36*
X6432804Y3133140D02*
G01*
X6449618Y3133140D01*
X6455968Y3133852D01*
X6461404Y3135782D01*
X6466332Y3138830D01*
X6470396Y3142945D01*
X6473494Y3147822D01*
X6475425Y3153308D01*
X6476136Y3159607D01*
X6476136Y3191408D01*
X6432804Y3191408D01*
G37*
G36*
X6432804Y3281578D02*
G01*
X6476136Y3281578D01*
X6476136Y3313429D01*
X6475425Y3319729D01*
X6473494Y3325215D01*
X6470396Y3330092D01*
X6466332Y3334207D01*
X6461404Y3337255D01*
X6455968Y3339185D01*
X6449618Y3339896D01*
X6432804Y3339896D01*
G37*
G36*
X6398260Y3485387D02*
G01*
X6423863Y3485387D01*
X6430162Y3486099D01*
X6435648Y3488029D01*
X6440525Y3491077D01*
X6444640Y3495192D01*
X6447688Y3500069D01*
X6449618Y3505555D01*
X6450330Y3511854D01*
X6450330Y3539947D01*
X6398260Y3539947D01*
G37*
G36*
X6294932Y3485387D02*
G01*
X6320536Y3485387D01*
X6320536Y3539947D01*
X6268466Y3539947D01*
X6268466Y3511854D01*
X6269177Y3505555D01*
X6271107Y3500069D01*
X6274155Y3495192D01*
X6278270Y3491077D01*
X6283147Y3488029D01*
X6288633Y3486099D01*
G37*
G36*
X6268466Y3622598D02*
G01*
X6320536Y3622598D01*
X6320536Y3677158D01*
X6294932Y3677158D01*
X6288633Y3676446D01*
X6283147Y3674516D01*
X6278270Y3671468D01*
X6274155Y3667353D01*
X6271107Y3662476D01*
X6269177Y3656990D01*
X6268466Y3650691D01*
G37*
G36*
X6398260Y3622598D02*
G01*
X6450330Y3622598D01*
X6450330Y3650691D01*
X6449618Y3656990D01*
X6447688Y3662476D01*
X6444640Y3667353D01*
X6440525Y3671468D01*
X6435648Y3674516D01*
X6430162Y3676446D01*
X6423863Y3677158D01*
X6398260Y3677158D01*
G37*
G36*
X6804659Y3772154D02*
G01*
X6847738Y3772154D01*
X6854037Y3772865D01*
X6859524Y3774795D01*
X6864400Y3777894D01*
X6868515Y3781958D01*
X6871563Y3786886D01*
X6873494Y3792321D01*
X6874205Y3798620D01*
X6874205Y3816705D01*
X6804659Y3816705D01*
G37*
G36*
X6648856Y3772154D02*
G01*
X6691934Y3772154D01*
X6691934Y3816705D01*
X6622389Y3816705D01*
X6622389Y3798620D01*
X6623100Y3792321D01*
X6625031Y3786886D01*
X6628079Y3781958D01*
X6632194Y3777894D01*
X6637070Y3774795D01*
X6642557Y3772865D01*
G37*
G36*
X6621576Y3879443D02*
G01*
X6691934Y3879443D01*
X6691934Y3923995D01*
X6686550Y3923995D01*
X6682689Y3924757D01*
X6679387Y3926941D01*
X6677202Y3930243D01*
X6676390Y3935018D01*
X6621576Y3935018D01*
G37*
G36*
X5110276Y4084878D02*
G01*
X5138623Y4084878D01*
X5144973Y4085590D01*
X5150408Y4087520D01*
X5155336Y4090619D01*
X5159400Y4094683D01*
X5162499Y4099610D01*
X5164378Y4105046D01*
X5165090Y4111345D01*
X5165090Y4138218D01*
X5110276Y4138218D01*
G37*
G36*
X5110276Y4218381D02*
G01*
X5165090Y4218381D01*
X5165090Y4245254D01*
X5164378Y4251553D01*
X5162499Y4256989D01*
X5159400Y4261916D01*
X5155336Y4265980D01*
X5150408Y4269079D01*
X5144973Y4271010D01*
X5138623Y4271721D01*
X5110276Y4271721D01*
G37*
G36*
X5122976Y4313478D02*
G01*
X5151323Y4313478D01*
X5157673Y4314190D01*
X5163108Y4316120D01*
X5168036Y4319219D01*
X5172100Y4323283D01*
X5175199Y4328210D01*
X5177078Y4333646D01*
X5177790Y4339945D01*
X5177790Y4366818D01*
X5122976Y4366818D01*
G37*

%LPD*%
G36*
X6955078Y1263396D02*
G01*
X6951167Y1264158D01*
X6947865Y1266393D01*
X6945680Y1269695D01*
X6944918Y1273556D01*
X6944918Y1331417D01*
X6936740Y1331417D01*
X6932828Y1332179D01*
X6929577Y1334363D01*
X6927342Y1337665D01*
X6926580Y1341577D01*
X6926580Y1404416D01*
X6927342Y1408328D01*
X6929577Y1411630D01*
X6932828Y1413814D01*
X6936740Y1414576D01*
X6944918Y1414576D01*
X6944918Y1470507D01*
X6941870Y1472844D01*
X6939940Y1476146D01*
X6939381Y1479905D01*
X6940194Y1483614D01*
X6948170Y1494993D01*
X6952335Y1503883D01*
X6954875Y1513382D01*
X6955739Y1523187D01*
X6955434Y1526438D01*
X6955891Y1530502D01*
X6957974Y1534058D01*
X6961276Y1536496D01*
X6965238Y1537462D01*
X6969302Y1536750D01*
X6972757Y1534464D01*
X7022134Y1485087D01*
X7024319Y1481836D01*
X7025081Y1477924D01*
X7025081Y1414576D01*
X7046163Y1414576D01*
X7050024Y1413814D01*
X7053325Y1411630D01*
X7055510Y1408328D01*
X7056323Y1404416D01*
X7056323Y1341577D01*
X7055510Y1337665D01*
X7053325Y1334363D01*
X7050024Y1332179D01*
X7046163Y1331417D01*
X7025081Y1331417D01*
X7025081Y1273556D01*
X7024319Y1269695D01*
X7022134Y1266393D01*
X7018832Y1264158D01*
X7014921Y1263396D01*
G37*

%LPD*%
D12*
X3693922Y736600D02*
G01*
X3657600Y641095D01*
X3693922Y736600D02*
G01*
X3730243Y641095D01*
X3671315Y672845D02*
G01*
X3716781Y672845D01*
X3760215Y736600D02*
G01*
X3760215Y641095D01*
X3760215Y736600D02*
G01*
X3823970Y641095D01*
X3823970Y736600D02*
G01*
X3823970Y641095D01*
X3885691Y736600D02*
G01*
X3885691Y641095D01*
X3853941Y736600D02*
G01*
X3917695Y736600D01*
D10*
X4229100Y3761460D02*
G01*
X4229100Y4241800D01*
X4312665Y3050539D02*
G01*
X4229100Y3134105D01*
X4229100Y3761460D01*
X3848100Y1667205D02*
G01*
X3687648Y1667205D01*
X4018762Y1648129D02*
G01*
X4018762Y1277137D01*
X3998925Y1257300D01*
X4008551Y1667205D02*
G01*
X4018762Y1656994D01*
X4018762Y1648129D01*
X4018762Y1648129D02*
G01*
X4420514Y1648129D01*
X4452416Y1680032D01*
X4452416Y1817115D01*
X4522190Y1886889D01*
X4541621Y1886889D01*
X4541621Y1981200D02*
G01*
X4541621Y1886889D01*
X3848100Y1667205D02*
G01*
X4008551Y1667205D01*
X6887972Y1511807D02*
G01*
X6899351Y1523187D01*
X6874814Y1511807D02*
G01*
X6887972Y1511807D01*
X6887972Y1511807D02*
G01*
X6887972Y1171092D01*
X6892061Y1167003D01*
X6985000Y1167003D02*
G01*
X6892061Y1167003D01*
X6779920Y1511807D02*
G01*
X6874814Y1511807D01*
X4312665Y3050539D02*
G01*
X4233163Y2971037D01*
X4233163Y2947796D01*
X4463795Y3050539D02*
G01*
X4312665Y3050539D01*
X4463795Y3048000D02*
G01*
X4837302Y3421506D01*
X4837302Y3670300D01*
X4463795Y3048000D02*
G01*
X4463795Y3050539D01*
X4463795Y3040405D02*
G01*
X4463795Y3048000D01*
X4463795Y2975076D02*
G01*
X4463795Y3040405D01*
X4862702Y4224781D02*
G01*
X4843678Y4205757D01*
X4843678Y3911600D01*
X4862702Y4224781D02*
G01*
X4862702Y4271263D01*
X4862702Y4178300D02*
G01*
X4862702Y4224781D01*
X4862702Y4271263D02*
G01*
X4875402Y4283963D01*
X4875402Y4406900D01*
X4843678Y3911600D02*
G01*
X4843678Y3817289D01*
X4843678Y3817289D02*
G01*
X4837302Y3810914D01*
X4837302Y3670300D01*
X4140200Y2947796D02*
G01*
X4047261Y2947796D01*
X3828694Y3097301D02*
G01*
X3897756Y3097301D01*
X4047261Y2947796D01*
X4140200Y2947796D02*
G01*
X4233163Y2947796D01*
X4875402Y4406900D02*
G01*
X4875402Y4499863D01*
X6281420Y4460239D02*
G01*
X6241795Y4499863D01*
X4875402Y4499863D01*
X5036921Y3911600D02*
G01*
X5119014Y3911600D01*
X5168569Y3548049D02*
G01*
X5168569Y3862044D01*
X5119014Y3911600D01*
X7132980Y1054100D02*
G01*
X7094905Y1092174D01*
X7094905Y1466926D01*
X6922947Y1638884D01*
X6779945Y1638884D01*
X7137400Y1037158D02*
G01*
X7132980Y1041577D01*
X7132980Y1054100D01*
X6873951Y4305300D02*
G01*
X6873951Y4104411D01*
X7440549Y3537813D01*
X7440549Y1530883D01*
X7404709Y1495044D01*
X6748500Y4305300D02*
G01*
X6873951Y4305300D01*
X6748500Y4305300D02*
G01*
X6623050Y4305300D01*
X6374002Y3975100D02*
G01*
X6374002Y4068063D01*
X6623050Y4305300D02*
G01*
X6603568Y4324781D01*
X6256578Y4324781D01*
X6220688Y4288891D01*
X6220688Y4128414D01*
X6281038Y4068063D01*
X6374002Y4068063D01*
X7137400Y941196D02*
G01*
X7137400Y1037158D01*
X7353300Y953896D02*
G01*
X7353300Y1062812D01*
X7350404Y1065707D01*
X6241186Y2775102D02*
G01*
X6191504Y2725420D01*
X6191504Y1247114D01*
X6552996Y885621D01*
X6817664Y885621D01*
X7223048Y3848074D02*
G01*
X7223048Y3955465D01*
X7348499Y3848074D02*
G01*
X7223048Y3848074D01*
X4880711Y3035960D02*
G01*
X4996815Y3035960D01*
X4998948Y3038094D01*
X6779717Y2400706D02*
G01*
X6731355Y2449068D01*
X6623177Y2449068D01*
X6603034Y2469210D01*
X6779666Y2273833D02*
G01*
X6676720Y2273833D01*
X6676720Y2273833D02*
G01*
X6676720Y2179015D01*
X6659067Y2161362D01*
X7299426Y2364231D02*
G01*
X7267981Y2364231D01*
X7082561Y2549652D01*
X7082561Y3602507D01*
X7373721Y1384300D02*
G01*
X7351293Y1406728D01*
X7351293Y1547342D01*
X7364425Y1560474D01*
X6664020Y2924505D02*
G01*
X6679184Y2909341D01*
X6782130Y2909341D02*
G01*
X6679184Y2909341D01*
X6660616Y2653614D02*
G01*
X6676085Y2653614D01*
X6677050Y2654579D01*
X6779996Y2654579D02*
G01*
X6677050Y2654579D01*
X4880762Y2400706D02*
G01*
X4986274Y2400706D01*
X5000497Y2386482D01*
X6247002Y1270000D02*
G01*
X6247002Y2322347D01*
X6679438Y2754782D01*
X6679438Y2781579D01*
X6782384Y2781579D02*
G01*
X6679438Y2781579D01*
X4880660Y2273807D02*
G01*
X4983606Y2273807D01*
X4983606Y2273807D02*
G01*
X5053863Y2203551D01*
X5053863Y1641754D01*
X4880711Y2527604D02*
G01*
X4983657Y2527604D01*
X4983657Y2527604D02*
G01*
X5152415Y2358847D01*
X5152415Y1736521D01*
X4558791Y2780563D02*
G01*
X4611750Y2833522D01*
X4611750Y2936747D01*
X5169661Y3494659D01*
X5450459Y3494659D01*
X5702300Y3746500D01*
X4558791Y2705100D02*
G01*
X4558791Y2780563D01*
X4560697Y2582163D02*
G01*
X4558791Y2584069D01*
X4558791Y2705100D01*
X4560697Y2489200D02*
G01*
X4560697Y2582163D01*
X4348378Y1981200D02*
G01*
X4266285Y1981200D01*
X4266285Y1981200D02*
G01*
X4266285Y2063292D01*
X4214596Y2114981D01*
X7361021Y1786585D02*
G01*
X7361021Y1676400D01*
X6779818Y2146706D02*
G01*
X6737299Y2104186D01*
X6639306Y2104186D01*
X6598665Y2144826D01*
X6598665Y2343988D01*
X6650354Y2395677D01*
X4880660Y1892782D02*
G01*
X4983606Y1892782D01*
X4983606Y1892782D02*
G01*
X4983606Y2032304D01*
X4999710Y2048408D01*
X4983606Y1765858D02*
G01*
X4983606Y1787245D01*
X5000472Y1804111D01*
X4880660Y1765858D02*
G01*
X4983606Y1765858D01*
X6402704Y3236518D02*
G01*
X6402704Y3012109D01*
X5901004Y2510409D01*
X5901004Y2480437D01*
X7261859Y747903D02*
G01*
X7261859Y1927860D01*
X7315200Y1981200D01*
X3848100Y2315718D02*
G01*
X3828694Y2335123D01*
X3828694Y2843301D01*
X3848100Y2315718D02*
G01*
X3848100Y2209241D01*
X3848100Y2422194D02*
G01*
X3848100Y2315718D01*
X6985000Y1468958D02*
G01*
X6982231Y1471726D01*
X6982231Y1501190D01*
X4348378Y1834210D02*
G01*
X4223131Y1834210D01*
X3848100Y2209241D01*
X4354702Y2396261D02*
G01*
X4376216Y2396261D01*
X4440605Y2331872D01*
X4440605Y1906523D01*
X4368291Y1834210D01*
X4348378Y1834210D01*
X6985000Y1372996D02*
G01*
X6985000Y1468958D01*
X6359397Y3581272D02*
G01*
X6268923Y3581272D01*
X6183553Y4373448D02*
G01*
X5081397Y4373448D01*
X7223252Y4305300D02*
G01*
X7150328Y4378223D01*
X6568363Y4378223D01*
X6563588Y4373448D01*
X6183553Y4373448D01*
X6268923Y3581272D02*
G01*
X6183553Y3666642D01*
X6183553Y4373448D01*
X6359397Y3573703D02*
G01*
X6359397Y3581272D01*
X6359397Y3573703D02*
G01*
X6359397Y3566134D01*
X7137400Y735203D02*
G01*
X7044461Y735203D01*
X7044461Y735203D02*
G01*
X6784111Y995553D01*
X6784111Y1385011D01*
X7183881Y735203D02*
G01*
X7137400Y735203D01*
X5081397Y4373448D02*
G01*
X5081397Y4406900D01*
X5068697Y4271263D02*
G01*
X5081397Y4283963D01*
X5081397Y4373448D01*
X7348702Y4305300D02*
G01*
X7223252Y4305300D01*
X5696229Y2162937D02*
G01*
X4983606Y1450314D01*
X4983606Y1384985D01*
X5901004Y2367711D02*
G01*
X5696229Y2162937D01*
X5696229Y2162937D02*
G01*
X5573140Y2286000D01*
X7315200Y1981200D02*
G01*
X7026046Y2270353D01*
X7026046Y3695776D01*
X6873747Y3848074D01*
X4463795Y2705100D02*
G01*
X4463795Y2780563D01*
X4194403Y2741803D02*
G01*
X4233163Y2780563D01*
X4463795Y2780563D01*
X4194403Y2741803D02*
G01*
X4233163Y2741803D01*
X4140200Y2741803D02*
G01*
X4186681Y2741803D01*
X4186681Y2741803D02*
G01*
X4194403Y2741803D01*
X6748297Y3848074D02*
G01*
X6873747Y3848074D01*
X7261859Y747903D02*
G01*
X7243063Y747903D01*
X7230363Y735203D01*
X7353300Y747903D02*
G01*
X7261859Y747903D01*
X4685004Y1282700D02*
G01*
X4572000Y1282700D01*
X4348378Y1739900D02*
G01*
X4348378Y1834210D01*
X4880660Y1384985D02*
G01*
X4983606Y1384985D01*
X5901004Y2367711D02*
G01*
X5901004Y2480437D01*
X5901004Y2254986D02*
G01*
X5901004Y2367711D01*
X4800650Y774700D02*
G01*
X4817211Y791260D01*
X4817211Y806450D01*
X6748297Y3848074D02*
G01*
X6622846Y3848074D01*
X5043297Y3699154D02*
G01*
X5043297Y3670300D01*
X5043297Y3699154D02*
G01*
X5043297Y3763263D01*
X4354702Y2489200D02*
G01*
X4354702Y2396261D01*
X4354702Y2512440D02*
G01*
X4354702Y2489200D01*
X4354702Y2512440D02*
G01*
X4354702Y2535681D01*
X7183881Y735203D02*
G01*
X7230363Y735203D01*
X4354702Y2535681D02*
G01*
X4233163Y2657220D01*
X4233163Y2741803D01*
X6579997Y3848074D02*
G01*
X6579997Y3975100D01*
X6359397Y3566134D02*
G01*
X6579997Y3786733D01*
X6579997Y3848074D01*
X6579997Y3848074D02*
G01*
X6622846Y3848074D01*
X5068697Y4199204D02*
G01*
X4957394Y4087901D01*
X4957394Y3827653D01*
X5021783Y3763263D01*
X5043297Y3763263D01*
X5068697Y4224781D02*
G01*
X5068697Y4271263D01*
X5068697Y4178300D02*
G01*
X5068697Y4199204D01*
X5068697Y4224781D02*
G01*
X5068697Y4199204D01*
X6359397Y3533571D02*
G01*
X6359397Y3485845D01*
X6359397Y3533571D02*
G01*
X6359397Y3566134D01*
X4132478Y3657600D02*
G01*
X4050385Y3657600D01*
X4685004Y1282700D02*
G01*
X4800650Y1282700D01*
X4800650Y1282700D02*
G01*
X4800650Y1304975D01*
X4880660Y1384985D01*
X4800650Y774700D02*
G01*
X4800650Y1282700D01*
X4572000Y774700D02*
G01*
X4800650Y774700D01*
X6402704Y3236518D02*
G01*
X6402704Y3442538D01*
X6359397Y3485845D01*
X6579997Y3975100D02*
G01*
X6579997Y4068063D01*
X6375400Y4201160D02*
G01*
X6375400Y4115765D01*
X6375400Y4115765D02*
G01*
X6532295Y4115765D01*
X6579997Y4068063D01*
X6469379Y4240174D02*
G01*
X6544436Y4240174D01*
X7167930Y3616680D01*
X7167930Y2636469D01*
X7315200Y2489200D01*
X6469379Y4240174D02*
G01*
X6469379Y4276420D01*
X6469379Y4201160D02*
G01*
X6469379Y4240174D01*
X6469379Y4276420D02*
G01*
X6459245Y4286554D01*
X6281420Y4286554D01*
X6281420Y4201160D02*
G01*
X6281420Y4286554D01*
X5384342Y3233420D02*
G01*
X5384342Y3435680D01*
X4366768Y3657600D02*
G01*
X4366768Y4125468D01*
X4483100Y4241800D01*
X4325721Y3657600D02*
G01*
X4366768Y3657600D01*
D11*
X4673600Y1028700D02*
G01*
X3949700Y1028700D01*
X3784600Y863600D01*
D10*
X6341795Y2492654D02*
G01*
X6607835Y2758694D01*
X6607835Y3261537D01*
X6846315Y3500018D01*
X7167778Y1676400D02*
G01*
X7085685Y1676400D01*
X4623308Y1862048D02*
G01*
X4623308Y2084603D01*
X4554321Y2153589D01*
X4699888Y1785467D02*
G01*
X4623308Y1862048D01*
X4541621Y1834210D02*
G01*
X4595469Y1834210D01*
X4623308Y1862048D01*
X6779666Y2019604D02*
G01*
X6641820Y2019604D01*
X6609867Y1987651D01*
X4554321Y2247900D02*
G01*
X4554321Y2153589D01*
X4541621Y1739900D02*
G01*
X4541621Y1834210D01*
X6780072Y2527604D02*
G01*
X6883018Y2527604D01*
X4880584Y2908858D02*
G01*
X4777638Y2908858D01*
X4368800Y2705100D02*
G01*
X4368800Y2629662D01*
X4361078Y2247900D02*
G01*
X4278985Y2247900D01*
X4278985Y2247900D02*
G01*
X4049801Y2477084D01*
X4049801Y2760573D01*
X3834384Y2975990D01*
X3802913Y2975990D01*
X3729812Y3049092D01*
X3729812Y3506419D01*
X3828694Y3605301D01*
X4050284Y3657600D02*
G01*
X4001261Y3706621D01*
X3788918Y3706621D01*
X3670300Y3588257D01*
X3670300Y3001771D01*
X3828795Y2843276D01*
X4229100Y3761486D02*
G01*
X3776472Y3761486D01*
X3619500Y3604513D01*
X3619500Y1735328D01*
X3687572Y1667255D01*
X4368800Y2629662D02*
G01*
X4391659Y2629662D01*
X4448047Y2573273D01*
X4448047Y2429002D01*
X4495800Y2381250D01*
X4634484Y2381250D01*
X4724400Y2471165D01*
X4724400Y2908807D01*
X4777740Y2908807D01*
X7180579Y1384300D02*
G01*
X7180579Y1468120D01*
X6908800Y1739900D01*
X6908800Y2527554D01*
X6882891Y2527554D01*
X7085584Y1676400D02*
G01*
X6972300Y1789684D01*
X6972300Y3460242D01*
X6851141Y3581400D01*
X6569456Y3581400D01*
G36*
X6648297Y3898087D02*
G01*
X6848297Y3898087D01*
X6848297Y3798087D01*
X6648297Y3798087D01*
G37*
G36*
X7248499Y3898087D02*
G01*
X7448499Y3898087D01*
X7448499Y3798087D01*
X7248499Y3798087D01*
G37*
G36*
X4972799Y3602799D02*
G01*
X4972799Y3737800D01*
X5113799Y3737800D01*
X5113799Y3602799D01*
G37*
G36*
X4907800Y3602799D02*
G01*
X4907800Y3737800D01*
X4766800Y3737800D01*
X4766800Y3602799D01*
G37*
D16*
G01*
X3848100Y1667205D03*
G01*
X3848100Y2422194D03*
G36*
X4072699Y2812300D02*
G01*
X4207700Y2812300D01*
X4207700Y2671300D01*
X4072699Y2671300D01*
G37*
D17*
G01*
X4140200Y2947796D03*
G36*
X7069899Y805700D02*
G01*
X7204900Y805700D01*
X7204900Y664700D01*
X7069899Y664700D01*
G37*
G01*
X7137400Y941196D03*
G36*
X7420800Y883399D02*
G01*
X7285799Y883399D01*
X7285799Y1024399D01*
X7420800Y1024399D01*
G37*
G01*
X7353300Y747903D03*
G36*
X6917499Y1237500D02*
G01*
X7052500Y1237500D01*
X7052500Y1096500D01*
X6917499Y1096500D01*
G37*
G01*
X6985000Y1372996D03*
G36*
X4425200Y2556700D02*
G01*
X4425200Y2421699D01*
X4284200Y2421699D01*
X4284200Y2556700D01*
G37*
G36*
X4490199Y2556700D02*
G01*
X4490199Y2421699D01*
X4631199Y2421699D01*
X4631199Y2556700D01*
G37*
G36*
X6444500Y4042600D02*
G01*
X6444500Y3907599D01*
X6303500Y3907599D01*
X6303500Y4042600D01*
G37*
G36*
X6509499Y4042600D02*
G01*
X6509499Y3907599D01*
X6650499Y3907599D01*
X6650499Y4042600D01*
G37*
G36*
X5010899Y4339399D02*
G01*
X5010899Y4474400D01*
X5151899Y4474400D01*
X5151899Y4339399D01*
G37*
G36*
X4945900Y4339399D02*
G01*
X4945900Y4474400D01*
X4804900Y4474400D01*
X4804900Y4339399D01*
G37*
G36*
X4998199Y4110799D02*
G01*
X4998199Y4245800D01*
X5139199Y4245800D01*
X5139199Y4110799D01*
G37*
G36*
X4933200Y4110799D02*
G01*
X4933200Y4245800D01*
X4792200Y4245800D01*
X4792200Y4110799D01*
G37*
D14*
G01*
X7348702Y4305300D03*
G01*
X6748500Y4305300D03*
D18*
G01*
X6569456Y3581272D03*
G01*
X6359397Y3581272D03*
G36*
X7224400Y1745249D02*
G01*
X7224400Y1607550D01*
X7111146Y1607550D01*
X7111146Y1745249D01*
G37*
G36*
X7304399Y1745249D02*
G01*
X7304399Y1607550D01*
X7417653Y1607550D01*
X7417653Y1745249D01*
G37*
G36*
X4269099Y3588750D02*
G01*
X4269099Y3726449D01*
X4382353Y3726449D01*
X4382353Y3588750D01*
G37*
G36*
X4189100Y3588750D02*
G01*
X4189100Y3726449D01*
X4075846Y3726449D01*
X4075846Y3588750D01*
G37*
G36*
X4484999Y1912350D02*
G01*
X4484999Y2050049D01*
X4598253Y2050049D01*
X4598253Y1912350D01*
G37*
G36*
X4405000Y1912350D02*
G01*
X4405000Y2050049D01*
X4291746Y2050049D01*
X4291746Y1912350D01*
G37*
G36*
X4417700Y2316749D02*
G01*
X4417700Y2179050D01*
X4304446Y2179050D01*
X4304446Y2316749D01*
G37*
G36*
X4497699Y2316749D02*
G01*
X4497699Y2179050D01*
X4610953Y2179050D01*
X4610953Y2316749D01*
G37*
G36*
X4484999Y1671050D02*
G01*
X4484999Y1808749D01*
X4598253Y1808749D01*
X4598253Y1671050D01*
G37*
G36*
X4405000Y1671050D02*
G01*
X4405000Y1808749D01*
X4291746Y1808749D01*
X4291746Y1671050D01*
G37*
G36*
X7317099Y1315450D02*
G01*
X7317099Y1453149D01*
X7430353Y1453149D01*
X7430353Y1315450D01*
G37*
G36*
X7237100Y1315450D02*
G01*
X7237100Y1453149D01*
X7123846Y1453149D01*
X7123846Y1315450D01*
G37*
G36*
X4980299Y3842750D02*
G01*
X4980299Y3980449D01*
X5093553Y3980449D01*
X5093553Y3842750D01*
G37*
G36*
X4900300Y3842750D02*
G01*
X4900300Y3980449D01*
X4787046Y3980449D01*
X4787046Y3842750D01*
G37*
D20*
G01*
X4572000Y1282700D03*
G01*
X4572000Y774700D03*
D21*
G01*
X4673600Y1028700D03*
G36*
X6861606Y1337513D02*
G01*
X6706615Y1337513D01*
X6706615Y1432509D01*
X6861606Y1432509D01*
G37*
G36*
X6857415Y1464310D02*
G01*
X6702425Y1464310D01*
X6702425Y1559305D01*
X6857415Y1559305D01*
G37*
D22*
G01*
X6779945Y1638884D03*
G01*
X6779818Y1765884D03*
G36*
X6857365Y1845310D02*
G01*
X6702374Y1845310D01*
X6702374Y1940305D01*
X6857365Y1940305D01*
G37*
G36*
X6857161Y1972106D02*
G01*
X6702170Y1972106D01*
X6702170Y2067102D01*
X6857161Y2067102D01*
G37*
G01*
X6779818Y2146706D03*
G36*
X6857161Y2226335D02*
G01*
X6702170Y2226335D01*
X6702170Y2321331D01*
X6857161Y2321331D01*
G37*
G01*
X6779717Y2400706D03*
G01*
X6780072Y2527604D03*
G36*
X6857491Y2607081D02*
G01*
X6702501Y2607081D01*
X6702501Y2702077D01*
X6857491Y2702077D01*
G37*
G36*
X6704888Y2829077D02*
G01*
X6859879Y2829077D01*
X6859879Y2734081D01*
X6704888Y2734081D01*
G37*
G36*
X6704634Y2956839D02*
G01*
X6859625Y2956839D01*
X6859625Y2861843D01*
X6704634Y2861843D01*
G37*
G36*
X6704279Y3085566D02*
G01*
X6859295Y3085566D01*
X6859295Y2990570D01*
X6704279Y2990570D01*
G37*
D23*
G01*
X6402704Y3236518D03*
G01*
X6273901Y3236188D03*
G01*
X6146647Y3236188D03*
G01*
X6019723Y3236340D03*
G01*
X5892749Y3236315D03*
G01*
X5765800Y3236239D03*
G01*
X5638596Y3234486D03*
G36*
X5559323Y3312566D02*
G01*
X5559323Y3157575D01*
X5464327Y3157575D01*
X5464327Y3312566D01*
G37*
G01*
X5384342Y3233420D03*
G36*
X5305247Y3311550D02*
G01*
X5305247Y3156559D01*
X5210251Y3156559D01*
X5210251Y3311550D01*
G37*
G36*
X4958156Y2226310D02*
G01*
X4803165Y2226310D01*
X4803165Y2321331D01*
X4958156Y2321331D01*
G37*
G36*
X4958257Y2353208D02*
G01*
X4803266Y2353208D01*
X4803266Y2448204D01*
X4958257Y2448204D01*
G37*
G36*
X4958206Y2480106D02*
G01*
X4803216Y2480106D01*
X4803216Y2575102D01*
X4958206Y2575102D01*
G37*
G36*
X4958283Y2607055D02*
G01*
X4803292Y2607055D01*
X4803292Y2702077D01*
X4958283Y2702077D01*
G37*
G36*
X4958257Y2734106D02*
G01*
X4803266Y2734106D01*
X4803266Y2829077D01*
X4958257Y2829077D01*
G37*
G36*
X4958079Y2861360D02*
G01*
X4803089Y2861360D01*
X4803089Y2956356D01*
X4958079Y2956356D01*
G37*
G36*
X4958206Y2988462D02*
G01*
X4803216Y2988462D01*
X4803216Y3083458D01*
X4958206Y3083458D01*
G37*
G36*
X4958156Y2099182D02*
G01*
X4803165Y2099182D01*
X4803165Y2194204D01*
X4958156Y2194204D01*
G37*
G36*
X4958257Y1972081D02*
G01*
X4803266Y1972081D01*
X4803266Y2067102D01*
X4958257Y2067102D01*
G37*
G36*
X4958156Y1845284D02*
G01*
X4803165Y1845284D01*
X4803165Y1940305D01*
X4958156Y1940305D01*
G37*
G36*
X4958156Y1718360D02*
G01*
X4803165Y1718360D01*
X4803165Y1813382D01*
X4958156Y1813382D01*
G37*
G36*
X4958156Y1591360D02*
G01*
X4803165Y1591360D01*
X4803165Y1686382D01*
X4958156Y1686382D01*
G37*
G36*
X4958156Y1464284D02*
G01*
X4803165Y1464284D01*
X4803165Y1559305D01*
X4958156Y1559305D01*
G37*
G36*
X4958156Y1337487D02*
G01*
X4803165Y1337487D01*
X4803165Y1432509D01*
X4958156Y1432509D01*
G37*
D24*
G01*
X5901004Y2254986D03*
D25*
G01*
X4368800Y2705100D03*
G01*
X4463795Y2705100D03*
G01*
X4558791Y2705100D03*
G01*
X4558791Y2975076D03*
G01*
X4368800Y2975076D03*
G01*
X4463795Y2975076D03*
G36*
X6253861Y4261104D02*
G01*
X6308979Y4261104D01*
X6308979Y4141215D01*
X6253861Y4141215D01*
G37*
G36*
X6347840Y4261104D02*
G01*
X6402959Y4261104D01*
X6402959Y4141215D01*
X6347840Y4141215D01*
G37*
G36*
X6441820Y4261104D02*
G01*
X6496938Y4261104D01*
X6496938Y4141215D01*
X6441820Y4141215D01*
G37*
G36*
X6441820Y4520184D02*
G01*
X6496938Y4520184D01*
X6496938Y4400295D01*
X6441820Y4400295D01*
G37*
G36*
X6253861Y4520184D02*
G01*
X6308979Y4520184D01*
X6308979Y4400295D01*
X6253861Y4400295D01*
G37*
D27*
G01*
X4229100Y4241800D03*
D28*
G01*
X4483100Y4241800D03*
D29*
G01*
X5702300Y3746500D03*
D30*
G01*
X3784600Y863600D03*
D31*
G01*
X3828694Y2843301D03*
G01*
X3828694Y3097301D03*
G01*
X3828694Y3351301D03*
G01*
X3828694Y3605301D03*
D32*
G01*
X3828694Y3859301D03*
D33*
G01*
X7315200Y1981200D03*
G01*
X7315200Y2235200D03*
G01*
X7315200Y2489200D03*
G01*
X7315200Y2743200D03*
D34*
G01*
X7315200Y2997200D03*
D13*
G01*
X3998925Y1257300D03*
G01*
X6899351Y1523187D03*
G01*
X5168569Y3548049D03*
G01*
X7132980Y1054100D03*
G01*
X7404709Y1495044D03*
G01*
X7350404Y1065707D03*
G01*
X6817664Y885621D03*
G01*
X6241186Y2775102D03*
G01*
X7223048Y3955465D03*
G01*
X4998948Y3038094D03*
G01*
X6603034Y2469210D03*
G01*
X6659067Y2161362D03*
G01*
X7082561Y3602507D03*
G01*
X7299426Y2364231D03*
G01*
X7364425Y1560474D03*
G01*
X6664020Y2924505D03*
G01*
X6660616Y2653614D03*
G01*
X5000497Y2386482D03*
G01*
X6247002Y1270000D03*
G01*
X5053863Y1641754D03*
G01*
X5152415Y1736521D03*
G01*
X7361021Y1786585D03*
G01*
X4214596Y2114981D03*
G01*
X6650354Y2395677D03*
G01*
X4999710Y2048408D03*
G01*
X5000472Y1804111D03*
G01*
X6982231Y1501190D03*
G01*
X5573140Y2286000D03*
G01*
X4817211Y806450D03*
G01*
X5384342Y3435680D03*
G01*
X6341795Y2492654D03*
G01*
X6846315Y3500018D03*
G01*
X4699888Y1785467D03*
G01*
X6609867Y1987651D03*
M02*
