G04 Layer: TopPasteMaskLayer*
G04 EasyEDA v6.5.1, 2022-03-21 16:47:25*
G04 955ef46bbe064569b540ea905b21d435,97f3a3507f384188ab3f8c3e8ba95b97,10*
G04 Gerber Generator version 0.2*
G04 Scale: 100 percent, Rotated: No, Reflected: No *
G04 Dimensions in millimeters *
G04 leading zeros omitted , absolute positions ,4 integer and 5 decimal *
%FSLAX45Y45*%
%MOMM*%

%ADD14R,2.0000X1.0000*%
%ADD16R,2.7000X3.7500*%
%ADD18R,1.3005X1.3995*%
%ADD20R,4.0640X1.5240*%
%ADD21R,2.0320X1.0160*%
%ADD22R,1.5494X0.9500*%
%ADD23R,0.9500X1.5494*%
%ADD24R,4.0000X4.0000*%
%ADD25R,0.5500X1.0000*%

%LPD*%
G36*
X4777790Y3741318D02*
G01*
X4772812Y3736289D01*
X4772812Y3608324D01*
X4777790Y3603294D01*
X4892802Y3603294D01*
X4897780Y3608324D01*
X4897323Y3650284D01*
X4853279Y3650284D01*
X4853279Y3695293D01*
X4898288Y3695293D01*
X4897780Y3736289D01*
X4892802Y3741318D01*
G37*
G36*
X4992776Y3741318D02*
G01*
X4987798Y3736289D01*
X4988306Y3695293D01*
X5032298Y3695293D01*
X5032298Y3650284D01*
X4987798Y3650284D01*
X4987798Y3608324D01*
X4992776Y3603294D01*
X5107787Y3603294D01*
X5112816Y3608324D01*
X5112816Y3736289D01*
X5107787Y3741318D01*
G37*
G36*
X4078224Y3012287D02*
G01*
X4073194Y3007309D01*
X4073194Y2892298D01*
X4078224Y2887319D01*
X4120184Y2887776D01*
X4120184Y2931820D01*
X4165193Y2931820D01*
X4165193Y2886811D01*
X4206189Y2887319D01*
X4211218Y2892298D01*
X4211218Y3007309D01*
X4206189Y3012287D01*
G37*
G36*
X4078224Y2797302D02*
G01*
X4073194Y2792323D01*
X4073194Y2677312D01*
X4078224Y2672283D01*
X4206189Y2672283D01*
X4211218Y2677312D01*
X4211218Y2792323D01*
X4206189Y2797302D01*
X4165193Y2796794D01*
X4165193Y2752801D01*
X4120184Y2752801D01*
X4120184Y2797302D01*
G37*
G36*
X7075424Y1005687D02*
G01*
X7070394Y1000709D01*
X7070394Y885698D01*
X7075424Y880719D01*
X7117384Y881176D01*
X7117384Y925220D01*
X7162393Y925220D01*
X7162393Y880211D01*
X7203389Y880719D01*
X7208418Y885698D01*
X7208418Y1000709D01*
X7203389Y1005687D01*
G37*
G36*
X7075424Y790702D02*
G01*
X7070394Y785723D01*
X7070394Y670712D01*
X7075424Y665683D01*
X7203389Y665683D01*
X7208418Y670712D01*
X7208418Y785723D01*
X7203389Y790702D01*
X7162393Y790194D01*
X7162393Y746201D01*
X7117384Y746201D01*
X7117384Y790702D01*
G37*
G36*
X7328306Y808888D02*
G01*
X7287310Y808380D01*
X7282281Y803402D01*
X7282281Y688390D01*
X7287310Y683412D01*
X7415275Y683412D01*
X7420305Y688390D01*
X7420305Y803402D01*
X7415275Y808380D01*
X7373315Y807923D01*
X7373315Y763879D01*
X7328306Y763879D01*
G37*
G36*
X7287310Y1023416D02*
G01*
X7282281Y1018387D01*
X7282281Y903376D01*
X7287310Y898398D01*
X7328306Y898906D01*
X7328306Y942898D01*
X7373315Y942898D01*
X7373315Y898398D01*
X7415275Y898398D01*
X7420305Y903376D01*
X7420305Y1018387D01*
X7415275Y1023416D01*
G37*
G36*
X6923024Y1437487D02*
G01*
X6917994Y1432509D01*
X6917994Y1317498D01*
X6923024Y1312519D01*
X6964984Y1312976D01*
X6964984Y1357020D01*
X7009993Y1357020D01*
X7009993Y1312011D01*
X7050989Y1312519D01*
X7056018Y1317498D01*
X7056018Y1432509D01*
X7050989Y1437487D01*
G37*
G36*
X6923024Y1222502D02*
G01*
X6917994Y1217523D01*
X6917994Y1102512D01*
X6923024Y1097483D01*
X7050989Y1097483D01*
X7056018Y1102512D01*
X7056018Y1217523D01*
X7050989Y1222502D01*
X7009993Y1221994D01*
X7009993Y1178001D01*
X6964984Y1178001D01*
X6964984Y1222502D01*
G37*
G36*
X4505198Y2556205D02*
G01*
X4500219Y2551176D01*
X4500676Y2509215D01*
X4544720Y2509215D01*
X4544720Y2464206D01*
X4499711Y2464206D01*
X4500219Y2423210D01*
X4505198Y2418181D01*
X4620209Y2418181D01*
X4625187Y2423210D01*
X4625187Y2551176D01*
X4620209Y2556205D01*
G37*
G36*
X4290212Y2556205D02*
G01*
X4285183Y2551176D01*
X4285183Y2423210D01*
X4290212Y2418181D01*
X4405223Y2418181D01*
X4410202Y2423210D01*
X4409694Y2464206D01*
X4365701Y2464206D01*
X4365701Y2509215D01*
X4410202Y2509215D01*
X4410202Y2551176D01*
X4405223Y2556205D01*
G37*
G36*
X6524498Y4042105D02*
G01*
X6519519Y4037076D01*
X6519976Y3995115D01*
X6564020Y3995115D01*
X6564020Y3950106D01*
X6519011Y3950106D01*
X6519519Y3909110D01*
X6524498Y3904081D01*
X6639509Y3904081D01*
X6644487Y3909110D01*
X6644487Y4037076D01*
X6639509Y4042105D01*
G37*
G36*
X6309512Y4042105D02*
G01*
X6304483Y4037076D01*
X6304483Y3909110D01*
X6309512Y3904081D01*
X6424523Y3904081D01*
X6429502Y3909110D01*
X6428994Y3950106D01*
X6385001Y3950106D01*
X6385001Y3995115D01*
X6429502Y3995115D01*
X6429502Y4037076D01*
X6424523Y4042105D01*
G37*
G36*
X4815890Y4477918D02*
G01*
X4810912Y4472889D01*
X4810912Y4344924D01*
X4815890Y4339894D01*
X4930902Y4339894D01*
X4935880Y4344924D01*
X4935423Y4386884D01*
X4891379Y4386884D01*
X4891379Y4431893D01*
X4936388Y4431893D01*
X4935880Y4472889D01*
X4930902Y4477918D01*
G37*
G36*
X5030876Y4477918D02*
G01*
X5025898Y4472889D01*
X5026406Y4431893D01*
X5070398Y4431893D01*
X5070398Y4386884D01*
X5025898Y4386884D01*
X5025898Y4344924D01*
X5030876Y4339894D01*
X5145887Y4339894D01*
X5150916Y4344924D01*
X5150916Y4472889D01*
X5145887Y4477918D01*
G37*
G36*
X4803190Y4249318D02*
G01*
X4798212Y4244289D01*
X4798212Y4116324D01*
X4803190Y4111294D01*
X4918202Y4111294D01*
X4923180Y4116324D01*
X4922723Y4158284D01*
X4878679Y4158284D01*
X4878679Y4203293D01*
X4923688Y4203293D01*
X4923180Y4244289D01*
X4918202Y4249318D01*
G37*
G36*
X5018176Y4249318D02*
G01*
X5013198Y4244289D01*
X5013706Y4203293D01*
X5057698Y4203293D01*
X5057698Y4158284D01*
X5013198Y4158284D01*
X5013198Y4116324D01*
X5018176Y4111294D01*
X5133187Y4111294D01*
X5138216Y4116324D01*
X5138216Y4244289D01*
X5133187Y4249318D01*
G37*
G36*
X7314387Y1745386D02*
G01*
X7309408Y1740407D01*
X7309916Y1698396D01*
X7353909Y1698396D01*
X7353909Y1653387D01*
X7308900Y1653387D01*
X7309408Y1612392D01*
X7314387Y1607413D01*
X7429398Y1607413D01*
X7434427Y1612392D01*
X7434427Y1740407D01*
X7429398Y1745386D01*
G37*
G36*
X7099401Y1745386D02*
G01*
X7094423Y1740407D01*
X7094423Y1612392D01*
X7099401Y1607413D01*
X7214412Y1607413D01*
X7219391Y1612392D01*
X7218883Y1653387D01*
X7174890Y1653387D01*
X7174890Y1698396D01*
X7219391Y1698396D01*
X7219391Y1740407D01*
X7214412Y1745386D01*
G37*
G36*
X4064101Y3726586D02*
G01*
X4059072Y3721608D01*
X4059072Y3593592D01*
X4064101Y3588613D01*
X4179112Y3588613D01*
X4184091Y3593592D01*
X4183583Y3635603D01*
X4139590Y3635603D01*
X4139590Y3680612D01*
X4184599Y3680612D01*
X4184091Y3721608D01*
X4179112Y3726586D01*
G37*
G36*
X4279087Y3726586D02*
G01*
X4274108Y3721608D01*
X4274616Y3680612D01*
X4318609Y3680612D01*
X4318609Y3635603D01*
X4274108Y3635603D01*
X4274108Y3593592D01*
X4279087Y3588613D01*
X4394098Y3588613D01*
X4399076Y3593592D01*
X4399076Y3721608D01*
X4394098Y3726586D01*
G37*
G36*
X4280001Y2050186D02*
G01*
X4274972Y2045207D01*
X4274972Y1917192D01*
X4280001Y1912213D01*
X4395012Y1912213D01*
X4399991Y1917192D01*
X4399483Y1959203D01*
X4355490Y1959203D01*
X4355490Y2004212D01*
X4400499Y2004212D01*
X4399991Y2045207D01*
X4395012Y2050186D01*
G37*
G36*
X4494987Y2050186D02*
G01*
X4490008Y2045207D01*
X4490516Y2004212D01*
X4534509Y2004212D01*
X4534509Y1959203D01*
X4490008Y1959203D01*
X4490008Y1917192D01*
X4494987Y1912213D01*
X4609998Y1912213D01*
X4614976Y1917192D01*
X4614976Y2045207D01*
X4609998Y2050186D01*
G37*
G36*
X4507687Y2316886D02*
G01*
X4502708Y2311908D01*
X4503216Y2269896D01*
X4547209Y2269896D01*
X4547209Y2224887D01*
X4502200Y2224887D01*
X4502708Y2183892D01*
X4507687Y2178913D01*
X4622698Y2178913D01*
X4627727Y2183892D01*
X4627727Y2311908D01*
X4622698Y2316886D01*
G37*
G36*
X4292701Y2316886D02*
G01*
X4287723Y2311908D01*
X4287723Y2183892D01*
X4292701Y2178913D01*
X4407712Y2178913D01*
X4412691Y2183892D01*
X4412183Y2224887D01*
X4368190Y2224887D01*
X4368190Y2269896D01*
X4412691Y2269896D01*
X4412691Y2311908D01*
X4407712Y2316886D01*
G37*
G36*
X4280001Y1808886D02*
G01*
X4274972Y1803907D01*
X4274972Y1675892D01*
X4280001Y1670913D01*
X4395012Y1670913D01*
X4399991Y1675892D01*
X4399483Y1717903D01*
X4355490Y1717903D01*
X4355490Y1762912D01*
X4400499Y1762912D01*
X4399991Y1803907D01*
X4395012Y1808886D01*
G37*
G36*
X4494987Y1808886D02*
G01*
X4490008Y1803907D01*
X4490516Y1762912D01*
X4534509Y1762912D01*
X4534509Y1717903D01*
X4490008Y1717903D01*
X4490008Y1675892D01*
X4494987Y1670913D01*
X4609998Y1670913D01*
X4614976Y1675892D01*
X4614976Y1803907D01*
X4609998Y1808886D01*
G37*
G36*
X7112101Y1453286D02*
G01*
X7107072Y1448308D01*
X7107072Y1320292D01*
X7112101Y1315313D01*
X7227112Y1315313D01*
X7232091Y1320292D01*
X7231583Y1362303D01*
X7187590Y1362303D01*
X7187590Y1407312D01*
X7232599Y1407312D01*
X7232091Y1448308D01*
X7227112Y1453286D01*
G37*
G36*
X7327087Y1453286D02*
G01*
X7322108Y1448308D01*
X7322616Y1407312D01*
X7366609Y1407312D01*
X7366609Y1362303D01*
X7322108Y1362303D01*
X7322108Y1320292D01*
X7327087Y1315313D01*
X7442098Y1315313D01*
X7447076Y1320292D01*
X7447076Y1448308D01*
X7442098Y1453286D01*
G37*
G36*
X4775301Y3980586D02*
G01*
X4770272Y3975608D01*
X4770272Y3847592D01*
X4775301Y3842613D01*
X4890312Y3842613D01*
X4895291Y3847592D01*
X4894783Y3889603D01*
X4850790Y3889603D01*
X4850790Y3934612D01*
X4895799Y3934612D01*
X4895291Y3975608D01*
X4890312Y3980586D01*
G37*
G36*
X4990287Y3980586D02*
G01*
X4985308Y3975608D01*
X4985816Y3934612D01*
X5029809Y3934612D01*
X5029809Y3889603D01*
X4985308Y3889603D01*
X4985308Y3847592D01*
X4990287Y3842613D01*
X5105298Y3842613D01*
X5110276Y3847592D01*
X5110276Y3975608D01*
X5105298Y3980586D01*
G37*
G36*
X6648297Y3898087D02*
G01*
X6848297Y3898087D01*
X6848297Y3798087D01*
X6648297Y3798087D01*
G37*
G36*
X7248499Y3898087D02*
G01*
X7448499Y3898087D01*
X7448499Y3798087D01*
X7248499Y3798087D01*
G37*
D16*
G01*
X3848100Y1667205D03*
G01*
X3848100Y2422194D03*
D14*
G01*
X7348702Y4305300D03*
G01*
X6748500Y4305300D03*
D18*
G01*
X6569456Y3581272D03*
G01*
X6359397Y3581272D03*
D20*
G01*
X4572000Y1282700D03*
G01*
X4572000Y774700D03*
D21*
G01*
X4673600Y1028700D03*
G36*
X6861606Y1337513D02*
G01*
X6706615Y1337513D01*
X6706615Y1432509D01*
X6861606Y1432509D01*
G37*
G36*
X6857415Y1464310D02*
G01*
X6702425Y1464310D01*
X6702425Y1559305D01*
X6857415Y1559305D01*
G37*
D22*
G01*
X6779945Y1638884D03*
G01*
X6779818Y1765884D03*
G36*
X6857365Y1845310D02*
G01*
X6702374Y1845310D01*
X6702374Y1940305D01*
X6857365Y1940305D01*
G37*
G36*
X6857161Y1972106D02*
G01*
X6702170Y1972106D01*
X6702170Y2067102D01*
X6857161Y2067102D01*
G37*
G01*
X6779818Y2146706D03*
G36*
X6857161Y2226335D02*
G01*
X6702170Y2226335D01*
X6702170Y2321331D01*
X6857161Y2321331D01*
G37*
G01*
X6779717Y2400706D03*
G01*
X6780072Y2527604D03*
G36*
X6857491Y2607081D02*
G01*
X6702501Y2607081D01*
X6702501Y2702077D01*
X6857491Y2702077D01*
G37*
G36*
X6704888Y2829077D02*
G01*
X6859879Y2829077D01*
X6859879Y2734081D01*
X6704888Y2734081D01*
G37*
G36*
X6704634Y2956839D02*
G01*
X6859625Y2956839D01*
X6859625Y2861843D01*
X6704634Y2861843D01*
G37*
G36*
X6704279Y3085566D02*
G01*
X6859295Y3085566D01*
X6859295Y2990570D01*
X6704279Y2990570D01*
G37*
D23*
G01*
X6402704Y3236518D03*
G01*
X6273901Y3236188D03*
G01*
X6146647Y3236188D03*
G01*
X6019723Y3236340D03*
G01*
X5892749Y3236315D03*
G01*
X5765800Y3236239D03*
G01*
X5638596Y3234486D03*
G36*
X5559323Y3312566D02*
G01*
X5559323Y3157575D01*
X5464327Y3157575D01*
X5464327Y3312566D01*
G37*
G36*
X5431840Y3310915D02*
G01*
X5431840Y3155924D01*
X5336844Y3155924D01*
X5336844Y3310915D01*
G37*
G36*
X5305247Y3311550D02*
G01*
X5305247Y3156559D01*
X5210251Y3156559D01*
X5210251Y3311550D01*
G37*
G36*
X4958156Y2226310D02*
G01*
X4803165Y2226310D01*
X4803165Y2321331D01*
X4958156Y2321331D01*
G37*
G36*
X4958257Y2353208D02*
G01*
X4803266Y2353208D01*
X4803266Y2448204D01*
X4958257Y2448204D01*
G37*
G36*
X4958206Y2480106D02*
G01*
X4803216Y2480106D01*
X4803216Y2575102D01*
X4958206Y2575102D01*
G37*
G36*
X4958283Y2607055D02*
G01*
X4803292Y2607055D01*
X4803292Y2702077D01*
X4958283Y2702077D01*
G37*
G36*
X4958257Y2734106D02*
G01*
X4803266Y2734106D01*
X4803266Y2829077D01*
X4958257Y2829077D01*
G37*
G36*
X4958079Y2861360D02*
G01*
X4803089Y2861360D01*
X4803089Y2956356D01*
X4958079Y2956356D01*
G37*
G36*
X4958206Y2988462D02*
G01*
X4803216Y2988462D01*
X4803216Y3083458D01*
X4958206Y3083458D01*
G37*
G36*
X4958156Y2099182D02*
G01*
X4803165Y2099182D01*
X4803165Y2194204D01*
X4958156Y2194204D01*
G37*
G36*
X4958257Y1972081D02*
G01*
X4803266Y1972081D01*
X4803266Y2067102D01*
X4958257Y2067102D01*
G37*
G36*
X4958156Y1845284D02*
G01*
X4803165Y1845284D01*
X4803165Y1940305D01*
X4958156Y1940305D01*
G37*
G36*
X4958156Y1718360D02*
G01*
X4803165Y1718360D01*
X4803165Y1813382D01*
X4958156Y1813382D01*
G37*
G36*
X4958156Y1591360D02*
G01*
X4803165Y1591360D01*
X4803165Y1686382D01*
X4958156Y1686382D01*
G37*
G36*
X4958156Y1464284D02*
G01*
X4803165Y1464284D01*
X4803165Y1559305D01*
X4958156Y1559305D01*
G37*
G36*
X4958156Y1337487D02*
G01*
X4803165Y1337487D01*
X4803165Y1432509D01*
X4958156Y1432509D01*
G37*
D24*
G01*
X5901004Y2254986D03*
D25*
G01*
X4368800Y2705100D03*
G01*
X4463795Y2705100D03*
G01*
X4558791Y2705100D03*
G01*
X4558791Y2975076D03*
G01*
X4368800Y2975076D03*
G01*
X4463795Y2975076D03*
G36*
X6253861Y4261104D02*
G01*
X6308979Y4261104D01*
X6308979Y4141215D01*
X6253861Y4141215D01*
G37*
G36*
X6347840Y4261104D02*
G01*
X6402959Y4261104D01*
X6402959Y4141215D01*
X6347840Y4141215D01*
G37*
G36*
X6441820Y4261104D02*
G01*
X6496938Y4261104D01*
X6496938Y4141215D01*
X6441820Y4141215D01*
G37*
G36*
X6441820Y4520184D02*
G01*
X6496938Y4520184D01*
X6496938Y4400295D01*
X6441820Y4400295D01*
G37*
G36*
X6253861Y4520184D02*
G01*
X6308979Y4520184D01*
X6308979Y4400295D01*
X6253861Y4400295D01*
G37*
M02*
