M48
; DRILL file {KiCad 5.1.6-c6e7f7d~87~ubuntu18.04.1} date Sat Aug 29 18:15:33 2020
; FORMAT={3:3/ absolute / metric / suppress leading zeros}
; #@! TF.CreationDate,2020-08-29T18:15:33+05:30
; #@! TF.GenerationSoftware,Kicad,Pcbnew,5.1.6-c6e7f7d~87~ubuntu18.04.1
FMAT,2
METRIC,TZ
T1C0.600
T2C0.762
T3C0.800
T4C0.900
T5C1.000
T6C1.100
T7C1.500
T8C0.900
%
G90
G05
T1
X100564Y-22951
X101031Y-29649
X101448Y-36835
X103391Y-36304
X105385Y-22708
X106462Y-30467
X107922Y-40009
X109035Y-31542
X109073Y-24470
X109266Y-37456
X109451Y-33042
X109676Y-34826
X110726Y-20378
X110835Y-29649
X111196Y-31069
X111420Y-43744
X112271Y-40587
X113603Y-35183
X113762Y-25408
X113948Y-27906
X114356Y-36736
X114574Y-32987
X114684Y-20477
X115395Y-29375
X115631Y-43119
X116060Y-35847
X116959Y-34519
X117163Y-33076
X117800Y-37258
X117958Y-41049
X118710Y-35174
X119286Y-42776
X121158Y-39433
X123403Y-43642
X123634Y-41123
X126134Y-26068
X126233Y-28857
X126393Y-23398
X126959Y-31669
X128087Y-36195
X128857Y-26924
X129817Y-40419
X135090Y-27765
X139258Y-27160
X142618Y-42715
X145816Y-26528
X146040Y-34171
X147315Y-39400
X149301Y-35748
T2
X149499Y-24453
X149499Y-26993
X149499Y-29533
X149499Y-32073
X98560Y-31448
X98570Y-33988
X98545Y-23511
X98555Y-26051
T3
X107904Y-21435
X112784Y-21435
X132374Y-21435
X137254Y-21435
T4
X123619Y-32375
X123619Y-37455
T5
X145440Y-46350
X118928Y-20234
X121468Y-20234
X124008Y-20234
X126548Y-20234
X98826Y-38443
X98826Y-40983
X98826Y-43523
X98826Y-46063
X115941Y-45878
X118481Y-45878
X121021Y-45878
X123561Y-45878
T6
X103761Y-41162
X103761Y-45662
X110261Y-41162
X110261Y-45662
T7
X150866Y-19700
X95499Y-19700
X95783Y-46750
X150860Y-46759
T8
X149268Y-37108
X149268Y-40108
T0
M30
