G04 #@! TF.GenerationSoftware,KiCad,Pcbnew,5.1.6-c6e7f7d~87~ubuntu18.04.1*
G04 #@! TF.CreationDate,2020-08-29T18:15:57+05:30*
G04 #@! TF.ProjectId,Sensor_pcb_v2,53656e73-6f72-45f7-9063-625f76322e6b,rev?*
G04 #@! TF.SameCoordinates,Original*
G04 #@! TF.FileFunction,Legend,Top*
G04 #@! TF.FilePolarity,Positive*
%FSLAX46Y46*%
G04 Gerber Fmt 4.6, Leading zero omitted, Abs format (unit mm)*
G04 Created by KiCad (PCBNEW 5.1.6-c6e7f7d~87~ubuntu18.04.1) date 2020-08-29 18:15:57*
%MOMM*%
%LPD*%
G01*
G04 APERTURE LIST*
%ADD10C,0.100000*%
%ADD11C,0.080000*%
%ADD12C,0.200000*%
%ADD13C,0.050000*%
%ADD14C,0.150000*%
%ADD15C,0.127000*%
%ADD16C,0.120000*%
G04 APERTURE END LIST*
D10*
X142551495Y-44215346D02*
X143027685Y-44215346D01*
X142456257Y-44501060D02*
X142789590Y-43501060D01*
X143122923Y-44501060D01*
X143456257Y-43834394D02*
X143456257Y-44501060D01*
X143456257Y-43929632D02*
X143503876Y-43882013D01*
X143599114Y-43834394D01*
X143741971Y-43834394D01*
X143837209Y-43882013D01*
X143884828Y-43977251D01*
X143884828Y-44501060D01*
X144218161Y-43834394D02*
X144599114Y-43834394D01*
X144361019Y-43501060D02*
X144361019Y-44358203D01*
X144408638Y-44453441D01*
X144503876Y-44501060D01*
X144599114Y-44501060D01*
X145313400Y-44453441D02*
X145218161Y-44501060D01*
X145027685Y-44501060D01*
X144932447Y-44453441D01*
X144884828Y-44358203D01*
X144884828Y-43977251D01*
X144932447Y-43882013D01*
X145027685Y-43834394D01*
X145218161Y-43834394D01*
X145313400Y-43882013D01*
X145361019Y-43977251D01*
X145361019Y-44072489D01*
X144884828Y-44167727D01*
X145789590Y-43834394D02*
X145789590Y-44501060D01*
X145789590Y-43929632D02*
X145837209Y-43882013D01*
X145932447Y-43834394D01*
X146075304Y-43834394D01*
X146170542Y-43882013D01*
X146218161Y-43977251D01*
X146218161Y-44501060D01*
X146694352Y-43834394D02*
X146694352Y-44501060D01*
X146694352Y-43929632D02*
X146741971Y-43882013D01*
X146837209Y-43834394D01*
X146980066Y-43834394D01*
X147075304Y-43882013D01*
X147122923Y-43977251D01*
X147122923Y-44501060D01*
X148027685Y-44501060D02*
X148027685Y-43977251D01*
X147980066Y-43882013D01*
X147884828Y-43834394D01*
X147694352Y-43834394D01*
X147599114Y-43882013D01*
X148027685Y-44453441D02*
X147932447Y-44501060D01*
X147694352Y-44501060D01*
X147599114Y-44453441D01*
X147551495Y-44358203D01*
X147551495Y-44262965D01*
X147599114Y-44167727D01*
X147694352Y-44120108D01*
X147932447Y-44120108D01*
X148027685Y-44072489D01*
D11*
X100985367Y-46079600D02*
X100937748Y-46055790D01*
X100866320Y-46055790D01*
X100794891Y-46079600D01*
X100747272Y-46127219D01*
X100723462Y-46174838D01*
X100699653Y-46270076D01*
X100699653Y-46341504D01*
X100723462Y-46436742D01*
X100747272Y-46484361D01*
X100794891Y-46531980D01*
X100866320Y-46555790D01*
X100913939Y-46555790D01*
X100985367Y-46531980D01*
X101009177Y-46508171D01*
X101009177Y-46341504D01*
X100913939Y-46341504D01*
X101223462Y-46555790D02*
X101223462Y-46055790D01*
X101509177Y-46555790D01*
X101509177Y-46055790D01*
X101747272Y-46555790D02*
X101747272Y-46055790D01*
X101866320Y-46055790D01*
X101937748Y-46079600D01*
X101985367Y-46127219D01*
X102009177Y-46174838D01*
X102032986Y-46270076D01*
X102032986Y-46341504D01*
X102009177Y-46436742D01*
X101985367Y-46484361D01*
X101937748Y-46531980D01*
X101866320Y-46555790D01*
X101747272Y-46555790D01*
X100557947Y-43946260D02*
X100629376Y-43970070D01*
X100748423Y-43970070D01*
X100796042Y-43946260D01*
X100819852Y-43922451D01*
X100843661Y-43874832D01*
X100843661Y-43827213D01*
X100819852Y-43779594D01*
X100796042Y-43755784D01*
X100748423Y-43731975D01*
X100653185Y-43708165D01*
X100605566Y-43684356D01*
X100581757Y-43660546D01*
X100557947Y-43612927D01*
X100557947Y-43565308D01*
X100581757Y-43517689D01*
X100605566Y-43493880D01*
X100653185Y-43470070D01*
X100772233Y-43470070D01*
X100843661Y-43493880D01*
X101010328Y-43470070D02*
X101129376Y-43970070D01*
X101224614Y-43612927D01*
X101319852Y-43970070D01*
X101438900Y-43470070D01*
X101915090Y-43922451D02*
X101891280Y-43946260D01*
X101819852Y-43970070D01*
X101772233Y-43970070D01*
X101700804Y-43946260D01*
X101653185Y-43898641D01*
X101629376Y-43851022D01*
X101605566Y-43755784D01*
X101605566Y-43684356D01*
X101629376Y-43589118D01*
X101653185Y-43541499D01*
X101700804Y-43493880D01*
X101772233Y-43470070D01*
X101819852Y-43470070D01*
X101891280Y-43493880D01*
X101915090Y-43517689D01*
X102367471Y-43970070D02*
X102129376Y-43970070D01*
X102129376Y-43470070D01*
X102534138Y-43970070D02*
X102534138Y-43470070D01*
X102819852Y-43970070D02*
X102605566Y-43684356D01*
X102819852Y-43470070D02*
X102534138Y-43755784D01*
X100579656Y-41495160D02*
X100651084Y-41518970D01*
X100770132Y-41518970D01*
X100817751Y-41495160D01*
X100841560Y-41471351D01*
X100865370Y-41423732D01*
X100865370Y-41376113D01*
X100841560Y-41328494D01*
X100817751Y-41304684D01*
X100770132Y-41280875D01*
X100674894Y-41257065D01*
X100627275Y-41233256D01*
X100603465Y-41209446D01*
X100579656Y-41161827D01*
X100579656Y-41114208D01*
X100603465Y-41066589D01*
X100627275Y-41042780D01*
X100674894Y-41018970D01*
X100793941Y-41018970D01*
X100865370Y-41042780D01*
X101032037Y-41018970D02*
X101151084Y-41518970D01*
X101246322Y-41161827D01*
X101341560Y-41518970D01*
X101460608Y-41018970D01*
X101651084Y-41518970D02*
X101651084Y-41018970D01*
X101984418Y-41018970D02*
X102079656Y-41018970D01*
X102127275Y-41042780D01*
X102174894Y-41090399D01*
X102198703Y-41185637D01*
X102198703Y-41352303D01*
X102174894Y-41447541D01*
X102127275Y-41495160D01*
X102079656Y-41518970D01*
X101984418Y-41518970D01*
X101936799Y-41495160D01*
X101889180Y-41447541D01*
X101865370Y-41352303D01*
X101865370Y-41185637D01*
X101889180Y-41090399D01*
X101936799Y-41042780D01*
X101984418Y-41018970D01*
X100480928Y-38110670D02*
X100790452Y-38110670D01*
X100623785Y-38301146D01*
X100695214Y-38301146D01*
X100742833Y-38324956D01*
X100766642Y-38348765D01*
X100790452Y-38396384D01*
X100790452Y-38515432D01*
X100766642Y-38563051D01*
X100742833Y-38586860D01*
X100695214Y-38610670D01*
X100552357Y-38610670D01*
X100504738Y-38586860D01*
X100480928Y-38563051D01*
X101004738Y-38563051D02*
X101028547Y-38586860D01*
X101004738Y-38610670D01*
X100980928Y-38586860D01*
X101004738Y-38563051D01*
X101004738Y-38610670D01*
X101195214Y-38110670D02*
X101504738Y-38110670D01*
X101338071Y-38301146D01*
X101409500Y-38301146D01*
X101457119Y-38324956D01*
X101480928Y-38348765D01*
X101504738Y-38396384D01*
X101504738Y-38515432D01*
X101480928Y-38563051D01*
X101457119Y-38586860D01*
X101409500Y-38610670D01*
X101266642Y-38610670D01*
X101219023Y-38586860D01*
X101195214Y-38563051D01*
X102028547Y-38110670D02*
X102195214Y-38610670D01*
X102361880Y-38110670D01*
X118563781Y-22580754D02*
X118944734Y-22580754D01*
X118754258Y-22771230D02*
X118754258Y-22390278D01*
X119135210Y-22437897D02*
X119254258Y-22771230D01*
X119373305Y-22437897D01*
X119754258Y-22747420D02*
X119706639Y-22771230D01*
X119611400Y-22771230D01*
X119563781Y-22747420D01*
X119539972Y-22699801D01*
X119539972Y-22509325D01*
X119563781Y-22461706D01*
X119611400Y-22437897D01*
X119706639Y-22437897D01*
X119754258Y-22461706D01*
X119778067Y-22509325D01*
X119778067Y-22556944D01*
X119539972Y-22604563D01*
X120929162Y-22271230D02*
X121214877Y-22271230D01*
X121072020Y-22771230D02*
X121072020Y-22271230D01*
X121381543Y-22771230D02*
X121381543Y-22437897D01*
X121381543Y-22533135D02*
X121405353Y-22485516D01*
X121429162Y-22461706D01*
X121476781Y-22437897D01*
X121524400Y-22437897D01*
X121691067Y-22771230D02*
X121691067Y-22437897D01*
X121691067Y-22271230D02*
X121667258Y-22295040D01*
X121691067Y-22318849D01*
X121714877Y-22295040D01*
X121691067Y-22271230D01*
X121691067Y-22318849D01*
X122143448Y-22437897D02*
X122143448Y-22842659D01*
X122119639Y-22890278D01*
X122095829Y-22914087D01*
X122048210Y-22937897D01*
X121976781Y-22937897D01*
X121929162Y-22914087D01*
X122143448Y-22747420D02*
X122095829Y-22771230D01*
X122000591Y-22771230D01*
X121952972Y-22747420D01*
X121929162Y-22723611D01*
X121905353Y-22675992D01*
X121905353Y-22533135D01*
X121929162Y-22485516D01*
X121952972Y-22461706D01*
X122000591Y-22437897D01*
X122095829Y-22437897D01*
X122143448Y-22461706D01*
X123424570Y-22575365D02*
X123591237Y-22575365D01*
X123662665Y-22837270D02*
X123424570Y-22837270D01*
X123424570Y-22337270D01*
X123662665Y-22337270D01*
X124091237Y-22813460D02*
X124043618Y-22837270D01*
X123948380Y-22837270D01*
X123900760Y-22813460D01*
X123876951Y-22789651D01*
X123853141Y-22742032D01*
X123853141Y-22599175D01*
X123876951Y-22551556D01*
X123900760Y-22527746D01*
X123948380Y-22503937D01*
X124043618Y-22503937D01*
X124091237Y-22527746D01*
X124305522Y-22837270D02*
X124305522Y-22337270D01*
X124519808Y-22837270D02*
X124519808Y-22575365D01*
X124495999Y-22527746D01*
X124448380Y-22503937D01*
X124376951Y-22503937D01*
X124329332Y-22527746D01*
X124305522Y-22551556D01*
X124829332Y-22837270D02*
X124781713Y-22813460D01*
X124757903Y-22789651D01*
X124734094Y-22742032D01*
X124734094Y-22599175D01*
X124757903Y-22551556D01*
X124781713Y-22527746D01*
X124829332Y-22503937D01*
X124900760Y-22503937D01*
X124948380Y-22527746D01*
X124972189Y-22551556D01*
X124995999Y-22599175D01*
X124995999Y-22742032D01*
X124972189Y-22789651D01*
X124948380Y-22813460D01*
X124900760Y-22837270D01*
X124829332Y-22837270D01*
D12*
X152424379Y-35124140D02*
X152424379Y-35314617D01*
X152376760Y-35409855D01*
X152281521Y-35505093D01*
X152091045Y-35552712D01*
X151757712Y-35552712D01*
X151567236Y-35505093D01*
X151471998Y-35409855D01*
X151424379Y-35314617D01*
X151424379Y-35124140D01*
X151471998Y-35028902D01*
X151567236Y-34933664D01*
X151757712Y-34886045D01*
X152091045Y-34886045D01*
X152281521Y-34933664D01*
X152376760Y-35028902D01*
X152424379Y-35124140D01*
X152091045Y-35981283D02*
X151424379Y-35981283D01*
X151995807Y-35981283D02*
X152043426Y-36028902D01*
X152091045Y-36124140D01*
X152091045Y-36266998D01*
X152043426Y-36362236D01*
X151948188Y-36409855D01*
X151424379Y-36409855D01*
X152424379Y-41852933D02*
X152424379Y-42043409D01*
X152376760Y-42138647D01*
X152281521Y-42233885D01*
X152091045Y-42281504D01*
X151757712Y-42281504D01*
X151567236Y-42233885D01*
X151471998Y-42138647D01*
X151424379Y-42043409D01*
X151424379Y-41852933D01*
X151471998Y-41757695D01*
X151567236Y-41662457D01*
X151757712Y-41614838D01*
X152091045Y-41614838D01*
X152281521Y-41662457D01*
X152376760Y-41757695D01*
X152424379Y-41852933D01*
X152091045Y-42567219D02*
X152091045Y-42948171D01*
X151424379Y-42710076D02*
X152281521Y-42710076D01*
X152376760Y-42757695D01*
X152424379Y-42852933D01*
X152424379Y-42948171D01*
X152091045Y-43138647D02*
X152091045Y-43519600D01*
X151424379Y-43281504D02*
X152281521Y-43281504D01*
X152376760Y-43329123D01*
X152424379Y-43424361D01*
X152424379Y-43519600D01*
D13*
X95252385Y-33882721D02*
X95252385Y-34263674D01*
X95061909Y-34073198D02*
X95442861Y-34073198D01*
X95395242Y-34454150D02*
X95061909Y-34573198D01*
X95395242Y-34692245D01*
X95085719Y-35073198D02*
X95061909Y-35025579D01*
X95061909Y-34930340D01*
X95085719Y-34882721D01*
X95133338Y-34858912D01*
X95323814Y-34858912D01*
X95371433Y-34882721D01*
X95395242Y-34930340D01*
X95395242Y-35025579D01*
X95371433Y-35073198D01*
X95323814Y-35097007D01*
X95276195Y-35097007D01*
X95228576Y-34858912D01*
X95153325Y-29257381D02*
X95153325Y-29638334D01*
X95296182Y-29828810D02*
X94962849Y-29947858D01*
X95296182Y-30066905D01*
X94986659Y-30447858D02*
X94962849Y-30400239D01*
X94962849Y-30305000D01*
X94986659Y-30257381D01*
X95034278Y-30233572D01*
X95224754Y-30233572D01*
X95272373Y-30257381D01*
X95296182Y-30305000D01*
X95296182Y-30400239D01*
X95272373Y-30447858D01*
X95224754Y-30471667D01*
X95177135Y-30471667D01*
X95129516Y-30233572D01*
X95667782Y-20880309D02*
X95375955Y-21125181D01*
X95321869Y-21357051D02*
X95016410Y-21178225D01*
X95139477Y-21510096D01*
X94648693Y-21517858D02*
X94669867Y-21469010D01*
X94742823Y-21407792D01*
X94794606Y-21395423D01*
X94843454Y-21416596D01*
X94965890Y-21562510D01*
X94978260Y-21614292D01*
X94957086Y-21663141D01*
X94884129Y-21724358D01*
X94832346Y-21736728D01*
X94783498Y-21715554D01*
X94752889Y-21679076D01*
X94904672Y-21489553D01*
X95110145Y-26986621D02*
X95110145Y-27367574D01*
X94919669Y-27177098D02*
X95300621Y-27177098D01*
X95253002Y-27558050D02*
X94919669Y-27677098D01*
X95253002Y-27796145D01*
X94943479Y-28177098D02*
X94919669Y-28129479D01*
X94919669Y-28034240D01*
X94943479Y-27986621D01*
X94991098Y-27962812D01*
X95181574Y-27962812D01*
X95229193Y-27986621D01*
X95253002Y-28034240D01*
X95253002Y-28129479D01*
X95229193Y-28177098D01*
X95181574Y-28200907D01*
X95133955Y-28200907D01*
X95086336Y-27962812D01*
D10*
X150663708Y-24036530D02*
X150973232Y-24036530D01*
X150806565Y-24227006D01*
X150877994Y-24227006D01*
X150925613Y-24250816D01*
X150949422Y-24274625D01*
X150973232Y-24322244D01*
X150973232Y-24441292D01*
X150949422Y-24488911D01*
X150925613Y-24512720D01*
X150877994Y-24536530D01*
X150735137Y-24536530D01*
X150687518Y-24512720D01*
X150663708Y-24488911D01*
X151187518Y-24488911D02*
X151211327Y-24512720D01*
X151187518Y-24536530D01*
X151163708Y-24512720D01*
X151187518Y-24488911D01*
X151187518Y-24536530D01*
X151377994Y-24036530D02*
X151687518Y-24036530D01*
X151520851Y-24227006D01*
X151592280Y-24227006D01*
X151639899Y-24250816D01*
X151663708Y-24274625D01*
X151687518Y-24322244D01*
X151687518Y-24441292D01*
X151663708Y-24488911D01*
X151639899Y-24512720D01*
X151592280Y-24536530D01*
X151449422Y-24536530D01*
X151401803Y-24512720D01*
X151377994Y-24488911D01*
X152211327Y-24036530D02*
X152377994Y-24536530D01*
X152544660Y-24036530D01*
X151084327Y-26795920D02*
X151036708Y-26772110D01*
X150965280Y-26772110D01*
X150893851Y-26795920D01*
X150846232Y-26843539D01*
X150822422Y-26891158D01*
X150798613Y-26986396D01*
X150798613Y-27057824D01*
X150822422Y-27153062D01*
X150846232Y-27200681D01*
X150893851Y-27248300D01*
X150965280Y-27272110D01*
X151012899Y-27272110D01*
X151084327Y-27248300D01*
X151108137Y-27224491D01*
X151108137Y-27057824D01*
X151012899Y-27057824D01*
X151322422Y-27272110D02*
X151322422Y-26772110D01*
X151608137Y-27272110D01*
X151608137Y-26772110D01*
X151846232Y-27272110D02*
X151846232Y-26772110D01*
X151965280Y-26772110D01*
X152036708Y-26795920D01*
X152084327Y-26843539D01*
X152108137Y-26891158D01*
X152131946Y-26986396D01*
X152131946Y-27057824D01*
X152108137Y-27153062D01*
X152084327Y-27200681D01*
X152036708Y-27248300D01*
X151965280Y-27272110D01*
X151846232Y-27272110D01*
X150793841Y-29928000D02*
X150865270Y-29951810D01*
X150984318Y-29951810D01*
X151031937Y-29928000D01*
X151055746Y-29904191D01*
X151079556Y-29856572D01*
X151079556Y-29808953D01*
X151055746Y-29761334D01*
X151031937Y-29737524D01*
X150984318Y-29713715D01*
X150889080Y-29689905D01*
X150841460Y-29666096D01*
X150817651Y-29642286D01*
X150793841Y-29594667D01*
X150793841Y-29547048D01*
X150817651Y-29499429D01*
X150841460Y-29475620D01*
X150889080Y-29451810D01*
X151008127Y-29451810D01*
X151079556Y-29475620D01*
X151579556Y-29904191D02*
X151555746Y-29928000D01*
X151484318Y-29951810D01*
X151436699Y-29951810D01*
X151365270Y-29928000D01*
X151317651Y-29880381D01*
X151293841Y-29832762D01*
X151270032Y-29737524D01*
X151270032Y-29666096D01*
X151293841Y-29570858D01*
X151317651Y-29523239D01*
X151365270Y-29475620D01*
X151436699Y-29451810D01*
X151484318Y-29451810D01*
X151555746Y-29475620D01*
X151579556Y-29499429D01*
X152031937Y-29951810D02*
X151793841Y-29951810D01*
X151793841Y-29451810D01*
X150820037Y-32572140D02*
X150891465Y-32595950D01*
X151010513Y-32595950D01*
X151058132Y-32572140D01*
X151081941Y-32548331D01*
X151105751Y-32500712D01*
X151105751Y-32453093D01*
X151081941Y-32405474D01*
X151058132Y-32381664D01*
X151010513Y-32357855D01*
X150915275Y-32334045D01*
X150867656Y-32310236D01*
X150843846Y-32286426D01*
X150820037Y-32238807D01*
X150820037Y-32191188D01*
X150843846Y-32143569D01*
X150867656Y-32119760D01*
X150915275Y-32095950D01*
X151034322Y-32095950D01*
X151105751Y-32119760D01*
X151320037Y-32595950D02*
X151320037Y-32095950D01*
X151439084Y-32095950D01*
X151510513Y-32119760D01*
X151558132Y-32167379D01*
X151581941Y-32214998D01*
X151605751Y-32310236D01*
X151605751Y-32381664D01*
X151581941Y-32476902D01*
X151558132Y-32524521D01*
X151510513Y-32572140D01*
X151439084Y-32595950D01*
X151320037Y-32595950D01*
X151796227Y-32453093D02*
X152034322Y-32453093D01*
X151748608Y-32595950D02*
X151915275Y-32095950D01*
X152081941Y-32595950D01*
D11*
X126446327Y-22338220D02*
X126398708Y-22314410D01*
X126327280Y-22314410D01*
X126255851Y-22338220D01*
X126208232Y-22385839D01*
X126184422Y-22433458D01*
X126160613Y-22528696D01*
X126160613Y-22600124D01*
X126184422Y-22695362D01*
X126208232Y-22742981D01*
X126255851Y-22790600D01*
X126327280Y-22814410D01*
X126374899Y-22814410D01*
X126446327Y-22790600D01*
X126470137Y-22766791D01*
X126470137Y-22600124D01*
X126374899Y-22600124D01*
X126684422Y-22814410D02*
X126684422Y-22314410D01*
X126970137Y-22814410D01*
X126970137Y-22314410D01*
X127208232Y-22814410D02*
X127208232Y-22314410D01*
X127327280Y-22314410D01*
X127398708Y-22338220D01*
X127446327Y-22385839D01*
X127470137Y-22433458D01*
X127493946Y-22528696D01*
X127493946Y-22600124D01*
X127470137Y-22695362D01*
X127446327Y-22742981D01*
X127398708Y-22790600D01*
X127327280Y-22814410D01*
X127208232Y-22814410D01*
D14*
X94197538Y-31194595D02*
X94149919Y-31337452D01*
X94149919Y-31575547D01*
X94197538Y-31670785D01*
X94245157Y-31718404D01*
X94340395Y-31766023D01*
X94435633Y-31766023D01*
X94530871Y-31718404D01*
X94578490Y-31670785D01*
X94626109Y-31575547D01*
X94673728Y-31385071D01*
X94721347Y-31289833D01*
X94768966Y-31242214D01*
X94864204Y-31194595D01*
X94959442Y-31194595D01*
X95054680Y-31242214D01*
X95102300Y-31289833D01*
X95149919Y-31385071D01*
X95149919Y-31623166D01*
X95102300Y-31766023D01*
X94149919Y-32337452D02*
X94197538Y-32242214D01*
X94245157Y-32194595D01*
X94340395Y-32146976D01*
X94626109Y-32146976D01*
X94721347Y-32194595D01*
X94768966Y-32242214D01*
X94816585Y-32337452D01*
X94816585Y-32480309D01*
X94768966Y-32575547D01*
X94721347Y-32623166D01*
X94626109Y-32670785D01*
X94340395Y-32670785D01*
X94245157Y-32623166D01*
X94197538Y-32575547D01*
X94149919Y-32480309D01*
X94149919Y-32337452D01*
X94149919Y-33242214D02*
X94197538Y-33146976D01*
X94292776Y-33099357D01*
X95149919Y-33099357D01*
X94149919Y-34051738D02*
X94673728Y-34051738D01*
X94768966Y-34004119D01*
X94816585Y-33908880D01*
X94816585Y-33718404D01*
X94768966Y-33623166D01*
X94197538Y-34051738D02*
X94149919Y-33956500D01*
X94149919Y-33718404D01*
X94197538Y-33623166D01*
X94292776Y-33575547D01*
X94388014Y-33575547D01*
X94483252Y-33623166D01*
X94530871Y-33718404D01*
X94530871Y-33956500D01*
X94578490Y-34051738D01*
X94149919Y-34527928D02*
X94816585Y-34527928D01*
X94626109Y-34527928D02*
X94721347Y-34575547D01*
X94768966Y-34623166D01*
X94816585Y-34718404D01*
X94816585Y-34813642D01*
X94823588Y-22713891D02*
X94775969Y-22856748D01*
X94728350Y-22904367D01*
X94633112Y-22951986D01*
X94490255Y-22951986D01*
X94395017Y-22904367D01*
X94347398Y-22856748D01*
X94299779Y-22761510D01*
X94299779Y-22380558D01*
X95299779Y-22380558D01*
X95299779Y-22713891D01*
X95252160Y-22809129D01*
X95204540Y-22856748D01*
X95109302Y-22904367D01*
X95014064Y-22904367D01*
X94918826Y-22856748D01*
X94871207Y-22809129D01*
X94823588Y-22713891D01*
X94823588Y-22380558D01*
X94299779Y-23809129D02*
X94823588Y-23809129D01*
X94918826Y-23761510D01*
X94966445Y-23666272D01*
X94966445Y-23475796D01*
X94918826Y-23380558D01*
X94347398Y-23809129D02*
X94299779Y-23713891D01*
X94299779Y-23475796D01*
X94347398Y-23380558D01*
X94442636Y-23332939D01*
X94537874Y-23332939D01*
X94633112Y-23380558D01*
X94680731Y-23475796D01*
X94680731Y-23713891D01*
X94728350Y-23809129D01*
X94966445Y-24142462D02*
X94966445Y-24523415D01*
X95299779Y-24285320D02*
X94442636Y-24285320D01*
X94347398Y-24332939D01*
X94299779Y-24428177D01*
X94299779Y-24523415D01*
X94966445Y-24713891D02*
X94966445Y-25094843D01*
X95299779Y-24856748D02*
X94442636Y-24856748D01*
X94347398Y-24904367D01*
X94299779Y-24999605D01*
X94299779Y-25094843D01*
X94347398Y-25809129D02*
X94299779Y-25713891D01*
X94299779Y-25523415D01*
X94347398Y-25428177D01*
X94442636Y-25380558D01*
X94823588Y-25380558D01*
X94918826Y-25428177D01*
X94966445Y-25523415D01*
X94966445Y-25713891D01*
X94918826Y-25809129D01*
X94823588Y-25856748D01*
X94728350Y-25856748D01*
X94633112Y-25380558D01*
X94299779Y-26285320D02*
X94966445Y-26285320D01*
X94775969Y-26285320D02*
X94871207Y-26332939D01*
X94918826Y-26380558D01*
X94966445Y-26475796D01*
X94966445Y-26571034D01*
X94966445Y-26809129D02*
X94299779Y-27047224D01*
X94966445Y-27285320D02*
X94299779Y-27047224D01*
X94061683Y-26951986D01*
X94014064Y-26904367D01*
X93966445Y-26809129D01*
X120179199Y-23967700D02*
X120179199Y-22967700D01*
X120417294Y-22967700D01*
X120560151Y-23015320D01*
X120655389Y-23110558D01*
X120703008Y-23205796D01*
X120750627Y-23396272D01*
X120750627Y-23539129D01*
X120703008Y-23729605D01*
X120655389Y-23824843D01*
X120560151Y-23920081D01*
X120417294Y-23967700D01*
X120179199Y-23967700D01*
X121179199Y-23967700D02*
X121179199Y-23301034D01*
X121179199Y-22967700D02*
X121131580Y-23015320D01*
X121179199Y-23062939D01*
X121226818Y-23015320D01*
X121179199Y-22967700D01*
X121179199Y-23062939D01*
X121607770Y-23920081D02*
X121703008Y-23967700D01*
X121893484Y-23967700D01*
X121988722Y-23920081D01*
X122036341Y-23824843D01*
X122036341Y-23777224D01*
X121988722Y-23681986D01*
X121893484Y-23634367D01*
X121750627Y-23634367D01*
X121655389Y-23586748D01*
X121607770Y-23491510D01*
X121607770Y-23443891D01*
X121655389Y-23348653D01*
X121750627Y-23301034D01*
X121893484Y-23301034D01*
X121988722Y-23348653D01*
X122322056Y-23301034D02*
X122703008Y-23301034D01*
X122464913Y-22967700D02*
X122464913Y-23824843D01*
X122512532Y-23920081D01*
X122607770Y-23967700D01*
X122703008Y-23967700D01*
X123464913Y-23967700D02*
X123464913Y-23443891D01*
X123417294Y-23348653D01*
X123322056Y-23301034D01*
X123131580Y-23301034D01*
X123036341Y-23348653D01*
X123464913Y-23920081D02*
X123369675Y-23967700D01*
X123131580Y-23967700D01*
X123036341Y-23920081D01*
X122988722Y-23824843D01*
X122988722Y-23729605D01*
X123036341Y-23634367D01*
X123131580Y-23586748D01*
X123369675Y-23586748D01*
X123464913Y-23539129D01*
X123941103Y-23301034D02*
X123941103Y-23967700D01*
X123941103Y-23396272D02*
X123988722Y-23348653D01*
X124083960Y-23301034D01*
X124226818Y-23301034D01*
X124322056Y-23348653D01*
X124369675Y-23443891D01*
X124369675Y-23967700D01*
X125274437Y-23920081D02*
X125179199Y-23967700D01*
X124988722Y-23967700D01*
X124893484Y-23920081D01*
X124845865Y-23872462D01*
X124798246Y-23777224D01*
X124798246Y-23491510D01*
X124845865Y-23396272D01*
X124893484Y-23348653D01*
X124988722Y-23301034D01*
X125179199Y-23301034D01*
X125274437Y-23348653D01*
X126083960Y-23920081D02*
X125988722Y-23967700D01*
X125798246Y-23967700D01*
X125703008Y-23920081D01*
X125655389Y-23824843D01*
X125655389Y-23443891D01*
X125703008Y-23348653D01*
X125798246Y-23301034D01*
X125988722Y-23301034D01*
X126083960Y-23348653D01*
X126131580Y-23443891D01*
X126131580Y-23539129D01*
X125655389Y-23634367D01*
X105596844Y-39548060D02*
X105263511Y-39071870D01*
X105025416Y-39548060D02*
X105025416Y-38548060D01*
X105406368Y-38548060D01*
X105501606Y-38595680D01*
X105549225Y-38643299D01*
X105596844Y-38738537D01*
X105596844Y-38881394D01*
X105549225Y-38976632D01*
X105501606Y-39024251D01*
X105406368Y-39071870D01*
X105025416Y-39071870D01*
X106406368Y-39500441D02*
X106311130Y-39548060D01*
X106120654Y-39548060D01*
X106025416Y-39500441D01*
X105977797Y-39405203D01*
X105977797Y-39024251D01*
X106025416Y-38929013D01*
X106120654Y-38881394D01*
X106311130Y-38881394D01*
X106406368Y-38929013D01*
X106453987Y-39024251D01*
X106453987Y-39119489D01*
X105977797Y-39214727D01*
X106834940Y-39500441D02*
X106930178Y-39548060D01*
X107120654Y-39548060D01*
X107215892Y-39500441D01*
X107263511Y-39405203D01*
X107263511Y-39357584D01*
X107215892Y-39262346D01*
X107120654Y-39214727D01*
X106977797Y-39214727D01*
X106882559Y-39167108D01*
X106834940Y-39071870D01*
X106834940Y-39024251D01*
X106882559Y-38929013D01*
X106977797Y-38881394D01*
X107120654Y-38881394D01*
X107215892Y-38929013D01*
X108073035Y-39500441D02*
X107977797Y-39548060D01*
X107787320Y-39548060D01*
X107692082Y-39500441D01*
X107644463Y-39405203D01*
X107644463Y-39024251D01*
X107692082Y-38929013D01*
X107787320Y-38881394D01*
X107977797Y-38881394D01*
X108073035Y-38929013D01*
X108120654Y-39024251D01*
X108120654Y-39119489D01*
X107644463Y-39214727D01*
X108406368Y-38881394D02*
X108787320Y-38881394D01*
X108549225Y-38548060D02*
X108549225Y-39405203D01*
X108596844Y-39500441D01*
X108692082Y-39548060D01*
X108787320Y-39548060D01*
D10*
X113870959Y-37130949D02*
X113985244Y-37169044D01*
X114175720Y-37169044D01*
X114251911Y-37130949D01*
X114290006Y-37092854D01*
X114328101Y-37016663D01*
X114328101Y-36940473D01*
X114290006Y-36864282D01*
X114251911Y-36826187D01*
X114175720Y-36788092D01*
X114023340Y-36749997D01*
X113947149Y-36711901D01*
X113909054Y-36673806D01*
X113870959Y-36597616D01*
X113870959Y-36521425D01*
X113909054Y-36445235D01*
X113947149Y-36407140D01*
X114023340Y-36369044D01*
X114213816Y-36369044D01*
X114328101Y-36407140D01*
X114556673Y-36635711D02*
X114861435Y-36635711D01*
X114670959Y-36369044D02*
X114670959Y-37054759D01*
X114709054Y-37130949D01*
X114785244Y-37169044D01*
X114861435Y-37169044D01*
X115128101Y-37169044D02*
X115128101Y-36635711D01*
X115128101Y-36711901D02*
X115166197Y-36673806D01*
X115242387Y-36635711D01*
X115356673Y-36635711D01*
X115432863Y-36673806D01*
X115470959Y-36749997D01*
X115470959Y-37169044D01*
X115470959Y-36749997D02*
X115509054Y-36673806D01*
X115585244Y-36635711D01*
X115699530Y-36635711D01*
X115775720Y-36673806D01*
X115813816Y-36749997D01*
X115813816Y-37169044D01*
X116118578Y-36369044D02*
X116613816Y-36369044D01*
X116347149Y-36673806D01*
X116461435Y-36673806D01*
X116537625Y-36711901D01*
X116575720Y-36749997D01*
X116613816Y-36826187D01*
X116613816Y-37016663D01*
X116575720Y-37092854D01*
X116537625Y-37130949D01*
X116461435Y-37169044D01*
X116232863Y-37169044D01*
X116156673Y-37130949D01*
X116118578Y-37092854D01*
X116918578Y-36445235D02*
X116956673Y-36407140D01*
X117032863Y-36369044D01*
X117223340Y-36369044D01*
X117299530Y-36407140D01*
X117337625Y-36445235D01*
X117375720Y-36521425D01*
X117375720Y-36597616D01*
X117337625Y-36711901D01*
X116880482Y-37169044D01*
X117375720Y-37169044D01*
X143685520Y-40332730D02*
X142685520Y-40332730D01*
X142685520Y-39951778D01*
X142733140Y-39856540D01*
X142780759Y-39808920D01*
X142875997Y-39761301D01*
X143018854Y-39761301D01*
X143114092Y-39808920D01*
X143161711Y-39856540D01*
X143209330Y-39951778D01*
X143209330Y-40332730D01*
X143685520Y-39189873D02*
X143637901Y-39285111D01*
X143590282Y-39332730D01*
X143495044Y-39380349D01*
X143209330Y-39380349D01*
X143114092Y-39332730D01*
X143066473Y-39285111D01*
X143018854Y-39189873D01*
X143018854Y-39047016D01*
X143066473Y-38951778D01*
X143114092Y-38904159D01*
X143209330Y-38856540D01*
X143495044Y-38856540D01*
X143590282Y-38904159D01*
X143637901Y-38951778D01*
X143685520Y-39047016D01*
X143685520Y-39189873D01*
X143018854Y-38523206D02*
X143685520Y-38332730D01*
X143209330Y-38142254D01*
X143685520Y-37951778D01*
X143018854Y-37761301D01*
X143637901Y-36999397D02*
X143685520Y-37094635D01*
X143685520Y-37285111D01*
X143637901Y-37380349D01*
X143542663Y-37427968D01*
X143161711Y-37427968D01*
X143066473Y-37380349D01*
X143018854Y-37285111D01*
X143018854Y-37094635D01*
X143066473Y-36999397D01*
X143161711Y-36951778D01*
X143256949Y-36951778D01*
X143352187Y-37427968D01*
X143685520Y-36523206D02*
X143018854Y-36523206D01*
X143209330Y-36523206D02*
X143114092Y-36475587D01*
X143066473Y-36427968D01*
X143018854Y-36332730D01*
X143018854Y-36237492D01*
D14*
X130553551Y-43864817D02*
X130639265Y-43893388D01*
X130782122Y-43893388D01*
X130839265Y-43864817D01*
X130867837Y-43836245D01*
X130896408Y-43779102D01*
X130896408Y-43721960D01*
X130867837Y-43664817D01*
X130839265Y-43636245D01*
X130782122Y-43607674D01*
X130667837Y-43579102D01*
X130610694Y-43550531D01*
X130582122Y-43521960D01*
X130553551Y-43464817D01*
X130553551Y-43407674D01*
X130582122Y-43350531D01*
X130610694Y-43321960D01*
X130667837Y-43293388D01*
X130810694Y-43293388D01*
X130896408Y-43321960D01*
X131382122Y-43864817D02*
X131324980Y-43893388D01*
X131210694Y-43893388D01*
X131153551Y-43864817D01*
X131124980Y-43807674D01*
X131124980Y-43579102D01*
X131153551Y-43521960D01*
X131210694Y-43493388D01*
X131324980Y-43493388D01*
X131382122Y-43521960D01*
X131410694Y-43579102D01*
X131410694Y-43636245D01*
X131124980Y-43693388D01*
X131667837Y-43493388D02*
X131667837Y-43893388D01*
X131667837Y-43550531D02*
X131696408Y-43521960D01*
X131753551Y-43493388D01*
X131839265Y-43493388D01*
X131896408Y-43521960D01*
X131924980Y-43579102D01*
X131924980Y-43893388D01*
X132182122Y-43864817D02*
X132239265Y-43893388D01*
X132353551Y-43893388D01*
X132410694Y-43864817D01*
X132439265Y-43807674D01*
X132439265Y-43779102D01*
X132410694Y-43721960D01*
X132353551Y-43693388D01*
X132267837Y-43693388D01*
X132210694Y-43664817D01*
X132182122Y-43607674D01*
X132182122Y-43579102D01*
X132210694Y-43521960D01*
X132267837Y-43493388D01*
X132353551Y-43493388D01*
X132410694Y-43521960D01*
X132782122Y-43893388D02*
X132724980Y-43864817D01*
X132696408Y-43836245D01*
X132667837Y-43779102D01*
X132667837Y-43607674D01*
X132696408Y-43550531D01*
X132724980Y-43521960D01*
X132782122Y-43493388D01*
X132867837Y-43493388D01*
X132924980Y-43521960D01*
X132953551Y-43550531D01*
X132982122Y-43607674D01*
X132982122Y-43779102D01*
X132953551Y-43836245D01*
X132924980Y-43864817D01*
X132867837Y-43893388D01*
X132782122Y-43893388D01*
X133239265Y-43893388D02*
X133239265Y-43493388D01*
X133239265Y-43607674D02*
X133267837Y-43550531D01*
X133296408Y-43521960D01*
X133353551Y-43493388D01*
X133410694Y-43493388D01*
X133467837Y-43950531D02*
X133924980Y-43950531D01*
X134067837Y-43893388D02*
X134067837Y-43293388D01*
X134296408Y-43293388D01*
X134353551Y-43321960D01*
X134382122Y-43350531D01*
X134410694Y-43407674D01*
X134410694Y-43493388D01*
X134382122Y-43550531D01*
X134353551Y-43579102D01*
X134296408Y-43607674D01*
X134067837Y-43607674D01*
X135010694Y-43836245D02*
X134982122Y-43864817D01*
X134896408Y-43893388D01*
X134839265Y-43893388D01*
X134753551Y-43864817D01*
X134696408Y-43807674D01*
X134667837Y-43750531D01*
X134639265Y-43636245D01*
X134639265Y-43550531D01*
X134667837Y-43436245D01*
X134696408Y-43379102D01*
X134753551Y-43321960D01*
X134839265Y-43293388D01*
X134896408Y-43293388D01*
X134982122Y-43321960D01*
X135010694Y-43350531D01*
X135467837Y-43579102D02*
X135553551Y-43607674D01*
X135582122Y-43636245D01*
X135610694Y-43693388D01*
X135610694Y-43779102D01*
X135582122Y-43836245D01*
X135553551Y-43864817D01*
X135496408Y-43893388D01*
X135267837Y-43893388D01*
X135267837Y-43293388D01*
X135467837Y-43293388D01*
X135524980Y-43321960D01*
X135553551Y-43350531D01*
X135582122Y-43407674D01*
X135582122Y-43464817D01*
X135553551Y-43521960D01*
X135524980Y-43550531D01*
X135467837Y-43579102D01*
X135267837Y-43579102D01*
X135724980Y-43950531D02*
X136182122Y-43950531D01*
X136267837Y-43493388D02*
X136410694Y-43893388D01*
X136553551Y-43493388D01*
X136753551Y-43350531D02*
X136782122Y-43321960D01*
X136839265Y-43293388D01*
X136982122Y-43293388D01*
X137039265Y-43321960D01*
X137067837Y-43350531D01*
X137096408Y-43407674D01*
X137096408Y-43464817D01*
X137067837Y-43550531D01*
X136724980Y-43893388D01*
X137096408Y-43893388D01*
D12*
X126473249Y-42502080D02*
X126473249Y-41502080D01*
X126473249Y-41978271D02*
X127044678Y-41978271D01*
X127044678Y-42502080D02*
X127044678Y-41502080D01*
X127949440Y-41835414D02*
X127949440Y-42502080D01*
X127520868Y-41835414D02*
X127520868Y-42359223D01*
X127568487Y-42454461D01*
X127663725Y-42502080D01*
X127806582Y-42502080D01*
X127901820Y-42454461D01*
X127949440Y-42406842D01*
X128425630Y-42502080D02*
X128425630Y-41502080D01*
X128520868Y-42121128D02*
X128806582Y-42502080D01*
X128806582Y-41835414D02*
X128425630Y-42216366D01*
X129663725Y-42502080D02*
X129663725Y-41978271D01*
X129616106Y-41883033D01*
X129520868Y-41835414D01*
X129330392Y-41835414D01*
X129235154Y-41883033D01*
X129663725Y-42454461D02*
X129568487Y-42502080D01*
X129330392Y-42502080D01*
X129235154Y-42454461D01*
X129187535Y-42359223D01*
X129187535Y-42263985D01*
X129235154Y-42168747D01*
X129330392Y-42121128D01*
X129568487Y-42121128D01*
X129663725Y-42073509D01*
X130139916Y-42502080D02*
X130139916Y-41835414D01*
X130139916Y-41930652D02*
X130187535Y-41883033D01*
X130282773Y-41835414D01*
X130425630Y-41835414D01*
X130520868Y-41883033D01*
X130568487Y-41978271D01*
X130568487Y-42502080D01*
X130568487Y-41978271D02*
X130616106Y-41883033D01*
X130711344Y-41835414D01*
X130854201Y-41835414D01*
X130949440Y-41883033D01*
X130997059Y-41978271D01*
X130997059Y-42502080D01*
X132092297Y-41502080D02*
X132663725Y-41502080D01*
X132378011Y-42502080D02*
X132378011Y-41502080D01*
X133378011Y-42454461D02*
X133282773Y-42502080D01*
X133092297Y-42502080D01*
X132997059Y-42454461D01*
X132949440Y-42359223D01*
X132949440Y-41978271D01*
X132997059Y-41883033D01*
X133092297Y-41835414D01*
X133282773Y-41835414D01*
X133378011Y-41883033D01*
X133425630Y-41978271D01*
X133425630Y-42073509D01*
X132949440Y-42168747D01*
X134282773Y-42454461D02*
X134187535Y-42502080D01*
X133997059Y-42502080D01*
X133901820Y-42454461D01*
X133854201Y-42406842D01*
X133806582Y-42311604D01*
X133806582Y-42025890D01*
X133854201Y-41930652D01*
X133901820Y-41883033D01*
X133997059Y-41835414D01*
X134187535Y-41835414D01*
X134282773Y-41883033D01*
X134711344Y-42502080D02*
X134711344Y-41502080D01*
X135139916Y-42502080D02*
X135139916Y-41978271D01*
X135092297Y-41883033D01*
X134997059Y-41835414D01*
X134854201Y-41835414D01*
X134758963Y-41883033D01*
X134711344Y-41930652D01*
X135616106Y-41835414D02*
X135616106Y-42502080D01*
X135616106Y-41930652D02*
X135663725Y-41883033D01*
X135758963Y-41835414D01*
X135901820Y-41835414D01*
X135997059Y-41883033D01*
X136044678Y-41978271D01*
X136044678Y-42502080D01*
X136663725Y-42502080D02*
X136568487Y-42454461D01*
X136520868Y-42406842D01*
X136473249Y-42311604D01*
X136473249Y-42025890D01*
X136520868Y-41930652D01*
X136568487Y-41883033D01*
X136663725Y-41835414D01*
X136806582Y-41835414D01*
X136901820Y-41883033D01*
X136949440Y-41930652D01*
X136997059Y-42025890D01*
X136997059Y-42311604D01*
X136949440Y-42406842D01*
X136901820Y-42454461D01*
X136806582Y-42502080D01*
X136663725Y-42502080D01*
X137568487Y-42502080D02*
X137473249Y-42454461D01*
X137425630Y-42359223D01*
X137425630Y-41502080D01*
X138092297Y-42502080D02*
X137997059Y-42454461D01*
X137949440Y-42406842D01*
X137901820Y-42311604D01*
X137901820Y-42025890D01*
X137949440Y-41930652D01*
X137997059Y-41883033D01*
X138092297Y-41835414D01*
X138235154Y-41835414D01*
X138330392Y-41883033D01*
X138378011Y-41930652D01*
X138425630Y-42025890D01*
X138425630Y-42311604D01*
X138378011Y-42406842D01*
X138330392Y-42454461D01*
X138235154Y-42502080D01*
X138092297Y-42502080D01*
X139282773Y-41835414D02*
X139282773Y-42644938D01*
X139235154Y-42740176D01*
X139187535Y-42787795D01*
X139092297Y-42835414D01*
X138949440Y-42835414D01*
X138854201Y-42787795D01*
X139282773Y-42454461D02*
X139187535Y-42502080D01*
X138997059Y-42502080D01*
X138901820Y-42454461D01*
X138854201Y-42406842D01*
X138806582Y-42311604D01*
X138806582Y-42025890D01*
X138854201Y-41930652D01*
X138901820Y-41883033D01*
X138997059Y-41835414D01*
X139187535Y-41835414D01*
X139282773Y-41883033D01*
X139758963Y-42502080D02*
X139758963Y-41835414D01*
X139758963Y-41502080D02*
X139711344Y-41549700D01*
X139758963Y-41597319D01*
X139806582Y-41549700D01*
X139758963Y-41502080D01*
X139758963Y-41597319D01*
X140616106Y-42454461D02*
X140520868Y-42502080D01*
X140330392Y-42502080D01*
X140235154Y-42454461D01*
X140187535Y-42359223D01*
X140187535Y-41978271D01*
X140235154Y-41883033D01*
X140330392Y-41835414D01*
X140520868Y-41835414D01*
X140616106Y-41883033D01*
X140663725Y-41978271D01*
X140663725Y-42073509D01*
X140187535Y-42168747D01*
X141044678Y-42454461D02*
X141139916Y-42502080D01*
X141330392Y-42502080D01*
X141425630Y-42454461D01*
X141473249Y-42359223D01*
X141473249Y-42311604D01*
X141425630Y-42216366D01*
X141330392Y-42168747D01*
X141187535Y-42168747D01*
X141092297Y-42121128D01*
X141044678Y-42025890D01*
X141044678Y-41978271D01*
X141092297Y-41883033D01*
X141187535Y-41835414D01*
X141330392Y-41835414D01*
X141425630Y-41883033D01*
D14*
X118908000Y-31539200D02*
X112812000Y-31539200D01*
X112304000Y-32047200D02*
X112304000Y-38143200D01*
X112812000Y-38651200D02*
X118908000Y-38651200D01*
X119416000Y-38143200D02*
X119416000Y-32047200D01*
X119013210Y-32301200D02*
G75*
G03*
X119013210Y-32301200I-359210J0D01*
G01*
X112304000Y-38143200D02*
G75*
G03*
X112812000Y-38651200I508000J0D01*
G01*
X112812000Y-31539200D02*
G75*
G03*
X112304000Y-32047200I0J-508000D01*
G01*
X118908000Y-38651200D02*
G75*
G03*
X119416000Y-38143200I0J508000D01*
G01*
X119416000Y-32047200D02*
G75*
G03*
X118908000Y-31539200I-508000J0D01*
G01*
D12*
X146318000Y-40858000D02*
G75*
G03*
X146318000Y-40858000I-100000J0D01*
G01*
D15*
X150618000Y-40108000D02*
X152118000Y-40108000D01*
X152118000Y-40108000D02*
X152118000Y-38608000D01*
X152118000Y-38608000D02*
X150618000Y-38608000D01*
X148768000Y-41958000D02*
X149768000Y-41958000D01*
X147918000Y-41608000D02*
X147918000Y-35608000D01*
X150618000Y-41608000D02*
X150618000Y-35608000D01*
X148768000Y-35258000D02*
X149768000Y-35258000D01*
D16*
X103792000Y-22824600D02*
X103792000Y-25424600D01*
X102192000Y-22824600D02*
X102192000Y-25424600D01*
X103792000Y-22824600D02*
X102192000Y-22824600D01*
X104114000Y-30030600D02*
X104114000Y-32630600D01*
X102514000Y-30030600D02*
X102514000Y-32630600D01*
X104114000Y-30030600D02*
X102514000Y-30030600D01*
X114611000Y-47207500D02*
X114611000Y-45877500D01*
X115941000Y-47207500D02*
X114611000Y-47207500D01*
X117211000Y-47207500D02*
X117211000Y-44547500D01*
X117211000Y-44547500D02*
X124891000Y-44547500D01*
X117211000Y-47207500D02*
X124891000Y-47207500D01*
X124891000Y-47207500D02*
X124891000Y-44547500D01*
D14*
X101454700Y-20960600D02*
X101454700Y-27960600D01*
X101454700Y-27960600D02*
X101454700Y-28460600D01*
X101454700Y-28460600D02*
X101454700Y-28550600D01*
X101454700Y-20960600D02*
X96454700Y-20960600D01*
X96454700Y-20960600D02*
X95654700Y-20960600D01*
X95654700Y-20960600D02*
X95644700Y-20960600D01*
X101414700Y-28540600D02*
X101424700Y-28540600D01*
X100614700Y-28540600D02*
X101414700Y-28540600D01*
X95614700Y-28540600D02*
X100614700Y-28540600D01*
X95614700Y-21040600D02*
X95614700Y-20950600D01*
X95614700Y-28540600D02*
X95614700Y-21540600D01*
X95614700Y-21540600D02*
X95614700Y-21040600D01*
X95834700Y-23670600D02*
X95834700Y-26200600D01*
X95834700Y-26200600D02*
X95434700Y-26200600D01*
X95434700Y-26200600D02*
X95434700Y-23650600D01*
X95434700Y-23650600D02*
X95814700Y-23650600D01*
X95814700Y-23650600D02*
X95814700Y-23640600D01*
D16*
X100156300Y-37112900D02*
X97496300Y-37112900D01*
X100156300Y-44792900D02*
X100156300Y-37112900D01*
X97496300Y-44792900D02*
X97496300Y-37112900D01*
X100156300Y-44792900D02*
X97496300Y-44792900D01*
X100156300Y-46062900D02*
X100156300Y-47392900D01*
X100156300Y-47392900D02*
X98826300Y-47392900D01*
X144110000Y-47679900D02*
X144110000Y-46349900D01*
X145440000Y-47679900D02*
X144110000Y-47679900D01*
X146710000Y-47679900D02*
X146710000Y-45019900D01*
X146710000Y-45019900D02*
X146770000Y-45019900D01*
X146710000Y-47679900D02*
X146770000Y-47679900D01*
X146770000Y-47679900D02*
X146770000Y-45019900D01*
D14*
X101470000Y-28898100D02*
X101470000Y-35898100D01*
X101470000Y-35898100D02*
X101470000Y-36398100D01*
X101470000Y-36398100D02*
X101470000Y-36488100D01*
X101470000Y-28898100D02*
X96470000Y-28898100D01*
X96470000Y-28898100D02*
X95670000Y-28898100D01*
X95670000Y-28898100D02*
X95660000Y-28898100D01*
X101430000Y-36478100D02*
X101440000Y-36478100D01*
X100630000Y-36478100D02*
X101430000Y-36478100D01*
X95630000Y-36478100D02*
X100630000Y-36478100D01*
X95630000Y-28978100D02*
X95630000Y-28888100D01*
X95630000Y-36478100D02*
X95630000Y-29478100D01*
X95630000Y-29478100D02*
X95630000Y-28978100D01*
X95850000Y-31608100D02*
X95850000Y-34138100D01*
X95850000Y-34138100D02*
X95450000Y-34138100D01*
X95450000Y-34138100D02*
X95450000Y-31588100D01*
X95450000Y-31588100D02*
X95830000Y-31588100D01*
X95830000Y-31588100D02*
X95830000Y-31578100D01*
D16*
X144181000Y-39694900D02*
X144181000Y-37094900D01*
X145781000Y-39694900D02*
X145781000Y-37094900D01*
X144181000Y-39694900D02*
X145781000Y-39694900D01*
X123619000Y-36044800D02*
X123619000Y-33574800D01*
X122730000Y-35507467D02*
X124508000Y-35507467D01*
X123619000Y-35507467D02*
X122730000Y-34322133D01*
X122730000Y-34322133D02*
X124508000Y-34322133D01*
X124508000Y-34322133D02*
X123619000Y-35507467D01*
X125029000Y-37454800D02*
G75*
G03*
X125029000Y-37454800I-1410000J0D01*
G01*
D14*
X141419000Y-33532600D02*
X142419000Y-33532600D01*
X141419000Y-23532600D02*
X141419000Y-33532600D01*
X142419000Y-23532600D02*
X141419000Y-23532600D01*
X150419000Y-23532600D02*
X142419000Y-23532600D01*
X150419000Y-33532600D02*
X150419000Y-23532600D01*
X142419000Y-33532600D02*
X150419000Y-33532600D01*
D16*
X138014000Y-23960100D02*
X131614000Y-23960100D01*
X138014000Y-18910100D02*
X131614000Y-18910100D01*
X131614000Y-18910100D02*
G75*
G03*
X131614000Y-23960100I0J-2525000D01*
G01*
X138014000Y-18910100D02*
G75*
G02*
X138014000Y-23960100I0J-2525000D01*
G01*
X113544000Y-18910100D02*
X107144000Y-18910100D01*
X113544000Y-23960100D02*
X107144000Y-23960100D01*
X113544000Y-18910100D02*
G75*
G02*
X113544000Y-23960100I0J-2525000D01*
G01*
X107144000Y-18910100D02*
G75*
G03*
X107144000Y-23960100I0J-2525000D01*
G01*
X109261000Y-40161600D02*
X104761000Y-40161600D01*
X110511000Y-44161600D02*
X110511000Y-42661600D01*
X104761000Y-46661600D02*
X109261000Y-46661600D01*
X103511000Y-42661600D02*
X103511000Y-44161600D01*
D14*
X119586275Y-29480280D02*
X119586275Y-30289804D01*
X119633894Y-30385042D01*
X119681513Y-30432661D01*
X119776751Y-30480280D01*
X119967227Y-30480280D01*
X120062465Y-30432661D01*
X120110084Y-30385042D01*
X120157703Y-30289804D01*
X120157703Y-29480280D01*
X120538656Y-29480280D02*
X121157703Y-29480280D01*
X120824370Y-29861233D01*
X120967227Y-29861233D01*
X121062465Y-29908852D01*
X121110084Y-29956471D01*
X121157703Y-30051709D01*
X121157703Y-30289804D01*
X121110084Y-30385042D01*
X121062465Y-30432661D01*
X120967227Y-30480280D01*
X120681513Y-30480280D01*
X120586275Y-30432661D01*
X120538656Y-30385042D01*
D10*
X143517302Y-42736494D02*
X143660192Y-42784124D01*
X143898341Y-42784124D01*
X143993601Y-42736494D01*
X144041231Y-42688864D01*
X144088861Y-42593604D01*
X144088861Y-42498344D01*
X144041231Y-42403084D01*
X143993601Y-42355454D01*
X143898341Y-42307825D01*
X143707822Y-42260195D01*
X143612562Y-42212565D01*
X143564932Y-42164935D01*
X143517302Y-42069675D01*
X143517302Y-41974415D01*
X143564932Y-41879155D01*
X143612562Y-41831526D01*
X143707822Y-41783896D01*
X143945971Y-41783896D01*
X144088861Y-41831526D01*
X144422270Y-41783896D02*
X144660420Y-42784124D01*
X144850940Y-42069675D01*
X145041459Y-42784124D01*
X145279609Y-41783896D01*
X146184577Y-42784124D02*
X145613018Y-42784124D01*
X145898797Y-42784124D02*
X145898797Y-41783896D01*
X145803538Y-41926785D01*
X145708278Y-42022045D01*
X145613018Y-42069675D01*
D14*
X104199544Y-25682160D02*
X104199544Y-24682160D01*
X104437640Y-24682160D01*
X104580497Y-24729780D01*
X104675735Y-24825018D01*
X104723354Y-24920256D01*
X104770973Y-25110732D01*
X104770973Y-25253589D01*
X104723354Y-25444065D01*
X104675735Y-25539303D01*
X104580497Y-25634541D01*
X104437640Y-25682160D01*
X104199544Y-25682160D01*
X105628116Y-25015494D02*
X105628116Y-25682160D01*
X105390020Y-24634541D02*
X105151925Y-25348827D01*
X105770973Y-25348827D01*
X104592664Y-32080440D02*
X104592664Y-31080440D01*
X104830760Y-31080440D01*
X104973617Y-31128060D01*
X105068855Y-31223298D01*
X105116474Y-31318536D01*
X105164093Y-31509012D01*
X105164093Y-31651869D01*
X105116474Y-31842345D01*
X105068855Y-31937583D01*
X104973617Y-32032821D01*
X104830760Y-32080440D01*
X104592664Y-32080440D01*
X105497426Y-31080440D02*
X106116474Y-31080440D01*
X105783140Y-31461393D01*
X105925998Y-31461393D01*
X106021236Y-31509012D01*
X106068855Y-31556631D01*
X106116474Y-31651869D01*
X106116474Y-31889964D01*
X106068855Y-31985202D01*
X106021236Y-32032821D01*
X105925998Y-32080440D01*
X105640283Y-32080440D01*
X105545045Y-32032821D01*
X105497426Y-31985202D01*
X113063380Y-46210833D02*
X113777666Y-46210833D01*
X113920523Y-46258452D01*
X114015761Y-46353690D01*
X114063380Y-46496547D01*
X114063380Y-46591785D01*
X113063380Y-45258452D02*
X113063380Y-45734642D01*
X113539571Y-45782261D01*
X113491952Y-45734642D01*
X113444333Y-45639404D01*
X113444333Y-45401309D01*
X113491952Y-45306071D01*
X113539571Y-45258452D01*
X113634809Y-45210833D01*
X113872904Y-45210833D01*
X113968142Y-45258452D01*
X114015761Y-45306071D01*
X114063380Y-45401309D01*
X114063380Y-45639404D01*
X114015761Y-45734642D01*
X113968142Y-45782261D01*
X102089606Y-20214360D02*
X102089606Y-20928646D01*
X102041987Y-21071503D01*
X101946749Y-21166741D01*
X101803892Y-21214360D01*
X101708654Y-21214360D01*
X102518178Y-20309599D02*
X102565797Y-20261980D01*
X102661035Y-20214360D01*
X102899130Y-20214360D01*
X102994368Y-20261980D01*
X103041987Y-20309599D01*
X103089606Y-20404837D01*
X103089606Y-20500075D01*
X103041987Y-20642932D01*
X102470559Y-21214360D01*
X103089606Y-21214360D01*
X101223466Y-36991040D02*
X101223466Y-37705326D01*
X101175847Y-37848183D01*
X101080609Y-37943421D01*
X100937752Y-37991040D01*
X100842514Y-37991040D01*
X102128228Y-37324374D02*
X102128228Y-37991040D01*
X101890133Y-36943421D02*
X101652038Y-37657707D01*
X102271085Y-37657707D01*
X96843001Y-43072242D02*
X96890620Y-42929385D01*
X96890620Y-42691290D01*
X96843001Y-42596052D01*
X96795382Y-42548433D01*
X96700144Y-42500814D01*
X96604906Y-42500814D01*
X96509668Y-42548433D01*
X96462049Y-42596052D01*
X96414430Y-42691290D01*
X96366811Y-42881766D01*
X96319192Y-42977004D01*
X96271573Y-43024623D01*
X96176335Y-43072242D01*
X96081097Y-43072242D01*
X95985859Y-43024623D01*
X95938240Y-42977004D01*
X95890620Y-42881766D01*
X95890620Y-42643671D01*
X95938240Y-42500814D01*
X95890620Y-42167480D02*
X96890620Y-41929385D01*
X96176335Y-41738909D01*
X96890620Y-41548433D01*
X95890620Y-41310338D01*
X96890620Y-40929385D02*
X95890620Y-40929385D01*
X95890620Y-40691290D01*
X95938240Y-40548433D01*
X96033478Y-40453195D01*
X96128716Y-40405576D01*
X96319192Y-40357957D01*
X96462049Y-40357957D01*
X96652525Y-40405576D01*
X96747763Y-40453195D01*
X96843001Y-40548433D01*
X96890620Y-40691290D01*
X96890620Y-40929385D01*
X102275086Y-35004780D02*
X102275086Y-35719066D01*
X102227467Y-35861923D01*
X102132229Y-35957161D01*
X101989372Y-36004780D01*
X101894134Y-36004780D01*
X103275086Y-36004780D02*
X102703658Y-36004780D01*
X102989372Y-36004780D02*
X102989372Y-35004780D01*
X102894134Y-35147638D01*
X102798896Y-35242876D01*
X102703658Y-35290495D01*
X144189724Y-41031440D02*
X144189724Y-40031440D01*
X144427820Y-40031440D01*
X144570677Y-40079060D01*
X144665915Y-40174298D01*
X144713534Y-40269536D01*
X144761153Y-40460012D01*
X144761153Y-40602869D01*
X144713534Y-40793345D01*
X144665915Y-40888583D01*
X144570677Y-40983821D01*
X144427820Y-41031440D01*
X144189724Y-41031440D01*
X145713534Y-41031440D02*
X145142105Y-41031440D01*
X145427820Y-41031440D02*
X145427820Y-40031440D01*
X145332581Y-40174298D01*
X145237343Y-40269536D01*
X145142105Y-40317155D01*
X123632673Y-30823120D02*
X123299340Y-30346930D01*
X123061244Y-30823120D02*
X123061244Y-29823120D01*
X123442197Y-29823120D01*
X123537435Y-29870740D01*
X123585054Y-29918359D01*
X123632673Y-30013597D01*
X123632673Y-30156454D01*
X123585054Y-30251692D01*
X123537435Y-30299311D01*
X123442197Y-30346930D01*
X123061244Y-30346930D01*
X124537435Y-29823120D02*
X124061244Y-29823120D01*
X124013625Y-30299311D01*
X124061244Y-30251692D01*
X124156482Y-30204073D01*
X124394578Y-30204073D01*
X124489816Y-30251692D01*
X124537435Y-30299311D01*
X124585054Y-30394549D01*
X124585054Y-30632644D01*
X124537435Y-30727882D01*
X124489816Y-30775501D01*
X124394578Y-30823120D01*
X124156482Y-30823120D01*
X124061244Y-30775501D01*
X124013625Y-30727882D01*
X146804155Y-22317480D02*
X146804155Y-23127004D01*
X146851774Y-23222242D01*
X146899393Y-23269861D01*
X146994631Y-23317480D01*
X147185107Y-23317480D01*
X147280345Y-23269861D01*
X147327964Y-23222242D01*
X147375583Y-23127004D01*
X147375583Y-22317480D01*
X148280345Y-22650814D02*
X148280345Y-23317480D01*
X148042250Y-22269861D02*
X147804155Y-22984147D01*
X148423202Y-22984147D01*
X142717571Y-29834504D02*
X142765190Y-29691647D01*
X142812809Y-29644028D01*
X142908047Y-29596409D01*
X143050904Y-29596409D01*
X143146142Y-29644028D01*
X143193761Y-29691647D01*
X143241380Y-29786885D01*
X143241380Y-30167838D01*
X142241380Y-30167838D01*
X142241380Y-29834504D01*
X142289000Y-29739266D01*
X142336619Y-29691647D01*
X142431857Y-29644028D01*
X142527095Y-29644028D01*
X142622333Y-29691647D01*
X142669952Y-29739266D01*
X142717571Y-29834504D01*
X142717571Y-30167838D01*
X143241380Y-29167838D02*
X142241380Y-29167838D01*
X142955666Y-28834504D01*
X142241380Y-28501171D01*
X143241380Y-28501171D01*
X142717571Y-28024980D02*
X142717571Y-27691647D01*
X143241380Y-27548790D02*
X143241380Y-28024980D01*
X142241380Y-28024980D01*
X142241380Y-27548790D01*
X143336619Y-27358314D02*
X143336619Y-26596409D01*
X142336619Y-26405933D02*
X142289000Y-26358314D01*
X142241380Y-26263076D01*
X142241380Y-26024980D01*
X142289000Y-25929742D01*
X142336619Y-25882123D01*
X142431857Y-25834504D01*
X142527095Y-25834504D01*
X142669952Y-25882123D01*
X143241380Y-26453552D01*
X143241380Y-25834504D01*
X142669952Y-25263076D02*
X142622333Y-25358314D01*
X142574714Y-25405933D01*
X142479476Y-25453552D01*
X142431857Y-25453552D01*
X142336619Y-25405933D01*
X142289000Y-25358314D01*
X142241380Y-25263076D01*
X142241380Y-25072600D01*
X142289000Y-24977361D01*
X142336619Y-24929742D01*
X142431857Y-24882123D01*
X142479476Y-24882123D01*
X142574714Y-24929742D01*
X142622333Y-24977361D01*
X142669952Y-25072600D01*
X142669952Y-25263076D01*
X142717571Y-25358314D01*
X142765190Y-25405933D01*
X142860428Y-25453552D01*
X143050904Y-25453552D01*
X143146142Y-25405933D01*
X143193761Y-25358314D01*
X143241380Y-25263076D01*
X143241380Y-25072600D01*
X143193761Y-24977361D01*
X143146142Y-24929742D01*
X143050904Y-24882123D01*
X142860428Y-24882123D01*
X142765190Y-24929742D01*
X142717571Y-24977361D01*
X142669952Y-25072600D01*
X142241380Y-24263076D02*
X142241380Y-24167838D01*
X142289000Y-24072600D01*
X142336619Y-24024980D01*
X142431857Y-23977361D01*
X142622333Y-23929742D01*
X142860428Y-23929742D01*
X143050904Y-23977361D01*
X143146142Y-24024980D01*
X143193761Y-24072600D01*
X143241380Y-24167838D01*
X143241380Y-24263076D01*
X143193761Y-24358314D01*
X143146142Y-24405933D01*
X143050904Y-24453552D01*
X142860428Y-24501171D01*
X142622333Y-24501171D01*
X142431857Y-24453552D01*
X142336619Y-24405933D01*
X142289000Y-24358314D01*
X142241380Y-24263076D01*
X141461569Y-19983810D02*
X141461569Y-20460000D01*
X141128236Y-19460000D02*
X141461569Y-19983810D01*
X141794902Y-19460000D01*
X142652045Y-20460000D02*
X142080617Y-20460000D01*
X142366331Y-20460000D02*
X142366331Y-19460000D01*
X142271093Y-19602858D01*
X142175855Y-19698096D01*
X142080617Y-19745715D01*
X116860968Y-23171907D02*
X116860968Y-23648097D01*
X116527635Y-22648097D02*
X116860968Y-23171907D01*
X117194301Y-22648097D01*
X117480016Y-22743336D02*
X117527635Y-22695717D01*
X117622873Y-22648097D01*
X117860968Y-22648097D01*
X117956206Y-22695717D01*
X118003825Y-22743336D01*
X118051444Y-22838574D01*
X118051444Y-22933812D01*
X118003825Y-23076669D01*
X117432397Y-23648097D01*
X118051444Y-23648097D01*
X112072186Y-42274141D02*
X112215043Y-42321760D01*
X112453139Y-42321760D01*
X112548377Y-42274141D01*
X112595996Y-42226522D01*
X112643615Y-42131284D01*
X112643615Y-42036046D01*
X112595996Y-41940808D01*
X112548377Y-41893189D01*
X112453139Y-41845570D01*
X112262662Y-41797951D01*
X112167424Y-41750332D01*
X112119805Y-41702713D01*
X112072186Y-41607475D01*
X112072186Y-41512237D01*
X112119805Y-41416999D01*
X112167424Y-41369380D01*
X112262662Y-41321760D01*
X112500758Y-41321760D01*
X112643615Y-41369380D01*
X112976948Y-41321760D02*
X113215043Y-42321760D01*
X113405520Y-41607475D01*
X113595996Y-42321760D01*
X113834091Y-41321760D01*
X114167424Y-41416999D02*
X114215043Y-41369380D01*
X114310281Y-41321760D01*
X114548377Y-41321760D01*
X114643615Y-41369380D01*
X114691234Y-41416999D01*
X114738853Y-41512237D01*
X114738853Y-41607475D01*
X114691234Y-41750332D01*
X114119805Y-42321760D01*
X114738853Y-42321760D01*
M02*
