G04 #@! TF.GenerationSoftware,KiCad,Pcbnew,5.1.6-c6e7f7d~87~ubuntu18.04.1*
G04 #@! TF.CreationDate,2020-08-29T18:15:57+05:30*
G04 #@! TF.ProjectId,Sensor_pcb_v2,53656e73-6f72-45f7-9063-625f76322e6b,rev?*
G04 #@! TF.SameCoordinates,Original*
G04 #@! TF.FileFunction,Legend,Bot*
G04 #@! TF.FilePolarity,Positive*
%FSLAX46Y46*%
G04 Gerber Fmt 4.6, Leading zero omitted, Abs format (unit mm)*
G04 Created by KiCad (PCBNEW 5.1.6-c6e7f7d~87~ubuntu18.04.1) date 2020-08-29 18:15:57*
%MOMM*%
%LPD*%
G01*
G04 APERTURE LIST*
%ADD10C,0.120000*%
%ADD11C,0.150000*%
%ADD12C,0.125000*%
G04 APERTURE END LIST*
D10*
X106298000Y-44115900D02*
X107498000Y-44115900D01*
X107498000Y-42355900D02*
X106298000Y-42355900D01*
X99590000Y-33428400D02*
X99590000Y-34628400D01*
X101350000Y-34628400D02*
X101350000Y-33428400D01*
X105656000Y-37056200D02*
X107116000Y-37056200D01*
X105656000Y-33896200D02*
X107816000Y-33896200D01*
X105656000Y-33896200D02*
X105656000Y-34826200D01*
X105656000Y-37056200D02*
X105656000Y-36126200D01*
X102338000Y-35322700D02*
X102338000Y-32122700D01*
X104458000Y-32122700D02*
X104458000Y-35322700D01*
X104458000Y-35322700D02*
X102338000Y-35322700D01*
D11*
X127202000Y-30883900D02*
X127192000Y-44283900D01*
X143192000Y-30883900D02*
X127202000Y-30883900D01*
X143192000Y-44283900D02*
X143192000Y-30883900D01*
X127192000Y-44283900D02*
X143192000Y-44283900D01*
X142332175Y-42483900D02*
G75*
G03*
X142332175Y-42483900I-1140175J0D01*
G01*
D10*
X123361000Y-25703600D02*
X122161000Y-25703600D01*
X122161000Y-27463600D02*
X123361000Y-27463600D01*
X122222000Y-24857600D02*
X123422000Y-24857600D01*
X123422000Y-23097600D02*
X122222000Y-23097600D01*
X127878000Y-21563600D02*
X127878000Y-20233600D01*
X126548000Y-21563600D02*
X127878000Y-21563600D01*
X125278000Y-21563600D02*
X125278000Y-18903600D01*
X125278000Y-18903600D02*
X117598000Y-18903600D01*
X125278000Y-21563600D02*
X117598000Y-21563600D01*
X117598000Y-21563600D02*
X117598000Y-18903600D01*
X116593000Y-26347100D02*
X116593000Y-27347100D01*
X114893000Y-27347100D02*
X114893000Y-26347100D01*
X138035000Y-25575600D02*
X138035000Y-26575600D01*
X136335000Y-26575600D02*
X136335000Y-25575600D01*
X132002000Y-26702600D02*
X132002000Y-25702600D01*
X133702000Y-25702600D02*
X133702000Y-26702600D01*
X118975000Y-26106500D02*
X118975000Y-27106500D01*
X117275000Y-27106500D02*
X117275000Y-26106500D01*
X100082000Y-20660000D02*
X100082000Y-19660000D01*
X101782000Y-19660000D02*
X101782000Y-20660000D01*
X104223000Y-27744800D02*
X104223000Y-28744800D01*
X102523000Y-28744800D02*
X102523000Y-27744800D01*
X114081000Y-42685100D02*
X114081000Y-43685100D01*
X112381000Y-43685100D02*
X112381000Y-42685100D01*
X103730000Y-39129900D02*
X104930000Y-39129900D01*
X104930000Y-37369900D02*
X103730000Y-37369900D01*
X102267000Y-19511700D02*
X102267000Y-20711700D01*
X104027000Y-20711700D02*
X104027000Y-19511700D01*
X110850000Y-26440800D02*
X110850000Y-27640800D01*
X112610000Y-27640800D02*
X112610000Y-26440800D01*
X122036000Y-29823300D02*
X123236000Y-29823300D01*
X123236000Y-28063300D02*
X122036000Y-28063300D01*
X108190000Y-29067400D02*
X105740000Y-29067400D01*
X106390000Y-25847400D02*
X108190000Y-25847400D01*
D11*
X107064666Y-45338280D02*
X107398000Y-44862090D01*
X107636095Y-45338280D02*
X107636095Y-44338280D01*
X107255142Y-44338280D01*
X107159904Y-44385900D01*
X107112285Y-44433519D01*
X107064666Y-44528757D01*
X107064666Y-44671614D01*
X107112285Y-44766852D01*
X107159904Y-44814471D01*
X107255142Y-44862090D01*
X107636095Y-44862090D01*
X106588476Y-45338280D02*
X106398000Y-45338280D01*
X106302761Y-45290661D01*
X106255142Y-45243042D01*
X106159904Y-45100185D01*
X106112285Y-44909709D01*
X106112285Y-44528757D01*
X106159904Y-44433519D01*
X106207523Y-44385900D01*
X106302761Y-44338280D01*
X106493238Y-44338280D01*
X106588476Y-44385900D01*
X106636095Y-44433519D01*
X106683714Y-44528757D01*
X106683714Y-44766852D01*
X106636095Y-44862090D01*
X106588476Y-44909709D01*
X106493238Y-44957328D01*
X106302761Y-44957328D01*
X106207523Y-44909709D01*
X106159904Y-44862090D01*
X106112285Y-44766852D01*
X99272380Y-33861733D02*
X98796190Y-33528400D01*
X99272380Y-33290304D02*
X98272380Y-33290304D01*
X98272380Y-33671257D01*
X98320000Y-33766495D01*
X98367619Y-33814114D01*
X98462857Y-33861733D01*
X98605714Y-33861733D01*
X98700952Y-33814114D01*
X98748571Y-33766495D01*
X98796190Y-33671257D01*
X98796190Y-33290304D01*
X98700952Y-34433161D02*
X98653333Y-34337923D01*
X98605714Y-34290304D01*
X98510476Y-34242685D01*
X98462857Y-34242685D01*
X98367619Y-34290304D01*
X98320000Y-34337923D01*
X98272380Y-34433161D01*
X98272380Y-34623638D01*
X98320000Y-34718876D01*
X98367619Y-34766495D01*
X98462857Y-34814114D01*
X98510476Y-34814114D01*
X98605714Y-34766495D01*
X98653333Y-34718876D01*
X98700952Y-34623638D01*
X98700952Y-34433161D01*
X98748571Y-34337923D01*
X98796190Y-34290304D01*
X98891428Y-34242685D01*
X99081904Y-34242685D01*
X99177142Y-34290304D01*
X99224761Y-34337923D01*
X99272380Y-34433161D01*
X99272380Y-34623638D01*
X99224761Y-34718876D01*
X99177142Y-34766495D01*
X99081904Y-34814114D01*
X98891428Y-34814114D01*
X98796190Y-34766495D01*
X98748571Y-34718876D01*
X98700952Y-34623638D01*
X109061398Y-36023819D02*
X109156636Y-35976200D01*
X109251874Y-35880961D01*
X109394731Y-35738104D01*
X109489969Y-35690485D01*
X109585207Y-35690485D01*
X109537588Y-35928580D02*
X109632826Y-35880961D01*
X109728064Y-35785723D01*
X109775683Y-35595247D01*
X109775683Y-35261914D01*
X109728064Y-35071438D01*
X109632826Y-34976200D01*
X109537588Y-34928580D01*
X109347112Y-34928580D01*
X109251874Y-34976200D01*
X109156636Y-35071438D01*
X109109017Y-35261914D01*
X109109017Y-35595247D01*
X109156636Y-35785723D01*
X109251874Y-35880961D01*
X109347112Y-35928580D01*
X109537588Y-35928580D01*
X108156636Y-35928580D02*
X108728064Y-35928580D01*
X108442350Y-35928580D02*
X108442350Y-34928580D01*
X108537588Y-35071438D01*
X108632826Y-35166676D01*
X108728064Y-35214295D01*
X104108155Y-36628160D02*
X104108155Y-35628160D01*
X103870060Y-35628160D01*
X103727202Y-35675780D01*
X103631964Y-35771018D01*
X103584345Y-35866256D01*
X103536726Y-36056732D01*
X103536726Y-36199589D01*
X103584345Y-36390065D01*
X103631964Y-36485303D01*
X103727202Y-36580541D01*
X103870060Y-36628160D01*
X104108155Y-36628160D01*
X103155774Y-35723399D02*
X103108155Y-35675780D01*
X103012917Y-35628160D01*
X102774821Y-35628160D01*
X102679583Y-35675780D01*
X102631964Y-35723399D01*
X102584345Y-35818637D01*
X102584345Y-35913875D01*
X102631964Y-36056732D01*
X103203393Y-36628160D01*
X102584345Y-36628160D01*
X145117804Y-40414880D02*
X145117804Y-41224404D01*
X145070185Y-41319642D01*
X145022566Y-41367261D01*
X144927328Y-41414880D01*
X144736852Y-41414880D01*
X144641614Y-41367261D01*
X144593995Y-41319642D01*
X144546376Y-41224404D01*
X144546376Y-40414880D01*
X144117804Y-40510119D02*
X144070185Y-40462500D01*
X143974947Y-40414880D01*
X143736852Y-40414880D01*
X143641614Y-40462500D01*
X143593995Y-40510119D01*
X143546376Y-40605357D01*
X143546376Y-40700595D01*
X143593995Y-40843452D01*
X144165423Y-41414880D01*
X143546376Y-41414880D01*
D12*
X140024380Y-36051042D02*
X140024380Y-35336757D01*
X139024380Y-35336757D01*
X140024380Y-36765328D02*
X139976761Y-36622471D01*
X139929142Y-36551042D01*
X139833904Y-36479614D01*
X139548190Y-36479614D01*
X139452952Y-36551042D01*
X139405333Y-36622471D01*
X139357714Y-36765328D01*
X139357714Y-36979614D01*
X139405333Y-37122471D01*
X139452952Y-37193900D01*
X139548190Y-37265328D01*
X139833904Y-37265328D01*
X139929142Y-37193900D01*
X139976761Y-37122471D01*
X140024380Y-36979614D01*
X140024380Y-36765328D01*
X140024380Y-38765328D02*
X139548190Y-38265328D01*
X140024380Y-37908185D02*
X139024380Y-37908185D01*
X139024380Y-38479614D01*
X139072000Y-38622471D01*
X139119619Y-38693900D01*
X139214857Y-38765328D01*
X139357714Y-38765328D01*
X139452952Y-38693900D01*
X139500571Y-38622471D01*
X139548190Y-38479614D01*
X139548190Y-37908185D01*
X140024380Y-40051042D02*
X139500571Y-40051042D01*
X139405333Y-39979614D01*
X139357714Y-39836757D01*
X139357714Y-39551042D01*
X139405333Y-39408185D01*
X139976761Y-40051042D02*
X140024380Y-39908185D01*
X140024380Y-39551042D01*
X139976761Y-39408185D01*
X139881523Y-39336757D01*
X139786285Y-39336757D01*
X139691047Y-39408185D01*
X139643428Y-39551042D01*
X139643428Y-39908185D01*
X139595809Y-40051042D01*
D11*
X125470206Y-26931840D02*
X125803540Y-26455650D01*
X126041635Y-26931840D02*
X126041635Y-25931840D01*
X125660682Y-25931840D01*
X125565444Y-25979460D01*
X125517825Y-26027079D01*
X125470206Y-26122317D01*
X125470206Y-26265174D01*
X125517825Y-26360412D01*
X125565444Y-26408031D01*
X125660682Y-26455650D01*
X126041635Y-26455650D01*
X125136873Y-25931840D02*
X124470206Y-25931840D01*
X124898778Y-26931840D01*
X120364846Y-24353780D02*
X120698180Y-23877590D01*
X120936275Y-24353780D02*
X120936275Y-23353780D01*
X120555322Y-23353780D01*
X120460084Y-23401400D01*
X120412465Y-23449019D01*
X120364846Y-23544257D01*
X120364846Y-23687114D01*
X120412465Y-23782352D01*
X120460084Y-23829971D01*
X120555322Y-23877590D01*
X120936275Y-23877590D01*
X119507703Y-23353780D02*
X119698180Y-23353780D01*
X119793418Y-23401400D01*
X119841037Y-23449019D01*
X119936275Y-23591876D01*
X119983894Y-23782352D01*
X119983894Y-24163304D01*
X119936275Y-24258542D01*
X119888656Y-24306161D01*
X119793418Y-24353780D01*
X119602941Y-24353780D01*
X119507703Y-24306161D01*
X119460084Y-24258542D01*
X119412465Y-24163304D01*
X119412465Y-23925209D01*
X119460084Y-23829971D01*
X119507703Y-23782352D01*
X119602941Y-23734733D01*
X119793418Y-23734733D01*
X119888656Y-23782352D01*
X119936275Y-23829971D01*
X119983894Y-23925209D01*
X116642593Y-18814760D02*
X116642593Y-19529046D01*
X116690212Y-19671903D01*
X116785450Y-19767141D01*
X116928307Y-19814760D01*
X117023545Y-19814760D01*
X116261640Y-18814760D02*
X115642593Y-18814760D01*
X115975926Y-19195713D01*
X115833069Y-19195713D01*
X115737831Y-19243332D01*
X115690212Y-19290951D01*
X115642593Y-19386189D01*
X115642593Y-19624284D01*
X115690212Y-19719522D01*
X115737831Y-19767141D01*
X115833069Y-19814760D01*
X116118783Y-19814760D01*
X116214021Y-19767141D01*
X116261640Y-19719522D01*
X113854806Y-27276122D02*
X113902425Y-27323741D01*
X114045282Y-27371360D01*
X114140520Y-27371360D01*
X114283378Y-27323741D01*
X114378616Y-27228503D01*
X114426235Y-27133265D01*
X114473854Y-26942789D01*
X114473854Y-26799932D01*
X114426235Y-26609456D01*
X114378616Y-26514218D01*
X114283378Y-26418980D01*
X114140520Y-26371360D01*
X114045282Y-26371360D01*
X113902425Y-26418980D01*
X113854806Y-26466599D01*
X113473854Y-26466599D02*
X113426235Y-26418980D01*
X113330997Y-26371360D01*
X113092901Y-26371360D01*
X112997663Y-26418980D01*
X112950044Y-26466599D01*
X112902425Y-26561837D01*
X112902425Y-26657075D01*
X112950044Y-26799932D01*
X113521473Y-27371360D01*
X112902425Y-27371360D01*
X139119506Y-26379402D02*
X139167125Y-26427021D01*
X139309982Y-26474640D01*
X139405220Y-26474640D01*
X139548078Y-26427021D01*
X139643316Y-26331783D01*
X139690935Y-26236545D01*
X139738554Y-26046069D01*
X139738554Y-25903212D01*
X139690935Y-25712736D01*
X139643316Y-25617498D01*
X139548078Y-25522260D01*
X139405220Y-25474640D01*
X139309982Y-25474640D01*
X139167125Y-25522260D01*
X139119506Y-25569879D01*
X138262363Y-25807974D02*
X138262363Y-26474640D01*
X138500459Y-25427021D02*
X138738554Y-26141307D01*
X138119506Y-26141307D01*
X131235586Y-26483542D02*
X131283205Y-26531161D01*
X131426062Y-26578780D01*
X131521300Y-26578780D01*
X131664158Y-26531161D01*
X131759396Y-26435923D01*
X131807015Y-26340685D01*
X131854634Y-26150209D01*
X131854634Y-26007352D01*
X131807015Y-25816876D01*
X131759396Y-25721638D01*
X131664158Y-25626400D01*
X131521300Y-25578780D01*
X131426062Y-25578780D01*
X131283205Y-25626400D01*
X131235586Y-25674019D01*
X130330824Y-25578780D02*
X130807015Y-25578780D01*
X130854634Y-26054971D01*
X130807015Y-26007352D01*
X130711777Y-25959733D01*
X130473681Y-25959733D01*
X130378443Y-26007352D01*
X130330824Y-26054971D01*
X130283205Y-26150209D01*
X130283205Y-26388304D01*
X130330824Y-26483542D01*
X130378443Y-26531161D01*
X130473681Y-26578780D01*
X130711777Y-26578780D01*
X130807015Y-26531161D01*
X130854634Y-26483542D01*
X120150946Y-27057622D02*
X120198565Y-27105241D01*
X120341422Y-27152860D01*
X120436660Y-27152860D01*
X120579518Y-27105241D01*
X120674756Y-27010003D01*
X120722375Y-26914765D01*
X120769994Y-26724289D01*
X120769994Y-26581432D01*
X120722375Y-26390956D01*
X120674756Y-26295718D01*
X120579518Y-26200480D01*
X120436660Y-26152860D01*
X120341422Y-26152860D01*
X120198565Y-26200480D01*
X120150946Y-26248099D01*
X119293803Y-26152860D02*
X119484280Y-26152860D01*
X119579518Y-26200480D01*
X119627137Y-26248099D01*
X119722375Y-26390956D01*
X119769994Y-26581432D01*
X119769994Y-26962384D01*
X119722375Y-27057622D01*
X119674756Y-27105241D01*
X119579518Y-27152860D01*
X119389041Y-27152860D01*
X119293803Y-27105241D01*
X119246184Y-27057622D01*
X119198565Y-26962384D01*
X119198565Y-26724289D01*
X119246184Y-26629051D01*
X119293803Y-26581432D01*
X119389041Y-26533813D01*
X119579518Y-26533813D01*
X119674756Y-26581432D01*
X119722375Y-26629051D01*
X119769994Y-26724289D01*
X99074286Y-20237742D02*
X99121905Y-20285361D01*
X99264762Y-20332980D01*
X99360000Y-20332980D01*
X99502858Y-20285361D01*
X99598096Y-20190123D01*
X99645715Y-20094885D01*
X99693334Y-19904409D01*
X99693334Y-19761552D01*
X99645715Y-19571076D01*
X99598096Y-19475838D01*
X99502858Y-19380600D01*
X99360000Y-19332980D01*
X99264762Y-19332980D01*
X99121905Y-19380600D01*
X99074286Y-19428219D01*
X98740953Y-19332980D02*
X98074286Y-19332980D01*
X98502858Y-20332980D01*
X103539666Y-26191482D02*
X103587285Y-26239101D01*
X103730142Y-26286720D01*
X103825380Y-26286720D01*
X103968238Y-26239101D01*
X104063476Y-26143863D01*
X104111095Y-26048625D01*
X104158714Y-25858149D01*
X104158714Y-25715292D01*
X104111095Y-25524816D01*
X104063476Y-25429578D01*
X103968238Y-25334340D01*
X103825380Y-25286720D01*
X103730142Y-25286720D01*
X103587285Y-25334340D01*
X103539666Y-25381959D01*
X102587285Y-26286720D02*
X103158714Y-26286720D01*
X102873000Y-26286720D02*
X102873000Y-25286720D01*
X102968238Y-25429578D01*
X103063476Y-25524816D01*
X103158714Y-25572435D01*
X115327666Y-43652242D02*
X115375285Y-43699861D01*
X115518142Y-43747480D01*
X115613380Y-43747480D01*
X115756238Y-43699861D01*
X115851476Y-43604623D01*
X115899095Y-43509385D01*
X115946714Y-43318909D01*
X115946714Y-43176052D01*
X115899095Y-42985576D01*
X115851476Y-42890338D01*
X115756238Y-42795100D01*
X115613380Y-42747480D01*
X115518142Y-42747480D01*
X115375285Y-42795100D01*
X115327666Y-42842719D01*
X114994333Y-42747480D02*
X114375285Y-42747480D01*
X114708619Y-43128433D01*
X114565761Y-43128433D01*
X114470523Y-43176052D01*
X114422904Y-43223671D01*
X114375285Y-43318909D01*
X114375285Y-43557004D01*
X114422904Y-43652242D01*
X114470523Y-43699861D01*
X114565761Y-43747480D01*
X114851476Y-43747480D01*
X114946714Y-43699861D01*
X114994333Y-43652242D01*
X106922366Y-38671800D02*
X107255700Y-38195610D01*
X107493795Y-38671800D02*
X107493795Y-37671800D01*
X107112842Y-37671800D01*
X107017604Y-37719420D01*
X106969985Y-37767039D01*
X106922366Y-37862277D01*
X106922366Y-38005134D01*
X106969985Y-38100372D01*
X107017604Y-38147991D01*
X107112842Y-38195610D01*
X107493795Y-38195610D01*
X106541414Y-37767039D02*
X106493795Y-37719420D01*
X106398557Y-37671800D01*
X106160461Y-37671800D01*
X106065223Y-37719420D01*
X106017604Y-37767039D01*
X105969985Y-37862277D01*
X105969985Y-37957515D01*
X106017604Y-38100372D01*
X106589033Y-38671800D01*
X105969985Y-38671800D01*
X103313666Y-23064080D02*
X103647000Y-22587890D01*
X103885095Y-23064080D02*
X103885095Y-22064080D01*
X103504142Y-22064080D01*
X103408904Y-22111700D01*
X103361285Y-22159319D01*
X103313666Y-22254557D01*
X103313666Y-22397414D01*
X103361285Y-22492652D01*
X103408904Y-22540271D01*
X103504142Y-22587890D01*
X103885095Y-22587890D01*
X102980333Y-22064080D02*
X102361285Y-22064080D01*
X102694619Y-22445033D01*
X102551761Y-22445033D01*
X102456523Y-22492652D01*
X102408904Y-22540271D01*
X102361285Y-22635509D01*
X102361285Y-22873604D01*
X102408904Y-22968842D01*
X102456523Y-23016461D01*
X102551761Y-23064080D01*
X102837476Y-23064080D01*
X102932714Y-23016461D01*
X102980333Y-22968842D01*
X111678226Y-30068740D02*
X112011560Y-29592550D01*
X112249655Y-30068740D02*
X112249655Y-29068740D01*
X111868702Y-29068740D01*
X111773464Y-29116360D01*
X111725845Y-29163979D01*
X111678226Y-29259217D01*
X111678226Y-29402074D01*
X111725845Y-29497312D01*
X111773464Y-29544931D01*
X111868702Y-29592550D01*
X112249655Y-29592550D01*
X110725845Y-30068740D02*
X111297274Y-30068740D01*
X111011560Y-30068740D02*
X111011560Y-29068740D01*
X111106798Y-29211598D01*
X111202036Y-29306836D01*
X111297274Y-29354455D01*
X125408706Y-29179780D02*
X125742040Y-28703590D01*
X125980135Y-29179780D02*
X125980135Y-28179780D01*
X125599182Y-28179780D01*
X125503944Y-28227400D01*
X125456325Y-28275019D01*
X125408706Y-28370257D01*
X125408706Y-28513114D01*
X125456325Y-28608352D01*
X125503944Y-28655971D01*
X125599182Y-28703590D01*
X125980135Y-28703590D01*
X124551563Y-28513114D02*
X124551563Y-29179780D01*
X124789659Y-28132161D02*
X125027754Y-28846447D01*
X124408706Y-28846447D01*
X110762084Y-25004780D02*
X110762084Y-25814304D01*
X110714465Y-25909542D01*
X110666846Y-25957161D01*
X110571608Y-26004780D01*
X110381132Y-26004780D01*
X110285894Y-25957161D01*
X110238275Y-25909542D01*
X110190656Y-25814304D01*
X110190656Y-25004780D01*
X109190656Y-26004780D02*
X109762084Y-26004780D01*
X109476370Y-26004780D02*
X109476370Y-25004780D01*
X109571608Y-25147638D01*
X109666846Y-25242876D01*
X109762084Y-25290495D01*
M02*
