G04 #@! TF.GenerationSoftware,KiCad,Pcbnew,5.1.6-c6e7f7d~87~ubuntu18.04.1*
G04 #@! TF.CreationDate,2020-08-29T18:15:57+05:30*
G04 #@! TF.ProjectId,Sensor_pcb_v2,53656e73-6f72-45f7-9063-625f76322e6b,rev?*
G04 #@! TF.SameCoordinates,Original*
G04 #@! TF.FileFunction,Copper,L1,Top*
G04 #@! TF.FilePolarity,Positive*
%FSLAX46Y46*%
G04 Gerber Fmt 4.6, Leading zero omitted, Abs format (unit mm)*
G04 Created by KiCad (PCBNEW 5.1.6-c6e7f7d~87~ubuntu18.04.1) date 2020-08-29 18:15:57*
%MOMM*%
%LPD*%
G01*
G04 APERTURE LIST*
G04 #@! TA.AperFunction,SMDPad,CuDef*
%ADD10R,1.000000X0.230000*%
G04 #@! TD*
G04 #@! TA.AperFunction,SMDPad,CuDef*
%ADD11R,0.230000X1.000000*%
G04 #@! TD*
G04 #@! TA.AperFunction,SMDPad,CuDef*
%ADD12R,0.800000X1.000000*%
G04 #@! TD*
G04 #@! TA.AperFunction,SMDPad,CuDef*
%ADD13R,1.100000X0.700000*%
G04 #@! TD*
G04 #@! TA.AperFunction,ComponentPad*
%ADD14C,1.524000*%
G04 #@! TD*
G04 #@! TA.AperFunction,SMDPad,CuDef*
%ADD15R,0.900000X0.800000*%
G04 #@! TD*
G04 #@! TA.AperFunction,ComponentPad*
%ADD16R,1.700000X1.700000*%
G04 #@! TD*
G04 #@! TA.AperFunction,ComponentPad*
%ADD17O,1.700000X1.700000*%
G04 #@! TD*
G04 #@! TA.AperFunction,ComponentPad*
%ADD18O,1.800000X1.800000*%
G04 #@! TD*
G04 #@! TA.AperFunction,ComponentPad*
%ADD19R,1.800000X1.800000*%
G04 #@! TD*
G04 #@! TA.AperFunction,ComponentPad*
%ADD20C,1.500000*%
G04 #@! TD*
G04 #@! TA.AperFunction,ComponentPad*
%ADD21C,2.000000*%
G04 #@! TD*
G04 #@! TA.AperFunction,ViaPad*
%ADD22C,1.000000*%
G04 #@! TD*
G04 #@! TA.AperFunction,Conductor*
%ADD23C,0.170000*%
G04 #@! TD*
G04 #@! TA.AperFunction,Conductor*
%ADD24C,0.254000*%
G04 #@! TD*
G04 APERTURE END LIST*
D10*
X119924000Y-37381200D03*
D11*
X118654000Y-31031200D03*
X118146000Y-31031200D03*
X117638000Y-31031200D03*
X117130000Y-31031200D03*
X116622000Y-31031200D03*
X116114000Y-31031200D03*
X115606000Y-31031200D03*
X115098000Y-31031200D03*
X114590000Y-31031200D03*
X114082000Y-31031200D03*
X113574000Y-31031200D03*
X113066000Y-31031200D03*
D10*
X111796000Y-32301200D03*
X111796000Y-32809200D03*
X111796000Y-33825200D03*
X111796000Y-34333200D03*
X111796000Y-34841200D03*
X111796000Y-35349200D03*
X111796000Y-35857200D03*
X111796000Y-36365200D03*
X111796000Y-36873200D03*
X111796000Y-37381200D03*
X111796000Y-37889200D03*
D11*
X113574000Y-39159200D03*
X114082000Y-39159200D03*
X114590000Y-39159200D03*
X115098000Y-39159200D03*
X115606000Y-39159200D03*
X116114000Y-39159200D03*
X116622000Y-39159200D03*
X117130000Y-39159200D03*
X117638000Y-39159200D03*
X118146000Y-39159200D03*
X118654000Y-39159200D03*
D10*
X119924000Y-37889200D03*
X119924000Y-36873200D03*
X119924000Y-36365200D03*
X119924000Y-35857200D03*
X119924000Y-35349200D03*
X119924000Y-34841200D03*
X119924000Y-34333200D03*
X119924000Y-33825200D03*
X119924000Y-33317200D03*
X119924000Y-32809200D03*
X119924000Y-32301200D03*
D11*
X113066000Y-39159200D03*
D10*
X111796000Y-33317200D03*
D12*
X150418000Y-34858000D03*
X148118000Y-34858000D03*
X150418000Y-42358000D03*
X148118000Y-42358000D03*
D13*
X147218000Y-36358000D03*
X147218000Y-37858000D03*
X147218000Y-40858000D03*
D14*
X95783400Y-46750000D03*
X150860000Y-46758900D03*
X150866000Y-19700000D03*
X95498900Y-19700200D03*
D15*
X102992000Y-23374600D03*
X102992000Y-25474600D03*
X103314000Y-30580600D03*
X103314000Y-32680600D03*
D16*
X115941000Y-45877500D03*
D17*
X118481000Y-45877500D03*
X121021000Y-45877500D03*
X123561000Y-45877500D03*
D14*
X98554700Y-26050600D03*
X98544700Y-23510600D03*
D17*
X98826300Y-38442900D03*
X98826300Y-40982900D03*
X98826300Y-43522900D03*
D16*
X98826300Y-46062900D03*
X145440000Y-46349900D03*
X126548000Y-20233600D03*
D17*
X124008000Y-20233600D03*
X121468000Y-20233600D03*
X118928000Y-20233600D03*
D14*
X98570000Y-33988100D03*
X98560000Y-31448100D03*
D15*
X144981000Y-39144900D03*
X144981000Y-37044900D03*
D18*
X123619000Y-32374800D03*
D19*
X123619000Y-37454800D03*
D14*
X149499000Y-24452600D03*
X149499000Y-26992600D03*
X149499000Y-29532600D03*
X149499000Y-32072600D03*
D20*
X132374000Y-21435100D03*
X137254000Y-21435100D03*
X112784000Y-21435100D03*
X107904000Y-21435100D03*
D21*
X103761000Y-45661600D03*
X103761000Y-41161600D03*
X110261000Y-45661600D03*
X110261000Y-41161600D03*
D22*
X115394740Y-29375102D03*
X115630960Y-43119040D03*
X116959378Y-34518600D03*
X111196120Y-31069280D03*
X109034580Y-31541720D03*
X114574320Y-32986980D03*
X126232920Y-28856940D03*
X126133860Y-26068020D03*
X116060220Y-35847020D03*
X121158000Y-39433500D03*
X113603081Y-35182613D03*
X128087120Y-36195000D03*
X117162580Y-33075880D03*
X129816860Y-40419020D03*
X114356010Y-36735890D03*
X109072680Y-24470362D03*
X110726220Y-20378420D03*
X114683540Y-20477480D03*
X126392940Y-23398480D03*
X139258040Y-27160220D03*
X117800005Y-37258052D03*
X110835440Y-29649420D03*
X109676031Y-34825850D03*
X111419640Y-43743880D03*
X146039840Y-34170620D03*
X135089900Y-27764740D03*
X128856740Y-26924000D03*
X113761520Y-25407620D03*
X113948314Y-27905606D03*
X109265746Y-37455680D03*
X101031040Y-29649420D03*
X123634500Y-41122600D03*
X100563680Y-22951440D03*
X105384600Y-22707600D03*
X147314920Y-39400480D03*
X149301200Y-35747958D03*
X106461560Y-30467300D03*
X126959360Y-31668720D03*
X142618460Y-42715180D03*
X118709731Y-35174032D03*
X123403360Y-43642280D03*
X117957600Y-41048940D03*
X119286020Y-42776142D03*
X145816320Y-26527760D03*
X109451469Y-33041999D03*
X101447600Y-36835080D03*
X103390700Y-36304070D03*
X107922041Y-40008769D03*
X112270540Y-40586660D03*
D23*
X110261000Y-41161600D02*
X103761000Y-41161600D01*
X115606000Y-31031200D02*
X115606000Y-29586362D01*
X115606000Y-29586362D02*
X115394740Y-29375102D01*
X117913210Y-30233382D02*
X117638000Y-30508592D01*
X137254000Y-21435100D02*
X128455718Y-30233382D01*
X117638000Y-30508592D02*
X117638000Y-31031200D01*
X128455718Y-30233382D02*
X117913210Y-30233382D01*
X131313340Y-21435100D02*
X132374000Y-21435100D01*
X117130000Y-31031200D02*
X117130000Y-30493318D01*
X117130000Y-30493318D02*
X117816385Y-29806933D01*
X117816385Y-29806933D02*
X117816385Y-29669807D01*
X117816385Y-29669807D02*
X125751412Y-21734780D01*
X125751412Y-21734780D02*
X131013660Y-21734780D01*
X131013660Y-21734780D02*
X131313340Y-21435100D01*
X113533999Y-22185099D02*
X112784000Y-21435100D01*
X116622000Y-30380652D02*
X117446374Y-29556278D01*
X117446374Y-26097474D02*
X113533999Y-22185099D01*
X116622000Y-31031200D02*
X116622000Y-30380652D01*
X117446374Y-29556278D02*
X117446374Y-26097474D01*
X116114000Y-30096020D02*
X116114000Y-31031200D01*
X110912702Y-21435100D02*
X114625261Y-25147659D01*
X114625261Y-26003637D02*
X116641880Y-28020256D01*
X107904000Y-21435100D02*
X110912702Y-21435100D01*
X114625261Y-25147659D02*
X114625261Y-26003637D01*
X116641880Y-28020256D02*
X116641880Y-29568140D01*
X116641880Y-29568140D02*
X116114000Y-30096020D01*
X116499640Y-43987720D02*
X115630960Y-43119040D01*
X119603520Y-43987720D02*
X116499640Y-43987720D01*
X131161102Y-36358000D02*
X130280021Y-37239081D01*
X147218000Y-36358000D02*
X131161102Y-36358000D01*
X130280021Y-37239081D02*
X129794119Y-37239081D01*
X129794119Y-37239081D02*
X124734722Y-42298478D01*
X121292762Y-42298478D02*
X119603520Y-43987720D01*
X124734722Y-42298478D02*
X121292762Y-42298478D01*
X98554700Y-26050600D02*
X100211140Y-24394160D01*
X112528932Y-25765072D02*
X109971840Y-23207980D01*
X112528932Y-28808132D02*
X112528932Y-25765072D01*
X114082000Y-31031200D02*
X114082000Y-30361200D01*
X114082000Y-30361200D02*
X112528932Y-28808132D01*
X105603040Y-24394160D02*
X105617620Y-24394160D01*
X100211140Y-24394160D02*
X105603040Y-24394160D01*
X108253200Y-23180980D02*
X108280200Y-23207980D01*
X106830800Y-23180980D02*
X108253200Y-23180980D01*
X109971840Y-23207980D02*
X108280200Y-23207980D01*
X106484090Y-23527690D02*
X106830800Y-23180980D01*
X105617620Y-24394160D02*
X106484090Y-23527690D01*
X118229540Y-19535140D02*
X118928000Y-20233600D01*
X115244880Y-19410680D02*
X115369340Y-19535140D01*
X113896140Y-19410680D02*
X115244880Y-19410680D01*
X111721900Y-19535140D02*
X113771680Y-19535140D01*
X106492040Y-23519740D02*
X106492040Y-20309840D01*
X113771680Y-19535140D02*
X113896140Y-19410680D01*
X106484090Y-23527690D02*
X106492040Y-23519740D01*
X109329220Y-19949160D02*
X109923580Y-19354800D01*
X111541560Y-19354800D02*
X111721900Y-19535140D01*
X106492040Y-20309840D02*
X106852720Y-19949160D01*
X106852720Y-19949160D02*
X109329220Y-19949160D01*
X115369340Y-19535140D02*
X118229540Y-19535140D01*
X109923580Y-19354800D02*
X111541560Y-19354800D01*
X119924000Y-32301200D02*
X119070700Y-32301200D01*
X146382700Y-37858000D02*
X145108800Y-37858000D01*
X145108800Y-37858000D02*
X144981000Y-37730200D01*
X147218000Y-37858000D02*
X146382700Y-37858000D01*
X144981000Y-37044900D02*
X144981000Y-37730200D01*
X118654000Y-39159200D02*
X119032020Y-38781180D01*
X117558820Y-36389064D02*
X116058684Y-37889200D01*
X116058684Y-37889200D02*
X111796000Y-37889200D01*
X114590000Y-31701200D02*
X114590000Y-31031200D01*
X115075012Y-32186212D02*
X114590000Y-31701200D01*
X150459440Y-38666420D02*
X148026420Y-38666420D01*
X151635460Y-37490400D02*
X150459440Y-38666420D01*
X149499000Y-24452600D02*
X151635460Y-26589060D01*
X148026420Y-38666420D02*
X147218000Y-37858000D01*
X151635460Y-26589060D02*
X151635460Y-37490400D01*
X117434714Y-32186212D02*
X116684392Y-32186212D01*
X118982790Y-32389110D02*
X117637612Y-32389110D01*
X116684392Y-32186212D02*
X115075012Y-32186212D01*
X118982790Y-32389110D02*
X119070700Y-32301200D01*
X117637612Y-32389110D02*
X117434714Y-32186212D01*
X117924721Y-35323639D02*
X117924721Y-33447179D01*
X117558820Y-35689540D02*
X117924721Y-35323639D01*
X117924721Y-33447179D02*
X118982790Y-32389110D01*
X117558820Y-35689540D02*
X117558820Y-36004500D01*
X117558820Y-36004500D02*
X117558820Y-36389064D01*
X117558820Y-36004500D02*
X118046500Y-36004500D01*
X118602760Y-36560760D02*
X119032020Y-36560760D01*
X118046500Y-36004500D02*
X118602760Y-36560760D01*
X119032020Y-38781180D02*
X119032020Y-36560760D01*
X99552740Y-39169340D02*
X98826300Y-38442900D01*
X105331260Y-39169340D02*
X99552740Y-39169340D01*
X111359660Y-38610540D02*
X105890060Y-38610540D01*
X111796000Y-37889200D02*
X111796000Y-38174200D01*
X105890060Y-38610540D02*
X105331260Y-39169340D01*
X111796000Y-38174200D02*
X111359660Y-38610540D01*
X99676299Y-41832899D02*
X98826300Y-40982900D01*
X101083479Y-41832899D02*
X99676299Y-41832899D01*
X102019100Y-42768520D02*
X101083479Y-41832899D01*
X110709922Y-42768520D02*
X102019100Y-42768520D01*
X117638000Y-39829200D02*
X116334440Y-41132760D01*
X117638000Y-39159200D02*
X117638000Y-39829200D01*
X116334440Y-41132760D02*
X114480340Y-41132760D01*
X114480340Y-41132760D02*
X113146399Y-42466701D01*
X111011741Y-42466701D02*
X110709922Y-42768520D01*
X113146399Y-42466701D02*
X111011741Y-42466701D01*
X119924000Y-40593840D02*
X119924000Y-40261980D01*
X118340998Y-42176842D02*
X119924000Y-40593840D01*
X98826300Y-43522900D02*
X99222540Y-43919140D01*
X99222540Y-43919140D02*
X110105436Y-43919140D01*
X110105436Y-43919140D02*
X111065698Y-42958878D01*
X114455422Y-42958878D02*
X115237458Y-42176842D01*
X119924000Y-40261980D02*
X119924000Y-37889200D01*
X111065698Y-42958878D02*
X114455422Y-42958878D01*
X115237458Y-42176842D02*
X118340998Y-42176842D01*
X113362740Y-36329620D02*
X112818080Y-35784960D01*
X116383682Y-36812362D02*
X115663098Y-36812362D01*
X113788848Y-35949232D02*
X113408460Y-36329620D01*
X112818080Y-35784960D02*
X112818080Y-35193280D01*
X116959378Y-36236666D02*
X116383682Y-36812362D01*
X112466000Y-34841200D02*
X111796000Y-34841200D01*
X112818080Y-35193280D02*
X112466000Y-34841200D01*
X113408460Y-36329620D02*
X113362740Y-36329620D01*
X115663098Y-36812362D02*
X114799968Y-35949232D01*
X114799968Y-35949232D02*
X113788848Y-35949232D01*
X116959378Y-34518600D02*
X116959378Y-36236666D01*
X113066000Y-31031200D02*
X111234200Y-31031200D01*
X111234200Y-31031200D02*
X111196120Y-31069280D01*
X111796000Y-32301200D02*
X109794060Y-32301200D01*
X109794060Y-32301200D02*
X109034580Y-31541720D01*
X113177320Y-32435800D02*
X114023140Y-32435800D01*
X114023140Y-32435800D02*
X114574320Y-32986980D01*
X112905540Y-32707580D02*
X113177320Y-32435800D01*
X112905540Y-32707580D02*
X112905540Y-32720280D01*
X112816620Y-32809200D02*
X111796000Y-32809200D01*
X112905540Y-32720280D02*
X112816620Y-32809200D01*
X126232920Y-28856940D02*
X126232920Y-26167080D01*
X126232920Y-26167080D02*
X126133860Y-26068020D01*
X115732560Y-35847020D02*
X116060220Y-35847020D01*
X114365353Y-34479813D02*
X115732560Y-35847020D01*
X113952815Y-34479813D02*
X114365353Y-34479813D01*
X111796000Y-33825200D02*
X113298202Y-33825200D01*
X113298202Y-33825200D02*
X113952815Y-34479813D01*
X111796000Y-34333200D02*
X112753668Y-34333200D01*
X112753668Y-34333200D02*
X113603081Y-35182613D01*
X121158000Y-39433500D02*
X124848620Y-39433500D01*
X124848620Y-39433500D02*
X128087120Y-36195000D01*
X120709001Y-33940201D02*
X120709001Y-34610201D01*
X119924000Y-33825200D02*
X120594000Y-33825200D01*
X120802820Y-34704020D02*
X131398258Y-34704020D01*
X133584561Y-34566719D02*
X133721862Y-34704020D01*
X120709001Y-34610201D02*
X120802820Y-34704020D01*
X133721862Y-34704020D02*
X143542720Y-34704020D01*
X147151875Y-30802095D02*
X147856425Y-30802095D01*
X131535559Y-34566719D02*
X133584561Y-34566719D01*
X143542720Y-34411250D02*
X147151875Y-30802095D01*
X120594000Y-33825200D02*
X120709001Y-33940201D01*
X149125920Y-29532600D02*
X149499000Y-29532600D01*
X143542720Y-34704020D02*
X143542720Y-34411250D01*
X131398258Y-34704020D02*
X131535559Y-34566719D01*
X147856425Y-30802095D02*
X149125920Y-29532600D01*
X121844681Y-33212899D02*
X121091079Y-33212899D01*
X122474742Y-33842960D02*
X121844681Y-33212899D01*
X120986778Y-33317200D02*
X119924000Y-33317200D01*
X150865840Y-30705760D02*
X150865840Y-28821380D01*
X121091079Y-33212899D02*
X120986778Y-33317200D01*
X125989080Y-33842960D02*
X122474742Y-33842960D01*
X149499000Y-32072600D02*
X150865840Y-30705760D01*
X147396200Y-28237180D02*
X146596100Y-29037280D01*
X146596100Y-29037280D02*
X132052220Y-29037280D01*
X150865840Y-28821380D02*
X150281640Y-28237180D01*
X150281640Y-28237180D02*
X147396200Y-28237180D01*
X126606300Y-33225740D02*
X127579120Y-33225740D01*
X126606300Y-33225740D02*
X125989080Y-33842960D01*
X130110150Y-30694710D02*
X130394790Y-30694710D01*
X127579120Y-33225740D02*
X130110150Y-30694710D01*
X132052220Y-29037280D02*
X130394790Y-30694710D01*
X114137440Y-33896300D02*
X115437920Y-33896300D01*
X116258340Y-33075880D02*
X117162580Y-33075880D01*
X115437920Y-33896300D02*
X116258340Y-33075880D01*
X113558340Y-33317200D02*
X114137440Y-33896300D01*
X111796000Y-33317200D02*
X113558340Y-33317200D01*
X131090980Y-39144900D02*
X129816860Y-40419020D01*
X144981000Y-39144900D02*
X131090980Y-39144900D01*
X110379244Y-36873200D02*
X111796000Y-36873200D01*
X109660404Y-36154360D02*
X110379244Y-36873200D01*
X104595800Y-19063600D02*
X102005900Y-21653500D01*
X104904540Y-18732500D02*
X104595800Y-19041240D01*
X121468000Y-20233600D02*
X119966900Y-18732500D01*
X105765466Y-36154360D02*
X109660404Y-36154360D01*
X119966900Y-18732500D02*
X104904540Y-18732500D01*
X104595800Y-19041240D02*
X104595800Y-19063600D01*
X100350320Y-37392364D02*
X100834436Y-37876480D01*
X102005900Y-21653500D02*
X101470400Y-21653500D01*
X101470400Y-21653500D02*
X101345970Y-21777930D01*
X101345970Y-21777930D02*
X97050890Y-21777930D01*
X97050890Y-21777930D02*
X96202500Y-22626320D01*
X96202500Y-22626320D02*
X96202500Y-26603960D01*
X96202500Y-26603960D02*
X100350320Y-30751780D01*
X104043346Y-37876480D02*
X105765466Y-36154360D01*
X100834436Y-37876480D02*
X104043346Y-37876480D01*
X100350320Y-30751780D02*
X100357940Y-30751780D01*
X100357940Y-30751780D02*
X101274880Y-31668720D01*
X101274880Y-34208720D02*
X100350320Y-35133280D01*
X101274880Y-31668720D02*
X101274880Y-34208720D01*
X100350320Y-35133280D02*
X100350320Y-37392364D01*
X114264440Y-36827460D02*
X114356010Y-36735890D01*
X112839500Y-36827460D02*
X114264440Y-36827460D01*
X112839500Y-36788698D02*
X112839500Y-36827460D01*
X112524001Y-36473199D02*
X112839500Y-36788698D01*
X111796000Y-36365200D02*
X111903999Y-36473199D01*
X111903999Y-36473199D02*
X112524001Y-36473199D01*
X113574000Y-31031200D02*
X113574000Y-30520700D01*
X109072680Y-26019380D02*
X109072680Y-24470362D01*
X113574000Y-30520700D02*
X109072680Y-26019380D01*
X119138999Y-34218199D02*
X119254000Y-34333200D01*
X119138999Y-32924201D02*
X119138999Y-34218199D01*
X119254000Y-32809200D02*
X119138999Y-32924201D01*
X119924000Y-32809200D02*
X119254000Y-32809200D01*
X123184600Y-32809200D02*
X123619000Y-32374800D01*
X119924000Y-34333200D02*
X119254000Y-34333200D01*
X148118000Y-42358000D02*
X150418000Y-42358000D01*
X110261000Y-45661600D02*
X103761000Y-45661600D01*
X99227600Y-45661600D02*
X98826300Y-46062900D01*
X103761000Y-45661600D02*
X99227600Y-45661600D01*
X110726220Y-20378420D02*
X114584480Y-20378420D01*
X114584480Y-20378420D02*
X114683540Y-20477480D01*
X121099560Y-32809200D02*
X123184600Y-32809200D01*
X119924000Y-32809200D02*
X121099560Y-32809200D01*
X118146000Y-39159200D02*
X118146000Y-37604047D01*
X118146000Y-37604047D02*
X117800005Y-37258052D01*
X120567003Y-31816201D02*
X121099560Y-32348758D01*
X115098000Y-31651202D02*
X115262999Y-31816201D01*
X115098000Y-31031200D02*
X115098000Y-31651202D01*
X121099560Y-32348758D02*
X121099560Y-32809200D01*
X115262999Y-31816201D02*
X120567003Y-31816201D01*
X111796000Y-35857200D02*
X110707381Y-35857200D01*
X110707381Y-35857200D02*
X109676031Y-34825850D01*
X110261000Y-45661600D02*
X111419640Y-44502960D01*
X111419640Y-44502960D02*
X111419640Y-43743880D01*
X148118000Y-34858000D02*
X146727220Y-34858000D01*
X146727220Y-34858000D02*
X146039840Y-34170620D01*
X139258040Y-27160220D02*
X135694420Y-27160220D01*
X135694420Y-27160220D02*
X135089900Y-27764740D01*
X128856740Y-25862280D02*
X128856740Y-26924000D01*
X126392940Y-23398480D02*
X128856740Y-25862280D01*
X113761520Y-25407620D02*
X113761520Y-27718812D01*
X113761520Y-27718812D02*
X113948314Y-27905606D01*
X113948314Y-29211514D02*
X113948314Y-27905606D01*
X115098000Y-31031200D02*
X115098000Y-30361200D01*
X115098000Y-30361200D02*
X113948314Y-29211514D01*
X109340226Y-37381200D02*
X109265746Y-37455680D01*
X111796000Y-37381200D02*
X109340226Y-37381200D01*
X103314000Y-30580600D02*
X101962220Y-30580600D01*
X101962220Y-30580600D02*
X101031040Y-29649420D01*
X102992000Y-23374600D02*
X100986840Y-23374600D01*
X100986840Y-23374600D02*
X100563680Y-22951440D01*
X104717600Y-23374600D02*
X105384600Y-22707600D01*
X102992000Y-23374600D02*
X104717600Y-23374600D01*
X147594320Y-39400480D02*
X147314920Y-39400480D01*
X148267420Y-40073580D02*
X147594320Y-39400480D01*
X148118000Y-42358000D02*
X148267420Y-42208580D01*
X148267420Y-42208580D02*
X148267420Y-40073580D01*
X148118000Y-34858000D02*
X149007958Y-35747958D01*
X149007958Y-35747958D02*
X149301200Y-35747958D01*
X110017560Y-30467300D02*
X106461560Y-30467300D01*
X106461560Y-31611379D02*
X106461560Y-30467300D01*
X110835440Y-29649420D02*
X110017560Y-30467300D01*
X123619000Y-32374800D02*
X126253280Y-32374800D01*
X126253280Y-32374800D02*
X126959360Y-31668720D01*
X142975640Y-42358000D02*
X142618460Y-42715180D01*
X148118000Y-42358000D02*
X142975640Y-42358000D01*
X119254000Y-34333200D02*
X118709731Y-34877469D01*
X118709731Y-34877469D02*
X118709731Y-35174032D01*
X118146000Y-40860540D02*
X117957600Y-41048940D01*
X118146000Y-39159200D02*
X118146000Y-40860540D01*
X121015760Y-43642280D02*
X123403360Y-43642280D01*
X118481000Y-45877500D02*
X118780540Y-45877500D01*
X118780540Y-45877500D02*
X121015760Y-43642280D01*
X120939562Y-41122600D02*
X119286020Y-42776142D01*
X123634500Y-41122600D02*
X120939562Y-41122600D01*
X139258040Y-27160220D02*
X145183860Y-27160220D01*
X145183860Y-27160220D02*
X145816320Y-26527760D01*
X146281160Y-26992600D02*
X145816320Y-26527760D01*
X149499000Y-26992600D02*
X146281160Y-26992600D01*
X109676031Y-34825850D02*
X108757630Y-34825850D01*
X106461560Y-32529780D02*
X106461560Y-31611379D01*
X108757630Y-34825850D02*
X106461560Y-32529780D01*
X111010842Y-34601372D02*
X109451469Y-33041999D01*
X111126000Y-35349200D02*
X111010842Y-35234042D01*
X111010842Y-35234042D02*
X111010842Y-34601372D01*
X111796000Y-35349200D02*
X111126000Y-35349200D01*
X103314000Y-34968680D02*
X101447600Y-36835080D01*
X103314000Y-32680600D02*
X103314000Y-34968680D01*
X104693720Y-35001050D02*
X103390700Y-36304070D01*
X102992000Y-25474600D02*
X104693720Y-27176320D01*
X104693720Y-27176320D02*
X104693720Y-35001050D01*
X108644630Y-39286180D02*
X107922041Y-40008769D01*
X111533940Y-39286180D02*
X108644630Y-39286180D01*
X112446220Y-38373900D02*
X111533940Y-39286180D01*
X113966700Y-38373900D02*
X112446220Y-38373900D01*
X114082000Y-39159200D02*
X114082000Y-38489200D01*
X114082000Y-38489200D02*
X113966700Y-38373900D01*
X114590000Y-39829200D02*
X113832540Y-40586660D01*
X113832540Y-40586660D02*
X112270540Y-40586660D01*
X114590000Y-39159200D02*
X114590000Y-39829200D01*
D24*
G36*
X152632929Y-48173778D02*
G01*
X94020651Y-48237003D01*
X94020788Y-46612408D01*
X94386400Y-46612408D01*
X94386400Y-46887592D01*
X94440086Y-47157490D01*
X94545395Y-47411727D01*
X94698280Y-47640535D01*
X94892865Y-47835120D01*
X95121673Y-47988005D01*
X95375910Y-48093314D01*
X95645808Y-48147000D01*
X95920992Y-48147000D01*
X96190890Y-48093314D01*
X96445127Y-47988005D01*
X96673935Y-47835120D01*
X96868520Y-47640535D01*
X97021405Y-47411727D01*
X97126714Y-47157490D01*
X97175365Y-46912900D01*
X97338228Y-46912900D01*
X97350488Y-47037382D01*
X97386798Y-47157080D01*
X97445763Y-47267394D01*
X97525115Y-47364085D01*
X97621806Y-47443437D01*
X97732120Y-47502402D01*
X97851818Y-47538712D01*
X97976300Y-47550972D01*
X98540550Y-47547900D01*
X98699300Y-47389150D01*
X98699300Y-46189900D01*
X98953300Y-46189900D01*
X98953300Y-47389150D01*
X99112050Y-47547900D01*
X99676300Y-47550972D01*
X99800782Y-47538712D01*
X99920480Y-47502402D01*
X100030794Y-47443437D01*
X100127485Y-47364085D01*
X100206837Y-47267394D01*
X100265802Y-47157080D01*
X100302112Y-47037382D01*
X100314372Y-46912900D01*
X100313742Y-46797013D01*
X102805192Y-46797013D01*
X102900956Y-47061414D01*
X103190571Y-47202304D01*
X103502108Y-47283984D01*
X103823595Y-47303318D01*
X104142675Y-47259561D01*
X104447088Y-47154395D01*
X104621044Y-47061414D01*
X104716808Y-46797013D01*
X109305192Y-46797013D01*
X109400956Y-47061414D01*
X109690571Y-47202304D01*
X110002108Y-47283984D01*
X110323595Y-47303318D01*
X110642675Y-47259561D01*
X110947088Y-47154395D01*
X111121044Y-47061414D01*
X111216808Y-46797013D01*
X110261000Y-45841205D01*
X109305192Y-46797013D01*
X104716808Y-46797013D01*
X103761000Y-45841205D01*
X102805192Y-46797013D01*
X100313742Y-46797013D01*
X100311300Y-46348650D01*
X100152550Y-46189900D01*
X98953300Y-46189900D01*
X98699300Y-46189900D01*
X97500050Y-46189900D01*
X97341300Y-46348650D01*
X97338228Y-46912900D01*
X97175365Y-46912900D01*
X97180400Y-46887592D01*
X97180400Y-46612408D01*
X97126714Y-46342510D01*
X97021405Y-46088273D01*
X96868520Y-45859465D01*
X96673935Y-45664880D01*
X96445127Y-45511995D01*
X96190890Y-45406686D01*
X95920992Y-45353000D01*
X95645808Y-45353000D01*
X95375910Y-45406686D01*
X95121673Y-45511995D01*
X94892865Y-45664880D01*
X94698280Y-45859465D01*
X94545395Y-46088273D01*
X94440086Y-46342510D01*
X94386400Y-46612408D01*
X94020788Y-46612408D01*
X94022062Y-31520117D01*
X97158090Y-31520117D01*
X97199078Y-31792233D01*
X97292364Y-32051123D01*
X97354344Y-32167080D01*
X97594435Y-32234060D01*
X98380395Y-31448100D01*
X97594435Y-30662140D01*
X97354344Y-30729120D01*
X97237244Y-30978148D01*
X97170977Y-31245235D01*
X97158090Y-31520117D01*
X94022062Y-31520117D01*
X94023170Y-18394496D01*
X95004716Y-18392796D01*
X94837173Y-18462195D01*
X94608365Y-18615080D01*
X94413780Y-18809665D01*
X94260895Y-19038473D01*
X94155586Y-19292710D01*
X94101900Y-19562608D01*
X94101900Y-19837792D01*
X94155586Y-20107690D01*
X94260895Y-20361927D01*
X94413780Y-20590735D01*
X94608365Y-20785320D01*
X94837173Y-20938205D01*
X95091410Y-21043514D01*
X95361308Y-21097200D01*
X95636492Y-21097200D01*
X95906390Y-21043514D01*
X96160627Y-20938205D01*
X96389435Y-20785320D01*
X96584020Y-20590735D01*
X96736905Y-20361927D01*
X96842214Y-20107690D01*
X96895900Y-19837792D01*
X96895900Y-19562608D01*
X96842214Y-19292710D01*
X96736905Y-19038473D01*
X96584020Y-18809665D01*
X96389435Y-18615080D01*
X96160627Y-18462195D01*
X95988969Y-18391092D01*
X104242008Y-18376799D01*
X104111691Y-18507116D01*
X104084220Y-18529661D01*
X103994246Y-18639295D01*
X103985489Y-18655678D01*
X101707667Y-20933500D01*
X101505762Y-20933500D01*
X101470400Y-20930017D01*
X101435038Y-20933500D01*
X101329255Y-20943919D01*
X101193535Y-20985089D01*
X101068454Y-21051946D01*
X101061162Y-21057930D01*
X97086252Y-21057930D01*
X97050890Y-21054447D01*
X97015528Y-21057930D01*
X96909745Y-21068349D01*
X96774025Y-21109519D01*
X96648944Y-21176376D01*
X96539310Y-21266350D01*
X96516762Y-21293825D01*
X95718391Y-22092196D01*
X95690920Y-22114741D01*
X95600946Y-22224375D01*
X95566131Y-22289510D01*
X95534089Y-22349456D01*
X95492919Y-22485176D01*
X95479017Y-22626320D01*
X95482500Y-22661682D01*
X95482501Y-26568588D01*
X95479017Y-26603960D01*
X95492919Y-26745104D01*
X95534089Y-26880824D01*
X95534090Y-26880825D01*
X95600947Y-27005906D01*
X95690921Y-27115540D01*
X95718391Y-27138084D01*
X98633309Y-30053003D01*
X98487983Y-30046190D01*
X98215867Y-30087178D01*
X97956977Y-30180464D01*
X97841020Y-30242444D01*
X97774040Y-30482535D01*
X98560000Y-31268495D01*
X98574143Y-31254353D01*
X98753748Y-31433958D01*
X98739605Y-31448100D01*
X99525565Y-32234060D01*
X99765656Y-32167080D01*
X99882756Y-31918052D01*
X99949023Y-31650965D01*
X99961910Y-31376083D01*
X99961538Y-31373611D01*
X100554880Y-31966954D01*
X100554881Y-33910485D01*
X99866211Y-34599156D01*
X99838740Y-34621701D01*
X99774474Y-34700010D01*
X99808005Y-34649827D01*
X99913314Y-34395590D01*
X99967000Y-34125692D01*
X99967000Y-33850508D01*
X99913314Y-33580610D01*
X99808005Y-33326373D01*
X99655120Y-33097565D01*
X99460535Y-32902980D01*
X99231727Y-32750095D01*
X99155405Y-32718481D01*
X99163023Y-32715736D01*
X99278980Y-32653756D01*
X99345960Y-32413665D01*
X98560000Y-31627705D01*
X97774040Y-32413665D01*
X97841020Y-32653756D01*
X97981443Y-32719787D01*
X97908273Y-32750095D01*
X97679465Y-32902980D01*
X97484880Y-33097565D01*
X97331995Y-33326373D01*
X97226686Y-33580610D01*
X97173000Y-33850508D01*
X97173000Y-34125692D01*
X97226686Y-34395590D01*
X97331995Y-34649827D01*
X97484880Y-34878635D01*
X97679465Y-35073220D01*
X97908273Y-35226105D01*
X98162510Y-35331414D01*
X98432408Y-35385100D01*
X98707592Y-35385100D01*
X98977490Y-35331414D01*
X99231727Y-35226105D01*
X99460535Y-35073220D01*
X99655120Y-34878635D01*
X99729664Y-34767072D01*
X99697346Y-34827536D01*
X99681909Y-34856416D01*
X99640739Y-34992136D01*
X99626837Y-35133280D01*
X99630320Y-35168642D01*
X99630321Y-37194135D01*
X99529711Y-37126910D01*
X99259458Y-37014968D01*
X98972560Y-36957900D01*
X98680040Y-36957900D01*
X98393142Y-37014968D01*
X98122889Y-37126910D01*
X97879668Y-37289425D01*
X97672825Y-37496268D01*
X97510310Y-37739489D01*
X97398368Y-38009742D01*
X97341300Y-38296640D01*
X97341300Y-38589160D01*
X97398368Y-38876058D01*
X97510310Y-39146311D01*
X97672825Y-39389532D01*
X97879668Y-39596375D01*
X98054060Y-39712900D01*
X97879668Y-39829425D01*
X97672825Y-40036268D01*
X97510310Y-40279489D01*
X97398368Y-40549742D01*
X97341300Y-40836640D01*
X97341300Y-41129160D01*
X97398368Y-41416058D01*
X97510310Y-41686311D01*
X97672825Y-41929532D01*
X97879668Y-42136375D01*
X98054060Y-42252900D01*
X97879668Y-42369425D01*
X97672825Y-42576268D01*
X97510310Y-42819489D01*
X97398368Y-43089742D01*
X97341300Y-43376640D01*
X97341300Y-43669160D01*
X97398368Y-43956058D01*
X97510310Y-44226311D01*
X97672825Y-44469532D01*
X97804680Y-44601387D01*
X97732120Y-44623398D01*
X97621806Y-44682363D01*
X97525115Y-44761715D01*
X97445763Y-44858406D01*
X97386798Y-44968720D01*
X97350488Y-45088418D01*
X97338228Y-45212900D01*
X97341300Y-45777150D01*
X97500050Y-45935900D01*
X98699300Y-45935900D01*
X98699300Y-45915900D01*
X98953300Y-45915900D01*
X98953300Y-45935900D01*
X100152550Y-45935900D01*
X100311300Y-45777150D01*
X100314372Y-45212900D01*
X100302112Y-45088418D01*
X100265802Y-44968720D01*
X100206837Y-44858406D01*
X100127485Y-44761715D01*
X100030794Y-44682363D01*
X99949931Y-44639140D01*
X102558932Y-44639140D01*
X102625585Y-44705793D01*
X102361186Y-44801556D01*
X102220296Y-45091171D01*
X102138616Y-45402708D01*
X102119282Y-45724195D01*
X102163039Y-46043275D01*
X102268205Y-46347688D01*
X102361186Y-46521644D01*
X102625587Y-46617408D01*
X103581395Y-45661600D01*
X103567253Y-45647458D01*
X103746858Y-45467853D01*
X103761000Y-45481995D01*
X103775143Y-45467853D01*
X103954748Y-45647458D01*
X103940605Y-45661600D01*
X104896413Y-46617408D01*
X105160814Y-46521644D01*
X105301704Y-46232029D01*
X105383384Y-45920492D01*
X105402718Y-45599005D01*
X105358961Y-45279925D01*
X105253795Y-44975512D01*
X105160814Y-44801556D01*
X104896415Y-44705793D01*
X104963068Y-44639140D01*
X109058932Y-44639140D01*
X109125585Y-44705793D01*
X108861186Y-44801556D01*
X108720296Y-45091171D01*
X108638616Y-45402708D01*
X108619282Y-45724195D01*
X108663039Y-46043275D01*
X108768205Y-46347688D01*
X108861186Y-46521644D01*
X109125587Y-46617408D01*
X110081395Y-45661600D01*
X110440605Y-45661600D01*
X111396413Y-46617408D01*
X111660814Y-46521644D01*
X111801704Y-46232029D01*
X111883384Y-45920492D01*
X111902718Y-45599005D01*
X111858961Y-45279925D01*
X111753795Y-44975512D01*
X111660814Y-44801556D01*
X111396413Y-44705792D01*
X110440605Y-45661600D01*
X110081395Y-45661600D01*
X110067253Y-45647458D01*
X110246858Y-45467853D01*
X110261000Y-45481995D01*
X111216808Y-44526187D01*
X111121044Y-44261786D01*
X110892301Y-44150508D01*
X111363931Y-43678878D01*
X114420060Y-43678878D01*
X114455422Y-43682361D01*
X114490784Y-43678878D01*
X114596567Y-43668459D01*
X114626874Y-43659265D01*
X114749348Y-43842560D01*
X114907440Y-44000652D01*
X115093336Y-44124864D01*
X115299893Y-44210423D01*
X115519172Y-44254040D01*
X115742748Y-44254040D01*
X115746900Y-44253214D01*
X115883114Y-44389428D01*
X115091000Y-44389428D01*
X114966518Y-44401688D01*
X114846820Y-44437998D01*
X114736506Y-44496963D01*
X114639815Y-44576315D01*
X114560463Y-44673006D01*
X114501498Y-44783320D01*
X114465188Y-44903018D01*
X114452928Y-45027500D01*
X114452928Y-46727500D01*
X114465188Y-46851982D01*
X114501498Y-46971680D01*
X114560463Y-47081994D01*
X114639815Y-47178685D01*
X114736506Y-47258037D01*
X114846820Y-47317002D01*
X114966518Y-47353312D01*
X115091000Y-47365572D01*
X116791000Y-47365572D01*
X116915482Y-47353312D01*
X117035180Y-47317002D01*
X117145494Y-47258037D01*
X117242185Y-47178685D01*
X117321537Y-47081994D01*
X117380502Y-46971680D01*
X117404966Y-46891034D01*
X117480731Y-46975088D01*
X117714080Y-47149141D01*
X117976901Y-47274325D01*
X118124110Y-47318976D01*
X118354000Y-47197655D01*
X118354000Y-46004500D01*
X118334000Y-46004500D01*
X118334000Y-45750500D01*
X118354000Y-45750500D01*
X118354000Y-45730500D01*
X118608000Y-45730500D01*
X118608000Y-45750500D01*
X118628000Y-45750500D01*
X118628000Y-46004500D01*
X118608000Y-46004500D01*
X118608000Y-47197655D01*
X118837890Y-47318976D01*
X118985099Y-47274325D01*
X119247920Y-47149141D01*
X119481269Y-46975088D01*
X119676178Y-46758855D01*
X119745805Y-46641966D01*
X119867525Y-46824132D01*
X120074368Y-47030975D01*
X120317589Y-47193490D01*
X120587842Y-47305432D01*
X120874740Y-47362500D01*
X121167260Y-47362500D01*
X121454158Y-47305432D01*
X121724411Y-47193490D01*
X121967632Y-47030975D01*
X122174475Y-46824132D01*
X122291000Y-46649740D01*
X122407525Y-46824132D01*
X122614368Y-47030975D01*
X122857589Y-47193490D01*
X123127842Y-47305432D01*
X123414740Y-47362500D01*
X123707260Y-47362500D01*
X123994158Y-47305432D01*
X124264411Y-47193490D01*
X124507632Y-47030975D01*
X124714475Y-46824132D01*
X124876990Y-46580911D01*
X124988932Y-46310658D01*
X125046000Y-46023760D01*
X125046000Y-45731240D01*
X124999984Y-45499900D01*
X143951928Y-45499900D01*
X143951928Y-47199900D01*
X143964188Y-47324382D01*
X144000498Y-47444080D01*
X144059463Y-47554394D01*
X144138815Y-47651085D01*
X144235506Y-47730437D01*
X144345820Y-47789402D01*
X144465518Y-47825712D01*
X144590000Y-47837972D01*
X146290000Y-47837972D01*
X146414482Y-47825712D01*
X146534180Y-47789402D01*
X146644494Y-47730437D01*
X146741185Y-47651085D01*
X146820537Y-47554394D01*
X146879502Y-47444080D01*
X146915812Y-47324382D01*
X146928072Y-47199900D01*
X146928072Y-46621308D01*
X149463000Y-46621308D01*
X149463000Y-46896492D01*
X149516686Y-47166390D01*
X149621995Y-47420627D01*
X149774880Y-47649435D01*
X149969465Y-47844020D01*
X150198273Y-47996905D01*
X150452510Y-48102214D01*
X150722408Y-48155900D01*
X150997592Y-48155900D01*
X151267490Y-48102214D01*
X151521727Y-47996905D01*
X151750535Y-47844020D01*
X151945120Y-47649435D01*
X152098005Y-47420627D01*
X152203314Y-47166390D01*
X152257000Y-46896492D01*
X152257000Y-46621308D01*
X152203314Y-46351410D01*
X152098005Y-46097173D01*
X151945120Y-45868365D01*
X151750535Y-45673780D01*
X151521727Y-45520895D01*
X151267490Y-45415586D01*
X150997592Y-45361900D01*
X150722408Y-45361900D01*
X150452510Y-45415586D01*
X150198273Y-45520895D01*
X149969465Y-45673780D01*
X149774880Y-45868365D01*
X149621995Y-46097173D01*
X149516686Y-46351410D01*
X149463000Y-46621308D01*
X146928072Y-46621308D01*
X146928072Y-45499900D01*
X146915812Y-45375418D01*
X146879502Y-45255720D01*
X146820537Y-45145406D01*
X146741185Y-45048715D01*
X146644494Y-44969363D01*
X146534180Y-44910398D01*
X146414482Y-44874088D01*
X146290000Y-44861828D01*
X144590000Y-44861828D01*
X144465518Y-44874088D01*
X144345820Y-44910398D01*
X144235506Y-44969363D01*
X144138815Y-45048715D01*
X144059463Y-45145406D01*
X144000498Y-45255720D01*
X143964188Y-45375418D01*
X143951928Y-45499900D01*
X124999984Y-45499900D01*
X124988932Y-45444342D01*
X124876990Y-45174089D01*
X124714475Y-44930868D01*
X124507632Y-44724025D01*
X124264411Y-44561510D01*
X123994158Y-44449568D01*
X123707260Y-44392500D01*
X123414740Y-44392500D01*
X123127842Y-44449568D01*
X122857589Y-44561510D01*
X122614368Y-44724025D01*
X122407525Y-44930868D01*
X122291000Y-45105260D01*
X122174475Y-44930868D01*
X121967632Y-44724025D01*
X121724411Y-44561510D01*
X121454158Y-44449568D01*
X121167260Y-44392500D01*
X120874740Y-44392500D01*
X120587842Y-44449568D01*
X120317589Y-44561510D01*
X120074368Y-44724025D01*
X119867525Y-44930868D01*
X119745805Y-45113034D01*
X119676178Y-44996145D01*
X119481269Y-44779912D01*
X119384483Y-44707720D01*
X119568158Y-44707720D01*
X119603520Y-44711203D01*
X119638882Y-44707720D01*
X119744665Y-44697301D01*
X119880385Y-44656131D01*
X120005466Y-44589274D01*
X120115100Y-44499300D01*
X120137648Y-44471825D01*
X121590996Y-43018478D01*
X124699360Y-43018478D01*
X124734722Y-43021961D01*
X124770084Y-43018478D01*
X124875867Y-43008059D01*
X125011587Y-42966889D01*
X125136668Y-42900032D01*
X125187884Y-42858000D01*
X147079928Y-42858000D01*
X147092188Y-42982482D01*
X147128498Y-43102180D01*
X147187463Y-43212494D01*
X147266815Y-43309185D01*
X147363506Y-43388537D01*
X147473820Y-43447502D01*
X147593518Y-43483812D01*
X147718000Y-43496072D01*
X147832250Y-43493000D01*
X147991000Y-43334250D01*
X147991000Y-42485000D01*
X148245000Y-42485000D01*
X148245000Y-43334250D01*
X148403750Y-43493000D01*
X148518000Y-43496072D01*
X148642482Y-43483812D01*
X148762180Y-43447502D01*
X148872494Y-43388537D01*
X148969185Y-43309185D01*
X149048537Y-43212494D01*
X149107502Y-43102180D01*
X149143812Y-42982482D01*
X149156072Y-42858000D01*
X149379928Y-42858000D01*
X149392188Y-42982482D01*
X149428498Y-43102180D01*
X149487463Y-43212494D01*
X149566815Y-43309185D01*
X149663506Y-43388537D01*
X149773820Y-43447502D01*
X149893518Y-43483812D01*
X150018000Y-43496072D01*
X150132250Y-43493000D01*
X150291000Y-43334250D01*
X150291000Y-42485000D01*
X150545000Y-42485000D01*
X150545000Y-43334250D01*
X150703750Y-43493000D01*
X150818000Y-43496072D01*
X150942482Y-43483812D01*
X151062180Y-43447502D01*
X151172494Y-43388537D01*
X151269185Y-43309185D01*
X151348537Y-43212494D01*
X151407502Y-43102180D01*
X151443812Y-42982482D01*
X151456072Y-42858000D01*
X151453000Y-42643750D01*
X151294250Y-42485000D01*
X150545000Y-42485000D01*
X150291000Y-42485000D01*
X149541750Y-42485000D01*
X149383000Y-42643750D01*
X149379928Y-42858000D01*
X149156072Y-42858000D01*
X149153000Y-42643750D01*
X148994250Y-42485000D01*
X148245000Y-42485000D01*
X147991000Y-42485000D01*
X147241750Y-42485000D01*
X147083000Y-42643750D01*
X147079928Y-42858000D01*
X125187884Y-42858000D01*
X125246302Y-42810058D01*
X125268850Y-42782583D01*
X130092353Y-37959081D01*
X130244659Y-37959081D01*
X130280021Y-37962564D01*
X130315383Y-37959081D01*
X130421166Y-37948662D01*
X130556886Y-37907492D01*
X130681967Y-37840635D01*
X130791601Y-37750661D01*
X130814149Y-37723186D01*
X131459335Y-37078000D01*
X143892928Y-37078000D01*
X143892928Y-37444900D01*
X143905188Y-37569382D01*
X143941498Y-37689080D01*
X144000463Y-37799394D01*
X144079815Y-37896085D01*
X144176506Y-37975437D01*
X144286820Y-38034402D01*
X144335016Y-38049022D01*
X144343485Y-38064866D01*
X144377218Y-38127976D01*
X144286820Y-38155398D01*
X144176506Y-38214363D01*
X144079815Y-38293715D01*
X144000463Y-38390406D01*
X143982025Y-38424900D01*
X131126342Y-38424900D01*
X131090980Y-38421417D01*
X130994944Y-38430876D01*
X130949835Y-38435319D01*
X130814115Y-38476489D01*
X130689034Y-38543346D01*
X130579400Y-38633320D01*
X130556856Y-38660790D01*
X129932801Y-39284846D01*
X129928648Y-39284020D01*
X129705072Y-39284020D01*
X129485793Y-39327637D01*
X129279236Y-39413196D01*
X129093340Y-39537408D01*
X128935248Y-39695500D01*
X128811036Y-39881396D01*
X128725477Y-40087953D01*
X128681860Y-40307232D01*
X128681860Y-40530808D01*
X128725477Y-40750087D01*
X128811036Y-40956644D01*
X128935248Y-41142540D01*
X129093340Y-41300632D01*
X129279236Y-41424844D01*
X129485793Y-41510403D01*
X129705072Y-41554020D01*
X129928648Y-41554020D01*
X130147927Y-41510403D01*
X130354484Y-41424844D01*
X130540380Y-41300632D01*
X130698472Y-41142540D01*
X130822684Y-40956644D01*
X130908243Y-40750087D01*
X130951860Y-40530808D01*
X130951860Y-40307232D01*
X130951034Y-40303079D01*
X131389214Y-39864900D01*
X143982025Y-39864900D01*
X144000463Y-39899394D01*
X144079815Y-39996085D01*
X144176506Y-40075437D01*
X144286820Y-40134402D01*
X144406518Y-40170712D01*
X144531000Y-40182972D01*
X145431000Y-40182972D01*
X145555482Y-40170712D01*
X145675180Y-40134402D01*
X145785494Y-40075437D01*
X145882185Y-39996085D01*
X145961537Y-39899394D01*
X146020502Y-39789080D01*
X146056812Y-39669382D01*
X146069072Y-39544900D01*
X146069072Y-38744900D01*
X146056812Y-38620418D01*
X146043945Y-38578000D01*
X146150188Y-38578000D01*
X146216815Y-38659185D01*
X146313506Y-38738537D01*
X146423820Y-38797502D01*
X146543518Y-38833812D01*
X146668000Y-38846072D01*
X147187839Y-38846072D01*
X147492292Y-39150525D01*
X147514840Y-39178000D01*
X147624474Y-39267974D01*
X147749555Y-39334831D01*
X147885275Y-39376001D01*
X147991058Y-39386420D01*
X148026420Y-39389903D01*
X148061782Y-39386420D01*
X148455158Y-39386420D01*
X148425225Y-39416353D01*
X148306485Y-39594060D01*
X148224696Y-39791517D01*
X148183000Y-40001137D01*
X148183000Y-40027119D01*
X148122494Y-39977463D01*
X148012180Y-39918498D01*
X147892482Y-39882188D01*
X147768000Y-39869928D01*
X146668000Y-39869928D01*
X146543518Y-39882188D01*
X146423820Y-39918498D01*
X146313506Y-39977463D01*
X146216815Y-40056815D01*
X146137463Y-40153506D01*
X146078498Y-40263820D01*
X146042188Y-40383518D01*
X146029928Y-40508000D01*
X146029928Y-41208000D01*
X146042188Y-41332482D01*
X146078498Y-41452180D01*
X146137463Y-41562494D01*
X146216815Y-41659185D01*
X146313506Y-41738537D01*
X146423820Y-41797502D01*
X146543518Y-41833812D01*
X146668000Y-41846072D01*
X147081103Y-41846072D01*
X147079928Y-41858000D01*
X147083000Y-42072250D01*
X147241750Y-42231000D01*
X147991000Y-42231000D01*
X147991000Y-42211000D01*
X148245000Y-42211000D01*
X148245000Y-42231000D01*
X148994250Y-42231000D01*
X149153000Y-42072250D01*
X149156072Y-41858000D01*
X149379928Y-41858000D01*
X149383000Y-42072250D01*
X149541750Y-42231000D01*
X150291000Y-42231000D01*
X150291000Y-41381750D01*
X150545000Y-41381750D01*
X150545000Y-42231000D01*
X151294250Y-42231000D01*
X151453000Y-42072250D01*
X151456072Y-41858000D01*
X151443812Y-41733518D01*
X151407502Y-41613820D01*
X151348537Y-41503506D01*
X151269185Y-41406815D01*
X151172494Y-41327463D01*
X151062180Y-41268498D01*
X150942482Y-41232188D01*
X150818000Y-41219928D01*
X150703750Y-41223000D01*
X150545000Y-41381750D01*
X150291000Y-41381750D01*
X150132250Y-41223000D01*
X150018000Y-41219928D01*
X149893518Y-41232188D01*
X149773820Y-41268498D01*
X149663506Y-41327463D01*
X149566815Y-41406815D01*
X149487463Y-41503506D01*
X149428498Y-41613820D01*
X149392188Y-41733518D01*
X149379928Y-41858000D01*
X149156072Y-41858000D01*
X149143812Y-41733518D01*
X149107502Y-41613820D01*
X149048537Y-41503506D01*
X148969185Y-41406815D01*
X148872494Y-41327463D01*
X148762180Y-41268498D01*
X148642482Y-41232188D01*
X148518000Y-41219928D01*
X148404597Y-41222977D01*
X148406072Y-41208000D01*
X148406072Y-40770983D01*
X148425225Y-40799647D01*
X148576353Y-40950775D01*
X148754060Y-41069515D01*
X148951517Y-41151304D01*
X149161137Y-41193000D01*
X149374863Y-41193000D01*
X149584483Y-41151304D01*
X149781940Y-41069515D01*
X149959647Y-40950775D01*
X150110775Y-40799647D01*
X150229515Y-40621940D01*
X150311304Y-40424483D01*
X150353000Y-40214863D01*
X150353000Y-40001137D01*
X150311304Y-39791517D01*
X150229515Y-39594060D01*
X150110775Y-39416353D01*
X150080842Y-39386420D01*
X150424078Y-39386420D01*
X150459440Y-39389903D01*
X150494802Y-39386420D01*
X150600585Y-39376001D01*
X150736305Y-39334831D01*
X150861386Y-39267974D01*
X150971020Y-39178000D01*
X150993568Y-39150525D01*
X152119570Y-38024524D01*
X152147040Y-38001980D01*
X152237014Y-37892346D01*
X152303871Y-37767265D01*
X152345041Y-37631545D01*
X152355460Y-37525762D01*
X152358943Y-37490401D01*
X152355460Y-37455039D01*
X152355460Y-26624422D01*
X152358943Y-26589060D01*
X152348964Y-26487749D01*
X152345041Y-26447915D01*
X152303871Y-26312195D01*
X152237014Y-26187114D01*
X152147039Y-26077480D01*
X152119569Y-26054936D01*
X150855987Y-24791354D01*
X150896000Y-24590192D01*
X150896000Y-24315008D01*
X150842314Y-24045110D01*
X150737005Y-23790873D01*
X150584120Y-23562065D01*
X150389535Y-23367480D01*
X150160727Y-23214595D01*
X149906490Y-23109286D01*
X149636592Y-23055600D01*
X149361408Y-23055600D01*
X149091510Y-23109286D01*
X148837273Y-23214595D01*
X148608465Y-23367480D01*
X148413880Y-23562065D01*
X148260995Y-23790873D01*
X148155686Y-24045110D01*
X148102000Y-24315008D01*
X148102000Y-24590192D01*
X148155686Y-24860090D01*
X148260995Y-25114327D01*
X148413880Y-25343135D01*
X148608465Y-25537720D01*
X148837273Y-25690605D01*
X148908943Y-25720292D01*
X148895977Y-25724964D01*
X148780020Y-25786944D01*
X148713040Y-26027035D01*
X149499000Y-26812995D01*
X149513143Y-26798853D01*
X149692748Y-26978458D01*
X149678605Y-26992600D01*
X149692748Y-27006743D01*
X149513143Y-27186348D01*
X149499000Y-27172205D01*
X149484858Y-27186348D01*
X149305253Y-27006743D01*
X149319395Y-26992600D01*
X148533435Y-26206640D01*
X148293344Y-26273620D01*
X148176244Y-26522648D01*
X148109977Y-26789735D01*
X148097090Y-27064617D01*
X148138078Y-27336733D01*
X148203099Y-27517180D01*
X147431561Y-27517180D01*
X147396199Y-27513697D01*
X147255055Y-27527599D01*
X147119335Y-27568769D01*
X146994254Y-27635626D01*
X146884620Y-27725600D01*
X146862076Y-27753070D01*
X146297867Y-28317280D01*
X132087582Y-28317280D01*
X132052220Y-28313797D01*
X131911075Y-28327699D01*
X131775355Y-28368869D01*
X131650274Y-28435726D01*
X131540640Y-28525700D01*
X131518098Y-28553168D01*
X130098935Y-29972332D01*
X130003433Y-29981738D01*
X129969005Y-29985129D01*
X129833285Y-30026299D01*
X129708204Y-30093156D01*
X129598570Y-30183130D01*
X129576028Y-30210598D01*
X127280887Y-32505740D01*
X126641662Y-32505740D01*
X126606300Y-32502257D01*
X126570938Y-32505740D01*
X126465155Y-32516159D01*
X126329435Y-32557329D01*
X126204354Y-32624186D01*
X126094720Y-32714160D01*
X126072178Y-32741628D01*
X125690847Y-33122960D01*
X124951317Y-33122960D01*
X125010234Y-33023420D01*
X125110041Y-32739541D01*
X124989992Y-32501800D01*
X123746000Y-32501800D01*
X123746000Y-32521800D01*
X123492000Y-32521800D01*
X123492000Y-32501800D01*
X122248008Y-32501800D01*
X122204156Y-32588644D01*
X122121546Y-32544488D01*
X121985826Y-32503318D01*
X121880043Y-32492899D01*
X121844681Y-32489416D01*
X121809319Y-32492899D01*
X121126441Y-32492899D01*
X121091079Y-32489416D01*
X121055717Y-32492899D01*
X121054506Y-32493018D01*
X121062072Y-32416200D01*
X121062072Y-32186200D01*
X121049812Y-32061718D01*
X121013502Y-31942020D01*
X120954537Y-31831706D01*
X120875185Y-31735015D01*
X120778494Y-31655663D01*
X120668180Y-31596698D01*
X120548482Y-31560388D01*
X120424000Y-31548128D01*
X119424000Y-31548128D01*
X119405223Y-31549977D01*
X119407072Y-31531200D01*
X119407072Y-30953382D01*
X123050170Y-30953382D01*
X122822586Y-31062564D01*
X122581884Y-31243151D01*
X122381038Y-31467227D01*
X122227766Y-31726180D01*
X122127959Y-32010059D01*
X122248008Y-32247800D01*
X123492000Y-32247800D01*
X123492000Y-32227800D01*
X123746000Y-32227800D01*
X123746000Y-32247800D01*
X124989992Y-32247800D01*
X125110041Y-32010059D01*
X125010234Y-31726180D01*
X124856962Y-31467227D01*
X124656116Y-31243151D01*
X124415414Y-31062564D01*
X124187830Y-30953382D01*
X128420356Y-30953382D01*
X128455718Y-30956865D01*
X128491080Y-30953382D01*
X128596863Y-30942963D01*
X128732583Y-30901793D01*
X128857664Y-30834936D01*
X128967298Y-30744962D01*
X128989846Y-30717487D01*
X136925452Y-22781881D01*
X137117589Y-22820100D01*
X137390411Y-22820100D01*
X137657989Y-22766875D01*
X137910043Y-22662471D01*
X138136886Y-22510899D01*
X138329799Y-22317986D01*
X138481371Y-22091143D01*
X138585775Y-21839089D01*
X138639000Y-21571511D01*
X138639000Y-21298689D01*
X138585775Y-21031111D01*
X138481371Y-20779057D01*
X138329799Y-20552214D01*
X138136886Y-20359301D01*
X137910043Y-20207729D01*
X137657989Y-20103325D01*
X137390411Y-20050100D01*
X137117589Y-20050100D01*
X136850011Y-20103325D01*
X136597957Y-20207729D01*
X136371114Y-20359301D01*
X136178201Y-20552214D01*
X136026629Y-20779057D01*
X135922225Y-21031111D01*
X135869000Y-21298689D01*
X135869000Y-21571511D01*
X135907219Y-21763648D01*
X128157485Y-29513382D01*
X127159352Y-29513382D01*
X127238744Y-29394564D01*
X127324303Y-29188007D01*
X127367920Y-28968728D01*
X127367920Y-28745152D01*
X127324303Y-28525873D01*
X127238744Y-28319316D01*
X127114532Y-28133420D01*
X126956440Y-27975328D01*
X126952920Y-27972976D01*
X126952920Y-26854092D01*
X127015472Y-26791540D01*
X127139684Y-26605644D01*
X127225243Y-26399087D01*
X127268860Y-26179808D01*
X127268860Y-25956232D01*
X127225243Y-25736953D01*
X127139684Y-25530396D01*
X127015472Y-25344500D01*
X126857380Y-25186408D01*
X126671484Y-25062196D01*
X126464927Y-24976637D01*
X126245648Y-24933020D01*
X126022072Y-24933020D01*
X125802793Y-24976637D01*
X125596236Y-25062196D01*
X125410340Y-25186408D01*
X125252248Y-25344500D01*
X125128036Y-25530396D01*
X125042477Y-25736953D01*
X124998860Y-25956232D01*
X124998860Y-26179808D01*
X125042477Y-26399087D01*
X125128036Y-26605644D01*
X125252248Y-26791540D01*
X125410340Y-26949632D01*
X125512921Y-27018174D01*
X125512920Y-27972976D01*
X125509400Y-27975328D01*
X125351308Y-28133420D01*
X125227096Y-28319316D01*
X125141537Y-28525873D01*
X125097920Y-28745152D01*
X125097920Y-28968728D01*
X125141537Y-29188007D01*
X125227096Y-29394564D01*
X125306488Y-29513382D01*
X118991043Y-29513382D01*
X126049646Y-22454780D01*
X130978298Y-22454780D01*
X131013660Y-22458263D01*
X131049022Y-22454780D01*
X131154805Y-22444361D01*
X131290525Y-22403191D01*
X131351053Y-22370838D01*
X131491114Y-22510899D01*
X131717957Y-22662471D01*
X131970011Y-22766875D01*
X132237589Y-22820100D01*
X132510411Y-22820100D01*
X132777989Y-22766875D01*
X133030043Y-22662471D01*
X133256886Y-22510899D01*
X133449799Y-22317986D01*
X133601371Y-22091143D01*
X133705775Y-21839089D01*
X133759000Y-21571511D01*
X133759000Y-21298689D01*
X133705775Y-21031111D01*
X133601371Y-20779057D01*
X133449799Y-20552214D01*
X133256886Y-20359301D01*
X133030043Y-20207729D01*
X132777989Y-20103325D01*
X132510411Y-20050100D01*
X132237589Y-20050100D01*
X131970011Y-20103325D01*
X131717957Y-20207729D01*
X131491114Y-20359301D01*
X131298201Y-20552214D01*
X131183121Y-20724443D01*
X131172195Y-20725519D01*
X131036475Y-20766689D01*
X130911394Y-20833546D01*
X130801760Y-20923520D01*
X130779208Y-20951000D01*
X130715428Y-21014780D01*
X128035697Y-21014780D01*
X128033000Y-20519350D01*
X127874250Y-20360600D01*
X126675000Y-20360600D01*
X126675000Y-20380600D01*
X126421000Y-20380600D01*
X126421000Y-20360600D01*
X126401000Y-20360600D01*
X126401000Y-20106600D01*
X126421000Y-20106600D01*
X126421000Y-18907350D01*
X126675000Y-18907350D01*
X126675000Y-20106600D01*
X127874250Y-20106600D01*
X128033000Y-19947850D01*
X128035098Y-19562408D01*
X149469000Y-19562408D01*
X149469000Y-19837592D01*
X149522686Y-20107490D01*
X149627995Y-20361727D01*
X149780880Y-20590535D01*
X149975465Y-20785120D01*
X150204273Y-20938005D01*
X150458510Y-21043314D01*
X150728408Y-21097000D01*
X151003592Y-21097000D01*
X151273490Y-21043314D01*
X151527727Y-20938005D01*
X151756535Y-20785120D01*
X151951120Y-20590535D01*
X152104005Y-20361727D01*
X152209314Y-20107490D01*
X152263000Y-19837592D01*
X152263000Y-19562408D01*
X152209314Y-19292510D01*
X152104005Y-19038273D01*
X151951120Y-18809465D01*
X151756535Y-18614880D01*
X151527727Y-18461995D01*
X151273490Y-18356686D01*
X151003592Y-18303000D01*
X150728408Y-18303000D01*
X150458510Y-18356686D01*
X150204273Y-18461995D01*
X149975465Y-18614880D01*
X149780880Y-18809465D01*
X149627995Y-19038273D01*
X149522686Y-19292510D01*
X149469000Y-19562408D01*
X128035098Y-19562408D01*
X128036072Y-19383600D01*
X128023812Y-19259118D01*
X127987502Y-19139420D01*
X127928537Y-19029106D01*
X127849185Y-18932415D01*
X127752494Y-18853063D01*
X127642180Y-18794098D01*
X127522482Y-18757788D01*
X127398000Y-18745528D01*
X126833750Y-18748600D01*
X126675000Y-18907350D01*
X126421000Y-18907350D01*
X126262250Y-18748600D01*
X125698000Y-18745528D01*
X125573518Y-18757788D01*
X125453820Y-18794098D01*
X125343506Y-18853063D01*
X125246815Y-18932415D01*
X125167463Y-19029106D01*
X125108498Y-19139420D01*
X125086487Y-19211980D01*
X124954632Y-19080125D01*
X124711411Y-18917610D01*
X124441158Y-18805668D01*
X124154260Y-18748600D01*
X123861740Y-18748600D01*
X123574842Y-18805668D01*
X123304589Y-18917610D01*
X123061368Y-19080125D01*
X122854525Y-19286968D01*
X122738000Y-19461360D01*
X122621475Y-19286968D01*
X122414632Y-19080125D01*
X122171411Y-18917610D01*
X121901158Y-18805668D01*
X121614260Y-18748600D01*
X121321740Y-18748600D01*
X121054409Y-18801776D01*
X120601100Y-18348467D01*
X152456628Y-18293299D01*
X152632929Y-48173778D01*
G37*
X152632929Y-48173778D02*
X94020651Y-48237003D01*
X94020788Y-46612408D01*
X94386400Y-46612408D01*
X94386400Y-46887592D01*
X94440086Y-47157490D01*
X94545395Y-47411727D01*
X94698280Y-47640535D01*
X94892865Y-47835120D01*
X95121673Y-47988005D01*
X95375910Y-48093314D01*
X95645808Y-48147000D01*
X95920992Y-48147000D01*
X96190890Y-48093314D01*
X96445127Y-47988005D01*
X96673935Y-47835120D01*
X96868520Y-47640535D01*
X97021405Y-47411727D01*
X97126714Y-47157490D01*
X97175365Y-46912900D01*
X97338228Y-46912900D01*
X97350488Y-47037382D01*
X97386798Y-47157080D01*
X97445763Y-47267394D01*
X97525115Y-47364085D01*
X97621806Y-47443437D01*
X97732120Y-47502402D01*
X97851818Y-47538712D01*
X97976300Y-47550972D01*
X98540550Y-47547900D01*
X98699300Y-47389150D01*
X98699300Y-46189900D01*
X98953300Y-46189900D01*
X98953300Y-47389150D01*
X99112050Y-47547900D01*
X99676300Y-47550972D01*
X99800782Y-47538712D01*
X99920480Y-47502402D01*
X100030794Y-47443437D01*
X100127485Y-47364085D01*
X100206837Y-47267394D01*
X100265802Y-47157080D01*
X100302112Y-47037382D01*
X100314372Y-46912900D01*
X100313742Y-46797013D01*
X102805192Y-46797013D01*
X102900956Y-47061414D01*
X103190571Y-47202304D01*
X103502108Y-47283984D01*
X103823595Y-47303318D01*
X104142675Y-47259561D01*
X104447088Y-47154395D01*
X104621044Y-47061414D01*
X104716808Y-46797013D01*
X109305192Y-46797013D01*
X109400956Y-47061414D01*
X109690571Y-47202304D01*
X110002108Y-47283984D01*
X110323595Y-47303318D01*
X110642675Y-47259561D01*
X110947088Y-47154395D01*
X111121044Y-47061414D01*
X111216808Y-46797013D01*
X110261000Y-45841205D01*
X109305192Y-46797013D01*
X104716808Y-46797013D01*
X103761000Y-45841205D01*
X102805192Y-46797013D01*
X100313742Y-46797013D01*
X100311300Y-46348650D01*
X100152550Y-46189900D01*
X98953300Y-46189900D01*
X98699300Y-46189900D01*
X97500050Y-46189900D01*
X97341300Y-46348650D01*
X97338228Y-46912900D01*
X97175365Y-46912900D01*
X97180400Y-46887592D01*
X97180400Y-46612408D01*
X97126714Y-46342510D01*
X97021405Y-46088273D01*
X96868520Y-45859465D01*
X96673935Y-45664880D01*
X96445127Y-45511995D01*
X96190890Y-45406686D01*
X95920992Y-45353000D01*
X95645808Y-45353000D01*
X95375910Y-45406686D01*
X95121673Y-45511995D01*
X94892865Y-45664880D01*
X94698280Y-45859465D01*
X94545395Y-46088273D01*
X94440086Y-46342510D01*
X94386400Y-46612408D01*
X94020788Y-46612408D01*
X94022062Y-31520117D01*
X97158090Y-31520117D01*
X97199078Y-31792233D01*
X97292364Y-32051123D01*
X97354344Y-32167080D01*
X97594435Y-32234060D01*
X98380395Y-31448100D01*
X97594435Y-30662140D01*
X97354344Y-30729120D01*
X97237244Y-30978148D01*
X97170977Y-31245235D01*
X97158090Y-31520117D01*
X94022062Y-31520117D01*
X94023170Y-18394496D01*
X95004716Y-18392796D01*
X94837173Y-18462195D01*
X94608365Y-18615080D01*
X94413780Y-18809665D01*
X94260895Y-19038473D01*
X94155586Y-19292710D01*
X94101900Y-19562608D01*
X94101900Y-19837792D01*
X94155586Y-20107690D01*
X94260895Y-20361927D01*
X94413780Y-20590735D01*
X94608365Y-20785320D01*
X94837173Y-20938205D01*
X95091410Y-21043514D01*
X95361308Y-21097200D01*
X95636492Y-21097200D01*
X95906390Y-21043514D01*
X96160627Y-20938205D01*
X96389435Y-20785320D01*
X96584020Y-20590735D01*
X96736905Y-20361927D01*
X96842214Y-20107690D01*
X96895900Y-19837792D01*
X96895900Y-19562608D01*
X96842214Y-19292710D01*
X96736905Y-19038473D01*
X96584020Y-18809665D01*
X96389435Y-18615080D01*
X96160627Y-18462195D01*
X95988969Y-18391092D01*
X104242008Y-18376799D01*
X104111691Y-18507116D01*
X104084220Y-18529661D01*
X103994246Y-18639295D01*
X103985489Y-18655678D01*
X101707667Y-20933500D01*
X101505762Y-20933500D01*
X101470400Y-20930017D01*
X101435038Y-20933500D01*
X101329255Y-20943919D01*
X101193535Y-20985089D01*
X101068454Y-21051946D01*
X101061162Y-21057930D01*
X97086252Y-21057930D01*
X97050890Y-21054447D01*
X97015528Y-21057930D01*
X96909745Y-21068349D01*
X96774025Y-21109519D01*
X96648944Y-21176376D01*
X96539310Y-21266350D01*
X96516762Y-21293825D01*
X95718391Y-22092196D01*
X95690920Y-22114741D01*
X95600946Y-22224375D01*
X95566131Y-22289510D01*
X95534089Y-22349456D01*
X95492919Y-22485176D01*
X95479017Y-22626320D01*
X95482500Y-22661682D01*
X95482501Y-26568588D01*
X95479017Y-26603960D01*
X95492919Y-26745104D01*
X95534089Y-26880824D01*
X95534090Y-26880825D01*
X95600947Y-27005906D01*
X95690921Y-27115540D01*
X95718391Y-27138084D01*
X98633309Y-30053003D01*
X98487983Y-30046190D01*
X98215867Y-30087178D01*
X97956977Y-30180464D01*
X97841020Y-30242444D01*
X97774040Y-30482535D01*
X98560000Y-31268495D01*
X98574143Y-31254353D01*
X98753748Y-31433958D01*
X98739605Y-31448100D01*
X99525565Y-32234060D01*
X99765656Y-32167080D01*
X99882756Y-31918052D01*
X99949023Y-31650965D01*
X99961910Y-31376083D01*
X99961538Y-31373611D01*
X100554880Y-31966954D01*
X100554881Y-33910485D01*
X99866211Y-34599156D01*
X99838740Y-34621701D01*
X99774474Y-34700010D01*
X99808005Y-34649827D01*
X99913314Y-34395590D01*
X99967000Y-34125692D01*
X99967000Y-33850508D01*
X99913314Y-33580610D01*
X99808005Y-33326373D01*
X99655120Y-33097565D01*
X99460535Y-32902980D01*
X99231727Y-32750095D01*
X99155405Y-32718481D01*
X99163023Y-32715736D01*
X99278980Y-32653756D01*
X99345960Y-32413665D01*
X98560000Y-31627705D01*
X97774040Y-32413665D01*
X97841020Y-32653756D01*
X97981443Y-32719787D01*
X97908273Y-32750095D01*
X97679465Y-32902980D01*
X97484880Y-33097565D01*
X97331995Y-33326373D01*
X97226686Y-33580610D01*
X97173000Y-33850508D01*
X97173000Y-34125692D01*
X97226686Y-34395590D01*
X97331995Y-34649827D01*
X97484880Y-34878635D01*
X97679465Y-35073220D01*
X97908273Y-35226105D01*
X98162510Y-35331414D01*
X98432408Y-35385100D01*
X98707592Y-35385100D01*
X98977490Y-35331414D01*
X99231727Y-35226105D01*
X99460535Y-35073220D01*
X99655120Y-34878635D01*
X99729664Y-34767072D01*
X99697346Y-34827536D01*
X99681909Y-34856416D01*
X99640739Y-34992136D01*
X99626837Y-35133280D01*
X99630320Y-35168642D01*
X99630321Y-37194135D01*
X99529711Y-37126910D01*
X99259458Y-37014968D01*
X98972560Y-36957900D01*
X98680040Y-36957900D01*
X98393142Y-37014968D01*
X98122889Y-37126910D01*
X97879668Y-37289425D01*
X97672825Y-37496268D01*
X97510310Y-37739489D01*
X97398368Y-38009742D01*
X97341300Y-38296640D01*
X97341300Y-38589160D01*
X97398368Y-38876058D01*
X97510310Y-39146311D01*
X97672825Y-39389532D01*
X97879668Y-39596375D01*
X98054060Y-39712900D01*
X97879668Y-39829425D01*
X97672825Y-40036268D01*
X97510310Y-40279489D01*
X97398368Y-40549742D01*
X97341300Y-40836640D01*
X97341300Y-41129160D01*
X97398368Y-41416058D01*
X97510310Y-41686311D01*
X97672825Y-41929532D01*
X97879668Y-42136375D01*
X98054060Y-42252900D01*
X97879668Y-42369425D01*
X97672825Y-42576268D01*
X97510310Y-42819489D01*
X97398368Y-43089742D01*
X97341300Y-43376640D01*
X97341300Y-43669160D01*
X97398368Y-43956058D01*
X97510310Y-44226311D01*
X97672825Y-44469532D01*
X97804680Y-44601387D01*
X97732120Y-44623398D01*
X97621806Y-44682363D01*
X97525115Y-44761715D01*
X97445763Y-44858406D01*
X97386798Y-44968720D01*
X97350488Y-45088418D01*
X97338228Y-45212900D01*
X97341300Y-45777150D01*
X97500050Y-45935900D01*
X98699300Y-45935900D01*
X98699300Y-45915900D01*
X98953300Y-45915900D01*
X98953300Y-45935900D01*
X100152550Y-45935900D01*
X100311300Y-45777150D01*
X100314372Y-45212900D01*
X100302112Y-45088418D01*
X100265802Y-44968720D01*
X100206837Y-44858406D01*
X100127485Y-44761715D01*
X100030794Y-44682363D01*
X99949931Y-44639140D01*
X102558932Y-44639140D01*
X102625585Y-44705793D01*
X102361186Y-44801556D01*
X102220296Y-45091171D01*
X102138616Y-45402708D01*
X102119282Y-45724195D01*
X102163039Y-46043275D01*
X102268205Y-46347688D01*
X102361186Y-46521644D01*
X102625587Y-46617408D01*
X103581395Y-45661600D01*
X103567253Y-45647458D01*
X103746858Y-45467853D01*
X103761000Y-45481995D01*
X103775143Y-45467853D01*
X103954748Y-45647458D01*
X103940605Y-45661600D01*
X104896413Y-46617408D01*
X105160814Y-46521644D01*
X105301704Y-46232029D01*
X105383384Y-45920492D01*
X105402718Y-45599005D01*
X105358961Y-45279925D01*
X105253795Y-44975512D01*
X105160814Y-44801556D01*
X104896415Y-44705793D01*
X104963068Y-44639140D01*
X109058932Y-44639140D01*
X109125585Y-44705793D01*
X108861186Y-44801556D01*
X108720296Y-45091171D01*
X108638616Y-45402708D01*
X108619282Y-45724195D01*
X108663039Y-46043275D01*
X108768205Y-46347688D01*
X108861186Y-46521644D01*
X109125587Y-46617408D01*
X110081395Y-45661600D01*
X110440605Y-45661600D01*
X111396413Y-46617408D01*
X111660814Y-46521644D01*
X111801704Y-46232029D01*
X111883384Y-45920492D01*
X111902718Y-45599005D01*
X111858961Y-45279925D01*
X111753795Y-44975512D01*
X111660814Y-44801556D01*
X111396413Y-44705792D01*
X110440605Y-45661600D01*
X110081395Y-45661600D01*
X110067253Y-45647458D01*
X110246858Y-45467853D01*
X110261000Y-45481995D01*
X111216808Y-44526187D01*
X111121044Y-44261786D01*
X110892301Y-44150508D01*
X111363931Y-43678878D01*
X114420060Y-43678878D01*
X114455422Y-43682361D01*
X114490784Y-43678878D01*
X114596567Y-43668459D01*
X114626874Y-43659265D01*
X114749348Y-43842560D01*
X114907440Y-44000652D01*
X115093336Y-44124864D01*
X115299893Y-44210423D01*
X115519172Y-44254040D01*
X115742748Y-44254040D01*
X115746900Y-44253214D01*
X115883114Y-44389428D01*
X115091000Y-44389428D01*
X114966518Y-44401688D01*
X114846820Y-44437998D01*
X114736506Y-44496963D01*
X114639815Y-44576315D01*
X114560463Y-44673006D01*
X114501498Y-44783320D01*
X114465188Y-44903018D01*
X114452928Y-45027500D01*
X114452928Y-46727500D01*
X114465188Y-46851982D01*
X114501498Y-46971680D01*
X114560463Y-47081994D01*
X114639815Y-47178685D01*
X114736506Y-47258037D01*
X114846820Y-47317002D01*
X114966518Y-47353312D01*
X115091000Y-47365572D01*
X116791000Y-47365572D01*
X116915482Y-47353312D01*
X117035180Y-47317002D01*
X117145494Y-47258037D01*
X117242185Y-47178685D01*
X117321537Y-47081994D01*
X117380502Y-46971680D01*
X117404966Y-46891034D01*
X117480731Y-46975088D01*
X117714080Y-47149141D01*
X117976901Y-47274325D01*
X118124110Y-47318976D01*
X118354000Y-47197655D01*
X118354000Y-46004500D01*
X118334000Y-46004500D01*
X118334000Y-45750500D01*
X118354000Y-45750500D01*
X118354000Y-45730500D01*
X118608000Y-45730500D01*
X118608000Y-45750500D01*
X118628000Y-45750500D01*
X118628000Y-46004500D01*
X118608000Y-46004500D01*
X118608000Y-47197655D01*
X118837890Y-47318976D01*
X118985099Y-47274325D01*
X119247920Y-47149141D01*
X119481269Y-46975088D01*
X119676178Y-46758855D01*
X119745805Y-46641966D01*
X119867525Y-46824132D01*
X120074368Y-47030975D01*
X120317589Y-47193490D01*
X120587842Y-47305432D01*
X120874740Y-47362500D01*
X121167260Y-47362500D01*
X121454158Y-47305432D01*
X121724411Y-47193490D01*
X121967632Y-47030975D01*
X122174475Y-46824132D01*
X122291000Y-46649740D01*
X122407525Y-46824132D01*
X122614368Y-47030975D01*
X122857589Y-47193490D01*
X123127842Y-47305432D01*
X123414740Y-47362500D01*
X123707260Y-47362500D01*
X123994158Y-47305432D01*
X124264411Y-47193490D01*
X124507632Y-47030975D01*
X124714475Y-46824132D01*
X124876990Y-46580911D01*
X124988932Y-46310658D01*
X125046000Y-46023760D01*
X125046000Y-45731240D01*
X124999984Y-45499900D01*
X143951928Y-45499900D01*
X143951928Y-47199900D01*
X143964188Y-47324382D01*
X144000498Y-47444080D01*
X144059463Y-47554394D01*
X144138815Y-47651085D01*
X144235506Y-47730437D01*
X144345820Y-47789402D01*
X144465518Y-47825712D01*
X144590000Y-47837972D01*
X146290000Y-47837972D01*
X146414482Y-47825712D01*
X146534180Y-47789402D01*
X146644494Y-47730437D01*
X146741185Y-47651085D01*
X146820537Y-47554394D01*
X146879502Y-47444080D01*
X146915812Y-47324382D01*
X146928072Y-47199900D01*
X146928072Y-46621308D01*
X149463000Y-46621308D01*
X149463000Y-46896492D01*
X149516686Y-47166390D01*
X149621995Y-47420627D01*
X149774880Y-47649435D01*
X149969465Y-47844020D01*
X150198273Y-47996905D01*
X150452510Y-48102214D01*
X150722408Y-48155900D01*
X150997592Y-48155900D01*
X151267490Y-48102214D01*
X151521727Y-47996905D01*
X151750535Y-47844020D01*
X151945120Y-47649435D01*
X152098005Y-47420627D01*
X152203314Y-47166390D01*
X152257000Y-46896492D01*
X152257000Y-46621308D01*
X152203314Y-46351410D01*
X152098005Y-46097173D01*
X151945120Y-45868365D01*
X151750535Y-45673780D01*
X151521727Y-45520895D01*
X151267490Y-45415586D01*
X150997592Y-45361900D01*
X150722408Y-45361900D01*
X150452510Y-45415586D01*
X150198273Y-45520895D01*
X149969465Y-45673780D01*
X149774880Y-45868365D01*
X149621995Y-46097173D01*
X149516686Y-46351410D01*
X149463000Y-46621308D01*
X146928072Y-46621308D01*
X146928072Y-45499900D01*
X146915812Y-45375418D01*
X146879502Y-45255720D01*
X146820537Y-45145406D01*
X146741185Y-45048715D01*
X146644494Y-44969363D01*
X146534180Y-44910398D01*
X146414482Y-44874088D01*
X146290000Y-44861828D01*
X144590000Y-44861828D01*
X144465518Y-44874088D01*
X144345820Y-44910398D01*
X144235506Y-44969363D01*
X144138815Y-45048715D01*
X144059463Y-45145406D01*
X144000498Y-45255720D01*
X143964188Y-45375418D01*
X143951928Y-45499900D01*
X124999984Y-45499900D01*
X124988932Y-45444342D01*
X124876990Y-45174089D01*
X124714475Y-44930868D01*
X124507632Y-44724025D01*
X124264411Y-44561510D01*
X123994158Y-44449568D01*
X123707260Y-44392500D01*
X123414740Y-44392500D01*
X123127842Y-44449568D01*
X122857589Y-44561510D01*
X122614368Y-44724025D01*
X122407525Y-44930868D01*
X122291000Y-45105260D01*
X122174475Y-44930868D01*
X121967632Y-44724025D01*
X121724411Y-44561510D01*
X121454158Y-44449568D01*
X121167260Y-44392500D01*
X120874740Y-44392500D01*
X120587842Y-44449568D01*
X120317589Y-44561510D01*
X120074368Y-44724025D01*
X119867525Y-44930868D01*
X119745805Y-45113034D01*
X119676178Y-44996145D01*
X119481269Y-44779912D01*
X119384483Y-44707720D01*
X119568158Y-44707720D01*
X119603520Y-44711203D01*
X119638882Y-44707720D01*
X119744665Y-44697301D01*
X119880385Y-44656131D01*
X120005466Y-44589274D01*
X120115100Y-44499300D01*
X120137648Y-44471825D01*
X121590996Y-43018478D01*
X124699360Y-43018478D01*
X124734722Y-43021961D01*
X124770084Y-43018478D01*
X124875867Y-43008059D01*
X125011587Y-42966889D01*
X125136668Y-42900032D01*
X125187884Y-42858000D01*
X147079928Y-42858000D01*
X147092188Y-42982482D01*
X147128498Y-43102180D01*
X147187463Y-43212494D01*
X147266815Y-43309185D01*
X147363506Y-43388537D01*
X147473820Y-43447502D01*
X147593518Y-43483812D01*
X147718000Y-43496072D01*
X147832250Y-43493000D01*
X147991000Y-43334250D01*
X147991000Y-42485000D01*
X148245000Y-42485000D01*
X148245000Y-43334250D01*
X148403750Y-43493000D01*
X148518000Y-43496072D01*
X148642482Y-43483812D01*
X148762180Y-43447502D01*
X148872494Y-43388537D01*
X148969185Y-43309185D01*
X149048537Y-43212494D01*
X149107502Y-43102180D01*
X149143812Y-42982482D01*
X149156072Y-42858000D01*
X149379928Y-42858000D01*
X149392188Y-42982482D01*
X149428498Y-43102180D01*
X149487463Y-43212494D01*
X149566815Y-43309185D01*
X149663506Y-43388537D01*
X149773820Y-43447502D01*
X149893518Y-43483812D01*
X150018000Y-43496072D01*
X150132250Y-43493000D01*
X150291000Y-43334250D01*
X150291000Y-42485000D01*
X150545000Y-42485000D01*
X150545000Y-43334250D01*
X150703750Y-43493000D01*
X150818000Y-43496072D01*
X150942482Y-43483812D01*
X151062180Y-43447502D01*
X151172494Y-43388537D01*
X151269185Y-43309185D01*
X151348537Y-43212494D01*
X151407502Y-43102180D01*
X151443812Y-42982482D01*
X151456072Y-42858000D01*
X151453000Y-42643750D01*
X151294250Y-42485000D01*
X150545000Y-42485000D01*
X150291000Y-42485000D01*
X149541750Y-42485000D01*
X149383000Y-42643750D01*
X149379928Y-42858000D01*
X149156072Y-42858000D01*
X149153000Y-42643750D01*
X148994250Y-42485000D01*
X148245000Y-42485000D01*
X147991000Y-42485000D01*
X147241750Y-42485000D01*
X147083000Y-42643750D01*
X147079928Y-42858000D01*
X125187884Y-42858000D01*
X125246302Y-42810058D01*
X125268850Y-42782583D01*
X130092353Y-37959081D01*
X130244659Y-37959081D01*
X130280021Y-37962564D01*
X130315383Y-37959081D01*
X130421166Y-37948662D01*
X130556886Y-37907492D01*
X130681967Y-37840635D01*
X130791601Y-37750661D01*
X130814149Y-37723186D01*
X131459335Y-37078000D01*
X143892928Y-37078000D01*
X143892928Y-37444900D01*
X143905188Y-37569382D01*
X143941498Y-37689080D01*
X144000463Y-37799394D01*
X144079815Y-37896085D01*
X144176506Y-37975437D01*
X144286820Y-38034402D01*
X144335016Y-38049022D01*
X144343485Y-38064866D01*
X144377218Y-38127976D01*
X144286820Y-38155398D01*
X144176506Y-38214363D01*
X144079815Y-38293715D01*
X144000463Y-38390406D01*
X143982025Y-38424900D01*
X131126342Y-38424900D01*
X131090980Y-38421417D01*
X130994944Y-38430876D01*
X130949835Y-38435319D01*
X130814115Y-38476489D01*
X130689034Y-38543346D01*
X130579400Y-38633320D01*
X130556856Y-38660790D01*
X129932801Y-39284846D01*
X129928648Y-39284020D01*
X129705072Y-39284020D01*
X129485793Y-39327637D01*
X129279236Y-39413196D01*
X129093340Y-39537408D01*
X128935248Y-39695500D01*
X128811036Y-39881396D01*
X128725477Y-40087953D01*
X128681860Y-40307232D01*
X128681860Y-40530808D01*
X128725477Y-40750087D01*
X128811036Y-40956644D01*
X128935248Y-41142540D01*
X129093340Y-41300632D01*
X129279236Y-41424844D01*
X129485793Y-41510403D01*
X129705072Y-41554020D01*
X129928648Y-41554020D01*
X130147927Y-41510403D01*
X130354484Y-41424844D01*
X130540380Y-41300632D01*
X130698472Y-41142540D01*
X130822684Y-40956644D01*
X130908243Y-40750087D01*
X130951860Y-40530808D01*
X130951860Y-40307232D01*
X130951034Y-40303079D01*
X131389214Y-39864900D01*
X143982025Y-39864900D01*
X144000463Y-39899394D01*
X144079815Y-39996085D01*
X144176506Y-40075437D01*
X144286820Y-40134402D01*
X144406518Y-40170712D01*
X144531000Y-40182972D01*
X145431000Y-40182972D01*
X145555482Y-40170712D01*
X145675180Y-40134402D01*
X145785494Y-40075437D01*
X145882185Y-39996085D01*
X145961537Y-39899394D01*
X146020502Y-39789080D01*
X146056812Y-39669382D01*
X146069072Y-39544900D01*
X146069072Y-38744900D01*
X146056812Y-38620418D01*
X146043945Y-38578000D01*
X146150188Y-38578000D01*
X146216815Y-38659185D01*
X146313506Y-38738537D01*
X146423820Y-38797502D01*
X146543518Y-38833812D01*
X146668000Y-38846072D01*
X147187839Y-38846072D01*
X147492292Y-39150525D01*
X147514840Y-39178000D01*
X147624474Y-39267974D01*
X147749555Y-39334831D01*
X147885275Y-39376001D01*
X147991058Y-39386420D01*
X148026420Y-39389903D01*
X148061782Y-39386420D01*
X148455158Y-39386420D01*
X148425225Y-39416353D01*
X148306485Y-39594060D01*
X148224696Y-39791517D01*
X148183000Y-40001137D01*
X148183000Y-40027119D01*
X148122494Y-39977463D01*
X148012180Y-39918498D01*
X147892482Y-39882188D01*
X147768000Y-39869928D01*
X146668000Y-39869928D01*
X146543518Y-39882188D01*
X146423820Y-39918498D01*
X146313506Y-39977463D01*
X146216815Y-40056815D01*
X146137463Y-40153506D01*
X146078498Y-40263820D01*
X146042188Y-40383518D01*
X146029928Y-40508000D01*
X146029928Y-41208000D01*
X146042188Y-41332482D01*
X146078498Y-41452180D01*
X146137463Y-41562494D01*
X146216815Y-41659185D01*
X146313506Y-41738537D01*
X146423820Y-41797502D01*
X146543518Y-41833812D01*
X146668000Y-41846072D01*
X147081103Y-41846072D01*
X147079928Y-41858000D01*
X147083000Y-42072250D01*
X147241750Y-42231000D01*
X147991000Y-42231000D01*
X147991000Y-42211000D01*
X148245000Y-42211000D01*
X148245000Y-42231000D01*
X148994250Y-42231000D01*
X149153000Y-42072250D01*
X149156072Y-41858000D01*
X149379928Y-41858000D01*
X149383000Y-42072250D01*
X149541750Y-42231000D01*
X150291000Y-42231000D01*
X150291000Y-41381750D01*
X150545000Y-41381750D01*
X150545000Y-42231000D01*
X151294250Y-42231000D01*
X151453000Y-42072250D01*
X151456072Y-41858000D01*
X151443812Y-41733518D01*
X151407502Y-41613820D01*
X151348537Y-41503506D01*
X151269185Y-41406815D01*
X151172494Y-41327463D01*
X151062180Y-41268498D01*
X150942482Y-41232188D01*
X150818000Y-41219928D01*
X150703750Y-41223000D01*
X150545000Y-41381750D01*
X150291000Y-41381750D01*
X150132250Y-41223000D01*
X150018000Y-41219928D01*
X149893518Y-41232188D01*
X149773820Y-41268498D01*
X149663506Y-41327463D01*
X149566815Y-41406815D01*
X149487463Y-41503506D01*
X149428498Y-41613820D01*
X149392188Y-41733518D01*
X149379928Y-41858000D01*
X149156072Y-41858000D01*
X149143812Y-41733518D01*
X149107502Y-41613820D01*
X149048537Y-41503506D01*
X148969185Y-41406815D01*
X148872494Y-41327463D01*
X148762180Y-41268498D01*
X148642482Y-41232188D01*
X148518000Y-41219928D01*
X148404597Y-41222977D01*
X148406072Y-41208000D01*
X148406072Y-40770983D01*
X148425225Y-40799647D01*
X148576353Y-40950775D01*
X148754060Y-41069515D01*
X148951517Y-41151304D01*
X149161137Y-41193000D01*
X149374863Y-41193000D01*
X149584483Y-41151304D01*
X149781940Y-41069515D01*
X149959647Y-40950775D01*
X150110775Y-40799647D01*
X150229515Y-40621940D01*
X150311304Y-40424483D01*
X150353000Y-40214863D01*
X150353000Y-40001137D01*
X150311304Y-39791517D01*
X150229515Y-39594060D01*
X150110775Y-39416353D01*
X150080842Y-39386420D01*
X150424078Y-39386420D01*
X150459440Y-39389903D01*
X150494802Y-39386420D01*
X150600585Y-39376001D01*
X150736305Y-39334831D01*
X150861386Y-39267974D01*
X150971020Y-39178000D01*
X150993568Y-39150525D01*
X152119570Y-38024524D01*
X152147040Y-38001980D01*
X152237014Y-37892346D01*
X152303871Y-37767265D01*
X152345041Y-37631545D01*
X152355460Y-37525762D01*
X152358943Y-37490401D01*
X152355460Y-37455039D01*
X152355460Y-26624422D01*
X152358943Y-26589060D01*
X152348964Y-26487749D01*
X152345041Y-26447915D01*
X152303871Y-26312195D01*
X152237014Y-26187114D01*
X152147039Y-26077480D01*
X152119569Y-26054936D01*
X150855987Y-24791354D01*
X150896000Y-24590192D01*
X150896000Y-24315008D01*
X150842314Y-24045110D01*
X150737005Y-23790873D01*
X150584120Y-23562065D01*
X150389535Y-23367480D01*
X150160727Y-23214595D01*
X149906490Y-23109286D01*
X149636592Y-23055600D01*
X149361408Y-23055600D01*
X149091510Y-23109286D01*
X148837273Y-23214595D01*
X148608465Y-23367480D01*
X148413880Y-23562065D01*
X148260995Y-23790873D01*
X148155686Y-24045110D01*
X148102000Y-24315008D01*
X148102000Y-24590192D01*
X148155686Y-24860090D01*
X148260995Y-25114327D01*
X148413880Y-25343135D01*
X148608465Y-25537720D01*
X148837273Y-25690605D01*
X148908943Y-25720292D01*
X148895977Y-25724964D01*
X148780020Y-25786944D01*
X148713040Y-26027035D01*
X149499000Y-26812995D01*
X149513143Y-26798853D01*
X149692748Y-26978458D01*
X149678605Y-26992600D01*
X149692748Y-27006743D01*
X149513143Y-27186348D01*
X149499000Y-27172205D01*
X149484858Y-27186348D01*
X149305253Y-27006743D01*
X149319395Y-26992600D01*
X148533435Y-26206640D01*
X148293344Y-26273620D01*
X148176244Y-26522648D01*
X148109977Y-26789735D01*
X148097090Y-27064617D01*
X148138078Y-27336733D01*
X148203099Y-27517180D01*
X147431561Y-27517180D01*
X147396199Y-27513697D01*
X147255055Y-27527599D01*
X147119335Y-27568769D01*
X146994254Y-27635626D01*
X146884620Y-27725600D01*
X146862076Y-27753070D01*
X146297867Y-28317280D01*
X132087582Y-28317280D01*
X132052220Y-28313797D01*
X131911075Y-28327699D01*
X131775355Y-28368869D01*
X131650274Y-28435726D01*
X131540640Y-28525700D01*
X131518098Y-28553168D01*
X130098935Y-29972332D01*
X130003433Y-29981738D01*
X129969005Y-29985129D01*
X129833285Y-30026299D01*
X129708204Y-30093156D01*
X129598570Y-30183130D01*
X129576028Y-30210598D01*
X127280887Y-32505740D01*
X126641662Y-32505740D01*
X126606300Y-32502257D01*
X126570938Y-32505740D01*
X126465155Y-32516159D01*
X126329435Y-32557329D01*
X126204354Y-32624186D01*
X126094720Y-32714160D01*
X126072178Y-32741628D01*
X125690847Y-33122960D01*
X124951317Y-33122960D01*
X125010234Y-33023420D01*
X125110041Y-32739541D01*
X124989992Y-32501800D01*
X123746000Y-32501800D01*
X123746000Y-32521800D01*
X123492000Y-32521800D01*
X123492000Y-32501800D01*
X122248008Y-32501800D01*
X122204156Y-32588644D01*
X122121546Y-32544488D01*
X121985826Y-32503318D01*
X121880043Y-32492899D01*
X121844681Y-32489416D01*
X121809319Y-32492899D01*
X121126441Y-32492899D01*
X121091079Y-32489416D01*
X121055717Y-32492899D01*
X121054506Y-32493018D01*
X121062072Y-32416200D01*
X121062072Y-32186200D01*
X121049812Y-32061718D01*
X121013502Y-31942020D01*
X120954537Y-31831706D01*
X120875185Y-31735015D01*
X120778494Y-31655663D01*
X120668180Y-31596698D01*
X120548482Y-31560388D01*
X120424000Y-31548128D01*
X119424000Y-31548128D01*
X119405223Y-31549977D01*
X119407072Y-31531200D01*
X119407072Y-30953382D01*
X123050170Y-30953382D01*
X122822586Y-31062564D01*
X122581884Y-31243151D01*
X122381038Y-31467227D01*
X122227766Y-31726180D01*
X122127959Y-32010059D01*
X122248008Y-32247800D01*
X123492000Y-32247800D01*
X123492000Y-32227800D01*
X123746000Y-32227800D01*
X123746000Y-32247800D01*
X124989992Y-32247800D01*
X125110041Y-32010059D01*
X125010234Y-31726180D01*
X124856962Y-31467227D01*
X124656116Y-31243151D01*
X124415414Y-31062564D01*
X124187830Y-30953382D01*
X128420356Y-30953382D01*
X128455718Y-30956865D01*
X128491080Y-30953382D01*
X128596863Y-30942963D01*
X128732583Y-30901793D01*
X128857664Y-30834936D01*
X128967298Y-30744962D01*
X128989846Y-30717487D01*
X136925452Y-22781881D01*
X137117589Y-22820100D01*
X137390411Y-22820100D01*
X137657989Y-22766875D01*
X137910043Y-22662471D01*
X138136886Y-22510899D01*
X138329799Y-22317986D01*
X138481371Y-22091143D01*
X138585775Y-21839089D01*
X138639000Y-21571511D01*
X138639000Y-21298689D01*
X138585775Y-21031111D01*
X138481371Y-20779057D01*
X138329799Y-20552214D01*
X138136886Y-20359301D01*
X137910043Y-20207729D01*
X137657989Y-20103325D01*
X137390411Y-20050100D01*
X137117589Y-20050100D01*
X136850011Y-20103325D01*
X136597957Y-20207729D01*
X136371114Y-20359301D01*
X136178201Y-20552214D01*
X136026629Y-20779057D01*
X135922225Y-21031111D01*
X135869000Y-21298689D01*
X135869000Y-21571511D01*
X135907219Y-21763648D01*
X128157485Y-29513382D01*
X127159352Y-29513382D01*
X127238744Y-29394564D01*
X127324303Y-29188007D01*
X127367920Y-28968728D01*
X127367920Y-28745152D01*
X127324303Y-28525873D01*
X127238744Y-28319316D01*
X127114532Y-28133420D01*
X126956440Y-27975328D01*
X126952920Y-27972976D01*
X126952920Y-26854092D01*
X127015472Y-26791540D01*
X127139684Y-26605644D01*
X127225243Y-26399087D01*
X127268860Y-26179808D01*
X127268860Y-25956232D01*
X127225243Y-25736953D01*
X127139684Y-25530396D01*
X127015472Y-25344500D01*
X126857380Y-25186408D01*
X126671484Y-25062196D01*
X126464927Y-24976637D01*
X126245648Y-24933020D01*
X126022072Y-24933020D01*
X125802793Y-24976637D01*
X125596236Y-25062196D01*
X125410340Y-25186408D01*
X125252248Y-25344500D01*
X125128036Y-25530396D01*
X125042477Y-25736953D01*
X124998860Y-25956232D01*
X124998860Y-26179808D01*
X125042477Y-26399087D01*
X125128036Y-26605644D01*
X125252248Y-26791540D01*
X125410340Y-26949632D01*
X125512921Y-27018174D01*
X125512920Y-27972976D01*
X125509400Y-27975328D01*
X125351308Y-28133420D01*
X125227096Y-28319316D01*
X125141537Y-28525873D01*
X125097920Y-28745152D01*
X125097920Y-28968728D01*
X125141537Y-29188007D01*
X125227096Y-29394564D01*
X125306488Y-29513382D01*
X118991043Y-29513382D01*
X126049646Y-22454780D01*
X130978298Y-22454780D01*
X131013660Y-22458263D01*
X131049022Y-22454780D01*
X131154805Y-22444361D01*
X131290525Y-22403191D01*
X131351053Y-22370838D01*
X131491114Y-22510899D01*
X131717957Y-22662471D01*
X131970011Y-22766875D01*
X132237589Y-22820100D01*
X132510411Y-22820100D01*
X132777989Y-22766875D01*
X133030043Y-22662471D01*
X133256886Y-22510899D01*
X133449799Y-22317986D01*
X133601371Y-22091143D01*
X133705775Y-21839089D01*
X133759000Y-21571511D01*
X133759000Y-21298689D01*
X133705775Y-21031111D01*
X133601371Y-20779057D01*
X133449799Y-20552214D01*
X133256886Y-20359301D01*
X133030043Y-20207729D01*
X132777989Y-20103325D01*
X132510411Y-20050100D01*
X132237589Y-20050100D01*
X131970011Y-20103325D01*
X131717957Y-20207729D01*
X131491114Y-20359301D01*
X131298201Y-20552214D01*
X131183121Y-20724443D01*
X131172195Y-20725519D01*
X131036475Y-20766689D01*
X130911394Y-20833546D01*
X130801760Y-20923520D01*
X130779208Y-20951000D01*
X130715428Y-21014780D01*
X128035697Y-21014780D01*
X128033000Y-20519350D01*
X127874250Y-20360600D01*
X126675000Y-20360600D01*
X126675000Y-20380600D01*
X126421000Y-20380600D01*
X126421000Y-20360600D01*
X126401000Y-20360600D01*
X126401000Y-20106600D01*
X126421000Y-20106600D01*
X126421000Y-18907350D01*
X126675000Y-18907350D01*
X126675000Y-20106600D01*
X127874250Y-20106600D01*
X128033000Y-19947850D01*
X128035098Y-19562408D01*
X149469000Y-19562408D01*
X149469000Y-19837592D01*
X149522686Y-20107490D01*
X149627995Y-20361727D01*
X149780880Y-20590535D01*
X149975465Y-20785120D01*
X150204273Y-20938005D01*
X150458510Y-21043314D01*
X150728408Y-21097000D01*
X151003592Y-21097000D01*
X151273490Y-21043314D01*
X151527727Y-20938005D01*
X151756535Y-20785120D01*
X151951120Y-20590535D01*
X152104005Y-20361727D01*
X152209314Y-20107490D01*
X152263000Y-19837592D01*
X152263000Y-19562408D01*
X152209314Y-19292510D01*
X152104005Y-19038273D01*
X151951120Y-18809465D01*
X151756535Y-18614880D01*
X151527727Y-18461995D01*
X151273490Y-18356686D01*
X151003592Y-18303000D01*
X150728408Y-18303000D01*
X150458510Y-18356686D01*
X150204273Y-18461995D01*
X149975465Y-18614880D01*
X149780880Y-18809465D01*
X149627995Y-19038273D01*
X149522686Y-19292510D01*
X149469000Y-19562408D01*
X128035098Y-19562408D01*
X128036072Y-19383600D01*
X128023812Y-19259118D01*
X127987502Y-19139420D01*
X127928537Y-19029106D01*
X127849185Y-18932415D01*
X127752494Y-18853063D01*
X127642180Y-18794098D01*
X127522482Y-18757788D01*
X127398000Y-18745528D01*
X126833750Y-18748600D01*
X126675000Y-18907350D01*
X126421000Y-18907350D01*
X126262250Y-18748600D01*
X125698000Y-18745528D01*
X125573518Y-18757788D01*
X125453820Y-18794098D01*
X125343506Y-18853063D01*
X125246815Y-18932415D01*
X125167463Y-19029106D01*
X125108498Y-19139420D01*
X125086487Y-19211980D01*
X124954632Y-19080125D01*
X124711411Y-18917610D01*
X124441158Y-18805668D01*
X124154260Y-18748600D01*
X123861740Y-18748600D01*
X123574842Y-18805668D01*
X123304589Y-18917610D01*
X123061368Y-19080125D01*
X122854525Y-19286968D01*
X122738000Y-19461360D01*
X122621475Y-19286968D01*
X122414632Y-19080125D01*
X122171411Y-18917610D01*
X121901158Y-18805668D01*
X121614260Y-18748600D01*
X121321740Y-18748600D01*
X121054409Y-18801776D01*
X120601100Y-18348467D01*
X152456628Y-18293299D01*
X152632929Y-48173778D01*
G36*
X148260995Y-31410873D02*
G01*
X148155686Y-31665110D01*
X148102000Y-31935008D01*
X148102000Y-32210192D01*
X148155686Y-32480090D01*
X148260995Y-32734327D01*
X148413880Y-32963135D01*
X148608465Y-33157720D01*
X148837273Y-33310605D01*
X149091510Y-33415914D01*
X149361408Y-33469600D01*
X149636592Y-33469600D01*
X149906490Y-33415914D01*
X150160727Y-33310605D01*
X150389535Y-33157720D01*
X150584120Y-32963135D01*
X150737005Y-32734327D01*
X150842314Y-32480090D01*
X150896000Y-32210192D01*
X150896000Y-31935008D01*
X150855987Y-31733846D01*
X150915460Y-31674373D01*
X150915461Y-33729527D01*
X150818000Y-33719928D01*
X150018000Y-33719928D01*
X149893518Y-33732188D01*
X149773820Y-33768498D01*
X149663506Y-33827463D01*
X149566815Y-33906815D01*
X149487463Y-34003506D01*
X149428498Y-34113820D01*
X149392188Y-34233518D01*
X149379928Y-34358000D01*
X149379928Y-35358000D01*
X149392188Y-35482482D01*
X149428498Y-35602180D01*
X149487463Y-35712494D01*
X149566815Y-35809185D01*
X149663506Y-35888537D01*
X149773820Y-35947502D01*
X149893518Y-35983812D01*
X150018000Y-35996072D01*
X150818000Y-35996072D01*
X150915461Y-35986473D01*
X150915461Y-37192165D01*
X150161207Y-37946420D01*
X149964002Y-37946420D01*
X150110775Y-37799647D01*
X150229515Y-37621940D01*
X150311304Y-37424483D01*
X150353000Y-37214863D01*
X150353000Y-37001137D01*
X150311304Y-36791517D01*
X150229515Y-36594060D01*
X150110775Y-36416353D01*
X149959647Y-36265225D01*
X149781940Y-36146485D01*
X149584483Y-36064696D01*
X149374863Y-36023000D01*
X149161137Y-36023000D01*
X148951517Y-36064696D01*
X148754060Y-36146485D01*
X148576353Y-36265225D01*
X148425225Y-36416353D01*
X148406072Y-36445017D01*
X148406072Y-36008000D01*
X148404597Y-35993023D01*
X148518000Y-35996072D01*
X148642482Y-35983812D01*
X148762180Y-35947502D01*
X148872494Y-35888537D01*
X148969185Y-35809185D01*
X149048537Y-35712494D01*
X149107502Y-35602180D01*
X149143812Y-35482482D01*
X149156072Y-35358000D01*
X149153000Y-35143750D01*
X148994250Y-34985000D01*
X148245000Y-34985000D01*
X148245000Y-35005000D01*
X147991000Y-35005000D01*
X147991000Y-34985000D01*
X147241750Y-34985000D01*
X147083000Y-35143750D01*
X147079928Y-35358000D01*
X147081103Y-35369928D01*
X146668000Y-35369928D01*
X146543518Y-35382188D01*
X146423820Y-35418498D01*
X146313506Y-35477463D01*
X146216815Y-35556815D01*
X146150188Y-35638000D01*
X131196464Y-35638000D01*
X131161102Y-35634517D01*
X131125740Y-35638000D01*
X131019957Y-35648419D01*
X130884237Y-35689589D01*
X130759156Y-35756446D01*
X130649522Y-35846420D01*
X130626974Y-35873895D01*
X129981788Y-36519081D01*
X129829481Y-36519081D01*
X129794119Y-36515598D01*
X129694621Y-36525398D01*
X129652974Y-36529500D01*
X129517254Y-36570670D01*
X129392173Y-36637527D01*
X129282539Y-36727501D01*
X129259997Y-36754969D01*
X124436489Y-41578478D01*
X121328124Y-41578478D01*
X121292762Y-41574995D01*
X121257400Y-41578478D01*
X121151617Y-41588897D01*
X121015897Y-41630067D01*
X120890816Y-41696924D01*
X120781182Y-41786898D01*
X120758640Y-41814366D01*
X119305287Y-43267720D01*
X116797874Y-43267720D01*
X116765134Y-43234980D01*
X116765960Y-43230828D01*
X116765960Y-43007252D01*
X116743998Y-42896842D01*
X118305636Y-42896842D01*
X118340998Y-42900325D01*
X118376360Y-42896842D01*
X118482143Y-42886423D01*
X118617863Y-42845253D01*
X118742944Y-42778396D01*
X118852578Y-42688422D01*
X118875126Y-42660947D01*
X120408115Y-41127959D01*
X120435579Y-41105420D01*
X120525554Y-40995786D01*
X120592411Y-40870705D01*
X120633581Y-40734985D01*
X120644000Y-40629202D01*
X120644000Y-40629201D01*
X120647483Y-40593840D01*
X120644000Y-40558478D01*
X120644000Y-40449109D01*
X120826933Y-40524883D01*
X121046212Y-40568500D01*
X121269788Y-40568500D01*
X121489067Y-40524883D01*
X121695624Y-40439324D01*
X121881520Y-40315112D01*
X122039612Y-40157020D01*
X122041964Y-40153500D01*
X124813258Y-40153500D01*
X124848620Y-40156983D01*
X124883982Y-40153500D01*
X124989765Y-40143081D01*
X125125485Y-40101911D01*
X125250566Y-40035054D01*
X125360200Y-39945080D01*
X125382748Y-39917605D01*
X127971179Y-37329174D01*
X127975332Y-37330000D01*
X128198908Y-37330000D01*
X128418187Y-37286383D01*
X128624744Y-37200824D01*
X128810640Y-37076612D01*
X128968732Y-36918520D01*
X129092944Y-36732624D01*
X129178503Y-36526067D01*
X129222120Y-36306788D01*
X129222120Y-36083212D01*
X129178503Y-35863933D01*
X129092944Y-35657376D01*
X128968732Y-35471480D01*
X128921272Y-35424020D01*
X131362896Y-35424020D01*
X131398258Y-35427503D01*
X131433620Y-35424020D01*
X131539403Y-35413601D01*
X131675123Y-35372431D01*
X131800204Y-35305574D01*
X131823179Y-35286719D01*
X133296941Y-35286719D01*
X133319916Y-35305574D01*
X133444997Y-35372431D01*
X133580717Y-35413601D01*
X133686500Y-35424020D01*
X133721862Y-35427503D01*
X133757224Y-35424020D01*
X143507358Y-35424020D01*
X143542720Y-35427503D01*
X143578082Y-35424020D01*
X143683865Y-35413601D01*
X143819585Y-35372431D01*
X143944666Y-35305574D01*
X144054300Y-35215600D01*
X144144274Y-35105966D01*
X144211131Y-34980885D01*
X144252301Y-34845165D01*
X144265987Y-34706216D01*
X144614203Y-34358000D01*
X147079928Y-34358000D01*
X147083000Y-34572250D01*
X147241750Y-34731000D01*
X147991000Y-34731000D01*
X147991000Y-33881750D01*
X148245000Y-33881750D01*
X148245000Y-34731000D01*
X148994250Y-34731000D01*
X149153000Y-34572250D01*
X149156072Y-34358000D01*
X149143812Y-34233518D01*
X149107502Y-34113820D01*
X149048537Y-34003506D01*
X148969185Y-33906815D01*
X148872494Y-33827463D01*
X148762180Y-33768498D01*
X148642482Y-33732188D01*
X148518000Y-33719928D01*
X148403750Y-33723000D01*
X148245000Y-33881750D01*
X147991000Y-33881750D01*
X147832250Y-33723000D01*
X147718000Y-33719928D01*
X147593518Y-33732188D01*
X147473820Y-33768498D01*
X147363506Y-33827463D01*
X147266815Y-33906815D01*
X147187463Y-34003506D01*
X147128498Y-34113820D01*
X147092188Y-34233518D01*
X147079928Y-34358000D01*
X144614203Y-34358000D01*
X147450109Y-31522095D01*
X147821063Y-31522095D01*
X147856425Y-31525578D01*
X147891787Y-31522095D01*
X147997570Y-31511676D01*
X148133290Y-31470506D01*
X148258371Y-31403649D01*
X148274868Y-31390110D01*
X148260995Y-31410873D01*
G37*
X148260995Y-31410873D02*
X148155686Y-31665110D01*
X148102000Y-31935008D01*
X148102000Y-32210192D01*
X148155686Y-32480090D01*
X148260995Y-32734327D01*
X148413880Y-32963135D01*
X148608465Y-33157720D01*
X148837273Y-33310605D01*
X149091510Y-33415914D01*
X149361408Y-33469600D01*
X149636592Y-33469600D01*
X149906490Y-33415914D01*
X150160727Y-33310605D01*
X150389535Y-33157720D01*
X150584120Y-32963135D01*
X150737005Y-32734327D01*
X150842314Y-32480090D01*
X150896000Y-32210192D01*
X150896000Y-31935008D01*
X150855987Y-31733846D01*
X150915460Y-31674373D01*
X150915461Y-33729527D01*
X150818000Y-33719928D01*
X150018000Y-33719928D01*
X149893518Y-33732188D01*
X149773820Y-33768498D01*
X149663506Y-33827463D01*
X149566815Y-33906815D01*
X149487463Y-34003506D01*
X149428498Y-34113820D01*
X149392188Y-34233518D01*
X149379928Y-34358000D01*
X149379928Y-35358000D01*
X149392188Y-35482482D01*
X149428498Y-35602180D01*
X149487463Y-35712494D01*
X149566815Y-35809185D01*
X149663506Y-35888537D01*
X149773820Y-35947502D01*
X149893518Y-35983812D01*
X150018000Y-35996072D01*
X150818000Y-35996072D01*
X150915461Y-35986473D01*
X150915461Y-37192165D01*
X150161207Y-37946420D01*
X149964002Y-37946420D01*
X150110775Y-37799647D01*
X150229515Y-37621940D01*
X150311304Y-37424483D01*
X150353000Y-37214863D01*
X150353000Y-37001137D01*
X150311304Y-36791517D01*
X150229515Y-36594060D01*
X150110775Y-36416353D01*
X149959647Y-36265225D01*
X149781940Y-36146485D01*
X149584483Y-36064696D01*
X149374863Y-36023000D01*
X149161137Y-36023000D01*
X148951517Y-36064696D01*
X148754060Y-36146485D01*
X148576353Y-36265225D01*
X148425225Y-36416353D01*
X148406072Y-36445017D01*
X148406072Y-36008000D01*
X148404597Y-35993023D01*
X148518000Y-35996072D01*
X148642482Y-35983812D01*
X148762180Y-35947502D01*
X148872494Y-35888537D01*
X148969185Y-35809185D01*
X149048537Y-35712494D01*
X149107502Y-35602180D01*
X149143812Y-35482482D01*
X149156072Y-35358000D01*
X149153000Y-35143750D01*
X148994250Y-34985000D01*
X148245000Y-34985000D01*
X148245000Y-35005000D01*
X147991000Y-35005000D01*
X147991000Y-34985000D01*
X147241750Y-34985000D01*
X147083000Y-35143750D01*
X147079928Y-35358000D01*
X147081103Y-35369928D01*
X146668000Y-35369928D01*
X146543518Y-35382188D01*
X146423820Y-35418498D01*
X146313506Y-35477463D01*
X146216815Y-35556815D01*
X146150188Y-35638000D01*
X131196464Y-35638000D01*
X131161102Y-35634517D01*
X131125740Y-35638000D01*
X131019957Y-35648419D01*
X130884237Y-35689589D01*
X130759156Y-35756446D01*
X130649522Y-35846420D01*
X130626974Y-35873895D01*
X129981788Y-36519081D01*
X129829481Y-36519081D01*
X129794119Y-36515598D01*
X129694621Y-36525398D01*
X129652974Y-36529500D01*
X129517254Y-36570670D01*
X129392173Y-36637527D01*
X129282539Y-36727501D01*
X129259997Y-36754969D01*
X124436489Y-41578478D01*
X121328124Y-41578478D01*
X121292762Y-41574995D01*
X121257400Y-41578478D01*
X121151617Y-41588897D01*
X121015897Y-41630067D01*
X120890816Y-41696924D01*
X120781182Y-41786898D01*
X120758640Y-41814366D01*
X119305287Y-43267720D01*
X116797874Y-43267720D01*
X116765134Y-43234980D01*
X116765960Y-43230828D01*
X116765960Y-43007252D01*
X116743998Y-42896842D01*
X118305636Y-42896842D01*
X118340998Y-42900325D01*
X118376360Y-42896842D01*
X118482143Y-42886423D01*
X118617863Y-42845253D01*
X118742944Y-42778396D01*
X118852578Y-42688422D01*
X118875126Y-42660947D01*
X120408115Y-41127959D01*
X120435579Y-41105420D01*
X120525554Y-40995786D01*
X120592411Y-40870705D01*
X120633581Y-40734985D01*
X120644000Y-40629202D01*
X120644000Y-40629201D01*
X120647483Y-40593840D01*
X120644000Y-40558478D01*
X120644000Y-40449109D01*
X120826933Y-40524883D01*
X121046212Y-40568500D01*
X121269788Y-40568500D01*
X121489067Y-40524883D01*
X121695624Y-40439324D01*
X121881520Y-40315112D01*
X122039612Y-40157020D01*
X122041964Y-40153500D01*
X124813258Y-40153500D01*
X124848620Y-40156983D01*
X124883982Y-40153500D01*
X124989765Y-40143081D01*
X125125485Y-40101911D01*
X125250566Y-40035054D01*
X125360200Y-39945080D01*
X125382748Y-39917605D01*
X127971179Y-37329174D01*
X127975332Y-37330000D01*
X128198908Y-37330000D01*
X128418187Y-37286383D01*
X128624744Y-37200824D01*
X128810640Y-37076612D01*
X128968732Y-36918520D01*
X129092944Y-36732624D01*
X129178503Y-36526067D01*
X129222120Y-36306788D01*
X129222120Y-36083212D01*
X129178503Y-35863933D01*
X129092944Y-35657376D01*
X128968732Y-35471480D01*
X128921272Y-35424020D01*
X131362896Y-35424020D01*
X131398258Y-35427503D01*
X131433620Y-35424020D01*
X131539403Y-35413601D01*
X131675123Y-35372431D01*
X131800204Y-35305574D01*
X131823179Y-35286719D01*
X133296941Y-35286719D01*
X133319916Y-35305574D01*
X133444997Y-35372431D01*
X133580717Y-35413601D01*
X133686500Y-35424020D01*
X133721862Y-35427503D01*
X133757224Y-35424020D01*
X143507358Y-35424020D01*
X143542720Y-35427503D01*
X143578082Y-35424020D01*
X143683865Y-35413601D01*
X143819585Y-35372431D01*
X143944666Y-35305574D01*
X144054300Y-35215600D01*
X144144274Y-35105966D01*
X144211131Y-34980885D01*
X144252301Y-34845165D01*
X144265987Y-34706216D01*
X144614203Y-34358000D01*
X147079928Y-34358000D01*
X147083000Y-34572250D01*
X147241750Y-34731000D01*
X147991000Y-34731000D01*
X147991000Y-33881750D01*
X148245000Y-33881750D01*
X148245000Y-34731000D01*
X148994250Y-34731000D01*
X149153000Y-34572250D01*
X149156072Y-34358000D01*
X149143812Y-34233518D01*
X149107502Y-34113820D01*
X149048537Y-34003506D01*
X148969185Y-33906815D01*
X148872494Y-33827463D01*
X148762180Y-33768498D01*
X148642482Y-33732188D01*
X148518000Y-33719928D01*
X148403750Y-33723000D01*
X148245000Y-33881750D01*
X147991000Y-33881750D01*
X147832250Y-33723000D01*
X147718000Y-33719928D01*
X147593518Y-33732188D01*
X147473820Y-33768498D01*
X147363506Y-33827463D01*
X147266815Y-33906815D01*
X147187463Y-34003506D01*
X147128498Y-34113820D01*
X147092188Y-34233518D01*
X147079928Y-34358000D01*
X144614203Y-34358000D01*
X147450109Y-31522095D01*
X147821063Y-31522095D01*
X147856425Y-31525578D01*
X147891787Y-31522095D01*
X147997570Y-31511676D01*
X148133290Y-31470506D01*
X148258371Y-31403649D01*
X148274868Y-31390110D01*
X148260995Y-31410873D01*
G36*
X119204000Y-40295606D02*
G01*
X118042765Y-41456842D01*
X117028591Y-41456842D01*
X118122110Y-40363324D01*
X118149580Y-40340780D01*
X118187807Y-40294200D01*
X118273002Y-40294200D01*
X118273002Y-40262452D01*
X118304750Y-40294200D01*
X118402177Y-40281458D01*
X118402475Y-40281359D01*
X118414518Y-40285012D01*
X118539000Y-40297272D01*
X118769000Y-40297272D01*
X118893482Y-40285012D01*
X119013180Y-40248702D01*
X119123494Y-40189737D01*
X119204000Y-40123668D01*
X119204000Y-40295606D01*
G37*
X119204000Y-40295606D02*
X118042765Y-41456842D01*
X117028591Y-41456842D01*
X118122110Y-40363324D01*
X118149580Y-40340780D01*
X118187807Y-40294200D01*
X118273002Y-40294200D01*
X118273002Y-40262452D01*
X118304750Y-40294200D01*
X118402177Y-40281458D01*
X118402475Y-40281359D01*
X118414518Y-40285012D01*
X118539000Y-40297272D01*
X118769000Y-40297272D01*
X118893482Y-40285012D01*
X119013180Y-40248702D01*
X119123494Y-40189737D01*
X119204000Y-40123668D01*
X119204000Y-40295606D01*
G36*
X109845120Y-37357310D02*
G01*
X109867664Y-37384780D01*
X109977298Y-37474754D01*
X110102379Y-37541611D01*
X110221356Y-37577702D01*
X110238099Y-37582781D01*
X110379243Y-37596683D01*
X110414605Y-37593200D01*
X110667964Y-37593200D01*
X110673742Y-37637377D01*
X110673841Y-37637675D01*
X110670188Y-37649718D01*
X110657928Y-37774200D01*
X110657928Y-37890540D01*
X105925422Y-37890540D01*
X105890060Y-37887057D01*
X105854698Y-37890540D01*
X105748915Y-37900959D01*
X105613195Y-37942129D01*
X105488114Y-38008986D01*
X105378480Y-38098960D01*
X105355932Y-38126435D01*
X105033027Y-38449340D01*
X104480256Y-38449340D01*
X104554926Y-38388060D01*
X104577474Y-38360585D01*
X106063700Y-36874360D01*
X109362171Y-36874360D01*
X109845120Y-37357310D01*
G37*
X109845120Y-37357310D02*
X109867664Y-37384780D01*
X109977298Y-37474754D01*
X110102379Y-37541611D01*
X110221356Y-37577702D01*
X110238099Y-37582781D01*
X110379243Y-37596683D01*
X110414605Y-37593200D01*
X110667964Y-37593200D01*
X110673742Y-37637377D01*
X110673841Y-37637675D01*
X110670188Y-37649718D01*
X110657928Y-37774200D01*
X110657928Y-37890540D01*
X105925422Y-37890540D01*
X105890060Y-37887057D01*
X105854698Y-37890540D01*
X105748915Y-37900959D01*
X105613195Y-37942129D01*
X105488114Y-38008986D01*
X105378480Y-38098960D01*
X105355932Y-38126435D01*
X105033027Y-38449340D01*
X104480256Y-38449340D01*
X104554926Y-38388060D01*
X104577474Y-38360585D01*
X106063700Y-36874360D01*
X109362171Y-36874360D01*
X109845120Y-37357310D01*
G36*
X118068636Y-37044870D02*
G01*
X118091180Y-37072340D01*
X118200814Y-37162314D01*
X118312021Y-37221755D01*
X118312020Y-38025151D01*
X118304750Y-38024200D01*
X118218409Y-38110541D01*
X118184506Y-38128663D01*
X118146000Y-38160264D01*
X118107494Y-38128663D01*
X118073591Y-38110541D01*
X117987250Y-38024200D01*
X117889823Y-38036942D01*
X117889525Y-38037041D01*
X117877482Y-38033388D01*
X117753000Y-38021128D01*
X117523000Y-38021128D01*
X117398518Y-38033388D01*
X117384000Y-38037792D01*
X117369482Y-38033388D01*
X117245000Y-38021128D01*
X117015000Y-38021128D01*
X116937340Y-38028777D01*
X117994942Y-36971175D01*
X118068636Y-37044870D01*
G37*
X118068636Y-37044870D02*
X118091180Y-37072340D01*
X118200814Y-37162314D01*
X118312021Y-37221755D01*
X118312020Y-38025151D01*
X118304750Y-38024200D01*
X118218409Y-38110541D01*
X118184506Y-38128663D01*
X118146000Y-38160264D01*
X118107494Y-38128663D01*
X118073591Y-38110541D01*
X117987250Y-38024200D01*
X117889823Y-38036942D01*
X117889525Y-38037041D01*
X117877482Y-38033388D01*
X117753000Y-38021128D01*
X117523000Y-38021128D01*
X117398518Y-38033388D01*
X117384000Y-38037792D01*
X117369482Y-38033388D01*
X117245000Y-38021128D01*
X117015000Y-38021128D01*
X116937340Y-38028777D01*
X117994942Y-36971175D01*
X118068636Y-37044870D01*
G36*
X108087456Y-23901909D02*
G01*
X108066856Y-23932738D01*
X107981297Y-24139295D01*
X107937680Y-24358574D01*
X107937680Y-24582150D01*
X107981297Y-24801429D01*
X108066856Y-25007986D01*
X108191068Y-25193882D01*
X108349160Y-25351974D01*
X108352680Y-25354326D01*
X108352680Y-25984017D01*
X108349197Y-26019380D01*
X108363099Y-26160524D01*
X108404269Y-26296244D01*
X108471126Y-26421325D01*
X108561100Y-26530959D01*
X108588571Y-26553504D01*
X112346266Y-30311200D01*
X112043172Y-30311200D01*
X111919640Y-30187668D01*
X111733744Y-30063456D01*
X111527187Y-29977897D01*
X111307908Y-29934280D01*
X111084332Y-29934280D01*
X110865053Y-29977897D01*
X110658496Y-30063456D01*
X110472600Y-30187668D01*
X110314508Y-30345760D01*
X110190296Y-30531656D01*
X110104737Y-30738213D01*
X110061120Y-30957492D01*
X110061120Y-31054109D01*
X110040404Y-31004096D01*
X109916192Y-30818200D01*
X109758100Y-30660108D01*
X109572204Y-30535896D01*
X109365647Y-30450337D01*
X109146368Y-30406720D01*
X108922792Y-30406720D01*
X108703513Y-30450337D01*
X108496956Y-30535896D01*
X108311060Y-30660108D01*
X108152968Y-30818200D01*
X108028756Y-31004096D01*
X107943197Y-31210653D01*
X107899580Y-31429932D01*
X107899580Y-31653508D01*
X107943197Y-31872787D01*
X108028756Y-32079344D01*
X108152968Y-32265240D01*
X108311060Y-32423332D01*
X108442763Y-32511333D01*
X108360086Y-32710932D01*
X108316469Y-32930211D01*
X108316469Y-33153787D01*
X108360086Y-33373066D01*
X108445645Y-33579623D01*
X108569857Y-33765519D01*
X108727949Y-33923611D01*
X108913845Y-34047823D01*
X109120402Y-34133382D01*
X109339681Y-34176999D01*
X109563257Y-34176999D01*
X109567410Y-34176173D01*
X110290842Y-34899606D01*
X110290842Y-35198680D01*
X110287359Y-35234042D01*
X110292634Y-35287594D01*
X110301261Y-35375186D01*
X110342431Y-35510906D01*
X110409288Y-35635987D01*
X110499262Y-35745621D01*
X110526733Y-35768166D01*
X110591872Y-35833305D01*
X110614420Y-35860780D01*
X110661000Y-35899007D01*
X110661000Y-35984202D01*
X110692748Y-35984202D01*
X110661000Y-36015950D01*
X110673742Y-36113377D01*
X110673841Y-36113675D01*
X110670188Y-36125718D01*
X110668378Y-36144100D01*
X110194532Y-35670255D01*
X110171984Y-35642780D01*
X110062350Y-35552806D01*
X109937269Y-35485949D01*
X109801549Y-35444779D01*
X109695766Y-35434360D01*
X109660404Y-35430877D01*
X109625042Y-35434360D01*
X105800827Y-35434360D01*
X105765465Y-35430877D01*
X105624321Y-35444779D01*
X105488601Y-35485949D01*
X105363520Y-35552806D01*
X105253886Y-35642780D01*
X105231342Y-35670250D01*
X104525700Y-36375892D01*
X104525700Y-36192282D01*
X104524874Y-36188129D01*
X105177825Y-35535178D01*
X105205300Y-35512630D01*
X105295274Y-35402996D01*
X105362131Y-35277915D01*
X105403301Y-35142195D01*
X105413720Y-35036412D01*
X105417203Y-35001050D01*
X105413720Y-34965688D01*
X105413720Y-27211685D01*
X105417203Y-27176320D01*
X105403302Y-27035176D01*
X105362131Y-26899455D01*
X105352173Y-26880825D01*
X105295274Y-26774374D01*
X105205299Y-26664740D01*
X105177829Y-26642196D01*
X104080072Y-25544439D01*
X104080072Y-25114160D01*
X105582258Y-25114160D01*
X105617620Y-25117643D01*
X105652982Y-25114160D01*
X105758765Y-25103741D01*
X105894485Y-25062571D01*
X106019566Y-24995714D01*
X106129200Y-24905740D01*
X106151748Y-24878265D01*
X106976149Y-24053864D01*
X107003619Y-24031320D01*
X107026164Y-24003849D01*
X107129033Y-23900980D01*
X108084394Y-23900980D01*
X108087456Y-23901909D01*
G37*
X108087456Y-23901909D02*
X108066856Y-23932738D01*
X107981297Y-24139295D01*
X107937680Y-24358574D01*
X107937680Y-24582150D01*
X107981297Y-24801429D01*
X108066856Y-25007986D01*
X108191068Y-25193882D01*
X108349160Y-25351974D01*
X108352680Y-25354326D01*
X108352680Y-25984017D01*
X108349197Y-26019380D01*
X108363099Y-26160524D01*
X108404269Y-26296244D01*
X108471126Y-26421325D01*
X108561100Y-26530959D01*
X108588571Y-26553504D01*
X112346266Y-30311200D01*
X112043172Y-30311200D01*
X111919640Y-30187668D01*
X111733744Y-30063456D01*
X111527187Y-29977897D01*
X111307908Y-29934280D01*
X111084332Y-29934280D01*
X110865053Y-29977897D01*
X110658496Y-30063456D01*
X110472600Y-30187668D01*
X110314508Y-30345760D01*
X110190296Y-30531656D01*
X110104737Y-30738213D01*
X110061120Y-30957492D01*
X110061120Y-31054109D01*
X110040404Y-31004096D01*
X109916192Y-30818200D01*
X109758100Y-30660108D01*
X109572204Y-30535896D01*
X109365647Y-30450337D01*
X109146368Y-30406720D01*
X108922792Y-30406720D01*
X108703513Y-30450337D01*
X108496956Y-30535896D01*
X108311060Y-30660108D01*
X108152968Y-30818200D01*
X108028756Y-31004096D01*
X107943197Y-31210653D01*
X107899580Y-31429932D01*
X107899580Y-31653508D01*
X107943197Y-31872787D01*
X108028756Y-32079344D01*
X108152968Y-32265240D01*
X108311060Y-32423332D01*
X108442763Y-32511333D01*
X108360086Y-32710932D01*
X108316469Y-32930211D01*
X108316469Y-33153787D01*
X108360086Y-33373066D01*
X108445645Y-33579623D01*
X108569857Y-33765519D01*
X108727949Y-33923611D01*
X108913845Y-34047823D01*
X109120402Y-34133382D01*
X109339681Y-34176999D01*
X109563257Y-34176999D01*
X109567410Y-34176173D01*
X110290842Y-34899606D01*
X110290842Y-35198680D01*
X110287359Y-35234042D01*
X110292634Y-35287594D01*
X110301261Y-35375186D01*
X110342431Y-35510906D01*
X110409288Y-35635987D01*
X110499262Y-35745621D01*
X110526733Y-35768166D01*
X110591872Y-35833305D01*
X110614420Y-35860780D01*
X110661000Y-35899007D01*
X110661000Y-35984202D01*
X110692748Y-35984202D01*
X110661000Y-36015950D01*
X110673742Y-36113377D01*
X110673841Y-36113675D01*
X110670188Y-36125718D01*
X110668378Y-36144100D01*
X110194532Y-35670255D01*
X110171984Y-35642780D01*
X110062350Y-35552806D01*
X109937269Y-35485949D01*
X109801549Y-35444779D01*
X109695766Y-35434360D01*
X109660404Y-35430877D01*
X109625042Y-35434360D01*
X105800827Y-35434360D01*
X105765465Y-35430877D01*
X105624321Y-35444779D01*
X105488601Y-35485949D01*
X105363520Y-35552806D01*
X105253886Y-35642780D01*
X105231342Y-35670250D01*
X104525700Y-36375892D01*
X104525700Y-36192282D01*
X104524874Y-36188129D01*
X105177825Y-35535178D01*
X105205300Y-35512630D01*
X105295274Y-35402996D01*
X105362131Y-35277915D01*
X105403301Y-35142195D01*
X105413720Y-35036412D01*
X105417203Y-35001050D01*
X105413720Y-34965688D01*
X105413720Y-27211685D01*
X105417203Y-27176320D01*
X105403302Y-27035176D01*
X105362131Y-26899455D01*
X105352173Y-26880825D01*
X105295274Y-26774374D01*
X105205299Y-26664740D01*
X105177829Y-26642196D01*
X104080072Y-25544439D01*
X104080072Y-25114160D01*
X105582258Y-25114160D01*
X105617620Y-25117643D01*
X105652982Y-25114160D01*
X105758765Y-25103741D01*
X105894485Y-25062571D01*
X106019566Y-24995714D01*
X106129200Y-24905740D01*
X106151748Y-24878265D01*
X106976149Y-24053864D01*
X107003619Y-24031320D01*
X107026164Y-24003849D01*
X107129033Y-23900980D01*
X108084394Y-23900980D01*
X108087456Y-23901909D01*
G36*
X101903928Y-25874600D02*
G01*
X101916188Y-25999082D01*
X101952498Y-26118780D01*
X102011463Y-26229094D01*
X102090815Y-26325785D01*
X102187506Y-26405137D01*
X102297820Y-26464102D01*
X102417518Y-26500412D01*
X102542000Y-26512672D01*
X103011839Y-26512672D01*
X103973720Y-27474553D01*
X103973720Y-29580645D01*
X103888482Y-29554788D01*
X103764000Y-29542528D01*
X103599750Y-29545600D01*
X103441000Y-29704350D01*
X103441000Y-30453600D01*
X103461000Y-30453600D01*
X103461000Y-30707600D01*
X103441000Y-30707600D01*
X103441000Y-31456850D01*
X103599750Y-31615600D01*
X103764000Y-31618672D01*
X103888482Y-31606412D01*
X103973721Y-31580555D01*
X103973721Y-31680645D01*
X103888482Y-31654788D01*
X103764000Y-31642528D01*
X102864000Y-31642528D01*
X102739518Y-31654788D01*
X102619820Y-31691098D01*
X102509506Y-31750063D01*
X102412815Y-31829415D01*
X102333463Y-31926106D01*
X102274498Y-32036420D01*
X102238188Y-32156118D01*
X102225928Y-32280600D01*
X102225928Y-33080600D01*
X102238188Y-33205082D01*
X102274498Y-33324780D01*
X102333463Y-33435094D01*
X102412815Y-33531785D01*
X102509506Y-33611137D01*
X102594000Y-33656301D01*
X102594001Y-34670445D01*
X101563541Y-35700906D01*
X101559388Y-35700080D01*
X101335812Y-35700080D01*
X101116533Y-35743697D01*
X101070320Y-35762839D01*
X101070320Y-35431513D01*
X101758990Y-34742844D01*
X101786460Y-34720300D01*
X101876434Y-34610666D01*
X101943291Y-34485585D01*
X101984461Y-34349865D01*
X101994880Y-34244082D01*
X101998363Y-34208721D01*
X101994880Y-34173359D01*
X101994880Y-31704082D01*
X101998363Y-31668720D01*
X101984461Y-31527575D01*
X101943291Y-31391855D01*
X101922701Y-31353334D01*
X101876434Y-31266774D01*
X101786459Y-31157140D01*
X101758994Y-31134600D01*
X101604994Y-30980600D01*
X102225928Y-30980600D01*
X102238188Y-31105082D01*
X102274498Y-31224780D01*
X102333463Y-31335094D01*
X102412815Y-31431785D01*
X102509506Y-31511137D01*
X102619820Y-31570102D01*
X102739518Y-31606412D01*
X102864000Y-31618672D01*
X103028250Y-31615600D01*
X103187000Y-31456850D01*
X103187000Y-30707600D01*
X102387750Y-30707600D01*
X102229000Y-30866350D01*
X102225928Y-30980600D01*
X101604994Y-30980600D01*
X100892068Y-30267675D01*
X100869520Y-30240200D01*
X100799557Y-30182783D01*
X100797374Y-30180600D01*
X102225928Y-30180600D01*
X102229000Y-30294850D01*
X102387750Y-30453600D01*
X103187000Y-30453600D01*
X103187000Y-29704350D01*
X103028250Y-29545600D01*
X102864000Y-29542528D01*
X102739518Y-29554788D01*
X102619820Y-29591098D01*
X102509506Y-29650063D01*
X102412815Y-29729415D01*
X102333463Y-29826106D01*
X102274498Y-29936420D01*
X102238188Y-30056118D01*
X102225928Y-30180600D01*
X100797374Y-30180600D01*
X97914150Y-27297377D01*
X98147210Y-27393914D01*
X98417108Y-27447600D01*
X98692292Y-27447600D01*
X98962190Y-27393914D01*
X99216427Y-27288605D01*
X99445235Y-27135720D01*
X99639820Y-26941135D01*
X99792705Y-26712327D01*
X99898014Y-26458090D01*
X99951700Y-26188192D01*
X99951700Y-25913008D01*
X99911687Y-25711847D01*
X100509374Y-25114160D01*
X101903928Y-25114160D01*
X101903928Y-25874600D01*
G37*
X101903928Y-25874600D02*
X101916188Y-25999082D01*
X101952498Y-26118780D01*
X102011463Y-26229094D01*
X102090815Y-26325785D01*
X102187506Y-26405137D01*
X102297820Y-26464102D01*
X102417518Y-26500412D01*
X102542000Y-26512672D01*
X103011839Y-26512672D01*
X103973720Y-27474553D01*
X103973720Y-29580645D01*
X103888482Y-29554788D01*
X103764000Y-29542528D01*
X103599750Y-29545600D01*
X103441000Y-29704350D01*
X103441000Y-30453600D01*
X103461000Y-30453600D01*
X103461000Y-30707600D01*
X103441000Y-30707600D01*
X103441000Y-31456850D01*
X103599750Y-31615600D01*
X103764000Y-31618672D01*
X103888482Y-31606412D01*
X103973721Y-31580555D01*
X103973721Y-31680645D01*
X103888482Y-31654788D01*
X103764000Y-31642528D01*
X102864000Y-31642528D01*
X102739518Y-31654788D01*
X102619820Y-31691098D01*
X102509506Y-31750063D01*
X102412815Y-31829415D01*
X102333463Y-31926106D01*
X102274498Y-32036420D01*
X102238188Y-32156118D01*
X102225928Y-32280600D01*
X102225928Y-33080600D01*
X102238188Y-33205082D01*
X102274498Y-33324780D01*
X102333463Y-33435094D01*
X102412815Y-33531785D01*
X102509506Y-33611137D01*
X102594000Y-33656301D01*
X102594001Y-34670445D01*
X101563541Y-35700906D01*
X101559388Y-35700080D01*
X101335812Y-35700080D01*
X101116533Y-35743697D01*
X101070320Y-35762839D01*
X101070320Y-35431513D01*
X101758990Y-34742844D01*
X101786460Y-34720300D01*
X101876434Y-34610666D01*
X101943291Y-34485585D01*
X101984461Y-34349865D01*
X101994880Y-34244082D01*
X101998363Y-34208721D01*
X101994880Y-34173359D01*
X101994880Y-31704082D01*
X101998363Y-31668720D01*
X101984461Y-31527575D01*
X101943291Y-31391855D01*
X101922701Y-31353334D01*
X101876434Y-31266774D01*
X101786459Y-31157140D01*
X101758994Y-31134600D01*
X101604994Y-30980600D01*
X102225928Y-30980600D01*
X102238188Y-31105082D01*
X102274498Y-31224780D01*
X102333463Y-31335094D01*
X102412815Y-31431785D01*
X102509506Y-31511137D01*
X102619820Y-31570102D01*
X102739518Y-31606412D01*
X102864000Y-31618672D01*
X103028250Y-31615600D01*
X103187000Y-31456850D01*
X103187000Y-30707600D01*
X102387750Y-30707600D01*
X102229000Y-30866350D01*
X102225928Y-30980600D01*
X101604994Y-30980600D01*
X100892068Y-30267675D01*
X100869520Y-30240200D01*
X100799557Y-30182783D01*
X100797374Y-30180600D01*
X102225928Y-30180600D01*
X102229000Y-30294850D01*
X102387750Y-30453600D01*
X103187000Y-30453600D01*
X103187000Y-29704350D01*
X103028250Y-29545600D01*
X102864000Y-29542528D01*
X102739518Y-29554788D01*
X102619820Y-29591098D01*
X102509506Y-29650063D01*
X102412815Y-29729415D01*
X102333463Y-29826106D01*
X102274498Y-29936420D01*
X102238188Y-30056118D01*
X102225928Y-30180600D01*
X100797374Y-30180600D01*
X97914150Y-27297377D01*
X98147210Y-27393914D01*
X98417108Y-27447600D01*
X98692292Y-27447600D01*
X98962190Y-27393914D01*
X99216427Y-27288605D01*
X99445235Y-27135720D01*
X99639820Y-26941135D01*
X99792705Y-26712327D01*
X99898014Y-26458090D01*
X99951700Y-26188192D01*
X99951700Y-25913008D01*
X99911687Y-25711847D01*
X100509374Y-25114160D01*
X101903928Y-25114160D01*
X101903928Y-25874600D01*
G36*
X118785928Y-33710200D02*
G01*
X118785928Y-33940200D01*
X118798188Y-34064682D01*
X118801841Y-34076725D01*
X118801742Y-34077023D01*
X118789000Y-34174450D01*
X118875341Y-34260791D01*
X118893463Y-34294694D01*
X118925064Y-34333200D01*
X118893463Y-34371706D01*
X118875341Y-34405609D01*
X118789000Y-34491950D01*
X118801742Y-34589377D01*
X118801841Y-34589675D01*
X118798188Y-34601718D01*
X118785928Y-34726200D01*
X118785928Y-34956200D01*
X118798188Y-35080682D01*
X118802592Y-35095200D01*
X118798188Y-35109718D01*
X118785928Y-35234200D01*
X118785928Y-35464200D01*
X118798188Y-35588682D01*
X118802592Y-35603200D01*
X118798188Y-35617718D01*
X118787408Y-35727174D01*
X118608867Y-35548634D01*
X118634302Y-35464784D01*
X118638861Y-35418498D01*
X118648204Y-35323640D01*
X118644721Y-35288278D01*
X118644721Y-33745412D01*
X118797508Y-33592625D01*
X118785928Y-33710200D01*
G37*
X118785928Y-33710200D02*
X118785928Y-33940200D01*
X118798188Y-34064682D01*
X118801841Y-34076725D01*
X118801742Y-34077023D01*
X118789000Y-34174450D01*
X118875341Y-34260791D01*
X118893463Y-34294694D01*
X118925064Y-34333200D01*
X118893463Y-34371706D01*
X118875341Y-34405609D01*
X118789000Y-34491950D01*
X118801742Y-34589377D01*
X118801841Y-34589675D01*
X118798188Y-34601718D01*
X118785928Y-34726200D01*
X118785928Y-34956200D01*
X118798188Y-35080682D01*
X118802592Y-35095200D01*
X118798188Y-35109718D01*
X118785928Y-35234200D01*
X118785928Y-35464200D01*
X118798188Y-35588682D01*
X118802592Y-35603200D01*
X118798188Y-35617718D01*
X118787408Y-35727174D01*
X118608867Y-35548634D01*
X118634302Y-35464784D01*
X118638861Y-35418498D01*
X118648204Y-35323640D01*
X118644721Y-35288278D01*
X118644721Y-33745412D01*
X118797508Y-33592625D01*
X118785928Y-33710200D01*
G36*
X113905261Y-25445893D02*
G01*
X113905261Y-25968275D01*
X113901778Y-26003637D01*
X113915680Y-26144781D01*
X113956850Y-26280501D01*
X114007007Y-26374338D01*
X114023708Y-26405583D01*
X114113682Y-26515217D01*
X114141152Y-26537761D01*
X115921880Y-28318490D01*
X115921880Y-28364935D01*
X115725807Y-28283719D01*
X115506528Y-28240102D01*
X115282952Y-28240102D01*
X115063673Y-28283719D01*
X114857116Y-28369278D01*
X114671220Y-28493490D01*
X114513128Y-28651582D01*
X114388916Y-28837478D01*
X114303357Y-29044035D01*
X114259740Y-29263314D01*
X114259740Y-29486890D01*
X114268137Y-29529103D01*
X113248932Y-28509899D01*
X113248932Y-25800433D01*
X113252415Y-25765071D01*
X113238513Y-25623927D01*
X113231768Y-25601693D01*
X113197343Y-25488207D01*
X113130486Y-25363126D01*
X113040512Y-25253492D01*
X113013042Y-25230948D01*
X110505968Y-22723875D01*
X110483420Y-22696400D01*
X110373786Y-22606426D01*
X110248705Y-22539569D01*
X110112985Y-22498399D01*
X110007202Y-22487980D01*
X109971840Y-22484497D01*
X109936478Y-22487980D01*
X108809805Y-22487980D01*
X108979799Y-22317986D01*
X109088636Y-22155100D01*
X110614469Y-22155100D01*
X113905261Y-25445893D01*
G37*
X113905261Y-25445893D02*
X113905261Y-25968275D01*
X113901778Y-26003637D01*
X113915680Y-26144781D01*
X113956850Y-26280501D01*
X114007007Y-26374338D01*
X114023708Y-26405583D01*
X114113682Y-26515217D01*
X114141152Y-26537761D01*
X115921880Y-28318490D01*
X115921880Y-28364935D01*
X115725807Y-28283719D01*
X115506528Y-28240102D01*
X115282952Y-28240102D01*
X115063673Y-28283719D01*
X114857116Y-28369278D01*
X114671220Y-28493490D01*
X114513128Y-28651582D01*
X114388916Y-28837478D01*
X114303357Y-29044035D01*
X114259740Y-29263314D01*
X114259740Y-29486890D01*
X114268137Y-29529103D01*
X113248932Y-28509899D01*
X113248932Y-25800433D01*
X113252415Y-25765071D01*
X113238513Y-25623927D01*
X113231768Y-25601693D01*
X113197343Y-25488207D01*
X113130486Y-25363126D01*
X113040512Y-25253492D01*
X113013042Y-25230948D01*
X110505968Y-22723875D01*
X110483420Y-22696400D01*
X110373786Y-22606426D01*
X110248705Y-22539569D01*
X110112985Y-22498399D01*
X110007202Y-22487980D01*
X109971840Y-22484497D01*
X109936478Y-22487980D01*
X108809805Y-22487980D01*
X108979799Y-22317986D01*
X109088636Y-22155100D01*
X110614469Y-22155100D01*
X113905261Y-25445893D01*
G36*
X114967394Y-20136694D02*
G01*
X115092475Y-20203551D01*
X115228195Y-20244721D01*
X115284007Y-20250218D01*
X115369339Y-20258623D01*
X115404701Y-20255140D01*
X117443000Y-20255140D01*
X117443000Y-20379860D01*
X117500068Y-20666758D01*
X117612010Y-20937011D01*
X117774525Y-21180232D01*
X117981368Y-21387075D01*
X118224589Y-21549590D01*
X118494842Y-21661532D01*
X118781740Y-21718600D01*
X119074260Y-21718600D01*
X119361158Y-21661532D01*
X119631411Y-21549590D01*
X119874632Y-21387075D01*
X120081475Y-21180232D01*
X120198000Y-21005840D01*
X120314525Y-21180232D01*
X120521368Y-21387075D01*
X120764589Y-21549590D01*
X121034842Y-21661532D01*
X121321740Y-21718600D01*
X121614260Y-21718600D01*
X121901158Y-21661532D01*
X122171411Y-21549590D01*
X122414632Y-21387075D01*
X122621475Y-21180232D01*
X122738000Y-21005840D01*
X122854525Y-21180232D01*
X123061368Y-21387075D01*
X123304589Y-21549590D01*
X123574842Y-21661532D01*
X123861740Y-21718600D01*
X124154260Y-21718600D01*
X124441158Y-21661532D01*
X124711411Y-21549590D01*
X124954632Y-21387075D01*
X125086487Y-21255220D01*
X125108498Y-21327780D01*
X125119533Y-21348425D01*
X118166374Y-28301585D01*
X118166374Y-26132836D01*
X118169857Y-26097474D01*
X118155955Y-25956329D01*
X118114785Y-25820609D01*
X118077826Y-25751464D01*
X118047928Y-25695528D01*
X117957954Y-25585894D01*
X117930484Y-25563350D01*
X114130781Y-21763648D01*
X114169000Y-21571511D01*
X114169000Y-21298689D01*
X114115775Y-21031111D01*
X114011371Y-20779057D01*
X113859799Y-20552214D01*
X113666886Y-20359301D01*
X113510998Y-20255140D01*
X113736318Y-20255140D01*
X113771680Y-20258623D01*
X113807042Y-20255140D01*
X113912825Y-20244721D01*
X114048545Y-20203551D01*
X114173626Y-20136694D01*
X114180954Y-20130680D01*
X114960066Y-20130680D01*
X114967394Y-20136694D01*
G37*
X114967394Y-20136694D02*
X115092475Y-20203551D01*
X115228195Y-20244721D01*
X115284007Y-20250218D01*
X115369339Y-20258623D01*
X115404701Y-20255140D01*
X117443000Y-20255140D01*
X117443000Y-20379860D01*
X117500068Y-20666758D01*
X117612010Y-20937011D01*
X117774525Y-21180232D01*
X117981368Y-21387075D01*
X118224589Y-21549590D01*
X118494842Y-21661532D01*
X118781740Y-21718600D01*
X119074260Y-21718600D01*
X119361158Y-21661532D01*
X119631411Y-21549590D01*
X119874632Y-21387075D01*
X120081475Y-21180232D01*
X120198000Y-21005840D01*
X120314525Y-21180232D01*
X120521368Y-21387075D01*
X120764589Y-21549590D01*
X121034842Y-21661532D01*
X121321740Y-21718600D01*
X121614260Y-21718600D01*
X121901158Y-21661532D01*
X122171411Y-21549590D01*
X122414632Y-21387075D01*
X122621475Y-21180232D01*
X122738000Y-21005840D01*
X122854525Y-21180232D01*
X123061368Y-21387075D01*
X123304589Y-21549590D01*
X123574842Y-21661532D01*
X123861740Y-21718600D01*
X124154260Y-21718600D01*
X124441158Y-21661532D01*
X124711411Y-21549590D01*
X124954632Y-21387075D01*
X125086487Y-21255220D01*
X125108498Y-21327780D01*
X125119533Y-21348425D01*
X118166374Y-28301585D01*
X118166374Y-26132836D01*
X118169857Y-26097474D01*
X118155955Y-25956329D01*
X118114785Y-25820609D01*
X118077826Y-25751464D01*
X118047928Y-25695528D01*
X117957954Y-25585894D01*
X117930484Y-25563350D01*
X114130781Y-21763648D01*
X114169000Y-21571511D01*
X114169000Y-21298689D01*
X114115775Y-21031111D01*
X114011371Y-20779057D01*
X113859799Y-20552214D01*
X113666886Y-20359301D01*
X113510998Y-20255140D01*
X113736318Y-20255140D01*
X113771680Y-20258623D01*
X113807042Y-20255140D01*
X113912825Y-20244721D01*
X114048545Y-20203551D01*
X114173626Y-20136694D01*
X114180954Y-20130680D01*
X114960066Y-20130680D01*
X114967394Y-20136694D01*
G36*
X106318588Y-19465060D02*
G01*
X106007932Y-19775716D01*
X105980461Y-19798260D01*
X105890487Y-19907894D01*
X105890486Y-19907896D01*
X105823629Y-20032976D01*
X105782459Y-20168696D01*
X105768557Y-20309840D01*
X105772041Y-20345212D01*
X105772040Y-23221507D01*
X105319387Y-23674160D01*
X104077371Y-23674160D01*
X104077000Y-23660350D01*
X103918250Y-23501600D01*
X103119000Y-23501600D01*
X103119000Y-23521600D01*
X102865000Y-23521600D01*
X102865000Y-23501600D01*
X102065750Y-23501600D01*
X101907000Y-23660350D01*
X101906629Y-23674160D01*
X100246502Y-23674160D01*
X100211140Y-23670677D01*
X100175778Y-23674160D01*
X100069995Y-23684579D01*
X99934275Y-23725749D01*
X99930125Y-23727967D01*
X99933723Y-23713465D01*
X99946610Y-23438583D01*
X99905622Y-23166467D01*
X99836487Y-22974600D01*
X101903928Y-22974600D01*
X101907000Y-23088850D01*
X102065750Y-23247600D01*
X102865000Y-23247600D01*
X102865000Y-22498350D01*
X103119000Y-22498350D01*
X103119000Y-23247600D01*
X103918250Y-23247600D01*
X104077000Y-23088850D01*
X104080072Y-22974600D01*
X104067812Y-22850118D01*
X104031502Y-22730420D01*
X103972537Y-22620106D01*
X103893185Y-22523415D01*
X103796494Y-22444063D01*
X103686180Y-22385098D01*
X103566482Y-22348788D01*
X103442000Y-22336528D01*
X103277750Y-22339600D01*
X103119000Y-22498350D01*
X102865000Y-22498350D01*
X102706250Y-22339600D01*
X102542000Y-22336528D01*
X102417518Y-22348788D01*
X102297820Y-22385098D01*
X102187506Y-22444063D01*
X102090815Y-22523415D01*
X102011463Y-22620106D01*
X101952498Y-22730420D01*
X101916188Y-22850118D01*
X101903928Y-22974600D01*
X99836487Y-22974600D01*
X99812336Y-22907577D01*
X99750356Y-22791620D01*
X99510265Y-22724640D01*
X98724305Y-23510600D01*
X98738448Y-23524743D01*
X98558843Y-23704348D01*
X98544700Y-23690205D01*
X97758740Y-24476165D01*
X97825720Y-24716256D01*
X97966143Y-24782287D01*
X97892973Y-24812595D01*
X97664165Y-24965480D01*
X97469580Y-25160065D01*
X97316695Y-25388873D01*
X97211386Y-25643110D01*
X97157700Y-25913008D01*
X97157700Y-26188192D01*
X97211386Y-26458090D01*
X97307923Y-26691150D01*
X96922500Y-26305727D01*
X96922500Y-23582617D01*
X97142790Y-23582617D01*
X97183778Y-23854733D01*
X97277064Y-24113623D01*
X97339044Y-24229580D01*
X97579135Y-24296560D01*
X98365095Y-23510600D01*
X97579135Y-22724640D01*
X97339044Y-22791620D01*
X97221944Y-23040648D01*
X97155677Y-23307735D01*
X97142790Y-23582617D01*
X96922500Y-23582617D01*
X96922500Y-22924553D01*
X97349123Y-22497930D01*
X97771881Y-22497930D01*
X97758740Y-22545035D01*
X98544700Y-23330995D01*
X99330660Y-22545035D01*
X99317519Y-22497930D01*
X101310608Y-22497930D01*
X101345970Y-22501413D01*
X101381332Y-22497930D01*
X101487115Y-22487511D01*
X101622835Y-22446341D01*
X101747916Y-22379484D01*
X101755208Y-22373500D01*
X101970538Y-22373500D01*
X102005900Y-22376983D01*
X102041262Y-22373500D01*
X102147045Y-22363081D01*
X102282765Y-22321911D01*
X102407846Y-22255054D01*
X102517480Y-22165080D01*
X102540028Y-22137605D01*
X105079905Y-19597728D01*
X105107380Y-19575180D01*
X105197354Y-19465545D01*
X105204327Y-19452500D01*
X106328896Y-19452500D01*
X106318588Y-19465060D01*
G37*
X106318588Y-19465060D02*
X106007932Y-19775716D01*
X105980461Y-19798260D01*
X105890487Y-19907894D01*
X105890486Y-19907896D01*
X105823629Y-20032976D01*
X105782459Y-20168696D01*
X105768557Y-20309840D01*
X105772041Y-20345212D01*
X105772040Y-23221507D01*
X105319387Y-23674160D01*
X104077371Y-23674160D01*
X104077000Y-23660350D01*
X103918250Y-23501600D01*
X103119000Y-23501600D01*
X103119000Y-23521600D01*
X102865000Y-23521600D01*
X102865000Y-23501600D01*
X102065750Y-23501600D01*
X101907000Y-23660350D01*
X101906629Y-23674160D01*
X100246502Y-23674160D01*
X100211140Y-23670677D01*
X100175778Y-23674160D01*
X100069995Y-23684579D01*
X99934275Y-23725749D01*
X99930125Y-23727967D01*
X99933723Y-23713465D01*
X99946610Y-23438583D01*
X99905622Y-23166467D01*
X99836487Y-22974600D01*
X101903928Y-22974600D01*
X101907000Y-23088850D01*
X102065750Y-23247600D01*
X102865000Y-23247600D01*
X102865000Y-22498350D01*
X103119000Y-22498350D01*
X103119000Y-23247600D01*
X103918250Y-23247600D01*
X104077000Y-23088850D01*
X104080072Y-22974600D01*
X104067812Y-22850118D01*
X104031502Y-22730420D01*
X103972537Y-22620106D01*
X103893185Y-22523415D01*
X103796494Y-22444063D01*
X103686180Y-22385098D01*
X103566482Y-22348788D01*
X103442000Y-22336528D01*
X103277750Y-22339600D01*
X103119000Y-22498350D01*
X102865000Y-22498350D01*
X102706250Y-22339600D01*
X102542000Y-22336528D01*
X102417518Y-22348788D01*
X102297820Y-22385098D01*
X102187506Y-22444063D01*
X102090815Y-22523415D01*
X102011463Y-22620106D01*
X101952498Y-22730420D01*
X101916188Y-22850118D01*
X101903928Y-22974600D01*
X99836487Y-22974600D01*
X99812336Y-22907577D01*
X99750356Y-22791620D01*
X99510265Y-22724640D01*
X98724305Y-23510600D01*
X98738448Y-23524743D01*
X98558843Y-23704348D01*
X98544700Y-23690205D01*
X97758740Y-24476165D01*
X97825720Y-24716256D01*
X97966143Y-24782287D01*
X97892973Y-24812595D01*
X97664165Y-24965480D01*
X97469580Y-25160065D01*
X97316695Y-25388873D01*
X97211386Y-25643110D01*
X97157700Y-25913008D01*
X97157700Y-26188192D01*
X97211386Y-26458090D01*
X97307923Y-26691150D01*
X96922500Y-26305727D01*
X96922500Y-23582617D01*
X97142790Y-23582617D01*
X97183778Y-23854733D01*
X97277064Y-24113623D01*
X97339044Y-24229580D01*
X97579135Y-24296560D01*
X98365095Y-23510600D01*
X97579135Y-22724640D01*
X97339044Y-22791620D01*
X97221944Y-23040648D01*
X97155677Y-23307735D01*
X97142790Y-23582617D01*
X96922500Y-23582617D01*
X96922500Y-22924553D01*
X97349123Y-22497930D01*
X97771881Y-22497930D01*
X97758740Y-22545035D01*
X98544700Y-23330995D01*
X99330660Y-22545035D01*
X99317519Y-22497930D01*
X101310608Y-22497930D01*
X101345970Y-22501413D01*
X101381332Y-22497930D01*
X101487115Y-22487511D01*
X101622835Y-22446341D01*
X101747916Y-22379484D01*
X101755208Y-22373500D01*
X101970538Y-22373500D01*
X102005900Y-22376983D01*
X102041262Y-22373500D01*
X102147045Y-22363081D01*
X102282765Y-22321911D01*
X102407846Y-22255054D01*
X102517480Y-22165080D01*
X102540028Y-22137605D01*
X105079905Y-19597728D01*
X105107380Y-19575180D01*
X105197354Y-19465545D01*
X105204327Y-19452500D01*
X106328896Y-19452500D01*
X106318588Y-19465060D01*
G36*
X111319954Y-20136694D02*
G01*
X111445035Y-20203551D01*
X111580755Y-20244721D01*
X111721899Y-20258623D01*
X111757261Y-20255140D01*
X112057002Y-20255140D01*
X111901114Y-20359301D01*
X111708201Y-20552214D01*
X111556629Y-20779057D01*
X111474110Y-20978275D01*
X111446830Y-20950995D01*
X111424282Y-20923520D01*
X111314648Y-20833546D01*
X111189567Y-20766689D01*
X111053847Y-20725519D01*
X110948064Y-20715100D01*
X110912702Y-20711617D01*
X110877340Y-20715100D01*
X109088636Y-20715100D01*
X109057940Y-20669160D01*
X109293858Y-20669160D01*
X109329220Y-20672643D01*
X109364582Y-20669160D01*
X109470365Y-20658741D01*
X109606085Y-20617571D01*
X109731166Y-20550714D01*
X109840800Y-20460740D01*
X109863348Y-20433265D01*
X110221814Y-20074800D01*
X111244536Y-20074800D01*
X111319954Y-20136694D01*
G37*
X111319954Y-20136694D02*
X111445035Y-20203551D01*
X111580755Y-20244721D01*
X111721899Y-20258623D01*
X111757261Y-20255140D01*
X112057002Y-20255140D01*
X111901114Y-20359301D01*
X111708201Y-20552214D01*
X111556629Y-20779057D01*
X111474110Y-20978275D01*
X111446830Y-20950995D01*
X111424282Y-20923520D01*
X111314648Y-20833546D01*
X111189567Y-20766689D01*
X111053847Y-20725519D01*
X110948064Y-20715100D01*
X110912702Y-20711617D01*
X110877340Y-20715100D01*
X109088636Y-20715100D01*
X109057940Y-20669160D01*
X109293858Y-20669160D01*
X109329220Y-20672643D01*
X109364582Y-20669160D01*
X109470365Y-20658741D01*
X109606085Y-20617571D01*
X109731166Y-20550714D01*
X109840800Y-20460740D01*
X109863348Y-20433265D01*
X110221814Y-20074800D01*
X111244536Y-20074800D01*
X111319954Y-20136694D01*
M02*
