G04 #@! TF.GenerationSoftware,KiCad,Pcbnew,5.1.7-a382d34a8~88~ubuntu18.04.1*
G04 #@! TF.CreationDate,2021-09-05T21:22:39+05:30*
G04 #@! TF.ProjectId,Sensor_PCB_v7,53656e73-6f72-45f5-9043-425f76372e6b,rev?*
G04 #@! TF.SameCoordinates,Original*
G04 #@! TF.FileFunction,Legend,Bot*
G04 #@! TF.FilePolarity,Positive*
%FSLAX46Y46*%
G04 Gerber Fmt 4.6, Leading zero omitted, Abs format (unit mm)*
G04 Created by KiCad (PCBNEW 5.1.7-a382d34a8~88~ubuntu18.04.1) date 2021-09-05 21:22:39*
%MOMM*%
%LPD*%
G01*
G04 APERTURE LIST*
%ADD10C,0.100000*%
%ADD11C,0.127000*%
%ADD12C,0.152400*%
%ADD13C,0.010000*%
%ADD14C,0.150000*%
%ADD15C,0.120000*%
%ADD16C,0.015000*%
G04 APERTURE END LIST*
D10*
X39118759Y-57509369D02*
X39233044Y-57547464D01*
X39423520Y-57547464D01*
X39499711Y-57509369D01*
X39537806Y-57471274D01*
X39575901Y-57395083D01*
X39575901Y-57318893D01*
X39537806Y-57242702D01*
X39499711Y-57204607D01*
X39423520Y-57166512D01*
X39271140Y-57128417D01*
X39194949Y-57090321D01*
X39156854Y-57052226D01*
X39118759Y-56976036D01*
X39118759Y-56899845D01*
X39156854Y-56823655D01*
X39194949Y-56785560D01*
X39271140Y-56747464D01*
X39461616Y-56747464D01*
X39575901Y-56785560D01*
X39804473Y-57014131D02*
X40109235Y-57014131D01*
X39918759Y-56747464D02*
X39918759Y-57433179D01*
X39956854Y-57509369D01*
X40033044Y-57547464D01*
X40109235Y-57547464D01*
X40375901Y-57547464D02*
X40375901Y-57014131D01*
X40375901Y-57090321D02*
X40413997Y-57052226D01*
X40490187Y-57014131D01*
X40604473Y-57014131D01*
X40680663Y-57052226D01*
X40718759Y-57128417D01*
X40718759Y-57547464D01*
X40718759Y-57128417D02*
X40756854Y-57052226D01*
X40833044Y-57014131D01*
X40947330Y-57014131D01*
X41023520Y-57052226D01*
X41061616Y-57128417D01*
X41061616Y-57547464D01*
X41366378Y-56747464D02*
X41861616Y-56747464D01*
X41594949Y-57052226D01*
X41709235Y-57052226D01*
X41785425Y-57090321D01*
X41823520Y-57128417D01*
X41861616Y-57204607D01*
X41861616Y-57395083D01*
X41823520Y-57471274D01*
X41785425Y-57509369D01*
X41709235Y-57547464D01*
X41480663Y-57547464D01*
X41404473Y-57509369D01*
X41366378Y-57471274D01*
X42166378Y-56823655D02*
X42204473Y-56785560D01*
X42280663Y-56747464D01*
X42471140Y-56747464D01*
X42547330Y-56785560D01*
X42585425Y-56823655D01*
X42623520Y-56899845D01*
X42623520Y-56976036D01*
X42585425Y-57090321D01*
X42128282Y-57547464D01*
X42623520Y-57547464D01*
D11*
X33348200Y-78562600D02*
X33348200Y-74162600D01*
X33348200Y-74162600D02*
X37548200Y-74162600D01*
X37548200Y-74162600D02*
X37548200Y-78562600D01*
X37548200Y-78562600D02*
X33348200Y-78562600D01*
D10*
X34071806Y-78062600D02*
G75*
G03*
X34071806Y-78062600I-223606J0D01*
G01*
D12*
X55168500Y-41569000D02*
X55168500Y-39069000D01*
X53598500Y-39069000D02*
X55168500Y-39069000D01*
X50668500Y-39069000D02*
X52238500Y-39069000D01*
X50668500Y-39069000D02*
X50668500Y-41569000D01*
X50668500Y-41569000D02*
X51638500Y-41569000D01*
X54198500Y-41569000D02*
X55168500Y-41569000D01*
D13*
G36*
X51168500Y-39069000D02*
G01*
X51668500Y-39069000D01*
X51668500Y-38929000D01*
X51168500Y-38929000D01*
X51168500Y-39069000D01*
G37*
X51168500Y-39069000D02*
X51668500Y-39069000D01*
X51668500Y-38929000D01*
X51168500Y-38929000D01*
X51168500Y-39069000D01*
G36*
X54168500Y-39069000D02*
G01*
X54668500Y-39069000D01*
X54668500Y-38929000D01*
X54168500Y-38929000D01*
X54168500Y-39069000D01*
G37*
X54168500Y-39069000D02*
X54668500Y-39069000D01*
X54668500Y-38929000D01*
X54168500Y-38929000D01*
X54168500Y-39069000D01*
D14*
X47605710Y-65483700D02*
G75*
G03*
X47605710Y-65483700I-359210J0D01*
G01*
X48008500Y-59641700D02*
X48008500Y-65737700D01*
X41404500Y-59133700D02*
X47500500Y-59133700D01*
X40896500Y-65737700D02*
X40896500Y-59641700D01*
X47500500Y-66245700D02*
X41404500Y-66245700D01*
X40896500Y-59641700D02*
G75*
G02*
X41404500Y-59133700I508000J0D01*
G01*
X41404500Y-66245700D02*
G75*
G02*
X40896500Y-65737700I0J508000D01*
G01*
X47500500Y-59133700D02*
G75*
G02*
X48008500Y-59641700I0J-508000D01*
G01*
X48008500Y-65737700D02*
G75*
G02*
X47500500Y-66245700I-508000J0D01*
G01*
D15*
X25282000Y-72110000D02*
X25282000Y-73310000D01*
X27042000Y-73310000D02*
X27042000Y-72110000D01*
X56081600Y-47699600D02*
X58741600Y-47699600D01*
X56081600Y-55379600D02*
X56081600Y-47699600D01*
X58741600Y-55379600D02*
X58741600Y-47699600D01*
X56081600Y-55379600D02*
X58741600Y-55379600D01*
X56081600Y-56649600D02*
X56081600Y-57979600D01*
X56081600Y-57979600D02*
X57411600Y-57979600D01*
X43584200Y-68911100D02*
X44584200Y-68911100D01*
X44584200Y-70611100D02*
X43584200Y-70611100D01*
X43077500Y-47447600D02*
X43077500Y-48447600D01*
X41377500Y-48447600D02*
X41377500Y-47447600D01*
X41446100Y-52305800D02*
X41446100Y-51305800D01*
X43146100Y-51305800D02*
X43146100Y-52305800D01*
X32680500Y-48650800D02*
X32680500Y-47650800D01*
X34380500Y-47650800D02*
X34380500Y-48650800D01*
X44252800Y-24021200D02*
X44252800Y-23021200D01*
X45952800Y-23021200D02*
X45952800Y-24021200D01*
X33256600Y-30435180D02*
X34256600Y-30435180D01*
X34256600Y-32135180D02*
X33256600Y-32135180D01*
X41678000Y-23396300D02*
X41678000Y-24396300D01*
X39978000Y-24396300D02*
X39978000Y-23396300D01*
X50780200Y-68944600D02*
X49580200Y-68944600D01*
X49580200Y-70704600D02*
X50780200Y-70704600D01*
X36983800Y-47169800D02*
X36983800Y-48369800D01*
X38743800Y-48369800D02*
X38743800Y-47169800D01*
X30206200Y-19848900D02*
X29006200Y-19848900D01*
X29006200Y-21608900D02*
X30206200Y-21608900D01*
X49189100Y-25106500D02*
X50389100Y-25106500D01*
X50389100Y-23346500D02*
X49189100Y-23346500D01*
X34253600Y-21666600D02*
X36053600Y-21666600D01*
X36053600Y-24886600D02*
X33603600Y-24886600D01*
X45273300Y-34804800D02*
X45273300Y-36924800D01*
X42073300Y-34804800D02*
X45273300Y-34804800D01*
X45273300Y-36924800D02*
X42073300Y-36924800D01*
X30600800Y-81149600D02*
X29600800Y-81149600D01*
X29600800Y-79449600D02*
X30600800Y-79449600D01*
X36964000Y-73087100D02*
X38164000Y-73087100D01*
X38164000Y-71327100D02*
X36964000Y-71327100D01*
X29837900Y-70897900D02*
X28637900Y-70897900D01*
X28637900Y-72657900D02*
X29837900Y-72657900D01*
X37823700Y-79610100D02*
X36623700Y-79610100D01*
X36623700Y-81370100D02*
X37823700Y-81370100D01*
D16*
X35789496Y-79991008D02*
X35789496Y-78990725D01*
X34741581Y-79895743D02*
X34789213Y-79943376D01*
X34932111Y-79991008D01*
X35027376Y-79991008D01*
X35170273Y-79943376D01*
X35265538Y-79848111D01*
X35313171Y-79752846D01*
X35360804Y-79562316D01*
X35360804Y-79419418D01*
X35313171Y-79228888D01*
X35265538Y-79133623D01*
X35170273Y-79038358D01*
X35027376Y-78990725D01*
X34932111Y-78990725D01*
X34789213Y-79038358D01*
X34741581Y-79085991D01*
X33788930Y-79991008D02*
X34360521Y-79991008D01*
X34074725Y-79991008D02*
X34074725Y-78990725D01*
X34169990Y-79133623D01*
X34265255Y-79228888D01*
X34360521Y-79276521D01*
X56075624Y-42109640D02*
X56075624Y-42919164D01*
X56028005Y-43014402D01*
X55980386Y-43062021D01*
X55885148Y-43109640D01*
X55694672Y-43109640D01*
X55599434Y-43062021D01*
X55551815Y-43014402D01*
X55504196Y-42919164D01*
X55504196Y-42109640D01*
X54551815Y-42109640D02*
X55028005Y-42109640D01*
X55075624Y-42585831D01*
X55028005Y-42538212D01*
X54932767Y-42490593D01*
X54694672Y-42490593D01*
X54599434Y-42538212D01*
X54551815Y-42585831D01*
X54504196Y-42681069D01*
X54504196Y-42919164D01*
X54551815Y-43014402D01*
X54599434Y-43062021D01*
X54694672Y-43109640D01*
X54932767Y-43109640D01*
X55028005Y-43062021D01*
X55075624Y-43014402D01*
D14*
X49702584Y-67209380D02*
X49702584Y-68018904D01*
X49654965Y-68114142D01*
X49607346Y-68161761D01*
X49512108Y-68209380D01*
X49321632Y-68209380D01*
X49226394Y-68161761D01*
X49178775Y-68114142D01*
X49131156Y-68018904D01*
X49131156Y-67209380D01*
X48750203Y-67209380D02*
X48131156Y-67209380D01*
X48464489Y-67590333D01*
X48321632Y-67590333D01*
X48226394Y-67637952D01*
X48178775Y-67685571D01*
X48131156Y-67780809D01*
X48131156Y-68018904D01*
X48178775Y-68114142D01*
X48226394Y-68161761D01*
X48321632Y-68209380D01*
X48607346Y-68209380D01*
X48702584Y-68161761D01*
X48750203Y-68114142D01*
X26392166Y-70896700D02*
X26725500Y-70420510D01*
X26963595Y-70896700D02*
X26963595Y-69896700D01*
X26582642Y-69896700D01*
X26487404Y-69944320D01*
X26439785Y-69991939D01*
X26392166Y-70087177D01*
X26392166Y-70230034D01*
X26439785Y-70325272D01*
X26487404Y-70372891D01*
X26582642Y-70420510D01*
X26963595Y-70420510D01*
X25915976Y-70896700D02*
X25725500Y-70896700D01*
X25630261Y-70849081D01*
X25582642Y-70801462D01*
X25487404Y-70658605D01*
X25439785Y-70468129D01*
X25439785Y-70087177D01*
X25487404Y-69991939D01*
X25535023Y-69944320D01*
X25630261Y-69896700D01*
X25820738Y-69896700D01*
X25915976Y-69944320D01*
X25963595Y-69991939D01*
X26011214Y-70087177D01*
X26011214Y-70325272D01*
X25963595Y-70420510D01*
X25915976Y-70468129D01*
X25820738Y-70515748D01*
X25630261Y-70515748D01*
X25535023Y-70468129D01*
X25487404Y-70420510D01*
X25439785Y-70325272D01*
X44384726Y-71947042D02*
X44432345Y-71994661D01*
X44575202Y-72042280D01*
X44670440Y-72042280D01*
X44813298Y-71994661D01*
X44908536Y-71899423D01*
X44956155Y-71804185D01*
X45003774Y-71613709D01*
X45003774Y-71470852D01*
X44956155Y-71280376D01*
X44908536Y-71185138D01*
X44813298Y-71089900D01*
X44670440Y-71042280D01*
X44575202Y-71042280D01*
X44432345Y-71089900D01*
X44384726Y-71137519D01*
X44003774Y-71137519D02*
X43956155Y-71089900D01*
X43860917Y-71042280D01*
X43622821Y-71042280D01*
X43527583Y-71089900D01*
X43479964Y-71137519D01*
X43432345Y-71232757D01*
X43432345Y-71327995D01*
X43479964Y-71470852D01*
X44051393Y-72042280D01*
X43432345Y-72042280D01*
X42498306Y-45914602D02*
X42545925Y-45962221D01*
X42688782Y-46009840D01*
X42784020Y-46009840D01*
X42926878Y-45962221D01*
X43022116Y-45866983D01*
X43069735Y-45771745D01*
X43117354Y-45581269D01*
X43117354Y-45438412D01*
X43069735Y-45247936D01*
X43022116Y-45152698D01*
X42926878Y-45057460D01*
X42784020Y-45009840D01*
X42688782Y-45009840D01*
X42545925Y-45057460D01*
X42498306Y-45105079D01*
X41641163Y-45343174D02*
X41641163Y-46009840D01*
X41879259Y-44962221D02*
X42117354Y-45676507D01*
X41498306Y-45676507D01*
X42498326Y-54578482D02*
X42545945Y-54626101D01*
X42688802Y-54673720D01*
X42784040Y-54673720D01*
X42926898Y-54626101D01*
X43022136Y-54530863D01*
X43069755Y-54435625D01*
X43117374Y-54245149D01*
X43117374Y-54102292D01*
X43069755Y-53911816D01*
X43022136Y-53816578D01*
X42926898Y-53721340D01*
X42784040Y-53673720D01*
X42688802Y-53673720D01*
X42545945Y-53721340D01*
X42498326Y-53768959D01*
X41593564Y-53673720D02*
X42069755Y-53673720D01*
X42117374Y-54149911D01*
X42069755Y-54102292D01*
X41974517Y-54054673D01*
X41736421Y-54054673D01*
X41641183Y-54102292D01*
X41593564Y-54149911D01*
X41545945Y-54245149D01*
X41545945Y-54483244D01*
X41593564Y-54578482D01*
X41641183Y-54626101D01*
X41736421Y-54673720D01*
X41974517Y-54673720D01*
X42069755Y-54626101D01*
X42117374Y-54578482D01*
X33623506Y-46120342D02*
X33671125Y-46167961D01*
X33813982Y-46215580D01*
X33909220Y-46215580D01*
X34052078Y-46167961D01*
X34147316Y-46072723D01*
X34194935Y-45977485D01*
X34242554Y-45787009D01*
X34242554Y-45644152D01*
X34194935Y-45453676D01*
X34147316Y-45358438D01*
X34052078Y-45263200D01*
X33909220Y-45215580D01*
X33813982Y-45215580D01*
X33671125Y-45263200D01*
X33623506Y-45310819D01*
X32766363Y-45215580D02*
X32956840Y-45215580D01*
X33052078Y-45263200D01*
X33099697Y-45310819D01*
X33194935Y-45453676D01*
X33242554Y-45644152D01*
X33242554Y-46025104D01*
X33194935Y-46120342D01*
X33147316Y-46167961D01*
X33052078Y-46215580D01*
X32861601Y-46215580D01*
X32766363Y-46167961D01*
X32718744Y-46120342D01*
X32671125Y-46025104D01*
X32671125Y-45787009D01*
X32718744Y-45691771D01*
X32766363Y-45644152D01*
X32861601Y-45596533D01*
X33052078Y-45596533D01*
X33147316Y-45644152D01*
X33194935Y-45691771D01*
X33242554Y-45787009D01*
X45424406Y-26613922D02*
X45472025Y-26661541D01*
X45614882Y-26709160D01*
X45710120Y-26709160D01*
X45852978Y-26661541D01*
X45948216Y-26566303D01*
X45995835Y-26471065D01*
X46043454Y-26280589D01*
X46043454Y-26137732D01*
X45995835Y-25947256D01*
X45948216Y-25852018D01*
X45852978Y-25756780D01*
X45710120Y-25709160D01*
X45614882Y-25709160D01*
X45472025Y-25756780D01*
X45424406Y-25804399D01*
X45091073Y-25709160D02*
X44424406Y-25709160D01*
X44852978Y-26709160D01*
X31218166Y-31698202D02*
X31265785Y-31745821D01*
X31408642Y-31793440D01*
X31503880Y-31793440D01*
X31646738Y-31745821D01*
X31741976Y-31650583D01*
X31789595Y-31555345D01*
X31837214Y-31364869D01*
X31837214Y-31222012D01*
X31789595Y-31031536D01*
X31741976Y-30936298D01*
X31646738Y-30841060D01*
X31503880Y-30793440D01*
X31408642Y-30793440D01*
X31265785Y-30841060D01*
X31218166Y-30888679D01*
X30265785Y-31793440D02*
X30837214Y-31793440D01*
X30551500Y-31793440D02*
X30551500Y-30793440D01*
X30646738Y-30936298D01*
X30741976Y-31031536D01*
X30837214Y-31079155D01*
X41053086Y-21864062D02*
X41100705Y-21911681D01*
X41243562Y-21959300D01*
X41338800Y-21959300D01*
X41481658Y-21911681D01*
X41576896Y-21816443D01*
X41624515Y-21721205D01*
X41672134Y-21530729D01*
X41672134Y-21387872D01*
X41624515Y-21197396D01*
X41576896Y-21102158D01*
X41481658Y-21006920D01*
X41338800Y-20959300D01*
X41243562Y-20959300D01*
X41100705Y-21006920D01*
X41053086Y-21054539D01*
X40719753Y-20959300D02*
X40100705Y-20959300D01*
X40434039Y-21340253D01*
X40291181Y-21340253D01*
X40195943Y-21387872D01*
X40148324Y-21435491D01*
X40100705Y-21530729D01*
X40100705Y-21768824D01*
X40148324Y-21864062D01*
X40195943Y-21911681D01*
X40291181Y-21959300D01*
X40576896Y-21959300D01*
X40672134Y-21911681D01*
X40719753Y-21864062D01*
X52942746Y-70124580D02*
X53276080Y-69648390D01*
X53514175Y-70124580D02*
X53514175Y-69124580D01*
X53133222Y-69124580D01*
X53037984Y-69172200D01*
X52990365Y-69219819D01*
X52942746Y-69315057D01*
X52942746Y-69457914D01*
X52990365Y-69553152D01*
X53037984Y-69600771D01*
X53133222Y-69648390D01*
X53514175Y-69648390D01*
X52561794Y-69219819D02*
X52514175Y-69172200D01*
X52418937Y-69124580D01*
X52180841Y-69124580D01*
X52085603Y-69172200D01*
X52037984Y-69219819D01*
X51990365Y-69315057D01*
X51990365Y-69410295D01*
X52037984Y-69553152D01*
X52609413Y-70124580D01*
X51990365Y-70124580D01*
X38027926Y-46012380D02*
X38361260Y-45536190D01*
X38599355Y-46012380D02*
X38599355Y-45012380D01*
X38218402Y-45012380D01*
X38123164Y-45060000D01*
X38075545Y-45107619D01*
X38027926Y-45202857D01*
X38027926Y-45345714D01*
X38075545Y-45440952D01*
X38123164Y-45488571D01*
X38218402Y-45536190D01*
X38599355Y-45536190D01*
X37694593Y-45012380D02*
X37075545Y-45012380D01*
X37408879Y-45393333D01*
X37266021Y-45393333D01*
X37170783Y-45440952D01*
X37123164Y-45488571D01*
X37075545Y-45583809D01*
X37075545Y-45821904D01*
X37123164Y-45917142D01*
X37170783Y-45964761D01*
X37266021Y-46012380D01*
X37551736Y-46012380D01*
X37646974Y-45964761D01*
X37694593Y-45917142D01*
X32523686Y-21077140D02*
X32857020Y-20600950D01*
X33095115Y-21077140D02*
X33095115Y-20077140D01*
X32714162Y-20077140D01*
X32618924Y-20124760D01*
X32571305Y-20172379D01*
X32523686Y-20267617D01*
X32523686Y-20410474D01*
X32571305Y-20505712D01*
X32618924Y-20553331D01*
X32714162Y-20600950D01*
X33095115Y-20600950D01*
X31571305Y-21077140D02*
X32142734Y-21077140D01*
X31857020Y-21077140D02*
X31857020Y-20077140D01*
X31952258Y-20219998D01*
X32047496Y-20315236D01*
X32142734Y-20362855D01*
X47304006Y-25016700D02*
X47637340Y-24540510D01*
X47875435Y-25016700D02*
X47875435Y-24016700D01*
X47494482Y-24016700D01*
X47399244Y-24064320D01*
X47351625Y-24111939D01*
X47304006Y-24207177D01*
X47304006Y-24350034D01*
X47351625Y-24445272D01*
X47399244Y-24492891D01*
X47494482Y-24540510D01*
X47875435Y-24540510D01*
X46446863Y-24350034D02*
X46446863Y-25016700D01*
X46684959Y-23969081D02*
X46923054Y-24683367D01*
X46304006Y-24683367D01*
X38369144Y-24931160D02*
X38369144Y-25740684D01*
X38321525Y-25835922D01*
X38273906Y-25883541D01*
X38178668Y-25931160D01*
X37988192Y-25931160D01*
X37892954Y-25883541D01*
X37845335Y-25835922D01*
X37797716Y-25740684D01*
X37797716Y-24931160D01*
X36797716Y-25931160D02*
X37369144Y-25931160D01*
X37083430Y-25931160D02*
X37083430Y-24931160D01*
X37178668Y-25074018D01*
X37273906Y-25169256D01*
X37369144Y-25216875D01*
X43905375Y-38740340D02*
X43905375Y-37740340D01*
X43667280Y-37740340D01*
X43524422Y-37787960D01*
X43429184Y-37883198D01*
X43381565Y-37978436D01*
X43333946Y-38168912D01*
X43333946Y-38311769D01*
X43381565Y-38502245D01*
X43429184Y-38597483D01*
X43524422Y-38692721D01*
X43667280Y-38740340D01*
X43905375Y-38740340D01*
X42429184Y-37740340D02*
X42905375Y-37740340D01*
X42952994Y-38216531D01*
X42905375Y-38168912D01*
X42810137Y-38121293D01*
X42572041Y-38121293D01*
X42476803Y-38168912D01*
X42429184Y-38216531D01*
X42381565Y-38311769D01*
X42381565Y-38549864D01*
X42429184Y-38645102D01*
X42476803Y-38692721D01*
X42572041Y-38740340D01*
X42810137Y-38740340D01*
X42905375Y-38692721D01*
X42952994Y-38645102D01*
X30743657Y-82156742D02*
X30791276Y-82204361D01*
X30934133Y-82251980D01*
X31029371Y-82251980D01*
X31172228Y-82204361D01*
X31267466Y-82109123D01*
X31315085Y-82013885D01*
X31362704Y-81823409D01*
X31362704Y-81680552D01*
X31315085Y-81490076D01*
X31267466Y-81394838D01*
X31172228Y-81299600D01*
X31029371Y-81251980D01*
X30934133Y-81251980D01*
X30791276Y-81299600D01*
X30743657Y-81347219D01*
X29791276Y-82251980D02*
X30362704Y-82251980D01*
X30076990Y-82251980D02*
X30076990Y-81251980D01*
X30172228Y-81394838D01*
X30267466Y-81490076D01*
X30362704Y-81537695D01*
X28838895Y-82251980D02*
X29410323Y-82251980D01*
X29124609Y-82251980D02*
X29124609Y-81251980D01*
X29219847Y-81394838D01*
X29315085Y-81490076D01*
X29410323Y-81537695D01*
X37672286Y-70942440D02*
X38005620Y-70466250D01*
X38243715Y-70942440D02*
X38243715Y-69942440D01*
X37862762Y-69942440D01*
X37767524Y-69990060D01*
X37719905Y-70037679D01*
X37672286Y-70132917D01*
X37672286Y-70275774D01*
X37719905Y-70371012D01*
X37767524Y-70418631D01*
X37862762Y-70466250D01*
X38243715Y-70466250D01*
X36815143Y-69942440D02*
X37005620Y-69942440D01*
X37100858Y-69990060D01*
X37148477Y-70037679D01*
X37243715Y-70180536D01*
X37291334Y-70371012D01*
X37291334Y-70751964D01*
X37243715Y-70847202D01*
X37196096Y-70894821D01*
X37100858Y-70942440D01*
X36910381Y-70942440D01*
X36815143Y-70894821D01*
X36767524Y-70847202D01*
X36719905Y-70751964D01*
X36719905Y-70513869D01*
X36767524Y-70418631D01*
X36815143Y-70371012D01*
X36910381Y-70323393D01*
X37100858Y-70323393D01*
X37196096Y-70371012D01*
X37243715Y-70418631D01*
X37291334Y-70513869D01*
X29465526Y-70820580D02*
X29798860Y-70344390D01*
X30036955Y-70820580D02*
X30036955Y-69820580D01*
X29656002Y-69820580D01*
X29560764Y-69868200D01*
X29513145Y-69915819D01*
X29465526Y-70011057D01*
X29465526Y-70153914D01*
X29513145Y-70249152D01*
X29560764Y-70296771D01*
X29656002Y-70344390D01*
X30036955Y-70344390D01*
X29132193Y-69820580D02*
X28465526Y-69820580D01*
X28894098Y-70820580D01*
X37866557Y-82592480D02*
X38199890Y-82116290D01*
X38437985Y-82592480D02*
X38437985Y-81592480D01*
X38057033Y-81592480D01*
X37961795Y-81640100D01*
X37914176Y-81687719D01*
X37866557Y-81782957D01*
X37866557Y-81925814D01*
X37914176Y-82021052D01*
X37961795Y-82068671D01*
X38057033Y-82116290D01*
X38437985Y-82116290D01*
X36914176Y-82592480D02*
X37485604Y-82592480D01*
X37199890Y-82592480D02*
X37199890Y-81592480D01*
X37295128Y-81735338D01*
X37390366Y-81830576D01*
X37485604Y-81878195D01*
X35961795Y-82592480D02*
X36533223Y-82592480D01*
X36247509Y-82592480D02*
X36247509Y-81592480D01*
X36342747Y-81735338D01*
X36437985Y-81830576D01*
X36533223Y-81878195D01*
M02*
