G04 #@! TF.GenerationSoftware,KiCad,Pcbnew,5.1.7-a382d34a8~88~ubuntu18.04.1*
G04 #@! TF.CreationDate,2021-09-05T21:22:39+05:30*
G04 #@! TF.ProjectId,Sensor_PCB_v7,53656e73-6f72-45f5-9043-425f76372e6b,rev?*
G04 #@! TF.SameCoordinates,Original*
G04 #@! TF.FileFunction,Soldermask,Bot*
G04 #@! TF.FilePolarity,Negative*
%FSLAX46Y46*%
G04 Gerber Fmt 4.6, Leading zero omitted, Abs format (unit mm)*
G04 Created by KiCad (PCBNEW 5.1.7-a382d34a8~88~ubuntu18.04.1) date 2021-09-05 21:22:39*
%MOMM*%
%LPD*%
G01*
G04 APERTURE LIST*
%ADD10C,3.050000*%
%ADD11C,1.676400*%
%ADD12R,1.300000X0.700000*%
%ADD13C,1.524000*%
%ADD14O,1.300000X2.100000*%
%ADD15O,1.200000X1.400000*%
%ADD16R,1.000000X1.500000*%
%ADD17C,0.100000*%
%ADD18R,1.700000X1.700000*%
%ADD19O,1.700000X1.700000*%
%ADD20R,1.000000X0.230000*%
%ADD21R,0.230000X1.000000*%
%ADD22C,0.900000*%
%ADD23R,1.000000X1.250000*%
%ADD24R,1.250000X1.000000*%
%ADD25R,0.700000X1.300000*%
%ADD26R,1.060000X0.650000*%
%ADD27C,1.500000*%
%ADD28C,2.000000*%
%ADD29R,1.000000X1.600000*%
G04 APERTURE END LIST*
D10*
X57526960Y-34225320D03*
X33526960Y-34225320D03*
X33526960Y-71225320D03*
X57526960Y-71225320D03*
D11*
X35750500Y-40840700D03*
X37655500Y-39570700D03*
X35750500Y-38300700D03*
D12*
X38198200Y-76997600D03*
X38198200Y-78267600D03*
X38198200Y-75727600D03*
X38198200Y-74457600D03*
X32698200Y-76997600D03*
X32698200Y-78267600D03*
X32698200Y-75727600D03*
X32698200Y-74457600D03*
D13*
X27930200Y-59390600D03*
X27940200Y-61930600D03*
D14*
X51677600Y-86741000D03*
X58827600Y-86741000D03*
D15*
X52827600Y-83991000D03*
X57677600Y-83991000D03*
D13*
X27831100Y-41059400D03*
X27841100Y-43599400D03*
X27904800Y-50292300D03*
X27914800Y-52832300D03*
X53083100Y-59237900D03*
X53083100Y-61777900D03*
X53083100Y-64317900D03*
X53083100Y-66857900D03*
D16*
X51418500Y-38069000D03*
X54418500Y-38069000D03*
D17*
G36*
X52448049Y-37309920D02*
G01*
X52454311Y-37311566D01*
X52476613Y-37319000D01*
X53428500Y-37319000D01*
X53438255Y-37319961D01*
X53447634Y-37322806D01*
X53456279Y-37327427D01*
X53463855Y-37333645D01*
X53470073Y-37341221D01*
X53474694Y-37349866D01*
X53477539Y-37359245D01*
X53478500Y-37369000D01*
X53478500Y-39759000D01*
X53928500Y-39759000D01*
X53938255Y-39759961D01*
X53947634Y-39762806D01*
X53956279Y-39767427D01*
X53963855Y-39773645D01*
X53970073Y-39781221D01*
X53974694Y-39789866D01*
X53977539Y-39799245D01*
X53978500Y-39808831D01*
X53988500Y-42758831D01*
X53987572Y-42768588D01*
X53984759Y-42777977D01*
X53980167Y-42786637D01*
X53973975Y-42794235D01*
X53966419Y-42800479D01*
X53957791Y-42805129D01*
X53948421Y-42808006D01*
X53938500Y-42809000D01*
X53428500Y-42809000D01*
X53428500Y-42849000D01*
X52428500Y-42849000D01*
X52428500Y-42809000D01*
X51878500Y-42809000D01*
X51868745Y-42808039D01*
X51859366Y-42805194D01*
X51850721Y-42800573D01*
X51843145Y-42794355D01*
X51836927Y-42786779D01*
X51832306Y-42778134D01*
X51829461Y-42768755D01*
X51828500Y-42759000D01*
X51828500Y-39749000D01*
X51829461Y-39739245D01*
X51832306Y-39729866D01*
X51836927Y-39721221D01*
X51843145Y-39713645D01*
X51850721Y-39707427D01*
X51859366Y-39702806D01*
X51868745Y-39699961D01*
X51878500Y-39699000D01*
X52398290Y-39699000D01*
X52388500Y-37359209D01*
X52389420Y-37349451D01*
X52392226Y-37340059D01*
X52396811Y-37331396D01*
X52402997Y-37323793D01*
X52410548Y-37317543D01*
X52419173Y-37312886D01*
X52428540Y-37310002D01*
X52438291Y-37309000D01*
X52448049Y-37309920D01*
G37*
D18*
X35826700Y-87769700D03*
D19*
X38366700Y-87769700D03*
X40906700Y-87769700D03*
X43446700Y-87769700D03*
X45986700Y-87769700D03*
X48526700Y-87769700D03*
D20*
X48516500Y-60403700D03*
D21*
X47246500Y-66753700D03*
X46738500Y-66753700D03*
X46230500Y-66753700D03*
X45722500Y-66753700D03*
X45214500Y-66753700D03*
X44706500Y-66753700D03*
X44198500Y-66753700D03*
X43690500Y-66753700D03*
X43182500Y-66753700D03*
X42674500Y-66753700D03*
X42166500Y-66753700D03*
X41658500Y-66753700D03*
D20*
X40388500Y-65483700D03*
X40388500Y-64975700D03*
X40388500Y-63959700D03*
X40388500Y-63451700D03*
X40388500Y-62943700D03*
X40388500Y-62435700D03*
X40388500Y-61927700D03*
X40388500Y-61419700D03*
X40388500Y-60911700D03*
X40388500Y-60403700D03*
X40388500Y-59895700D03*
D21*
X42166500Y-58625700D03*
X42674500Y-58625700D03*
X43182500Y-58625700D03*
X43690500Y-58625700D03*
X44198500Y-58625700D03*
X44706500Y-58625700D03*
X45214500Y-58625700D03*
X45722500Y-58625700D03*
X46230500Y-58625700D03*
X46738500Y-58625700D03*
X47246500Y-58625700D03*
D20*
X48516500Y-59895700D03*
X48516500Y-60911700D03*
X48516500Y-61419700D03*
X48516500Y-61927700D03*
X48516500Y-62435700D03*
X48516500Y-62943700D03*
X48516500Y-63451700D03*
X48516500Y-63959700D03*
X48516500Y-64467700D03*
X48516500Y-64975700D03*
X48516500Y-65483700D03*
D21*
X41658500Y-58625700D03*
D20*
X40388500Y-64467700D03*
D22*
X24970700Y-30136000D03*
X24970700Y-27136000D03*
D12*
X26162000Y-73660000D03*
X26162000Y-71760000D03*
D18*
X53743900Y-81026000D03*
D19*
X53743900Y-78486000D03*
X53743900Y-75946000D03*
X53743900Y-73406000D03*
D18*
X30927000Y-87470000D03*
X57411600Y-56649600D03*
D19*
X57411600Y-54109600D03*
X57411600Y-51569600D03*
X57411600Y-49029600D03*
D23*
X45084200Y-69761100D03*
X43084200Y-69761100D03*
D24*
X42227500Y-48947600D03*
X42227500Y-46947600D03*
X42296100Y-50805800D03*
X42296100Y-52805800D03*
X33530500Y-47150800D03*
X33530500Y-49150800D03*
X45102800Y-22521200D03*
X45102800Y-24521200D03*
D23*
X34756600Y-31285180D03*
X32756600Y-31285180D03*
D24*
X40828000Y-24896300D03*
X40828000Y-22896300D03*
D25*
X49230200Y-69824600D03*
X51130200Y-69824600D03*
D12*
X37863800Y-48719800D03*
X37863800Y-46819800D03*
D25*
X28656200Y-20728900D03*
X30556200Y-20728900D03*
X50739100Y-24226500D03*
X48839100Y-24226500D03*
G36*
G01*
X53787934Y-23434548D02*
X53787934Y-23434548D01*
G75*
G02*
X52519985Y-23545479I-689440J578509D01*
G01*
X52519985Y-23545479D01*
G75*
G02*
X52409054Y-22277530I578509J689440D01*
G01*
X52409054Y-22277530D01*
G75*
G02*
X53677003Y-22166599I689440J-578509D01*
G01*
X53677003Y-22166599D01*
G75*
G02*
X53787934Y-23434548I-578509J-689440D01*
G01*
G37*
D17*
G36*
X58257949Y-26010469D02*
G01*
X57100931Y-27389349D01*
X55722051Y-26232331D01*
X56879069Y-24853451D01*
X58257949Y-26010469D01*
G37*
D26*
X34053600Y-24226600D03*
X34053600Y-23276600D03*
X34053600Y-22326600D03*
X36253600Y-22326600D03*
X36253600Y-24226600D03*
D27*
X47170300Y-53345700D03*
X47170300Y-48465700D03*
X36141700Y-54058800D03*
X36141700Y-58938800D03*
D28*
X43075700Y-78940700D03*
X43075700Y-74440700D03*
X49575700Y-78940700D03*
X49575700Y-74440700D03*
D29*
X41573300Y-35864800D03*
X44573300Y-35864800D03*
D23*
X31100800Y-80299600D03*
X29100800Y-80299600D03*
D25*
X36614000Y-72207100D03*
X38514000Y-72207100D03*
X30187900Y-71777900D03*
X28287900Y-71777900D03*
X38173700Y-80490100D03*
X36273700Y-80490100D03*
M02*
