G04 #@! TF.GenerationSoftware,KiCad,Pcbnew,5.1.7-a382d34a8~88~ubuntu18.04.1*
G04 #@! TF.CreationDate,2021-09-05T21:22:39+05:30*
G04 #@! TF.ProjectId,Sensor_PCB_v7,53656e73-6f72-45f5-9043-425f76372e6b,rev?*
G04 #@! TF.SameCoordinates,Original*
G04 #@! TF.FileFunction,Copper,L2,Bot*
G04 #@! TF.FilePolarity,Positive*
%FSLAX46Y46*%
G04 Gerber Fmt 4.6, Leading zero omitted, Abs format (unit mm)*
G04 Created by KiCad (PCBNEW 5.1.7-a382d34a8~88~ubuntu18.04.1) date 2021-09-05 21:22:39*
%MOMM*%
%LPD*%
G01*
G04 APERTURE LIST*
G04 #@! TA.AperFunction,ComponentPad*
%ADD10C,3.050000*%
G04 #@! TD*
G04 #@! TA.AperFunction,ComponentPad*
%ADD11C,1.676400*%
G04 #@! TD*
G04 #@! TA.AperFunction,SMDPad,CuDef*
%ADD12R,1.300000X0.700000*%
G04 #@! TD*
G04 #@! TA.AperFunction,ComponentPad*
%ADD13C,1.524000*%
G04 #@! TD*
G04 #@! TA.AperFunction,ComponentPad*
%ADD14O,1.200000X2.000000*%
G04 #@! TD*
G04 #@! TA.AperFunction,ComponentPad*
%ADD15O,1.100000X1.300000*%
G04 #@! TD*
G04 #@! TA.AperFunction,SMDPad,CuDef*
%ADD16R,1.000000X1.500000*%
G04 #@! TD*
G04 #@! TA.AperFunction,SMDPad,CuDef*
%ADD17C,0.100000*%
G04 #@! TD*
G04 #@! TA.AperFunction,ComponentPad*
%ADD18R,1.700000X1.700000*%
G04 #@! TD*
G04 #@! TA.AperFunction,ComponentPad*
%ADD19O,1.700000X1.700000*%
G04 #@! TD*
G04 #@! TA.AperFunction,SMDPad,CuDef*
%ADD20R,1.000000X0.230000*%
G04 #@! TD*
G04 #@! TA.AperFunction,SMDPad,CuDef*
%ADD21R,0.230000X1.000000*%
G04 #@! TD*
G04 #@! TA.AperFunction,SMDPad,CuDef*
%ADD22R,1.000000X1.250000*%
G04 #@! TD*
G04 #@! TA.AperFunction,SMDPad,CuDef*
%ADD23R,1.250000X1.000000*%
G04 #@! TD*
G04 #@! TA.AperFunction,SMDPad,CuDef*
%ADD24R,0.700000X1.300000*%
G04 #@! TD*
G04 #@! TA.AperFunction,ComponentPad*
%ADD25C,0.100000*%
G04 #@! TD*
G04 #@! TA.AperFunction,SMDPad,CuDef*
%ADD26R,1.060000X0.650000*%
G04 #@! TD*
G04 #@! TA.AperFunction,ComponentPad*
%ADD27C,1.500000*%
G04 #@! TD*
G04 #@! TA.AperFunction,ComponentPad*
%ADD28C,2.000000*%
G04 #@! TD*
G04 #@! TA.AperFunction,SMDPad,CuDef*
%ADD29R,1.000000X1.600000*%
G04 #@! TD*
G04 #@! TA.AperFunction,ViaPad*
%ADD30C,1.000000*%
G04 #@! TD*
G04 #@! TA.AperFunction,Conductor*
%ADD31C,0.200000*%
G04 #@! TD*
G04 #@! TA.AperFunction,Conductor*
%ADD32C,0.254000*%
G04 #@! TD*
G04 #@! TA.AperFunction,Conductor*
%ADD33C,0.100000*%
G04 #@! TD*
G04 APERTURE END LIST*
D10*
X57526960Y-34225320D03*
X33526960Y-34225320D03*
X33526960Y-71225320D03*
X57526960Y-71225320D03*
D11*
X35750500Y-40840700D03*
X37655500Y-39570700D03*
X35750500Y-38300700D03*
D12*
X38198200Y-76997600D03*
X38198200Y-78267600D03*
X38198200Y-75727600D03*
X38198200Y-74457600D03*
X32698200Y-76997600D03*
X32698200Y-78267600D03*
X32698200Y-75727600D03*
X32698200Y-74457600D03*
D13*
X27930200Y-59390600D03*
X27940200Y-61930600D03*
D14*
X51677600Y-86741000D03*
X58827600Y-86741000D03*
D15*
X52827600Y-83991000D03*
X57677600Y-83991000D03*
D13*
X27831100Y-41059400D03*
X27841100Y-43599400D03*
X27904800Y-50292300D03*
X27914800Y-52832300D03*
X53083100Y-59237900D03*
X53083100Y-61777900D03*
X53083100Y-64317900D03*
X53083100Y-66857900D03*
D16*
X51418500Y-38069000D03*
X54418500Y-38069000D03*
G04 #@! TA.AperFunction,SMDPad,CuDef*
D17*
G36*
X52448049Y-37309920D02*
G01*
X52454311Y-37311566D01*
X52476613Y-37319000D01*
X53428500Y-37319000D01*
X53438255Y-37319961D01*
X53447634Y-37322806D01*
X53456279Y-37327427D01*
X53463855Y-37333645D01*
X53470073Y-37341221D01*
X53474694Y-37349866D01*
X53477539Y-37359245D01*
X53478500Y-37369000D01*
X53478500Y-39759000D01*
X53928500Y-39759000D01*
X53938255Y-39759961D01*
X53947634Y-39762806D01*
X53956279Y-39767427D01*
X53963855Y-39773645D01*
X53970073Y-39781221D01*
X53974694Y-39789866D01*
X53977539Y-39799245D01*
X53978500Y-39808831D01*
X53988500Y-42758831D01*
X53987572Y-42768588D01*
X53984759Y-42777977D01*
X53980167Y-42786637D01*
X53973975Y-42794235D01*
X53966419Y-42800479D01*
X53957791Y-42805129D01*
X53948421Y-42808006D01*
X53938500Y-42809000D01*
X53428500Y-42809000D01*
X53428500Y-42849000D01*
X52428500Y-42849000D01*
X52428500Y-42809000D01*
X51878500Y-42809000D01*
X51868745Y-42808039D01*
X51859366Y-42805194D01*
X51850721Y-42800573D01*
X51843145Y-42794355D01*
X51836927Y-42786779D01*
X51832306Y-42778134D01*
X51829461Y-42768755D01*
X51828500Y-42759000D01*
X51828500Y-39749000D01*
X51829461Y-39739245D01*
X51832306Y-39729866D01*
X51836927Y-39721221D01*
X51843145Y-39713645D01*
X51850721Y-39707427D01*
X51859366Y-39702806D01*
X51868745Y-39699961D01*
X51878500Y-39699000D01*
X52398290Y-39699000D01*
X52388500Y-37359209D01*
X52389420Y-37349451D01*
X52392226Y-37340059D01*
X52396811Y-37331396D01*
X52402997Y-37323793D01*
X52410548Y-37317543D01*
X52419173Y-37312886D01*
X52428540Y-37310002D01*
X52438291Y-37309000D01*
X52448049Y-37309920D01*
G37*
G04 #@! TD.AperFunction*
D18*
X35826700Y-87769700D03*
D19*
X38366700Y-87769700D03*
X40906700Y-87769700D03*
X43446700Y-87769700D03*
X45986700Y-87769700D03*
X48526700Y-87769700D03*
D20*
X48516500Y-60403700D03*
D21*
X47246500Y-66753700D03*
X46738500Y-66753700D03*
X46230500Y-66753700D03*
X45722500Y-66753700D03*
X45214500Y-66753700D03*
X44706500Y-66753700D03*
X44198500Y-66753700D03*
X43690500Y-66753700D03*
X43182500Y-66753700D03*
X42674500Y-66753700D03*
X42166500Y-66753700D03*
X41658500Y-66753700D03*
D20*
X40388500Y-65483700D03*
X40388500Y-64975700D03*
X40388500Y-63959700D03*
X40388500Y-63451700D03*
X40388500Y-62943700D03*
X40388500Y-62435700D03*
X40388500Y-61927700D03*
X40388500Y-61419700D03*
X40388500Y-60911700D03*
X40388500Y-60403700D03*
X40388500Y-59895700D03*
D21*
X42166500Y-58625700D03*
X42674500Y-58625700D03*
X43182500Y-58625700D03*
X43690500Y-58625700D03*
X44198500Y-58625700D03*
X44706500Y-58625700D03*
X45214500Y-58625700D03*
X45722500Y-58625700D03*
X46230500Y-58625700D03*
X46738500Y-58625700D03*
X47246500Y-58625700D03*
D20*
X48516500Y-59895700D03*
X48516500Y-60911700D03*
X48516500Y-61419700D03*
X48516500Y-61927700D03*
X48516500Y-62435700D03*
X48516500Y-62943700D03*
X48516500Y-63451700D03*
X48516500Y-63959700D03*
X48516500Y-64467700D03*
X48516500Y-64975700D03*
X48516500Y-65483700D03*
D21*
X41658500Y-58625700D03*
D20*
X40388500Y-64467700D03*
D12*
X26162000Y-73660000D03*
X26162000Y-71760000D03*
D18*
X53743900Y-81026000D03*
D19*
X53743900Y-78486000D03*
X53743900Y-75946000D03*
X53743900Y-73406000D03*
D18*
X30927000Y-87470000D03*
X57411600Y-56649600D03*
D19*
X57411600Y-54109600D03*
X57411600Y-51569600D03*
X57411600Y-49029600D03*
D22*
X45084200Y-69761100D03*
X43084200Y-69761100D03*
D23*
X42227500Y-48947600D03*
X42227500Y-46947600D03*
X42296100Y-50805800D03*
X42296100Y-52805800D03*
X33530500Y-47150800D03*
X33530500Y-49150800D03*
X45102800Y-22521200D03*
X45102800Y-24521200D03*
D22*
X34756600Y-31285180D03*
X32756600Y-31285180D03*
D23*
X40828000Y-24896300D03*
X40828000Y-22896300D03*
D24*
X49230200Y-69824600D03*
X51130200Y-69824600D03*
D12*
X37863800Y-48719800D03*
X37863800Y-46819800D03*
D24*
X28656200Y-20728900D03*
X30556200Y-20728900D03*
X50739100Y-24226500D03*
X48839100Y-24226500D03*
G04 #@! TA.AperFunction,ComponentPad*
G36*
G01*
X53787934Y-23434548D02*
X53787934Y-23434548D01*
G75*
G02*
X52519985Y-23545479I-689440J578509D01*
G01*
X52519985Y-23545479D01*
G75*
G02*
X52409054Y-22277530I578509J689440D01*
G01*
X52409054Y-22277530D01*
G75*
G02*
X53677003Y-22166599I689440J-578509D01*
G01*
X53677003Y-22166599D01*
G75*
G02*
X53787934Y-23434548I-578509J-689440D01*
G01*
G37*
G04 #@! TD.AperFunction*
G04 #@! TA.AperFunction,ComponentPad*
D25*
G36*
X58257949Y-26010469D02*
G01*
X57100931Y-27389349D01*
X55722051Y-26232331D01*
X56879069Y-24853451D01*
X58257949Y-26010469D01*
G37*
G04 #@! TD.AperFunction*
D26*
X34053600Y-24226600D03*
X34053600Y-23276600D03*
X34053600Y-22326600D03*
X36253600Y-22326600D03*
X36253600Y-24226600D03*
D27*
X47170300Y-53345700D03*
X47170300Y-48465700D03*
X36141700Y-54058800D03*
X36141700Y-58938800D03*
D28*
X43075700Y-78940700D03*
X43075700Y-74440700D03*
X49575700Y-78940700D03*
X49575700Y-74440700D03*
D29*
X41573300Y-35864800D03*
X44573300Y-35864800D03*
D22*
X31100800Y-80299600D03*
X29100800Y-80299600D03*
D24*
X36614000Y-72207100D03*
X38514000Y-72207100D03*
X30187900Y-71777900D03*
X28287900Y-71777900D03*
X38173700Y-80490100D03*
X36273700Y-80490100D03*
D30*
X46276600Y-61177200D03*
X45722500Y-68420900D03*
X39527600Y-70564100D03*
X38473800Y-50191200D03*
X45561000Y-65204500D03*
X44462700Y-64605000D03*
X40757300Y-26246200D03*
X33012380Y-79649320D03*
X39829740Y-74531220D03*
X31256900Y-29988100D03*
X32065400Y-37617300D03*
X36838900Y-78900200D03*
X43376200Y-68226000D03*
X40770700Y-32489000D03*
X55712800Y-81054500D03*
X39828300Y-80095900D03*
X41188800Y-68118700D03*
X41999300Y-65191500D03*
X30257900Y-58304300D03*
X32105000Y-66980100D03*
X38448500Y-65006100D03*
X39588200Y-66422600D03*
X32232700Y-38916400D03*
X40588500Y-51406700D03*
X41945900Y-61756600D03*
X46738500Y-72770600D03*
X42380600Y-62973800D03*
X30230400Y-60455400D03*
X40265600Y-56797300D03*
X30759900Y-56452800D03*
X48665400Y-37382900D03*
X44706500Y-59851600D03*
X51544100Y-52365800D03*
X34194900Y-50890000D03*
X30187900Y-74248100D03*
X43690500Y-53609000D03*
X40688000Y-58000300D03*
D31*
X43084200Y-69809200D02*
X44198500Y-68694900D01*
X44198500Y-68694900D02*
X44198500Y-66753700D01*
X43084200Y-69809200D02*
X43084200Y-69857400D01*
X43084200Y-69761100D02*
X43084200Y-69809200D01*
X49230200Y-69824600D02*
X49230200Y-70774900D01*
X43084200Y-70223700D02*
X43084200Y-70686400D01*
X43084200Y-70223700D02*
X43084200Y-69857400D01*
X43075700Y-74440700D02*
X43075700Y-70694900D01*
X43075700Y-70694900D02*
X43084200Y-70686400D01*
X49575700Y-74440700D02*
X49575700Y-71120400D01*
X49575700Y-71120400D02*
X49230200Y-70774900D01*
X46230500Y-66753700D02*
X46230500Y-65666900D01*
X46230500Y-65666900D02*
X46361300Y-65536100D01*
X46361300Y-65536100D02*
X46361300Y-61261900D01*
X46361300Y-61261900D02*
X46276600Y-61177200D01*
X43152800Y-48947600D02*
X46688400Y-48947600D01*
X46688400Y-48947600D02*
X47170300Y-48465700D01*
X42227500Y-48947600D02*
X43152800Y-48947600D01*
X39527600Y-70564100D02*
X39527600Y-67494000D01*
X39527600Y-67494000D02*
X37634500Y-65600900D01*
X37634500Y-65600900D02*
X37634500Y-51030500D01*
X37634500Y-51030500D02*
X38473800Y-50191200D01*
X45722500Y-66753700D02*
X45722500Y-68420900D01*
X47170300Y-53345700D02*
X46630400Y-52805800D01*
X46630400Y-52805800D02*
X42296100Y-52805800D01*
X45214500Y-66753700D02*
X45214500Y-65551000D01*
X45214500Y-65551000D02*
X45561000Y-65204500D01*
X35979100Y-50929600D02*
X35000600Y-49951100D01*
X35000600Y-49951100D02*
X33530500Y-49951100D01*
X36141700Y-54058800D02*
X36141700Y-51092200D01*
X36141700Y-51092200D02*
X35979100Y-50929600D01*
X37863800Y-49044900D02*
X35979100Y-50929600D01*
X37863800Y-48719800D02*
X37863800Y-49044900D01*
X33530500Y-49150800D02*
X33530500Y-49951100D01*
X44706500Y-66753700D02*
X44706500Y-64848800D01*
X44706500Y-64848800D02*
X44462700Y-64605000D01*
X45102800Y-23321500D02*
X44702600Y-23321500D01*
X44702600Y-23321500D02*
X41557600Y-26466500D01*
X41557600Y-26466500D02*
X41557600Y-26577800D01*
X41557600Y-26577800D02*
X39328100Y-28807300D01*
X39328100Y-28807300D02*
X39328100Y-44705200D01*
X39328100Y-44705200D02*
X37863800Y-46169500D01*
X37863800Y-46819800D02*
X37863800Y-47470100D01*
X36141700Y-58938800D02*
X32605100Y-55402200D01*
X32605100Y-55402200D02*
X32605100Y-48448500D01*
X32605100Y-48448500D02*
X32984200Y-48069400D01*
X32984200Y-48069400D02*
X37264500Y-48069400D01*
X37264500Y-48069400D02*
X37863800Y-47470100D01*
X37863800Y-46819800D02*
X37863800Y-46169500D01*
X45102800Y-22521200D02*
X45102800Y-23321500D01*
X40757300Y-26246200D02*
X40828000Y-26175500D01*
X40828000Y-26175500D02*
X40828000Y-24896300D01*
X40828000Y-24896300D02*
X39902700Y-24896300D01*
X36253600Y-24226600D02*
X39233000Y-24226600D01*
X39233000Y-24226600D02*
X39902700Y-24896300D01*
X31100800Y-80299600D02*
X30175400Y-81225000D01*
X30175400Y-81225000D02*
X28417600Y-81225000D01*
X28417600Y-81225000D02*
X28297600Y-81105000D01*
X28297600Y-81105000D02*
X28297600Y-77409300D01*
X28297600Y-77409300D02*
X28392000Y-77314900D01*
X28392000Y-77314900D02*
X24804600Y-73727600D01*
X24804600Y-73727600D02*
X24804600Y-46635900D01*
X24804600Y-46635900D02*
X27841100Y-43599400D01*
X34883900Y-22326600D02*
X34883900Y-24226600D01*
X34468800Y-24226600D02*
X34883900Y-24226600D01*
X34053600Y-24226600D02*
X34468800Y-24226600D01*
X34053600Y-22326600D02*
X34883900Y-22326600D01*
X32362100Y-80299600D02*
X33012380Y-79649320D01*
X31100800Y-80299600D02*
X32362100Y-80299600D01*
X39756120Y-74457600D02*
X39829740Y-74531220D01*
X38198200Y-74457600D02*
X39756120Y-74457600D01*
X26731900Y-42490200D02*
X27841100Y-43599400D01*
X26731900Y-40655300D02*
X26731900Y-42490200D01*
X32377100Y-39974200D02*
X27413000Y-39974200D01*
X34468800Y-30308300D02*
X34756600Y-30596100D01*
X34468800Y-24226600D02*
X34468800Y-30308300D01*
X34756600Y-30596100D02*
X34756600Y-32446700D01*
X34756600Y-32446700D02*
X35529520Y-33219620D01*
X35529520Y-36821780D02*
X32377100Y-39974200D01*
X27413000Y-39974200D02*
X26731900Y-40655300D01*
X35529520Y-33219620D02*
X35529520Y-36821780D01*
X32065400Y-37617300D02*
X31256900Y-36808800D01*
X31256900Y-36808800D02*
X31256900Y-29988100D01*
X37247900Y-78267600D02*
X36838900Y-78676600D01*
X36838900Y-78676600D02*
X36838900Y-78900200D01*
X33648500Y-74457600D02*
X33648500Y-74668200D01*
X33648500Y-74668200D02*
X37247900Y-78267600D01*
X32698200Y-74457600D02*
X33648500Y-74457600D01*
X38198200Y-78267600D02*
X37247900Y-78267600D01*
X28837400Y-52832300D02*
X27914800Y-52832300D01*
X32347600Y-56342500D02*
X28837400Y-52832300D01*
X32347600Y-64820000D02*
X32347600Y-56342500D01*
X37863700Y-70336100D02*
X32347600Y-64820000D01*
X38198200Y-78267600D02*
X40700960Y-78267600D01*
X40700960Y-78267600D02*
X40700960Y-73202800D01*
X40700960Y-73202800D02*
X40655660Y-73157500D01*
X40655660Y-73157500D02*
X38039700Y-73157500D01*
X38039700Y-73157500D02*
X37863700Y-72981500D01*
X37863700Y-72981500D02*
X37863700Y-70336100D01*
X47246500Y-57825400D02*
X49346600Y-57825400D01*
X49346600Y-57825400D02*
X49507400Y-57986200D01*
X49507400Y-57986200D02*
X50170500Y-57986200D01*
X50170500Y-57986200D02*
X50434400Y-57722300D01*
X50434400Y-57722300D02*
X55597500Y-57722300D01*
X55597500Y-57722300D02*
X55597500Y-51704300D01*
X55597500Y-51704300D02*
X57002200Y-50299600D01*
X57002200Y-50299600D02*
X57805800Y-50299600D01*
X57805800Y-50299600D02*
X58596600Y-49508800D01*
X58596600Y-49508800D02*
X58596600Y-44632600D01*
X58596600Y-44632600D02*
X55218900Y-41254900D01*
X55218900Y-41254900D02*
X55218900Y-30931400D01*
X55218900Y-30931400D02*
X48514000Y-24226500D01*
X43182500Y-66753700D02*
X43182500Y-61859900D01*
X43182500Y-61859900D02*
X41218300Y-59895700D01*
X41218300Y-59895700D02*
X40388500Y-59895700D01*
X43376200Y-68226000D02*
X43182500Y-68032300D01*
X43182500Y-68032300D02*
X43182500Y-66753700D01*
X47246500Y-58625700D02*
X47246500Y-57825400D01*
X48514000Y-24226500D02*
X48188800Y-24226500D01*
X48839100Y-24226500D02*
X48514000Y-24226500D01*
X48188800Y-24226500D02*
X48188800Y-25070900D01*
X48188800Y-25070900D02*
X40770700Y-32489000D01*
X48916700Y-65483700D02*
X48516500Y-65483700D01*
X51130200Y-69824600D02*
X51130200Y-67297100D01*
X51130200Y-67297100D02*
X49316800Y-65483700D01*
X51735800Y-84981600D02*
X51735800Y-71380500D01*
X51735800Y-71380500D02*
X51130200Y-70774900D01*
X48916700Y-65483700D02*
X49316800Y-65483700D01*
X51130200Y-69824600D02*
X51130200Y-70774900D01*
X51735800Y-84981600D02*
X49677000Y-87040400D01*
X49677000Y-87040400D02*
X49677000Y-87769700D01*
X53743900Y-81026000D02*
X53743900Y-84451200D01*
X53743900Y-84451200D02*
X53213500Y-84981600D01*
X53213500Y-84981600D02*
X51735800Y-84981600D01*
X48526700Y-87769700D02*
X49677000Y-87769700D01*
X51130200Y-69824600D02*
X51780500Y-69824600D01*
X51780500Y-69824600D02*
X51780500Y-68160500D01*
X51780500Y-68160500D02*
X53083100Y-66857900D01*
X55476140Y-57843660D02*
X55597500Y-57722300D01*
X55476140Y-80817840D02*
X55476140Y-57843660D01*
X55712800Y-81054500D02*
X55476140Y-80817840D01*
X40906700Y-86619400D02*
X47671400Y-79854700D01*
X47671400Y-79854700D02*
X47671400Y-65968600D01*
X47671400Y-65968600D02*
X47076900Y-65374100D01*
X47076900Y-65374100D02*
X47076900Y-60815700D01*
X47076900Y-60815700D02*
X46230500Y-59969300D01*
X46230500Y-59969300D02*
X46230500Y-58625700D01*
X40906700Y-87769700D02*
X40906700Y-86619400D01*
X40443800Y-88934900D02*
X39517000Y-88008100D01*
X51050600Y-58161900D02*
X53509700Y-58161900D01*
X38366700Y-87769700D02*
X39517000Y-87769700D01*
X51176800Y-88934900D02*
X40443800Y-88934900D01*
X49316800Y-59895700D02*
X51050600Y-58161900D01*
X48516500Y-59895700D02*
X49316800Y-59895700D01*
X53509700Y-58161900D02*
X54908400Y-59560600D01*
X54908400Y-59560600D02*
X54908400Y-85203300D01*
X54908400Y-85203300D02*
X51176800Y-88934900D01*
X39517000Y-88008100D02*
X39517000Y-87769700D01*
X51064300Y-24226500D02*
X50113900Y-23276100D01*
X50113900Y-23276100D02*
X48300300Y-23276100D01*
X48300300Y-23276100D02*
X39788200Y-31788200D01*
X39788200Y-31788200D02*
X39788200Y-49447400D01*
X39788200Y-49447400D02*
X39387900Y-49847700D01*
X39387900Y-49847700D02*
X39387900Y-51710300D01*
X39387900Y-51710300D02*
X38264300Y-52833900D01*
X38264300Y-52833900D02*
X38264300Y-61619800D01*
X38264300Y-61619800D02*
X39588200Y-62943700D01*
X40388500Y-62943700D02*
X39588200Y-62943700D01*
X51064300Y-24226500D02*
X51389400Y-24226500D01*
X50739100Y-24226500D02*
X51064300Y-24226500D01*
X56990000Y-26121400D02*
X55990100Y-25282400D01*
X55990100Y-25282400D02*
X52445300Y-25282400D01*
X52445300Y-25282400D02*
X51389400Y-24226500D01*
X42674500Y-67795900D02*
X42674500Y-66753700D01*
X41280080Y-78644120D02*
X41280080Y-76754082D01*
X41280080Y-69190320D02*
X42674500Y-67795900D01*
X41280080Y-75981198D02*
X41280080Y-69190320D01*
X39828300Y-80095900D02*
X41280080Y-78644120D01*
X41277639Y-75983639D02*
X41280080Y-75981198D01*
X41280080Y-76754082D02*
X41277639Y-76751641D01*
X41277639Y-76751641D02*
X41277639Y-75983639D01*
X41188800Y-64975700D02*
X41188800Y-68118700D01*
X40388500Y-64975700D02*
X41188800Y-64975700D01*
X30257900Y-58304300D02*
X29939500Y-57985900D01*
X29939500Y-57985900D02*
X29939500Y-56141400D01*
X29939500Y-56141400D02*
X30428400Y-55652500D01*
X30428400Y-55652500D02*
X31091500Y-55652500D01*
X31091500Y-55652500D02*
X31560200Y-56121200D01*
X31560200Y-56121200D02*
X31560200Y-66435300D01*
X31560200Y-66435300D02*
X32105000Y-66980100D01*
X40388500Y-63959700D02*
X41188800Y-63959700D01*
X41188800Y-63959700D02*
X41188800Y-64381000D01*
X41188800Y-64381000D02*
X41999300Y-65191500D01*
X40388500Y-63451700D02*
X39588200Y-63451700D01*
X38448500Y-65006100D02*
X38448500Y-64591400D01*
X38448500Y-64591400D02*
X39588200Y-63451700D01*
X48516500Y-63959700D02*
X50901300Y-63959700D01*
X50901300Y-63959700D02*
X53083100Y-61777900D01*
X48516500Y-64467700D02*
X51409900Y-64467700D01*
X51409900Y-64467700D02*
X52829700Y-63047900D01*
X52829700Y-63047900D02*
X53380900Y-63047900D01*
X53380900Y-63047900D02*
X54164700Y-62264100D01*
X54164700Y-62264100D02*
X54164700Y-60319500D01*
X54164700Y-60319500D02*
X53083100Y-59237900D01*
X39588200Y-64467700D02*
X39588200Y-66422600D01*
X40388500Y-64467700D02*
X39588200Y-64467700D01*
X30556200Y-21679200D02*
X30456600Y-21778800D01*
X30456600Y-21778800D02*
X30456600Y-37140300D01*
X30456600Y-37140300D02*
X32232700Y-38916400D01*
X30556200Y-20728900D02*
X30556200Y-21679200D01*
X40388500Y-60911700D02*
X39588200Y-60911700D01*
X40588500Y-51406700D02*
X40588500Y-51860700D01*
X40588500Y-51860700D02*
X39064900Y-53384300D01*
X39064900Y-53384300D02*
X39064900Y-60388400D01*
X39064900Y-60388400D02*
X39588200Y-60911700D01*
X40388500Y-61419700D02*
X41609000Y-61419700D01*
X41609000Y-61419700D02*
X41945900Y-61756600D01*
X46738500Y-66753700D02*
X46738500Y-72770600D01*
X41276900Y-50439300D02*
X41276900Y-48310300D01*
X41276900Y-48310300D02*
X41839300Y-47747900D01*
X41839300Y-47747900D02*
X42227500Y-47747900D01*
X41643400Y-50805800D02*
X41276900Y-50439300D01*
X41276900Y-50439300D02*
X40339000Y-50439300D01*
X40339000Y-50439300D02*
X39788200Y-50990100D01*
X39788200Y-50990100D02*
X39788200Y-51876100D01*
X39788200Y-51876100D02*
X38664600Y-52999700D01*
X38664600Y-52999700D02*
X38664600Y-61004100D01*
X38664600Y-61004100D02*
X39588200Y-61927700D01*
X40388500Y-61927700D02*
X39588200Y-61927700D01*
X40352000Y-58884700D02*
X39465200Y-57998000D01*
X39465200Y-57998000D02*
X39465200Y-53661900D01*
X39465200Y-53661900D02*
X41643400Y-51483700D01*
X41643400Y-51483700D02*
X41643400Y-50805800D01*
X43690500Y-65953400D02*
X43662400Y-65925300D01*
X43662400Y-65925300D02*
X43662400Y-61678900D01*
X43662400Y-61678900D02*
X41117000Y-59133500D01*
X41117000Y-59133500D02*
X40600700Y-59133500D01*
X40600700Y-59133500D02*
X40352000Y-58884700D01*
X40352000Y-58884700D02*
X39588100Y-59648600D01*
X39588100Y-59648600D02*
X39588100Y-60145200D01*
X39588100Y-60145200D02*
X39846600Y-60403700D01*
X39846600Y-60403700D02*
X40388500Y-60403700D01*
X44506300Y-44180900D02*
X52347900Y-52022600D01*
X52347900Y-52022600D02*
X52347900Y-52724000D01*
X52347900Y-52724000D02*
X50643200Y-54428700D01*
X50643200Y-54428700D02*
X50076900Y-54428700D01*
X50076900Y-54428700D02*
X46738500Y-57767100D01*
X46738500Y-57767100D02*
X46738500Y-58625700D01*
X47816300Y-63451700D02*
X47477200Y-63112600D01*
X47477200Y-63112600D02*
X47477200Y-60164700D01*
X47477200Y-60164700D02*
X46738500Y-59426000D01*
X43690500Y-66753700D02*
X43690500Y-65953400D01*
X48516500Y-64975700D02*
X52425300Y-64975700D01*
X52425300Y-64975700D02*
X53083100Y-64317900D01*
X44506300Y-44180900D02*
X42539900Y-46147300D01*
X42539900Y-46147300D02*
X42227500Y-46147300D01*
X50618200Y-38069000D02*
X44506300Y-44180900D01*
X46738500Y-58925700D02*
X46738500Y-58625700D01*
X46738500Y-58925700D02*
X46738500Y-59426000D01*
X45084200Y-69761100D02*
X45084200Y-76932200D01*
X45084200Y-76932200D02*
X43075700Y-78940700D01*
X38173700Y-80490100D02*
X38824000Y-80490100D01*
X47816300Y-63451700D02*
X47716200Y-63551800D01*
X47716200Y-63551800D02*
X47716200Y-64975700D01*
X35400800Y-21701200D02*
X33320100Y-21701200D01*
X33320100Y-21701200D02*
X33223200Y-21798100D01*
X40828000Y-22496100D02*
X40033100Y-21701200D01*
X40033100Y-21701200D02*
X35400800Y-21701200D01*
X33530500Y-47150800D02*
X33530500Y-40520700D01*
X33530500Y-40520700D02*
X35750500Y-38300700D01*
X27904800Y-50292300D02*
X26832000Y-51365100D01*
X26832000Y-51365100D02*
X26832000Y-60822400D01*
X26832000Y-60822400D02*
X27940200Y-61930600D01*
X27904800Y-50292300D02*
X31046300Y-47150800D01*
X53743900Y-79061100D02*
X52571600Y-77888800D01*
X52571600Y-77888800D02*
X52571600Y-70939300D01*
X52571600Y-70939300D02*
X54169200Y-69341700D01*
X54169200Y-69341700D02*
X54169200Y-65404000D01*
X54169200Y-65404000D02*
X53083100Y-64317900D01*
X53743900Y-79061100D02*
X53743900Y-79636300D01*
X53743900Y-78486000D02*
X53743900Y-79061100D01*
X38824000Y-80490100D02*
X39230100Y-80896200D01*
X39230100Y-80896200D02*
X41120200Y-80896200D01*
X41120200Y-80896200D02*
X43075700Y-78940700D01*
X42296100Y-50805800D02*
X41643400Y-50805800D01*
X33223200Y-21798100D02*
X33223200Y-23276500D01*
X33223200Y-23276500D02*
X33223300Y-23276600D01*
X29306500Y-20728900D02*
X29306500Y-20485000D01*
X29306500Y-20485000D02*
X30013000Y-19778500D01*
X30013000Y-19778500D02*
X31203600Y-19778500D01*
X31203600Y-19778500D02*
X33223200Y-21798100D01*
X40828000Y-22496100D02*
X40828000Y-22096000D01*
X40828000Y-22896300D02*
X40828000Y-22496100D01*
X35826700Y-81440500D02*
X36810700Y-81440500D01*
X36810700Y-81440500D02*
X37523400Y-80727800D01*
X37523400Y-80727800D02*
X37523400Y-80490100D01*
X35826700Y-81440500D02*
X35826700Y-86619400D01*
X31747900Y-78267600D02*
X32698200Y-78267600D01*
X29901100Y-80299600D02*
X29901100Y-79899500D01*
X29901100Y-79899500D02*
X31533000Y-78267600D01*
X31533000Y-78267600D02*
X31747900Y-78267600D01*
X31747900Y-75727600D02*
X31747900Y-78267600D01*
X32698200Y-75727600D02*
X31747900Y-75727600D01*
X31046300Y-47150800D02*
X33530500Y-47150800D01*
X27831100Y-41059400D02*
X31046300Y-44274600D01*
X31046300Y-44274600D02*
X31046300Y-47150800D01*
X46367800Y-22056500D02*
X46032100Y-21720800D01*
X46032100Y-21720800D02*
X41203200Y-21720800D01*
X41203200Y-21720800D02*
X40828000Y-22096000D01*
X45102800Y-24121000D02*
X46367800Y-22856000D01*
X46367800Y-22856000D02*
X46367800Y-22056500D01*
X52145700Y-22056500D02*
X46367800Y-22056500D01*
X58827600Y-86741000D02*
X58827600Y-85440700D01*
X57677600Y-83991000D02*
X58527900Y-83991000D01*
X58527900Y-83991000D02*
X58527900Y-85141000D01*
X58527900Y-85141000D02*
X58827600Y-85440700D01*
X48516500Y-63451700D02*
X47816300Y-63451700D01*
X42227500Y-46947600D02*
X42227500Y-46147300D01*
X51418500Y-38069000D02*
X50618200Y-38069000D01*
X38086400Y-80490100D02*
X38173700Y-80490100D01*
X38086400Y-80490100D02*
X37523400Y-80490100D01*
X48116400Y-64975700D02*
X48516500Y-64975700D01*
X48116400Y-64975700D02*
X47716200Y-64975700D01*
X52827600Y-83991000D02*
X52827600Y-83040700D01*
X53743900Y-79636300D02*
X52953100Y-79636300D01*
X52953100Y-79636300D02*
X52568900Y-80020500D01*
X52568900Y-80020500D02*
X52568900Y-82782000D01*
X52568900Y-82782000D02*
X52827600Y-83040700D01*
X53098500Y-22856000D02*
X52145700Y-22056500D01*
X45102800Y-24521200D02*
X45102800Y-24121000D01*
X42227500Y-46947600D02*
X42227500Y-47747900D01*
X32756600Y-31521400D02*
X32756600Y-30596100D01*
X28656200Y-20728900D02*
X29306500Y-20728900D01*
X34053600Y-23276600D02*
X33223300Y-23276600D01*
X33223300Y-23276600D02*
X33223300Y-30129400D01*
X33223300Y-30129400D02*
X32756600Y-30596100D01*
X29100800Y-80299600D02*
X29901100Y-80299600D01*
X35826700Y-87769700D02*
X35826700Y-86619400D01*
X34241740Y-79963240D02*
X35719000Y-81440500D01*
X35719000Y-81440500D02*
X35826700Y-81440500D01*
X32698200Y-78267600D02*
X34241740Y-78267600D01*
X34241740Y-78267600D02*
X34241740Y-79963240D01*
X35400800Y-29046100D02*
X35400800Y-21701200D01*
X35979100Y-29624400D02*
X35400800Y-29046100D01*
X35750500Y-38300700D02*
X35979100Y-38072100D01*
X35979100Y-38072100D02*
X35979100Y-29624400D01*
X40388500Y-62435700D02*
X41188800Y-62435700D01*
X42380600Y-62973800D02*
X41726900Y-62973800D01*
X41726900Y-62973800D02*
X41188800Y-62435700D01*
X26162000Y-73660000D02*
X26162000Y-73009700D01*
X26162000Y-73009700D02*
X25918100Y-73009700D01*
X25918100Y-73009700D02*
X25211600Y-72303200D01*
X25211600Y-72303200D02*
X25211600Y-67462900D01*
X25211600Y-67462900D02*
X30230400Y-62444100D01*
X30230400Y-62444100D02*
X30230400Y-60455400D01*
X40265600Y-56797300D02*
X42154400Y-56797300D01*
X42154400Y-56797300D02*
X43182500Y-57825400D01*
X26162000Y-71109700D02*
X31072900Y-66198800D01*
X31072900Y-66198800D02*
X31072900Y-56765800D01*
X31072900Y-56765800D02*
X30759900Y-56452800D01*
X43182500Y-58625700D02*
X43182500Y-57825400D01*
X26162000Y-71760000D02*
X26162000Y-71109700D01*
X44573300Y-35864800D02*
X45373600Y-35864800D01*
X45373600Y-35864800D02*
X47696300Y-38187500D01*
X47696300Y-38187500D02*
X49046900Y-38187500D01*
X49046900Y-38187500D02*
X50237900Y-36996500D01*
X50237900Y-36996500D02*
X52068800Y-36996500D01*
X52068800Y-36996500D02*
X52928500Y-37856200D01*
X52928500Y-37856200D02*
X52928500Y-40099000D01*
X57411600Y-49029600D02*
X57411600Y-47879300D01*
X57411600Y-47879300D02*
X52928500Y-43396200D01*
X52928500Y-43396200D02*
X52928500Y-40099000D01*
X54418500Y-37018700D02*
X53996000Y-36596200D01*
X53996000Y-36596200D02*
X49015700Y-36596200D01*
X49015700Y-36596200D02*
X48665400Y-36946500D01*
X48665400Y-36946500D02*
X48665400Y-37382900D01*
X42373600Y-35864800D02*
X43528700Y-34709700D01*
X43528700Y-34709700D02*
X46428600Y-34709700D01*
X46428600Y-34709700D02*
X48665400Y-36946500D01*
X54418500Y-38069000D02*
X54418500Y-37018700D01*
X41573300Y-35864800D02*
X42373600Y-35864800D01*
X44706500Y-58625700D02*
X44706500Y-59851600D01*
X51544100Y-52365800D02*
X49658100Y-52365800D01*
X49658100Y-52365800D02*
X44198500Y-57825400D01*
X44198500Y-58625700D02*
X44198500Y-57825400D01*
X34194900Y-50890000D02*
X34194900Y-53812100D01*
X34194900Y-53812100D02*
X37205300Y-56822500D01*
X37205300Y-56822500D02*
X37205300Y-67025600D01*
X37205300Y-67025600D02*
X38514000Y-68334300D01*
X38514000Y-68334300D02*
X38514000Y-72207100D01*
X30187900Y-71777900D02*
X30187900Y-74248100D01*
X36614000Y-72207100D02*
X36614000Y-76363700D01*
X36614000Y-76363700D02*
X37247900Y-76997600D01*
X38198200Y-76997600D02*
X37247900Y-76997600D01*
X37247900Y-75727600D02*
X38198200Y-75727600D01*
X37247900Y-73023700D02*
X37247900Y-75727600D01*
X37298100Y-72973500D02*
X37247900Y-73023700D01*
X37298100Y-71453300D02*
X37298100Y-72973500D01*
X34402961Y-69400319D02*
X34408142Y-69405500D01*
X28938200Y-71777900D02*
X28938200Y-71534000D01*
X35250300Y-69405500D02*
X37298100Y-71453300D01*
X28287900Y-71777900D02*
X28938200Y-71777900D01*
X34408142Y-69405500D02*
X35250300Y-69405500D01*
X31066700Y-69405500D02*
X32645778Y-69405500D01*
X28938200Y-71534000D02*
X31066700Y-69405500D01*
X32645778Y-69405500D02*
X32650959Y-69400319D01*
X32650959Y-69400319D02*
X34402961Y-69400319D01*
X36273700Y-80490100D02*
X36273700Y-79539800D01*
X36273700Y-79539800D02*
X33731500Y-76997600D01*
X33731500Y-76997600D02*
X32698200Y-76997600D01*
X43690500Y-58625700D02*
X43690500Y-53609000D01*
X41658500Y-57825400D02*
X40862900Y-57825400D01*
X40862900Y-57825400D02*
X40688000Y-58000300D01*
X41658500Y-58625700D02*
X41658500Y-57825400D01*
D32*
X59867364Y-19583365D02*
X59641424Y-85408012D01*
X59611074Y-85377922D01*
X59408133Y-85243579D01*
X59182882Y-85151409D01*
X59145209Y-85147538D01*
X58954600Y-85272269D01*
X58954600Y-86614000D01*
X58974600Y-86614000D01*
X58974600Y-86868000D01*
X58954600Y-86868000D01*
X58954600Y-88209731D01*
X59145209Y-88334462D01*
X59182882Y-88330591D01*
X59408133Y-88238421D01*
X59611074Y-88104078D01*
X59632242Y-88083091D01*
X59626938Y-89628353D01*
X51513669Y-89588247D01*
X51587120Y-89548987D01*
X51699038Y-89457138D01*
X51722059Y-89429087D01*
X54283146Y-86868000D01*
X57592600Y-86868000D01*
X57592600Y-87268000D01*
X57641107Y-87506496D01*
X57735210Y-87730946D01*
X57871293Y-87932725D01*
X58044126Y-88104078D01*
X58247067Y-88238421D01*
X58472318Y-88330591D01*
X58509991Y-88334462D01*
X58700600Y-88209731D01*
X58700600Y-86868000D01*
X57592600Y-86868000D01*
X54283146Y-86868000D01*
X54937146Y-86214000D01*
X57592600Y-86214000D01*
X57592600Y-86614000D01*
X58700600Y-86614000D01*
X58700600Y-85272269D01*
X58509991Y-85147538D01*
X58472318Y-85151409D01*
X58247067Y-85243579D01*
X58044126Y-85377922D01*
X57871293Y-85549275D01*
X57735210Y-85751054D01*
X57641107Y-85975504D01*
X57592600Y-86214000D01*
X54937146Y-86214000D01*
X55402593Y-85748554D01*
X55430638Y-85725538D01*
X55522487Y-85613620D01*
X55590737Y-85485933D01*
X55632765Y-85347385D01*
X55643400Y-85239405D01*
X55643400Y-85239396D01*
X55646955Y-85203301D01*
X55643400Y-85167206D01*
X55643400Y-84302816D01*
X56512841Y-84302816D01*
X56576545Y-84525979D01*
X56682562Y-84732426D01*
X56826817Y-84914223D01*
X57003767Y-85064385D01*
X57206613Y-85177140D01*
X57367856Y-85234803D01*
X57550600Y-85109361D01*
X57550600Y-84118000D01*
X57804600Y-84118000D01*
X57804600Y-85109361D01*
X57987344Y-85234803D01*
X58148587Y-85177140D01*
X58351433Y-85064385D01*
X58528383Y-84914223D01*
X58672638Y-84732426D01*
X58778655Y-84525979D01*
X58842359Y-84302816D01*
X58702404Y-84118000D01*
X57804600Y-84118000D01*
X57550600Y-84118000D01*
X56652796Y-84118000D01*
X56512841Y-84302816D01*
X55643400Y-84302816D01*
X55643400Y-83679184D01*
X56512841Y-83679184D01*
X56652796Y-83864000D01*
X57550600Y-83864000D01*
X57550600Y-82872639D01*
X57804600Y-82872639D01*
X57804600Y-83864000D01*
X58702404Y-83864000D01*
X58842359Y-83679184D01*
X58778655Y-83456021D01*
X58672638Y-83249574D01*
X58528383Y-83067777D01*
X58351433Y-82917615D01*
X58148587Y-82804860D01*
X57987344Y-82747197D01*
X57804600Y-82872639D01*
X57550600Y-82872639D01*
X57367856Y-82747197D01*
X57206613Y-82804860D01*
X57003767Y-82917615D01*
X56826817Y-83067777D01*
X56682562Y-83249574D01*
X56576545Y-83456021D01*
X56512841Y-83679184D01*
X55643400Y-83679184D01*
X55643400Y-82189500D01*
X55824588Y-82189500D01*
X56043867Y-82145883D01*
X56250424Y-82060324D01*
X56436320Y-81936112D01*
X56594412Y-81778020D01*
X56718624Y-81592124D01*
X56804183Y-81385567D01*
X56847800Y-81166288D01*
X56847800Y-80942712D01*
X56804183Y-80723433D01*
X56718624Y-80516876D01*
X56594412Y-80330980D01*
X56436320Y-80172888D01*
X56250424Y-80048676D01*
X56211140Y-80032404D01*
X56211140Y-72943927D01*
X56503816Y-73139487D01*
X56896911Y-73302312D01*
X57314219Y-73385320D01*
X57739701Y-73385320D01*
X58157009Y-73302312D01*
X58550104Y-73139487D01*
X58903880Y-72903101D01*
X59204741Y-72602240D01*
X59441127Y-72248464D01*
X59603952Y-71855369D01*
X59686960Y-71438061D01*
X59686960Y-71012579D01*
X59603952Y-70595271D01*
X59441127Y-70202176D01*
X59204741Y-69848400D01*
X58903880Y-69547539D01*
X58550104Y-69311153D01*
X58157009Y-69148328D01*
X57739701Y-69065320D01*
X57314219Y-69065320D01*
X56896911Y-69148328D01*
X56503816Y-69311153D01*
X56211140Y-69506713D01*
X56211140Y-58133165D01*
X56211587Y-58132620D01*
X56253197Y-58054773D01*
X56317420Y-58089102D01*
X56437118Y-58125412D01*
X56561600Y-58137672D01*
X58261600Y-58137672D01*
X58386082Y-58125412D01*
X58505780Y-58089102D01*
X58616094Y-58030137D01*
X58712785Y-57950785D01*
X58792137Y-57854094D01*
X58851102Y-57743780D01*
X58887412Y-57624082D01*
X58899672Y-57499600D01*
X58899672Y-55799600D01*
X58887412Y-55675118D01*
X58851102Y-55555420D01*
X58792137Y-55445106D01*
X58712785Y-55348415D01*
X58616094Y-55269063D01*
X58505780Y-55210098D01*
X58433220Y-55188087D01*
X58565075Y-55056232D01*
X58727590Y-54813011D01*
X58839532Y-54542758D01*
X58896600Y-54255860D01*
X58896600Y-53963340D01*
X58839532Y-53676442D01*
X58727590Y-53406189D01*
X58565075Y-53162968D01*
X58358232Y-52956125D01*
X58183840Y-52839600D01*
X58358232Y-52723075D01*
X58565075Y-52516232D01*
X58727590Y-52273011D01*
X58839532Y-52002758D01*
X58896600Y-51715860D01*
X58896600Y-51423340D01*
X58839532Y-51136442D01*
X58727590Y-50866189D01*
X58565075Y-50622968D01*
X58543477Y-50601370D01*
X59090797Y-50054050D01*
X59118837Y-50031038D01*
X59141850Y-50002997D01*
X59141853Y-50002994D01*
X59186848Y-49948167D01*
X59210687Y-49919120D01*
X59278937Y-49791433D01*
X59311951Y-49682600D01*
X59320965Y-49652886D01*
X59335156Y-49508801D01*
X59331600Y-49472696D01*
X59331600Y-44668696D01*
X59335155Y-44632599D01*
X59331600Y-44596502D01*
X59331600Y-44596495D01*
X59320965Y-44488515D01*
X59278937Y-44349967D01*
X59210687Y-44222280D01*
X59118838Y-44110362D01*
X59090793Y-44087346D01*
X55953900Y-40950454D01*
X55953900Y-35706961D01*
X56150040Y-35903101D01*
X56503816Y-36139487D01*
X56896911Y-36302312D01*
X57314219Y-36385320D01*
X57739701Y-36385320D01*
X58157009Y-36302312D01*
X58550104Y-36139487D01*
X58903880Y-35903101D01*
X59204741Y-35602240D01*
X59441127Y-35248464D01*
X59603952Y-34855369D01*
X59686960Y-34438061D01*
X59686960Y-34012579D01*
X59603952Y-33595271D01*
X59441127Y-33202176D01*
X59204741Y-32848400D01*
X58903880Y-32547539D01*
X58550104Y-32311153D01*
X58157009Y-32148328D01*
X57739701Y-32065320D01*
X57314219Y-32065320D01*
X56896911Y-32148328D01*
X56503816Y-32311153D01*
X56150040Y-32547539D01*
X55953900Y-32743679D01*
X55953900Y-30967505D01*
X55957456Y-30931400D01*
X55943265Y-30787315D01*
X55901237Y-30648766D01*
X55832987Y-30521080D01*
X55764153Y-30437206D01*
X55741138Y-30409162D01*
X55713093Y-30386146D01*
X50841518Y-25514572D01*
X51089100Y-25514572D01*
X51213582Y-25502312D01*
X51333280Y-25466002D01*
X51443594Y-25407037D01*
X51491322Y-25367868D01*
X51900046Y-25776593D01*
X51923062Y-25804638D01*
X52034980Y-25896487D01*
X52162667Y-25964737D01*
X52259186Y-25994016D01*
X52301214Y-26006765D01*
X52315432Y-26008165D01*
X52409195Y-26017400D01*
X52409202Y-26017400D01*
X52445299Y-26020955D01*
X52481396Y-26017400D01*
X55123358Y-26017400D01*
X55113511Y-26040459D01*
X55087771Y-26162866D01*
X55086407Y-26287943D01*
X55109470Y-26410882D01*
X55156074Y-26526960D01*
X55224428Y-26631715D01*
X55311906Y-26721122D01*
X56690786Y-27878140D01*
X56794025Y-27948764D01*
X56909059Y-27997889D01*
X57031466Y-28023629D01*
X57156543Y-28024993D01*
X57279482Y-28001930D01*
X57395560Y-27955326D01*
X57500315Y-27886972D01*
X57589722Y-27799494D01*
X58746740Y-26420614D01*
X58817364Y-26317375D01*
X58866489Y-26202341D01*
X58892229Y-26079934D01*
X58893593Y-25954857D01*
X58870530Y-25831918D01*
X58823926Y-25715840D01*
X58755572Y-25611085D01*
X58668094Y-25521678D01*
X57289214Y-24364660D01*
X57185975Y-24294036D01*
X57070941Y-24244911D01*
X56948534Y-24219171D01*
X56823457Y-24217807D01*
X56700518Y-24240870D01*
X56584440Y-24287474D01*
X56479685Y-24355828D01*
X56390278Y-24443306D01*
X56261582Y-24596680D01*
X56241850Y-24590695D01*
X56212181Y-24578025D01*
X56172753Y-24569734D01*
X56134185Y-24558035D01*
X56102071Y-24554872D01*
X56070497Y-24548233D01*
X56030203Y-24547794D01*
X56026205Y-24547400D01*
X55994074Y-24547400D01*
X55925724Y-24546655D01*
X55921753Y-24547400D01*
X52749747Y-24547400D01*
X52444436Y-24242089D01*
X52701098Y-24338711D01*
X52997989Y-24387750D01*
X53298742Y-24377926D01*
X53591800Y-24309617D01*
X53865900Y-24185447D01*
X54006243Y-24093866D01*
X54066630Y-23834189D01*
X53114148Y-23034961D01*
X53101292Y-23050282D01*
X52906717Y-22887013D01*
X52919572Y-22871693D01*
X52882261Y-22840385D01*
X53277416Y-22840385D01*
X54229898Y-23639613D01*
X54475144Y-23535051D01*
X54540964Y-23380937D01*
X54615650Y-23089440D01*
X54632033Y-22788972D01*
X54589482Y-22491082D01*
X54489634Y-22207217D01*
X54336324Y-21948286D01*
X54077038Y-21887432D01*
X53277416Y-22840385D01*
X52882261Y-22840385D01*
X51967090Y-22072465D01*
X51721844Y-22177027D01*
X51656024Y-22331141D01*
X51581338Y-22622638D01*
X51564955Y-22923106D01*
X51605124Y-23204322D01*
X51540285Y-23125315D01*
X51443594Y-23045963D01*
X51333280Y-22986998D01*
X51213582Y-22950688D01*
X51089100Y-22938428D01*
X50815674Y-22938428D01*
X50659158Y-22781912D01*
X50636138Y-22753862D01*
X50524220Y-22662013D01*
X50396533Y-22593763D01*
X50257985Y-22551735D01*
X50150005Y-22541100D01*
X50113900Y-22537544D01*
X50077795Y-22541100D01*
X48336394Y-22541100D01*
X48300299Y-22537545D01*
X48264204Y-22541100D01*
X48264195Y-22541100D01*
X48156215Y-22551735D01*
X48017667Y-22593763D01*
X47889980Y-22662013D01*
X47778062Y-22753862D01*
X47755046Y-22781907D01*
X46363692Y-24173261D01*
X46365872Y-24021200D01*
X46353612Y-23896718D01*
X46317302Y-23777020D01*
X46258337Y-23666706D01*
X46178985Y-23570015D01*
X46119504Y-23521200D01*
X46178985Y-23472385D01*
X46258337Y-23375694D01*
X46317302Y-23265380D01*
X46353612Y-23145682D01*
X46365872Y-23021200D01*
X46365872Y-22021200D01*
X46353612Y-21896718D01*
X46347901Y-21877889D01*
X52130358Y-21877889D01*
X53082840Y-22677117D01*
X53882463Y-21724164D01*
X53777509Y-21479384D01*
X53495890Y-21373367D01*
X53198999Y-21324328D01*
X52898246Y-21334152D01*
X52605188Y-21402461D01*
X52331088Y-21526631D01*
X52190745Y-21618212D01*
X52130358Y-21877889D01*
X46347901Y-21877889D01*
X46317302Y-21777020D01*
X46258337Y-21666706D01*
X46178985Y-21570015D01*
X46082294Y-21490663D01*
X45971980Y-21431698D01*
X45852282Y-21395388D01*
X45727800Y-21383128D01*
X44477800Y-21383128D01*
X44353318Y-21395388D01*
X44233620Y-21431698D01*
X44123306Y-21490663D01*
X44026615Y-21570015D01*
X43947263Y-21666706D01*
X43888298Y-21777020D01*
X43851988Y-21896718D01*
X43839728Y-22021200D01*
X43839728Y-23021200D01*
X43850821Y-23133832D01*
X42091072Y-24893582D01*
X42091072Y-24396300D01*
X42078812Y-24271818D01*
X42042502Y-24152120D01*
X41983537Y-24041806D01*
X41904185Y-23945115D01*
X41844704Y-23896300D01*
X41904185Y-23847485D01*
X41983537Y-23750794D01*
X42042502Y-23640480D01*
X42078812Y-23520782D01*
X42091072Y-23396300D01*
X42088000Y-23182050D01*
X41929250Y-23023300D01*
X40955000Y-23023300D01*
X40955000Y-23043300D01*
X40701000Y-23043300D01*
X40701000Y-23023300D01*
X39726750Y-23023300D01*
X39568000Y-23182050D01*
X39564928Y-23396300D01*
X39577188Y-23520782D01*
X39597601Y-23588076D01*
X39515633Y-23544263D01*
X39377085Y-23502235D01*
X39269105Y-23491600D01*
X39233000Y-23488044D01*
X39196895Y-23491600D01*
X37268585Y-23491600D01*
X37234785Y-23450415D01*
X37138094Y-23371063D01*
X37027780Y-23312098D01*
X36910759Y-23276600D01*
X37027780Y-23241102D01*
X37138094Y-23182137D01*
X37234785Y-23102785D01*
X37314137Y-23006094D01*
X37373102Y-22895780D01*
X37409412Y-22776082D01*
X37421672Y-22651600D01*
X37421672Y-22396300D01*
X39564928Y-22396300D01*
X39568000Y-22610550D01*
X39726750Y-22769300D01*
X40701000Y-22769300D01*
X40701000Y-21920050D01*
X40955000Y-21920050D01*
X40955000Y-22769300D01*
X41929250Y-22769300D01*
X42088000Y-22610550D01*
X42091072Y-22396300D01*
X42078812Y-22271818D01*
X42042502Y-22152120D01*
X41983537Y-22041806D01*
X41904185Y-21945115D01*
X41807494Y-21865763D01*
X41697180Y-21806798D01*
X41577482Y-21770488D01*
X41453000Y-21758228D01*
X41113750Y-21761300D01*
X40955000Y-21920050D01*
X40701000Y-21920050D01*
X40542250Y-21761300D01*
X40203000Y-21758228D01*
X40078518Y-21770488D01*
X39958820Y-21806798D01*
X39848506Y-21865763D01*
X39751815Y-21945115D01*
X39672463Y-22041806D01*
X39613498Y-22152120D01*
X39577188Y-22271818D01*
X39564928Y-22396300D01*
X37421672Y-22396300D01*
X37421672Y-22001600D01*
X37409412Y-21877118D01*
X37373102Y-21757420D01*
X37314137Y-21647106D01*
X37234785Y-21550415D01*
X37138094Y-21471063D01*
X37027780Y-21412098D01*
X36908082Y-21375788D01*
X36783600Y-21363528D01*
X35723600Y-21363528D01*
X35599118Y-21375788D01*
X35479420Y-21412098D01*
X35369106Y-21471063D01*
X35272415Y-21550415D01*
X35193063Y-21647106D01*
X35188350Y-21655924D01*
X35166533Y-21644263D01*
X35093663Y-21622158D01*
X35034785Y-21550415D01*
X34938094Y-21471063D01*
X34827780Y-21412098D01*
X34708082Y-21375788D01*
X34583600Y-21363528D01*
X33523600Y-21363528D01*
X33399118Y-21375788D01*
X33279420Y-21412098D01*
X33169106Y-21471063D01*
X33072415Y-21550415D01*
X32993063Y-21647106D01*
X32934098Y-21757420D01*
X32897788Y-21877118D01*
X32885528Y-22001600D01*
X32885528Y-22651600D01*
X32897788Y-22776082D01*
X32905529Y-22801600D01*
X32897788Y-22827118D01*
X32885528Y-22951600D01*
X32888600Y-22990850D01*
X33047350Y-23149600D01*
X33129459Y-23149600D01*
X33169106Y-23182137D01*
X33279420Y-23241102D01*
X33396441Y-23276600D01*
X33279420Y-23312098D01*
X33169106Y-23371063D01*
X33129459Y-23403600D01*
X33047350Y-23403600D01*
X32888600Y-23562350D01*
X32885528Y-23601600D01*
X32897788Y-23726082D01*
X32905529Y-23751600D01*
X32897788Y-23777118D01*
X32885528Y-23901600D01*
X32885528Y-24551600D01*
X32897788Y-24676082D01*
X32934098Y-24795780D01*
X32993063Y-24906094D01*
X33072415Y-25002785D01*
X33169106Y-25082137D01*
X33279420Y-25141102D01*
X33399118Y-25177412D01*
X33523600Y-25189672D01*
X33733800Y-25189672D01*
X33733801Y-30240696D01*
X33707785Y-30208995D01*
X33611094Y-30129643D01*
X33500780Y-30070678D01*
X33381082Y-30034368D01*
X33256600Y-30022108D01*
X33042350Y-30025180D01*
X32883600Y-30183930D01*
X32883600Y-31158180D01*
X32903600Y-31158180D01*
X32903600Y-31412180D01*
X32883600Y-31412180D01*
X32883600Y-31432180D01*
X32629600Y-31432180D01*
X32629600Y-31412180D01*
X32609600Y-31412180D01*
X32609600Y-31158180D01*
X32629600Y-31158180D01*
X32629600Y-30183930D01*
X32470850Y-30025180D01*
X32391900Y-30024048D01*
X32391900Y-29876312D01*
X32348283Y-29657033D01*
X32262724Y-29450476D01*
X32138512Y-29264580D01*
X31980420Y-29106488D01*
X31794524Y-28982276D01*
X31587967Y-28896717D01*
X31368688Y-28853100D01*
X31191600Y-28853100D01*
X31191600Y-22049646D01*
X31238537Y-21961833D01*
X31253219Y-21913432D01*
X31260694Y-21909437D01*
X31357385Y-21830085D01*
X31436737Y-21733394D01*
X31495702Y-21623080D01*
X31532012Y-21503382D01*
X31544272Y-21378900D01*
X31544272Y-20078900D01*
X31532012Y-19954418D01*
X31495702Y-19834720D01*
X31436737Y-19724406D01*
X31357385Y-19627715D01*
X31293758Y-19575498D01*
X59867364Y-19583365D01*
G04 #@! TA.AperFunction,Conductor*
D33*
G36*
X59867364Y-19583365D02*
G01*
X59641424Y-85408012D01*
X59611074Y-85377922D01*
X59408133Y-85243579D01*
X59182882Y-85151409D01*
X59145209Y-85147538D01*
X58954600Y-85272269D01*
X58954600Y-86614000D01*
X58974600Y-86614000D01*
X58974600Y-86868000D01*
X58954600Y-86868000D01*
X58954600Y-88209731D01*
X59145209Y-88334462D01*
X59182882Y-88330591D01*
X59408133Y-88238421D01*
X59611074Y-88104078D01*
X59632242Y-88083091D01*
X59626938Y-89628353D01*
X51513669Y-89588247D01*
X51587120Y-89548987D01*
X51699038Y-89457138D01*
X51722059Y-89429087D01*
X54283146Y-86868000D01*
X57592600Y-86868000D01*
X57592600Y-87268000D01*
X57641107Y-87506496D01*
X57735210Y-87730946D01*
X57871293Y-87932725D01*
X58044126Y-88104078D01*
X58247067Y-88238421D01*
X58472318Y-88330591D01*
X58509991Y-88334462D01*
X58700600Y-88209731D01*
X58700600Y-86868000D01*
X57592600Y-86868000D01*
X54283146Y-86868000D01*
X54937146Y-86214000D01*
X57592600Y-86214000D01*
X57592600Y-86614000D01*
X58700600Y-86614000D01*
X58700600Y-85272269D01*
X58509991Y-85147538D01*
X58472318Y-85151409D01*
X58247067Y-85243579D01*
X58044126Y-85377922D01*
X57871293Y-85549275D01*
X57735210Y-85751054D01*
X57641107Y-85975504D01*
X57592600Y-86214000D01*
X54937146Y-86214000D01*
X55402593Y-85748554D01*
X55430638Y-85725538D01*
X55522487Y-85613620D01*
X55590737Y-85485933D01*
X55632765Y-85347385D01*
X55643400Y-85239405D01*
X55643400Y-85239396D01*
X55646955Y-85203301D01*
X55643400Y-85167206D01*
X55643400Y-84302816D01*
X56512841Y-84302816D01*
X56576545Y-84525979D01*
X56682562Y-84732426D01*
X56826817Y-84914223D01*
X57003767Y-85064385D01*
X57206613Y-85177140D01*
X57367856Y-85234803D01*
X57550600Y-85109361D01*
X57550600Y-84118000D01*
X57804600Y-84118000D01*
X57804600Y-85109361D01*
X57987344Y-85234803D01*
X58148587Y-85177140D01*
X58351433Y-85064385D01*
X58528383Y-84914223D01*
X58672638Y-84732426D01*
X58778655Y-84525979D01*
X58842359Y-84302816D01*
X58702404Y-84118000D01*
X57804600Y-84118000D01*
X57550600Y-84118000D01*
X56652796Y-84118000D01*
X56512841Y-84302816D01*
X55643400Y-84302816D01*
X55643400Y-83679184D01*
X56512841Y-83679184D01*
X56652796Y-83864000D01*
X57550600Y-83864000D01*
X57550600Y-82872639D01*
X57804600Y-82872639D01*
X57804600Y-83864000D01*
X58702404Y-83864000D01*
X58842359Y-83679184D01*
X58778655Y-83456021D01*
X58672638Y-83249574D01*
X58528383Y-83067777D01*
X58351433Y-82917615D01*
X58148587Y-82804860D01*
X57987344Y-82747197D01*
X57804600Y-82872639D01*
X57550600Y-82872639D01*
X57367856Y-82747197D01*
X57206613Y-82804860D01*
X57003767Y-82917615D01*
X56826817Y-83067777D01*
X56682562Y-83249574D01*
X56576545Y-83456021D01*
X56512841Y-83679184D01*
X55643400Y-83679184D01*
X55643400Y-82189500D01*
X55824588Y-82189500D01*
X56043867Y-82145883D01*
X56250424Y-82060324D01*
X56436320Y-81936112D01*
X56594412Y-81778020D01*
X56718624Y-81592124D01*
X56804183Y-81385567D01*
X56847800Y-81166288D01*
X56847800Y-80942712D01*
X56804183Y-80723433D01*
X56718624Y-80516876D01*
X56594412Y-80330980D01*
X56436320Y-80172888D01*
X56250424Y-80048676D01*
X56211140Y-80032404D01*
X56211140Y-72943927D01*
X56503816Y-73139487D01*
X56896911Y-73302312D01*
X57314219Y-73385320D01*
X57739701Y-73385320D01*
X58157009Y-73302312D01*
X58550104Y-73139487D01*
X58903880Y-72903101D01*
X59204741Y-72602240D01*
X59441127Y-72248464D01*
X59603952Y-71855369D01*
X59686960Y-71438061D01*
X59686960Y-71012579D01*
X59603952Y-70595271D01*
X59441127Y-70202176D01*
X59204741Y-69848400D01*
X58903880Y-69547539D01*
X58550104Y-69311153D01*
X58157009Y-69148328D01*
X57739701Y-69065320D01*
X57314219Y-69065320D01*
X56896911Y-69148328D01*
X56503816Y-69311153D01*
X56211140Y-69506713D01*
X56211140Y-58133165D01*
X56211587Y-58132620D01*
X56253197Y-58054773D01*
X56317420Y-58089102D01*
X56437118Y-58125412D01*
X56561600Y-58137672D01*
X58261600Y-58137672D01*
X58386082Y-58125412D01*
X58505780Y-58089102D01*
X58616094Y-58030137D01*
X58712785Y-57950785D01*
X58792137Y-57854094D01*
X58851102Y-57743780D01*
X58887412Y-57624082D01*
X58899672Y-57499600D01*
X58899672Y-55799600D01*
X58887412Y-55675118D01*
X58851102Y-55555420D01*
X58792137Y-55445106D01*
X58712785Y-55348415D01*
X58616094Y-55269063D01*
X58505780Y-55210098D01*
X58433220Y-55188087D01*
X58565075Y-55056232D01*
X58727590Y-54813011D01*
X58839532Y-54542758D01*
X58896600Y-54255860D01*
X58896600Y-53963340D01*
X58839532Y-53676442D01*
X58727590Y-53406189D01*
X58565075Y-53162968D01*
X58358232Y-52956125D01*
X58183840Y-52839600D01*
X58358232Y-52723075D01*
X58565075Y-52516232D01*
X58727590Y-52273011D01*
X58839532Y-52002758D01*
X58896600Y-51715860D01*
X58896600Y-51423340D01*
X58839532Y-51136442D01*
X58727590Y-50866189D01*
X58565075Y-50622968D01*
X58543477Y-50601370D01*
X59090797Y-50054050D01*
X59118837Y-50031038D01*
X59141850Y-50002997D01*
X59141853Y-50002994D01*
X59186848Y-49948167D01*
X59210687Y-49919120D01*
X59278937Y-49791433D01*
X59311951Y-49682600D01*
X59320965Y-49652886D01*
X59335156Y-49508801D01*
X59331600Y-49472696D01*
X59331600Y-44668696D01*
X59335155Y-44632599D01*
X59331600Y-44596502D01*
X59331600Y-44596495D01*
X59320965Y-44488515D01*
X59278937Y-44349967D01*
X59210687Y-44222280D01*
X59118838Y-44110362D01*
X59090793Y-44087346D01*
X55953900Y-40950454D01*
X55953900Y-35706961D01*
X56150040Y-35903101D01*
X56503816Y-36139487D01*
X56896911Y-36302312D01*
X57314219Y-36385320D01*
X57739701Y-36385320D01*
X58157009Y-36302312D01*
X58550104Y-36139487D01*
X58903880Y-35903101D01*
X59204741Y-35602240D01*
X59441127Y-35248464D01*
X59603952Y-34855369D01*
X59686960Y-34438061D01*
X59686960Y-34012579D01*
X59603952Y-33595271D01*
X59441127Y-33202176D01*
X59204741Y-32848400D01*
X58903880Y-32547539D01*
X58550104Y-32311153D01*
X58157009Y-32148328D01*
X57739701Y-32065320D01*
X57314219Y-32065320D01*
X56896911Y-32148328D01*
X56503816Y-32311153D01*
X56150040Y-32547539D01*
X55953900Y-32743679D01*
X55953900Y-30967505D01*
X55957456Y-30931400D01*
X55943265Y-30787315D01*
X55901237Y-30648766D01*
X55832987Y-30521080D01*
X55764153Y-30437206D01*
X55741138Y-30409162D01*
X55713093Y-30386146D01*
X50841518Y-25514572D01*
X51089100Y-25514572D01*
X51213582Y-25502312D01*
X51333280Y-25466002D01*
X51443594Y-25407037D01*
X51491322Y-25367868D01*
X51900046Y-25776593D01*
X51923062Y-25804638D01*
X52034980Y-25896487D01*
X52162667Y-25964737D01*
X52259186Y-25994016D01*
X52301214Y-26006765D01*
X52315432Y-26008165D01*
X52409195Y-26017400D01*
X52409202Y-26017400D01*
X52445299Y-26020955D01*
X52481396Y-26017400D01*
X55123358Y-26017400D01*
X55113511Y-26040459D01*
X55087771Y-26162866D01*
X55086407Y-26287943D01*
X55109470Y-26410882D01*
X55156074Y-26526960D01*
X55224428Y-26631715D01*
X55311906Y-26721122D01*
X56690786Y-27878140D01*
X56794025Y-27948764D01*
X56909059Y-27997889D01*
X57031466Y-28023629D01*
X57156543Y-28024993D01*
X57279482Y-28001930D01*
X57395560Y-27955326D01*
X57500315Y-27886972D01*
X57589722Y-27799494D01*
X58746740Y-26420614D01*
X58817364Y-26317375D01*
X58866489Y-26202341D01*
X58892229Y-26079934D01*
X58893593Y-25954857D01*
X58870530Y-25831918D01*
X58823926Y-25715840D01*
X58755572Y-25611085D01*
X58668094Y-25521678D01*
X57289214Y-24364660D01*
X57185975Y-24294036D01*
X57070941Y-24244911D01*
X56948534Y-24219171D01*
X56823457Y-24217807D01*
X56700518Y-24240870D01*
X56584440Y-24287474D01*
X56479685Y-24355828D01*
X56390278Y-24443306D01*
X56261582Y-24596680D01*
X56241850Y-24590695D01*
X56212181Y-24578025D01*
X56172753Y-24569734D01*
X56134185Y-24558035D01*
X56102071Y-24554872D01*
X56070497Y-24548233D01*
X56030203Y-24547794D01*
X56026205Y-24547400D01*
X55994074Y-24547400D01*
X55925724Y-24546655D01*
X55921753Y-24547400D01*
X52749747Y-24547400D01*
X52444436Y-24242089D01*
X52701098Y-24338711D01*
X52997989Y-24387750D01*
X53298742Y-24377926D01*
X53591800Y-24309617D01*
X53865900Y-24185447D01*
X54006243Y-24093866D01*
X54066630Y-23834189D01*
X53114148Y-23034961D01*
X53101292Y-23050282D01*
X52906717Y-22887013D01*
X52919572Y-22871693D01*
X52882261Y-22840385D01*
X53277416Y-22840385D01*
X54229898Y-23639613D01*
X54475144Y-23535051D01*
X54540964Y-23380937D01*
X54615650Y-23089440D01*
X54632033Y-22788972D01*
X54589482Y-22491082D01*
X54489634Y-22207217D01*
X54336324Y-21948286D01*
X54077038Y-21887432D01*
X53277416Y-22840385D01*
X52882261Y-22840385D01*
X51967090Y-22072465D01*
X51721844Y-22177027D01*
X51656024Y-22331141D01*
X51581338Y-22622638D01*
X51564955Y-22923106D01*
X51605124Y-23204322D01*
X51540285Y-23125315D01*
X51443594Y-23045963D01*
X51333280Y-22986998D01*
X51213582Y-22950688D01*
X51089100Y-22938428D01*
X50815674Y-22938428D01*
X50659158Y-22781912D01*
X50636138Y-22753862D01*
X50524220Y-22662013D01*
X50396533Y-22593763D01*
X50257985Y-22551735D01*
X50150005Y-22541100D01*
X50113900Y-22537544D01*
X50077795Y-22541100D01*
X48336394Y-22541100D01*
X48300299Y-22537545D01*
X48264204Y-22541100D01*
X48264195Y-22541100D01*
X48156215Y-22551735D01*
X48017667Y-22593763D01*
X47889980Y-22662013D01*
X47778062Y-22753862D01*
X47755046Y-22781907D01*
X46363692Y-24173261D01*
X46365872Y-24021200D01*
X46353612Y-23896718D01*
X46317302Y-23777020D01*
X46258337Y-23666706D01*
X46178985Y-23570015D01*
X46119504Y-23521200D01*
X46178985Y-23472385D01*
X46258337Y-23375694D01*
X46317302Y-23265380D01*
X46353612Y-23145682D01*
X46365872Y-23021200D01*
X46365872Y-22021200D01*
X46353612Y-21896718D01*
X46347901Y-21877889D01*
X52130358Y-21877889D01*
X53082840Y-22677117D01*
X53882463Y-21724164D01*
X53777509Y-21479384D01*
X53495890Y-21373367D01*
X53198999Y-21324328D01*
X52898246Y-21334152D01*
X52605188Y-21402461D01*
X52331088Y-21526631D01*
X52190745Y-21618212D01*
X52130358Y-21877889D01*
X46347901Y-21877889D01*
X46317302Y-21777020D01*
X46258337Y-21666706D01*
X46178985Y-21570015D01*
X46082294Y-21490663D01*
X45971980Y-21431698D01*
X45852282Y-21395388D01*
X45727800Y-21383128D01*
X44477800Y-21383128D01*
X44353318Y-21395388D01*
X44233620Y-21431698D01*
X44123306Y-21490663D01*
X44026615Y-21570015D01*
X43947263Y-21666706D01*
X43888298Y-21777020D01*
X43851988Y-21896718D01*
X43839728Y-22021200D01*
X43839728Y-23021200D01*
X43850821Y-23133832D01*
X42091072Y-24893582D01*
X42091072Y-24396300D01*
X42078812Y-24271818D01*
X42042502Y-24152120D01*
X41983537Y-24041806D01*
X41904185Y-23945115D01*
X41844704Y-23896300D01*
X41904185Y-23847485D01*
X41983537Y-23750794D01*
X42042502Y-23640480D01*
X42078812Y-23520782D01*
X42091072Y-23396300D01*
X42088000Y-23182050D01*
X41929250Y-23023300D01*
X40955000Y-23023300D01*
X40955000Y-23043300D01*
X40701000Y-23043300D01*
X40701000Y-23023300D01*
X39726750Y-23023300D01*
X39568000Y-23182050D01*
X39564928Y-23396300D01*
X39577188Y-23520782D01*
X39597601Y-23588076D01*
X39515633Y-23544263D01*
X39377085Y-23502235D01*
X39269105Y-23491600D01*
X39233000Y-23488044D01*
X39196895Y-23491600D01*
X37268585Y-23491600D01*
X37234785Y-23450415D01*
X37138094Y-23371063D01*
X37027780Y-23312098D01*
X36910759Y-23276600D01*
X37027780Y-23241102D01*
X37138094Y-23182137D01*
X37234785Y-23102785D01*
X37314137Y-23006094D01*
X37373102Y-22895780D01*
X37409412Y-22776082D01*
X37421672Y-22651600D01*
X37421672Y-22396300D01*
X39564928Y-22396300D01*
X39568000Y-22610550D01*
X39726750Y-22769300D01*
X40701000Y-22769300D01*
X40701000Y-21920050D01*
X40955000Y-21920050D01*
X40955000Y-22769300D01*
X41929250Y-22769300D01*
X42088000Y-22610550D01*
X42091072Y-22396300D01*
X42078812Y-22271818D01*
X42042502Y-22152120D01*
X41983537Y-22041806D01*
X41904185Y-21945115D01*
X41807494Y-21865763D01*
X41697180Y-21806798D01*
X41577482Y-21770488D01*
X41453000Y-21758228D01*
X41113750Y-21761300D01*
X40955000Y-21920050D01*
X40701000Y-21920050D01*
X40542250Y-21761300D01*
X40203000Y-21758228D01*
X40078518Y-21770488D01*
X39958820Y-21806798D01*
X39848506Y-21865763D01*
X39751815Y-21945115D01*
X39672463Y-22041806D01*
X39613498Y-22152120D01*
X39577188Y-22271818D01*
X39564928Y-22396300D01*
X37421672Y-22396300D01*
X37421672Y-22001600D01*
X37409412Y-21877118D01*
X37373102Y-21757420D01*
X37314137Y-21647106D01*
X37234785Y-21550415D01*
X37138094Y-21471063D01*
X37027780Y-21412098D01*
X36908082Y-21375788D01*
X36783600Y-21363528D01*
X35723600Y-21363528D01*
X35599118Y-21375788D01*
X35479420Y-21412098D01*
X35369106Y-21471063D01*
X35272415Y-21550415D01*
X35193063Y-21647106D01*
X35188350Y-21655924D01*
X35166533Y-21644263D01*
X35093663Y-21622158D01*
X35034785Y-21550415D01*
X34938094Y-21471063D01*
X34827780Y-21412098D01*
X34708082Y-21375788D01*
X34583600Y-21363528D01*
X33523600Y-21363528D01*
X33399118Y-21375788D01*
X33279420Y-21412098D01*
X33169106Y-21471063D01*
X33072415Y-21550415D01*
X32993063Y-21647106D01*
X32934098Y-21757420D01*
X32897788Y-21877118D01*
X32885528Y-22001600D01*
X32885528Y-22651600D01*
X32897788Y-22776082D01*
X32905529Y-22801600D01*
X32897788Y-22827118D01*
X32885528Y-22951600D01*
X32888600Y-22990850D01*
X33047350Y-23149600D01*
X33129459Y-23149600D01*
X33169106Y-23182137D01*
X33279420Y-23241102D01*
X33396441Y-23276600D01*
X33279420Y-23312098D01*
X33169106Y-23371063D01*
X33129459Y-23403600D01*
X33047350Y-23403600D01*
X32888600Y-23562350D01*
X32885528Y-23601600D01*
X32897788Y-23726082D01*
X32905529Y-23751600D01*
X32897788Y-23777118D01*
X32885528Y-23901600D01*
X32885528Y-24551600D01*
X32897788Y-24676082D01*
X32934098Y-24795780D01*
X32993063Y-24906094D01*
X33072415Y-25002785D01*
X33169106Y-25082137D01*
X33279420Y-25141102D01*
X33399118Y-25177412D01*
X33523600Y-25189672D01*
X33733800Y-25189672D01*
X33733801Y-30240696D01*
X33707785Y-30208995D01*
X33611094Y-30129643D01*
X33500780Y-30070678D01*
X33381082Y-30034368D01*
X33256600Y-30022108D01*
X33042350Y-30025180D01*
X32883600Y-30183930D01*
X32883600Y-31158180D01*
X32903600Y-31158180D01*
X32903600Y-31412180D01*
X32883600Y-31412180D01*
X32883600Y-31432180D01*
X32629600Y-31432180D01*
X32629600Y-31412180D01*
X32609600Y-31412180D01*
X32609600Y-31158180D01*
X32629600Y-31158180D01*
X32629600Y-30183930D01*
X32470850Y-30025180D01*
X32391900Y-30024048D01*
X32391900Y-29876312D01*
X32348283Y-29657033D01*
X32262724Y-29450476D01*
X32138512Y-29264580D01*
X31980420Y-29106488D01*
X31794524Y-28982276D01*
X31587967Y-28896717D01*
X31368688Y-28853100D01*
X31191600Y-28853100D01*
X31191600Y-22049646D01*
X31238537Y-21961833D01*
X31253219Y-21913432D01*
X31260694Y-21909437D01*
X31357385Y-21830085D01*
X31436737Y-21733394D01*
X31495702Y-21623080D01*
X31532012Y-21503382D01*
X31544272Y-21378900D01*
X31544272Y-20078900D01*
X31532012Y-19954418D01*
X31495702Y-19834720D01*
X31436737Y-19724406D01*
X31357385Y-19627715D01*
X31293758Y-19575498D01*
X59867364Y-19583365D01*
G37*
G04 #@! TD.AperFunction*
D32*
X27919774Y-19574569D02*
X27855015Y-19627715D01*
X27775663Y-19724406D01*
X27716698Y-19834720D01*
X27680388Y-19954418D01*
X27668128Y-20078900D01*
X27671200Y-20443150D01*
X27829950Y-20601900D01*
X28529200Y-20601900D01*
X28529200Y-20581900D01*
X28783200Y-20581900D01*
X28783200Y-20601900D01*
X28803200Y-20601900D01*
X28803200Y-20855900D01*
X28783200Y-20855900D01*
X28783200Y-21855150D01*
X28941950Y-22013900D01*
X29006200Y-22016972D01*
X29130682Y-22004712D01*
X29250380Y-21968402D01*
X29360694Y-21909437D01*
X29457385Y-21830085D01*
X29536737Y-21733394D01*
X29595702Y-21623080D01*
X29606200Y-21588473D01*
X29616698Y-21623080D01*
X29675663Y-21733394D01*
X29718742Y-21785886D01*
X29721600Y-21814905D01*
X29721601Y-37104185D01*
X29718044Y-37140300D01*
X29732235Y-37284385D01*
X29769376Y-37406819D01*
X29774264Y-37422933D01*
X29842514Y-37550620D01*
X29934363Y-37662538D01*
X29962408Y-37685554D01*
X31097700Y-38820847D01*
X31097700Y-39028188D01*
X31139673Y-39239200D01*
X27449105Y-39239200D01*
X27413000Y-39235644D01*
X27376895Y-39239200D01*
X27268915Y-39249835D01*
X27130367Y-39291863D01*
X27002680Y-39360113D01*
X26890762Y-39451962D01*
X26867746Y-39480007D01*
X26237708Y-40110046D01*
X26209662Y-40133063D01*
X26117813Y-40244981D01*
X26049563Y-40372668D01*
X26024170Y-40456377D01*
X26007535Y-40511215D01*
X25993344Y-40655300D01*
X25996900Y-40691405D01*
X25996901Y-42454085D01*
X25993344Y-42490200D01*
X26007535Y-42634285D01*
X26031676Y-42713864D01*
X26049564Y-42772833D01*
X26117814Y-42900520D01*
X26209663Y-43012438D01*
X26237708Y-43035454D01*
X26480594Y-43278340D01*
X26444100Y-43461808D01*
X26444100Y-43736992D01*
X26480594Y-43920459D01*
X24310408Y-46090646D01*
X24282363Y-46113662D01*
X24190514Y-46225580D01*
X24138379Y-46323118D01*
X24122264Y-46353267D01*
X24080235Y-46491815D01*
X24066044Y-46635900D01*
X24069601Y-46672015D01*
X24069600Y-73691500D01*
X24066044Y-73727610D01*
X24073577Y-73804084D01*
X24080235Y-73871684D01*
X24080236Y-73871688D01*
X24080237Y-73871695D01*
X24090523Y-73905600D01*
X24122263Y-74010232D01*
X24190513Y-74137919D01*
X24190516Y-74137923D01*
X24190519Y-74137928D01*
X24220918Y-74174968D01*
X24282362Y-74249837D01*
X24310416Y-74272861D01*
X27562601Y-77524956D01*
X27562600Y-81068895D01*
X27559044Y-81105000D01*
X27562600Y-81141104D01*
X27573235Y-81249084D01*
X27615263Y-81387632D01*
X27683513Y-81515319D01*
X27775362Y-81627237D01*
X27803408Y-81650254D01*
X27872341Y-81719187D01*
X27895362Y-81747238D01*
X28007280Y-81839087D01*
X28134967Y-81907337D01*
X28273515Y-81949365D01*
X28381495Y-81960000D01*
X28417600Y-81963556D01*
X28453705Y-81960000D01*
X30139295Y-81960000D01*
X30175400Y-81963556D01*
X30211505Y-81960000D01*
X30319485Y-81949365D01*
X30458033Y-81907337D01*
X30585720Y-81839087D01*
X30697638Y-81747238D01*
X30720658Y-81719188D01*
X30877174Y-81562672D01*
X31600800Y-81562672D01*
X31725282Y-81550412D01*
X31844980Y-81514102D01*
X31955294Y-81455137D01*
X32051985Y-81375785D01*
X32131337Y-81279094D01*
X32190302Y-81168780D01*
X32226612Y-81049082D01*
X32228038Y-81034600D01*
X32325995Y-81034600D01*
X32362100Y-81038156D01*
X32398205Y-81034600D01*
X32506185Y-81023965D01*
X32644733Y-80981937D01*
X32772420Y-80913687D01*
X32884338Y-80821838D01*
X32907358Y-80793788D01*
X32916826Y-80784320D01*
X33124168Y-80784320D01*
X33343447Y-80740703D01*
X33550004Y-80655144D01*
X33735900Y-80530932D01*
X33893992Y-80372840D01*
X34018204Y-80186944D01*
X34103763Y-79980387D01*
X34147380Y-79761108D01*
X34147380Y-79537532D01*
X34103763Y-79318253D01*
X34018204Y-79111696D01*
X33899264Y-78933691D01*
X33937702Y-78861780D01*
X33974012Y-78742082D01*
X33986272Y-78617600D01*
X33983200Y-78553350D01*
X33824452Y-78394602D01*
X33983200Y-78394602D01*
X33983200Y-78288746D01*
X35323998Y-79629545D01*
X35297888Y-79715618D01*
X35285628Y-79840100D01*
X35285628Y-81140100D01*
X35297888Y-81264582D01*
X35334198Y-81384280D01*
X35393163Y-81494594D01*
X35472515Y-81591285D01*
X35569206Y-81670637D01*
X35679520Y-81729602D01*
X35799218Y-81765912D01*
X35923700Y-81778172D01*
X36623700Y-81778172D01*
X36748182Y-81765912D01*
X36867880Y-81729602D01*
X36978194Y-81670637D01*
X37074885Y-81591285D01*
X37154237Y-81494594D01*
X37213202Y-81384280D01*
X37223700Y-81349673D01*
X37234198Y-81384280D01*
X37293163Y-81494594D01*
X37372515Y-81591285D01*
X37469206Y-81670637D01*
X37579520Y-81729602D01*
X37699218Y-81765912D01*
X37823700Y-81778172D01*
X37887950Y-81775100D01*
X38046700Y-81616350D01*
X38046700Y-80617100D01*
X38026700Y-80617100D01*
X38026700Y-80363100D01*
X38046700Y-80363100D01*
X38046700Y-80343100D01*
X38300700Y-80343100D01*
X38300700Y-80363100D01*
X38320700Y-80363100D01*
X38320700Y-80617100D01*
X38300700Y-80617100D01*
X38300700Y-81616350D01*
X38459450Y-81775100D01*
X38523700Y-81778172D01*
X38648182Y-81765912D01*
X38767880Y-81729602D01*
X38878194Y-81670637D01*
X38974885Y-81591285D01*
X39054237Y-81494594D01*
X39113202Y-81384280D01*
X39149512Y-81264582D01*
X39161772Y-81140100D01*
X39160716Y-81014887D01*
X39290676Y-81101724D01*
X39497233Y-81187283D01*
X39716512Y-81230900D01*
X39940088Y-81230900D01*
X40159367Y-81187283D01*
X40365924Y-81101724D01*
X40551820Y-80977512D01*
X40709912Y-80819420D01*
X40834124Y-80633524D01*
X40919683Y-80426967D01*
X40963300Y-80207688D01*
X40963300Y-80076113D01*
X42119892Y-80076113D01*
X42215656Y-80340514D01*
X42505271Y-80481404D01*
X42816808Y-80563084D01*
X43138295Y-80582418D01*
X43457375Y-80538661D01*
X43761788Y-80433495D01*
X43935744Y-80340514D01*
X44031508Y-80076113D01*
X43075700Y-79120305D01*
X42119892Y-80076113D01*
X40963300Y-80076113D01*
X40963300Y-80000346D01*
X41519729Y-79443918D01*
X41582905Y-79626788D01*
X41675886Y-79800744D01*
X41940287Y-79896508D01*
X42896095Y-78940700D01*
X43255305Y-78940700D01*
X44211113Y-79896508D01*
X44475514Y-79800744D01*
X44616404Y-79511129D01*
X44698084Y-79199592D01*
X44717418Y-78878105D01*
X44673661Y-78559025D01*
X44568495Y-78254612D01*
X44475514Y-78080656D01*
X44211113Y-77984892D01*
X43255305Y-78940700D01*
X42896095Y-78940700D01*
X42881953Y-78926558D01*
X43061558Y-78746953D01*
X43075700Y-78761095D01*
X44031508Y-77805287D01*
X43935744Y-77540886D01*
X43646129Y-77399996D01*
X43334592Y-77318316D01*
X43013105Y-77298982D01*
X42694025Y-77342739D01*
X42389612Y-77447905D01*
X42215656Y-77540886D01*
X42119893Y-77805285D01*
X42015080Y-77700472D01*
X42015080Y-76790178D01*
X42018635Y-76754081D01*
X42015080Y-76717984D01*
X42015080Y-76717977D01*
X42012639Y-76693193D01*
X42012639Y-76042087D01*
X42015080Y-76017303D01*
X42015080Y-76017296D01*
X42018635Y-75981199D01*
X42015080Y-75945102D01*
X42015080Y-75692319D01*
X42033448Y-75710687D01*
X42301237Y-75889618D01*
X42598788Y-76012868D01*
X42914667Y-76075700D01*
X43236733Y-76075700D01*
X43552612Y-76012868D01*
X43850163Y-75889618D01*
X44117952Y-75710687D01*
X44345687Y-75482952D01*
X44524618Y-75215163D01*
X44647868Y-74917612D01*
X44710700Y-74601733D01*
X44710700Y-74279667D01*
X44647868Y-73963788D01*
X44524618Y-73666237D01*
X44345687Y-73398448D01*
X44117952Y-73170713D01*
X43850163Y-72991782D01*
X43810700Y-72975436D01*
X43810700Y-70980965D01*
X43828380Y-70975602D01*
X43938694Y-70916637D01*
X44035385Y-70837285D01*
X44084200Y-70777804D01*
X44133015Y-70837285D01*
X44229706Y-70916637D01*
X44340020Y-70975602D01*
X44459718Y-71011912D01*
X44584200Y-71024172D01*
X44798450Y-71021100D01*
X44957200Y-70862350D01*
X44957200Y-69888100D01*
X44937200Y-69888100D01*
X44937200Y-69634100D01*
X44957200Y-69634100D01*
X44957200Y-69614100D01*
X45211200Y-69614100D01*
X45211200Y-69634100D01*
X45231200Y-69634100D01*
X45231200Y-69888100D01*
X45211200Y-69888100D01*
X45211200Y-70862350D01*
X45369950Y-71021100D01*
X45584200Y-71024172D01*
X45708682Y-71011912D01*
X45828380Y-70975602D01*
X45938694Y-70916637D01*
X46003501Y-70863452D01*
X46003501Y-71900467D01*
X45856888Y-72047080D01*
X45732676Y-72232976D01*
X45647117Y-72439533D01*
X45603500Y-72658812D01*
X45603500Y-72882388D01*
X45647117Y-73101667D01*
X45732676Y-73308224D01*
X45856888Y-73494120D01*
X46014980Y-73652212D01*
X46200876Y-73776424D01*
X46407433Y-73861983D01*
X46626712Y-73905600D01*
X46850288Y-73905600D01*
X46936400Y-73888471D01*
X46936400Y-79550253D01*
X40412508Y-86074146D01*
X40384463Y-86097162D01*
X40292614Y-86209080D01*
X40227875Y-86330198D01*
X40224364Y-86336767D01*
X40185228Y-86465778D01*
X39960068Y-86616225D01*
X39753225Y-86823068D01*
X39636700Y-86997460D01*
X39520175Y-86823068D01*
X39313332Y-86616225D01*
X39070111Y-86453710D01*
X38799858Y-86341768D01*
X38512960Y-86284700D01*
X38220440Y-86284700D01*
X37933542Y-86341768D01*
X37663289Y-86453710D01*
X37420068Y-86616225D01*
X37288213Y-86748080D01*
X37266202Y-86675520D01*
X37207237Y-86565206D01*
X37127885Y-86468515D01*
X37031194Y-86389163D01*
X36920880Y-86330198D01*
X36801182Y-86293888D01*
X36676700Y-86281628D01*
X36112450Y-86284700D01*
X35953700Y-86443450D01*
X35953700Y-87642700D01*
X35973700Y-87642700D01*
X35973700Y-87896700D01*
X35953700Y-87896700D01*
X35953700Y-89095950D01*
X36112450Y-89254700D01*
X36676700Y-89257772D01*
X36801182Y-89245512D01*
X36920880Y-89209202D01*
X37031194Y-89150237D01*
X37127885Y-89070885D01*
X37207237Y-88974194D01*
X37266202Y-88863880D01*
X37288213Y-88791320D01*
X37420068Y-88923175D01*
X37663289Y-89085690D01*
X37933542Y-89197632D01*
X38220440Y-89254700D01*
X38512960Y-89254700D01*
X38799858Y-89197632D01*
X39070111Y-89085690D01*
X39313332Y-88923175D01*
X39352980Y-88883527D01*
X39898546Y-89429093D01*
X39921562Y-89457138D01*
X40012040Y-89531392D01*
X23398160Y-89449265D01*
X23390986Y-86620000D01*
X29438928Y-86620000D01*
X29438928Y-88320000D01*
X29451188Y-88444482D01*
X29487498Y-88564180D01*
X29546463Y-88674494D01*
X29625815Y-88771185D01*
X29722506Y-88850537D01*
X29832820Y-88909502D01*
X29952518Y-88945812D01*
X30077000Y-88958072D01*
X31777000Y-88958072D01*
X31901482Y-88945812D01*
X32021180Y-88909502D01*
X32131494Y-88850537D01*
X32228185Y-88771185D01*
X32307537Y-88674494D01*
X32336825Y-88619700D01*
X34338628Y-88619700D01*
X34350888Y-88744182D01*
X34387198Y-88863880D01*
X34446163Y-88974194D01*
X34525515Y-89070885D01*
X34622206Y-89150237D01*
X34732520Y-89209202D01*
X34852218Y-89245512D01*
X34976700Y-89257772D01*
X35540950Y-89254700D01*
X35699700Y-89095950D01*
X35699700Y-87896700D01*
X34500450Y-87896700D01*
X34341700Y-88055450D01*
X34338628Y-88619700D01*
X32336825Y-88619700D01*
X32366502Y-88564180D01*
X32402812Y-88444482D01*
X32415072Y-88320000D01*
X32415072Y-86919700D01*
X34338628Y-86919700D01*
X34341700Y-87483950D01*
X34500450Y-87642700D01*
X35699700Y-87642700D01*
X35699700Y-86443450D01*
X35540950Y-86284700D01*
X34976700Y-86281628D01*
X34852218Y-86293888D01*
X34732520Y-86330198D01*
X34622206Y-86389163D01*
X34525515Y-86468515D01*
X34446163Y-86565206D01*
X34387198Y-86675520D01*
X34350888Y-86795218D01*
X34338628Y-86919700D01*
X32415072Y-86919700D01*
X32415072Y-86620000D01*
X32402812Y-86495518D01*
X32366502Y-86375820D01*
X32307537Y-86265506D01*
X32228185Y-86168815D01*
X32131494Y-86089463D01*
X32021180Y-86030498D01*
X31901482Y-85994188D01*
X31777000Y-85981928D01*
X30077000Y-85981928D01*
X29952518Y-85994188D01*
X29832820Y-86030498D01*
X29722506Y-86089463D01*
X29625815Y-86168815D01*
X29546463Y-86265506D01*
X29487498Y-86375820D01*
X29451188Y-86495518D01*
X29438928Y-86620000D01*
X23390986Y-86620000D01*
X23247485Y-30029137D01*
X23885700Y-30029137D01*
X23885700Y-30242863D01*
X23927396Y-30452483D01*
X24009185Y-30649940D01*
X24127925Y-30827647D01*
X24279053Y-30978775D01*
X24456760Y-31097515D01*
X24654217Y-31179304D01*
X24863837Y-31221000D01*
X25077563Y-31221000D01*
X25287183Y-31179304D01*
X25484640Y-31097515D01*
X25662347Y-30978775D01*
X25813475Y-30827647D01*
X25932215Y-30649940D01*
X26014004Y-30452483D01*
X26055700Y-30242863D01*
X26055700Y-30029137D01*
X26014004Y-29819517D01*
X25932215Y-29622060D01*
X25813475Y-29444353D01*
X25662347Y-29293225D01*
X25484640Y-29174485D01*
X25287183Y-29092696D01*
X25077563Y-29051000D01*
X24863837Y-29051000D01*
X24654217Y-29092696D01*
X24456760Y-29174485D01*
X24279053Y-29293225D01*
X24127925Y-29444353D01*
X24009185Y-29622060D01*
X23927396Y-29819517D01*
X23885700Y-30029137D01*
X23247485Y-30029137D01*
X23239878Y-27029137D01*
X23885700Y-27029137D01*
X23885700Y-27242863D01*
X23927396Y-27452483D01*
X24009185Y-27649940D01*
X24127925Y-27827647D01*
X24279053Y-27978775D01*
X24456760Y-28097515D01*
X24654217Y-28179304D01*
X24863837Y-28221000D01*
X25077563Y-28221000D01*
X25287183Y-28179304D01*
X25484640Y-28097515D01*
X25662347Y-27978775D01*
X25813475Y-27827647D01*
X25932215Y-27649940D01*
X26014004Y-27452483D01*
X26055700Y-27242863D01*
X26055700Y-27029137D01*
X26014004Y-26819517D01*
X25932215Y-26622060D01*
X25813475Y-26444353D01*
X25662347Y-26293225D01*
X25484640Y-26174485D01*
X25287183Y-26092696D01*
X25077563Y-26051000D01*
X24863837Y-26051000D01*
X24654217Y-26092696D01*
X24456760Y-26174485D01*
X24279053Y-26293225D01*
X24127925Y-26444353D01*
X24009185Y-26622060D01*
X23927396Y-26819517D01*
X23885700Y-27029137D01*
X23239878Y-27029137D01*
X23225550Y-21378900D01*
X27668128Y-21378900D01*
X27680388Y-21503382D01*
X27716698Y-21623080D01*
X27775663Y-21733394D01*
X27855015Y-21830085D01*
X27951706Y-21909437D01*
X28062020Y-21968402D01*
X28181718Y-22004712D01*
X28306200Y-22016972D01*
X28370450Y-22013900D01*
X28529200Y-21855150D01*
X28529200Y-20855900D01*
X27829950Y-20855900D01*
X27671200Y-21014650D01*
X27668128Y-21378900D01*
X23225550Y-21378900D01*
X23220971Y-19573275D01*
X27919774Y-19574569D01*
G04 #@! TA.AperFunction,Conductor*
D33*
G36*
X27919774Y-19574569D02*
G01*
X27855015Y-19627715D01*
X27775663Y-19724406D01*
X27716698Y-19834720D01*
X27680388Y-19954418D01*
X27668128Y-20078900D01*
X27671200Y-20443150D01*
X27829950Y-20601900D01*
X28529200Y-20601900D01*
X28529200Y-20581900D01*
X28783200Y-20581900D01*
X28783200Y-20601900D01*
X28803200Y-20601900D01*
X28803200Y-20855900D01*
X28783200Y-20855900D01*
X28783200Y-21855150D01*
X28941950Y-22013900D01*
X29006200Y-22016972D01*
X29130682Y-22004712D01*
X29250380Y-21968402D01*
X29360694Y-21909437D01*
X29457385Y-21830085D01*
X29536737Y-21733394D01*
X29595702Y-21623080D01*
X29606200Y-21588473D01*
X29616698Y-21623080D01*
X29675663Y-21733394D01*
X29718742Y-21785886D01*
X29721600Y-21814905D01*
X29721601Y-37104185D01*
X29718044Y-37140300D01*
X29732235Y-37284385D01*
X29769376Y-37406819D01*
X29774264Y-37422933D01*
X29842514Y-37550620D01*
X29934363Y-37662538D01*
X29962408Y-37685554D01*
X31097700Y-38820847D01*
X31097700Y-39028188D01*
X31139673Y-39239200D01*
X27449105Y-39239200D01*
X27413000Y-39235644D01*
X27376895Y-39239200D01*
X27268915Y-39249835D01*
X27130367Y-39291863D01*
X27002680Y-39360113D01*
X26890762Y-39451962D01*
X26867746Y-39480007D01*
X26237708Y-40110046D01*
X26209662Y-40133063D01*
X26117813Y-40244981D01*
X26049563Y-40372668D01*
X26024170Y-40456377D01*
X26007535Y-40511215D01*
X25993344Y-40655300D01*
X25996900Y-40691405D01*
X25996901Y-42454085D01*
X25993344Y-42490200D01*
X26007535Y-42634285D01*
X26031676Y-42713864D01*
X26049564Y-42772833D01*
X26117814Y-42900520D01*
X26209663Y-43012438D01*
X26237708Y-43035454D01*
X26480594Y-43278340D01*
X26444100Y-43461808D01*
X26444100Y-43736992D01*
X26480594Y-43920459D01*
X24310408Y-46090646D01*
X24282363Y-46113662D01*
X24190514Y-46225580D01*
X24138379Y-46323118D01*
X24122264Y-46353267D01*
X24080235Y-46491815D01*
X24066044Y-46635900D01*
X24069601Y-46672015D01*
X24069600Y-73691500D01*
X24066044Y-73727610D01*
X24073577Y-73804084D01*
X24080235Y-73871684D01*
X24080236Y-73871688D01*
X24080237Y-73871695D01*
X24090523Y-73905600D01*
X24122263Y-74010232D01*
X24190513Y-74137919D01*
X24190516Y-74137923D01*
X24190519Y-74137928D01*
X24220918Y-74174968D01*
X24282362Y-74249837D01*
X24310416Y-74272861D01*
X27562601Y-77524956D01*
X27562600Y-81068895D01*
X27559044Y-81105000D01*
X27562600Y-81141104D01*
X27573235Y-81249084D01*
X27615263Y-81387632D01*
X27683513Y-81515319D01*
X27775362Y-81627237D01*
X27803408Y-81650254D01*
X27872341Y-81719187D01*
X27895362Y-81747238D01*
X28007280Y-81839087D01*
X28134967Y-81907337D01*
X28273515Y-81949365D01*
X28381495Y-81960000D01*
X28417600Y-81963556D01*
X28453705Y-81960000D01*
X30139295Y-81960000D01*
X30175400Y-81963556D01*
X30211505Y-81960000D01*
X30319485Y-81949365D01*
X30458033Y-81907337D01*
X30585720Y-81839087D01*
X30697638Y-81747238D01*
X30720658Y-81719188D01*
X30877174Y-81562672D01*
X31600800Y-81562672D01*
X31725282Y-81550412D01*
X31844980Y-81514102D01*
X31955294Y-81455137D01*
X32051985Y-81375785D01*
X32131337Y-81279094D01*
X32190302Y-81168780D01*
X32226612Y-81049082D01*
X32228038Y-81034600D01*
X32325995Y-81034600D01*
X32362100Y-81038156D01*
X32398205Y-81034600D01*
X32506185Y-81023965D01*
X32644733Y-80981937D01*
X32772420Y-80913687D01*
X32884338Y-80821838D01*
X32907358Y-80793788D01*
X32916826Y-80784320D01*
X33124168Y-80784320D01*
X33343447Y-80740703D01*
X33550004Y-80655144D01*
X33735900Y-80530932D01*
X33893992Y-80372840D01*
X34018204Y-80186944D01*
X34103763Y-79980387D01*
X34147380Y-79761108D01*
X34147380Y-79537532D01*
X34103763Y-79318253D01*
X34018204Y-79111696D01*
X33899264Y-78933691D01*
X33937702Y-78861780D01*
X33974012Y-78742082D01*
X33986272Y-78617600D01*
X33983200Y-78553350D01*
X33824452Y-78394602D01*
X33983200Y-78394602D01*
X33983200Y-78288746D01*
X35323998Y-79629545D01*
X35297888Y-79715618D01*
X35285628Y-79840100D01*
X35285628Y-81140100D01*
X35297888Y-81264582D01*
X35334198Y-81384280D01*
X35393163Y-81494594D01*
X35472515Y-81591285D01*
X35569206Y-81670637D01*
X35679520Y-81729602D01*
X35799218Y-81765912D01*
X35923700Y-81778172D01*
X36623700Y-81778172D01*
X36748182Y-81765912D01*
X36867880Y-81729602D01*
X36978194Y-81670637D01*
X37074885Y-81591285D01*
X37154237Y-81494594D01*
X37213202Y-81384280D01*
X37223700Y-81349673D01*
X37234198Y-81384280D01*
X37293163Y-81494594D01*
X37372515Y-81591285D01*
X37469206Y-81670637D01*
X37579520Y-81729602D01*
X37699218Y-81765912D01*
X37823700Y-81778172D01*
X37887950Y-81775100D01*
X38046700Y-81616350D01*
X38046700Y-80617100D01*
X38026700Y-80617100D01*
X38026700Y-80363100D01*
X38046700Y-80363100D01*
X38046700Y-80343100D01*
X38300700Y-80343100D01*
X38300700Y-80363100D01*
X38320700Y-80363100D01*
X38320700Y-80617100D01*
X38300700Y-80617100D01*
X38300700Y-81616350D01*
X38459450Y-81775100D01*
X38523700Y-81778172D01*
X38648182Y-81765912D01*
X38767880Y-81729602D01*
X38878194Y-81670637D01*
X38974885Y-81591285D01*
X39054237Y-81494594D01*
X39113202Y-81384280D01*
X39149512Y-81264582D01*
X39161772Y-81140100D01*
X39160716Y-81014887D01*
X39290676Y-81101724D01*
X39497233Y-81187283D01*
X39716512Y-81230900D01*
X39940088Y-81230900D01*
X40159367Y-81187283D01*
X40365924Y-81101724D01*
X40551820Y-80977512D01*
X40709912Y-80819420D01*
X40834124Y-80633524D01*
X40919683Y-80426967D01*
X40963300Y-80207688D01*
X40963300Y-80076113D01*
X42119892Y-80076113D01*
X42215656Y-80340514D01*
X42505271Y-80481404D01*
X42816808Y-80563084D01*
X43138295Y-80582418D01*
X43457375Y-80538661D01*
X43761788Y-80433495D01*
X43935744Y-80340514D01*
X44031508Y-80076113D01*
X43075700Y-79120305D01*
X42119892Y-80076113D01*
X40963300Y-80076113D01*
X40963300Y-80000346D01*
X41519729Y-79443918D01*
X41582905Y-79626788D01*
X41675886Y-79800744D01*
X41940287Y-79896508D01*
X42896095Y-78940700D01*
X43255305Y-78940700D01*
X44211113Y-79896508D01*
X44475514Y-79800744D01*
X44616404Y-79511129D01*
X44698084Y-79199592D01*
X44717418Y-78878105D01*
X44673661Y-78559025D01*
X44568495Y-78254612D01*
X44475514Y-78080656D01*
X44211113Y-77984892D01*
X43255305Y-78940700D01*
X42896095Y-78940700D01*
X42881953Y-78926558D01*
X43061558Y-78746953D01*
X43075700Y-78761095D01*
X44031508Y-77805287D01*
X43935744Y-77540886D01*
X43646129Y-77399996D01*
X43334592Y-77318316D01*
X43013105Y-77298982D01*
X42694025Y-77342739D01*
X42389612Y-77447905D01*
X42215656Y-77540886D01*
X42119893Y-77805285D01*
X42015080Y-77700472D01*
X42015080Y-76790178D01*
X42018635Y-76754081D01*
X42015080Y-76717984D01*
X42015080Y-76717977D01*
X42012639Y-76693193D01*
X42012639Y-76042087D01*
X42015080Y-76017303D01*
X42015080Y-76017296D01*
X42018635Y-75981199D01*
X42015080Y-75945102D01*
X42015080Y-75692319D01*
X42033448Y-75710687D01*
X42301237Y-75889618D01*
X42598788Y-76012868D01*
X42914667Y-76075700D01*
X43236733Y-76075700D01*
X43552612Y-76012868D01*
X43850163Y-75889618D01*
X44117952Y-75710687D01*
X44345687Y-75482952D01*
X44524618Y-75215163D01*
X44647868Y-74917612D01*
X44710700Y-74601733D01*
X44710700Y-74279667D01*
X44647868Y-73963788D01*
X44524618Y-73666237D01*
X44345687Y-73398448D01*
X44117952Y-73170713D01*
X43850163Y-72991782D01*
X43810700Y-72975436D01*
X43810700Y-70980965D01*
X43828380Y-70975602D01*
X43938694Y-70916637D01*
X44035385Y-70837285D01*
X44084200Y-70777804D01*
X44133015Y-70837285D01*
X44229706Y-70916637D01*
X44340020Y-70975602D01*
X44459718Y-71011912D01*
X44584200Y-71024172D01*
X44798450Y-71021100D01*
X44957200Y-70862350D01*
X44957200Y-69888100D01*
X44937200Y-69888100D01*
X44937200Y-69634100D01*
X44957200Y-69634100D01*
X44957200Y-69614100D01*
X45211200Y-69614100D01*
X45211200Y-69634100D01*
X45231200Y-69634100D01*
X45231200Y-69888100D01*
X45211200Y-69888100D01*
X45211200Y-70862350D01*
X45369950Y-71021100D01*
X45584200Y-71024172D01*
X45708682Y-71011912D01*
X45828380Y-70975602D01*
X45938694Y-70916637D01*
X46003501Y-70863452D01*
X46003501Y-71900467D01*
X45856888Y-72047080D01*
X45732676Y-72232976D01*
X45647117Y-72439533D01*
X45603500Y-72658812D01*
X45603500Y-72882388D01*
X45647117Y-73101667D01*
X45732676Y-73308224D01*
X45856888Y-73494120D01*
X46014980Y-73652212D01*
X46200876Y-73776424D01*
X46407433Y-73861983D01*
X46626712Y-73905600D01*
X46850288Y-73905600D01*
X46936400Y-73888471D01*
X46936400Y-79550253D01*
X40412508Y-86074146D01*
X40384463Y-86097162D01*
X40292614Y-86209080D01*
X40227875Y-86330198D01*
X40224364Y-86336767D01*
X40185228Y-86465778D01*
X39960068Y-86616225D01*
X39753225Y-86823068D01*
X39636700Y-86997460D01*
X39520175Y-86823068D01*
X39313332Y-86616225D01*
X39070111Y-86453710D01*
X38799858Y-86341768D01*
X38512960Y-86284700D01*
X38220440Y-86284700D01*
X37933542Y-86341768D01*
X37663289Y-86453710D01*
X37420068Y-86616225D01*
X37288213Y-86748080D01*
X37266202Y-86675520D01*
X37207237Y-86565206D01*
X37127885Y-86468515D01*
X37031194Y-86389163D01*
X36920880Y-86330198D01*
X36801182Y-86293888D01*
X36676700Y-86281628D01*
X36112450Y-86284700D01*
X35953700Y-86443450D01*
X35953700Y-87642700D01*
X35973700Y-87642700D01*
X35973700Y-87896700D01*
X35953700Y-87896700D01*
X35953700Y-89095950D01*
X36112450Y-89254700D01*
X36676700Y-89257772D01*
X36801182Y-89245512D01*
X36920880Y-89209202D01*
X37031194Y-89150237D01*
X37127885Y-89070885D01*
X37207237Y-88974194D01*
X37266202Y-88863880D01*
X37288213Y-88791320D01*
X37420068Y-88923175D01*
X37663289Y-89085690D01*
X37933542Y-89197632D01*
X38220440Y-89254700D01*
X38512960Y-89254700D01*
X38799858Y-89197632D01*
X39070111Y-89085690D01*
X39313332Y-88923175D01*
X39352980Y-88883527D01*
X39898546Y-89429093D01*
X39921562Y-89457138D01*
X40012040Y-89531392D01*
X23398160Y-89449265D01*
X23390986Y-86620000D01*
X29438928Y-86620000D01*
X29438928Y-88320000D01*
X29451188Y-88444482D01*
X29487498Y-88564180D01*
X29546463Y-88674494D01*
X29625815Y-88771185D01*
X29722506Y-88850537D01*
X29832820Y-88909502D01*
X29952518Y-88945812D01*
X30077000Y-88958072D01*
X31777000Y-88958072D01*
X31901482Y-88945812D01*
X32021180Y-88909502D01*
X32131494Y-88850537D01*
X32228185Y-88771185D01*
X32307537Y-88674494D01*
X32336825Y-88619700D01*
X34338628Y-88619700D01*
X34350888Y-88744182D01*
X34387198Y-88863880D01*
X34446163Y-88974194D01*
X34525515Y-89070885D01*
X34622206Y-89150237D01*
X34732520Y-89209202D01*
X34852218Y-89245512D01*
X34976700Y-89257772D01*
X35540950Y-89254700D01*
X35699700Y-89095950D01*
X35699700Y-87896700D01*
X34500450Y-87896700D01*
X34341700Y-88055450D01*
X34338628Y-88619700D01*
X32336825Y-88619700D01*
X32366502Y-88564180D01*
X32402812Y-88444482D01*
X32415072Y-88320000D01*
X32415072Y-86919700D01*
X34338628Y-86919700D01*
X34341700Y-87483950D01*
X34500450Y-87642700D01*
X35699700Y-87642700D01*
X35699700Y-86443450D01*
X35540950Y-86284700D01*
X34976700Y-86281628D01*
X34852218Y-86293888D01*
X34732520Y-86330198D01*
X34622206Y-86389163D01*
X34525515Y-86468515D01*
X34446163Y-86565206D01*
X34387198Y-86675520D01*
X34350888Y-86795218D01*
X34338628Y-86919700D01*
X32415072Y-86919700D01*
X32415072Y-86620000D01*
X32402812Y-86495518D01*
X32366502Y-86375820D01*
X32307537Y-86265506D01*
X32228185Y-86168815D01*
X32131494Y-86089463D01*
X32021180Y-86030498D01*
X31901482Y-85994188D01*
X31777000Y-85981928D01*
X30077000Y-85981928D01*
X29952518Y-85994188D01*
X29832820Y-86030498D01*
X29722506Y-86089463D01*
X29625815Y-86168815D01*
X29546463Y-86265506D01*
X29487498Y-86375820D01*
X29451188Y-86495518D01*
X29438928Y-86620000D01*
X23390986Y-86620000D01*
X23247485Y-30029137D01*
X23885700Y-30029137D01*
X23885700Y-30242863D01*
X23927396Y-30452483D01*
X24009185Y-30649940D01*
X24127925Y-30827647D01*
X24279053Y-30978775D01*
X24456760Y-31097515D01*
X24654217Y-31179304D01*
X24863837Y-31221000D01*
X25077563Y-31221000D01*
X25287183Y-31179304D01*
X25484640Y-31097515D01*
X25662347Y-30978775D01*
X25813475Y-30827647D01*
X25932215Y-30649940D01*
X26014004Y-30452483D01*
X26055700Y-30242863D01*
X26055700Y-30029137D01*
X26014004Y-29819517D01*
X25932215Y-29622060D01*
X25813475Y-29444353D01*
X25662347Y-29293225D01*
X25484640Y-29174485D01*
X25287183Y-29092696D01*
X25077563Y-29051000D01*
X24863837Y-29051000D01*
X24654217Y-29092696D01*
X24456760Y-29174485D01*
X24279053Y-29293225D01*
X24127925Y-29444353D01*
X24009185Y-29622060D01*
X23927396Y-29819517D01*
X23885700Y-30029137D01*
X23247485Y-30029137D01*
X23239878Y-27029137D01*
X23885700Y-27029137D01*
X23885700Y-27242863D01*
X23927396Y-27452483D01*
X24009185Y-27649940D01*
X24127925Y-27827647D01*
X24279053Y-27978775D01*
X24456760Y-28097515D01*
X24654217Y-28179304D01*
X24863837Y-28221000D01*
X25077563Y-28221000D01*
X25287183Y-28179304D01*
X25484640Y-28097515D01*
X25662347Y-27978775D01*
X25813475Y-27827647D01*
X25932215Y-27649940D01*
X26014004Y-27452483D01*
X26055700Y-27242863D01*
X26055700Y-27029137D01*
X26014004Y-26819517D01*
X25932215Y-26622060D01*
X25813475Y-26444353D01*
X25662347Y-26293225D01*
X25484640Y-26174485D01*
X25287183Y-26092696D01*
X25077563Y-26051000D01*
X24863837Y-26051000D01*
X24654217Y-26092696D01*
X24456760Y-26174485D01*
X24279053Y-26293225D01*
X24127925Y-26444353D01*
X24009185Y-26622060D01*
X23927396Y-26819517D01*
X23885700Y-27029137D01*
X23239878Y-27029137D01*
X23225550Y-21378900D01*
X27668128Y-21378900D01*
X27680388Y-21503382D01*
X27716698Y-21623080D01*
X27775663Y-21733394D01*
X27855015Y-21830085D01*
X27951706Y-21909437D01*
X28062020Y-21968402D01*
X28181718Y-22004712D01*
X28306200Y-22016972D01*
X28370450Y-22013900D01*
X28529200Y-21855150D01*
X28529200Y-20855900D01*
X27829950Y-20855900D01*
X27671200Y-21014650D01*
X27668128Y-21378900D01*
X23225550Y-21378900D01*
X23220971Y-19573275D01*
X27919774Y-19574569D01*
G37*
G04 #@! TD.AperFunction*
D32*
X51000801Y-78127964D02*
X50975514Y-78080656D01*
X50711113Y-77984892D01*
X49755305Y-78940700D01*
X50711113Y-79896508D01*
X50975514Y-79800744D01*
X51000800Y-79748765D01*
X51000800Y-84677153D01*
X49225962Y-86451992D01*
X48959858Y-86341768D01*
X48672960Y-86284700D01*
X48380440Y-86284700D01*
X48093542Y-86341768D01*
X47823289Y-86453710D01*
X47580068Y-86616225D01*
X47373225Y-86823068D01*
X47256700Y-86997460D01*
X47140175Y-86823068D01*
X46933332Y-86616225D01*
X46690111Y-86453710D01*
X46419858Y-86341768D01*
X46132960Y-86284700D01*
X45840440Y-86284700D01*
X45553542Y-86341768D01*
X45283289Y-86453710D01*
X45040068Y-86616225D01*
X44833225Y-86823068D01*
X44716700Y-86997460D01*
X44600175Y-86823068D01*
X44393332Y-86616225D01*
X44150111Y-86453710D01*
X43879858Y-86341768D01*
X43592960Y-86284700D01*
X43300440Y-86284700D01*
X43013542Y-86341768D01*
X42743289Y-86453710D01*
X42500068Y-86616225D01*
X42293225Y-86823068D01*
X42176700Y-86997460D01*
X42060175Y-86823068D01*
X41901327Y-86664220D01*
X48165598Y-80399949D01*
X48193637Y-80376938D01*
X48216650Y-80348897D01*
X48216653Y-80348894D01*
X48285486Y-80265021D01*
X48285487Y-80265020D01*
X48353737Y-80137333D01*
X48372307Y-80076113D01*
X48619892Y-80076113D01*
X48715656Y-80340514D01*
X49005271Y-80481404D01*
X49316808Y-80563084D01*
X49638295Y-80582418D01*
X49957375Y-80538661D01*
X50261788Y-80433495D01*
X50435744Y-80340514D01*
X50531508Y-80076113D01*
X49575700Y-79120305D01*
X48619892Y-80076113D01*
X48372307Y-80076113D01*
X48395765Y-79998785D01*
X48406400Y-79890805D01*
X48406400Y-79890796D01*
X48407024Y-79884460D01*
X48440287Y-79896508D01*
X49396095Y-78940700D01*
X48440287Y-77984892D01*
X48406400Y-77997166D01*
X48406400Y-77805287D01*
X48619892Y-77805287D01*
X49575700Y-78761095D01*
X50531508Y-77805287D01*
X50435744Y-77540886D01*
X50146129Y-77399996D01*
X49834592Y-77318316D01*
X49513105Y-77298982D01*
X49194025Y-77342739D01*
X48889612Y-77447905D01*
X48715656Y-77540886D01*
X48619892Y-77805287D01*
X48406400Y-77805287D01*
X48406400Y-75583639D01*
X48533448Y-75710687D01*
X48801237Y-75889618D01*
X49098788Y-76012868D01*
X49414667Y-76075700D01*
X49736733Y-76075700D01*
X50052612Y-76012868D01*
X50350163Y-75889618D01*
X50617952Y-75710687D01*
X50845687Y-75482952D01*
X51000801Y-75250808D01*
X51000801Y-78127964D01*
G04 #@! TA.AperFunction,Conductor*
D33*
G36*
X51000801Y-78127964D02*
G01*
X50975514Y-78080656D01*
X50711113Y-77984892D01*
X49755305Y-78940700D01*
X50711113Y-79896508D01*
X50975514Y-79800744D01*
X51000800Y-79748765D01*
X51000800Y-84677153D01*
X49225962Y-86451992D01*
X48959858Y-86341768D01*
X48672960Y-86284700D01*
X48380440Y-86284700D01*
X48093542Y-86341768D01*
X47823289Y-86453710D01*
X47580068Y-86616225D01*
X47373225Y-86823068D01*
X47256700Y-86997460D01*
X47140175Y-86823068D01*
X46933332Y-86616225D01*
X46690111Y-86453710D01*
X46419858Y-86341768D01*
X46132960Y-86284700D01*
X45840440Y-86284700D01*
X45553542Y-86341768D01*
X45283289Y-86453710D01*
X45040068Y-86616225D01*
X44833225Y-86823068D01*
X44716700Y-86997460D01*
X44600175Y-86823068D01*
X44393332Y-86616225D01*
X44150111Y-86453710D01*
X43879858Y-86341768D01*
X43592960Y-86284700D01*
X43300440Y-86284700D01*
X43013542Y-86341768D01*
X42743289Y-86453710D01*
X42500068Y-86616225D01*
X42293225Y-86823068D01*
X42176700Y-86997460D01*
X42060175Y-86823068D01*
X41901327Y-86664220D01*
X48165598Y-80399949D01*
X48193637Y-80376938D01*
X48216650Y-80348897D01*
X48216653Y-80348894D01*
X48285486Y-80265021D01*
X48285487Y-80265020D01*
X48353737Y-80137333D01*
X48372307Y-80076113D01*
X48619892Y-80076113D01*
X48715656Y-80340514D01*
X49005271Y-80481404D01*
X49316808Y-80563084D01*
X49638295Y-80582418D01*
X49957375Y-80538661D01*
X50261788Y-80433495D01*
X50435744Y-80340514D01*
X50531508Y-80076113D01*
X49575700Y-79120305D01*
X48619892Y-80076113D01*
X48372307Y-80076113D01*
X48395765Y-79998785D01*
X48406400Y-79890805D01*
X48406400Y-79890796D01*
X48407024Y-79884460D01*
X48440287Y-79896508D01*
X49396095Y-78940700D01*
X48440287Y-77984892D01*
X48406400Y-77997166D01*
X48406400Y-77805287D01*
X48619892Y-77805287D01*
X49575700Y-78761095D01*
X50531508Y-77805287D01*
X50435744Y-77540886D01*
X50146129Y-77399996D01*
X49834592Y-77318316D01*
X49513105Y-77298982D01*
X49194025Y-77342739D01*
X48889612Y-77447905D01*
X48715656Y-77540886D01*
X48619892Y-77805287D01*
X48406400Y-77805287D01*
X48406400Y-75583639D01*
X48533448Y-75710687D01*
X48801237Y-75889618D01*
X49098788Y-76012868D01*
X49414667Y-76075700D01*
X49736733Y-76075700D01*
X50052612Y-76012868D01*
X50350163Y-75889618D01*
X50617952Y-75710687D01*
X50845687Y-75482952D01*
X51000801Y-75250808D01*
X51000801Y-78127964D01*
G37*
G04 #@! TD.AperFunction*
D32*
X51804600Y-86614000D02*
X51824600Y-86614000D01*
X51824600Y-86868000D01*
X51804600Y-86868000D01*
X51804600Y-86888000D01*
X51550600Y-86888000D01*
X51550600Y-86868000D01*
X51530600Y-86868000D01*
X51530600Y-86614000D01*
X51550600Y-86614000D01*
X51550600Y-86594000D01*
X51804600Y-86594000D01*
X51804600Y-86614000D01*
G04 #@! TA.AperFunction,Conductor*
D33*
G36*
X51804600Y-86614000D02*
G01*
X51824600Y-86614000D01*
X51824600Y-86868000D01*
X51804600Y-86868000D01*
X51804600Y-86888000D01*
X51550600Y-86888000D01*
X51550600Y-86868000D01*
X51530600Y-86868000D01*
X51530600Y-86614000D01*
X51550600Y-86614000D01*
X51550600Y-86594000D01*
X51804600Y-86594000D01*
X51804600Y-86614000D01*
G37*
G04 #@! TD.AperFunction*
D32*
X52539406Y-82406537D02*
X52649720Y-82465502D01*
X52769418Y-82501812D01*
X52893900Y-82514072D01*
X53008900Y-82514072D01*
X53008901Y-82835365D01*
X52954600Y-82872639D01*
X52954600Y-83864000D01*
X52974600Y-83864000D01*
X52974600Y-84118000D01*
X52954600Y-84118000D01*
X52954600Y-84138000D01*
X52700600Y-84138000D01*
X52700600Y-84118000D01*
X52680600Y-84118000D01*
X52680600Y-83864000D01*
X52700600Y-83864000D01*
X52700600Y-82872639D01*
X52517856Y-82747197D01*
X52470800Y-82764025D01*
X52470800Y-82350234D01*
X52539406Y-82406537D01*
G04 #@! TA.AperFunction,Conductor*
D33*
G36*
X52539406Y-82406537D02*
G01*
X52649720Y-82465502D01*
X52769418Y-82501812D01*
X52893900Y-82514072D01*
X53008900Y-82514072D01*
X53008901Y-82835365D01*
X52954600Y-82872639D01*
X52954600Y-83864000D01*
X52974600Y-83864000D01*
X52974600Y-84118000D01*
X52954600Y-84118000D01*
X52954600Y-84138000D01*
X52700600Y-84138000D01*
X52700600Y-84118000D01*
X52680600Y-84118000D01*
X52680600Y-83864000D01*
X52700600Y-83864000D01*
X52700600Y-82872639D01*
X52517856Y-82747197D01*
X52470800Y-82764025D01*
X52470800Y-82350234D01*
X52539406Y-82406537D01*
G37*
G04 #@! TD.AperFunction*
D32*
X31612793Y-70202176D02*
X31449968Y-70595271D01*
X31366960Y-71012579D01*
X31366960Y-71438061D01*
X31449968Y-71855369D01*
X31612793Y-72248464D01*
X31849179Y-72602240D01*
X32150040Y-72903101D01*
X32503816Y-73139487D01*
X32896911Y-73302312D01*
X33314219Y-73385320D01*
X33739701Y-73385320D01*
X34157009Y-73302312D01*
X34550104Y-73139487D01*
X34903880Y-72903101D01*
X35204741Y-72602240D01*
X35441127Y-72248464D01*
X35603952Y-71855369D01*
X35625928Y-71744889D01*
X35625928Y-72857100D01*
X35638188Y-72981582D01*
X35674498Y-73101280D01*
X35733463Y-73211594D01*
X35812815Y-73308285D01*
X35879000Y-73362602D01*
X35879001Y-75859254D01*
X34377192Y-74357446D01*
X34372865Y-74313515D01*
X34330837Y-74174967D01*
X34262587Y-74047280D01*
X34170738Y-73935362D01*
X34058820Y-73843513D01*
X33931133Y-73775263D01*
X33882732Y-73760581D01*
X33878737Y-73753106D01*
X33799385Y-73656415D01*
X33702694Y-73577063D01*
X33592380Y-73518098D01*
X33472682Y-73481788D01*
X33348200Y-73469528D01*
X32048200Y-73469528D01*
X31923718Y-73481788D01*
X31804020Y-73518098D01*
X31693706Y-73577063D01*
X31597015Y-73656415D01*
X31517663Y-73753106D01*
X31458698Y-73863420D01*
X31422388Y-73983118D01*
X31410128Y-74107600D01*
X31410128Y-74807600D01*
X31422388Y-74932082D01*
X31458698Y-75051780D01*
X31480517Y-75092600D01*
X31458698Y-75133420D01*
X31422388Y-75253118D01*
X31410128Y-75377600D01*
X31413200Y-75441850D01*
X31571950Y-75600600D01*
X32571200Y-75600600D01*
X32571200Y-75580600D01*
X32825200Y-75580600D01*
X32825200Y-75600600D01*
X32845200Y-75600600D01*
X32845200Y-75854600D01*
X32825200Y-75854600D01*
X32825200Y-75874600D01*
X32571200Y-75874600D01*
X32571200Y-75854600D01*
X31571950Y-75854600D01*
X31413200Y-76013350D01*
X31410128Y-76077600D01*
X31422388Y-76202082D01*
X31458698Y-76321780D01*
X31480517Y-76362600D01*
X31458698Y-76403420D01*
X31422388Y-76523118D01*
X31410128Y-76647600D01*
X31410128Y-77347600D01*
X31422388Y-77472082D01*
X31458698Y-77591780D01*
X31480517Y-77632600D01*
X31458698Y-77673420D01*
X31422388Y-77793118D01*
X31410128Y-77917600D01*
X31413200Y-77981850D01*
X31571950Y-78140600D01*
X32571200Y-78140600D01*
X32571200Y-78120600D01*
X32825200Y-78120600D01*
X32825200Y-78140600D01*
X32845200Y-78140600D01*
X32845200Y-78394600D01*
X32825200Y-78394600D01*
X32825200Y-78414600D01*
X32571200Y-78414600D01*
X32571200Y-78394600D01*
X31571950Y-78394600D01*
X31413200Y-78553350D01*
X31410128Y-78617600D01*
X31422388Y-78742082D01*
X31458698Y-78861780D01*
X31517663Y-78972094D01*
X31570542Y-79036528D01*
X30600800Y-79036528D01*
X30476318Y-79048788D01*
X30356620Y-79085098D01*
X30246306Y-79144063D01*
X30149615Y-79223415D01*
X30100800Y-79282896D01*
X30051985Y-79223415D01*
X29955294Y-79144063D01*
X29844980Y-79085098D01*
X29725282Y-79048788D01*
X29600800Y-79036528D01*
X29386550Y-79039600D01*
X29227800Y-79198350D01*
X29227800Y-80172600D01*
X29247800Y-80172600D01*
X29247800Y-80426600D01*
X29227800Y-80426600D01*
X29227800Y-80446600D01*
X29032600Y-80446600D01*
X29032600Y-77675616D01*
X29033774Y-77673420D01*
X29074337Y-77597533D01*
X29116365Y-77458984D01*
X29116365Y-77458979D01*
X29116367Y-77458974D01*
X29124814Y-77373195D01*
X29130556Y-77314900D01*
X29130555Y-77314895D01*
X29130556Y-77314889D01*
X29122868Y-77236838D01*
X29116365Y-77170815D01*
X29116364Y-77170811D01*
X29116363Y-77170804D01*
X29094724Y-77099475D01*
X29074337Y-77032267D01*
X29006087Y-76904580D01*
X29006084Y-76904576D01*
X29006081Y-76904571D01*
X28958484Y-76846575D01*
X28914238Y-76792662D01*
X28886190Y-76769644D01*
X26764558Y-74648072D01*
X26812000Y-74648072D01*
X26936482Y-74635812D01*
X27056180Y-74599502D01*
X27166494Y-74540537D01*
X27263185Y-74461185D01*
X27342537Y-74364494D01*
X27401502Y-74254180D01*
X27437812Y-74134482D01*
X27450072Y-74010000D01*
X27450072Y-73310000D01*
X27437812Y-73185518D01*
X27401502Y-73065820D01*
X27342537Y-72955506D01*
X27263185Y-72858815D01*
X27166494Y-72779463D01*
X27056180Y-72720498D01*
X27021573Y-72710000D01*
X27056180Y-72699502D01*
X27166494Y-72640537D01*
X27263185Y-72561185D01*
X27307622Y-72507038D01*
X27312088Y-72552382D01*
X27348398Y-72672080D01*
X27407363Y-72782394D01*
X27486715Y-72879085D01*
X27583406Y-72958437D01*
X27693720Y-73017402D01*
X27813418Y-73053712D01*
X27937900Y-73065972D01*
X28637900Y-73065972D01*
X28762382Y-73053712D01*
X28882080Y-73017402D01*
X28992394Y-72958437D01*
X29089085Y-72879085D01*
X29168437Y-72782394D01*
X29227402Y-72672080D01*
X29237900Y-72637473D01*
X29248398Y-72672080D01*
X29307363Y-72782394D01*
X29386715Y-72879085D01*
X29452900Y-72933402D01*
X29452901Y-73377967D01*
X29306288Y-73524580D01*
X29182076Y-73710476D01*
X29096517Y-73917033D01*
X29052900Y-74136312D01*
X29052900Y-74359888D01*
X29096517Y-74579167D01*
X29182076Y-74785724D01*
X29306288Y-74971620D01*
X29464380Y-75129712D01*
X29650276Y-75253924D01*
X29856833Y-75339483D01*
X30076112Y-75383100D01*
X30299688Y-75383100D01*
X30518967Y-75339483D01*
X30725524Y-75253924D01*
X30911420Y-75129712D01*
X31069512Y-74971620D01*
X31193724Y-74785724D01*
X31279283Y-74579167D01*
X31322900Y-74359888D01*
X31322900Y-74136312D01*
X31279283Y-73917033D01*
X31193724Y-73710476D01*
X31069512Y-73524580D01*
X30922900Y-73377968D01*
X30922900Y-72933401D01*
X30989085Y-72879085D01*
X31068437Y-72782394D01*
X31127402Y-72672080D01*
X31163712Y-72552382D01*
X31175972Y-72427900D01*
X31175972Y-71127900D01*
X31163712Y-71003418D01*
X31127402Y-70883720D01*
X31068437Y-70773406D01*
X30989085Y-70676715D01*
X30904417Y-70607230D01*
X31371147Y-70140500D01*
X31654004Y-70140500D01*
X31612793Y-70202176D01*
G04 #@! TA.AperFunction,Conductor*
D33*
G36*
X31612793Y-70202176D02*
G01*
X31449968Y-70595271D01*
X31366960Y-71012579D01*
X31366960Y-71438061D01*
X31449968Y-71855369D01*
X31612793Y-72248464D01*
X31849179Y-72602240D01*
X32150040Y-72903101D01*
X32503816Y-73139487D01*
X32896911Y-73302312D01*
X33314219Y-73385320D01*
X33739701Y-73385320D01*
X34157009Y-73302312D01*
X34550104Y-73139487D01*
X34903880Y-72903101D01*
X35204741Y-72602240D01*
X35441127Y-72248464D01*
X35603952Y-71855369D01*
X35625928Y-71744889D01*
X35625928Y-72857100D01*
X35638188Y-72981582D01*
X35674498Y-73101280D01*
X35733463Y-73211594D01*
X35812815Y-73308285D01*
X35879000Y-73362602D01*
X35879001Y-75859254D01*
X34377192Y-74357446D01*
X34372865Y-74313515D01*
X34330837Y-74174967D01*
X34262587Y-74047280D01*
X34170738Y-73935362D01*
X34058820Y-73843513D01*
X33931133Y-73775263D01*
X33882732Y-73760581D01*
X33878737Y-73753106D01*
X33799385Y-73656415D01*
X33702694Y-73577063D01*
X33592380Y-73518098D01*
X33472682Y-73481788D01*
X33348200Y-73469528D01*
X32048200Y-73469528D01*
X31923718Y-73481788D01*
X31804020Y-73518098D01*
X31693706Y-73577063D01*
X31597015Y-73656415D01*
X31517663Y-73753106D01*
X31458698Y-73863420D01*
X31422388Y-73983118D01*
X31410128Y-74107600D01*
X31410128Y-74807600D01*
X31422388Y-74932082D01*
X31458698Y-75051780D01*
X31480517Y-75092600D01*
X31458698Y-75133420D01*
X31422388Y-75253118D01*
X31410128Y-75377600D01*
X31413200Y-75441850D01*
X31571950Y-75600600D01*
X32571200Y-75600600D01*
X32571200Y-75580600D01*
X32825200Y-75580600D01*
X32825200Y-75600600D01*
X32845200Y-75600600D01*
X32845200Y-75854600D01*
X32825200Y-75854600D01*
X32825200Y-75874600D01*
X32571200Y-75874600D01*
X32571200Y-75854600D01*
X31571950Y-75854600D01*
X31413200Y-76013350D01*
X31410128Y-76077600D01*
X31422388Y-76202082D01*
X31458698Y-76321780D01*
X31480517Y-76362600D01*
X31458698Y-76403420D01*
X31422388Y-76523118D01*
X31410128Y-76647600D01*
X31410128Y-77347600D01*
X31422388Y-77472082D01*
X31458698Y-77591780D01*
X31480517Y-77632600D01*
X31458698Y-77673420D01*
X31422388Y-77793118D01*
X31410128Y-77917600D01*
X31413200Y-77981850D01*
X31571950Y-78140600D01*
X32571200Y-78140600D01*
X32571200Y-78120600D01*
X32825200Y-78120600D01*
X32825200Y-78140600D01*
X32845200Y-78140600D01*
X32845200Y-78394600D01*
X32825200Y-78394600D01*
X32825200Y-78414600D01*
X32571200Y-78414600D01*
X32571200Y-78394600D01*
X31571950Y-78394600D01*
X31413200Y-78553350D01*
X31410128Y-78617600D01*
X31422388Y-78742082D01*
X31458698Y-78861780D01*
X31517663Y-78972094D01*
X31570542Y-79036528D01*
X30600800Y-79036528D01*
X30476318Y-79048788D01*
X30356620Y-79085098D01*
X30246306Y-79144063D01*
X30149615Y-79223415D01*
X30100800Y-79282896D01*
X30051985Y-79223415D01*
X29955294Y-79144063D01*
X29844980Y-79085098D01*
X29725282Y-79048788D01*
X29600800Y-79036528D01*
X29386550Y-79039600D01*
X29227800Y-79198350D01*
X29227800Y-80172600D01*
X29247800Y-80172600D01*
X29247800Y-80426600D01*
X29227800Y-80426600D01*
X29227800Y-80446600D01*
X29032600Y-80446600D01*
X29032600Y-77675616D01*
X29033774Y-77673420D01*
X29074337Y-77597533D01*
X29116365Y-77458984D01*
X29116365Y-77458979D01*
X29116367Y-77458974D01*
X29124814Y-77373195D01*
X29130556Y-77314900D01*
X29130555Y-77314895D01*
X29130556Y-77314889D01*
X29122868Y-77236838D01*
X29116365Y-77170815D01*
X29116364Y-77170811D01*
X29116363Y-77170804D01*
X29094724Y-77099475D01*
X29074337Y-77032267D01*
X29006087Y-76904580D01*
X29006084Y-76904576D01*
X29006081Y-76904571D01*
X28958484Y-76846575D01*
X28914238Y-76792662D01*
X28886190Y-76769644D01*
X26764558Y-74648072D01*
X26812000Y-74648072D01*
X26936482Y-74635812D01*
X27056180Y-74599502D01*
X27166494Y-74540537D01*
X27263185Y-74461185D01*
X27342537Y-74364494D01*
X27401502Y-74254180D01*
X27437812Y-74134482D01*
X27450072Y-74010000D01*
X27450072Y-73310000D01*
X27437812Y-73185518D01*
X27401502Y-73065820D01*
X27342537Y-72955506D01*
X27263185Y-72858815D01*
X27166494Y-72779463D01*
X27056180Y-72720498D01*
X27021573Y-72710000D01*
X27056180Y-72699502D01*
X27166494Y-72640537D01*
X27263185Y-72561185D01*
X27307622Y-72507038D01*
X27312088Y-72552382D01*
X27348398Y-72672080D01*
X27407363Y-72782394D01*
X27486715Y-72879085D01*
X27583406Y-72958437D01*
X27693720Y-73017402D01*
X27813418Y-73053712D01*
X27937900Y-73065972D01*
X28637900Y-73065972D01*
X28762382Y-73053712D01*
X28882080Y-73017402D01*
X28992394Y-72958437D01*
X29089085Y-72879085D01*
X29168437Y-72782394D01*
X29227402Y-72672080D01*
X29237900Y-72637473D01*
X29248398Y-72672080D01*
X29307363Y-72782394D01*
X29386715Y-72879085D01*
X29452900Y-72933402D01*
X29452901Y-73377967D01*
X29306288Y-73524580D01*
X29182076Y-73710476D01*
X29096517Y-73917033D01*
X29052900Y-74136312D01*
X29052900Y-74359888D01*
X29096517Y-74579167D01*
X29182076Y-74785724D01*
X29306288Y-74971620D01*
X29464380Y-75129712D01*
X29650276Y-75253924D01*
X29856833Y-75339483D01*
X30076112Y-75383100D01*
X30299688Y-75383100D01*
X30518967Y-75339483D01*
X30725524Y-75253924D01*
X30911420Y-75129712D01*
X31069512Y-74971620D01*
X31193724Y-74785724D01*
X31279283Y-74579167D01*
X31322900Y-74359888D01*
X31322900Y-74136312D01*
X31279283Y-73917033D01*
X31193724Y-73710476D01*
X31069512Y-73524580D01*
X30922900Y-73377968D01*
X30922900Y-72933401D01*
X30989085Y-72879085D01*
X31068437Y-72782394D01*
X31127402Y-72672080D01*
X31163712Y-72552382D01*
X31175972Y-72427900D01*
X31175972Y-71127900D01*
X31163712Y-71003418D01*
X31127402Y-70883720D01*
X31068437Y-70773406D01*
X30989085Y-70676715D01*
X30904417Y-70607230D01*
X31371147Y-70140500D01*
X31654004Y-70140500D01*
X31612793Y-70202176D01*
G37*
G04 #@! TD.AperFunction*
D32*
X53870900Y-78359000D02*
X53890900Y-78359000D01*
X53890900Y-78613000D01*
X53870900Y-78613000D01*
X53870900Y-78633000D01*
X53616900Y-78633000D01*
X53616900Y-78613000D01*
X53596900Y-78613000D01*
X53596900Y-78359000D01*
X53616900Y-78359000D01*
X53616900Y-78339000D01*
X53870900Y-78339000D01*
X53870900Y-78359000D01*
G04 #@! TA.AperFunction,Conductor*
D33*
G36*
X53870900Y-78359000D02*
G01*
X53890900Y-78359000D01*
X53890900Y-78613000D01*
X53870900Y-78613000D01*
X53870900Y-78633000D01*
X53616900Y-78633000D01*
X53616900Y-78613000D01*
X53596900Y-78613000D01*
X53596900Y-78359000D01*
X53616900Y-78359000D01*
X53616900Y-78339000D01*
X53870900Y-78339000D01*
X53870900Y-78359000D01*
G37*
G04 #@! TD.AperFunction*
D32*
X54173400Y-71977340D02*
X53890160Y-71921000D01*
X53597640Y-71921000D01*
X53310742Y-71978068D01*
X53040489Y-72090010D01*
X52797268Y-72252525D01*
X52590425Y-72459368D01*
X52470800Y-72638400D01*
X52470800Y-71416605D01*
X52474356Y-71380500D01*
X52460165Y-71236415D01*
X52418137Y-71097866D01*
X52349887Y-70970180D01*
X52308634Y-70919913D01*
X52258038Y-70858262D01*
X52229993Y-70835246D01*
X52079902Y-70685155D01*
X52106012Y-70599082D01*
X52117974Y-70477624D01*
X52190820Y-70438687D01*
X52302738Y-70346838D01*
X52394587Y-70234920D01*
X52462837Y-70107233D01*
X52504865Y-69968685D01*
X52519056Y-69824600D01*
X52515500Y-69788495D01*
X52515500Y-68464946D01*
X52762040Y-68218406D01*
X52945508Y-68254900D01*
X53220692Y-68254900D01*
X53490590Y-68201214D01*
X53744827Y-68095905D01*
X53973635Y-67943020D01*
X54168220Y-67748435D01*
X54173400Y-67740682D01*
X54173400Y-71977340D01*
G04 #@! TA.AperFunction,Conductor*
D33*
G36*
X54173400Y-71977340D02*
G01*
X53890160Y-71921000D01*
X53597640Y-71921000D01*
X53310742Y-71978068D01*
X53040489Y-72090010D01*
X52797268Y-72252525D01*
X52590425Y-72459368D01*
X52470800Y-72638400D01*
X52470800Y-71416605D01*
X52474356Y-71380500D01*
X52460165Y-71236415D01*
X52418137Y-71097866D01*
X52349887Y-70970180D01*
X52308634Y-70919913D01*
X52258038Y-70858262D01*
X52229993Y-70835246D01*
X52079902Y-70685155D01*
X52106012Y-70599082D01*
X52117974Y-70477624D01*
X52190820Y-70438687D01*
X52302738Y-70346838D01*
X52394587Y-70234920D01*
X52462837Y-70107233D01*
X52504865Y-69968685D01*
X52519056Y-69824600D01*
X52515500Y-69788495D01*
X52515500Y-68464946D01*
X52762040Y-68218406D01*
X52945508Y-68254900D01*
X53220692Y-68254900D01*
X53490590Y-68201214D01*
X53744827Y-68095905D01*
X53973635Y-67943020D01*
X54168220Y-67748435D01*
X54173400Y-67740682D01*
X54173400Y-71977340D01*
G37*
G04 #@! TD.AperFunction*
D32*
X53276848Y-64303758D02*
X53262705Y-64317900D01*
X54048665Y-65103860D01*
X54173400Y-65069062D01*
X54173400Y-65975118D01*
X54168220Y-65967365D01*
X53973635Y-65772780D01*
X53744827Y-65619895D01*
X53673157Y-65590208D01*
X53686123Y-65585536D01*
X53802080Y-65523556D01*
X53869060Y-65283465D01*
X53083100Y-64497505D01*
X52297140Y-65283465D01*
X52364120Y-65523556D01*
X52499860Y-65587385D01*
X52421373Y-65619895D01*
X52192565Y-65772780D01*
X51997980Y-65967365D01*
X51845095Y-66196173D01*
X51739786Y-66450410D01*
X51686100Y-66720308D01*
X51686100Y-66815879D01*
X51652438Y-66774862D01*
X51624393Y-66751846D01*
X50075246Y-65202700D01*
X51373795Y-65202700D01*
X51409900Y-65206256D01*
X51446005Y-65202700D01*
X51553985Y-65192065D01*
X51692533Y-65150037D01*
X51820220Y-65081787D01*
X51876680Y-65035451D01*
X51877444Y-65036880D01*
X52117535Y-65103860D01*
X52903495Y-64317900D01*
X52889353Y-64303758D01*
X53068958Y-64124153D01*
X53083100Y-64138295D01*
X53097243Y-64124153D01*
X53276848Y-64303758D01*
G04 #@! TA.AperFunction,Conductor*
D33*
G36*
X53276848Y-64303758D02*
G01*
X53262705Y-64317900D01*
X54048665Y-65103860D01*
X54173400Y-65069062D01*
X54173400Y-65975118D01*
X54168220Y-65967365D01*
X53973635Y-65772780D01*
X53744827Y-65619895D01*
X53673157Y-65590208D01*
X53686123Y-65585536D01*
X53802080Y-65523556D01*
X53869060Y-65283465D01*
X53083100Y-64497505D01*
X52297140Y-65283465D01*
X52364120Y-65523556D01*
X52499860Y-65587385D01*
X52421373Y-65619895D01*
X52192565Y-65772780D01*
X51997980Y-65967365D01*
X51845095Y-66196173D01*
X51739786Y-66450410D01*
X51686100Y-66720308D01*
X51686100Y-66815879D01*
X51652438Y-66774862D01*
X51624393Y-66751846D01*
X50075246Y-65202700D01*
X51373795Y-65202700D01*
X51409900Y-65206256D01*
X51446005Y-65202700D01*
X51553985Y-65192065D01*
X51692533Y-65150037D01*
X51820220Y-65081787D01*
X51876680Y-65035451D01*
X51877444Y-65036880D01*
X52117535Y-65103860D01*
X52903495Y-64317900D01*
X52889353Y-64303758D01*
X53068958Y-64124153D01*
X53083100Y-64138295D01*
X53097243Y-64124153D01*
X53276848Y-64303758D01*
G37*
G04 #@! TD.AperFunction*
D32*
X35272415Y-25002785D02*
X35369106Y-25082137D01*
X35479420Y-25141102D01*
X35599118Y-25177412D01*
X35723600Y-25189672D01*
X36783600Y-25189672D01*
X36908082Y-25177412D01*
X37027780Y-25141102D01*
X37138094Y-25082137D01*
X37234785Y-25002785D01*
X37268585Y-24961600D01*
X38928554Y-24961600D01*
X39357446Y-25390493D01*
X39380462Y-25418538D01*
X39492380Y-25510387D01*
X39589836Y-25562478D01*
X39613498Y-25640480D01*
X39672463Y-25750794D01*
X39713351Y-25800617D01*
X39665917Y-25915133D01*
X39622300Y-26134412D01*
X39622300Y-26357988D01*
X39665917Y-26577267D01*
X39751476Y-26783824D01*
X39875688Y-26969720D01*
X40000961Y-27094993D01*
X38833908Y-28262046D01*
X38805862Y-28285063D01*
X38714013Y-28396981D01*
X38645763Y-28524668D01*
X38616484Y-28621187D01*
X38603735Y-28663215D01*
X38589544Y-28807300D01*
X38593100Y-28843405D01*
X38593101Y-38425382D01*
X38353322Y-38265167D01*
X38085217Y-38154114D01*
X37800598Y-38097500D01*
X37510402Y-38097500D01*
X37225783Y-38154114D01*
X37218354Y-38157191D01*
X37187345Y-37944543D01*
X37090254Y-37671072D01*
X37018344Y-37536538D01*
X36770475Y-37460330D01*
X35930105Y-38300700D01*
X35944248Y-38314843D01*
X35764643Y-38494448D01*
X35750500Y-38480305D01*
X34910130Y-39320675D01*
X34986338Y-39568544D01*
X34995908Y-39573099D01*
X34811390Y-39696391D01*
X34606191Y-39901590D01*
X34444967Y-40142878D01*
X34333914Y-40410983D01*
X34277300Y-40695602D01*
X34277300Y-40985798D01*
X34333914Y-41270417D01*
X34444967Y-41538522D01*
X34606191Y-41779810D01*
X34811390Y-41985009D01*
X35052678Y-42146233D01*
X35320783Y-42257286D01*
X35605402Y-42313900D01*
X35895598Y-42313900D01*
X36180217Y-42257286D01*
X36448322Y-42146233D01*
X36689610Y-41985009D01*
X36894809Y-41779810D01*
X37056033Y-41538522D01*
X37167086Y-41270417D01*
X37223585Y-40986376D01*
X37225783Y-40987286D01*
X37510402Y-41043900D01*
X37800598Y-41043900D01*
X38085217Y-40987286D01*
X38353322Y-40876233D01*
X38593101Y-40716017D01*
X38593101Y-44400752D01*
X37369608Y-45624246D01*
X37341563Y-45647262D01*
X37249714Y-45759180D01*
X37210777Y-45832026D01*
X37089318Y-45843988D01*
X36969620Y-45880298D01*
X36859306Y-45939263D01*
X36762615Y-46018615D01*
X36683263Y-46115306D01*
X36624298Y-46225620D01*
X36587988Y-46345318D01*
X36575728Y-46469800D01*
X36575728Y-47169800D01*
X36587988Y-47294282D01*
X36600158Y-47334400D01*
X34688350Y-47334400D01*
X34631750Y-47277800D01*
X33657500Y-47277800D01*
X33657500Y-47297800D01*
X33403500Y-47297800D01*
X33403500Y-47277800D01*
X32429250Y-47277800D01*
X32270500Y-47436550D01*
X32267428Y-47650800D01*
X32276029Y-47738125D01*
X32110908Y-47903246D01*
X32082863Y-47926262D01*
X31991014Y-48038180D01*
X31924867Y-48161933D01*
X31922764Y-48165867D01*
X31880735Y-48304415D01*
X31866544Y-48448500D01*
X31870101Y-48484615D01*
X31870100Y-54825553D01*
X29382659Y-52338113D01*
X29359638Y-52310062D01*
X29247720Y-52218213D01*
X29149590Y-52165762D01*
X28999920Y-51941765D01*
X28805335Y-51747180D01*
X28576527Y-51594295D01*
X28500205Y-51562681D01*
X28507823Y-51559936D01*
X28623780Y-51497956D01*
X28690760Y-51257865D01*
X27904800Y-50471905D01*
X27118840Y-51257865D01*
X27185820Y-51497956D01*
X27326243Y-51563987D01*
X27253073Y-51594295D01*
X27024265Y-51747180D01*
X26829680Y-51941765D01*
X26676795Y-52170573D01*
X26571486Y-52424810D01*
X26517800Y-52694708D01*
X26517800Y-52969892D01*
X26571486Y-53239790D01*
X26676795Y-53494027D01*
X26829680Y-53722835D01*
X27024265Y-53917420D01*
X27253073Y-54070305D01*
X27507310Y-54175614D01*
X27777208Y-54229300D01*
X28052392Y-54229300D01*
X28322290Y-54175614D01*
X28576527Y-54070305D01*
X28805335Y-53917420D01*
X28844204Y-53878551D01*
X30010383Y-55044730D01*
X29906162Y-55130262D01*
X29883141Y-55158313D01*
X29445308Y-55596146D01*
X29417263Y-55619162D01*
X29325414Y-55731080D01*
X29277745Y-55820262D01*
X29257164Y-55858767D01*
X29215135Y-55997315D01*
X29200944Y-56141400D01*
X29204501Y-56177515D01*
X29204500Y-57881534D01*
X29166517Y-57973233D01*
X29122900Y-58192512D01*
X29122900Y-58416088D01*
X29166517Y-58635367D01*
X29252076Y-58841924D01*
X29376288Y-59027820D01*
X29534380Y-59185912D01*
X29720276Y-59310124D01*
X29874859Y-59374155D01*
X29692776Y-59449576D01*
X29506880Y-59573788D01*
X29348788Y-59731880D01*
X29224576Y-59917776D01*
X29139017Y-60124333D01*
X29095400Y-60343612D01*
X29095400Y-60567188D01*
X29139017Y-60786467D01*
X29224576Y-60993024D01*
X29348788Y-61178920D01*
X29495401Y-61325533D01*
X29495400Y-62139653D01*
X29272346Y-62362707D01*
X29329223Y-62133465D01*
X29342110Y-61858583D01*
X29301122Y-61586467D01*
X29207836Y-61327577D01*
X29145856Y-61211620D01*
X28905765Y-61144640D01*
X28119805Y-61930600D01*
X28133948Y-61944743D01*
X27954343Y-62124348D01*
X27940200Y-62110205D01*
X27154240Y-62896165D01*
X27221220Y-63136256D01*
X27470248Y-63253356D01*
X27737335Y-63319623D01*
X28012217Y-63332510D01*
X28284333Y-63291522D01*
X28376878Y-63258175D01*
X25539600Y-66095454D01*
X25539600Y-62002617D01*
X26538290Y-62002617D01*
X26579278Y-62274733D01*
X26672564Y-62533623D01*
X26734544Y-62649580D01*
X26974635Y-62716560D01*
X27760595Y-61930600D01*
X26974635Y-61144640D01*
X26734544Y-61211620D01*
X26617444Y-61460648D01*
X26551177Y-61727735D01*
X26538290Y-62002617D01*
X25539600Y-62002617D01*
X25539600Y-59253008D01*
X26533200Y-59253008D01*
X26533200Y-59528192D01*
X26586886Y-59798090D01*
X26692195Y-60052327D01*
X26845080Y-60281135D01*
X27039665Y-60475720D01*
X27268473Y-60628605D01*
X27344795Y-60660219D01*
X27337177Y-60662964D01*
X27221220Y-60724944D01*
X27154240Y-60965035D01*
X27940200Y-61750995D01*
X28726160Y-60965035D01*
X28659180Y-60724944D01*
X28518757Y-60658913D01*
X28591927Y-60628605D01*
X28820735Y-60475720D01*
X29015320Y-60281135D01*
X29168205Y-60052327D01*
X29273514Y-59798090D01*
X29327200Y-59528192D01*
X29327200Y-59253008D01*
X29273514Y-58983110D01*
X29168205Y-58728873D01*
X29015320Y-58500065D01*
X28820735Y-58305480D01*
X28591927Y-58152595D01*
X28337690Y-58047286D01*
X28067792Y-57993600D01*
X27792608Y-57993600D01*
X27522710Y-58047286D01*
X27268473Y-58152595D01*
X27039665Y-58305480D01*
X26845080Y-58500065D01*
X26692195Y-58728873D01*
X26586886Y-58983110D01*
X26533200Y-59253008D01*
X25539600Y-59253008D01*
X25539600Y-50364317D01*
X26502890Y-50364317D01*
X26543878Y-50636433D01*
X26637164Y-50895323D01*
X26699144Y-51011280D01*
X26939235Y-51078260D01*
X27725195Y-50292300D01*
X28084405Y-50292300D01*
X28870365Y-51078260D01*
X29110456Y-51011280D01*
X29227556Y-50762252D01*
X29293823Y-50495165D01*
X29306710Y-50220283D01*
X29265722Y-49948167D01*
X29172436Y-49689277D01*
X29110456Y-49573320D01*
X28870365Y-49506340D01*
X28084405Y-50292300D01*
X27725195Y-50292300D01*
X26939235Y-49506340D01*
X26699144Y-49573320D01*
X26582044Y-49822348D01*
X26515777Y-50089435D01*
X26502890Y-50364317D01*
X25539600Y-50364317D01*
X25539600Y-49326735D01*
X27118840Y-49326735D01*
X27904800Y-50112695D01*
X28690760Y-49326735D01*
X28623780Y-49086644D01*
X28374752Y-48969544D01*
X28107665Y-48903277D01*
X27832783Y-48890390D01*
X27560667Y-48931378D01*
X27301777Y-49024664D01*
X27185820Y-49086644D01*
X27118840Y-49326735D01*
X25539600Y-49326735D01*
X25539600Y-46940346D01*
X25829146Y-46650800D01*
X32267428Y-46650800D01*
X32270500Y-46865050D01*
X32429250Y-47023800D01*
X33403500Y-47023800D01*
X33403500Y-46174550D01*
X33657500Y-46174550D01*
X33657500Y-47023800D01*
X34631750Y-47023800D01*
X34790500Y-46865050D01*
X34793572Y-46650800D01*
X34781312Y-46526318D01*
X34745002Y-46406620D01*
X34686037Y-46296306D01*
X34606685Y-46199615D01*
X34509994Y-46120263D01*
X34399680Y-46061298D01*
X34279982Y-46024988D01*
X34155500Y-46012728D01*
X33816250Y-46015800D01*
X33657500Y-46174550D01*
X33403500Y-46174550D01*
X33244750Y-46015800D01*
X32905500Y-46012728D01*
X32781018Y-46024988D01*
X32661320Y-46061298D01*
X32551006Y-46120263D01*
X32454315Y-46199615D01*
X32374963Y-46296306D01*
X32315998Y-46406620D01*
X32279688Y-46526318D01*
X32267428Y-46650800D01*
X25829146Y-46650800D01*
X27520041Y-44959906D01*
X27703508Y-44996400D01*
X27978692Y-44996400D01*
X28248590Y-44942714D01*
X28502827Y-44837405D01*
X28731635Y-44684520D01*
X28926220Y-44489935D01*
X29079105Y-44261127D01*
X29184414Y-44006890D01*
X29238100Y-43736992D01*
X29238100Y-43461808D01*
X29184414Y-43191910D01*
X29079105Y-42937673D01*
X28926220Y-42708865D01*
X28731635Y-42514280D01*
X28502827Y-42361395D01*
X28426505Y-42329781D01*
X28434123Y-42327036D01*
X28550080Y-42265056D01*
X28617060Y-42024965D01*
X27831100Y-41239005D01*
X27816958Y-41253148D01*
X27637353Y-41073543D01*
X27651495Y-41059400D01*
X27637353Y-41045258D01*
X27816958Y-40865653D01*
X27831100Y-40879795D01*
X27845243Y-40865653D01*
X28024848Y-41045258D01*
X28010705Y-41059400D01*
X28796665Y-41845360D01*
X29036756Y-41778380D01*
X29153856Y-41529352D01*
X29220123Y-41262265D01*
X29233010Y-40987383D01*
X29192022Y-40715267D01*
X29189836Y-40709200D01*
X32340995Y-40709200D01*
X32377100Y-40712756D01*
X32413205Y-40709200D01*
X32521185Y-40698565D01*
X32659733Y-40656537D01*
X32787420Y-40588287D01*
X32899338Y-40496438D01*
X32922359Y-40468387D01*
X34428048Y-38962698D01*
X34482656Y-39064862D01*
X34730525Y-39141070D01*
X35570895Y-38300700D01*
X35556753Y-38286558D01*
X35736358Y-38106953D01*
X35750500Y-38121095D01*
X36590870Y-37280725D01*
X36514662Y-37032856D01*
X36259260Y-36911290D01*
X36264520Y-36857885D01*
X36264520Y-36857878D01*
X36268075Y-36821781D01*
X36264520Y-36785684D01*
X36264520Y-33255725D01*
X36268076Y-33219620D01*
X36253885Y-33075535D01*
X36221549Y-32968938D01*
X36211857Y-32936987D01*
X36143607Y-32809300D01*
X36077979Y-32729333D01*
X36074773Y-32725426D01*
X36074770Y-32725423D01*
X36051757Y-32697382D01*
X36023717Y-32674370D01*
X35709104Y-32359758D01*
X35787137Y-32264674D01*
X35846102Y-32154360D01*
X35882412Y-32034662D01*
X35894672Y-31910180D01*
X35894672Y-30660180D01*
X35882412Y-30535698D01*
X35846102Y-30416000D01*
X35787137Y-30305686D01*
X35707785Y-30208995D01*
X35611094Y-30129643D01*
X35500780Y-30070678D01*
X35381082Y-30034368D01*
X35256600Y-30022108D01*
X35222054Y-30022108D01*
X35203800Y-30003854D01*
X35203800Y-24919177D01*
X35272415Y-25002785D01*
G04 #@! TA.AperFunction,Conductor*
D33*
G36*
X35272415Y-25002785D02*
G01*
X35369106Y-25082137D01*
X35479420Y-25141102D01*
X35599118Y-25177412D01*
X35723600Y-25189672D01*
X36783600Y-25189672D01*
X36908082Y-25177412D01*
X37027780Y-25141102D01*
X37138094Y-25082137D01*
X37234785Y-25002785D01*
X37268585Y-24961600D01*
X38928554Y-24961600D01*
X39357446Y-25390493D01*
X39380462Y-25418538D01*
X39492380Y-25510387D01*
X39589836Y-25562478D01*
X39613498Y-25640480D01*
X39672463Y-25750794D01*
X39713351Y-25800617D01*
X39665917Y-25915133D01*
X39622300Y-26134412D01*
X39622300Y-26357988D01*
X39665917Y-26577267D01*
X39751476Y-26783824D01*
X39875688Y-26969720D01*
X40000961Y-27094993D01*
X38833908Y-28262046D01*
X38805862Y-28285063D01*
X38714013Y-28396981D01*
X38645763Y-28524668D01*
X38616484Y-28621187D01*
X38603735Y-28663215D01*
X38589544Y-28807300D01*
X38593100Y-28843405D01*
X38593101Y-38425382D01*
X38353322Y-38265167D01*
X38085217Y-38154114D01*
X37800598Y-38097500D01*
X37510402Y-38097500D01*
X37225783Y-38154114D01*
X37218354Y-38157191D01*
X37187345Y-37944543D01*
X37090254Y-37671072D01*
X37018344Y-37536538D01*
X36770475Y-37460330D01*
X35930105Y-38300700D01*
X35944248Y-38314843D01*
X35764643Y-38494448D01*
X35750500Y-38480305D01*
X34910130Y-39320675D01*
X34986338Y-39568544D01*
X34995908Y-39573099D01*
X34811390Y-39696391D01*
X34606191Y-39901590D01*
X34444967Y-40142878D01*
X34333914Y-40410983D01*
X34277300Y-40695602D01*
X34277300Y-40985798D01*
X34333914Y-41270417D01*
X34444967Y-41538522D01*
X34606191Y-41779810D01*
X34811390Y-41985009D01*
X35052678Y-42146233D01*
X35320783Y-42257286D01*
X35605402Y-42313900D01*
X35895598Y-42313900D01*
X36180217Y-42257286D01*
X36448322Y-42146233D01*
X36689610Y-41985009D01*
X36894809Y-41779810D01*
X37056033Y-41538522D01*
X37167086Y-41270417D01*
X37223585Y-40986376D01*
X37225783Y-40987286D01*
X37510402Y-41043900D01*
X37800598Y-41043900D01*
X38085217Y-40987286D01*
X38353322Y-40876233D01*
X38593101Y-40716017D01*
X38593101Y-44400752D01*
X37369608Y-45624246D01*
X37341563Y-45647262D01*
X37249714Y-45759180D01*
X37210777Y-45832026D01*
X37089318Y-45843988D01*
X36969620Y-45880298D01*
X36859306Y-45939263D01*
X36762615Y-46018615D01*
X36683263Y-46115306D01*
X36624298Y-46225620D01*
X36587988Y-46345318D01*
X36575728Y-46469800D01*
X36575728Y-47169800D01*
X36587988Y-47294282D01*
X36600158Y-47334400D01*
X34688350Y-47334400D01*
X34631750Y-47277800D01*
X33657500Y-47277800D01*
X33657500Y-47297800D01*
X33403500Y-47297800D01*
X33403500Y-47277800D01*
X32429250Y-47277800D01*
X32270500Y-47436550D01*
X32267428Y-47650800D01*
X32276029Y-47738125D01*
X32110908Y-47903246D01*
X32082863Y-47926262D01*
X31991014Y-48038180D01*
X31924867Y-48161933D01*
X31922764Y-48165867D01*
X31880735Y-48304415D01*
X31866544Y-48448500D01*
X31870101Y-48484615D01*
X31870100Y-54825553D01*
X29382659Y-52338113D01*
X29359638Y-52310062D01*
X29247720Y-52218213D01*
X29149590Y-52165762D01*
X28999920Y-51941765D01*
X28805335Y-51747180D01*
X28576527Y-51594295D01*
X28500205Y-51562681D01*
X28507823Y-51559936D01*
X28623780Y-51497956D01*
X28690760Y-51257865D01*
X27904800Y-50471905D01*
X27118840Y-51257865D01*
X27185820Y-51497956D01*
X27326243Y-51563987D01*
X27253073Y-51594295D01*
X27024265Y-51747180D01*
X26829680Y-51941765D01*
X26676795Y-52170573D01*
X26571486Y-52424810D01*
X26517800Y-52694708D01*
X26517800Y-52969892D01*
X26571486Y-53239790D01*
X26676795Y-53494027D01*
X26829680Y-53722835D01*
X27024265Y-53917420D01*
X27253073Y-54070305D01*
X27507310Y-54175614D01*
X27777208Y-54229300D01*
X28052392Y-54229300D01*
X28322290Y-54175614D01*
X28576527Y-54070305D01*
X28805335Y-53917420D01*
X28844204Y-53878551D01*
X30010383Y-55044730D01*
X29906162Y-55130262D01*
X29883141Y-55158313D01*
X29445308Y-55596146D01*
X29417263Y-55619162D01*
X29325414Y-55731080D01*
X29277745Y-55820262D01*
X29257164Y-55858767D01*
X29215135Y-55997315D01*
X29200944Y-56141400D01*
X29204501Y-56177515D01*
X29204500Y-57881534D01*
X29166517Y-57973233D01*
X29122900Y-58192512D01*
X29122900Y-58416088D01*
X29166517Y-58635367D01*
X29252076Y-58841924D01*
X29376288Y-59027820D01*
X29534380Y-59185912D01*
X29720276Y-59310124D01*
X29874859Y-59374155D01*
X29692776Y-59449576D01*
X29506880Y-59573788D01*
X29348788Y-59731880D01*
X29224576Y-59917776D01*
X29139017Y-60124333D01*
X29095400Y-60343612D01*
X29095400Y-60567188D01*
X29139017Y-60786467D01*
X29224576Y-60993024D01*
X29348788Y-61178920D01*
X29495401Y-61325533D01*
X29495400Y-62139653D01*
X29272346Y-62362707D01*
X29329223Y-62133465D01*
X29342110Y-61858583D01*
X29301122Y-61586467D01*
X29207836Y-61327577D01*
X29145856Y-61211620D01*
X28905765Y-61144640D01*
X28119805Y-61930600D01*
X28133948Y-61944743D01*
X27954343Y-62124348D01*
X27940200Y-62110205D01*
X27154240Y-62896165D01*
X27221220Y-63136256D01*
X27470248Y-63253356D01*
X27737335Y-63319623D01*
X28012217Y-63332510D01*
X28284333Y-63291522D01*
X28376878Y-63258175D01*
X25539600Y-66095454D01*
X25539600Y-62002617D01*
X26538290Y-62002617D01*
X26579278Y-62274733D01*
X26672564Y-62533623D01*
X26734544Y-62649580D01*
X26974635Y-62716560D01*
X27760595Y-61930600D01*
X26974635Y-61144640D01*
X26734544Y-61211620D01*
X26617444Y-61460648D01*
X26551177Y-61727735D01*
X26538290Y-62002617D01*
X25539600Y-62002617D01*
X25539600Y-59253008D01*
X26533200Y-59253008D01*
X26533200Y-59528192D01*
X26586886Y-59798090D01*
X26692195Y-60052327D01*
X26845080Y-60281135D01*
X27039665Y-60475720D01*
X27268473Y-60628605D01*
X27344795Y-60660219D01*
X27337177Y-60662964D01*
X27221220Y-60724944D01*
X27154240Y-60965035D01*
X27940200Y-61750995D01*
X28726160Y-60965035D01*
X28659180Y-60724944D01*
X28518757Y-60658913D01*
X28591927Y-60628605D01*
X28820735Y-60475720D01*
X29015320Y-60281135D01*
X29168205Y-60052327D01*
X29273514Y-59798090D01*
X29327200Y-59528192D01*
X29327200Y-59253008D01*
X29273514Y-58983110D01*
X29168205Y-58728873D01*
X29015320Y-58500065D01*
X28820735Y-58305480D01*
X28591927Y-58152595D01*
X28337690Y-58047286D01*
X28067792Y-57993600D01*
X27792608Y-57993600D01*
X27522710Y-58047286D01*
X27268473Y-58152595D01*
X27039665Y-58305480D01*
X26845080Y-58500065D01*
X26692195Y-58728873D01*
X26586886Y-58983110D01*
X26533200Y-59253008D01*
X25539600Y-59253008D01*
X25539600Y-50364317D01*
X26502890Y-50364317D01*
X26543878Y-50636433D01*
X26637164Y-50895323D01*
X26699144Y-51011280D01*
X26939235Y-51078260D01*
X27725195Y-50292300D01*
X28084405Y-50292300D01*
X28870365Y-51078260D01*
X29110456Y-51011280D01*
X29227556Y-50762252D01*
X29293823Y-50495165D01*
X29306710Y-50220283D01*
X29265722Y-49948167D01*
X29172436Y-49689277D01*
X29110456Y-49573320D01*
X28870365Y-49506340D01*
X28084405Y-50292300D01*
X27725195Y-50292300D01*
X26939235Y-49506340D01*
X26699144Y-49573320D01*
X26582044Y-49822348D01*
X26515777Y-50089435D01*
X26502890Y-50364317D01*
X25539600Y-50364317D01*
X25539600Y-49326735D01*
X27118840Y-49326735D01*
X27904800Y-50112695D01*
X28690760Y-49326735D01*
X28623780Y-49086644D01*
X28374752Y-48969544D01*
X28107665Y-48903277D01*
X27832783Y-48890390D01*
X27560667Y-48931378D01*
X27301777Y-49024664D01*
X27185820Y-49086644D01*
X27118840Y-49326735D01*
X25539600Y-49326735D01*
X25539600Y-46940346D01*
X25829146Y-46650800D01*
X32267428Y-46650800D01*
X32270500Y-46865050D01*
X32429250Y-47023800D01*
X33403500Y-47023800D01*
X33403500Y-46174550D01*
X33657500Y-46174550D01*
X33657500Y-47023800D01*
X34631750Y-47023800D01*
X34790500Y-46865050D01*
X34793572Y-46650800D01*
X34781312Y-46526318D01*
X34745002Y-46406620D01*
X34686037Y-46296306D01*
X34606685Y-46199615D01*
X34509994Y-46120263D01*
X34399680Y-46061298D01*
X34279982Y-46024988D01*
X34155500Y-46012728D01*
X33816250Y-46015800D01*
X33657500Y-46174550D01*
X33403500Y-46174550D01*
X33244750Y-46015800D01*
X32905500Y-46012728D01*
X32781018Y-46024988D01*
X32661320Y-46061298D01*
X32551006Y-46120263D01*
X32454315Y-46199615D01*
X32374963Y-46296306D01*
X32315998Y-46406620D01*
X32279688Y-46526318D01*
X32267428Y-46650800D01*
X25829146Y-46650800D01*
X27520041Y-44959906D01*
X27703508Y-44996400D01*
X27978692Y-44996400D01*
X28248590Y-44942714D01*
X28502827Y-44837405D01*
X28731635Y-44684520D01*
X28926220Y-44489935D01*
X29079105Y-44261127D01*
X29184414Y-44006890D01*
X29238100Y-43736992D01*
X29238100Y-43461808D01*
X29184414Y-43191910D01*
X29079105Y-42937673D01*
X28926220Y-42708865D01*
X28731635Y-42514280D01*
X28502827Y-42361395D01*
X28426505Y-42329781D01*
X28434123Y-42327036D01*
X28550080Y-42265056D01*
X28617060Y-42024965D01*
X27831100Y-41239005D01*
X27816958Y-41253148D01*
X27637353Y-41073543D01*
X27651495Y-41059400D01*
X27637353Y-41045258D01*
X27816958Y-40865653D01*
X27831100Y-40879795D01*
X27845243Y-40865653D01*
X28024848Y-41045258D01*
X28010705Y-41059400D01*
X28796665Y-41845360D01*
X29036756Y-41778380D01*
X29153856Y-41529352D01*
X29220123Y-41262265D01*
X29233010Y-40987383D01*
X29192022Y-40715267D01*
X29189836Y-40709200D01*
X32340995Y-40709200D01*
X32377100Y-40712756D01*
X32413205Y-40709200D01*
X32521185Y-40698565D01*
X32659733Y-40656537D01*
X32787420Y-40588287D01*
X32899338Y-40496438D01*
X32922359Y-40468387D01*
X34428048Y-38962698D01*
X34482656Y-39064862D01*
X34730525Y-39141070D01*
X35570895Y-38300700D01*
X35556753Y-38286558D01*
X35736358Y-38106953D01*
X35750500Y-38121095D01*
X36590870Y-37280725D01*
X36514662Y-37032856D01*
X36259260Y-36911290D01*
X36264520Y-36857885D01*
X36264520Y-36857878D01*
X36268075Y-36821781D01*
X36264520Y-36785684D01*
X36264520Y-33255725D01*
X36268076Y-33219620D01*
X36253885Y-33075535D01*
X36221549Y-32968938D01*
X36211857Y-32936987D01*
X36143607Y-32809300D01*
X36077979Y-32729333D01*
X36074773Y-32725426D01*
X36074770Y-32725423D01*
X36051757Y-32697382D01*
X36023717Y-32674370D01*
X35709104Y-32359758D01*
X35787137Y-32264674D01*
X35846102Y-32154360D01*
X35882412Y-32034662D01*
X35894672Y-31910180D01*
X35894672Y-30660180D01*
X35882412Y-30535698D01*
X35846102Y-30416000D01*
X35787137Y-30305686D01*
X35707785Y-30208995D01*
X35611094Y-30129643D01*
X35500780Y-30070678D01*
X35381082Y-30034368D01*
X35256600Y-30022108D01*
X35222054Y-30022108D01*
X35203800Y-30003854D01*
X35203800Y-24919177D01*
X35272415Y-25002785D01*
G37*
G04 #@! TD.AperFunction*
D32*
X47131500Y-59763772D02*
X47361500Y-59763772D01*
X47380277Y-59761923D01*
X47378428Y-59780700D01*
X47378428Y-60010700D01*
X47385756Y-60085110D01*
X47057090Y-59756443D01*
X47131500Y-59763772D01*
G04 #@! TA.AperFunction,Conductor*
D33*
G36*
X47131500Y-59763772D02*
G01*
X47361500Y-59763772D01*
X47380277Y-59761923D01*
X47378428Y-59780700D01*
X47378428Y-60010700D01*
X47385756Y-60085110D01*
X47057090Y-59756443D01*
X47131500Y-59763772D01*
G37*
G04 #@! TD.AperFunction*
D32*
X39806388Y-58723820D02*
X39964480Y-58881912D01*
X40150376Y-59006124D01*
X40356933Y-59091683D01*
X40576212Y-59135300D01*
X40799788Y-59135300D01*
X40905428Y-59114287D01*
X40905428Y-59125700D01*
X40907277Y-59144477D01*
X40888500Y-59142628D01*
X39888500Y-59142628D01*
X39799900Y-59151354D01*
X39799900Y-58714110D01*
X39806388Y-58723820D01*
G04 #@! TA.AperFunction,Conductor*
D33*
G36*
X39806388Y-58723820D02*
G01*
X39964480Y-58881912D01*
X40150376Y-59006124D01*
X40356933Y-59091683D01*
X40576212Y-59135300D01*
X40799788Y-59135300D01*
X40905428Y-59114287D01*
X40905428Y-59125700D01*
X40907277Y-59144477D01*
X40888500Y-59142628D01*
X39888500Y-59142628D01*
X39799900Y-59151354D01*
X39799900Y-58714110D01*
X39806388Y-58723820D01*
G37*
G04 #@! TD.AperFunction*
D32*
X43435228Y-36664800D02*
X43447488Y-36789282D01*
X43483798Y-36908980D01*
X43542763Y-37019294D01*
X43622115Y-37115985D01*
X43718806Y-37195337D01*
X43829120Y-37254302D01*
X43948818Y-37290612D01*
X44073300Y-37302872D01*
X45073300Y-37302872D01*
X45197782Y-37290612D01*
X45317480Y-37254302D01*
X45427794Y-37195337D01*
X45524485Y-37115985D01*
X45551915Y-37082561D01*
X47151046Y-38681693D01*
X47174062Y-38709738D01*
X47285980Y-38801587D01*
X47413667Y-38869837D01*
X47552215Y-38911865D01*
X47696300Y-38926056D01*
X47732405Y-38922500D01*
X49010795Y-38922500D01*
X49046900Y-38926056D01*
X49083005Y-38922500D01*
X49190985Y-38911865D01*
X49329533Y-38869837D01*
X49457220Y-38801587D01*
X49569138Y-38709738D01*
X49592158Y-38681688D01*
X50387048Y-37886798D01*
X50442250Y-37942000D01*
X51291500Y-37942000D01*
X51291500Y-37922000D01*
X51545500Y-37922000D01*
X51545500Y-37942000D01*
X51565500Y-37942000D01*
X51565500Y-38196000D01*
X51545500Y-38196000D01*
X51545500Y-38216000D01*
X51291500Y-38216000D01*
X51291500Y-38196000D01*
X50442250Y-38196000D01*
X50283500Y-38354750D01*
X50280428Y-38819000D01*
X50292688Y-38943482D01*
X50328998Y-39063180D01*
X50387963Y-39173494D01*
X50467315Y-39270185D01*
X50564006Y-39349537D01*
X50674320Y-39408502D01*
X50794018Y-39444812D01*
X50918500Y-39457072D01*
X51132750Y-39454000D01*
X51291498Y-39295252D01*
X51291498Y-39394544D01*
X51274202Y-39420428D01*
X51269581Y-39429073D01*
X51221708Y-39544649D01*
X51218863Y-39554028D01*
X51194463Y-39676689D01*
X51193502Y-39686444D01*
X51190428Y-39749000D01*
X51190428Y-42759000D01*
X51193502Y-42821556D01*
X51194463Y-42831311D01*
X51218863Y-42953972D01*
X51221708Y-42963351D01*
X51269581Y-43078927D01*
X51274202Y-43087572D01*
X51343708Y-43191589D01*
X51349926Y-43199165D01*
X51438335Y-43287574D01*
X51445911Y-43293792D01*
X51549928Y-43363298D01*
X51558573Y-43367919D01*
X51674149Y-43415792D01*
X51683528Y-43418637D01*
X51806189Y-43443037D01*
X51815944Y-43443998D01*
X51878500Y-43447072D01*
X52194954Y-43447072D01*
X52195766Y-43455315D01*
X52204135Y-43540284D01*
X52246163Y-43678832D01*
X52314413Y-43806519D01*
X52406262Y-43918437D01*
X52434308Y-43941454D01*
X56416973Y-47924120D01*
X56258125Y-48082968D01*
X56095610Y-48326189D01*
X55983668Y-48596442D01*
X55926600Y-48883340D01*
X55926600Y-49175860D01*
X55983668Y-49462758D01*
X56095610Y-49733011D01*
X56258125Y-49976232D01*
X56272123Y-49990230D01*
X55103308Y-51159046D01*
X55075263Y-51182062D01*
X54983414Y-51293980D01*
X54942463Y-51370595D01*
X54915164Y-51421667D01*
X54873135Y-51560215D01*
X54858944Y-51704300D01*
X54862501Y-51740415D01*
X54862500Y-56987300D01*
X50470505Y-56987300D01*
X50434400Y-56983744D01*
X50398295Y-56987300D01*
X50290315Y-56997935D01*
X50151767Y-57039963D01*
X50024080Y-57108213D01*
X49912162Y-57200062D01*
X49889141Y-57228113D01*
X49866054Y-57251200D01*
X49805522Y-57251200D01*
X49756920Y-57211313D01*
X49629233Y-57143063D01*
X49490685Y-57101035D01*
X49382705Y-57090400D01*
X49346600Y-57086844D01*
X49310495Y-57090400D01*
X47282605Y-57090400D01*
X47246500Y-57086844D01*
X47210395Y-57090400D01*
X47102415Y-57101035D01*
X46963867Y-57143063D01*
X46836180Y-57211313D01*
X46724262Y-57303162D01*
X46632413Y-57415080D01*
X46587729Y-57498679D01*
X46579750Y-57490700D01*
X46482323Y-57503442D01*
X46482025Y-57503541D01*
X46469982Y-57499888D01*
X46345500Y-57487628D01*
X46115500Y-57487628D01*
X45991018Y-57499888D01*
X45976500Y-57504292D01*
X45961982Y-57499888D01*
X45837500Y-57487628D01*
X45607500Y-57487628D01*
X45572246Y-57491100D01*
X49962547Y-53100800D01*
X50673968Y-53100800D01*
X50820580Y-53247412D01*
X51006476Y-53371624D01*
X51213033Y-53457183D01*
X51432312Y-53500800D01*
X51655888Y-53500800D01*
X51875167Y-53457183D01*
X52081724Y-53371624D01*
X52267620Y-53247412D01*
X52425712Y-53089320D01*
X52549924Y-52903424D01*
X52635483Y-52696867D01*
X52679100Y-52477588D01*
X52679100Y-52254012D01*
X52635483Y-52034733D01*
X52549924Y-51828176D01*
X52425712Y-51642280D01*
X52267620Y-51484188D01*
X52081724Y-51359976D01*
X51875167Y-51274417D01*
X51655888Y-51230800D01*
X51432312Y-51230800D01*
X51213033Y-51274417D01*
X51006476Y-51359976D01*
X50820580Y-51484188D01*
X50673968Y-51630800D01*
X49694194Y-51630800D01*
X49658099Y-51627245D01*
X49622004Y-51630800D01*
X49621995Y-51630800D01*
X49514015Y-51641435D01*
X49375467Y-51683463D01*
X49247780Y-51751713D01*
X49135862Y-51843562D01*
X49112846Y-51871607D01*
X48356465Y-52627988D01*
X48246099Y-52462814D01*
X48053186Y-52269901D01*
X47826343Y-52118329D01*
X47574289Y-52013925D01*
X47306711Y-51960700D01*
X47033889Y-51960700D01*
X46766311Y-52013925D01*
X46636207Y-52067816D01*
X46630400Y-52067244D01*
X46594295Y-52070800D01*
X43513387Y-52070800D01*
X43510602Y-52061620D01*
X43451637Y-51951306D01*
X43372285Y-51854615D01*
X43312804Y-51805800D01*
X43372285Y-51756985D01*
X43451637Y-51660294D01*
X43510602Y-51549980D01*
X43546912Y-51430282D01*
X43559172Y-51305800D01*
X43556100Y-51091550D01*
X43397350Y-50932800D01*
X42423100Y-50932800D01*
X42423100Y-50952800D01*
X42169100Y-50952800D01*
X42169100Y-50932800D01*
X42149100Y-50932800D01*
X42149100Y-50678800D01*
X42169100Y-50678800D01*
X42169100Y-50658800D01*
X42423100Y-50658800D01*
X42423100Y-50678800D01*
X43397350Y-50678800D01*
X43556100Y-50520050D01*
X43559172Y-50305800D01*
X43546912Y-50181318D01*
X43510602Y-50061620D01*
X43451637Y-49951306D01*
X43372285Y-49854615D01*
X43352954Y-49838750D01*
X43383037Y-49802094D01*
X43442002Y-49691780D01*
X43444787Y-49682600D01*
X46498586Y-49682600D01*
X46514257Y-49693071D01*
X46766311Y-49797475D01*
X47033889Y-49850700D01*
X47306711Y-49850700D01*
X47574289Y-49797475D01*
X47826343Y-49693071D01*
X48053186Y-49541499D01*
X48246099Y-49348586D01*
X48397671Y-49121743D01*
X48502075Y-48869689D01*
X48555300Y-48602111D01*
X48555300Y-48329289D01*
X48502075Y-48061711D01*
X48397671Y-47809657D01*
X48246099Y-47582814D01*
X48053186Y-47389901D01*
X47826343Y-47238329D01*
X47574289Y-47133925D01*
X47306711Y-47080700D01*
X47033889Y-47080700D01*
X46766311Y-47133925D01*
X46514257Y-47238329D01*
X46287414Y-47389901D01*
X46094501Y-47582814D01*
X45942929Y-47809657D01*
X45838525Y-48061711D01*
X45808511Y-48212600D01*
X43444787Y-48212600D01*
X43442002Y-48203420D01*
X43383037Y-48093106D01*
X43303685Y-47996415D01*
X43244204Y-47947600D01*
X43303685Y-47898785D01*
X43383037Y-47802094D01*
X43442002Y-47691780D01*
X43478312Y-47572082D01*
X43490572Y-47447600D01*
X43487500Y-47233350D01*
X43328750Y-47074600D01*
X42354500Y-47074600D01*
X42354500Y-47094600D01*
X42100500Y-47094600D01*
X42100500Y-47074600D01*
X41126250Y-47074600D01*
X40967500Y-47233350D01*
X40964428Y-47447600D01*
X40976688Y-47572082D01*
X41012998Y-47691780D01*
X41071963Y-47802094D01*
X41151315Y-47898785D01*
X41210796Y-47947600D01*
X41151315Y-47996415D01*
X41071963Y-48093106D01*
X41012998Y-48203420D01*
X40976688Y-48323118D01*
X40964428Y-48447600D01*
X40964428Y-49447600D01*
X40976688Y-49572082D01*
X41012998Y-49691780D01*
X41071963Y-49802094D01*
X41151315Y-49898785D01*
X41170646Y-49914650D01*
X41140563Y-49951306D01*
X41081598Y-50061620D01*
X41045288Y-50181318D01*
X41033028Y-50305800D01*
X41033843Y-50362652D01*
X40919567Y-50315317D01*
X40700288Y-50271700D01*
X40476712Y-50271700D01*
X40257433Y-50315317D01*
X40122900Y-50371043D01*
X40122900Y-50152146D01*
X40282387Y-49992659D01*
X40310438Y-49969638D01*
X40402287Y-49857720D01*
X40457745Y-49753965D01*
X40470537Y-49730034D01*
X40512565Y-49591485D01*
X40526756Y-49447400D01*
X40523200Y-49411295D01*
X40523200Y-46447600D01*
X40964428Y-46447600D01*
X40967500Y-46661850D01*
X41126250Y-46820600D01*
X42100500Y-46820600D01*
X42100500Y-45971350D01*
X42354500Y-45971350D01*
X42354500Y-46820600D01*
X43328750Y-46820600D01*
X43487500Y-46661850D01*
X43490572Y-46447600D01*
X43478312Y-46323118D01*
X43442002Y-46203420D01*
X43383037Y-46093106D01*
X43303685Y-45996415D01*
X43206994Y-45917063D01*
X43096680Y-45858098D01*
X42976982Y-45821788D01*
X42852500Y-45809528D01*
X42513250Y-45812600D01*
X42354500Y-45971350D01*
X42100500Y-45971350D01*
X41941750Y-45812600D01*
X41602500Y-45809528D01*
X41478018Y-45821788D01*
X41358320Y-45858098D01*
X41248006Y-45917063D01*
X41151315Y-45996415D01*
X41071963Y-46093106D01*
X41012998Y-46203420D01*
X40976688Y-46323118D01*
X40964428Y-46447600D01*
X40523200Y-46447600D01*
X40523200Y-36982695D01*
X40542763Y-37019294D01*
X40622115Y-37115985D01*
X40718806Y-37195337D01*
X40829120Y-37254302D01*
X40948818Y-37290612D01*
X41073300Y-37302872D01*
X42073300Y-37302872D01*
X42197782Y-37290612D01*
X42317480Y-37254302D01*
X42427794Y-37195337D01*
X42524485Y-37115985D01*
X42603837Y-37019294D01*
X42662802Y-36908980D01*
X42699112Y-36789282D01*
X42711372Y-36664800D01*
X42711372Y-36517665D01*
X42783920Y-36478887D01*
X42895838Y-36387038D01*
X42918858Y-36358988D01*
X43435228Y-35842618D01*
X43435228Y-36664800D01*
G04 #@! TA.AperFunction,Conductor*
D33*
G36*
X43435228Y-36664800D02*
G01*
X43447488Y-36789282D01*
X43483798Y-36908980D01*
X43542763Y-37019294D01*
X43622115Y-37115985D01*
X43718806Y-37195337D01*
X43829120Y-37254302D01*
X43948818Y-37290612D01*
X44073300Y-37302872D01*
X45073300Y-37302872D01*
X45197782Y-37290612D01*
X45317480Y-37254302D01*
X45427794Y-37195337D01*
X45524485Y-37115985D01*
X45551915Y-37082561D01*
X47151046Y-38681693D01*
X47174062Y-38709738D01*
X47285980Y-38801587D01*
X47413667Y-38869837D01*
X47552215Y-38911865D01*
X47696300Y-38926056D01*
X47732405Y-38922500D01*
X49010795Y-38922500D01*
X49046900Y-38926056D01*
X49083005Y-38922500D01*
X49190985Y-38911865D01*
X49329533Y-38869837D01*
X49457220Y-38801587D01*
X49569138Y-38709738D01*
X49592158Y-38681688D01*
X50387048Y-37886798D01*
X50442250Y-37942000D01*
X51291500Y-37942000D01*
X51291500Y-37922000D01*
X51545500Y-37922000D01*
X51545500Y-37942000D01*
X51565500Y-37942000D01*
X51565500Y-38196000D01*
X51545500Y-38196000D01*
X51545500Y-38216000D01*
X51291500Y-38216000D01*
X51291500Y-38196000D01*
X50442250Y-38196000D01*
X50283500Y-38354750D01*
X50280428Y-38819000D01*
X50292688Y-38943482D01*
X50328998Y-39063180D01*
X50387963Y-39173494D01*
X50467315Y-39270185D01*
X50564006Y-39349537D01*
X50674320Y-39408502D01*
X50794018Y-39444812D01*
X50918500Y-39457072D01*
X51132750Y-39454000D01*
X51291498Y-39295252D01*
X51291498Y-39394544D01*
X51274202Y-39420428D01*
X51269581Y-39429073D01*
X51221708Y-39544649D01*
X51218863Y-39554028D01*
X51194463Y-39676689D01*
X51193502Y-39686444D01*
X51190428Y-39749000D01*
X51190428Y-42759000D01*
X51193502Y-42821556D01*
X51194463Y-42831311D01*
X51218863Y-42953972D01*
X51221708Y-42963351D01*
X51269581Y-43078927D01*
X51274202Y-43087572D01*
X51343708Y-43191589D01*
X51349926Y-43199165D01*
X51438335Y-43287574D01*
X51445911Y-43293792D01*
X51549928Y-43363298D01*
X51558573Y-43367919D01*
X51674149Y-43415792D01*
X51683528Y-43418637D01*
X51806189Y-43443037D01*
X51815944Y-43443998D01*
X51878500Y-43447072D01*
X52194954Y-43447072D01*
X52195766Y-43455315D01*
X52204135Y-43540284D01*
X52246163Y-43678832D01*
X52314413Y-43806519D01*
X52406262Y-43918437D01*
X52434308Y-43941454D01*
X56416973Y-47924120D01*
X56258125Y-48082968D01*
X56095610Y-48326189D01*
X55983668Y-48596442D01*
X55926600Y-48883340D01*
X55926600Y-49175860D01*
X55983668Y-49462758D01*
X56095610Y-49733011D01*
X56258125Y-49976232D01*
X56272123Y-49990230D01*
X55103308Y-51159046D01*
X55075263Y-51182062D01*
X54983414Y-51293980D01*
X54942463Y-51370595D01*
X54915164Y-51421667D01*
X54873135Y-51560215D01*
X54858944Y-51704300D01*
X54862501Y-51740415D01*
X54862500Y-56987300D01*
X50470505Y-56987300D01*
X50434400Y-56983744D01*
X50398295Y-56987300D01*
X50290315Y-56997935D01*
X50151767Y-57039963D01*
X50024080Y-57108213D01*
X49912162Y-57200062D01*
X49889141Y-57228113D01*
X49866054Y-57251200D01*
X49805522Y-57251200D01*
X49756920Y-57211313D01*
X49629233Y-57143063D01*
X49490685Y-57101035D01*
X49382705Y-57090400D01*
X49346600Y-57086844D01*
X49310495Y-57090400D01*
X47282605Y-57090400D01*
X47246500Y-57086844D01*
X47210395Y-57090400D01*
X47102415Y-57101035D01*
X46963867Y-57143063D01*
X46836180Y-57211313D01*
X46724262Y-57303162D01*
X46632413Y-57415080D01*
X46587729Y-57498679D01*
X46579750Y-57490700D01*
X46482323Y-57503442D01*
X46482025Y-57503541D01*
X46469982Y-57499888D01*
X46345500Y-57487628D01*
X46115500Y-57487628D01*
X45991018Y-57499888D01*
X45976500Y-57504292D01*
X45961982Y-57499888D01*
X45837500Y-57487628D01*
X45607500Y-57487628D01*
X45572246Y-57491100D01*
X49962547Y-53100800D01*
X50673968Y-53100800D01*
X50820580Y-53247412D01*
X51006476Y-53371624D01*
X51213033Y-53457183D01*
X51432312Y-53500800D01*
X51655888Y-53500800D01*
X51875167Y-53457183D01*
X52081724Y-53371624D01*
X52267620Y-53247412D01*
X52425712Y-53089320D01*
X52549924Y-52903424D01*
X52635483Y-52696867D01*
X52679100Y-52477588D01*
X52679100Y-52254012D01*
X52635483Y-52034733D01*
X52549924Y-51828176D01*
X52425712Y-51642280D01*
X52267620Y-51484188D01*
X52081724Y-51359976D01*
X51875167Y-51274417D01*
X51655888Y-51230800D01*
X51432312Y-51230800D01*
X51213033Y-51274417D01*
X51006476Y-51359976D01*
X50820580Y-51484188D01*
X50673968Y-51630800D01*
X49694194Y-51630800D01*
X49658099Y-51627245D01*
X49622004Y-51630800D01*
X49621995Y-51630800D01*
X49514015Y-51641435D01*
X49375467Y-51683463D01*
X49247780Y-51751713D01*
X49135862Y-51843562D01*
X49112846Y-51871607D01*
X48356465Y-52627988D01*
X48246099Y-52462814D01*
X48053186Y-52269901D01*
X47826343Y-52118329D01*
X47574289Y-52013925D01*
X47306711Y-51960700D01*
X47033889Y-51960700D01*
X46766311Y-52013925D01*
X46636207Y-52067816D01*
X46630400Y-52067244D01*
X46594295Y-52070800D01*
X43513387Y-52070800D01*
X43510602Y-52061620D01*
X43451637Y-51951306D01*
X43372285Y-51854615D01*
X43312804Y-51805800D01*
X43372285Y-51756985D01*
X43451637Y-51660294D01*
X43510602Y-51549980D01*
X43546912Y-51430282D01*
X43559172Y-51305800D01*
X43556100Y-51091550D01*
X43397350Y-50932800D01*
X42423100Y-50932800D01*
X42423100Y-50952800D01*
X42169100Y-50952800D01*
X42169100Y-50932800D01*
X42149100Y-50932800D01*
X42149100Y-50678800D01*
X42169100Y-50678800D01*
X42169100Y-50658800D01*
X42423100Y-50658800D01*
X42423100Y-50678800D01*
X43397350Y-50678800D01*
X43556100Y-50520050D01*
X43559172Y-50305800D01*
X43546912Y-50181318D01*
X43510602Y-50061620D01*
X43451637Y-49951306D01*
X43372285Y-49854615D01*
X43352954Y-49838750D01*
X43383037Y-49802094D01*
X43442002Y-49691780D01*
X43444787Y-49682600D01*
X46498586Y-49682600D01*
X46514257Y-49693071D01*
X46766311Y-49797475D01*
X47033889Y-49850700D01*
X47306711Y-49850700D01*
X47574289Y-49797475D01*
X47826343Y-49693071D01*
X48053186Y-49541499D01*
X48246099Y-49348586D01*
X48397671Y-49121743D01*
X48502075Y-48869689D01*
X48555300Y-48602111D01*
X48555300Y-48329289D01*
X48502075Y-48061711D01*
X48397671Y-47809657D01*
X48246099Y-47582814D01*
X48053186Y-47389901D01*
X47826343Y-47238329D01*
X47574289Y-47133925D01*
X47306711Y-47080700D01*
X47033889Y-47080700D01*
X46766311Y-47133925D01*
X46514257Y-47238329D01*
X46287414Y-47389901D01*
X46094501Y-47582814D01*
X45942929Y-47809657D01*
X45838525Y-48061711D01*
X45808511Y-48212600D01*
X43444787Y-48212600D01*
X43442002Y-48203420D01*
X43383037Y-48093106D01*
X43303685Y-47996415D01*
X43244204Y-47947600D01*
X43303685Y-47898785D01*
X43383037Y-47802094D01*
X43442002Y-47691780D01*
X43478312Y-47572082D01*
X43490572Y-47447600D01*
X43487500Y-47233350D01*
X43328750Y-47074600D01*
X42354500Y-47074600D01*
X42354500Y-47094600D01*
X42100500Y-47094600D01*
X42100500Y-47074600D01*
X41126250Y-47074600D01*
X40967500Y-47233350D01*
X40964428Y-47447600D01*
X40976688Y-47572082D01*
X41012998Y-47691780D01*
X41071963Y-47802094D01*
X41151315Y-47898785D01*
X41210796Y-47947600D01*
X41151315Y-47996415D01*
X41071963Y-48093106D01*
X41012998Y-48203420D01*
X40976688Y-48323118D01*
X40964428Y-48447600D01*
X40964428Y-49447600D01*
X40976688Y-49572082D01*
X41012998Y-49691780D01*
X41071963Y-49802094D01*
X41151315Y-49898785D01*
X41170646Y-49914650D01*
X41140563Y-49951306D01*
X41081598Y-50061620D01*
X41045288Y-50181318D01*
X41033028Y-50305800D01*
X41033843Y-50362652D01*
X40919567Y-50315317D01*
X40700288Y-50271700D01*
X40476712Y-50271700D01*
X40257433Y-50315317D01*
X40122900Y-50371043D01*
X40122900Y-50152146D01*
X40282387Y-49992659D01*
X40310438Y-49969638D01*
X40402287Y-49857720D01*
X40457745Y-49753965D01*
X40470537Y-49730034D01*
X40512565Y-49591485D01*
X40526756Y-49447400D01*
X40523200Y-49411295D01*
X40523200Y-46447600D01*
X40964428Y-46447600D01*
X40967500Y-46661850D01*
X41126250Y-46820600D01*
X42100500Y-46820600D01*
X42100500Y-45971350D01*
X42354500Y-45971350D01*
X42354500Y-46820600D01*
X43328750Y-46820600D01*
X43487500Y-46661850D01*
X43490572Y-46447600D01*
X43478312Y-46323118D01*
X43442002Y-46203420D01*
X43383037Y-46093106D01*
X43303685Y-45996415D01*
X43206994Y-45917063D01*
X43096680Y-45858098D01*
X42976982Y-45821788D01*
X42852500Y-45809528D01*
X42513250Y-45812600D01*
X42354500Y-45971350D01*
X42100500Y-45971350D01*
X41941750Y-45812600D01*
X41602500Y-45809528D01*
X41478018Y-45821788D01*
X41358320Y-45858098D01*
X41248006Y-45917063D01*
X41151315Y-45996415D01*
X41071963Y-46093106D01*
X41012998Y-46203420D01*
X40976688Y-46323118D01*
X40964428Y-46447600D01*
X40523200Y-46447600D01*
X40523200Y-36982695D01*
X40542763Y-37019294D01*
X40622115Y-37115985D01*
X40718806Y-37195337D01*
X40829120Y-37254302D01*
X40948818Y-37290612D01*
X41073300Y-37302872D01*
X42073300Y-37302872D01*
X42197782Y-37290612D01*
X42317480Y-37254302D01*
X42427794Y-37195337D01*
X42524485Y-37115985D01*
X42603837Y-37019294D01*
X42662802Y-36908980D01*
X42699112Y-36789282D01*
X42711372Y-36664800D01*
X42711372Y-36517665D01*
X42783920Y-36478887D01*
X42895838Y-36387038D01*
X42918858Y-36358988D01*
X43435228Y-35842618D01*
X43435228Y-36664800D01*
G37*
G04 #@! TD.AperFunction*
D32*
X45229800Y-24394200D02*
X45249800Y-24394200D01*
X45249800Y-24648200D01*
X45229800Y-24648200D01*
X45229800Y-24668200D01*
X44975800Y-24668200D01*
X44975800Y-24648200D01*
X44955800Y-24648200D01*
X44955800Y-24394200D01*
X44975800Y-24394200D01*
X44975800Y-24374200D01*
X45229800Y-24374200D01*
X45229800Y-24394200D01*
G04 #@! TA.AperFunction,Conductor*
D33*
G36*
X45229800Y-24394200D02*
G01*
X45249800Y-24394200D01*
X45249800Y-24648200D01*
X45229800Y-24648200D01*
X45229800Y-24668200D01*
X44975800Y-24668200D01*
X44975800Y-24648200D01*
X44955800Y-24648200D01*
X44955800Y-24394200D01*
X44975800Y-24394200D01*
X44975800Y-24374200D01*
X45229800Y-24374200D01*
X45229800Y-24394200D01*
G37*
G04 #@! TD.AperFunction*
M02*
