G04 #@! TF.GenerationSoftware,KiCad,Pcbnew,5.1.7-a382d34a8~88~ubuntu18.04.1*
G04 #@! TF.CreationDate,2021-09-05T21:22:39+05:30*
G04 #@! TF.ProjectId,Sensor_PCB_v7,53656e73-6f72-45f5-9043-425f76372e6b,rev?*
G04 #@! TF.SameCoordinates,Original*
G04 #@! TF.FileFunction,Other,User*
%FSLAX46Y46*%
G04 Gerber Fmt 4.6, Leading zero omitted, Abs format (unit mm)*
G04 Created by KiCad (PCBNEW 5.1.7-a382d34a8~88~ubuntu18.04.1) date 2021-09-05 21:22:39*
%MOMM*%
%LPD*%
G01*
G04 APERTURE LIST*
%ADD10C,0.050000*%
G04 APERTURE END LIST*
D10*
X27062000Y-74260000D02*
X27062000Y-71160000D01*
X27062000Y-74260000D02*
X25262000Y-74260000D01*
X25262000Y-71160000D02*
X27062000Y-71160000D01*
X25262000Y-71160000D02*
X25262000Y-74260000D01*
X55611600Y-58449600D02*
X55611600Y-47249600D01*
X55611600Y-47249600D02*
X59211600Y-47249600D01*
X59211600Y-47249600D02*
X59211600Y-58449600D01*
X59211600Y-58449600D02*
X55611600Y-58449600D01*
X45834200Y-68881100D02*
X42334200Y-68881100D01*
X45834200Y-68881100D02*
X45834200Y-70631100D01*
X42334200Y-70631100D02*
X42334200Y-68881100D01*
X42334200Y-70631100D02*
X45834200Y-70631100D01*
X43107500Y-49697600D02*
X43107500Y-46197600D01*
X43107500Y-49697600D02*
X41357500Y-49697600D01*
X41357500Y-46197600D02*
X43107500Y-46197600D01*
X41357500Y-46197600D02*
X41357500Y-49697600D01*
X41426100Y-50055800D02*
X41426100Y-53555800D01*
X41426100Y-50055800D02*
X43176100Y-50055800D01*
X43176100Y-53555800D02*
X41426100Y-53555800D01*
X43176100Y-53555800D02*
X43176100Y-50055800D01*
X32660500Y-46400800D02*
X32660500Y-49900800D01*
X32660500Y-46400800D02*
X34410500Y-46400800D01*
X34410500Y-49900800D02*
X32660500Y-49900800D01*
X34410500Y-49900800D02*
X34410500Y-46400800D01*
X44222800Y-21771200D02*
X44222800Y-25271200D01*
X44222800Y-21771200D02*
X45972800Y-21771200D01*
X45972800Y-25271200D02*
X44222800Y-25271200D01*
X45972800Y-25271200D02*
X45972800Y-21771200D01*
X35506600Y-30415180D02*
X32006600Y-30415180D01*
X35506600Y-30415180D02*
X35506600Y-32165180D01*
X32006600Y-32165180D02*
X32006600Y-30415180D01*
X32006600Y-32165180D02*
X35506600Y-32165180D01*
X41698000Y-25646300D02*
X41698000Y-22146300D01*
X41698000Y-25646300D02*
X39948000Y-25646300D01*
X39948000Y-22146300D02*
X41698000Y-22146300D01*
X39948000Y-22146300D02*
X39948000Y-25646300D01*
X48630200Y-70724600D02*
X51730200Y-70724600D01*
X48630200Y-70724600D02*
X48630200Y-68924600D01*
X51730200Y-68924600D02*
X51730200Y-70724600D01*
X51730200Y-68924600D02*
X48630200Y-68924600D01*
X38763800Y-49319800D02*
X38763800Y-46219800D01*
X38763800Y-49319800D02*
X36963800Y-49319800D01*
X36963800Y-46219800D02*
X38763800Y-46219800D01*
X36963800Y-46219800D02*
X36963800Y-49319800D01*
X28056200Y-21628900D02*
X31156200Y-21628900D01*
X28056200Y-21628900D02*
X28056200Y-19828900D01*
X31156200Y-19828900D02*
X31156200Y-21628900D01*
X31156200Y-19828900D02*
X28056200Y-19828900D01*
X51339100Y-23326500D02*
X48239100Y-23326500D01*
X51339100Y-23326500D02*
X51339100Y-25126500D01*
X48239100Y-25126500D02*
X48239100Y-23326500D01*
X48239100Y-25126500D02*
X51339100Y-25126500D01*
X33253600Y-25076600D02*
X37053600Y-25076600D01*
X37053600Y-25076600D02*
X37053600Y-21476600D01*
X37053600Y-21476600D02*
X33253600Y-21476600D01*
X33253600Y-21476600D02*
X33253600Y-25076600D01*
X45373300Y-34704800D02*
X40773300Y-34704800D01*
X45373300Y-37024800D02*
X40773300Y-37024800D01*
X45373300Y-34704800D02*
X45373300Y-37024800D01*
X40773300Y-34704800D02*
X40773300Y-37024800D01*
X28350800Y-81179600D02*
X31850800Y-81179600D01*
X28350800Y-81179600D02*
X28350800Y-79429600D01*
X31850800Y-79429600D02*
X31850800Y-81179600D01*
X31850800Y-79429600D02*
X28350800Y-79429600D01*
X39114000Y-71307100D02*
X36014000Y-71307100D01*
X39114000Y-71307100D02*
X39114000Y-73107100D01*
X36014000Y-73107100D02*
X36014000Y-71307100D01*
X36014000Y-73107100D02*
X39114000Y-73107100D01*
X27687900Y-72677900D02*
X30787900Y-72677900D01*
X27687900Y-72677900D02*
X27687900Y-70877900D01*
X30787900Y-70877900D02*
X30787900Y-72677900D01*
X30787900Y-70877900D02*
X27687900Y-70877900D01*
X35673700Y-81390100D02*
X38773700Y-81390100D01*
X35673700Y-81390100D02*
X35673700Y-79590100D01*
X38773700Y-79590100D02*
X38773700Y-81390100D01*
X38773700Y-79590100D02*
X35673700Y-79590100D01*
M02*
