G04 #@! TF.GenerationSoftware,KiCad,Pcbnew,5.1.7-a382d34a8~88~ubuntu18.04.1*
G04 #@! TF.CreationDate,2021-08-20T00:55:45+05:30*
G04 #@! TF.ProjectId,BackEnd_HeavyDevice_v4,4261636b-456e-4645-9f48-656176794465,rev?*
G04 #@! TF.SameCoordinates,Original*
G04 #@! TF.FileFunction,Soldermask,Bot*
G04 #@! TF.FilePolarity,Negative*
%FSLAX46Y46*%
G04 Gerber Fmt 4.6, Leading zero omitted, Abs format (unit mm)*
G04 Created by KiCad (PCBNEW 5.1.7-a382d34a8~88~ubuntu18.04.1) date 2021-08-20 00:55:45*
%MOMM*%
%LPD*%
G01*
G04 APERTURE LIST*
%ADD10C,3.600000*%
%ADD11C,1.750000*%
%ADD12R,4.500000X2.500000*%
%ADD13O,4.500000X2.500000*%
%ADD14C,2.000000*%
%ADD15R,2.500000X2.500000*%
%ADD16C,2.500000*%
%ADD17R,0.900000X0.800000*%
%ADD18C,1.950000*%
%ADD19R,1.950000X1.950000*%
%ADD20R,1.500000X1.250000*%
%ADD21R,1.500000X1.300000*%
%ADD22R,3.100000X1.600000*%
%ADD23R,0.650000X1.560000*%
%ADD24R,1.700000X1.700000*%
%ADD25O,1.700000X1.700000*%
G04 APERTURE END LIST*
D10*
X117137000Y-101089000D03*
X113481760Y-127063520D03*
D11*
X117922000Y-129195000D03*
X123002000Y-129195000D03*
X120462000Y-129195000D03*
X117922000Y-105195000D03*
X123002000Y-105195000D03*
D12*
X146827000Y-121917000D03*
D13*
X146827000Y-116467000D03*
X146827000Y-111017000D03*
D14*
X118316000Y-133530000D03*
X123396000Y-133520000D03*
D15*
X146576000Y-99860100D03*
D16*
X146576000Y-104860100D03*
D15*
X146497000Y-127460000D03*
D16*
X146497000Y-132460000D03*
D17*
X138136000Y-129344000D03*
X138136000Y-126804000D03*
D18*
X133383000Y-133195000D03*
X121699000Y-99667000D03*
X127287000Y-133195000D03*
D19*
X138971000Y-99667000D03*
D20*
X135884000Y-105357000D03*
X138384000Y-105357000D03*
D21*
X135611000Y-103152000D03*
X132911000Y-103152000D03*
X126909000Y-105474000D03*
X129609000Y-105474000D03*
X131646000Y-128468000D03*
X134346000Y-128468000D03*
D22*
X128156000Y-113629000D03*
X137046000Y-108549000D03*
X128156000Y-111089000D03*
X137046000Y-111089000D03*
X128156000Y-108549000D03*
X137046000Y-113629000D03*
D23*
X126357000Y-102824000D03*
X128257000Y-102824000D03*
X128257000Y-100124000D03*
X127307000Y-100124000D03*
X126357000Y-100124000D03*
D22*
X136835000Y-123670000D03*
X127945000Y-118590000D03*
X136835000Y-121130000D03*
X127945000Y-121130000D03*
X136835000Y-118590000D03*
X127945000Y-123670000D03*
D24*
X113515000Y-103967000D03*
D25*
X113515000Y-106507000D03*
X113515000Y-109047000D03*
X113515000Y-111587000D03*
X113515000Y-114127000D03*
X113515000Y-116667000D03*
M02*
