G04 #@! TF.GenerationSoftware,KiCad,Pcbnew,5.1.7-a382d34a8~88~ubuntu18.04.1*
G04 #@! TF.CreationDate,2021-08-20T00:55:45+05:30*
G04 #@! TF.ProjectId,BackEnd_HeavyDevice_v4,4261636b-456e-4645-9f48-656176794465,rev?*
G04 #@! TF.SameCoordinates,Original*
G04 #@! TF.FileFunction,Legend,Top*
G04 #@! TF.FilePolarity,Positive*
%FSLAX46Y46*%
G04 Gerber Fmt 4.6, Leading zero omitted, Abs format (unit mm)*
G04 Created by KiCad (PCBNEW 5.1.7-a382d34a8~88~ubuntu18.04.1) date 2021-08-20 00:55:45*
%MOMM*%
%LPD*%
G01*
G04 APERTURE LIST*
%ADD10C,0.120000*%
%ADD11C,0.150000*%
%ADD12C,0.400000*%
%ADD13C,0.127000*%
G04 APERTURE END LIST*
D10*
X144806000Y-124047000D02*
X144806000Y-123219000D01*
X144806000Y-120517000D02*
X144806000Y-117866000D01*
X144806000Y-115067000D02*
X144806000Y-112417000D01*
X144806000Y-109617000D02*
X144806000Y-108887000D01*
X150047000Y-124047000D02*
X150047000Y-108887000D01*
X144806000Y-124047000D02*
X150047000Y-124047000D01*
X144806000Y-108887000D02*
X150047000Y-108887000D01*
X147047000Y-123949000D02*
X147047000Y-123317000D01*
X147047000Y-120517000D02*
X147047000Y-117866000D01*
X147047000Y-115067000D02*
X147047000Y-112417000D01*
X147047000Y-109617000D02*
X147047000Y-108963000D01*
X144806000Y-118117000D02*
X147047000Y-118117000D01*
X144806000Y-114817000D02*
X147047000Y-114817000D01*
D11*
X142476000Y-102360100D02*
X141976000Y-102360100D01*
X143976000Y-97360100D02*
X143976000Y-107360100D01*
X148876000Y-97360100D02*
X148876000Y-107360100D01*
X142476000Y-97360100D02*
X142476000Y-107360100D01*
X141976000Y-97360100D02*
X141976000Y-107360100D01*
X141976000Y-107360100D02*
X150640000Y-107360100D01*
X150640000Y-107360100D02*
X150640000Y-97360100D01*
X150640000Y-97360100D02*
X141976000Y-97360100D01*
X148476000Y-104860100D02*
G75*
G03*
X148476000Y-104860100I-2000000J0D01*
G01*
X148476000Y-99860100D02*
G75*
G03*
X148476000Y-99860100I-2000000J0D01*
G01*
X142397000Y-129960000D02*
X141897000Y-129960000D01*
X143897000Y-124960000D02*
X143897000Y-134960000D01*
X148797000Y-124960000D02*
X148797000Y-134960000D01*
X142397000Y-124960000D02*
X142397000Y-134960000D01*
X141897000Y-124960000D02*
X141897000Y-134960000D01*
X141897000Y-134960000D02*
X150561000Y-134960000D01*
X150561000Y-134960000D02*
X150561000Y-124960000D01*
X150561000Y-124960000D02*
X141897000Y-124960000D01*
X148397000Y-132460000D02*
G75*
G03*
X148397000Y-132460000I-2000000J0D01*
G01*
X148397000Y-127460000D02*
G75*
G03*
X148397000Y-127460000I-2000000J0D01*
G01*
D12*
X140695000Y-97889000D02*
G75*
G03*
X140695000Y-97889000I-200000J0D01*
G01*
D13*
X119429000Y-134973000D02*
X119429000Y-97293000D01*
X141241000Y-134973000D02*
X119429000Y-134973000D01*
X141257000Y-97293000D02*
X141241000Y-134973000D01*
X119429000Y-97293000D02*
X141257000Y-97293000D01*
D11*
X143302761Y-116703899D02*
X143207523Y-116656280D01*
X143112285Y-116561041D01*
X142969428Y-116418184D01*
X142874190Y-116370565D01*
X142778952Y-116370565D01*
X142826571Y-116608660D02*
X142731333Y-116561041D01*
X142636095Y-116465803D01*
X142588476Y-116275327D01*
X142588476Y-115941994D01*
X142636095Y-115751518D01*
X142731333Y-115656280D01*
X142826571Y-115608660D01*
X143017047Y-115608660D01*
X143112285Y-115656280D01*
X143207523Y-115751518D01*
X143255142Y-115941994D01*
X143255142Y-116275327D01*
X143207523Y-116465803D01*
X143112285Y-116561041D01*
X143017047Y-116608660D01*
X142826571Y-116608660D01*
X144207523Y-116608660D02*
X143636095Y-116608660D01*
X143921809Y-116608660D02*
X143921809Y-115608660D01*
X143826571Y-115751518D01*
X143731333Y-115846756D01*
X143636095Y-115894375D01*
X140128380Y-102693433D02*
X140842666Y-102693433D01*
X140985523Y-102741052D01*
X141080761Y-102836290D01*
X141128380Y-102979147D01*
X141128380Y-103074385D01*
X140128380Y-101741052D02*
X140128380Y-102217242D01*
X140604571Y-102264861D01*
X140556952Y-102217242D01*
X140509333Y-102122004D01*
X140509333Y-101883909D01*
X140556952Y-101788671D01*
X140604571Y-101741052D01*
X140699809Y-101693433D01*
X140937904Y-101693433D01*
X141033142Y-101741052D01*
X141080761Y-101788671D01*
X141128380Y-101883909D01*
X141128380Y-102122004D01*
X141080761Y-102217242D01*
X141033142Y-102264861D01*
X140049380Y-130293333D02*
X140763666Y-130293333D01*
X140906523Y-130340952D01*
X141001761Y-130436190D01*
X141049380Y-130579047D01*
X141049380Y-130674285D01*
X140144619Y-129864761D02*
X140097000Y-129817142D01*
X140049380Y-129721904D01*
X140049380Y-129483809D01*
X140097000Y-129388571D01*
X140144619Y-129340952D01*
X140239857Y-129293333D01*
X140335095Y-129293333D01*
X140477952Y-129340952D01*
X141049380Y-129912380D01*
X141049380Y-129293333D01*
X128010160Y-130803193D02*
X128010160Y-129403193D01*
X128543493Y-129403193D01*
X128676826Y-129469860D01*
X128743493Y-129536526D01*
X128810160Y-129669860D01*
X128810160Y-129869860D01*
X128743493Y-130003193D01*
X128676826Y-130069860D01*
X128543493Y-130136526D01*
X128010160Y-130136526D01*
X129343493Y-130736526D02*
X129543493Y-130803193D01*
X129876826Y-130803193D01*
X130010160Y-130736526D01*
X130076826Y-130669860D01*
X130143493Y-130536526D01*
X130143493Y-130403193D01*
X130076826Y-130269860D01*
X130010160Y-130203193D01*
X129876826Y-130136526D01*
X129610160Y-130069860D01*
X129476826Y-130003193D01*
X129410160Y-129936526D01*
X129343493Y-129803193D01*
X129343493Y-129669860D01*
X129410160Y-129536526D01*
X129476826Y-129469860D01*
X129610160Y-129403193D01*
X129943493Y-129403193D01*
X130143493Y-129469860D01*
X131476826Y-130803193D02*
X130676826Y-130803193D01*
X131076826Y-130803193D02*
X131076826Y-129403193D01*
X130943493Y-129603193D01*
X130810160Y-129736526D01*
X130676826Y-129803193D01*
M02*
