G04 #@! TF.GenerationSoftware,KiCad,Pcbnew,5.1.7-a382d34a8~88~ubuntu18.04.1*
G04 #@! TF.CreationDate,2021-08-20T00:55:45+05:30*
G04 #@! TF.ProjectId,BackEnd_HeavyDevice_v4,4261636b-456e-4645-9f48-656176794465,rev?*
G04 #@! TF.SameCoordinates,Original*
G04 #@! TF.FileFunction,Copper,L2,Bot*
G04 #@! TF.FilePolarity,Positive*
%FSLAX46Y46*%
G04 Gerber Fmt 4.6, Leading zero omitted, Abs format (unit mm)*
G04 Created by KiCad (PCBNEW 5.1.7-a382d34a8~88~ubuntu18.04.1) date 2021-08-20 00:55:45*
%MOMM*%
%LPD*%
G01*
G04 APERTURE LIST*
G04 #@! TA.AperFunction,ComponentPad*
%ADD10C,3.600000*%
G04 #@! TD*
G04 #@! TA.AperFunction,ComponentPad*
%ADD11C,1.750000*%
G04 #@! TD*
G04 #@! TA.AperFunction,ComponentPad*
%ADD12R,4.500000X2.500000*%
G04 #@! TD*
G04 #@! TA.AperFunction,ComponentPad*
%ADD13O,4.500000X2.500000*%
G04 #@! TD*
G04 #@! TA.AperFunction,ComponentPad*
%ADD14C,2.000000*%
G04 #@! TD*
G04 #@! TA.AperFunction,ComponentPad*
%ADD15R,2.500000X2.500000*%
G04 #@! TD*
G04 #@! TA.AperFunction,ComponentPad*
%ADD16C,2.500000*%
G04 #@! TD*
G04 #@! TA.AperFunction,SMDPad,CuDef*
%ADD17R,0.900000X0.800000*%
G04 #@! TD*
G04 #@! TA.AperFunction,ComponentPad*
%ADD18C,1.950000*%
G04 #@! TD*
G04 #@! TA.AperFunction,ComponentPad*
%ADD19R,1.950000X1.950000*%
G04 #@! TD*
G04 #@! TA.AperFunction,SMDPad,CuDef*
%ADD20R,1.500000X1.250000*%
G04 #@! TD*
G04 #@! TA.AperFunction,SMDPad,CuDef*
%ADD21R,1.500000X1.300000*%
G04 #@! TD*
G04 #@! TA.AperFunction,SMDPad,CuDef*
%ADD22R,3.100000X1.600000*%
G04 #@! TD*
G04 #@! TA.AperFunction,SMDPad,CuDef*
%ADD23R,0.650000X1.560000*%
G04 #@! TD*
G04 #@! TA.AperFunction,ComponentPad*
%ADD24R,1.700000X1.700000*%
G04 #@! TD*
G04 #@! TA.AperFunction,ComponentPad*
%ADD25O,1.700000X1.700000*%
G04 #@! TD*
G04 #@! TA.AperFunction,ViaPad*
%ADD26C,0.800000*%
G04 #@! TD*
G04 #@! TA.AperFunction,Conductor*
%ADD27C,0.350000*%
G04 #@! TD*
G04 #@! TA.AperFunction,Conductor*
%ADD28C,0.800000*%
G04 #@! TD*
G04 #@! TA.AperFunction,Conductor*
%ADD29C,0.254000*%
G04 #@! TD*
G04 #@! TA.AperFunction,Conductor*
%ADD30C,0.100000*%
G04 #@! TD*
G04 APERTURE END LIST*
D10*
X117137000Y-101089000D03*
X113481760Y-127063520D03*
D11*
X117922000Y-129195000D03*
X123002000Y-129195000D03*
X120462000Y-129195000D03*
X117922000Y-105195000D03*
X123002000Y-105195000D03*
D12*
X146827000Y-121917000D03*
D13*
X146827000Y-116467000D03*
X146827000Y-111017000D03*
D14*
X118316000Y-133530000D03*
X123396000Y-133520000D03*
D15*
X146576000Y-99860100D03*
D16*
X146576000Y-104860100D03*
D15*
X146497000Y-127460000D03*
D16*
X146497000Y-132460000D03*
D17*
X138136000Y-129344000D03*
X138136000Y-126804000D03*
D18*
X133383000Y-133195000D03*
X121699000Y-99667000D03*
X127287000Y-133195000D03*
D19*
X138971000Y-99667000D03*
D20*
X135884000Y-105357000D03*
X138384000Y-105357000D03*
D21*
X135611000Y-103152000D03*
X132911000Y-103152000D03*
X126909000Y-105474000D03*
X129609000Y-105474000D03*
X131646000Y-128468000D03*
X134346000Y-128468000D03*
D22*
X128156000Y-113629000D03*
X137046000Y-108549000D03*
X128156000Y-111089000D03*
X137046000Y-111089000D03*
X128156000Y-108549000D03*
X137046000Y-113629000D03*
D23*
X126357000Y-102824000D03*
X128257000Y-102824000D03*
X128257000Y-100124000D03*
X127307000Y-100124000D03*
X126357000Y-100124000D03*
D22*
X136835000Y-123670000D03*
X127945000Y-118590000D03*
X136835000Y-121130000D03*
X127945000Y-121130000D03*
X136835000Y-118590000D03*
X127945000Y-123670000D03*
D24*
X113515000Y-103967000D03*
D25*
X113515000Y-106507000D03*
X113515000Y-109047000D03*
X113515000Y-111587000D03*
X113515000Y-114127000D03*
X113515000Y-116667000D03*
D26*
X121036080Y-102191820D03*
X120957340Y-106268520D03*
X120048020Y-109402880D03*
X125923040Y-127068580D03*
X129428240Y-126933960D03*
X130763400Y-108630000D03*
X130581200Y-123670000D03*
D27*
X138971000Y-99667000D02*
X137620700Y-99667000D01*
X128257000Y-100662800D02*
X136624900Y-100662800D01*
X136624900Y-100662800D02*
X137620700Y-99667000D01*
X128257000Y-100662800D02*
X128257000Y-101279300D01*
X128257000Y-100124000D02*
X128257000Y-100662800D01*
X126357000Y-101141700D02*
X126494600Y-101279300D01*
X126494600Y-101279300D02*
X128257000Y-101279300D01*
X126357000Y-100124000D02*
X126357000Y-101141700D01*
X121036080Y-102191820D02*
X122786140Y-102191820D01*
X124853960Y-100124000D02*
X126357000Y-100124000D01*
X122786140Y-102191820D02*
X124853960Y-100124000D01*
X120957340Y-108493560D02*
X120048020Y-109402880D01*
X120957340Y-106268520D02*
X120957340Y-108493560D01*
X117922000Y-122305400D02*
X117922000Y-129195000D01*
X113515000Y-117892300D02*
X117922000Y-122299300D01*
X117922000Y-122299300D02*
X117922000Y-122305400D01*
X138971300Y-108549000D02*
X139071400Y-108649100D01*
X139071400Y-108649100D02*
X139071400Y-114517400D01*
X139071400Y-114517400D02*
X137584000Y-116004800D01*
X137584000Y-116004800D02*
X136365100Y-116004800D01*
X136365100Y-116004800D02*
X130064500Y-122305400D01*
X130064500Y-122305400D02*
X117922000Y-122305400D01*
X138883700Y-108549000D02*
X138971300Y-108549000D01*
X137046000Y-108549000D02*
X138883700Y-108549000D01*
X138384000Y-105357000D02*
X138384000Y-106357300D01*
X138971300Y-108549000D02*
X138971300Y-106944600D01*
X138971300Y-106944600D02*
X138384000Y-106357300D01*
X113515000Y-116667000D02*
X113515000Y-117892300D01*
X127307000Y-100124000D02*
X127307000Y-98968700D01*
X121699000Y-99667000D02*
X122397300Y-98968700D01*
X122397300Y-98968700D02*
X127307000Y-98968700D01*
X135884000Y-105357000D02*
X134758700Y-105357000D01*
X126909000Y-104448700D02*
X133850400Y-104448700D01*
X133850400Y-104448700D02*
X134758700Y-105357000D01*
X126909000Y-104586300D02*
X126909000Y-104448700D01*
X126909000Y-105474000D02*
X126909000Y-104586300D01*
X126357000Y-103844700D02*
X126357000Y-103896700D01*
X126357000Y-103896700D02*
X126909000Y-104448700D01*
X126357000Y-103841700D02*
X126357000Y-103844700D01*
X126357000Y-103844700D02*
X115970800Y-103844700D01*
X115970800Y-103844700D02*
X114623100Y-105192400D01*
X114623100Y-105192400D02*
X113089000Y-105192400D01*
X113089000Y-105192400D02*
X112177100Y-106104300D01*
X112177100Y-106104300D02*
X112177100Y-110249100D01*
X112177100Y-110249100D02*
X113515000Y-111587000D01*
X126357000Y-102824000D02*
X126357000Y-103841700D01*
D28*
X129293620Y-127068580D02*
X129428240Y-126933960D01*
X125923040Y-127068580D02*
X129293620Y-127068580D01*
D27*
X138136000Y-126804000D02*
X138961300Y-126804000D01*
X137009400Y-104550400D02*
X137009400Y-106139100D01*
X137009400Y-106139100D02*
X136649100Y-106499400D01*
X136649100Y-106499400D02*
X134670900Y-106499400D01*
X134670900Y-106499400D02*
X130081300Y-111089000D01*
X135611000Y-104177300D02*
X136636300Y-104177300D01*
X136636300Y-104177300D02*
X137009400Y-104550400D01*
X138961300Y-126804000D02*
X140007500Y-125757800D01*
X140007500Y-125757800D02*
X140007500Y-105033100D01*
X140007500Y-105033100D02*
X139331000Y-104356600D01*
X139331000Y-104356600D02*
X137203200Y-104356600D01*
X137203200Y-104356600D02*
X137009400Y-104550400D01*
X128156000Y-111089000D02*
X130081300Y-111089000D01*
X135611000Y-103152000D02*
X135611000Y-104177300D01*
D28*
X132911000Y-103152000D02*
X132911000Y-101801700D01*
X132911000Y-101801700D02*
X143517600Y-101801700D01*
X143517600Y-101801700D02*
X146576000Y-104860100D01*
X146497000Y-127460000D02*
X144546700Y-127460000D01*
X133383000Y-133195000D02*
X138811700Y-133195000D01*
X138811700Y-133195000D02*
X144546700Y-127460000D01*
X113515000Y-109047000D02*
X115065300Y-109047000D01*
X115065300Y-109047000D02*
X121147700Y-115129400D01*
X121147700Y-115129400D02*
X130023400Y-115129400D01*
X130023400Y-115129400D02*
X134063800Y-111089000D01*
X134063800Y-111089000D02*
X137046000Y-111089000D01*
D27*
X113515000Y-103967000D02*
X111590000Y-105892000D01*
X111590000Y-105892000D02*
X111590000Y-111423400D01*
X111590000Y-111423400D02*
X113023600Y-112857000D01*
X113023600Y-112857000D02*
X116400600Y-112857000D01*
X116400600Y-112857000D02*
X124673600Y-121130000D01*
X124673600Y-121130000D02*
X127945000Y-121130000D01*
D28*
X146827000Y-111017000D02*
X146827000Y-112967300D01*
X146827000Y-112967300D02*
X147101300Y-112967300D01*
X147101300Y-112967300D02*
X149779100Y-115645100D01*
X149779100Y-115645100D02*
X149779100Y-117320200D01*
X149779100Y-117320200D02*
X147581700Y-119517600D01*
X147581700Y-119517600D02*
X144709600Y-119517600D01*
X144709600Y-119517600D02*
X143780300Y-120446900D01*
X143780300Y-120446900D02*
X143780300Y-125614600D01*
X143780300Y-125614600D02*
X138400200Y-130994700D01*
X138400200Y-130994700D02*
X133195600Y-130994700D01*
X133195600Y-130994700D02*
X129310500Y-134879800D01*
X129310500Y-134879800D02*
X126574400Y-134879800D01*
X126574400Y-134879800D02*
X125582800Y-133888200D01*
X125582800Y-133888200D02*
X125582800Y-132473000D01*
X125582800Y-132473000D02*
X129587800Y-128468000D01*
X129587800Y-128468000D02*
X131646000Y-128468000D01*
D27*
X127945000Y-123670000D02*
X130581200Y-123670000D01*
X129609000Y-105474000D02*
X129609000Y-106499300D01*
X130763400Y-108630000D02*
X130763400Y-107653700D01*
X130763400Y-107653700D02*
X129609000Y-106499300D01*
D28*
X136835000Y-118590000D02*
X136014500Y-118590000D01*
X136014500Y-118590000D02*
X134346000Y-120258500D01*
X134346000Y-120258500D02*
X134346000Y-128468000D01*
X128156000Y-113629000D02*
X125905700Y-113629000D01*
X125905700Y-113629000D02*
X125905700Y-108098700D01*
X125905700Y-108098700D02*
X123002000Y-105195000D01*
X146827000Y-118417300D02*
X144253800Y-118417300D01*
X144253800Y-118417300D02*
X142227100Y-120444000D01*
X142227100Y-120444000D02*
X142227100Y-124804500D01*
X142227100Y-124804500D02*
X138237800Y-128793800D01*
X138237800Y-128793800D02*
X138136000Y-128793800D01*
X146827000Y-116467000D02*
X146827000Y-118417300D01*
X138136000Y-128793800D02*
X138136000Y-128243700D01*
X138136000Y-129344000D02*
X138136000Y-128793800D01*
X138136000Y-129344000D02*
X136985700Y-129344000D01*
X127287000Y-133195000D02*
X130587700Y-129894300D01*
X130587700Y-129894300D02*
X136435400Y-129894300D01*
X136435400Y-129894300D02*
X136985700Y-129344000D01*
X136835000Y-123670000D02*
X139085300Y-123670000D01*
X139085300Y-123670000D02*
X139085300Y-124795300D01*
X139085300Y-124795300D02*
X138710300Y-125170300D01*
X138710300Y-125170300D02*
X137889800Y-125170300D01*
X137889800Y-125170300D02*
X136966800Y-126093300D01*
X136966800Y-126093300D02*
X136966800Y-127487100D01*
X136966800Y-127487100D02*
X137723400Y-128243700D01*
X137723400Y-128243700D02*
X138136000Y-128243700D01*
D29*
X151160325Y-97730003D02*
X150752903Y-135529129D01*
X130156227Y-135497783D01*
X131880129Y-133773882D01*
X131956237Y-133957621D01*
X132132431Y-134221315D01*
X132356685Y-134445569D01*
X132620379Y-134621763D01*
X132913380Y-134743129D01*
X133224429Y-134805000D01*
X133541571Y-134805000D01*
X133852620Y-134743129D01*
X134145621Y-134621763D01*
X134409315Y-134445569D01*
X134624884Y-134230000D01*
X138760872Y-134230000D01*
X138811700Y-134235006D01*
X138862528Y-134230000D01*
X138862538Y-134230000D01*
X139014595Y-134215024D01*
X139209693Y-134155841D01*
X139389497Y-134059734D01*
X139547096Y-133930396D01*
X139579507Y-133890903D01*
X141196066Y-132274344D01*
X144612000Y-132274344D01*
X144612000Y-132645656D01*
X144684439Y-133009834D01*
X144826534Y-133352882D01*
X145032825Y-133661618D01*
X145295382Y-133924175D01*
X145604118Y-134130466D01*
X145947166Y-134272561D01*
X146311344Y-134345000D01*
X146682656Y-134345000D01*
X147046834Y-134272561D01*
X147389882Y-134130466D01*
X147698618Y-133924175D01*
X147961175Y-133661618D01*
X148167466Y-133352882D01*
X148309561Y-133009834D01*
X148382000Y-132645656D01*
X148382000Y-132274344D01*
X148309561Y-131910166D01*
X148167466Y-131567118D01*
X147961175Y-131258382D01*
X147698618Y-130995825D01*
X147389882Y-130789534D01*
X147046834Y-130647439D01*
X146682656Y-130575000D01*
X146311344Y-130575000D01*
X145947166Y-130647439D01*
X145604118Y-130789534D01*
X145295382Y-130995825D01*
X145032825Y-131258382D01*
X144826534Y-131567118D01*
X144684439Y-131910166D01*
X144612000Y-132274344D01*
X141196066Y-132274344D01*
X144624619Y-128845792D01*
X144657498Y-128954180D01*
X144716463Y-129064494D01*
X144795815Y-129161185D01*
X144892506Y-129240537D01*
X145002820Y-129299502D01*
X145122518Y-129335812D01*
X145247000Y-129348072D01*
X147747000Y-129348072D01*
X147871482Y-129335812D01*
X147991180Y-129299502D01*
X148101494Y-129240537D01*
X148198185Y-129161185D01*
X148277537Y-129064494D01*
X148336502Y-128954180D01*
X148372812Y-128834482D01*
X148385072Y-128710000D01*
X148385072Y-126210000D01*
X148372812Y-126085518D01*
X148336502Y-125965820D01*
X148277537Y-125855506D01*
X148198185Y-125758815D01*
X148101494Y-125679463D01*
X147991180Y-125620498D01*
X147871482Y-125584188D01*
X147747000Y-125571928D01*
X145247000Y-125571928D01*
X145122518Y-125584188D01*
X145002820Y-125620498D01*
X144892506Y-125679463D01*
X144807008Y-125749629D01*
X144815300Y-125665438D01*
X144815300Y-125665429D01*
X144820306Y-125614601D01*
X144815300Y-125563773D01*
X144815300Y-123805072D01*
X149077000Y-123805072D01*
X149201482Y-123792812D01*
X149321180Y-123756502D01*
X149431494Y-123697537D01*
X149528185Y-123618185D01*
X149607537Y-123521494D01*
X149666502Y-123411180D01*
X149702812Y-123291482D01*
X149715072Y-123167000D01*
X149715072Y-120667000D01*
X149702812Y-120542518D01*
X149666502Y-120422820D01*
X149607537Y-120312506D01*
X149528185Y-120215815D01*
X149431494Y-120136463D01*
X149321180Y-120077498D01*
X149201482Y-120041188D01*
X149077000Y-120028928D01*
X148534082Y-120028928D01*
X150475008Y-118088003D01*
X150514496Y-118055596D01*
X150570123Y-117987814D01*
X150643834Y-117897998D01*
X150739940Y-117718194D01*
X150739941Y-117718193D01*
X150799124Y-117523095D01*
X150814100Y-117371038D01*
X150814100Y-117371036D01*
X150819107Y-117320200D01*
X150814100Y-117269365D01*
X150814100Y-115695927D01*
X150819106Y-115645099D01*
X150814100Y-115594271D01*
X150814100Y-115594262D01*
X150799124Y-115442205D01*
X150739941Y-115247107D01*
X150695204Y-115163409D01*
X150643834Y-115067302D01*
X150546903Y-114949192D01*
X150514496Y-114909704D01*
X150475008Y-114877297D01*
X148408219Y-112810508D01*
X148551848Y-112766939D01*
X148879317Y-112591903D01*
X149166345Y-112356345D01*
X149401903Y-112069317D01*
X149576939Y-111741848D01*
X149684725Y-111386524D01*
X149721120Y-111017000D01*
X149684725Y-110647476D01*
X149576939Y-110292152D01*
X149401903Y-109964683D01*
X149166345Y-109677655D01*
X148879317Y-109442097D01*
X148551848Y-109267061D01*
X148196524Y-109159275D01*
X147919597Y-109132000D01*
X145734403Y-109132000D01*
X145457476Y-109159275D01*
X145102152Y-109267061D01*
X144774683Y-109442097D01*
X144487655Y-109677655D01*
X144252097Y-109964683D01*
X144077061Y-110292152D01*
X143969275Y-110647476D01*
X143932880Y-111017000D01*
X143969275Y-111386524D01*
X144077061Y-111741848D01*
X144252097Y-112069317D01*
X144487655Y-112356345D01*
X144774683Y-112591903D01*
X145102152Y-112766939D01*
X145457476Y-112874725D01*
X145734403Y-112902000D01*
X145792001Y-112902000D01*
X145792001Y-112916452D01*
X145786993Y-112967300D01*
X145806976Y-113170195D01*
X145866159Y-113365293D01*
X145962266Y-113545097D01*
X146091604Y-113702696D01*
X146249203Y-113832034D01*
X146429007Y-113928141D01*
X146624105Y-113987324D01*
X146661275Y-113990985D01*
X147252290Y-114582000D01*
X145734403Y-114582000D01*
X145457476Y-114609275D01*
X145102152Y-114717061D01*
X144774683Y-114892097D01*
X144487655Y-115127655D01*
X144252097Y-115414683D01*
X144077061Y-115742152D01*
X143969275Y-116097476D01*
X143932880Y-116467000D01*
X143969275Y-116836524D01*
X144077061Y-117191848D01*
X144180065Y-117384555D01*
X144050905Y-117397276D01*
X143855807Y-117456459D01*
X143772109Y-117501196D01*
X143676002Y-117552566D01*
X143582674Y-117629159D01*
X143518404Y-117681904D01*
X143485997Y-117721392D01*
X141531197Y-119676193D01*
X141491704Y-119708604D01*
X141362366Y-119866203D01*
X141266259Y-120046008D01*
X141207076Y-120241106D01*
X141192100Y-120393163D01*
X141192100Y-120393172D01*
X141187094Y-120444000D01*
X141192100Y-120494828D01*
X141192101Y-124375788D01*
X140817500Y-124750389D01*
X140817500Y-105072887D01*
X140821419Y-105033099D01*
X140815754Y-104975580D01*
X140805780Y-104874312D01*
X140759463Y-104721627D01*
X140684249Y-104580911D01*
X140583028Y-104457572D01*
X140552118Y-104432205D01*
X139931899Y-103811987D01*
X139906528Y-103781072D01*
X139783189Y-103679851D01*
X139642473Y-103604637D01*
X139489788Y-103558320D01*
X139370791Y-103546600D01*
X139370788Y-103546600D01*
X139331000Y-103542681D01*
X139291212Y-103546600D01*
X137242991Y-103546600D01*
X137203200Y-103542681D01*
X137163409Y-103546600D01*
X137146616Y-103548254D01*
X137088489Y-103500551D01*
X136999072Y-103452757D01*
X136999072Y-102836700D01*
X143088890Y-102836700D01*
X144730094Y-104477904D01*
X144691000Y-104674444D01*
X144691000Y-105045756D01*
X144763439Y-105409934D01*
X144905534Y-105752982D01*
X145111825Y-106061718D01*
X145374382Y-106324275D01*
X145683118Y-106530566D01*
X146026166Y-106672661D01*
X146390344Y-106745100D01*
X146761656Y-106745100D01*
X147125834Y-106672661D01*
X147468882Y-106530566D01*
X147777618Y-106324275D01*
X148040175Y-106061718D01*
X148246466Y-105752982D01*
X148388561Y-105409934D01*
X148461000Y-105045756D01*
X148461000Y-104674444D01*
X148388561Y-104310266D01*
X148246466Y-103967218D01*
X148040175Y-103658482D01*
X147777618Y-103395925D01*
X147468882Y-103189634D01*
X147125834Y-103047539D01*
X146761656Y-102975100D01*
X146390344Y-102975100D01*
X146193804Y-103014194D01*
X144285407Y-101105797D01*
X144252996Y-101066304D01*
X144095397Y-100936966D01*
X143915593Y-100840859D01*
X143720495Y-100781676D01*
X143568438Y-100766700D01*
X143568428Y-100766700D01*
X143517600Y-100761694D01*
X143466772Y-100766700D01*
X140571746Y-100766700D01*
X140571812Y-100766482D01*
X140584072Y-100642000D01*
X140584072Y-98692000D01*
X140576006Y-98610100D01*
X144687928Y-98610100D01*
X144687928Y-101110100D01*
X144700188Y-101234582D01*
X144736498Y-101354280D01*
X144795463Y-101464594D01*
X144874815Y-101561285D01*
X144971506Y-101640637D01*
X145081820Y-101699602D01*
X145201518Y-101735912D01*
X145326000Y-101748172D01*
X147826000Y-101748172D01*
X147950482Y-101735912D01*
X148070180Y-101699602D01*
X148180494Y-101640637D01*
X148277185Y-101561285D01*
X148356537Y-101464594D01*
X148415502Y-101354280D01*
X148451812Y-101234582D01*
X148464072Y-101110100D01*
X148464072Y-98610100D01*
X148451812Y-98485618D01*
X148415502Y-98365920D01*
X148356537Y-98255606D01*
X148277185Y-98158915D01*
X148180494Y-98079563D01*
X148070180Y-98020598D01*
X147950482Y-97984288D01*
X147826000Y-97972028D01*
X145326000Y-97972028D01*
X145201518Y-97984288D01*
X145081820Y-98020598D01*
X144971506Y-98079563D01*
X144874815Y-98158915D01*
X144795463Y-98255606D01*
X144736498Y-98365920D01*
X144700188Y-98485618D01*
X144687928Y-98610100D01*
X140576006Y-98610100D01*
X140571812Y-98567518D01*
X140535502Y-98447820D01*
X140476537Y-98337506D01*
X140397185Y-98240815D01*
X140300494Y-98161463D01*
X140190180Y-98102498D01*
X140070482Y-98066188D01*
X139946000Y-98053928D01*
X137996000Y-98053928D01*
X137871518Y-98066188D01*
X137751820Y-98102498D01*
X137641506Y-98161463D01*
X137544815Y-98240815D01*
X137465463Y-98337506D01*
X137406498Y-98447820D01*
X137370188Y-98567518D01*
X137357928Y-98692000D01*
X137357928Y-98900264D01*
X137309227Y-98915037D01*
X137243724Y-98950049D01*
X137168510Y-98990251D01*
X137104496Y-99042786D01*
X137045172Y-99091472D01*
X137019805Y-99122382D01*
X136289388Y-99852800D01*
X129220072Y-99852800D01*
X129220072Y-99344000D01*
X129207812Y-99219518D01*
X129171502Y-99099820D01*
X129112537Y-98989506D01*
X129033185Y-98892815D01*
X128936494Y-98813463D01*
X128826180Y-98754498D01*
X128706482Y-98718188D01*
X128582000Y-98705928D01*
X127932000Y-98705928D01*
X127807518Y-98718188D01*
X127782000Y-98725929D01*
X127756482Y-98718188D01*
X127632000Y-98705928D01*
X127592750Y-98709000D01*
X127434000Y-98867750D01*
X127434000Y-98949859D01*
X127401463Y-98989506D01*
X127342498Y-99099820D01*
X127307000Y-99216841D01*
X127271502Y-99099820D01*
X127212537Y-98989506D01*
X127180000Y-98949859D01*
X127180000Y-98867750D01*
X127021250Y-98709000D01*
X126982000Y-98705928D01*
X126857518Y-98718188D01*
X126832000Y-98725929D01*
X126806482Y-98718188D01*
X126682000Y-98705928D01*
X126032000Y-98705928D01*
X125907518Y-98718188D01*
X125787820Y-98754498D01*
X125677506Y-98813463D01*
X125580815Y-98892815D01*
X125501463Y-98989506D01*
X125442498Y-99099820D01*
X125406188Y-99219518D01*
X125396883Y-99314000D01*
X124893747Y-99314000D01*
X124853959Y-99310081D01*
X124814171Y-99314000D01*
X124814169Y-99314000D01*
X124695172Y-99325720D01*
X124542487Y-99372037D01*
X124476984Y-99407049D01*
X124401770Y-99447251D01*
X124352855Y-99487395D01*
X124278432Y-99548472D01*
X124253065Y-99579382D01*
X122450628Y-101381820D01*
X121686780Y-101381820D01*
X121526336Y-101274615D01*
X121512271Y-101268789D01*
X121762584Y-101283540D01*
X122076733Y-101240074D01*
X122376367Y-101136156D01*
X122544234Y-101046429D01*
X122636979Y-100784584D01*
X121699000Y-99846605D01*
X120761021Y-100784584D01*
X120853766Y-101046429D01*
X121081386Y-101156820D01*
X120934141Y-101156820D01*
X120734182Y-101196594D01*
X120545824Y-101274615D01*
X120376306Y-101387883D01*
X120232143Y-101532046D01*
X120118875Y-101701564D01*
X120040854Y-101889922D01*
X120001080Y-102089881D01*
X120001080Y-102293759D01*
X120040854Y-102493718D01*
X120118875Y-102682076D01*
X120232143Y-102851594D01*
X120376306Y-102995757D01*
X120434588Y-103034700D01*
X118607938Y-103034700D01*
X118689222Y-102980388D01*
X119028388Y-102641222D01*
X119294869Y-102242405D01*
X119478424Y-101799263D01*
X119572000Y-101328827D01*
X119572000Y-100849173D01*
X119478424Y-100378737D01*
X119294869Y-99935595D01*
X119157886Y-99730584D01*
X120082460Y-99730584D01*
X120125926Y-100044733D01*
X120229844Y-100344367D01*
X120319571Y-100512234D01*
X120581416Y-100604979D01*
X121519395Y-99667000D01*
X121878605Y-99667000D01*
X122816584Y-100604979D01*
X123078429Y-100512234D01*
X123216820Y-100226880D01*
X123296883Y-99920010D01*
X123315540Y-99603416D01*
X123272074Y-99289267D01*
X123168156Y-98989633D01*
X123078429Y-98821766D01*
X122816584Y-98729021D01*
X121878605Y-99667000D01*
X121519395Y-99667000D01*
X120581416Y-98729021D01*
X120319571Y-98821766D01*
X120181180Y-99107120D01*
X120101117Y-99413990D01*
X120082460Y-99730584D01*
X119157886Y-99730584D01*
X119028388Y-99536778D01*
X118689222Y-99197612D01*
X118290405Y-98931131D01*
X117847263Y-98747576D01*
X117376827Y-98654000D01*
X116897173Y-98654000D01*
X116426737Y-98747576D01*
X115983595Y-98931131D01*
X115584778Y-99197612D01*
X115245612Y-99536778D01*
X114979131Y-99935595D01*
X114795576Y-100378737D01*
X114702000Y-100849173D01*
X114702000Y-101328827D01*
X114795576Y-101799263D01*
X114979131Y-102242405D01*
X115245612Y-102641222D01*
X115584778Y-102980388D01*
X115723697Y-103073210D01*
X115694863Y-103081957D01*
X115659326Y-103092737D01*
X115546431Y-103153081D01*
X115518611Y-103167951D01*
X115395272Y-103269172D01*
X115369905Y-103300082D01*
X115003072Y-103666915D01*
X115003072Y-103117000D01*
X114990812Y-102992518D01*
X114954502Y-102872820D01*
X114895537Y-102762506D01*
X114816185Y-102665815D01*
X114719494Y-102586463D01*
X114609180Y-102527498D01*
X114489482Y-102491188D01*
X114365000Y-102478928D01*
X112665000Y-102478928D01*
X112540518Y-102491188D01*
X112420820Y-102527498D01*
X112310506Y-102586463D01*
X112213815Y-102665815D01*
X112134463Y-102762506D01*
X112075498Y-102872820D01*
X112039188Y-102992518D01*
X112026928Y-103117000D01*
X112026928Y-104309559D01*
X111045387Y-105291101D01*
X111014472Y-105316472D01*
X110979885Y-105358617D01*
X110988391Y-98549416D01*
X120761021Y-98549416D01*
X121699000Y-99487395D01*
X122636979Y-98549416D01*
X122544234Y-98287571D01*
X122258880Y-98149180D01*
X121952010Y-98069117D01*
X121635416Y-98050460D01*
X121321267Y-98093926D01*
X121021633Y-98197844D01*
X120853766Y-98287571D01*
X120761021Y-98549416D01*
X110988391Y-98549416D01*
X110990222Y-97083824D01*
X151008462Y-97066145D01*
X151160325Y-97730003D01*
G04 #@! TA.AperFunction,Conductor*
D30*
G36*
X151160325Y-97730003D02*
G01*
X150752903Y-135529129D01*
X130156227Y-135497783D01*
X131880129Y-133773882D01*
X131956237Y-133957621D01*
X132132431Y-134221315D01*
X132356685Y-134445569D01*
X132620379Y-134621763D01*
X132913380Y-134743129D01*
X133224429Y-134805000D01*
X133541571Y-134805000D01*
X133852620Y-134743129D01*
X134145621Y-134621763D01*
X134409315Y-134445569D01*
X134624884Y-134230000D01*
X138760872Y-134230000D01*
X138811700Y-134235006D01*
X138862528Y-134230000D01*
X138862538Y-134230000D01*
X139014595Y-134215024D01*
X139209693Y-134155841D01*
X139389497Y-134059734D01*
X139547096Y-133930396D01*
X139579507Y-133890903D01*
X141196066Y-132274344D01*
X144612000Y-132274344D01*
X144612000Y-132645656D01*
X144684439Y-133009834D01*
X144826534Y-133352882D01*
X145032825Y-133661618D01*
X145295382Y-133924175D01*
X145604118Y-134130466D01*
X145947166Y-134272561D01*
X146311344Y-134345000D01*
X146682656Y-134345000D01*
X147046834Y-134272561D01*
X147389882Y-134130466D01*
X147698618Y-133924175D01*
X147961175Y-133661618D01*
X148167466Y-133352882D01*
X148309561Y-133009834D01*
X148382000Y-132645656D01*
X148382000Y-132274344D01*
X148309561Y-131910166D01*
X148167466Y-131567118D01*
X147961175Y-131258382D01*
X147698618Y-130995825D01*
X147389882Y-130789534D01*
X147046834Y-130647439D01*
X146682656Y-130575000D01*
X146311344Y-130575000D01*
X145947166Y-130647439D01*
X145604118Y-130789534D01*
X145295382Y-130995825D01*
X145032825Y-131258382D01*
X144826534Y-131567118D01*
X144684439Y-131910166D01*
X144612000Y-132274344D01*
X141196066Y-132274344D01*
X144624619Y-128845792D01*
X144657498Y-128954180D01*
X144716463Y-129064494D01*
X144795815Y-129161185D01*
X144892506Y-129240537D01*
X145002820Y-129299502D01*
X145122518Y-129335812D01*
X145247000Y-129348072D01*
X147747000Y-129348072D01*
X147871482Y-129335812D01*
X147991180Y-129299502D01*
X148101494Y-129240537D01*
X148198185Y-129161185D01*
X148277537Y-129064494D01*
X148336502Y-128954180D01*
X148372812Y-128834482D01*
X148385072Y-128710000D01*
X148385072Y-126210000D01*
X148372812Y-126085518D01*
X148336502Y-125965820D01*
X148277537Y-125855506D01*
X148198185Y-125758815D01*
X148101494Y-125679463D01*
X147991180Y-125620498D01*
X147871482Y-125584188D01*
X147747000Y-125571928D01*
X145247000Y-125571928D01*
X145122518Y-125584188D01*
X145002820Y-125620498D01*
X144892506Y-125679463D01*
X144807008Y-125749629D01*
X144815300Y-125665438D01*
X144815300Y-125665429D01*
X144820306Y-125614601D01*
X144815300Y-125563773D01*
X144815300Y-123805072D01*
X149077000Y-123805072D01*
X149201482Y-123792812D01*
X149321180Y-123756502D01*
X149431494Y-123697537D01*
X149528185Y-123618185D01*
X149607537Y-123521494D01*
X149666502Y-123411180D01*
X149702812Y-123291482D01*
X149715072Y-123167000D01*
X149715072Y-120667000D01*
X149702812Y-120542518D01*
X149666502Y-120422820D01*
X149607537Y-120312506D01*
X149528185Y-120215815D01*
X149431494Y-120136463D01*
X149321180Y-120077498D01*
X149201482Y-120041188D01*
X149077000Y-120028928D01*
X148534082Y-120028928D01*
X150475008Y-118088003D01*
X150514496Y-118055596D01*
X150570123Y-117987814D01*
X150643834Y-117897998D01*
X150739940Y-117718194D01*
X150739941Y-117718193D01*
X150799124Y-117523095D01*
X150814100Y-117371038D01*
X150814100Y-117371036D01*
X150819107Y-117320200D01*
X150814100Y-117269365D01*
X150814100Y-115695927D01*
X150819106Y-115645099D01*
X150814100Y-115594271D01*
X150814100Y-115594262D01*
X150799124Y-115442205D01*
X150739941Y-115247107D01*
X150695204Y-115163409D01*
X150643834Y-115067302D01*
X150546903Y-114949192D01*
X150514496Y-114909704D01*
X150475008Y-114877297D01*
X148408219Y-112810508D01*
X148551848Y-112766939D01*
X148879317Y-112591903D01*
X149166345Y-112356345D01*
X149401903Y-112069317D01*
X149576939Y-111741848D01*
X149684725Y-111386524D01*
X149721120Y-111017000D01*
X149684725Y-110647476D01*
X149576939Y-110292152D01*
X149401903Y-109964683D01*
X149166345Y-109677655D01*
X148879317Y-109442097D01*
X148551848Y-109267061D01*
X148196524Y-109159275D01*
X147919597Y-109132000D01*
X145734403Y-109132000D01*
X145457476Y-109159275D01*
X145102152Y-109267061D01*
X144774683Y-109442097D01*
X144487655Y-109677655D01*
X144252097Y-109964683D01*
X144077061Y-110292152D01*
X143969275Y-110647476D01*
X143932880Y-111017000D01*
X143969275Y-111386524D01*
X144077061Y-111741848D01*
X144252097Y-112069317D01*
X144487655Y-112356345D01*
X144774683Y-112591903D01*
X145102152Y-112766939D01*
X145457476Y-112874725D01*
X145734403Y-112902000D01*
X145792001Y-112902000D01*
X145792001Y-112916452D01*
X145786993Y-112967300D01*
X145806976Y-113170195D01*
X145866159Y-113365293D01*
X145962266Y-113545097D01*
X146091604Y-113702696D01*
X146249203Y-113832034D01*
X146429007Y-113928141D01*
X146624105Y-113987324D01*
X146661275Y-113990985D01*
X147252290Y-114582000D01*
X145734403Y-114582000D01*
X145457476Y-114609275D01*
X145102152Y-114717061D01*
X144774683Y-114892097D01*
X144487655Y-115127655D01*
X144252097Y-115414683D01*
X144077061Y-115742152D01*
X143969275Y-116097476D01*
X143932880Y-116467000D01*
X143969275Y-116836524D01*
X144077061Y-117191848D01*
X144180065Y-117384555D01*
X144050905Y-117397276D01*
X143855807Y-117456459D01*
X143772109Y-117501196D01*
X143676002Y-117552566D01*
X143582674Y-117629159D01*
X143518404Y-117681904D01*
X143485997Y-117721392D01*
X141531197Y-119676193D01*
X141491704Y-119708604D01*
X141362366Y-119866203D01*
X141266259Y-120046008D01*
X141207076Y-120241106D01*
X141192100Y-120393163D01*
X141192100Y-120393172D01*
X141187094Y-120444000D01*
X141192100Y-120494828D01*
X141192101Y-124375788D01*
X140817500Y-124750389D01*
X140817500Y-105072887D01*
X140821419Y-105033099D01*
X140815754Y-104975580D01*
X140805780Y-104874312D01*
X140759463Y-104721627D01*
X140684249Y-104580911D01*
X140583028Y-104457572D01*
X140552118Y-104432205D01*
X139931899Y-103811987D01*
X139906528Y-103781072D01*
X139783189Y-103679851D01*
X139642473Y-103604637D01*
X139489788Y-103558320D01*
X139370791Y-103546600D01*
X139370788Y-103546600D01*
X139331000Y-103542681D01*
X139291212Y-103546600D01*
X137242991Y-103546600D01*
X137203200Y-103542681D01*
X137163409Y-103546600D01*
X137146616Y-103548254D01*
X137088489Y-103500551D01*
X136999072Y-103452757D01*
X136999072Y-102836700D01*
X143088890Y-102836700D01*
X144730094Y-104477904D01*
X144691000Y-104674444D01*
X144691000Y-105045756D01*
X144763439Y-105409934D01*
X144905534Y-105752982D01*
X145111825Y-106061718D01*
X145374382Y-106324275D01*
X145683118Y-106530566D01*
X146026166Y-106672661D01*
X146390344Y-106745100D01*
X146761656Y-106745100D01*
X147125834Y-106672661D01*
X147468882Y-106530566D01*
X147777618Y-106324275D01*
X148040175Y-106061718D01*
X148246466Y-105752982D01*
X148388561Y-105409934D01*
X148461000Y-105045756D01*
X148461000Y-104674444D01*
X148388561Y-104310266D01*
X148246466Y-103967218D01*
X148040175Y-103658482D01*
X147777618Y-103395925D01*
X147468882Y-103189634D01*
X147125834Y-103047539D01*
X146761656Y-102975100D01*
X146390344Y-102975100D01*
X146193804Y-103014194D01*
X144285407Y-101105797D01*
X144252996Y-101066304D01*
X144095397Y-100936966D01*
X143915593Y-100840859D01*
X143720495Y-100781676D01*
X143568438Y-100766700D01*
X143568428Y-100766700D01*
X143517600Y-100761694D01*
X143466772Y-100766700D01*
X140571746Y-100766700D01*
X140571812Y-100766482D01*
X140584072Y-100642000D01*
X140584072Y-98692000D01*
X140576006Y-98610100D01*
X144687928Y-98610100D01*
X144687928Y-101110100D01*
X144700188Y-101234582D01*
X144736498Y-101354280D01*
X144795463Y-101464594D01*
X144874815Y-101561285D01*
X144971506Y-101640637D01*
X145081820Y-101699602D01*
X145201518Y-101735912D01*
X145326000Y-101748172D01*
X147826000Y-101748172D01*
X147950482Y-101735912D01*
X148070180Y-101699602D01*
X148180494Y-101640637D01*
X148277185Y-101561285D01*
X148356537Y-101464594D01*
X148415502Y-101354280D01*
X148451812Y-101234582D01*
X148464072Y-101110100D01*
X148464072Y-98610100D01*
X148451812Y-98485618D01*
X148415502Y-98365920D01*
X148356537Y-98255606D01*
X148277185Y-98158915D01*
X148180494Y-98079563D01*
X148070180Y-98020598D01*
X147950482Y-97984288D01*
X147826000Y-97972028D01*
X145326000Y-97972028D01*
X145201518Y-97984288D01*
X145081820Y-98020598D01*
X144971506Y-98079563D01*
X144874815Y-98158915D01*
X144795463Y-98255606D01*
X144736498Y-98365920D01*
X144700188Y-98485618D01*
X144687928Y-98610100D01*
X140576006Y-98610100D01*
X140571812Y-98567518D01*
X140535502Y-98447820D01*
X140476537Y-98337506D01*
X140397185Y-98240815D01*
X140300494Y-98161463D01*
X140190180Y-98102498D01*
X140070482Y-98066188D01*
X139946000Y-98053928D01*
X137996000Y-98053928D01*
X137871518Y-98066188D01*
X137751820Y-98102498D01*
X137641506Y-98161463D01*
X137544815Y-98240815D01*
X137465463Y-98337506D01*
X137406498Y-98447820D01*
X137370188Y-98567518D01*
X137357928Y-98692000D01*
X137357928Y-98900264D01*
X137309227Y-98915037D01*
X137243724Y-98950049D01*
X137168510Y-98990251D01*
X137104496Y-99042786D01*
X137045172Y-99091472D01*
X137019805Y-99122382D01*
X136289388Y-99852800D01*
X129220072Y-99852800D01*
X129220072Y-99344000D01*
X129207812Y-99219518D01*
X129171502Y-99099820D01*
X129112537Y-98989506D01*
X129033185Y-98892815D01*
X128936494Y-98813463D01*
X128826180Y-98754498D01*
X128706482Y-98718188D01*
X128582000Y-98705928D01*
X127932000Y-98705928D01*
X127807518Y-98718188D01*
X127782000Y-98725929D01*
X127756482Y-98718188D01*
X127632000Y-98705928D01*
X127592750Y-98709000D01*
X127434000Y-98867750D01*
X127434000Y-98949859D01*
X127401463Y-98989506D01*
X127342498Y-99099820D01*
X127307000Y-99216841D01*
X127271502Y-99099820D01*
X127212537Y-98989506D01*
X127180000Y-98949859D01*
X127180000Y-98867750D01*
X127021250Y-98709000D01*
X126982000Y-98705928D01*
X126857518Y-98718188D01*
X126832000Y-98725929D01*
X126806482Y-98718188D01*
X126682000Y-98705928D01*
X126032000Y-98705928D01*
X125907518Y-98718188D01*
X125787820Y-98754498D01*
X125677506Y-98813463D01*
X125580815Y-98892815D01*
X125501463Y-98989506D01*
X125442498Y-99099820D01*
X125406188Y-99219518D01*
X125396883Y-99314000D01*
X124893747Y-99314000D01*
X124853959Y-99310081D01*
X124814171Y-99314000D01*
X124814169Y-99314000D01*
X124695172Y-99325720D01*
X124542487Y-99372037D01*
X124476984Y-99407049D01*
X124401770Y-99447251D01*
X124352855Y-99487395D01*
X124278432Y-99548472D01*
X124253065Y-99579382D01*
X122450628Y-101381820D01*
X121686780Y-101381820D01*
X121526336Y-101274615D01*
X121512271Y-101268789D01*
X121762584Y-101283540D01*
X122076733Y-101240074D01*
X122376367Y-101136156D01*
X122544234Y-101046429D01*
X122636979Y-100784584D01*
X121699000Y-99846605D01*
X120761021Y-100784584D01*
X120853766Y-101046429D01*
X121081386Y-101156820D01*
X120934141Y-101156820D01*
X120734182Y-101196594D01*
X120545824Y-101274615D01*
X120376306Y-101387883D01*
X120232143Y-101532046D01*
X120118875Y-101701564D01*
X120040854Y-101889922D01*
X120001080Y-102089881D01*
X120001080Y-102293759D01*
X120040854Y-102493718D01*
X120118875Y-102682076D01*
X120232143Y-102851594D01*
X120376306Y-102995757D01*
X120434588Y-103034700D01*
X118607938Y-103034700D01*
X118689222Y-102980388D01*
X119028388Y-102641222D01*
X119294869Y-102242405D01*
X119478424Y-101799263D01*
X119572000Y-101328827D01*
X119572000Y-100849173D01*
X119478424Y-100378737D01*
X119294869Y-99935595D01*
X119157886Y-99730584D01*
X120082460Y-99730584D01*
X120125926Y-100044733D01*
X120229844Y-100344367D01*
X120319571Y-100512234D01*
X120581416Y-100604979D01*
X121519395Y-99667000D01*
X121878605Y-99667000D01*
X122816584Y-100604979D01*
X123078429Y-100512234D01*
X123216820Y-100226880D01*
X123296883Y-99920010D01*
X123315540Y-99603416D01*
X123272074Y-99289267D01*
X123168156Y-98989633D01*
X123078429Y-98821766D01*
X122816584Y-98729021D01*
X121878605Y-99667000D01*
X121519395Y-99667000D01*
X120581416Y-98729021D01*
X120319571Y-98821766D01*
X120181180Y-99107120D01*
X120101117Y-99413990D01*
X120082460Y-99730584D01*
X119157886Y-99730584D01*
X119028388Y-99536778D01*
X118689222Y-99197612D01*
X118290405Y-98931131D01*
X117847263Y-98747576D01*
X117376827Y-98654000D01*
X116897173Y-98654000D01*
X116426737Y-98747576D01*
X115983595Y-98931131D01*
X115584778Y-99197612D01*
X115245612Y-99536778D01*
X114979131Y-99935595D01*
X114795576Y-100378737D01*
X114702000Y-100849173D01*
X114702000Y-101328827D01*
X114795576Y-101799263D01*
X114979131Y-102242405D01*
X115245612Y-102641222D01*
X115584778Y-102980388D01*
X115723697Y-103073210D01*
X115694863Y-103081957D01*
X115659326Y-103092737D01*
X115546431Y-103153081D01*
X115518611Y-103167951D01*
X115395272Y-103269172D01*
X115369905Y-103300082D01*
X115003072Y-103666915D01*
X115003072Y-103117000D01*
X114990812Y-102992518D01*
X114954502Y-102872820D01*
X114895537Y-102762506D01*
X114816185Y-102665815D01*
X114719494Y-102586463D01*
X114609180Y-102527498D01*
X114489482Y-102491188D01*
X114365000Y-102478928D01*
X112665000Y-102478928D01*
X112540518Y-102491188D01*
X112420820Y-102527498D01*
X112310506Y-102586463D01*
X112213815Y-102665815D01*
X112134463Y-102762506D01*
X112075498Y-102872820D01*
X112039188Y-102992518D01*
X112026928Y-103117000D01*
X112026928Y-104309559D01*
X111045387Y-105291101D01*
X111014472Y-105316472D01*
X110979885Y-105358617D01*
X110988391Y-98549416D01*
X120761021Y-98549416D01*
X121699000Y-99487395D01*
X122636979Y-98549416D01*
X122544234Y-98287571D01*
X122258880Y-98149180D01*
X121952010Y-98069117D01*
X121635416Y-98050460D01*
X121321267Y-98093926D01*
X121021633Y-98197844D01*
X120853766Y-98287571D01*
X120761021Y-98549416D01*
X110988391Y-98549416D01*
X110990222Y-97083824D01*
X151008462Y-97066145D01*
X151160325Y-97730003D01*
G37*
G04 #@! TD.AperFunction*
D29*
X111014473Y-111998928D02*
X111045383Y-112024295D01*
X112297410Y-113276323D01*
X112199010Y-113423589D01*
X112087068Y-113693842D01*
X112030000Y-113980740D01*
X112030000Y-114273260D01*
X112087068Y-114560158D01*
X112199010Y-114830411D01*
X112361525Y-115073632D01*
X112568368Y-115280475D01*
X112750534Y-115402195D01*
X112633645Y-115471822D01*
X112417412Y-115666731D01*
X112243359Y-115900080D01*
X112118175Y-116162901D01*
X112073524Y-116310110D01*
X112194845Y-116540000D01*
X113388000Y-116540000D01*
X113388000Y-116520000D01*
X113642000Y-116520000D01*
X113642000Y-116540000D01*
X114835155Y-116540000D01*
X114956476Y-116310110D01*
X114911825Y-116162901D01*
X114786641Y-115900080D01*
X114612588Y-115666731D01*
X114396355Y-115471822D01*
X114279466Y-115402195D01*
X114461632Y-115280475D01*
X114668475Y-115073632D01*
X114830990Y-114830411D01*
X114942932Y-114560158D01*
X115000000Y-114273260D01*
X115000000Y-113980740D01*
X114942932Y-113693842D01*
X114931814Y-113667000D01*
X116065088Y-113667000D01*
X124072705Y-121674618D01*
X124098072Y-121705528D01*
X124221411Y-121806749D01*
X124362127Y-121881963D01*
X124514812Y-121928280D01*
X124633809Y-121940000D01*
X124633812Y-121940000D01*
X124673600Y-121943919D01*
X124713388Y-121940000D01*
X125757913Y-121940000D01*
X125769188Y-122054482D01*
X125805498Y-122174180D01*
X125864463Y-122284494D01*
X125943815Y-122381185D01*
X125966741Y-122400000D01*
X125943815Y-122418815D01*
X125864463Y-122515506D01*
X125805498Y-122625820D01*
X125769188Y-122745518D01*
X125756928Y-122870000D01*
X125756928Y-124470000D01*
X125769188Y-124594482D01*
X125805498Y-124714180D01*
X125864463Y-124824494D01*
X125943815Y-124921185D01*
X126040506Y-125000537D01*
X126150820Y-125059502D01*
X126270518Y-125095812D01*
X126395000Y-125108072D01*
X129495000Y-125108072D01*
X129619482Y-125095812D01*
X129739180Y-125059502D01*
X129849494Y-125000537D01*
X129946185Y-124921185D01*
X130025537Y-124824494D01*
X130084502Y-124714180D01*
X130119439Y-124599008D01*
X130279302Y-124665226D01*
X130479261Y-124705000D01*
X130683139Y-124705000D01*
X130883098Y-124665226D01*
X131071456Y-124587205D01*
X131240974Y-124473937D01*
X131385137Y-124329774D01*
X131498405Y-124160256D01*
X131576426Y-123971898D01*
X131616200Y-123771939D01*
X131616200Y-123568061D01*
X131576426Y-123368102D01*
X131498405Y-123179744D01*
X131385137Y-123010226D01*
X131240974Y-122866063D01*
X131071456Y-122752795D01*
X130883098Y-122674774D01*
X130683139Y-122635000D01*
X130479261Y-122635000D01*
X130279302Y-122674774D01*
X130119439Y-122740992D01*
X130084502Y-122625820D01*
X130025537Y-122515506D01*
X129946185Y-122418815D01*
X129923259Y-122400000D01*
X129946185Y-122381185D01*
X130025537Y-122284494D01*
X130084502Y-122174180D01*
X130120812Y-122054482D01*
X130133072Y-121930000D01*
X130133072Y-120330000D01*
X130120812Y-120205518D01*
X130084502Y-120085820D01*
X130025537Y-119975506D01*
X129946185Y-119878815D01*
X129923259Y-119860000D01*
X129946185Y-119841185D01*
X130025537Y-119744494D01*
X130084502Y-119634180D01*
X130120812Y-119514482D01*
X130133072Y-119390000D01*
X130133072Y-117790000D01*
X130120812Y-117665518D01*
X130084502Y-117545820D01*
X130025537Y-117435506D01*
X129946185Y-117338815D01*
X129849494Y-117259463D01*
X129739180Y-117200498D01*
X129619482Y-117164188D01*
X129495000Y-117151928D01*
X126395000Y-117151928D01*
X126270518Y-117164188D01*
X126150820Y-117200498D01*
X126040506Y-117259463D01*
X125943815Y-117338815D01*
X125864463Y-117435506D01*
X125805498Y-117545820D01*
X125769188Y-117665518D01*
X125756928Y-117790000D01*
X125756928Y-119390000D01*
X125769188Y-119514482D01*
X125805498Y-119634180D01*
X125864463Y-119744494D01*
X125943815Y-119841185D01*
X125966741Y-119860000D01*
X125943815Y-119878815D01*
X125864463Y-119975506D01*
X125805498Y-120085820D01*
X125769188Y-120205518D01*
X125757913Y-120320000D01*
X125009113Y-120320000D01*
X120792263Y-116103150D01*
X120944805Y-116149424D01*
X121096862Y-116164400D01*
X121096865Y-116164400D01*
X121147700Y-116169407D01*
X121198535Y-116164400D01*
X129972572Y-116164400D01*
X130023400Y-116169406D01*
X130074228Y-116164400D01*
X130074238Y-116164400D01*
X130226295Y-116149424D01*
X130421393Y-116090241D01*
X130601197Y-115994134D01*
X130758796Y-115864796D01*
X130791207Y-115825303D01*
X134492511Y-112124000D01*
X134903713Y-112124000D01*
X134906498Y-112133180D01*
X134965463Y-112243494D01*
X135044815Y-112340185D01*
X135067741Y-112359000D01*
X135044815Y-112377815D01*
X134965463Y-112474506D01*
X134906498Y-112584820D01*
X134870188Y-112704518D01*
X134857928Y-112829000D01*
X134857928Y-114429000D01*
X134870188Y-114553482D01*
X134906498Y-114673180D01*
X134965463Y-114783494D01*
X135044815Y-114880185D01*
X135141506Y-114959537D01*
X135251820Y-115018502D01*
X135371518Y-115054812D01*
X135496000Y-115067072D01*
X138596000Y-115067072D01*
X138720482Y-115054812D01*
X138840180Y-115018502D01*
X138950494Y-114959537D01*
X139047185Y-114880185D01*
X139126537Y-114783494D01*
X139185502Y-114673180D01*
X139197501Y-114633626D01*
X139197500Y-122641044D01*
X139136138Y-122635000D01*
X139085300Y-122629993D01*
X139034462Y-122635000D01*
X138977287Y-122635000D01*
X138974502Y-122625820D01*
X138915537Y-122515506D01*
X138836185Y-122418815D01*
X138813259Y-122400000D01*
X138836185Y-122381185D01*
X138915537Y-122284494D01*
X138974502Y-122174180D01*
X139010812Y-122054482D01*
X139023072Y-121930000D01*
X139023072Y-120330000D01*
X139010812Y-120205518D01*
X138974502Y-120085820D01*
X138915537Y-119975506D01*
X138836185Y-119878815D01*
X138813259Y-119860000D01*
X138836185Y-119841185D01*
X138915537Y-119744494D01*
X138974502Y-119634180D01*
X139010812Y-119514482D01*
X139023072Y-119390000D01*
X139023072Y-117790000D01*
X139010812Y-117665518D01*
X138974502Y-117545820D01*
X138915537Y-117435506D01*
X138836185Y-117338815D01*
X138739494Y-117259463D01*
X138629180Y-117200498D01*
X138509482Y-117164188D01*
X138385000Y-117151928D01*
X135285000Y-117151928D01*
X135160518Y-117164188D01*
X135040820Y-117200498D01*
X134930506Y-117259463D01*
X134833815Y-117338815D01*
X134754463Y-117435506D01*
X134695498Y-117545820D01*
X134659188Y-117665518D01*
X134646928Y-117790000D01*
X134646928Y-118493861D01*
X133650097Y-119490693D01*
X133610604Y-119523104D01*
X133481266Y-119680703D01*
X133385159Y-119860508D01*
X133325976Y-120055606D01*
X133311000Y-120207663D01*
X133311000Y-120207672D01*
X133305994Y-120258500D01*
X133311000Y-120309328D01*
X133311001Y-127250317D01*
X133241506Y-127287463D01*
X133144815Y-127366815D01*
X133065463Y-127463506D01*
X133006498Y-127573820D01*
X132996000Y-127608427D01*
X132985502Y-127573820D01*
X132926537Y-127463506D01*
X132847185Y-127366815D01*
X132750494Y-127287463D01*
X132640180Y-127228498D01*
X132520482Y-127192188D01*
X132396000Y-127179928D01*
X130896000Y-127179928D01*
X130771518Y-127192188D01*
X130651820Y-127228498D01*
X130541506Y-127287463D01*
X130444815Y-127366815D01*
X130390499Y-127433000D01*
X130339576Y-127433000D01*
X130345445Y-127424216D01*
X130365004Y-127376996D01*
X130389080Y-127331953D01*
X130403905Y-127283082D01*
X130423466Y-127235858D01*
X130433437Y-127185728D01*
X130448263Y-127136855D01*
X130453269Y-127086027D01*
X130463240Y-127035899D01*
X130463240Y-126984789D01*
X130468246Y-126933961D01*
X130463240Y-126883133D01*
X130463240Y-126832021D01*
X130453269Y-126781892D01*
X130448263Y-126731066D01*
X130433438Y-126682194D01*
X130423466Y-126632062D01*
X130403905Y-126584837D01*
X130389080Y-126535967D01*
X130365004Y-126490924D01*
X130345445Y-126443704D01*
X130317053Y-126401212D01*
X130292974Y-126356163D01*
X130260570Y-126316679D01*
X130232177Y-126274186D01*
X130196035Y-126238044D01*
X130163635Y-126198565D01*
X130124156Y-126166165D01*
X130088014Y-126130023D01*
X130045521Y-126101630D01*
X130006037Y-126069226D01*
X129960988Y-126045147D01*
X129918496Y-126016755D01*
X129871276Y-125997196D01*
X129826233Y-125973120D01*
X129777363Y-125958295D01*
X129730138Y-125938734D01*
X129680006Y-125928762D01*
X129631134Y-125913937D01*
X129580308Y-125908931D01*
X129530179Y-125898960D01*
X129479067Y-125898960D01*
X129428239Y-125893954D01*
X129377411Y-125898960D01*
X129326301Y-125898960D01*
X129276173Y-125908931D01*
X129225345Y-125913937D01*
X129176472Y-125928763D01*
X129126342Y-125938734D01*
X129079118Y-125958295D01*
X129030247Y-125973120D01*
X128985204Y-125997196D01*
X128937984Y-126016755D01*
X128912804Y-126033580D01*
X125821101Y-126033580D01*
X125770983Y-126043549D01*
X125720145Y-126048556D01*
X125671263Y-126063384D01*
X125621142Y-126073354D01*
X125573927Y-126092911D01*
X125525047Y-126107739D01*
X125479998Y-126131818D01*
X125432784Y-126151375D01*
X125390294Y-126179766D01*
X125345243Y-126203846D01*
X125305756Y-126236252D01*
X125263266Y-126264643D01*
X125227132Y-126300777D01*
X125187644Y-126333184D01*
X125155237Y-126372672D01*
X125119103Y-126408806D01*
X125090712Y-126451296D01*
X125058306Y-126490783D01*
X125034226Y-126535834D01*
X125005835Y-126578324D01*
X124986278Y-126625538D01*
X124962199Y-126670587D01*
X124947371Y-126719467D01*
X124927814Y-126766682D01*
X124917844Y-126816803D01*
X124903016Y-126865685D01*
X124898009Y-126916523D01*
X124888040Y-126966641D01*
X124888040Y-127017742D01*
X124883033Y-127068580D01*
X124888040Y-127119418D01*
X124888040Y-127170519D01*
X124898009Y-127220637D01*
X124903016Y-127271475D01*
X124917844Y-127320357D01*
X124927814Y-127370478D01*
X124947371Y-127417693D01*
X124962199Y-127466573D01*
X124986278Y-127511622D01*
X125005835Y-127558836D01*
X125034226Y-127601326D01*
X125058306Y-127646377D01*
X125090712Y-127685864D01*
X125119103Y-127728354D01*
X125155237Y-127764488D01*
X125187644Y-127803976D01*
X125227132Y-127836383D01*
X125263266Y-127872517D01*
X125305756Y-127900908D01*
X125345243Y-127933314D01*
X125390294Y-127957394D01*
X125432784Y-127985785D01*
X125479998Y-128005342D01*
X125525047Y-128029421D01*
X125573927Y-128044249D01*
X125621142Y-128063806D01*
X125671263Y-128073776D01*
X125720145Y-128088604D01*
X125770983Y-128093611D01*
X125821101Y-128103580D01*
X128488509Y-128103580D01*
X124886892Y-131705197D01*
X124847405Y-131737604D01*
X124814998Y-131777092D01*
X124814997Y-131777093D01*
X124718066Y-131895203D01*
X124621960Y-132075007D01*
X124562777Y-132270105D01*
X124553414Y-132365175D01*
X124438252Y-132250013D01*
X124170463Y-132071082D01*
X123872912Y-131947832D01*
X123557033Y-131885000D01*
X123234967Y-131885000D01*
X122919088Y-131947832D01*
X122621537Y-132071082D01*
X122353748Y-132250013D01*
X122126013Y-132477748D01*
X121947082Y-132745537D01*
X121823832Y-133043088D01*
X121761000Y-133358967D01*
X121761000Y-133681033D01*
X121823832Y-133996912D01*
X121947082Y-134294463D01*
X122126013Y-134562252D01*
X122353748Y-134789987D01*
X122621537Y-134968918D01*
X122919088Y-135092168D01*
X123234967Y-135155000D01*
X123557033Y-135155000D01*
X123872912Y-135092168D01*
X124170463Y-134968918D01*
X124438252Y-134789987D01*
X124665987Y-134562252D01*
X124724811Y-134474216D01*
X124847404Y-134623596D01*
X124886897Y-134656007D01*
X125721924Y-135491035D01*
X110942272Y-135468542D01*
X110944894Y-133368967D01*
X116681000Y-133368967D01*
X116681000Y-133691033D01*
X116743832Y-134006912D01*
X116867082Y-134304463D01*
X117046013Y-134572252D01*
X117273748Y-134799987D01*
X117541537Y-134978918D01*
X117839088Y-135102168D01*
X118154967Y-135165000D01*
X118477033Y-135165000D01*
X118792912Y-135102168D01*
X119090463Y-134978918D01*
X119358252Y-134799987D01*
X119585987Y-134572252D01*
X119764918Y-134304463D01*
X119888168Y-134006912D01*
X119951000Y-133691033D01*
X119951000Y-133368967D01*
X119888168Y-133053088D01*
X119764918Y-132755537D01*
X119585987Y-132487748D01*
X119358252Y-132260013D01*
X119090463Y-132081082D01*
X118792912Y-131957832D01*
X118477033Y-131895000D01*
X118154967Y-131895000D01*
X117839088Y-131957832D01*
X117541537Y-132081082D01*
X117273748Y-132260013D01*
X117046013Y-132487748D01*
X116867082Y-132755537D01*
X116743832Y-133053088D01*
X116681000Y-133368967D01*
X110944894Y-133368967D01*
X110948800Y-130241240D01*
X117055365Y-130241240D01*
X117136025Y-130492868D01*
X117404329Y-130621267D01*
X117692526Y-130694855D01*
X117989543Y-130710804D01*
X118283963Y-130668501D01*
X118564474Y-130569572D01*
X118707975Y-130492868D01*
X118788635Y-130241240D01*
X117922000Y-129374605D01*
X117055365Y-130241240D01*
X110948800Y-130241240D01*
X110953070Y-126823693D01*
X111046760Y-126823693D01*
X111046760Y-127303347D01*
X111140336Y-127773783D01*
X111323891Y-128216925D01*
X111590372Y-128615742D01*
X111929538Y-128954908D01*
X112328355Y-129221389D01*
X112771497Y-129404944D01*
X113241933Y-129498520D01*
X113721587Y-129498520D01*
X114192023Y-129404944D01*
X114535810Y-129262543D01*
X116406196Y-129262543D01*
X116448499Y-129556963D01*
X116547428Y-129837474D01*
X116624132Y-129980975D01*
X116875760Y-130061635D01*
X117742395Y-129195000D01*
X118101605Y-129195000D01*
X118968240Y-130061635D01*
X119179712Y-129993847D01*
X119289107Y-130157569D01*
X119499431Y-130367893D01*
X119746747Y-130533144D01*
X120021549Y-130646971D01*
X120313278Y-130705000D01*
X120610722Y-130705000D01*
X120902451Y-130646971D01*
X121177253Y-130533144D01*
X121424569Y-130367893D01*
X121634893Y-130157569D01*
X121732000Y-130012238D01*
X121829107Y-130157569D01*
X122039431Y-130367893D01*
X122286747Y-130533144D01*
X122561549Y-130646971D01*
X122853278Y-130705000D01*
X123150722Y-130705000D01*
X123442451Y-130646971D01*
X123717253Y-130533144D01*
X123964569Y-130367893D01*
X124174893Y-130157569D01*
X124340144Y-129910253D01*
X124453971Y-129635451D01*
X124512000Y-129343722D01*
X124512000Y-129046278D01*
X124453971Y-128754549D01*
X124340144Y-128479747D01*
X124174893Y-128232431D01*
X123964569Y-128022107D01*
X123717253Y-127856856D01*
X123442451Y-127743029D01*
X123150722Y-127685000D01*
X122853278Y-127685000D01*
X122561549Y-127743029D01*
X122286747Y-127856856D01*
X122039431Y-128022107D01*
X121829107Y-128232431D01*
X121732000Y-128377762D01*
X121634893Y-128232431D01*
X121424569Y-128022107D01*
X121177253Y-127856856D01*
X120902451Y-127743029D01*
X120610722Y-127685000D01*
X120313278Y-127685000D01*
X120021549Y-127743029D01*
X119746747Y-127856856D01*
X119499431Y-128022107D01*
X119289107Y-128232431D01*
X119179712Y-128396153D01*
X118968240Y-128328365D01*
X118101605Y-129195000D01*
X117742395Y-129195000D01*
X116875760Y-128328365D01*
X116624132Y-128409025D01*
X116495733Y-128677329D01*
X116422145Y-128965526D01*
X116406196Y-129262543D01*
X114535810Y-129262543D01*
X114635165Y-129221389D01*
X115033982Y-128954908D01*
X115373148Y-128615742D01*
X115639629Y-128216925D01*
X115667863Y-128148760D01*
X117055365Y-128148760D01*
X117922000Y-129015395D01*
X118788635Y-128148760D01*
X118707975Y-127897132D01*
X118439671Y-127768733D01*
X118151474Y-127695145D01*
X117854457Y-127679196D01*
X117560037Y-127721499D01*
X117279526Y-127820428D01*
X117136025Y-127897132D01*
X117055365Y-128148760D01*
X115667863Y-128148760D01*
X115823184Y-127773783D01*
X115916760Y-127303347D01*
X115916760Y-126823693D01*
X115823184Y-126353257D01*
X115639629Y-125910115D01*
X115373148Y-125511298D01*
X115033982Y-125172132D01*
X114635165Y-124905651D01*
X114192023Y-124722096D01*
X113721587Y-124628520D01*
X113241933Y-124628520D01*
X112771497Y-124722096D01*
X112328355Y-124905651D01*
X111929538Y-125172132D01*
X111590372Y-125511298D01*
X111323891Y-125910115D01*
X111140336Y-126353257D01*
X111046760Y-126823693D01*
X110953070Y-126823693D01*
X110965312Y-117023890D01*
X112073524Y-117023890D01*
X112118175Y-117171099D01*
X112243359Y-117433920D01*
X112417412Y-117667269D01*
X112633645Y-117862178D01*
X112883748Y-118011157D01*
X113158109Y-118108481D01*
X113388000Y-117987814D01*
X113388000Y-116794000D01*
X113642000Y-116794000D01*
X113642000Y-117987814D01*
X113871891Y-118108481D01*
X114146252Y-118011157D01*
X114396355Y-117862178D01*
X114612588Y-117667269D01*
X114786641Y-117433920D01*
X114911825Y-117171099D01*
X114956476Y-117023890D01*
X114835155Y-116794000D01*
X113642000Y-116794000D01*
X113388000Y-116794000D01*
X112194845Y-116794000D01*
X112073524Y-117023890D01*
X110965312Y-117023890D01*
X110971655Y-111946754D01*
X111014473Y-111998928D01*
G04 #@! TA.AperFunction,Conductor*
D30*
G36*
X111014473Y-111998928D02*
G01*
X111045383Y-112024295D01*
X112297410Y-113276323D01*
X112199010Y-113423589D01*
X112087068Y-113693842D01*
X112030000Y-113980740D01*
X112030000Y-114273260D01*
X112087068Y-114560158D01*
X112199010Y-114830411D01*
X112361525Y-115073632D01*
X112568368Y-115280475D01*
X112750534Y-115402195D01*
X112633645Y-115471822D01*
X112417412Y-115666731D01*
X112243359Y-115900080D01*
X112118175Y-116162901D01*
X112073524Y-116310110D01*
X112194845Y-116540000D01*
X113388000Y-116540000D01*
X113388000Y-116520000D01*
X113642000Y-116520000D01*
X113642000Y-116540000D01*
X114835155Y-116540000D01*
X114956476Y-116310110D01*
X114911825Y-116162901D01*
X114786641Y-115900080D01*
X114612588Y-115666731D01*
X114396355Y-115471822D01*
X114279466Y-115402195D01*
X114461632Y-115280475D01*
X114668475Y-115073632D01*
X114830990Y-114830411D01*
X114942932Y-114560158D01*
X115000000Y-114273260D01*
X115000000Y-113980740D01*
X114942932Y-113693842D01*
X114931814Y-113667000D01*
X116065088Y-113667000D01*
X124072705Y-121674618D01*
X124098072Y-121705528D01*
X124221411Y-121806749D01*
X124362127Y-121881963D01*
X124514812Y-121928280D01*
X124633809Y-121940000D01*
X124633812Y-121940000D01*
X124673600Y-121943919D01*
X124713388Y-121940000D01*
X125757913Y-121940000D01*
X125769188Y-122054482D01*
X125805498Y-122174180D01*
X125864463Y-122284494D01*
X125943815Y-122381185D01*
X125966741Y-122400000D01*
X125943815Y-122418815D01*
X125864463Y-122515506D01*
X125805498Y-122625820D01*
X125769188Y-122745518D01*
X125756928Y-122870000D01*
X125756928Y-124470000D01*
X125769188Y-124594482D01*
X125805498Y-124714180D01*
X125864463Y-124824494D01*
X125943815Y-124921185D01*
X126040506Y-125000537D01*
X126150820Y-125059502D01*
X126270518Y-125095812D01*
X126395000Y-125108072D01*
X129495000Y-125108072D01*
X129619482Y-125095812D01*
X129739180Y-125059502D01*
X129849494Y-125000537D01*
X129946185Y-124921185D01*
X130025537Y-124824494D01*
X130084502Y-124714180D01*
X130119439Y-124599008D01*
X130279302Y-124665226D01*
X130479261Y-124705000D01*
X130683139Y-124705000D01*
X130883098Y-124665226D01*
X131071456Y-124587205D01*
X131240974Y-124473937D01*
X131385137Y-124329774D01*
X131498405Y-124160256D01*
X131576426Y-123971898D01*
X131616200Y-123771939D01*
X131616200Y-123568061D01*
X131576426Y-123368102D01*
X131498405Y-123179744D01*
X131385137Y-123010226D01*
X131240974Y-122866063D01*
X131071456Y-122752795D01*
X130883098Y-122674774D01*
X130683139Y-122635000D01*
X130479261Y-122635000D01*
X130279302Y-122674774D01*
X130119439Y-122740992D01*
X130084502Y-122625820D01*
X130025537Y-122515506D01*
X129946185Y-122418815D01*
X129923259Y-122400000D01*
X129946185Y-122381185D01*
X130025537Y-122284494D01*
X130084502Y-122174180D01*
X130120812Y-122054482D01*
X130133072Y-121930000D01*
X130133072Y-120330000D01*
X130120812Y-120205518D01*
X130084502Y-120085820D01*
X130025537Y-119975506D01*
X129946185Y-119878815D01*
X129923259Y-119860000D01*
X129946185Y-119841185D01*
X130025537Y-119744494D01*
X130084502Y-119634180D01*
X130120812Y-119514482D01*
X130133072Y-119390000D01*
X130133072Y-117790000D01*
X130120812Y-117665518D01*
X130084502Y-117545820D01*
X130025537Y-117435506D01*
X129946185Y-117338815D01*
X129849494Y-117259463D01*
X129739180Y-117200498D01*
X129619482Y-117164188D01*
X129495000Y-117151928D01*
X126395000Y-117151928D01*
X126270518Y-117164188D01*
X126150820Y-117200498D01*
X126040506Y-117259463D01*
X125943815Y-117338815D01*
X125864463Y-117435506D01*
X125805498Y-117545820D01*
X125769188Y-117665518D01*
X125756928Y-117790000D01*
X125756928Y-119390000D01*
X125769188Y-119514482D01*
X125805498Y-119634180D01*
X125864463Y-119744494D01*
X125943815Y-119841185D01*
X125966741Y-119860000D01*
X125943815Y-119878815D01*
X125864463Y-119975506D01*
X125805498Y-120085820D01*
X125769188Y-120205518D01*
X125757913Y-120320000D01*
X125009113Y-120320000D01*
X120792263Y-116103150D01*
X120944805Y-116149424D01*
X121096862Y-116164400D01*
X121096865Y-116164400D01*
X121147700Y-116169407D01*
X121198535Y-116164400D01*
X129972572Y-116164400D01*
X130023400Y-116169406D01*
X130074228Y-116164400D01*
X130074238Y-116164400D01*
X130226295Y-116149424D01*
X130421393Y-116090241D01*
X130601197Y-115994134D01*
X130758796Y-115864796D01*
X130791207Y-115825303D01*
X134492511Y-112124000D01*
X134903713Y-112124000D01*
X134906498Y-112133180D01*
X134965463Y-112243494D01*
X135044815Y-112340185D01*
X135067741Y-112359000D01*
X135044815Y-112377815D01*
X134965463Y-112474506D01*
X134906498Y-112584820D01*
X134870188Y-112704518D01*
X134857928Y-112829000D01*
X134857928Y-114429000D01*
X134870188Y-114553482D01*
X134906498Y-114673180D01*
X134965463Y-114783494D01*
X135044815Y-114880185D01*
X135141506Y-114959537D01*
X135251820Y-115018502D01*
X135371518Y-115054812D01*
X135496000Y-115067072D01*
X138596000Y-115067072D01*
X138720482Y-115054812D01*
X138840180Y-115018502D01*
X138950494Y-114959537D01*
X139047185Y-114880185D01*
X139126537Y-114783494D01*
X139185502Y-114673180D01*
X139197501Y-114633626D01*
X139197500Y-122641044D01*
X139136138Y-122635000D01*
X139085300Y-122629993D01*
X139034462Y-122635000D01*
X138977287Y-122635000D01*
X138974502Y-122625820D01*
X138915537Y-122515506D01*
X138836185Y-122418815D01*
X138813259Y-122400000D01*
X138836185Y-122381185D01*
X138915537Y-122284494D01*
X138974502Y-122174180D01*
X139010812Y-122054482D01*
X139023072Y-121930000D01*
X139023072Y-120330000D01*
X139010812Y-120205518D01*
X138974502Y-120085820D01*
X138915537Y-119975506D01*
X138836185Y-119878815D01*
X138813259Y-119860000D01*
X138836185Y-119841185D01*
X138915537Y-119744494D01*
X138974502Y-119634180D01*
X139010812Y-119514482D01*
X139023072Y-119390000D01*
X139023072Y-117790000D01*
X139010812Y-117665518D01*
X138974502Y-117545820D01*
X138915537Y-117435506D01*
X138836185Y-117338815D01*
X138739494Y-117259463D01*
X138629180Y-117200498D01*
X138509482Y-117164188D01*
X138385000Y-117151928D01*
X135285000Y-117151928D01*
X135160518Y-117164188D01*
X135040820Y-117200498D01*
X134930506Y-117259463D01*
X134833815Y-117338815D01*
X134754463Y-117435506D01*
X134695498Y-117545820D01*
X134659188Y-117665518D01*
X134646928Y-117790000D01*
X134646928Y-118493861D01*
X133650097Y-119490693D01*
X133610604Y-119523104D01*
X133481266Y-119680703D01*
X133385159Y-119860508D01*
X133325976Y-120055606D01*
X133311000Y-120207663D01*
X133311000Y-120207672D01*
X133305994Y-120258500D01*
X133311000Y-120309328D01*
X133311001Y-127250317D01*
X133241506Y-127287463D01*
X133144815Y-127366815D01*
X133065463Y-127463506D01*
X133006498Y-127573820D01*
X132996000Y-127608427D01*
X132985502Y-127573820D01*
X132926537Y-127463506D01*
X132847185Y-127366815D01*
X132750494Y-127287463D01*
X132640180Y-127228498D01*
X132520482Y-127192188D01*
X132396000Y-127179928D01*
X130896000Y-127179928D01*
X130771518Y-127192188D01*
X130651820Y-127228498D01*
X130541506Y-127287463D01*
X130444815Y-127366815D01*
X130390499Y-127433000D01*
X130339576Y-127433000D01*
X130345445Y-127424216D01*
X130365004Y-127376996D01*
X130389080Y-127331953D01*
X130403905Y-127283082D01*
X130423466Y-127235858D01*
X130433437Y-127185728D01*
X130448263Y-127136855D01*
X130453269Y-127086027D01*
X130463240Y-127035899D01*
X130463240Y-126984789D01*
X130468246Y-126933961D01*
X130463240Y-126883133D01*
X130463240Y-126832021D01*
X130453269Y-126781892D01*
X130448263Y-126731066D01*
X130433438Y-126682194D01*
X130423466Y-126632062D01*
X130403905Y-126584837D01*
X130389080Y-126535967D01*
X130365004Y-126490924D01*
X130345445Y-126443704D01*
X130317053Y-126401212D01*
X130292974Y-126356163D01*
X130260570Y-126316679D01*
X130232177Y-126274186D01*
X130196035Y-126238044D01*
X130163635Y-126198565D01*
X130124156Y-126166165D01*
X130088014Y-126130023D01*
X130045521Y-126101630D01*
X130006037Y-126069226D01*
X129960988Y-126045147D01*
X129918496Y-126016755D01*
X129871276Y-125997196D01*
X129826233Y-125973120D01*
X129777363Y-125958295D01*
X129730138Y-125938734D01*
X129680006Y-125928762D01*
X129631134Y-125913937D01*
X129580308Y-125908931D01*
X129530179Y-125898960D01*
X129479067Y-125898960D01*
X129428239Y-125893954D01*
X129377411Y-125898960D01*
X129326301Y-125898960D01*
X129276173Y-125908931D01*
X129225345Y-125913937D01*
X129176472Y-125928763D01*
X129126342Y-125938734D01*
X129079118Y-125958295D01*
X129030247Y-125973120D01*
X128985204Y-125997196D01*
X128937984Y-126016755D01*
X128912804Y-126033580D01*
X125821101Y-126033580D01*
X125770983Y-126043549D01*
X125720145Y-126048556D01*
X125671263Y-126063384D01*
X125621142Y-126073354D01*
X125573927Y-126092911D01*
X125525047Y-126107739D01*
X125479998Y-126131818D01*
X125432784Y-126151375D01*
X125390294Y-126179766D01*
X125345243Y-126203846D01*
X125305756Y-126236252D01*
X125263266Y-126264643D01*
X125227132Y-126300777D01*
X125187644Y-126333184D01*
X125155237Y-126372672D01*
X125119103Y-126408806D01*
X125090712Y-126451296D01*
X125058306Y-126490783D01*
X125034226Y-126535834D01*
X125005835Y-126578324D01*
X124986278Y-126625538D01*
X124962199Y-126670587D01*
X124947371Y-126719467D01*
X124927814Y-126766682D01*
X124917844Y-126816803D01*
X124903016Y-126865685D01*
X124898009Y-126916523D01*
X124888040Y-126966641D01*
X124888040Y-127017742D01*
X124883033Y-127068580D01*
X124888040Y-127119418D01*
X124888040Y-127170519D01*
X124898009Y-127220637D01*
X124903016Y-127271475D01*
X124917844Y-127320357D01*
X124927814Y-127370478D01*
X124947371Y-127417693D01*
X124962199Y-127466573D01*
X124986278Y-127511622D01*
X125005835Y-127558836D01*
X125034226Y-127601326D01*
X125058306Y-127646377D01*
X125090712Y-127685864D01*
X125119103Y-127728354D01*
X125155237Y-127764488D01*
X125187644Y-127803976D01*
X125227132Y-127836383D01*
X125263266Y-127872517D01*
X125305756Y-127900908D01*
X125345243Y-127933314D01*
X125390294Y-127957394D01*
X125432784Y-127985785D01*
X125479998Y-128005342D01*
X125525047Y-128029421D01*
X125573927Y-128044249D01*
X125621142Y-128063806D01*
X125671263Y-128073776D01*
X125720145Y-128088604D01*
X125770983Y-128093611D01*
X125821101Y-128103580D01*
X128488509Y-128103580D01*
X124886892Y-131705197D01*
X124847405Y-131737604D01*
X124814998Y-131777092D01*
X124814997Y-131777093D01*
X124718066Y-131895203D01*
X124621960Y-132075007D01*
X124562777Y-132270105D01*
X124553414Y-132365175D01*
X124438252Y-132250013D01*
X124170463Y-132071082D01*
X123872912Y-131947832D01*
X123557033Y-131885000D01*
X123234967Y-131885000D01*
X122919088Y-131947832D01*
X122621537Y-132071082D01*
X122353748Y-132250013D01*
X122126013Y-132477748D01*
X121947082Y-132745537D01*
X121823832Y-133043088D01*
X121761000Y-133358967D01*
X121761000Y-133681033D01*
X121823832Y-133996912D01*
X121947082Y-134294463D01*
X122126013Y-134562252D01*
X122353748Y-134789987D01*
X122621537Y-134968918D01*
X122919088Y-135092168D01*
X123234967Y-135155000D01*
X123557033Y-135155000D01*
X123872912Y-135092168D01*
X124170463Y-134968918D01*
X124438252Y-134789987D01*
X124665987Y-134562252D01*
X124724811Y-134474216D01*
X124847404Y-134623596D01*
X124886897Y-134656007D01*
X125721924Y-135491035D01*
X110942272Y-135468542D01*
X110944894Y-133368967D01*
X116681000Y-133368967D01*
X116681000Y-133691033D01*
X116743832Y-134006912D01*
X116867082Y-134304463D01*
X117046013Y-134572252D01*
X117273748Y-134799987D01*
X117541537Y-134978918D01*
X117839088Y-135102168D01*
X118154967Y-135165000D01*
X118477033Y-135165000D01*
X118792912Y-135102168D01*
X119090463Y-134978918D01*
X119358252Y-134799987D01*
X119585987Y-134572252D01*
X119764918Y-134304463D01*
X119888168Y-134006912D01*
X119951000Y-133691033D01*
X119951000Y-133368967D01*
X119888168Y-133053088D01*
X119764918Y-132755537D01*
X119585987Y-132487748D01*
X119358252Y-132260013D01*
X119090463Y-132081082D01*
X118792912Y-131957832D01*
X118477033Y-131895000D01*
X118154967Y-131895000D01*
X117839088Y-131957832D01*
X117541537Y-132081082D01*
X117273748Y-132260013D01*
X117046013Y-132487748D01*
X116867082Y-132755537D01*
X116743832Y-133053088D01*
X116681000Y-133368967D01*
X110944894Y-133368967D01*
X110948800Y-130241240D01*
X117055365Y-130241240D01*
X117136025Y-130492868D01*
X117404329Y-130621267D01*
X117692526Y-130694855D01*
X117989543Y-130710804D01*
X118283963Y-130668501D01*
X118564474Y-130569572D01*
X118707975Y-130492868D01*
X118788635Y-130241240D01*
X117922000Y-129374605D01*
X117055365Y-130241240D01*
X110948800Y-130241240D01*
X110953070Y-126823693D01*
X111046760Y-126823693D01*
X111046760Y-127303347D01*
X111140336Y-127773783D01*
X111323891Y-128216925D01*
X111590372Y-128615742D01*
X111929538Y-128954908D01*
X112328355Y-129221389D01*
X112771497Y-129404944D01*
X113241933Y-129498520D01*
X113721587Y-129498520D01*
X114192023Y-129404944D01*
X114535810Y-129262543D01*
X116406196Y-129262543D01*
X116448499Y-129556963D01*
X116547428Y-129837474D01*
X116624132Y-129980975D01*
X116875760Y-130061635D01*
X117742395Y-129195000D01*
X118101605Y-129195000D01*
X118968240Y-130061635D01*
X119179712Y-129993847D01*
X119289107Y-130157569D01*
X119499431Y-130367893D01*
X119746747Y-130533144D01*
X120021549Y-130646971D01*
X120313278Y-130705000D01*
X120610722Y-130705000D01*
X120902451Y-130646971D01*
X121177253Y-130533144D01*
X121424569Y-130367893D01*
X121634893Y-130157569D01*
X121732000Y-130012238D01*
X121829107Y-130157569D01*
X122039431Y-130367893D01*
X122286747Y-130533144D01*
X122561549Y-130646971D01*
X122853278Y-130705000D01*
X123150722Y-130705000D01*
X123442451Y-130646971D01*
X123717253Y-130533144D01*
X123964569Y-130367893D01*
X124174893Y-130157569D01*
X124340144Y-129910253D01*
X124453971Y-129635451D01*
X124512000Y-129343722D01*
X124512000Y-129046278D01*
X124453971Y-128754549D01*
X124340144Y-128479747D01*
X124174893Y-128232431D01*
X123964569Y-128022107D01*
X123717253Y-127856856D01*
X123442451Y-127743029D01*
X123150722Y-127685000D01*
X122853278Y-127685000D01*
X122561549Y-127743029D01*
X122286747Y-127856856D01*
X122039431Y-128022107D01*
X121829107Y-128232431D01*
X121732000Y-128377762D01*
X121634893Y-128232431D01*
X121424569Y-128022107D01*
X121177253Y-127856856D01*
X120902451Y-127743029D01*
X120610722Y-127685000D01*
X120313278Y-127685000D01*
X120021549Y-127743029D01*
X119746747Y-127856856D01*
X119499431Y-128022107D01*
X119289107Y-128232431D01*
X119179712Y-128396153D01*
X118968240Y-128328365D01*
X118101605Y-129195000D01*
X117742395Y-129195000D01*
X116875760Y-128328365D01*
X116624132Y-128409025D01*
X116495733Y-128677329D01*
X116422145Y-128965526D01*
X116406196Y-129262543D01*
X114535810Y-129262543D01*
X114635165Y-129221389D01*
X115033982Y-128954908D01*
X115373148Y-128615742D01*
X115639629Y-128216925D01*
X115667863Y-128148760D01*
X117055365Y-128148760D01*
X117922000Y-129015395D01*
X118788635Y-128148760D01*
X118707975Y-127897132D01*
X118439671Y-127768733D01*
X118151474Y-127695145D01*
X117854457Y-127679196D01*
X117560037Y-127721499D01*
X117279526Y-127820428D01*
X117136025Y-127897132D01*
X117055365Y-128148760D01*
X115667863Y-128148760D01*
X115823184Y-127773783D01*
X115916760Y-127303347D01*
X115916760Y-126823693D01*
X115823184Y-126353257D01*
X115639629Y-125910115D01*
X115373148Y-125511298D01*
X115033982Y-125172132D01*
X114635165Y-124905651D01*
X114192023Y-124722096D01*
X113721587Y-124628520D01*
X113241933Y-124628520D01*
X112771497Y-124722096D01*
X112328355Y-124905651D01*
X111929538Y-125172132D01*
X111590372Y-125511298D01*
X111323891Y-125910115D01*
X111140336Y-126353257D01*
X111046760Y-126823693D01*
X110953070Y-126823693D01*
X110965312Y-117023890D01*
X112073524Y-117023890D01*
X112118175Y-117171099D01*
X112243359Y-117433920D01*
X112417412Y-117667269D01*
X112633645Y-117862178D01*
X112883748Y-118011157D01*
X113158109Y-118108481D01*
X113388000Y-117987814D01*
X113388000Y-116794000D01*
X113642000Y-116794000D01*
X113642000Y-117987814D01*
X113871891Y-118108481D01*
X114146252Y-118011157D01*
X114396355Y-117862178D01*
X114612588Y-117667269D01*
X114786641Y-117433920D01*
X114911825Y-117171099D01*
X114956476Y-117023890D01*
X114835155Y-116794000D01*
X113642000Y-116794000D01*
X113388000Y-116794000D01*
X112194845Y-116794000D01*
X112073524Y-117023890D01*
X110965312Y-117023890D01*
X110971655Y-111946754D01*
X111014473Y-111998928D01*
G37*
G04 #@! TD.AperFunction*
D29*
X134965463Y-107394506D02*
X134906498Y-107504820D01*
X134870188Y-107624518D01*
X134857928Y-107749000D01*
X134861000Y-108263250D01*
X135019750Y-108422000D01*
X136919000Y-108422000D01*
X136919000Y-108402000D01*
X137173000Y-108402000D01*
X137173000Y-108422000D01*
X137193000Y-108422000D01*
X137193000Y-108676000D01*
X137173000Y-108676000D01*
X137173000Y-108696000D01*
X136919000Y-108696000D01*
X136919000Y-108676000D01*
X135019750Y-108676000D01*
X134861000Y-108834750D01*
X134857928Y-109349000D01*
X134870188Y-109473482D01*
X134906498Y-109593180D01*
X134965463Y-109703494D01*
X135044815Y-109800185D01*
X135067741Y-109819000D01*
X135044815Y-109837815D01*
X134965463Y-109934506D01*
X134906498Y-110044820D01*
X134903713Y-110054000D01*
X134114627Y-110054000D01*
X134063799Y-110048994D01*
X134012971Y-110054000D01*
X134012962Y-110054000D01*
X133860905Y-110068976D01*
X133665807Y-110128159D01*
X133486003Y-110224266D01*
X133328404Y-110353604D01*
X133295997Y-110393092D01*
X130344072Y-113345018D01*
X130344072Y-112829000D01*
X130331812Y-112704518D01*
X130295502Y-112584820D01*
X130236537Y-112474506D01*
X130157185Y-112377815D01*
X130134259Y-112359000D01*
X130157185Y-112340185D01*
X130236537Y-112243494D01*
X130295502Y-112133180D01*
X130331812Y-112013482D01*
X130344072Y-111889000D01*
X130344072Y-111855736D01*
X130392773Y-111840963D01*
X130533489Y-111765749D01*
X130656828Y-111664528D01*
X130682200Y-111633612D01*
X135006413Y-107309400D01*
X135035307Y-107309400D01*
X134965463Y-107394506D01*
G04 #@! TA.AperFunction,Conductor*
D30*
G36*
X134965463Y-107394506D02*
G01*
X134906498Y-107504820D01*
X134870188Y-107624518D01*
X134857928Y-107749000D01*
X134861000Y-108263250D01*
X135019750Y-108422000D01*
X136919000Y-108422000D01*
X136919000Y-108402000D01*
X137173000Y-108402000D01*
X137173000Y-108422000D01*
X137193000Y-108422000D01*
X137193000Y-108676000D01*
X137173000Y-108676000D01*
X137173000Y-108696000D01*
X136919000Y-108696000D01*
X136919000Y-108676000D01*
X135019750Y-108676000D01*
X134861000Y-108834750D01*
X134857928Y-109349000D01*
X134870188Y-109473482D01*
X134906498Y-109593180D01*
X134965463Y-109703494D01*
X135044815Y-109800185D01*
X135067741Y-109819000D01*
X135044815Y-109837815D01*
X134965463Y-109934506D01*
X134906498Y-110044820D01*
X134903713Y-110054000D01*
X134114627Y-110054000D01*
X134063799Y-110048994D01*
X134012971Y-110054000D01*
X134012962Y-110054000D01*
X133860905Y-110068976D01*
X133665807Y-110128159D01*
X133486003Y-110224266D01*
X133328404Y-110353604D01*
X133295997Y-110393092D01*
X130344072Y-113345018D01*
X130344072Y-112829000D01*
X130331812Y-112704518D01*
X130295502Y-112584820D01*
X130236537Y-112474506D01*
X130157185Y-112377815D01*
X130134259Y-112359000D01*
X130157185Y-112340185D01*
X130236537Y-112243494D01*
X130295502Y-112133180D01*
X130331812Y-112013482D01*
X130344072Y-111889000D01*
X130344072Y-111855736D01*
X130392773Y-111840963D01*
X130533489Y-111765749D01*
X130656828Y-111664528D01*
X130682200Y-111633612D01*
X135006413Y-107309400D01*
X135035307Y-107309400D01*
X134965463Y-107394506D01*
G37*
G04 #@! TD.AperFunction*
D29*
X139197501Y-108801251D02*
X139072252Y-108676002D01*
X139197501Y-108676002D01*
X139197501Y-108801251D01*
G04 #@! TA.AperFunction,Conductor*
D30*
G36*
X139197501Y-108801251D02*
G01*
X139072252Y-108676002D01*
X139197501Y-108676002D01*
X139197501Y-108801251D01*
G37*
G04 #@! TD.AperFunction*
D29*
X138511000Y-105230000D02*
X138531000Y-105230000D01*
X138531000Y-105484000D01*
X138511000Y-105484000D01*
X138511000Y-106458250D01*
X138669750Y-106617000D01*
X139134000Y-106620072D01*
X139197501Y-106613818D01*
X139197501Y-107544375D01*
X139185502Y-107504820D01*
X139126537Y-107394506D01*
X139047185Y-107297815D01*
X138950494Y-107218463D01*
X138840180Y-107159498D01*
X138720482Y-107123188D01*
X138596000Y-107110928D01*
X137331750Y-107114000D01*
X137173002Y-107272748D01*
X137173002Y-107117296D01*
X137224628Y-107074928D01*
X137250000Y-107044012D01*
X137554012Y-106740000D01*
X137584928Y-106714628D01*
X137662683Y-106619882D01*
X138098250Y-106617000D01*
X138257000Y-106458250D01*
X138257000Y-105484000D01*
X138237000Y-105484000D01*
X138237000Y-105230000D01*
X138257000Y-105230000D01*
X138257000Y-105210000D01*
X138511000Y-105210000D01*
X138511000Y-105230000D01*
G04 #@! TA.AperFunction,Conductor*
D30*
G36*
X138511000Y-105230000D02*
G01*
X138531000Y-105230000D01*
X138531000Y-105484000D01*
X138511000Y-105484000D01*
X138511000Y-106458250D01*
X138669750Y-106617000D01*
X139134000Y-106620072D01*
X139197501Y-106613818D01*
X139197501Y-107544375D01*
X139185502Y-107504820D01*
X139126537Y-107394506D01*
X139047185Y-107297815D01*
X138950494Y-107218463D01*
X138840180Y-107159498D01*
X138720482Y-107123188D01*
X138596000Y-107110928D01*
X137331750Y-107114000D01*
X137173002Y-107272748D01*
X137173002Y-107117296D01*
X137224628Y-107074928D01*
X137250000Y-107044012D01*
X137554012Y-106740000D01*
X137584928Y-106714628D01*
X137662683Y-106619882D01*
X138098250Y-106617000D01*
X138257000Y-106458250D01*
X138257000Y-105484000D01*
X138237000Y-105484000D01*
X138237000Y-105230000D01*
X138257000Y-105230000D01*
X138257000Y-105210000D01*
X138511000Y-105210000D01*
X138511000Y-105230000D01*
G37*
G04 #@! TD.AperFunction*
M02*
