G04 #@! TF.GenerationSoftware,KiCad,Pcbnew,5.1.7-a382d34a8~88~ubuntu18.04.1*
G04 #@! TF.CreationDate,2022-03-10T15:26:47+05:30*
G04 #@! TF.ProjectId,nrf52840_Dev_v1,6e726635-3238-4343-905f-4465765f7631,rev?*
G04 #@! TF.SameCoordinates,Original*
G04 #@! TF.FileFunction,Copper,L2,Bot*
G04 #@! TF.FilePolarity,Positive*
%FSLAX46Y46*%
G04 Gerber Fmt 4.6, Leading zero omitted, Abs format (unit mm)*
G04 Created by KiCad (PCBNEW 5.1.7-a382d34a8~88~ubuntu18.04.1) date 2022-03-10 15:26:47*
%MOMM*%
%LPD*%
G01*
G04 APERTURE LIST*
G04 #@! TA.AperFunction,ComponentPad*
%ADD10R,1.700000X1.700000*%
G04 #@! TD*
G04 #@! TA.AperFunction,ComponentPad*
%ADD11O,1.700000X1.700000*%
G04 #@! TD*
G04 #@! TA.AperFunction,ViaPad*
%ADD12C,0.600000*%
G04 #@! TD*
G04 #@! TA.AperFunction,ViaPad*
%ADD13C,0.400000*%
G04 #@! TD*
G04 #@! TA.AperFunction,Conductor*
%ADD14C,0.150000*%
G04 #@! TD*
G04 #@! TA.AperFunction,Conductor*
%ADD15C,0.080000*%
G04 #@! TD*
G04 #@! TA.AperFunction,Conductor*
%ADD16C,0.250000*%
G04 #@! TD*
G04 #@! TA.AperFunction,Conductor*
%ADD17C,0.254000*%
G04 #@! TD*
G04 #@! TA.AperFunction,Conductor*
%ADD18C,0.100000*%
G04 #@! TD*
G04 APERTURE END LIST*
D10*
X124900000Y-51100000D03*
D11*
X111272000Y-87215600D03*
X108732000Y-87215600D03*
X106192000Y-87215600D03*
X103652000Y-87215600D03*
D10*
X101112000Y-87215600D03*
D11*
X118700000Y-88040000D03*
X118700000Y-85500000D03*
X118700000Y-82960000D03*
X118700000Y-80420000D03*
X118700000Y-77880000D03*
X118700000Y-75340000D03*
X118700000Y-72800000D03*
X118700000Y-70260000D03*
X118700000Y-67720000D03*
X118700000Y-65180000D03*
X118700000Y-62640000D03*
D10*
X118700000Y-60100000D03*
X92300000Y-51650000D03*
D11*
X92300000Y-54190000D03*
X92300000Y-56730000D03*
X92300000Y-59270000D03*
X92300000Y-61810000D03*
X92300000Y-64350000D03*
X92300000Y-66890000D03*
X92300000Y-69430000D03*
X92300000Y-71970000D03*
X92300000Y-74510000D03*
X92300000Y-77050000D03*
X92300000Y-79590000D03*
D10*
X124425000Y-60025000D03*
D11*
X124425000Y-62565000D03*
X124425000Y-65105000D03*
X124425000Y-67645000D03*
X124425000Y-70185000D03*
X124425000Y-72725000D03*
X124425000Y-75265000D03*
X124425000Y-77805000D03*
X124425000Y-80345000D03*
X124425000Y-82885000D03*
X124425000Y-85425000D03*
X124425000Y-87965000D03*
X86400000Y-79590000D03*
X86400000Y-77050000D03*
X86400000Y-74510000D03*
X86400000Y-71970000D03*
X86400000Y-69430000D03*
X86400000Y-66890000D03*
X86400000Y-64350000D03*
X86400000Y-61810000D03*
X86400000Y-59270000D03*
X86400000Y-56730000D03*
X86400000Y-54190000D03*
D10*
X86400000Y-51650000D03*
D12*
X109746800Y-75327500D03*
X101001600Y-80543600D03*
X110851800Y-75944990D03*
X109378095Y-78650021D03*
X103600000Y-67044990D03*
X102047074Y-70121689D03*
X102000000Y-76800000D03*
X107099998Y-77800000D03*
X98206600Y-59097900D03*
X102400000Y-66000000D03*
X112055010Y-72152491D03*
X100038100Y-69543100D03*
X99813100Y-66103100D03*
D13*
X109900000Y-80900000D03*
X107500000Y-79400004D03*
D12*
X101400000Y-68600000D03*
D13*
X100400000Y-67700000D03*
X99300000Y-67600000D03*
X98200000Y-67600000D03*
X95900000Y-69000000D03*
X89700000Y-72300000D03*
D12*
X99259969Y-71903410D03*
D13*
X96300000Y-72600000D03*
X98200000Y-72600000D03*
D12*
X99806538Y-72705282D03*
D13*
X94200000Y-72698673D03*
X96900000Y-73220010D03*
X99000000Y-73200000D03*
D12*
X102155010Y-73111776D03*
X99728300Y-61810000D03*
X109675549Y-72079997D03*
D13*
X103100000Y-62300000D03*
X109872173Y-71534331D03*
X98700000Y-75800000D03*
X88700000Y-67000000D03*
D12*
X102055010Y-74181798D03*
X104500000Y-77000014D03*
D13*
X104600000Y-78470022D03*
X106020405Y-80122014D03*
D12*
X106800000Y-80400000D03*
D13*
X110400000Y-82500000D03*
X108104601Y-78621432D03*
D12*
X116488200Y-77507800D03*
D13*
X114900000Y-77100000D03*
D12*
X108470034Y-77655045D03*
D13*
X113800000Y-76900000D03*
X115800000Y-74700000D03*
X120400000Y-74261400D03*
D12*
X109700000Y-77300000D03*
D13*
X113000000Y-76755000D03*
X120500000Y-70900000D03*
X120700000Y-68900000D03*
X120600000Y-66400000D03*
D12*
X117615300Y-65870900D03*
X102015299Y-71491721D03*
D13*
X101100000Y-71645000D03*
X100646600Y-84700000D03*
X99300000Y-89800000D03*
X109382366Y-70364300D03*
X110900000Y-69400000D03*
X111801023Y-69701023D03*
X122800000Y-66800000D03*
X121900000Y-67800000D03*
X121900000Y-82300000D03*
X105555010Y-68734641D03*
X115299990Y-64700000D03*
D12*
X102099956Y-68902005D03*
D13*
X103944990Y-69200000D03*
X104775011Y-69000000D03*
D12*
X103844990Y-68600000D03*
D13*
X110600000Y-71700000D03*
D12*
X110100000Y-73100000D03*
D13*
X99100000Y-52000000D03*
X110199582Y-72328600D03*
X95318673Y-73018673D03*
X98776530Y-74433024D03*
D12*
X107625066Y-69062802D03*
X109242400Y-69265800D03*
X102001292Y-62532408D03*
D13*
X99500000Y-64600000D03*
X94900000Y-64500000D03*
X89800000Y-68400000D03*
X101886986Y-64286985D03*
X105565741Y-66859415D03*
D12*
X100700000Y-66900000D03*
D13*
X101500000Y-63200000D03*
X98683019Y-63344990D03*
X106655044Y-68895931D03*
D12*
X105585021Y-67764618D03*
D14*
X108015023Y-78208949D02*
X107418917Y-78805055D01*
X109746800Y-75327500D02*
X108015023Y-77059277D01*
X107418917Y-78805055D02*
X106818917Y-78805055D01*
X105342001Y-86365601D02*
X106192000Y-87215600D01*
X108015023Y-77059277D02*
X108015023Y-78208949D01*
X106818917Y-78805055D02*
X105342001Y-80281969D01*
X105342001Y-80281969D02*
X105342001Y-86365601D01*
X103275000Y-77566900D02*
X103275000Y-76504300D01*
X101001600Y-80543600D02*
X103275000Y-78270200D01*
X103275000Y-78270200D02*
X103275000Y-77566900D01*
X101112000Y-87215600D02*
X101112000Y-86190300D01*
X101112000Y-86190300D02*
X101001600Y-86079900D01*
X101001600Y-86079900D02*
X101001600Y-80543600D01*
X110851800Y-77176316D02*
X109378095Y-78650021D01*
X110851800Y-75944990D02*
X110851800Y-77176316D01*
X103275000Y-74736500D02*
X103155750Y-74855750D01*
D15*
X101275045Y-74524955D02*
X101605840Y-74855750D01*
X101605840Y-74855750D02*
X103155750Y-74855750D01*
D14*
X101275045Y-74524955D02*
X101525042Y-74274958D01*
X101525042Y-74274958D02*
X101525042Y-70643721D01*
X101525042Y-70643721D02*
X102047074Y-70121689D01*
X102800000Y-75211500D02*
X103275000Y-74736500D01*
X103275000Y-76504300D02*
X102800000Y-76029300D01*
X102800000Y-76029300D02*
X102800000Y-75211500D01*
X102100000Y-76700000D02*
X102000000Y-76800000D01*
X102500000Y-76200000D02*
X102100000Y-76600000D01*
X102100000Y-76600000D02*
X102100000Y-76700000D01*
X102629300Y-76200000D02*
X102800000Y-76029300D01*
X102500000Y-76200000D02*
X102629300Y-76200000D01*
X106784976Y-78115022D02*
X107099998Y-77800000D01*
X103823122Y-78115022D02*
X106784976Y-78115022D01*
X103275000Y-77566900D02*
X103823122Y-78115022D01*
X103275000Y-74736500D02*
X103400000Y-74611500D01*
X103400000Y-74611500D02*
X103400000Y-69830980D01*
X103014988Y-67630002D02*
X103600000Y-67044990D01*
X103014988Y-69445968D02*
X103014988Y-67630002D01*
X103400000Y-69830980D02*
X103014988Y-69445968D01*
X86400000Y-54190000D02*
X86400000Y-56730000D01*
X99268031Y-63079316D02*
X99268031Y-63442747D01*
X99268031Y-63442747D02*
X102902100Y-67076816D01*
X98206600Y-62017885D02*
X99268031Y-63079316D01*
X102902100Y-67076816D02*
X102902100Y-67163300D01*
X98206600Y-59097900D02*
X98206600Y-62017885D01*
X102902100Y-67163300D02*
X102742800Y-67322600D01*
X102742800Y-66342800D02*
X102400000Y-66000000D01*
X102742800Y-67322600D02*
X102742800Y-66342800D01*
X107555003Y-77105403D02*
X106862000Y-76412400D01*
X106628369Y-78345033D02*
X107228371Y-78345033D01*
X103652000Y-87215600D02*
X103652000Y-81321402D01*
X103652000Y-81321402D02*
X106628369Y-78345033D01*
X107228371Y-78345033D02*
X107555003Y-78018402D01*
X107555003Y-78018402D02*
X107555003Y-77105403D01*
X103359978Y-68411608D02*
X103359978Y-69465674D01*
X106328591Y-76398007D02*
X106847607Y-76398007D01*
X106847607Y-76398007D02*
X106862000Y-76412400D01*
X103381598Y-66589988D02*
X103818402Y-66589988D01*
X102902100Y-67163300D02*
X102902100Y-67069486D01*
X104055002Y-67716584D02*
X103359978Y-68411608D01*
X103359978Y-69465674D02*
X103669989Y-69775685D01*
X103669989Y-69775685D02*
X103669989Y-77368675D01*
X103669989Y-77368675D02*
X104186325Y-77885011D01*
X104841587Y-77885011D02*
X106328591Y-76398007D01*
X103818402Y-66589988D02*
X104055002Y-66826588D01*
X104055002Y-66826588D02*
X104055002Y-67716584D01*
X104186325Y-77885011D02*
X104841587Y-77885011D01*
X102902100Y-67069486D02*
X103381598Y-66589988D01*
X109563688Y-74285012D02*
X110913674Y-74285012D01*
X110913674Y-74285012D02*
X111285012Y-73913674D01*
X107436300Y-76412400D02*
X109563688Y-74285012D01*
X112055010Y-72938638D02*
X112055010Y-72152491D01*
X111285012Y-73913674D02*
X111285012Y-73708636D01*
X111285012Y-73708636D02*
X112055010Y-72938638D01*
X106862000Y-76412400D02*
X107436300Y-76412400D01*
X98800000Y-67116200D02*
X99813100Y-66103100D01*
X100038100Y-69543100D02*
X98800000Y-68305000D01*
X98800000Y-68305000D02*
X98800000Y-67116200D01*
D16*
X109900000Y-80900000D02*
X108999996Y-80900000D01*
X108999996Y-80900000D02*
X107600000Y-79500004D01*
D14*
X100261539Y-70062725D02*
X101400000Y-68924264D01*
X94359588Y-79590000D02*
X100261539Y-73688049D01*
X101400000Y-68924264D02*
X101400000Y-68600000D01*
X100261539Y-73688049D02*
X100261539Y-70062725D01*
X92300000Y-79590000D02*
X94359588Y-79590000D01*
D15*
X100400000Y-67700000D02*
X99400000Y-67700000D01*
X99400000Y-67700000D02*
X99300000Y-67600000D01*
X98200000Y-67600000D02*
X97300000Y-67600000D01*
X97300000Y-67600000D02*
X95900000Y-69000000D01*
X89700000Y-72300000D02*
X89700000Y-75300000D01*
X91450000Y-77050000D02*
X92300000Y-77050000D01*
X89700000Y-75300000D02*
X91450000Y-77050000D01*
D14*
X93325300Y-74510000D02*
X95931890Y-71903410D01*
X95931890Y-71903410D02*
X99259969Y-71903410D01*
X92300000Y-74510000D02*
X93325300Y-74510000D01*
D15*
X97700000Y-72600000D02*
X98200000Y-72600000D01*
X96300000Y-72600000D02*
X97700000Y-72600000D01*
D14*
X99806538Y-70506538D02*
X99806538Y-72705282D01*
X92300000Y-69430000D02*
X98730000Y-69430000D01*
X98730000Y-69430000D02*
X99806538Y-70506538D01*
D15*
X97200000Y-73100000D02*
X97100000Y-73100000D01*
X94200000Y-72698673D02*
X94200000Y-71100000D01*
X94200000Y-71100000D02*
X93800000Y-70700000D01*
X93800000Y-70700000D02*
X90500000Y-70700000D01*
X90500000Y-70700000D02*
X90500000Y-68000000D01*
X91610000Y-66890000D02*
X92300000Y-66890000D01*
X90500000Y-68000000D02*
X91610000Y-66890000D01*
X97020010Y-73100000D02*
X96900000Y-73220010D01*
X97200000Y-73100000D02*
X97020010Y-73100000D01*
X98900000Y-73100000D02*
X99000000Y-73200000D01*
X97200000Y-73100000D02*
X98900000Y-73100000D01*
D14*
X102823600Y-72443186D02*
X102155010Y-73111776D01*
X102823600Y-69917082D02*
X102823600Y-72443186D01*
X102554966Y-68585702D02*
X102554966Y-69648448D01*
X93149999Y-65199999D02*
X99944299Y-65199999D01*
X102554966Y-69648448D02*
X102823600Y-69917082D01*
X99944299Y-65199999D02*
X101975240Y-67230940D01*
X101975240Y-68005976D02*
X102554966Y-68585702D01*
X101975240Y-67230940D02*
X101975240Y-68005976D01*
X92300000Y-64350000D02*
X93149999Y-65199999D01*
X105130011Y-69830011D02*
X107379997Y-72079997D01*
X105130011Y-67251029D02*
X105130011Y-69830011D01*
X101647476Y-64914988D02*
X102793971Y-64914989D01*
X99728300Y-61810000D02*
X99728300Y-62995812D01*
X107379997Y-72079997D02*
X109675549Y-72079997D01*
X102793971Y-64914989D02*
X105130011Y-67251029D01*
X99728300Y-62995812D02*
X101647476Y-64914988D01*
D15*
X103100000Y-62300000D02*
X109872173Y-69072173D01*
X109872173Y-69072173D02*
X109872173Y-71534331D01*
X93939999Y-80560001D02*
X93839999Y-80560001D01*
X98700000Y-75800000D02*
X93939999Y-80560001D01*
X93839999Y-80560001D02*
X93500000Y-80900000D01*
X93500000Y-80900000D02*
X91100000Y-80900000D01*
X91100000Y-80900000D02*
X89600000Y-80900000D01*
X89600000Y-80900000D02*
X88700000Y-80000000D01*
X88700000Y-80000000D02*
X88700000Y-67000000D01*
D14*
X103073900Y-73162908D02*
X102055010Y-74181798D01*
X96819600Y-58709600D02*
X96819600Y-61194196D01*
X102205251Y-67613808D02*
X102784977Y-68193534D01*
X92300000Y-54190000D02*
X96819600Y-58709600D01*
X102784977Y-68193534D02*
X102784977Y-69541241D01*
X98615393Y-62989989D02*
X98853420Y-62989989D01*
X99038020Y-63174589D02*
X99038020Y-63611422D01*
X103073900Y-69830164D02*
X103073900Y-73162908D01*
X98853420Y-62989989D02*
X99038020Y-63174589D01*
X102784977Y-69541241D02*
X103073900Y-69830164D01*
X96819600Y-61194196D02*
X98615393Y-62989989D01*
X99038020Y-63611422D02*
X102205251Y-66778653D01*
X102205251Y-66778653D02*
X102205251Y-67613808D01*
X104300000Y-76800014D02*
X104500000Y-77000014D01*
X101378612Y-65144999D02*
X102698697Y-65144999D01*
X98777100Y-62263101D02*
X99498042Y-62984043D01*
X98777100Y-58127100D02*
X98777100Y-62263101D01*
X99498042Y-62984043D02*
X99498042Y-63264429D01*
X92300000Y-51650000D02*
X98777100Y-58127100D01*
X104300000Y-66746302D02*
X104300000Y-76800014D01*
X102698697Y-65144999D02*
X104300000Y-66746302D01*
X99498042Y-63264429D02*
X101378612Y-65144999D01*
D15*
X104600000Y-78470022D02*
X102800000Y-80270022D01*
X102800000Y-80270022D02*
X102800000Y-84700000D01*
X118700000Y-88040000D02*
X122884999Y-83855001D01*
X125395001Y-82419399D02*
X124890601Y-81914999D01*
X106020405Y-81242009D02*
X106020405Y-80122014D01*
X124890601Y-83855001D02*
X125395001Y-83350601D01*
X119274398Y-86600000D02*
X112498391Y-86600000D01*
X124890601Y-81914999D02*
X123959399Y-81914999D01*
X106398398Y-81620002D02*
X106020405Y-81242009D01*
X125395001Y-83350601D02*
X125395001Y-82419399D01*
X123959399Y-81914999D02*
X119274398Y-86600000D01*
X112498391Y-86600000D02*
X107518393Y-81620002D01*
X107518393Y-81620002D02*
X106398398Y-81620002D01*
X122884999Y-83855001D02*
X124890601Y-83855001D01*
D14*
X111900000Y-85500000D02*
X106800000Y-80400000D01*
X118700000Y-85500000D02*
X111900000Y-85500000D01*
D15*
X118240000Y-82500000D02*
X118700000Y-82960000D01*
X110400000Y-82500000D02*
X118240000Y-82500000D01*
X108783202Y-79300033D02*
X108104601Y-78621432D01*
X117279967Y-79300033D02*
X108783202Y-79300033D01*
X118700000Y-77880000D02*
X117279967Y-79300033D01*
D14*
X117674700Y-75340000D02*
X117674700Y-76321300D01*
X117674700Y-76321300D02*
X116488200Y-77507800D01*
X118700000Y-75340000D02*
X117674700Y-75340000D01*
D15*
X114900000Y-76600000D02*
X118700000Y-72800000D01*
X114900000Y-77100000D02*
X114900000Y-76600000D01*
D14*
X118700000Y-70260000D02*
X109854978Y-79105022D01*
X108470034Y-78394298D02*
X108470034Y-77655045D01*
X109180758Y-79105022D02*
X108470034Y-78394298D01*
X109854978Y-79105022D02*
X109180758Y-79105022D01*
D15*
X113800000Y-76900000D02*
X115800000Y-74900000D01*
X115800000Y-74900000D02*
X115800000Y-74700000D01*
X121400000Y-70000000D02*
X120980000Y-70000000D01*
X120980000Y-70000000D02*
X118700000Y-67720000D01*
X120400000Y-74261400D02*
X121400000Y-73261400D01*
X121400000Y-73261400D02*
X121400000Y-70000000D01*
D14*
X118700000Y-65180000D02*
X118700000Y-66267300D01*
X118700000Y-66267300D02*
X117674600Y-67292700D01*
X109700000Y-76354000D02*
X109700000Y-77300000D01*
X117674600Y-68379400D02*
X109700000Y-76354000D01*
X117674600Y-67292700D02*
X117674600Y-68379400D01*
D15*
X113000000Y-76755000D02*
X118055000Y-71700000D01*
X118055000Y-71700000D02*
X119700000Y-71700000D01*
X119700000Y-71700000D02*
X120500000Y-70900000D01*
X120700000Y-68900000D02*
X120700000Y-66500000D01*
X120700000Y-66500000D02*
X120600000Y-66400000D01*
D14*
X102573300Y-69992066D02*
X102573300Y-70933720D01*
X102170282Y-69589048D02*
X102573300Y-69992066D01*
X106723644Y-78575044D02*
X104922000Y-80376686D01*
X117315301Y-68003631D02*
X111515023Y-73803909D01*
X104922000Y-80376686D02*
X104922000Y-87395800D01*
X111008947Y-74515023D02*
X109876277Y-74515023D01*
X100070900Y-88181500D02*
X100070900Y-74529256D01*
X107785013Y-78113675D02*
X107323644Y-78575044D01*
X111515023Y-73803909D02*
X111515023Y-74008947D01*
X107323644Y-78575044D02*
X106723644Y-78575044D01*
X104076800Y-88241000D02*
X100130400Y-88241000D01*
X100721560Y-70803724D02*
X101936236Y-69589048D01*
X100070900Y-74529256D02*
X100721560Y-73878596D01*
X102573300Y-70933720D02*
X102015299Y-71491721D01*
X111515023Y-74008947D02*
X111008947Y-74515023D01*
X109876277Y-74515023D02*
X107785013Y-76606287D01*
X100721560Y-73878596D02*
X100721560Y-70803724D01*
X101936236Y-69589048D02*
X102170282Y-69589048D01*
X100130400Y-88241000D02*
X100070900Y-88181500D01*
X117615300Y-65870900D02*
X117315301Y-66170899D01*
X104922000Y-87395800D02*
X104076800Y-88241000D01*
X107785013Y-76606287D02*
X107785013Y-78113675D01*
X117315301Y-66170899D02*
X117315301Y-68003631D01*
D15*
X101100000Y-71645000D02*
X101100000Y-74300000D01*
X101100000Y-74300000D02*
X100300000Y-75100000D01*
X100300000Y-75100000D02*
X100300000Y-77100000D01*
X100300000Y-77100000D02*
X100300000Y-84353400D01*
X100300000Y-84353400D02*
X100646600Y-84700000D01*
X122590000Y-89800000D02*
X124425000Y-87965000D01*
X99300000Y-89800000D02*
X122590000Y-89800000D01*
X110900000Y-69400000D02*
X111500000Y-69400000D01*
X111500000Y-69400000D02*
X111801023Y-69701023D01*
X121900000Y-67800000D02*
X121900000Y-82300000D01*
X107320369Y-70500000D02*
X105755009Y-68934640D01*
X109300000Y-70500000D02*
X107320369Y-70500000D01*
X105755009Y-68934640D02*
X105555010Y-68734641D01*
X116799990Y-63200000D02*
X115299990Y-64700000D01*
X122800000Y-66200000D02*
X119850000Y-63250000D01*
X119850000Y-63250000D02*
X119400000Y-63700000D01*
X119400000Y-63700000D02*
X118100000Y-63700000D01*
X122800000Y-66800000D02*
X122800000Y-66200000D01*
X118100000Y-63700000D02*
X117600000Y-63200000D01*
X117600000Y-63200000D02*
X116799990Y-63200000D01*
D14*
X119384700Y-86900000D02*
X113700000Y-86900000D01*
X100024900Y-88497100D02*
X99818100Y-88290300D01*
X112102900Y-88497100D02*
X100024900Y-88497100D01*
X99818100Y-88290300D02*
X99818100Y-74456772D01*
X99818100Y-74456772D02*
X100491549Y-73783323D01*
X113700000Y-86900000D02*
X112102900Y-88497100D01*
X100491549Y-70510412D02*
X102099956Y-68902005D01*
X124425000Y-82885000D02*
X123399700Y-82885000D01*
X123399700Y-82885000D02*
X119384700Y-86900000D01*
X100491549Y-73783323D02*
X100491549Y-70510412D01*
D15*
X104775011Y-69000000D02*
X104775011Y-70675011D01*
X104775011Y-70675011D02*
X106800000Y-72700000D01*
X107000000Y-72700000D02*
X107100000Y-72700000D01*
X106800000Y-72700000D02*
X107000000Y-72700000D01*
X125700000Y-79070000D02*
X124425000Y-80345000D01*
X125700000Y-68900000D02*
X125700000Y-79070000D01*
X111300000Y-70675648D02*
X113475648Y-68500000D01*
X108400000Y-72700000D02*
X109400000Y-73700000D01*
X110400000Y-73700000D02*
X111300000Y-72800000D01*
X107000000Y-72700000D02*
X108400000Y-72700000D01*
X113475648Y-68500000D02*
X113475648Y-68424352D01*
X117600000Y-64300000D02*
X117600000Y-64200000D01*
X113475648Y-68424352D02*
X117600000Y-64300000D01*
X117900000Y-63900000D02*
X119600000Y-63900000D01*
X123300000Y-67900000D02*
X123300000Y-68900000D01*
X119600000Y-63900000D02*
X122200000Y-66500000D01*
X122200000Y-66500000D02*
X122200000Y-66800000D01*
X109400000Y-73700000D02*
X110400000Y-73700000D01*
X111300000Y-72800000D02*
X111300000Y-70675648D01*
X122200000Y-66800000D02*
X123300000Y-67900000D01*
X117600000Y-64200000D02*
X117900000Y-63900000D01*
X123300000Y-68900000D02*
X125700000Y-68900000D01*
D14*
X103589989Y-68855001D02*
X103844990Y-68600000D01*
X103589989Y-69370401D02*
X103589989Y-68855001D01*
X103900000Y-69680412D02*
X103589989Y-69370401D01*
X123100000Y-76480000D02*
X123100000Y-68100300D01*
X118184200Y-64151600D02*
X111500000Y-70835800D01*
X104281598Y-77655000D02*
X103900000Y-77273402D01*
X123100000Y-68100300D02*
X119151300Y-64151600D01*
X124425000Y-77805000D02*
X123100000Y-76480000D01*
X119151300Y-64151600D02*
X118184200Y-64151600D01*
X103900000Y-77273402D02*
X103900000Y-69680412D01*
X111500000Y-70835800D02*
X111500000Y-73168364D01*
X106181436Y-76167996D02*
X104694432Y-77655000D01*
X111500000Y-73168364D02*
X111055001Y-73613363D01*
X104694432Y-77655000D02*
X104281598Y-77655000D01*
X111055001Y-73613363D02*
X111055001Y-73818401D01*
X111055001Y-73818401D02*
X110818401Y-74055001D01*
X110818401Y-74055001D02*
X108544999Y-74055001D01*
X106432004Y-76167996D02*
X106181436Y-76167996D01*
X108544999Y-74055001D02*
X106432004Y-76167996D01*
D15*
X126400000Y-60590000D02*
X126400000Y-58500000D01*
X126400000Y-58500000D02*
X117600000Y-58500000D01*
X110400000Y-65700000D02*
X110400000Y-68824213D01*
X110600000Y-71450385D02*
X110600000Y-71700000D01*
X110193416Y-71043801D02*
X110600000Y-71450385D01*
X110193416Y-69030797D02*
X110193416Y-71043801D01*
X110400000Y-68824213D02*
X110193416Y-69030797D01*
X117600000Y-58500000D02*
X110400000Y-65700000D01*
X124425000Y-62565000D02*
X126400000Y-60590000D01*
D14*
X110955001Y-72244999D02*
X110100000Y-73100000D01*
X110388427Y-69111573D02*
X110388427Y-70963025D01*
X124425000Y-60025000D02*
X122918300Y-61531700D01*
X110388427Y-70963025D02*
X110955001Y-71529599D01*
X110955001Y-71529599D02*
X110955001Y-72244999D01*
X114944988Y-64555012D02*
X110388427Y-69111573D01*
X122918300Y-61531700D02*
X117942886Y-61531700D01*
X114944988Y-64529598D02*
X114944988Y-64555012D01*
X117942886Y-61531700D02*
X114944988Y-64529598D01*
D15*
X110033405Y-62933405D02*
X110033405Y-71221959D01*
X99100000Y-52000000D02*
X110033405Y-62933405D01*
X110033405Y-71221959D02*
X110199582Y-71388136D01*
X110199582Y-71388136D02*
X110199582Y-72328600D01*
X96733024Y-74433024D02*
X98776530Y-74433024D01*
X95318673Y-73018673D02*
X96733024Y-74433024D01*
D14*
X85347300Y-69892000D02*
X85347300Y-65201600D01*
X85347300Y-65201600D02*
X85097000Y-64951300D01*
X102760350Y-63934948D02*
X103320882Y-63934948D01*
X86400000Y-70944700D02*
X85347300Y-69892000D01*
X85097000Y-64951300D02*
X85097000Y-63362200D01*
X85347300Y-58781100D02*
X86134000Y-57994400D01*
X85347300Y-63215600D02*
X85347300Y-58781100D01*
X107625066Y-68173663D02*
X107625066Y-69062802D01*
X103320882Y-63934948D02*
X105732493Y-66346559D01*
X86577000Y-58067600D02*
X86577100Y-58067600D01*
X101171400Y-62345998D02*
X102760350Y-63934948D01*
X105732493Y-66346559D02*
X105797962Y-66346559D01*
X86134000Y-57994400D02*
X86503800Y-57994400D01*
X105797962Y-66346559D02*
X107625066Y-68173663D01*
X85097000Y-63362200D02*
X85243600Y-63215600D01*
X91271100Y-50306900D02*
X93284600Y-50306900D01*
X86503800Y-57994400D02*
X86577000Y-58067600D01*
X86400000Y-71970000D02*
X86400000Y-70944700D01*
X87425300Y-54152700D02*
X91271100Y-50306900D01*
X87425300Y-57219400D02*
X87425300Y-54152700D01*
X101171400Y-58193700D02*
X101171400Y-62345998D01*
X93284600Y-50306900D02*
X101171400Y-58193700D01*
X85243600Y-63215600D02*
X85347300Y-63215600D01*
X86577100Y-58067600D02*
X87425300Y-57219400D01*
X109242400Y-69265800D02*
X102509008Y-62532408D01*
X102509008Y-62532408D02*
X102001292Y-62532408D01*
D15*
X99500000Y-64600000D02*
X95000000Y-64600000D01*
X95000000Y-64600000D02*
X94900000Y-64500000D01*
X89800000Y-68400000D02*
X89800000Y-66200000D01*
X87090000Y-66200000D02*
X86400000Y-66890000D01*
X89800000Y-66200000D02*
X87090000Y-66200000D01*
X101886986Y-64286985D02*
X102086985Y-64486984D01*
X102086985Y-64486984D02*
X103286739Y-64486984D01*
X105565741Y-66765986D02*
X105565741Y-66859415D01*
X103286739Y-64486984D02*
X105565741Y-66765986D01*
D14*
X100700000Y-66309700D02*
X100700000Y-66900000D01*
X86400000Y-64350000D02*
X87490000Y-65440000D01*
X99830300Y-65440000D02*
X100700000Y-66309700D01*
X87490000Y-65440000D02*
X99830300Y-65440000D01*
D15*
X86400000Y-61810000D02*
X87934990Y-63344990D01*
X87934990Y-63344990D02*
X98683019Y-63344990D01*
X103240106Y-64129959D02*
X105651717Y-66541570D01*
X105717186Y-66541570D02*
X106655044Y-67479428D01*
X106655044Y-67479428D02*
X106655044Y-68895931D01*
X105651717Y-66541570D02*
X105717186Y-66541570D01*
X102429958Y-64129958D02*
X103240106Y-64129959D01*
X101500000Y-63200000D02*
X102429958Y-64129958D01*
D14*
X86400000Y-59270000D02*
X90314600Y-55355400D01*
X90314600Y-55355400D02*
X90314600Y-51667800D01*
X90314600Y-51667800D02*
X91405100Y-50577300D01*
X100921100Y-58320400D02*
X100921100Y-63845364D01*
X101760713Y-64684977D02*
X103208948Y-64684978D01*
X103208948Y-64684978D02*
X105160022Y-66636052D01*
X105160022Y-66955756D02*
X105585021Y-67380755D01*
X105585021Y-67380755D02*
X105585021Y-67764618D01*
X93178000Y-50577300D02*
X100921100Y-58320400D01*
X91405100Y-50577300D02*
X93178000Y-50577300D01*
X105160022Y-66636052D02*
X105160022Y-66955756D01*
X100921100Y-63845364D02*
X101760713Y-64684977D01*
D17*
X128773000Y-49126730D02*
X128773000Y-94173270D01*
X82126721Y-94272729D01*
X82112810Y-87943137D01*
X86515000Y-87943137D01*
X86515000Y-88156863D01*
X86556696Y-88366483D01*
X86638485Y-88563940D01*
X86757225Y-88741647D01*
X86908353Y-88892775D01*
X87086060Y-89011515D01*
X87283517Y-89093304D01*
X87493137Y-89135000D01*
X87706863Y-89135000D01*
X87916483Y-89093304D01*
X88113940Y-89011515D01*
X88291647Y-88892775D01*
X88442775Y-88741647D01*
X88561515Y-88563940D01*
X88643304Y-88366483D01*
X88685000Y-88156863D01*
X88685000Y-87943137D01*
X90915000Y-87943137D01*
X90915000Y-88156863D01*
X90956696Y-88366483D01*
X91038485Y-88563940D01*
X91157225Y-88741647D01*
X91308353Y-88892775D01*
X91486060Y-89011515D01*
X91683517Y-89093304D01*
X91893137Y-89135000D01*
X92106863Y-89135000D01*
X92316483Y-89093304D01*
X92513940Y-89011515D01*
X92691647Y-88892775D01*
X92842775Y-88741647D01*
X92961515Y-88563940D01*
X93043304Y-88366483D01*
X93085000Y-88156863D01*
X93085000Y-87943137D01*
X93043304Y-87733517D01*
X92961515Y-87536060D01*
X92842775Y-87358353D01*
X92691647Y-87207225D01*
X92513940Y-87088485D01*
X92316483Y-87006696D01*
X92106863Y-86965000D01*
X91893137Y-86965000D01*
X91683517Y-87006696D01*
X91486060Y-87088485D01*
X91308353Y-87207225D01*
X91157225Y-87358353D01*
X91038485Y-87536060D01*
X90956696Y-87733517D01*
X90915000Y-87943137D01*
X88685000Y-87943137D01*
X88643304Y-87733517D01*
X88561515Y-87536060D01*
X88442775Y-87358353D01*
X88291647Y-87207225D01*
X88113940Y-87088485D01*
X87916483Y-87006696D01*
X87706863Y-86965000D01*
X87493137Y-86965000D01*
X87283517Y-87006696D01*
X87086060Y-87088485D01*
X86908353Y-87207225D01*
X86757225Y-87358353D01*
X86638485Y-87536060D01*
X86556696Y-87733517D01*
X86515000Y-87943137D01*
X82112810Y-87943137D01*
X82058786Y-63362200D01*
X84383565Y-63362200D01*
X84387001Y-63397084D01*
X84387000Y-64916425D01*
X84383565Y-64951300D01*
X84387000Y-64986175D01*
X84387000Y-64986176D01*
X84397273Y-65090483D01*
X84437872Y-65224319D01*
X84503800Y-65347662D01*
X84592525Y-65455774D01*
X84619618Y-65478009D01*
X84637301Y-65495692D01*
X84637300Y-69857125D01*
X84633865Y-69892000D01*
X84637300Y-69926875D01*
X84637300Y-69926876D01*
X84647573Y-70031183D01*
X84688172Y-70165019D01*
X84754100Y-70288362D01*
X84842825Y-70396474D01*
X84869917Y-70418708D01*
X85360551Y-70909342D01*
X85246525Y-71023368D01*
X85084010Y-71266589D01*
X84972068Y-71536842D01*
X84915000Y-71823740D01*
X84915000Y-72116260D01*
X84972068Y-72403158D01*
X85084010Y-72673411D01*
X85246525Y-72916632D01*
X85453368Y-73123475D01*
X85627760Y-73240000D01*
X85453368Y-73356525D01*
X85246525Y-73563368D01*
X85084010Y-73806589D01*
X84972068Y-74076842D01*
X84915000Y-74363740D01*
X84915000Y-74656260D01*
X84972068Y-74943158D01*
X85084010Y-75213411D01*
X85246525Y-75456632D01*
X85453368Y-75663475D01*
X85627760Y-75780000D01*
X85453368Y-75896525D01*
X85246525Y-76103368D01*
X85084010Y-76346589D01*
X84972068Y-76616842D01*
X84915000Y-76903740D01*
X84915000Y-77196260D01*
X84972068Y-77483158D01*
X85084010Y-77753411D01*
X85246525Y-77996632D01*
X85453368Y-78203475D01*
X85627760Y-78320000D01*
X85453368Y-78436525D01*
X85246525Y-78643368D01*
X85084010Y-78886589D01*
X84972068Y-79156842D01*
X84915000Y-79443740D01*
X84915000Y-79736260D01*
X84972068Y-80023158D01*
X85084010Y-80293411D01*
X85246525Y-80536632D01*
X85453368Y-80743475D01*
X85696589Y-80905990D01*
X85966842Y-81017932D01*
X86253740Y-81075000D01*
X86546260Y-81075000D01*
X86833158Y-81017932D01*
X87103411Y-80905990D01*
X87346632Y-80743475D01*
X87553475Y-80536632D01*
X87715990Y-80293411D01*
X87827932Y-80023158D01*
X87885000Y-79736260D01*
X87885000Y-79443740D01*
X87827932Y-79156842D01*
X87715990Y-78886589D01*
X87553475Y-78643368D01*
X87346632Y-78436525D01*
X87172240Y-78320000D01*
X87346632Y-78203475D01*
X87553475Y-77996632D01*
X87715990Y-77753411D01*
X87827932Y-77483158D01*
X87885000Y-77196260D01*
X87885000Y-76903740D01*
X87827932Y-76616842D01*
X87715990Y-76346589D01*
X87553475Y-76103368D01*
X87346632Y-75896525D01*
X87172240Y-75780000D01*
X87346632Y-75663475D01*
X87553475Y-75456632D01*
X87715990Y-75213411D01*
X87827932Y-74943158D01*
X87885000Y-74656260D01*
X87885000Y-74363740D01*
X87827932Y-74076842D01*
X87715990Y-73806589D01*
X87553475Y-73563368D01*
X87346632Y-73356525D01*
X87172240Y-73240000D01*
X87346632Y-73123475D01*
X87553475Y-72916632D01*
X87715990Y-72673411D01*
X87827932Y-72403158D01*
X87885000Y-72116260D01*
X87885000Y-71823740D01*
X87827932Y-71536842D01*
X87715990Y-71266589D01*
X87553475Y-71023368D01*
X87346632Y-70816525D01*
X87172240Y-70700000D01*
X87346632Y-70583475D01*
X87553475Y-70376632D01*
X87715990Y-70133411D01*
X87827932Y-69863158D01*
X87885000Y-69576260D01*
X87885000Y-69283740D01*
X87827932Y-68996842D01*
X87715990Y-68726589D01*
X87553475Y-68483368D01*
X87346632Y-68276525D01*
X87172240Y-68160000D01*
X87346632Y-68043475D01*
X87553475Y-67836632D01*
X87715990Y-67593411D01*
X87827932Y-67323158D01*
X87870427Y-67109523D01*
X87897089Y-67243560D01*
X87960033Y-67395521D01*
X88025001Y-67492753D01*
X88025000Y-79966848D01*
X88021735Y-80000000D01*
X88025000Y-80033152D01*
X88025000Y-80033158D01*
X88030486Y-80088855D01*
X88034767Y-80132323D01*
X88037941Y-80142785D01*
X88073364Y-80259560D01*
X88131176Y-80367719D01*
X88136043Y-80376824D01*
X88199256Y-80453850D01*
X88199263Y-80453857D01*
X88220394Y-80479605D01*
X88246144Y-80500738D01*
X89099258Y-81353852D01*
X89120394Y-81379606D01*
X89223176Y-81463958D01*
X89340439Y-81526636D01*
X89429079Y-81553524D01*
X89467676Y-81565233D01*
X89481499Y-81566594D01*
X89566841Y-81575000D01*
X89566847Y-81575000D01*
X89599999Y-81578265D01*
X89633151Y-81575000D01*
X93466848Y-81575000D01*
X93500000Y-81578265D01*
X93533152Y-81575000D01*
X93533159Y-81575000D01*
X93632323Y-81565233D01*
X93759561Y-81526636D01*
X93876824Y-81463958D01*
X93979606Y-81379606D01*
X94000743Y-81353851D01*
X94154195Y-81200398D01*
X94199560Y-81186637D01*
X94316823Y-81123959D01*
X94376479Y-81075000D01*
X94393849Y-81060745D01*
X94393851Y-81060743D01*
X94419605Y-81039607D01*
X94440743Y-81013851D01*
X98828870Y-76625725D01*
X98943560Y-76602911D01*
X99095521Y-76539967D01*
X99108101Y-76531561D01*
X99108100Y-88255425D01*
X99104665Y-88290300D01*
X99108100Y-88325175D01*
X99108100Y-88325176D01*
X99118373Y-88429483D01*
X99158972Y-88563319D01*
X99224900Y-88686662D01*
X99313625Y-88794774D01*
X99340717Y-88817008D01*
X99498188Y-88974479D01*
X99511512Y-88990714D01*
X99382240Y-88965000D01*
X99217760Y-88965000D01*
X99056440Y-88997089D01*
X98904479Y-89060033D01*
X98767719Y-89151413D01*
X98651413Y-89267719D01*
X98560033Y-89404479D01*
X98497089Y-89556440D01*
X98465000Y-89717760D01*
X98465000Y-89882240D01*
X98497089Y-90043560D01*
X98560033Y-90195521D01*
X98651413Y-90332281D01*
X98767719Y-90448587D01*
X98904479Y-90539967D01*
X99056440Y-90602911D01*
X99217760Y-90635000D01*
X99382240Y-90635000D01*
X99543560Y-90602911D01*
X99695521Y-90539967D01*
X99792751Y-90475000D01*
X122556848Y-90475000D01*
X122590000Y-90478265D01*
X122623152Y-90475000D01*
X122623159Y-90475000D01*
X122722323Y-90465233D01*
X122849561Y-90426636D01*
X122966824Y-90363958D01*
X123069606Y-90279606D01*
X123090742Y-90253852D01*
X123963431Y-89381164D01*
X123991842Y-89392932D01*
X124278740Y-89450000D01*
X124571260Y-89450000D01*
X124858158Y-89392932D01*
X125128411Y-89280990D01*
X125371632Y-89118475D01*
X125578475Y-88911632D01*
X125740990Y-88668411D01*
X125852932Y-88398158D01*
X125910000Y-88111260D01*
X125910000Y-87818740D01*
X125852932Y-87531842D01*
X125740990Y-87261589D01*
X125578475Y-87018368D01*
X125371632Y-86811525D01*
X125197240Y-86695000D01*
X125371632Y-86578475D01*
X125578475Y-86371632D01*
X125740990Y-86128411D01*
X125852932Y-85858158D01*
X125910000Y-85571260D01*
X125910000Y-85278740D01*
X125852932Y-84991842D01*
X125740990Y-84721589D01*
X125578475Y-84478368D01*
X125400152Y-84300045D01*
X125848858Y-83851338D01*
X125874606Y-83830207D01*
X125895739Y-83804457D01*
X125895744Y-83804452D01*
X125958958Y-83727426D01*
X125958959Y-83727425D01*
X126021637Y-83610162D01*
X126060234Y-83482924D01*
X126070001Y-83383760D01*
X126070001Y-83383754D01*
X126073266Y-83350602D01*
X126070001Y-83317450D01*
X126070001Y-82452550D01*
X126073266Y-82419398D01*
X126070001Y-82386246D01*
X126070001Y-82386240D01*
X126060234Y-82287076D01*
X126021637Y-82159838D01*
X125958959Y-82042575D01*
X125874607Y-81939793D01*
X125848853Y-81918657D01*
X125400152Y-81469956D01*
X125578475Y-81291632D01*
X125740990Y-81048411D01*
X125852932Y-80778158D01*
X125910000Y-80491260D01*
X125910000Y-80198740D01*
X125852932Y-79911842D01*
X125841164Y-79883430D01*
X126153852Y-79570742D01*
X126179606Y-79549606D01*
X126263958Y-79446824D01*
X126326636Y-79329561D01*
X126362908Y-79209989D01*
X126365233Y-79202324D01*
X126367754Y-79176728D01*
X126375000Y-79103159D01*
X126375000Y-79103153D01*
X126378265Y-79070001D01*
X126375000Y-79036849D01*
X126375000Y-68933158D01*
X126378266Y-68900000D01*
X126365233Y-68767677D01*
X126326636Y-68640439D01*
X126263958Y-68523176D01*
X126179606Y-68420394D01*
X126076824Y-68336042D01*
X125959561Y-68273364D01*
X125832323Y-68234767D01*
X125789798Y-68230579D01*
X125852932Y-68078158D01*
X125910000Y-67791260D01*
X125910000Y-67498740D01*
X125852932Y-67211842D01*
X125740990Y-66941589D01*
X125578475Y-66698368D01*
X125371632Y-66491525D01*
X125197240Y-66375000D01*
X125371632Y-66258475D01*
X125578475Y-66051632D01*
X125740990Y-65808411D01*
X125852932Y-65538158D01*
X125910000Y-65251260D01*
X125910000Y-64958740D01*
X125852932Y-64671842D01*
X125740990Y-64401589D01*
X125578475Y-64158368D01*
X125371632Y-63951525D01*
X125197240Y-63835000D01*
X125371632Y-63718475D01*
X125578475Y-63511632D01*
X125740990Y-63268411D01*
X125852932Y-62998158D01*
X125910000Y-62711260D01*
X125910000Y-62418740D01*
X125852932Y-62131842D01*
X125841164Y-62103430D01*
X126853857Y-61090737D01*
X126879605Y-61069606D01*
X126900738Y-61043856D01*
X126900744Y-61043850D01*
X126963957Y-60966825D01*
X126963959Y-60966823D01*
X127013039Y-60875000D01*
X127026636Y-60849562D01*
X127065233Y-60722324D01*
X127068444Y-60689722D01*
X127075000Y-60623159D01*
X127075000Y-60623152D01*
X127078265Y-60590000D01*
X127075000Y-60556848D01*
X127075000Y-58533159D01*
X127078266Y-58500000D01*
X127065233Y-58367677D01*
X127026636Y-58240439D01*
X126963958Y-58123176D01*
X126879606Y-58020394D01*
X126776824Y-57936042D01*
X126659561Y-57873364D01*
X126532323Y-57834767D01*
X126433159Y-57825000D01*
X126400000Y-57821734D01*
X126366841Y-57825000D01*
X117633152Y-57825000D01*
X117600000Y-57821735D01*
X117566848Y-57825000D01*
X117566841Y-57825000D01*
X117480192Y-57833534D01*
X117467676Y-57834767D01*
X117400265Y-57855216D01*
X117340439Y-57873364D01*
X117223176Y-57936042D01*
X117223174Y-57936043D01*
X117223175Y-57936043D01*
X117149917Y-57996165D01*
X117120394Y-58020394D01*
X117099258Y-58046148D01*
X110708405Y-64437001D01*
X110708405Y-62966557D01*
X110711670Y-62933405D01*
X110708405Y-62900253D01*
X110708405Y-62900246D01*
X110698638Y-62801082D01*
X110686163Y-62759955D01*
X110660041Y-62673844D01*
X110639836Y-62636043D01*
X110597363Y-62556581D01*
X110563955Y-62515874D01*
X110534149Y-62479555D01*
X110534143Y-62479549D01*
X110513010Y-62453799D01*
X110487262Y-62432668D01*
X99925725Y-51871131D01*
X99902911Y-51756440D01*
X99839967Y-51604479D01*
X99748587Y-51467719D01*
X99632281Y-51351413D01*
X99495521Y-51260033D01*
X99343560Y-51197089D01*
X99182240Y-51165000D01*
X99017760Y-51165000D01*
X98856440Y-51197089D01*
X98704479Y-51260033D01*
X98567719Y-51351413D01*
X98451413Y-51467719D01*
X98360033Y-51604479D01*
X98297089Y-51756440D01*
X98265000Y-51917760D01*
X98265000Y-52082240D01*
X98297089Y-52243560D01*
X98360033Y-52395521D01*
X98451413Y-52532281D01*
X98567719Y-52648587D01*
X98704479Y-52739967D01*
X98856440Y-52802911D01*
X98971131Y-52825725D01*
X109358405Y-63212999D01*
X109358406Y-67603811D01*
X103925725Y-62171131D01*
X103902911Y-62056440D01*
X103839967Y-61904479D01*
X103748587Y-61767719D01*
X103632281Y-61651413D01*
X103495521Y-61560033D01*
X103343560Y-61497089D01*
X103182240Y-61465000D01*
X103017760Y-61465000D01*
X102856440Y-61497089D01*
X102704479Y-61560033D01*
X102567719Y-61651413D01*
X102486820Y-61732312D01*
X102444181Y-61703822D01*
X102274021Y-61633340D01*
X102093381Y-61597408D01*
X101909203Y-61597408D01*
X101881400Y-61602938D01*
X101881400Y-58228577D01*
X101884835Y-58193700D01*
X101871127Y-58054515D01*
X101830528Y-57920680D01*
X101829698Y-57919127D01*
X101764600Y-57797337D01*
X101675874Y-57689225D01*
X101648783Y-57666992D01*
X94231791Y-50250000D01*
X123411928Y-50250000D01*
X123411928Y-51950000D01*
X123424188Y-52074482D01*
X123460498Y-52194180D01*
X123519463Y-52304494D01*
X123598815Y-52401185D01*
X123695506Y-52480537D01*
X123805820Y-52539502D01*
X123925518Y-52575812D01*
X124050000Y-52588072D01*
X125750000Y-52588072D01*
X125874482Y-52575812D01*
X125994180Y-52539502D01*
X126104494Y-52480537D01*
X126201185Y-52401185D01*
X126280537Y-52304494D01*
X126339502Y-52194180D01*
X126375812Y-52074482D01*
X126388072Y-51950000D01*
X126388072Y-50250000D01*
X126375812Y-50125518D01*
X126339502Y-50005820D01*
X126280537Y-49895506D01*
X126201185Y-49798815D01*
X126104494Y-49719463D01*
X125994180Y-49660498D01*
X125874482Y-49624188D01*
X125750000Y-49611928D01*
X124050000Y-49611928D01*
X123925518Y-49624188D01*
X123805820Y-49660498D01*
X123695506Y-49719463D01*
X123598815Y-49798815D01*
X123519463Y-49895506D01*
X123460498Y-50005820D01*
X123424188Y-50125518D01*
X123411928Y-50250000D01*
X94231791Y-50250000D01*
X93811312Y-49829521D01*
X93789075Y-49802425D01*
X93680963Y-49713700D01*
X93557620Y-49647772D01*
X93423784Y-49607173D01*
X93319477Y-49596900D01*
X93319475Y-49596900D01*
X93284600Y-49593465D01*
X93249725Y-49596900D01*
X91305977Y-49596900D01*
X91271100Y-49593465D01*
X91131915Y-49607173D01*
X91075825Y-49624188D01*
X90998080Y-49647772D01*
X90874737Y-49713700D01*
X90766625Y-49802425D01*
X90744388Y-49829521D01*
X87843757Y-52730152D01*
X87875812Y-52624482D01*
X87888072Y-52500000D01*
X87888072Y-50800000D01*
X87875812Y-50675518D01*
X87839502Y-50555820D01*
X87780537Y-50445506D01*
X87701185Y-50348815D01*
X87604494Y-50269463D01*
X87494180Y-50210498D01*
X87374482Y-50174188D01*
X87250000Y-50161928D01*
X85550000Y-50161928D01*
X85425518Y-50174188D01*
X85305820Y-50210498D01*
X85195506Y-50269463D01*
X85098815Y-50348815D01*
X85019463Y-50445506D01*
X84960498Y-50555820D01*
X84924188Y-50675518D01*
X84911928Y-50800000D01*
X84911928Y-52500000D01*
X84924188Y-52624482D01*
X84960498Y-52744180D01*
X85019463Y-52854494D01*
X85098815Y-52951185D01*
X85195506Y-53030537D01*
X85305820Y-53089502D01*
X85386466Y-53113966D01*
X85302412Y-53189731D01*
X85128359Y-53423080D01*
X85003175Y-53685901D01*
X84958524Y-53833110D01*
X85079845Y-54063000D01*
X86273000Y-54063000D01*
X86273000Y-54043000D01*
X86527000Y-54043000D01*
X86527000Y-54063000D01*
X86547000Y-54063000D01*
X86547000Y-54317000D01*
X86527000Y-54317000D01*
X86527000Y-56603000D01*
X86547000Y-56603000D01*
X86547000Y-56857000D01*
X86527000Y-56857000D01*
X86527000Y-56877000D01*
X86273000Y-56877000D01*
X86273000Y-56857000D01*
X85079845Y-56857000D01*
X84958524Y-57086890D01*
X85003175Y-57234099D01*
X85128359Y-57496920D01*
X85302412Y-57730269D01*
X85350602Y-57773707D01*
X84869917Y-58254392D01*
X84842826Y-58276625D01*
X84820593Y-58303716D01*
X84754101Y-58384737D01*
X84688172Y-58508081D01*
X84647574Y-58641916D01*
X84633865Y-58781100D01*
X84637301Y-58815985D01*
X84637300Y-62817809D01*
X84619618Y-62835491D01*
X84592526Y-62857725D01*
X84570293Y-62884816D01*
X84503801Y-62965837D01*
X84437872Y-63089181D01*
X84397274Y-63223016D01*
X84383565Y-63362200D01*
X82058786Y-63362200D01*
X82039412Y-54546890D01*
X84958524Y-54546890D01*
X85003175Y-54694099D01*
X85128359Y-54956920D01*
X85302412Y-55190269D01*
X85518645Y-55385178D01*
X85644255Y-55460000D01*
X85518645Y-55534822D01*
X85302412Y-55729731D01*
X85128359Y-55963080D01*
X85003175Y-56225901D01*
X84958524Y-56373110D01*
X85079845Y-56603000D01*
X86273000Y-56603000D01*
X86273000Y-54317000D01*
X85079845Y-54317000D01*
X84958524Y-54546890D01*
X82039412Y-54546890D01*
X82027280Y-49027271D01*
X128773000Y-49126730D01*
G04 #@! TA.AperFunction,Conductor*
D18*
G36*
X128773000Y-49126730D02*
G01*
X128773000Y-94173270D01*
X82126721Y-94272729D01*
X82112810Y-87943137D01*
X86515000Y-87943137D01*
X86515000Y-88156863D01*
X86556696Y-88366483D01*
X86638485Y-88563940D01*
X86757225Y-88741647D01*
X86908353Y-88892775D01*
X87086060Y-89011515D01*
X87283517Y-89093304D01*
X87493137Y-89135000D01*
X87706863Y-89135000D01*
X87916483Y-89093304D01*
X88113940Y-89011515D01*
X88291647Y-88892775D01*
X88442775Y-88741647D01*
X88561515Y-88563940D01*
X88643304Y-88366483D01*
X88685000Y-88156863D01*
X88685000Y-87943137D01*
X90915000Y-87943137D01*
X90915000Y-88156863D01*
X90956696Y-88366483D01*
X91038485Y-88563940D01*
X91157225Y-88741647D01*
X91308353Y-88892775D01*
X91486060Y-89011515D01*
X91683517Y-89093304D01*
X91893137Y-89135000D01*
X92106863Y-89135000D01*
X92316483Y-89093304D01*
X92513940Y-89011515D01*
X92691647Y-88892775D01*
X92842775Y-88741647D01*
X92961515Y-88563940D01*
X93043304Y-88366483D01*
X93085000Y-88156863D01*
X93085000Y-87943137D01*
X93043304Y-87733517D01*
X92961515Y-87536060D01*
X92842775Y-87358353D01*
X92691647Y-87207225D01*
X92513940Y-87088485D01*
X92316483Y-87006696D01*
X92106863Y-86965000D01*
X91893137Y-86965000D01*
X91683517Y-87006696D01*
X91486060Y-87088485D01*
X91308353Y-87207225D01*
X91157225Y-87358353D01*
X91038485Y-87536060D01*
X90956696Y-87733517D01*
X90915000Y-87943137D01*
X88685000Y-87943137D01*
X88643304Y-87733517D01*
X88561515Y-87536060D01*
X88442775Y-87358353D01*
X88291647Y-87207225D01*
X88113940Y-87088485D01*
X87916483Y-87006696D01*
X87706863Y-86965000D01*
X87493137Y-86965000D01*
X87283517Y-87006696D01*
X87086060Y-87088485D01*
X86908353Y-87207225D01*
X86757225Y-87358353D01*
X86638485Y-87536060D01*
X86556696Y-87733517D01*
X86515000Y-87943137D01*
X82112810Y-87943137D01*
X82058786Y-63362200D01*
X84383565Y-63362200D01*
X84387001Y-63397084D01*
X84387000Y-64916425D01*
X84383565Y-64951300D01*
X84387000Y-64986175D01*
X84387000Y-64986176D01*
X84397273Y-65090483D01*
X84437872Y-65224319D01*
X84503800Y-65347662D01*
X84592525Y-65455774D01*
X84619618Y-65478009D01*
X84637301Y-65495692D01*
X84637300Y-69857125D01*
X84633865Y-69892000D01*
X84637300Y-69926875D01*
X84637300Y-69926876D01*
X84647573Y-70031183D01*
X84688172Y-70165019D01*
X84754100Y-70288362D01*
X84842825Y-70396474D01*
X84869917Y-70418708D01*
X85360551Y-70909342D01*
X85246525Y-71023368D01*
X85084010Y-71266589D01*
X84972068Y-71536842D01*
X84915000Y-71823740D01*
X84915000Y-72116260D01*
X84972068Y-72403158D01*
X85084010Y-72673411D01*
X85246525Y-72916632D01*
X85453368Y-73123475D01*
X85627760Y-73240000D01*
X85453368Y-73356525D01*
X85246525Y-73563368D01*
X85084010Y-73806589D01*
X84972068Y-74076842D01*
X84915000Y-74363740D01*
X84915000Y-74656260D01*
X84972068Y-74943158D01*
X85084010Y-75213411D01*
X85246525Y-75456632D01*
X85453368Y-75663475D01*
X85627760Y-75780000D01*
X85453368Y-75896525D01*
X85246525Y-76103368D01*
X85084010Y-76346589D01*
X84972068Y-76616842D01*
X84915000Y-76903740D01*
X84915000Y-77196260D01*
X84972068Y-77483158D01*
X85084010Y-77753411D01*
X85246525Y-77996632D01*
X85453368Y-78203475D01*
X85627760Y-78320000D01*
X85453368Y-78436525D01*
X85246525Y-78643368D01*
X85084010Y-78886589D01*
X84972068Y-79156842D01*
X84915000Y-79443740D01*
X84915000Y-79736260D01*
X84972068Y-80023158D01*
X85084010Y-80293411D01*
X85246525Y-80536632D01*
X85453368Y-80743475D01*
X85696589Y-80905990D01*
X85966842Y-81017932D01*
X86253740Y-81075000D01*
X86546260Y-81075000D01*
X86833158Y-81017932D01*
X87103411Y-80905990D01*
X87346632Y-80743475D01*
X87553475Y-80536632D01*
X87715990Y-80293411D01*
X87827932Y-80023158D01*
X87885000Y-79736260D01*
X87885000Y-79443740D01*
X87827932Y-79156842D01*
X87715990Y-78886589D01*
X87553475Y-78643368D01*
X87346632Y-78436525D01*
X87172240Y-78320000D01*
X87346632Y-78203475D01*
X87553475Y-77996632D01*
X87715990Y-77753411D01*
X87827932Y-77483158D01*
X87885000Y-77196260D01*
X87885000Y-76903740D01*
X87827932Y-76616842D01*
X87715990Y-76346589D01*
X87553475Y-76103368D01*
X87346632Y-75896525D01*
X87172240Y-75780000D01*
X87346632Y-75663475D01*
X87553475Y-75456632D01*
X87715990Y-75213411D01*
X87827932Y-74943158D01*
X87885000Y-74656260D01*
X87885000Y-74363740D01*
X87827932Y-74076842D01*
X87715990Y-73806589D01*
X87553475Y-73563368D01*
X87346632Y-73356525D01*
X87172240Y-73240000D01*
X87346632Y-73123475D01*
X87553475Y-72916632D01*
X87715990Y-72673411D01*
X87827932Y-72403158D01*
X87885000Y-72116260D01*
X87885000Y-71823740D01*
X87827932Y-71536842D01*
X87715990Y-71266589D01*
X87553475Y-71023368D01*
X87346632Y-70816525D01*
X87172240Y-70700000D01*
X87346632Y-70583475D01*
X87553475Y-70376632D01*
X87715990Y-70133411D01*
X87827932Y-69863158D01*
X87885000Y-69576260D01*
X87885000Y-69283740D01*
X87827932Y-68996842D01*
X87715990Y-68726589D01*
X87553475Y-68483368D01*
X87346632Y-68276525D01*
X87172240Y-68160000D01*
X87346632Y-68043475D01*
X87553475Y-67836632D01*
X87715990Y-67593411D01*
X87827932Y-67323158D01*
X87870427Y-67109523D01*
X87897089Y-67243560D01*
X87960033Y-67395521D01*
X88025001Y-67492753D01*
X88025000Y-79966848D01*
X88021735Y-80000000D01*
X88025000Y-80033152D01*
X88025000Y-80033158D01*
X88030486Y-80088855D01*
X88034767Y-80132323D01*
X88037941Y-80142785D01*
X88073364Y-80259560D01*
X88131176Y-80367719D01*
X88136043Y-80376824D01*
X88199256Y-80453850D01*
X88199263Y-80453857D01*
X88220394Y-80479605D01*
X88246144Y-80500738D01*
X89099258Y-81353852D01*
X89120394Y-81379606D01*
X89223176Y-81463958D01*
X89340439Y-81526636D01*
X89429079Y-81553524D01*
X89467676Y-81565233D01*
X89481499Y-81566594D01*
X89566841Y-81575000D01*
X89566847Y-81575000D01*
X89599999Y-81578265D01*
X89633151Y-81575000D01*
X93466848Y-81575000D01*
X93500000Y-81578265D01*
X93533152Y-81575000D01*
X93533159Y-81575000D01*
X93632323Y-81565233D01*
X93759561Y-81526636D01*
X93876824Y-81463958D01*
X93979606Y-81379606D01*
X94000743Y-81353851D01*
X94154195Y-81200398D01*
X94199560Y-81186637D01*
X94316823Y-81123959D01*
X94376479Y-81075000D01*
X94393849Y-81060745D01*
X94393851Y-81060743D01*
X94419605Y-81039607D01*
X94440743Y-81013851D01*
X98828870Y-76625725D01*
X98943560Y-76602911D01*
X99095521Y-76539967D01*
X99108101Y-76531561D01*
X99108100Y-88255425D01*
X99104665Y-88290300D01*
X99108100Y-88325175D01*
X99108100Y-88325176D01*
X99118373Y-88429483D01*
X99158972Y-88563319D01*
X99224900Y-88686662D01*
X99313625Y-88794774D01*
X99340717Y-88817008D01*
X99498188Y-88974479D01*
X99511512Y-88990714D01*
X99382240Y-88965000D01*
X99217760Y-88965000D01*
X99056440Y-88997089D01*
X98904479Y-89060033D01*
X98767719Y-89151413D01*
X98651413Y-89267719D01*
X98560033Y-89404479D01*
X98497089Y-89556440D01*
X98465000Y-89717760D01*
X98465000Y-89882240D01*
X98497089Y-90043560D01*
X98560033Y-90195521D01*
X98651413Y-90332281D01*
X98767719Y-90448587D01*
X98904479Y-90539967D01*
X99056440Y-90602911D01*
X99217760Y-90635000D01*
X99382240Y-90635000D01*
X99543560Y-90602911D01*
X99695521Y-90539967D01*
X99792751Y-90475000D01*
X122556848Y-90475000D01*
X122590000Y-90478265D01*
X122623152Y-90475000D01*
X122623159Y-90475000D01*
X122722323Y-90465233D01*
X122849561Y-90426636D01*
X122966824Y-90363958D01*
X123069606Y-90279606D01*
X123090742Y-90253852D01*
X123963431Y-89381164D01*
X123991842Y-89392932D01*
X124278740Y-89450000D01*
X124571260Y-89450000D01*
X124858158Y-89392932D01*
X125128411Y-89280990D01*
X125371632Y-89118475D01*
X125578475Y-88911632D01*
X125740990Y-88668411D01*
X125852932Y-88398158D01*
X125910000Y-88111260D01*
X125910000Y-87818740D01*
X125852932Y-87531842D01*
X125740990Y-87261589D01*
X125578475Y-87018368D01*
X125371632Y-86811525D01*
X125197240Y-86695000D01*
X125371632Y-86578475D01*
X125578475Y-86371632D01*
X125740990Y-86128411D01*
X125852932Y-85858158D01*
X125910000Y-85571260D01*
X125910000Y-85278740D01*
X125852932Y-84991842D01*
X125740990Y-84721589D01*
X125578475Y-84478368D01*
X125400152Y-84300045D01*
X125848858Y-83851338D01*
X125874606Y-83830207D01*
X125895739Y-83804457D01*
X125895744Y-83804452D01*
X125958958Y-83727426D01*
X125958959Y-83727425D01*
X126021637Y-83610162D01*
X126060234Y-83482924D01*
X126070001Y-83383760D01*
X126070001Y-83383754D01*
X126073266Y-83350602D01*
X126070001Y-83317450D01*
X126070001Y-82452550D01*
X126073266Y-82419398D01*
X126070001Y-82386246D01*
X126070001Y-82386240D01*
X126060234Y-82287076D01*
X126021637Y-82159838D01*
X125958959Y-82042575D01*
X125874607Y-81939793D01*
X125848853Y-81918657D01*
X125400152Y-81469956D01*
X125578475Y-81291632D01*
X125740990Y-81048411D01*
X125852932Y-80778158D01*
X125910000Y-80491260D01*
X125910000Y-80198740D01*
X125852932Y-79911842D01*
X125841164Y-79883430D01*
X126153852Y-79570742D01*
X126179606Y-79549606D01*
X126263958Y-79446824D01*
X126326636Y-79329561D01*
X126362908Y-79209989D01*
X126365233Y-79202324D01*
X126367754Y-79176728D01*
X126375000Y-79103159D01*
X126375000Y-79103153D01*
X126378265Y-79070001D01*
X126375000Y-79036849D01*
X126375000Y-68933158D01*
X126378266Y-68900000D01*
X126365233Y-68767677D01*
X126326636Y-68640439D01*
X126263958Y-68523176D01*
X126179606Y-68420394D01*
X126076824Y-68336042D01*
X125959561Y-68273364D01*
X125832323Y-68234767D01*
X125789798Y-68230579D01*
X125852932Y-68078158D01*
X125910000Y-67791260D01*
X125910000Y-67498740D01*
X125852932Y-67211842D01*
X125740990Y-66941589D01*
X125578475Y-66698368D01*
X125371632Y-66491525D01*
X125197240Y-66375000D01*
X125371632Y-66258475D01*
X125578475Y-66051632D01*
X125740990Y-65808411D01*
X125852932Y-65538158D01*
X125910000Y-65251260D01*
X125910000Y-64958740D01*
X125852932Y-64671842D01*
X125740990Y-64401589D01*
X125578475Y-64158368D01*
X125371632Y-63951525D01*
X125197240Y-63835000D01*
X125371632Y-63718475D01*
X125578475Y-63511632D01*
X125740990Y-63268411D01*
X125852932Y-62998158D01*
X125910000Y-62711260D01*
X125910000Y-62418740D01*
X125852932Y-62131842D01*
X125841164Y-62103430D01*
X126853857Y-61090737D01*
X126879605Y-61069606D01*
X126900738Y-61043856D01*
X126900744Y-61043850D01*
X126963957Y-60966825D01*
X126963959Y-60966823D01*
X127013039Y-60875000D01*
X127026636Y-60849562D01*
X127065233Y-60722324D01*
X127068444Y-60689722D01*
X127075000Y-60623159D01*
X127075000Y-60623152D01*
X127078265Y-60590000D01*
X127075000Y-60556848D01*
X127075000Y-58533159D01*
X127078266Y-58500000D01*
X127065233Y-58367677D01*
X127026636Y-58240439D01*
X126963958Y-58123176D01*
X126879606Y-58020394D01*
X126776824Y-57936042D01*
X126659561Y-57873364D01*
X126532323Y-57834767D01*
X126433159Y-57825000D01*
X126400000Y-57821734D01*
X126366841Y-57825000D01*
X117633152Y-57825000D01*
X117600000Y-57821735D01*
X117566848Y-57825000D01*
X117566841Y-57825000D01*
X117480192Y-57833534D01*
X117467676Y-57834767D01*
X117400265Y-57855216D01*
X117340439Y-57873364D01*
X117223176Y-57936042D01*
X117223174Y-57936043D01*
X117223175Y-57936043D01*
X117149917Y-57996165D01*
X117120394Y-58020394D01*
X117099258Y-58046148D01*
X110708405Y-64437001D01*
X110708405Y-62966557D01*
X110711670Y-62933405D01*
X110708405Y-62900253D01*
X110708405Y-62900246D01*
X110698638Y-62801082D01*
X110686163Y-62759955D01*
X110660041Y-62673844D01*
X110639836Y-62636043D01*
X110597363Y-62556581D01*
X110563955Y-62515874D01*
X110534149Y-62479555D01*
X110534143Y-62479549D01*
X110513010Y-62453799D01*
X110487262Y-62432668D01*
X99925725Y-51871131D01*
X99902911Y-51756440D01*
X99839967Y-51604479D01*
X99748587Y-51467719D01*
X99632281Y-51351413D01*
X99495521Y-51260033D01*
X99343560Y-51197089D01*
X99182240Y-51165000D01*
X99017760Y-51165000D01*
X98856440Y-51197089D01*
X98704479Y-51260033D01*
X98567719Y-51351413D01*
X98451413Y-51467719D01*
X98360033Y-51604479D01*
X98297089Y-51756440D01*
X98265000Y-51917760D01*
X98265000Y-52082240D01*
X98297089Y-52243560D01*
X98360033Y-52395521D01*
X98451413Y-52532281D01*
X98567719Y-52648587D01*
X98704479Y-52739967D01*
X98856440Y-52802911D01*
X98971131Y-52825725D01*
X109358405Y-63212999D01*
X109358406Y-67603811D01*
X103925725Y-62171131D01*
X103902911Y-62056440D01*
X103839967Y-61904479D01*
X103748587Y-61767719D01*
X103632281Y-61651413D01*
X103495521Y-61560033D01*
X103343560Y-61497089D01*
X103182240Y-61465000D01*
X103017760Y-61465000D01*
X102856440Y-61497089D01*
X102704479Y-61560033D01*
X102567719Y-61651413D01*
X102486820Y-61732312D01*
X102444181Y-61703822D01*
X102274021Y-61633340D01*
X102093381Y-61597408D01*
X101909203Y-61597408D01*
X101881400Y-61602938D01*
X101881400Y-58228577D01*
X101884835Y-58193700D01*
X101871127Y-58054515D01*
X101830528Y-57920680D01*
X101829698Y-57919127D01*
X101764600Y-57797337D01*
X101675874Y-57689225D01*
X101648783Y-57666992D01*
X94231791Y-50250000D01*
X123411928Y-50250000D01*
X123411928Y-51950000D01*
X123424188Y-52074482D01*
X123460498Y-52194180D01*
X123519463Y-52304494D01*
X123598815Y-52401185D01*
X123695506Y-52480537D01*
X123805820Y-52539502D01*
X123925518Y-52575812D01*
X124050000Y-52588072D01*
X125750000Y-52588072D01*
X125874482Y-52575812D01*
X125994180Y-52539502D01*
X126104494Y-52480537D01*
X126201185Y-52401185D01*
X126280537Y-52304494D01*
X126339502Y-52194180D01*
X126375812Y-52074482D01*
X126388072Y-51950000D01*
X126388072Y-50250000D01*
X126375812Y-50125518D01*
X126339502Y-50005820D01*
X126280537Y-49895506D01*
X126201185Y-49798815D01*
X126104494Y-49719463D01*
X125994180Y-49660498D01*
X125874482Y-49624188D01*
X125750000Y-49611928D01*
X124050000Y-49611928D01*
X123925518Y-49624188D01*
X123805820Y-49660498D01*
X123695506Y-49719463D01*
X123598815Y-49798815D01*
X123519463Y-49895506D01*
X123460498Y-50005820D01*
X123424188Y-50125518D01*
X123411928Y-50250000D01*
X94231791Y-50250000D01*
X93811312Y-49829521D01*
X93789075Y-49802425D01*
X93680963Y-49713700D01*
X93557620Y-49647772D01*
X93423784Y-49607173D01*
X93319477Y-49596900D01*
X93319475Y-49596900D01*
X93284600Y-49593465D01*
X93249725Y-49596900D01*
X91305977Y-49596900D01*
X91271100Y-49593465D01*
X91131915Y-49607173D01*
X91075825Y-49624188D01*
X90998080Y-49647772D01*
X90874737Y-49713700D01*
X90766625Y-49802425D01*
X90744388Y-49829521D01*
X87843757Y-52730152D01*
X87875812Y-52624482D01*
X87888072Y-52500000D01*
X87888072Y-50800000D01*
X87875812Y-50675518D01*
X87839502Y-50555820D01*
X87780537Y-50445506D01*
X87701185Y-50348815D01*
X87604494Y-50269463D01*
X87494180Y-50210498D01*
X87374482Y-50174188D01*
X87250000Y-50161928D01*
X85550000Y-50161928D01*
X85425518Y-50174188D01*
X85305820Y-50210498D01*
X85195506Y-50269463D01*
X85098815Y-50348815D01*
X85019463Y-50445506D01*
X84960498Y-50555820D01*
X84924188Y-50675518D01*
X84911928Y-50800000D01*
X84911928Y-52500000D01*
X84924188Y-52624482D01*
X84960498Y-52744180D01*
X85019463Y-52854494D01*
X85098815Y-52951185D01*
X85195506Y-53030537D01*
X85305820Y-53089502D01*
X85386466Y-53113966D01*
X85302412Y-53189731D01*
X85128359Y-53423080D01*
X85003175Y-53685901D01*
X84958524Y-53833110D01*
X85079845Y-54063000D01*
X86273000Y-54063000D01*
X86273000Y-54043000D01*
X86527000Y-54043000D01*
X86527000Y-54063000D01*
X86547000Y-54063000D01*
X86547000Y-54317000D01*
X86527000Y-54317000D01*
X86527000Y-56603000D01*
X86547000Y-56603000D01*
X86547000Y-56857000D01*
X86527000Y-56857000D01*
X86527000Y-56877000D01*
X86273000Y-56877000D01*
X86273000Y-56857000D01*
X85079845Y-56857000D01*
X84958524Y-57086890D01*
X85003175Y-57234099D01*
X85128359Y-57496920D01*
X85302412Y-57730269D01*
X85350602Y-57773707D01*
X84869917Y-58254392D01*
X84842826Y-58276625D01*
X84820593Y-58303716D01*
X84754101Y-58384737D01*
X84688172Y-58508081D01*
X84647574Y-58641916D01*
X84633865Y-58781100D01*
X84637301Y-58815985D01*
X84637300Y-62817809D01*
X84619618Y-62835491D01*
X84592526Y-62857725D01*
X84570293Y-62884816D01*
X84503801Y-62965837D01*
X84437872Y-63089181D01*
X84397274Y-63223016D01*
X84383565Y-63362200D01*
X82058786Y-63362200D01*
X82039412Y-54546890D01*
X84958524Y-54546890D01*
X85003175Y-54694099D01*
X85128359Y-54956920D01*
X85302412Y-55190269D01*
X85518645Y-55385178D01*
X85644255Y-55460000D01*
X85518645Y-55534822D01*
X85302412Y-55729731D01*
X85128359Y-55963080D01*
X85003175Y-56225901D01*
X84958524Y-56373110D01*
X85079845Y-56603000D01*
X86273000Y-56603000D01*
X86273000Y-54317000D01*
X85079845Y-54317000D01*
X84958524Y-54546890D01*
X82039412Y-54546890D01*
X82027280Y-49027271D01*
X128773000Y-49126730D01*
G37*
G04 #@! TD.AperFunction*
D17*
X104444617Y-79849978D02*
X104417525Y-79872212D01*
X104395293Y-79899302D01*
X104328801Y-79980322D01*
X104318283Y-80000000D01*
X104262872Y-80103667D01*
X104222273Y-80237503D01*
X104215339Y-80307911D01*
X104208565Y-80376686D01*
X104212000Y-80411561D01*
X104212001Y-85845402D01*
X104156099Y-85818775D01*
X104008890Y-85774124D01*
X103779000Y-85895445D01*
X103779000Y-87088600D01*
X103799000Y-87088600D01*
X103799000Y-87342600D01*
X103779000Y-87342600D01*
X103779000Y-87362600D01*
X103525000Y-87362600D01*
X103525000Y-87342600D01*
X103505000Y-87342600D01*
X103505000Y-87088600D01*
X103525000Y-87088600D01*
X103525000Y-85895445D01*
X103295110Y-85774124D01*
X103147901Y-85818775D01*
X102885080Y-85943959D01*
X102651731Y-86118012D01*
X102575966Y-86202066D01*
X102551502Y-86121420D01*
X102492537Y-86011106D01*
X102413185Y-85914415D01*
X102316494Y-85835063D01*
X102206180Y-85776098D01*
X102086482Y-85739788D01*
X101962000Y-85727528D01*
X101711600Y-85727528D01*
X101711600Y-81155890D01*
X101727862Y-81139628D01*
X101830186Y-80986489D01*
X101900668Y-80816329D01*
X101936600Y-80635689D01*
X101936600Y-80612691D01*
X102125000Y-80424291D01*
X102125001Y-84733159D01*
X102134768Y-84832323D01*
X102173365Y-84959561D01*
X102236043Y-85076824D01*
X102320395Y-85179606D01*
X102423177Y-85263958D01*
X102540440Y-85326636D01*
X102667678Y-85365233D01*
X102800000Y-85378266D01*
X102932323Y-85365233D01*
X103059561Y-85326636D01*
X103176824Y-85263958D01*
X103279606Y-85179606D01*
X103363958Y-85076824D01*
X103426636Y-84959561D01*
X103465233Y-84832323D01*
X103475000Y-84733159D01*
X103475000Y-80549616D01*
X104728869Y-79295747D01*
X104843560Y-79272933D01*
X104995521Y-79209989D01*
X105132281Y-79118609D01*
X105248587Y-79002303D01*
X105339967Y-78865543D01*
X105356751Y-78825022D01*
X105469574Y-78825022D01*
X104444617Y-79849978D01*
G04 #@! TA.AperFunction,Conductor*
D18*
G36*
X104444617Y-79849978D02*
G01*
X104417525Y-79872212D01*
X104395293Y-79899302D01*
X104328801Y-79980322D01*
X104318283Y-80000000D01*
X104262872Y-80103667D01*
X104222273Y-80237503D01*
X104215339Y-80307911D01*
X104208565Y-80376686D01*
X104212000Y-80411561D01*
X104212001Y-85845402D01*
X104156099Y-85818775D01*
X104008890Y-85774124D01*
X103779000Y-85895445D01*
X103779000Y-87088600D01*
X103799000Y-87088600D01*
X103799000Y-87342600D01*
X103779000Y-87342600D01*
X103779000Y-87362600D01*
X103525000Y-87362600D01*
X103525000Y-87342600D01*
X103505000Y-87342600D01*
X103505000Y-87088600D01*
X103525000Y-87088600D01*
X103525000Y-85895445D01*
X103295110Y-85774124D01*
X103147901Y-85818775D01*
X102885080Y-85943959D01*
X102651731Y-86118012D01*
X102575966Y-86202066D01*
X102551502Y-86121420D01*
X102492537Y-86011106D01*
X102413185Y-85914415D01*
X102316494Y-85835063D01*
X102206180Y-85776098D01*
X102086482Y-85739788D01*
X101962000Y-85727528D01*
X101711600Y-85727528D01*
X101711600Y-81155890D01*
X101727862Y-81139628D01*
X101830186Y-80986489D01*
X101900668Y-80816329D01*
X101936600Y-80635689D01*
X101936600Y-80612691D01*
X102125000Y-80424291D01*
X102125001Y-84733159D01*
X102134768Y-84832323D01*
X102173365Y-84959561D01*
X102236043Y-85076824D01*
X102320395Y-85179606D01*
X102423177Y-85263958D01*
X102540440Y-85326636D01*
X102667678Y-85365233D01*
X102800000Y-85378266D01*
X102932323Y-85365233D01*
X103059561Y-85326636D01*
X103176824Y-85263958D01*
X103279606Y-85179606D01*
X103363958Y-85076824D01*
X103426636Y-84959561D01*
X103465233Y-84832323D01*
X103475000Y-84733159D01*
X103475000Y-80549616D01*
X104728869Y-79295747D01*
X104843560Y-79272933D01*
X104995521Y-79209989D01*
X105132281Y-79118609D01*
X105248587Y-79002303D01*
X105339967Y-78865543D01*
X105356751Y-78825022D01*
X105469574Y-78825022D01*
X104444617Y-79849978D01*
G37*
G04 #@! TD.AperFunction*
D17*
X102936153Y-66386547D02*
X102873738Y-66448962D01*
X102851710Y-66481930D01*
X102798451Y-66382290D01*
X102759450Y-66334767D01*
X102731958Y-66301268D01*
X102731955Y-66301265D01*
X102709725Y-66274178D01*
X102682640Y-66251950D01*
X102285689Y-65854999D01*
X102404606Y-65854999D01*
X102936153Y-66386547D01*
G04 #@! TA.AperFunction,Conductor*
D18*
G36*
X102936153Y-66386547D02*
G01*
X102873738Y-66448962D01*
X102851710Y-66481930D01*
X102798451Y-66382290D01*
X102759450Y-66334767D01*
X102731958Y-66301268D01*
X102731955Y-66301265D01*
X102709725Y-66274178D01*
X102682640Y-66251950D01*
X102285689Y-65854999D01*
X102404606Y-65854999D01*
X102936153Y-66386547D01*
G37*
G04 #@! TD.AperFunction*
M02*
