M48
; DRILL file {KiCad 5.1.7-a382d34a8~88~ubuntu18.04.1} date Thu Mar 10 15:26:36 2022
; FORMAT={3:3/ absolute / metric / suppress leading zeros}
; #@! TF.CreationDate,2022-03-10T15:26:36+05:30
; #@! TF.GenerationSoftware,Kicad,Pcbnew,5.1.7-a382d34a8~88~ubuntu18.04.1
FMAT,2
METRIC,TZ
T1C0.300
T2C1.000
T3C0.900
%
G90
G05
T1
X88700Y-67000
X89700Y-72300
X89800Y-68400
X94200Y-72699
X94900Y-64500
X95319Y-73019
X95900Y-69000
X96300Y-72600
X96900Y-73220
X98200Y-67600
X98200Y-72600
X98207Y-59098
X98683Y-63345
X98700Y-75800
X98777Y-74433
X99000Y-73200
X99100Y-52000
X99260Y-71903
X99300Y-67600
X99300Y-89800
X99500Y-64600
X99728Y-61810
X99807Y-72705
X99813Y-66103
X100038Y-69543
X100400Y-67700
X100647Y-84700
X100700Y-66900
X101002Y-80544
X101100Y-71645
X101400Y-68600
X101500Y-63200
X101887Y-64287
X102000Y-76800
X102001Y-62532
X102015Y-71492
X102047Y-70122
X102055Y-74182
X102100Y-68902
X102155Y-73112
X102400Y-66000
X103100Y-62300
X103600Y-67045
X103845Y-68600
X103945Y-69200
X104500Y-77000
X104600Y-78470
X104775Y-69000
X105555Y-68735
X105566Y-66859
X105585Y-67765
X106020Y-80122
X106655Y-68896
X106800Y-80400
X107100Y-77800
X107500Y-79400
X107625Y-69063
X108105Y-78621
X108470Y-77655
X109242Y-69266
X109378Y-78650
X109382Y-70364
X109676Y-72080
X109700Y-77300
X109747Y-75328
X109872Y-71534
X109900Y-80900
X110100Y-73100
X110200Y-72329
X110400Y-82500
X110600Y-71700
X110852Y-75945
X110900Y-69400
X111801Y-69701
X112055Y-72152
X113000Y-76755
X113800Y-76900
X114900Y-77100
X115300Y-64700
X115800Y-74700
X116488Y-77508
X117615Y-65871
X120400Y-74261
X120500Y-70900
X120600Y-66400
X120700Y-68900
X121900Y-67800
X121900Y-82300
X122800Y-66800
T2
X101112Y-87216
X103652Y-87216
X106192Y-87216
X108732Y-87216
X111272Y-87216
X92300Y-51650
X92300Y-54190
X92300Y-56730
X92300Y-59270
X92300Y-61810
X92300Y-64350
X92300Y-66890
X92300Y-69430
X92300Y-71970
X92300Y-74510
X92300Y-77050
X92300Y-79590
X124900Y-51100
X118700Y-60100
X118700Y-62640
X118700Y-65180
X118700Y-67720
X118700Y-70260
X118700Y-72800
X118700Y-75340
X118700Y-77880
X118700Y-80420
X118700Y-82960
X118700Y-85500
X118700Y-88040
X86400Y-51650
X86400Y-54190
X86400Y-56730
X86400Y-59270
X86400Y-61810
X86400Y-64350
X86400Y-66890
X86400Y-69430
X86400Y-71970
X86400Y-74510
X86400Y-77050
X86400Y-79590
X124425Y-60025
X124425Y-62565
X124425Y-65105
X124425Y-67645
X124425Y-70185
X124425Y-72725
X124425Y-75265
X124425Y-77805
X124425Y-80345
X124425Y-82885
X124425Y-85425
X124425Y-87965
T3
X87600Y-88050
X92000Y-88050
T0
M30
