G04 #@! TF.GenerationSoftware,KiCad,Pcbnew,5.1.7-a382d34a8~88~ubuntu18.04.1*
G04 #@! TF.CreationDate,2022-03-10T15:26:47+05:30*
G04 #@! TF.ProjectId,nrf52840_Dev_v1,6e726635-3238-4343-905f-4465765f7631,rev?*
G04 #@! TF.SameCoordinates,Original*
G04 #@! TF.FileFunction,Legend,Top*
G04 #@! TF.FilePolarity,Positive*
%FSLAX46Y46*%
G04 Gerber Fmt 4.6, Leading zero omitted, Abs format (unit mm)*
G04 Created by KiCad (PCBNEW 5.1.7-a382d34a8~88~ubuntu18.04.1) date 2022-03-10 15:26:47*
%MOMM*%
%LPD*%
G01*
G04 APERTURE LIST*
%ADD10C,0.300000*%
%ADD11C,0.050000*%
%ADD12C,0.100000*%
%ADD13C,0.010000*%
%ADD14C,0.200000*%
%ADD15C,0.127000*%
%ADD16C,0.150000*%
%ADD17C,0.120000*%
G04 APERTURE END LIST*
D10*
X99429642Y-91578571D02*
X99617142Y-90078571D01*
X99527857Y-90792857D02*
X100385000Y-90792857D01*
X100286785Y-91578571D02*
X100474285Y-90078571D01*
X101768928Y-90578571D02*
X101643928Y-91578571D01*
X101126071Y-90578571D02*
X101027857Y-91364285D01*
X101081428Y-91507142D01*
X101215357Y-91578571D01*
X101429642Y-91578571D01*
X101581428Y-91507142D01*
X101661785Y-91435714D01*
X102358214Y-91578571D02*
X102545714Y-90078571D01*
X102572500Y-91007142D02*
X102929642Y-91578571D01*
X103054642Y-90578571D02*
X102411785Y-91150000D01*
X104215357Y-91578571D02*
X104313571Y-90792857D01*
X104260000Y-90650000D01*
X104126071Y-90578571D01*
X103840357Y-90578571D01*
X103688571Y-90650000D01*
X104224285Y-91507142D02*
X104072500Y-91578571D01*
X103715357Y-91578571D01*
X103581428Y-91507142D01*
X103527857Y-91364285D01*
X103545714Y-91221428D01*
X103635000Y-91078571D01*
X103786785Y-91007142D01*
X104143928Y-91007142D01*
X104295714Y-90935714D01*
X104929642Y-91578571D02*
X105054642Y-90578571D01*
X105036785Y-90721428D02*
X105117142Y-90650000D01*
X105268928Y-90578571D01*
X105483214Y-90578571D01*
X105617142Y-90650000D01*
X105670714Y-90792857D01*
X105572500Y-91578571D01*
X105670714Y-90792857D02*
X105760000Y-90650000D01*
X105911785Y-90578571D01*
X106126071Y-90578571D01*
X106260000Y-90650000D01*
X106313571Y-90792857D01*
X106215357Y-91578571D01*
X108045714Y-90078571D02*
X108902857Y-90078571D01*
X108286785Y-91578571D02*
X108474285Y-90078571D01*
X109795714Y-91507142D02*
X109643928Y-91578571D01*
X109358214Y-91578571D01*
X109224285Y-91507142D01*
X109170714Y-91364285D01*
X109242142Y-90792857D01*
X109331428Y-90650000D01*
X109483214Y-90578571D01*
X109768928Y-90578571D01*
X109902857Y-90650000D01*
X109956428Y-90792857D01*
X109938571Y-90935714D01*
X109206428Y-91078571D01*
X111152857Y-91507142D02*
X111001071Y-91578571D01*
X110715357Y-91578571D01*
X110581428Y-91507142D01*
X110518928Y-91435714D01*
X110465357Y-91292857D01*
X110518928Y-90864285D01*
X110608214Y-90721428D01*
X110688571Y-90650000D01*
X110840357Y-90578571D01*
X111126071Y-90578571D01*
X111260000Y-90650000D01*
X111786785Y-91578571D02*
X111974285Y-90078571D01*
X112429642Y-91578571D02*
X112527857Y-90792857D01*
X112474285Y-90650000D01*
X112340357Y-90578571D01*
X112126071Y-90578571D01*
X111974285Y-90650000D01*
X111893928Y-90721428D01*
X113268928Y-90578571D02*
X113143928Y-91578571D01*
X113251071Y-90721428D02*
X113331428Y-90650000D01*
X113483214Y-90578571D01*
X113697500Y-90578571D01*
X113831428Y-90650000D01*
X113885000Y-90792857D01*
X113786785Y-91578571D01*
X114715357Y-91578571D02*
X114581428Y-91507142D01*
X114518928Y-91435714D01*
X114465357Y-91292857D01*
X114518928Y-90864285D01*
X114608214Y-90721428D01*
X114688571Y-90650000D01*
X114840357Y-90578571D01*
X115054642Y-90578571D01*
X115188571Y-90650000D01*
X115251071Y-90721428D01*
X115304642Y-90864285D01*
X115251071Y-91292857D01*
X115161785Y-91435714D01*
X115081428Y-91507142D01*
X114929642Y-91578571D01*
X114715357Y-91578571D01*
X116072500Y-91578571D02*
X115938571Y-91507142D01*
X115885000Y-91364285D01*
X116045714Y-90078571D01*
X116858214Y-91578571D02*
X116724285Y-91507142D01*
X116661785Y-91435714D01*
X116608214Y-91292857D01*
X116661785Y-90864285D01*
X116751071Y-90721428D01*
X116831428Y-90650000D01*
X116983214Y-90578571D01*
X117197500Y-90578571D01*
X117331428Y-90650000D01*
X117393928Y-90721428D01*
X117447500Y-90864285D01*
X117393928Y-91292857D01*
X117304642Y-91435714D01*
X117224285Y-91507142D01*
X117072500Y-91578571D01*
X116858214Y-91578571D01*
X118768928Y-90578571D02*
X118617142Y-91792857D01*
X118527857Y-91935714D01*
X118447500Y-92007142D01*
X118295714Y-92078571D01*
X118081428Y-92078571D01*
X117947500Y-92007142D01*
X118652857Y-91507142D02*
X118501071Y-91578571D01*
X118215357Y-91578571D01*
X118081428Y-91507142D01*
X118018928Y-91435714D01*
X117965357Y-91292857D01*
X118018928Y-90864285D01*
X118108214Y-90721428D01*
X118188571Y-90650000D01*
X118340357Y-90578571D01*
X118626071Y-90578571D01*
X118760000Y-90650000D01*
X119358214Y-91578571D02*
X119483214Y-90578571D01*
X119545714Y-90078571D02*
X119465357Y-90150000D01*
X119527857Y-90221428D01*
X119608214Y-90150000D01*
X119545714Y-90078571D01*
X119527857Y-90221428D01*
X120652857Y-91507142D02*
X120501071Y-91578571D01*
X120215357Y-91578571D01*
X120081428Y-91507142D01*
X120027857Y-91364285D01*
X120099285Y-90792857D01*
X120188571Y-90650000D01*
X120340357Y-90578571D01*
X120626071Y-90578571D01*
X120760000Y-90650000D01*
X120813571Y-90792857D01*
X120795714Y-90935714D01*
X120063571Y-91078571D01*
X121295714Y-91507142D02*
X121429642Y-91578571D01*
X121715357Y-91578571D01*
X121867142Y-91507142D01*
X121956428Y-91364285D01*
X121965357Y-91292857D01*
X121911785Y-91150000D01*
X121777857Y-91078571D01*
X121563571Y-91078571D01*
X121429642Y-91007142D01*
X121376071Y-90864285D01*
X121385000Y-90792857D01*
X121474285Y-90650000D01*
X121626071Y-90578571D01*
X121840357Y-90578571D01*
X121974285Y-90650000D01*
D11*
X126245238Y-88226190D02*
X126245238Y-87726190D01*
X126435714Y-87726190D01*
X126483333Y-87750000D01*
X126507142Y-87773809D01*
X126530952Y-87821428D01*
X126530952Y-87892857D01*
X126507142Y-87940476D01*
X126483333Y-87964285D01*
X126435714Y-87988095D01*
X126245238Y-87988095D01*
X126626190Y-88273809D02*
X127007142Y-88273809D01*
X127221428Y-87726190D02*
X127269047Y-87726190D01*
X127316666Y-87750000D01*
X127340476Y-87773809D01*
X127364285Y-87821428D01*
X127388095Y-87916666D01*
X127388095Y-88035714D01*
X127364285Y-88130952D01*
X127340476Y-88178571D01*
X127316666Y-88202380D01*
X127269047Y-88226190D01*
X127221428Y-88226190D01*
X127173809Y-88202380D01*
X127150000Y-88178571D01*
X127126190Y-88130952D01*
X127102380Y-88035714D01*
X127102380Y-87916666D01*
X127126190Y-87821428D01*
X127150000Y-87773809D01*
X127173809Y-87750000D01*
X127221428Y-87726190D01*
X127602380Y-88178571D02*
X127626190Y-88202380D01*
X127602380Y-88226190D01*
X127578571Y-88202380D01*
X127602380Y-88178571D01*
X127602380Y-88226190D01*
X127816666Y-87773809D02*
X127840476Y-87750000D01*
X127888095Y-87726190D01*
X128007142Y-87726190D01*
X128054761Y-87750000D01*
X128078571Y-87773809D01*
X128102380Y-87821428D01*
X128102380Y-87869047D01*
X128078571Y-87940476D01*
X127792857Y-88226190D01*
X128102380Y-88226190D01*
X128269047Y-87726190D02*
X128602380Y-87726190D01*
X128388095Y-88226190D01*
X126245238Y-85826190D02*
X126245238Y-85326190D01*
X126435714Y-85326190D01*
X126483333Y-85350000D01*
X126507142Y-85373809D01*
X126530952Y-85421428D01*
X126530952Y-85492857D01*
X126507142Y-85540476D01*
X126483333Y-85564285D01*
X126435714Y-85588095D01*
X126245238Y-85588095D01*
X126626190Y-85873809D02*
X127007142Y-85873809D01*
X127221428Y-85326190D02*
X127269047Y-85326190D01*
X127316666Y-85350000D01*
X127340476Y-85373809D01*
X127364285Y-85421428D01*
X127388095Y-85516666D01*
X127388095Y-85635714D01*
X127364285Y-85730952D01*
X127340476Y-85778571D01*
X127316666Y-85802380D01*
X127269047Y-85826190D01*
X127221428Y-85826190D01*
X127173809Y-85802380D01*
X127150000Y-85778571D01*
X127126190Y-85730952D01*
X127102380Y-85635714D01*
X127102380Y-85516666D01*
X127126190Y-85421428D01*
X127150000Y-85373809D01*
X127173809Y-85350000D01*
X127221428Y-85326190D01*
X127602380Y-85778571D02*
X127626190Y-85802380D01*
X127602380Y-85826190D01*
X127578571Y-85802380D01*
X127602380Y-85778571D01*
X127602380Y-85826190D01*
X127816666Y-85373809D02*
X127840476Y-85350000D01*
X127888095Y-85326190D01*
X128007142Y-85326190D01*
X128054761Y-85350000D01*
X128078571Y-85373809D01*
X128102380Y-85421428D01*
X128102380Y-85469047D01*
X128078571Y-85540476D01*
X127792857Y-85826190D01*
X128102380Y-85826190D01*
X128388095Y-85540476D02*
X128340476Y-85516666D01*
X128316666Y-85492857D01*
X128292857Y-85445238D01*
X128292857Y-85421428D01*
X128316666Y-85373809D01*
X128340476Y-85350000D01*
X128388095Y-85326190D01*
X128483333Y-85326190D01*
X128530952Y-85350000D01*
X128554761Y-85373809D01*
X128578571Y-85421428D01*
X128578571Y-85445238D01*
X128554761Y-85492857D01*
X128530952Y-85516666D01*
X128483333Y-85540476D01*
X128388095Y-85540476D01*
X128340476Y-85564285D01*
X128316666Y-85588095D01*
X128292857Y-85635714D01*
X128292857Y-85730952D01*
X128316666Y-85778571D01*
X128340476Y-85802380D01*
X128388095Y-85826190D01*
X128483333Y-85826190D01*
X128530952Y-85802380D01*
X128554761Y-85778571D01*
X128578571Y-85730952D01*
X128578571Y-85635714D01*
X128554761Y-85588095D01*
X128530952Y-85564285D01*
X128483333Y-85540476D01*
X126245238Y-83226190D02*
X126245238Y-82726190D01*
X126435714Y-82726190D01*
X126483333Y-82750000D01*
X126507142Y-82773809D01*
X126530952Y-82821428D01*
X126530952Y-82892857D01*
X126507142Y-82940476D01*
X126483333Y-82964285D01*
X126435714Y-82988095D01*
X126245238Y-82988095D01*
X126626190Y-83273809D02*
X127007142Y-83273809D01*
X127221428Y-82726190D02*
X127269047Y-82726190D01*
X127316666Y-82750000D01*
X127340476Y-82773809D01*
X127364285Y-82821428D01*
X127388095Y-82916666D01*
X127388095Y-83035714D01*
X127364285Y-83130952D01*
X127340476Y-83178571D01*
X127316666Y-83202380D01*
X127269047Y-83226190D01*
X127221428Y-83226190D01*
X127173809Y-83202380D01*
X127150000Y-83178571D01*
X127126190Y-83130952D01*
X127102380Y-83035714D01*
X127102380Y-82916666D01*
X127126190Y-82821428D01*
X127150000Y-82773809D01*
X127173809Y-82750000D01*
X127221428Y-82726190D01*
X127602380Y-83178571D02*
X127626190Y-83202380D01*
X127602380Y-83226190D01*
X127578571Y-83202380D01*
X127602380Y-83178571D01*
X127602380Y-83226190D01*
X127816666Y-82773809D02*
X127840476Y-82750000D01*
X127888095Y-82726190D01*
X128007142Y-82726190D01*
X128054761Y-82750000D01*
X128078571Y-82773809D01*
X128102380Y-82821428D01*
X128102380Y-82869047D01*
X128078571Y-82940476D01*
X127792857Y-83226190D01*
X128102380Y-83226190D01*
X128340476Y-83226190D02*
X128435714Y-83226190D01*
X128483333Y-83202380D01*
X128507142Y-83178571D01*
X128554761Y-83107142D01*
X128578571Y-83011904D01*
X128578571Y-82821428D01*
X128554761Y-82773809D01*
X128530952Y-82750000D01*
X128483333Y-82726190D01*
X128388095Y-82726190D01*
X128340476Y-82750000D01*
X128316666Y-82773809D01*
X128292857Y-82821428D01*
X128292857Y-82940476D01*
X128316666Y-82988095D01*
X128340476Y-83011904D01*
X128388095Y-83035714D01*
X128483333Y-83035714D01*
X128530952Y-83011904D01*
X128554761Y-82988095D01*
X128578571Y-82940476D01*
X126245238Y-80526190D02*
X126245238Y-80026190D01*
X126435714Y-80026190D01*
X126483333Y-80050000D01*
X126507142Y-80073809D01*
X126530952Y-80121428D01*
X126530952Y-80192857D01*
X126507142Y-80240476D01*
X126483333Y-80264285D01*
X126435714Y-80288095D01*
X126245238Y-80288095D01*
X126626190Y-80573809D02*
X127007142Y-80573809D01*
X127221428Y-80026190D02*
X127269047Y-80026190D01*
X127316666Y-80050000D01*
X127340476Y-80073809D01*
X127364285Y-80121428D01*
X127388095Y-80216666D01*
X127388095Y-80335714D01*
X127364285Y-80430952D01*
X127340476Y-80478571D01*
X127316666Y-80502380D01*
X127269047Y-80526190D01*
X127221428Y-80526190D01*
X127173809Y-80502380D01*
X127150000Y-80478571D01*
X127126190Y-80430952D01*
X127102380Y-80335714D01*
X127102380Y-80216666D01*
X127126190Y-80121428D01*
X127150000Y-80073809D01*
X127173809Y-80050000D01*
X127221428Y-80026190D01*
X127602380Y-80478571D02*
X127626190Y-80502380D01*
X127602380Y-80526190D01*
X127578571Y-80502380D01*
X127602380Y-80478571D01*
X127602380Y-80526190D01*
X127792857Y-80026190D02*
X128102380Y-80026190D01*
X127935714Y-80216666D01*
X128007142Y-80216666D01*
X128054761Y-80240476D01*
X128078571Y-80264285D01*
X128102380Y-80311904D01*
X128102380Y-80430952D01*
X128078571Y-80478571D01*
X128054761Y-80502380D01*
X128007142Y-80526190D01*
X127864285Y-80526190D01*
X127816666Y-80502380D01*
X127792857Y-80478571D01*
X128411904Y-80026190D02*
X128459523Y-80026190D01*
X128507142Y-80050000D01*
X128530952Y-80073809D01*
X128554761Y-80121428D01*
X128578571Y-80216666D01*
X128578571Y-80335714D01*
X128554761Y-80430952D01*
X128530952Y-80478571D01*
X128507142Y-80502380D01*
X128459523Y-80526190D01*
X128411904Y-80526190D01*
X128364285Y-80502380D01*
X128340476Y-80478571D01*
X128316666Y-80430952D01*
X128292857Y-80335714D01*
X128292857Y-80216666D01*
X128316666Y-80121428D01*
X128340476Y-80073809D01*
X128364285Y-80050000D01*
X128411904Y-80026190D01*
X126245238Y-78026190D02*
X126245238Y-77526190D01*
X126435714Y-77526190D01*
X126483333Y-77550000D01*
X126507142Y-77573809D01*
X126530952Y-77621428D01*
X126530952Y-77692857D01*
X126507142Y-77740476D01*
X126483333Y-77764285D01*
X126435714Y-77788095D01*
X126245238Y-77788095D01*
X126626190Y-78073809D02*
X127007142Y-78073809D01*
X127221428Y-77526190D02*
X127269047Y-77526190D01*
X127316666Y-77550000D01*
X127340476Y-77573809D01*
X127364285Y-77621428D01*
X127388095Y-77716666D01*
X127388095Y-77835714D01*
X127364285Y-77930952D01*
X127340476Y-77978571D01*
X127316666Y-78002380D01*
X127269047Y-78026190D01*
X127221428Y-78026190D01*
X127173809Y-78002380D01*
X127150000Y-77978571D01*
X127126190Y-77930952D01*
X127102380Y-77835714D01*
X127102380Y-77716666D01*
X127126190Y-77621428D01*
X127150000Y-77573809D01*
X127173809Y-77550000D01*
X127221428Y-77526190D01*
X127602380Y-77978571D02*
X127626190Y-78002380D01*
X127602380Y-78026190D01*
X127578571Y-78002380D01*
X127602380Y-77978571D01*
X127602380Y-78026190D01*
X127792857Y-77526190D02*
X128102380Y-77526190D01*
X127935714Y-77716666D01*
X128007142Y-77716666D01*
X128054761Y-77740476D01*
X128078571Y-77764285D01*
X128102380Y-77811904D01*
X128102380Y-77930952D01*
X128078571Y-77978571D01*
X128054761Y-78002380D01*
X128007142Y-78026190D01*
X127864285Y-78026190D01*
X127816666Y-78002380D01*
X127792857Y-77978571D01*
X128578571Y-78026190D02*
X128292857Y-78026190D01*
X128435714Y-78026190D02*
X128435714Y-77526190D01*
X128388095Y-77597619D01*
X128340476Y-77645238D01*
X128292857Y-77669047D01*
X126245238Y-75526190D02*
X126245238Y-75026190D01*
X126435714Y-75026190D01*
X126483333Y-75050000D01*
X126507142Y-75073809D01*
X126530952Y-75121428D01*
X126530952Y-75192857D01*
X126507142Y-75240476D01*
X126483333Y-75264285D01*
X126435714Y-75288095D01*
X126245238Y-75288095D01*
X126626190Y-75573809D02*
X127007142Y-75573809D01*
X127388095Y-75526190D02*
X127102380Y-75526190D01*
X127245238Y-75526190D02*
X127245238Y-75026190D01*
X127197619Y-75097619D01*
X127150000Y-75145238D01*
X127102380Y-75169047D01*
X127602380Y-75478571D02*
X127626190Y-75502380D01*
X127602380Y-75526190D01*
X127578571Y-75502380D01*
X127602380Y-75478571D01*
X127602380Y-75526190D01*
X127935714Y-75026190D02*
X127983333Y-75026190D01*
X128030952Y-75050000D01*
X128054761Y-75073809D01*
X128078571Y-75121428D01*
X128102380Y-75216666D01*
X128102380Y-75335714D01*
X128078571Y-75430952D01*
X128054761Y-75478571D01*
X128030952Y-75502380D01*
X127983333Y-75526190D01*
X127935714Y-75526190D01*
X127888095Y-75502380D01*
X127864285Y-75478571D01*
X127840476Y-75430952D01*
X127816666Y-75335714D01*
X127816666Y-75216666D01*
X127840476Y-75121428D01*
X127864285Y-75073809D01*
X127888095Y-75050000D01*
X127935714Y-75026190D01*
X128411904Y-75026190D02*
X128459523Y-75026190D01*
X128507142Y-75050000D01*
X128530952Y-75073809D01*
X128554761Y-75121428D01*
X128578571Y-75216666D01*
X128578571Y-75335714D01*
X128554761Y-75430952D01*
X128530952Y-75478571D01*
X128507142Y-75502380D01*
X128459523Y-75526190D01*
X128411904Y-75526190D01*
X128364285Y-75502380D01*
X128340476Y-75478571D01*
X128316666Y-75430952D01*
X128292857Y-75335714D01*
X128292857Y-75216666D01*
X128316666Y-75121428D01*
X128340476Y-75073809D01*
X128364285Y-75050000D01*
X128411904Y-75026190D01*
X126245238Y-72926190D02*
X126245238Y-72426190D01*
X126435714Y-72426190D01*
X126483333Y-72450000D01*
X126507142Y-72473809D01*
X126530952Y-72521428D01*
X126530952Y-72592857D01*
X126507142Y-72640476D01*
X126483333Y-72664285D01*
X126435714Y-72688095D01*
X126245238Y-72688095D01*
X126626190Y-72973809D02*
X127007142Y-72973809D01*
X127388095Y-72926190D02*
X127102380Y-72926190D01*
X127245238Y-72926190D02*
X127245238Y-72426190D01*
X127197619Y-72497619D01*
X127150000Y-72545238D01*
X127102380Y-72569047D01*
X127602380Y-72878571D02*
X127626190Y-72902380D01*
X127602380Y-72926190D01*
X127578571Y-72902380D01*
X127602380Y-72878571D01*
X127602380Y-72926190D01*
X127935714Y-72426190D02*
X127983333Y-72426190D01*
X128030952Y-72450000D01*
X128054761Y-72473809D01*
X128078571Y-72521428D01*
X128102380Y-72616666D01*
X128102380Y-72735714D01*
X128078571Y-72830952D01*
X128054761Y-72878571D01*
X128030952Y-72902380D01*
X127983333Y-72926190D01*
X127935714Y-72926190D01*
X127888095Y-72902380D01*
X127864285Y-72878571D01*
X127840476Y-72830952D01*
X127816666Y-72735714D01*
X127816666Y-72616666D01*
X127840476Y-72521428D01*
X127864285Y-72473809D01*
X127888095Y-72450000D01*
X127935714Y-72426190D01*
X128578571Y-72926190D02*
X128292857Y-72926190D01*
X128435714Y-72926190D02*
X128435714Y-72426190D01*
X128388095Y-72497619D01*
X128340476Y-72545238D01*
X128292857Y-72569047D01*
X126245238Y-70526190D02*
X126245238Y-70026190D01*
X126435714Y-70026190D01*
X126483333Y-70050000D01*
X126507142Y-70073809D01*
X126530952Y-70121428D01*
X126530952Y-70192857D01*
X126507142Y-70240476D01*
X126483333Y-70264285D01*
X126435714Y-70288095D01*
X126245238Y-70288095D01*
X126626190Y-70573809D02*
X127007142Y-70573809D01*
X127388095Y-70526190D02*
X127102380Y-70526190D01*
X127245238Y-70526190D02*
X127245238Y-70026190D01*
X127197619Y-70097619D01*
X127150000Y-70145238D01*
X127102380Y-70169047D01*
X127602380Y-70478571D02*
X127626190Y-70502380D01*
X127602380Y-70526190D01*
X127578571Y-70502380D01*
X127602380Y-70478571D01*
X127602380Y-70526190D01*
X127935714Y-70026190D02*
X127983333Y-70026190D01*
X128030952Y-70050000D01*
X128054761Y-70073809D01*
X128078571Y-70121428D01*
X128102380Y-70216666D01*
X128102380Y-70335714D01*
X128078571Y-70430952D01*
X128054761Y-70478571D01*
X128030952Y-70502380D01*
X127983333Y-70526190D01*
X127935714Y-70526190D01*
X127888095Y-70502380D01*
X127864285Y-70478571D01*
X127840476Y-70430952D01*
X127816666Y-70335714D01*
X127816666Y-70216666D01*
X127840476Y-70121428D01*
X127864285Y-70073809D01*
X127888095Y-70050000D01*
X127935714Y-70026190D01*
X128292857Y-70073809D02*
X128316666Y-70050000D01*
X128364285Y-70026190D01*
X128483333Y-70026190D01*
X128530952Y-70050000D01*
X128554761Y-70073809D01*
X128578571Y-70121428D01*
X128578571Y-70169047D01*
X128554761Y-70240476D01*
X128269047Y-70526190D01*
X128578571Y-70526190D01*
X126245238Y-68026190D02*
X126245238Y-67526190D01*
X126435714Y-67526190D01*
X126483333Y-67550000D01*
X126507142Y-67573809D01*
X126530952Y-67621428D01*
X126530952Y-67692857D01*
X126507142Y-67740476D01*
X126483333Y-67764285D01*
X126435714Y-67788095D01*
X126245238Y-67788095D01*
X126626190Y-68073809D02*
X127007142Y-68073809D01*
X127388095Y-68026190D02*
X127102380Y-68026190D01*
X127245238Y-68026190D02*
X127245238Y-67526190D01*
X127197619Y-67597619D01*
X127150000Y-67645238D01*
X127102380Y-67669047D01*
X127602380Y-67978571D02*
X127626190Y-68002380D01*
X127602380Y-68026190D01*
X127578571Y-68002380D01*
X127602380Y-67978571D01*
X127602380Y-68026190D01*
X127935714Y-67526190D02*
X127983333Y-67526190D01*
X128030952Y-67550000D01*
X128054761Y-67573809D01*
X128078571Y-67621428D01*
X128102380Y-67716666D01*
X128102380Y-67835714D01*
X128078571Y-67930952D01*
X128054761Y-67978571D01*
X128030952Y-68002380D01*
X127983333Y-68026190D01*
X127935714Y-68026190D01*
X127888095Y-68002380D01*
X127864285Y-67978571D01*
X127840476Y-67930952D01*
X127816666Y-67835714D01*
X127816666Y-67716666D01*
X127840476Y-67621428D01*
X127864285Y-67573809D01*
X127888095Y-67550000D01*
X127935714Y-67526190D01*
X128269047Y-67526190D02*
X128578571Y-67526190D01*
X128411904Y-67716666D01*
X128483333Y-67716666D01*
X128530952Y-67740476D01*
X128554761Y-67764285D01*
X128578571Y-67811904D01*
X128578571Y-67930952D01*
X128554761Y-67978571D01*
X128530952Y-68002380D01*
X128483333Y-68026190D01*
X128340476Y-68026190D01*
X128292857Y-68002380D01*
X128269047Y-67978571D01*
X126245238Y-65326190D02*
X126245238Y-64826190D01*
X126435714Y-64826190D01*
X126483333Y-64850000D01*
X126507142Y-64873809D01*
X126530952Y-64921428D01*
X126530952Y-64992857D01*
X126507142Y-65040476D01*
X126483333Y-65064285D01*
X126435714Y-65088095D01*
X126245238Y-65088095D01*
X126626190Y-65373809D02*
X127007142Y-65373809D01*
X127388095Y-65326190D02*
X127102380Y-65326190D01*
X127245238Y-65326190D02*
X127245238Y-64826190D01*
X127197619Y-64897619D01*
X127150000Y-64945238D01*
X127102380Y-64969047D01*
X127602380Y-65278571D02*
X127626190Y-65302380D01*
X127602380Y-65326190D01*
X127578571Y-65302380D01*
X127602380Y-65278571D01*
X127602380Y-65326190D01*
X127935714Y-64826190D02*
X127983333Y-64826190D01*
X128030952Y-64850000D01*
X128054761Y-64873809D01*
X128078571Y-64921428D01*
X128102380Y-65016666D01*
X128102380Y-65135714D01*
X128078571Y-65230952D01*
X128054761Y-65278571D01*
X128030952Y-65302380D01*
X127983333Y-65326190D01*
X127935714Y-65326190D01*
X127888095Y-65302380D01*
X127864285Y-65278571D01*
X127840476Y-65230952D01*
X127816666Y-65135714D01*
X127816666Y-65016666D01*
X127840476Y-64921428D01*
X127864285Y-64873809D01*
X127888095Y-64850000D01*
X127935714Y-64826190D01*
X128530952Y-64992857D02*
X128530952Y-65326190D01*
X128411904Y-64802380D02*
X128292857Y-65159523D01*
X128602380Y-65159523D01*
X126245238Y-62826190D02*
X126245238Y-62326190D01*
X126435714Y-62326190D01*
X126483333Y-62350000D01*
X126507142Y-62373809D01*
X126530952Y-62421428D01*
X126530952Y-62492857D01*
X126507142Y-62540476D01*
X126483333Y-62564285D01*
X126435714Y-62588095D01*
X126245238Y-62588095D01*
X126626190Y-62873809D02*
X127007142Y-62873809D01*
X127388095Y-62826190D02*
X127102380Y-62826190D01*
X127245238Y-62826190D02*
X127245238Y-62326190D01*
X127197619Y-62397619D01*
X127150000Y-62445238D01*
X127102380Y-62469047D01*
X127602380Y-62778571D02*
X127626190Y-62802380D01*
X127602380Y-62826190D01*
X127578571Y-62802380D01*
X127602380Y-62778571D01*
X127602380Y-62826190D01*
X127935714Y-62326190D02*
X127983333Y-62326190D01*
X128030952Y-62350000D01*
X128054761Y-62373809D01*
X128078571Y-62421428D01*
X128102380Y-62516666D01*
X128102380Y-62635714D01*
X128078571Y-62730952D01*
X128054761Y-62778571D01*
X128030952Y-62802380D01*
X127983333Y-62826190D01*
X127935714Y-62826190D01*
X127888095Y-62802380D01*
X127864285Y-62778571D01*
X127840476Y-62730952D01*
X127816666Y-62635714D01*
X127816666Y-62516666D01*
X127840476Y-62421428D01*
X127864285Y-62373809D01*
X127888095Y-62350000D01*
X127935714Y-62326190D01*
X128554761Y-62326190D02*
X128316666Y-62326190D01*
X128292857Y-62564285D01*
X128316666Y-62540476D01*
X128364285Y-62516666D01*
X128483333Y-62516666D01*
X128530952Y-62540476D01*
X128554761Y-62564285D01*
X128578571Y-62611904D01*
X128578571Y-62730952D01*
X128554761Y-62778571D01*
X128530952Y-62802380D01*
X128483333Y-62826190D01*
X128364285Y-62826190D01*
X128316666Y-62802380D01*
X128292857Y-62778571D01*
X126245238Y-60426190D02*
X126245238Y-59926190D01*
X126435714Y-59926190D01*
X126483333Y-59950000D01*
X126507142Y-59973809D01*
X126530952Y-60021428D01*
X126530952Y-60092857D01*
X126507142Y-60140476D01*
X126483333Y-60164285D01*
X126435714Y-60188095D01*
X126245238Y-60188095D01*
X126626190Y-60473809D02*
X127007142Y-60473809D01*
X127388095Y-60426190D02*
X127102380Y-60426190D01*
X127245238Y-60426190D02*
X127245238Y-59926190D01*
X127197619Y-59997619D01*
X127150000Y-60045238D01*
X127102380Y-60069047D01*
X127602380Y-60378571D02*
X127626190Y-60402380D01*
X127602380Y-60426190D01*
X127578571Y-60402380D01*
X127602380Y-60378571D01*
X127602380Y-60426190D01*
X127935714Y-59926190D02*
X127983333Y-59926190D01*
X128030952Y-59950000D01*
X128054761Y-59973809D01*
X128078571Y-60021428D01*
X128102380Y-60116666D01*
X128102380Y-60235714D01*
X128078571Y-60330952D01*
X128054761Y-60378571D01*
X128030952Y-60402380D01*
X127983333Y-60426190D01*
X127935714Y-60426190D01*
X127888095Y-60402380D01*
X127864285Y-60378571D01*
X127840476Y-60330952D01*
X127816666Y-60235714D01*
X127816666Y-60116666D01*
X127840476Y-60021428D01*
X127864285Y-59973809D01*
X127888095Y-59950000D01*
X127935714Y-59926190D01*
X128530952Y-59926190D02*
X128435714Y-59926190D01*
X128388095Y-59950000D01*
X128364285Y-59973809D01*
X128316666Y-60045238D01*
X128292857Y-60140476D01*
X128292857Y-60330952D01*
X128316666Y-60378571D01*
X128340476Y-60402380D01*
X128388095Y-60426190D01*
X128483333Y-60426190D01*
X128530952Y-60402380D01*
X128554761Y-60378571D01*
X128578571Y-60330952D01*
X128578571Y-60211904D01*
X128554761Y-60164285D01*
X128530952Y-60140476D01*
X128483333Y-60116666D01*
X128388095Y-60116666D01*
X128340476Y-60140476D01*
X128316666Y-60164285D01*
X128292857Y-60211904D01*
X94145238Y-79976190D02*
X94145238Y-79476190D01*
X94335714Y-79476190D01*
X94383333Y-79500000D01*
X94407142Y-79523809D01*
X94430952Y-79571428D01*
X94430952Y-79642857D01*
X94407142Y-79690476D01*
X94383333Y-79714285D01*
X94335714Y-79738095D01*
X94145238Y-79738095D01*
X94526190Y-80023809D02*
X94907142Y-80023809D01*
X95121428Y-79476190D02*
X95169047Y-79476190D01*
X95216666Y-79500000D01*
X95240476Y-79523809D01*
X95264285Y-79571428D01*
X95288095Y-79666666D01*
X95288095Y-79785714D01*
X95264285Y-79880952D01*
X95240476Y-79928571D01*
X95216666Y-79952380D01*
X95169047Y-79976190D01*
X95121428Y-79976190D01*
X95073809Y-79952380D01*
X95050000Y-79928571D01*
X95026190Y-79880952D01*
X95002380Y-79785714D01*
X95002380Y-79666666D01*
X95026190Y-79571428D01*
X95050000Y-79523809D01*
X95073809Y-79500000D01*
X95121428Y-79476190D01*
X95502380Y-79928571D02*
X95526190Y-79952380D01*
X95502380Y-79976190D01*
X95478571Y-79952380D01*
X95502380Y-79928571D01*
X95502380Y-79976190D01*
X95835714Y-79476190D02*
X95883333Y-79476190D01*
X95930952Y-79500000D01*
X95954761Y-79523809D01*
X95978571Y-79571428D01*
X96002380Y-79666666D01*
X96002380Y-79785714D01*
X95978571Y-79880952D01*
X95954761Y-79928571D01*
X95930952Y-79952380D01*
X95883333Y-79976190D01*
X95835714Y-79976190D01*
X95788095Y-79952380D01*
X95764285Y-79928571D01*
X95740476Y-79880952D01*
X95716666Y-79785714D01*
X95716666Y-79666666D01*
X95740476Y-79571428D01*
X95764285Y-79523809D01*
X95788095Y-79500000D01*
X95835714Y-79476190D01*
X96192857Y-79523809D02*
X96216666Y-79500000D01*
X96264285Y-79476190D01*
X96383333Y-79476190D01*
X96430952Y-79500000D01*
X96454761Y-79523809D01*
X96478571Y-79571428D01*
X96478571Y-79619047D01*
X96454761Y-79690476D01*
X96169047Y-79976190D01*
X96478571Y-79976190D01*
X94145238Y-77476190D02*
X94145238Y-76976190D01*
X94335714Y-76976190D01*
X94383333Y-77000000D01*
X94407142Y-77023809D01*
X94430952Y-77071428D01*
X94430952Y-77142857D01*
X94407142Y-77190476D01*
X94383333Y-77214285D01*
X94335714Y-77238095D01*
X94145238Y-77238095D01*
X94526190Y-77523809D02*
X94907142Y-77523809D01*
X95121428Y-76976190D02*
X95169047Y-76976190D01*
X95216666Y-77000000D01*
X95240476Y-77023809D01*
X95264285Y-77071428D01*
X95288095Y-77166666D01*
X95288095Y-77285714D01*
X95264285Y-77380952D01*
X95240476Y-77428571D01*
X95216666Y-77452380D01*
X95169047Y-77476190D01*
X95121428Y-77476190D01*
X95073809Y-77452380D01*
X95050000Y-77428571D01*
X95026190Y-77380952D01*
X95002380Y-77285714D01*
X95002380Y-77166666D01*
X95026190Y-77071428D01*
X95050000Y-77023809D01*
X95073809Y-77000000D01*
X95121428Y-76976190D01*
X95502380Y-77428571D02*
X95526190Y-77452380D01*
X95502380Y-77476190D01*
X95478571Y-77452380D01*
X95502380Y-77428571D01*
X95502380Y-77476190D01*
X95835714Y-76976190D02*
X95883333Y-76976190D01*
X95930952Y-77000000D01*
X95954761Y-77023809D01*
X95978571Y-77071428D01*
X96002380Y-77166666D01*
X96002380Y-77285714D01*
X95978571Y-77380952D01*
X95954761Y-77428571D01*
X95930952Y-77452380D01*
X95883333Y-77476190D01*
X95835714Y-77476190D01*
X95788095Y-77452380D01*
X95764285Y-77428571D01*
X95740476Y-77380952D01*
X95716666Y-77285714D01*
X95716666Y-77166666D01*
X95740476Y-77071428D01*
X95764285Y-77023809D01*
X95788095Y-77000000D01*
X95835714Y-76976190D01*
X96169047Y-76976190D02*
X96478571Y-76976190D01*
X96311904Y-77166666D01*
X96383333Y-77166666D01*
X96430952Y-77190476D01*
X96454761Y-77214285D01*
X96478571Y-77261904D01*
X96478571Y-77380952D01*
X96454761Y-77428571D01*
X96430952Y-77452380D01*
X96383333Y-77476190D01*
X96240476Y-77476190D01*
X96192857Y-77452380D01*
X96169047Y-77428571D01*
X94145238Y-74876190D02*
X94145238Y-74376190D01*
X94335714Y-74376190D01*
X94383333Y-74400000D01*
X94407142Y-74423809D01*
X94430952Y-74471428D01*
X94430952Y-74542857D01*
X94407142Y-74590476D01*
X94383333Y-74614285D01*
X94335714Y-74638095D01*
X94145238Y-74638095D01*
X94526190Y-74923809D02*
X94907142Y-74923809D01*
X95121428Y-74376190D02*
X95169047Y-74376190D01*
X95216666Y-74400000D01*
X95240476Y-74423809D01*
X95264285Y-74471428D01*
X95288095Y-74566666D01*
X95288095Y-74685714D01*
X95264285Y-74780952D01*
X95240476Y-74828571D01*
X95216666Y-74852380D01*
X95169047Y-74876190D01*
X95121428Y-74876190D01*
X95073809Y-74852380D01*
X95050000Y-74828571D01*
X95026190Y-74780952D01*
X95002380Y-74685714D01*
X95002380Y-74566666D01*
X95026190Y-74471428D01*
X95050000Y-74423809D01*
X95073809Y-74400000D01*
X95121428Y-74376190D01*
X95502380Y-74828571D02*
X95526190Y-74852380D01*
X95502380Y-74876190D01*
X95478571Y-74852380D01*
X95502380Y-74828571D01*
X95502380Y-74876190D01*
X95835714Y-74376190D02*
X95883333Y-74376190D01*
X95930952Y-74400000D01*
X95954761Y-74423809D01*
X95978571Y-74471428D01*
X96002380Y-74566666D01*
X96002380Y-74685714D01*
X95978571Y-74780952D01*
X95954761Y-74828571D01*
X95930952Y-74852380D01*
X95883333Y-74876190D01*
X95835714Y-74876190D01*
X95788095Y-74852380D01*
X95764285Y-74828571D01*
X95740476Y-74780952D01*
X95716666Y-74685714D01*
X95716666Y-74566666D01*
X95740476Y-74471428D01*
X95764285Y-74423809D01*
X95788095Y-74400000D01*
X95835714Y-74376190D01*
X96430952Y-74542857D02*
X96430952Y-74876190D01*
X96311904Y-74352380D02*
X96192857Y-74709523D01*
X96502380Y-74709523D01*
X94145238Y-72276190D02*
X94145238Y-71776190D01*
X94335714Y-71776190D01*
X94383333Y-71800000D01*
X94407142Y-71823809D01*
X94430952Y-71871428D01*
X94430952Y-71942857D01*
X94407142Y-71990476D01*
X94383333Y-72014285D01*
X94335714Y-72038095D01*
X94145238Y-72038095D01*
X94526190Y-72323809D02*
X94907142Y-72323809D01*
X95121428Y-71776190D02*
X95169047Y-71776190D01*
X95216666Y-71800000D01*
X95240476Y-71823809D01*
X95264285Y-71871428D01*
X95288095Y-71966666D01*
X95288095Y-72085714D01*
X95264285Y-72180952D01*
X95240476Y-72228571D01*
X95216666Y-72252380D01*
X95169047Y-72276190D01*
X95121428Y-72276190D01*
X95073809Y-72252380D01*
X95050000Y-72228571D01*
X95026190Y-72180952D01*
X95002380Y-72085714D01*
X95002380Y-71966666D01*
X95026190Y-71871428D01*
X95050000Y-71823809D01*
X95073809Y-71800000D01*
X95121428Y-71776190D01*
X95502380Y-72228571D02*
X95526190Y-72252380D01*
X95502380Y-72276190D01*
X95478571Y-72252380D01*
X95502380Y-72228571D01*
X95502380Y-72276190D01*
X95835714Y-71776190D02*
X95883333Y-71776190D01*
X95930952Y-71800000D01*
X95954761Y-71823809D01*
X95978571Y-71871428D01*
X96002380Y-71966666D01*
X96002380Y-72085714D01*
X95978571Y-72180952D01*
X95954761Y-72228571D01*
X95930952Y-72252380D01*
X95883333Y-72276190D01*
X95835714Y-72276190D01*
X95788095Y-72252380D01*
X95764285Y-72228571D01*
X95740476Y-72180952D01*
X95716666Y-72085714D01*
X95716666Y-71966666D01*
X95740476Y-71871428D01*
X95764285Y-71823809D01*
X95788095Y-71800000D01*
X95835714Y-71776190D01*
X96454761Y-71776190D02*
X96216666Y-71776190D01*
X96192857Y-72014285D01*
X96216666Y-71990476D01*
X96264285Y-71966666D01*
X96383333Y-71966666D01*
X96430952Y-71990476D01*
X96454761Y-72014285D01*
X96478571Y-72061904D01*
X96478571Y-72180952D01*
X96454761Y-72228571D01*
X96430952Y-72252380D01*
X96383333Y-72276190D01*
X96264285Y-72276190D01*
X96216666Y-72252380D01*
X96192857Y-72228571D01*
X94145238Y-69776190D02*
X94145238Y-69276190D01*
X94335714Y-69276190D01*
X94383333Y-69300000D01*
X94407142Y-69323809D01*
X94430952Y-69371428D01*
X94430952Y-69442857D01*
X94407142Y-69490476D01*
X94383333Y-69514285D01*
X94335714Y-69538095D01*
X94145238Y-69538095D01*
X94526190Y-69823809D02*
X94907142Y-69823809D01*
X95121428Y-69276190D02*
X95169047Y-69276190D01*
X95216666Y-69300000D01*
X95240476Y-69323809D01*
X95264285Y-69371428D01*
X95288095Y-69466666D01*
X95288095Y-69585714D01*
X95264285Y-69680952D01*
X95240476Y-69728571D01*
X95216666Y-69752380D01*
X95169047Y-69776190D01*
X95121428Y-69776190D01*
X95073809Y-69752380D01*
X95050000Y-69728571D01*
X95026190Y-69680952D01*
X95002380Y-69585714D01*
X95002380Y-69466666D01*
X95026190Y-69371428D01*
X95050000Y-69323809D01*
X95073809Y-69300000D01*
X95121428Y-69276190D01*
X95502380Y-69728571D02*
X95526190Y-69752380D01*
X95502380Y-69776190D01*
X95478571Y-69752380D01*
X95502380Y-69728571D01*
X95502380Y-69776190D01*
X95835714Y-69276190D02*
X95883333Y-69276190D01*
X95930952Y-69300000D01*
X95954761Y-69323809D01*
X95978571Y-69371428D01*
X96002380Y-69466666D01*
X96002380Y-69585714D01*
X95978571Y-69680952D01*
X95954761Y-69728571D01*
X95930952Y-69752380D01*
X95883333Y-69776190D01*
X95835714Y-69776190D01*
X95788095Y-69752380D01*
X95764285Y-69728571D01*
X95740476Y-69680952D01*
X95716666Y-69585714D01*
X95716666Y-69466666D01*
X95740476Y-69371428D01*
X95764285Y-69323809D01*
X95788095Y-69300000D01*
X95835714Y-69276190D01*
X96430952Y-69276190D02*
X96335714Y-69276190D01*
X96288095Y-69300000D01*
X96264285Y-69323809D01*
X96216666Y-69395238D01*
X96192857Y-69490476D01*
X96192857Y-69680952D01*
X96216666Y-69728571D01*
X96240476Y-69752380D01*
X96288095Y-69776190D01*
X96383333Y-69776190D01*
X96430952Y-69752380D01*
X96454761Y-69728571D01*
X96478571Y-69680952D01*
X96478571Y-69561904D01*
X96454761Y-69514285D01*
X96430952Y-69490476D01*
X96383333Y-69466666D01*
X96288095Y-69466666D01*
X96240476Y-69490476D01*
X96216666Y-69514285D01*
X96192857Y-69561904D01*
X94145238Y-67276190D02*
X94145238Y-66776190D01*
X94335714Y-66776190D01*
X94383333Y-66800000D01*
X94407142Y-66823809D01*
X94430952Y-66871428D01*
X94430952Y-66942857D01*
X94407142Y-66990476D01*
X94383333Y-67014285D01*
X94335714Y-67038095D01*
X94145238Y-67038095D01*
X94526190Y-67323809D02*
X94907142Y-67323809D01*
X95121428Y-66776190D02*
X95169047Y-66776190D01*
X95216666Y-66800000D01*
X95240476Y-66823809D01*
X95264285Y-66871428D01*
X95288095Y-66966666D01*
X95288095Y-67085714D01*
X95264285Y-67180952D01*
X95240476Y-67228571D01*
X95216666Y-67252380D01*
X95169047Y-67276190D01*
X95121428Y-67276190D01*
X95073809Y-67252380D01*
X95050000Y-67228571D01*
X95026190Y-67180952D01*
X95002380Y-67085714D01*
X95002380Y-66966666D01*
X95026190Y-66871428D01*
X95050000Y-66823809D01*
X95073809Y-66800000D01*
X95121428Y-66776190D01*
X95502380Y-67228571D02*
X95526190Y-67252380D01*
X95502380Y-67276190D01*
X95478571Y-67252380D01*
X95502380Y-67228571D01*
X95502380Y-67276190D01*
X95835714Y-66776190D02*
X95883333Y-66776190D01*
X95930952Y-66800000D01*
X95954761Y-66823809D01*
X95978571Y-66871428D01*
X96002380Y-66966666D01*
X96002380Y-67085714D01*
X95978571Y-67180952D01*
X95954761Y-67228571D01*
X95930952Y-67252380D01*
X95883333Y-67276190D01*
X95835714Y-67276190D01*
X95788095Y-67252380D01*
X95764285Y-67228571D01*
X95740476Y-67180952D01*
X95716666Y-67085714D01*
X95716666Y-66966666D01*
X95740476Y-66871428D01*
X95764285Y-66823809D01*
X95788095Y-66800000D01*
X95835714Y-66776190D01*
X96169047Y-66776190D02*
X96502380Y-66776190D01*
X96288095Y-67276190D01*
X94145238Y-63876190D02*
X94145238Y-63376190D01*
X94335714Y-63376190D01*
X94383333Y-63400000D01*
X94407142Y-63423809D01*
X94430952Y-63471428D01*
X94430952Y-63542857D01*
X94407142Y-63590476D01*
X94383333Y-63614285D01*
X94335714Y-63638095D01*
X94145238Y-63638095D01*
X94526190Y-63923809D02*
X94907142Y-63923809D01*
X95121428Y-63376190D02*
X95169047Y-63376190D01*
X95216666Y-63400000D01*
X95240476Y-63423809D01*
X95264285Y-63471428D01*
X95288095Y-63566666D01*
X95288095Y-63685714D01*
X95264285Y-63780952D01*
X95240476Y-63828571D01*
X95216666Y-63852380D01*
X95169047Y-63876190D01*
X95121428Y-63876190D01*
X95073809Y-63852380D01*
X95050000Y-63828571D01*
X95026190Y-63780952D01*
X95002380Y-63685714D01*
X95002380Y-63566666D01*
X95026190Y-63471428D01*
X95050000Y-63423809D01*
X95073809Y-63400000D01*
X95121428Y-63376190D01*
X95502380Y-63828571D02*
X95526190Y-63852380D01*
X95502380Y-63876190D01*
X95478571Y-63852380D01*
X95502380Y-63828571D01*
X95502380Y-63876190D01*
X95835714Y-63376190D02*
X95883333Y-63376190D01*
X95930952Y-63400000D01*
X95954761Y-63423809D01*
X95978571Y-63471428D01*
X96002380Y-63566666D01*
X96002380Y-63685714D01*
X95978571Y-63780952D01*
X95954761Y-63828571D01*
X95930952Y-63852380D01*
X95883333Y-63876190D01*
X95835714Y-63876190D01*
X95788095Y-63852380D01*
X95764285Y-63828571D01*
X95740476Y-63780952D01*
X95716666Y-63685714D01*
X95716666Y-63566666D01*
X95740476Y-63471428D01*
X95764285Y-63423809D01*
X95788095Y-63400000D01*
X95835714Y-63376190D01*
X96288095Y-63590476D02*
X96240476Y-63566666D01*
X96216666Y-63542857D01*
X96192857Y-63495238D01*
X96192857Y-63471428D01*
X96216666Y-63423809D01*
X96240476Y-63400000D01*
X96288095Y-63376190D01*
X96383333Y-63376190D01*
X96430952Y-63400000D01*
X96454761Y-63423809D01*
X96478571Y-63471428D01*
X96478571Y-63495238D01*
X96454761Y-63542857D01*
X96430952Y-63566666D01*
X96383333Y-63590476D01*
X96288095Y-63590476D01*
X96240476Y-63614285D01*
X96216666Y-63638095D01*
X96192857Y-63685714D01*
X96192857Y-63780952D01*
X96216666Y-63828571D01*
X96240476Y-63852380D01*
X96288095Y-63876190D01*
X96383333Y-63876190D01*
X96430952Y-63852380D01*
X96454761Y-63828571D01*
X96478571Y-63780952D01*
X96478571Y-63685714D01*
X96454761Y-63638095D01*
X96430952Y-63614285D01*
X96383333Y-63590476D01*
X94245238Y-61976190D02*
X94245238Y-61476190D01*
X94435714Y-61476190D01*
X94483333Y-61500000D01*
X94507142Y-61523809D01*
X94530952Y-61571428D01*
X94530952Y-61642857D01*
X94507142Y-61690476D01*
X94483333Y-61714285D01*
X94435714Y-61738095D01*
X94245238Y-61738095D01*
X94626190Y-62023809D02*
X95007142Y-62023809D01*
X95221428Y-61476190D02*
X95269047Y-61476190D01*
X95316666Y-61500000D01*
X95340476Y-61523809D01*
X95364285Y-61571428D01*
X95388095Y-61666666D01*
X95388095Y-61785714D01*
X95364285Y-61880952D01*
X95340476Y-61928571D01*
X95316666Y-61952380D01*
X95269047Y-61976190D01*
X95221428Y-61976190D01*
X95173809Y-61952380D01*
X95150000Y-61928571D01*
X95126190Y-61880952D01*
X95102380Y-61785714D01*
X95102380Y-61666666D01*
X95126190Y-61571428D01*
X95150000Y-61523809D01*
X95173809Y-61500000D01*
X95221428Y-61476190D01*
X95602380Y-61928571D02*
X95626190Y-61952380D01*
X95602380Y-61976190D01*
X95578571Y-61952380D01*
X95602380Y-61928571D01*
X95602380Y-61976190D01*
X95935714Y-61476190D02*
X95983333Y-61476190D01*
X96030952Y-61500000D01*
X96054761Y-61523809D01*
X96078571Y-61571428D01*
X96102380Y-61666666D01*
X96102380Y-61785714D01*
X96078571Y-61880952D01*
X96054761Y-61928571D01*
X96030952Y-61952380D01*
X95983333Y-61976190D01*
X95935714Y-61976190D01*
X95888095Y-61952380D01*
X95864285Y-61928571D01*
X95840476Y-61880952D01*
X95816666Y-61785714D01*
X95816666Y-61666666D01*
X95840476Y-61571428D01*
X95864285Y-61523809D01*
X95888095Y-61500000D01*
X95935714Y-61476190D01*
X96340476Y-61976190D02*
X96435714Y-61976190D01*
X96483333Y-61952380D01*
X96507142Y-61928571D01*
X96554761Y-61857142D01*
X96578571Y-61761904D01*
X96578571Y-61571428D01*
X96554761Y-61523809D01*
X96530952Y-61500000D01*
X96483333Y-61476190D01*
X96388095Y-61476190D01*
X96340476Y-61500000D01*
X96316666Y-61523809D01*
X96292857Y-61571428D01*
X96292857Y-61690476D01*
X96316666Y-61738095D01*
X96340476Y-61761904D01*
X96388095Y-61785714D01*
X96483333Y-61785714D01*
X96530952Y-61761904D01*
X96554761Y-61738095D01*
X96578571Y-61690476D01*
X94145238Y-59576190D02*
X94145238Y-59076190D01*
X94335714Y-59076190D01*
X94383333Y-59100000D01*
X94407142Y-59123809D01*
X94430952Y-59171428D01*
X94430952Y-59242857D01*
X94407142Y-59290476D01*
X94383333Y-59314285D01*
X94335714Y-59338095D01*
X94145238Y-59338095D01*
X94526190Y-59623809D02*
X94907142Y-59623809D01*
X95121428Y-59076190D02*
X95169047Y-59076190D01*
X95216666Y-59100000D01*
X95240476Y-59123809D01*
X95264285Y-59171428D01*
X95288095Y-59266666D01*
X95288095Y-59385714D01*
X95264285Y-59480952D01*
X95240476Y-59528571D01*
X95216666Y-59552380D01*
X95169047Y-59576190D01*
X95121428Y-59576190D01*
X95073809Y-59552380D01*
X95050000Y-59528571D01*
X95026190Y-59480952D01*
X95002380Y-59385714D01*
X95002380Y-59266666D01*
X95026190Y-59171428D01*
X95050000Y-59123809D01*
X95073809Y-59100000D01*
X95121428Y-59076190D01*
X95502380Y-59528571D02*
X95526190Y-59552380D01*
X95502380Y-59576190D01*
X95478571Y-59552380D01*
X95502380Y-59528571D01*
X95502380Y-59576190D01*
X96002380Y-59576190D02*
X95716666Y-59576190D01*
X95859523Y-59576190D02*
X95859523Y-59076190D01*
X95811904Y-59147619D01*
X95764285Y-59195238D01*
X95716666Y-59219047D01*
X96311904Y-59076190D02*
X96359523Y-59076190D01*
X96407142Y-59100000D01*
X96430952Y-59123809D01*
X96454761Y-59171428D01*
X96478571Y-59266666D01*
X96478571Y-59385714D01*
X96454761Y-59480952D01*
X96430952Y-59528571D01*
X96407142Y-59552380D01*
X96359523Y-59576190D01*
X96311904Y-59576190D01*
X96264285Y-59552380D01*
X96240476Y-59528571D01*
X96216666Y-59480952D01*
X96192857Y-59385714D01*
X96192857Y-59266666D01*
X96216666Y-59171428D01*
X96240476Y-59123809D01*
X96264285Y-59100000D01*
X96311904Y-59076190D01*
X94145238Y-57076190D02*
X94145238Y-56576190D01*
X94335714Y-56576190D01*
X94383333Y-56600000D01*
X94407142Y-56623809D01*
X94430952Y-56671428D01*
X94430952Y-56742857D01*
X94407142Y-56790476D01*
X94383333Y-56814285D01*
X94335714Y-56838095D01*
X94145238Y-56838095D01*
X94526190Y-57123809D02*
X94907142Y-57123809D01*
X95121428Y-56576190D02*
X95169047Y-56576190D01*
X95216666Y-56600000D01*
X95240476Y-56623809D01*
X95264285Y-56671428D01*
X95288095Y-56766666D01*
X95288095Y-56885714D01*
X95264285Y-56980952D01*
X95240476Y-57028571D01*
X95216666Y-57052380D01*
X95169047Y-57076190D01*
X95121428Y-57076190D01*
X95073809Y-57052380D01*
X95050000Y-57028571D01*
X95026190Y-56980952D01*
X95002380Y-56885714D01*
X95002380Y-56766666D01*
X95026190Y-56671428D01*
X95050000Y-56623809D01*
X95073809Y-56600000D01*
X95121428Y-56576190D01*
X95502380Y-57028571D02*
X95526190Y-57052380D01*
X95502380Y-57076190D01*
X95478571Y-57052380D01*
X95502380Y-57028571D01*
X95502380Y-57076190D01*
X96002380Y-57076190D02*
X95716666Y-57076190D01*
X95859523Y-57076190D02*
X95859523Y-56576190D01*
X95811904Y-56647619D01*
X95764285Y-56695238D01*
X95716666Y-56719047D01*
X96478571Y-57076190D02*
X96192857Y-57076190D01*
X96335714Y-57076190D02*
X96335714Y-56576190D01*
X96288095Y-56647619D01*
X96240476Y-56695238D01*
X96192857Y-56719047D01*
X94145238Y-54476190D02*
X94145238Y-53976190D01*
X94335714Y-53976190D01*
X94383333Y-54000000D01*
X94407142Y-54023809D01*
X94430952Y-54071428D01*
X94430952Y-54142857D01*
X94407142Y-54190476D01*
X94383333Y-54214285D01*
X94335714Y-54238095D01*
X94145238Y-54238095D01*
X94526190Y-54523809D02*
X94907142Y-54523809D01*
X95121428Y-53976190D02*
X95169047Y-53976190D01*
X95216666Y-54000000D01*
X95240476Y-54023809D01*
X95264285Y-54071428D01*
X95288095Y-54166666D01*
X95288095Y-54285714D01*
X95264285Y-54380952D01*
X95240476Y-54428571D01*
X95216666Y-54452380D01*
X95169047Y-54476190D01*
X95121428Y-54476190D01*
X95073809Y-54452380D01*
X95050000Y-54428571D01*
X95026190Y-54380952D01*
X95002380Y-54285714D01*
X95002380Y-54166666D01*
X95026190Y-54071428D01*
X95050000Y-54023809D01*
X95073809Y-54000000D01*
X95121428Y-53976190D01*
X95502380Y-54428571D02*
X95526190Y-54452380D01*
X95502380Y-54476190D01*
X95478571Y-54452380D01*
X95502380Y-54428571D01*
X95502380Y-54476190D01*
X96002380Y-54476190D02*
X95716666Y-54476190D01*
X95859523Y-54476190D02*
X95859523Y-53976190D01*
X95811904Y-54047619D01*
X95764285Y-54095238D01*
X95716666Y-54119047D01*
X96192857Y-54023809D02*
X96216666Y-54000000D01*
X96264285Y-53976190D01*
X96383333Y-53976190D01*
X96430952Y-54000000D01*
X96454761Y-54023809D01*
X96478571Y-54071428D01*
X96478571Y-54119047D01*
X96454761Y-54190476D01*
X96169047Y-54476190D01*
X96478571Y-54476190D01*
X94145238Y-51976190D02*
X94145238Y-51476190D01*
X94335714Y-51476190D01*
X94383333Y-51500000D01*
X94407142Y-51523809D01*
X94430952Y-51571428D01*
X94430952Y-51642857D01*
X94407142Y-51690476D01*
X94383333Y-51714285D01*
X94335714Y-51738095D01*
X94145238Y-51738095D01*
X94526190Y-52023809D02*
X94907142Y-52023809D01*
X95121428Y-51476190D02*
X95169047Y-51476190D01*
X95216666Y-51500000D01*
X95240476Y-51523809D01*
X95264285Y-51571428D01*
X95288095Y-51666666D01*
X95288095Y-51785714D01*
X95264285Y-51880952D01*
X95240476Y-51928571D01*
X95216666Y-51952380D01*
X95169047Y-51976190D01*
X95121428Y-51976190D01*
X95073809Y-51952380D01*
X95050000Y-51928571D01*
X95026190Y-51880952D01*
X95002380Y-51785714D01*
X95002380Y-51666666D01*
X95026190Y-51571428D01*
X95050000Y-51523809D01*
X95073809Y-51500000D01*
X95121428Y-51476190D01*
X95502380Y-51928571D02*
X95526190Y-51952380D01*
X95502380Y-51976190D01*
X95478571Y-51952380D01*
X95502380Y-51928571D01*
X95502380Y-51976190D01*
X96002380Y-51976190D02*
X95716666Y-51976190D01*
X95859523Y-51976190D02*
X95859523Y-51476190D01*
X95811904Y-51547619D01*
X95764285Y-51595238D01*
X95716666Y-51619047D01*
X96169047Y-51476190D02*
X96478571Y-51476190D01*
X96311904Y-51666666D01*
X96383333Y-51666666D01*
X96430952Y-51690476D01*
X96454761Y-51714285D01*
X96478571Y-51761904D01*
X96478571Y-51880952D01*
X96454761Y-51928571D01*
X96430952Y-51952380D01*
X96383333Y-51976190D01*
X96240476Y-51976190D01*
X96192857Y-51952380D01*
X96169047Y-51928571D01*
X114445238Y-88726190D02*
X114445238Y-88226190D01*
X114635714Y-88226190D01*
X114683333Y-88250000D01*
X114707142Y-88273809D01*
X114730952Y-88321428D01*
X114730952Y-88392857D01*
X114707142Y-88440476D01*
X114683333Y-88464285D01*
X114635714Y-88488095D01*
X114445238Y-88488095D01*
X114826190Y-88773809D02*
X115207142Y-88773809D01*
X115421428Y-88226190D02*
X115469047Y-88226190D01*
X115516666Y-88250000D01*
X115540476Y-88273809D01*
X115564285Y-88321428D01*
X115588095Y-88416666D01*
X115588095Y-88535714D01*
X115564285Y-88630952D01*
X115540476Y-88678571D01*
X115516666Y-88702380D01*
X115469047Y-88726190D01*
X115421428Y-88726190D01*
X115373809Y-88702380D01*
X115350000Y-88678571D01*
X115326190Y-88630952D01*
X115302380Y-88535714D01*
X115302380Y-88416666D01*
X115326190Y-88321428D01*
X115350000Y-88273809D01*
X115373809Y-88250000D01*
X115421428Y-88226190D01*
X115802380Y-88678571D02*
X115826190Y-88702380D01*
X115802380Y-88726190D01*
X115778571Y-88702380D01*
X115802380Y-88678571D01*
X115802380Y-88726190D01*
X116302380Y-88726190D02*
X116016666Y-88726190D01*
X116159523Y-88726190D02*
X116159523Y-88226190D01*
X116111904Y-88297619D01*
X116064285Y-88345238D01*
X116016666Y-88369047D01*
X116730952Y-88392857D02*
X116730952Y-88726190D01*
X116611904Y-88202380D02*
X116492857Y-88559523D01*
X116802380Y-88559523D01*
X114445238Y-85926190D02*
X114445238Y-85426190D01*
X114635714Y-85426190D01*
X114683333Y-85450000D01*
X114707142Y-85473809D01*
X114730952Y-85521428D01*
X114730952Y-85592857D01*
X114707142Y-85640476D01*
X114683333Y-85664285D01*
X114635714Y-85688095D01*
X114445238Y-85688095D01*
X114826190Y-85973809D02*
X115207142Y-85973809D01*
X115421428Y-85426190D02*
X115469047Y-85426190D01*
X115516666Y-85450000D01*
X115540476Y-85473809D01*
X115564285Y-85521428D01*
X115588095Y-85616666D01*
X115588095Y-85735714D01*
X115564285Y-85830952D01*
X115540476Y-85878571D01*
X115516666Y-85902380D01*
X115469047Y-85926190D01*
X115421428Y-85926190D01*
X115373809Y-85902380D01*
X115350000Y-85878571D01*
X115326190Y-85830952D01*
X115302380Y-85735714D01*
X115302380Y-85616666D01*
X115326190Y-85521428D01*
X115350000Y-85473809D01*
X115373809Y-85450000D01*
X115421428Y-85426190D01*
X115802380Y-85878571D02*
X115826190Y-85902380D01*
X115802380Y-85926190D01*
X115778571Y-85902380D01*
X115802380Y-85878571D01*
X115802380Y-85926190D01*
X116302380Y-85926190D02*
X116016666Y-85926190D01*
X116159523Y-85926190D02*
X116159523Y-85426190D01*
X116111904Y-85497619D01*
X116064285Y-85545238D01*
X116016666Y-85569047D01*
X116754761Y-85426190D02*
X116516666Y-85426190D01*
X116492857Y-85664285D01*
X116516666Y-85640476D01*
X116564285Y-85616666D01*
X116683333Y-85616666D01*
X116730952Y-85640476D01*
X116754761Y-85664285D01*
X116778571Y-85711904D01*
X116778571Y-85830952D01*
X116754761Y-85878571D01*
X116730952Y-85902380D01*
X116683333Y-85926190D01*
X116564285Y-85926190D01*
X116516666Y-85902380D01*
X116492857Y-85878571D01*
X114445238Y-83426190D02*
X114445238Y-82926190D01*
X114635714Y-82926190D01*
X114683333Y-82950000D01*
X114707142Y-82973809D01*
X114730952Y-83021428D01*
X114730952Y-83092857D01*
X114707142Y-83140476D01*
X114683333Y-83164285D01*
X114635714Y-83188095D01*
X114445238Y-83188095D01*
X114826190Y-83473809D02*
X115207142Y-83473809D01*
X115421428Y-82926190D02*
X115469047Y-82926190D01*
X115516666Y-82950000D01*
X115540476Y-82973809D01*
X115564285Y-83021428D01*
X115588095Y-83116666D01*
X115588095Y-83235714D01*
X115564285Y-83330952D01*
X115540476Y-83378571D01*
X115516666Y-83402380D01*
X115469047Y-83426190D01*
X115421428Y-83426190D01*
X115373809Y-83402380D01*
X115350000Y-83378571D01*
X115326190Y-83330952D01*
X115302380Y-83235714D01*
X115302380Y-83116666D01*
X115326190Y-83021428D01*
X115350000Y-82973809D01*
X115373809Y-82950000D01*
X115421428Y-82926190D01*
X115802380Y-83378571D02*
X115826190Y-83402380D01*
X115802380Y-83426190D01*
X115778571Y-83402380D01*
X115802380Y-83378571D01*
X115802380Y-83426190D01*
X116302380Y-83426190D02*
X116016666Y-83426190D01*
X116159523Y-83426190D02*
X116159523Y-82926190D01*
X116111904Y-82997619D01*
X116064285Y-83045238D01*
X116016666Y-83069047D01*
X116730952Y-82926190D02*
X116635714Y-82926190D01*
X116588095Y-82950000D01*
X116564285Y-82973809D01*
X116516666Y-83045238D01*
X116492857Y-83140476D01*
X116492857Y-83330952D01*
X116516666Y-83378571D01*
X116540476Y-83402380D01*
X116588095Y-83426190D01*
X116683333Y-83426190D01*
X116730952Y-83402380D01*
X116754761Y-83378571D01*
X116778571Y-83330952D01*
X116778571Y-83211904D01*
X116754761Y-83164285D01*
X116730952Y-83140476D01*
X116683333Y-83116666D01*
X116588095Y-83116666D01*
X116540476Y-83140476D01*
X116516666Y-83164285D01*
X116492857Y-83211904D01*
X114445238Y-80926190D02*
X114445238Y-80426190D01*
X114635714Y-80426190D01*
X114683333Y-80450000D01*
X114707142Y-80473809D01*
X114730952Y-80521428D01*
X114730952Y-80592857D01*
X114707142Y-80640476D01*
X114683333Y-80664285D01*
X114635714Y-80688095D01*
X114445238Y-80688095D01*
X114826190Y-80973809D02*
X115207142Y-80973809D01*
X115421428Y-80426190D02*
X115469047Y-80426190D01*
X115516666Y-80450000D01*
X115540476Y-80473809D01*
X115564285Y-80521428D01*
X115588095Y-80616666D01*
X115588095Y-80735714D01*
X115564285Y-80830952D01*
X115540476Y-80878571D01*
X115516666Y-80902380D01*
X115469047Y-80926190D01*
X115421428Y-80926190D01*
X115373809Y-80902380D01*
X115350000Y-80878571D01*
X115326190Y-80830952D01*
X115302380Y-80735714D01*
X115302380Y-80616666D01*
X115326190Y-80521428D01*
X115350000Y-80473809D01*
X115373809Y-80450000D01*
X115421428Y-80426190D01*
X115802380Y-80878571D02*
X115826190Y-80902380D01*
X115802380Y-80926190D01*
X115778571Y-80902380D01*
X115802380Y-80878571D01*
X115802380Y-80926190D01*
X116302380Y-80926190D02*
X116016666Y-80926190D01*
X116159523Y-80926190D02*
X116159523Y-80426190D01*
X116111904Y-80497619D01*
X116064285Y-80545238D01*
X116016666Y-80569047D01*
X116469047Y-80426190D02*
X116802380Y-80426190D01*
X116588095Y-80926190D01*
X114445238Y-78426190D02*
X114445238Y-77926190D01*
X114635714Y-77926190D01*
X114683333Y-77950000D01*
X114707142Y-77973809D01*
X114730952Y-78021428D01*
X114730952Y-78092857D01*
X114707142Y-78140476D01*
X114683333Y-78164285D01*
X114635714Y-78188095D01*
X114445238Y-78188095D01*
X114826190Y-78473809D02*
X115207142Y-78473809D01*
X115421428Y-77926190D02*
X115469047Y-77926190D01*
X115516666Y-77950000D01*
X115540476Y-77973809D01*
X115564285Y-78021428D01*
X115588095Y-78116666D01*
X115588095Y-78235714D01*
X115564285Y-78330952D01*
X115540476Y-78378571D01*
X115516666Y-78402380D01*
X115469047Y-78426190D01*
X115421428Y-78426190D01*
X115373809Y-78402380D01*
X115350000Y-78378571D01*
X115326190Y-78330952D01*
X115302380Y-78235714D01*
X115302380Y-78116666D01*
X115326190Y-78021428D01*
X115350000Y-77973809D01*
X115373809Y-77950000D01*
X115421428Y-77926190D01*
X115802380Y-78378571D02*
X115826190Y-78402380D01*
X115802380Y-78426190D01*
X115778571Y-78402380D01*
X115802380Y-78378571D01*
X115802380Y-78426190D01*
X116302380Y-78426190D02*
X116016666Y-78426190D01*
X116159523Y-78426190D02*
X116159523Y-77926190D01*
X116111904Y-77997619D01*
X116064285Y-78045238D01*
X116016666Y-78069047D01*
X116540476Y-78426190D02*
X116635714Y-78426190D01*
X116683333Y-78402380D01*
X116707142Y-78378571D01*
X116754761Y-78307142D01*
X116778571Y-78211904D01*
X116778571Y-78021428D01*
X116754761Y-77973809D01*
X116730952Y-77950000D01*
X116683333Y-77926190D01*
X116588095Y-77926190D01*
X116540476Y-77950000D01*
X116516666Y-77973809D01*
X116492857Y-78021428D01*
X116492857Y-78140476D01*
X116516666Y-78188095D01*
X116540476Y-78211904D01*
X116588095Y-78235714D01*
X116683333Y-78235714D01*
X116730952Y-78211904D01*
X116754761Y-78188095D01*
X116778571Y-78140476D01*
X114445238Y-75826190D02*
X114445238Y-75326190D01*
X114635714Y-75326190D01*
X114683333Y-75350000D01*
X114707142Y-75373809D01*
X114730952Y-75421428D01*
X114730952Y-75492857D01*
X114707142Y-75540476D01*
X114683333Y-75564285D01*
X114635714Y-75588095D01*
X114445238Y-75588095D01*
X114826190Y-75873809D02*
X115207142Y-75873809D01*
X115421428Y-75326190D02*
X115469047Y-75326190D01*
X115516666Y-75350000D01*
X115540476Y-75373809D01*
X115564285Y-75421428D01*
X115588095Y-75516666D01*
X115588095Y-75635714D01*
X115564285Y-75730952D01*
X115540476Y-75778571D01*
X115516666Y-75802380D01*
X115469047Y-75826190D01*
X115421428Y-75826190D01*
X115373809Y-75802380D01*
X115350000Y-75778571D01*
X115326190Y-75730952D01*
X115302380Y-75635714D01*
X115302380Y-75516666D01*
X115326190Y-75421428D01*
X115350000Y-75373809D01*
X115373809Y-75350000D01*
X115421428Y-75326190D01*
X115802380Y-75778571D02*
X115826190Y-75802380D01*
X115802380Y-75826190D01*
X115778571Y-75802380D01*
X115802380Y-75778571D01*
X115802380Y-75826190D01*
X116016666Y-75373809D02*
X116040476Y-75350000D01*
X116088095Y-75326190D01*
X116207142Y-75326190D01*
X116254761Y-75350000D01*
X116278571Y-75373809D01*
X116302380Y-75421428D01*
X116302380Y-75469047D01*
X116278571Y-75540476D01*
X115992857Y-75826190D01*
X116302380Y-75826190D01*
X116611904Y-75326190D02*
X116659523Y-75326190D01*
X116707142Y-75350000D01*
X116730952Y-75373809D01*
X116754761Y-75421428D01*
X116778571Y-75516666D01*
X116778571Y-75635714D01*
X116754761Y-75730952D01*
X116730952Y-75778571D01*
X116707142Y-75802380D01*
X116659523Y-75826190D01*
X116611904Y-75826190D01*
X116564285Y-75802380D01*
X116540476Y-75778571D01*
X116516666Y-75730952D01*
X116492857Y-75635714D01*
X116492857Y-75516666D01*
X116516666Y-75421428D01*
X116540476Y-75373809D01*
X116564285Y-75350000D01*
X116611904Y-75326190D01*
X114445238Y-73126190D02*
X114445238Y-72626190D01*
X114635714Y-72626190D01*
X114683333Y-72650000D01*
X114707142Y-72673809D01*
X114730952Y-72721428D01*
X114730952Y-72792857D01*
X114707142Y-72840476D01*
X114683333Y-72864285D01*
X114635714Y-72888095D01*
X114445238Y-72888095D01*
X114826190Y-73173809D02*
X115207142Y-73173809D01*
X115421428Y-72626190D02*
X115469047Y-72626190D01*
X115516666Y-72650000D01*
X115540476Y-72673809D01*
X115564285Y-72721428D01*
X115588095Y-72816666D01*
X115588095Y-72935714D01*
X115564285Y-73030952D01*
X115540476Y-73078571D01*
X115516666Y-73102380D01*
X115469047Y-73126190D01*
X115421428Y-73126190D01*
X115373809Y-73102380D01*
X115350000Y-73078571D01*
X115326190Y-73030952D01*
X115302380Y-72935714D01*
X115302380Y-72816666D01*
X115326190Y-72721428D01*
X115350000Y-72673809D01*
X115373809Y-72650000D01*
X115421428Y-72626190D01*
X115802380Y-73078571D02*
X115826190Y-73102380D01*
X115802380Y-73126190D01*
X115778571Y-73102380D01*
X115802380Y-73078571D01*
X115802380Y-73126190D01*
X116016666Y-72673809D02*
X116040476Y-72650000D01*
X116088095Y-72626190D01*
X116207142Y-72626190D01*
X116254761Y-72650000D01*
X116278571Y-72673809D01*
X116302380Y-72721428D01*
X116302380Y-72769047D01*
X116278571Y-72840476D01*
X115992857Y-73126190D01*
X116302380Y-73126190D01*
X116778571Y-73126190D02*
X116492857Y-73126190D01*
X116635714Y-73126190D02*
X116635714Y-72626190D01*
X116588095Y-72697619D01*
X116540476Y-72745238D01*
X116492857Y-72769047D01*
X114945238Y-71126190D02*
X114945238Y-70626190D01*
X115135714Y-70626190D01*
X115183333Y-70650000D01*
X115207142Y-70673809D01*
X115230952Y-70721428D01*
X115230952Y-70792857D01*
X115207142Y-70840476D01*
X115183333Y-70864285D01*
X115135714Y-70888095D01*
X114945238Y-70888095D01*
X115326190Y-71173809D02*
X115707142Y-71173809D01*
X115921428Y-70626190D02*
X115969047Y-70626190D01*
X116016666Y-70650000D01*
X116040476Y-70673809D01*
X116064285Y-70721428D01*
X116088095Y-70816666D01*
X116088095Y-70935714D01*
X116064285Y-71030952D01*
X116040476Y-71078571D01*
X116016666Y-71102380D01*
X115969047Y-71126190D01*
X115921428Y-71126190D01*
X115873809Y-71102380D01*
X115850000Y-71078571D01*
X115826190Y-71030952D01*
X115802380Y-70935714D01*
X115802380Y-70816666D01*
X115826190Y-70721428D01*
X115850000Y-70673809D01*
X115873809Y-70650000D01*
X115921428Y-70626190D01*
X116302380Y-71078571D02*
X116326190Y-71102380D01*
X116302380Y-71126190D01*
X116278571Y-71102380D01*
X116302380Y-71078571D01*
X116302380Y-71126190D01*
X116516666Y-70673809D02*
X116540476Y-70650000D01*
X116588095Y-70626190D01*
X116707142Y-70626190D01*
X116754761Y-70650000D01*
X116778571Y-70673809D01*
X116802380Y-70721428D01*
X116802380Y-70769047D01*
X116778571Y-70840476D01*
X116492857Y-71126190D01*
X116802380Y-71126190D01*
X116992857Y-70673809D02*
X117016666Y-70650000D01*
X117064285Y-70626190D01*
X117183333Y-70626190D01*
X117230952Y-70650000D01*
X117254761Y-70673809D01*
X117278571Y-70721428D01*
X117278571Y-70769047D01*
X117254761Y-70840476D01*
X116969047Y-71126190D01*
X117278571Y-71126190D01*
X114445238Y-67926190D02*
X114445238Y-67426190D01*
X114635714Y-67426190D01*
X114683333Y-67450000D01*
X114707142Y-67473809D01*
X114730952Y-67521428D01*
X114730952Y-67592857D01*
X114707142Y-67640476D01*
X114683333Y-67664285D01*
X114635714Y-67688095D01*
X114445238Y-67688095D01*
X114826190Y-67973809D02*
X115207142Y-67973809D01*
X115421428Y-67426190D02*
X115469047Y-67426190D01*
X115516666Y-67450000D01*
X115540476Y-67473809D01*
X115564285Y-67521428D01*
X115588095Y-67616666D01*
X115588095Y-67735714D01*
X115564285Y-67830952D01*
X115540476Y-67878571D01*
X115516666Y-67902380D01*
X115469047Y-67926190D01*
X115421428Y-67926190D01*
X115373809Y-67902380D01*
X115350000Y-67878571D01*
X115326190Y-67830952D01*
X115302380Y-67735714D01*
X115302380Y-67616666D01*
X115326190Y-67521428D01*
X115350000Y-67473809D01*
X115373809Y-67450000D01*
X115421428Y-67426190D01*
X115802380Y-67878571D02*
X115826190Y-67902380D01*
X115802380Y-67926190D01*
X115778571Y-67902380D01*
X115802380Y-67878571D01*
X115802380Y-67926190D01*
X116016666Y-67473809D02*
X116040476Y-67450000D01*
X116088095Y-67426190D01*
X116207142Y-67426190D01*
X116254761Y-67450000D01*
X116278571Y-67473809D01*
X116302380Y-67521428D01*
X116302380Y-67569047D01*
X116278571Y-67640476D01*
X115992857Y-67926190D01*
X116302380Y-67926190D01*
X116469047Y-67426190D02*
X116778571Y-67426190D01*
X116611904Y-67616666D01*
X116683333Y-67616666D01*
X116730952Y-67640476D01*
X116754761Y-67664285D01*
X116778571Y-67711904D01*
X116778571Y-67830952D01*
X116754761Y-67878571D01*
X116730952Y-67902380D01*
X116683333Y-67926190D01*
X116540476Y-67926190D01*
X116492857Y-67902380D01*
X116469047Y-67878571D01*
X114445238Y-64526190D02*
X114445238Y-64026190D01*
X114635714Y-64026190D01*
X114683333Y-64050000D01*
X114707142Y-64073809D01*
X114730952Y-64121428D01*
X114730952Y-64192857D01*
X114707142Y-64240476D01*
X114683333Y-64264285D01*
X114635714Y-64288095D01*
X114445238Y-64288095D01*
X114826190Y-64573809D02*
X115207142Y-64573809D01*
X115421428Y-64026190D02*
X115469047Y-64026190D01*
X115516666Y-64050000D01*
X115540476Y-64073809D01*
X115564285Y-64121428D01*
X115588095Y-64216666D01*
X115588095Y-64335714D01*
X115564285Y-64430952D01*
X115540476Y-64478571D01*
X115516666Y-64502380D01*
X115469047Y-64526190D01*
X115421428Y-64526190D01*
X115373809Y-64502380D01*
X115350000Y-64478571D01*
X115326190Y-64430952D01*
X115302380Y-64335714D01*
X115302380Y-64216666D01*
X115326190Y-64121428D01*
X115350000Y-64073809D01*
X115373809Y-64050000D01*
X115421428Y-64026190D01*
X115802380Y-64478571D02*
X115826190Y-64502380D01*
X115802380Y-64526190D01*
X115778571Y-64502380D01*
X115802380Y-64478571D01*
X115802380Y-64526190D01*
X116016666Y-64073809D02*
X116040476Y-64050000D01*
X116088095Y-64026190D01*
X116207142Y-64026190D01*
X116254761Y-64050000D01*
X116278571Y-64073809D01*
X116302380Y-64121428D01*
X116302380Y-64169047D01*
X116278571Y-64240476D01*
X115992857Y-64526190D01*
X116302380Y-64526190D01*
X116730952Y-64192857D02*
X116730952Y-64526190D01*
X116611904Y-64002380D02*
X116492857Y-64359523D01*
X116802380Y-64359523D01*
X114445238Y-63126190D02*
X114445238Y-62626190D01*
X114635714Y-62626190D01*
X114683333Y-62650000D01*
X114707142Y-62673809D01*
X114730952Y-62721428D01*
X114730952Y-62792857D01*
X114707142Y-62840476D01*
X114683333Y-62864285D01*
X114635714Y-62888095D01*
X114445238Y-62888095D01*
X114826190Y-63173809D02*
X115207142Y-63173809D01*
X115421428Y-62626190D02*
X115469047Y-62626190D01*
X115516666Y-62650000D01*
X115540476Y-62673809D01*
X115564285Y-62721428D01*
X115588095Y-62816666D01*
X115588095Y-62935714D01*
X115564285Y-63030952D01*
X115540476Y-63078571D01*
X115516666Y-63102380D01*
X115469047Y-63126190D01*
X115421428Y-63126190D01*
X115373809Y-63102380D01*
X115350000Y-63078571D01*
X115326190Y-63030952D01*
X115302380Y-62935714D01*
X115302380Y-62816666D01*
X115326190Y-62721428D01*
X115350000Y-62673809D01*
X115373809Y-62650000D01*
X115421428Y-62626190D01*
X115802380Y-63078571D02*
X115826190Y-63102380D01*
X115802380Y-63126190D01*
X115778571Y-63102380D01*
X115802380Y-63078571D01*
X115802380Y-63126190D01*
X116016666Y-62673809D02*
X116040476Y-62650000D01*
X116088095Y-62626190D01*
X116207142Y-62626190D01*
X116254761Y-62650000D01*
X116278571Y-62673809D01*
X116302380Y-62721428D01*
X116302380Y-62769047D01*
X116278571Y-62840476D01*
X115992857Y-63126190D01*
X116302380Y-63126190D01*
X116754761Y-62626190D02*
X116516666Y-62626190D01*
X116492857Y-62864285D01*
X116516666Y-62840476D01*
X116564285Y-62816666D01*
X116683333Y-62816666D01*
X116730952Y-62840476D01*
X116754761Y-62864285D01*
X116778571Y-62911904D01*
X116778571Y-63030952D01*
X116754761Y-63078571D01*
X116730952Y-63102380D01*
X116683333Y-63126190D01*
X116564285Y-63126190D01*
X116516666Y-63102380D01*
X116492857Y-63078571D01*
X114445238Y-60726190D02*
X114445238Y-60226190D01*
X114635714Y-60226190D01*
X114683333Y-60250000D01*
X114707142Y-60273809D01*
X114730952Y-60321428D01*
X114730952Y-60392857D01*
X114707142Y-60440476D01*
X114683333Y-60464285D01*
X114635714Y-60488095D01*
X114445238Y-60488095D01*
X114826190Y-60773809D02*
X115207142Y-60773809D01*
X115421428Y-60226190D02*
X115469047Y-60226190D01*
X115516666Y-60250000D01*
X115540476Y-60273809D01*
X115564285Y-60321428D01*
X115588095Y-60416666D01*
X115588095Y-60535714D01*
X115564285Y-60630952D01*
X115540476Y-60678571D01*
X115516666Y-60702380D01*
X115469047Y-60726190D01*
X115421428Y-60726190D01*
X115373809Y-60702380D01*
X115350000Y-60678571D01*
X115326190Y-60630952D01*
X115302380Y-60535714D01*
X115302380Y-60416666D01*
X115326190Y-60321428D01*
X115350000Y-60273809D01*
X115373809Y-60250000D01*
X115421428Y-60226190D01*
X115802380Y-60678571D02*
X115826190Y-60702380D01*
X115802380Y-60726190D01*
X115778571Y-60702380D01*
X115802380Y-60678571D01*
X115802380Y-60726190D01*
X116016666Y-60273809D02*
X116040476Y-60250000D01*
X116088095Y-60226190D01*
X116207142Y-60226190D01*
X116254761Y-60250000D01*
X116278571Y-60273809D01*
X116302380Y-60321428D01*
X116302380Y-60369047D01*
X116278571Y-60440476D01*
X115992857Y-60726190D01*
X116302380Y-60726190D01*
X116730952Y-60226190D02*
X116635714Y-60226190D01*
X116588095Y-60250000D01*
X116564285Y-60273809D01*
X116516666Y-60345238D01*
X116492857Y-60440476D01*
X116492857Y-60630952D01*
X116516666Y-60678571D01*
X116540476Y-60702380D01*
X116588095Y-60726190D01*
X116683333Y-60726190D01*
X116730952Y-60702380D01*
X116754761Y-60678571D01*
X116778571Y-60630952D01*
X116778571Y-60511904D01*
X116754761Y-60464285D01*
X116730952Y-60440476D01*
X116683333Y-60416666D01*
X116588095Y-60416666D01*
X116540476Y-60440476D01*
X116516666Y-60464285D01*
X116492857Y-60511904D01*
X82145238Y-79876190D02*
X82145238Y-79376190D01*
X82335714Y-79376190D01*
X82383333Y-79400000D01*
X82407142Y-79423809D01*
X82430952Y-79471428D01*
X82430952Y-79542857D01*
X82407142Y-79590476D01*
X82383333Y-79614285D01*
X82335714Y-79638095D01*
X82145238Y-79638095D01*
X82526190Y-79923809D02*
X82907142Y-79923809D01*
X83288095Y-79876190D02*
X83002380Y-79876190D01*
X83145238Y-79876190D02*
X83145238Y-79376190D01*
X83097619Y-79447619D01*
X83050000Y-79495238D01*
X83002380Y-79519047D01*
X83502380Y-79828571D02*
X83526190Y-79852380D01*
X83502380Y-79876190D01*
X83478571Y-79852380D01*
X83502380Y-79828571D01*
X83502380Y-79876190D01*
X83835714Y-79376190D02*
X83883333Y-79376190D01*
X83930952Y-79400000D01*
X83954761Y-79423809D01*
X83978571Y-79471428D01*
X84002380Y-79566666D01*
X84002380Y-79685714D01*
X83978571Y-79780952D01*
X83954761Y-79828571D01*
X83930952Y-79852380D01*
X83883333Y-79876190D01*
X83835714Y-79876190D01*
X83788095Y-79852380D01*
X83764285Y-79828571D01*
X83740476Y-79780952D01*
X83716666Y-79685714D01*
X83716666Y-79566666D01*
X83740476Y-79471428D01*
X83764285Y-79423809D01*
X83788095Y-79400000D01*
X83835714Y-79376190D01*
X84169047Y-79376190D02*
X84502380Y-79376190D01*
X84288095Y-79876190D01*
X82145238Y-77376190D02*
X82145238Y-76876190D01*
X82335714Y-76876190D01*
X82383333Y-76900000D01*
X82407142Y-76923809D01*
X82430952Y-76971428D01*
X82430952Y-77042857D01*
X82407142Y-77090476D01*
X82383333Y-77114285D01*
X82335714Y-77138095D01*
X82145238Y-77138095D01*
X82526190Y-77423809D02*
X82907142Y-77423809D01*
X83288095Y-77376190D02*
X83002380Y-77376190D01*
X83145238Y-77376190D02*
X83145238Y-76876190D01*
X83097619Y-76947619D01*
X83050000Y-76995238D01*
X83002380Y-77019047D01*
X83502380Y-77328571D02*
X83526190Y-77352380D01*
X83502380Y-77376190D01*
X83478571Y-77352380D01*
X83502380Y-77328571D01*
X83502380Y-77376190D01*
X83835714Y-76876190D02*
X83883333Y-76876190D01*
X83930952Y-76900000D01*
X83954761Y-76923809D01*
X83978571Y-76971428D01*
X84002380Y-77066666D01*
X84002380Y-77185714D01*
X83978571Y-77280952D01*
X83954761Y-77328571D01*
X83930952Y-77352380D01*
X83883333Y-77376190D01*
X83835714Y-77376190D01*
X83788095Y-77352380D01*
X83764285Y-77328571D01*
X83740476Y-77280952D01*
X83716666Y-77185714D01*
X83716666Y-77066666D01*
X83740476Y-76971428D01*
X83764285Y-76923809D01*
X83788095Y-76900000D01*
X83835714Y-76876190D01*
X84288095Y-77090476D02*
X84240476Y-77066666D01*
X84216666Y-77042857D01*
X84192857Y-76995238D01*
X84192857Y-76971428D01*
X84216666Y-76923809D01*
X84240476Y-76900000D01*
X84288095Y-76876190D01*
X84383333Y-76876190D01*
X84430952Y-76900000D01*
X84454761Y-76923809D01*
X84478571Y-76971428D01*
X84478571Y-76995238D01*
X84454761Y-77042857D01*
X84430952Y-77066666D01*
X84383333Y-77090476D01*
X84288095Y-77090476D01*
X84240476Y-77114285D01*
X84216666Y-77138095D01*
X84192857Y-77185714D01*
X84192857Y-77280952D01*
X84216666Y-77328571D01*
X84240476Y-77352380D01*
X84288095Y-77376190D01*
X84383333Y-77376190D01*
X84430952Y-77352380D01*
X84454761Y-77328571D01*
X84478571Y-77280952D01*
X84478571Y-77185714D01*
X84454761Y-77138095D01*
X84430952Y-77114285D01*
X84383333Y-77090476D01*
X82145238Y-74876190D02*
X82145238Y-74376190D01*
X82335714Y-74376190D01*
X82383333Y-74400000D01*
X82407142Y-74423809D01*
X82430952Y-74471428D01*
X82430952Y-74542857D01*
X82407142Y-74590476D01*
X82383333Y-74614285D01*
X82335714Y-74638095D01*
X82145238Y-74638095D01*
X82526190Y-74923809D02*
X82907142Y-74923809D01*
X83288095Y-74876190D02*
X83002380Y-74876190D01*
X83145238Y-74876190D02*
X83145238Y-74376190D01*
X83097619Y-74447619D01*
X83050000Y-74495238D01*
X83002380Y-74519047D01*
X83502380Y-74828571D02*
X83526190Y-74852380D01*
X83502380Y-74876190D01*
X83478571Y-74852380D01*
X83502380Y-74828571D01*
X83502380Y-74876190D01*
X83835714Y-74376190D02*
X83883333Y-74376190D01*
X83930952Y-74400000D01*
X83954761Y-74423809D01*
X83978571Y-74471428D01*
X84002380Y-74566666D01*
X84002380Y-74685714D01*
X83978571Y-74780952D01*
X83954761Y-74828571D01*
X83930952Y-74852380D01*
X83883333Y-74876190D01*
X83835714Y-74876190D01*
X83788095Y-74852380D01*
X83764285Y-74828571D01*
X83740476Y-74780952D01*
X83716666Y-74685714D01*
X83716666Y-74566666D01*
X83740476Y-74471428D01*
X83764285Y-74423809D01*
X83788095Y-74400000D01*
X83835714Y-74376190D01*
X84240476Y-74876190D02*
X84335714Y-74876190D01*
X84383333Y-74852380D01*
X84407142Y-74828571D01*
X84454761Y-74757142D01*
X84478571Y-74661904D01*
X84478571Y-74471428D01*
X84454761Y-74423809D01*
X84430952Y-74400000D01*
X84383333Y-74376190D01*
X84288095Y-74376190D01*
X84240476Y-74400000D01*
X84216666Y-74423809D01*
X84192857Y-74471428D01*
X84192857Y-74590476D01*
X84216666Y-74638095D01*
X84240476Y-74661904D01*
X84288095Y-74685714D01*
X84383333Y-74685714D01*
X84430952Y-74661904D01*
X84454761Y-74638095D01*
X84478571Y-74590476D01*
X82145238Y-72176190D02*
X82145238Y-71676190D01*
X82335714Y-71676190D01*
X82383333Y-71700000D01*
X82407142Y-71723809D01*
X82430952Y-71771428D01*
X82430952Y-71842857D01*
X82407142Y-71890476D01*
X82383333Y-71914285D01*
X82335714Y-71938095D01*
X82145238Y-71938095D01*
X82526190Y-72223809D02*
X82907142Y-72223809D01*
X83288095Y-72176190D02*
X83002380Y-72176190D01*
X83145238Y-72176190D02*
X83145238Y-71676190D01*
X83097619Y-71747619D01*
X83050000Y-71795238D01*
X83002380Y-71819047D01*
X83502380Y-72128571D02*
X83526190Y-72152380D01*
X83502380Y-72176190D01*
X83478571Y-72152380D01*
X83502380Y-72128571D01*
X83502380Y-72176190D01*
X84002380Y-72176190D02*
X83716666Y-72176190D01*
X83859523Y-72176190D02*
X83859523Y-71676190D01*
X83811904Y-71747619D01*
X83764285Y-71795238D01*
X83716666Y-71819047D01*
X84311904Y-71676190D02*
X84359523Y-71676190D01*
X84407142Y-71700000D01*
X84430952Y-71723809D01*
X84454761Y-71771428D01*
X84478571Y-71866666D01*
X84478571Y-71985714D01*
X84454761Y-72080952D01*
X84430952Y-72128571D01*
X84407142Y-72152380D01*
X84359523Y-72176190D01*
X84311904Y-72176190D01*
X84264285Y-72152380D01*
X84240476Y-72128571D01*
X84216666Y-72080952D01*
X84192857Y-71985714D01*
X84192857Y-71866666D01*
X84216666Y-71771428D01*
X84240476Y-71723809D01*
X84264285Y-71700000D01*
X84311904Y-71676190D01*
X82245238Y-69676190D02*
X82245238Y-69176190D01*
X82435714Y-69176190D01*
X82483333Y-69200000D01*
X82507142Y-69223809D01*
X82530952Y-69271428D01*
X82530952Y-69342857D01*
X82507142Y-69390476D01*
X82483333Y-69414285D01*
X82435714Y-69438095D01*
X82245238Y-69438095D01*
X82626190Y-69723809D02*
X83007142Y-69723809D01*
X83388095Y-69676190D02*
X83102380Y-69676190D01*
X83245238Y-69676190D02*
X83245238Y-69176190D01*
X83197619Y-69247619D01*
X83150000Y-69295238D01*
X83102380Y-69319047D01*
X83602380Y-69628571D02*
X83626190Y-69652380D01*
X83602380Y-69676190D01*
X83578571Y-69652380D01*
X83602380Y-69628571D01*
X83602380Y-69676190D01*
X84102380Y-69676190D02*
X83816666Y-69676190D01*
X83959523Y-69676190D02*
X83959523Y-69176190D01*
X83911904Y-69247619D01*
X83864285Y-69295238D01*
X83816666Y-69319047D01*
X84578571Y-69676190D02*
X84292857Y-69676190D01*
X84435714Y-69676190D02*
X84435714Y-69176190D01*
X84388095Y-69247619D01*
X84340476Y-69295238D01*
X84292857Y-69319047D01*
X82245238Y-67276190D02*
X82245238Y-66776190D01*
X82435714Y-66776190D01*
X82483333Y-66800000D01*
X82507142Y-66823809D01*
X82530952Y-66871428D01*
X82530952Y-66942857D01*
X82507142Y-66990476D01*
X82483333Y-67014285D01*
X82435714Y-67038095D01*
X82245238Y-67038095D01*
X82626190Y-67323809D02*
X83007142Y-67323809D01*
X83388095Y-67276190D02*
X83102380Y-67276190D01*
X83245238Y-67276190D02*
X83245238Y-66776190D01*
X83197619Y-66847619D01*
X83150000Y-66895238D01*
X83102380Y-66919047D01*
X83602380Y-67228571D02*
X83626190Y-67252380D01*
X83602380Y-67276190D01*
X83578571Y-67252380D01*
X83602380Y-67228571D01*
X83602380Y-67276190D01*
X84102380Y-67276190D02*
X83816666Y-67276190D01*
X83959523Y-67276190D02*
X83959523Y-66776190D01*
X83911904Y-66847619D01*
X83864285Y-66895238D01*
X83816666Y-66919047D01*
X84292857Y-66823809D02*
X84316666Y-66800000D01*
X84364285Y-66776190D01*
X84483333Y-66776190D01*
X84530952Y-66800000D01*
X84554761Y-66823809D01*
X84578571Y-66871428D01*
X84578571Y-66919047D01*
X84554761Y-66990476D01*
X84269047Y-67276190D01*
X84578571Y-67276190D01*
X82245238Y-64776190D02*
X82245238Y-64276190D01*
X82435714Y-64276190D01*
X82483333Y-64300000D01*
X82507142Y-64323809D01*
X82530952Y-64371428D01*
X82530952Y-64442857D01*
X82507142Y-64490476D01*
X82483333Y-64514285D01*
X82435714Y-64538095D01*
X82245238Y-64538095D01*
X82626190Y-64823809D02*
X83007142Y-64823809D01*
X83388095Y-64776190D02*
X83102380Y-64776190D01*
X83245238Y-64776190D02*
X83245238Y-64276190D01*
X83197619Y-64347619D01*
X83150000Y-64395238D01*
X83102380Y-64419047D01*
X83602380Y-64728571D02*
X83626190Y-64752380D01*
X83602380Y-64776190D01*
X83578571Y-64752380D01*
X83602380Y-64728571D01*
X83602380Y-64776190D01*
X84102380Y-64776190D02*
X83816666Y-64776190D01*
X83959523Y-64776190D02*
X83959523Y-64276190D01*
X83911904Y-64347619D01*
X83864285Y-64395238D01*
X83816666Y-64419047D01*
X84269047Y-64276190D02*
X84578571Y-64276190D01*
X84411904Y-64466666D01*
X84483333Y-64466666D01*
X84530952Y-64490476D01*
X84554761Y-64514285D01*
X84578571Y-64561904D01*
X84578571Y-64680952D01*
X84554761Y-64728571D01*
X84530952Y-64752380D01*
X84483333Y-64776190D01*
X84340476Y-64776190D01*
X84292857Y-64752380D01*
X84269047Y-64728571D01*
X82145238Y-62176190D02*
X82145238Y-61676190D01*
X82335714Y-61676190D01*
X82383333Y-61700000D01*
X82407142Y-61723809D01*
X82430952Y-61771428D01*
X82430952Y-61842857D01*
X82407142Y-61890476D01*
X82383333Y-61914285D01*
X82335714Y-61938095D01*
X82145238Y-61938095D01*
X82526190Y-62223809D02*
X82907142Y-62223809D01*
X83288095Y-62176190D02*
X83002380Y-62176190D01*
X83145238Y-62176190D02*
X83145238Y-61676190D01*
X83097619Y-61747619D01*
X83050000Y-61795238D01*
X83002380Y-61819047D01*
X83502380Y-62128571D02*
X83526190Y-62152380D01*
X83502380Y-62176190D01*
X83478571Y-62152380D01*
X83502380Y-62128571D01*
X83502380Y-62176190D01*
X84002380Y-62176190D02*
X83716666Y-62176190D01*
X83859523Y-62176190D02*
X83859523Y-61676190D01*
X83811904Y-61747619D01*
X83764285Y-61795238D01*
X83716666Y-61819047D01*
X84430952Y-61842857D02*
X84430952Y-62176190D01*
X84311904Y-61652380D02*
X84192857Y-62009523D01*
X84502380Y-62009523D01*
X82045238Y-59576190D02*
X82045238Y-59076190D01*
X82235714Y-59076190D01*
X82283333Y-59100000D01*
X82307142Y-59123809D01*
X82330952Y-59171428D01*
X82330952Y-59242857D01*
X82307142Y-59290476D01*
X82283333Y-59314285D01*
X82235714Y-59338095D01*
X82045238Y-59338095D01*
X82426190Y-59623809D02*
X82807142Y-59623809D01*
X83188095Y-59576190D02*
X82902380Y-59576190D01*
X83045238Y-59576190D02*
X83045238Y-59076190D01*
X82997619Y-59147619D01*
X82950000Y-59195238D01*
X82902380Y-59219047D01*
X83402380Y-59528571D02*
X83426190Y-59552380D01*
X83402380Y-59576190D01*
X83378571Y-59552380D01*
X83402380Y-59528571D01*
X83402380Y-59576190D01*
X83902380Y-59576190D02*
X83616666Y-59576190D01*
X83759523Y-59576190D02*
X83759523Y-59076190D01*
X83711904Y-59147619D01*
X83664285Y-59195238D01*
X83616666Y-59219047D01*
X84354761Y-59076190D02*
X84116666Y-59076190D01*
X84092857Y-59314285D01*
X84116666Y-59290476D01*
X84164285Y-59266666D01*
X84283333Y-59266666D01*
X84330952Y-59290476D01*
X84354761Y-59314285D01*
X84378571Y-59361904D01*
X84378571Y-59480952D01*
X84354761Y-59528571D01*
X84330952Y-59552380D01*
X84283333Y-59576190D01*
X84164285Y-59576190D01*
X84116666Y-59552380D01*
X84092857Y-59528571D01*
X83319047Y-56800000D02*
X83271428Y-56776190D01*
X83200000Y-56776190D01*
X83128571Y-56800000D01*
X83080952Y-56847619D01*
X83057142Y-56895238D01*
X83033333Y-56990476D01*
X83033333Y-57061904D01*
X83057142Y-57157142D01*
X83080952Y-57204761D01*
X83128571Y-57252380D01*
X83200000Y-57276190D01*
X83247619Y-57276190D01*
X83319047Y-57252380D01*
X83342857Y-57228571D01*
X83342857Y-57061904D01*
X83247619Y-57061904D01*
X83557142Y-57276190D02*
X83557142Y-56776190D01*
X83842857Y-57276190D01*
X83842857Y-56776190D01*
X84080952Y-57276190D02*
X84080952Y-56776190D01*
X84200000Y-56776190D01*
X84271428Y-56800000D01*
X84319047Y-56847619D01*
X84342857Y-56895238D01*
X84366666Y-56990476D01*
X84366666Y-57061904D01*
X84342857Y-57157142D01*
X84319047Y-57204761D01*
X84271428Y-57252380D01*
X84200000Y-57276190D01*
X84080952Y-57276190D01*
D12*
X105715982Y-92885714D02*
X105632648Y-93552380D01*
X105704077Y-92980952D02*
X105757648Y-92933333D01*
X105858839Y-92885714D01*
X106001696Y-92885714D01*
X106090982Y-92933333D01*
X106126696Y-93028571D01*
X106061220Y-93552380D01*
X106537410Y-93552380D02*
X106620744Y-92885714D01*
X106596934Y-93076190D02*
X106656458Y-92980952D01*
X106710029Y-92933333D01*
X106811220Y-92885714D01*
X106906458Y-92885714D01*
X107096934Y-92885714D02*
X107477886Y-92885714D01*
X107156458Y-93552380D02*
X107263601Y-92695238D01*
X107323125Y-92600000D01*
X107424315Y-92552380D01*
X107519553Y-92552380D01*
X108329077Y-92552380D02*
X107852886Y-92552380D01*
X107745744Y-93028571D01*
X107799315Y-92980952D01*
X107900505Y-92933333D01*
X108138601Y-92933333D01*
X108227886Y-92980952D01*
X108269553Y-93028571D01*
X108305267Y-93123809D01*
X108275505Y-93361904D01*
X108215982Y-93457142D01*
X108162410Y-93504761D01*
X108061220Y-93552380D01*
X107823125Y-93552380D01*
X107733839Y-93504761D01*
X107692172Y-93457142D01*
X108745744Y-92647619D02*
X108799315Y-92600000D01*
X108900505Y-92552380D01*
X109138601Y-92552380D01*
X109227886Y-92600000D01*
X109269553Y-92647619D01*
X109305267Y-92742857D01*
X109293363Y-92838095D01*
X109227886Y-92980952D01*
X108585029Y-93552380D01*
X109204077Y-93552380D01*
X109846934Y-92980952D02*
X109757648Y-92933333D01*
X109715982Y-92885714D01*
X109680267Y-92790476D01*
X109686220Y-92742857D01*
X109745744Y-92647619D01*
X109799315Y-92600000D01*
X109900505Y-92552380D01*
X110090982Y-92552380D01*
X110180267Y-92600000D01*
X110221934Y-92647619D01*
X110257648Y-92742857D01*
X110251696Y-92790476D01*
X110192172Y-92885714D01*
X110138601Y-92933333D01*
X110037410Y-92980952D01*
X109846934Y-92980952D01*
X109745744Y-93028571D01*
X109692172Y-93076190D01*
X109632648Y-93171428D01*
X109608839Y-93361904D01*
X109644553Y-93457142D01*
X109686220Y-93504761D01*
X109775505Y-93552380D01*
X109965982Y-93552380D01*
X110067172Y-93504761D01*
X110120744Y-93457142D01*
X110180267Y-93361904D01*
X110204077Y-93171428D01*
X110168363Y-93076190D01*
X110126696Y-93028571D01*
X110037410Y-92980952D01*
X111096934Y-92885714D02*
X111013601Y-93552380D01*
X110906458Y-92504761D02*
X110579077Y-93219047D01*
X111198125Y-93219047D01*
X111852886Y-92552380D02*
X111948125Y-92552380D01*
X112037410Y-92600000D01*
X112079077Y-92647619D01*
X112114791Y-92742857D01*
X112138601Y-92933333D01*
X112108839Y-93171428D01*
X112037410Y-93361904D01*
X111977886Y-93457142D01*
X111924315Y-93504761D01*
X111823125Y-93552380D01*
X111727886Y-93552380D01*
X111638601Y-93504761D01*
X111596934Y-93457142D01*
X111561220Y-93361904D01*
X111537410Y-93171428D01*
X111567172Y-92933333D01*
X111638601Y-92742857D01*
X111698125Y-92647619D01*
X111751696Y-92600000D01*
X111852886Y-92552380D01*
X112239791Y-93647619D02*
X113001696Y-93647619D01*
X113680267Y-93552380D02*
X113805267Y-92552380D01*
X113686220Y-93504761D02*
X113585029Y-93552380D01*
X113394553Y-93552380D01*
X113305267Y-93504761D01*
X113263601Y-93457142D01*
X113227886Y-93361904D01*
X113263601Y-93076190D01*
X113323125Y-92980952D01*
X113376696Y-92933333D01*
X113477886Y-92885714D01*
X113668363Y-92885714D01*
X113757648Y-92933333D01*
X114543363Y-93504761D02*
X114442172Y-93552380D01*
X114251696Y-93552380D01*
X114162410Y-93504761D01*
X114126696Y-93409523D01*
X114174315Y-93028571D01*
X114233839Y-92933333D01*
X114335029Y-92885714D01*
X114525505Y-92885714D01*
X114614791Y-92933333D01*
X114650505Y-93028571D01*
X114638601Y-93123809D01*
X114150505Y-93219047D01*
X115001696Y-92885714D02*
X115156458Y-93552380D01*
X115477886Y-92885714D01*
X115525505Y-93647619D02*
X116287410Y-93647619D01*
X116525505Y-92885714D02*
X116680267Y-93552380D01*
X117001696Y-92885714D01*
X117823125Y-93552380D02*
X117251696Y-93552380D01*
X117537410Y-93552380D02*
X117662410Y-92552380D01*
X117549315Y-92695238D01*
X117442172Y-92790476D01*
X117340982Y-92838095D01*
X111661904Y-85371428D02*
X110861904Y-85371428D01*
X111661904Y-85085714D01*
X110861904Y-85085714D01*
X111661904Y-84561904D02*
X111280952Y-84728571D01*
X111661904Y-84847619D02*
X110861904Y-84847619D01*
X110861904Y-84657142D01*
X110900000Y-84609523D01*
X110938095Y-84585714D01*
X111014285Y-84561904D01*
X111128571Y-84561904D01*
X111204761Y-84585714D01*
X111242857Y-84609523D01*
X111280952Y-84657142D01*
X111280952Y-84847619D01*
X111623809Y-84371428D02*
X111661904Y-84300000D01*
X111661904Y-84180952D01*
X111623809Y-84133333D01*
X111585714Y-84109523D01*
X111509523Y-84085714D01*
X111433333Y-84085714D01*
X111357142Y-84109523D01*
X111319047Y-84133333D01*
X111280952Y-84180952D01*
X111242857Y-84276190D01*
X111204761Y-84323809D01*
X111166666Y-84347619D01*
X111090476Y-84371428D01*
X111014285Y-84371428D01*
X110938095Y-84347619D01*
X110900000Y-84323809D01*
X110861904Y-84276190D01*
X110861904Y-84157142D01*
X110900000Y-84085714D01*
X110861904Y-83942857D02*
X110861904Y-83657142D01*
X111661904Y-83800000D02*
X110861904Y-83800000D01*
X106780349Y-85318912D02*
X106818444Y-85247483D01*
X106818444Y-85128436D01*
X106780349Y-85080817D01*
X106742254Y-85057007D01*
X106666063Y-85033198D01*
X106589873Y-85033198D01*
X106513682Y-85057007D01*
X106475587Y-85080817D01*
X106437492Y-85128436D01*
X106399397Y-85223674D01*
X106361301Y-85271293D01*
X106323206Y-85295102D01*
X106247016Y-85318912D01*
X106170825Y-85318912D01*
X106094635Y-85295102D01*
X106056540Y-85271293D01*
X106018444Y-85223674D01*
X106018444Y-85104626D01*
X106056540Y-85033198D01*
X106018444Y-84866531D02*
X106818444Y-84747483D01*
X106247016Y-84652245D01*
X106818444Y-84557007D01*
X106018444Y-84437960D01*
X106742254Y-83961769D02*
X106780349Y-83985579D01*
X106818444Y-84057007D01*
X106818444Y-84104626D01*
X106780349Y-84176055D01*
X106704159Y-84223674D01*
X106627968Y-84247483D01*
X106475587Y-84271293D01*
X106361301Y-84271293D01*
X106208920Y-84247483D01*
X106132730Y-84223674D01*
X106056540Y-84176055D01*
X106018444Y-84104626D01*
X106018444Y-84057007D01*
X106056540Y-83985579D01*
X106094635Y-83961769D01*
X106818444Y-83509388D02*
X106818444Y-83747483D01*
X106018444Y-83747483D01*
X106818444Y-83342721D02*
X106018444Y-83342721D01*
X106818444Y-83057007D02*
X106361301Y-83271293D01*
X106018444Y-83057007D02*
X106475587Y-83342721D01*
X109073809Y-85359523D02*
X109111904Y-85288095D01*
X109111904Y-85169047D01*
X109073809Y-85121428D01*
X109035714Y-85097619D01*
X108959523Y-85073809D01*
X108883333Y-85073809D01*
X108807142Y-85097619D01*
X108769047Y-85121428D01*
X108730952Y-85169047D01*
X108692857Y-85264285D01*
X108654761Y-85311904D01*
X108616666Y-85335714D01*
X108540476Y-85359523D01*
X108464285Y-85359523D01*
X108388095Y-85335714D01*
X108350000Y-85311904D01*
X108311904Y-85264285D01*
X108311904Y-85145238D01*
X108350000Y-85073809D01*
X108311904Y-84907142D02*
X109111904Y-84788095D01*
X108540476Y-84692857D01*
X109111904Y-84597619D01*
X108311904Y-84478571D01*
X109111904Y-84288095D02*
X108311904Y-84288095D01*
X108311904Y-84169047D01*
X108350000Y-84097619D01*
X108426190Y-84050000D01*
X108502380Y-84026190D01*
X108654761Y-84002380D01*
X108769047Y-84002380D01*
X108921428Y-84026190D01*
X108997619Y-84050000D01*
X109073809Y-84097619D01*
X109111904Y-84169047D01*
X109111904Y-84288095D01*
X109111904Y-83788095D02*
X108311904Y-83788095D01*
X108311904Y-83454761D02*
X108311904Y-83359523D01*
X108350000Y-83311904D01*
X108426190Y-83264285D01*
X108578571Y-83240476D01*
X108845238Y-83240476D01*
X108997619Y-83264285D01*
X109073809Y-83311904D01*
X109111904Y-83359523D01*
X109111904Y-83454761D01*
X109073809Y-83502380D01*
X108997619Y-83550000D01*
X108845238Y-83573809D01*
X108578571Y-83573809D01*
X108426190Y-83550000D01*
X108350000Y-83502380D01*
X108311904Y-83454761D01*
X100765724Y-85284527D02*
X100765724Y-84975003D01*
X101070486Y-85141670D01*
X101070486Y-85070241D01*
X101108581Y-85022622D01*
X101146677Y-84998813D01*
X101222867Y-84975003D01*
X101413343Y-84975003D01*
X101489534Y-84998813D01*
X101527629Y-85022622D01*
X101565724Y-85070241D01*
X101565724Y-85213099D01*
X101527629Y-85260718D01*
X101489534Y-85284527D01*
X100765724Y-84832146D02*
X101565724Y-84665480D01*
X100765724Y-84498813D01*
X100765724Y-84379765D02*
X100765724Y-84070241D01*
X101070486Y-84236908D01*
X101070486Y-84165480D01*
X101108581Y-84117860D01*
X101146677Y-84094051D01*
X101222867Y-84070241D01*
X101413343Y-84070241D01*
X101489534Y-84094051D01*
X101527629Y-84117860D01*
X101565724Y-84165480D01*
X101565724Y-84308337D01*
X101527629Y-84355956D01*
X101489534Y-84379765D01*
X103450000Y-85030952D02*
X103411904Y-85078571D01*
X103411904Y-85150000D01*
X103450000Y-85221428D01*
X103526190Y-85269047D01*
X103602380Y-85292857D01*
X103754761Y-85316666D01*
X103869047Y-85316666D01*
X104021428Y-85292857D01*
X104097619Y-85269047D01*
X104173809Y-85221428D01*
X104211904Y-85150000D01*
X104211904Y-85102380D01*
X104173809Y-85030952D01*
X104135714Y-85007142D01*
X103869047Y-85007142D01*
X103869047Y-85102380D01*
X104211904Y-84792857D02*
X103411904Y-84792857D01*
X104211904Y-84507142D01*
X103411904Y-84507142D01*
X104211904Y-84269047D02*
X103411904Y-84269047D01*
X103411904Y-84150000D01*
X103450000Y-84078571D01*
X103526190Y-84030952D01*
X103602380Y-84007142D01*
X103754761Y-83983333D01*
X103869047Y-83983333D01*
X104021428Y-84007142D01*
X104097619Y-84030952D01*
X104173809Y-84078571D01*
X104211904Y-84150000D01*
X104211904Y-84269047D01*
D11*
X83419047Y-54300000D02*
X83371428Y-54276190D01*
X83300000Y-54276190D01*
X83228571Y-54300000D01*
X83180952Y-54347619D01*
X83157142Y-54395238D01*
X83133333Y-54490476D01*
X83133333Y-54561904D01*
X83157142Y-54657142D01*
X83180952Y-54704761D01*
X83228571Y-54752380D01*
X83300000Y-54776190D01*
X83347619Y-54776190D01*
X83419047Y-54752380D01*
X83442857Y-54728571D01*
X83442857Y-54561904D01*
X83347619Y-54561904D01*
X83657142Y-54776190D02*
X83657142Y-54276190D01*
X83942857Y-54776190D01*
X83942857Y-54276190D01*
X84180952Y-54776190D02*
X84180952Y-54276190D01*
X84300000Y-54276190D01*
X84371428Y-54300000D01*
X84419047Y-54347619D01*
X84442857Y-54395238D01*
X84466666Y-54490476D01*
X84466666Y-54561904D01*
X84442857Y-54657142D01*
X84419047Y-54704761D01*
X84371428Y-54752380D01*
X84300000Y-54776190D01*
X84180952Y-54776190D01*
X83180952Y-51876190D02*
X83490476Y-51876190D01*
X83323809Y-52066666D01*
X83395238Y-52066666D01*
X83442857Y-52090476D01*
X83466666Y-52114285D01*
X83490476Y-52161904D01*
X83490476Y-52280952D01*
X83466666Y-52328571D01*
X83442857Y-52352380D01*
X83395238Y-52376190D01*
X83252380Y-52376190D01*
X83204761Y-52352380D01*
X83180952Y-52328571D01*
X83633333Y-51876190D02*
X83800000Y-52376190D01*
X83966666Y-51876190D01*
X84085714Y-51876190D02*
X84395238Y-51876190D01*
X84228571Y-52066666D01*
X84300000Y-52066666D01*
X84347619Y-52090476D01*
X84371428Y-52114285D01*
X84395238Y-52161904D01*
X84395238Y-52280952D01*
X84371428Y-52328571D01*
X84347619Y-52352380D01*
X84300000Y-52376190D01*
X84157142Y-52376190D01*
X84109523Y-52352380D01*
X84085714Y-52328571D01*
D13*
G36*
X104554439Y-61580928D02*
G01*
X104536371Y-61782513D01*
X104508194Y-61949334D01*
X104464026Y-62131585D01*
X104432639Y-62183049D01*
X104423943Y-62139834D01*
X104372458Y-61991797D01*
X104210012Y-61949364D01*
X104203000Y-61949334D01*
X104041878Y-61984303D01*
X103992227Y-62121993D01*
X103991334Y-62161000D01*
X103958679Y-62320053D01*
X103895846Y-62372667D01*
X103840103Y-62301276D01*
X103847717Y-62081927D01*
X103857846Y-62012834D01*
X103910059Y-61772683D01*
X103971447Y-61605384D01*
X103990930Y-61577304D01*
X104033255Y-61579492D01*
X104019055Y-61683137D01*
X104012763Y-61818507D01*
X104121625Y-61862793D01*
X104183947Y-61864667D01*
X104359631Y-61817435D01*
X104453840Y-61647871D01*
X104458260Y-61631834D01*
X104511385Y-61480163D01*
X104544777Y-61471670D01*
X104554439Y-61580928D01*
G37*
X104554439Y-61580928D02*
X104536371Y-61782513D01*
X104508194Y-61949334D01*
X104464026Y-62131585D01*
X104432639Y-62183049D01*
X104423943Y-62139834D01*
X104372458Y-61991797D01*
X104210012Y-61949364D01*
X104203000Y-61949334D01*
X104041878Y-61984303D01*
X103992227Y-62121993D01*
X103991334Y-62161000D01*
X103958679Y-62320053D01*
X103895846Y-62372667D01*
X103840103Y-62301276D01*
X103847717Y-62081927D01*
X103857846Y-62012834D01*
X103910059Y-61772683D01*
X103971447Y-61605384D01*
X103990930Y-61577304D01*
X104033255Y-61579492D01*
X104019055Y-61683137D01*
X104012763Y-61818507D01*
X104121625Y-61862793D01*
X104183947Y-61864667D01*
X104359631Y-61817435D01*
X104453840Y-61647871D01*
X104458260Y-61631834D01*
X104511385Y-61480163D01*
X104544777Y-61471670D01*
X104554439Y-61580928D01*
G36*
X105674650Y-61717745D02*
G01*
X105747500Y-61938866D01*
X105959834Y-62126465D01*
X106118246Y-62232333D01*
X106137517Y-62266177D01*
X106024913Y-62241053D01*
X106023334Y-62240602D01*
X105823623Y-62180285D01*
X105713239Y-62143165D01*
X105614836Y-62179826D01*
X105574894Y-62260617D01*
X105545918Y-62327039D01*
X105535275Y-62226954D01*
X105535172Y-62203334D01*
X105557039Y-61960028D01*
X105600000Y-61737667D01*
X105664632Y-61483667D01*
X105674650Y-61717745D01*
G37*
X105674650Y-61717745D02*
X105747500Y-61938866D01*
X105959834Y-62126465D01*
X106118246Y-62232333D01*
X106137517Y-62266177D01*
X106024913Y-62241053D01*
X106023334Y-62240602D01*
X105823623Y-62180285D01*
X105713239Y-62143165D01*
X105614836Y-62179826D01*
X105574894Y-62260617D01*
X105545918Y-62327039D01*
X105535275Y-62226954D01*
X105535172Y-62203334D01*
X105557039Y-61960028D01*
X105600000Y-61737667D01*
X105664632Y-61483667D01*
X105674650Y-61717745D01*
G36*
X106747636Y-61597244D02*
G01*
X106826811Y-61771927D01*
X106911330Y-61991475D01*
X106979240Y-62197314D01*
X107008587Y-62330870D01*
X107004852Y-62350704D01*
X106944195Y-62311170D01*
X106860670Y-62204890D01*
X106762868Y-62092290D01*
X106653212Y-62088432D01*
X106510167Y-62155262D01*
X106349941Y-62226733D01*
X106277670Y-62233360D01*
X106277334Y-62231007D01*
X106316454Y-62124537D01*
X106406588Y-61953567D01*
X106544034Y-61953567D01*
X106570665Y-62025797D01*
X106611767Y-62021300D01*
X106702616Y-61950066D01*
X106707017Y-61926050D01*
X106651782Y-61860134D01*
X106567099Y-61907851D01*
X106544034Y-61953567D01*
X106406588Y-61953567D01*
X106411465Y-61944317D01*
X106528837Y-61746835D01*
X106635044Y-61588585D01*
X106695758Y-61526000D01*
X106747636Y-61597244D01*
G37*
X106747636Y-61597244D02*
X106826811Y-61771927D01*
X106911330Y-61991475D01*
X106979240Y-62197314D01*
X107008587Y-62330870D01*
X107004852Y-62350704D01*
X106944195Y-62311170D01*
X106860670Y-62204890D01*
X106762868Y-62092290D01*
X106653212Y-62088432D01*
X106510167Y-62155262D01*
X106349941Y-62226733D01*
X106277670Y-62233360D01*
X106277334Y-62231007D01*
X106316454Y-62124537D01*
X106406588Y-61953567D01*
X106544034Y-61953567D01*
X106570665Y-62025797D01*
X106611767Y-62021300D01*
X106702616Y-61950066D01*
X106707017Y-61926050D01*
X106651782Y-61860134D01*
X106567099Y-61907851D01*
X106544034Y-61953567D01*
X106406588Y-61953567D01*
X106411465Y-61944317D01*
X106528837Y-61746835D01*
X106635044Y-61588585D01*
X106695758Y-61526000D01*
X106747636Y-61597244D01*
G36*
X107955124Y-61716500D02*
G01*
X107963004Y-61891350D01*
X107955252Y-62082258D01*
X107937116Y-62243640D01*
X107913845Y-62329913D01*
X107890688Y-62295491D01*
X107889314Y-62288000D01*
X107876870Y-62105016D01*
X107880085Y-61949334D01*
X107892913Y-61737667D01*
X107720746Y-61949334D01*
X107593686Y-62083853D01*
X107513190Y-62090786D01*
X107464586Y-62034000D01*
X107387315Y-61879715D01*
X107372855Y-61822334D01*
X107340869Y-61835274D01*
X107270453Y-61970821D01*
X107243473Y-62034000D01*
X107121828Y-62330334D01*
X107165247Y-62044584D01*
X107194930Y-61829102D01*
X107208569Y-61690362D01*
X107208667Y-61684750D01*
X107248097Y-61605038D01*
X107338276Y-61641655D01*
X107437037Y-61769366D01*
X107469766Y-61841006D01*
X107557341Y-62071345D01*
X107742837Y-61777506D01*
X107928334Y-61483667D01*
X107955124Y-61716500D01*
G37*
X107955124Y-61716500D02*
X107963004Y-61891350D01*
X107955252Y-62082258D01*
X107937116Y-62243640D01*
X107913845Y-62329913D01*
X107890688Y-62295491D01*
X107889314Y-62288000D01*
X107876870Y-62105016D01*
X107880085Y-61949334D01*
X107892913Y-61737667D01*
X107720746Y-61949334D01*
X107593686Y-62083853D01*
X107513190Y-62090786D01*
X107464586Y-62034000D01*
X107387315Y-61879715D01*
X107372855Y-61822334D01*
X107340869Y-61835274D01*
X107270453Y-61970821D01*
X107243473Y-62034000D01*
X107121828Y-62330334D01*
X107165247Y-62044584D01*
X107194930Y-61829102D01*
X107208569Y-61690362D01*
X107208667Y-61684750D01*
X107248097Y-61605038D01*
X107338276Y-61641655D01*
X107437037Y-61769366D01*
X107469766Y-61841006D01*
X107557341Y-62071345D01*
X107742837Y-61777506D01*
X107928334Y-61483667D01*
X107955124Y-61716500D01*
G36*
X105337334Y-61722066D02*
G01*
X105312794Y-61962182D01*
X105258355Y-62124233D01*
X105116545Y-62254111D01*
X104930002Y-62284283D01*
X104768604Y-62214538D01*
X104713285Y-62125867D01*
X104693651Y-61939982D01*
X104721832Y-61733351D01*
X104782900Y-61573915D01*
X104845083Y-61526000D01*
X104871611Y-61593093D01*
X104832449Y-61752267D01*
X104781045Y-62001019D01*
X104837826Y-62159880D01*
X104957346Y-62203334D01*
X105090448Y-62157693D01*
X105189965Y-62000362D01*
X105266178Y-61745057D01*
X105328667Y-61483667D01*
X105337334Y-61722066D01*
G37*
X105337334Y-61722066D02*
X105312794Y-61962182D01*
X105258355Y-62124233D01*
X105116545Y-62254111D01*
X104930002Y-62284283D01*
X104768604Y-62214538D01*
X104713285Y-62125867D01*
X104693651Y-61939982D01*
X104721832Y-61733351D01*
X104782900Y-61573915D01*
X104845083Y-61526000D01*
X104871611Y-61593093D01*
X104832449Y-61752267D01*
X104781045Y-62001019D01*
X104837826Y-62159880D01*
X104957346Y-62203334D01*
X105090448Y-62157693D01*
X105189965Y-62000362D01*
X105266178Y-61745057D01*
X105328667Y-61483667D01*
X105337334Y-61722066D01*
G36*
X106074719Y-61663546D02*
G01*
X105981000Y-61780000D01*
X105853770Y-61905217D01*
X105785422Y-61949334D01*
X105802615Y-61896454D01*
X105896334Y-61780000D01*
X106023563Y-61654783D01*
X106091911Y-61610667D01*
X106074719Y-61663546D01*
G37*
X106074719Y-61663546D02*
X105981000Y-61780000D01*
X105853770Y-61905217D01*
X105785422Y-61949334D01*
X105802615Y-61896454D01*
X105896334Y-61780000D01*
X106023563Y-61654783D01*
X106091911Y-61610667D01*
X106074719Y-61663546D01*
G36*
X106315577Y-50651561D02*
G01*
X107229185Y-50833313D01*
X108082801Y-51169144D01*
X108864973Y-51654754D01*
X109449893Y-52166638D01*
X110043232Y-52845901D01*
X110487623Y-53544875D01*
X110802442Y-54301738D01*
X111007064Y-55154670D01*
X111026340Y-55273043D01*
X111087193Y-56145063D01*
X110993271Y-57006983D01*
X110741198Y-57878766D01*
X110485290Y-58471852D01*
X110019987Y-59243922D01*
X109431869Y-59914836D01*
X108740250Y-60475484D01*
X107964446Y-60916755D01*
X107123771Y-61229539D01*
X106237541Y-61404728D01*
X105325070Y-61433211D01*
X104453772Y-61316579D01*
X103581908Y-61042006D01*
X102772657Y-60618491D01*
X102043412Y-60060274D01*
X101411567Y-59381597D01*
X100894513Y-58596701D01*
X100728407Y-58266334D01*
X100505780Y-57720419D01*
X100361837Y-57193059D01*
X100283685Y-56621898D01*
X100269767Y-56272024D01*
X100491511Y-56272024D01*
X100613443Y-57148855D01*
X100893121Y-57996007D01*
X101328263Y-58798859D01*
X101916591Y-59542793D01*
X102040273Y-59671018D01*
X102760463Y-60284085D01*
X103552398Y-60744554D01*
X104414667Y-61053892D01*
X104895200Y-61138221D01*
X105466738Y-61175165D01*
X106057684Y-61164614D01*
X106596442Y-61106455D01*
X106831045Y-61057659D01*
X107727212Y-60745799D01*
X108530369Y-60302241D01*
X109229970Y-59741001D01*
X109815467Y-59076092D01*
X110276315Y-58321532D01*
X110601967Y-57491334D01*
X110781877Y-56599513D01*
X110811013Y-55768667D01*
X110692581Y-54864128D01*
X110420291Y-54014446D01*
X110004485Y-53233109D01*
X109455509Y-52533606D01*
X108783705Y-51929427D01*
X107999419Y-51434058D01*
X107231975Y-51101511D01*
X106724630Y-50972176D01*
X106121978Y-50894315D01*
X105490634Y-50871008D01*
X104897214Y-50905335D01*
X104499334Y-50975153D01*
X103661830Y-51265631D01*
X102877076Y-51692685D01*
X102171882Y-52235567D01*
X101573058Y-52873530D01*
X101107415Y-53585824D01*
X101094986Y-53609667D01*
X100730002Y-54487810D01*
X100529604Y-55380136D01*
X100491511Y-56272024D01*
X100269767Y-56272024D01*
X100258730Y-55994602D01*
X100271293Y-55438663D01*
X100327963Y-54964461D01*
X100442686Y-54513502D01*
X100629408Y-54027293D01*
X100832039Y-53589992D01*
X101095878Y-53095029D01*
X101372897Y-52690889D01*
X101715012Y-52303548D01*
X101782106Y-52235325D01*
X102498709Y-51612392D01*
X103258113Y-51148111D01*
X104080451Y-50833422D01*
X104985855Y-50659265D01*
X105353431Y-50628190D01*
X106315577Y-50651561D01*
G37*
X106315577Y-50651561D02*
X107229185Y-50833313D01*
X108082801Y-51169144D01*
X108864973Y-51654754D01*
X109449893Y-52166638D01*
X110043232Y-52845901D01*
X110487623Y-53544875D01*
X110802442Y-54301738D01*
X111007064Y-55154670D01*
X111026340Y-55273043D01*
X111087193Y-56145063D01*
X110993271Y-57006983D01*
X110741198Y-57878766D01*
X110485290Y-58471852D01*
X110019987Y-59243922D01*
X109431869Y-59914836D01*
X108740250Y-60475484D01*
X107964446Y-60916755D01*
X107123771Y-61229539D01*
X106237541Y-61404728D01*
X105325070Y-61433211D01*
X104453772Y-61316579D01*
X103581908Y-61042006D01*
X102772657Y-60618491D01*
X102043412Y-60060274D01*
X101411567Y-59381597D01*
X100894513Y-58596701D01*
X100728407Y-58266334D01*
X100505780Y-57720419D01*
X100361837Y-57193059D01*
X100283685Y-56621898D01*
X100269767Y-56272024D01*
X100491511Y-56272024D01*
X100613443Y-57148855D01*
X100893121Y-57996007D01*
X101328263Y-58798859D01*
X101916591Y-59542793D01*
X102040273Y-59671018D01*
X102760463Y-60284085D01*
X103552398Y-60744554D01*
X104414667Y-61053892D01*
X104895200Y-61138221D01*
X105466738Y-61175165D01*
X106057684Y-61164614D01*
X106596442Y-61106455D01*
X106831045Y-61057659D01*
X107727212Y-60745799D01*
X108530369Y-60302241D01*
X109229970Y-59741001D01*
X109815467Y-59076092D01*
X110276315Y-58321532D01*
X110601967Y-57491334D01*
X110781877Y-56599513D01*
X110811013Y-55768667D01*
X110692581Y-54864128D01*
X110420291Y-54014446D01*
X110004485Y-53233109D01*
X109455509Y-52533606D01*
X108783705Y-51929427D01*
X107999419Y-51434058D01*
X107231975Y-51101511D01*
X106724630Y-50972176D01*
X106121978Y-50894315D01*
X105490634Y-50871008D01*
X104897214Y-50905335D01*
X104499334Y-50975153D01*
X103661830Y-51265631D01*
X102877076Y-51692685D01*
X102171882Y-52235567D01*
X101573058Y-52873530D01*
X101107415Y-53585824D01*
X101094986Y-53609667D01*
X100730002Y-54487810D01*
X100529604Y-55380136D01*
X100491511Y-56272024D01*
X100269767Y-56272024D01*
X100258730Y-55994602D01*
X100271293Y-55438663D01*
X100327963Y-54964461D01*
X100442686Y-54513502D01*
X100629408Y-54027293D01*
X100832039Y-53589992D01*
X101095878Y-53095029D01*
X101372897Y-52690889D01*
X101715012Y-52303548D01*
X101782106Y-52235325D01*
X102498709Y-51612392D01*
X103258113Y-51148111D01*
X104080451Y-50833422D01*
X104985855Y-50659265D01*
X105353431Y-50628190D01*
X106315577Y-50651561D01*
G36*
X105873729Y-52229890D02*
G01*
X105975537Y-52246064D01*
X106244638Y-52375632D01*
X106534677Y-52611128D01*
X106795369Y-52904856D01*
X106966098Y-53185607D01*
X107074482Y-53471866D01*
X107120219Y-53745211D01*
X107097777Y-54037909D01*
X107001625Y-54382228D01*
X106826232Y-54810435D01*
X106609227Y-55267491D01*
X106270259Y-55983768D01*
X106016447Y-56588589D01*
X105838335Y-57110934D01*
X105726469Y-57579784D01*
X105671392Y-58024118D01*
X105664294Y-58163608D01*
X105668714Y-58573653D01*
X105729432Y-58854211D01*
X105867064Y-59041325D01*
X106102226Y-59171037D01*
X106273584Y-59228874D01*
X106512263Y-59343026D01*
X106657569Y-59495205D01*
X106687256Y-59649825D01*
X106603894Y-59757274D01*
X106409172Y-59812181D01*
X106117623Y-59820736D01*
X105794559Y-59785419D01*
X105525664Y-59716316D01*
X105264906Y-59574814D01*
X105039114Y-59379699D01*
X105038830Y-59379370D01*
X104928614Y-59224473D01*
X104867323Y-59046756D01*
X104841742Y-58791592D01*
X104838000Y-58549268D01*
X104884458Y-58044700D01*
X105014168Y-57452924D01*
X105212632Y-56824999D01*
X105465354Y-56211988D01*
X105552367Y-56033126D01*
X105762693Y-55618067D01*
X105176053Y-55584919D01*
X104733476Y-55529597D01*
X104401428Y-55404180D01*
X104126795Y-55182101D01*
X103954232Y-54973756D01*
X103855174Y-54800458D01*
X103801227Y-54581342D01*
X103781516Y-54263689D01*
X103780664Y-54132320D01*
X103801360Y-53934135D01*
X104471478Y-53934135D01*
X104542481Y-54276966D01*
X104764715Y-54581690D01*
X105096845Y-54810641D01*
X105461936Y-54876140D01*
X105843603Y-54776720D01*
X105994988Y-54691907D01*
X106143586Y-54537993D01*
X106283655Y-54304007D01*
X106311802Y-54239633D01*
X106390696Y-54008819D01*
X106395968Y-53830896D01*
X106327155Y-53611285D01*
X106308487Y-53564081D01*
X106105663Y-53250168D01*
X105820183Y-53052242D01*
X105490275Y-52970713D01*
X105154168Y-53005989D01*
X104850089Y-53158478D01*
X104616267Y-53428591D01*
X104560328Y-53545384D01*
X104471478Y-53934135D01*
X103801360Y-53934135D01*
X103844359Y-53522387D01*
X104028845Y-53019550D01*
X104327479Y-52632099D01*
X104733618Y-52368326D01*
X105240619Y-52236519D01*
X105304853Y-52230217D01*
X105607976Y-52218276D01*
X105873729Y-52229890D01*
G37*
X105873729Y-52229890D02*
X105975537Y-52246064D01*
X106244638Y-52375632D01*
X106534677Y-52611128D01*
X106795369Y-52904856D01*
X106966098Y-53185607D01*
X107074482Y-53471866D01*
X107120219Y-53745211D01*
X107097777Y-54037909D01*
X107001625Y-54382228D01*
X106826232Y-54810435D01*
X106609227Y-55267491D01*
X106270259Y-55983768D01*
X106016447Y-56588589D01*
X105838335Y-57110934D01*
X105726469Y-57579784D01*
X105671392Y-58024118D01*
X105664294Y-58163608D01*
X105668714Y-58573653D01*
X105729432Y-58854211D01*
X105867064Y-59041325D01*
X106102226Y-59171037D01*
X106273584Y-59228874D01*
X106512263Y-59343026D01*
X106657569Y-59495205D01*
X106687256Y-59649825D01*
X106603894Y-59757274D01*
X106409172Y-59812181D01*
X106117623Y-59820736D01*
X105794559Y-59785419D01*
X105525664Y-59716316D01*
X105264906Y-59574814D01*
X105039114Y-59379699D01*
X105038830Y-59379370D01*
X104928614Y-59224473D01*
X104867323Y-59046756D01*
X104841742Y-58791592D01*
X104838000Y-58549268D01*
X104884458Y-58044700D01*
X105014168Y-57452924D01*
X105212632Y-56824999D01*
X105465354Y-56211988D01*
X105552367Y-56033126D01*
X105762693Y-55618067D01*
X105176053Y-55584919D01*
X104733476Y-55529597D01*
X104401428Y-55404180D01*
X104126795Y-55182101D01*
X103954232Y-54973756D01*
X103855174Y-54800458D01*
X103801227Y-54581342D01*
X103781516Y-54263689D01*
X103780664Y-54132320D01*
X103801360Y-53934135D01*
X104471478Y-53934135D01*
X104542481Y-54276966D01*
X104764715Y-54581690D01*
X105096845Y-54810641D01*
X105461936Y-54876140D01*
X105843603Y-54776720D01*
X105994988Y-54691907D01*
X106143586Y-54537993D01*
X106283655Y-54304007D01*
X106311802Y-54239633D01*
X106390696Y-54008819D01*
X106395968Y-53830896D01*
X106327155Y-53611285D01*
X106308487Y-53564081D01*
X106105663Y-53250168D01*
X105820183Y-53052242D01*
X105490275Y-52970713D01*
X105154168Y-53005989D01*
X104850089Y-53158478D01*
X104616267Y-53428591D01*
X104560328Y-53545384D01*
X104471478Y-53934135D01*
X103801360Y-53934135D01*
X103844359Y-53522387D01*
X104028845Y-53019550D01*
X104327479Y-52632099D01*
X104733618Y-52368326D01*
X105240619Y-52236519D01*
X105304853Y-52230217D01*
X105607976Y-52218276D01*
X105873729Y-52229890D01*
D14*
X101605000Y-70006800D02*
G75*
G03*
X101605000Y-70006800I-100000J0D01*
G01*
D15*
X102450000Y-69650000D02*
X102450000Y-69250000D01*
X102450000Y-69250000D02*
X104000000Y-69250000D01*
X109100000Y-69250000D02*
X109450000Y-69250000D01*
X109450000Y-69250000D02*
X109450000Y-69550000D01*
X109450000Y-75900000D02*
X109450000Y-76250000D01*
X109450000Y-76250000D02*
X109100000Y-76250000D01*
X102800000Y-76250000D02*
X102450000Y-76250000D01*
X102450000Y-76250000D02*
X102450000Y-74900000D01*
D16*
X102300000Y-51000000D02*
X110300000Y-51000000D01*
X110300000Y-51000000D02*
X110300000Y-54000000D01*
X110300000Y-54000000D02*
X102300000Y-54000000D01*
X102300000Y-54000000D02*
X102300000Y-51000000D01*
X102800000Y-50500000D02*
G75*
G03*
X102800000Y-50500000I-300000J0D01*
G01*
X102700000Y-50500000D02*
G75*
G03*
X102700000Y-50500000I-200000J0D01*
G01*
D14*
X88300000Y-83850000D02*
G75*
G03*
X88300000Y-83850000I-100000J0D01*
G01*
D15*
X86550000Y-84750000D02*
X87800000Y-84750000D01*
X85950000Y-87050000D02*
X85950000Y-89550000D01*
X85950000Y-93950000D02*
X93650000Y-93950000D01*
X93650000Y-87050000D02*
X93650000Y-89550000D01*
X91850000Y-84750000D02*
X93150000Y-84750000D01*
X84050000Y-93300000D02*
X95550000Y-93300000D01*
X98449300Y-68699800D02*
X98449300Y-71900200D01*
X98449300Y-71900200D02*
X96950700Y-71900200D01*
X96950700Y-71900200D02*
X96950700Y-68699800D01*
X96950700Y-68699800D02*
X98449300Y-68699800D01*
X113750000Y-66600000D02*
X107750000Y-66600000D01*
X107750000Y-63100000D02*
X113750000Y-63100000D01*
D17*
X115160000Y-70000378D02*
X115160000Y-70799622D01*
X114040000Y-70000378D02*
X114040000Y-70799622D01*
X98438748Y-73715000D02*
X98961252Y-73715000D01*
X98438748Y-75185000D02*
X98961252Y-75185000D01*
X98185000Y-64388748D02*
X98185000Y-64911252D01*
X96715000Y-64388748D02*
X96715000Y-64911252D01*
X100335000Y-59538748D02*
X100335000Y-60061252D01*
X98865000Y-59538748D02*
X98865000Y-60061252D01*
X99261252Y-77835000D02*
X98738748Y-77835000D01*
X99261252Y-76365000D02*
X98738748Y-76365000D01*
X106085000Y-64488748D02*
X106085000Y-65011252D01*
X104615000Y-64488748D02*
X104615000Y-65011252D01*
X103538748Y-78765000D02*
X104061252Y-78765000D01*
X103538748Y-80235000D02*
X104061252Y-80235000D01*
X112735000Y-69438748D02*
X112735000Y-69961252D01*
X111265000Y-69438748D02*
X111265000Y-69961252D01*
X99265000Y-69761252D02*
X99265000Y-69238748D01*
X100735000Y-69761252D02*
X100735000Y-69238748D01*
X112338748Y-72615000D02*
X112861252Y-72615000D01*
X112338748Y-74085000D02*
X112861252Y-74085000D01*
X115735000Y-58138748D02*
X115735000Y-58661252D01*
X114265000Y-58138748D02*
X114265000Y-58661252D01*
X102538748Y-82065000D02*
X103061252Y-82065000D01*
X102538748Y-83535000D02*
X103061252Y-83535000D01*
X116561252Y-51835000D02*
X116038748Y-51835000D01*
X116561252Y-50365000D02*
X116038748Y-50365000D01*
X112535000Y-59238748D02*
X112535000Y-59761252D01*
X111065000Y-59238748D02*
X111065000Y-59761252D01*
X98738748Y-78865000D02*
X99261252Y-78865000D01*
X98738748Y-80335000D02*
X99261252Y-80335000D01*
X123570000Y-52430000D02*
X126230000Y-52430000D01*
X123570000Y-52370000D02*
X123570000Y-52430000D01*
X126230000Y-52370000D02*
X126230000Y-52430000D01*
X123570000Y-52370000D02*
X126230000Y-52370000D01*
X123570000Y-51100000D02*
X123570000Y-49770000D01*
X123570000Y-49770000D02*
X124900000Y-49770000D01*
X112602000Y-88545600D02*
X112602000Y-85885600D01*
X102382000Y-88545600D02*
X112602000Y-88545600D01*
X102382000Y-85885600D02*
X112602000Y-85885600D01*
X102382000Y-88545600D02*
X102382000Y-85885600D01*
X101112000Y-88545600D02*
X99782000Y-88545600D01*
X99782000Y-88545600D02*
X99782000Y-87215600D01*
X97000000Y-84310000D02*
X98800000Y-84310000D01*
X98800000Y-81090000D02*
X96350000Y-81090000D01*
X117370000Y-89370000D02*
X120030000Y-89370000D01*
X117370000Y-61370000D02*
X117370000Y-89370000D01*
X120030000Y-61370000D02*
X120030000Y-89370000D01*
X117370000Y-61370000D02*
X120030000Y-61370000D01*
X117370000Y-60100000D02*
X117370000Y-58770000D01*
X117370000Y-58770000D02*
X118700000Y-58770000D01*
X90970000Y-50320000D02*
X92300000Y-50320000D01*
X90970000Y-51650000D02*
X90970000Y-50320000D01*
X90970000Y-52920000D02*
X93630000Y-52920000D01*
X93630000Y-52920000D02*
X93630000Y-80920000D01*
X90970000Y-52920000D02*
X90970000Y-80920000D01*
X90970000Y-80920000D02*
X93630000Y-80920000D01*
X123095000Y-58695000D02*
X124425000Y-58695000D01*
X123095000Y-60025000D02*
X123095000Y-58695000D01*
X123095000Y-61295000D02*
X125755000Y-61295000D01*
X125755000Y-61295000D02*
X125755000Y-89295000D01*
X123095000Y-61295000D02*
X123095000Y-89295000D01*
X123095000Y-89295000D02*
X125755000Y-89295000D01*
X85070000Y-80920000D02*
X87730000Y-80920000D01*
X85070000Y-52920000D02*
X85070000Y-80920000D01*
X87730000Y-52920000D02*
X87730000Y-80920000D01*
X85070000Y-52920000D02*
X87730000Y-52920000D01*
X85070000Y-51650000D02*
X85070000Y-50320000D01*
X85070000Y-50320000D02*
X86400000Y-50320000D01*
D11*
X110319047Y-67726190D02*
X110319047Y-68130952D01*
X110342857Y-68178571D01*
X110366666Y-68202380D01*
X110414285Y-68226190D01*
X110509523Y-68226190D01*
X110557142Y-68202380D01*
X110580952Y-68178571D01*
X110604761Y-68130952D01*
X110604761Y-67726190D01*
X110819047Y-67773809D02*
X110842857Y-67750000D01*
X110890476Y-67726190D01*
X111009523Y-67726190D01*
X111057142Y-67750000D01*
X111080952Y-67773809D01*
X111104761Y-67821428D01*
X111104761Y-67869047D01*
X111080952Y-67940476D01*
X110795238Y-68226190D01*
X111104761Y-68226190D01*
D12*
X100816666Y-51983333D02*
X101054761Y-51983333D01*
X100769047Y-52126190D02*
X100935714Y-51626190D01*
X101102380Y-52126190D01*
X101269047Y-51864285D02*
X101435714Y-51864285D01*
X101507142Y-52126190D02*
X101269047Y-52126190D01*
X101269047Y-51626190D01*
X101507142Y-51626190D01*
X101697619Y-51673809D02*
X101721428Y-51650000D01*
X101769047Y-51626190D01*
X101888095Y-51626190D01*
X101935714Y-51650000D01*
X101959523Y-51673809D01*
X101983333Y-51721428D01*
X101983333Y-51769047D01*
X101959523Y-51840476D01*
X101673809Y-52126190D01*
X101983333Y-52126190D01*
D11*
X93933333Y-83226190D02*
X93933333Y-83583333D01*
X93909523Y-83654761D01*
X93861904Y-83702380D01*
X93790476Y-83726190D01*
X93742857Y-83726190D01*
X94123809Y-83226190D02*
X94433333Y-83226190D01*
X94266666Y-83416666D01*
X94338095Y-83416666D01*
X94385714Y-83440476D01*
X94409523Y-83464285D01*
X94433333Y-83511904D01*
X94433333Y-83630952D01*
X94409523Y-83678571D01*
X94385714Y-83702380D01*
X94338095Y-83726190D01*
X94195238Y-83726190D01*
X94147619Y-83702380D01*
X94123809Y-83678571D01*
X95861904Y-70588095D02*
X95861904Y-70826190D01*
X95695238Y-70326190D02*
X95861904Y-70588095D01*
X96028571Y-70326190D01*
X96171428Y-70373809D02*
X96195238Y-70350000D01*
X96242857Y-70326190D01*
X96361904Y-70326190D01*
X96409523Y-70350000D01*
X96433333Y-70373809D01*
X96457142Y-70421428D01*
X96457142Y-70469047D01*
X96433333Y-70540476D01*
X96147619Y-70826190D01*
X96457142Y-70826190D01*
X110961904Y-62488095D02*
X110961904Y-62726190D01*
X110795238Y-62226190D02*
X110961904Y-62488095D01*
X111128571Y-62226190D01*
X111557142Y-62726190D02*
X111271428Y-62726190D01*
X111414285Y-62726190D02*
X111414285Y-62226190D01*
X111366666Y-62297619D01*
X111319047Y-62345238D01*
X111271428Y-62369047D01*
X115916666Y-69426190D02*
X115678571Y-69426190D01*
X115678571Y-68926190D01*
X116345238Y-69426190D02*
X116059523Y-69426190D01*
X116202380Y-69426190D02*
X116202380Y-68926190D01*
X116154761Y-68997619D01*
X116107142Y-69045238D01*
X116059523Y-69069047D01*
X95978571Y-74078571D02*
X95954761Y-74102380D01*
X95883333Y-74126190D01*
X95835714Y-74126190D01*
X95764285Y-74102380D01*
X95716666Y-74054761D01*
X95692857Y-74007142D01*
X95669047Y-73911904D01*
X95669047Y-73840476D01*
X95692857Y-73745238D01*
X95716666Y-73697619D01*
X95764285Y-73650000D01*
X95835714Y-73626190D01*
X95883333Y-73626190D01*
X95954761Y-73650000D01*
X95978571Y-73673809D01*
X96454761Y-74126190D02*
X96169047Y-74126190D01*
X96311904Y-74126190D02*
X96311904Y-73626190D01*
X96264285Y-73697619D01*
X96216666Y-73745238D01*
X96169047Y-73769047D01*
X96883333Y-73792857D02*
X96883333Y-74126190D01*
X96764285Y-73602380D02*
X96645238Y-73959523D01*
X96954761Y-73959523D01*
X96928571Y-62628571D02*
X96904761Y-62652380D01*
X96833333Y-62676190D01*
X96785714Y-62676190D01*
X96714285Y-62652380D01*
X96666666Y-62604761D01*
X96642857Y-62557142D01*
X96619047Y-62461904D01*
X96619047Y-62390476D01*
X96642857Y-62295238D01*
X96666666Y-62247619D01*
X96714285Y-62200000D01*
X96785714Y-62176190D01*
X96833333Y-62176190D01*
X96904761Y-62200000D01*
X96928571Y-62223809D01*
X97404761Y-62676190D02*
X97119047Y-62676190D01*
X97261904Y-62676190D02*
X97261904Y-62176190D01*
X97214285Y-62247619D01*
X97166666Y-62295238D01*
X97119047Y-62319047D01*
X97571428Y-62176190D02*
X97880952Y-62176190D01*
X97714285Y-62366666D01*
X97785714Y-62366666D01*
X97833333Y-62390476D01*
X97857142Y-62414285D01*
X97880952Y-62461904D01*
X97880952Y-62580952D01*
X97857142Y-62628571D01*
X97833333Y-62652380D01*
X97785714Y-62676190D01*
X97642857Y-62676190D01*
X97595238Y-62652380D01*
X97571428Y-62628571D01*
X99378571Y-57978571D02*
X99354761Y-58002380D01*
X99283333Y-58026190D01*
X99235714Y-58026190D01*
X99164285Y-58002380D01*
X99116666Y-57954761D01*
X99092857Y-57907142D01*
X99069047Y-57811904D01*
X99069047Y-57740476D01*
X99092857Y-57645238D01*
X99116666Y-57597619D01*
X99164285Y-57550000D01*
X99235714Y-57526190D01*
X99283333Y-57526190D01*
X99354761Y-57550000D01*
X99378571Y-57573809D01*
X99854761Y-58026190D02*
X99569047Y-58026190D01*
X99711904Y-58026190D02*
X99711904Y-57526190D01*
X99664285Y-57597619D01*
X99616666Y-57645238D01*
X99569047Y-57669047D01*
X100045238Y-57573809D02*
X100069047Y-57550000D01*
X100116666Y-57526190D01*
X100235714Y-57526190D01*
X100283333Y-57550000D01*
X100307142Y-57573809D01*
X100330952Y-57621428D01*
X100330952Y-57669047D01*
X100307142Y-57740476D01*
X100021428Y-58026190D01*
X100330952Y-58026190D01*
X96278571Y-76778571D02*
X96254761Y-76802380D01*
X96183333Y-76826190D01*
X96135714Y-76826190D01*
X96064285Y-76802380D01*
X96016666Y-76754761D01*
X95992857Y-76707142D01*
X95969047Y-76611904D01*
X95969047Y-76540476D01*
X95992857Y-76445238D01*
X96016666Y-76397619D01*
X96064285Y-76350000D01*
X96135714Y-76326190D01*
X96183333Y-76326190D01*
X96254761Y-76350000D01*
X96278571Y-76373809D01*
X96754761Y-76826190D02*
X96469047Y-76826190D01*
X96611904Y-76826190D02*
X96611904Y-76326190D01*
X96564285Y-76397619D01*
X96516666Y-76445238D01*
X96469047Y-76469047D01*
X97230952Y-76826190D02*
X96945238Y-76826190D01*
X97088095Y-76826190D02*
X97088095Y-76326190D01*
X97040476Y-76397619D01*
X96992857Y-76445238D01*
X96945238Y-76469047D01*
X105128571Y-62728571D02*
X105104761Y-62752380D01*
X105033333Y-62776190D01*
X104985714Y-62776190D01*
X104914285Y-62752380D01*
X104866666Y-62704761D01*
X104842857Y-62657142D01*
X104819047Y-62561904D01*
X104819047Y-62490476D01*
X104842857Y-62395238D01*
X104866666Y-62347619D01*
X104914285Y-62300000D01*
X104985714Y-62276190D01*
X105033333Y-62276190D01*
X105104761Y-62300000D01*
X105128571Y-62323809D01*
X105604761Y-62776190D02*
X105319047Y-62776190D01*
X105461904Y-62776190D02*
X105461904Y-62276190D01*
X105414285Y-62347619D01*
X105366666Y-62395238D01*
X105319047Y-62419047D01*
X105914285Y-62276190D02*
X105961904Y-62276190D01*
X106009523Y-62300000D01*
X106033333Y-62323809D01*
X106057142Y-62371428D01*
X106080952Y-62466666D01*
X106080952Y-62585714D01*
X106057142Y-62680952D01*
X106033333Y-62728571D01*
X106009523Y-62752380D01*
X105961904Y-62776190D01*
X105914285Y-62776190D01*
X105866666Y-62752380D01*
X105842857Y-62728571D01*
X105819047Y-62680952D01*
X105795238Y-62585714D01*
X105795238Y-62466666D01*
X105819047Y-62371428D01*
X105842857Y-62323809D01*
X105866666Y-62300000D01*
X105914285Y-62276190D01*
X103716666Y-78378571D02*
X103692857Y-78402380D01*
X103621428Y-78426190D01*
X103573809Y-78426190D01*
X103502380Y-78402380D01*
X103454761Y-78354761D01*
X103430952Y-78307142D01*
X103407142Y-78211904D01*
X103407142Y-78140476D01*
X103430952Y-78045238D01*
X103454761Y-77997619D01*
X103502380Y-77950000D01*
X103573809Y-77926190D01*
X103621428Y-77926190D01*
X103692857Y-77950000D01*
X103716666Y-77973809D01*
X103954761Y-78426190D02*
X104050000Y-78426190D01*
X104097619Y-78402380D01*
X104121428Y-78378571D01*
X104169047Y-78307142D01*
X104192857Y-78211904D01*
X104192857Y-78021428D01*
X104169047Y-77973809D01*
X104145238Y-77950000D01*
X104097619Y-77926190D01*
X104002380Y-77926190D01*
X103954761Y-77950000D01*
X103930952Y-77973809D01*
X103907142Y-78021428D01*
X103907142Y-78140476D01*
X103930952Y-78188095D01*
X103954761Y-78211904D01*
X104002380Y-78235714D01*
X104097619Y-78235714D01*
X104145238Y-78211904D01*
X104169047Y-78188095D01*
X104192857Y-78140476D01*
X112016666Y-71978571D02*
X111992857Y-72002380D01*
X111921428Y-72026190D01*
X111873809Y-72026190D01*
X111802380Y-72002380D01*
X111754761Y-71954761D01*
X111730952Y-71907142D01*
X111707142Y-71811904D01*
X111707142Y-71740476D01*
X111730952Y-71645238D01*
X111754761Y-71597619D01*
X111802380Y-71550000D01*
X111873809Y-71526190D01*
X111921428Y-71526190D01*
X111992857Y-71550000D01*
X112016666Y-71573809D01*
X112302380Y-71740476D02*
X112254761Y-71716666D01*
X112230952Y-71692857D01*
X112207142Y-71645238D01*
X112207142Y-71621428D01*
X112230952Y-71573809D01*
X112254761Y-71550000D01*
X112302380Y-71526190D01*
X112397619Y-71526190D01*
X112445238Y-71550000D01*
X112469047Y-71573809D01*
X112492857Y-71621428D01*
X112492857Y-71645238D01*
X112469047Y-71692857D01*
X112445238Y-71716666D01*
X112397619Y-71740476D01*
X112302380Y-71740476D01*
X112254761Y-71764285D01*
X112230952Y-71788095D01*
X112207142Y-71835714D01*
X112207142Y-71930952D01*
X112230952Y-71978571D01*
X112254761Y-72002380D01*
X112302380Y-72026190D01*
X112397619Y-72026190D01*
X112445238Y-72002380D01*
X112469047Y-71978571D01*
X112492857Y-71930952D01*
X112492857Y-71835714D01*
X112469047Y-71788095D01*
X112445238Y-71764285D01*
X112397619Y-71740476D01*
X101616666Y-68078571D02*
X101592857Y-68102380D01*
X101521428Y-68126190D01*
X101473809Y-68126190D01*
X101402380Y-68102380D01*
X101354761Y-68054761D01*
X101330952Y-68007142D01*
X101307142Y-67911904D01*
X101307142Y-67840476D01*
X101330952Y-67745238D01*
X101354761Y-67697619D01*
X101402380Y-67650000D01*
X101473809Y-67626190D01*
X101521428Y-67626190D01*
X101592857Y-67650000D01*
X101616666Y-67673809D01*
X101783333Y-67626190D02*
X102116666Y-67626190D01*
X101902380Y-68126190D01*
X112516666Y-75028571D02*
X112492857Y-75052380D01*
X112421428Y-75076190D01*
X112373809Y-75076190D01*
X112302380Y-75052380D01*
X112254761Y-75004761D01*
X112230952Y-74957142D01*
X112207142Y-74861904D01*
X112207142Y-74790476D01*
X112230952Y-74695238D01*
X112254761Y-74647619D01*
X112302380Y-74600000D01*
X112373809Y-74576190D01*
X112421428Y-74576190D01*
X112492857Y-74600000D01*
X112516666Y-74623809D01*
X112945238Y-74576190D02*
X112850000Y-74576190D01*
X112802380Y-74600000D01*
X112778571Y-74623809D01*
X112730952Y-74695238D01*
X112707142Y-74790476D01*
X112707142Y-74980952D01*
X112730952Y-75028571D01*
X112754761Y-75052380D01*
X112802380Y-75076190D01*
X112897619Y-75076190D01*
X112945238Y-75052380D01*
X112969047Y-75028571D01*
X112992857Y-74980952D01*
X112992857Y-74861904D01*
X112969047Y-74814285D01*
X112945238Y-74790476D01*
X112897619Y-74766666D01*
X112802380Y-74766666D01*
X112754761Y-74790476D01*
X112730952Y-74814285D01*
X112707142Y-74861904D01*
X115566666Y-56328571D02*
X115542857Y-56352380D01*
X115471428Y-56376190D01*
X115423809Y-56376190D01*
X115352380Y-56352380D01*
X115304761Y-56304761D01*
X115280952Y-56257142D01*
X115257142Y-56161904D01*
X115257142Y-56090476D01*
X115280952Y-55995238D01*
X115304761Y-55947619D01*
X115352380Y-55900000D01*
X115423809Y-55876190D01*
X115471428Y-55876190D01*
X115542857Y-55900000D01*
X115566666Y-55923809D01*
X116019047Y-55876190D02*
X115780952Y-55876190D01*
X115757142Y-56114285D01*
X115780952Y-56090476D01*
X115828571Y-56066666D01*
X115947619Y-56066666D01*
X115995238Y-56090476D01*
X116019047Y-56114285D01*
X116042857Y-56161904D01*
X116042857Y-56280952D01*
X116019047Y-56328571D01*
X115995238Y-56352380D01*
X115947619Y-56376190D01*
X115828571Y-56376190D01*
X115780952Y-56352380D01*
X115757142Y-56328571D01*
X102716666Y-81578571D02*
X102692857Y-81602380D01*
X102621428Y-81626190D01*
X102573809Y-81626190D01*
X102502380Y-81602380D01*
X102454761Y-81554761D01*
X102430952Y-81507142D01*
X102407142Y-81411904D01*
X102407142Y-81340476D01*
X102430952Y-81245238D01*
X102454761Y-81197619D01*
X102502380Y-81150000D01*
X102573809Y-81126190D01*
X102621428Y-81126190D01*
X102692857Y-81150000D01*
X102716666Y-81173809D01*
X103145238Y-81292857D02*
X103145238Y-81626190D01*
X103026190Y-81102380D02*
X102907142Y-81459523D01*
X103216666Y-81459523D01*
X118516666Y-51228571D02*
X118492857Y-51252380D01*
X118421428Y-51276190D01*
X118373809Y-51276190D01*
X118302380Y-51252380D01*
X118254761Y-51204761D01*
X118230952Y-51157142D01*
X118207142Y-51061904D01*
X118207142Y-50990476D01*
X118230952Y-50895238D01*
X118254761Y-50847619D01*
X118302380Y-50800000D01*
X118373809Y-50776190D01*
X118421428Y-50776190D01*
X118492857Y-50800000D01*
X118516666Y-50823809D01*
X118683333Y-50776190D02*
X118992857Y-50776190D01*
X118826190Y-50966666D01*
X118897619Y-50966666D01*
X118945238Y-50990476D01*
X118969047Y-51014285D01*
X118992857Y-51061904D01*
X118992857Y-51180952D01*
X118969047Y-51228571D01*
X118945238Y-51252380D01*
X118897619Y-51276190D01*
X118754761Y-51276190D01*
X118707142Y-51252380D01*
X118683333Y-51228571D01*
X112316666Y-57328571D02*
X112292857Y-57352380D01*
X112221428Y-57376190D01*
X112173809Y-57376190D01*
X112102380Y-57352380D01*
X112054761Y-57304761D01*
X112030952Y-57257142D01*
X112007142Y-57161904D01*
X112007142Y-57090476D01*
X112030952Y-56995238D01*
X112054761Y-56947619D01*
X112102380Y-56900000D01*
X112173809Y-56876190D01*
X112221428Y-56876190D01*
X112292857Y-56900000D01*
X112316666Y-56923809D01*
X112507142Y-56923809D02*
X112530952Y-56900000D01*
X112578571Y-56876190D01*
X112697619Y-56876190D01*
X112745238Y-56900000D01*
X112769047Y-56923809D01*
X112792857Y-56971428D01*
X112792857Y-57019047D01*
X112769047Y-57090476D01*
X112483333Y-57376190D01*
X112792857Y-57376190D01*
X96716666Y-79278571D02*
X96692857Y-79302380D01*
X96621428Y-79326190D01*
X96573809Y-79326190D01*
X96502380Y-79302380D01*
X96454761Y-79254761D01*
X96430952Y-79207142D01*
X96407142Y-79111904D01*
X96407142Y-79040476D01*
X96430952Y-78945238D01*
X96454761Y-78897619D01*
X96502380Y-78850000D01*
X96573809Y-78826190D01*
X96621428Y-78826190D01*
X96692857Y-78850000D01*
X96716666Y-78873809D01*
X97192857Y-79326190D02*
X96907142Y-79326190D01*
X97050000Y-79326190D02*
X97050000Y-78826190D01*
X97002380Y-78897619D01*
X96954761Y-78945238D01*
X96907142Y-78969047D01*
D16*
X120633333Y-51166666D02*
X121109523Y-51166666D01*
X120538095Y-51452380D02*
X120871428Y-50452380D01*
X121204761Y-51452380D01*
X121538095Y-50928571D02*
X121871428Y-50928571D01*
X122014285Y-51452380D02*
X121538095Y-51452380D01*
X121538095Y-50452380D01*
X122014285Y-50452380D01*
X122966666Y-51452380D02*
X122395238Y-51452380D01*
X122680952Y-51452380D02*
X122680952Y-50452380D01*
X122585714Y-50595238D01*
X122490476Y-50690476D01*
X122395238Y-50738095D01*
D11*
X98286333Y-85666750D02*
X98286333Y-86023893D01*
X98262523Y-86095321D01*
X98214904Y-86142940D01*
X98143476Y-86166750D01*
X98095857Y-86166750D01*
X98500619Y-85714369D02*
X98524428Y-85690560D01*
X98572047Y-85666750D01*
X98691095Y-85666750D01*
X98738714Y-85690560D01*
X98762523Y-85714369D01*
X98786333Y-85761988D01*
X98786333Y-85809607D01*
X98762523Y-85881036D01*
X98476809Y-86166750D01*
X98786333Y-86166750D01*
X99919047Y-81026190D02*
X99919047Y-81430952D01*
X99942857Y-81478571D01*
X99966666Y-81502380D01*
X100014285Y-81526190D01*
X100109523Y-81526190D01*
X100157142Y-81502380D01*
X100180952Y-81478571D01*
X100204761Y-81430952D01*
X100204761Y-81026190D01*
X100704761Y-81526190D02*
X100419047Y-81526190D01*
X100561904Y-81526190D02*
X100561904Y-81026190D01*
X100514285Y-81097619D01*
X100466666Y-81145238D01*
X100419047Y-81169047D01*
D16*
X118366666Y-57222380D02*
X118366666Y-57936666D01*
X118319047Y-58079523D01*
X118223809Y-58174761D01*
X118080952Y-58222380D01*
X117985714Y-58222380D01*
X119366666Y-58222380D02*
X118795238Y-58222380D01*
X119080952Y-58222380D02*
X119080952Y-57222380D01*
X118985714Y-57365238D01*
X118890476Y-57460476D01*
X118795238Y-57508095D01*
X91966666Y-48772380D02*
X91966666Y-49486666D01*
X91919047Y-49629523D01*
X91823809Y-49724761D01*
X91680952Y-49772380D01*
X91585714Y-49772380D01*
X92871428Y-49105714D02*
X92871428Y-49772380D01*
X92633333Y-48724761D02*
X92395238Y-49439047D01*
X93014285Y-49439047D01*
X124091666Y-57147380D02*
X124091666Y-57861666D01*
X124044047Y-58004523D01*
X123948809Y-58099761D01*
X123805952Y-58147380D01*
X123710714Y-58147380D01*
X125044047Y-57147380D02*
X124567857Y-57147380D01*
X124520238Y-57623571D01*
X124567857Y-57575952D01*
X124663095Y-57528333D01*
X124901190Y-57528333D01*
X124996428Y-57575952D01*
X125044047Y-57623571D01*
X125091666Y-57718809D01*
X125091666Y-57956904D01*
X125044047Y-58052142D01*
X124996428Y-58099761D01*
X124901190Y-58147380D01*
X124663095Y-58147380D01*
X124567857Y-58099761D01*
X124520238Y-58052142D01*
X86066666Y-48772380D02*
X86066666Y-49486666D01*
X86019047Y-49629523D01*
X85923809Y-49724761D01*
X85780952Y-49772380D01*
X85685714Y-49772380D01*
X86971428Y-48772380D02*
X86780952Y-48772380D01*
X86685714Y-48820000D01*
X86638095Y-48867619D01*
X86542857Y-49010476D01*
X86495238Y-49200952D01*
X86495238Y-49581904D01*
X86542857Y-49677142D01*
X86590476Y-49724761D01*
X86685714Y-49772380D01*
X86876190Y-49772380D01*
X86971428Y-49724761D01*
X87019047Y-49677142D01*
X87066666Y-49581904D01*
X87066666Y-49343809D01*
X87019047Y-49248571D01*
X86971428Y-49200952D01*
X86876190Y-49153333D01*
X86685714Y-49153333D01*
X86590476Y-49200952D01*
X86542857Y-49248571D01*
X86495238Y-49343809D01*
M02*
