G04 #@! TF.GenerationSoftware,KiCad,Pcbnew,5.1.7-a382d34a8~88~ubuntu18.04.1*
G04 #@! TF.CreationDate,2021-09-05T00:01:39+05:30*
G04 #@! TF.ProjectId,FrontEnd_HeavyDevice_v2,46726f6e-7445-46e6-945f-486561767944,rev?*
G04 #@! TF.SameCoordinates,Original*
G04 #@! TF.FileFunction,Legend,Bot*
G04 #@! TF.FilePolarity,Positive*
%FSLAX46Y46*%
G04 Gerber Fmt 4.6, Leading zero omitted, Abs format (unit mm)*
G04 Created by KiCad (PCBNEW 5.1.7-a382d34a8~88~ubuntu18.04.1) date 2021-09-05 00:01:39*
%MOMM*%
%LPD*%
G01*
G04 APERTURE LIST*
%ADD10C,0.200000*%
%ADD11C,0.300000*%
%ADD12C,0.127000*%
%ADD13C,0.120000*%
%ADD14C,0.150000*%
G04 APERTURE END LIST*
D10*
X125728287Y-112243245D02*
X126061620Y-112243245D01*
X126061620Y-112871817D02*
X126061620Y-111671817D01*
X125585430Y-111671817D01*
X125204478Y-112871817D02*
X125204478Y-112071817D01*
X125204478Y-112300388D02*
X125156859Y-112186102D01*
X125109240Y-112128960D01*
X125014001Y-112071817D01*
X124918763Y-112071817D01*
X124442573Y-112871817D02*
X124537811Y-112814674D01*
X124585430Y-112757531D01*
X124633049Y-112643245D01*
X124633049Y-112300388D01*
X124585430Y-112186102D01*
X124537811Y-112128960D01*
X124442573Y-112071817D01*
X124299716Y-112071817D01*
X124204478Y-112128960D01*
X124156859Y-112186102D01*
X124109240Y-112300388D01*
X124109240Y-112643245D01*
X124156859Y-112757531D01*
X124204478Y-112814674D01*
X124299716Y-112871817D01*
X124442573Y-112871817D01*
X123680668Y-112071817D02*
X123680668Y-112871817D01*
X123680668Y-112186102D02*
X123633049Y-112128960D01*
X123537811Y-112071817D01*
X123394954Y-112071817D01*
X123299716Y-112128960D01*
X123252097Y-112243245D01*
X123252097Y-112871817D01*
X122775906Y-112243245D02*
X122442573Y-112243245D01*
X122299716Y-112871817D02*
X122775906Y-112871817D01*
X122775906Y-111671817D01*
X122299716Y-111671817D01*
X121871144Y-112071817D02*
X121871144Y-112871817D01*
X121871144Y-112186102D02*
X121823525Y-112128960D01*
X121728287Y-112071817D01*
X121585430Y-112071817D01*
X121490192Y-112128960D01*
X121442573Y-112243245D01*
X121442573Y-112871817D01*
X120537811Y-112871817D02*
X120537811Y-111671817D01*
X120537811Y-112814674D02*
X120633049Y-112871817D01*
X120823525Y-112871817D01*
X120918763Y-112814674D01*
X120966382Y-112757531D01*
X121014001Y-112643245D01*
X121014001Y-112300388D01*
X120966382Y-112186102D01*
X120918763Y-112128960D01*
X120823525Y-112071817D01*
X120633049Y-112071817D01*
X120537811Y-112128960D01*
X120299716Y-112986102D02*
X119537811Y-112986102D01*
X119299716Y-112871817D02*
X119299716Y-111671817D01*
X119299716Y-112243245D02*
X118728287Y-112243245D01*
X118728287Y-112871817D02*
X118728287Y-111671817D01*
X117871144Y-112814674D02*
X117966382Y-112871817D01*
X118156859Y-112871817D01*
X118252097Y-112814674D01*
X118299716Y-112700388D01*
X118299716Y-112243245D01*
X118252097Y-112128960D01*
X118156859Y-112071817D01*
X117966382Y-112071817D01*
X117871144Y-112128960D01*
X117823525Y-112243245D01*
X117823525Y-112357531D01*
X118299716Y-112471817D01*
X116966382Y-112871817D02*
X116966382Y-112243245D01*
X117014001Y-112128960D01*
X117109240Y-112071817D01*
X117299716Y-112071817D01*
X117394954Y-112128960D01*
X116966382Y-112814674D02*
X117061620Y-112871817D01*
X117299716Y-112871817D01*
X117394954Y-112814674D01*
X117442573Y-112700388D01*
X117442573Y-112586102D01*
X117394954Y-112471817D01*
X117299716Y-112414674D01*
X117061620Y-112414674D01*
X116966382Y-112357531D01*
X116585430Y-112071817D02*
X116347335Y-112871817D01*
X116109240Y-112071817D01*
X115823525Y-112071817D02*
X115585430Y-112871817D01*
X115347335Y-112071817D02*
X115585430Y-112871817D01*
X115680668Y-113157531D01*
X115728287Y-113214674D01*
X115823525Y-113271817D01*
X114966382Y-112871817D02*
X114966382Y-111671817D01*
X114728287Y-111671817D01*
X114585430Y-111728960D01*
X114490192Y-111843245D01*
X114442573Y-111957531D01*
X114394954Y-112186102D01*
X114394954Y-112357531D01*
X114442573Y-112586102D01*
X114490192Y-112700388D01*
X114585430Y-112814674D01*
X114728287Y-112871817D01*
X114966382Y-112871817D01*
X113585430Y-112814674D02*
X113680668Y-112871817D01*
X113871144Y-112871817D01*
X113966382Y-112814674D01*
X114014001Y-112700388D01*
X114014001Y-112243245D01*
X113966382Y-112128960D01*
X113871144Y-112071817D01*
X113680668Y-112071817D01*
X113585430Y-112128960D01*
X113537811Y-112243245D01*
X113537811Y-112357531D01*
X114014001Y-112471817D01*
X113204478Y-112071817D02*
X112966382Y-112871817D01*
X112728287Y-112071817D01*
X112347335Y-112871817D02*
X112347335Y-112071817D01*
X112347335Y-111671817D02*
X112394954Y-111728960D01*
X112347335Y-111786102D01*
X112299716Y-111728960D01*
X112347335Y-111671817D01*
X112347335Y-111786102D01*
X111442573Y-112814674D02*
X111537811Y-112871817D01*
X111728287Y-112871817D01*
X111823525Y-112814674D01*
X111871144Y-112757531D01*
X111918763Y-112643245D01*
X111918763Y-112300388D01*
X111871144Y-112186102D01*
X111823525Y-112128960D01*
X111728287Y-112071817D01*
X111537811Y-112071817D01*
X111442573Y-112128960D01*
X110633049Y-112814674D02*
X110728287Y-112871817D01*
X110918763Y-112871817D01*
X111014001Y-112814674D01*
X111061620Y-112700388D01*
X111061620Y-112243245D01*
X111014001Y-112128960D01*
X110918763Y-112071817D01*
X110728287Y-112071817D01*
X110633049Y-112128960D01*
X110585430Y-112243245D01*
X110585430Y-112357531D01*
X111061620Y-112471817D01*
X110394954Y-112986102D02*
X109633049Y-112986102D01*
X109490192Y-112071817D02*
X109252097Y-112871817D01*
X109014001Y-112071817D01*
X108680668Y-111786102D02*
X108633049Y-111728960D01*
X108537811Y-111671817D01*
X108299716Y-111671817D01*
X108204478Y-111728960D01*
X108156859Y-111786102D01*
X108109240Y-111900388D01*
X108109240Y-112014674D01*
X108156859Y-112186102D01*
X108728287Y-112871817D01*
X108109240Y-112871817D01*
D11*
X132958240Y-109444041D02*
X132958240Y-107444041D01*
X132958240Y-108396422D02*
X131815383Y-108396422D01*
X131815383Y-109444041D02*
X131815383Y-107444041D01*
X130005860Y-108110708D02*
X130005860Y-109444041D01*
X130863002Y-108110708D02*
X130863002Y-109158327D01*
X130767764Y-109348803D01*
X130577288Y-109444041D01*
X130291574Y-109444041D01*
X130101098Y-109348803D01*
X130005860Y-109253565D01*
X129053479Y-109444041D02*
X129053479Y-107444041D01*
X128863002Y-108682137D02*
X128291574Y-109444041D01*
X128291574Y-108110708D02*
X129053479Y-108872613D01*
X126577288Y-109444041D02*
X126577288Y-108396422D01*
X126672526Y-108205946D01*
X126863002Y-108110708D01*
X127243955Y-108110708D01*
X127434431Y-108205946D01*
X126577288Y-109348803D02*
X126767764Y-109444041D01*
X127243955Y-109444041D01*
X127434431Y-109348803D01*
X127529669Y-109158327D01*
X127529669Y-108967851D01*
X127434431Y-108777375D01*
X127243955Y-108682137D01*
X126767764Y-108682137D01*
X126577288Y-108586899D01*
X125624907Y-109444041D02*
X125624907Y-108110708D01*
X125624907Y-108301184D02*
X125529669Y-108205946D01*
X125339193Y-108110708D01*
X125053479Y-108110708D01*
X124863002Y-108205946D01*
X124767764Y-108396422D01*
X124767764Y-109444041D01*
X124767764Y-108396422D02*
X124672526Y-108205946D01*
X124482050Y-108110708D01*
X124196336Y-108110708D01*
X124005860Y-108205946D01*
X123910621Y-108396422D01*
X123910621Y-109444041D01*
X121720145Y-107444041D02*
X120577288Y-107444041D01*
X121148717Y-109444041D02*
X121148717Y-107444041D01*
X119148717Y-109348803D02*
X119339193Y-109444041D01*
X119720145Y-109444041D01*
X119910621Y-109348803D01*
X120005860Y-109158327D01*
X120005860Y-108396422D01*
X119910621Y-108205946D01*
X119720145Y-108110708D01*
X119339193Y-108110708D01*
X119148717Y-108205946D01*
X119053479Y-108396422D01*
X119053479Y-108586899D01*
X120005860Y-108777375D01*
X117339193Y-109348803D02*
X117529669Y-109444041D01*
X117910621Y-109444041D01*
X118101098Y-109348803D01*
X118196336Y-109253565D01*
X118291574Y-109063089D01*
X118291574Y-108491660D01*
X118196336Y-108301184D01*
X118101098Y-108205946D01*
X117910621Y-108110708D01*
X117529669Y-108110708D01*
X117339193Y-108205946D01*
X116482050Y-109444041D02*
X116482050Y-107444041D01*
X115624907Y-109444041D02*
X115624907Y-108396422D01*
X115720145Y-108205946D01*
X115910621Y-108110708D01*
X116196336Y-108110708D01*
X116386812Y-108205946D01*
X116482050Y-108301184D01*
X114672526Y-108110708D02*
X114672526Y-109444041D01*
X114672526Y-108301184D02*
X114577288Y-108205946D01*
X114386812Y-108110708D01*
X114101098Y-108110708D01*
X113910621Y-108205946D01*
X113815383Y-108396422D01*
X113815383Y-109444041D01*
X112577288Y-109444041D02*
X112767764Y-109348803D01*
X112863002Y-109253565D01*
X112958240Y-109063089D01*
X112958240Y-108491660D01*
X112863002Y-108301184D01*
X112767764Y-108205946D01*
X112577288Y-108110708D01*
X112291574Y-108110708D01*
X112101098Y-108205946D01*
X112005860Y-108301184D01*
X111910621Y-108491660D01*
X111910621Y-109063089D01*
X112005860Y-109253565D01*
X112101098Y-109348803D01*
X112291574Y-109444041D01*
X112577288Y-109444041D01*
X110767764Y-109444041D02*
X110958240Y-109348803D01*
X111053479Y-109158327D01*
X111053479Y-107444041D01*
X109720145Y-109444041D02*
X109910621Y-109348803D01*
X110005860Y-109253565D01*
X110101098Y-109063089D01*
X110101098Y-108491660D01*
X110005860Y-108301184D01*
X109910621Y-108205946D01*
X109720145Y-108110708D01*
X109434431Y-108110708D01*
X109243955Y-108205946D01*
X109148717Y-108301184D01*
X109053479Y-108491660D01*
X109053479Y-109063089D01*
X109148717Y-109253565D01*
X109243955Y-109348803D01*
X109434431Y-109444041D01*
X109720145Y-109444041D01*
X107339193Y-108110708D02*
X107339193Y-109729756D01*
X107434431Y-109920232D01*
X107529669Y-110015470D01*
X107720145Y-110110708D01*
X108005860Y-110110708D01*
X108196336Y-110015470D01*
X107339193Y-109348803D02*
X107529669Y-109444041D01*
X107910621Y-109444041D01*
X108101098Y-109348803D01*
X108196336Y-109253565D01*
X108291574Y-109063089D01*
X108291574Y-108491660D01*
X108196336Y-108301184D01*
X108101098Y-108205946D01*
X107910621Y-108110708D01*
X107529669Y-108110708D01*
X107339193Y-108205946D01*
X106386812Y-109444041D02*
X106386812Y-108110708D01*
X106386812Y-107444041D02*
X106482050Y-107539280D01*
X106386812Y-107634518D01*
X106291574Y-107539280D01*
X106386812Y-107444041D01*
X106386812Y-107634518D01*
X104672526Y-109348803D02*
X104863002Y-109444041D01*
X105243955Y-109444041D01*
X105434431Y-109348803D01*
X105529669Y-109158327D01*
X105529669Y-108396422D01*
X105434431Y-108205946D01*
X105243955Y-108110708D01*
X104863002Y-108110708D01*
X104672526Y-108205946D01*
X104577288Y-108396422D01*
X104577288Y-108586899D01*
X105529669Y-108777375D01*
X103815383Y-109348803D02*
X103624907Y-109444041D01*
X103243955Y-109444041D01*
X103053479Y-109348803D01*
X102958240Y-109158327D01*
X102958240Y-109063089D01*
X103053479Y-108872613D01*
X103243955Y-108777375D01*
X103529669Y-108777375D01*
X103720145Y-108682137D01*
X103815383Y-108491660D01*
X103815383Y-108396422D01*
X103720145Y-108205946D01*
X103529669Y-108110708D01*
X103243955Y-108110708D01*
X103053479Y-108205946D01*
D12*
X97729140Y-109094800D02*
X97729140Y-109954800D01*
X99329140Y-109094800D02*
X99329140Y-109954800D01*
D10*
X99134740Y-106948800D02*
G75*
G03*
X99134740Y-106948800I-100000J0D01*
G01*
D13*
X112620000Y-89120000D02*
X113820000Y-89120000D01*
X113820000Y-87360000D02*
X112620000Y-87360000D01*
X113990000Y-93979900D02*
X113990000Y-92379900D01*
X113990000Y-92379900D02*
X116590000Y-92379900D01*
X113990000Y-93979900D02*
X116590000Y-93979900D01*
X122160000Y-87340000D02*
X122160000Y-89790000D01*
X118940000Y-89140000D02*
X118940000Y-87340000D01*
D14*
X97962316Y-106270751D02*
X97628982Y-106270751D01*
X97486125Y-106794560D02*
X97962316Y-106794560D01*
X97962316Y-105794560D01*
X97486125Y-105794560D01*
X96533744Y-106794560D02*
X97105173Y-106794560D01*
X96819459Y-106794560D02*
X96819459Y-105794560D01*
X96914697Y-105937418D01*
X97009935Y-106032656D01*
X97105173Y-106080275D01*
X115809826Y-88542520D02*
X116143160Y-88066330D01*
X116381255Y-88542520D02*
X116381255Y-87542520D01*
X116000302Y-87542520D01*
X115905064Y-87590140D01*
X115857445Y-87637759D01*
X115809826Y-87732997D01*
X115809826Y-87875854D01*
X115857445Y-87971092D01*
X115905064Y-88018711D01*
X116000302Y-88066330D01*
X116381255Y-88066330D01*
X114952683Y-87875854D02*
X114952683Y-88542520D01*
X115190779Y-87494901D02*
X115428874Y-88209187D01*
X114809826Y-88209187D01*
X113620455Y-93736420D02*
X113620455Y-92736420D01*
X113382360Y-92736420D01*
X113239502Y-92784040D01*
X113144264Y-92879278D01*
X113096645Y-92974516D01*
X113049026Y-93164992D01*
X113049026Y-93307849D01*
X113096645Y-93498325D01*
X113144264Y-93593563D01*
X113239502Y-93688801D01*
X113382360Y-93736420D01*
X113620455Y-93736420D01*
X112715693Y-92736420D02*
X112096645Y-92736420D01*
X112429979Y-93117373D01*
X112287121Y-93117373D01*
X112191883Y-93164992D01*
X112144264Y-93212611D01*
X112096645Y-93307849D01*
X112096645Y-93545944D01*
X112144264Y-93641182D01*
X112191883Y-93688801D01*
X112287121Y-93736420D01*
X112572836Y-93736420D01*
X112668074Y-93688801D01*
X112715693Y-93641182D01*
X116911904Y-95802380D02*
X116340476Y-95802380D01*
X116626190Y-96802380D02*
X116626190Y-95802380D01*
X115483333Y-96802380D02*
X116054761Y-96802380D01*
X115769047Y-96802380D02*
X115769047Y-95802380D01*
X115864285Y-95945238D01*
X115959523Y-96040476D01*
X116054761Y-96088095D01*
X118665224Y-87745720D02*
X118665224Y-88555244D01*
X118617605Y-88650482D01*
X118569986Y-88698101D01*
X118474748Y-88745720D01*
X118284272Y-88745720D01*
X118189034Y-88698101D01*
X118141415Y-88650482D01*
X118093796Y-88555244D01*
X118093796Y-87745720D01*
X117189034Y-88079054D02*
X117189034Y-88745720D01*
X117427129Y-87698101D02*
X117665224Y-88412387D01*
X117046177Y-88412387D01*
M02*
