G04 #@! TF.GenerationSoftware,KiCad,Pcbnew,5.1.7-a382d34a8~88~ubuntu18.04.1*
G04 #@! TF.CreationDate,2021-09-05T00:01:39+05:30*
G04 #@! TF.ProjectId,FrontEnd_HeavyDevice_v2,46726f6e-7445-46e6-945f-486561767944,rev?*
G04 #@! TF.SameCoordinates,Original*
G04 #@! TF.FileFunction,Glue,Top*
G04 #@! TF.FilePolarity,Positive*
%FSLAX46Y46*%
G04 Gerber Fmt 4.6, Leading zero omitted, Abs format (unit mm)*
G04 Created by KiCad (PCBNEW 5.1.7-a382d34a8~88~ubuntu18.04.1) date 2021-09-05 00:01:39*
%MOMM*%
%LPD*%
G01*
G04 APERTURE LIST*
%ADD10R,1.000000X0.230000*%
%ADD11R,0.230000X1.000000*%
%ADD12R,1.700000X1.200000*%
G04 APERTURE END LIST*
D10*
X132304000Y-96530200D03*
D11*
X131034000Y-90180200D03*
X130526000Y-90180200D03*
X130018000Y-90180200D03*
X129510000Y-90180200D03*
X129002000Y-90180200D03*
X128494000Y-90180200D03*
X127986000Y-90180200D03*
X127478000Y-90180200D03*
X126970000Y-90180200D03*
X126462000Y-90180200D03*
X125954000Y-90180200D03*
X125446000Y-90180200D03*
D10*
X124176000Y-91450200D03*
X124176000Y-91958200D03*
X124176000Y-92974200D03*
X124176000Y-93482200D03*
X124176000Y-93990200D03*
X124176000Y-94498200D03*
X124176000Y-95006200D03*
X124176000Y-95514200D03*
X124176000Y-96022200D03*
X124176000Y-96530200D03*
X124176000Y-97038200D03*
D11*
X125954000Y-98308200D03*
X126462000Y-98308200D03*
X126970000Y-98308200D03*
X127478000Y-98308200D03*
X127986000Y-98308200D03*
X128494000Y-98308200D03*
X129002000Y-98308200D03*
X129510000Y-98308200D03*
X130018000Y-98308200D03*
X130526000Y-98308200D03*
X131034000Y-98308200D03*
D10*
X132304000Y-97038200D03*
X132304000Y-96022200D03*
X132304000Y-95514200D03*
X132304000Y-95006200D03*
X132304000Y-94498200D03*
X132304000Y-93990200D03*
X132304000Y-93482200D03*
X132304000Y-92974200D03*
X132304000Y-92466200D03*
X132304000Y-91958200D03*
X132304000Y-91450200D03*
D11*
X125446000Y-98308200D03*
D10*
X124176000Y-92466200D03*
D12*
X102255000Y-103279000D03*
X102255000Y-105279000D03*
X102255000Y-107279000D03*
X102255000Y-109279000D03*
X102255000Y-111279000D03*
X102255000Y-113279000D03*
X102255000Y-115279000D03*
X102255000Y-117279000D03*
X117485000Y-117279000D03*
X117485000Y-115279000D03*
X117485000Y-113279000D03*
X117485000Y-111279000D03*
X117485000Y-109279000D03*
X117485000Y-107279000D03*
X117485000Y-105279000D03*
X117485000Y-103279000D03*
M02*
