M48
; DRILL file {KiCad 5.1.7-a382d34a8~88~ubuntu18.04.1} date Sun Sep  5 00:01:57 2021
; FORMAT={3:3/ absolute / metric / suppress leading zeros}
; #@! TF.CreationDate,2021-09-05T00:01:57+05:30
; #@! TF.GenerationSoftware,Kicad,Pcbnew,5.1.7-a382d34a8~88~ubuntu18.04.1
FMAT,2
METRIC,TZ
T1C0.400
T2C0.762
T3C0.800
T4C1.000
T5C3.000
%
G90
G05
T1
X98433Y-114783
X99098Y-105717
X103634Y-108972
X103981Y-98150
X107379Y-82844
X111614Y-92426
X113650Y-85630
X114236Y-80480
X123136Y-94245
X123759Y-97737
X124500Y-84480
X125204Y-96197
X125440Y-83440
X126890Y-86970
X126942Y-96341
X127827Y-96511
X127842Y-95681
X128337Y-91395
X128372Y-94210
X128852Y-92933
X130185Y-95578
X131881Y-97685
X132340Y-99870
X132850Y-88230
X133640Y-114790
T2
X97287Y-117704
T3
X121676Y-105738
X121676Y-110618
X131796Y-105951
X131796Y-110831
T4
X98710Y-86920
X98710Y-89460
X98710Y-92000
X98710Y-94540
X98710Y-97080
X98710Y-99620
X110523Y-81834
X113063Y-81834
X115603Y-81834
X118143Y-81834
X120683Y-81834
X123223Y-81834
T5
X120792Y-116510
T0
M30
