G04 #@! TF.GenerationSoftware,KiCad,Pcbnew,6.0.5-a6ca702e91~116~ubuntu20.04.1*
G04 #@! TF.CreationDate,2022-06-20T16:09:36+05:30*
G04 #@! TF.ProjectId,BackEnd_HeavyDevice_v6,4261636b-456e-4645-9f48-656176794465,rev?*
G04 #@! TF.SameCoordinates,Original*
G04 #@! TF.FileFunction,Copper,L2,Bot*
G04 #@! TF.FilePolarity,Positive*
%FSLAX46Y46*%
G04 Gerber Fmt 4.6, Leading zero omitted, Abs format (unit mm)*
G04 Created by KiCad (PCBNEW 6.0.5-a6ca702e91~116~ubuntu20.04.1) date 2022-06-20 16:09:36*
%MOMM*%
%LPD*%
G01*
G04 APERTURE LIST*
G04 Aperture macros list*
%AMRoundRect*
0 Rectangle with rounded corners*
0 $1 Rounding radius*
0 $2 $3 $4 $5 $6 $7 $8 $9 X,Y pos of 4 corners*
0 Add a 4 corners polygon primitive as box body*
4,1,4,$2,$3,$4,$5,$6,$7,$8,$9,$2,$3,0*
0 Add four circle primitives for the rounded corners*
1,1,$1+$1,$2,$3*
1,1,$1+$1,$4,$5*
1,1,$1+$1,$6,$7*
1,1,$1+$1,$8,$9*
0 Add four rect primitives between the rounded corners*
20,1,$1+$1,$2,$3,$4,$5,0*
20,1,$1+$1,$4,$5,$6,$7,0*
20,1,$1+$1,$6,$7,$8,$9,0*
20,1,$1+$1,$8,$9,$2,$3,0*%
G04 Aperture macros list end*
G04 #@! TA.AperFunction,ComponentPad*
%ADD10R,4.500000X2.500000*%
G04 #@! TD*
G04 #@! TA.AperFunction,ComponentPad*
%ADD11O,4.500000X2.500000*%
G04 #@! TD*
G04 #@! TA.AperFunction,ComponentPad*
%ADD12C,1.950000*%
G04 #@! TD*
G04 #@! TA.AperFunction,ComponentPad*
%ADD13R,1.950000X1.950000*%
G04 #@! TD*
G04 #@! TA.AperFunction,ComponentPad*
%ADD14R,2.600000X2.600000*%
G04 #@! TD*
G04 #@! TA.AperFunction,ComponentPad*
%ADD15C,2.600000*%
G04 #@! TD*
G04 #@! TA.AperFunction,ComponentPad*
%ADD16C,3.100000*%
G04 #@! TD*
G04 #@! TA.AperFunction,SMDPad,CuDef*
%ADD17RoundRect,0.237500X0.300000X0.237500X-0.300000X0.237500X-0.300000X-0.237500X0.300000X-0.237500X0*%
G04 #@! TD*
G04 #@! TA.AperFunction,SMDPad,CuDef*
%ADD18R,0.900000X0.800000*%
G04 #@! TD*
G04 #@! TA.AperFunction,ComponentPad*
%ADD19C,2.000000*%
G04 #@! TD*
G04 #@! TA.AperFunction,SMDPad,CuDef*
%ADD20RoundRect,0.237500X0.250000X0.237500X-0.250000X0.237500X-0.250000X-0.237500X0.250000X-0.237500X0*%
G04 #@! TD*
G04 #@! TA.AperFunction,SMDPad,CuDef*
%ADD21R,0.650000X1.560000*%
G04 #@! TD*
G04 #@! TA.AperFunction,SMDPad,CuDef*
%ADD22R,3.100000X1.600000*%
G04 #@! TD*
G04 #@! TA.AperFunction,SMDPad,CuDef*
%ADD23RoundRect,0.237500X-0.250000X-0.237500X0.250000X-0.237500X0.250000X0.237500X-0.250000X0.237500X0*%
G04 #@! TD*
G04 #@! TA.AperFunction,SMDPad,CuDef*
%ADD24RoundRect,0.042000X-0.943000X-0.258000X0.943000X-0.258000X0.943000X0.258000X-0.943000X0.258000X0*%
G04 #@! TD*
G04 #@! TA.AperFunction,ViaPad*
%ADD25C,1.000000*%
G04 #@! TD*
G04 #@! TA.AperFunction,ViaPad*
%ADD26C,0.800000*%
G04 #@! TD*
G04 #@! TA.AperFunction,Conductor*
%ADD27C,1.000000*%
G04 #@! TD*
G04 #@! TA.AperFunction,Conductor*
%ADD28C,0.250000*%
G04 #@! TD*
G04 APERTURE END LIST*
D10*
X147925000Y-110750000D03*
D11*
X147925000Y-116200000D03*
X147925000Y-121650000D03*
D12*
X133383000Y-133195000D03*
X127287000Y-133195000D03*
X121699000Y-99667000D03*
D13*
X138971000Y-99667000D03*
D14*
X146497000Y-127460000D03*
D15*
X146497000Y-132460000D03*
D14*
X146576000Y-99860100D03*
D15*
X146576000Y-104940100D03*
D16*
X114554000Y-126187000D03*
D15*
X137000000Y-133400000D03*
X114600000Y-133400000D03*
X135200000Y-98800000D03*
X114600000Y-98800000D03*
D17*
X137962500Y-107300000D03*
X136237500Y-107300000D03*
D18*
X139100000Y-130770000D03*
X139100000Y-128230000D03*
D19*
X123940000Y-133300000D03*
X118860000Y-133310000D03*
D20*
X133112500Y-104100000D03*
X131287500Y-104100000D03*
X128512500Y-107300000D03*
X126687500Y-107300000D03*
X131312500Y-134200000D03*
X129487500Y-134200000D03*
D21*
X126357000Y-100124000D03*
X127307000Y-100124000D03*
X128257000Y-100124000D03*
X128257000Y-102824000D03*
X126357000Y-102824000D03*
D22*
X119776000Y-125862000D03*
X119776000Y-123322000D03*
X119776000Y-120782000D03*
X128666000Y-120782000D03*
X128666000Y-123322000D03*
X128666000Y-125862000D03*
D23*
X120287500Y-116500000D03*
X122112500Y-116500000D03*
X120342500Y-112751000D03*
X122167500Y-112751000D03*
D24*
X134200000Y-124645000D03*
X134200000Y-123375000D03*
X134200000Y-122105000D03*
X134200000Y-120835000D03*
X139150000Y-120835000D03*
X139150000Y-122105000D03*
X139150000Y-123375000D03*
X139150000Y-124645000D03*
D17*
X138162500Y-126700000D03*
X136437500Y-126700000D03*
X137588500Y-118074000D03*
X135863500Y-118074000D03*
D25*
X140800000Y-132100000D03*
X130800000Y-128900000D03*
D26*
X143300000Y-126100000D03*
X132200000Y-127100000D03*
X116600000Y-127900000D03*
X138494400Y-125584600D03*
X120400000Y-118200000D03*
X136700000Y-123900000D03*
X137700000Y-119600000D03*
D27*
X130800000Y-128900000D02*
X131200000Y-129300000D01*
X131200000Y-129300000D02*
X131200000Y-134087500D01*
X131200000Y-134087500D02*
X131312500Y-134200000D01*
X146759600Y-123600300D02*
X147925000Y-123600300D01*
X147925000Y-123600300D02*
X147925000Y-121650000D01*
X143300000Y-126100000D02*
X143444500Y-126244500D01*
X143444500Y-126244500D02*
X144115400Y-126244500D01*
X144115400Y-126244500D02*
X146759600Y-123600300D01*
X140800000Y-132100000D02*
X142869578Y-132100000D01*
X142869578Y-132100000D02*
X146497000Y-128472578D01*
X146497000Y-128472578D02*
X146497000Y-127460000D01*
D28*
X132200000Y-128600000D02*
X137000000Y-133400000D01*
X132200000Y-127100000D02*
X132200000Y-128600000D01*
X117296600Y-118107800D02*
X117296600Y-126396600D01*
X116600000Y-127900000D02*
X116600000Y-127093200D01*
X116600000Y-127093200D02*
X117296600Y-126396600D01*
X128257000Y-100124000D02*
X128257000Y-99131300D01*
X138494400Y-125584600D02*
X138494400Y-126368100D01*
X128257000Y-99131300D02*
X128257000Y-99018700D01*
X139150000Y-124929000D02*
X138494400Y-125584600D01*
X135200000Y-98800000D02*
X128475700Y-98800000D01*
X128475700Y-98800000D02*
X128257000Y-99018700D01*
X138494400Y-126368100D02*
X138162500Y-126700000D01*
X139150000Y-124645000D02*
X139150000Y-124929000D01*
X126357000Y-100124000D02*
X126357000Y-99018700D01*
X128257000Y-99018700D02*
X126357000Y-99018700D01*
X120287500Y-116500000D02*
X120287500Y-118087500D01*
X136437500Y-126700000D02*
X136437500Y-124162500D01*
X126961000Y-101500000D02*
X122800000Y-101500000D01*
X122800000Y-100768000D02*
X121699000Y-99667000D01*
X136437500Y-124162500D02*
X136700000Y-123900000D01*
X137915000Y-119600000D02*
X139150000Y-120835000D01*
X120287500Y-118087500D02*
X120400000Y-118200000D01*
X127307000Y-101154000D02*
X126961000Y-101500000D01*
X137700000Y-119600000D02*
X137915000Y-119600000D01*
X137700000Y-119600000D02*
X137700000Y-118185500D01*
X137700000Y-118185500D02*
X137588500Y-118074000D01*
X122800000Y-101500000D02*
X122800000Y-100768000D01*
X127307000Y-100124000D02*
X127307000Y-101154000D01*
X135433800Y-106496300D02*
X136237500Y-107300000D01*
X126357000Y-102824000D02*
X126357000Y-106165800D01*
X126687500Y-106496300D02*
X126687500Y-107300000D01*
X126357000Y-106165800D02*
X126687500Y-106496300D01*
X126687500Y-106496300D02*
X135433800Y-106496300D01*
D27*
X144546200Y-102910300D02*
X146576000Y-104940100D01*
X132477200Y-102910300D02*
X144546200Y-102910300D01*
X131287500Y-104100000D02*
X132477200Y-102910300D01*
D28*
X125084400Y-127085600D02*
X125084400Y-121536700D01*
X118860000Y-133310000D02*
X125084400Y-127085600D01*
X125084400Y-121536700D02*
X126964500Y-119656600D01*
X126964500Y-119656600D02*
X133021600Y-119656600D01*
X134200000Y-120835000D02*
X134200000Y-122105000D01*
X133021600Y-119656600D02*
X134200000Y-120835000D01*
X117900700Y-130099300D02*
X114600000Y-133400000D01*
X117900700Y-123322000D02*
X117900700Y-130099300D01*
X119776000Y-123322000D02*
X117900700Y-123322000D01*
D27*
X128666000Y-125862000D02*
X126415700Y-125862000D01*
X133358600Y-125486400D02*
X137541900Y-129669700D01*
X134200000Y-123375000D02*
X134200000Y-124645000D01*
X139100000Y-129669700D02*
X139512600Y-129669700D01*
X139512600Y-129669700D02*
X141506100Y-127676200D01*
X137541900Y-129669700D02*
X139100000Y-129669700D01*
X139100000Y-130770000D02*
X139100000Y-129669700D01*
X141506100Y-127676200D02*
X141506100Y-124230200D01*
X126415700Y-132323700D02*
X127287000Y-133195000D01*
X133358600Y-125486400D02*
X132983000Y-125862000D01*
X134200000Y-124645000D02*
X133358600Y-125486400D01*
X147586000Y-118150300D02*
X147925000Y-118150300D01*
X126415700Y-125862000D02*
X126415700Y-132323700D01*
X132983000Y-125862000D02*
X128666000Y-125862000D01*
X141506100Y-124230200D02*
X147586000Y-118150300D01*
X147925000Y-116200000D02*
X147925000Y-118150300D01*
D28*
X136129600Y-104100000D02*
X140490400Y-108460800D01*
X133112500Y-104100000D02*
X136129600Y-104100000D01*
X139100000Y-128230000D02*
X139100000Y-127504700D01*
X140490400Y-126114300D02*
X139100000Y-127504700D01*
X140490400Y-108460800D02*
X140490400Y-126114300D01*
X129173000Y-134514500D02*
X129487500Y-134200000D01*
X125590300Y-121982400D02*
X125590300Y-133340800D01*
X126790700Y-120782000D02*
X125590300Y-121982400D01*
X126764000Y-134514500D02*
X129173000Y-134514500D01*
X125590300Y-133340800D02*
X126764000Y-134514500D01*
X128666000Y-120782000D02*
X126790700Y-120782000D01*
X121342300Y-113750500D02*
X121342300Y-112206800D01*
X125191400Y-108357700D02*
X127454800Y-108357700D01*
X121651300Y-125862000D02*
X122927800Y-124585500D01*
X119776000Y-125862000D02*
X121651300Y-125862000D01*
X122927800Y-115336000D02*
X121342300Y-113750500D01*
X127454800Y-108357700D02*
X128512500Y-107300000D01*
X122927800Y-124585500D02*
X122927800Y-115336000D01*
X121342300Y-112206800D02*
X125191400Y-108357700D01*
X120508500Y-114895900D02*
X122112500Y-116500000D01*
X135477400Y-131877400D02*
X137000000Y-133400000D01*
X120342500Y-112751000D02*
X120342500Y-114730000D01*
X120508500Y-114895900D02*
X117296600Y-118107800D01*
X120342500Y-114730000D02*
X120508500Y-114895900D01*
X122167500Y-112751000D02*
X127886300Y-112751000D01*
X127886300Y-112751000D02*
X138510300Y-123375000D01*
X138510300Y-123375000D02*
X139150000Y-123375000D01*
X135863500Y-119276200D02*
X135863500Y-118074000D01*
X138692300Y-122105000D02*
X135863500Y-119276200D01*
X139150000Y-122105000D02*
X138692300Y-122105000D01*
G04 #@! TA.AperFunction,Conductor*
G36*
X135884695Y-121648568D02*
G01*
X135903316Y-121663921D01*
X137619595Y-123380200D01*
X137653621Y-123442512D01*
X137656500Y-123469295D01*
X137656500Y-123675772D01*
X137667364Y-123765547D01*
X137670344Y-123773075D01*
X137670345Y-123773077D01*
X137683960Y-123807463D01*
X137722887Y-123905783D01*
X137728079Y-123912623D01*
X137744169Y-123933821D01*
X137769422Y-124000174D01*
X137754794Y-124069647D01*
X137744169Y-124086179D01*
X137722887Y-124114217D01*
X137702101Y-124166717D01*
X137670754Y-124245892D01*
X137667364Y-124254453D01*
X137656500Y-124344228D01*
X137656500Y-124945772D01*
X137667364Y-125035547D01*
X137683582Y-125076510D01*
X137690061Y-125147209D01*
X137675551Y-125185889D01*
X137659873Y-125213044D01*
X137600858Y-125394672D01*
X137600168Y-125401233D01*
X137600168Y-125401235D01*
X137591217Y-125486400D01*
X137580896Y-125584600D01*
X137581586Y-125591165D01*
X137589881Y-125670088D01*
X137577109Y-125739926D01*
X137530874Y-125790402D01*
X137520634Y-125796739D01*
X137395969Y-125873884D01*
X137390797Y-125879065D01*
X137388727Y-125881139D01*
X137386962Y-125882105D01*
X137385059Y-125883613D01*
X137384801Y-125883287D01*
X137326446Y-125915219D01*
X137255625Y-125910218D01*
X137210530Y-125881292D01*
X137207869Y-125878636D01*
X137196460Y-125869625D01*
X137060937Y-125786088D01*
X137047759Y-125779944D01*
X136896234Y-125729685D01*
X136882868Y-125726819D01*
X136790230Y-125717328D01*
X136783815Y-125717000D01*
X136709615Y-125717000D01*
X136694376Y-125721475D01*
X136693171Y-125722865D01*
X136691500Y-125730548D01*
X136691500Y-126828000D01*
X136671498Y-126896121D01*
X136617842Y-126942614D01*
X136565500Y-126954000D01*
X136309500Y-126954000D01*
X136241379Y-126933998D01*
X136194886Y-126880342D01*
X136183500Y-126828000D01*
X136183500Y-125735115D01*
X136179025Y-125719876D01*
X136177635Y-125718671D01*
X136169952Y-125717000D01*
X136091234Y-125717000D01*
X136084718Y-125717337D01*
X135990868Y-125727075D01*
X135977472Y-125729968D01*
X135826047Y-125780488D01*
X135812885Y-125786653D01*
X135677508Y-125870426D01*
X135666110Y-125879460D01*
X135553637Y-125992129D01*
X135544626Y-126003539D01*
X135535732Y-126017967D01*
X135482959Y-126065459D01*
X135412887Y-126076881D01*
X135347764Y-126048607D01*
X135339378Y-126040944D01*
X134967029Y-125668595D01*
X134933003Y-125606283D01*
X134938068Y-125535468D01*
X134980615Y-125478632D01*
X135047135Y-125453821D01*
X135056124Y-125453500D01*
X135185772Y-125453500D01*
X135275547Y-125442636D01*
X135283075Y-125439656D01*
X135283077Y-125439655D01*
X135352168Y-125412300D01*
X135415783Y-125387113D01*
X135535922Y-125295922D01*
X135627113Y-125175783D01*
X135655273Y-125104659D01*
X135679655Y-125043077D01*
X135679656Y-125043074D01*
X135682636Y-125035547D01*
X135693500Y-124945772D01*
X135693500Y-124344228D01*
X135682636Y-124254453D01*
X135679247Y-124245892D01*
X135647899Y-124166717D01*
X135627113Y-124114217D01*
X135605831Y-124086179D01*
X135580578Y-124019826D01*
X135595206Y-123950353D01*
X135605831Y-123933821D01*
X135621921Y-123912623D01*
X135627113Y-123905783D01*
X135666040Y-123807463D01*
X135679655Y-123773077D01*
X135679656Y-123773075D01*
X135682636Y-123765547D01*
X135693500Y-123675772D01*
X135693500Y-123074228D01*
X135682636Y-122984453D01*
X135671306Y-122955835D01*
X135645622Y-122890965D01*
X135627113Y-122844217D01*
X135605831Y-122816179D01*
X135580578Y-122749826D01*
X135595206Y-122680353D01*
X135605831Y-122663821D01*
X135621921Y-122642623D01*
X135627113Y-122635783D01*
X135682636Y-122495547D01*
X135693500Y-122405772D01*
X135693500Y-121804228D01*
X135693045Y-121800463D01*
X135692404Y-121795170D01*
X135689134Y-121768153D01*
X135700806Y-121698124D01*
X135748487Y-121645522D01*
X135817038Y-121627047D01*
X135884695Y-121648568D01*
G37*
G04 #@! TD.AperFunction*
G04 #@! TA.AperFunction,Conductor*
G36*
X125769638Y-97606118D02*
G01*
X133577151Y-97619579D01*
X133645237Y-97639699D01*
X133691638Y-97693434D01*
X133701620Y-97763726D01*
X133684654Y-97810943D01*
X133584096Y-97976656D01*
X133582287Y-97980970D01*
X133582285Y-97980974D01*
X133536892Y-98089225D01*
X133492103Y-98144312D01*
X133420695Y-98166500D01*
X128554468Y-98166500D01*
X128543285Y-98165973D01*
X128535792Y-98164298D01*
X128527866Y-98164547D01*
X128527865Y-98164547D01*
X128467702Y-98166438D01*
X128463744Y-98166500D01*
X128435844Y-98166500D01*
X128431854Y-98167004D01*
X128420020Y-98167936D01*
X128375811Y-98169326D01*
X128368195Y-98171539D01*
X128368193Y-98171539D01*
X128356352Y-98174979D01*
X128336993Y-98178988D01*
X128335683Y-98179154D01*
X128316903Y-98181526D01*
X128309537Y-98184442D01*
X128309531Y-98184444D01*
X128275798Y-98197800D01*
X128264568Y-98201645D01*
X128256397Y-98204019D01*
X128222107Y-98213981D01*
X128215284Y-98218016D01*
X128204666Y-98224295D01*
X128186913Y-98232992D01*
X128179268Y-98236019D01*
X128168083Y-98240448D01*
X128161668Y-98245109D01*
X128132312Y-98266437D01*
X128122395Y-98272951D01*
X128084338Y-98295458D01*
X128070014Y-98309782D01*
X128054987Y-98322617D01*
X128038593Y-98334528D01*
X128033541Y-98340635D01*
X128027758Y-98346065D01*
X128026597Y-98344829D01*
X127975637Y-98379252D01*
X127937382Y-98385200D01*
X126428793Y-98385200D01*
X126405184Y-98382968D01*
X126404881Y-98382910D01*
X126404877Y-98382910D01*
X126397094Y-98381425D01*
X126341049Y-98384951D01*
X126333138Y-98385200D01*
X126317144Y-98385200D01*
X126301270Y-98387206D01*
X126293410Y-98387948D01*
X126265951Y-98389676D01*
X126245263Y-98390977D01*
X126245262Y-98390977D01*
X126237350Y-98391475D01*
X126229809Y-98393925D01*
X126229513Y-98394021D01*
X126206369Y-98399194D01*
X126206065Y-98399232D01*
X126206060Y-98399233D01*
X126198203Y-98400226D01*
X126190838Y-98403142D01*
X126190834Y-98403143D01*
X126145989Y-98420899D01*
X126138570Y-98423571D01*
X126085125Y-98440936D01*
X126078429Y-98445186D01*
X126078428Y-98445186D01*
X126078169Y-98445350D01*
X126057042Y-98456115D01*
X126056754Y-98456229D01*
X126056749Y-98456232D01*
X126049383Y-98459148D01*
X126042975Y-98463804D01*
X126042969Y-98463807D01*
X126003948Y-98492158D01*
X125997411Y-98496601D01*
X125949982Y-98526700D01*
X125944556Y-98532478D01*
X125944555Y-98532479D01*
X125944341Y-98532707D01*
X125926554Y-98548388D01*
X125926309Y-98548566D01*
X125926307Y-98548568D01*
X125919893Y-98553228D01*
X125914839Y-98559337D01*
X125914838Y-98559338D01*
X125884097Y-98596496D01*
X125878866Y-98602430D01*
X125845842Y-98637598D01*
X125845840Y-98637601D01*
X125840414Y-98643379D01*
X125836445Y-98650599D01*
X125823119Y-98670206D01*
X125822920Y-98670446D01*
X125822916Y-98670453D01*
X125817867Y-98676556D01*
X125814493Y-98683727D01*
X125793953Y-98727376D01*
X125790371Y-98734408D01*
X125763305Y-98783640D01*
X125761335Y-98791315D01*
X125761332Y-98791321D01*
X125761256Y-98791619D01*
X125753224Y-98813928D01*
X125753094Y-98814203D01*
X125753091Y-98814211D01*
X125749717Y-98821382D01*
X125748231Y-98829174D01*
X125739195Y-98876543D01*
X125737471Y-98884258D01*
X125734735Y-98894915D01*
X125734193Y-98897026D01*
X125697878Y-98958032D01*
X125687721Y-98966513D01*
X125668739Y-98980739D01*
X125581385Y-99097295D01*
X125530255Y-99233684D01*
X125523500Y-99295866D01*
X125523500Y-100952134D01*
X125530255Y-101014316D01*
X125581385Y-101150705D01*
X125668739Y-101267261D01*
X125785295Y-101354615D01*
X125793703Y-101357767D01*
X125801575Y-101362077D01*
X125800272Y-101364457D01*
X125845804Y-101398664D01*
X125870501Y-101465227D01*
X125855291Y-101534575D01*
X125805003Y-101584691D01*
X125797903Y-101587933D01*
X125793701Y-101590234D01*
X125785295Y-101593385D01*
X125668739Y-101680739D01*
X125581385Y-101797295D01*
X125530255Y-101933684D01*
X125523500Y-101995866D01*
X125523500Y-103652134D01*
X125530255Y-103714316D01*
X125581385Y-103850705D01*
X125668739Y-103967261D01*
X125675919Y-103972642D01*
X125682269Y-103978992D01*
X125680634Y-103980627D01*
X125715579Y-104027359D01*
X125723500Y-104071329D01*
X125723500Y-106087033D01*
X125722973Y-106098216D01*
X125721298Y-106105709D01*
X125721547Y-106113635D01*
X125721547Y-106113636D01*
X125723438Y-106173786D01*
X125723500Y-106177745D01*
X125723500Y-106205656D01*
X125723997Y-106209590D01*
X125723997Y-106209591D01*
X125724005Y-106209656D01*
X125724938Y-106221493D01*
X125726327Y-106265689D01*
X125731978Y-106285139D01*
X125735987Y-106304500D01*
X125738526Y-106324597D01*
X125741445Y-106331968D01*
X125741445Y-106331970D01*
X125754804Y-106365712D01*
X125758649Y-106376942D01*
X125766595Y-106404292D01*
X125770982Y-106419393D01*
X125775015Y-106426212D01*
X125775017Y-106426217D01*
X125781293Y-106436828D01*
X125789988Y-106454576D01*
X125797448Y-106473417D01*
X125802109Y-106479833D01*
X125802111Y-106479836D01*
X125816420Y-106499530D01*
X125840278Y-106566398D01*
X125821744Y-106639707D01*
X125770215Y-106723303D01*
X125756791Y-106745080D01*
X125702026Y-106910191D01*
X125691500Y-107012928D01*
X125691500Y-107587072D01*
X125691837Y-107590322D01*
X125691908Y-107591687D01*
X125675454Y-107660750D01*
X125624273Y-107709955D01*
X125566076Y-107724200D01*
X125270163Y-107724200D01*
X125258979Y-107723673D01*
X125251491Y-107721999D01*
X125243568Y-107722248D01*
X125183433Y-107724138D01*
X125179475Y-107724200D01*
X125151544Y-107724200D01*
X125147629Y-107724695D01*
X125147625Y-107724695D01*
X125147567Y-107724703D01*
X125147538Y-107724706D01*
X125135696Y-107725639D01*
X125091510Y-107727027D01*
X125074144Y-107732072D01*
X125072058Y-107732678D01*
X125052706Y-107736686D01*
X125040468Y-107738232D01*
X125040466Y-107738233D01*
X125032603Y-107739226D01*
X124991486Y-107755506D01*
X124980285Y-107759341D01*
X124937806Y-107771682D01*
X124930987Y-107775715D01*
X124930982Y-107775717D01*
X124920371Y-107781993D01*
X124902621Y-107790690D01*
X124883783Y-107798148D01*
X124877367Y-107802809D01*
X124877366Y-107802810D01*
X124848025Y-107824128D01*
X124838101Y-107830647D01*
X124806860Y-107849122D01*
X124806855Y-107849126D01*
X124800037Y-107853158D01*
X124785713Y-107867482D01*
X124770681Y-107880321D01*
X124754293Y-107892228D01*
X124726112Y-107926293D01*
X124718122Y-107935073D01*
X120950047Y-111703148D01*
X120941761Y-111710688D01*
X120935282Y-111714800D01*
X120899881Y-111752499D01*
X120838670Y-111788464D01*
X120768362Y-111785838D01*
X120751345Y-111780193D01*
X120751337Y-111780191D01*
X120744809Y-111778026D01*
X120642072Y-111767500D01*
X120042928Y-111767500D01*
X120039682Y-111767837D01*
X120039678Y-111767837D01*
X119945765Y-111777581D01*
X119945761Y-111777582D01*
X119938907Y-111778293D01*
X119932371Y-111780474D01*
X119932369Y-111780474D01*
X119799605Y-111824768D01*
X119773893Y-111833346D01*
X119625969Y-111924884D01*
X119620796Y-111930066D01*
X119508242Y-112042816D01*
X119508238Y-112042821D01*
X119503071Y-112047997D01*
X119499231Y-112054227D01*
X119499230Y-112054228D01*
X119419345Y-112183826D01*
X119411791Y-112196080D01*
X119357026Y-112361191D01*
X119356326Y-112368027D01*
X119356325Y-112368030D01*
X119351049Y-112419526D01*
X119346500Y-112463928D01*
X119346500Y-113038072D01*
X119357293Y-113142093D01*
X119412346Y-113307107D01*
X119503884Y-113455031D01*
X119626997Y-113577929D01*
X119633224Y-113581767D01*
X119633226Y-113581769D01*
X119649116Y-113591564D01*
X119696609Y-113644336D01*
X119709000Y-113698824D01*
X119709000Y-114651206D01*
X119708467Y-114662543D01*
X119706780Y-114670100D01*
X119707031Y-114678017D01*
X119707031Y-114678019D01*
X119708937Y-114738068D01*
X119709000Y-114742065D01*
X119709000Y-114747305D01*
X119688998Y-114815426D01*
X119672095Y-114836400D01*
X116904347Y-117604148D01*
X116896061Y-117611688D01*
X116889582Y-117615800D01*
X116884157Y-117621577D01*
X116842957Y-117665451D01*
X116840202Y-117668293D01*
X116820465Y-117688030D01*
X116817985Y-117691227D01*
X116810282Y-117700247D01*
X116780014Y-117732479D01*
X116776195Y-117739425D01*
X116776193Y-117739428D01*
X116770252Y-117750234D01*
X116759401Y-117766753D01*
X116746986Y-117782759D01*
X116743841Y-117790028D01*
X116743838Y-117790032D01*
X116729426Y-117823337D01*
X116724209Y-117833987D01*
X116702905Y-117872740D01*
X116700934Y-117880415D01*
X116700934Y-117880416D01*
X116697867Y-117892362D01*
X116691463Y-117911066D01*
X116683419Y-117929655D01*
X116682180Y-117937478D01*
X116682177Y-117937488D01*
X116676501Y-117973324D01*
X116674095Y-117984944D01*
X116663100Y-118027770D01*
X116663100Y-118048024D01*
X116661549Y-118067734D01*
X116658380Y-118087743D01*
X116659126Y-118095635D01*
X116662541Y-118131761D01*
X116663100Y-118143619D01*
X116663100Y-125266220D01*
X116643098Y-125334341D01*
X116589442Y-125380834D01*
X116519168Y-125390938D01*
X116454588Y-125361444D01*
X116425134Y-125324010D01*
X116320847Y-125121957D01*
X116320847Y-125121956D01*
X116318882Y-125118150D01*
X116309401Y-125104659D01*
X116208309Y-124960821D01*
X116157493Y-124888517D01*
X116038971Y-124760972D01*
X115969354Y-124686055D01*
X115969351Y-124686052D01*
X115966433Y-124682912D01*
X115749237Y-124505139D01*
X115509923Y-124358487D01*
X115487348Y-124348577D01*
X115256853Y-124247397D01*
X115252921Y-124245671D01*
X115233519Y-124240144D01*
X115010445Y-124176600D01*
X114982986Y-124168778D01*
X114777217Y-124139493D01*
X114709365Y-124129836D01*
X114709363Y-124129836D01*
X114705113Y-124129231D01*
X114700824Y-124129209D01*
X114700817Y-124129208D01*
X114428730Y-124127783D01*
X114428723Y-124127783D01*
X114424444Y-124127761D01*
X114420199Y-124128320D01*
X114420197Y-124128320D01*
X114356813Y-124136665D01*
X114146172Y-124164397D01*
X113875446Y-124238459D01*
X113617277Y-124348577D01*
X113558414Y-124383806D01*
X113470290Y-124436547D01*
X113401566Y-124454367D01*
X113334118Y-124432203D01*
X113289360Y-124377092D01*
X113279584Y-124328476D01*
X113271533Y-101978867D01*
X113271138Y-100883624D01*
X120847621Y-100883624D01*
X120851988Y-100889774D01*
X121051563Y-101006397D01*
X121060846Y-101010844D01*
X121279007Y-101094152D01*
X121288905Y-101097028D01*
X121517744Y-101143585D01*
X121527972Y-101144804D01*
X121761340Y-101153362D01*
X121771626Y-101152895D01*
X122003262Y-101123222D01*
X122013340Y-101121080D01*
X122237014Y-101053974D01*
X122246612Y-101050212D01*
X122456324Y-100947476D01*
X122465169Y-100942203D01*
X122537869Y-100890347D01*
X122546270Y-100879646D01*
X122539283Y-100866493D01*
X121711812Y-100039022D01*
X121697868Y-100031408D01*
X121696035Y-100031539D01*
X121689420Y-100035790D01*
X120854881Y-100870329D01*
X120847621Y-100883624D01*
X113271138Y-100883624D01*
X113270934Y-100316206D01*
X113290912Y-100248078D01*
X113344550Y-100201566D01*
X113414821Y-100191437D01*
X113471439Y-100214549D01*
X113635452Y-100334809D01*
X113643351Y-100339745D01*
X113872905Y-100460519D01*
X113881454Y-100464236D01*
X114126327Y-100549749D01*
X114135336Y-100552163D01*
X114390166Y-100600544D01*
X114399423Y-100601598D01*
X114658607Y-100611783D01*
X114667921Y-100611457D01*
X114925753Y-100583220D01*
X114934930Y-100581519D01*
X115185758Y-100515481D01*
X115194574Y-100512445D01*
X115432880Y-100410062D01*
X115441167Y-100405748D01*
X115661718Y-100269266D01*
X115669268Y-100263780D01*
X115674559Y-100259301D01*
X115682997Y-100246497D01*
X115676935Y-100236145D01*
X114329885Y-98889095D01*
X114295859Y-98826783D01*
X114300924Y-98755968D01*
X114329885Y-98710905D01*
X114510905Y-98529885D01*
X114573217Y-98495859D01*
X114644032Y-98500924D01*
X114689095Y-98529885D01*
X116036094Y-99876884D01*
X116048474Y-99883644D01*
X116056815Y-99877400D01*
X116190832Y-99669048D01*
X116195275Y-99660864D01*
X116206566Y-99635799D01*
X120211658Y-99635799D01*
X120225102Y-99868942D01*
X120226535Y-99879144D01*
X120277873Y-100106949D01*
X120280956Y-100116789D01*
X120368814Y-100333156D01*
X120373457Y-100342347D01*
X120474555Y-100507325D01*
X120485011Y-100516785D01*
X120493789Y-100513001D01*
X121326978Y-99679812D01*
X121333356Y-99668132D01*
X122063408Y-99668132D01*
X122063539Y-99669965D01*
X122067790Y-99676580D01*
X122899045Y-100507835D01*
X122911055Y-100514394D01*
X122922794Y-100505426D01*
X122971518Y-100437619D01*
X122976829Y-100428780D01*
X123080291Y-100219442D01*
X123084089Y-100209849D01*
X123151974Y-99986413D01*
X123154151Y-99976343D01*
X123184869Y-99743015D01*
X123185388Y-99736340D01*
X123187001Y-99670364D01*
X123186807Y-99663647D01*
X123167525Y-99429108D01*
X123165842Y-99418946D01*
X123108952Y-99192453D01*
X123105634Y-99182706D01*
X123012513Y-98968542D01*
X123007646Y-98959467D01*
X122922465Y-98827796D01*
X122911779Y-98818593D01*
X122902214Y-98822996D01*
X122071022Y-99654188D01*
X122063408Y-99668132D01*
X121333356Y-99668132D01*
X121334592Y-99665868D01*
X121334461Y-99664035D01*
X121330210Y-99657420D01*
X120498892Y-98826102D01*
X120487356Y-98819802D01*
X120475073Y-98829426D01*
X120408036Y-98927698D01*
X120402943Y-98936662D01*
X120304619Y-99148483D01*
X120301062Y-99158151D01*
X120238657Y-99383178D01*
X120236726Y-99393298D01*
X120211910Y-99625510D01*
X120211658Y-99635799D01*
X116206566Y-99635799D01*
X116301807Y-99424370D01*
X116304997Y-99415605D01*
X116375402Y-99165972D01*
X116377262Y-99156830D01*
X116410187Y-98898019D01*
X116410668Y-98891733D01*
X116412987Y-98803160D01*
X116412836Y-98796851D01*
X116393501Y-98536663D01*
X116392125Y-98527457D01*
X116375535Y-98454142D01*
X120850938Y-98454142D01*
X120857684Y-98466474D01*
X121686188Y-99294978D01*
X121700132Y-99302592D01*
X121701965Y-99302461D01*
X121708580Y-99298210D01*
X122541391Y-98465399D01*
X122548412Y-98452543D01*
X122540639Y-98441875D01*
X122526548Y-98430746D01*
X122517970Y-98425047D01*
X122313526Y-98312189D01*
X122304126Y-98307964D01*
X122083993Y-98230011D01*
X122074036Y-98227381D01*
X121844129Y-98186427D01*
X121833878Y-98185458D01*
X121600367Y-98182605D01*
X121590083Y-98183325D01*
X121359253Y-98218647D01*
X121349225Y-98221036D01*
X121127263Y-98293584D01*
X121117753Y-98297581D01*
X120910624Y-98405405D01*
X120901904Y-98410897D01*
X120859391Y-98442817D01*
X120850938Y-98454142D01*
X116375535Y-98454142D01*
X116334878Y-98274467D01*
X116332154Y-98265556D01*
X116238143Y-98023806D01*
X116234132Y-98015397D01*
X116105424Y-97790204D01*
X116102646Y-97786086D01*
X116081138Y-97718426D01*
X116099624Y-97649878D01*
X116152235Y-97602207D01*
X116207323Y-97589631D01*
X125769638Y-97606118D01*
G37*
G04 #@! TD.AperFunction*
G04 #@! TA.AperFunction,Conductor*
G36*
X120483621Y-116266002D02*
G01*
X120530114Y-116319658D01*
X120541500Y-116372000D01*
X120541500Y-117464885D01*
X120545975Y-117480124D01*
X120547365Y-117481329D01*
X120555048Y-117483000D01*
X120583766Y-117483000D01*
X120590282Y-117482663D01*
X120684132Y-117472925D01*
X120697528Y-117470032D01*
X120848953Y-117419512D01*
X120862115Y-117413347D01*
X120997492Y-117329574D01*
X121008890Y-117320540D01*
X121110393Y-117218860D01*
X121172676Y-117184781D01*
X121243496Y-117189784D01*
X121288583Y-117218704D01*
X121396997Y-117326929D01*
X121403227Y-117330769D01*
X121403228Y-117330770D01*
X121478597Y-117377228D01*
X121545080Y-117418209D01*
X121710191Y-117472974D01*
X121717027Y-117473674D01*
X121717030Y-117473675D01*
X121764370Y-117478525D01*
X121812928Y-117483500D01*
X122168300Y-117483500D01*
X122236421Y-117503502D01*
X122282914Y-117557158D01*
X122294300Y-117609500D01*
X122294300Y-124270905D01*
X122274298Y-124339026D01*
X122257395Y-124360001D01*
X121890296Y-124727099D01*
X121827984Y-124761124D01*
X121757168Y-124756059D01*
X121700376Y-124713569D01*
X121694644Y-124705921D01*
X121694642Y-124705919D01*
X121689261Y-124698739D01*
X121681372Y-124692826D01*
X121680845Y-124692122D01*
X121675731Y-124687008D01*
X121676469Y-124686270D01*
X121638857Y-124635969D01*
X121633830Y-124565151D01*
X121667888Y-124502857D01*
X121681367Y-124491177D01*
X121689261Y-124485261D01*
X121776615Y-124368705D01*
X121827745Y-124232316D01*
X121834500Y-124170134D01*
X121834500Y-122473866D01*
X121827745Y-122411684D01*
X121776615Y-122275295D01*
X121689261Y-122158739D01*
X121681372Y-122152826D01*
X121680845Y-122152122D01*
X121675731Y-122147008D01*
X121676469Y-122146270D01*
X121638857Y-122095969D01*
X121633830Y-122025151D01*
X121667888Y-121962857D01*
X121681367Y-121951177D01*
X121689261Y-121945261D01*
X121776615Y-121828705D01*
X121827745Y-121692316D01*
X121834500Y-121630134D01*
X121834500Y-119933866D01*
X121827745Y-119871684D01*
X121776615Y-119735295D01*
X121689261Y-119618739D01*
X121572705Y-119531385D01*
X121436316Y-119480255D01*
X121374134Y-119473500D01*
X118177866Y-119473500D01*
X118115684Y-119480255D01*
X118100330Y-119486011D01*
X118029523Y-119491194D01*
X117967154Y-119457273D01*
X117933024Y-119395018D01*
X117930100Y-119368029D01*
X117930100Y-118422394D01*
X117950102Y-118354273D01*
X117967005Y-118333299D01*
X119201946Y-117098358D01*
X119264258Y-117064332D01*
X119335073Y-117069397D01*
X119391909Y-117111944D01*
X119398186Y-117121151D01*
X119445427Y-117197493D01*
X119454460Y-117208890D01*
X119567129Y-117321363D01*
X119578540Y-117330375D01*
X119714063Y-117413912D01*
X119727241Y-117420056D01*
X119878766Y-117470315D01*
X119892132Y-117473181D01*
X119984770Y-117482672D01*
X119991185Y-117483000D01*
X120015385Y-117483000D01*
X120030624Y-117478525D01*
X120031829Y-117477135D01*
X120033500Y-117469452D01*
X120033500Y-116372000D01*
X120053502Y-116303879D01*
X120107158Y-116257386D01*
X120159500Y-116246000D01*
X120415500Y-116246000D01*
X120483621Y-116266002D01*
G37*
G04 #@! TD.AperFunction*
G04 #@! TA.AperFunction,Conductor*
G36*
X138158621Y-107066002D02*
G01*
X138205114Y-107119658D01*
X138216500Y-107172000D01*
X138216500Y-108264885D01*
X138220975Y-108280124D01*
X138222365Y-108281329D01*
X138230048Y-108283000D01*
X138308766Y-108283000D01*
X138315282Y-108282663D01*
X138409132Y-108272925D01*
X138422528Y-108270032D01*
X138573953Y-108219512D01*
X138587115Y-108213347D01*
X138722492Y-108129574D01*
X138733890Y-108120540D01*
X138846363Y-108007871D01*
X138855377Y-107996457D01*
X138876519Y-107962158D01*
X138929290Y-107914664D01*
X138999362Y-107903240D01*
X139064486Y-107931513D01*
X139072874Y-107939178D01*
X139819995Y-108686299D01*
X139854021Y-108748611D01*
X139856900Y-108775394D01*
X139856900Y-119901000D01*
X139836898Y-119969121D01*
X139783242Y-120015614D01*
X139730900Y-120027000D01*
X139422115Y-120027000D01*
X139406876Y-120031475D01*
X139405671Y-120032865D01*
X139404000Y-120040548D01*
X139404000Y-120963000D01*
X139383998Y-121031121D01*
X139330342Y-121077614D01*
X139278000Y-121089000D01*
X139022000Y-121089000D01*
X138953879Y-121068998D01*
X138907386Y-121015342D01*
X138896000Y-120963000D01*
X138896000Y-120045115D01*
X138891525Y-120029876D01*
X138890135Y-120028671D01*
X138882452Y-120027000D01*
X138168057Y-120027000D01*
X138160502Y-120027456D01*
X138082612Y-120036881D01*
X138067047Y-120040834D01*
X137942451Y-120090165D01*
X137927624Y-120098520D01*
X137818537Y-120181323D01*
X137752183Y-120206577D01*
X137682710Y-120191949D01*
X137653261Y-120170056D01*
X136590141Y-119106936D01*
X136556115Y-119044624D01*
X136561180Y-118973809D01*
X136603727Y-118916973D01*
X136612931Y-118910698D01*
X136616788Y-118908311D01*
X136630031Y-118900116D01*
X136637274Y-118892861D01*
X136639038Y-118891895D01*
X136640941Y-118890387D01*
X136641199Y-118890713D01*
X136699554Y-118858781D01*
X136770375Y-118863782D01*
X136815470Y-118892708D01*
X136818131Y-118895364D01*
X136829540Y-118904375D01*
X136965063Y-118987912D01*
X136978241Y-118994056D01*
X137129766Y-119044315D01*
X137143132Y-119047181D01*
X137235770Y-119056672D01*
X137242185Y-119057000D01*
X137316385Y-119057000D01*
X137331624Y-119052525D01*
X137332829Y-119051135D01*
X137334500Y-119043452D01*
X137334500Y-119038885D01*
X137842500Y-119038885D01*
X137846975Y-119054124D01*
X137848365Y-119055329D01*
X137856048Y-119057000D01*
X137934766Y-119057000D01*
X137941282Y-119056663D01*
X138035132Y-119046925D01*
X138048528Y-119044032D01*
X138199953Y-118993512D01*
X138213115Y-118987347D01*
X138348492Y-118903574D01*
X138359890Y-118894540D01*
X138472363Y-118781871D01*
X138481375Y-118770460D01*
X138564912Y-118634937D01*
X138571056Y-118621759D01*
X138621315Y-118470234D01*
X138624181Y-118456868D01*
X138633672Y-118364230D01*
X138634000Y-118357815D01*
X138634000Y-118346115D01*
X138629525Y-118330876D01*
X138628135Y-118329671D01*
X138620452Y-118328000D01*
X137860615Y-118328000D01*
X137845376Y-118332475D01*
X137844171Y-118333865D01*
X137842500Y-118341548D01*
X137842500Y-119038885D01*
X137334500Y-119038885D01*
X137334500Y-117801885D01*
X137842500Y-117801885D01*
X137846975Y-117817124D01*
X137848365Y-117818329D01*
X137856048Y-117820000D01*
X138615885Y-117820000D01*
X138631124Y-117815525D01*
X138632329Y-117814135D01*
X138634000Y-117806452D01*
X138634000Y-117790234D01*
X138633663Y-117783718D01*
X138623925Y-117689868D01*
X138621032Y-117676472D01*
X138570512Y-117525047D01*
X138564347Y-117511885D01*
X138480574Y-117376508D01*
X138471540Y-117365110D01*
X138358871Y-117252637D01*
X138347460Y-117243625D01*
X138211937Y-117160088D01*
X138198759Y-117153944D01*
X138047234Y-117103685D01*
X138033868Y-117100819D01*
X137941230Y-117091328D01*
X137934815Y-117091000D01*
X137860615Y-117091000D01*
X137845376Y-117095475D01*
X137844171Y-117096865D01*
X137842500Y-117104548D01*
X137842500Y-117801885D01*
X137334500Y-117801885D01*
X137334500Y-117109115D01*
X137330025Y-117093876D01*
X137328635Y-117092671D01*
X137320952Y-117091000D01*
X137242234Y-117091000D01*
X137235718Y-117091337D01*
X137141868Y-117101075D01*
X137128472Y-117103968D01*
X136977047Y-117154488D01*
X136963885Y-117160653D01*
X136828508Y-117244426D01*
X136817106Y-117253464D01*
X136815433Y-117255139D01*
X136814007Y-117255919D01*
X136811373Y-117258007D01*
X136811016Y-117257556D01*
X136753151Y-117289219D01*
X136682331Y-117284216D01*
X136637246Y-117255299D01*
X136634185Y-117252244D01*
X136629003Y-117247071D01*
X136622772Y-117243230D01*
X136487150Y-117159631D01*
X136487148Y-117159630D01*
X136480920Y-117155791D01*
X136315809Y-117101026D01*
X136308973Y-117100326D01*
X136308970Y-117100325D01*
X136257474Y-117095049D01*
X136213072Y-117090500D01*
X135513928Y-117090500D01*
X135510682Y-117090837D01*
X135510678Y-117090837D01*
X135416765Y-117100581D01*
X135416761Y-117100582D01*
X135409907Y-117101293D01*
X135403371Y-117103474D01*
X135403369Y-117103474D01*
X135350385Y-117121151D01*
X135244893Y-117156346D01*
X135096969Y-117247884D01*
X135091796Y-117253066D01*
X134979242Y-117365816D01*
X134979238Y-117365821D01*
X134974071Y-117370997D01*
X134970231Y-117377227D01*
X134970230Y-117377228D01*
X134907790Y-117478525D01*
X134882791Y-117519080D01*
X134828026Y-117684191D01*
X134817500Y-117786928D01*
X134817500Y-118361072D01*
X134817837Y-118364318D01*
X134817837Y-118364322D01*
X134823863Y-118422394D01*
X134828293Y-118465093D01*
X134830381Y-118471351D01*
X134825216Y-118542047D01*
X134782583Y-118598817D01*
X134716025Y-118623527D01*
X134646674Y-118608329D01*
X134618133Y-118586929D01*
X131575057Y-115543852D01*
X128389952Y-112358747D01*
X128382412Y-112350461D01*
X128378300Y-112343982D01*
X128328648Y-112297356D01*
X128325807Y-112294602D01*
X128306070Y-112274865D01*
X128302873Y-112272385D01*
X128293851Y-112264680D01*
X128282362Y-112253891D01*
X128261621Y-112234414D01*
X128254675Y-112230595D01*
X128254672Y-112230593D01*
X128243866Y-112224652D01*
X128227347Y-112213801D01*
X128226883Y-112213441D01*
X128211341Y-112201386D01*
X128204072Y-112198241D01*
X128204068Y-112198238D01*
X128170763Y-112183826D01*
X128160113Y-112178609D01*
X128121360Y-112157305D01*
X128101737Y-112152267D01*
X128083034Y-112145863D01*
X128071720Y-112140967D01*
X128071719Y-112140967D01*
X128064445Y-112137819D01*
X128056622Y-112136580D01*
X128056612Y-112136577D01*
X128020776Y-112130901D01*
X128009156Y-112128495D01*
X127974011Y-112119472D01*
X127974010Y-112119472D01*
X127966330Y-112117500D01*
X127946076Y-112117500D01*
X127926365Y-112115949D01*
X127914186Y-112114020D01*
X127906357Y-112112780D01*
X127898465Y-112113526D01*
X127862339Y-112116941D01*
X127850481Y-112117500D01*
X123119964Y-112117500D01*
X123051843Y-112097498D01*
X123012821Y-112057804D01*
X123006116Y-112046969D01*
X123000934Y-112041796D01*
X122888184Y-111929242D01*
X122888179Y-111929238D01*
X122883003Y-111924071D01*
X122876772Y-111920230D01*
X122794699Y-111869639D01*
X122747205Y-111816866D01*
X122735783Y-111746795D01*
X122764057Y-111681671D01*
X122771720Y-111673284D01*
X125416899Y-109028105D01*
X125479211Y-108994079D01*
X125505994Y-108991200D01*
X127376033Y-108991200D01*
X127387216Y-108991727D01*
X127394709Y-108993402D01*
X127402635Y-108993153D01*
X127402636Y-108993153D01*
X127462786Y-108991262D01*
X127466745Y-108991200D01*
X127494656Y-108991200D01*
X127498591Y-108990703D01*
X127498656Y-108990695D01*
X127510493Y-108989762D01*
X127542751Y-108988748D01*
X127546770Y-108988622D01*
X127554689Y-108988373D01*
X127574143Y-108982721D01*
X127593500Y-108978713D01*
X127605730Y-108977168D01*
X127605731Y-108977168D01*
X127613597Y-108976174D01*
X127620968Y-108973255D01*
X127620970Y-108973255D01*
X127654712Y-108959896D01*
X127665942Y-108956051D01*
X127700783Y-108945929D01*
X127700784Y-108945929D01*
X127708393Y-108943718D01*
X127715212Y-108939685D01*
X127715217Y-108939683D01*
X127725828Y-108933407D01*
X127743576Y-108924712D01*
X127762417Y-108917252D01*
X127798187Y-108891264D01*
X127808107Y-108884748D01*
X127839335Y-108866280D01*
X127839338Y-108866278D01*
X127846162Y-108862242D01*
X127860483Y-108847921D01*
X127875517Y-108835080D01*
X127885494Y-108827831D01*
X127891907Y-108823172D01*
X127920098Y-108789095D01*
X127928088Y-108780316D01*
X128387999Y-108320405D01*
X128450311Y-108286379D01*
X128477094Y-108283500D01*
X128812072Y-108283500D01*
X128815318Y-108283163D01*
X128815322Y-108283163D01*
X128909235Y-108273419D01*
X128909239Y-108273418D01*
X128916093Y-108272707D01*
X128922629Y-108270526D01*
X128922631Y-108270526D01*
X129055395Y-108226232D01*
X129081107Y-108217654D01*
X129229031Y-108126116D01*
X129238743Y-108116387D01*
X129346758Y-108008184D01*
X129346762Y-108008179D01*
X129351929Y-108003003D01*
X129377106Y-107962158D01*
X129439369Y-107861150D01*
X129439370Y-107861148D01*
X129443209Y-107854920D01*
X129497974Y-107689809D01*
X129508500Y-107587072D01*
X129508500Y-107255800D01*
X129528502Y-107187679D01*
X129582158Y-107141186D01*
X129634500Y-107129800D01*
X135065500Y-107129800D01*
X135133621Y-107149802D01*
X135180114Y-107203458D01*
X135191500Y-107255800D01*
X135191500Y-107587072D01*
X135191837Y-107590318D01*
X135191837Y-107590322D01*
X135199145Y-107660750D01*
X135202293Y-107691093D01*
X135204474Y-107697629D01*
X135204474Y-107697631D01*
X135237036Y-107795231D01*
X135257346Y-107856107D01*
X135348884Y-108004031D01*
X135354066Y-108009204D01*
X135466816Y-108121758D01*
X135466821Y-108121762D01*
X135471997Y-108126929D01*
X135478227Y-108130769D01*
X135478228Y-108130770D01*
X135602232Y-108207207D01*
X135620080Y-108218209D01*
X135785191Y-108272974D01*
X135792027Y-108273674D01*
X135792030Y-108273675D01*
X135839370Y-108278525D01*
X135887928Y-108283500D01*
X136587072Y-108283500D01*
X136590318Y-108283163D01*
X136590322Y-108283163D01*
X136684235Y-108273419D01*
X136684239Y-108273418D01*
X136691093Y-108272707D01*
X136697629Y-108270526D01*
X136697631Y-108270526D01*
X136830395Y-108226232D01*
X136856107Y-108217654D01*
X137004031Y-108126116D01*
X137011274Y-108118861D01*
X137013038Y-108117895D01*
X137014941Y-108116387D01*
X137015199Y-108116713D01*
X137073554Y-108084781D01*
X137144375Y-108089782D01*
X137189470Y-108118708D01*
X137192131Y-108121364D01*
X137203540Y-108130375D01*
X137339063Y-108213912D01*
X137352241Y-108220056D01*
X137503766Y-108270315D01*
X137517132Y-108273181D01*
X137609770Y-108282672D01*
X137616185Y-108283000D01*
X137690385Y-108283000D01*
X137705624Y-108278525D01*
X137706829Y-108277135D01*
X137708500Y-108269452D01*
X137708500Y-107172000D01*
X137728502Y-107103879D01*
X137782158Y-107057386D01*
X137834500Y-107046000D01*
X138090500Y-107046000D01*
X138158621Y-107066002D01*
G37*
G04 #@! TD.AperFunction*
G04 #@! TA.AperFunction,Conductor*
G36*
X127353295Y-100919182D02*
G01*
X127409302Y-100962814D01*
X127429454Y-101006940D01*
X127430255Y-101014316D01*
X127481385Y-101150705D01*
X127486771Y-101157891D01*
X127535826Y-101223345D01*
X127560674Y-101289851D01*
X127561000Y-101298910D01*
X127561000Y-101393884D01*
X127565475Y-101409123D01*
X127566867Y-101410329D01*
X127578560Y-101412873D01*
X127640873Y-101446898D01*
X127674898Y-101509210D01*
X127669833Y-101580026D01*
X127627342Y-101636818D01*
X127568739Y-101680739D01*
X127481385Y-101797295D01*
X127430255Y-101933684D01*
X127429461Y-101940990D01*
X127394365Y-102002424D01*
X127331410Y-102035244D01*
X127260705Y-102028818D01*
X127204698Y-101985186D01*
X127184546Y-101941060D01*
X127183745Y-101933684D01*
X127132615Y-101797295D01*
X127045261Y-101680739D01*
X126985986Y-101636315D01*
X126943471Y-101579456D01*
X126938445Y-101508638D01*
X126972505Y-101446344D01*
X127026053Y-101414593D01*
X127050124Y-101407525D01*
X127051329Y-101406135D01*
X127053000Y-101398452D01*
X127053000Y-101298910D01*
X127073002Y-101230789D01*
X127078174Y-101223345D01*
X127127229Y-101157891D01*
X127132615Y-101150705D01*
X127183745Y-101014316D01*
X127184539Y-101007010D01*
X127219635Y-100945576D01*
X127282590Y-100912756D01*
X127353295Y-100919182D01*
G37*
G04 #@! TD.AperFunction*
M02*
