M48
; DRILL file {KiCad 5.1.7-a382d34a8~88~ubuntu18.04.1} date Mon Aug  9 13:16:50 2021
; FORMAT={3:3/ absolute / metric / suppress leading zeros}
; #@! TF.CreationDate,2021-08-09T13:16:50+05:30
; #@! TF.GenerationSoftware,Kicad,Pcbnew,5.1.7-a382d34a8~88~ubuntu18.04.1
FMAT,2
METRIC,TZ
T1C0.600
T2C0.813
T3C1.000
T4C1.300
T5C1.500
T6C2.500
%
G90
G05
T1
X127787Y-129553
X129932Y-117231
X130752Y-132118
X134129Y-111198
X136736Y-129022
T2
X110934Y-99019
X110934Y-123019
X113474Y-99019
X116014Y-99019
X116014Y-123019
T3
X111201Y-128090
X116281Y-128100
X123311Y-94800
X125851Y-94800
X128391Y-94800
X130931Y-94800
X133471Y-94800
X136011Y-94800
T4
X146375Y-127831
X146375Y-132831
X146459Y-95677
X146459Y-100677
X121699Y-99667
X127287Y-133195
X133383Y-133195
X138971Y-99667
T5
X146515Y-108500
X146515Y-113950
X146515Y-119400
T6
X116500Y-132400
T0
M30
