G04 #@! TF.GenerationSoftware,KiCad,Pcbnew,5.1.7-a382d34a8~88~ubuntu18.04.1*
G04 #@! TF.CreationDate,2021-08-09T13:16:33+05:30*
G04 #@! TF.ProjectId,BackEnd_HeavyDevice_v3,4261636b-456e-4645-9f48-656176794465,rev?*
G04 #@! TF.SameCoordinates,Original*
G04 #@! TF.FileFunction,OtherDrawing,Comment*
%FSLAX46Y46*%
G04 Gerber Fmt 4.6, Leading zero omitted, Abs format (unit mm)*
G04 Created by KiCad (PCBNEW 5.1.7-a382d34a8~88~ubuntu18.04.1) date 2021-08-09 13:16:33*
%MOMM*%
%LPD*%
G01*
G04 APERTURE LIST*
%ADD10C,0.150000*%
%ADD11C,0.200000*%
%ADD12C,0.300000*%
%ADD13C,0.050000*%
G04 APERTURE END LIST*
D10*
X159653245Y-117933514D02*
X160319910Y-117934577D01*
X159271913Y-118171002D02*
X159985818Y-118410235D01*
X159986805Y-117791188D01*
X159320595Y-117504412D02*
X159321582Y-116885365D01*
X159702002Y-117219305D01*
X159702230Y-117076448D01*
X159750001Y-116981286D01*
X159797695Y-116933743D01*
X159893009Y-116886276D01*
X160131104Y-116886655D01*
X160226266Y-116934426D01*
X160273809Y-116982121D01*
X160321277Y-117077435D01*
X160320821Y-117363149D01*
X160273050Y-117458311D01*
X160225356Y-117505854D01*
X160227025Y-116458236D02*
X160274720Y-116410693D01*
X160322263Y-116458388D01*
X160274568Y-116505931D01*
X160227025Y-116458236D01*
X160322263Y-116458388D01*
X159323327Y-115790128D02*
X159323479Y-115694890D01*
X159371250Y-115599728D01*
X159418945Y-115552185D01*
X159514259Y-115504718D01*
X159704810Y-115457403D01*
X159942905Y-115457782D01*
X160133305Y-115505705D01*
X160228468Y-115553475D01*
X160276011Y-115601170D01*
X160323478Y-115696484D01*
X160323326Y-115791722D01*
X160275555Y-115886884D01*
X160227860Y-115934427D01*
X160132546Y-115981895D01*
X159941995Y-116029210D01*
X159703900Y-116028830D01*
X159513500Y-115980908D01*
X159418338Y-115933137D01*
X159370794Y-115885442D01*
X159323327Y-115790128D01*
X159419704Y-115075995D02*
X159372161Y-115028300D01*
X159324694Y-114932986D01*
X159325073Y-114694892D01*
X159372844Y-114599729D01*
X159420539Y-114552186D01*
X159515853Y-114504719D01*
X159611091Y-114504871D01*
X159753872Y-114552718D01*
X160324389Y-115125056D01*
X160325375Y-114506010D01*
X159326819Y-113599655D02*
X159326060Y-114075845D01*
X159802174Y-114124223D01*
X159754631Y-114076528D01*
X159707163Y-113981214D01*
X159707543Y-113743119D01*
X159755314Y-113647957D01*
X159803009Y-113600414D01*
X159898323Y-113552947D01*
X160136417Y-113553326D01*
X160231580Y-113601097D01*
X160279123Y-113648792D01*
X160326590Y-113744106D01*
X160326210Y-113982201D01*
X160278440Y-114077363D01*
X160230745Y-114124906D01*
X160328791Y-112363155D02*
X159662125Y-112362092D01*
X159757363Y-112362244D02*
X159709820Y-112314549D01*
X159662353Y-112219235D01*
X159662581Y-112076379D01*
X159710351Y-111981216D01*
X159805665Y-111933749D01*
X160329474Y-111934584D01*
X159805665Y-111933749D02*
X159710503Y-111885978D01*
X159663036Y-111790665D01*
X159663264Y-111647808D01*
X159711034Y-111552646D01*
X159806348Y-111505178D01*
X160330157Y-111506013D01*
X160330916Y-111029823D02*
X159664250Y-111028761D01*
X159759488Y-111028913D02*
X159711945Y-110981218D01*
X159664478Y-110885904D01*
X159664706Y-110743047D01*
X159712477Y-110647885D01*
X159807791Y-110600418D01*
X160331599Y-110601253D01*
X159807791Y-110600418D02*
X159712628Y-110552647D01*
X159665161Y-110457333D01*
X159665389Y-110314476D01*
X159713160Y-110219314D01*
X159808474Y-110171847D01*
X160332282Y-110172682D01*
X158539087Y-135777652D02*
X158607667Y-92752592D01*
X154127200Y-135770620D02*
X159125507Y-135778587D01*
X154195780Y-92745560D02*
X159194087Y-92753527D01*
X158607667Y-92752592D02*
X159192291Y-93880029D01*
X158607667Y-92752592D02*
X158019451Y-93878160D01*
X158539087Y-135777652D02*
X159127303Y-134652084D01*
X158539087Y-135777652D02*
X157954463Y-134650215D01*
X125991213Y-144777813D02*
X125990521Y-145444479D01*
X125753514Y-144396614D02*
X125514677Y-145110652D01*
X126133724Y-145111295D01*
X126943594Y-144778802D02*
X126942901Y-145445468D01*
X126705894Y-144397603D02*
X126467057Y-145111641D01*
X127086105Y-145112284D01*
X127466810Y-145350774D02*
X127514379Y-145398443D01*
X127466711Y-145446012D01*
X127419141Y-145398344D01*
X127466810Y-145350774D01*
X127466711Y-145446012D01*
X128134415Y-144446705D02*
X128229654Y-144446804D01*
X128324842Y-144494522D01*
X128372412Y-144542191D01*
X128419932Y-144637478D01*
X128467353Y-144828004D01*
X128467106Y-145066099D01*
X128419289Y-145256525D01*
X128371571Y-145351714D01*
X128323903Y-145399284D01*
X128228615Y-145446804D01*
X128133377Y-145446705D01*
X128038188Y-145398987D01*
X127990619Y-145351318D01*
X127943099Y-145256031D01*
X127895678Y-145065505D01*
X127895925Y-144827410D01*
X127943742Y-144636984D01*
X127991460Y-144541795D01*
X128039128Y-144494225D01*
X128134415Y-144446705D01*
X128848602Y-144542685D02*
X128896270Y-144495116D01*
X128991558Y-144447595D01*
X129229653Y-144447843D01*
X129324842Y-144495561D01*
X129372411Y-144543229D01*
X129419931Y-144638517D01*
X129419832Y-144733755D01*
X129372065Y-144876562D01*
X128800043Y-145447397D01*
X129419091Y-145448040D01*
X130277271Y-144448931D02*
X130086795Y-144448733D01*
X129991508Y-144496253D01*
X129943839Y-144543823D01*
X129848453Y-144686581D01*
X129800636Y-144877007D01*
X129800241Y-145257959D01*
X129847761Y-145353247D01*
X129895330Y-145400915D01*
X129990519Y-145448633D01*
X130180995Y-145448831D01*
X130276282Y-145401311D01*
X130323951Y-145353741D01*
X130371669Y-145258553D01*
X130371916Y-145020458D01*
X130324396Y-144925170D01*
X130276826Y-144877502D01*
X130181638Y-144829784D01*
X129991162Y-144829586D01*
X129895874Y-144877106D01*
X129848206Y-144924676D01*
X129800488Y-145019864D01*
X131561947Y-145450265D02*
X131562639Y-144783599D01*
X131562540Y-144878837D02*
X131610208Y-144831267D01*
X131705496Y-144783747D01*
X131848353Y-144783896D01*
X131943542Y-144831614D01*
X131991062Y-144926901D01*
X131990518Y-145450710D01*
X131991062Y-144926901D02*
X132038780Y-144831712D01*
X132134067Y-144784192D01*
X132276924Y-144784341D01*
X132372113Y-144832059D01*
X132419633Y-144927346D01*
X132419089Y-145451155D01*
X132895279Y-145451650D02*
X132895972Y-144784984D01*
X132895873Y-144880222D02*
X132943541Y-144832652D01*
X133038829Y-144785132D01*
X133181686Y-144785280D01*
X133276874Y-144832998D01*
X133324394Y-144928286D01*
X133323850Y-145452095D01*
X133324394Y-144928286D02*
X133372112Y-144833097D01*
X133467400Y-144785577D01*
X133610257Y-144785725D01*
X133705445Y-144833443D01*
X133752966Y-144928731D01*
X133752422Y-145452540D01*
X107643396Y-146273046D02*
X151669216Y-146318766D01*
X107642660Y-146982180D02*
X107644005Y-145686626D01*
X151668480Y-147027900D02*
X151669825Y-145732346D01*
X151669216Y-146318766D02*
X150542104Y-146904017D01*
X151669216Y-146318766D02*
X150543322Y-145731176D01*
X107643396Y-146273046D02*
X108769290Y-146860636D01*
X107643396Y-146273046D02*
X108770508Y-145687795D01*
D11*
X123083011Y-108700395D02*
X123130630Y-108843252D01*
X123178249Y-108890871D01*
X123273487Y-108938490D01*
X123416344Y-108938490D01*
X123511582Y-108890871D01*
X123559201Y-108843252D01*
X123606820Y-108748014D01*
X123606820Y-108367061D01*
X122606820Y-108367061D01*
X122606820Y-108700395D01*
X122654440Y-108795633D01*
X122702059Y-108843252D01*
X122797297Y-108890871D01*
X122892535Y-108890871D01*
X122987773Y-108843252D01*
X123035392Y-108795633D01*
X123083011Y-108700395D01*
X123083011Y-108367061D01*
X123606820Y-109795633D02*
X123083011Y-109795633D01*
X122987773Y-109748014D01*
X122940154Y-109652776D01*
X122940154Y-109462300D01*
X122987773Y-109367061D01*
X123559201Y-109795633D02*
X123606820Y-109700395D01*
X123606820Y-109462300D01*
X123559201Y-109367061D01*
X123463963Y-109319442D01*
X123368725Y-109319442D01*
X123273487Y-109367061D01*
X123225868Y-109462300D01*
X123225868Y-109700395D01*
X123178249Y-109795633D01*
X123559201Y-110700395D02*
X123606820Y-110605157D01*
X123606820Y-110414680D01*
X123559201Y-110319442D01*
X123511582Y-110271823D01*
X123416344Y-110224204D01*
X123130630Y-110224204D01*
X123035392Y-110271823D01*
X122987773Y-110319442D01*
X122940154Y-110414680D01*
X122940154Y-110605157D01*
X122987773Y-110700395D01*
X123606820Y-111128966D02*
X122606820Y-111128966D01*
X123225868Y-111224204D02*
X123606820Y-111509919D01*
X122940154Y-111509919D02*
X123321106Y-111128966D01*
X123083011Y-111938490D02*
X123083011Y-112271823D01*
X123606820Y-112414680D02*
X123606820Y-111938490D01*
X122606820Y-111938490D01*
X122606820Y-112414680D01*
X122940154Y-112843252D02*
X123606820Y-112843252D01*
X123035392Y-112843252D02*
X122987773Y-112890871D01*
X122940154Y-112986109D01*
X122940154Y-113128966D01*
X122987773Y-113224204D01*
X123083011Y-113271823D01*
X123606820Y-113271823D01*
X123606820Y-114176585D02*
X122606820Y-114176585D01*
X123559201Y-114176585D02*
X123606820Y-114081347D01*
X123606820Y-113890871D01*
X123559201Y-113795633D01*
X123511582Y-113748014D01*
X123416344Y-113700395D01*
X123130630Y-113700395D01*
X123035392Y-113748014D01*
X122987773Y-113795633D01*
X122940154Y-113890871D01*
X122940154Y-114081347D01*
X122987773Y-114176585D01*
X123702059Y-114414680D02*
X123702059Y-115176585D01*
X123606820Y-115414680D02*
X122606820Y-115414680D01*
X123083011Y-115414680D02*
X123083011Y-115986109D01*
X123606820Y-115986109D02*
X122606820Y-115986109D01*
X123559201Y-116843252D02*
X123606820Y-116748014D01*
X123606820Y-116557538D01*
X123559201Y-116462300D01*
X123463963Y-116414680D01*
X123083011Y-116414680D01*
X122987773Y-116462300D01*
X122940154Y-116557538D01*
X122940154Y-116748014D01*
X122987773Y-116843252D01*
X123083011Y-116890871D01*
X123178249Y-116890871D01*
X123273487Y-116414680D01*
X123606820Y-117748014D02*
X123083011Y-117748014D01*
X122987773Y-117700395D01*
X122940154Y-117605157D01*
X122940154Y-117414680D01*
X122987773Y-117319442D01*
X123559201Y-117748014D02*
X123606820Y-117652776D01*
X123606820Y-117414680D01*
X123559201Y-117319442D01*
X123463963Y-117271823D01*
X123368725Y-117271823D01*
X123273487Y-117319442D01*
X123225868Y-117414680D01*
X123225868Y-117652776D01*
X123178249Y-117748014D01*
X122940154Y-118128966D02*
X123606820Y-118367061D01*
X122940154Y-118605157D01*
X122940154Y-118890871D02*
X123606820Y-119128966D01*
X122940154Y-119367061D02*
X123606820Y-119128966D01*
X123844916Y-119033728D01*
X123892535Y-118986109D01*
X123940154Y-118890871D01*
X123606820Y-119748014D02*
X122606820Y-119748014D01*
X122606820Y-119986109D01*
X122654440Y-120128966D01*
X122749678Y-120224204D01*
X122844916Y-120271823D01*
X123035392Y-120319442D01*
X123178249Y-120319442D01*
X123368725Y-120271823D01*
X123463963Y-120224204D01*
X123559201Y-120128966D01*
X123606820Y-119986109D01*
X123606820Y-119748014D01*
X123559201Y-121128966D02*
X123606820Y-121033728D01*
X123606820Y-120843252D01*
X123559201Y-120748014D01*
X123463963Y-120700395D01*
X123083011Y-120700395D01*
X122987773Y-120748014D01*
X122940154Y-120843252D01*
X122940154Y-121033728D01*
X122987773Y-121128966D01*
X123083011Y-121176585D01*
X123178249Y-121176585D01*
X123273487Y-120700395D01*
X122940154Y-121509919D02*
X123606820Y-121748014D01*
X122940154Y-121986109D01*
X123606820Y-122367061D02*
X122940154Y-122367061D01*
X122606820Y-122367061D02*
X122654440Y-122319442D01*
X122702059Y-122367061D01*
X122654440Y-122414680D01*
X122606820Y-122367061D01*
X122702059Y-122367061D01*
X123559201Y-123271823D02*
X123606820Y-123176585D01*
X123606820Y-122986109D01*
X123559201Y-122890871D01*
X123511582Y-122843252D01*
X123416344Y-122795633D01*
X123130630Y-122795633D01*
X123035392Y-122843252D01*
X122987773Y-122890871D01*
X122940154Y-122986109D01*
X122940154Y-123176585D01*
X122987773Y-123271823D01*
X123559201Y-124081347D02*
X123606820Y-123986109D01*
X123606820Y-123795633D01*
X123559201Y-123700395D01*
X123463963Y-123652776D01*
X123083011Y-123652776D01*
X122987773Y-123700395D01*
X122940154Y-123795633D01*
X122940154Y-123986109D01*
X122987773Y-124081347D01*
X123083011Y-124128966D01*
X123178249Y-124128966D01*
X123273487Y-123652776D01*
X123702059Y-124319442D02*
X123702059Y-125081347D01*
X122940154Y-125224204D02*
X123606820Y-125462300D01*
X122940154Y-125700395D01*
X122606820Y-125986109D02*
X122606820Y-126605157D01*
X122987773Y-126271823D01*
X122987773Y-126414680D01*
X123035392Y-126509919D01*
X123083011Y-126557538D01*
X123178249Y-126605157D01*
X123416344Y-126605157D01*
X123511582Y-126557538D01*
X123559201Y-126509919D01*
X123606820Y-126414680D01*
X123606820Y-126128966D01*
X123559201Y-126033728D01*
X123511582Y-125986109D01*
D12*
X121509041Y-104639425D02*
X119509041Y-104639425D01*
X120461422Y-104639425D02*
X120461422Y-105667997D01*
X121509041Y-105667997D02*
X119509041Y-105667997D01*
X120175708Y-107296568D02*
X121509041Y-107296568D01*
X120175708Y-106525140D02*
X121223327Y-106525140D01*
X121413803Y-106610854D01*
X121509041Y-106782282D01*
X121509041Y-107039425D01*
X121413803Y-107210854D01*
X121318565Y-107296568D01*
X121509041Y-108153711D02*
X119509041Y-108153711D01*
X120747137Y-108325140D02*
X121509041Y-108839425D01*
X120175708Y-108839425D02*
X120937613Y-108153711D01*
X121509041Y-110382282D02*
X120461422Y-110382282D01*
X120270946Y-110296568D01*
X120175708Y-110125140D01*
X120175708Y-109782282D01*
X120270946Y-109610854D01*
X121413803Y-110382282D02*
X121509041Y-110210854D01*
X121509041Y-109782282D01*
X121413803Y-109610854D01*
X121223327Y-109525140D01*
X121032851Y-109525140D01*
X120842375Y-109610854D01*
X120747137Y-109782282D01*
X120747137Y-110210854D01*
X120651899Y-110382282D01*
X121509041Y-111239425D02*
X120175708Y-111239425D01*
X120366184Y-111239425D02*
X120270946Y-111325140D01*
X120175708Y-111496568D01*
X120175708Y-111753711D01*
X120270946Y-111925140D01*
X120461422Y-112010854D01*
X121509041Y-112010854D01*
X120461422Y-112010854D02*
X120270946Y-112096568D01*
X120175708Y-112267997D01*
X120175708Y-112525140D01*
X120270946Y-112696568D01*
X120461422Y-112782282D01*
X121509041Y-112782282D01*
X119509041Y-114753711D02*
X119509041Y-115782282D01*
X121509041Y-115267997D02*
X119509041Y-115267997D01*
X121413803Y-117067997D02*
X121509041Y-116896568D01*
X121509041Y-116553711D01*
X121413803Y-116382282D01*
X121223327Y-116296568D01*
X120461422Y-116296568D01*
X120270946Y-116382282D01*
X120175708Y-116553711D01*
X120175708Y-116896568D01*
X120270946Y-117067997D01*
X120461422Y-117153711D01*
X120651899Y-117153711D01*
X120842375Y-116296568D01*
X121509041Y-117925140D02*
X119509041Y-117925140D01*
X121509041Y-118696568D02*
X120461422Y-118696568D01*
X120270946Y-118610854D01*
X120175708Y-118439425D01*
X120175708Y-118182282D01*
X120270946Y-118010854D01*
X120366184Y-117925140D01*
X120175708Y-119553711D02*
X121509041Y-119553711D01*
X120366184Y-119553711D02*
X120270946Y-119639425D01*
X120175708Y-119810854D01*
X120175708Y-120067997D01*
X120270946Y-120239425D01*
X120461422Y-120325140D01*
X121509041Y-120325140D01*
X121509041Y-121439425D02*
X121413803Y-121267997D01*
X121318565Y-121182282D01*
X121128089Y-121096568D01*
X120556660Y-121096568D01*
X120366184Y-121182282D01*
X120270946Y-121267997D01*
X120175708Y-121439425D01*
X120175708Y-121696568D01*
X120270946Y-121867997D01*
X120366184Y-121953711D01*
X120556660Y-122039425D01*
X121128089Y-122039425D01*
X121318565Y-121953711D01*
X121413803Y-121867997D01*
X121509041Y-121696568D01*
X121509041Y-121439425D01*
X121509041Y-123067997D02*
X121413803Y-122896568D01*
X121223327Y-122810854D01*
X119509041Y-122810854D01*
X121509041Y-124010854D02*
X121413803Y-123839425D01*
X121318565Y-123753711D01*
X121128089Y-123667997D01*
X120556660Y-123667997D01*
X120366184Y-123753711D01*
X120270946Y-123839425D01*
X120175708Y-124010854D01*
X120175708Y-124267997D01*
X120270946Y-124439425D01*
X120366184Y-124525140D01*
X120556660Y-124610854D01*
X121128089Y-124610854D01*
X121318565Y-124525140D01*
X121413803Y-124439425D01*
X121509041Y-124267997D01*
X121509041Y-124010854D01*
X120175708Y-126153711D02*
X121794756Y-126153711D01*
X121985232Y-126067997D01*
X122080470Y-125982282D01*
X122175708Y-125810854D01*
X122175708Y-125553711D01*
X122080470Y-125382282D01*
X121413803Y-126153711D02*
X121509041Y-125982282D01*
X121509041Y-125639425D01*
X121413803Y-125467997D01*
X121318565Y-125382282D01*
X121128089Y-125296568D01*
X120556660Y-125296568D01*
X120366184Y-125382282D01*
X120270946Y-125467997D01*
X120175708Y-125639425D01*
X120175708Y-125982282D01*
X120270946Y-126153711D01*
X121509041Y-127010854D02*
X120175708Y-127010854D01*
X119509041Y-127010854D02*
X119604280Y-126925140D01*
X119699518Y-127010854D01*
X119604280Y-127096568D01*
X119509041Y-127010854D01*
X119699518Y-127010854D01*
X121413803Y-128553711D02*
X121509041Y-128382282D01*
X121509041Y-128039425D01*
X121413803Y-127867997D01*
X121223327Y-127782282D01*
X120461422Y-127782282D01*
X120270946Y-127867997D01*
X120175708Y-128039425D01*
X120175708Y-128382282D01*
X120270946Y-128553711D01*
X120461422Y-128639425D01*
X120651899Y-128639425D01*
X120842375Y-127782282D01*
X121413803Y-129325140D02*
X121509041Y-129496568D01*
X121509041Y-129839425D01*
X121413803Y-130010854D01*
X121223327Y-130096568D01*
X121128089Y-130096568D01*
X120937613Y-130010854D01*
X120842375Y-129839425D01*
X120842375Y-129582282D01*
X120747137Y-129410854D01*
X120556660Y-129325140D01*
X120461422Y-129325140D01*
X120270946Y-129410854D01*
X120175708Y-129582282D01*
X120175708Y-129839425D01*
X120270946Y-130010854D01*
D13*
X116500000Y-133670000D02*
X116500000Y-131130000D01*
X115230000Y-132400000D02*
X117770000Y-132400000D01*
M02*
