G04 #@! TF.GenerationSoftware,KiCad,Pcbnew,5.1.7-a382d34a8~88~ubuntu18.04.1*
G04 #@! TF.CreationDate,2021-11-20T10:26:25+05:30*
G04 #@! TF.ProjectId,BackEnd_switch_Normal_v1,4261636b-456e-4645-9f73-77697463685f,rev?*
G04 #@! TF.SameCoordinates,Original*
G04 #@! TF.FileFunction,OtherDrawing,Comment*
%FSLAX46Y46*%
G04 Gerber Fmt 4.6, Leading zero omitted, Abs format (unit mm)*
G04 Created by KiCad (PCBNEW 5.1.7-a382d34a8~88~ubuntu18.04.1) date 2021-11-20 10:26:25*
%MOMM*%
%LPD*%
G01*
G04 APERTURE LIST*
%ADD10C,0.150000*%
%ADD11C,0.080000*%
%ADD12C,0.050000*%
G04 APERTURE END LIST*
D10*
X127648689Y-143598769D02*
X128267736Y-143599056D01*
X127934226Y-143979854D01*
X128077083Y-143979920D01*
X128172299Y-144027583D01*
X128219896Y-144075224D01*
X128267471Y-144170485D01*
X128267361Y-144408580D01*
X128219698Y-144503796D01*
X128172056Y-144551393D01*
X128076796Y-144598968D01*
X127791082Y-144598835D01*
X127695866Y-144551172D01*
X127648269Y-144503531D01*
X128838966Y-144027893D02*
X128743750Y-143980229D01*
X128696153Y-143932588D01*
X128648578Y-143837328D01*
X128648600Y-143789709D01*
X128696264Y-143694493D01*
X128743905Y-143646896D01*
X128839165Y-143599321D01*
X129029641Y-143599410D01*
X129124857Y-143647073D01*
X129172454Y-143694714D01*
X129220029Y-143789974D01*
X129220007Y-143837593D01*
X129172344Y-143932809D01*
X129124702Y-143980406D01*
X129029442Y-144027981D01*
X128838966Y-144027893D01*
X128743706Y-144075468D01*
X128696065Y-144123064D01*
X128648402Y-144218280D01*
X128648313Y-144408757D01*
X128695888Y-144504017D01*
X128743485Y-144551658D01*
X128838701Y-144599321D01*
X129029177Y-144599410D01*
X129124437Y-144551835D01*
X129172078Y-144504238D01*
X129219742Y-144409022D01*
X129219830Y-144218546D01*
X129172255Y-144123285D01*
X129124658Y-144075644D01*
X129029442Y-144027981D01*
X129648269Y-144504459D02*
X129695866Y-144552100D01*
X129648225Y-144599697D01*
X129600628Y-144552056D01*
X129648269Y-144504459D01*
X129648225Y-144599697D01*
X130029641Y-143599874D02*
X130648689Y-143600161D01*
X130315178Y-143980959D01*
X130458036Y-143981025D01*
X130553252Y-144028688D01*
X130600849Y-144076329D01*
X130648423Y-144171590D01*
X130648313Y-144409685D01*
X130600650Y-144504901D01*
X130553009Y-144552498D01*
X130457748Y-144600073D01*
X130172034Y-144599940D01*
X130076818Y-144552277D01*
X130029221Y-144504636D01*
X131600605Y-144600603D02*
X131029177Y-144600338D01*
X131314891Y-144600470D02*
X131315355Y-143600470D01*
X131220051Y-143743283D01*
X131124769Y-143838477D01*
X131029508Y-143886052D01*
X131934403Y-143600758D02*
X132553450Y-143601045D01*
X132219940Y-143981843D01*
X132362797Y-143981909D01*
X132458013Y-144029572D01*
X132505610Y-144077213D01*
X132553185Y-144172473D01*
X132553075Y-144410569D01*
X132505411Y-144505785D01*
X132457770Y-144553382D01*
X132362510Y-144600956D01*
X132076796Y-144600824D01*
X131981580Y-144553161D01*
X131933983Y-144505520D01*
X133743462Y-144601597D02*
X133743772Y-143934931D01*
X133743727Y-144030169D02*
X133791369Y-143982572D01*
X133886629Y-143934997D01*
X134029486Y-143935063D01*
X134124702Y-143982727D01*
X134172277Y-144077987D01*
X134172034Y-144601796D01*
X134172277Y-144077987D02*
X134219940Y-143982771D01*
X134315200Y-143935196D01*
X134458057Y-143935262D01*
X134553273Y-143982925D01*
X134600848Y-144078186D01*
X134600605Y-144601995D01*
X135076795Y-144602216D02*
X135077105Y-143935550D01*
X135077061Y-144030788D02*
X135124702Y-143983191D01*
X135219962Y-143935616D01*
X135362819Y-143935682D01*
X135458035Y-143983345D01*
X135505610Y-144078606D01*
X135505367Y-144602415D01*
X135505610Y-144078606D02*
X135553273Y-143983390D01*
X135648533Y-143935815D01*
X135791390Y-143935881D01*
X135886606Y-143983544D01*
X135934181Y-144078804D01*
X135933938Y-144602614D01*
X150996194Y-142857223D02*
X112682834Y-142839443D01*
X150997920Y-139138660D02*
X150995922Y-143443643D01*
X112684560Y-139120880D02*
X112682562Y-143425863D01*
X112682834Y-142839443D02*
X113809610Y-142253545D01*
X112682834Y-142839443D02*
X113809065Y-143426386D01*
X150996194Y-142857223D02*
X149869963Y-142270280D01*
X150996194Y-142857223D02*
X149869418Y-143443121D01*
X156475870Y-121020613D02*
X156476452Y-120401566D01*
X156857091Y-120735257D01*
X156857225Y-120592400D01*
X156904934Y-120497207D01*
X156952597Y-120449632D01*
X157047880Y-120402103D01*
X157285975Y-120402327D01*
X157381169Y-120450035D01*
X157428743Y-120497699D01*
X157476272Y-120592982D01*
X157476004Y-120878696D01*
X157428295Y-120973889D01*
X157380631Y-121021464D01*
X156476765Y-120068232D02*
X156477392Y-119401566D01*
X157476989Y-119831077D01*
X157382512Y-119021464D02*
X157430176Y-118973890D01*
X157477750Y-119021554D01*
X157430086Y-119069128D01*
X157382512Y-119021464D01*
X157477750Y-119021554D01*
X156906904Y-118401969D02*
X156859195Y-118497163D01*
X156811531Y-118544737D01*
X156716248Y-118592266D01*
X156668629Y-118592222D01*
X156573436Y-118544513D01*
X156525862Y-118496849D01*
X156478332Y-118401567D01*
X156478511Y-118211090D01*
X156526220Y-118115897D01*
X156573884Y-118068323D01*
X156669167Y-118020793D01*
X156716786Y-118020838D01*
X156811979Y-118068547D01*
X156859553Y-118116211D01*
X156907083Y-118211493D01*
X156906904Y-118401969D01*
X156954433Y-118497252D01*
X157002007Y-118544916D01*
X157097201Y-118592625D01*
X157287677Y-118592804D01*
X157382959Y-118545274D01*
X157430623Y-118497700D01*
X157478332Y-118402507D01*
X157478511Y-118212031D01*
X157430981Y-118116748D01*
X157383407Y-118069084D01*
X157288214Y-118021375D01*
X157097738Y-118021196D01*
X157002455Y-118068726D01*
X156954791Y-118116300D01*
X156907083Y-118211493D01*
X156574287Y-117639752D02*
X156526712Y-117592088D01*
X156479183Y-117496805D01*
X156479407Y-117258710D01*
X156527115Y-117163517D01*
X156574779Y-117115942D01*
X156670062Y-117068413D01*
X156765300Y-117068502D01*
X156908112Y-117116256D01*
X157479003Y-117688221D01*
X157479585Y-117069174D01*
X156479899Y-116734901D02*
X156480481Y-116115853D01*
X156861120Y-116449545D01*
X156861254Y-116306688D01*
X156908963Y-116211494D01*
X156956627Y-116163920D01*
X157051910Y-116116390D01*
X157290005Y-116116614D01*
X157385198Y-116164323D01*
X157432772Y-116211987D01*
X157480302Y-116307270D01*
X157480033Y-116592984D01*
X157432325Y-116688177D01*
X157384661Y-116735751D01*
X157481600Y-114926318D02*
X156814934Y-114925691D01*
X156910172Y-114925781D02*
X156862597Y-114878117D01*
X156815068Y-114782834D01*
X156815202Y-114639977D01*
X156862911Y-114544784D01*
X156958194Y-114497254D01*
X157482003Y-114497747D01*
X156958194Y-114497254D02*
X156863000Y-114449545D01*
X156815471Y-114354263D01*
X156815605Y-114211406D01*
X156863314Y-114116212D01*
X156958597Y-114068683D01*
X157482406Y-114069175D01*
X157482854Y-113592985D02*
X156816187Y-113592358D01*
X156911425Y-113592448D02*
X156863851Y-113544784D01*
X156816322Y-113449501D01*
X156816456Y-113306644D01*
X156864164Y-113211451D01*
X156959447Y-113163921D01*
X157483257Y-113164414D01*
X156959447Y-113163921D02*
X156864254Y-113116213D01*
X156816724Y-113020930D01*
X156816859Y-112878073D01*
X156864567Y-112782880D01*
X156959850Y-112735350D01*
X157483659Y-112735843D01*
X155709650Y-135741002D02*
X155745210Y-97917862D01*
X154792680Y-135740140D02*
X156296070Y-135741553D01*
X154828240Y-97917000D02*
X156331630Y-97918413D01*
X155745210Y-97917862D02*
X156330571Y-99044917D01*
X155745210Y-97917862D02*
X155157730Y-99043814D01*
X155709650Y-135741002D02*
X156297130Y-134615050D01*
X155709650Y-135741002D02*
X155124289Y-134613947D01*
D11*
X113280814Y-109056808D02*
X113147480Y-109056808D01*
X113090338Y-109266332D02*
X113280814Y-109266332D01*
X113280814Y-108866332D01*
X113090338Y-108866332D01*
X113187475Y-111319972D02*
X113111284Y-111319972D01*
X113073189Y-111339020D01*
X113035094Y-111377115D01*
X113016046Y-111453305D01*
X113016046Y-111586639D01*
X113035094Y-111662829D01*
X113073189Y-111700924D01*
X113111284Y-111719972D01*
X113187475Y-111719972D01*
X113225570Y-111700924D01*
X113263665Y-111662829D01*
X113282713Y-111586639D01*
X113282713Y-111453305D01*
X113263665Y-111377115D01*
X113225570Y-111339020D01*
X113187475Y-111319972D01*
X113330973Y-113913312D02*
X113197640Y-114313312D01*
X113064306Y-113913312D01*
X113309385Y-106356807D02*
X113290338Y-106337760D01*
X113252242Y-106318712D01*
X113157004Y-106318712D01*
X113118909Y-106337760D01*
X113099861Y-106356807D01*
X113080814Y-106394902D01*
X113080814Y-106432998D01*
X113099861Y-106490140D01*
X113328433Y-106718712D01*
X113080814Y-106718712D01*
X113052238Y-116479980D02*
X113090333Y-116460932D01*
X113147476Y-116460932D01*
X113204619Y-116479980D01*
X113242714Y-116518075D01*
X113261761Y-116556170D01*
X113280809Y-116632360D01*
X113280809Y-116689503D01*
X113261761Y-116765694D01*
X113242714Y-116803789D01*
X113204619Y-116841884D01*
X113147476Y-116860932D01*
X113109380Y-116860932D01*
X113052238Y-116841884D01*
X113033190Y-116822837D01*
X113033190Y-116689503D01*
X113109380Y-116689503D01*
X113052874Y-104293012D02*
X113281445Y-104293012D01*
X113167160Y-104293012D02*
X113167160Y-103893012D01*
X113205255Y-103950155D01*
X113243350Y-103988250D01*
X113281445Y-104007298D01*
D12*
X117409000Y-102078000D02*
X117409000Y-99538000D01*
X116139000Y-100808000D02*
X118679000Y-100808000D01*
M02*
