G04 #@! TF.GenerationSoftware,KiCad,Pcbnew,5.1.7-a382d34a8~88~ubuntu18.04.1*
G04 #@! TF.CreationDate,2021-11-20T10:26:26+05:30*
G04 #@! TF.ProjectId,BackEnd_switch_Normal_v1,4261636b-456e-4645-9f73-77697463685f,rev?*
G04 #@! TF.SameCoordinates,Original*
G04 #@! TF.FileFunction,Other,Fab,Top*
%FSLAX46Y46*%
G04 Gerber Fmt 4.6, Leading zero omitted, Abs format (unit mm)*
G04 Created by KiCad (PCBNEW 5.1.7-a382d34a8~88~ubuntu18.04.1) date 2021-11-20 10:26:26*
%MOMM*%
%LPD*%
G01*
G04 APERTURE LIST*
%ADD10C,0.400000*%
%ADD11C,0.127000*%
%ADD12C,0.100000*%
G04 APERTURE END LIST*
D10*
X140695000Y-98905000D02*
G75*
G03*
X140695000Y-98905000I-200000J0D01*
G01*
D11*
X119429000Y-134973000D02*
X119429000Y-98309000D01*
X141241000Y-134973000D02*
X119429000Y-134973000D01*
X141257000Y-98309000D02*
X141241000Y-134973000D01*
X119429000Y-98309000D02*
X141257000Y-98309000D01*
D12*
X148083000Y-100922000D02*
G75*
G03*
X148083000Y-100922000I-1500000J0D01*
G01*
X148083000Y-106002000D02*
G75*
G03*
X148083000Y-106002000I-1500000J0D01*
G01*
X150767000Y-98382000D02*
X150767000Y-108542000D01*
X150767000Y-108542000D02*
X141983000Y-108542000D01*
X141983000Y-108542000D02*
X141983000Y-98882000D01*
X141983000Y-98882000D02*
X142483000Y-98382000D01*
X142483000Y-98382000D02*
X150767000Y-98382000D01*
X142483000Y-98382000D02*
X142483000Y-108542000D01*
X143983000Y-98382000D02*
X143983000Y-108542000D01*
X148883000Y-98382000D02*
X148883000Y-108542000D01*
X147538000Y-102060000D02*
X145445000Y-99967000D01*
X147721000Y-101877000D02*
X145628000Y-99784000D01*
X147538000Y-107140000D02*
X145445000Y-105048000D01*
X147721000Y-106957000D02*
X145628000Y-104865000D01*
X147635000Y-133415000D02*
X145542000Y-131323000D01*
X147452000Y-133598000D02*
X145359000Y-131506000D01*
X147635000Y-128415000D02*
X145542000Y-126322000D01*
X147452000Y-128598000D02*
X145359000Y-126505000D01*
X148797000Y-124960000D02*
X148797000Y-134960000D01*
X143897000Y-124960000D02*
X143897000Y-134960000D01*
X142397000Y-124960000D02*
X142397000Y-134960000D01*
X142397000Y-124960000D02*
X150307000Y-124960000D01*
X141897000Y-125460000D02*
X142397000Y-124960000D01*
X141897000Y-134960000D02*
X141897000Y-125460000D01*
X150307000Y-134960000D02*
X141897000Y-134960000D01*
X150307000Y-124960000D02*
X150307000Y-134960000D01*
X147997000Y-132460000D02*
G75*
G03*
X147997000Y-132460000I-1500000J0D01*
G01*
X147997000Y-127460000D02*
G75*
G03*
X147997000Y-127460000I-1500000J0D01*
G01*
M02*
