G04 #@! TF.GenerationSoftware,KiCad,Pcbnew,5.1.7-a382d34a8~88~ubuntu18.04.1*
G04 #@! TF.CreationDate,2021-11-20T10:26:25+05:30*
G04 #@! TF.ProjectId,BackEnd_switch_Normal_v1,4261636b-456e-4645-9f73-77697463685f,rev?*
G04 #@! TF.SameCoordinates,Original*
G04 #@! TF.FileFunction,Legend,Bot*
G04 #@! TF.FilePolarity,Positive*
%FSLAX46Y46*%
G04 Gerber Fmt 4.6, Leading zero omitted, Abs format (unit mm)*
G04 Created by KiCad (PCBNEW 5.1.7-a382d34a8~88~ubuntu18.04.1) date 2021-11-20 10:26:25*
%MOMM*%
%LPD*%
G01*
G04 APERTURE LIST*
%ADD10C,0.100000*%
%ADD11C,0.150000*%
%ADD12C,0.127000*%
%ADD13C,0.200000*%
%ADD14C,0.120000*%
%ADD15C,0.300000*%
G04 APERTURE END LIST*
D10*
X143729717Y-108601197D02*
X143767812Y-108715482D01*
X143805907Y-108753578D01*
X143882098Y-108791673D01*
X143996383Y-108791673D01*
X144072574Y-108753578D01*
X144110669Y-108715482D01*
X144148764Y-108639292D01*
X144148764Y-108334530D01*
X143348764Y-108334530D01*
X143348764Y-108601197D01*
X143386860Y-108677387D01*
X143424955Y-108715482D01*
X143501145Y-108753578D01*
X143577336Y-108753578D01*
X143653526Y-108715482D01*
X143691621Y-108677387D01*
X143729717Y-108601197D01*
X143729717Y-108334530D01*
X144148764Y-109477387D02*
X143729717Y-109477387D01*
X143653526Y-109439292D01*
X143615431Y-109363101D01*
X143615431Y-109210720D01*
X143653526Y-109134530D01*
X144110669Y-109477387D02*
X144148764Y-109401197D01*
X144148764Y-109210720D01*
X144110669Y-109134530D01*
X144034479Y-109096435D01*
X143958288Y-109096435D01*
X143882098Y-109134530D01*
X143844002Y-109210720D01*
X143844002Y-109401197D01*
X143805907Y-109477387D01*
X144110669Y-110201197D02*
X144148764Y-110125006D01*
X144148764Y-109972625D01*
X144110669Y-109896435D01*
X144072574Y-109858340D01*
X143996383Y-109820244D01*
X143767812Y-109820244D01*
X143691621Y-109858340D01*
X143653526Y-109896435D01*
X143615431Y-109972625D01*
X143615431Y-110125006D01*
X143653526Y-110201197D01*
X144148764Y-110544054D02*
X143348764Y-110544054D01*
X143844002Y-110620244D02*
X144148764Y-110848816D01*
X143615431Y-110848816D02*
X143920193Y-110544054D01*
X143729717Y-111191673D02*
X143729717Y-111458339D01*
X144148764Y-111572625D02*
X144148764Y-111191673D01*
X143348764Y-111191673D01*
X143348764Y-111572625D01*
X143615431Y-111915482D02*
X144148764Y-111915482D01*
X143691621Y-111915482D02*
X143653526Y-111953578D01*
X143615431Y-112029768D01*
X143615431Y-112144054D01*
X143653526Y-112220244D01*
X143729717Y-112258340D01*
X144148764Y-112258340D01*
X144148764Y-112982149D02*
X143348764Y-112982149D01*
X144110669Y-112982149D02*
X144148764Y-112905959D01*
X144148764Y-112753578D01*
X144110669Y-112677387D01*
X144072574Y-112639292D01*
X143996383Y-112601197D01*
X143767812Y-112601197D01*
X143691621Y-112639292D01*
X143653526Y-112677387D01*
X143615431Y-112753578D01*
X143615431Y-112905959D01*
X143653526Y-112982149D01*
X144224955Y-113172625D02*
X144224955Y-113782149D01*
X144110669Y-113934530D02*
X144148764Y-114010720D01*
X144148764Y-114163101D01*
X144110669Y-114239292D01*
X144034479Y-114277387D01*
X143996383Y-114277387D01*
X143920193Y-114239292D01*
X143882098Y-114163101D01*
X143882098Y-114048816D01*
X143844002Y-113972625D01*
X143767812Y-113934530D01*
X143729717Y-113934530D01*
X143653526Y-113972625D01*
X143615431Y-114048816D01*
X143615431Y-114163101D01*
X143653526Y-114239292D01*
X143615431Y-114544054D02*
X144148764Y-114696435D01*
X143767812Y-114848816D01*
X144148764Y-115001197D01*
X143615431Y-115153578D01*
X144148764Y-115458340D02*
X143615431Y-115458340D01*
X143348764Y-115458340D02*
X143386860Y-115420244D01*
X143424955Y-115458340D01*
X143386860Y-115496435D01*
X143348764Y-115458340D01*
X143424955Y-115458340D01*
X143615431Y-115725006D02*
X143615431Y-116029768D01*
X143348764Y-115839292D02*
X144034479Y-115839292D01*
X144110669Y-115877387D01*
X144148764Y-115953578D01*
X144148764Y-116029768D01*
X144110669Y-116639292D02*
X144148764Y-116563101D01*
X144148764Y-116410720D01*
X144110669Y-116334530D01*
X144072574Y-116296435D01*
X143996383Y-116258340D01*
X143767812Y-116258340D01*
X143691621Y-116296435D01*
X143653526Y-116334530D01*
X143615431Y-116410720D01*
X143615431Y-116563101D01*
X143653526Y-116639292D01*
X144148764Y-116982149D02*
X143348764Y-116982149D01*
X144148764Y-117325006D02*
X143729717Y-117325006D01*
X143653526Y-117286911D01*
X143615431Y-117210720D01*
X143615431Y-117096435D01*
X143653526Y-117020244D01*
X143691621Y-116982149D01*
X144224955Y-117515482D02*
X144224955Y-118125006D01*
X144148764Y-118315482D02*
X143348764Y-118315482D01*
X144148764Y-118772625D01*
X143348764Y-118772625D01*
X144148764Y-119267863D02*
X144110669Y-119191673D01*
X144072574Y-119153578D01*
X143996383Y-119115482D01*
X143767812Y-119115482D01*
X143691621Y-119153578D01*
X143653526Y-119191673D01*
X143615431Y-119267863D01*
X143615431Y-119382149D01*
X143653526Y-119458339D01*
X143691621Y-119496435D01*
X143767812Y-119534530D01*
X143996383Y-119534530D01*
X144072574Y-119496435D01*
X144110669Y-119458339D01*
X144148764Y-119382149D01*
X144148764Y-119267863D01*
X144148764Y-119877387D02*
X143615431Y-119877387D01*
X143767812Y-119877387D02*
X143691621Y-119915482D01*
X143653526Y-119953578D01*
X143615431Y-120029768D01*
X143615431Y-120105959D01*
X144148764Y-120372625D02*
X143615431Y-120372625D01*
X143691621Y-120372625D02*
X143653526Y-120410720D01*
X143615431Y-120486911D01*
X143615431Y-120601197D01*
X143653526Y-120677387D01*
X143729717Y-120715482D01*
X144148764Y-120715482D01*
X143729717Y-120715482D02*
X143653526Y-120753578D01*
X143615431Y-120829768D01*
X143615431Y-120944054D01*
X143653526Y-121020244D01*
X143729717Y-121058339D01*
X144148764Y-121058339D01*
X144148764Y-121782149D02*
X143729717Y-121782149D01*
X143653526Y-121744054D01*
X143615431Y-121667863D01*
X143615431Y-121515482D01*
X143653526Y-121439292D01*
X144110669Y-121782149D02*
X144148764Y-121705959D01*
X144148764Y-121515482D01*
X144110669Y-121439292D01*
X144034479Y-121401197D01*
X143958288Y-121401197D01*
X143882098Y-121439292D01*
X143844002Y-121515482D01*
X143844002Y-121705959D01*
X143805907Y-121782149D01*
X144148764Y-122277387D02*
X144110669Y-122201197D01*
X144034479Y-122163101D01*
X143348764Y-122163101D01*
X144224955Y-122391673D02*
X144224955Y-123001197D01*
X143615431Y-123115482D02*
X144148764Y-123305959D01*
X143615431Y-123496435D01*
X144148764Y-124220244D02*
X144148764Y-123763101D01*
X144148764Y-123991673D02*
X143348764Y-123991673D01*
X143463050Y-123915482D01*
X143539240Y-123839292D01*
X143577336Y-123763101D01*
D11*
X142913491Y-109345340D02*
X141413491Y-109345340D01*
X142127777Y-109345340D02*
X142127777Y-109916769D01*
X142913491Y-109916769D02*
X141413491Y-109916769D01*
X141913491Y-110821531D02*
X142913491Y-110821531D01*
X141913491Y-110392960D02*
X142699205Y-110392960D01*
X142842062Y-110440579D01*
X142913491Y-110535817D01*
X142913491Y-110678674D01*
X142842062Y-110773912D01*
X142770634Y-110821531D01*
X142913491Y-111297721D02*
X141413491Y-111297721D01*
X142342062Y-111392960D02*
X142913491Y-111678674D01*
X141913491Y-111678674D02*
X142484920Y-111297721D01*
X142913491Y-112535817D02*
X142127777Y-112535817D01*
X141984920Y-112488198D01*
X141913491Y-112392960D01*
X141913491Y-112202483D01*
X141984920Y-112107245D01*
X142842062Y-112535817D02*
X142913491Y-112440579D01*
X142913491Y-112202483D01*
X142842062Y-112107245D01*
X142699205Y-112059626D01*
X142556348Y-112059626D01*
X142413491Y-112107245D01*
X142342062Y-112202483D01*
X142342062Y-112440579D01*
X142270634Y-112535817D01*
X142913491Y-113012007D02*
X141913491Y-113012007D01*
X142056348Y-113012007D02*
X141984920Y-113059626D01*
X141913491Y-113154864D01*
X141913491Y-113297721D01*
X141984920Y-113392960D01*
X142127777Y-113440579D01*
X142913491Y-113440579D01*
X142127777Y-113440579D02*
X141984920Y-113488198D01*
X141913491Y-113583436D01*
X141913491Y-113726293D01*
X141984920Y-113821531D01*
X142127777Y-113869150D01*
X142913491Y-113869150D01*
X141413491Y-114964388D02*
X141413491Y-115535817D01*
X142913491Y-115250102D02*
X141413491Y-115250102D01*
X142842062Y-116250102D02*
X142913491Y-116154864D01*
X142913491Y-115964388D01*
X142842062Y-115869150D01*
X142699205Y-115821531D01*
X142127777Y-115821531D01*
X141984920Y-115869150D01*
X141913491Y-115964388D01*
X141913491Y-116154864D01*
X141984920Y-116250102D01*
X142127777Y-116297721D01*
X142270634Y-116297721D01*
X142413491Y-115821531D01*
X142913491Y-116726293D02*
X141413491Y-116726293D01*
X142913491Y-117154864D02*
X142127777Y-117154864D01*
X141984920Y-117107245D01*
X141913491Y-117012007D01*
X141913491Y-116869150D01*
X141984920Y-116773912D01*
X142056348Y-116726293D01*
X141913491Y-117631055D02*
X142913491Y-117631055D01*
X142056348Y-117631055D02*
X141984920Y-117678674D01*
X141913491Y-117773912D01*
X141913491Y-117916769D01*
X141984920Y-118012007D01*
X142127777Y-118059626D01*
X142913491Y-118059626D01*
X142913491Y-118678674D02*
X142842062Y-118583436D01*
X142770634Y-118535817D01*
X142627777Y-118488198D01*
X142199205Y-118488198D01*
X142056348Y-118535817D01*
X141984920Y-118583436D01*
X141913491Y-118678674D01*
X141913491Y-118821531D01*
X141984920Y-118916769D01*
X142056348Y-118964388D01*
X142199205Y-119012007D01*
X142627777Y-119012007D01*
X142770634Y-118964388D01*
X142842062Y-118916769D01*
X142913491Y-118821531D01*
X142913491Y-118678674D01*
X142913491Y-119583436D02*
X142842062Y-119488198D01*
X142699205Y-119440579D01*
X141413491Y-119440579D01*
X142913491Y-120107245D02*
X142842062Y-120012007D01*
X142770634Y-119964388D01*
X142627777Y-119916769D01*
X142199205Y-119916769D01*
X142056348Y-119964388D01*
X141984920Y-120012007D01*
X141913491Y-120107245D01*
X141913491Y-120250102D01*
X141984920Y-120345340D01*
X142056348Y-120392960D01*
X142199205Y-120440579D01*
X142627777Y-120440579D01*
X142770634Y-120392960D01*
X142842062Y-120345340D01*
X142913491Y-120250102D01*
X142913491Y-120107245D01*
X141913491Y-121297721D02*
X143127777Y-121297721D01*
X143270634Y-121250102D01*
X143342062Y-121202483D01*
X143413491Y-121107245D01*
X143413491Y-120964388D01*
X143342062Y-120869150D01*
X142842062Y-121297721D02*
X142913491Y-121202483D01*
X142913491Y-121012007D01*
X142842062Y-120916769D01*
X142770634Y-120869150D01*
X142627777Y-120821531D01*
X142199205Y-120821531D01*
X142056348Y-120869150D01*
X141984920Y-120916769D01*
X141913491Y-121012007D01*
X141913491Y-121202483D01*
X141984920Y-121297721D01*
X142913491Y-121773912D02*
X141913491Y-121773912D01*
X141413491Y-121773912D02*
X141484920Y-121726293D01*
X141556348Y-121773912D01*
X141484920Y-121821531D01*
X141413491Y-121773912D01*
X141556348Y-121773912D01*
X142842062Y-122631055D02*
X142913491Y-122535817D01*
X142913491Y-122345340D01*
X142842062Y-122250102D01*
X142699205Y-122202483D01*
X142127777Y-122202483D01*
X141984920Y-122250102D01*
X141913491Y-122345340D01*
X141913491Y-122535817D01*
X141984920Y-122631055D01*
X142127777Y-122678674D01*
X142270634Y-122678674D01*
X142413491Y-122202483D01*
X142842062Y-123059626D02*
X142913491Y-123154864D01*
X142913491Y-123345340D01*
X142842062Y-123440579D01*
X142699205Y-123488198D01*
X142627777Y-123488198D01*
X142484920Y-123440579D01*
X142413491Y-123345340D01*
X142413491Y-123202483D01*
X142342062Y-123107245D01*
X142199205Y-123059626D01*
X142127777Y-123059626D01*
X141984920Y-123107245D01*
X141913491Y-123202483D01*
X141913491Y-123345340D01*
X141984920Y-123440579D01*
D12*
X129406000Y-123141000D02*
X133306000Y-123141000D01*
X129406000Y-128191000D02*
X133306000Y-128191000D01*
D13*
X127392000Y-127536000D02*
G75*
G03*
X127392000Y-127536000I-100000J0D01*
G01*
D14*
X133565252Y-100290300D02*
X133042748Y-100290300D01*
X133565252Y-98820300D02*
X133042748Y-98820300D01*
X133548748Y-129148000D02*
X134071252Y-129148000D01*
X133548748Y-130618000D02*
X134071252Y-130618000D01*
X133588748Y-120674000D02*
X134111252Y-120674000D01*
X133588748Y-122144000D02*
X134111252Y-122144000D01*
X116354000Y-117972000D02*
X113694000Y-117972000D01*
X116354000Y-105212000D02*
X116354000Y-117972000D01*
X113694000Y-105212000D02*
X113694000Y-117972000D01*
X116354000Y-105212000D02*
X113694000Y-105212000D01*
X116354000Y-103942000D02*
X116354000Y-102612000D01*
X116354000Y-102612000D02*
X115024000Y-102612000D01*
D15*
X125843000Y-123120000D02*
G75*
G03*
X125843000Y-123120000I-100000J0D01*
G01*
D12*
X123193000Y-129975000D02*
X116893000Y-129975000D01*
X123218000Y-129970000D02*
X123218000Y-129370000D01*
X116868000Y-129970000D02*
X116868000Y-129370000D01*
X123218000Y-121465000D02*
X123218000Y-122070000D01*
X116868000Y-121465000D02*
X123218000Y-121465000D01*
X116868000Y-122070000D02*
X116868000Y-121465000D01*
D15*
X126477000Y-117952000D02*
G75*
G03*
X126477000Y-117952000I-100000J0D01*
G01*
D12*
X128927000Y-111097000D02*
X135227000Y-111097000D01*
X128902000Y-111102000D02*
X128902000Y-111702000D01*
X135252000Y-111102000D02*
X135252000Y-111702000D01*
X128902000Y-119607000D02*
X128902000Y-119002000D01*
X135252000Y-119607000D02*
X128902000Y-119607000D01*
X135252000Y-119002000D02*
X135252000Y-119607000D01*
D11*
X149950000Y-123625000D02*
X149950000Y-122895000D01*
X148300000Y-123625000D02*
X149910000Y-123625000D01*
X148310000Y-122895000D02*
X149920000Y-122895000D01*
X148300000Y-123625000D02*
X148300000Y-122895000D01*
X148330000Y-119045000D02*
X148330000Y-118315000D01*
X149940000Y-119055000D02*
X148330000Y-119055000D01*
X149940000Y-118315000D02*
X149940000Y-119055000D01*
X148330000Y-118315000D02*
X149940000Y-118315000D01*
X146410000Y-117725000D02*
X139420000Y-117725000D01*
X146400000Y-124345000D02*
X146410000Y-117725000D01*
X139420000Y-124345000D02*
X146400000Y-124345000D01*
X139420000Y-117725000D02*
X139420000Y-124345000D01*
X150049000Y-116168000D02*
X150049000Y-115438000D01*
X148399000Y-116168000D02*
X150009000Y-116168000D01*
X148409000Y-115438000D02*
X150019000Y-115438000D01*
X148399000Y-116168000D02*
X148399000Y-115438000D01*
X148429000Y-111588000D02*
X148429000Y-110858000D01*
X150039000Y-111598000D02*
X148429000Y-111598000D01*
X150039000Y-110858000D02*
X150039000Y-111598000D01*
X148429000Y-110858000D02*
X150039000Y-110858000D01*
X146509000Y-110268000D02*
X139519000Y-110268000D01*
X146499000Y-116888000D02*
X146509000Y-110268000D01*
X139519000Y-116888000D02*
X146499000Y-116888000D01*
X139519000Y-110268000D02*
X139519000Y-116888000D01*
D14*
X119083936Y-107289000D02*
X119538064Y-107289000D01*
X119083936Y-108759000D02*
X119538064Y-108759000D01*
X116486000Y-134878000D02*
X125226000Y-134878000D01*
X116486000Y-134878000D02*
X116486000Y-132162000D01*
X125226000Y-132162000D02*
X125226000Y-134878000D01*
X125226000Y-132162000D02*
X116486000Y-132162000D01*
X140508000Y-130592000D02*
X140508000Y-132192000D01*
X140508000Y-132192000D02*
X137908000Y-132192000D01*
X140508000Y-130592000D02*
X137908000Y-130592000D01*
X127246000Y-100549600D02*
X128446000Y-100549600D01*
X128446000Y-98789600D02*
X127246000Y-98789600D01*
X134279000Y-101957000D02*
X135814000Y-101957000D01*
X135814000Y-101957000D02*
X135814000Y-109697000D01*
X135814000Y-109697000D02*
X130744000Y-109697000D01*
X130744000Y-109697000D02*
X130744000Y-101957000D01*
X130744000Y-101957000D02*
X132279000Y-101957000D01*
X139514000Y-101897000D02*
X139514000Y-109757000D01*
X139514000Y-109757000D02*
X127044000Y-109757000D01*
X127044000Y-109757000D02*
X127044000Y-101897000D01*
X127044000Y-101897000D02*
X139514000Y-101897000D01*
X132279000Y-101957000D02*
G75*
G03*
X134279000Y-101957000I1000000J0D01*
G01*
X121188000Y-114874000D02*
X123638000Y-114874000D01*
X122988000Y-118094000D02*
X121188000Y-118094000D01*
D11*
X131522904Y-128755380D02*
X131522904Y-129564904D01*
X131475285Y-129660142D01*
X131427666Y-129707761D01*
X131332428Y-129755380D01*
X131141952Y-129755380D01*
X131046714Y-129707761D01*
X130999095Y-129660142D01*
X130951476Y-129564904D01*
X130951476Y-128755380D01*
X130046714Y-128755380D02*
X130237190Y-128755380D01*
X130332428Y-128803000D01*
X130380047Y-128850619D01*
X130475285Y-128993476D01*
X130522904Y-129183952D01*
X130522904Y-129564904D01*
X130475285Y-129660142D01*
X130427666Y-129707761D01*
X130332428Y-129755380D01*
X130141952Y-129755380D01*
X130046714Y-129707761D01*
X129999095Y-129660142D01*
X129951476Y-129564904D01*
X129951476Y-129326809D01*
X129999095Y-129231571D01*
X130046714Y-129183952D01*
X130141952Y-129136333D01*
X130332428Y-129136333D01*
X130427666Y-129183952D01*
X130475285Y-129231571D01*
X130522904Y-129326809D01*
X136488466Y-100036902D02*
X136536085Y-100084521D01*
X136678942Y-100132140D01*
X136774180Y-100132140D01*
X136917038Y-100084521D01*
X137012276Y-99989283D01*
X137059895Y-99894045D01*
X137107514Y-99703569D01*
X137107514Y-99560712D01*
X137059895Y-99370236D01*
X137012276Y-99274998D01*
X136917038Y-99179760D01*
X136774180Y-99132140D01*
X136678942Y-99132140D01*
X136536085Y-99179760D01*
X136488466Y-99227379D01*
X136155133Y-99132140D02*
X135488466Y-99132140D01*
X135917038Y-100132140D01*
X136735106Y-130471182D02*
X136782725Y-130518801D01*
X136925582Y-130566420D01*
X137020820Y-130566420D01*
X137163678Y-130518801D01*
X137258916Y-130423563D01*
X137306535Y-130328325D01*
X137354154Y-130137849D01*
X137354154Y-129994992D01*
X137306535Y-129804516D01*
X137258916Y-129709278D01*
X137163678Y-129614040D01*
X137020820Y-129566420D01*
X136925582Y-129566420D01*
X136782725Y-129614040D01*
X136735106Y-129661659D01*
X136354154Y-129661659D02*
X136306535Y-129614040D01*
X136211297Y-129566420D01*
X135973201Y-129566420D01*
X135877963Y-129614040D01*
X135830344Y-129661659D01*
X135782725Y-129756897D01*
X135782725Y-129852135D01*
X135830344Y-129994992D01*
X136401773Y-130566420D01*
X135782725Y-130566420D01*
X136543966Y-121750902D02*
X136591585Y-121798521D01*
X136734442Y-121846140D01*
X136829680Y-121846140D01*
X136972538Y-121798521D01*
X137067776Y-121703283D01*
X137115395Y-121608045D01*
X137163014Y-121417569D01*
X137163014Y-121274712D01*
X137115395Y-121084236D01*
X137067776Y-120988998D01*
X136972538Y-120893760D01*
X136829680Y-120846140D01*
X136734442Y-120846140D01*
X136591585Y-120893760D01*
X136543966Y-120941379D01*
X135591585Y-121846140D02*
X136163014Y-121846140D01*
X135877300Y-121846140D02*
X135877300Y-120846140D01*
X135972538Y-120988998D01*
X136067776Y-121084236D01*
X136163014Y-121131855D01*
X114204173Y-100717220D02*
X114204173Y-101431506D01*
X114251792Y-101574363D01*
X114347030Y-101669601D01*
X114489887Y-101717220D01*
X114585125Y-101717220D01*
X113823220Y-100717220D02*
X113204173Y-100717220D01*
X113537506Y-101098173D01*
X113394649Y-101098173D01*
X113299411Y-101145792D01*
X113251792Y-101193411D01*
X113204173Y-101288649D01*
X113204173Y-101526744D01*
X113251792Y-101621982D01*
X113299411Y-101669601D01*
X113394649Y-101717220D01*
X113680363Y-101717220D01*
X113775601Y-101669601D01*
X113823220Y-101621982D01*
X122712123Y-119452163D02*
X122712123Y-120262362D01*
X122664464Y-120357679D01*
X122616805Y-120405338D01*
X122521488Y-120452997D01*
X122330853Y-120452997D01*
X122235535Y-120405338D01*
X122187876Y-120357679D01*
X122140218Y-120262362D01*
X122140218Y-119452163D01*
X121187042Y-119452163D02*
X121663630Y-119452163D01*
X121711289Y-119928750D01*
X121663630Y-119881092D01*
X121568312Y-119833433D01*
X121330019Y-119833433D01*
X121234701Y-119881092D01*
X121187042Y-119928750D01*
X121139384Y-120024068D01*
X121139384Y-120262362D01*
X121187042Y-120357679D01*
X121234701Y-120405338D01*
X121330019Y-120452997D01*
X121568312Y-120452997D01*
X121663630Y-120405338D01*
X121711289Y-120357679D01*
X130932957Y-120523685D02*
X130932957Y-121333884D01*
X130885298Y-121429201D01*
X130837639Y-121476860D01*
X130742322Y-121524519D01*
X130551687Y-121524519D01*
X130456369Y-121476860D01*
X130408710Y-121429201D01*
X130361052Y-121333884D01*
X130361052Y-120523685D01*
X129360218Y-121524519D02*
X129932123Y-121524519D01*
X129646170Y-121524519D02*
X129646170Y-120523685D01*
X129741488Y-120666661D01*
X129836805Y-120761979D01*
X129932123Y-120809637D01*
X136364406Y-134526140D02*
X136697740Y-134049950D01*
X136935835Y-134526140D02*
X136935835Y-133526140D01*
X136554882Y-133526140D01*
X136459644Y-133573760D01*
X136412025Y-133621379D01*
X136364406Y-133716617D01*
X136364406Y-133859474D01*
X136412025Y-133954712D01*
X136459644Y-134002331D01*
X136554882Y-134049950D01*
X136935835Y-134049950D01*
X136031073Y-133526140D02*
X135364406Y-133526140D01*
X135792978Y-134526140D01*
X122358586Y-113495400D02*
X122691920Y-113019210D01*
X122930015Y-113495400D02*
X122930015Y-112495400D01*
X122549062Y-112495400D01*
X122453824Y-112543020D01*
X122406205Y-112590639D01*
X122358586Y-112685877D01*
X122358586Y-112828734D01*
X122406205Y-112923972D01*
X122453824Y-112971591D01*
X122549062Y-113019210D01*
X122930015Y-113019210D01*
X121501443Y-112495400D02*
X121691920Y-112495400D01*
X121787158Y-112543020D01*
X121834777Y-112590639D01*
X121930015Y-112733496D01*
X121977634Y-112923972D01*
X121977634Y-113304924D01*
X121930015Y-113400162D01*
X121882396Y-113447781D01*
X121787158Y-113495400D01*
X121596681Y-113495400D01*
X121501443Y-113447781D01*
X121453824Y-113400162D01*
X121406205Y-113304924D01*
X121406205Y-113066829D01*
X121453824Y-112971591D01*
X121501443Y-112923972D01*
X121596681Y-112876353D01*
X121787158Y-112876353D01*
X121882396Y-112923972D01*
X121930015Y-112971591D01*
X121977634Y-113066829D01*
X138396006Y-127061220D02*
X138729340Y-126585030D01*
X138967435Y-127061220D02*
X138967435Y-126061220D01*
X138586482Y-126061220D01*
X138491244Y-126108840D01*
X138443625Y-126156459D01*
X138396006Y-126251697D01*
X138396006Y-126394554D01*
X138443625Y-126489792D01*
X138491244Y-126537411D01*
X138586482Y-126585030D01*
X138967435Y-126585030D01*
X137491244Y-126061220D02*
X137967435Y-126061220D01*
X138015054Y-126537411D01*
X137967435Y-126489792D01*
X137872197Y-126442173D01*
X137634101Y-126442173D01*
X137538863Y-126489792D01*
X137491244Y-126537411D01*
X137443625Y-126632649D01*
X137443625Y-126870744D01*
X137491244Y-126965982D01*
X137538863Y-127013601D01*
X137634101Y-127061220D01*
X137872197Y-127061220D01*
X137967435Y-127013601D01*
X138015054Y-126965982D01*
X124423226Y-102585720D02*
X124756560Y-102109530D01*
X124994655Y-102585720D02*
X124994655Y-101585720D01*
X124613702Y-101585720D01*
X124518464Y-101633340D01*
X124470845Y-101680959D01*
X124423226Y-101776197D01*
X124423226Y-101919054D01*
X124470845Y-102014292D01*
X124518464Y-102061911D01*
X124613702Y-102109530D01*
X124994655Y-102109530D01*
X124042274Y-101680959D02*
X123994655Y-101633340D01*
X123899417Y-101585720D01*
X123661321Y-101585720D01*
X123566083Y-101633340D01*
X123518464Y-101680959D01*
X123470845Y-101776197D01*
X123470845Y-101871435D01*
X123518464Y-102014292D01*
X124089893Y-102585720D01*
X123470845Y-102585720D01*
X138388078Y-120737879D02*
X138483316Y-120690260D01*
X138578554Y-120595021D01*
X138721411Y-120452164D01*
X138816649Y-120404545D01*
X138911887Y-120404545D01*
X138864268Y-120642640D02*
X138959506Y-120595021D01*
X139054744Y-120499783D01*
X139102363Y-120309307D01*
X139102363Y-119975974D01*
X139054744Y-119785498D01*
X138959506Y-119690260D01*
X138864268Y-119642640D01*
X138673792Y-119642640D01*
X138578554Y-119690260D01*
X138483316Y-119785498D01*
X138435697Y-119975974D01*
X138435697Y-120309307D01*
X138483316Y-120499783D01*
X138578554Y-120595021D01*
X138673792Y-120642640D01*
X138864268Y-120642640D01*
X138054744Y-119737879D02*
X138007125Y-119690260D01*
X137911887Y-119642640D01*
X137673792Y-119642640D01*
X137578554Y-119690260D01*
X137530935Y-119737879D01*
X137483316Y-119833117D01*
X137483316Y-119928355D01*
X137530935Y-120071212D01*
X138102363Y-120642640D01*
X137483316Y-120642640D01*
X138278858Y-114105939D02*
X138374096Y-114058320D01*
X138469334Y-113963081D01*
X138612191Y-113820224D01*
X138707429Y-113772605D01*
X138802667Y-113772605D01*
X138755048Y-114010700D02*
X138850286Y-113963081D01*
X138945524Y-113867843D01*
X138993143Y-113677367D01*
X138993143Y-113344034D01*
X138945524Y-113153558D01*
X138850286Y-113058320D01*
X138755048Y-113010700D01*
X138564572Y-113010700D01*
X138469334Y-113058320D01*
X138374096Y-113153558D01*
X138326477Y-113344034D01*
X138326477Y-113677367D01*
X138374096Y-113867843D01*
X138469334Y-113963081D01*
X138564572Y-114010700D01*
X138755048Y-114010700D01*
X137374096Y-114010700D02*
X137945524Y-114010700D01*
X137659810Y-114010700D02*
X137659810Y-113010700D01*
X137755048Y-113153558D01*
X137850286Y-113248796D01*
X137945524Y-113296415D01*
X122410126Y-110942420D02*
X122743460Y-110466230D01*
X122981555Y-110942420D02*
X122981555Y-109942420D01*
X122600602Y-109942420D01*
X122505364Y-109990040D01*
X122457745Y-110037659D01*
X122410126Y-110132897D01*
X122410126Y-110275754D01*
X122457745Y-110370992D01*
X122505364Y-110418611D01*
X122600602Y-110466230D01*
X122981555Y-110466230D01*
X122076793Y-109942420D02*
X121457745Y-109942420D01*
X121791079Y-110323373D01*
X121648221Y-110323373D01*
X121552983Y-110370992D01*
X121505364Y-110418611D01*
X121457745Y-110513849D01*
X121457745Y-110751944D01*
X121505364Y-110847182D01*
X121552983Y-110894801D01*
X121648221Y-110942420D01*
X121933936Y-110942420D01*
X122029174Y-110894801D01*
X122076793Y-110847182D01*
X122058946Y-108443360D02*
X122392280Y-107967170D01*
X122630375Y-108443360D02*
X122630375Y-107443360D01*
X122249422Y-107443360D01*
X122154184Y-107490980D01*
X122106565Y-107538599D01*
X122058946Y-107633837D01*
X122058946Y-107776694D01*
X122106565Y-107871932D01*
X122154184Y-107919551D01*
X122249422Y-107967170D01*
X122630375Y-107967170D01*
X121201803Y-107776694D02*
X121201803Y-108443360D01*
X121439899Y-107395741D02*
X121677994Y-108110027D01*
X121058946Y-108110027D01*
X116436733Y-131640271D02*
X116770066Y-131640271D01*
X116770066Y-132164080D02*
X116770066Y-131164080D01*
X116293876Y-131164080D01*
X115389114Y-132164080D02*
X115960542Y-132164080D01*
X115674828Y-132164080D02*
X115674828Y-131164080D01*
X115770066Y-131306938D01*
X115865304Y-131402176D01*
X115960542Y-131449795D01*
X139746080Y-130244380D02*
X139621080Y-129244380D01*
X139382985Y-129244380D01*
X139246080Y-129292000D01*
X139162747Y-129387238D01*
X139127032Y-129482476D01*
X139103223Y-129672952D01*
X139121080Y-129815809D01*
X139192508Y-130006285D01*
X139252032Y-130101523D01*
X139359175Y-130196761D01*
X139507985Y-130244380D01*
X139746080Y-130244380D01*
X138680604Y-129339619D02*
X138627032Y-129292000D01*
X138525842Y-129244380D01*
X138287747Y-129244380D01*
X138198461Y-129292000D01*
X138156794Y-129339619D01*
X138121080Y-129434857D01*
X138132985Y-129530095D01*
X138198461Y-129672952D01*
X138841318Y-130244380D01*
X138222270Y-130244380D01*
X124228926Y-100068580D02*
X124562260Y-99592390D01*
X124800355Y-100068580D02*
X124800355Y-99068580D01*
X124419402Y-99068580D01*
X124324164Y-99116200D01*
X124276545Y-99163819D01*
X124228926Y-99259057D01*
X124228926Y-99401914D01*
X124276545Y-99497152D01*
X124324164Y-99544771D01*
X124419402Y-99592390D01*
X124800355Y-99592390D01*
X123276545Y-100068580D02*
X123847974Y-100068580D01*
X123562260Y-100068580D02*
X123562260Y-99068580D01*
X123657498Y-99211438D01*
X123752736Y-99306676D01*
X123847974Y-99354295D01*
X134139964Y-101527800D02*
X134139964Y-102337324D01*
X134092345Y-102432562D01*
X134044726Y-102480181D01*
X133949488Y-102527800D01*
X133759012Y-102527800D01*
X133663774Y-102480181D01*
X133616155Y-102432562D01*
X133568536Y-102337324D01*
X133568536Y-101527800D01*
X133187583Y-101527800D02*
X132568536Y-101527800D01*
X132901869Y-101908753D01*
X132759012Y-101908753D01*
X132663774Y-101956372D01*
X132616155Y-102003991D01*
X132568536Y-102099229D01*
X132568536Y-102337324D01*
X132616155Y-102432562D01*
X132663774Y-102480181D01*
X132759012Y-102527800D01*
X133044726Y-102527800D01*
X133139964Y-102480181D01*
X133187583Y-102432562D01*
X119182144Y-116340240D02*
X119182144Y-117149764D01*
X119134525Y-117245002D01*
X119086906Y-117292621D01*
X118991668Y-117340240D01*
X118801192Y-117340240D01*
X118705954Y-117292621D01*
X118658335Y-117245002D01*
X118610716Y-117149764D01*
X118610716Y-116340240D01*
X117705954Y-116673574D02*
X117705954Y-117340240D01*
X117944049Y-116292621D02*
X118182144Y-117006907D01*
X117563097Y-117006907D01*
M02*
