M48
; DRILL file {KiCad 5.1.7-a382d34a8~88~ubuntu18.04.1} date Sat Nov 20 10:26:45 2021
; FORMAT={3:3/ absolute / metric / suppress leading zeros}
; #@! TF.CreationDate,2021-11-20T10:26:45+05:30
; #@! TF.GenerationSoftware,Kicad,Pcbnew,5.1.7-a382d34a8~88~ubuntu18.04.1
FMAT,2
METRIC,TZ
T1C0.600
T2C1.000
T3C1.300
T4C3.000
%
G90
G05
T1
X115511Y-131042
X117243Y-131376
X121900Y-125659
X123487Y-104649
X125230Y-110988
X126693Y-101020
X127862Y-119592
X130022Y-129196
X130228Y-133431
X132060Y-119592
X136403Y-133898
X143717Y-109357
X146495Y-118639
X148497Y-116798
X149560Y-121755
X149568Y-124864
X149659Y-130350
X150091Y-109352
T2
X118316Y-133530
X123396Y-133520
X115024Y-103942
X115024Y-106482
X115024Y-109022
X115024Y-111562
X115024Y-114102
X115024Y-116642
T3
X121699Y-99667
X127287Y-133195
X133383Y-133195
X138971Y-99667
X146583Y-100922
X146583Y-106002
X146497Y-127460
X146497Y-132460
T4
X117409Y-100808
T0
M30
