G04 #@! TF.GenerationSoftware,KiCad,Pcbnew,5.1.6-c6e7f7d~87~ubuntu18.04.1*
G04 #@! TF.CreationDate,2020-10-14T05:15:15+05:30*
G04 #@! TF.ProjectId,FrontEnd_4S,46726f6e-7445-46e6-945f-34532e6b6963,rev?*
G04 #@! TF.SameCoordinates,Original*
G04 #@! TF.FileFunction,Paste,Top*
G04 #@! TF.FilePolarity,Positive*
%FSLAX46Y46*%
G04 Gerber Fmt 4.6, Leading zero omitted, Abs format (unit mm)*
G04 Created by KiCad (PCBNEW 5.1.6-c6e7f7d~87~ubuntu18.04.1) date 2020-10-14 05:15:15*
%MOMM*%
%LPD*%
G01*
G04 APERTURE LIST*
%ADD10R,1.000000X0.230000*%
%ADD11R,0.230000X1.000000*%
%ADD12R,1.300000X0.700000*%
%ADD13R,0.700000X1.300000*%
%ADD14R,1.000000X1.250000*%
%ADD15R,1.250000X1.000000*%
%ADD16R,0.900000X0.800000*%
%ADD17R,0.760000X1.600000*%
%ADD18R,0.650000X1.060000*%
%ADD19R,1.700000X1.200000*%
G04 APERTURE END LIST*
D10*
X116299000Y-84836000D03*
D11*
X117569000Y-78486000D03*
X118077000Y-78486000D03*
X118585000Y-78486000D03*
X119093000Y-78486000D03*
X119601000Y-78486000D03*
X120109000Y-78486000D03*
X120617000Y-78486000D03*
X121125000Y-78486000D03*
X121633000Y-78486000D03*
X122141000Y-78486000D03*
X122649000Y-78486000D03*
X123157000Y-78486000D03*
D10*
X124427000Y-79756000D03*
X124427000Y-80264000D03*
X124427000Y-81280000D03*
X124427000Y-81788000D03*
X124427000Y-82296000D03*
X124427000Y-82804000D03*
X124427000Y-83312000D03*
X124427000Y-83820000D03*
X124427000Y-84328000D03*
X124427000Y-84836000D03*
X124427000Y-85344000D03*
D11*
X122649000Y-86614000D03*
X122141000Y-86614000D03*
X121633000Y-86614000D03*
X121125000Y-86614000D03*
X120617000Y-86614000D03*
X120109000Y-86614000D03*
X119601000Y-86614000D03*
X119093000Y-86614000D03*
X118585000Y-86614000D03*
X118077000Y-86614000D03*
X117569000Y-86614000D03*
D10*
X116299000Y-85344000D03*
X116299000Y-84328000D03*
X116299000Y-83820000D03*
X116299000Y-83312000D03*
X116299000Y-82804000D03*
X116299000Y-82296000D03*
X116299000Y-81788000D03*
X116299000Y-81280000D03*
X116299000Y-80772000D03*
X116299000Y-80264000D03*
X116299000Y-79756000D03*
D11*
X123157000Y-86614000D03*
D10*
X124427000Y-80772000D03*
D12*
X121666000Y-83736300D03*
X121666000Y-81836300D03*
X124818000Y-72235000D03*
X124818000Y-74135000D03*
D13*
X103647000Y-100576000D03*
X105547000Y-100576000D03*
D14*
X120657000Y-71607700D03*
X118657000Y-71607700D03*
D15*
X137536000Y-80407000D03*
X137536000Y-82407000D03*
X101237000Y-113009000D03*
X101237000Y-111009000D03*
X110683000Y-108874000D03*
X110683000Y-106874000D03*
D14*
X118358000Y-112141000D03*
X116358000Y-112141000D03*
X116470000Y-114303000D03*
X118470000Y-114303000D03*
X132559000Y-100663000D03*
X130559000Y-100663000D03*
X132653000Y-97307400D03*
X130653000Y-97307400D03*
X132481000Y-69885600D03*
X130481000Y-69885600D03*
D16*
X130752000Y-83696500D03*
X130752000Y-81596500D03*
X134379000Y-88464700D03*
X134379000Y-90564700D03*
D12*
X127704000Y-82809000D03*
X127704000Y-84709000D03*
X118788000Y-83649900D03*
X118788000Y-81749900D03*
X131656000Y-94775100D03*
X131656000Y-92875100D03*
D17*
X141387000Y-103746000D03*
X141387000Y-111366000D03*
D18*
X108544000Y-93258500D03*
X110444000Y-93258500D03*
X110444000Y-95458500D03*
X109494000Y-95458500D03*
X108544000Y-95458500D03*
D19*
X95161200Y-74518800D03*
X95161200Y-76518800D03*
X95161200Y-78518800D03*
X95161200Y-80518800D03*
X95161200Y-82518800D03*
X95161200Y-84518800D03*
X95161200Y-86518800D03*
X95161200Y-88518800D03*
X110391200Y-88518800D03*
X110391200Y-86518800D03*
X110391200Y-84518800D03*
X110391200Y-82518800D03*
X110391200Y-80518800D03*
X110391200Y-78518800D03*
X110391200Y-76518800D03*
X110391200Y-74518800D03*
M02*
