G04 #@! TF.GenerationSoftware,KiCad,Pcbnew,5.1.6-c6e7f7d~87~ubuntu18.04.1*
G04 #@! TF.CreationDate,2020-10-14T05:15:15+05:30*
G04 #@! TF.ProjectId,FrontEnd_4S,46726f6e-7445-46e6-945f-34532e6b6963,rev?*
G04 #@! TF.SameCoordinates,Original*
G04 #@! TF.FileFunction,Soldermask,Bot*
G04 #@! TF.FilePolarity,Negative*
%FSLAX46Y46*%
G04 Gerber Fmt 4.6, Leading zero omitted, Abs format (unit mm)*
G04 Created by KiCad (PCBNEW 5.1.6-c6e7f7d~87~ubuntu18.04.1) date 2020-10-14 05:15:15*
%MOMM*%
%LPD*%
G01*
G04 APERTURE LIST*
%ADD10R,1.800000X1.800000*%
%ADD11O,1.800000X1.800000*%
%ADD12R,1.100000X0.330000*%
%ADD13R,0.330000X1.100000*%
%ADD14R,0.800000X1.400000*%
%ADD15R,1.000000X0.900000*%
%ADD16R,1.624000X1.624000*%
%ADD17C,10.100000*%
%ADD18R,1.100000X1.350000*%
%ADD19R,1.160000X0.750000*%
%ADD20R,0.750000X1.160000*%
%ADD21C,1.600000*%
G04 APERTURE END LIST*
D10*
X140757000Y-85956100D03*
D11*
X140757000Y-88496100D03*
X140757000Y-91036100D03*
X140757000Y-93576100D03*
X140757000Y-96116100D03*
X140757000Y-98656100D03*
D12*
X116299000Y-84836000D03*
D13*
X117569000Y-78486000D03*
X118077000Y-78486000D03*
X118585000Y-78486000D03*
X119093000Y-78486000D03*
X119601000Y-78486000D03*
X120109000Y-78486000D03*
X120617000Y-78486000D03*
X121125000Y-78486000D03*
X121633000Y-78486000D03*
X122141000Y-78486000D03*
X122649000Y-78486000D03*
X123157000Y-78486000D03*
D12*
X124427000Y-79756000D03*
X124427000Y-80264000D03*
X124427000Y-81280000D03*
X124427000Y-81788000D03*
X124427000Y-82296000D03*
X124427000Y-82804000D03*
X124427000Y-83312000D03*
X124427000Y-83820000D03*
X124427000Y-84328000D03*
X124427000Y-84836000D03*
X124427000Y-85344000D03*
D13*
X122649000Y-86614000D03*
X122141000Y-86614000D03*
X121633000Y-86614000D03*
X121125000Y-86614000D03*
X120617000Y-86614000D03*
X120109000Y-86614000D03*
X119601000Y-86614000D03*
X119093000Y-86614000D03*
X118585000Y-86614000D03*
X118077000Y-86614000D03*
X117569000Y-86614000D03*
D12*
X116299000Y-85344000D03*
X116299000Y-84328000D03*
X116299000Y-83820000D03*
X116299000Y-83312000D03*
X116299000Y-82804000D03*
X116299000Y-82296000D03*
X116299000Y-81788000D03*
X116299000Y-81280000D03*
X116299000Y-80772000D03*
X116299000Y-80264000D03*
X116299000Y-79756000D03*
D13*
X123157000Y-86614000D03*
D12*
X124427000Y-80772000D03*
D14*
X103607000Y-85473500D03*
X105507000Y-85473500D03*
D15*
X141681000Y-103303000D03*
X141681000Y-105403000D03*
X141910000Y-74964600D03*
X141910000Y-77064600D03*
X96271100Y-105515000D03*
X96271100Y-103415000D03*
X95453200Y-76468200D03*
X95453200Y-78568200D03*
D16*
X95265200Y-67843400D03*
D17*
X101885000Y-77459800D03*
X135385000Y-76321900D03*
X102690000Y-104173000D03*
X135280000Y-104018000D03*
D18*
X105121000Y-96512400D03*
X103121000Y-96512400D03*
X100380000Y-93043000D03*
X98380000Y-93043000D03*
X98420700Y-89715000D03*
X100420700Y-89715000D03*
X100347000Y-96423500D03*
X98347000Y-96423500D03*
X103394000Y-93024600D03*
X105394000Y-93024600D03*
X105498000Y-89608600D03*
X103498000Y-89608600D03*
D11*
X105584000Y-68613000D03*
X108124000Y-68613000D03*
X110664000Y-68613000D03*
X113204000Y-68613000D03*
X115744000Y-68613000D03*
X118284000Y-68613000D03*
X120824000Y-68613000D03*
D10*
X123364000Y-68613000D03*
D19*
X118092000Y-73185000D03*
X118092000Y-74135000D03*
X118092000Y-75085000D03*
X115892000Y-75085000D03*
X115892000Y-73185000D03*
X115892000Y-74135000D03*
D20*
X121859000Y-75885200D03*
X120909000Y-75885200D03*
X122809000Y-75885200D03*
X122809000Y-73685200D03*
X121859000Y-73685200D03*
X120909000Y-73685200D03*
D19*
X124425000Y-103182000D03*
X124425000Y-104132000D03*
X124425000Y-105082000D03*
X122225000Y-105082000D03*
X122225000Y-103182000D03*
X122225000Y-104132000D03*
X118572000Y-104270000D03*
X118572000Y-105220000D03*
X118572000Y-103320000D03*
X116372000Y-103320000D03*
X116372000Y-104270000D03*
X116372000Y-105220000D03*
D21*
X105773000Y-112784000D03*
X110653000Y-112784000D03*
X130615000Y-112789000D03*
X125735000Y-112789000D03*
M02*
