G04 #@! TF.GenerationSoftware,KiCad,Pcbnew,5.1.6-c6e7f7d~87~ubuntu18.04.1*
G04 #@! TF.CreationDate,2020-10-14T05:15:15+05:30*
G04 #@! TF.ProjectId,FrontEnd_4S,46726f6e-7445-46e6-945f-34532e6b6963,rev?*
G04 #@! TF.SameCoordinates,Original*
G04 #@! TF.FileFunction,Soldermask,Top*
G04 #@! TF.FilePolarity,Negative*
%FSLAX46Y46*%
G04 Gerber Fmt 4.6, Leading zero omitted, Abs format (unit mm)*
G04 Created by KiCad (PCBNEW 5.1.6-c6e7f7d~87~ubuntu18.04.1) date 2020-10-14 05:15:15*
%MOMM*%
%LPD*%
G01*
G04 APERTURE LIST*
%ADD10R,1.800000X1.800000*%
%ADD11O,1.800000X1.800000*%
%ADD12R,1.100000X0.330000*%
%ADD13R,0.330000X1.100000*%
%ADD14R,1.400000X0.800000*%
%ADD15R,0.800000X1.400000*%
%ADD16R,1.624000X1.624000*%
%ADD17R,1.100000X1.350000*%
%ADD18R,1.350000X1.100000*%
%ADD19R,1.000000X0.900000*%
%ADD20R,0.860000X1.700000*%
%ADD21R,0.750000X1.160000*%
%ADD22R,1.800000X1.300000*%
%ADD23C,1.600000*%
G04 APERTURE END LIST*
D10*
X140757000Y-85956100D03*
D11*
X140757000Y-88496100D03*
X140757000Y-91036100D03*
X140757000Y-93576100D03*
X140757000Y-96116100D03*
X140757000Y-98656100D03*
D12*
X116299000Y-84836000D03*
D13*
X117569000Y-78486000D03*
X118077000Y-78486000D03*
X118585000Y-78486000D03*
X119093000Y-78486000D03*
X119601000Y-78486000D03*
X120109000Y-78486000D03*
X120617000Y-78486000D03*
X121125000Y-78486000D03*
X121633000Y-78486000D03*
X122141000Y-78486000D03*
X122649000Y-78486000D03*
X123157000Y-78486000D03*
D12*
X124427000Y-79756000D03*
X124427000Y-80264000D03*
X124427000Y-81280000D03*
X124427000Y-81788000D03*
X124427000Y-82296000D03*
X124427000Y-82804000D03*
X124427000Y-83312000D03*
X124427000Y-83820000D03*
X124427000Y-84328000D03*
X124427000Y-84836000D03*
X124427000Y-85344000D03*
D13*
X122649000Y-86614000D03*
X122141000Y-86614000D03*
X121633000Y-86614000D03*
X121125000Y-86614000D03*
X120617000Y-86614000D03*
X120109000Y-86614000D03*
X119601000Y-86614000D03*
X119093000Y-86614000D03*
X118585000Y-86614000D03*
X118077000Y-86614000D03*
X117569000Y-86614000D03*
D12*
X116299000Y-85344000D03*
X116299000Y-84328000D03*
X116299000Y-83820000D03*
X116299000Y-83312000D03*
X116299000Y-82804000D03*
X116299000Y-82296000D03*
X116299000Y-81788000D03*
X116299000Y-81280000D03*
X116299000Y-80772000D03*
X116299000Y-80264000D03*
X116299000Y-79756000D03*
D13*
X123157000Y-86614000D03*
D12*
X124427000Y-80772000D03*
D14*
X121666000Y-83736300D03*
X121666000Y-81836300D03*
X124818000Y-72235000D03*
X124818000Y-74135000D03*
D15*
X103647000Y-100576000D03*
X105547000Y-100576000D03*
D16*
X95265200Y-67843400D03*
D17*
X120657000Y-71607700D03*
X118657000Y-71607700D03*
D18*
X137536000Y-80407000D03*
X137536000Y-82407000D03*
X101237000Y-113009000D03*
X101237000Y-111009000D03*
X110683000Y-108874000D03*
X110683000Y-106874000D03*
D17*
X118358000Y-112141000D03*
X116358000Y-112141000D03*
X116470000Y-114303000D03*
X118470000Y-114303000D03*
X132559000Y-100663000D03*
X130559000Y-100663000D03*
X132653000Y-97307400D03*
X130653000Y-97307400D03*
X132481000Y-69885600D03*
X130481000Y-69885600D03*
D19*
X130752000Y-83696500D03*
X130752000Y-81596500D03*
X134379000Y-88464700D03*
X134379000Y-90564700D03*
D11*
X105584000Y-68613000D03*
X108124000Y-68613000D03*
X110664000Y-68613000D03*
X113204000Y-68613000D03*
X115744000Y-68613000D03*
X118284000Y-68613000D03*
X120824000Y-68613000D03*
D10*
X123364000Y-68613000D03*
D14*
X127704000Y-82809000D03*
X127704000Y-84709000D03*
X118788000Y-83649900D03*
X118788000Y-81749900D03*
X131656000Y-94775100D03*
X131656000Y-92875100D03*
D20*
X141387000Y-103746000D03*
X141387000Y-111366000D03*
D21*
X108544000Y-93258500D03*
X110444000Y-93258500D03*
X110444000Y-95458500D03*
X109494000Y-95458500D03*
X108544000Y-95458500D03*
D22*
X95161200Y-74518800D03*
X95161200Y-76518800D03*
X95161200Y-78518800D03*
X95161200Y-80518800D03*
X95161200Y-82518800D03*
X95161200Y-84518800D03*
X95161200Y-86518800D03*
X95161200Y-88518800D03*
X110391200Y-88518800D03*
X110391200Y-86518800D03*
X110391200Y-84518800D03*
X110391200Y-82518800D03*
X110391200Y-80518800D03*
X110391200Y-78518800D03*
X110391200Y-76518800D03*
X110391200Y-74518800D03*
D23*
X105773000Y-112784000D03*
X110653000Y-112784000D03*
X130615000Y-112789000D03*
X125735000Y-112789000D03*
M02*
