G04 #@! TF.GenerationSoftware,KiCad,Pcbnew,5.1.6-c6e7f7d~87~ubuntu18.04.1*
G04 #@! TF.CreationDate,2020-10-14T05:15:15+05:30*
G04 #@! TF.ProjectId,FrontEnd_4S,46726f6e-7445-46e6-945f-34532e6b6963,rev?*
G04 #@! TF.SameCoordinates,Original*
G04 #@! TF.FileFunction,Other,User*
%FSLAX46Y46*%
G04 Gerber Fmt 4.6, Leading zero omitted, Abs format (unit mm)*
G04 Created by KiCad (PCBNEW 5.1.6-c6e7f7d~87~ubuntu18.04.1) date 2020-10-14 05:15:15*
%MOMM*%
%LPD*%
G01*
G04 APERTURE LIST*
%ADD10C,0.050000*%
G04 APERTURE END LIST*
D10*
X142557000Y-84156100D02*
X138957000Y-84156100D01*
X142557000Y-100456100D02*
X142557000Y-84156100D01*
X138957000Y-100456100D02*
X142557000Y-100456100D01*
X138957000Y-84156100D02*
X138957000Y-100456100D01*
X122566000Y-81236300D02*
X122566000Y-84336300D01*
X122566000Y-81236300D02*
X120766000Y-81236300D01*
X120766000Y-84336300D02*
X122566000Y-84336300D01*
X120766000Y-84336300D02*
X120766000Y-81236300D01*
X123918000Y-74735000D02*
X123918000Y-71635000D01*
X123918000Y-74735000D02*
X125718000Y-74735000D01*
X125718000Y-71635000D02*
X123918000Y-71635000D01*
X125718000Y-71635000D02*
X125718000Y-74735000D01*
X106147000Y-101476000D02*
X103047000Y-101476000D01*
X106147000Y-101476000D02*
X106147000Y-99676000D01*
X103047000Y-99676000D02*
X103047000Y-101476000D01*
X103047000Y-99676000D02*
X106147000Y-99676000D01*
X121407000Y-72477700D02*
X117907000Y-72477700D01*
X121407000Y-72477700D02*
X121407000Y-70727700D01*
X117907000Y-70727700D02*
X117907000Y-72477700D01*
X117907000Y-70727700D02*
X121407000Y-70727700D01*
X138406000Y-79657000D02*
X138406000Y-83157000D01*
X138406000Y-79657000D02*
X136656000Y-79657000D01*
X136656000Y-83157000D02*
X138406000Y-83157000D01*
X136656000Y-83157000D02*
X136656000Y-79657000D01*
X100357000Y-113759000D02*
X100357000Y-110259000D01*
X100357000Y-113759000D02*
X102107000Y-113759000D01*
X102107000Y-110259000D02*
X100357000Y-110259000D01*
X102107000Y-110259000D02*
X102107000Y-113759000D01*
X109803000Y-109624000D02*
X109803000Y-106124000D01*
X109803000Y-109624000D02*
X111553000Y-109624000D01*
X111553000Y-106124000D02*
X109803000Y-106124000D01*
X111553000Y-106124000D02*
X111553000Y-109624000D01*
X119108000Y-113021000D02*
X115608000Y-113021000D01*
X119108000Y-113021000D02*
X119108000Y-111271000D01*
X115608000Y-111271000D02*
X115608000Y-113021000D01*
X115608000Y-111271000D02*
X119108000Y-111271000D01*
X115720000Y-113433000D02*
X119220000Y-113433000D01*
X115720000Y-113433000D02*
X115720000Y-115183000D01*
X119220000Y-115183000D02*
X119220000Y-113433000D01*
X119220000Y-115183000D02*
X115720000Y-115183000D01*
X133309000Y-101533000D02*
X129809000Y-101533000D01*
X133309000Y-101533000D02*
X133309000Y-99783000D01*
X129809000Y-99783000D02*
X129809000Y-101533000D01*
X129809000Y-99783000D02*
X133309000Y-99783000D01*
X133403000Y-98177400D02*
X129903000Y-98177400D01*
X133403000Y-98177400D02*
X133403000Y-96427400D01*
X129903000Y-96427400D02*
X129903000Y-98177400D01*
X129903000Y-96427400D02*
X133403000Y-96427400D01*
X133231000Y-70755600D02*
X129731000Y-70755600D01*
X133231000Y-70755600D02*
X133231000Y-69005600D01*
X129731000Y-69005600D02*
X129731000Y-70755600D01*
X129731000Y-69005600D02*
X133231000Y-69005600D01*
X131632000Y-84346500D02*
X129872000Y-84346500D01*
X131632000Y-80946500D02*
X131632000Y-84346500D01*
X129872000Y-80946500D02*
X131632000Y-80946500D01*
X129872000Y-84346500D02*
X129872000Y-80946500D01*
X133499000Y-91214700D02*
X133499000Y-87814700D01*
X133499000Y-87814700D02*
X135259000Y-87814700D01*
X135259000Y-87814700D02*
X135259000Y-91214700D01*
X135259000Y-91214700D02*
X133499000Y-91214700D01*
X125164000Y-70413000D02*
X125164000Y-66813000D01*
X103814000Y-70413000D02*
X125164000Y-70413000D01*
X103814000Y-66813000D02*
X103814000Y-70413000D01*
X125164000Y-66813000D02*
X103814000Y-66813000D01*
X128604000Y-82209000D02*
X128604000Y-85309000D01*
X128604000Y-82209000D02*
X126804000Y-82209000D01*
X126804000Y-85309000D02*
X128604000Y-85309000D01*
X126804000Y-85309000D02*
X126804000Y-82209000D01*
X117888000Y-84249900D02*
X117888000Y-81149900D01*
X117888000Y-84249900D02*
X119688000Y-84249900D01*
X119688000Y-81149900D02*
X117888000Y-81149900D01*
X119688000Y-81149900D02*
X119688000Y-84249900D01*
X130756000Y-95375100D02*
X130756000Y-92275100D01*
X130756000Y-95375100D02*
X132556000Y-95375100D01*
X132556000Y-92275100D02*
X130756000Y-92275100D01*
X132556000Y-92275100D02*
X132556000Y-95375100D01*
X139787000Y-102656000D02*
X139787000Y-112456000D01*
X142987000Y-102656000D02*
X139787000Y-102656000D01*
X142987000Y-112456000D02*
X142987000Y-102656000D01*
X139787000Y-112456000D02*
X142987000Y-112456000D01*
X111294000Y-96258500D02*
X107694000Y-96258500D01*
X111294000Y-92458500D02*
X111294000Y-96258500D01*
X107694000Y-92458500D02*
X111294000Y-92458500D01*
X107694000Y-96258500D02*
X107694000Y-92458500D01*
X102173000Y-109984000D02*
X102173000Y-115584000D01*
X102173000Y-115584000D02*
X114273000Y-115584000D01*
X114273000Y-115584000D02*
X114273000Y-109984000D01*
X114273000Y-109984000D02*
X102173000Y-109984000D01*
X134235000Y-109989000D02*
X122135000Y-109989000D01*
X134235000Y-115589000D02*
X134235000Y-109989000D01*
X122135000Y-115589000D02*
X134235000Y-115589000D01*
X122135000Y-109989000D02*
X122135000Y-115589000D01*
M02*
