M48
; DRILL file {KiCad 5.1.6-c6e7f7d~87~ubuntu18.04.1} date Wed Oct 14 05:15:11 2020
; FORMAT={3:3/ absolute / metric / suppress leading zeros}
; #@! TF.CreationDate,2020-10-14T05:15:11+05:30
; #@! TF.GenerationSoftware,Kicad,Pcbnew,5.1.6-c6e7f7d~87~ubuntu18.04.1
FMAT,2
METRIC,TZ
T1C0.400
T2C0.762
T3C0.800
T4C1.000
%
G90
G05
T1
X96271Y-101625
X103498Y-91090
X105857Y-73488
X107550Y-97238
X108181Y-80790
X108989Y-80452
X109242Y-109475
X111643Y-81518
X112111Y-66848
X112998Y-81307
X113003Y-82148
X113203Y-79850
X113474Y-80651
X116666Y-86142
X117206Y-72458
X117727Y-85008
X118001Y-79548
X118136Y-95308
X118418Y-87787
X118536Y-80199
X118748Y-82667
X119155Y-74432
X119496Y-77353
X119699Y-82808
X119866Y-80954
X119873Y-74017
X120153Y-89677
X120720Y-89112
X121177Y-74818
X121286Y-88546
X121795Y-80047
X122967Y-74751
X123373Y-80772
X123395Y-83879
X124653Y-78589
X125456Y-83035
X125457Y-84590
X125986Y-77141
X126075Y-74513
X126085Y-75865
X126091Y-67295
X127294Y-85631
X128067Y-70924
X128886Y-84290
X130104Y-88672
X139220Y-109524
T2
X95265Y-67843
T3
X125735Y-112789
X130615Y-112789
X105773Y-112784
X110653Y-112784
T4
X140757Y-85956
X140757Y-88496
X140757Y-91036
X140757Y-93576
X140757Y-96116
X140757Y-98656
X105584Y-68613
X108124Y-68613
X110664Y-68613
X113204Y-68613
X115744Y-68613
X118284Y-68613
X120824Y-68613
X123364Y-68613
T0
M30
