G04 #@! TF.GenerationSoftware,KiCad,Pcbnew,5.1.7-a382d34a8~88~ubuntu18.04.1*
G04 #@! TF.CreationDate,2021-11-17T17:12:46+05:30*
G04 #@! TF.ProjectId,BackEnd_HeavyDevice_v5,4261636b-456e-4645-9f48-656176794465,rev?*
G04 #@! TF.SameCoordinates,Original*
G04 #@! TF.FileFunction,OtherDrawing,Comment*
%FSLAX46Y46*%
G04 Gerber Fmt 4.6, Leading zero omitted, Abs format (unit mm)*
G04 Created by KiCad (PCBNEW 5.1.7-a382d34a8~88~ubuntu18.04.1) date 2021-11-17 17:12:46*
%MOMM*%
%LPD*%
G01*
G04 APERTURE LIST*
%ADD10C,0.150000*%
%ADD11C,0.100000*%
%ADD12C,0.050000*%
G04 APERTURE END LIST*
D10*
X126807715Y-142814355D02*
X127426762Y-142813449D01*
X127093987Y-143194889D01*
X127236844Y-143194680D01*
X127332152Y-143242159D01*
X127379840Y-143289709D01*
X127427599Y-143384877D01*
X127427947Y-143622972D01*
X127380467Y-143718280D01*
X127332918Y-143765968D01*
X127237750Y-143813727D01*
X126952036Y-143814145D01*
X126856728Y-143766665D01*
X126809039Y-143719116D01*
X127904416Y-143812751D02*
X128094892Y-143812472D01*
X128190060Y-143764714D01*
X128237609Y-143717025D01*
X128332638Y-143574029D01*
X128379979Y-143383483D01*
X128379421Y-143002531D01*
X128331663Y-142907363D01*
X128283974Y-142859814D01*
X128188666Y-142812334D01*
X127998190Y-142812613D01*
X127903022Y-142860371D01*
X127855473Y-142908060D01*
X127807993Y-143003368D01*
X127808342Y-143241463D01*
X127856100Y-143336631D01*
X127903789Y-143384180D01*
X127999096Y-143431660D01*
X128189572Y-143431381D01*
X128284741Y-143383623D01*
X128332290Y-143335934D01*
X128379769Y-143240626D01*
X128809037Y-143716189D02*
X128856726Y-143763739D01*
X128809177Y-143811427D01*
X128761488Y-143763878D01*
X128809037Y-143716189D01*
X128809177Y-143811427D01*
X129332986Y-143810661D02*
X129523462Y-143810382D01*
X129618630Y-143762624D01*
X129666179Y-143714935D01*
X129761208Y-143571939D01*
X129808548Y-143381393D01*
X129807991Y-143000441D01*
X129760233Y-142905273D01*
X129712544Y-142857723D01*
X129617236Y-142810244D01*
X129426760Y-142810522D01*
X129331592Y-142858281D01*
X129284043Y-142905970D01*
X129236563Y-143001277D01*
X129236911Y-143239372D01*
X129284670Y-143334540D01*
X129332358Y-143382090D01*
X129427666Y-143429569D01*
X129618142Y-143429291D01*
X129713310Y-143381532D01*
X129760860Y-143333844D01*
X129808339Y-143238536D01*
X130188804Y-142904646D02*
X130236353Y-142856957D01*
X130331521Y-142809199D01*
X130569616Y-142808850D01*
X130664924Y-142856330D01*
X130712613Y-142903879D01*
X130760371Y-142999047D01*
X130760510Y-143094285D01*
X130713100Y-143237212D01*
X130142509Y-143809476D01*
X130761555Y-143808570D01*
X131617722Y-143140650D02*
X131618697Y-143807316D01*
X131379069Y-142760047D02*
X131142020Y-143474680D01*
X131761067Y-143473774D01*
X132904410Y-143805435D02*
X132903435Y-143138769D01*
X132903574Y-143234007D02*
X132951123Y-143186318D01*
X133046292Y-143138560D01*
X133189149Y-143138351D01*
X133284456Y-143185830D01*
X133332215Y-143280999D01*
X133332981Y-143804808D01*
X133332215Y-143280999D02*
X133379694Y-143185691D01*
X133474863Y-143137933D01*
X133617720Y-143137724D01*
X133713027Y-143185203D01*
X133760786Y-143280372D01*
X133761552Y-143804181D01*
X134237742Y-143803484D02*
X134236767Y-143136818D01*
X134236906Y-143232056D02*
X134284455Y-143184367D01*
X134379624Y-143136609D01*
X134522481Y-143136400D01*
X134617788Y-143183879D01*
X134665547Y-143279048D01*
X134666313Y-143802857D01*
X134665547Y-143279048D02*
X134713026Y-143183740D01*
X134808195Y-143135982D01*
X134951052Y-143135773D01*
X135046359Y-143183252D01*
X135094118Y-143278420D01*
X135094884Y-143802229D01*
X150958947Y-142026633D02*
X111035227Y-142085053D01*
X150954740Y-139151360D02*
X150959805Y-142613053D01*
X111031020Y-139209780D02*
X111036085Y-142671473D01*
X111035227Y-142085053D02*
X112160871Y-141496984D01*
X111035227Y-142085053D02*
X112162588Y-142669825D01*
X150958947Y-142026633D02*
X149831586Y-141441861D01*
X150958947Y-142026633D02*
X149833303Y-142614702D01*
X156485903Y-120594951D02*
X156486879Y-119975905D01*
X156867306Y-120309838D01*
X156867531Y-120166981D01*
X156915300Y-120071818D01*
X156962994Y-120024274D01*
X157058307Y-119976805D01*
X157296402Y-119977180D01*
X157391565Y-120024950D01*
X157439109Y-120072644D01*
X157486578Y-120167957D01*
X157486127Y-120453671D01*
X157438358Y-120548833D01*
X157390664Y-120596377D01*
X156916351Y-119405152D02*
X156868581Y-119500315D01*
X156820887Y-119547859D01*
X156725574Y-119595328D01*
X156677955Y-119595253D01*
X156582793Y-119547484D01*
X156535249Y-119499790D01*
X156487780Y-119404477D01*
X156488080Y-119214001D01*
X156535849Y-119118838D01*
X156583543Y-119071294D01*
X156678856Y-119023825D01*
X156726475Y-119023900D01*
X156821638Y-119071669D01*
X156869182Y-119119363D01*
X156916651Y-119214676D01*
X156916351Y-119405152D01*
X156963819Y-119500465D01*
X157011363Y-119548159D01*
X157106526Y-119595928D01*
X157297002Y-119596229D01*
X157392315Y-119548760D01*
X157440009Y-119501216D01*
X157487778Y-119406053D01*
X157488079Y-119215577D01*
X157440610Y-119120264D01*
X157393066Y-119072570D01*
X157297903Y-119024801D01*
X157107427Y-119024500D01*
X157012114Y-119071969D01*
X156964420Y-119119513D01*
X156916651Y-119214676D01*
X157393816Y-118596380D02*
X157441510Y-118548836D01*
X157489054Y-118596530D01*
X157441360Y-118644074D01*
X157393816Y-118596380D01*
X157489054Y-118596530D01*
X156490482Y-117690193D02*
X156490181Y-117880669D01*
X156537650Y-117975982D01*
X156585194Y-118023676D01*
X156727901Y-118119139D01*
X156918302Y-118167058D01*
X157299254Y-118167659D01*
X157394567Y-118120190D01*
X157442261Y-118072646D01*
X157490030Y-117977483D01*
X157490330Y-117787007D01*
X157442861Y-117691694D01*
X157395317Y-117644000D01*
X157300155Y-117596231D01*
X157062060Y-117595856D01*
X156966747Y-117643325D01*
X156919053Y-117690869D01*
X156871283Y-117786031D01*
X156870983Y-117976507D01*
X156918452Y-118071820D01*
X156965996Y-118119515D01*
X157061159Y-118167284D01*
X156491157Y-117261622D02*
X156492208Y-116594956D01*
X157491531Y-117025103D01*
X156492658Y-116309242D02*
X156493709Y-115642577D01*
X157493032Y-116072724D01*
X157495509Y-114501297D02*
X156828843Y-114500246D01*
X156924081Y-114500396D02*
X156876537Y-114452702D01*
X156829068Y-114357389D01*
X156829294Y-114214532D01*
X156877063Y-114119369D01*
X156972376Y-114071900D01*
X157496185Y-114072726D01*
X156972376Y-114071900D02*
X156877213Y-114024131D01*
X156829744Y-113928818D01*
X156829969Y-113785961D01*
X156877738Y-113690798D01*
X156973051Y-113643330D01*
X157496860Y-113644155D01*
X157497611Y-113167965D02*
X156830945Y-113166915D01*
X156926183Y-113167065D02*
X156878639Y-113119371D01*
X156831170Y-113024058D01*
X156831395Y-112881201D01*
X156879164Y-112786038D01*
X156974477Y-112738569D01*
X157498286Y-112739394D01*
X156974477Y-112738569D02*
X156879314Y-112690800D01*
X156831845Y-112595487D01*
X156832071Y-112452630D01*
X156879840Y-112357467D01*
X156975153Y-112309998D01*
X157498962Y-112310824D01*
X155709649Y-135741585D02*
X155770609Y-97065005D01*
X154792680Y-135740140D02*
X156296069Y-135742510D01*
X154853640Y-97063560D02*
X156357029Y-97065930D01*
X155770609Y-97065005D02*
X156355253Y-98192432D01*
X155770609Y-97065005D02*
X155182413Y-98190583D01*
X155709649Y-135741585D02*
X156297845Y-134616007D01*
X155709649Y-135741585D02*
X155125005Y-134614158D01*
D11*
X119866088Y-106428862D02*
X119699421Y-106428862D01*
X119627993Y-106743148D02*
X119866088Y-106743148D01*
X119866088Y-106143148D01*
X119627993Y-106143148D01*
X119413707Y-106343148D02*
X119413707Y-106743148D01*
X119413707Y-106400291D02*
X119389898Y-106371720D01*
X119342279Y-106343148D01*
X119270850Y-106343148D01*
X119223231Y-106371720D01*
X119199421Y-106428862D01*
X119199421Y-106743148D01*
X118770850Y-106714577D02*
X118818469Y-106743148D01*
X118913707Y-106743148D01*
X118961326Y-106714577D01*
X118985136Y-106657434D01*
X118985136Y-106428862D01*
X118961326Y-106371720D01*
X118913707Y-106343148D01*
X118818469Y-106343148D01*
X118770850Y-106371720D01*
X118747040Y-106428862D01*
X118747040Y-106486005D01*
X118985136Y-106543148D01*
X118532755Y-106743148D02*
X118532755Y-106343148D01*
X118532755Y-106457434D02*
X118508945Y-106400291D01*
X118485136Y-106371720D01*
X118437517Y-106343148D01*
X118389898Y-106343148D01*
X118008945Y-106343148D02*
X118008945Y-106828862D01*
X118032755Y-106886005D01*
X118056564Y-106914577D01*
X118104183Y-106943148D01*
X118175612Y-106943148D01*
X118223231Y-106914577D01*
X118008945Y-106714577D02*
X118056564Y-106743148D01*
X118151802Y-106743148D01*
X118199421Y-106714577D01*
X118223231Y-106686005D01*
X118247040Y-106628862D01*
X118247040Y-106457434D01*
X118223231Y-106400291D01*
X118199421Y-106371720D01*
X118151802Y-106343148D01*
X118056564Y-106343148D01*
X118008945Y-106371720D01*
X117818469Y-106343148D02*
X117699421Y-106743148D01*
X117580374Y-106343148D02*
X117699421Y-106743148D01*
X117747040Y-106886005D01*
X117770850Y-106914577D01*
X117818469Y-106943148D01*
X117508945Y-106800291D02*
X117127993Y-106800291D01*
X117032755Y-106714577D02*
X116961326Y-106743148D01*
X116842279Y-106743148D01*
X116794660Y-106714577D01*
X116770850Y-106686005D01*
X116747040Y-106628862D01*
X116747040Y-106571720D01*
X116770850Y-106514577D01*
X116794660Y-106486005D01*
X116842279Y-106457434D01*
X116937517Y-106428862D01*
X116985136Y-106400291D01*
X117008945Y-106371720D01*
X117032755Y-106314577D01*
X117032755Y-106257434D01*
X117008945Y-106200291D01*
X116985136Y-106171720D01*
X116937517Y-106143148D01*
X116818469Y-106143148D01*
X116747040Y-106171720D01*
X116342279Y-106714577D02*
X116389898Y-106743148D01*
X116485136Y-106743148D01*
X116532755Y-106714577D01*
X116556564Y-106657434D01*
X116556564Y-106428862D01*
X116532755Y-106371720D01*
X116485136Y-106343148D01*
X116389898Y-106343148D01*
X116342279Y-106371720D01*
X116318469Y-106428862D01*
X116318469Y-106486005D01*
X116556564Y-106543148D01*
X116104183Y-106343148D02*
X116104183Y-106743148D01*
X116104183Y-106400291D02*
X116080374Y-106371720D01*
X116032755Y-106343148D01*
X115961326Y-106343148D01*
X115913707Y-106371720D01*
X115889898Y-106428862D01*
X115889898Y-106743148D01*
X115675612Y-106714577D02*
X115627993Y-106743148D01*
X115532755Y-106743148D01*
X115485136Y-106714577D01*
X115461326Y-106657434D01*
X115461326Y-106628862D01*
X115485136Y-106571720D01*
X115532755Y-106543148D01*
X115604183Y-106543148D01*
X115651802Y-106514577D01*
X115675612Y-106457434D01*
X115675612Y-106428862D01*
X115651802Y-106371720D01*
X115604183Y-106343148D01*
X115532755Y-106343148D01*
X115485136Y-106371720D01*
X115175612Y-106743148D02*
X115223231Y-106714577D01*
X115247040Y-106686005D01*
X115270850Y-106628862D01*
X115270850Y-106457434D01*
X115247040Y-106400291D01*
X115223231Y-106371720D01*
X115175612Y-106343148D01*
X115104183Y-106343148D01*
X115056564Y-106371720D01*
X115032755Y-106400291D01*
X115008945Y-106457434D01*
X115008945Y-106628862D01*
X115032755Y-106686005D01*
X115056564Y-106714577D01*
X115104183Y-106743148D01*
X115175612Y-106743148D01*
X114794660Y-106743148D02*
X114794660Y-106343148D01*
X114794660Y-106457434D02*
X114770850Y-106400291D01*
X114747040Y-106371720D01*
X114699421Y-106343148D01*
X114651802Y-106343148D01*
X117428959Y-108766968D02*
X117333720Y-108766968D01*
X117286101Y-108795540D01*
X117238482Y-108852682D01*
X117214673Y-108966968D01*
X117214673Y-109166968D01*
X117238482Y-109281254D01*
X117286101Y-109338397D01*
X117333720Y-109366968D01*
X117428959Y-109366968D01*
X117476578Y-109338397D01*
X117524197Y-109281254D01*
X117548006Y-109166968D01*
X117548006Y-108966968D01*
X117524197Y-108852682D01*
X117476578Y-108795540D01*
X117428959Y-108766968D01*
X117000387Y-108966968D02*
X117000387Y-109566968D01*
X117000387Y-108995540D02*
X116952768Y-108966968D01*
X116857530Y-108966968D01*
X116809911Y-108995540D01*
X116786101Y-109024111D01*
X116762292Y-109081254D01*
X116762292Y-109252682D01*
X116786101Y-109309825D01*
X116809911Y-109338397D01*
X116857530Y-109366968D01*
X116952768Y-109366968D01*
X117000387Y-109338397D01*
X116619435Y-108966968D02*
X116428959Y-108966968D01*
X116548006Y-108766968D02*
X116548006Y-109281254D01*
X116524197Y-109338397D01*
X116476578Y-109366968D01*
X116428959Y-109366968D01*
X116190863Y-109366968D02*
X116238482Y-109338397D01*
X116262292Y-109309825D01*
X116286101Y-109252682D01*
X116286101Y-109081254D01*
X116262292Y-109024111D01*
X116238482Y-108995540D01*
X116190863Y-108966968D01*
X116119435Y-108966968D01*
X116071816Y-108995540D01*
X116048006Y-109024111D01*
X116024197Y-109081254D01*
X116024197Y-109252682D01*
X116048006Y-109309825D01*
X116071816Y-109338397D01*
X116119435Y-109366968D01*
X116190863Y-109366968D01*
X115809911Y-109138397D02*
X115428959Y-109138397D01*
X115190863Y-109366968D02*
X115190863Y-108766968D01*
X114952768Y-108966968D02*
X114952768Y-109366968D01*
X114952768Y-109024111D02*
X114928959Y-108995540D01*
X114881340Y-108966968D01*
X114809911Y-108966968D01*
X114762292Y-108995540D01*
X114738482Y-109052682D01*
X114738482Y-109366968D01*
X116155695Y-111456828D02*
X115846171Y-111456828D01*
X116012838Y-111685400D01*
X115941409Y-111685400D01*
X115893790Y-111713971D01*
X115869980Y-111742542D01*
X115846171Y-111799685D01*
X115846171Y-111942542D01*
X115869980Y-111999685D01*
X115893790Y-112028257D01*
X115941409Y-112056828D01*
X116084266Y-112056828D01*
X116131885Y-112028257D01*
X116155695Y-111999685D01*
X115631885Y-111999685D02*
X115608076Y-112028257D01*
X115631885Y-112056828D01*
X115655695Y-112028257D01*
X115631885Y-111999685D01*
X115631885Y-112056828D01*
X115441409Y-111456828D02*
X115131885Y-111456828D01*
X115298552Y-111685400D01*
X115227123Y-111685400D01*
X115179504Y-111713971D01*
X115155695Y-111742542D01*
X115131885Y-111799685D01*
X115131885Y-111942542D01*
X115155695Y-111999685D01*
X115179504Y-112028257D01*
X115227123Y-112056828D01*
X115369980Y-112056828D01*
X115417600Y-112028257D01*
X115441409Y-111999685D01*
X114989028Y-111456828D02*
X114822361Y-112056828D01*
X114655695Y-111456828D01*
X115197878Y-113895228D02*
X115435973Y-113895228D01*
X115459782Y-114180942D01*
X115435973Y-114152371D01*
X115388354Y-114123800D01*
X115269306Y-114123800D01*
X115221687Y-114152371D01*
X115197878Y-114180942D01*
X115174068Y-114238085D01*
X115174068Y-114380942D01*
X115197878Y-114438085D01*
X115221687Y-114466657D01*
X115269306Y-114495228D01*
X115388354Y-114495228D01*
X115435973Y-114466657D01*
X115459782Y-114438085D01*
X115031211Y-113895228D02*
X114864544Y-114495228D01*
X114697878Y-113895228D01*
X115707112Y-116468880D02*
X115754731Y-116440308D01*
X115826160Y-116440308D01*
X115897588Y-116468880D01*
X115945207Y-116526022D01*
X115969017Y-116583165D01*
X115992826Y-116697451D01*
X115992826Y-116783165D01*
X115969017Y-116897451D01*
X115945207Y-116954594D01*
X115897588Y-117011737D01*
X115826160Y-117040308D01*
X115778540Y-117040308D01*
X115707112Y-117011737D01*
X115683302Y-116983165D01*
X115683302Y-116783165D01*
X115778540Y-116783165D01*
X115469017Y-117040308D02*
X115469017Y-116440308D01*
X115183302Y-117040308D01*
X115183302Y-116440308D01*
X114945207Y-117040308D02*
X114945207Y-116440308D01*
X114826160Y-116440308D01*
X114754731Y-116468880D01*
X114707112Y-116526022D01*
X114683302Y-116583165D01*
X114659493Y-116697451D01*
X114659493Y-116783165D01*
X114683302Y-116897451D01*
X114707112Y-116954594D01*
X114754731Y-117011737D01*
X114826160Y-117040308D01*
X114945207Y-117040308D01*
X116072361Y-104403808D02*
X116072361Y-103803808D01*
X115953314Y-103803808D01*
X115881885Y-103832380D01*
X115834266Y-103889522D01*
X115810457Y-103946665D01*
X115786647Y-104060951D01*
X115786647Y-104146665D01*
X115810457Y-104260951D01*
X115834266Y-104318094D01*
X115881885Y-104375237D01*
X115953314Y-104403808D01*
X116072361Y-104403808D01*
X115596171Y-104375237D02*
X115524742Y-104403808D01*
X115405695Y-104403808D01*
X115358076Y-104375237D01*
X115334266Y-104346665D01*
X115310457Y-104289522D01*
X115310457Y-104232380D01*
X115334266Y-104175237D01*
X115358076Y-104146665D01*
X115405695Y-104118094D01*
X115500933Y-104089522D01*
X115548552Y-104060951D01*
X115572361Y-104032380D01*
X115596171Y-103975237D01*
X115596171Y-103918094D01*
X115572361Y-103860951D01*
X115548552Y-103832380D01*
X115500933Y-103803808D01*
X115381885Y-103803808D01*
X115310457Y-103832380D01*
X115143790Y-103803808D02*
X115024742Y-104403808D01*
X114929504Y-103975237D01*
X114834266Y-104403808D01*
X114715219Y-103803808D01*
D12*
X113284000Y-126187200D02*
X115824000Y-126187200D01*
X114554000Y-127457200D02*
X114554000Y-124917200D01*
X115945920Y-101513640D02*
X118485920Y-101513640D01*
X117215920Y-102783640D02*
X117215920Y-100243640D01*
M02*
