G04 #@! TF.GenerationSoftware,KiCad,Pcbnew,5.1.7-a382d34a8~88~ubuntu18.04.1*
G04 #@! TF.CreationDate,2021-11-17T17:12:46+05:30*
G04 #@! TF.ProjectId,BackEnd_HeavyDevice_v5,4261636b-456e-4645-9f48-656176794465,rev?*
G04 #@! TF.SameCoordinates,Original*
G04 #@! TF.FileFunction,Other,Fab,Bot*
%FSLAX46Y46*%
G04 Gerber Fmt 4.6, Leading zero omitted, Abs format (unit mm)*
G04 Created by KiCad (PCBNEW 5.1.7-a382d34a8~88~ubuntu18.04.1) date 2021-11-17 17:12:46*
%MOMM*%
%LPD*%
G01*
G04 APERTURE LIST*
%ADD10C,0.100000*%
%ADD11C,0.127000*%
%ADD12C,0.200000*%
%ADD13C,0.150000*%
%ADD14C,0.080000*%
G04 APERTURE END LIST*
D10*
X136134000Y-105982000D02*
X138134000Y-105982000D01*
X136134000Y-104732000D02*
X136134000Y-105982000D01*
X138134000Y-104732000D02*
X136134000Y-104732000D01*
X138134000Y-105982000D02*
X138134000Y-104732000D01*
X135726000Y-118699000D02*
X137726000Y-118699000D01*
X135726000Y-117449000D02*
X135726000Y-118699000D01*
X137726000Y-117449000D02*
X135726000Y-117449000D01*
X137726000Y-118699000D02*
X137726000Y-117449000D01*
X136224000Y-127836000D02*
X138224000Y-127836000D01*
X136224000Y-126586000D02*
X136224000Y-127836000D01*
X138224000Y-126586000D02*
X136224000Y-126586000D01*
X138224000Y-127836000D02*
X138224000Y-126586000D01*
D11*
X138625000Y-125190000D02*
X138625000Y-120290000D01*
X134725000Y-125190000D02*
X134725000Y-120290000D01*
X134725000Y-120290000D02*
X138625000Y-120290000D01*
X134725000Y-125190000D02*
X138625000Y-125190000D01*
D12*
X132711000Y-124610000D02*
G75*
G03*
X132711000Y-124610000I-100000J0D01*
G01*
D10*
X120564000Y-115821000D02*
X118564000Y-115821000D01*
X120564000Y-117071000D02*
X120564000Y-115821000D01*
X118564000Y-117071000D02*
X120564000Y-117071000D01*
X118564000Y-115821000D02*
X118564000Y-117071000D01*
X120255000Y-112126000D02*
X120255000Y-113376000D01*
X120255000Y-113376000D02*
X122255000Y-113376000D01*
X122255000Y-113376000D02*
X122255000Y-112126000D01*
X122255000Y-112126000D02*
X120255000Y-112126000D01*
X125106000Y-134758000D02*
X116606000Y-134758000D01*
X116606000Y-134758000D02*
X116606000Y-132282000D01*
X116606000Y-132282000D02*
X125106000Y-132282000D01*
X125106000Y-132282000D02*
X125106000Y-134758000D01*
X140083000Y-131317000D02*
X140083000Y-129317000D01*
X140083000Y-129317000D02*
X138783000Y-129317000D01*
X138783000Y-129317000D02*
X138783000Y-131317000D01*
X138783000Y-131317000D02*
X140083000Y-131317000D01*
X139633000Y-130117000D02*
X139433000Y-130417000D01*
X139433000Y-130417000D02*
X139233000Y-130117000D01*
X139233000Y-130117000D02*
X139633000Y-130117000D01*
X139633000Y-130417000D02*
X139233000Y-130417000D01*
X139433000Y-130417000D02*
X139433000Y-130617000D01*
X139433000Y-130117000D02*
X139433000Y-129917000D01*
X135261000Y-102532000D02*
X133261000Y-102532000D01*
X133261000Y-102532000D02*
X133261000Y-103772000D01*
X133261000Y-103772000D02*
X135261000Y-103772000D01*
X135261000Y-103772000D02*
X135261000Y-102532000D01*
X129259000Y-106094000D02*
X129259000Y-104854000D01*
X127259000Y-106094000D02*
X129259000Y-106094000D01*
X127259000Y-104854000D02*
X127259000Y-106094000D01*
X129259000Y-104854000D02*
X127259000Y-104854000D01*
X132068000Y-130018000D02*
X134068000Y-130018000D01*
X134068000Y-130018000D02*
X134068000Y-128778000D01*
X134068000Y-128778000D02*
X132068000Y-128778000D01*
X132068000Y-128778000D02*
X132068000Y-130018000D01*
X138496000Y-115760000D02*
X128336000Y-115760000D01*
X138496000Y-108020000D02*
X138496000Y-115760000D01*
X128336000Y-108020000D02*
X138496000Y-108020000D01*
X128336000Y-115760000D02*
X128336000Y-108020000D01*
X130241000Y-114700000D02*
X131241000Y-115700000D01*
X130241000Y-108080000D02*
X130241000Y-114700000D01*
X136591000Y-108080000D02*
X130241000Y-108080000D01*
X136591000Y-115700000D02*
X136591000Y-108080000D01*
X131241000Y-115700000D02*
X136591000Y-115700000D01*
X126407000Y-100574000D02*
X125757000Y-101224000D01*
X125757000Y-102374000D02*
X125757000Y-101224000D01*
X126407000Y-100574000D02*
X128857000Y-100574000D01*
X128857000Y-102374000D02*
X128857000Y-100574000D01*
X125757000Y-102374000D02*
X128857000Y-102374000D01*
X122046000Y-127132000D02*
X127396000Y-127132000D01*
X127396000Y-127132000D02*
X127396000Y-119512000D01*
X127396000Y-119512000D02*
X121046000Y-119512000D01*
X121046000Y-119512000D02*
X121046000Y-126132000D01*
X121046000Y-126132000D02*
X122046000Y-127132000D01*
X119141000Y-127192000D02*
X119141000Y-119452000D01*
X119141000Y-119452000D02*
X129301000Y-119452000D01*
X129301000Y-119452000D02*
X129301000Y-127192000D01*
X129301000Y-127192000D02*
X119141000Y-127192000D01*
X114785000Y-103332000D02*
X114150000Y-102697000D01*
X114785000Y-117937000D02*
X114785000Y-103332000D01*
X112245000Y-117937000D02*
X114785000Y-117937000D01*
X112245000Y-102697000D02*
X112245000Y-117937000D01*
X114150000Y-102697000D02*
X112245000Y-102697000D01*
D13*
X138872095Y-106584619D02*
X138824476Y-106537000D01*
X138729238Y-106489380D01*
X138491142Y-106489380D01*
X138395904Y-106537000D01*
X138348285Y-106584619D01*
X138300666Y-106679857D01*
X138300666Y-106775095D01*
X138348285Y-106917952D01*
X138919714Y-107489380D01*
X138300666Y-107489380D01*
X137872095Y-107394142D02*
X137824476Y-107441761D01*
X137872095Y-107489380D01*
X137919714Y-107441761D01*
X137872095Y-107394142D01*
X137872095Y-107489380D01*
X137443523Y-106584619D02*
X137395904Y-106537000D01*
X137300666Y-106489380D01*
X137062571Y-106489380D01*
X136967333Y-106537000D01*
X136919714Y-106584619D01*
X136872095Y-106679857D01*
X136872095Y-106775095D01*
X136919714Y-106917952D01*
X137491142Y-107489380D01*
X136872095Y-107489380D01*
X136014952Y-106822714D02*
X136014952Y-107489380D01*
X136443523Y-106822714D02*
X136443523Y-107346523D01*
X136395904Y-107441761D01*
X136300666Y-107489380D01*
X136157809Y-107489380D01*
X136062571Y-107441761D01*
X136014952Y-107394142D01*
X135681619Y-106822714D02*
X135300666Y-106822714D01*
X135538761Y-107489380D02*
X135538761Y-106632238D01*
X135491142Y-106537000D01*
X135395904Y-106489380D01*
X135300666Y-106489380D01*
D14*
X137217333Y-105535571D02*
X137241142Y-105559380D01*
X137312571Y-105583190D01*
X137360190Y-105583190D01*
X137431619Y-105559380D01*
X137479238Y-105511761D01*
X137503047Y-105464142D01*
X137526857Y-105368904D01*
X137526857Y-105297476D01*
X137503047Y-105202238D01*
X137479238Y-105154619D01*
X137431619Y-105107000D01*
X137360190Y-105083190D01*
X137312571Y-105083190D01*
X137241142Y-105107000D01*
X137217333Y-105130809D01*
X137050666Y-105083190D02*
X136717333Y-105083190D01*
X136931619Y-105583190D01*
M02*
