G04 #@! TF.GenerationSoftware,KiCad,Pcbnew,5.1.7-a382d34a8~88~ubuntu18.04.1*
G04 #@! TF.CreationDate,2021-11-19T22:51:01+05:30*
G04 #@! TF.ProjectId,BackEnd_HeavyDevice_v5,4261636b-456e-4645-9f48-656176794465,rev?*
G04 #@! TF.SameCoordinates,Original*
G04 #@! TF.FileFunction,Paste,Bot*
G04 #@! TF.FilePolarity,Positive*
%FSLAX46Y46*%
G04 Gerber Fmt 4.6, Leading zero omitted, Abs format (unit mm)*
G04 Created by KiCad (PCBNEW 5.1.7-a382d34a8~88~ubuntu18.04.1) date 2021-11-19 22:51:01*
%MOMM*%
%LPD*%
G01*
G04 APERTURE LIST*
%ADD10R,0.900000X0.800000*%
%ADD11R,1.500000X1.300000*%
%ADD12R,3.100000X1.600000*%
%ADD13R,0.650000X1.560000*%
G04 APERTURE END LIST*
G36*
G01*
X136684000Y-104882000D02*
X136684000Y-105832000D01*
G75*
G02*
X136434000Y-106082000I-250000J0D01*
G01*
X135759000Y-106082000D01*
G75*
G02*
X135509000Y-105832000I0J250000D01*
G01*
X135509000Y-104882000D01*
G75*
G02*
X135759000Y-104632000I250000J0D01*
G01*
X136434000Y-104632000D01*
G75*
G02*
X136684000Y-104882000I0J-250000D01*
G01*
G37*
G36*
G01*
X138759000Y-104882000D02*
X138759000Y-105832000D01*
G75*
G02*
X138509000Y-106082000I-250000J0D01*
G01*
X137834000Y-106082000D01*
G75*
G02*
X137584000Y-105832000I0J250000D01*
G01*
X137584000Y-104882000D01*
G75*
G02*
X137834000Y-104632000I250000J0D01*
G01*
X138509000Y-104632000D01*
G75*
G02*
X138759000Y-104882000I0J-250000D01*
G01*
G37*
G36*
G01*
X136276000Y-117599000D02*
X136276000Y-118549000D01*
G75*
G02*
X136026000Y-118799000I-250000J0D01*
G01*
X135351000Y-118799000D01*
G75*
G02*
X135101000Y-118549000I0J250000D01*
G01*
X135101000Y-117599000D01*
G75*
G02*
X135351000Y-117349000I250000J0D01*
G01*
X136026000Y-117349000D01*
G75*
G02*
X136276000Y-117599000I0J-250000D01*
G01*
G37*
G36*
G01*
X138351000Y-117599000D02*
X138351000Y-118549000D01*
G75*
G02*
X138101000Y-118799000I-250000J0D01*
G01*
X137426000Y-118799000D01*
G75*
G02*
X137176000Y-118549000I0J250000D01*
G01*
X137176000Y-117599000D01*
G75*
G02*
X137426000Y-117349000I250000J0D01*
G01*
X138101000Y-117349000D01*
G75*
G02*
X138351000Y-117599000I0J-250000D01*
G01*
G37*
G36*
G01*
X136774000Y-126736000D02*
X136774000Y-127686000D01*
G75*
G02*
X136524000Y-127936000I-250000J0D01*
G01*
X135849000Y-127936000D01*
G75*
G02*
X135599000Y-127686000I0J250000D01*
G01*
X135599000Y-126736000D01*
G75*
G02*
X135849000Y-126486000I250000J0D01*
G01*
X136524000Y-126486000D01*
G75*
G02*
X136774000Y-126736000I0J-250000D01*
G01*
G37*
G36*
G01*
X138849000Y-126736000D02*
X138849000Y-127686000D01*
G75*
G02*
X138599000Y-127936000I-250000J0D01*
G01*
X137924000Y-127936000D01*
G75*
G02*
X137674000Y-127686000I0J250000D01*
G01*
X137674000Y-126736000D01*
G75*
G02*
X137924000Y-126486000I250000J0D01*
G01*
X138599000Y-126486000D01*
G75*
G02*
X138849000Y-126736000I0J-250000D01*
G01*
G37*
G36*
G01*
X138165000Y-124903000D02*
X138165000Y-124387000D01*
G75*
G02*
X138207000Y-124345000I42000J0D01*
G01*
X140093000Y-124345000D01*
G75*
G02*
X140135000Y-124387000I0J-42000D01*
G01*
X140135000Y-124903000D01*
G75*
G02*
X140093000Y-124945000I-42000J0D01*
G01*
X138207000Y-124945000D01*
G75*
G02*
X138165000Y-124903000I0J42000D01*
G01*
G37*
G36*
G01*
X138165000Y-123633000D02*
X138165000Y-123117000D01*
G75*
G02*
X138207000Y-123075000I42000J0D01*
G01*
X140093000Y-123075000D01*
G75*
G02*
X140135000Y-123117000I0J-42000D01*
G01*
X140135000Y-123633000D01*
G75*
G02*
X140093000Y-123675000I-42000J0D01*
G01*
X138207000Y-123675000D01*
G75*
G02*
X138165000Y-123633000I0J42000D01*
G01*
G37*
G36*
G01*
X138165000Y-122363000D02*
X138165000Y-121847000D01*
G75*
G02*
X138207000Y-121805000I42000J0D01*
G01*
X140093000Y-121805000D01*
G75*
G02*
X140135000Y-121847000I0J-42000D01*
G01*
X140135000Y-122363000D01*
G75*
G02*
X140093000Y-122405000I-42000J0D01*
G01*
X138207000Y-122405000D01*
G75*
G02*
X138165000Y-122363000I0J42000D01*
G01*
G37*
G36*
G01*
X138165000Y-121093000D02*
X138165000Y-120577000D01*
G75*
G02*
X138207000Y-120535000I42000J0D01*
G01*
X140093000Y-120535000D01*
G75*
G02*
X140135000Y-120577000I0J-42000D01*
G01*
X140135000Y-121093000D01*
G75*
G02*
X140093000Y-121135000I-42000J0D01*
G01*
X138207000Y-121135000D01*
G75*
G02*
X138165000Y-121093000I0J42000D01*
G01*
G37*
G36*
G01*
X133215000Y-121093000D02*
X133215000Y-120577000D01*
G75*
G02*
X133257000Y-120535000I42000J0D01*
G01*
X135143000Y-120535000D01*
G75*
G02*
X135185000Y-120577000I0J-42000D01*
G01*
X135185000Y-121093000D01*
G75*
G02*
X135143000Y-121135000I-42000J0D01*
G01*
X133257000Y-121135000D01*
G75*
G02*
X133215000Y-121093000I0J42000D01*
G01*
G37*
G36*
G01*
X133215000Y-122363000D02*
X133215000Y-121847000D01*
G75*
G02*
X133257000Y-121805000I42000J0D01*
G01*
X135143000Y-121805000D01*
G75*
G02*
X135185000Y-121847000I0J-42000D01*
G01*
X135185000Y-122363000D01*
G75*
G02*
X135143000Y-122405000I-42000J0D01*
G01*
X133257000Y-122405000D01*
G75*
G02*
X133215000Y-122363000I0J42000D01*
G01*
G37*
G36*
G01*
X133215000Y-123633000D02*
X133215000Y-123117000D01*
G75*
G02*
X133257000Y-123075000I42000J0D01*
G01*
X135143000Y-123075000D01*
G75*
G02*
X135185000Y-123117000I0J-42000D01*
G01*
X135185000Y-123633000D01*
G75*
G02*
X135143000Y-123675000I-42000J0D01*
G01*
X133257000Y-123675000D01*
G75*
G02*
X133215000Y-123633000I0J42000D01*
G01*
G37*
G36*
G01*
X133215000Y-124903000D02*
X133215000Y-124387000D01*
G75*
G02*
X133257000Y-124345000I42000J0D01*
G01*
X135143000Y-124345000D01*
G75*
G02*
X135185000Y-124387000I0J-42000D01*
G01*
X135185000Y-124903000D01*
G75*
G02*
X135143000Y-124945000I-42000J0D01*
G01*
X133257000Y-124945000D01*
G75*
G02*
X133215000Y-124903000I0J42000D01*
G01*
G37*
G36*
G01*
X119964000Y-116896001D02*
X119964000Y-115995999D01*
G75*
G02*
X120213999Y-115746000I249999J0D01*
G01*
X120739001Y-115746000D01*
G75*
G02*
X120989000Y-115995999I0J-249999D01*
G01*
X120989000Y-116896001D01*
G75*
G02*
X120739001Y-117146000I-249999J0D01*
G01*
X120213999Y-117146000D01*
G75*
G02*
X119964000Y-116896001I0J249999D01*
G01*
G37*
G36*
G01*
X118139000Y-116896001D02*
X118139000Y-115995999D01*
G75*
G02*
X118388999Y-115746000I249999J0D01*
G01*
X118914001Y-115746000D01*
G75*
G02*
X119164000Y-115995999I0J-249999D01*
G01*
X119164000Y-116896001D01*
G75*
G02*
X118914001Y-117146000I-249999J0D01*
G01*
X118388999Y-117146000D01*
G75*
G02*
X118139000Y-116896001I0J249999D01*
G01*
G37*
G36*
G01*
X121655000Y-113201001D02*
X121655000Y-112300999D01*
G75*
G02*
X121904999Y-112051000I249999J0D01*
G01*
X122430001Y-112051000D01*
G75*
G02*
X122680000Y-112300999I0J-249999D01*
G01*
X122680000Y-113201001D01*
G75*
G02*
X122430001Y-113451000I-249999J0D01*
G01*
X121904999Y-113451000D01*
G75*
G02*
X121655000Y-113201001I0J249999D01*
G01*
G37*
G36*
G01*
X119830000Y-113201001D02*
X119830000Y-112300999D01*
G75*
G02*
X120079999Y-112051000I249999J0D01*
G01*
X120605001Y-112051000D01*
G75*
G02*
X120855000Y-112300999I0J-249999D01*
G01*
X120855000Y-113201001D01*
G75*
G02*
X120605001Y-113451000I-249999J0D01*
G01*
X120079999Y-113451000D01*
G75*
G02*
X119830000Y-113201001I0J249999D01*
G01*
G37*
D10*
X139433000Y-131587000D03*
X139433000Y-129047000D03*
D11*
X135611000Y-103152000D03*
X132911000Y-103152000D03*
X126909000Y-105474000D03*
X129609000Y-105474000D03*
X131718000Y-129398000D03*
X134418000Y-129398000D03*
D12*
X128971000Y-114430000D03*
X137861000Y-109350000D03*
X128971000Y-111890000D03*
X137861000Y-111890000D03*
X128971000Y-109350000D03*
X137861000Y-114430000D03*
D13*
X126357000Y-102824000D03*
X128257000Y-102824000D03*
X128257000Y-100124000D03*
X127307000Y-100124000D03*
X126357000Y-100124000D03*
D12*
X128666000Y-125862000D03*
X119776000Y-120782000D03*
X128666000Y-123322000D03*
X119776000Y-123322000D03*
X128666000Y-120782000D03*
X119776000Y-125862000D03*
M02*
