M48
; DRILL file {KiCad 5.1.6-c6e7f7d~87~ubuntu18.04.1} date Tue Oct 13 20:33:26 2020
; FORMAT={3:3/ absolute / metric / suppress leading zeros}
; #@! TF.CreationDate,2020-10-13T20:33:26+05:30
; #@! TF.GenerationSoftware,Kicad,Pcbnew,5.1.6-c6e7f7d~87~ubuntu18.04.1
FMAT,2
METRIC,TZ
T1C0.600
T2C0.800
T3C0.813
T4C1.000
T5C1.300
T6C1.500
T7C1.524
%
G90
G05
T1
X173835Y-47284
X176826Y-61565
X179205Y-51152
X180187Y-62768
X182885Y-62855
X189358Y-76535
X194090Y-68646
X194424Y-50387
X196993Y-77414
X202053Y-60093
X204293Y-70287
X205070Y-50419
X206884Y-66670
X208995Y-59591
X211086Y-72092
X215409Y-56246
X175264Y-49662
X177264Y-49662
X174160Y-55339
X174160Y-57339
X184063Y-60383
X186063Y-60383
X171412Y-89051
X172712Y-84051
X199400Y-64401
X199400Y-66401
T2
X188997Y-61206
X196497Y-61206
X172979Y-77683
X180479Y-77683
X199410Y-52857
X199410Y-60357
T3
X169738Y-45141
X170308Y-69141
X172278Y-45141
X173168Y-69141
X174818Y-45141
T4
X169515Y-79883
X169525Y-74803
X178460Y-44145
X181000Y-44145
X183540Y-44145
X186080Y-44145
X188620Y-44145
X191160Y-44145
X193700Y-44145
X196240Y-44145
X198780Y-44145
T5
X208886Y-85014
X213886Y-85014
X177179Y-85095
X182179Y-85095
X187964Y-85095
X192964Y-85095
X197964Y-85095
X202964Y-85095
T6
X208788Y-79306
X211894Y-43597
X168694Y-89159
T7
X183678Y-65132
X183678Y-78052
X186218Y-78052
X191298Y-78052
X193838Y-78052
X193858Y-65132
T0
M30
