G04 #@! TF.GenerationSoftware,KiCad,Pcbnew,5.1.6-c6e7f7d~87~ubuntu18.04.1*
G04 #@! TF.CreationDate,2020-10-13T20:33:34+05:30*
G04 #@! TF.ProjectId,BackEnd_4S_v1,4261636b-456e-4645-9f34-535f76312e6b,rev?*
G04 #@! TF.SameCoordinates,Original*
G04 #@! TF.FileFunction,Legend,Bot*
G04 #@! TF.FilePolarity,Positive*
%FSLAX46Y46*%
G04 Gerber Fmt 4.6, Leading zero omitted, Abs format (unit mm)*
G04 Created by KiCad (PCBNEW 5.1.6-c6e7f7d~87~ubuntu18.04.1) date 2020-10-13 20:33:34*
%MOMM*%
%LPD*%
G01*
G04 APERTURE LIST*
%ADD10C,0.150000*%
%ADD11C,0.120000*%
G04 APERTURE END LIST*
D10*
X167768000Y-42120700D02*
X176578000Y-42120700D01*
X167628000Y-71770700D02*
X167768000Y-42120700D01*
X176448000Y-71760700D02*
X167628000Y-71770700D01*
X176578000Y-42120700D02*
X176548000Y-71780700D01*
D11*
X173225000Y-50502900D02*
X173225000Y-51502900D01*
X171525000Y-51502900D02*
X171525000Y-50502900D01*
X203934000Y-65474700D02*
X205134000Y-65474700D01*
X205134000Y-63714700D02*
X203934000Y-63714700D01*
X181326000Y-63160400D02*
X181326000Y-75630400D01*
X173466000Y-63160400D02*
X181326000Y-63160400D01*
X173466000Y-75630400D02*
X173466000Y-63160400D01*
X181326000Y-75630400D02*
X173466000Y-75630400D01*
X181266000Y-66860400D02*
X181266000Y-68395400D01*
X173526000Y-66860400D02*
X181266000Y-66860400D01*
X173526000Y-71930400D02*
X173526000Y-66860400D01*
X181266000Y-71930400D02*
X173526000Y-71930400D01*
X181266000Y-70395400D02*
X181266000Y-71930400D01*
X181266000Y-68395400D02*
G75*
G03*
X181266000Y-70395400I0J-1000000D01*
G01*
X175773000Y-57011100D02*
X175773000Y-54561100D01*
X178993000Y-55211100D02*
X178993000Y-57011100D01*
X170886000Y-67347900D02*
X169286000Y-67347900D01*
X169286000Y-67347900D02*
X169286000Y-64747900D01*
X170886000Y-67347900D02*
X170886000Y-64747900D01*
X185905000Y-65382000D02*
X185905000Y-63782000D01*
X185905000Y-63782000D02*
X188505000Y-63782000D01*
X185905000Y-65382000D02*
X188505000Y-65382000D01*
X183475000Y-75229600D02*
X183475000Y-73629600D01*
X183475000Y-73629600D02*
X186075000Y-73629600D01*
X183475000Y-75229600D02*
X186075000Y-75229600D01*
X183576000Y-51800700D02*
X186176000Y-51800700D01*
X183576000Y-50200700D02*
X186176000Y-50200700D01*
X183576000Y-51800700D02*
X183576000Y-50200700D01*
X186791000Y-52468900D02*
X184191000Y-52468900D01*
X186791000Y-54068900D02*
X184191000Y-54068900D01*
X186791000Y-52468900D02*
X186791000Y-54068900D01*
X183552000Y-68750100D02*
X183552000Y-67150100D01*
X183552000Y-67150100D02*
X186152000Y-67150100D01*
X183552000Y-68750100D02*
X186152000Y-68750100D01*
X196159000Y-51866900D02*
X193559000Y-51866900D01*
X196159000Y-53466900D02*
X193559000Y-53466900D01*
X196159000Y-51866900D02*
X196159000Y-53466900D01*
X169416000Y-59535300D02*
X171016000Y-59535300D01*
X171016000Y-59535300D02*
X171016000Y-62135300D01*
X169416000Y-59535300D02*
X169416000Y-62135300D01*
X187488000Y-71511400D02*
X187488000Y-74111400D01*
X189088000Y-71511400D02*
X189088000Y-74111400D01*
X187488000Y-71511400D02*
X189088000Y-71511400D01*
D10*
X190644000Y-74554100D02*
X197264000Y-74554100D01*
X197264000Y-74554100D02*
X197264000Y-67574100D01*
X197264000Y-67574100D02*
X190644000Y-67564100D01*
X190644000Y-67564100D02*
X190644000Y-74554100D01*
X191234000Y-65644100D02*
X191234000Y-64034100D01*
X191234000Y-64034100D02*
X191974000Y-64034100D01*
X191974000Y-64034100D02*
X191974000Y-65644100D01*
X191964000Y-65644100D02*
X191234000Y-65644100D01*
X196544000Y-65674100D02*
X195814000Y-65674100D01*
X195814000Y-65664100D02*
X195814000Y-64054100D01*
X196544000Y-65674100D02*
X196544000Y-64064100D01*
X196544000Y-64024100D02*
X195814000Y-64024100D01*
X215781000Y-56803400D02*
X215051000Y-56803400D01*
X215781000Y-58453400D02*
X215781000Y-56843400D01*
X215051000Y-58443400D02*
X215051000Y-56833400D01*
X215781000Y-58453400D02*
X215051000Y-58453400D01*
X211201000Y-58423400D02*
X210471000Y-58423400D01*
X211211000Y-56813400D02*
X211211000Y-58423400D01*
X210471000Y-56813400D02*
X211211000Y-56813400D01*
X210471000Y-58423400D02*
X210471000Y-56813400D01*
X209881000Y-60343400D02*
X209881000Y-67333400D01*
X216501000Y-60353400D02*
X209881000Y-60343400D01*
X216501000Y-67333400D02*
X216501000Y-60353400D01*
X209881000Y-67333400D02*
X216501000Y-67333400D01*
X215653000Y-68753600D02*
X214923000Y-68753600D01*
X215653000Y-70403600D02*
X215653000Y-68793600D01*
X214923000Y-70393600D02*
X214923000Y-68783600D01*
X215653000Y-70403600D02*
X214923000Y-70403600D01*
X211073000Y-70373600D02*
X210343000Y-70373600D01*
X211083000Y-68763600D02*
X211083000Y-70373600D01*
X210343000Y-68763600D02*
X211083000Y-68763600D01*
X210343000Y-70373600D02*
X210343000Y-68763600D01*
X209753000Y-72293600D02*
X209753000Y-79283600D01*
X216373000Y-72303600D02*
X209753000Y-72293600D01*
X216373000Y-79283600D02*
X216373000Y-72303600D01*
X209753000Y-79283600D02*
X216373000Y-79283600D01*
X202290000Y-77840800D02*
X208910000Y-77840800D01*
X208910000Y-77840800D02*
X208910000Y-70860800D01*
X208910000Y-70860800D02*
X202290000Y-70850800D01*
X202290000Y-70850800D02*
X202290000Y-77840800D01*
X202880000Y-68930800D02*
X202880000Y-67320800D01*
X202880000Y-67320800D02*
X203620000Y-67320800D01*
X203620000Y-67320800D02*
X203620000Y-68930800D01*
X203610000Y-68930800D02*
X202880000Y-68930800D01*
X208190000Y-68960800D02*
X207460000Y-68960800D01*
X207460000Y-68950800D02*
X207460000Y-67340800D01*
X208190000Y-68960800D02*
X208190000Y-67350800D01*
X208190000Y-67310800D02*
X207460000Y-67310800D01*
D11*
X185079000Y-69269700D02*
X183879000Y-69269700D01*
X183879000Y-71029700D02*
X185079000Y-71029700D01*
X175940000Y-48078300D02*
X177140000Y-48078300D01*
X177140000Y-46318300D02*
X175940000Y-46318300D01*
X177138000Y-51588800D02*
X175938000Y-51588800D01*
X175938000Y-53348800D02*
X177138000Y-53348800D01*
X197766000Y-48503300D02*
X197766000Y-49703300D01*
X199526000Y-49703300D02*
X199526000Y-48503300D01*
X184020000Y-73201400D02*
X185220000Y-73201400D01*
X185220000Y-71441400D02*
X184020000Y-71441400D01*
X200159000Y-57776000D02*
X201359000Y-57776000D01*
X201359000Y-56016000D02*
X200159000Y-56016000D01*
X209934000Y-55215700D02*
X211134000Y-55215700D01*
X211134000Y-53455700D02*
X209934000Y-53455700D01*
X208365000Y-47452800D02*
X208365000Y-46252800D01*
X206605000Y-46252800D02*
X206605000Y-47452800D01*
X174988000Y-61159300D02*
X176188000Y-61159300D01*
X176188000Y-59399300D02*
X174988000Y-59399300D01*
X182206000Y-60878000D02*
X182206000Y-59678000D01*
X180446000Y-59678000D02*
X180446000Y-60878000D01*
D10*
X173288824Y-57374500D02*
X173288824Y-58184024D01*
X173241205Y-58279262D01*
X173193586Y-58326881D01*
X173098348Y-58374500D01*
X172907872Y-58374500D01*
X172812634Y-58326881D01*
X172765015Y-58279262D01*
X172717396Y-58184024D01*
X172717396Y-57374500D01*
X172288824Y-57469739D02*
X172241205Y-57422120D01*
X172145967Y-57374500D01*
X171907872Y-57374500D01*
X171812634Y-57422120D01*
X171765015Y-57469739D01*
X171717396Y-57564977D01*
X171717396Y-57660215D01*
X171765015Y-57803072D01*
X172336443Y-58374500D01*
X171717396Y-58374500D01*
X174248546Y-51279082D02*
X174296165Y-51326701D01*
X174439022Y-51374320D01*
X174534260Y-51374320D01*
X174677118Y-51326701D01*
X174772356Y-51231463D01*
X174819975Y-51136225D01*
X174867594Y-50945749D01*
X174867594Y-50802892D01*
X174819975Y-50612416D01*
X174772356Y-50517178D01*
X174677118Y-50421940D01*
X174534260Y-50374320D01*
X174439022Y-50374320D01*
X174296165Y-50421940D01*
X174248546Y-50469559D01*
X173915213Y-50374320D02*
X173248546Y-50374320D01*
X173677118Y-51374320D01*
X204586366Y-63279240D02*
X204919700Y-62803050D01*
X205157795Y-63279240D02*
X205157795Y-62279240D01*
X204776842Y-62279240D01*
X204681604Y-62326860D01*
X204633985Y-62374479D01*
X204586366Y-62469717D01*
X204586366Y-62612574D01*
X204633985Y-62707812D01*
X204681604Y-62755431D01*
X204776842Y-62803050D01*
X205157795Y-62803050D01*
X204253033Y-62279240D02*
X203586366Y-62279240D01*
X204014938Y-63279240D01*
X180328120Y-68727435D02*
X181137644Y-68727435D01*
X181232882Y-68775054D01*
X181280501Y-68822673D01*
X181328120Y-68917911D01*
X181328120Y-69108387D01*
X181280501Y-69203625D01*
X181232882Y-69251244D01*
X181137644Y-69298863D01*
X180328120Y-69298863D01*
X180328120Y-69679816D02*
X180328120Y-70298863D01*
X180709073Y-69965530D01*
X180709073Y-70108387D01*
X180756692Y-70203625D01*
X180804311Y-70251244D01*
X180899549Y-70298863D01*
X181137644Y-70298863D01*
X181232882Y-70251244D01*
X181280501Y-70203625D01*
X181328120Y-70108387D01*
X181328120Y-69822673D01*
X181280501Y-69727435D01*
X181232882Y-69679816D01*
X175297564Y-53541640D02*
X175297564Y-54351164D01*
X175249945Y-54446402D01*
X175202326Y-54494021D01*
X175107088Y-54541640D01*
X174916612Y-54541640D01*
X174821374Y-54494021D01*
X174773755Y-54446402D01*
X174726136Y-54351164D01*
X174726136Y-53541640D01*
X173821374Y-53874974D02*
X173821374Y-54541640D01*
X174059469Y-53494021D02*
X174297564Y-54208307D01*
X173678517Y-54208307D01*
X170958715Y-63888880D02*
X170958715Y-62888880D01*
X170720620Y-62888880D01*
X170577762Y-62936500D01*
X170482524Y-63031738D01*
X170434905Y-63126976D01*
X170387286Y-63317452D01*
X170387286Y-63460309D01*
X170434905Y-63650785D01*
X170482524Y-63746023D01*
X170577762Y-63841261D01*
X170720620Y-63888880D01*
X170958715Y-63888880D01*
X170006334Y-62984119D02*
X169958715Y-62936500D01*
X169863477Y-62888880D01*
X169625381Y-62888880D01*
X169530143Y-62936500D01*
X169482524Y-62984119D01*
X169434905Y-63079357D01*
X169434905Y-63174595D01*
X169482524Y-63317452D01*
X170053953Y-63888880D01*
X169434905Y-63888880D01*
X191694955Y-65232500D02*
X191694955Y-64232500D01*
X191456860Y-64232500D01*
X191314002Y-64280120D01*
X191218764Y-64375358D01*
X191171145Y-64470596D01*
X191123526Y-64661072D01*
X191123526Y-64803929D01*
X191171145Y-64994405D01*
X191218764Y-65089643D01*
X191314002Y-65184881D01*
X191456860Y-65232500D01*
X191694955Y-65232500D01*
X190790193Y-64232500D02*
X190171145Y-64232500D01*
X190504479Y-64613453D01*
X190361621Y-64613453D01*
X190266383Y-64661072D01*
X190218764Y-64708691D01*
X190171145Y-64803929D01*
X190171145Y-65042024D01*
X190218764Y-65137262D01*
X190266383Y-65184881D01*
X190361621Y-65232500D01*
X190647336Y-65232500D01*
X190742574Y-65184881D01*
X190790193Y-65137262D01*
X185358435Y-76444080D02*
X185358435Y-75444080D01*
X185120340Y-75444080D01*
X184977482Y-75491700D01*
X184882244Y-75586938D01*
X184834625Y-75682176D01*
X184787006Y-75872652D01*
X184787006Y-76015509D01*
X184834625Y-76205985D01*
X184882244Y-76301223D01*
X184977482Y-76396461D01*
X185120340Y-76444080D01*
X185358435Y-76444080D01*
X183929863Y-75777414D02*
X183929863Y-76444080D01*
X184167959Y-75396461D02*
X184406054Y-76110747D01*
X183787006Y-76110747D01*
X182894035Y-51529280D02*
X182894035Y-50529280D01*
X182655940Y-50529280D01*
X182513082Y-50576900D01*
X182417844Y-50672138D01*
X182370225Y-50767376D01*
X182322606Y-50957852D01*
X182322606Y-51100709D01*
X182370225Y-51291185D01*
X182417844Y-51386423D01*
X182513082Y-51481661D01*
X182655940Y-51529280D01*
X182894035Y-51529280D01*
X181417844Y-50529280D02*
X181894035Y-50529280D01*
X181941654Y-51005471D01*
X181894035Y-50957852D01*
X181798797Y-50910233D01*
X181560701Y-50910233D01*
X181465463Y-50957852D01*
X181417844Y-51005471D01*
X181370225Y-51100709D01*
X181370225Y-51338804D01*
X181417844Y-51434042D01*
X181465463Y-51481661D01*
X181560701Y-51529280D01*
X181798797Y-51529280D01*
X181894035Y-51481661D01*
X181941654Y-51434042D01*
X188649435Y-53276780D02*
X188649435Y-52276780D01*
X188411340Y-52276780D01*
X188268482Y-52324400D01*
X188173244Y-52419638D01*
X188125625Y-52514876D01*
X188078006Y-52705352D01*
X188078006Y-52848209D01*
X188125625Y-53038685D01*
X188173244Y-53133923D01*
X188268482Y-53229161D01*
X188411340Y-53276780D01*
X188649435Y-53276780D01*
X187220863Y-52276780D02*
X187411340Y-52276780D01*
X187506578Y-52324400D01*
X187554197Y-52372019D01*
X187649435Y-52514876D01*
X187697054Y-52705352D01*
X187697054Y-53086304D01*
X187649435Y-53181542D01*
X187601816Y-53229161D01*
X187506578Y-53276780D01*
X187316101Y-53276780D01*
X187220863Y-53229161D01*
X187173244Y-53181542D01*
X187125625Y-53086304D01*
X187125625Y-52848209D01*
X187173244Y-52752971D01*
X187220863Y-52705352D01*
X187316101Y-52657733D01*
X187506578Y-52657733D01*
X187601816Y-52705352D01*
X187649435Y-52752971D01*
X187697054Y-52848209D01*
X188742515Y-68481220D02*
X188742515Y-67481220D01*
X188504420Y-67481220D01*
X188361562Y-67528840D01*
X188266324Y-67624078D01*
X188218705Y-67719316D01*
X188171086Y-67909792D01*
X188171086Y-68052649D01*
X188218705Y-68243125D01*
X188266324Y-68338363D01*
X188361562Y-68433601D01*
X188504420Y-68481220D01*
X188742515Y-68481220D01*
X187837753Y-67481220D02*
X187171086Y-67481220D01*
X187599658Y-68481220D01*
X195136095Y-51346360D02*
X195136095Y-50346360D01*
X194898000Y-50346360D01*
X194755142Y-50393980D01*
X194659904Y-50489218D01*
X194612285Y-50584456D01*
X194564666Y-50774932D01*
X194564666Y-50917789D01*
X194612285Y-51108265D01*
X194659904Y-51203503D01*
X194755142Y-51298741D01*
X194898000Y-51346360D01*
X195136095Y-51346360D01*
X193993238Y-50774932D02*
X194088476Y-50727313D01*
X194136095Y-50679694D01*
X194183714Y-50584456D01*
X194183714Y-50536837D01*
X194136095Y-50441599D01*
X194088476Y-50393980D01*
X193993238Y-50346360D01*
X193802761Y-50346360D01*
X193707523Y-50393980D01*
X193659904Y-50441599D01*
X193612285Y-50536837D01*
X193612285Y-50584456D01*
X193659904Y-50679694D01*
X193707523Y-50727313D01*
X193802761Y-50774932D01*
X193993238Y-50774932D01*
X194088476Y-50822551D01*
X194136095Y-50870170D01*
X194183714Y-50965408D01*
X194183714Y-51155884D01*
X194136095Y-51251122D01*
X194088476Y-51298741D01*
X193993238Y-51346360D01*
X193802761Y-51346360D01*
X193707523Y-51298741D01*
X193659904Y-51251122D01*
X193612285Y-51155884D01*
X193612285Y-50965408D01*
X193659904Y-50870170D01*
X193707523Y-50822551D01*
X193802761Y-50774932D01*
X171585225Y-58981640D02*
X171585225Y-57981640D01*
X171347130Y-57981640D01*
X171204273Y-58029260D01*
X171109035Y-58124498D01*
X171061416Y-58219736D01*
X171013797Y-58410212D01*
X171013797Y-58553069D01*
X171061416Y-58743545D01*
X171109035Y-58838783D01*
X171204273Y-58934021D01*
X171347130Y-58981640D01*
X171585225Y-58981640D01*
X170061416Y-58981640D02*
X170632844Y-58981640D01*
X170347130Y-58981640D02*
X170347130Y-57981640D01*
X170442368Y-58124498D01*
X170537606Y-58219736D01*
X170632844Y-58267355D01*
X169109035Y-58981640D02*
X169680463Y-58981640D01*
X169394749Y-58981640D02*
X169394749Y-57981640D01*
X169489987Y-58124498D01*
X169585225Y-58219736D01*
X169680463Y-58267355D01*
X189144145Y-75979320D02*
X189144145Y-74979320D01*
X188906050Y-74979320D01*
X188763193Y-75026940D01*
X188667955Y-75122178D01*
X188620336Y-75217416D01*
X188572717Y-75407892D01*
X188572717Y-75550749D01*
X188620336Y-75741225D01*
X188667955Y-75836463D01*
X188763193Y-75931701D01*
X188906050Y-75979320D01*
X189144145Y-75979320D01*
X187620336Y-75979320D02*
X188191764Y-75979320D01*
X187906050Y-75979320D02*
X187906050Y-74979320D01*
X188001288Y-75122178D01*
X188096526Y-75217416D01*
X188191764Y-75265035D01*
X187239383Y-75074559D02*
X187191764Y-75026940D01*
X187096526Y-74979320D01*
X186858431Y-74979320D01*
X186763193Y-75026940D01*
X186715574Y-75074559D01*
X186667955Y-75169797D01*
X186667955Y-75265035D01*
X186715574Y-75407892D01*
X187287002Y-75979320D01*
X186667955Y-75979320D01*
X194046698Y-67334399D02*
X194141936Y-67286780D01*
X194237174Y-67191541D01*
X194380031Y-67048684D01*
X194475269Y-67001065D01*
X194570507Y-67001065D01*
X194522888Y-67239160D02*
X194618126Y-67191541D01*
X194713364Y-67096303D01*
X194760983Y-66905827D01*
X194760983Y-66572494D01*
X194713364Y-66382018D01*
X194618126Y-66286780D01*
X194522888Y-66239160D01*
X194332412Y-66239160D01*
X194237174Y-66286780D01*
X194141936Y-66382018D01*
X194094317Y-66572494D01*
X194094317Y-66905827D01*
X194141936Y-67096303D01*
X194237174Y-67191541D01*
X194332412Y-67239160D01*
X194522888Y-67239160D01*
X193141936Y-67239160D02*
X193713364Y-67239160D01*
X193427650Y-67239160D02*
X193427650Y-66239160D01*
X193522888Y-66382018D01*
X193618126Y-66477256D01*
X193713364Y-66524875D01*
X213286238Y-69191019D02*
X213381476Y-69143400D01*
X213476714Y-69048161D01*
X213619571Y-68905304D01*
X213714809Y-68857685D01*
X213810047Y-68857685D01*
X213762428Y-69095780D02*
X213857666Y-69048161D01*
X213952904Y-68952923D01*
X214000523Y-68762447D01*
X214000523Y-68429114D01*
X213952904Y-68238638D01*
X213857666Y-68143400D01*
X213762428Y-68095780D01*
X213571952Y-68095780D01*
X213476714Y-68143400D01*
X213381476Y-68238638D01*
X213333857Y-68429114D01*
X213333857Y-68762447D01*
X213381476Y-68952923D01*
X213476714Y-69048161D01*
X213571952Y-69095780D01*
X213762428Y-69095780D01*
X212952904Y-68191019D02*
X212905285Y-68143400D01*
X212810047Y-68095780D01*
X212571952Y-68095780D01*
X212476714Y-68143400D01*
X212429095Y-68191019D01*
X212381476Y-68286257D01*
X212381476Y-68381495D01*
X212429095Y-68524352D01*
X213000523Y-69095780D01*
X212381476Y-69095780D01*
X210869518Y-80816699D02*
X210964756Y-80769080D01*
X211059994Y-80673841D01*
X211202851Y-80530984D01*
X211298089Y-80483365D01*
X211393327Y-80483365D01*
X211345708Y-80721460D02*
X211440946Y-80673841D01*
X211536184Y-80578603D01*
X211583803Y-80388127D01*
X211583803Y-80054794D01*
X211536184Y-79864318D01*
X211440946Y-79769080D01*
X211345708Y-79721460D01*
X211155232Y-79721460D01*
X211059994Y-79769080D01*
X210964756Y-79864318D01*
X210917137Y-80054794D01*
X210917137Y-80388127D01*
X210964756Y-80578603D01*
X211059994Y-80673841D01*
X211155232Y-80721460D01*
X211345708Y-80721460D01*
X210583803Y-79721460D02*
X209964756Y-79721460D01*
X210298089Y-80102413D01*
X210155232Y-80102413D01*
X210059994Y-80150032D01*
X210012375Y-80197651D01*
X209964756Y-80292889D01*
X209964756Y-80530984D01*
X210012375Y-80626222D01*
X210059994Y-80673841D01*
X210155232Y-80721460D01*
X210440946Y-80721460D01*
X210536184Y-80673841D01*
X210583803Y-80626222D01*
X202949498Y-79673659D02*
X203044736Y-79626040D01*
X203139974Y-79530801D01*
X203282831Y-79387944D01*
X203378069Y-79340325D01*
X203473307Y-79340325D01*
X203425688Y-79578420D02*
X203520926Y-79530801D01*
X203616164Y-79435563D01*
X203663783Y-79245087D01*
X203663783Y-78911754D01*
X203616164Y-78721278D01*
X203520926Y-78626040D01*
X203425688Y-78578420D01*
X203235212Y-78578420D01*
X203139974Y-78626040D01*
X203044736Y-78721278D01*
X202997117Y-78911754D01*
X202997117Y-79245087D01*
X203044736Y-79435563D01*
X203139974Y-79530801D01*
X203235212Y-79578420D01*
X203425688Y-79578420D01*
X202139974Y-78911754D02*
X202139974Y-79578420D01*
X202378069Y-78530801D02*
X202616164Y-79245087D01*
X201997117Y-79245087D01*
X187859966Y-70945000D02*
X188193300Y-70468810D01*
X188431395Y-70945000D02*
X188431395Y-69945000D01*
X188050442Y-69945000D01*
X187955204Y-69992620D01*
X187907585Y-70040239D01*
X187859966Y-70135477D01*
X187859966Y-70278334D01*
X187907585Y-70373572D01*
X187955204Y-70421191D01*
X188050442Y-70468810D01*
X188431395Y-70468810D01*
X186907585Y-70945000D02*
X187479014Y-70945000D01*
X187193300Y-70945000D02*
X187193300Y-69945000D01*
X187288538Y-70087858D01*
X187383776Y-70183096D01*
X187479014Y-70230715D01*
X176706666Y-49350680D02*
X177040000Y-48874490D01*
X177278095Y-49350680D02*
X177278095Y-48350680D01*
X176897142Y-48350680D01*
X176801904Y-48398300D01*
X176754285Y-48445919D01*
X176706666Y-48541157D01*
X176706666Y-48684014D01*
X176754285Y-48779252D01*
X176801904Y-48826871D01*
X176897142Y-48874490D01*
X177278095Y-48874490D01*
X176373333Y-48350680D02*
X175754285Y-48350680D01*
X176087619Y-48731633D01*
X175944761Y-48731633D01*
X175849523Y-48779252D01*
X175801904Y-48826871D01*
X175754285Y-48922109D01*
X175754285Y-49160204D01*
X175801904Y-49255442D01*
X175849523Y-49303061D01*
X175944761Y-49350680D01*
X176230476Y-49350680D01*
X176325714Y-49303061D01*
X176373333Y-49255442D01*
X179955866Y-52880540D02*
X180289200Y-52404350D01*
X180527295Y-52880540D02*
X180527295Y-51880540D01*
X180146342Y-51880540D01*
X180051104Y-51928160D01*
X180003485Y-51975779D01*
X179955866Y-52071017D01*
X179955866Y-52213874D01*
X180003485Y-52309112D01*
X180051104Y-52356731D01*
X180146342Y-52404350D01*
X180527295Y-52404350D01*
X179098723Y-52213874D02*
X179098723Y-52880540D01*
X179336819Y-51832921D02*
X179574914Y-52547207D01*
X178955866Y-52547207D01*
X200512666Y-49555680D02*
X200846000Y-49079490D01*
X201084095Y-49555680D02*
X201084095Y-48555680D01*
X200703142Y-48555680D01*
X200607904Y-48603300D01*
X200560285Y-48650919D01*
X200512666Y-48746157D01*
X200512666Y-48889014D01*
X200560285Y-48984252D01*
X200607904Y-49031871D01*
X200703142Y-49079490D01*
X201084095Y-49079490D01*
X199607904Y-48555680D02*
X200084095Y-48555680D01*
X200131714Y-49031871D01*
X200084095Y-48984252D01*
X199988857Y-48936633D01*
X199750761Y-48936633D01*
X199655523Y-48984252D01*
X199607904Y-49031871D01*
X199560285Y-49127109D01*
X199560285Y-49365204D01*
X199607904Y-49460442D01*
X199655523Y-49508061D01*
X199750761Y-49555680D01*
X199988857Y-49555680D01*
X200084095Y-49508061D01*
X200131714Y-49460442D01*
X181499906Y-72773780D02*
X181833240Y-72297590D01*
X182071335Y-72773780D02*
X182071335Y-71773780D01*
X181690382Y-71773780D01*
X181595144Y-71821400D01*
X181547525Y-71869019D01*
X181499906Y-71964257D01*
X181499906Y-72107114D01*
X181547525Y-72202352D01*
X181595144Y-72249971D01*
X181690382Y-72297590D01*
X182071335Y-72297590D01*
X180642763Y-71773780D02*
X180833240Y-71773780D01*
X180928478Y-71821400D01*
X180976097Y-71869019D01*
X181071335Y-72011876D01*
X181118954Y-72202352D01*
X181118954Y-72583304D01*
X181071335Y-72678542D01*
X181023716Y-72726161D01*
X180928478Y-72773780D01*
X180738001Y-72773780D01*
X180642763Y-72726161D01*
X180595144Y-72678542D01*
X180547525Y-72583304D01*
X180547525Y-72345209D01*
X180595144Y-72249971D01*
X180642763Y-72202352D01*
X180738001Y-72154733D01*
X180928478Y-72154733D01*
X181023716Y-72202352D01*
X181071335Y-72249971D01*
X181118954Y-72345209D01*
X198301846Y-55923440D02*
X198635180Y-55447250D01*
X198873275Y-55923440D02*
X198873275Y-54923440D01*
X198492322Y-54923440D01*
X198397084Y-54971060D01*
X198349465Y-55018679D01*
X198301846Y-55113917D01*
X198301846Y-55256774D01*
X198349465Y-55352012D01*
X198397084Y-55399631D01*
X198492322Y-55447250D01*
X198873275Y-55447250D01*
X197730418Y-55352012D02*
X197825656Y-55304393D01*
X197873275Y-55256774D01*
X197920894Y-55161536D01*
X197920894Y-55113917D01*
X197873275Y-55018679D01*
X197825656Y-54971060D01*
X197730418Y-54923440D01*
X197539941Y-54923440D01*
X197444703Y-54971060D01*
X197397084Y-55018679D01*
X197349465Y-55113917D01*
X197349465Y-55161536D01*
X197397084Y-55256774D01*
X197444703Y-55304393D01*
X197539941Y-55352012D01*
X197730418Y-55352012D01*
X197825656Y-55399631D01*
X197873275Y-55447250D01*
X197920894Y-55542488D01*
X197920894Y-55732964D01*
X197873275Y-55828202D01*
X197825656Y-55875821D01*
X197730418Y-55923440D01*
X197539941Y-55923440D01*
X197444703Y-55875821D01*
X197397084Y-55828202D01*
X197349465Y-55732964D01*
X197349465Y-55542488D01*
X197397084Y-55447250D01*
X197444703Y-55399631D01*
X197539941Y-55352012D01*
X214099186Y-54821100D02*
X214432520Y-54344910D01*
X214670615Y-54821100D02*
X214670615Y-53821100D01*
X214289662Y-53821100D01*
X214194424Y-53868720D01*
X214146805Y-53916339D01*
X214099186Y-54011577D01*
X214099186Y-54154434D01*
X214146805Y-54249672D01*
X214194424Y-54297291D01*
X214289662Y-54344910D01*
X214670615Y-54344910D01*
X213622996Y-54821100D02*
X213432520Y-54821100D01*
X213337281Y-54773481D01*
X213289662Y-54725862D01*
X213194424Y-54583005D01*
X213146805Y-54392529D01*
X213146805Y-54011577D01*
X213194424Y-53916339D01*
X213242043Y-53868720D01*
X213337281Y-53821100D01*
X213527758Y-53821100D01*
X213622996Y-53868720D01*
X213670615Y-53916339D01*
X213718234Y-54011577D01*
X213718234Y-54249672D01*
X213670615Y-54344910D01*
X213622996Y-54392529D01*
X213527758Y-54440148D01*
X213337281Y-54440148D01*
X213242043Y-54392529D01*
X213194424Y-54344910D01*
X213146805Y-54249672D01*
X208366617Y-50381120D02*
X208699950Y-49904930D01*
X208938045Y-50381120D02*
X208938045Y-49381120D01*
X208557093Y-49381120D01*
X208461855Y-49428740D01*
X208414236Y-49476359D01*
X208366617Y-49571597D01*
X208366617Y-49714454D01*
X208414236Y-49809692D01*
X208461855Y-49857311D01*
X208557093Y-49904930D01*
X208938045Y-49904930D01*
X207414236Y-50381120D02*
X207985664Y-50381120D01*
X207699950Y-50381120D02*
X207699950Y-49381120D01*
X207795188Y-49523978D01*
X207890426Y-49619216D01*
X207985664Y-49666835D01*
X206461855Y-50381120D02*
X207033283Y-50381120D01*
X206747569Y-50381120D02*
X206747569Y-49381120D01*
X206842807Y-49523978D01*
X206938045Y-49619216D01*
X207033283Y-49666835D01*
X175764417Y-62390300D02*
X176097750Y-61914110D01*
X176335845Y-62390300D02*
X176335845Y-61390300D01*
X175954893Y-61390300D01*
X175859655Y-61437920D01*
X175812036Y-61485539D01*
X175764417Y-61580777D01*
X175764417Y-61723634D01*
X175812036Y-61818872D01*
X175859655Y-61866491D01*
X175954893Y-61914110D01*
X176335845Y-61914110D01*
X174812036Y-62390300D02*
X175383464Y-62390300D01*
X175097750Y-62390300D02*
X175097750Y-61390300D01*
X175192988Y-61533158D01*
X175288226Y-61628396D01*
X175383464Y-61676015D01*
X174431083Y-61485539D02*
X174383464Y-61437920D01*
X174288226Y-61390300D01*
X174050131Y-61390300D01*
X173954893Y-61437920D01*
X173907274Y-61485539D01*
X173859655Y-61580777D01*
X173859655Y-61676015D01*
X173907274Y-61818872D01*
X174478702Y-62390300D01*
X173859655Y-62390300D01*
X184501237Y-58088780D02*
X184834570Y-57612590D01*
X185072665Y-58088780D02*
X185072665Y-57088780D01*
X184691713Y-57088780D01*
X184596475Y-57136400D01*
X184548856Y-57184019D01*
X184501237Y-57279257D01*
X184501237Y-57422114D01*
X184548856Y-57517352D01*
X184596475Y-57564971D01*
X184691713Y-57612590D01*
X185072665Y-57612590D01*
X183548856Y-58088780D02*
X184120284Y-58088780D01*
X183834570Y-58088780D02*
X183834570Y-57088780D01*
X183929808Y-57231638D01*
X184025046Y-57326876D01*
X184120284Y-57374495D01*
X183215522Y-57088780D02*
X182596475Y-57088780D01*
X182929808Y-57469733D01*
X182786951Y-57469733D01*
X182691713Y-57517352D01*
X182644094Y-57564971D01*
X182596475Y-57660209D01*
X182596475Y-57898304D01*
X182644094Y-57993542D01*
X182691713Y-58041161D01*
X182786951Y-58088780D01*
X183072665Y-58088780D01*
X183167903Y-58041161D01*
X183215522Y-57993542D01*
M02*
