G04 #@! TF.GenerationSoftware,KiCad,Pcbnew,5.1.6-c6e7f7d~87~ubuntu18.04.1*
G04 #@! TF.CreationDate,2020-10-13T20:33:34+05:30*
G04 #@! TF.ProjectId,BackEnd_4S_v1,4261636b-456e-4645-9f34-535f76312e6b,rev?*
G04 #@! TF.SameCoordinates,Original*
G04 #@! TF.FileFunction,Paste,Bot*
G04 #@! TF.FilePolarity,Positive*
%FSLAX46Y46*%
G04 Gerber Fmt 4.6, Leading zero omitted, Abs format (unit mm)*
G04 Created by KiCad (PCBNEW 5.1.6-c6e7f7d~87~ubuntu18.04.1) date 2020-10-13 20:33:34*
%MOMM*%
%LPD*%
G01*
G04 APERTURE LIST*
%ADD10R,1.250000X1.500000*%
%ADD11R,1.500000X1.300000*%
%ADD12R,1.600000X3.100000*%
%ADD13R,0.650000X1.560000*%
%ADD14R,0.900000X0.800000*%
%ADD15R,0.800000X0.900000*%
%ADD16R,0.600000X1.500000*%
%ADD17R,4.600000X5.100000*%
%ADD18R,1.300000X1.500000*%
G04 APERTURE END LIST*
D10*
X172375000Y-49752900D03*
X172375000Y-52252900D03*
D11*
X203184000Y-64594700D03*
X205884000Y-64594700D03*
D12*
X179936000Y-73840400D03*
X174856000Y-64950400D03*
X177396000Y-73840400D03*
X177396000Y-64950400D03*
X174856000Y-73840400D03*
X179936000Y-64950400D03*
D13*
X176433000Y-54761100D03*
X177383000Y-54761100D03*
X178333000Y-54761100D03*
X178333000Y-57461100D03*
X176433000Y-57461100D03*
D14*
X170086000Y-64697900D03*
X170086000Y-66797900D03*
D15*
X188555000Y-64582000D03*
X186455000Y-64582000D03*
X186125000Y-74429600D03*
X184025000Y-74429600D03*
X184126000Y-51000700D03*
X186226000Y-51000700D03*
X186241000Y-53268900D03*
X184141000Y-53268900D03*
X186202000Y-67950100D03*
X184102000Y-67950100D03*
X195609000Y-52666900D03*
X193509000Y-52666900D03*
D14*
X170216000Y-62185300D03*
X170216000Y-60085300D03*
X188288000Y-72061400D03*
X188288000Y-74161400D03*
D16*
X196174000Y-64854100D03*
X191604000Y-64854100D03*
D17*
X193954000Y-72014100D03*
X213191000Y-64793400D03*
D16*
X210841000Y-57633400D03*
X215411000Y-57633400D03*
D17*
X213063000Y-76743600D03*
D16*
X210713000Y-69583600D03*
X215283000Y-69583600D03*
X207820000Y-68140800D03*
X203250000Y-68140800D03*
D17*
X205600000Y-75300800D03*
D11*
X185829000Y-70149700D03*
X183129000Y-70149700D03*
X175190000Y-47198300D03*
X177890000Y-47198300D03*
X177888000Y-52468800D03*
X175188000Y-52468800D03*
D18*
X198646000Y-47753300D03*
X198646000Y-50453300D03*
D11*
X183270000Y-72321400D03*
X185970000Y-72321400D03*
X199409000Y-56896000D03*
X202109000Y-56896000D03*
X209184000Y-54335700D03*
X211884000Y-54335700D03*
D18*
X207485000Y-48202800D03*
X207485000Y-45502800D03*
D11*
X174238000Y-60279300D03*
X176938000Y-60279300D03*
D18*
X181326000Y-61628000D03*
X181326000Y-58928000D03*
M02*
