G04 #@! TF.GenerationSoftware,KiCad,Pcbnew,5.1.6-c6e7f7d~87~ubuntu18.04.1*
G04 #@! TF.CreationDate,2020-10-13T20:33:34+05:30*
G04 #@! TF.ProjectId,BackEnd_4S_v1,4261636b-456e-4645-9f34-535f76312e6b,rev?*
G04 #@! TF.SameCoordinates,Original*
G04 #@! TF.FileFunction,Other,User*
%FSLAX46Y46*%
G04 Gerber Fmt 4.6, Leading zero omitted, Abs format (unit mm)*
G04 Created by KiCad (PCBNEW 5.1.6-c6e7f7d~87~ubuntu18.04.1) date 2020-10-13 20:33:34*
%MOMM*%
%LPD*%
G01*
G04 APERTURE LIST*
%ADD10C,0.050000*%
G04 APERTURE END LIST*
D10*
X176510000Y-58689000D02*
X176510000Y-53989000D01*
X171810000Y-58689000D02*
X176510000Y-58689000D01*
X171810000Y-53989000D02*
X171810000Y-58689000D01*
X176510000Y-53989000D02*
X171810000Y-53989000D01*
X197190000Y-59064200D02*
X197190000Y-46564200D01*
X191490000Y-59064200D02*
X197190000Y-59064200D01*
X191490000Y-46564200D02*
X191490000Y-59064200D01*
X197190000Y-46564200D02*
X191490000Y-46564200D01*
X173914000Y-52012100D02*
X178614000Y-52012100D01*
X173914000Y-47312100D02*
X173914000Y-52012100D01*
X178614000Y-47312100D02*
X173914000Y-47312100D01*
X178614000Y-52012100D02*
X178614000Y-47312100D01*
X197050000Y-63050700D02*
X197050000Y-67750700D01*
X201750000Y-63050700D02*
X197050000Y-63050700D01*
X201750000Y-67750700D02*
X201750000Y-63050700D01*
X197050000Y-67750700D02*
X201750000Y-67750700D01*
X182713000Y-62733400D02*
X187413000Y-62733400D01*
X182713000Y-58033400D02*
X182713000Y-62733400D01*
X187413000Y-58033400D02*
X182713000Y-58033400D01*
X187413000Y-62733400D02*
X187413000Y-58033400D01*
X179459000Y-46364400D02*
X179459000Y-57064400D01*
X190259000Y-46364400D02*
X179459000Y-46364400D01*
X190259000Y-57064400D02*
X190259000Y-46364400D01*
X179459000Y-57064400D02*
X190259000Y-57064400D01*
X171765000Y-72843000D02*
X171765000Y-81843000D01*
X171765000Y-72843000D02*
X167265000Y-72843000D01*
X167265000Y-81843000D02*
X171765000Y-81843000D01*
X167265000Y-81843000D02*
X167265000Y-72843000D01*
X181070000Y-75762200D02*
X181070000Y-63262200D01*
X172770000Y-75762200D02*
X181070000Y-75762200D01*
X172770000Y-63262200D02*
X172770000Y-75762200D01*
X181070000Y-63262200D02*
X172770000Y-63262200D01*
X201365000Y-58462800D02*
X213865000Y-58462800D01*
X201365000Y-50162800D02*
X201365000Y-58462800D01*
X213865000Y-50162800D02*
X201365000Y-50162800D01*
X213865000Y-58462800D02*
X213865000Y-50162800D01*
X215048000Y-70533600D02*
X202548000Y-70533600D01*
X215048000Y-78833600D02*
X215048000Y-70533600D01*
X202548000Y-78833600D02*
X215048000Y-78833600D01*
X202548000Y-70533600D02*
X202548000Y-78833600D01*
X215048000Y-59979900D02*
X202548000Y-59979900D01*
X215048000Y-68279900D02*
X215048000Y-59979900D01*
X202548000Y-68279900D02*
X215048000Y-68279900D01*
X202548000Y-59979900D02*
X202548000Y-68279900D01*
X200580000Y-45945200D02*
X200580000Y-42345200D01*
X176680000Y-45945200D02*
X200580000Y-45945200D01*
X176680000Y-42345200D02*
X176680000Y-45945200D01*
X200580000Y-42345200D02*
X176680000Y-42345200D01*
X201060000Y-61407400D02*
X201060000Y-51807400D01*
X197760000Y-61407400D02*
X201060000Y-61407400D01*
X197760000Y-51807400D02*
X197760000Y-61407400D01*
X201060000Y-51807400D02*
X197760000Y-51807400D01*
X171929000Y-76033400D02*
X171929000Y-79333400D01*
X171929000Y-79333400D02*
X181529000Y-79333400D01*
X181529000Y-79333400D02*
X181529000Y-76033400D01*
X181529000Y-76033400D02*
X171929000Y-76033400D01*
X197547000Y-62856400D02*
X197547000Y-59556400D01*
X197547000Y-59556400D02*
X187947000Y-59556400D01*
X187947000Y-59556400D02*
X187947000Y-62856400D01*
X187947000Y-62856400D02*
X197547000Y-62856400D01*
X171401000Y-50033700D02*
X171401000Y-46633700D01*
X171401000Y-46633700D02*
X173161000Y-46633700D01*
X173161000Y-46633700D02*
X173161000Y-50033700D01*
X173161000Y-50033700D02*
X171401000Y-50033700D01*
X184879000Y-90495100D02*
X174479000Y-90495100D01*
X184879000Y-80295100D02*
X184879000Y-90495100D01*
X174479000Y-80295100D02*
X184879000Y-80295100D01*
X174479000Y-90495100D02*
X174479000Y-80295100D01*
X206186000Y-90413800D02*
X206186000Y-80213800D01*
X206186000Y-80213800D02*
X216586000Y-80213800D01*
X216586000Y-80213800D02*
X216586000Y-90413800D01*
X216586000Y-90413800D02*
X206186000Y-90413800D01*
X205664000Y-90495100D02*
X185264000Y-90495100D01*
X205664000Y-80295100D02*
X205664000Y-90495100D01*
X185264000Y-80295100D02*
X205664000Y-80295100D01*
X185264000Y-90495100D02*
X185264000Y-80295100D01*
X198279000Y-74447900D02*
X198279000Y-69747900D01*
X198279000Y-74447900D02*
X200079000Y-74447900D01*
X200079000Y-69747900D02*
X198279000Y-69747900D01*
X200079000Y-69747900D02*
X200079000Y-74447900D01*
X205799000Y-44347900D02*
X205799000Y-49047900D01*
X205799000Y-44347900D02*
X203999000Y-44347900D01*
X203999000Y-49047900D02*
X205799000Y-49047900D01*
X203999000Y-49047900D02*
X203999000Y-44347900D01*
X170112000Y-82801100D02*
X170112000Y-90301100D01*
X174012000Y-82801100D02*
X174012000Y-90301100D01*
X174012000Y-90301100D02*
X170112000Y-90301100D01*
X174012000Y-82801100D02*
X170112000Y-82801100D01*
M02*
