G04 #@! TF.GenerationSoftware,KiCad,Pcbnew,5.1.6-c6e7f7d~87~ubuntu18.04.1*
G04 #@! TF.CreationDate,2020-10-13T20:33:34+05:30*
G04 #@! TF.ProjectId,BackEnd_4S_v1,4261636b-456e-4645-9f34-535f76312e6b,rev?*
G04 #@! TF.SameCoordinates,Original*
G04 #@! TF.FileFunction,Other,User*
%FSLAX46Y46*%
G04 Gerber Fmt 4.6, Leading zero omitted, Abs format (unit mm)*
G04 Created by KiCad (PCBNEW 5.1.6-c6e7f7d~87~ubuntu18.04.1) date 2020-10-13 20:33:34*
%MOMM*%
%LPD*%
G01*
G04 APERTURE LIST*
%ADD10C,0.050000*%
G04 APERTURE END LIST*
D10*
X173245000Y-53252900D02*
X173245000Y-48752900D01*
X173245000Y-53252900D02*
X171495000Y-53252900D01*
X171495000Y-48752900D02*
X173245000Y-48752900D01*
X171495000Y-48752900D02*
X171495000Y-53252900D01*
X206884000Y-63694700D02*
X202184000Y-63694700D01*
X206884000Y-63694700D02*
X206884000Y-65494700D01*
X202184000Y-65494700D02*
X202184000Y-63694700D01*
X202184000Y-65494700D02*
X206884000Y-65494700D01*
X181546000Y-63145400D02*
X181546000Y-75645400D01*
X173246000Y-63145400D02*
X181546000Y-63145400D01*
X173246000Y-75645400D02*
X173246000Y-63145400D01*
X181546000Y-75645400D02*
X173246000Y-75645400D01*
X179183000Y-58491100D02*
X179183000Y-53731100D01*
X179183000Y-58491100D02*
X175583000Y-58491100D01*
X175583000Y-53731100D02*
X179183000Y-53731100D01*
X175583000Y-53731100D02*
X175583000Y-58491100D01*
X169206000Y-67447900D02*
X170966000Y-67447900D01*
X169206000Y-64047900D02*
X169206000Y-67447900D01*
X170966000Y-64047900D02*
X169206000Y-64047900D01*
X170966000Y-67447900D02*
X170966000Y-64047900D01*
X185805000Y-63702000D02*
X185805000Y-65462000D01*
X189205000Y-63702000D02*
X185805000Y-63702000D01*
X189205000Y-65462000D02*
X189205000Y-63702000D01*
X185805000Y-65462000D02*
X189205000Y-65462000D01*
X183375000Y-73549600D02*
X183375000Y-75309600D01*
X186775000Y-73549600D02*
X183375000Y-73549600D01*
X186775000Y-75309600D02*
X186775000Y-73549600D01*
X183375000Y-75309600D02*
X186775000Y-75309600D01*
X183476000Y-51880700D02*
X186876000Y-51880700D01*
X186876000Y-51880700D02*
X186876000Y-50120700D01*
X186876000Y-50120700D02*
X183476000Y-50120700D01*
X183476000Y-50120700D02*
X183476000Y-51880700D01*
X186891000Y-52388900D02*
X183491000Y-52388900D01*
X183491000Y-52388900D02*
X183491000Y-54148900D01*
X183491000Y-54148900D02*
X186891000Y-54148900D01*
X186891000Y-54148900D02*
X186891000Y-52388900D01*
X183452000Y-67070100D02*
X183452000Y-68830100D01*
X186852000Y-67070100D02*
X183452000Y-67070100D01*
X186852000Y-68830100D02*
X186852000Y-67070100D01*
X183452000Y-68830100D02*
X186852000Y-68830100D01*
X196259000Y-51786900D02*
X192859000Y-51786900D01*
X192859000Y-51786900D02*
X192859000Y-53546900D01*
X192859000Y-53546900D02*
X196259000Y-53546900D01*
X196259000Y-53546900D02*
X196259000Y-51786900D01*
X171096000Y-59435300D02*
X169336000Y-59435300D01*
X171096000Y-62835300D02*
X171096000Y-59435300D01*
X169336000Y-62835300D02*
X171096000Y-62835300D01*
X169336000Y-59435300D02*
X169336000Y-62835300D01*
X187408000Y-71411400D02*
X187408000Y-74811400D01*
X187408000Y-74811400D02*
X189168000Y-74811400D01*
X189168000Y-74811400D02*
X189168000Y-71411400D01*
X189168000Y-71411400D02*
X187408000Y-71411400D01*
X182129000Y-71049700D02*
X186829000Y-71049700D01*
X182129000Y-71049700D02*
X182129000Y-69249700D01*
X186829000Y-69249700D02*
X186829000Y-71049700D01*
X186829000Y-69249700D02*
X182129000Y-69249700D01*
X178890000Y-46298300D02*
X174190000Y-46298300D01*
X178890000Y-46298300D02*
X178890000Y-48098300D01*
X174190000Y-48098300D02*
X174190000Y-46298300D01*
X174190000Y-48098300D02*
X178890000Y-48098300D01*
X174188000Y-53368800D02*
X178888000Y-53368800D01*
X174188000Y-53368800D02*
X174188000Y-51568800D01*
X178888000Y-51568800D02*
X178888000Y-53368800D01*
X178888000Y-51568800D02*
X174188000Y-51568800D01*
X199546000Y-51453300D02*
X199546000Y-46753300D01*
X199546000Y-51453300D02*
X197746000Y-51453300D01*
X197746000Y-46753300D02*
X199546000Y-46753300D01*
X197746000Y-46753300D02*
X197746000Y-51453300D01*
X186970000Y-71421400D02*
X182270000Y-71421400D01*
X186970000Y-71421400D02*
X186970000Y-73221400D01*
X182270000Y-73221400D02*
X182270000Y-71421400D01*
X182270000Y-73221400D02*
X186970000Y-73221400D01*
X203109000Y-55996000D02*
X198409000Y-55996000D01*
X203109000Y-55996000D02*
X203109000Y-57796000D01*
X198409000Y-57796000D02*
X198409000Y-55996000D01*
X198409000Y-57796000D02*
X203109000Y-57796000D01*
X212884000Y-53435700D02*
X208184000Y-53435700D01*
X212884000Y-53435700D02*
X212884000Y-55235700D01*
X208184000Y-55235700D02*
X208184000Y-53435700D01*
X208184000Y-55235700D02*
X212884000Y-55235700D01*
X206585000Y-44502800D02*
X206585000Y-49202800D01*
X206585000Y-44502800D02*
X208385000Y-44502800D01*
X208385000Y-49202800D02*
X206585000Y-49202800D01*
X208385000Y-49202800D02*
X208385000Y-44502800D01*
X177938000Y-59379300D02*
X173238000Y-59379300D01*
X177938000Y-59379300D02*
X177938000Y-61179300D01*
X173238000Y-61179300D02*
X173238000Y-59379300D01*
X173238000Y-61179300D02*
X177938000Y-61179300D01*
X180426000Y-57928000D02*
X180426000Y-62628000D01*
X180426000Y-57928000D02*
X182226000Y-57928000D01*
X182226000Y-62628000D02*
X180426000Y-62628000D01*
X182226000Y-62628000D02*
X182226000Y-57928000D01*
M02*
