G04 #@! TF.GenerationSoftware,KiCad,Pcbnew,5.1.6-c6e7f7d~87~ubuntu18.04.1*
G04 #@! TF.CreationDate,2020-10-13T20:33:34+05:30*
G04 #@! TF.ProjectId,BackEnd_4S_v1,4261636b-456e-4645-9f34-535f76312e6b,rev?*
G04 #@! TF.SameCoordinates,Original*
G04 #@! TF.FileFunction,Copper,L1,Top*
G04 #@! TF.FilePolarity,Positive*
%FSLAX46Y46*%
G04 Gerber Fmt 4.6, Leading zero omitted, Abs format (unit mm)*
G04 Created by KiCad (PCBNEW 5.1.6-c6e7f7d~87~ubuntu18.04.1) date 2020-10-13 20:33:34*
%MOMM*%
%LPD*%
G01*
G04 APERTURE LIST*
G04 #@! TA.AperFunction,ComponentPad*
%ADD10R,1.200000X1.200000*%
G04 #@! TD*
G04 #@! TA.AperFunction,ComponentPad*
%ADD11C,1.200000*%
G04 #@! TD*
G04 #@! TA.AperFunction,ComponentPad*
%ADD12C,1.750000*%
G04 #@! TD*
G04 #@! TA.AperFunction,ComponentPad*
%ADD13C,1.524000*%
G04 #@! TD*
G04 #@! TA.AperFunction,SMDPad,CuDef*
%ADD14R,1.600000X3.100000*%
G04 #@! TD*
G04 #@! TA.AperFunction,SMDPad,CuDef*
%ADD15R,1.600000X1.600000*%
G04 #@! TD*
G04 #@! TA.AperFunction,ComponentPad*
%ADD16C,2.000000*%
G04 #@! TD*
G04 #@! TA.AperFunction,SMDPad,CuDef*
%ADD17R,3.100000X1.600000*%
G04 #@! TD*
G04 #@! TA.AperFunction,ComponentPad*
%ADD18R,1.700000X1.700000*%
G04 #@! TD*
G04 #@! TA.AperFunction,ComponentPad*
%ADD19O,1.700000X1.700000*%
G04 #@! TD*
G04 #@! TA.AperFunction,ComponentPad*
%ADD20C,1.600000*%
G04 #@! TD*
G04 #@! TA.AperFunction,ComponentPad*
%ADD21O,1.600000X1.600000*%
G04 #@! TD*
G04 #@! TA.AperFunction,SMDPad,CuDef*
%ADD22R,0.900000X0.800000*%
G04 #@! TD*
G04 #@! TA.AperFunction,ComponentPad*
%ADD23C,2.500000*%
G04 #@! TD*
G04 #@! TA.AperFunction,ComponentPad*
%ADD24R,2.500000X2.500000*%
G04 #@! TD*
G04 #@! TA.AperFunction,SMDPad,CuDef*
%ADD25R,1.300000X1.500000*%
G04 #@! TD*
G04 #@! TA.AperFunction,ComponentPad*
%ADD26R,2.286000X2.286000*%
G04 #@! TD*
G04 #@! TA.AperFunction,ViaPad*
%ADD27C,0.800000*%
G04 #@! TD*
G04 #@! TA.AperFunction,Conductor*
%ADD28C,0.300000*%
G04 #@! TD*
G04 #@! TA.AperFunction,Conductor*
%ADD29C,0.500000*%
G04 #@! TD*
G04 #@! TA.AperFunction,Conductor*
%ADD30C,0.254000*%
G04 #@! TD*
G04 APERTURE END LIST*
D10*
X174160000Y-55339000D03*
D11*
X174160000Y-57339000D03*
D12*
X170308000Y-69140700D03*
X173168000Y-69140700D03*
X172278000Y-45140700D03*
X169738000Y-45140700D03*
X174818000Y-45140700D03*
D13*
X208788000Y-79306400D03*
X168694000Y-89159100D03*
X211894000Y-43596600D03*
D14*
X195610000Y-48369200D03*
X193070000Y-57259200D03*
X193070000Y-48369200D03*
X195610000Y-57259200D03*
D10*
X177264000Y-49662100D03*
D11*
X175264000Y-49662100D03*
D10*
X199400000Y-66400700D03*
D11*
X199400000Y-64400700D03*
D10*
X186063000Y-60383400D03*
D11*
X184063000Y-60383400D03*
D15*
X181049000Y-55524400D03*
X188669000Y-47904400D03*
X183589000Y-55524400D03*
X186129000Y-47904400D03*
X186129000Y-55524400D03*
X183589000Y-47904400D03*
X188669000Y-55524400D03*
X181049000Y-47904400D03*
D16*
X169515000Y-79883000D03*
X169525000Y-74803000D03*
D14*
X179460000Y-65067200D03*
X174380000Y-73957200D03*
X176920000Y-65067200D03*
X176920000Y-73957200D03*
X174380000Y-65067200D03*
X179460000Y-73957200D03*
D17*
X212060000Y-56852800D03*
X203170000Y-51772800D03*
X212060000Y-54312800D03*
X203170000Y-54312800D03*
X212060000Y-51772800D03*
X203170000Y-56852800D03*
X204353000Y-72143600D03*
X213243000Y-77223600D03*
X204353000Y-74683600D03*
X213243000Y-74683600D03*
X204353000Y-77223600D03*
X213243000Y-72143600D03*
X204353000Y-61589900D03*
X213243000Y-66669900D03*
X204353000Y-64129900D03*
X213243000Y-64129900D03*
X204353000Y-66669900D03*
X213243000Y-61589900D03*
D18*
X198780000Y-44145200D03*
D19*
X196240000Y-44145200D03*
X193700000Y-44145200D03*
X191160000Y-44145200D03*
X188620000Y-44145200D03*
X186080000Y-44145200D03*
X183540000Y-44145200D03*
X181000000Y-44145200D03*
X178460000Y-44145200D03*
D20*
X199410000Y-52857400D03*
D21*
X199410000Y-60357400D03*
X180479000Y-77683400D03*
D20*
X172979000Y-77683400D03*
D21*
X188997000Y-61206400D03*
D20*
X196497000Y-61206400D03*
D22*
X172281000Y-49383700D03*
X172281000Y-47283700D03*
D23*
X177179000Y-85095100D03*
D24*
X182179000Y-85095100D03*
X213886000Y-85013800D03*
D23*
X208886000Y-85013800D03*
X197964000Y-85095100D03*
D24*
X202964000Y-85095100D03*
D23*
X192964000Y-85095100D03*
X187964000Y-85095100D03*
D25*
X199179000Y-70747900D03*
X199179000Y-73447900D03*
X204899000Y-48047900D03*
X204899000Y-45347900D03*
D26*
X193858000Y-65131700D03*
X183678000Y-65131700D03*
X193838000Y-78051700D03*
X191298000Y-78051700D03*
X186218000Y-78051700D03*
X183678000Y-78051700D03*
D20*
X171412000Y-89051100D03*
X172712000Y-84051100D03*
D27*
X173834600Y-47283700D03*
X182885200Y-62855200D03*
X189357600Y-76534800D03*
X196992700Y-77413900D03*
X202053300Y-60093500D03*
X211086100Y-72092100D03*
X208994900Y-59591100D03*
X194089700Y-68645900D03*
X179204600Y-51152200D03*
X194423500Y-50387500D03*
X206884300Y-66669900D03*
X204293100Y-70286900D03*
X215409400Y-56245700D03*
X205070300Y-50419400D03*
X176825900Y-61565400D03*
X180186700Y-62767500D03*
D28*
X193070000Y-57259200D02*
X193070000Y-59159500D01*
X199410000Y-60357400D02*
X198259700Y-60357400D01*
X198259700Y-60357400D02*
X197061800Y-59159500D01*
X197061800Y-59159500D02*
X193070000Y-59159500D01*
X186129000Y-55524400D02*
X187279300Y-55524400D01*
X187279300Y-55524400D02*
X187279300Y-56243300D01*
X187279300Y-56243300D02*
X188295200Y-57259200D01*
X188295200Y-57259200D02*
X193070000Y-57259200D01*
X174818000Y-49383700D02*
X174985600Y-49383700D01*
X174985600Y-49383700D02*
X175264000Y-49662100D01*
X172281000Y-49383700D02*
X174818000Y-49383700D01*
X174818000Y-49383700D02*
X174818000Y-45140700D01*
X172281000Y-47283700D02*
X173834600Y-47283700D01*
D29*
X177179000Y-85095100D02*
X171966900Y-79883000D01*
X171966900Y-79883000D02*
X169515000Y-79883000D01*
D28*
X174160000Y-55339000D02*
X174160000Y-54388700D01*
X174160000Y-54388700D02*
X177264000Y-51284700D01*
X177264000Y-51284700D02*
X177264000Y-49662100D01*
X172712000Y-84051100D02*
X175611800Y-86950900D01*
X175611800Y-86950900D02*
X177869900Y-86950900D01*
X177869900Y-86950900D02*
X179010200Y-85810600D01*
X179010200Y-85810600D02*
X179010200Y-83995300D01*
X179010200Y-83995300D02*
X178309600Y-83294700D01*
X178309600Y-83294700D02*
X178309600Y-72137500D01*
X178309600Y-72137500D02*
X181851500Y-68595600D01*
X181851500Y-68595600D02*
X181851500Y-63888900D01*
X181851500Y-63888900D02*
X182885200Y-62855200D01*
D29*
X208886000Y-85013800D02*
X211985700Y-85013800D01*
X189357600Y-80268400D02*
X190950700Y-80268400D01*
X190950700Y-80268400D02*
X195464000Y-84781700D01*
X195464000Y-84781700D02*
X195464000Y-85310700D01*
X195464000Y-85310700D02*
X197148800Y-86995500D01*
X197148800Y-86995500D02*
X206904300Y-86995500D01*
X206904300Y-86995500D02*
X208886000Y-85013800D01*
X213886000Y-85013800D02*
X211985700Y-85013800D01*
X189357600Y-80268400D02*
X188906000Y-80268400D01*
X188906000Y-80268400D02*
X184079300Y-85095100D01*
X189357600Y-80268400D02*
X189357600Y-76534800D01*
X182179000Y-85095100D02*
X184079300Y-85095100D01*
D28*
X169525000Y-74803000D02*
X173168000Y-71160000D01*
X173168000Y-71160000D02*
X173168000Y-69140700D01*
X183589000Y-55524400D02*
X181049000Y-55524400D01*
X186129000Y-47904400D02*
X188669000Y-47904400D01*
X183589000Y-47904400D02*
X186129000Y-47904400D01*
X181049000Y-47904400D02*
X183589000Y-47904400D01*
X210943500Y-70968700D02*
X207228600Y-74683600D01*
X207228600Y-74683600D02*
X204353000Y-74683600D01*
X207400200Y-45884200D02*
X207400200Y-52500600D01*
X210362800Y-55463200D02*
X213546500Y-55463200D01*
X211798000Y-70968700D02*
X210943500Y-70968700D01*
X215143400Y-57060100D02*
X215143400Y-67623300D01*
X207400200Y-52500600D02*
X210362800Y-55463200D01*
X201430860Y-44126180D02*
X205642180Y-44126180D01*
X205642180Y-44126180D02*
X207400200Y-45884200D01*
X213546500Y-55463200D02*
X215143400Y-57060100D01*
X215143400Y-67623300D02*
X211798000Y-70968700D01*
X197740500Y-42944800D02*
X201321420Y-42944800D01*
X196240000Y-44145200D02*
X197440300Y-44145200D01*
X197440300Y-44145200D02*
X197440300Y-43245000D01*
X197440300Y-43245000D02*
X197740500Y-42944800D01*
X201321420Y-44016740D02*
X201430860Y-44126180D01*
X201321420Y-42944800D02*
X201321420Y-44016740D01*
X204353000Y-64129900D02*
X202452700Y-64129900D01*
X198780000Y-44145200D02*
X199980300Y-44145200D01*
X199980300Y-44145200D02*
X202585000Y-46749900D01*
X202585000Y-46749900D02*
X205496700Y-46749900D01*
X205496700Y-46749900D02*
X205938200Y-47191400D01*
X205938200Y-47191400D02*
X205938200Y-51851900D01*
X205938200Y-51851900D02*
X204866900Y-52923200D01*
X204866900Y-52923200D02*
X201616700Y-52923200D01*
X201616700Y-52923200D02*
X201269600Y-53270300D01*
X201269600Y-53270300D02*
X201269600Y-62946800D01*
X201269600Y-62946800D02*
X202452700Y-64129900D01*
X210159700Y-54312800D02*
X212060000Y-54312800D01*
X205849670Y-43626170D02*
X210159700Y-47936200D01*
X210159700Y-47936200D02*
X210159700Y-54312800D01*
X201913890Y-43626170D02*
X205849670Y-43626170D01*
X193700000Y-44145200D02*
X194900300Y-44145200D01*
X194900300Y-44145200D02*
X194900300Y-43770100D01*
X194900300Y-43770100D02*
X196225900Y-42444500D01*
X196225900Y-42444500D02*
X201880300Y-42444500D01*
X201880300Y-42444500D02*
X201880300Y-43592580D01*
X201880300Y-43592580D02*
X201913890Y-43626170D01*
X176920000Y-65067200D02*
X176920000Y-63166900D01*
X191160000Y-44145200D02*
X189959700Y-44145200D01*
X189959700Y-44145200D02*
X189959700Y-43770100D01*
X189959700Y-43770100D02*
X188595000Y-42405400D01*
X188595000Y-42405400D02*
X173258600Y-42405400D01*
X173258600Y-42405400D02*
X171008000Y-44656000D01*
X171008000Y-44656000D02*
X171008000Y-57254900D01*
X171008000Y-57254900D02*
X176920000Y-63166900D01*
X188620000Y-44145200D02*
X187419700Y-44145200D01*
X187419700Y-44145200D02*
X187419700Y-43770000D01*
X187419700Y-43770000D02*
X186594600Y-42944900D01*
X186594600Y-42944900D02*
X174473800Y-42944900D01*
X174473800Y-42944900D02*
X172278000Y-45140700D01*
D29*
X196992700Y-77413900D02*
X202773600Y-83194800D01*
X202773600Y-83194800D02*
X202964000Y-83194800D01*
X202964000Y-85095100D02*
X202964000Y-83194800D01*
D28*
X213243000Y-61589900D02*
X209717700Y-61589900D01*
X209717700Y-61589900D02*
X208221300Y-60093500D01*
X208221300Y-60093500D02*
X202053300Y-60093500D01*
X211086100Y-72092100D02*
X211291200Y-72092100D01*
X211291200Y-72092100D02*
X211342700Y-72143600D01*
X213243000Y-72143600D02*
X211342700Y-72143600D01*
X203170000Y-56852800D02*
X205070300Y-56852800D01*
X208994900Y-59591100D02*
X207808600Y-59591100D01*
X207808600Y-59591100D02*
X205070300Y-56852800D01*
X194089700Y-68645900D02*
X190678700Y-72056900D01*
X190678700Y-72056900D02*
X179460000Y-72056900D01*
X179460000Y-73957200D02*
X179460000Y-72056900D01*
X199179000Y-70747900D02*
X200179300Y-70747900D01*
X200179300Y-70747900D02*
X201165100Y-69762100D01*
X201165100Y-69762100D02*
X201165100Y-67001500D01*
X201165100Y-67001500D02*
X202886300Y-65280300D01*
X202886300Y-65280300D02*
X206117600Y-65280300D01*
X206117600Y-65280300D02*
X206253300Y-65144600D01*
X206253300Y-65144600D02*
X206253300Y-61589900D01*
X204353000Y-61589900D02*
X206253300Y-61589900D01*
X183540000Y-44145200D02*
X184740300Y-44145200D01*
X184740300Y-44145200D02*
X184740300Y-44520400D01*
X184740300Y-44520400D02*
X185565400Y-45345500D01*
X185565400Y-45345500D02*
X197962400Y-45345500D01*
X197962400Y-45345500D02*
X200664800Y-48047900D01*
X199179000Y-73447900D02*
X198178700Y-73447900D01*
X200664800Y-48047900D02*
X200664800Y-66852300D01*
X200664800Y-66852300D02*
X198178700Y-69338400D01*
X198178700Y-69338400D02*
X198178700Y-73447900D01*
X200664800Y-48047900D02*
X204075700Y-48047900D01*
X204899000Y-48047900D02*
X204075700Y-48047900D01*
X179204600Y-51152200D02*
X194727300Y-51152200D01*
X194727300Y-51152200D02*
X195610000Y-50269500D01*
X195610000Y-48369200D02*
X195610000Y-50269500D01*
X193070000Y-50269500D02*
X194305500Y-50269500D01*
X194305500Y-50269500D02*
X194423500Y-50387500D01*
X193070000Y-48369200D02*
X193070000Y-50269500D01*
X213243000Y-66669900D02*
X206884300Y-66669900D01*
X202452700Y-72143600D02*
X202452700Y-71161500D01*
X202452700Y-71161500D02*
X203327300Y-70286900D01*
X203327300Y-70286900D02*
X204293100Y-70286900D01*
X204353000Y-72143600D02*
X202452700Y-72143600D01*
X215143300Y-77223600D02*
X215643800Y-76723100D01*
X215643800Y-76723100D02*
X215643800Y-56480100D01*
X215643800Y-56480100D02*
X215409400Y-56245700D01*
X213243000Y-77223600D02*
X215143300Y-77223600D01*
X212060000Y-56852800D02*
X210159700Y-56852800D01*
X204899000Y-45347900D02*
X205899300Y-45347900D01*
X205899300Y-45347900D02*
X206452000Y-45900600D01*
X206452000Y-45900600D02*
X206452000Y-53145100D01*
X206452000Y-53145100D02*
X210159700Y-56852800D01*
X205070300Y-51772800D02*
X205070300Y-50419400D01*
X203170000Y-51772800D02*
X205070300Y-51772800D01*
X179460000Y-65067200D02*
X179460000Y-63166900D01*
X176825900Y-61565400D02*
X178427400Y-63166900D01*
X178427400Y-63166900D02*
X179460000Y-63166900D01*
X174380000Y-72056900D02*
X175315700Y-72056900D01*
X175315700Y-72056900D02*
X180610400Y-66762200D01*
X180610400Y-66762200D02*
X180610400Y-63191200D01*
X180610400Y-63191200D02*
X180186700Y-62767500D01*
X174380000Y-73957200D02*
X174380000Y-72056900D01*
X188997000Y-61781500D02*
X178602500Y-61781500D01*
X178602500Y-61781500D02*
X174160000Y-57339000D01*
X193858000Y-65131700D02*
X192364700Y-65131700D01*
X192364700Y-65131700D02*
X189014500Y-61781500D01*
X189014500Y-61781500D02*
X188997000Y-61781500D01*
X188997000Y-61206400D02*
X188997000Y-61781500D01*
X193838000Y-78051700D02*
X193838000Y-69962700D01*
X193838000Y-69962700D02*
X199400000Y-64400700D01*
X186063000Y-60383400D02*
X186063000Y-59433100D01*
X186063000Y-59433100D02*
X184978600Y-58348700D01*
X184978600Y-58348700D02*
X184978600Y-54577800D01*
X184978600Y-54577800D02*
X185182400Y-54374000D01*
X185182400Y-54374000D02*
X187518600Y-54374000D01*
X187518600Y-54374000D02*
X188669000Y-55524400D01*
X188669000Y-55524400D02*
X189819300Y-55524400D01*
X195610000Y-57259200D02*
X195610000Y-55358900D01*
X195610000Y-55358900D02*
X189984800Y-55358900D01*
X189984800Y-55358900D02*
X189819300Y-55524400D01*
D30*
G36*
X177018519Y-43788309D02*
G01*
X177139186Y-44018200D01*
X178333000Y-44018200D01*
X178333000Y-43998200D01*
X178587000Y-43998200D01*
X178587000Y-44018200D01*
X178607000Y-44018200D01*
X178607000Y-44272200D01*
X178587000Y-44272200D01*
X178587000Y-45465355D01*
X178816890Y-45586676D01*
X178964099Y-45542025D01*
X179226920Y-45416841D01*
X179460269Y-45242788D01*
X179655178Y-45026555D01*
X179724805Y-44909666D01*
X179846525Y-45091832D01*
X180053368Y-45298675D01*
X180296589Y-45461190D01*
X180566842Y-45573132D01*
X180853740Y-45630200D01*
X181146260Y-45630200D01*
X181433158Y-45573132D01*
X181703411Y-45461190D01*
X181946632Y-45298675D01*
X182153475Y-45091832D01*
X182270000Y-44917440D01*
X182386525Y-45091832D01*
X182593368Y-45298675D01*
X182836589Y-45461190D01*
X183106842Y-45573132D01*
X183393740Y-45630200D01*
X183686260Y-45630200D01*
X183973158Y-45573132D01*
X184243411Y-45461190D01*
X184439746Y-45330003D01*
X184983053Y-45873310D01*
X185007636Y-45903264D01*
X185127167Y-46001362D01*
X185263540Y-46074254D01*
X185411513Y-46119142D01*
X185486426Y-46126520D01*
X185526839Y-46130500D01*
X185526844Y-46130500D01*
X185565400Y-46134297D01*
X185603956Y-46130500D01*
X197637243Y-46130500D01*
X199879800Y-48373057D01*
X199879800Y-51498766D01*
X199828574Y-51477547D01*
X199551335Y-51422400D01*
X199268665Y-51422400D01*
X198991426Y-51477547D01*
X198730273Y-51585720D01*
X198495241Y-51742763D01*
X198295363Y-51942641D01*
X198138320Y-52177673D01*
X198030147Y-52438826D01*
X197975000Y-52716065D01*
X197975000Y-52998735D01*
X198030147Y-53275974D01*
X198138320Y-53537127D01*
X198295363Y-53772159D01*
X198495241Y-53972037D01*
X198730273Y-54129080D01*
X198991426Y-54237253D01*
X199268665Y-54292400D01*
X199551335Y-54292400D01*
X199828574Y-54237253D01*
X199879800Y-54216034D01*
X199879801Y-58998766D01*
X199828574Y-58977547D01*
X199551335Y-58922400D01*
X199268665Y-58922400D01*
X198991426Y-58977547D01*
X198730273Y-59085720D01*
X198495241Y-59242763D01*
X198375231Y-59362773D01*
X197644147Y-58631690D01*
X197619564Y-58601736D01*
X197500033Y-58503638D01*
X197363660Y-58430746D01*
X197215687Y-58385859D01*
X197100361Y-58374500D01*
X197100353Y-58374500D01*
X197061800Y-58370703D01*
X197048072Y-58372055D01*
X197048072Y-55709200D01*
X197035812Y-55584718D01*
X196999502Y-55465020D01*
X196940537Y-55354706D01*
X196861185Y-55258015D01*
X196764494Y-55178663D01*
X196654180Y-55119698D01*
X196534482Y-55083388D01*
X196410000Y-55071128D01*
X196343028Y-55071128D01*
X196338754Y-55057040D01*
X196265862Y-54920667D01*
X196167764Y-54801136D01*
X196048233Y-54703038D01*
X195911860Y-54630146D01*
X195763887Y-54585259D01*
X195648561Y-54573900D01*
X195610000Y-54570102D01*
X195571440Y-54573900D01*
X190086920Y-54573900D01*
X190058502Y-54480220D01*
X189999537Y-54369906D01*
X189920185Y-54273215D01*
X189823494Y-54193863D01*
X189713180Y-54134898D01*
X189593482Y-54098588D01*
X189469000Y-54086328D01*
X188341085Y-54086328D01*
X188100947Y-53846190D01*
X188076364Y-53816236D01*
X187956833Y-53718138D01*
X187820460Y-53645246D01*
X187672487Y-53600359D01*
X187557161Y-53589000D01*
X187557153Y-53589000D01*
X187518600Y-53585203D01*
X187480047Y-53589000D01*
X185220956Y-53589000D01*
X185182400Y-53585203D01*
X185143844Y-53589000D01*
X185143839Y-53589000D01*
X185103426Y-53592980D01*
X185028513Y-53600358D01*
X184914981Y-53634799D01*
X184880540Y-53645246D01*
X184744167Y-53718138D01*
X184624636Y-53816236D01*
X184600050Y-53846194D01*
X184450786Y-53995457D01*
X184420837Y-54020036D01*
X184396259Y-54049984D01*
X184396255Y-54049988D01*
X184378075Y-54072141D01*
X184366432Y-54086328D01*
X182789000Y-54086328D01*
X182664518Y-54098588D01*
X182544820Y-54134898D01*
X182434506Y-54193863D01*
X182337815Y-54273215D01*
X182319000Y-54296141D01*
X182300185Y-54273215D01*
X182203494Y-54193863D01*
X182093180Y-54134898D01*
X181973482Y-54098588D01*
X181849000Y-54086328D01*
X180249000Y-54086328D01*
X180124518Y-54098588D01*
X180004820Y-54134898D01*
X179894506Y-54193863D01*
X179797815Y-54273215D01*
X179718463Y-54369906D01*
X179659498Y-54480220D01*
X179623188Y-54599918D01*
X179610928Y-54724400D01*
X179610928Y-56324400D01*
X179623188Y-56448882D01*
X179659498Y-56568580D01*
X179718463Y-56678894D01*
X179797815Y-56775585D01*
X179894506Y-56854937D01*
X180004820Y-56913902D01*
X180124518Y-56950212D01*
X180249000Y-56962472D01*
X181849000Y-56962472D01*
X181973482Y-56950212D01*
X182093180Y-56913902D01*
X182203494Y-56854937D01*
X182300185Y-56775585D01*
X182319000Y-56752659D01*
X182337815Y-56775585D01*
X182434506Y-56854937D01*
X182544820Y-56913902D01*
X182664518Y-56950212D01*
X182789000Y-56962472D01*
X184193600Y-56962472D01*
X184193600Y-58310147D01*
X184189803Y-58348700D01*
X184193600Y-58387253D01*
X184193600Y-58387260D01*
X184204959Y-58502586D01*
X184249846Y-58650559D01*
X184322738Y-58786932D01*
X184420836Y-58906464D01*
X184450790Y-58931047D01*
X184939759Y-59420016D01*
X184932463Y-59428906D01*
X184905501Y-59479347D01*
X184850267Y-59424113D01*
X184647992Y-59288957D01*
X184423236Y-59195860D01*
X184184637Y-59148400D01*
X183941363Y-59148400D01*
X183702764Y-59195860D01*
X183478008Y-59288957D01*
X183275733Y-59424113D01*
X183103713Y-59596133D01*
X182968557Y-59798408D01*
X182875460Y-60023164D01*
X182828000Y-60261763D01*
X182828000Y-60505037D01*
X182875460Y-60743636D01*
X182968557Y-60968392D01*
X182987338Y-60996500D01*
X178927657Y-60996500D01*
X175394468Y-57463311D01*
X175395000Y-57460637D01*
X175395000Y-57217363D01*
X175347540Y-56978764D01*
X175254443Y-56754008D01*
X175119287Y-56551733D01*
X175064053Y-56496499D01*
X175114494Y-56469537D01*
X175211185Y-56390185D01*
X175290537Y-56293494D01*
X175349502Y-56183180D01*
X175385812Y-56063482D01*
X175398072Y-55939000D01*
X175398072Y-54739000D01*
X175385812Y-54614518D01*
X175349502Y-54494820D01*
X175290537Y-54384506D01*
X175283241Y-54375616D01*
X177791817Y-51867041D01*
X177821764Y-51842464D01*
X177849998Y-51808062D01*
X177870450Y-51783141D01*
X177919862Y-51722933D01*
X177992754Y-51586560D01*
X178025823Y-51477547D01*
X178037642Y-51438587D01*
X178045020Y-51363674D01*
X178049000Y-51323261D01*
X178049000Y-51323256D01*
X178052797Y-51284700D01*
X178049000Y-51246144D01*
X178049000Y-50869554D01*
X178108180Y-50851602D01*
X178218494Y-50792637D01*
X178240864Y-50774278D01*
X178209374Y-50850302D01*
X178169600Y-51050261D01*
X178169600Y-51254139D01*
X178209374Y-51454098D01*
X178287395Y-51642456D01*
X178400663Y-51811974D01*
X178544826Y-51956137D01*
X178714344Y-52069405D01*
X178902702Y-52147426D01*
X179102661Y-52187200D01*
X179306539Y-52187200D01*
X179506498Y-52147426D01*
X179694856Y-52069405D01*
X179864374Y-51956137D01*
X179883311Y-51937200D01*
X194688747Y-51937200D01*
X194727300Y-51940997D01*
X194765853Y-51937200D01*
X194765861Y-51937200D01*
X194881187Y-51925841D01*
X195029160Y-51880954D01*
X195165533Y-51808062D01*
X195285064Y-51709964D01*
X195309647Y-51680010D01*
X196137815Y-50851843D01*
X196167764Y-50827264D01*
X196192346Y-50797312D01*
X196216450Y-50767941D01*
X196265862Y-50707733D01*
X196338754Y-50571360D01*
X196343028Y-50557272D01*
X196410000Y-50557272D01*
X196534482Y-50545012D01*
X196654180Y-50508702D01*
X196764494Y-50449737D01*
X196861185Y-50370385D01*
X196940537Y-50273694D01*
X196999502Y-50163380D01*
X197035812Y-50043682D01*
X197048072Y-49919200D01*
X197048072Y-46819200D01*
X197035812Y-46694718D01*
X196999502Y-46575020D01*
X196940537Y-46464706D01*
X196861185Y-46368015D01*
X196764494Y-46288663D01*
X196654180Y-46229698D01*
X196534482Y-46193388D01*
X196410000Y-46181128D01*
X194810000Y-46181128D01*
X194685518Y-46193388D01*
X194565820Y-46229698D01*
X194455506Y-46288663D01*
X194358815Y-46368015D01*
X194340000Y-46390941D01*
X194321185Y-46368015D01*
X194224494Y-46288663D01*
X194114180Y-46229698D01*
X193994482Y-46193388D01*
X193870000Y-46181128D01*
X192270000Y-46181128D01*
X192145518Y-46193388D01*
X192025820Y-46229698D01*
X191915506Y-46288663D01*
X191818815Y-46368015D01*
X191739463Y-46464706D01*
X191680498Y-46575020D01*
X191644188Y-46694718D01*
X191631928Y-46819200D01*
X191631928Y-49919200D01*
X191644188Y-50043682D01*
X191680498Y-50163380D01*
X191739463Y-50273694D01*
X191816201Y-50367200D01*
X179883311Y-50367200D01*
X179864374Y-50348263D01*
X179694856Y-50234995D01*
X179506498Y-50156974D01*
X179306539Y-50117200D01*
X179102661Y-50117200D01*
X178902702Y-50156974D01*
X178714344Y-50234995D01*
X178544826Y-50348263D01*
X178482542Y-50410547D01*
X178489812Y-50386582D01*
X178502072Y-50262100D01*
X178502072Y-49062100D01*
X178489812Y-48937618D01*
X178453502Y-48817920D01*
X178394537Y-48707606D01*
X178315185Y-48610915D01*
X178218494Y-48531563D01*
X178108180Y-48472598D01*
X177988482Y-48436288D01*
X177864000Y-48424028D01*
X176664000Y-48424028D01*
X176539518Y-48436288D01*
X176419820Y-48472598D01*
X176309506Y-48531563D01*
X176212815Y-48610915D01*
X176133463Y-48707606D01*
X176109142Y-48753106D01*
X176051264Y-48695228D01*
X175934158Y-48812334D01*
X175886852Y-48588752D01*
X175665484Y-48487863D01*
X175428687Y-48432100D01*
X175185562Y-48423605D01*
X174945451Y-48462705D01*
X174717582Y-48547898D01*
X174641148Y-48588752D01*
X174593841Y-48812336D01*
X175264000Y-49482495D01*
X175278143Y-49468353D01*
X175457748Y-49647958D01*
X175443605Y-49662100D01*
X175457748Y-49676243D01*
X175278143Y-49855848D01*
X175264000Y-49841705D01*
X174593841Y-50511864D01*
X174641148Y-50735448D01*
X174862516Y-50836337D01*
X175099313Y-50892100D01*
X175342438Y-50900595D01*
X175582549Y-50861495D01*
X175810418Y-50776302D01*
X175886852Y-50735448D01*
X175934158Y-50511866D01*
X176051264Y-50628972D01*
X176109142Y-50571094D01*
X176133463Y-50616594D01*
X176212815Y-50713285D01*
X176309506Y-50792637D01*
X176419820Y-50851602D01*
X176479000Y-50869554D01*
X176479000Y-50959542D01*
X173632185Y-53806358D01*
X173602237Y-53830936D01*
X173577659Y-53860884D01*
X173577655Y-53860888D01*
X173566429Y-53874567D01*
X173504139Y-53950467D01*
X173492610Y-53972037D01*
X173431246Y-54086841D01*
X173422011Y-54117285D01*
X173315820Y-54149498D01*
X173205506Y-54208463D01*
X173108815Y-54287815D01*
X173029463Y-54384506D01*
X172970498Y-54494820D01*
X172934188Y-54614518D01*
X172921928Y-54739000D01*
X172921928Y-55939000D01*
X172934188Y-56063482D01*
X172970498Y-56183180D01*
X173029463Y-56293494D01*
X173108815Y-56390185D01*
X173205506Y-56469537D01*
X173255947Y-56496499D01*
X173200713Y-56551733D01*
X173065557Y-56754008D01*
X172972460Y-56978764D01*
X172925000Y-57217363D01*
X172925000Y-57460637D01*
X172972460Y-57699236D01*
X173065557Y-57923992D01*
X173200713Y-58126267D01*
X173372733Y-58298287D01*
X173575008Y-58433443D01*
X173799764Y-58526540D01*
X174038363Y-58574000D01*
X174281637Y-58574000D01*
X174284311Y-58573468D01*
X176352186Y-60641343D01*
X176335644Y-60648195D01*
X176166126Y-60761463D01*
X176021963Y-60905626D01*
X175920594Y-61057337D01*
X171793000Y-56929743D01*
X171793000Y-50418029D01*
X171831000Y-50421772D01*
X171995250Y-50418700D01*
X172154000Y-50259950D01*
X172154000Y-49510700D01*
X172408000Y-49510700D01*
X172408000Y-50259950D01*
X172566750Y-50418700D01*
X172731000Y-50421772D01*
X172855482Y-50409512D01*
X172975180Y-50373202D01*
X173085494Y-50314237D01*
X173182185Y-50234885D01*
X173261537Y-50138194D01*
X173320502Y-50027880D01*
X173356812Y-49908182D01*
X173369072Y-49783700D01*
X173367912Y-49740538D01*
X174025505Y-49740538D01*
X174064605Y-49980649D01*
X174149798Y-50208518D01*
X174190652Y-50284952D01*
X174414236Y-50332259D01*
X175084395Y-49662100D01*
X174414236Y-48991941D01*
X174190652Y-49039248D01*
X174089763Y-49260616D01*
X174034000Y-49497413D01*
X174025505Y-49740538D01*
X173367912Y-49740538D01*
X173366000Y-49669450D01*
X173207250Y-49510700D01*
X172408000Y-49510700D01*
X172154000Y-49510700D01*
X172134000Y-49510700D01*
X172134000Y-49256700D01*
X172154000Y-49256700D01*
X172154000Y-48507450D01*
X172408000Y-48507450D01*
X172408000Y-49256700D01*
X173207250Y-49256700D01*
X173366000Y-49097950D01*
X173369072Y-48983700D01*
X173356812Y-48859218D01*
X173320502Y-48739520D01*
X173261537Y-48629206D01*
X173182185Y-48532515D01*
X173085494Y-48453163D01*
X172975180Y-48394198D01*
X172855482Y-48357888D01*
X172731000Y-48345628D01*
X172566750Y-48348700D01*
X172408000Y-48507450D01*
X172154000Y-48507450D01*
X171995250Y-48348700D01*
X171831000Y-48345628D01*
X171793000Y-48349371D01*
X171793000Y-48318029D01*
X171831000Y-48321772D01*
X172731000Y-48321772D01*
X172855482Y-48309512D01*
X172975180Y-48273202D01*
X173085494Y-48214237D01*
X173182185Y-48134885D01*
X173204622Y-48107546D01*
X173344344Y-48200905D01*
X173532702Y-48278926D01*
X173732661Y-48318700D01*
X173936539Y-48318700D01*
X174136498Y-48278926D01*
X174324856Y-48200905D01*
X174494374Y-48087637D01*
X174638537Y-47943474D01*
X174751805Y-47773956D01*
X174829826Y-47585598D01*
X174869600Y-47385639D01*
X174869600Y-47181761D01*
X174854213Y-47104400D01*
X179610928Y-47104400D01*
X179610928Y-48704400D01*
X179623188Y-48828882D01*
X179659498Y-48948580D01*
X179718463Y-49058894D01*
X179797815Y-49155585D01*
X179894506Y-49234937D01*
X180004820Y-49293902D01*
X180124518Y-49330212D01*
X180249000Y-49342472D01*
X181849000Y-49342472D01*
X181973482Y-49330212D01*
X182093180Y-49293902D01*
X182203494Y-49234937D01*
X182300185Y-49155585D01*
X182319000Y-49132659D01*
X182337815Y-49155585D01*
X182434506Y-49234937D01*
X182544820Y-49293902D01*
X182664518Y-49330212D01*
X182789000Y-49342472D01*
X184389000Y-49342472D01*
X184513482Y-49330212D01*
X184633180Y-49293902D01*
X184743494Y-49234937D01*
X184840185Y-49155585D01*
X184859000Y-49132659D01*
X184877815Y-49155585D01*
X184974506Y-49234937D01*
X185084820Y-49293902D01*
X185204518Y-49330212D01*
X185329000Y-49342472D01*
X186929000Y-49342472D01*
X187053482Y-49330212D01*
X187173180Y-49293902D01*
X187283494Y-49234937D01*
X187380185Y-49155585D01*
X187399000Y-49132659D01*
X187417815Y-49155585D01*
X187514506Y-49234937D01*
X187624820Y-49293902D01*
X187744518Y-49330212D01*
X187869000Y-49342472D01*
X189469000Y-49342472D01*
X189593482Y-49330212D01*
X189713180Y-49293902D01*
X189823494Y-49234937D01*
X189920185Y-49155585D01*
X189999537Y-49058894D01*
X190058502Y-48948580D01*
X190094812Y-48828882D01*
X190107072Y-48704400D01*
X190107072Y-47104400D01*
X190094812Y-46979918D01*
X190058502Y-46860220D01*
X189999537Y-46749906D01*
X189920185Y-46653215D01*
X189823494Y-46573863D01*
X189713180Y-46514898D01*
X189593482Y-46478588D01*
X189469000Y-46466328D01*
X187869000Y-46466328D01*
X187744518Y-46478588D01*
X187624820Y-46514898D01*
X187514506Y-46573863D01*
X187417815Y-46653215D01*
X187399000Y-46676141D01*
X187380185Y-46653215D01*
X187283494Y-46573863D01*
X187173180Y-46514898D01*
X187053482Y-46478588D01*
X186929000Y-46466328D01*
X185329000Y-46466328D01*
X185204518Y-46478588D01*
X185084820Y-46514898D01*
X184974506Y-46573863D01*
X184877815Y-46653215D01*
X184859000Y-46676141D01*
X184840185Y-46653215D01*
X184743494Y-46573863D01*
X184633180Y-46514898D01*
X184513482Y-46478588D01*
X184389000Y-46466328D01*
X182789000Y-46466328D01*
X182664518Y-46478588D01*
X182544820Y-46514898D01*
X182434506Y-46573863D01*
X182337815Y-46653215D01*
X182319000Y-46676141D01*
X182300185Y-46653215D01*
X182203494Y-46573863D01*
X182093180Y-46514898D01*
X181973482Y-46478588D01*
X181849000Y-46466328D01*
X180249000Y-46466328D01*
X180124518Y-46478588D01*
X180004820Y-46514898D01*
X179894506Y-46573863D01*
X179797815Y-46653215D01*
X179718463Y-46749906D01*
X179659498Y-46860220D01*
X179623188Y-46979918D01*
X179610928Y-47104400D01*
X174854213Y-47104400D01*
X174829826Y-46981802D01*
X174751805Y-46793444D01*
X174651923Y-46643959D01*
X174885543Y-46656504D01*
X175179963Y-46614201D01*
X175460474Y-46515272D01*
X175603975Y-46438568D01*
X175684635Y-46186940D01*
X174818000Y-45320305D01*
X173951365Y-46186940D01*
X173973520Y-46256056D01*
X173936539Y-46248700D01*
X173732661Y-46248700D01*
X173532702Y-46288474D01*
X173344344Y-46366495D01*
X173204622Y-46459854D01*
X173182185Y-46432515D01*
X173128512Y-46388467D01*
X173240569Y-46313593D01*
X173450893Y-46103269D01*
X173560288Y-45939547D01*
X173771760Y-46007335D01*
X174638395Y-45140700D01*
X174997605Y-45140700D01*
X175864240Y-46007335D01*
X176115868Y-45926675D01*
X176244267Y-45658371D01*
X176317855Y-45370174D01*
X176333804Y-45073157D01*
X176291501Y-44778737D01*
X176193936Y-44502091D01*
X177018519Y-44502091D01*
X177115843Y-44776452D01*
X177264822Y-45026555D01*
X177459731Y-45242788D01*
X177693080Y-45416841D01*
X177955901Y-45542025D01*
X178103110Y-45586676D01*
X178333000Y-45465355D01*
X178333000Y-44272200D01*
X177139186Y-44272200D01*
X177018519Y-44502091D01*
X176193936Y-44502091D01*
X176192572Y-44498226D01*
X176115868Y-44354725D01*
X175864240Y-44274065D01*
X174997605Y-45140700D01*
X174638395Y-45140700D01*
X174624253Y-45126558D01*
X174803858Y-44946953D01*
X174818000Y-44961095D01*
X175684635Y-44094460D01*
X175603975Y-43842832D01*
X175367991Y-43729900D01*
X177039238Y-43729900D01*
X177018519Y-43788309D01*
G37*
X177018519Y-43788309D02*
X177139186Y-44018200D01*
X178333000Y-44018200D01*
X178333000Y-43998200D01*
X178587000Y-43998200D01*
X178587000Y-44018200D01*
X178607000Y-44018200D01*
X178607000Y-44272200D01*
X178587000Y-44272200D01*
X178587000Y-45465355D01*
X178816890Y-45586676D01*
X178964099Y-45542025D01*
X179226920Y-45416841D01*
X179460269Y-45242788D01*
X179655178Y-45026555D01*
X179724805Y-44909666D01*
X179846525Y-45091832D01*
X180053368Y-45298675D01*
X180296589Y-45461190D01*
X180566842Y-45573132D01*
X180853740Y-45630200D01*
X181146260Y-45630200D01*
X181433158Y-45573132D01*
X181703411Y-45461190D01*
X181946632Y-45298675D01*
X182153475Y-45091832D01*
X182270000Y-44917440D01*
X182386525Y-45091832D01*
X182593368Y-45298675D01*
X182836589Y-45461190D01*
X183106842Y-45573132D01*
X183393740Y-45630200D01*
X183686260Y-45630200D01*
X183973158Y-45573132D01*
X184243411Y-45461190D01*
X184439746Y-45330003D01*
X184983053Y-45873310D01*
X185007636Y-45903264D01*
X185127167Y-46001362D01*
X185263540Y-46074254D01*
X185411513Y-46119142D01*
X185486426Y-46126520D01*
X185526839Y-46130500D01*
X185526844Y-46130500D01*
X185565400Y-46134297D01*
X185603956Y-46130500D01*
X197637243Y-46130500D01*
X199879800Y-48373057D01*
X199879800Y-51498766D01*
X199828574Y-51477547D01*
X199551335Y-51422400D01*
X199268665Y-51422400D01*
X198991426Y-51477547D01*
X198730273Y-51585720D01*
X198495241Y-51742763D01*
X198295363Y-51942641D01*
X198138320Y-52177673D01*
X198030147Y-52438826D01*
X197975000Y-52716065D01*
X197975000Y-52998735D01*
X198030147Y-53275974D01*
X198138320Y-53537127D01*
X198295363Y-53772159D01*
X198495241Y-53972037D01*
X198730273Y-54129080D01*
X198991426Y-54237253D01*
X199268665Y-54292400D01*
X199551335Y-54292400D01*
X199828574Y-54237253D01*
X199879800Y-54216034D01*
X199879801Y-58998766D01*
X199828574Y-58977547D01*
X199551335Y-58922400D01*
X199268665Y-58922400D01*
X198991426Y-58977547D01*
X198730273Y-59085720D01*
X198495241Y-59242763D01*
X198375231Y-59362773D01*
X197644147Y-58631690D01*
X197619564Y-58601736D01*
X197500033Y-58503638D01*
X197363660Y-58430746D01*
X197215687Y-58385859D01*
X197100361Y-58374500D01*
X197100353Y-58374500D01*
X197061800Y-58370703D01*
X197048072Y-58372055D01*
X197048072Y-55709200D01*
X197035812Y-55584718D01*
X196999502Y-55465020D01*
X196940537Y-55354706D01*
X196861185Y-55258015D01*
X196764494Y-55178663D01*
X196654180Y-55119698D01*
X196534482Y-55083388D01*
X196410000Y-55071128D01*
X196343028Y-55071128D01*
X196338754Y-55057040D01*
X196265862Y-54920667D01*
X196167764Y-54801136D01*
X196048233Y-54703038D01*
X195911860Y-54630146D01*
X195763887Y-54585259D01*
X195648561Y-54573900D01*
X195610000Y-54570102D01*
X195571440Y-54573900D01*
X190086920Y-54573900D01*
X190058502Y-54480220D01*
X189999537Y-54369906D01*
X189920185Y-54273215D01*
X189823494Y-54193863D01*
X189713180Y-54134898D01*
X189593482Y-54098588D01*
X189469000Y-54086328D01*
X188341085Y-54086328D01*
X188100947Y-53846190D01*
X188076364Y-53816236D01*
X187956833Y-53718138D01*
X187820460Y-53645246D01*
X187672487Y-53600359D01*
X187557161Y-53589000D01*
X187557153Y-53589000D01*
X187518600Y-53585203D01*
X187480047Y-53589000D01*
X185220956Y-53589000D01*
X185182400Y-53585203D01*
X185143844Y-53589000D01*
X185143839Y-53589000D01*
X185103426Y-53592980D01*
X185028513Y-53600358D01*
X184914981Y-53634799D01*
X184880540Y-53645246D01*
X184744167Y-53718138D01*
X184624636Y-53816236D01*
X184600050Y-53846194D01*
X184450786Y-53995457D01*
X184420837Y-54020036D01*
X184396259Y-54049984D01*
X184396255Y-54049988D01*
X184378075Y-54072141D01*
X184366432Y-54086328D01*
X182789000Y-54086328D01*
X182664518Y-54098588D01*
X182544820Y-54134898D01*
X182434506Y-54193863D01*
X182337815Y-54273215D01*
X182319000Y-54296141D01*
X182300185Y-54273215D01*
X182203494Y-54193863D01*
X182093180Y-54134898D01*
X181973482Y-54098588D01*
X181849000Y-54086328D01*
X180249000Y-54086328D01*
X180124518Y-54098588D01*
X180004820Y-54134898D01*
X179894506Y-54193863D01*
X179797815Y-54273215D01*
X179718463Y-54369906D01*
X179659498Y-54480220D01*
X179623188Y-54599918D01*
X179610928Y-54724400D01*
X179610928Y-56324400D01*
X179623188Y-56448882D01*
X179659498Y-56568580D01*
X179718463Y-56678894D01*
X179797815Y-56775585D01*
X179894506Y-56854937D01*
X180004820Y-56913902D01*
X180124518Y-56950212D01*
X180249000Y-56962472D01*
X181849000Y-56962472D01*
X181973482Y-56950212D01*
X182093180Y-56913902D01*
X182203494Y-56854937D01*
X182300185Y-56775585D01*
X182319000Y-56752659D01*
X182337815Y-56775585D01*
X182434506Y-56854937D01*
X182544820Y-56913902D01*
X182664518Y-56950212D01*
X182789000Y-56962472D01*
X184193600Y-56962472D01*
X184193600Y-58310147D01*
X184189803Y-58348700D01*
X184193600Y-58387253D01*
X184193600Y-58387260D01*
X184204959Y-58502586D01*
X184249846Y-58650559D01*
X184322738Y-58786932D01*
X184420836Y-58906464D01*
X184450790Y-58931047D01*
X184939759Y-59420016D01*
X184932463Y-59428906D01*
X184905501Y-59479347D01*
X184850267Y-59424113D01*
X184647992Y-59288957D01*
X184423236Y-59195860D01*
X184184637Y-59148400D01*
X183941363Y-59148400D01*
X183702764Y-59195860D01*
X183478008Y-59288957D01*
X183275733Y-59424113D01*
X183103713Y-59596133D01*
X182968557Y-59798408D01*
X182875460Y-60023164D01*
X182828000Y-60261763D01*
X182828000Y-60505037D01*
X182875460Y-60743636D01*
X182968557Y-60968392D01*
X182987338Y-60996500D01*
X178927657Y-60996500D01*
X175394468Y-57463311D01*
X175395000Y-57460637D01*
X175395000Y-57217363D01*
X175347540Y-56978764D01*
X175254443Y-56754008D01*
X175119287Y-56551733D01*
X175064053Y-56496499D01*
X175114494Y-56469537D01*
X175211185Y-56390185D01*
X175290537Y-56293494D01*
X175349502Y-56183180D01*
X175385812Y-56063482D01*
X175398072Y-55939000D01*
X175398072Y-54739000D01*
X175385812Y-54614518D01*
X175349502Y-54494820D01*
X175290537Y-54384506D01*
X175283241Y-54375616D01*
X177791817Y-51867041D01*
X177821764Y-51842464D01*
X177849998Y-51808062D01*
X177870450Y-51783141D01*
X177919862Y-51722933D01*
X177992754Y-51586560D01*
X178025823Y-51477547D01*
X178037642Y-51438587D01*
X178045020Y-51363674D01*
X178049000Y-51323261D01*
X178049000Y-51323256D01*
X178052797Y-51284700D01*
X178049000Y-51246144D01*
X178049000Y-50869554D01*
X178108180Y-50851602D01*
X178218494Y-50792637D01*
X178240864Y-50774278D01*
X178209374Y-50850302D01*
X178169600Y-51050261D01*
X178169600Y-51254139D01*
X178209374Y-51454098D01*
X178287395Y-51642456D01*
X178400663Y-51811974D01*
X178544826Y-51956137D01*
X178714344Y-52069405D01*
X178902702Y-52147426D01*
X179102661Y-52187200D01*
X179306539Y-52187200D01*
X179506498Y-52147426D01*
X179694856Y-52069405D01*
X179864374Y-51956137D01*
X179883311Y-51937200D01*
X194688747Y-51937200D01*
X194727300Y-51940997D01*
X194765853Y-51937200D01*
X194765861Y-51937200D01*
X194881187Y-51925841D01*
X195029160Y-51880954D01*
X195165533Y-51808062D01*
X195285064Y-51709964D01*
X195309647Y-51680010D01*
X196137815Y-50851843D01*
X196167764Y-50827264D01*
X196192346Y-50797312D01*
X196216450Y-50767941D01*
X196265862Y-50707733D01*
X196338754Y-50571360D01*
X196343028Y-50557272D01*
X196410000Y-50557272D01*
X196534482Y-50545012D01*
X196654180Y-50508702D01*
X196764494Y-50449737D01*
X196861185Y-50370385D01*
X196940537Y-50273694D01*
X196999502Y-50163380D01*
X197035812Y-50043682D01*
X197048072Y-49919200D01*
X197048072Y-46819200D01*
X197035812Y-46694718D01*
X196999502Y-46575020D01*
X196940537Y-46464706D01*
X196861185Y-46368015D01*
X196764494Y-46288663D01*
X196654180Y-46229698D01*
X196534482Y-46193388D01*
X196410000Y-46181128D01*
X194810000Y-46181128D01*
X194685518Y-46193388D01*
X194565820Y-46229698D01*
X194455506Y-46288663D01*
X194358815Y-46368015D01*
X194340000Y-46390941D01*
X194321185Y-46368015D01*
X194224494Y-46288663D01*
X194114180Y-46229698D01*
X193994482Y-46193388D01*
X193870000Y-46181128D01*
X192270000Y-46181128D01*
X192145518Y-46193388D01*
X192025820Y-46229698D01*
X191915506Y-46288663D01*
X191818815Y-46368015D01*
X191739463Y-46464706D01*
X191680498Y-46575020D01*
X191644188Y-46694718D01*
X191631928Y-46819200D01*
X191631928Y-49919200D01*
X191644188Y-50043682D01*
X191680498Y-50163380D01*
X191739463Y-50273694D01*
X191816201Y-50367200D01*
X179883311Y-50367200D01*
X179864374Y-50348263D01*
X179694856Y-50234995D01*
X179506498Y-50156974D01*
X179306539Y-50117200D01*
X179102661Y-50117200D01*
X178902702Y-50156974D01*
X178714344Y-50234995D01*
X178544826Y-50348263D01*
X178482542Y-50410547D01*
X178489812Y-50386582D01*
X178502072Y-50262100D01*
X178502072Y-49062100D01*
X178489812Y-48937618D01*
X178453502Y-48817920D01*
X178394537Y-48707606D01*
X178315185Y-48610915D01*
X178218494Y-48531563D01*
X178108180Y-48472598D01*
X177988482Y-48436288D01*
X177864000Y-48424028D01*
X176664000Y-48424028D01*
X176539518Y-48436288D01*
X176419820Y-48472598D01*
X176309506Y-48531563D01*
X176212815Y-48610915D01*
X176133463Y-48707606D01*
X176109142Y-48753106D01*
X176051264Y-48695228D01*
X175934158Y-48812334D01*
X175886852Y-48588752D01*
X175665484Y-48487863D01*
X175428687Y-48432100D01*
X175185562Y-48423605D01*
X174945451Y-48462705D01*
X174717582Y-48547898D01*
X174641148Y-48588752D01*
X174593841Y-48812336D01*
X175264000Y-49482495D01*
X175278143Y-49468353D01*
X175457748Y-49647958D01*
X175443605Y-49662100D01*
X175457748Y-49676243D01*
X175278143Y-49855848D01*
X175264000Y-49841705D01*
X174593841Y-50511864D01*
X174641148Y-50735448D01*
X174862516Y-50836337D01*
X175099313Y-50892100D01*
X175342438Y-50900595D01*
X175582549Y-50861495D01*
X175810418Y-50776302D01*
X175886852Y-50735448D01*
X175934158Y-50511866D01*
X176051264Y-50628972D01*
X176109142Y-50571094D01*
X176133463Y-50616594D01*
X176212815Y-50713285D01*
X176309506Y-50792637D01*
X176419820Y-50851602D01*
X176479000Y-50869554D01*
X176479000Y-50959542D01*
X173632185Y-53806358D01*
X173602237Y-53830936D01*
X173577659Y-53860884D01*
X173577655Y-53860888D01*
X173566429Y-53874567D01*
X173504139Y-53950467D01*
X173492610Y-53972037D01*
X173431246Y-54086841D01*
X173422011Y-54117285D01*
X173315820Y-54149498D01*
X173205506Y-54208463D01*
X173108815Y-54287815D01*
X173029463Y-54384506D01*
X172970498Y-54494820D01*
X172934188Y-54614518D01*
X172921928Y-54739000D01*
X172921928Y-55939000D01*
X172934188Y-56063482D01*
X172970498Y-56183180D01*
X173029463Y-56293494D01*
X173108815Y-56390185D01*
X173205506Y-56469537D01*
X173255947Y-56496499D01*
X173200713Y-56551733D01*
X173065557Y-56754008D01*
X172972460Y-56978764D01*
X172925000Y-57217363D01*
X172925000Y-57460637D01*
X172972460Y-57699236D01*
X173065557Y-57923992D01*
X173200713Y-58126267D01*
X173372733Y-58298287D01*
X173575008Y-58433443D01*
X173799764Y-58526540D01*
X174038363Y-58574000D01*
X174281637Y-58574000D01*
X174284311Y-58573468D01*
X176352186Y-60641343D01*
X176335644Y-60648195D01*
X176166126Y-60761463D01*
X176021963Y-60905626D01*
X175920594Y-61057337D01*
X171793000Y-56929743D01*
X171793000Y-50418029D01*
X171831000Y-50421772D01*
X171995250Y-50418700D01*
X172154000Y-50259950D01*
X172154000Y-49510700D01*
X172408000Y-49510700D01*
X172408000Y-50259950D01*
X172566750Y-50418700D01*
X172731000Y-50421772D01*
X172855482Y-50409512D01*
X172975180Y-50373202D01*
X173085494Y-50314237D01*
X173182185Y-50234885D01*
X173261537Y-50138194D01*
X173320502Y-50027880D01*
X173356812Y-49908182D01*
X173369072Y-49783700D01*
X173367912Y-49740538D01*
X174025505Y-49740538D01*
X174064605Y-49980649D01*
X174149798Y-50208518D01*
X174190652Y-50284952D01*
X174414236Y-50332259D01*
X175084395Y-49662100D01*
X174414236Y-48991941D01*
X174190652Y-49039248D01*
X174089763Y-49260616D01*
X174034000Y-49497413D01*
X174025505Y-49740538D01*
X173367912Y-49740538D01*
X173366000Y-49669450D01*
X173207250Y-49510700D01*
X172408000Y-49510700D01*
X172154000Y-49510700D01*
X172134000Y-49510700D01*
X172134000Y-49256700D01*
X172154000Y-49256700D01*
X172154000Y-48507450D01*
X172408000Y-48507450D01*
X172408000Y-49256700D01*
X173207250Y-49256700D01*
X173366000Y-49097950D01*
X173369072Y-48983700D01*
X173356812Y-48859218D01*
X173320502Y-48739520D01*
X173261537Y-48629206D01*
X173182185Y-48532515D01*
X173085494Y-48453163D01*
X172975180Y-48394198D01*
X172855482Y-48357888D01*
X172731000Y-48345628D01*
X172566750Y-48348700D01*
X172408000Y-48507450D01*
X172154000Y-48507450D01*
X171995250Y-48348700D01*
X171831000Y-48345628D01*
X171793000Y-48349371D01*
X171793000Y-48318029D01*
X171831000Y-48321772D01*
X172731000Y-48321772D01*
X172855482Y-48309512D01*
X172975180Y-48273202D01*
X173085494Y-48214237D01*
X173182185Y-48134885D01*
X173204622Y-48107546D01*
X173344344Y-48200905D01*
X173532702Y-48278926D01*
X173732661Y-48318700D01*
X173936539Y-48318700D01*
X174136498Y-48278926D01*
X174324856Y-48200905D01*
X174494374Y-48087637D01*
X174638537Y-47943474D01*
X174751805Y-47773956D01*
X174829826Y-47585598D01*
X174869600Y-47385639D01*
X174869600Y-47181761D01*
X174854213Y-47104400D01*
X179610928Y-47104400D01*
X179610928Y-48704400D01*
X179623188Y-48828882D01*
X179659498Y-48948580D01*
X179718463Y-49058894D01*
X179797815Y-49155585D01*
X179894506Y-49234937D01*
X180004820Y-49293902D01*
X180124518Y-49330212D01*
X180249000Y-49342472D01*
X181849000Y-49342472D01*
X181973482Y-49330212D01*
X182093180Y-49293902D01*
X182203494Y-49234937D01*
X182300185Y-49155585D01*
X182319000Y-49132659D01*
X182337815Y-49155585D01*
X182434506Y-49234937D01*
X182544820Y-49293902D01*
X182664518Y-49330212D01*
X182789000Y-49342472D01*
X184389000Y-49342472D01*
X184513482Y-49330212D01*
X184633180Y-49293902D01*
X184743494Y-49234937D01*
X184840185Y-49155585D01*
X184859000Y-49132659D01*
X184877815Y-49155585D01*
X184974506Y-49234937D01*
X185084820Y-49293902D01*
X185204518Y-49330212D01*
X185329000Y-49342472D01*
X186929000Y-49342472D01*
X187053482Y-49330212D01*
X187173180Y-49293902D01*
X187283494Y-49234937D01*
X187380185Y-49155585D01*
X187399000Y-49132659D01*
X187417815Y-49155585D01*
X187514506Y-49234937D01*
X187624820Y-49293902D01*
X187744518Y-49330212D01*
X187869000Y-49342472D01*
X189469000Y-49342472D01*
X189593482Y-49330212D01*
X189713180Y-49293902D01*
X189823494Y-49234937D01*
X189920185Y-49155585D01*
X189999537Y-49058894D01*
X190058502Y-48948580D01*
X190094812Y-48828882D01*
X190107072Y-48704400D01*
X190107072Y-47104400D01*
X190094812Y-46979918D01*
X190058502Y-46860220D01*
X189999537Y-46749906D01*
X189920185Y-46653215D01*
X189823494Y-46573863D01*
X189713180Y-46514898D01*
X189593482Y-46478588D01*
X189469000Y-46466328D01*
X187869000Y-46466328D01*
X187744518Y-46478588D01*
X187624820Y-46514898D01*
X187514506Y-46573863D01*
X187417815Y-46653215D01*
X187399000Y-46676141D01*
X187380185Y-46653215D01*
X187283494Y-46573863D01*
X187173180Y-46514898D01*
X187053482Y-46478588D01*
X186929000Y-46466328D01*
X185329000Y-46466328D01*
X185204518Y-46478588D01*
X185084820Y-46514898D01*
X184974506Y-46573863D01*
X184877815Y-46653215D01*
X184859000Y-46676141D01*
X184840185Y-46653215D01*
X184743494Y-46573863D01*
X184633180Y-46514898D01*
X184513482Y-46478588D01*
X184389000Y-46466328D01*
X182789000Y-46466328D01*
X182664518Y-46478588D01*
X182544820Y-46514898D01*
X182434506Y-46573863D01*
X182337815Y-46653215D01*
X182319000Y-46676141D01*
X182300185Y-46653215D01*
X182203494Y-46573863D01*
X182093180Y-46514898D01*
X181973482Y-46478588D01*
X181849000Y-46466328D01*
X180249000Y-46466328D01*
X180124518Y-46478588D01*
X180004820Y-46514898D01*
X179894506Y-46573863D01*
X179797815Y-46653215D01*
X179718463Y-46749906D01*
X179659498Y-46860220D01*
X179623188Y-46979918D01*
X179610928Y-47104400D01*
X174854213Y-47104400D01*
X174829826Y-46981802D01*
X174751805Y-46793444D01*
X174651923Y-46643959D01*
X174885543Y-46656504D01*
X175179963Y-46614201D01*
X175460474Y-46515272D01*
X175603975Y-46438568D01*
X175684635Y-46186940D01*
X174818000Y-45320305D01*
X173951365Y-46186940D01*
X173973520Y-46256056D01*
X173936539Y-46248700D01*
X173732661Y-46248700D01*
X173532702Y-46288474D01*
X173344344Y-46366495D01*
X173204622Y-46459854D01*
X173182185Y-46432515D01*
X173128512Y-46388467D01*
X173240569Y-46313593D01*
X173450893Y-46103269D01*
X173560288Y-45939547D01*
X173771760Y-46007335D01*
X174638395Y-45140700D01*
X174997605Y-45140700D01*
X175864240Y-46007335D01*
X176115868Y-45926675D01*
X176244267Y-45658371D01*
X176317855Y-45370174D01*
X176333804Y-45073157D01*
X176291501Y-44778737D01*
X176193936Y-44502091D01*
X177018519Y-44502091D01*
X177115843Y-44776452D01*
X177264822Y-45026555D01*
X177459731Y-45242788D01*
X177693080Y-45416841D01*
X177955901Y-45542025D01*
X178103110Y-45586676D01*
X178333000Y-45465355D01*
X178333000Y-44272200D01*
X177139186Y-44272200D01*
X177018519Y-44502091D01*
X176193936Y-44502091D01*
X176192572Y-44498226D01*
X176115868Y-44354725D01*
X175864240Y-44274065D01*
X174997605Y-45140700D01*
X174638395Y-45140700D01*
X174624253Y-45126558D01*
X174803858Y-44946953D01*
X174818000Y-44961095D01*
X175684635Y-44094460D01*
X175603975Y-43842832D01*
X175367991Y-43729900D01*
X177039238Y-43729900D01*
X177018519Y-43788309D01*
M02*
