G04 #@! TF.GenerationSoftware,KiCad,Pcbnew,5.1.6-c6e7f7d~87~ubuntu18.04.1*
G04 #@! TF.CreationDate,2020-10-13T20:33:34+05:30*
G04 #@! TF.ProjectId,BackEnd_4S_v1,4261636b-456e-4645-9f34-535f76312e6b,rev?*
G04 #@! TF.SameCoordinates,Original*
G04 #@! TF.FileFunction,Legend,Top*
G04 #@! TF.FilePolarity,Positive*
%FSLAX46Y46*%
G04 Gerber Fmt 4.6, Leading zero omitted, Abs format (unit mm)*
G04 Created by KiCad (PCBNEW 5.1.6-c6e7f7d~87~ubuntu18.04.1) date 2020-10-13 20:33:34*
%MOMM*%
%LPD*%
G01*
G04 APERTURE LIST*
%ADD10C,0.120000*%
%ADD11C,0.150000*%
%ADD12C,0.200000*%
G04 APERTURE END LIST*
D10*
X174610000Y-54089000D02*
X173710000Y-54089000D01*
X174160000Y-53639000D02*
X174160000Y-54539000D01*
X174325000Y-58420000D02*
X173995000Y-58420000D01*
X174575000Y-58380000D02*
X173745000Y-58380000D01*
X174727000Y-58340000D02*
X173593000Y-58340000D01*
X174846000Y-58300000D02*
X173474000Y-58300000D01*
X174946000Y-58260000D02*
X173374000Y-58260000D01*
X175034000Y-58220000D02*
X173286000Y-58220000D01*
X175112000Y-58180000D02*
X173208000Y-58180000D01*
X175183000Y-58140000D02*
X173137000Y-58140000D01*
X173380000Y-58100000D02*
X173072000Y-58100000D01*
X175248000Y-58100000D02*
X174940000Y-58100000D01*
X173380000Y-58060000D02*
X173012000Y-58060000D01*
X175308000Y-58060000D02*
X174940000Y-58060000D01*
X173380000Y-58020000D02*
X172956000Y-58020000D01*
X175364000Y-58020000D02*
X174940000Y-58020000D01*
X173380000Y-57980000D02*
X172904000Y-57980000D01*
X175416000Y-57980000D02*
X174940000Y-57980000D01*
X173380000Y-57940000D02*
X172855000Y-57940000D01*
X175465000Y-57940000D02*
X174940000Y-57940000D01*
X173380000Y-57900000D02*
X172809000Y-57900000D01*
X175511000Y-57900000D02*
X174940000Y-57900000D01*
X173380000Y-57860000D02*
X172765000Y-57860000D01*
X175555000Y-57860000D02*
X174940000Y-57860000D01*
X173380000Y-57820000D02*
X172724000Y-57820000D01*
X175596000Y-57820000D02*
X174940000Y-57820000D01*
X173380000Y-57780000D02*
X172685000Y-57780000D01*
X175635000Y-57780000D02*
X174940000Y-57780000D01*
X173380000Y-57740000D02*
X172648000Y-57740000D01*
X175672000Y-57740000D02*
X174940000Y-57740000D01*
X173380000Y-57700000D02*
X172613000Y-57700000D01*
X175707000Y-57700000D02*
X174940000Y-57700000D01*
X173380000Y-57660000D02*
X172579000Y-57660000D01*
X175741000Y-57660000D02*
X174940000Y-57660000D01*
X173380000Y-57620000D02*
X172547000Y-57620000D01*
X175773000Y-57620000D02*
X174940000Y-57620000D01*
X173380000Y-57580000D02*
X172517000Y-57580000D01*
X175803000Y-57580000D02*
X174940000Y-57580000D01*
X173380000Y-57540000D02*
X172488000Y-57540000D01*
X175832000Y-57540000D02*
X174940000Y-57540000D01*
X173380000Y-57500000D02*
X172461000Y-57500000D01*
X175859000Y-57500000D02*
X174940000Y-57500000D01*
X173380000Y-57460000D02*
X172435000Y-57460000D01*
X175885000Y-57460000D02*
X174940000Y-57460000D01*
X173380000Y-57420000D02*
X172410000Y-57420000D01*
X175910000Y-57420000D02*
X174940000Y-57420000D01*
X173380000Y-57380000D02*
X172387000Y-57380000D01*
X175933000Y-57380000D02*
X174940000Y-57380000D01*
X173380000Y-57340000D02*
X172364000Y-57340000D01*
X175956000Y-57340000D02*
X174940000Y-57340000D01*
X173380000Y-57300000D02*
X172343000Y-57300000D01*
X175977000Y-57300000D02*
X174940000Y-57300000D01*
X173380000Y-57260000D02*
X172323000Y-57260000D01*
X175997000Y-57260000D02*
X174940000Y-57260000D01*
X173380000Y-57220000D02*
X172304000Y-57220000D01*
X176016000Y-57220000D02*
X174940000Y-57220000D01*
X173380000Y-57180000D02*
X172286000Y-57180000D01*
X176034000Y-57180000D02*
X174940000Y-57180000D01*
X173380000Y-57140000D02*
X172269000Y-57140000D01*
X176051000Y-57140000D02*
X174940000Y-57140000D01*
X173380000Y-57100000D02*
X172253000Y-57100000D01*
X176067000Y-57100000D02*
X174940000Y-57100000D01*
X173380000Y-57060000D02*
X172237000Y-57060000D01*
X176083000Y-57060000D02*
X174940000Y-57060000D01*
X173380000Y-57019000D02*
X172223000Y-57019000D01*
X176097000Y-57019000D02*
X174940000Y-57019000D01*
X173380000Y-56979000D02*
X172210000Y-56979000D01*
X176110000Y-56979000D02*
X174940000Y-56979000D01*
X173380000Y-56939000D02*
X172197000Y-56939000D01*
X176123000Y-56939000D02*
X174940000Y-56939000D01*
X173380000Y-56899000D02*
X172186000Y-56899000D01*
X176134000Y-56899000D02*
X174940000Y-56899000D01*
X173380000Y-56859000D02*
X172175000Y-56859000D01*
X176145000Y-56859000D02*
X174940000Y-56859000D01*
X173380000Y-56819000D02*
X172165000Y-56819000D01*
X176155000Y-56819000D02*
X174940000Y-56819000D01*
X173380000Y-56779000D02*
X172156000Y-56779000D01*
X176164000Y-56779000D02*
X174940000Y-56779000D01*
X173380000Y-56739000D02*
X172148000Y-56739000D01*
X176172000Y-56739000D02*
X174940000Y-56739000D01*
X173380000Y-56699000D02*
X172141000Y-56699000D01*
X176179000Y-56699000D02*
X174940000Y-56699000D01*
X173380000Y-56659000D02*
X172134000Y-56659000D01*
X176186000Y-56659000D02*
X174940000Y-56659000D01*
X173380000Y-56619000D02*
X172128000Y-56619000D01*
X176192000Y-56619000D02*
X174940000Y-56619000D01*
X173380000Y-56579000D02*
X172123000Y-56579000D01*
X176197000Y-56579000D02*
X174940000Y-56579000D01*
X176201000Y-56539000D02*
X172119000Y-56539000D01*
X176204000Y-56499000D02*
X172116000Y-56499000D01*
X176207000Y-56459000D02*
X172113000Y-56459000D01*
X176209000Y-56419000D02*
X172111000Y-56419000D01*
X176210000Y-56379000D02*
X172110000Y-56379000D01*
X176210000Y-56339000D02*
X172110000Y-56339000D01*
X175139170Y-58185436D02*
G75*
G03*
X175140000Y-54493004I-979170J1846436D01*
G01*
X173180830Y-58185436D02*
G75*
G02*
X173180000Y-54493004I979170J1846436D01*
G01*
X173180830Y-58185436D02*
G75*
G03*
X175140000Y-58184996I979170J1846436D01*
G01*
X197000000Y-59049200D02*
X197000000Y-46579200D01*
X191680000Y-59049200D02*
X197000000Y-59049200D01*
X191680000Y-46579200D02*
X191680000Y-59049200D01*
X197000000Y-46579200D02*
X191680000Y-46579200D01*
X196940000Y-55349200D02*
X196940000Y-53814200D01*
X191740000Y-55349200D02*
X196940000Y-55349200D01*
X191740000Y-50279200D02*
X191740000Y-55349200D01*
X196940000Y-50279200D02*
X191740000Y-50279200D01*
X196940000Y-51814200D02*
X196940000Y-50279200D01*
X196940000Y-53814200D02*
G75*
G02*
X196940000Y-51814200I0J1000000D01*
G01*
X178514000Y-50112100D02*
X178514000Y-49212100D01*
X178964000Y-49662100D02*
X178064000Y-49662100D01*
X174183000Y-49827100D02*
X174183000Y-49497100D01*
X174223000Y-50077100D02*
X174223000Y-49247100D01*
X174263000Y-50229100D02*
X174263000Y-49095100D01*
X174303000Y-50348100D02*
X174303000Y-48976100D01*
X174343000Y-50448100D02*
X174343000Y-48876100D01*
X174383000Y-50536100D02*
X174383000Y-48788100D01*
X174423000Y-50614100D02*
X174423000Y-48710100D01*
X174463000Y-50685100D02*
X174463000Y-48639100D01*
X174503000Y-48882100D02*
X174503000Y-48574100D01*
X174503000Y-50750100D02*
X174503000Y-50442100D01*
X174543000Y-48882100D02*
X174543000Y-48514100D01*
X174543000Y-50810100D02*
X174543000Y-50442100D01*
X174583000Y-48882100D02*
X174583000Y-48458100D01*
X174583000Y-50866100D02*
X174583000Y-50442100D01*
X174623000Y-48882100D02*
X174623000Y-48406100D01*
X174623000Y-50918100D02*
X174623000Y-50442100D01*
X174663000Y-48882100D02*
X174663000Y-48357100D01*
X174663000Y-50967100D02*
X174663000Y-50442100D01*
X174703000Y-48882100D02*
X174703000Y-48311100D01*
X174703000Y-51013100D02*
X174703000Y-50442100D01*
X174743000Y-48882100D02*
X174743000Y-48267100D01*
X174743000Y-51057100D02*
X174743000Y-50442100D01*
X174783000Y-48882100D02*
X174783000Y-48226100D01*
X174783000Y-51098100D02*
X174783000Y-50442100D01*
X174823000Y-48882100D02*
X174823000Y-48187100D01*
X174823000Y-51137100D02*
X174823000Y-50442100D01*
X174863000Y-48882100D02*
X174863000Y-48150100D01*
X174863000Y-51174100D02*
X174863000Y-50442100D01*
X174903000Y-48882100D02*
X174903000Y-48115100D01*
X174903000Y-51209100D02*
X174903000Y-50442100D01*
X174943000Y-48882100D02*
X174943000Y-48081100D01*
X174943000Y-51243100D02*
X174943000Y-50442100D01*
X174983000Y-48882100D02*
X174983000Y-48049100D01*
X174983000Y-51275100D02*
X174983000Y-50442100D01*
X175023000Y-48882100D02*
X175023000Y-48019100D01*
X175023000Y-51305100D02*
X175023000Y-50442100D01*
X175063000Y-48882100D02*
X175063000Y-47990100D01*
X175063000Y-51334100D02*
X175063000Y-50442100D01*
X175103000Y-48882100D02*
X175103000Y-47963100D01*
X175103000Y-51361100D02*
X175103000Y-50442100D01*
X175143000Y-48882100D02*
X175143000Y-47937100D01*
X175143000Y-51387100D02*
X175143000Y-50442100D01*
X175183000Y-48882100D02*
X175183000Y-47912100D01*
X175183000Y-51412100D02*
X175183000Y-50442100D01*
X175223000Y-48882100D02*
X175223000Y-47889100D01*
X175223000Y-51435100D02*
X175223000Y-50442100D01*
X175263000Y-48882100D02*
X175263000Y-47866100D01*
X175263000Y-51458100D02*
X175263000Y-50442100D01*
X175303000Y-48882100D02*
X175303000Y-47845100D01*
X175303000Y-51479100D02*
X175303000Y-50442100D01*
X175343000Y-48882100D02*
X175343000Y-47825100D01*
X175343000Y-51499100D02*
X175343000Y-50442100D01*
X175383000Y-48882100D02*
X175383000Y-47806100D01*
X175383000Y-51518100D02*
X175383000Y-50442100D01*
X175423000Y-48882100D02*
X175423000Y-47788100D01*
X175423000Y-51536100D02*
X175423000Y-50442100D01*
X175463000Y-48882100D02*
X175463000Y-47771100D01*
X175463000Y-51553100D02*
X175463000Y-50442100D01*
X175503000Y-48882100D02*
X175503000Y-47755100D01*
X175503000Y-51569100D02*
X175503000Y-50442100D01*
X175543000Y-48882100D02*
X175543000Y-47739100D01*
X175543000Y-51585100D02*
X175543000Y-50442100D01*
X175584000Y-48882100D02*
X175584000Y-47725100D01*
X175584000Y-51599100D02*
X175584000Y-50442100D01*
X175624000Y-48882100D02*
X175624000Y-47712100D01*
X175624000Y-51612100D02*
X175624000Y-50442100D01*
X175664000Y-48882100D02*
X175664000Y-47699100D01*
X175664000Y-51625100D02*
X175664000Y-50442100D01*
X175704000Y-48882100D02*
X175704000Y-47688100D01*
X175704000Y-51636100D02*
X175704000Y-50442100D01*
X175744000Y-48882100D02*
X175744000Y-47677100D01*
X175744000Y-51647100D02*
X175744000Y-50442100D01*
X175784000Y-48882100D02*
X175784000Y-47667100D01*
X175784000Y-51657100D02*
X175784000Y-50442100D01*
X175824000Y-48882100D02*
X175824000Y-47658100D01*
X175824000Y-51666100D02*
X175824000Y-50442100D01*
X175864000Y-48882100D02*
X175864000Y-47650100D01*
X175864000Y-51674100D02*
X175864000Y-50442100D01*
X175904000Y-48882100D02*
X175904000Y-47643100D01*
X175904000Y-51681100D02*
X175904000Y-50442100D01*
X175944000Y-48882100D02*
X175944000Y-47636100D01*
X175944000Y-51688100D02*
X175944000Y-50442100D01*
X175984000Y-48882100D02*
X175984000Y-47630100D01*
X175984000Y-51694100D02*
X175984000Y-50442100D01*
X176024000Y-48882100D02*
X176024000Y-47625100D01*
X176024000Y-51699100D02*
X176024000Y-50442100D01*
X176064000Y-51703100D02*
X176064000Y-47621100D01*
X176104000Y-51706100D02*
X176104000Y-47618100D01*
X176144000Y-51709100D02*
X176144000Y-47615100D01*
X176184000Y-51711100D02*
X176184000Y-47613100D01*
X176224000Y-51712100D02*
X176224000Y-47612100D01*
X176264000Y-51712100D02*
X176264000Y-47612100D01*
X174417564Y-50641270D02*
G75*
G03*
X178109996Y-50642100I1846436J979170D01*
G01*
X174417564Y-48682930D02*
G75*
G02*
X178109996Y-48682100I1846436J-979170D01*
G01*
X174417564Y-48682930D02*
G75*
G03*
X174418004Y-50642100I1846436J-979170D01*
G01*
X198950000Y-67650700D02*
X199850000Y-67650700D01*
X199400000Y-68100700D02*
X199400000Y-67200700D01*
X199235000Y-63319700D02*
X199565000Y-63319700D01*
X198985000Y-63359700D02*
X199815000Y-63359700D01*
X198833000Y-63399700D02*
X199967000Y-63399700D01*
X198714000Y-63439700D02*
X200086000Y-63439700D01*
X198614000Y-63479700D02*
X200186000Y-63479700D01*
X198526000Y-63519700D02*
X200274000Y-63519700D01*
X198448000Y-63559700D02*
X200352000Y-63559700D01*
X198377000Y-63599700D02*
X200423000Y-63599700D01*
X200180000Y-63639700D02*
X200488000Y-63639700D01*
X198312000Y-63639700D02*
X198620000Y-63639700D01*
X200180000Y-63679700D02*
X200548000Y-63679700D01*
X198252000Y-63679700D02*
X198620000Y-63679700D01*
X200180000Y-63719700D02*
X200604000Y-63719700D01*
X198196000Y-63719700D02*
X198620000Y-63719700D01*
X200180000Y-63759700D02*
X200656000Y-63759700D01*
X198144000Y-63759700D02*
X198620000Y-63759700D01*
X200180000Y-63799700D02*
X200705000Y-63799700D01*
X198095000Y-63799700D02*
X198620000Y-63799700D01*
X200180000Y-63839700D02*
X200751000Y-63839700D01*
X198049000Y-63839700D02*
X198620000Y-63839700D01*
X200180000Y-63879700D02*
X200795000Y-63879700D01*
X198005000Y-63879700D02*
X198620000Y-63879700D01*
X200180000Y-63919700D02*
X200836000Y-63919700D01*
X197964000Y-63919700D02*
X198620000Y-63919700D01*
X200180000Y-63959700D02*
X200875000Y-63959700D01*
X197925000Y-63959700D02*
X198620000Y-63959700D01*
X200180000Y-63999700D02*
X200912000Y-63999700D01*
X197888000Y-63999700D02*
X198620000Y-63999700D01*
X200180000Y-64039700D02*
X200947000Y-64039700D01*
X197853000Y-64039700D02*
X198620000Y-64039700D01*
X200180000Y-64079700D02*
X200981000Y-64079700D01*
X197819000Y-64079700D02*
X198620000Y-64079700D01*
X200180000Y-64119700D02*
X201013000Y-64119700D01*
X197787000Y-64119700D02*
X198620000Y-64119700D01*
X200180000Y-64159700D02*
X201043000Y-64159700D01*
X197757000Y-64159700D02*
X198620000Y-64159700D01*
X200180000Y-64199700D02*
X201072000Y-64199700D01*
X197728000Y-64199700D02*
X198620000Y-64199700D01*
X200180000Y-64239700D02*
X201099000Y-64239700D01*
X197701000Y-64239700D02*
X198620000Y-64239700D01*
X200180000Y-64279700D02*
X201125000Y-64279700D01*
X197675000Y-64279700D02*
X198620000Y-64279700D01*
X200180000Y-64319700D02*
X201150000Y-64319700D01*
X197650000Y-64319700D02*
X198620000Y-64319700D01*
X200180000Y-64359700D02*
X201173000Y-64359700D01*
X197627000Y-64359700D02*
X198620000Y-64359700D01*
X200180000Y-64399700D02*
X201196000Y-64399700D01*
X197604000Y-64399700D02*
X198620000Y-64399700D01*
X200180000Y-64439700D02*
X201217000Y-64439700D01*
X197583000Y-64439700D02*
X198620000Y-64439700D01*
X200180000Y-64479700D02*
X201237000Y-64479700D01*
X197563000Y-64479700D02*
X198620000Y-64479700D01*
X200180000Y-64519700D02*
X201256000Y-64519700D01*
X197544000Y-64519700D02*
X198620000Y-64519700D01*
X200180000Y-64559700D02*
X201274000Y-64559700D01*
X197526000Y-64559700D02*
X198620000Y-64559700D01*
X200180000Y-64599700D02*
X201291000Y-64599700D01*
X197509000Y-64599700D02*
X198620000Y-64599700D01*
X200180000Y-64639700D02*
X201307000Y-64639700D01*
X197493000Y-64639700D02*
X198620000Y-64639700D01*
X200180000Y-64679700D02*
X201323000Y-64679700D01*
X197477000Y-64679700D02*
X198620000Y-64679700D01*
X200180000Y-64720700D02*
X201337000Y-64720700D01*
X197463000Y-64720700D02*
X198620000Y-64720700D01*
X200180000Y-64760700D02*
X201350000Y-64760700D01*
X197450000Y-64760700D02*
X198620000Y-64760700D01*
X200180000Y-64800700D02*
X201363000Y-64800700D01*
X197437000Y-64800700D02*
X198620000Y-64800700D01*
X200180000Y-64840700D02*
X201374000Y-64840700D01*
X197426000Y-64840700D02*
X198620000Y-64840700D01*
X200180000Y-64880700D02*
X201385000Y-64880700D01*
X197415000Y-64880700D02*
X198620000Y-64880700D01*
X200180000Y-64920700D02*
X201395000Y-64920700D01*
X197405000Y-64920700D02*
X198620000Y-64920700D01*
X200180000Y-64960700D02*
X201404000Y-64960700D01*
X197396000Y-64960700D02*
X198620000Y-64960700D01*
X200180000Y-65000700D02*
X201412000Y-65000700D01*
X197388000Y-65000700D02*
X198620000Y-65000700D01*
X200180000Y-65040700D02*
X201419000Y-65040700D01*
X197381000Y-65040700D02*
X198620000Y-65040700D01*
X200180000Y-65080700D02*
X201426000Y-65080700D01*
X197374000Y-65080700D02*
X198620000Y-65080700D01*
X200180000Y-65120700D02*
X201432000Y-65120700D01*
X197368000Y-65120700D02*
X198620000Y-65120700D01*
X200180000Y-65160700D02*
X201437000Y-65160700D01*
X197363000Y-65160700D02*
X198620000Y-65160700D01*
X197359000Y-65200700D02*
X201441000Y-65200700D01*
X197356000Y-65240700D02*
X201444000Y-65240700D01*
X197353000Y-65280700D02*
X201447000Y-65280700D01*
X197351000Y-65320700D02*
X201449000Y-65320700D01*
X197350000Y-65360700D02*
X201450000Y-65360700D01*
X197350000Y-65400700D02*
X201450000Y-65400700D01*
X198420830Y-63554264D02*
G75*
G03*
X198420000Y-67246696I979170J-1846436D01*
G01*
X200379170Y-63554264D02*
G75*
G02*
X200380000Y-67246696I-979170J-1846436D01*
G01*
X200379170Y-63554264D02*
G75*
G03*
X198420000Y-63554704I-979170J-1846436D01*
G01*
X187313000Y-60833400D02*
X187313000Y-59933400D01*
X187763000Y-60383400D02*
X186863000Y-60383400D01*
X182982000Y-60548400D02*
X182982000Y-60218400D01*
X183022000Y-60798400D02*
X183022000Y-59968400D01*
X183062000Y-60950400D02*
X183062000Y-59816400D01*
X183102000Y-61069400D02*
X183102000Y-59697400D01*
X183142000Y-61169400D02*
X183142000Y-59597400D01*
X183182000Y-61257400D02*
X183182000Y-59509400D01*
X183222000Y-61335400D02*
X183222000Y-59431400D01*
X183262000Y-61406400D02*
X183262000Y-59360400D01*
X183302000Y-59603400D02*
X183302000Y-59295400D01*
X183302000Y-61471400D02*
X183302000Y-61163400D01*
X183342000Y-59603400D02*
X183342000Y-59235400D01*
X183342000Y-61531400D02*
X183342000Y-61163400D01*
X183382000Y-59603400D02*
X183382000Y-59179400D01*
X183382000Y-61587400D02*
X183382000Y-61163400D01*
X183422000Y-59603400D02*
X183422000Y-59127400D01*
X183422000Y-61639400D02*
X183422000Y-61163400D01*
X183462000Y-59603400D02*
X183462000Y-59078400D01*
X183462000Y-61688400D02*
X183462000Y-61163400D01*
X183502000Y-59603400D02*
X183502000Y-59032400D01*
X183502000Y-61734400D02*
X183502000Y-61163400D01*
X183542000Y-59603400D02*
X183542000Y-58988400D01*
X183542000Y-61778400D02*
X183542000Y-61163400D01*
X183582000Y-59603400D02*
X183582000Y-58947400D01*
X183582000Y-61819400D02*
X183582000Y-61163400D01*
X183622000Y-59603400D02*
X183622000Y-58908400D01*
X183622000Y-61858400D02*
X183622000Y-61163400D01*
X183662000Y-59603400D02*
X183662000Y-58871400D01*
X183662000Y-61895400D02*
X183662000Y-61163400D01*
X183702000Y-59603400D02*
X183702000Y-58836400D01*
X183702000Y-61930400D02*
X183702000Y-61163400D01*
X183742000Y-59603400D02*
X183742000Y-58802400D01*
X183742000Y-61964400D02*
X183742000Y-61163400D01*
X183782000Y-59603400D02*
X183782000Y-58770400D01*
X183782000Y-61996400D02*
X183782000Y-61163400D01*
X183822000Y-59603400D02*
X183822000Y-58740400D01*
X183822000Y-62026400D02*
X183822000Y-61163400D01*
X183862000Y-59603400D02*
X183862000Y-58711400D01*
X183862000Y-62055400D02*
X183862000Y-61163400D01*
X183902000Y-59603400D02*
X183902000Y-58684400D01*
X183902000Y-62082400D02*
X183902000Y-61163400D01*
X183942000Y-59603400D02*
X183942000Y-58658400D01*
X183942000Y-62108400D02*
X183942000Y-61163400D01*
X183982000Y-59603400D02*
X183982000Y-58633400D01*
X183982000Y-62133400D02*
X183982000Y-61163400D01*
X184022000Y-59603400D02*
X184022000Y-58610400D01*
X184022000Y-62156400D02*
X184022000Y-61163400D01*
X184062000Y-59603400D02*
X184062000Y-58587400D01*
X184062000Y-62179400D02*
X184062000Y-61163400D01*
X184102000Y-59603400D02*
X184102000Y-58566400D01*
X184102000Y-62200400D02*
X184102000Y-61163400D01*
X184142000Y-59603400D02*
X184142000Y-58546400D01*
X184142000Y-62220400D02*
X184142000Y-61163400D01*
X184182000Y-59603400D02*
X184182000Y-58527400D01*
X184182000Y-62239400D02*
X184182000Y-61163400D01*
X184222000Y-59603400D02*
X184222000Y-58509400D01*
X184222000Y-62257400D02*
X184222000Y-61163400D01*
X184262000Y-59603400D02*
X184262000Y-58492400D01*
X184262000Y-62274400D02*
X184262000Y-61163400D01*
X184302000Y-59603400D02*
X184302000Y-58476400D01*
X184302000Y-62290400D02*
X184302000Y-61163400D01*
X184342000Y-59603400D02*
X184342000Y-58460400D01*
X184342000Y-62306400D02*
X184342000Y-61163400D01*
X184383000Y-59603400D02*
X184383000Y-58446400D01*
X184383000Y-62320400D02*
X184383000Y-61163400D01*
X184423000Y-59603400D02*
X184423000Y-58433400D01*
X184423000Y-62333400D02*
X184423000Y-61163400D01*
X184463000Y-59603400D02*
X184463000Y-58420400D01*
X184463000Y-62346400D02*
X184463000Y-61163400D01*
X184503000Y-59603400D02*
X184503000Y-58409400D01*
X184503000Y-62357400D02*
X184503000Y-61163400D01*
X184543000Y-59603400D02*
X184543000Y-58398400D01*
X184543000Y-62368400D02*
X184543000Y-61163400D01*
X184583000Y-59603400D02*
X184583000Y-58388400D01*
X184583000Y-62378400D02*
X184583000Y-61163400D01*
X184623000Y-59603400D02*
X184623000Y-58379400D01*
X184623000Y-62387400D02*
X184623000Y-61163400D01*
X184663000Y-59603400D02*
X184663000Y-58371400D01*
X184663000Y-62395400D02*
X184663000Y-61163400D01*
X184703000Y-59603400D02*
X184703000Y-58364400D01*
X184703000Y-62402400D02*
X184703000Y-61163400D01*
X184743000Y-59603400D02*
X184743000Y-58357400D01*
X184743000Y-62409400D02*
X184743000Y-61163400D01*
X184783000Y-59603400D02*
X184783000Y-58351400D01*
X184783000Y-62415400D02*
X184783000Y-61163400D01*
X184823000Y-59603400D02*
X184823000Y-58346400D01*
X184823000Y-62420400D02*
X184823000Y-61163400D01*
X184863000Y-62424400D02*
X184863000Y-58342400D01*
X184903000Y-62427400D02*
X184903000Y-58339400D01*
X184943000Y-62430400D02*
X184943000Y-58336400D01*
X184983000Y-62432400D02*
X184983000Y-58334400D01*
X185023000Y-62433400D02*
X185023000Y-58333400D01*
X185063000Y-62433400D02*
X185063000Y-58333400D01*
X183216564Y-61362570D02*
G75*
G03*
X186908996Y-61363400I1846436J979170D01*
G01*
X183216564Y-59404230D02*
G75*
G02*
X186908996Y-59403400I1846436J-979170D01*
G01*
X183216564Y-59404230D02*
G75*
G03*
X183217004Y-61363400I1846436J-979170D01*
G01*
X179659000Y-46574400D02*
X179659000Y-56854400D01*
X190059000Y-46574400D02*
X179659000Y-46574400D01*
X190059000Y-56854400D02*
X190059000Y-46574400D01*
X179659000Y-56854400D02*
X190059000Y-56854400D01*
X179719000Y-49064400D02*
X179719000Y-50714400D01*
X189999000Y-49064400D02*
X179719000Y-49064400D01*
X189999000Y-54364400D02*
X189999000Y-49064400D01*
X179719000Y-54364400D02*
X189999000Y-54364400D01*
X179719000Y-52714400D02*
X179719000Y-54364400D01*
X179719000Y-50714400D02*
G75*
G02*
X179719000Y-52714400I0J-1000000D01*
G01*
X171635000Y-72973000D02*
X171635000Y-81713000D01*
X171635000Y-72973000D02*
X167395000Y-72973000D01*
X167395000Y-81713000D02*
X171635000Y-81713000D01*
X167395000Y-81713000D02*
X167395000Y-72973000D01*
X180850000Y-75747200D02*
X180850000Y-63277200D01*
X172990000Y-75747200D02*
X180850000Y-75747200D01*
X172990000Y-63277200D02*
X172990000Y-75747200D01*
X180850000Y-63277200D02*
X172990000Y-63277200D01*
X180790000Y-72047200D02*
X180790000Y-70512200D01*
X173050000Y-72047200D02*
X180790000Y-72047200D01*
X173050000Y-66977200D02*
X173050000Y-72047200D01*
X180790000Y-66977200D02*
X173050000Y-66977200D01*
X180790000Y-68512200D02*
X180790000Y-66977200D01*
X180790000Y-70512200D02*
G75*
G02*
X180790000Y-68512200I0J1000000D01*
G01*
X201380000Y-58242800D02*
X213850000Y-58242800D01*
X201380000Y-50382800D02*
X201380000Y-58242800D01*
X213850000Y-50382800D02*
X201380000Y-50382800D01*
X213850000Y-58242800D02*
X213850000Y-50382800D01*
X205080000Y-58182800D02*
X206615000Y-58182800D01*
X205080000Y-50442800D02*
X205080000Y-58182800D01*
X210150000Y-50442800D02*
X205080000Y-50442800D01*
X210150000Y-58182800D02*
X210150000Y-50442800D01*
X208615000Y-58182800D02*
X210150000Y-58182800D01*
X206615000Y-58182800D02*
G75*
G02*
X208615000Y-58182800I1000000J0D01*
G01*
X215033000Y-70753600D02*
X202563000Y-70753600D01*
X215033000Y-78613600D02*
X215033000Y-70753600D01*
X202563000Y-78613600D02*
X215033000Y-78613600D01*
X202563000Y-70753600D02*
X202563000Y-78613600D01*
X211333000Y-70813600D02*
X209798000Y-70813600D01*
X211333000Y-78553600D02*
X211333000Y-70813600D01*
X206263000Y-78553600D02*
X211333000Y-78553600D01*
X206263000Y-70813600D02*
X206263000Y-78553600D01*
X207798000Y-70813600D02*
X206263000Y-70813600D01*
X209798000Y-70813600D02*
G75*
G02*
X207798000Y-70813600I-1000000J0D01*
G01*
X215033000Y-60199900D02*
X202563000Y-60199900D01*
X215033000Y-68059900D02*
X215033000Y-60199900D01*
X202563000Y-68059900D02*
X215033000Y-68059900D01*
X202563000Y-60199900D02*
X202563000Y-68059900D01*
X211333000Y-60259900D02*
X209798000Y-60259900D01*
X211333000Y-67999900D02*
X211333000Y-60259900D01*
X206263000Y-67999900D02*
X211333000Y-67999900D01*
X206263000Y-60259900D02*
X206263000Y-67999900D01*
X207798000Y-60259900D02*
X206263000Y-60259900D01*
X209798000Y-60259900D02*
G75*
G02*
X207798000Y-60259900I-1000000J0D01*
G01*
X200110000Y-42815200D02*
X200110000Y-44145200D01*
X198780000Y-42815200D02*
X200110000Y-42815200D01*
X197510000Y-42815200D02*
X197510000Y-45475200D01*
X197510000Y-45475200D02*
X177130000Y-45475200D01*
X197510000Y-42815200D02*
X177130000Y-42815200D01*
X177130000Y-42815200D02*
X177130000Y-45475200D01*
X199410000Y-59377400D02*
X199410000Y-58567400D01*
X199410000Y-53837400D02*
X199410000Y-54647400D01*
X200770000Y-58567400D02*
X200770000Y-54647400D01*
X198050000Y-58567400D02*
X200770000Y-58567400D01*
X198050000Y-54647400D02*
X198050000Y-58567400D01*
X200770000Y-54647400D02*
X198050000Y-54647400D01*
X174769000Y-76323400D02*
X174769000Y-79043400D01*
X174769000Y-79043400D02*
X178689000Y-79043400D01*
X178689000Y-79043400D02*
X178689000Y-76323400D01*
X178689000Y-76323400D02*
X174769000Y-76323400D01*
X173959000Y-77683400D02*
X174769000Y-77683400D01*
X179499000Y-77683400D02*
X178689000Y-77683400D01*
X194707000Y-62566400D02*
X194707000Y-59846400D01*
X194707000Y-59846400D02*
X190787000Y-59846400D01*
X190787000Y-59846400D02*
X190787000Y-62566400D01*
X190787000Y-62566400D02*
X194707000Y-62566400D01*
X195517000Y-61206400D02*
X194707000Y-61206400D01*
X189977000Y-61206400D02*
X190787000Y-61206400D01*
X171481000Y-49933700D02*
X171481000Y-47333700D01*
X173081000Y-49933700D02*
X173081000Y-47333700D01*
X171481000Y-49933700D02*
X173081000Y-49933700D01*
D11*
X179679000Y-80995100D02*
X179679000Y-80495100D01*
X184679000Y-82495100D02*
X174679000Y-82495100D01*
X184679000Y-87395100D02*
X174679000Y-87395100D01*
X184679000Y-80995100D02*
X174679000Y-80995100D01*
X184679000Y-80495100D02*
X174679000Y-80495100D01*
X174679000Y-80495100D02*
X174679000Y-90295100D01*
X174679000Y-90295100D02*
X184679000Y-90295100D01*
X184679000Y-90295100D02*
X184679000Y-80495100D01*
X179179000Y-84995100D02*
G75*
G03*
X179179000Y-84995100I-2000000J0D01*
G01*
X184179000Y-84995100D02*
G75*
G03*
X184179000Y-84995100I-2000000J0D01*
G01*
X215886000Y-84913800D02*
G75*
G03*
X215886000Y-84913800I-2000000J0D01*
G01*
X210886000Y-84913800D02*
G75*
G03*
X210886000Y-84913800I-2000000J0D01*
G01*
X216386000Y-90213800D02*
X216386000Y-80413800D01*
X206386000Y-90213800D02*
X216386000Y-90213800D01*
X206386000Y-80413800D02*
X206386000Y-90213800D01*
X216386000Y-80413800D02*
X206386000Y-80413800D01*
X216386000Y-80913800D02*
X206386000Y-80913800D01*
X216386000Y-87313800D02*
X206386000Y-87313800D01*
X216386000Y-82413800D02*
X206386000Y-82413800D01*
X211386000Y-80913800D02*
X211386000Y-80413800D01*
X190464000Y-80995100D02*
X190464000Y-80495100D01*
X195464000Y-80995100D02*
X195464000Y-80495100D01*
X200464000Y-80995100D02*
X200464000Y-80495100D01*
X205464000Y-82495100D02*
X185464000Y-82495100D01*
X205464000Y-87395100D02*
X185464000Y-87395100D01*
X205464000Y-80995100D02*
X185464000Y-80995100D01*
X205464000Y-80495100D02*
X185464000Y-80495100D01*
X185464000Y-80495100D02*
X185464000Y-90295100D01*
X185464000Y-90295100D02*
X205464000Y-90295100D01*
X205464000Y-90295100D02*
X205464000Y-80495100D01*
X189964000Y-84995100D02*
G75*
G03*
X189964000Y-84995100I-2000000J0D01*
G01*
X194964000Y-84995100D02*
G75*
G03*
X194964000Y-84995100I-2000000J0D01*
G01*
X199964000Y-84995100D02*
G75*
G03*
X199964000Y-84995100I-2000000J0D01*
G01*
X204964000Y-84995100D02*
G75*
G03*
X204964000Y-84995100I-2000000J0D01*
G01*
D10*
X200059000Y-71497900D02*
X200059000Y-72697900D01*
X198299000Y-72697900D02*
X198299000Y-71497900D01*
X204019000Y-47297900D02*
X204019000Y-46097900D01*
X205779000Y-46097900D02*
X205779000Y-47297900D01*
D12*
X182518000Y-79811700D02*
G75*
G03*
X182518000Y-79811700I-250000J0D01*
G01*
D11*
X181718000Y-80291700D02*
X181708000Y-80291700D01*
X181708000Y-80291700D02*
X181718000Y-80291700D01*
X181718000Y-80291700D02*
X181708000Y-80291700D01*
X181728000Y-63171700D02*
X181718000Y-80291700D01*
X195908000Y-63181700D02*
X181728000Y-63171700D01*
X195898000Y-80321700D02*
X195908000Y-63181700D01*
X181718000Y-80331700D02*
X195898000Y-80321700D01*
X170362000Y-83051100D02*
X170362000Y-90051100D01*
X173762000Y-83051100D02*
X173762000Y-90051100D01*
X173762000Y-90051100D02*
X170362000Y-90051100D01*
X173762000Y-83051100D02*
X170362000Y-83051100D01*
X176965133Y-56384482D02*
X176917514Y-56432101D01*
X176774657Y-56479720D01*
X176679419Y-56479720D01*
X176536561Y-56432101D01*
X176441323Y-56336863D01*
X176393704Y-56241625D01*
X176346085Y-56051149D01*
X176346085Y-55908292D01*
X176393704Y-55717816D01*
X176441323Y-55622578D01*
X176536561Y-55527340D01*
X176679419Y-55479720D01*
X176774657Y-55479720D01*
X176917514Y-55527340D01*
X176965133Y-55574959D01*
X177917514Y-56479720D02*
X177346085Y-56479720D01*
X177631800Y-56479720D02*
X177631800Y-55479720D01*
X177536561Y-55622578D01*
X177441323Y-55717816D01*
X177346085Y-55765435D01*
X196331455Y-52297060D02*
X196331455Y-53106584D01*
X196379074Y-53201822D01*
X196426693Y-53249441D01*
X196521931Y-53297060D01*
X196712407Y-53297060D01*
X196807645Y-53249441D01*
X196855264Y-53201822D01*
X196902883Y-53106584D01*
X196902883Y-52297060D01*
X197902883Y-53297060D02*
X197331455Y-53297060D01*
X197617169Y-53297060D02*
X197617169Y-52297060D01*
X197521931Y-52439918D01*
X197426693Y-52535156D01*
X197331455Y-52582775D01*
X176097333Y-53329242D02*
X176049714Y-53376861D01*
X175906857Y-53424480D01*
X175811619Y-53424480D01*
X175668761Y-53376861D01*
X175573523Y-53281623D01*
X175525904Y-53186385D01*
X175478285Y-52995909D01*
X175478285Y-52853052D01*
X175525904Y-52662576D01*
X175573523Y-52567338D01*
X175668761Y-52472100D01*
X175811619Y-52424480D01*
X175906857Y-52424480D01*
X176049714Y-52472100D01*
X176097333Y-52519719D01*
X176954476Y-52424480D02*
X176764000Y-52424480D01*
X176668761Y-52472100D01*
X176621142Y-52519719D01*
X176525904Y-52662576D01*
X176478285Y-52853052D01*
X176478285Y-53234004D01*
X176525904Y-53329242D01*
X176573523Y-53376861D01*
X176668761Y-53424480D01*
X176859238Y-53424480D01*
X176954476Y-53376861D01*
X177002095Y-53329242D01*
X177049714Y-53234004D01*
X177049714Y-52995909D01*
X177002095Y-52900671D01*
X176954476Y-52853052D01*
X176859238Y-52805433D01*
X176668761Y-52805433D01*
X176573523Y-52853052D01*
X176525904Y-52900671D01*
X176478285Y-52995909D01*
X201458373Y-63559982D02*
X201410754Y-63607601D01*
X201267897Y-63655220D01*
X201172659Y-63655220D01*
X201029801Y-63607601D01*
X200934563Y-63512363D01*
X200886944Y-63417125D01*
X200839325Y-63226649D01*
X200839325Y-63083792D01*
X200886944Y-62893316D01*
X200934563Y-62798078D01*
X201029801Y-62702840D01*
X201172659Y-62655220D01*
X201267897Y-62655220D01*
X201410754Y-62702840D01*
X201458373Y-62750459D01*
X202315516Y-62988554D02*
X202315516Y-63655220D01*
X202077420Y-62607601D02*
X201839325Y-63321887D01*
X202458373Y-63321887D01*
X184826993Y-57616342D02*
X184779374Y-57663961D01*
X184636517Y-57711580D01*
X184541279Y-57711580D01*
X184398421Y-57663961D01*
X184303183Y-57568723D01*
X184255564Y-57473485D01*
X184207945Y-57283009D01*
X184207945Y-57140152D01*
X184255564Y-56949676D01*
X184303183Y-56854438D01*
X184398421Y-56759200D01*
X184541279Y-56711580D01*
X184636517Y-56711580D01*
X184779374Y-56759200D01*
X184826993Y-56806819D01*
X185207945Y-56806819D02*
X185255564Y-56759200D01*
X185350802Y-56711580D01*
X185588898Y-56711580D01*
X185684136Y-56759200D01*
X185731755Y-56806819D01*
X185779374Y-56902057D01*
X185779374Y-56997295D01*
X185731755Y-57140152D01*
X185160326Y-57711580D01*
X185779374Y-57711580D01*
X179379626Y-51113440D02*
X179379626Y-51827726D01*
X179332007Y-51970583D01*
X179236769Y-52065821D01*
X179093912Y-52113440D01*
X178998674Y-52113440D01*
X180379626Y-52113440D02*
X179808198Y-52113440D01*
X180093912Y-52113440D02*
X180093912Y-51113440D01*
X179998674Y-51256298D01*
X179903436Y-51351536D01*
X179808198Y-51399155D01*
X172666106Y-81015571D02*
X172332773Y-81015571D01*
X172332773Y-81539380D02*
X172332773Y-80539380D01*
X172808963Y-80539380D01*
X173713725Y-81539380D02*
X173142297Y-81539380D01*
X173428011Y-81539380D02*
X173428011Y-80539380D01*
X173332773Y-80682238D01*
X173237535Y-80777476D01*
X173142297Y-80825095D01*
X180060495Y-69099200D02*
X180060495Y-69908724D01*
X180108114Y-70003962D01*
X180155733Y-70051581D01*
X180250971Y-70099200D01*
X180441447Y-70099200D01*
X180536685Y-70051581D01*
X180584304Y-70003962D01*
X180631923Y-69908724D01*
X180631923Y-69099200D01*
X181250971Y-69527772D02*
X181155733Y-69480153D01*
X181108114Y-69432534D01*
X181060495Y-69337296D01*
X181060495Y-69289677D01*
X181108114Y-69194439D01*
X181155733Y-69146820D01*
X181250971Y-69099200D01*
X181441447Y-69099200D01*
X181536685Y-69146820D01*
X181584304Y-69194439D01*
X181631923Y-69289677D01*
X181631923Y-69337296D01*
X181584304Y-69432534D01*
X181536685Y-69480153D01*
X181441447Y-69527772D01*
X181250971Y-69527772D01*
X181155733Y-69575391D01*
X181108114Y-69623010D01*
X181060495Y-69718248D01*
X181060495Y-69908724D01*
X181108114Y-70003962D01*
X181155733Y-70051581D01*
X181250971Y-70099200D01*
X181441447Y-70099200D01*
X181536685Y-70051581D01*
X181584304Y-70003962D01*
X181631923Y-69908724D01*
X181631923Y-69718248D01*
X181584304Y-69623010D01*
X181536685Y-69575391D01*
X181441447Y-69527772D01*
X206896275Y-58019680D02*
X206896275Y-58829204D01*
X206943894Y-58924442D01*
X206991513Y-58972061D01*
X207086751Y-59019680D01*
X207277227Y-59019680D01*
X207372465Y-58972061D01*
X207420084Y-58924442D01*
X207467703Y-58829204D01*
X207467703Y-58019680D01*
X207848656Y-58019680D02*
X208515322Y-58019680D01*
X208086751Y-59019680D01*
X208053875Y-69927200D02*
X208053875Y-70736724D01*
X208101494Y-70831962D01*
X208149113Y-70879581D01*
X208244351Y-70927200D01*
X208434827Y-70927200D01*
X208530065Y-70879581D01*
X208577684Y-70831962D01*
X208625303Y-70736724D01*
X208625303Y-69927200D01*
X209530065Y-69927200D02*
X209339589Y-69927200D01*
X209244351Y-69974820D01*
X209196732Y-70022439D01*
X209101494Y-70165296D01*
X209053875Y-70355772D01*
X209053875Y-70736724D01*
X209101494Y-70831962D01*
X209149113Y-70879581D01*
X209244351Y-70927200D01*
X209434827Y-70927200D01*
X209530065Y-70879581D01*
X209577684Y-70831962D01*
X209625303Y-70736724D01*
X209625303Y-70498629D01*
X209577684Y-70403391D01*
X209530065Y-70355772D01*
X209434827Y-70308153D01*
X209244351Y-70308153D01*
X209149113Y-70355772D01*
X209101494Y-70403391D01*
X209053875Y-70498629D01*
X208064035Y-59533520D02*
X208064035Y-60343044D01*
X208111654Y-60438282D01*
X208159273Y-60485901D01*
X208254511Y-60533520D01*
X208444987Y-60533520D01*
X208540225Y-60485901D01*
X208587844Y-60438282D01*
X208635463Y-60343044D01*
X208635463Y-59533520D01*
X209587844Y-59533520D02*
X209111654Y-59533520D01*
X209064035Y-60009711D01*
X209111654Y-59962092D01*
X209206892Y-59914473D01*
X209444987Y-59914473D01*
X209540225Y-59962092D01*
X209587844Y-60009711D01*
X209635463Y-60104949D01*
X209635463Y-60343044D01*
X209587844Y-60438282D01*
X209540225Y-60485901D01*
X209444987Y-60533520D01*
X209206892Y-60533520D01*
X209111654Y-60485901D01*
X209064035Y-60438282D01*
X174860226Y-42822880D02*
X174860226Y-43537166D01*
X174812607Y-43680023D01*
X174717369Y-43775261D01*
X174574512Y-43822880D01*
X174479274Y-43822880D01*
X175241179Y-42822880D02*
X175860226Y-42822880D01*
X175526893Y-43203833D01*
X175669750Y-43203833D01*
X175764988Y-43251452D01*
X175812607Y-43299071D01*
X175860226Y-43394309D01*
X175860226Y-43632404D01*
X175812607Y-43727642D01*
X175764988Y-43775261D01*
X175669750Y-43822880D01*
X175384036Y-43822880D01*
X175288798Y-43775261D01*
X175241179Y-43727642D01*
X201465833Y-57484282D02*
X201418214Y-57531901D01*
X201275357Y-57579520D01*
X201180119Y-57579520D01*
X201037261Y-57531901D01*
X200942023Y-57436663D01*
X200894404Y-57341425D01*
X200846785Y-57150949D01*
X200846785Y-57008092D01*
X200894404Y-56817616D01*
X200942023Y-56722378D01*
X201037261Y-56627140D01*
X201180119Y-56579520D01*
X201275357Y-56579520D01*
X201418214Y-56627140D01*
X201465833Y-56674759D01*
X201799166Y-56579520D02*
X202418214Y-56579520D01*
X202084880Y-56960473D01*
X202227738Y-56960473D01*
X202322976Y-57008092D01*
X202370595Y-57055711D01*
X202418214Y-57150949D01*
X202418214Y-57389044D01*
X202370595Y-57484282D01*
X202322976Y-57531901D01*
X202227738Y-57579520D01*
X201942023Y-57579520D01*
X201846785Y-57531901D01*
X201799166Y-57484282D01*
X176581693Y-77570682D02*
X176534074Y-77618301D01*
X176391217Y-77665920D01*
X176295979Y-77665920D01*
X176153121Y-77618301D01*
X176057883Y-77523063D01*
X176010264Y-77427825D01*
X175962645Y-77237349D01*
X175962645Y-77094492D01*
X176010264Y-76904016D01*
X176057883Y-76808778D01*
X176153121Y-76713540D01*
X176295979Y-76665920D01*
X176391217Y-76665920D01*
X176534074Y-76713540D01*
X176581693Y-76761159D01*
X177486455Y-76665920D02*
X177010264Y-76665920D01*
X176962645Y-77142111D01*
X177010264Y-77094492D01*
X177105502Y-77046873D01*
X177343598Y-77046873D01*
X177438836Y-77094492D01*
X177486455Y-77142111D01*
X177534074Y-77237349D01*
X177534074Y-77475444D01*
X177486455Y-77570682D01*
X177438836Y-77618301D01*
X177343598Y-77665920D01*
X177105502Y-77665920D01*
X177010264Y-77618301D01*
X176962645Y-77570682D01*
X189695793Y-59287682D02*
X189648174Y-59335301D01*
X189505317Y-59382920D01*
X189410079Y-59382920D01*
X189267221Y-59335301D01*
X189171983Y-59240063D01*
X189124364Y-59144825D01*
X189076745Y-58954349D01*
X189076745Y-58811492D01*
X189124364Y-58621016D01*
X189171983Y-58525778D01*
X189267221Y-58430540D01*
X189410079Y-58382920D01*
X189505317Y-58382920D01*
X189648174Y-58430540D01*
X189695793Y-58478159D01*
X190267221Y-58811492D02*
X190171983Y-58763873D01*
X190124364Y-58716254D01*
X190076745Y-58621016D01*
X190076745Y-58573397D01*
X190124364Y-58478159D01*
X190171983Y-58430540D01*
X190267221Y-58382920D01*
X190457698Y-58382920D01*
X190552936Y-58430540D01*
X190600555Y-58478159D01*
X190648174Y-58573397D01*
X190648174Y-58621016D01*
X190600555Y-58716254D01*
X190552936Y-58763873D01*
X190457698Y-58811492D01*
X190267221Y-58811492D01*
X190171983Y-58859111D01*
X190124364Y-58906730D01*
X190076745Y-59001968D01*
X190076745Y-59192444D01*
X190124364Y-59287682D01*
X190171983Y-59335301D01*
X190267221Y-59382920D01*
X190457698Y-59382920D01*
X190552936Y-59335301D01*
X190600555Y-59287682D01*
X190648174Y-59192444D01*
X190648174Y-59001968D01*
X190600555Y-58906730D01*
X190552936Y-58859111D01*
X190457698Y-58811492D01*
X171621644Y-46169880D02*
X171621644Y-45169880D01*
X171859740Y-45169880D01*
X172002597Y-45217500D01*
X172097835Y-45312738D01*
X172145454Y-45407976D01*
X172193073Y-45598452D01*
X172193073Y-45741309D01*
X172145454Y-45931785D01*
X172097835Y-46027023D01*
X172002597Y-46122261D01*
X171859740Y-46169880D01*
X171621644Y-46169880D01*
X173145454Y-46169880D02*
X172574025Y-46169880D01*
X172859740Y-46169880D02*
X172859740Y-45169880D01*
X172764501Y-45312738D01*
X172669263Y-45407976D01*
X172574025Y-45455595D01*
X177959906Y-79045860D02*
X177959906Y-79760146D01*
X177912287Y-79903003D01*
X177817049Y-79998241D01*
X177674192Y-80045860D01*
X177578954Y-80045860D01*
X178388478Y-79141099D02*
X178436097Y-79093480D01*
X178531335Y-79045860D01*
X178769430Y-79045860D01*
X178864668Y-79093480D01*
X178912287Y-79141099D01*
X178959906Y-79236337D01*
X178959906Y-79331575D01*
X178912287Y-79474432D01*
X178340859Y-80045860D01*
X178959906Y-80045860D01*
X215061426Y-79132180D02*
X215061426Y-79846466D01*
X215013807Y-79989323D01*
X214918569Y-80084561D01*
X214775712Y-80132180D01*
X214680474Y-80132180D01*
X215966188Y-79465514D02*
X215966188Y-80132180D01*
X215728093Y-79084561D02*
X215489998Y-79798847D01*
X216109045Y-79798847D01*
X205226546Y-78962020D02*
X205226546Y-79676306D01*
X205178927Y-79819163D01*
X205083689Y-79914401D01*
X204940832Y-79962020D01*
X204845594Y-79962020D01*
X206178927Y-78962020D02*
X205702737Y-78962020D01*
X205655118Y-79438211D01*
X205702737Y-79390592D01*
X205797975Y-79342973D01*
X206036070Y-79342973D01*
X206131308Y-79390592D01*
X206178927Y-79438211D01*
X206226546Y-79533449D01*
X206226546Y-79771544D01*
X206178927Y-79866782D01*
X206131308Y-79914401D01*
X206036070Y-79962020D01*
X205797975Y-79962020D01*
X205702737Y-79914401D01*
X205655118Y-79866782D01*
X200988453Y-71338700D02*
X200655120Y-70862510D01*
X200417024Y-71338700D02*
X200417024Y-70338700D01*
X200797977Y-70338700D01*
X200893215Y-70386320D01*
X200940834Y-70433939D01*
X200988453Y-70529177D01*
X200988453Y-70672034D01*
X200940834Y-70767272D01*
X200893215Y-70814891D01*
X200797977Y-70862510D01*
X200417024Y-70862510D01*
X201369405Y-70433939D02*
X201417024Y-70386320D01*
X201512262Y-70338700D01*
X201750358Y-70338700D01*
X201845596Y-70386320D01*
X201893215Y-70433939D01*
X201940834Y-70529177D01*
X201940834Y-70624415D01*
X201893215Y-70767272D01*
X201321786Y-71338700D01*
X201940834Y-71338700D01*
X204200262Y-50409100D02*
X203866929Y-49932910D01*
X203628834Y-50409100D02*
X203628834Y-49409100D01*
X204009786Y-49409100D01*
X204105024Y-49456720D01*
X204152643Y-49504339D01*
X204200262Y-49599577D01*
X204200262Y-49742434D01*
X204152643Y-49837672D01*
X204105024Y-49885291D01*
X204009786Y-49932910D01*
X203628834Y-49932910D01*
X205152643Y-50409100D02*
X204581215Y-50409100D01*
X204866929Y-50409100D02*
X204866929Y-49409100D01*
X204771691Y-49551958D01*
X204676453Y-49647196D01*
X204581215Y-49694815D01*
X205771691Y-49409100D02*
X205866929Y-49409100D01*
X205962167Y-49456720D01*
X206009786Y-49504339D01*
X206057405Y-49599577D01*
X206105024Y-49790053D01*
X206105024Y-50028148D01*
X206057405Y-50218624D01*
X206009786Y-50313862D01*
X205962167Y-50361481D01*
X205866929Y-50409100D01*
X205771691Y-50409100D01*
X205676453Y-50361481D01*
X205628834Y-50313862D01*
X205581215Y-50218624D01*
X205533596Y-50028148D01*
X205533596Y-49790053D01*
X205581215Y-49599577D01*
X205628834Y-49504339D01*
X205676453Y-49456720D01*
X205771691Y-49409100D01*
X188638715Y-69945040D02*
X189210143Y-69945040D01*
X188924429Y-70945040D02*
X188924429Y-69945040D01*
X190067286Y-70945040D02*
X189495858Y-70945040D01*
X189781572Y-70945040D02*
X189781572Y-69945040D01*
X189686334Y-70087898D01*
X189591096Y-70183136D01*
X189495858Y-70230755D01*
X174600240Y-89126494D02*
X174600240Y-88555065D01*
X175600240Y-88840780D02*
X174600240Y-88840780D01*
X175600240Y-88221732D02*
X174600240Y-88221732D01*
X175076431Y-88221732D02*
X175076431Y-87650303D01*
X175600240Y-87650303D02*
X174600240Y-87650303D01*
X175600240Y-86650303D02*
X175600240Y-87221732D01*
X175600240Y-86936018D02*
X174600240Y-86936018D01*
X174743098Y-87031256D01*
X174838336Y-87126494D01*
X174885955Y-87221732D01*
M02*
