G04 #@! TF.GenerationSoftware,KiCad,Pcbnew,5.1.6-c6e7f7d~87~ubuntu18.04.1*
G04 #@! TF.CreationDate,2020-10-13T20:33:34+05:30*
G04 #@! TF.ProjectId,BackEnd_4S_v1,4261636b-456e-4645-9f34-535f76312e6b,rev?*
G04 #@! TF.SameCoordinates,Original*
G04 #@! TF.FileFunction,Copper,L2,Bot*
G04 #@! TF.FilePolarity,Positive*
%FSLAX46Y46*%
G04 Gerber Fmt 4.6, Leading zero omitted, Abs format (unit mm)*
G04 Created by KiCad (PCBNEW 5.1.6-c6e7f7d~87~ubuntu18.04.1) date 2020-10-13 20:33:34*
%MOMM*%
%LPD*%
G01*
G04 APERTURE LIST*
G04 #@! TA.AperFunction,ComponentPad*
%ADD10R,1.200000X1.200000*%
G04 #@! TD*
G04 #@! TA.AperFunction,ComponentPad*
%ADD11C,1.200000*%
G04 #@! TD*
G04 #@! TA.AperFunction,ComponentPad*
%ADD12C,1.750000*%
G04 #@! TD*
G04 #@! TA.AperFunction,SMDPad,CuDef*
%ADD13R,1.250000X1.500000*%
G04 #@! TD*
G04 #@! TA.AperFunction,ComponentPad*
%ADD14C,1.524000*%
G04 #@! TD*
G04 #@! TA.AperFunction,SMDPad,CuDef*
%ADD15R,1.500000X1.300000*%
G04 #@! TD*
G04 #@! TA.AperFunction,ComponentPad*
%ADD16C,2.000000*%
G04 #@! TD*
G04 #@! TA.AperFunction,SMDPad,CuDef*
%ADD17R,1.600000X3.100000*%
G04 #@! TD*
G04 #@! TA.AperFunction,SMDPad,CuDef*
%ADD18R,0.650000X1.560000*%
G04 #@! TD*
G04 #@! TA.AperFunction,ComponentPad*
%ADD19R,1.700000X1.700000*%
G04 #@! TD*
G04 #@! TA.AperFunction,ComponentPad*
%ADD20O,1.700000X1.700000*%
G04 #@! TD*
G04 #@! TA.AperFunction,ComponentPad*
%ADD21C,1.600000*%
G04 #@! TD*
G04 #@! TA.AperFunction,ComponentPad*
%ADD22O,1.600000X1.600000*%
G04 #@! TD*
G04 #@! TA.AperFunction,SMDPad,CuDef*
%ADD23R,0.900000X0.800000*%
G04 #@! TD*
G04 #@! TA.AperFunction,SMDPad,CuDef*
%ADD24R,0.800000X0.900000*%
G04 #@! TD*
G04 #@! TA.AperFunction,ComponentPad*
%ADD25C,2.500000*%
G04 #@! TD*
G04 #@! TA.AperFunction,ComponentPad*
%ADD26R,2.500000X2.500000*%
G04 #@! TD*
G04 #@! TA.AperFunction,SMDPad,CuDef*
%ADD27R,0.600000X1.500000*%
G04 #@! TD*
G04 #@! TA.AperFunction,SMDPad,CuDef*
%ADD28R,4.600000X5.100000*%
G04 #@! TD*
G04 #@! TA.AperFunction,SMDPad,CuDef*
%ADD29R,1.300000X1.500000*%
G04 #@! TD*
G04 #@! TA.AperFunction,ComponentPad*
%ADD30R,2.286000X2.286000*%
G04 #@! TD*
G04 #@! TA.AperFunction,ViaPad*
%ADD31C,0.800000*%
G04 #@! TD*
G04 #@! TA.AperFunction,Conductor*
%ADD32C,0.300000*%
G04 #@! TD*
G04 #@! TA.AperFunction,Conductor*
%ADD33C,0.500000*%
G04 #@! TD*
G04 #@! TA.AperFunction,Conductor*
%ADD34C,0.254000*%
G04 #@! TD*
G04 APERTURE END LIST*
D10*
X174160000Y-55339000D03*
D11*
X174160000Y-57339000D03*
D12*
X170308000Y-69140700D03*
X173168000Y-69140700D03*
X172278000Y-45140700D03*
X169738000Y-45140700D03*
X174818000Y-45140700D03*
D13*
X172375000Y-49752900D03*
X172375000Y-52252900D03*
D14*
X208788000Y-79306400D03*
X168694000Y-89159100D03*
X211894000Y-43596600D03*
D15*
X203184000Y-64594700D03*
X205884000Y-64594700D03*
D10*
X177264000Y-49662100D03*
D11*
X175264000Y-49662100D03*
D10*
X199400000Y-66400700D03*
D11*
X199400000Y-64400700D03*
D10*
X186063000Y-60383400D03*
D11*
X184063000Y-60383400D03*
D16*
X169515000Y-79883000D03*
X169525000Y-74803000D03*
D17*
X179936000Y-73840400D03*
X174856000Y-64950400D03*
X177396000Y-73840400D03*
X177396000Y-64950400D03*
X174856000Y-73840400D03*
X179936000Y-64950400D03*
D18*
X176433000Y-54761100D03*
X177383000Y-54761100D03*
X178333000Y-54761100D03*
X178333000Y-57461100D03*
X176433000Y-57461100D03*
D19*
X198780000Y-44145200D03*
D20*
X196240000Y-44145200D03*
X193700000Y-44145200D03*
X191160000Y-44145200D03*
X188620000Y-44145200D03*
X186080000Y-44145200D03*
X183540000Y-44145200D03*
X181000000Y-44145200D03*
X178460000Y-44145200D03*
D21*
X199410000Y-52857400D03*
D22*
X199410000Y-60357400D03*
X180479000Y-77683400D03*
D21*
X172979000Y-77683400D03*
D22*
X188997000Y-61206400D03*
D21*
X196497000Y-61206400D03*
D23*
X170086000Y-64697900D03*
X170086000Y-66797900D03*
D24*
X188555000Y-64582000D03*
X186455000Y-64582000D03*
X186125000Y-74429600D03*
X184025000Y-74429600D03*
X184126000Y-51000700D03*
X186226000Y-51000700D03*
X186241000Y-53268900D03*
X184141000Y-53268900D03*
X186202000Y-67950100D03*
X184102000Y-67950100D03*
X195609000Y-52666900D03*
X193509000Y-52666900D03*
D23*
X170216000Y-62185300D03*
X170216000Y-60085300D03*
X188288000Y-72061400D03*
X188288000Y-74161400D03*
D25*
X177179000Y-85095100D03*
D26*
X182179000Y-85095100D03*
X213886000Y-85013800D03*
D25*
X208886000Y-85013800D03*
X197964000Y-85095100D03*
D26*
X202964000Y-85095100D03*
D25*
X192964000Y-85095100D03*
X187964000Y-85095100D03*
D27*
X196174000Y-64854100D03*
X191604000Y-64854100D03*
D28*
X193954000Y-72014100D03*
X213191000Y-64793400D03*
D27*
X210841000Y-57633400D03*
X215411000Y-57633400D03*
D28*
X213063000Y-76743600D03*
D27*
X210713000Y-69583600D03*
X215283000Y-69583600D03*
X207820000Y-68140800D03*
X203250000Y-68140800D03*
D28*
X205600000Y-75300800D03*
D15*
X185829000Y-70149700D03*
X183129000Y-70149700D03*
X175190000Y-47198300D03*
X177890000Y-47198300D03*
X177888000Y-52468800D03*
X175188000Y-52468800D03*
D29*
X198646000Y-47753300D03*
X198646000Y-50453300D03*
D15*
X183270000Y-72321400D03*
X185970000Y-72321400D03*
X199409000Y-56896000D03*
X202109000Y-56896000D03*
X209184000Y-54335700D03*
X211884000Y-54335700D03*
D29*
X207485000Y-48202800D03*
X207485000Y-45502800D03*
D15*
X174238000Y-60279300D03*
X176938000Y-60279300D03*
D29*
X181326000Y-61628000D03*
X181326000Y-58928000D03*
D30*
X193858000Y-65131700D03*
X183678000Y-65131700D03*
X193838000Y-78051700D03*
X191298000Y-78051700D03*
X186218000Y-78051700D03*
X183678000Y-78051700D03*
D21*
X171412000Y-89051100D03*
X172712000Y-84051100D03*
D31*
X173834600Y-47283700D03*
X182885200Y-62855200D03*
X189357600Y-76534800D03*
X196992700Y-77413900D03*
X202053300Y-60093500D03*
X211086100Y-72092100D03*
X208994900Y-59591100D03*
X194089700Y-68645900D03*
X179204600Y-51152200D03*
X194423500Y-50387500D03*
X206884300Y-66669900D03*
X204293100Y-70286900D03*
X215409400Y-56245700D03*
X205070300Y-50419400D03*
X176825900Y-61565400D03*
X180186700Y-62767500D03*
D32*
X183270000Y-72321400D02*
X183270000Y-73321700D01*
X183270000Y-73321700D02*
X183317300Y-73321700D01*
X183317300Y-73321700D02*
X184025000Y-74029400D01*
X184025000Y-74029400D02*
X180479000Y-77575400D01*
X180479000Y-77575400D02*
X180479000Y-77683400D01*
X184025000Y-74429600D02*
X184025000Y-74029400D01*
X178460000Y-44145200D02*
X177259700Y-44145200D01*
X174818000Y-45140700D02*
X176264200Y-45140700D01*
X176264200Y-45140700D02*
X177259700Y-44145200D01*
X172375000Y-49752900D02*
X171399700Y-49752900D01*
X174835000Y-61611800D02*
X173635500Y-61611800D01*
X173635500Y-61611800D02*
X171399700Y-59376000D01*
X171399700Y-59376000D02*
X171399700Y-49752900D01*
X174835000Y-61611800D02*
X174835000Y-63029100D01*
X174835000Y-63029100D02*
X174856000Y-63050100D01*
X177383000Y-54761100D02*
X177383000Y-58115500D01*
X177383000Y-58115500D02*
X176907000Y-58591500D01*
X176907000Y-58591500D02*
X176639500Y-58591500D01*
X176639500Y-58591500D02*
X175837600Y-59393400D01*
X175837600Y-59393400D02*
X175837600Y-60609200D01*
X175837600Y-60609200D02*
X174835000Y-61611800D01*
X175264000Y-49662100D02*
X173441100Y-49662100D01*
X173441100Y-49662100D02*
X173350300Y-49752900D01*
X172375000Y-49752900D02*
X173350300Y-49752900D01*
X174856000Y-64950400D02*
X174856000Y-63050100D01*
X174089700Y-47198300D02*
X174004300Y-47283700D01*
X174004300Y-47283700D02*
X173834600Y-47283700D01*
X175190000Y-47198300D02*
X174089700Y-47198300D01*
X170086000Y-64697900D02*
X170886300Y-64697900D01*
X183129000Y-70149700D02*
X183129000Y-71150000D01*
X177396000Y-71293700D02*
X182985300Y-71293700D01*
X182985300Y-71293700D02*
X183129000Y-71150000D01*
X170886300Y-64697900D02*
X170886300Y-64784000D01*
X170886300Y-64784000D02*
X177396000Y-71293700D01*
X177396000Y-71293700D02*
X177396000Y-71940100D01*
X177396000Y-73840400D02*
X177396000Y-71940100D01*
D33*
X169515000Y-79883000D02*
X167865100Y-78233100D01*
X167865100Y-78233100D02*
X167865100Y-69018800D01*
X167865100Y-69018800D02*
X170086000Y-66797900D01*
X179936000Y-73840400D02*
X179936000Y-76040700D01*
X177179000Y-85095100D02*
X177179000Y-78797700D01*
X177179000Y-78797700D02*
X179936000Y-76040700D01*
D32*
X188555000Y-64582000D02*
X187804700Y-64582000D01*
X183678000Y-65131700D02*
X185171300Y-65131700D01*
X185171300Y-65131700D02*
X185422000Y-65382400D01*
X185422000Y-65382400D02*
X187004300Y-65382400D01*
X187004300Y-65382400D02*
X187804700Y-64582000D01*
X178333000Y-54761100D02*
X178333000Y-55891400D01*
X186455000Y-64582000D02*
X185704700Y-64582000D01*
X185704700Y-64582000D02*
X185704700Y-64300600D01*
X185704700Y-64300600D02*
X185042400Y-63638300D01*
X185042400Y-63638300D02*
X182390000Y-63638300D01*
X182390000Y-63638300D02*
X182184600Y-63843700D01*
X182184600Y-63843700D02*
X182184600Y-65629200D01*
X182184600Y-65629200D02*
X180963000Y-66850800D01*
X180963000Y-66850800D02*
X176364400Y-66850800D01*
X176364400Y-66850800D02*
X176234300Y-66720700D01*
X176234300Y-66720700D02*
X176234300Y-63218400D01*
X176234300Y-63218400D02*
X179008300Y-60444400D01*
X179008300Y-60444400D02*
X179008300Y-56482200D01*
X179008300Y-56482200D02*
X178417500Y-55891400D01*
X178417500Y-55891400D02*
X178333000Y-55891400D01*
X177264000Y-48711800D02*
X173309100Y-48711800D01*
X173309100Y-48711800D02*
X169738000Y-45140700D01*
X177264000Y-48836900D02*
X177264000Y-48711800D01*
X177264000Y-49662100D02*
X177264000Y-48836900D01*
X176433000Y-54110700D02*
X176912900Y-53630800D01*
X176912900Y-53630800D02*
X178333000Y-53630800D01*
X176433000Y-54195900D02*
X176433000Y-54110700D01*
X176433000Y-54110700D02*
X175829600Y-54110700D01*
X175829600Y-54110700D02*
X175188000Y-53469100D01*
X175188000Y-52468800D02*
X175188000Y-53469100D01*
X174160000Y-55339000D02*
X174160000Y-54388700D01*
X174160000Y-54388700D02*
X175079600Y-53469100D01*
X175079600Y-53469100D02*
X175188000Y-53469100D01*
X177890000Y-47198300D02*
X177890000Y-48198600D01*
X177890000Y-48198600D02*
X177777200Y-48198600D01*
X177777200Y-48198600D02*
X177264000Y-48711800D01*
X177890000Y-46698100D02*
X177890000Y-47198300D01*
X177890000Y-46698100D02*
X177890000Y-46198000D01*
X178333000Y-54761100D02*
X178333000Y-53630800D01*
X176433000Y-54761100D02*
X176433000Y-54195900D01*
X181000000Y-44145200D02*
X179799700Y-44145200D01*
X179799700Y-44145200D02*
X179799700Y-44538400D01*
X179799700Y-44538400D02*
X178140100Y-46198000D01*
X178140100Y-46198000D02*
X177890000Y-46198000D01*
X186218000Y-78051700D02*
X186218000Y-76558400D01*
X186218000Y-76558400D02*
X186125000Y-76465400D01*
X186125000Y-76465400D02*
X186125000Y-74429600D01*
X183390700Y-53268900D02*
X182885200Y-53774400D01*
X182885200Y-53774400D02*
X182885200Y-62855200D01*
X184141000Y-53268900D02*
X183390700Y-53268900D01*
X184141000Y-52868700D02*
X184141000Y-53268900D01*
X184141000Y-52868700D02*
X184141000Y-52468600D01*
X184141000Y-52468600D02*
X184126000Y-52453600D01*
X184126000Y-52453600D02*
X184126000Y-51000700D01*
X186952300Y-67950100D02*
X190527600Y-71525400D01*
X190527600Y-71525400D02*
X190527600Y-75788000D01*
X190527600Y-75788000D02*
X191298000Y-76558400D01*
X186202000Y-67950100D02*
X186952300Y-67950100D01*
X191298000Y-78051700D02*
X191298000Y-76558400D01*
X198646000Y-47753300D02*
X195995200Y-47753300D01*
X195995200Y-47753300D02*
X193659600Y-50088900D01*
X193659600Y-50088900D02*
X193659600Y-50717500D01*
X193659600Y-50717500D02*
X195609000Y-52666900D01*
D33*
X170216000Y-62185300D02*
X169115700Y-62185300D01*
X182179000Y-85095100D02*
X180278700Y-85095100D01*
X180278700Y-85095100D02*
X174760600Y-90613200D01*
X174760600Y-90613200D02*
X168108500Y-90613200D01*
X168108500Y-90613200D02*
X166959300Y-89464000D01*
X166959300Y-89464000D02*
X166959300Y-64341700D01*
X166959300Y-64341700D02*
X169115700Y-62185300D01*
X188288000Y-71536200D02*
X189407600Y-72655800D01*
X189407600Y-72655800D02*
X189407600Y-76484800D01*
X189407600Y-76484800D02*
X189357600Y-76534800D01*
X188288000Y-71536200D02*
X188288000Y-71011100D01*
X188288000Y-72061400D02*
X188288000Y-71536200D01*
X185829000Y-70149700D02*
X187229300Y-70149700D01*
X187229300Y-70149700D02*
X188090700Y-71011100D01*
X188090700Y-71011100D02*
X188288000Y-71011100D01*
X213191000Y-64793400D02*
X213191000Y-69501400D01*
X213191000Y-69501400D02*
X216013400Y-72323800D01*
X216013400Y-72323800D02*
X216013400Y-79582400D01*
X216013400Y-79582400D02*
X213538400Y-82057400D01*
X213538400Y-82057400D02*
X201001700Y-82057400D01*
X201001700Y-82057400D02*
X197964000Y-85095100D01*
X193954000Y-72014100D02*
X193954000Y-75214400D01*
X193954000Y-75214400D02*
X194793200Y-75214400D01*
X194793200Y-75214400D02*
X196992700Y-77413900D01*
X213063000Y-79943900D02*
X212269000Y-80737900D01*
X212269000Y-80737900D02*
X197321200Y-80737900D01*
X197321200Y-80737900D02*
X192964000Y-85095100D01*
X213063000Y-76743600D02*
X213063000Y-79943900D01*
X205600000Y-75300800D02*
X202649700Y-75300800D01*
X187964000Y-85095100D02*
X190276500Y-85095100D01*
X190276500Y-85095100D02*
X196788100Y-78583500D01*
X196788100Y-78583500D02*
X199367000Y-78583500D01*
X199367000Y-78583500D02*
X202649700Y-75300800D01*
D32*
X203184000Y-64594700D02*
X202083700Y-64594700D01*
X196174000Y-64854100D02*
X196824300Y-64854100D01*
X196824300Y-64854100D02*
X197332000Y-65361800D01*
X197332000Y-65361800D02*
X201316600Y-65361800D01*
X201316600Y-65361800D02*
X202083700Y-64594700D01*
X191604000Y-64854100D02*
X191604000Y-63753800D01*
X191604000Y-63753800D02*
X196150800Y-59207000D01*
X196150800Y-59207000D02*
X201166800Y-59207000D01*
X201166800Y-59207000D02*
X202053300Y-60093500D01*
X210841000Y-57633400D02*
X210841000Y-58733700D01*
X210841000Y-58733700D02*
X210312900Y-59261800D01*
X210312900Y-59261800D02*
X210312900Y-67543500D01*
X210312900Y-67543500D02*
X211363400Y-68594000D01*
X211363400Y-68594000D02*
X211363400Y-71814800D01*
X211363400Y-71814800D02*
X211086100Y-72092100D01*
X215411000Y-57633400D02*
X214760700Y-57633400D01*
X209184000Y-54335700D02*
X209184000Y-55336000D01*
X214760700Y-57633400D02*
X212463300Y-55336000D01*
X212463300Y-55336000D02*
X209184000Y-55336000D01*
X210713000Y-69583600D02*
X210062700Y-69583600D01*
X210062700Y-69583600D02*
X208994900Y-68515800D01*
X208994900Y-68515800D02*
X208994900Y-59591100D01*
X215933300Y-69583600D02*
X216160600Y-69356300D01*
X216160600Y-69356300D02*
X216160600Y-55878100D01*
X216160600Y-55878100D02*
X208485300Y-48202800D01*
X207485000Y-48202800D02*
X208485300Y-48202800D01*
X215283000Y-69583600D02*
X215933300Y-69583600D01*
X181326000Y-61628000D02*
X182326300Y-61628000D01*
X207820000Y-68140800D02*
X207820000Y-60685300D01*
X207820000Y-60685300D02*
X203030300Y-55895600D01*
X203030300Y-55895600D02*
X201155000Y-55895600D01*
X201155000Y-55895600D02*
X200576300Y-56474300D01*
X200576300Y-56474300D02*
X200576300Y-57629800D01*
X200576300Y-57629800D02*
X200309700Y-57896400D01*
X200309700Y-57896400D02*
X198433600Y-57896400D01*
X198433600Y-57896400D02*
X198308600Y-57771400D01*
X198308600Y-57771400D02*
X198308600Y-55953500D01*
X198308600Y-55953500D02*
X200576500Y-53685600D01*
X200576500Y-53685600D02*
X200576500Y-47788100D01*
X200576500Y-47788100D02*
X199441300Y-46652900D01*
X199441300Y-46652900D02*
X187127900Y-46652900D01*
X187127900Y-46652900D02*
X182326300Y-51454500D01*
X182326300Y-51454500D02*
X182326300Y-61628000D01*
X203250000Y-68140800D02*
X194594800Y-68140800D01*
X194594800Y-68140800D02*
X194089700Y-68645900D01*
X199409000Y-55895700D02*
X201076800Y-54227900D01*
X201076800Y-54227900D02*
X201076800Y-47580900D01*
X201076800Y-47580900D02*
X199598700Y-46102800D01*
X199598700Y-46102800D02*
X191335400Y-46102800D01*
X191335400Y-46102800D02*
X189890000Y-44657400D01*
X189890000Y-44657400D02*
X189890000Y-43705800D01*
X189890000Y-43705800D02*
X189100600Y-42916400D01*
X189100600Y-42916400D02*
X185596000Y-42916400D01*
X185596000Y-42916400D02*
X184740300Y-43772100D01*
X184740300Y-43772100D02*
X184740300Y-44145200D01*
X183540000Y-44145200D02*
X184740300Y-44145200D01*
X199409000Y-56896000D02*
X199409000Y-55895700D01*
X172862700Y-52252900D02*
X174034400Y-51081200D01*
X174034400Y-51081200D02*
X177804300Y-51081200D01*
X177804300Y-51081200D02*
X183540000Y-45345500D01*
X172862700Y-52252900D02*
X172862700Y-53321900D01*
X172862700Y-53321900D02*
X172924700Y-53383900D01*
X172924700Y-53383900D02*
X172924700Y-55799100D01*
X172924700Y-55799100D02*
X173415000Y-56289400D01*
X173415000Y-56289400D02*
X174470500Y-56289400D01*
X174470500Y-56289400D02*
X175849100Y-57667900D01*
X183540000Y-44145200D02*
X183540000Y-45345500D01*
X175849100Y-57667900D02*
X175924400Y-57592600D01*
X175924400Y-57592600D02*
X176301500Y-57592600D01*
X176301500Y-57592600D02*
X176433000Y-57461100D01*
X174238000Y-59279000D02*
X175849100Y-57667900D01*
X172375000Y-52252900D02*
X172862700Y-52252900D01*
X174238000Y-60279300D02*
X174238000Y-59279000D01*
X177888000Y-52468800D02*
X179204600Y-51152200D01*
X198646000Y-50453300D02*
X194489300Y-50453300D01*
X194489300Y-50453300D02*
X194423500Y-50387500D01*
X185970000Y-72321400D02*
X185970000Y-73321700D01*
X183678000Y-78051700D02*
X183678000Y-76558400D01*
X183678000Y-76558400D02*
X184969700Y-75266700D01*
X184969700Y-75266700D02*
X184969700Y-74196800D01*
X184969700Y-74196800D02*
X185844800Y-73321700D01*
X185844800Y-73321700D02*
X185970000Y-73321700D01*
X205884000Y-65595000D02*
X205884000Y-65669600D01*
X205884000Y-65669600D02*
X206884300Y-66669900D01*
X205884000Y-64594700D02*
X205884000Y-65595000D01*
X202109000Y-56896000D02*
X202109000Y-57896300D01*
X202109000Y-57896300D02*
X204293100Y-60080400D01*
X204293100Y-60080400D02*
X204293100Y-70286900D01*
X212984300Y-54335700D02*
X214894300Y-56245700D01*
X214894300Y-56245700D02*
X215409400Y-56245700D01*
X211884000Y-54335700D02*
X212984300Y-54335700D01*
X206484700Y-45502800D02*
X205070300Y-46917200D01*
X205070300Y-46917200D02*
X205070300Y-50419400D01*
X207485000Y-45502800D02*
X206484700Y-45502800D01*
X176938000Y-60279300D02*
X176938000Y-61279600D01*
X176938000Y-61279600D02*
X176825900Y-61391700D01*
X176825900Y-61391700D02*
X176825900Y-61565400D01*
X181326000Y-58928000D02*
X180325700Y-58928000D01*
X180325700Y-58928000D02*
X180325700Y-62628500D01*
X180325700Y-62628500D02*
X180186700Y-62767500D01*
D33*
X170308000Y-69140700D02*
X170308000Y-69145300D01*
X170308000Y-69145300D02*
X171234600Y-70071900D01*
X171234600Y-70071900D02*
X171234600Y-88873700D01*
X171234600Y-88873700D02*
X171412000Y-89051100D01*
D32*
X186080000Y-45345500D02*
X179816600Y-51608900D01*
X179816600Y-51608900D02*
X179816600Y-60629500D01*
X179816600Y-60629500D02*
X177396000Y-63050100D01*
X177396000Y-64950400D02*
X177396000Y-63050100D01*
X186080000Y-44145200D02*
X186080000Y-45345500D01*
X188997000Y-61206400D02*
X188997000Y-60056100D01*
X188997000Y-60056100D02*
X193509000Y-55544100D01*
X193509000Y-55544100D02*
X193509000Y-52666900D01*
X186226000Y-51000700D02*
X185475700Y-51000700D01*
X185475700Y-51000700D02*
X185475700Y-58970700D01*
X185475700Y-58970700D02*
X184063000Y-60383400D01*
X186601200Y-51000700D02*
X186226000Y-51000700D01*
X186601200Y-51000700D02*
X186976300Y-51000700D01*
X199410000Y-52857400D02*
X198797300Y-53470100D01*
X198797300Y-53470100D02*
X195033400Y-53470100D01*
X195033400Y-53470100D02*
X194358400Y-52795100D01*
X194358400Y-52795100D02*
X194358400Y-52166600D01*
X194358400Y-52166600D02*
X193192500Y-51000700D01*
X193192500Y-51000700D02*
X186976300Y-51000700D01*
X189815500Y-65486400D02*
X189815500Y-63654900D01*
X189815500Y-63654900D02*
X187013300Y-60852700D01*
X187013300Y-60852700D02*
X187013300Y-53290900D01*
X187013300Y-53290900D02*
X186991300Y-53268900D01*
X171206300Y-63918300D02*
X171206300Y-64207300D01*
X171206300Y-64207300D02*
X175756300Y-68757300D01*
X175756300Y-68757300D02*
X184752800Y-68757300D01*
X184752800Y-68757300D02*
X185352600Y-68157500D01*
X185352600Y-68157500D02*
X185352600Y-67449800D01*
X185352600Y-67449800D02*
X185698300Y-67104100D01*
X185698300Y-67104100D02*
X188197800Y-67104100D01*
X188197800Y-67104100D02*
X189815500Y-65486400D01*
X198449700Y-66400700D02*
X198172800Y-66677600D01*
X198172800Y-66677600D02*
X191006700Y-66677600D01*
X191006700Y-66677600D02*
X189815500Y-65486400D01*
X171206300Y-63918300D02*
X169511000Y-63918300D01*
X169511000Y-63918300D02*
X169285600Y-64143700D01*
X169285600Y-64143700D02*
X169285600Y-65304400D01*
X169285600Y-65304400D02*
X169679000Y-65697800D01*
X169679000Y-65697800D02*
X170672900Y-65697800D01*
X170672900Y-65697800D02*
X171900300Y-66925200D01*
X171900300Y-66925200D02*
X171900300Y-69605800D01*
X171900300Y-69605800D02*
X172979000Y-70684500D01*
X172979000Y-70684500D02*
X172979000Y-77683400D01*
X170216000Y-60835600D02*
X170497400Y-60835600D01*
X170497400Y-60835600D02*
X171229500Y-61567700D01*
X171229500Y-61567700D02*
X171229500Y-63895100D01*
X171229500Y-63895100D02*
X171206300Y-63918300D01*
X186241000Y-53268900D02*
X186991300Y-53268900D01*
X199400000Y-66400700D02*
X198449700Y-66400700D01*
X170216000Y-60085300D02*
X170216000Y-60835600D01*
X193838000Y-78051700D02*
X193838000Y-79545000D01*
X193838000Y-79545000D02*
X189940700Y-79545000D01*
X189940700Y-79545000D02*
X188288000Y-77892300D01*
X188288000Y-77892300D02*
X188288000Y-74161400D01*
X196497000Y-61206400D02*
X199400000Y-64109400D01*
X199400000Y-64109400D02*
X199400000Y-64400700D01*
X186063000Y-61333700D02*
X186652100Y-61333700D01*
X186652100Y-61333700D02*
X189305300Y-63986900D01*
X189305300Y-63986900D02*
X189305300Y-65228900D01*
X189305300Y-65228900D02*
X188107500Y-66426700D01*
X188107500Y-66426700D02*
X185668200Y-66426700D01*
X185668200Y-66426700D02*
X184852300Y-67242600D01*
X184852300Y-67242600D02*
X184852300Y-67950100D01*
X186063000Y-60383400D02*
X186063000Y-61333700D01*
X184102000Y-67950100D02*
X184852300Y-67950100D01*
D34*
G36*
X216366623Y-54973965D02*
G01*
X209067647Y-47674990D01*
X209043064Y-47645036D01*
X208923533Y-47546938D01*
X208787160Y-47474046D01*
X208773072Y-47469772D01*
X208773072Y-47452800D01*
X208760812Y-47328318D01*
X208724502Y-47208620D01*
X208665537Y-47098306D01*
X208586185Y-47001615D01*
X208489494Y-46922263D01*
X208379180Y-46863298D01*
X208344573Y-46852800D01*
X208379180Y-46842302D01*
X208489494Y-46783337D01*
X208586185Y-46703985D01*
X208665537Y-46607294D01*
X208724502Y-46496980D01*
X208760812Y-46377282D01*
X208773072Y-46252800D01*
X208773072Y-44752800D01*
X208760812Y-44628318D01*
X208724502Y-44508620D01*
X208665537Y-44398306D01*
X208586185Y-44301615D01*
X208489494Y-44222263D01*
X208379180Y-44163298D01*
X208259482Y-44126988D01*
X208135000Y-44114728D01*
X206835000Y-44114728D01*
X206710518Y-44126988D01*
X206590820Y-44163298D01*
X206480506Y-44222263D01*
X206383815Y-44301615D01*
X206304463Y-44398306D01*
X206245498Y-44508620D01*
X206209188Y-44628318D01*
X206196928Y-44752800D01*
X206196928Y-44769772D01*
X206182840Y-44774046D01*
X206046467Y-44846938D01*
X205926936Y-44945036D01*
X205902353Y-44974990D01*
X204542490Y-46334853D01*
X204512536Y-46359436D01*
X204414438Y-46478968D01*
X204341546Y-46615341D01*
X204296659Y-46763314D01*
X204285300Y-46878640D01*
X204285300Y-46878647D01*
X204281503Y-46917200D01*
X204285300Y-46955753D01*
X204285301Y-49740688D01*
X204266363Y-49759626D01*
X204153095Y-49929144D01*
X204075074Y-50117502D01*
X204035300Y-50317461D01*
X204035300Y-50521339D01*
X204075074Y-50721298D01*
X204153095Y-50909656D01*
X204266363Y-51079174D01*
X204410526Y-51223337D01*
X204580044Y-51336605D01*
X204768402Y-51414626D01*
X204968361Y-51454400D01*
X205172239Y-51454400D01*
X205372198Y-51414626D01*
X205560556Y-51336605D01*
X205730074Y-51223337D01*
X205874237Y-51079174D01*
X205987505Y-50909656D01*
X206065526Y-50721298D01*
X206105300Y-50521339D01*
X206105300Y-50317461D01*
X206065526Y-50117502D01*
X205987505Y-49929144D01*
X205874237Y-49759626D01*
X205855300Y-49740689D01*
X205855300Y-47242357D01*
X206389229Y-46708428D01*
X206480506Y-46783337D01*
X206590820Y-46842302D01*
X206625427Y-46852800D01*
X206590820Y-46863298D01*
X206480506Y-46922263D01*
X206383815Y-47001615D01*
X206304463Y-47098306D01*
X206245498Y-47208620D01*
X206209188Y-47328318D01*
X206196928Y-47452800D01*
X206196928Y-48952800D01*
X206209188Y-49077282D01*
X206245498Y-49196980D01*
X206304463Y-49307294D01*
X206383815Y-49403985D01*
X206480506Y-49483337D01*
X206590820Y-49542302D01*
X206710518Y-49578612D01*
X206835000Y-49590872D01*
X208135000Y-49590872D01*
X208259482Y-49578612D01*
X208379180Y-49542302D01*
X208489494Y-49483337D01*
X208580771Y-49408428D01*
X212219970Y-53047628D01*
X211134000Y-53047628D01*
X211009518Y-53059888D01*
X210889820Y-53096198D01*
X210779506Y-53155163D01*
X210682815Y-53234515D01*
X210603463Y-53331206D01*
X210544498Y-53441520D01*
X210534000Y-53476127D01*
X210523502Y-53441520D01*
X210464537Y-53331206D01*
X210385185Y-53234515D01*
X210288494Y-53155163D01*
X210178180Y-53096198D01*
X210058482Y-53059888D01*
X209934000Y-53047628D01*
X208434000Y-53047628D01*
X208309518Y-53059888D01*
X208189820Y-53096198D01*
X208079506Y-53155163D01*
X207982815Y-53234515D01*
X207903463Y-53331206D01*
X207844498Y-53441520D01*
X207808188Y-53561218D01*
X207795928Y-53685700D01*
X207795928Y-54985700D01*
X207808188Y-55110182D01*
X207844498Y-55229880D01*
X207903463Y-55340194D01*
X207982815Y-55436885D01*
X208079506Y-55516237D01*
X208189820Y-55575202D01*
X208309518Y-55611512D01*
X208434000Y-55623772D01*
X208450972Y-55623772D01*
X208455246Y-55637860D01*
X208528138Y-55774233D01*
X208626236Y-55893764D01*
X208745767Y-55991862D01*
X208882140Y-56064754D01*
X209030113Y-56109641D01*
X209145439Y-56121000D01*
X209145440Y-56121000D01*
X209184000Y-56124798D01*
X209222561Y-56121000D01*
X212138143Y-56121000D01*
X214178358Y-58161216D01*
X214202936Y-58191164D01*
X214232884Y-58215742D01*
X214232887Y-58215745D01*
X214262259Y-58239850D01*
X214322467Y-58289262D01*
X214458840Y-58362154D01*
X214472928Y-58366428D01*
X214472928Y-58383400D01*
X214485188Y-58507882D01*
X214521498Y-58627580D01*
X214580463Y-58737894D01*
X214659815Y-58834585D01*
X214756506Y-58913937D01*
X214866820Y-58972902D01*
X214986518Y-59009212D01*
X215111000Y-59021472D01*
X215375601Y-59021472D01*
X215375601Y-61605328D01*
X211097900Y-61605328D01*
X211097900Y-59586957D01*
X211368815Y-59316043D01*
X211398764Y-59291464D01*
X211430444Y-59252863D01*
X211454755Y-59223240D01*
X211496862Y-59171933D01*
X211569754Y-59035560D01*
X211587475Y-58977141D01*
X211614641Y-58887588D01*
X211619252Y-58840768D01*
X211623636Y-58796262D01*
X211671537Y-58737894D01*
X211730502Y-58627580D01*
X211766812Y-58507882D01*
X211779072Y-58383400D01*
X211779072Y-56883400D01*
X211766812Y-56758918D01*
X211730502Y-56639220D01*
X211671537Y-56528906D01*
X211592185Y-56432215D01*
X211495494Y-56352863D01*
X211385180Y-56293898D01*
X211265482Y-56257588D01*
X211141000Y-56245328D01*
X210541000Y-56245328D01*
X210416518Y-56257588D01*
X210296820Y-56293898D01*
X210186506Y-56352863D01*
X210089815Y-56432215D01*
X210010463Y-56528906D01*
X209951498Y-56639220D01*
X209915188Y-56758918D01*
X209902928Y-56883400D01*
X209902928Y-58383400D01*
X209915188Y-58507882D01*
X209924841Y-58539702D01*
X209785089Y-58679454D01*
X209755136Y-58704036D01*
X209672382Y-58804871D01*
X209654674Y-58787163D01*
X209485156Y-58673895D01*
X209296798Y-58595874D01*
X209096839Y-58556100D01*
X208892961Y-58556100D01*
X208693002Y-58595874D01*
X208504644Y-58673895D01*
X208335126Y-58787163D01*
X208190963Y-58931326D01*
X208077695Y-59100844D01*
X207999674Y-59289202D01*
X207959900Y-59489161D01*
X207959900Y-59693039D01*
X207965364Y-59720507D01*
X203612647Y-55367790D01*
X203588064Y-55337836D01*
X203468533Y-55239738D01*
X203332160Y-55166846D01*
X203184187Y-55121959D01*
X203068861Y-55110600D01*
X203068853Y-55110600D01*
X203030300Y-55106803D01*
X202991747Y-55110600D01*
X201304258Y-55110600D01*
X201604617Y-54810241D01*
X201634564Y-54785664D01*
X201660827Y-54753664D01*
X201686370Y-54722539D01*
X201732662Y-54666133D01*
X201805554Y-54529760D01*
X201850441Y-54381787D01*
X201861800Y-54266461D01*
X201861800Y-54266454D01*
X201865597Y-54227901D01*
X201861800Y-54189348D01*
X201861800Y-47619452D01*
X201865597Y-47580899D01*
X201861800Y-47542346D01*
X201861800Y-47542339D01*
X201850441Y-47427013D01*
X201805554Y-47279040D01*
X201732662Y-47142667D01*
X201673916Y-47071086D01*
X201659145Y-47053087D01*
X201659142Y-47053084D01*
X201634564Y-47023136D01*
X201604616Y-46998558D01*
X200181047Y-45574990D01*
X200156464Y-45545036D01*
X200058722Y-45464820D01*
X200081185Y-45446385D01*
X200160537Y-45349694D01*
X200219502Y-45239380D01*
X200255812Y-45119682D01*
X200268072Y-44995200D01*
X200268072Y-43459008D01*
X210497000Y-43459008D01*
X210497000Y-43734192D01*
X210550686Y-44004090D01*
X210655995Y-44258327D01*
X210808880Y-44487135D01*
X211003465Y-44681720D01*
X211232273Y-44834605D01*
X211486510Y-44939914D01*
X211756408Y-44993600D01*
X212031592Y-44993600D01*
X212301490Y-44939914D01*
X212555727Y-44834605D01*
X212784535Y-44681720D01*
X212979120Y-44487135D01*
X213132005Y-44258327D01*
X213237314Y-44004090D01*
X213291000Y-43734192D01*
X213291000Y-43459008D01*
X213237314Y-43189110D01*
X213132005Y-42934873D01*
X212979120Y-42706065D01*
X212784535Y-42511480D01*
X212555727Y-42358595D01*
X212301490Y-42253286D01*
X212031592Y-42199600D01*
X211756408Y-42199600D01*
X211486510Y-42253286D01*
X211232273Y-42358595D01*
X211003465Y-42511480D01*
X210808880Y-42706065D01*
X210655995Y-42934873D01*
X210550686Y-43189110D01*
X210497000Y-43459008D01*
X200268072Y-43459008D01*
X200268072Y-43295200D01*
X200255812Y-43170718D01*
X200219502Y-43051020D01*
X200160537Y-42940706D01*
X200081185Y-42844015D01*
X199984494Y-42764663D01*
X199874180Y-42705698D01*
X199754482Y-42669388D01*
X199630000Y-42657128D01*
X197930000Y-42657128D01*
X197805518Y-42669388D01*
X197685820Y-42705698D01*
X197575506Y-42764663D01*
X197478815Y-42844015D01*
X197399463Y-42940706D01*
X197340498Y-43051020D01*
X197318487Y-43123580D01*
X197186632Y-42991725D01*
X196943411Y-42829210D01*
X196673158Y-42717268D01*
X196386260Y-42660200D01*
X196093740Y-42660200D01*
X195806842Y-42717268D01*
X195536589Y-42829210D01*
X195293368Y-42991725D01*
X195086525Y-43198568D01*
X194970000Y-43372960D01*
X194853475Y-43198568D01*
X194646632Y-42991725D01*
X194403411Y-42829210D01*
X194133158Y-42717268D01*
X193846260Y-42660200D01*
X193553740Y-42660200D01*
X193266842Y-42717268D01*
X192996589Y-42829210D01*
X192753368Y-42991725D01*
X192546525Y-43198568D01*
X192430000Y-43372960D01*
X192313475Y-43198568D01*
X192106632Y-42991725D01*
X191863411Y-42829210D01*
X191593158Y-42717268D01*
X191306260Y-42660200D01*
X191013740Y-42660200D01*
X190726842Y-42717268D01*
X190456589Y-42829210D01*
X190256957Y-42962600D01*
X189682947Y-42388589D01*
X189658364Y-42358636D01*
X189538833Y-42260538D01*
X189402460Y-42187646D01*
X189254487Y-42142759D01*
X189139161Y-42131400D01*
X189139153Y-42131400D01*
X189100600Y-42127603D01*
X189062047Y-42131400D01*
X185634556Y-42131400D01*
X185596000Y-42127603D01*
X185557444Y-42131400D01*
X185557439Y-42131400D01*
X185517026Y-42135380D01*
X185442113Y-42142758D01*
X185294140Y-42187646D01*
X185157767Y-42260538D01*
X185038236Y-42358636D01*
X185013653Y-42388590D01*
X184441005Y-42961238D01*
X184243411Y-42829210D01*
X183973158Y-42717268D01*
X183686260Y-42660200D01*
X183393740Y-42660200D01*
X183106842Y-42717268D01*
X182836589Y-42829210D01*
X182593368Y-42991725D01*
X182386525Y-43198568D01*
X182270000Y-43372960D01*
X182153475Y-43198568D01*
X181946632Y-42991725D01*
X181703411Y-42829210D01*
X181433158Y-42717268D01*
X181146260Y-42660200D01*
X180853740Y-42660200D01*
X180566842Y-42717268D01*
X180296589Y-42829210D01*
X180053368Y-42991725D01*
X179846525Y-43198568D01*
X179736933Y-43362584D01*
X179715265Y-43364718D01*
X179655178Y-43263845D01*
X179460269Y-43047612D01*
X179226920Y-42873559D01*
X178964099Y-42748375D01*
X178816890Y-42703724D01*
X178587000Y-42825045D01*
X178587000Y-44018200D01*
X178607000Y-44018200D01*
X178607000Y-44272200D01*
X178587000Y-44272200D01*
X178587000Y-44292200D01*
X178333000Y-44292200D01*
X178333000Y-44272200D01*
X177139186Y-44272200D01*
X177018519Y-44502091D01*
X177115843Y-44776452D01*
X177264822Y-45026555D01*
X177459731Y-45242788D01*
X177693080Y-45416841D01*
X177719466Y-45429409D01*
X177588140Y-45469246D01*
X177451767Y-45542138D01*
X177332236Y-45640236D01*
X177234138Y-45759767D01*
X177161246Y-45896140D01*
X177156972Y-45910228D01*
X177140000Y-45910228D01*
X177015518Y-45922488D01*
X176895820Y-45958798D01*
X176785506Y-46017763D01*
X176688815Y-46097115D01*
X176609463Y-46193806D01*
X176550498Y-46304120D01*
X176540000Y-46338727D01*
X176529502Y-46304120D01*
X176470537Y-46193806D01*
X176391185Y-46097115D01*
X176294494Y-46017763D01*
X176184180Y-45958798D01*
X176097595Y-45932533D01*
X176115868Y-45926675D01*
X176244267Y-45658371D01*
X176317855Y-45370174D01*
X176333804Y-45073157D01*
X176291501Y-44778737D01*
X176192572Y-44498226D01*
X176115868Y-44354725D01*
X175864240Y-44274065D01*
X174997605Y-45140700D01*
X175011748Y-45154843D01*
X174832143Y-45334448D01*
X174818000Y-45320305D01*
X174160774Y-45977531D01*
X174085506Y-46017763D01*
X173988815Y-46097115D01*
X173909463Y-46193806D01*
X173880121Y-46248700D01*
X173732661Y-46248700D01*
X173532702Y-46288474D01*
X173344344Y-46366495D01*
X173174826Y-46479763D01*
X173030663Y-46623926D01*
X172917395Y-46793444D01*
X172839374Y-46981802D01*
X172814469Y-47107011D01*
X172358158Y-46650700D01*
X172426722Y-46650700D01*
X172718451Y-46592671D01*
X172993253Y-46478844D01*
X173240569Y-46313593D01*
X173450893Y-46103269D01*
X173560288Y-45939547D01*
X173771760Y-46007335D01*
X174638395Y-45140700D01*
X173771760Y-44274065D01*
X173560288Y-44341853D01*
X173450893Y-44178131D01*
X173367222Y-44094460D01*
X173951365Y-44094460D01*
X174818000Y-44961095D01*
X175684635Y-44094460D01*
X175603975Y-43842832D01*
X175490044Y-43788309D01*
X177018519Y-43788309D01*
X177139186Y-44018200D01*
X178333000Y-44018200D01*
X178333000Y-42825045D01*
X178103110Y-42703724D01*
X177955901Y-42748375D01*
X177693080Y-42873559D01*
X177459731Y-43047612D01*
X177264822Y-43263845D01*
X177115843Y-43513948D01*
X177018519Y-43788309D01*
X175490044Y-43788309D01*
X175335671Y-43714433D01*
X175047474Y-43640845D01*
X174750457Y-43624896D01*
X174456037Y-43667199D01*
X174175526Y-43766128D01*
X174032025Y-43842832D01*
X173951365Y-44094460D01*
X173367222Y-44094460D01*
X173240569Y-43967807D01*
X172993253Y-43802556D01*
X172718451Y-43688729D01*
X172426722Y-43630700D01*
X172129278Y-43630700D01*
X171837549Y-43688729D01*
X171562747Y-43802556D01*
X171315431Y-43967807D01*
X171105107Y-44178131D01*
X171008000Y-44323462D01*
X170910893Y-44178131D01*
X170700569Y-43967807D01*
X170453253Y-43802556D01*
X170178451Y-43688729D01*
X169886722Y-43630700D01*
X169589278Y-43630700D01*
X169297549Y-43688729D01*
X169022747Y-43802556D01*
X168775431Y-43967807D01*
X168565107Y-44178131D01*
X168399856Y-44425447D01*
X168286029Y-44700249D01*
X168228000Y-44991978D01*
X168228000Y-45289422D01*
X168286029Y-45581151D01*
X168399856Y-45855953D01*
X168565107Y-46103269D01*
X168775431Y-46313593D01*
X169022747Y-46478844D01*
X169297549Y-46592671D01*
X169589278Y-46650700D01*
X169886722Y-46650700D01*
X170096179Y-46609036D01*
X171852902Y-48365760D01*
X171750000Y-48364828D01*
X171625518Y-48377088D01*
X171505820Y-48413398D01*
X171395506Y-48472363D01*
X171298815Y-48551715D01*
X171219463Y-48648406D01*
X171160498Y-48758720D01*
X171124188Y-48878418D01*
X171111928Y-49002900D01*
X171115000Y-49467150D01*
X171273750Y-49625900D01*
X172248000Y-49625900D01*
X172248000Y-49605900D01*
X172502000Y-49605900D01*
X172502000Y-49625900D01*
X173476250Y-49625900D01*
X173605350Y-49496800D01*
X174034144Y-49496800D01*
X174034000Y-49497413D01*
X174025505Y-49740538D01*
X174064605Y-49980649D01*
X174149798Y-50208518D01*
X174190652Y-50284952D01*
X174243813Y-50296200D01*
X174072952Y-50296200D01*
X174034399Y-50292403D01*
X173995846Y-50296200D01*
X173995839Y-50296200D01*
X173880513Y-50307559D01*
X173732540Y-50352446D01*
X173637413Y-50403292D01*
X173635000Y-50038650D01*
X173476250Y-49879900D01*
X172502000Y-49879900D01*
X172502000Y-49899900D01*
X172248000Y-49899900D01*
X172248000Y-49879900D01*
X171273750Y-49879900D01*
X171115000Y-50038650D01*
X171111928Y-50502900D01*
X171124188Y-50627382D01*
X171160498Y-50747080D01*
X171219463Y-50857394D01*
X171298815Y-50954085D01*
X171358296Y-51002900D01*
X171298815Y-51051715D01*
X171219463Y-51148406D01*
X171160498Y-51258720D01*
X171124188Y-51378418D01*
X171111928Y-51502900D01*
X171111928Y-53002900D01*
X171124188Y-53127382D01*
X171160498Y-53247080D01*
X171219463Y-53357394D01*
X171298815Y-53454085D01*
X171395506Y-53533437D01*
X171505820Y-53592402D01*
X171625518Y-53628712D01*
X171750000Y-53640972D01*
X172139700Y-53640972D01*
X172139701Y-55760537D01*
X172135903Y-55799100D01*
X172151059Y-55952986D01*
X172195946Y-56100959D01*
X172210292Y-56127798D01*
X172268839Y-56237333D01*
X172297991Y-56272854D01*
X172342355Y-56326912D01*
X172342359Y-56326916D01*
X172366937Y-56356864D01*
X172396885Y-56381442D01*
X172832653Y-56817210D01*
X172857236Y-56847164D01*
X172976767Y-56945262D01*
X172984602Y-56949450D01*
X172972460Y-56978764D01*
X172925000Y-57217363D01*
X172925000Y-57460637D01*
X172972460Y-57699236D01*
X173065557Y-57923992D01*
X173200713Y-58126267D01*
X173372733Y-58298287D01*
X173575008Y-58433443D01*
X173799764Y-58526540D01*
X173866941Y-58539902D01*
X173710185Y-58696658D01*
X173680237Y-58721236D01*
X173655659Y-58751184D01*
X173655655Y-58751188D01*
X173626131Y-58787163D01*
X173582139Y-58840767D01*
X173557113Y-58887588D01*
X173509246Y-58977141D01*
X173504973Y-58991228D01*
X173488000Y-58991228D01*
X173363518Y-59003488D01*
X173243820Y-59039798D01*
X173133506Y-59098763D01*
X173036815Y-59178115D01*
X172957463Y-59274806D01*
X172898498Y-59385120D01*
X172862188Y-59504818D01*
X172849928Y-59629300D01*
X172849928Y-60929300D01*
X172862188Y-61053782D01*
X172898498Y-61173480D01*
X172957463Y-61283794D01*
X173036815Y-61380485D01*
X173133506Y-61459837D01*
X173243820Y-61518802D01*
X173363518Y-61555112D01*
X173488000Y-61567372D01*
X174988000Y-61567372D01*
X175112482Y-61555112D01*
X175232180Y-61518802D01*
X175342494Y-61459837D01*
X175439185Y-61380485D01*
X175518537Y-61283794D01*
X175577502Y-61173480D01*
X175588000Y-61138873D01*
X175598498Y-61173480D01*
X175657463Y-61283794D01*
X175736815Y-61380485D01*
X175797499Y-61430287D01*
X175790900Y-61463461D01*
X175790900Y-61667339D01*
X175830674Y-61867298D01*
X175908695Y-62055656D01*
X176021963Y-62225174D01*
X176069666Y-62272877D01*
X175706485Y-62636058D01*
X175676537Y-62660636D01*
X175651959Y-62690584D01*
X175651955Y-62690588D01*
X175636203Y-62709782D01*
X175592769Y-62762706D01*
X175141750Y-62765400D01*
X174983000Y-62924150D01*
X174983000Y-64823400D01*
X175003000Y-64823400D01*
X175003000Y-65077400D01*
X174983000Y-65077400D01*
X174983000Y-65097400D01*
X174729000Y-65097400D01*
X174729000Y-65077400D01*
X173579750Y-65077400D01*
X173421000Y-65236150D01*
X173420817Y-65311660D01*
X172017038Y-63907881D01*
X172018297Y-63895100D01*
X172014500Y-63856544D01*
X172014500Y-63400400D01*
X173417928Y-63400400D01*
X173421000Y-64664650D01*
X173579750Y-64823400D01*
X174729000Y-64823400D01*
X174729000Y-62924150D01*
X174570250Y-62765400D01*
X174056000Y-62762328D01*
X173931518Y-62774588D01*
X173811820Y-62810898D01*
X173701506Y-62869863D01*
X173604815Y-62949215D01*
X173525463Y-63045906D01*
X173466498Y-63156220D01*
X173430188Y-63275918D01*
X173417928Y-63400400D01*
X172014500Y-63400400D01*
X172014500Y-61606256D01*
X172018297Y-61567700D01*
X172014500Y-61529140D01*
X172014500Y-61529139D01*
X172008031Y-61463461D01*
X172003142Y-61413813D01*
X171958254Y-61265840D01*
X171947094Y-61244961D01*
X171885362Y-61129467D01*
X171787264Y-61009936D01*
X171757311Y-60985354D01*
X171299875Y-60527918D01*
X171304072Y-60485300D01*
X171304072Y-59685300D01*
X171291812Y-59560818D01*
X171255502Y-59441120D01*
X171196537Y-59330806D01*
X171117185Y-59234115D01*
X171020494Y-59154763D01*
X170910180Y-59095798D01*
X170790482Y-59059488D01*
X170666000Y-59047228D01*
X169766000Y-59047228D01*
X169641518Y-59059488D01*
X169521820Y-59095798D01*
X169411506Y-59154763D01*
X169314815Y-59234115D01*
X169235463Y-59330806D01*
X169176498Y-59441120D01*
X169140188Y-59560818D01*
X169127928Y-59685300D01*
X169127928Y-60485300D01*
X169140188Y-60609782D01*
X169176498Y-60729480D01*
X169235463Y-60839794D01*
X169314815Y-60936485D01*
X169411506Y-61015837D01*
X169457870Y-61040619D01*
X169487246Y-61137460D01*
X169519182Y-61197208D01*
X169411506Y-61254763D01*
X169356019Y-61300300D01*
X169159165Y-61300300D01*
X169115699Y-61296019D01*
X169072233Y-61300300D01*
X169072223Y-61300300D01*
X168942210Y-61313105D01*
X168775387Y-61363711D01*
X168621641Y-61445889D01*
X168600230Y-61463461D01*
X168520653Y-61528768D01*
X168520651Y-61528770D01*
X168486883Y-61556483D01*
X168459170Y-61590251D01*
X166713007Y-63336415D01*
X166730558Y-42128310D01*
X216304470Y-42067635D01*
X216366623Y-54973965D01*
G37*
X216366623Y-54973965D02*
X209067647Y-47674990D01*
X209043064Y-47645036D01*
X208923533Y-47546938D01*
X208787160Y-47474046D01*
X208773072Y-47469772D01*
X208773072Y-47452800D01*
X208760812Y-47328318D01*
X208724502Y-47208620D01*
X208665537Y-47098306D01*
X208586185Y-47001615D01*
X208489494Y-46922263D01*
X208379180Y-46863298D01*
X208344573Y-46852800D01*
X208379180Y-46842302D01*
X208489494Y-46783337D01*
X208586185Y-46703985D01*
X208665537Y-46607294D01*
X208724502Y-46496980D01*
X208760812Y-46377282D01*
X208773072Y-46252800D01*
X208773072Y-44752800D01*
X208760812Y-44628318D01*
X208724502Y-44508620D01*
X208665537Y-44398306D01*
X208586185Y-44301615D01*
X208489494Y-44222263D01*
X208379180Y-44163298D01*
X208259482Y-44126988D01*
X208135000Y-44114728D01*
X206835000Y-44114728D01*
X206710518Y-44126988D01*
X206590820Y-44163298D01*
X206480506Y-44222263D01*
X206383815Y-44301615D01*
X206304463Y-44398306D01*
X206245498Y-44508620D01*
X206209188Y-44628318D01*
X206196928Y-44752800D01*
X206196928Y-44769772D01*
X206182840Y-44774046D01*
X206046467Y-44846938D01*
X205926936Y-44945036D01*
X205902353Y-44974990D01*
X204542490Y-46334853D01*
X204512536Y-46359436D01*
X204414438Y-46478968D01*
X204341546Y-46615341D01*
X204296659Y-46763314D01*
X204285300Y-46878640D01*
X204285300Y-46878647D01*
X204281503Y-46917200D01*
X204285300Y-46955753D01*
X204285301Y-49740688D01*
X204266363Y-49759626D01*
X204153095Y-49929144D01*
X204075074Y-50117502D01*
X204035300Y-50317461D01*
X204035300Y-50521339D01*
X204075074Y-50721298D01*
X204153095Y-50909656D01*
X204266363Y-51079174D01*
X204410526Y-51223337D01*
X204580044Y-51336605D01*
X204768402Y-51414626D01*
X204968361Y-51454400D01*
X205172239Y-51454400D01*
X205372198Y-51414626D01*
X205560556Y-51336605D01*
X205730074Y-51223337D01*
X205874237Y-51079174D01*
X205987505Y-50909656D01*
X206065526Y-50721298D01*
X206105300Y-50521339D01*
X206105300Y-50317461D01*
X206065526Y-50117502D01*
X205987505Y-49929144D01*
X205874237Y-49759626D01*
X205855300Y-49740689D01*
X205855300Y-47242357D01*
X206389229Y-46708428D01*
X206480506Y-46783337D01*
X206590820Y-46842302D01*
X206625427Y-46852800D01*
X206590820Y-46863298D01*
X206480506Y-46922263D01*
X206383815Y-47001615D01*
X206304463Y-47098306D01*
X206245498Y-47208620D01*
X206209188Y-47328318D01*
X206196928Y-47452800D01*
X206196928Y-48952800D01*
X206209188Y-49077282D01*
X206245498Y-49196980D01*
X206304463Y-49307294D01*
X206383815Y-49403985D01*
X206480506Y-49483337D01*
X206590820Y-49542302D01*
X206710518Y-49578612D01*
X206835000Y-49590872D01*
X208135000Y-49590872D01*
X208259482Y-49578612D01*
X208379180Y-49542302D01*
X208489494Y-49483337D01*
X208580771Y-49408428D01*
X212219970Y-53047628D01*
X211134000Y-53047628D01*
X211009518Y-53059888D01*
X210889820Y-53096198D01*
X210779506Y-53155163D01*
X210682815Y-53234515D01*
X210603463Y-53331206D01*
X210544498Y-53441520D01*
X210534000Y-53476127D01*
X210523502Y-53441520D01*
X210464537Y-53331206D01*
X210385185Y-53234515D01*
X210288494Y-53155163D01*
X210178180Y-53096198D01*
X210058482Y-53059888D01*
X209934000Y-53047628D01*
X208434000Y-53047628D01*
X208309518Y-53059888D01*
X208189820Y-53096198D01*
X208079506Y-53155163D01*
X207982815Y-53234515D01*
X207903463Y-53331206D01*
X207844498Y-53441520D01*
X207808188Y-53561218D01*
X207795928Y-53685700D01*
X207795928Y-54985700D01*
X207808188Y-55110182D01*
X207844498Y-55229880D01*
X207903463Y-55340194D01*
X207982815Y-55436885D01*
X208079506Y-55516237D01*
X208189820Y-55575202D01*
X208309518Y-55611512D01*
X208434000Y-55623772D01*
X208450972Y-55623772D01*
X208455246Y-55637860D01*
X208528138Y-55774233D01*
X208626236Y-55893764D01*
X208745767Y-55991862D01*
X208882140Y-56064754D01*
X209030113Y-56109641D01*
X209145439Y-56121000D01*
X209145440Y-56121000D01*
X209184000Y-56124798D01*
X209222561Y-56121000D01*
X212138143Y-56121000D01*
X214178358Y-58161216D01*
X214202936Y-58191164D01*
X214232884Y-58215742D01*
X214232887Y-58215745D01*
X214262259Y-58239850D01*
X214322467Y-58289262D01*
X214458840Y-58362154D01*
X214472928Y-58366428D01*
X214472928Y-58383400D01*
X214485188Y-58507882D01*
X214521498Y-58627580D01*
X214580463Y-58737894D01*
X214659815Y-58834585D01*
X214756506Y-58913937D01*
X214866820Y-58972902D01*
X214986518Y-59009212D01*
X215111000Y-59021472D01*
X215375601Y-59021472D01*
X215375601Y-61605328D01*
X211097900Y-61605328D01*
X211097900Y-59586957D01*
X211368815Y-59316043D01*
X211398764Y-59291464D01*
X211430444Y-59252863D01*
X211454755Y-59223240D01*
X211496862Y-59171933D01*
X211569754Y-59035560D01*
X211587475Y-58977141D01*
X211614641Y-58887588D01*
X211619252Y-58840768D01*
X211623636Y-58796262D01*
X211671537Y-58737894D01*
X211730502Y-58627580D01*
X211766812Y-58507882D01*
X211779072Y-58383400D01*
X211779072Y-56883400D01*
X211766812Y-56758918D01*
X211730502Y-56639220D01*
X211671537Y-56528906D01*
X211592185Y-56432215D01*
X211495494Y-56352863D01*
X211385180Y-56293898D01*
X211265482Y-56257588D01*
X211141000Y-56245328D01*
X210541000Y-56245328D01*
X210416518Y-56257588D01*
X210296820Y-56293898D01*
X210186506Y-56352863D01*
X210089815Y-56432215D01*
X210010463Y-56528906D01*
X209951498Y-56639220D01*
X209915188Y-56758918D01*
X209902928Y-56883400D01*
X209902928Y-58383400D01*
X209915188Y-58507882D01*
X209924841Y-58539702D01*
X209785089Y-58679454D01*
X209755136Y-58704036D01*
X209672382Y-58804871D01*
X209654674Y-58787163D01*
X209485156Y-58673895D01*
X209296798Y-58595874D01*
X209096839Y-58556100D01*
X208892961Y-58556100D01*
X208693002Y-58595874D01*
X208504644Y-58673895D01*
X208335126Y-58787163D01*
X208190963Y-58931326D01*
X208077695Y-59100844D01*
X207999674Y-59289202D01*
X207959900Y-59489161D01*
X207959900Y-59693039D01*
X207965364Y-59720507D01*
X203612647Y-55367790D01*
X203588064Y-55337836D01*
X203468533Y-55239738D01*
X203332160Y-55166846D01*
X203184187Y-55121959D01*
X203068861Y-55110600D01*
X203068853Y-55110600D01*
X203030300Y-55106803D01*
X202991747Y-55110600D01*
X201304258Y-55110600D01*
X201604617Y-54810241D01*
X201634564Y-54785664D01*
X201660827Y-54753664D01*
X201686370Y-54722539D01*
X201732662Y-54666133D01*
X201805554Y-54529760D01*
X201850441Y-54381787D01*
X201861800Y-54266461D01*
X201861800Y-54266454D01*
X201865597Y-54227901D01*
X201861800Y-54189348D01*
X201861800Y-47619452D01*
X201865597Y-47580899D01*
X201861800Y-47542346D01*
X201861800Y-47542339D01*
X201850441Y-47427013D01*
X201805554Y-47279040D01*
X201732662Y-47142667D01*
X201673916Y-47071086D01*
X201659145Y-47053087D01*
X201659142Y-47053084D01*
X201634564Y-47023136D01*
X201604616Y-46998558D01*
X200181047Y-45574990D01*
X200156464Y-45545036D01*
X200058722Y-45464820D01*
X200081185Y-45446385D01*
X200160537Y-45349694D01*
X200219502Y-45239380D01*
X200255812Y-45119682D01*
X200268072Y-44995200D01*
X200268072Y-43459008D01*
X210497000Y-43459008D01*
X210497000Y-43734192D01*
X210550686Y-44004090D01*
X210655995Y-44258327D01*
X210808880Y-44487135D01*
X211003465Y-44681720D01*
X211232273Y-44834605D01*
X211486510Y-44939914D01*
X211756408Y-44993600D01*
X212031592Y-44993600D01*
X212301490Y-44939914D01*
X212555727Y-44834605D01*
X212784535Y-44681720D01*
X212979120Y-44487135D01*
X213132005Y-44258327D01*
X213237314Y-44004090D01*
X213291000Y-43734192D01*
X213291000Y-43459008D01*
X213237314Y-43189110D01*
X213132005Y-42934873D01*
X212979120Y-42706065D01*
X212784535Y-42511480D01*
X212555727Y-42358595D01*
X212301490Y-42253286D01*
X212031592Y-42199600D01*
X211756408Y-42199600D01*
X211486510Y-42253286D01*
X211232273Y-42358595D01*
X211003465Y-42511480D01*
X210808880Y-42706065D01*
X210655995Y-42934873D01*
X210550686Y-43189110D01*
X210497000Y-43459008D01*
X200268072Y-43459008D01*
X200268072Y-43295200D01*
X200255812Y-43170718D01*
X200219502Y-43051020D01*
X200160537Y-42940706D01*
X200081185Y-42844015D01*
X199984494Y-42764663D01*
X199874180Y-42705698D01*
X199754482Y-42669388D01*
X199630000Y-42657128D01*
X197930000Y-42657128D01*
X197805518Y-42669388D01*
X197685820Y-42705698D01*
X197575506Y-42764663D01*
X197478815Y-42844015D01*
X197399463Y-42940706D01*
X197340498Y-43051020D01*
X197318487Y-43123580D01*
X197186632Y-42991725D01*
X196943411Y-42829210D01*
X196673158Y-42717268D01*
X196386260Y-42660200D01*
X196093740Y-42660200D01*
X195806842Y-42717268D01*
X195536589Y-42829210D01*
X195293368Y-42991725D01*
X195086525Y-43198568D01*
X194970000Y-43372960D01*
X194853475Y-43198568D01*
X194646632Y-42991725D01*
X194403411Y-42829210D01*
X194133158Y-42717268D01*
X193846260Y-42660200D01*
X193553740Y-42660200D01*
X193266842Y-42717268D01*
X192996589Y-42829210D01*
X192753368Y-42991725D01*
X192546525Y-43198568D01*
X192430000Y-43372960D01*
X192313475Y-43198568D01*
X192106632Y-42991725D01*
X191863411Y-42829210D01*
X191593158Y-42717268D01*
X191306260Y-42660200D01*
X191013740Y-42660200D01*
X190726842Y-42717268D01*
X190456589Y-42829210D01*
X190256957Y-42962600D01*
X189682947Y-42388589D01*
X189658364Y-42358636D01*
X189538833Y-42260538D01*
X189402460Y-42187646D01*
X189254487Y-42142759D01*
X189139161Y-42131400D01*
X189139153Y-42131400D01*
X189100600Y-42127603D01*
X189062047Y-42131400D01*
X185634556Y-42131400D01*
X185596000Y-42127603D01*
X185557444Y-42131400D01*
X185557439Y-42131400D01*
X185517026Y-42135380D01*
X185442113Y-42142758D01*
X185294140Y-42187646D01*
X185157767Y-42260538D01*
X185038236Y-42358636D01*
X185013653Y-42388590D01*
X184441005Y-42961238D01*
X184243411Y-42829210D01*
X183973158Y-42717268D01*
X183686260Y-42660200D01*
X183393740Y-42660200D01*
X183106842Y-42717268D01*
X182836589Y-42829210D01*
X182593368Y-42991725D01*
X182386525Y-43198568D01*
X182270000Y-43372960D01*
X182153475Y-43198568D01*
X181946632Y-42991725D01*
X181703411Y-42829210D01*
X181433158Y-42717268D01*
X181146260Y-42660200D01*
X180853740Y-42660200D01*
X180566842Y-42717268D01*
X180296589Y-42829210D01*
X180053368Y-42991725D01*
X179846525Y-43198568D01*
X179736933Y-43362584D01*
X179715265Y-43364718D01*
X179655178Y-43263845D01*
X179460269Y-43047612D01*
X179226920Y-42873559D01*
X178964099Y-42748375D01*
X178816890Y-42703724D01*
X178587000Y-42825045D01*
X178587000Y-44018200D01*
X178607000Y-44018200D01*
X178607000Y-44272200D01*
X178587000Y-44272200D01*
X178587000Y-44292200D01*
X178333000Y-44292200D01*
X178333000Y-44272200D01*
X177139186Y-44272200D01*
X177018519Y-44502091D01*
X177115843Y-44776452D01*
X177264822Y-45026555D01*
X177459731Y-45242788D01*
X177693080Y-45416841D01*
X177719466Y-45429409D01*
X177588140Y-45469246D01*
X177451767Y-45542138D01*
X177332236Y-45640236D01*
X177234138Y-45759767D01*
X177161246Y-45896140D01*
X177156972Y-45910228D01*
X177140000Y-45910228D01*
X177015518Y-45922488D01*
X176895820Y-45958798D01*
X176785506Y-46017763D01*
X176688815Y-46097115D01*
X176609463Y-46193806D01*
X176550498Y-46304120D01*
X176540000Y-46338727D01*
X176529502Y-46304120D01*
X176470537Y-46193806D01*
X176391185Y-46097115D01*
X176294494Y-46017763D01*
X176184180Y-45958798D01*
X176097595Y-45932533D01*
X176115868Y-45926675D01*
X176244267Y-45658371D01*
X176317855Y-45370174D01*
X176333804Y-45073157D01*
X176291501Y-44778737D01*
X176192572Y-44498226D01*
X176115868Y-44354725D01*
X175864240Y-44274065D01*
X174997605Y-45140700D01*
X175011748Y-45154843D01*
X174832143Y-45334448D01*
X174818000Y-45320305D01*
X174160774Y-45977531D01*
X174085506Y-46017763D01*
X173988815Y-46097115D01*
X173909463Y-46193806D01*
X173880121Y-46248700D01*
X173732661Y-46248700D01*
X173532702Y-46288474D01*
X173344344Y-46366495D01*
X173174826Y-46479763D01*
X173030663Y-46623926D01*
X172917395Y-46793444D01*
X172839374Y-46981802D01*
X172814469Y-47107011D01*
X172358158Y-46650700D01*
X172426722Y-46650700D01*
X172718451Y-46592671D01*
X172993253Y-46478844D01*
X173240569Y-46313593D01*
X173450893Y-46103269D01*
X173560288Y-45939547D01*
X173771760Y-46007335D01*
X174638395Y-45140700D01*
X173771760Y-44274065D01*
X173560288Y-44341853D01*
X173450893Y-44178131D01*
X173367222Y-44094460D01*
X173951365Y-44094460D01*
X174818000Y-44961095D01*
X175684635Y-44094460D01*
X175603975Y-43842832D01*
X175490044Y-43788309D01*
X177018519Y-43788309D01*
X177139186Y-44018200D01*
X178333000Y-44018200D01*
X178333000Y-42825045D01*
X178103110Y-42703724D01*
X177955901Y-42748375D01*
X177693080Y-42873559D01*
X177459731Y-43047612D01*
X177264822Y-43263845D01*
X177115843Y-43513948D01*
X177018519Y-43788309D01*
X175490044Y-43788309D01*
X175335671Y-43714433D01*
X175047474Y-43640845D01*
X174750457Y-43624896D01*
X174456037Y-43667199D01*
X174175526Y-43766128D01*
X174032025Y-43842832D01*
X173951365Y-44094460D01*
X173367222Y-44094460D01*
X173240569Y-43967807D01*
X172993253Y-43802556D01*
X172718451Y-43688729D01*
X172426722Y-43630700D01*
X172129278Y-43630700D01*
X171837549Y-43688729D01*
X171562747Y-43802556D01*
X171315431Y-43967807D01*
X171105107Y-44178131D01*
X171008000Y-44323462D01*
X170910893Y-44178131D01*
X170700569Y-43967807D01*
X170453253Y-43802556D01*
X170178451Y-43688729D01*
X169886722Y-43630700D01*
X169589278Y-43630700D01*
X169297549Y-43688729D01*
X169022747Y-43802556D01*
X168775431Y-43967807D01*
X168565107Y-44178131D01*
X168399856Y-44425447D01*
X168286029Y-44700249D01*
X168228000Y-44991978D01*
X168228000Y-45289422D01*
X168286029Y-45581151D01*
X168399856Y-45855953D01*
X168565107Y-46103269D01*
X168775431Y-46313593D01*
X169022747Y-46478844D01*
X169297549Y-46592671D01*
X169589278Y-46650700D01*
X169886722Y-46650700D01*
X170096179Y-46609036D01*
X171852902Y-48365760D01*
X171750000Y-48364828D01*
X171625518Y-48377088D01*
X171505820Y-48413398D01*
X171395506Y-48472363D01*
X171298815Y-48551715D01*
X171219463Y-48648406D01*
X171160498Y-48758720D01*
X171124188Y-48878418D01*
X171111928Y-49002900D01*
X171115000Y-49467150D01*
X171273750Y-49625900D01*
X172248000Y-49625900D01*
X172248000Y-49605900D01*
X172502000Y-49605900D01*
X172502000Y-49625900D01*
X173476250Y-49625900D01*
X173605350Y-49496800D01*
X174034144Y-49496800D01*
X174034000Y-49497413D01*
X174025505Y-49740538D01*
X174064605Y-49980649D01*
X174149798Y-50208518D01*
X174190652Y-50284952D01*
X174243813Y-50296200D01*
X174072952Y-50296200D01*
X174034399Y-50292403D01*
X173995846Y-50296200D01*
X173995839Y-50296200D01*
X173880513Y-50307559D01*
X173732540Y-50352446D01*
X173637413Y-50403292D01*
X173635000Y-50038650D01*
X173476250Y-49879900D01*
X172502000Y-49879900D01*
X172502000Y-49899900D01*
X172248000Y-49899900D01*
X172248000Y-49879900D01*
X171273750Y-49879900D01*
X171115000Y-50038650D01*
X171111928Y-50502900D01*
X171124188Y-50627382D01*
X171160498Y-50747080D01*
X171219463Y-50857394D01*
X171298815Y-50954085D01*
X171358296Y-51002900D01*
X171298815Y-51051715D01*
X171219463Y-51148406D01*
X171160498Y-51258720D01*
X171124188Y-51378418D01*
X171111928Y-51502900D01*
X171111928Y-53002900D01*
X171124188Y-53127382D01*
X171160498Y-53247080D01*
X171219463Y-53357394D01*
X171298815Y-53454085D01*
X171395506Y-53533437D01*
X171505820Y-53592402D01*
X171625518Y-53628712D01*
X171750000Y-53640972D01*
X172139700Y-53640972D01*
X172139701Y-55760537D01*
X172135903Y-55799100D01*
X172151059Y-55952986D01*
X172195946Y-56100959D01*
X172210292Y-56127798D01*
X172268839Y-56237333D01*
X172297991Y-56272854D01*
X172342355Y-56326912D01*
X172342359Y-56326916D01*
X172366937Y-56356864D01*
X172396885Y-56381442D01*
X172832653Y-56817210D01*
X172857236Y-56847164D01*
X172976767Y-56945262D01*
X172984602Y-56949450D01*
X172972460Y-56978764D01*
X172925000Y-57217363D01*
X172925000Y-57460637D01*
X172972460Y-57699236D01*
X173065557Y-57923992D01*
X173200713Y-58126267D01*
X173372733Y-58298287D01*
X173575008Y-58433443D01*
X173799764Y-58526540D01*
X173866941Y-58539902D01*
X173710185Y-58696658D01*
X173680237Y-58721236D01*
X173655659Y-58751184D01*
X173655655Y-58751188D01*
X173626131Y-58787163D01*
X173582139Y-58840767D01*
X173557113Y-58887588D01*
X173509246Y-58977141D01*
X173504973Y-58991228D01*
X173488000Y-58991228D01*
X173363518Y-59003488D01*
X173243820Y-59039798D01*
X173133506Y-59098763D01*
X173036815Y-59178115D01*
X172957463Y-59274806D01*
X172898498Y-59385120D01*
X172862188Y-59504818D01*
X172849928Y-59629300D01*
X172849928Y-60929300D01*
X172862188Y-61053782D01*
X172898498Y-61173480D01*
X172957463Y-61283794D01*
X173036815Y-61380485D01*
X173133506Y-61459837D01*
X173243820Y-61518802D01*
X173363518Y-61555112D01*
X173488000Y-61567372D01*
X174988000Y-61567372D01*
X175112482Y-61555112D01*
X175232180Y-61518802D01*
X175342494Y-61459837D01*
X175439185Y-61380485D01*
X175518537Y-61283794D01*
X175577502Y-61173480D01*
X175588000Y-61138873D01*
X175598498Y-61173480D01*
X175657463Y-61283794D01*
X175736815Y-61380485D01*
X175797499Y-61430287D01*
X175790900Y-61463461D01*
X175790900Y-61667339D01*
X175830674Y-61867298D01*
X175908695Y-62055656D01*
X176021963Y-62225174D01*
X176069666Y-62272877D01*
X175706485Y-62636058D01*
X175676537Y-62660636D01*
X175651959Y-62690584D01*
X175651955Y-62690588D01*
X175636203Y-62709782D01*
X175592769Y-62762706D01*
X175141750Y-62765400D01*
X174983000Y-62924150D01*
X174983000Y-64823400D01*
X175003000Y-64823400D01*
X175003000Y-65077400D01*
X174983000Y-65077400D01*
X174983000Y-65097400D01*
X174729000Y-65097400D01*
X174729000Y-65077400D01*
X173579750Y-65077400D01*
X173421000Y-65236150D01*
X173420817Y-65311660D01*
X172017038Y-63907881D01*
X172018297Y-63895100D01*
X172014500Y-63856544D01*
X172014500Y-63400400D01*
X173417928Y-63400400D01*
X173421000Y-64664650D01*
X173579750Y-64823400D01*
X174729000Y-64823400D01*
X174729000Y-62924150D01*
X174570250Y-62765400D01*
X174056000Y-62762328D01*
X173931518Y-62774588D01*
X173811820Y-62810898D01*
X173701506Y-62869863D01*
X173604815Y-62949215D01*
X173525463Y-63045906D01*
X173466498Y-63156220D01*
X173430188Y-63275918D01*
X173417928Y-63400400D01*
X172014500Y-63400400D01*
X172014500Y-61606256D01*
X172018297Y-61567700D01*
X172014500Y-61529140D01*
X172014500Y-61529139D01*
X172008031Y-61463461D01*
X172003142Y-61413813D01*
X171958254Y-61265840D01*
X171947094Y-61244961D01*
X171885362Y-61129467D01*
X171787264Y-61009936D01*
X171757311Y-60985354D01*
X171299875Y-60527918D01*
X171304072Y-60485300D01*
X171304072Y-59685300D01*
X171291812Y-59560818D01*
X171255502Y-59441120D01*
X171196537Y-59330806D01*
X171117185Y-59234115D01*
X171020494Y-59154763D01*
X170910180Y-59095798D01*
X170790482Y-59059488D01*
X170666000Y-59047228D01*
X169766000Y-59047228D01*
X169641518Y-59059488D01*
X169521820Y-59095798D01*
X169411506Y-59154763D01*
X169314815Y-59234115D01*
X169235463Y-59330806D01*
X169176498Y-59441120D01*
X169140188Y-59560818D01*
X169127928Y-59685300D01*
X169127928Y-60485300D01*
X169140188Y-60609782D01*
X169176498Y-60729480D01*
X169235463Y-60839794D01*
X169314815Y-60936485D01*
X169411506Y-61015837D01*
X169457870Y-61040619D01*
X169487246Y-61137460D01*
X169519182Y-61197208D01*
X169411506Y-61254763D01*
X169356019Y-61300300D01*
X169159165Y-61300300D01*
X169115699Y-61296019D01*
X169072233Y-61300300D01*
X169072223Y-61300300D01*
X168942210Y-61313105D01*
X168775387Y-61363711D01*
X168621641Y-61445889D01*
X168600230Y-61463461D01*
X168520653Y-61528768D01*
X168520651Y-61528770D01*
X168486883Y-61556483D01*
X168459170Y-61590251D01*
X166713007Y-63336415D01*
X166730558Y-42128310D01*
X216304470Y-42067635D01*
X216366623Y-54973965D01*
G36*
X175457748Y-49647958D02*
G01*
X175443605Y-49662100D01*
X175457748Y-49676243D01*
X175278143Y-49855848D01*
X175264000Y-49841705D01*
X175249858Y-49855848D01*
X175070253Y-49676243D01*
X175084395Y-49662100D01*
X175070253Y-49647958D01*
X175221410Y-49496800D01*
X175306590Y-49496800D01*
X175457748Y-49647958D01*
G37*
X175457748Y-49647958D02*
X175443605Y-49662100D01*
X175457748Y-49676243D01*
X175278143Y-49855848D01*
X175264000Y-49841705D01*
X175249858Y-49855848D01*
X175070253Y-49676243D01*
X175084395Y-49662100D01*
X175070253Y-49647958D01*
X175221410Y-49496800D01*
X175306590Y-49496800D01*
X175457748Y-49647958D01*
M02*
