G04 #@! TF.GenerationSoftware,KiCad,Pcbnew,5.1.7-a382d34a8~88~ubuntu18.04.1*
G04 #@! TF.CreationDate,2021-05-18T13:12:31+05:30*
G04 #@! TF.ProjectId,Sensor_pcb_v4,53656e73-6f72-45f7-9063-625f76342e6b,rev?*
G04 #@! TF.SameCoordinates,Original*
G04 #@! TF.FileFunction,Paste,Top*
G04 #@! TF.FilePolarity,Positive*
%FSLAX46Y46*%
G04 Gerber Fmt 4.6, Leading zero omitted, Abs format (unit mm)*
G04 Created by KiCad (PCBNEW 5.1.7-a382d34a8~88~ubuntu18.04.1) date 2021-05-18 13:12:31*
%MOMM*%
%LPD*%
G01*
G04 APERTURE LIST*
%ADD10R,3.110000X1.580000*%
%ADD11O,1.200000X2.000000*%
%ADD12R,2.000000X2.000000*%
%ADD13R,0.400000X1.350000*%
%ADD14R,1.000000X0.800000*%
%ADD15R,0.700000X1.100000*%
%ADD16R,0.900000X0.800000*%
%ADD17R,1.200000X1.700000*%
%ADD18R,1.750000X3.000000*%
%ADD19R,1.000000X1.250000*%
%ADD20R,0.800000X0.900000*%
%ADD21R,0.700000X1.300000*%
G04 APERTURE END LIST*
D10*
X45489500Y-31363900D03*
X40489500Y-31363900D03*
D11*
X51677600Y-86741000D03*
D12*
X55252600Y-86741000D03*
D11*
X58827600Y-86741000D03*
D13*
X53952600Y-84066000D03*
X54602600Y-84066000D03*
X55252600Y-84066000D03*
X55902600Y-84066000D03*
X56552600Y-84066000D03*
D14*
X43082500Y-20274900D03*
X43082500Y-22574900D03*
X50582500Y-20274900D03*
X50582500Y-22574900D03*
D15*
X44582500Y-23474900D03*
X46082500Y-23474900D03*
X49082500Y-23474900D03*
D16*
X37541200Y-49833800D03*
X37541200Y-51933800D03*
D17*
X25204700Y-68526400D03*
X27204700Y-68526400D03*
X29204700Y-68526400D03*
X31204700Y-68526400D03*
X33204700Y-68526400D03*
X35204700Y-68526400D03*
X37204700Y-68526400D03*
X39204700Y-68526400D03*
X39204700Y-83756400D03*
X37204700Y-83756400D03*
X35204700Y-83756400D03*
X33204700Y-83756400D03*
X31204700Y-83756400D03*
X29204700Y-83756400D03*
X27204700Y-83756400D03*
X25204700Y-83756400D03*
D16*
X36215000Y-25193300D03*
X36215000Y-27293300D03*
D10*
X58120900Y-32250400D03*
X53120900Y-32250400D03*
D18*
X40940400Y-39603700D03*
X47690400Y-39603700D03*
D19*
X33076600Y-41658500D03*
X35076600Y-41658500D03*
D20*
X48066000Y-83657400D03*
X50166000Y-83657400D03*
X43673700Y-83644700D03*
X41573700Y-83644700D03*
D16*
X37268700Y-45892800D03*
X37268700Y-43992800D03*
X35268700Y-44942800D03*
D21*
X53528000Y-82110600D03*
X51628000Y-82110600D03*
X35191700Y-48714700D03*
X33291700Y-48714700D03*
M02*
