G04 #@! TF.GenerationSoftware,KiCad,Pcbnew,5.1.7-a382d34a8~88~ubuntu18.04.1*
G04 #@! TF.CreationDate,2021-05-18T13:12:31+05:30*
G04 #@! TF.ProjectId,Sensor_pcb_v4,53656e73-6f72-45f7-9063-625f76342e6b,rev?*
G04 #@! TF.SameCoordinates,Original*
G04 #@! TF.FileFunction,Other,Fab,Bot*
%FSLAX46Y46*%
G04 Gerber Fmt 4.6, Leading zero omitted, Abs format (unit mm)*
G04 Created by KiCad (PCBNEW 5.1.7-a382d34a8~88~ubuntu18.04.1) date 2021-05-18 13:12:31*
%MOMM*%
%LPD*%
G01*
G04 APERTURE LIST*
%ADD10C,0.010000*%
%ADD11C,0.152400*%
%ADD12C,0.100000*%
G04 APERTURE END LIST*
D10*
G36*
X53279400Y-38803700D02*
G01*
X53779400Y-38803700D01*
X53779400Y-37943700D01*
X53279400Y-37943700D01*
X53279400Y-38803700D01*
G37*
X53279400Y-38803700D02*
X53779400Y-38803700D01*
X53779400Y-37943700D01*
X53279400Y-37943700D01*
X53279400Y-38803700D01*
G36*
X50279400Y-38803700D02*
G01*
X50779400Y-38803700D01*
X50779400Y-37943700D01*
X50279400Y-37943700D01*
X50279400Y-38803700D01*
G37*
X50279400Y-38803700D02*
X50779400Y-38803700D01*
X50779400Y-37943700D01*
X50279400Y-37943700D01*
X50279400Y-38803700D01*
D11*
X50749400Y-41443700D02*
X53309400Y-41443700D01*
X51349400Y-38943700D02*
X52709400Y-38943700D01*
D10*
G36*
X51229400Y-41943700D02*
G01*
X52829400Y-41943700D01*
X52829400Y-41443700D01*
X51229400Y-41443700D01*
X51229400Y-41943700D01*
G37*
X51229400Y-41943700D02*
X52829400Y-41943700D01*
X52829400Y-41443700D01*
X51229400Y-41443700D01*
X51229400Y-41943700D01*
G36*
X51779400Y-38943700D02*
G01*
X52279400Y-38943700D01*
X52279400Y-37943700D01*
X51779400Y-37943700D01*
X51779400Y-38943700D01*
G37*
X51779400Y-38943700D02*
X52279400Y-38943700D01*
X52279400Y-37943700D01*
X51779400Y-37943700D01*
X51779400Y-38943700D01*
D12*
X29047700Y-63969100D02*
X29047700Y-61969100D01*
X29047700Y-61969100D02*
X27807700Y-61969100D01*
X27807700Y-61969100D02*
X27807700Y-63969100D01*
X27807700Y-63969100D02*
X29047700Y-63969100D01*
X29873700Y-33147000D02*
X26473700Y-33147000D01*
X26473700Y-33147000D02*
X26473700Y-35047000D01*
X26473700Y-35047000D02*
X29873700Y-35047000D01*
X29873700Y-35047000D02*
X29873700Y-33147000D01*
X28427700Y-34097000D02*
X28046700Y-33843000D01*
X28046700Y-33843000D02*
X28046700Y-34351000D01*
X28046700Y-34351000D02*
X28427700Y-34097000D01*
X28427700Y-34097000D02*
X28681700Y-34097000D01*
X28046700Y-34097000D02*
X27792700Y-34097000D01*
X28427700Y-33843000D02*
X28427700Y-34351000D01*
X56743600Y-46840100D02*
X56108600Y-46205100D01*
X56743600Y-56365100D02*
X56743600Y-46840100D01*
X54203600Y-56365100D02*
X56743600Y-56365100D01*
X54203600Y-46205100D02*
X54203600Y-56365100D01*
X56108600Y-46205100D02*
X54203600Y-46205100D01*
X47443900Y-76735700D02*
X45443900Y-76735700D01*
X45443900Y-76735700D02*
X45443900Y-77975700D01*
X45443900Y-77975700D02*
X47443900Y-77975700D01*
X47443900Y-77975700D02*
X47443900Y-76735700D01*
X42847500Y-48947600D02*
X42847500Y-46947600D01*
X42847500Y-46947600D02*
X41607500Y-46947600D01*
X41607500Y-46947600D02*
X41607500Y-48947600D01*
X41607500Y-48947600D02*
X42847500Y-48947600D01*
X41676100Y-52805800D02*
X42916100Y-52805800D01*
X41676100Y-50805800D02*
X41676100Y-52805800D01*
X42916100Y-50805800D02*
X41676100Y-50805800D01*
X42916100Y-52805800D02*
X42916100Y-50805800D01*
X30103800Y-48752000D02*
X31343800Y-48752000D01*
X30103800Y-46752000D02*
X30103800Y-48752000D01*
X31343800Y-46752000D02*
X30103800Y-46752000D01*
X31343800Y-48752000D02*
X31343800Y-46752000D01*
X30058100Y-51158900D02*
X30058100Y-53158900D01*
X30058100Y-53158900D02*
X31298100Y-53158900D01*
X31298100Y-53158900D02*
X31298100Y-51158900D01*
X31298100Y-51158900D02*
X30058100Y-51158900D01*
X38877500Y-23447500D02*
X37637500Y-23447500D01*
X38877500Y-25447500D02*
X38877500Y-23447500D01*
X37637500Y-25447500D02*
X38877500Y-25447500D01*
X37637500Y-23447500D02*
X37637500Y-25447500D01*
X41534300Y-23469600D02*
X40294300Y-23469600D01*
X41534300Y-25469600D02*
X41534300Y-23469600D01*
X40294300Y-25469600D02*
X41534300Y-25469600D01*
X40294300Y-23469600D02*
X40294300Y-25469600D01*
X48871400Y-74038700D02*
X48871400Y-72798700D01*
X46871400Y-74038700D02*
X48871400Y-74038700D01*
X46871400Y-72798700D02*
X46871400Y-74038700D01*
X48871400Y-72798700D02*
X46871400Y-72798700D01*
X33960000Y-50598600D02*
X33960000Y-48598600D01*
X33960000Y-48598600D02*
X32720000Y-48598600D01*
X32720000Y-48598600D02*
X32720000Y-50598600D01*
X32720000Y-50598600D02*
X33960000Y-50598600D01*
X28018500Y-22440100D02*
X29258500Y-22440100D01*
X28018500Y-20440100D02*
X28018500Y-22440100D01*
X29258500Y-20440100D02*
X28018500Y-20440100D01*
X29258500Y-22440100D02*
X29258500Y-20440100D01*
X52925200Y-25869700D02*
X50925200Y-25869700D01*
X50925200Y-25869700D02*
X50925200Y-27109700D01*
X50925200Y-27109700D02*
X52925200Y-27109700D01*
X52925200Y-27109700D02*
X52925200Y-25869700D01*
X35271300Y-33460000D02*
X35271300Y-30360000D01*
X35271300Y-30360000D02*
X33471300Y-30360000D01*
X33471300Y-32810000D02*
X33471300Y-30360000D01*
X35271300Y-33460000D02*
X34121300Y-33460000D01*
X33471300Y-32810000D02*
X34121300Y-33460000D01*
X45995100Y-35864800D02*
X42595100Y-35864800D01*
X42595100Y-35864800D02*
X42595100Y-37764800D01*
X42595100Y-37764800D02*
X45995100Y-37764800D01*
X45995100Y-37764800D02*
X45995100Y-35864800D01*
X44549100Y-36814800D02*
X44168100Y-36560800D01*
X44168100Y-36560800D02*
X44168100Y-37068800D01*
X44168100Y-37068800D02*
X44549100Y-36814800D01*
X44549100Y-36814800D02*
X44803100Y-36814800D01*
X44168100Y-36814800D02*
X43914100Y-36814800D01*
X44549100Y-36560800D02*
X44549100Y-37068800D01*
X30148000Y-78900300D02*
X32148000Y-78900300D01*
X32148000Y-78900300D02*
X32148000Y-77660300D01*
X32148000Y-77660300D02*
X30148000Y-77660300D01*
X30148000Y-77660300D02*
X30148000Y-78900300D01*
X36861200Y-73654700D02*
X36861200Y-74894700D01*
X38861200Y-73654700D02*
X36861200Y-73654700D01*
X38861200Y-74894700D02*
X38861200Y-73654700D01*
X36861200Y-74894700D02*
X38861200Y-74894700D01*
X36866300Y-72903300D02*
X38866300Y-72903300D01*
X38866300Y-72903300D02*
X38866300Y-71663300D01*
X38866300Y-71663300D02*
X36866300Y-71663300D01*
X36866300Y-71663300D02*
X36866300Y-72903300D01*
X34275500Y-78951100D02*
X36275500Y-78951100D01*
X36275500Y-78951100D02*
X36275500Y-77711100D01*
X36275500Y-77711100D02*
X34275500Y-77711100D01*
X34275500Y-77711100D02*
X34275500Y-78951100D01*
M02*
