G04 #@! TF.GenerationSoftware,KiCad,Pcbnew,5.1.6-c6e7f7d~87~ubuntu18.04.1*
G04 #@! TF.CreationDate,2021-04-09T16:44:34+05:30*
G04 #@! TF.ProjectId,Sensor_pcb_v4,53656e73-6f72-45f7-9063-625f76342e6b,rev?*
G04 #@! TF.SameCoordinates,Original*
G04 #@! TF.FileFunction,OtherDrawing,Comment*
%FSLAX46Y46*%
G04 Gerber Fmt 4.6, Leading zero omitted, Abs format (unit mm)*
G04 Created by KiCad (PCBNEW 5.1.6-c6e7f7d~87~ubuntu18.04.1) date 2021-04-09 16:44:34*
%MOMM*%
%LPD*%
G01*
G04 APERTURE LIST*
%ADD10C,0.100000*%
%ADD11C,0.150000*%
%ADD12C,0.080000*%
%ADD13C,0.200000*%
%ADD14C,0.050000*%
%ADD15C,0.010000*%
G04 APERTURE END LIST*
D10*
X58052986Y-54821026D02*
X57719653Y-54821026D01*
X57686320Y-55154360D01*
X57719653Y-55121026D01*
X57786320Y-55087693D01*
X57952986Y-55087693D01*
X58019653Y-55121026D01*
X58052986Y-55154360D01*
X58086320Y-55221026D01*
X58086320Y-55387693D01*
X58052986Y-55454360D01*
X58019653Y-55487693D01*
X57952986Y-55521026D01*
X57786320Y-55521026D01*
X57719653Y-55487693D01*
X57686320Y-55454360D01*
X58286320Y-54821026D02*
X58519653Y-55521026D01*
X58752986Y-54821026D01*
X57405700Y-52126086D02*
X57805700Y-52126086D01*
X57605700Y-52826086D02*
X57605700Y-52126086D01*
X58039033Y-52826086D02*
X58039033Y-52359420D01*
X58039033Y-52492753D02*
X58072366Y-52426086D01*
X58105700Y-52392753D01*
X58172366Y-52359420D01*
X58239033Y-52359420D01*
X58472366Y-52826086D02*
X58472366Y-52359420D01*
X58472366Y-52126086D02*
X58439033Y-52159420D01*
X58472366Y-52192753D01*
X58505700Y-52159420D01*
X58472366Y-52126086D01*
X58472366Y-52192753D01*
X59105700Y-52359420D02*
X59105700Y-52926086D01*
X59072366Y-52992753D01*
X59039033Y-53026086D01*
X58972366Y-53059420D01*
X58872366Y-53059420D01*
X58805700Y-53026086D01*
X59105700Y-52792753D02*
X59039033Y-52826086D01*
X58905700Y-52826086D01*
X58839033Y-52792753D01*
X58805700Y-52759420D01*
X58772366Y-52692753D01*
X58772366Y-52492753D01*
X58805700Y-52426086D01*
X58839033Y-52392753D01*
X58905700Y-52359420D01*
X59039033Y-52359420D01*
X59105700Y-52392753D01*
X57379846Y-49751780D02*
X57613180Y-49751780D01*
X57713180Y-50118446D02*
X57379846Y-50118446D01*
X57379846Y-49418446D01*
X57713180Y-49418446D01*
X58313180Y-50085113D02*
X58246513Y-50118446D01*
X58113180Y-50118446D01*
X58046513Y-50085113D01*
X58013180Y-50051780D01*
X57979846Y-49985113D01*
X57979846Y-49785113D01*
X58013180Y-49718446D01*
X58046513Y-49685113D01*
X58113180Y-49651780D01*
X58246513Y-49651780D01*
X58313180Y-49685113D01*
X58613180Y-50118446D02*
X58613180Y-49418446D01*
X58913180Y-50118446D02*
X58913180Y-49751780D01*
X58879846Y-49685113D01*
X58813180Y-49651780D01*
X58713180Y-49651780D01*
X58646513Y-49685113D01*
X58613180Y-49718446D01*
X59346513Y-50118446D02*
X59279846Y-50085113D01*
X59246513Y-50051780D01*
X59213180Y-49985113D01*
X59213180Y-49785113D01*
X59246513Y-49718446D01*
X59279846Y-49685113D01*
X59346513Y-49651780D01*
X59446513Y-49651780D01*
X59513180Y-49685113D01*
X59546513Y-49718446D01*
X59579846Y-49785113D01*
X59579846Y-49985113D01*
X59546513Y-50051780D01*
X59513180Y-50085113D01*
X59446513Y-50118446D01*
X59346513Y-50118446D01*
X58125806Y-79768906D02*
X58559140Y-79768906D01*
X58325806Y-80035573D01*
X58425806Y-80035573D01*
X58492473Y-80068906D01*
X58525806Y-80102240D01*
X58559140Y-80168906D01*
X58559140Y-80335573D01*
X58525806Y-80402240D01*
X58492473Y-80435573D01*
X58425806Y-80468906D01*
X58225806Y-80468906D01*
X58159140Y-80435573D01*
X58125806Y-80402240D01*
X58859140Y-80402240D02*
X58892473Y-80435573D01*
X58859140Y-80468906D01*
X58825806Y-80435573D01*
X58859140Y-80402240D01*
X58859140Y-80468906D01*
X59125806Y-79768906D02*
X59559140Y-79768906D01*
X59325806Y-80035573D01*
X59425806Y-80035573D01*
X59492473Y-80068906D01*
X59525806Y-80102240D01*
X59559140Y-80168906D01*
X59559140Y-80335573D01*
X59525806Y-80402240D01*
X59492473Y-80435573D01*
X59425806Y-80468906D01*
X59225806Y-80468906D01*
X59159140Y-80435573D01*
X59125806Y-80402240D01*
X59759140Y-79768906D02*
X59992473Y-80468906D01*
X60225806Y-79768906D01*
X58516586Y-77213980D02*
X58449920Y-77180646D01*
X58349920Y-77180646D01*
X58249920Y-77213980D01*
X58183253Y-77280646D01*
X58149920Y-77347313D01*
X58116586Y-77480646D01*
X58116586Y-77580646D01*
X58149920Y-77713980D01*
X58183253Y-77780646D01*
X58249920Y-77847313D01*
X58349920Y-77880646D01*
X58416586Y-77880646D01*
X58516586Y-77847313D01*
X58549920Y-77813980D01*
X58549920Y-77580646D01*
X58416586Y-77580646D01*
X58849920Y-77880646D02*
X58849920Y-77180646D01*
X59249920Y-77880646D01*
X59249920Y-77180646D01*
X59583253Y-77880646D02*
X59583253Y-77180646D01*
X59749920Y-77180646D01*
X59849920Y-77213980D01*
X59916586Y-77280646D01*
X59949920Y-77347313D01*
X59983253Y-77480646D01*
X59983253Y-77580646D01*
X59949920Y-77713980D01*
X59916586Y-77780646D01*
X59849920Y-77847313D01*
X59749920Y-77880646D01*
X59583253Y-77880646D01*
D11*
X37316207Y-91578684D02*
X37935255Y-91579289D01*
X37601549Y-91959915D01*
X37744406Y-91960055D01*
X37839598Y-92007767D01*
X37887170Y-92055432D01*
X37934696Y-92150717D01*
X37934464Y-92388812D01*
X37886752Y-92484003D01*
X37839086Y-92531576D01*
X37743802Y-92579102D01*
X37458087Y-92578823D01*
X37362896Y-92531111D01*
X37315323Y-92483445D01*
X38792397Y-91580126D02*
X38601921Y-91579940D01*
X38506636Y-91627466D01*
X38458971Y-91675038D01*
X38363593Y-91817802D01*
X38315788Y-92008232D01*
X38315416Y-92389184D01*
X38362942Y-92484469D01*
X38410514Y-92532134D01*
X38505706Y-92579846D01*
X38696182Y-92580032D01*
X38791467Y-92532506D01*
X38839132Y-92484934D01*
X38886844Y-92389742D01*
X38887077Y-92151647D01*
X38839551Y-92056363D01*
X38791978Y-92008697D01*
X38696787Y-91960985D01*
X38506311Y-91960799D01*
X38411026Y-92008325D01*
X38363361Y-92055897D01*
X38315649Y-92151089D01*
X39315322Y-92485399D02*
X39362895Y-92533065D01*
X39315229Y-92580637D01*
X39267657Y-92532972D01*
X39315322Y-92485399D01*
X39315229Y-92580637D01*
X39697159Y-91581010D02*
X40316206Y-91581615D01*
X39982501Y-91962241D01*
X40125358Y-91962381D01*
X40220549Y-92010093D01*
X40268122Y-92057758D01*
X40315648Y-92153043D01*
X40315415Y-92391138D01*
X40267703Y-92486330D01*
X40220037Y-92533902D01*
X40124753Y-92581428D01*
X39839039Y-92581149D01*
X39743847Y-92533437D01*
X39696275Y-92485771D01*
X40791419Y-92582079D02*
X40981895Y-92582265D01*
X41077180Y-92534740D01*
X41124845Y-92487167D01*
X41220223Y-92344403D01*
X41268028Y-92153973D01*
X41268400Y-91773021D01*
X41220874Y-91677737D01*
X41173302Y-91630071D01*
X41078110Y-91582359D01*
X40887634Y-91582173D01*
X40792350Y-91629699D01*
X40744684Y-91677271D01*
X40696972Y-91772463D01*
X40696739Y-92010558D01*
X40744265Y-92105843D01*
X40791838Y-92153508D01*
X40887029Y-92201220D01*
X41077505Y-92201406D01*
X41172790Y-92153880D01*
X41220456Y-92106308D01*
X41268168Y-92011116D01*
X41839596Y-92011675D02*
X41744404Y-91963963D01*
X41696832Y-91916297D01*
X41649306Y-91821012D01*
X41649352Y-91773393D01*
X41697065Y-91678202D01*
X41744730Y-91630629D01*
X41840015Y-91583103D01*
X42030491Y-91583289D01*
X42125682Y-91631002D01*
X42173255Y-91678667D01*
X42220781Y-91773952D01*
X42220734Y-91821571D01*
X42173022Y-91916762D01*
X42125357Y-91964335D01*
X42030072Y-92011861D01*
X41839596Y-92011675D01*
X41744311Y-92059201D01*
X41696646Y-92106773D01*
X41648934Y-92201965D01*
X41648748Y-92392441D01*
X41696274Y-92487725D01*
X41743846Y-92535391D01*
X41839038Y-92583103D01*
X42029514Y-92583289D01*
X42124798Y-92535763D01*
X42172464Y-92488191D01*
X42220176Y-92392999D01*
X42220362Y-92202523D01*
X42172836Y-92107238D01*
X42125264Y-92059573D01*
X42030072Y-92011861D01*
X43410466Y-92584638D02*
X43411117Y-91917972D01*
X43411024Y-92013210D02*
X43458689Y-91965637D01*
X43553974Y-91918111D01*
X43696831Y-91918251D01*
X43792023Y-91965963D01*
X43839549Y-92061248D01*
X43839037Y-92585057D01*
X43839549Y-92061248D02*
X43887261Y-91966056D01*
X43982545Y-91918530D01*
X44125402Y-91918670D01*
X44220594Y-91966382D01*
X44268120Y-92061666D01*
X44267608Y-92585476D01*
X44743798Y-92585941D02*
X44744450Y-91919274D01*
X44744356Y-92014512D02*
X44792022Y-91966940D01*
X44887307Y-91919414D01*
X45030164Y-91919554D01*
X45125355Y-91967266D01*
X45172881Y-92062550D01*
X45172369Y-92586359D01*
X45172881Y-92062550D02*
X45220593Y-91967359D01*
X45315878Y-91919833D01*
X45458735Y-91919972D01*
X45553926Y-91967684D01*
X45601452Y-92062969D01*
X45600941Y-92586778D01*
X23308317Y-90812618D02*
X59706517Y-90848178D01*
X23309580Y-89519760D02*
X23307744Y-91399039D01*
X59707780Y-89555320D02*
X59705944Y-91434599D01*
X59706517Y-90848178D02*
X58579441Y-91433498D01*
X59706517Y-90848178D02*
X58580587Y-90260657D01*
X23308317Y-90812618D02*
X24434247Y-91400139D01*
X23308317Y-90812618D02*
X24435393Y-90227298D01*
D12*
X43169709Y-88969066D02*
X43407804Y-88802400D01*
X43169709Y-88683352D02*
X43669709Y-88683352D01*
X43669709Y-88873828D01*
X43645900Y-88921447D01*
X43622090Y-88945257D01*
X43574471Y-88969066D01*
X43503042Y-88969066D01*
X43455423Y-88945257D01*
X43431614Y-88921447D01*
X43407804Y-88873828D01*
X43407804Y-88683352D01*
X43669709Y-89135733D02*
X43169709Y-89469066D01*
X43669709Y-89469066D02*
X43169709Y-89135733D01*
X46186849Y-88460627D02*
X46186849Y-88746341D01*
X45686849Y-88603484D02*
X46186849Y-88603484D01*
X46186849Y-88865389D02*
X45686849Y-89198722D01*
X46186849Y-89198722D02*
X45686849Y-88865389D01*
D10*
X52101819Y-24733204D02*
X51720866Y-24733204D01*
X51720866Y-23933204D01*
X52368485Y-24733204D02*
X52368485Y-23933204D01*
X52558961Y-23933204D01*
X52673247Y-23971300D01*
X52749438Y-24047490D01*
X52787533Y-24123680D01*
X52825628Y-24276061D01*
X52825628Y-24390347D01*
X52787533Y-24542728D01*
X52749438Y-24618919D01*
X52673247Y-24695109D01*
X52558961Y-24733204D01*
X52368485Y-24733204D01*
X53625628Y-24733204D02*
X53358961Y-24352252D01*
X53168485Y-24733204D02*
X53168485Y-23933204D01*
X53473247Y-23933204D01*
X53549438Y-23971300D01*
X53587533Y-24009395D01*
X53625628Y-24085585D01*
X53625628Y-24199871D01*
X53587533Y-24276061D01*
X53549438Y-24314157D01*
X53473247Y-24352252D01*
X53168485Y-24352252D01*
X24731671Y-41961583D02*
X24731671Y-42723488D01*
X24350719Y-42342536D02*
X25112623Y-42342536D01*
X25017385Y-43104440D02*
X24350719Y-43342536D01*
X25017385Y-43580631D01*
X24398338Y-44342536D02*
X24350719Y-44247298D01*
X24350719Y-44056821D01*
X24398338Y-43961583D01*
X24493576Y-43913964D01*
X24874528Y-43913964D01*
X24969766Y-43961583D01*
X25017385Y-44056821D01*
X25017385Y-44247298D01*
X24969766Y-44342536D01*
X24874528Y-44390155D01*
X24779290Y-44390155D01*
X24684052Y-43913964D01*
X24675791Y-35484583D02*
X24675791Y-36246488D01*
X24961505Y-36627440D02*
X24294839Y-36865536D01*
X24961505Y-37103631D01*
X24342458Y-37865536D02*
X24294839Y-37770298D01*
X24294839Y-37579821D01*
X24342458Y-37484583D01*
X24437696Y-37436964D01*
X24818648Y-37436964D01*
X24913886Y-37484583D01*
X24961505Y-37579821D01*
X24961505Y-37770298D01*
X24913886Y-37865536D01*
X24818648Y-37913155D01*
X24723410Y-37913155D01*
X24628172Y-37436964D01*
D11*
X23585538Y-38375175D02*
X23537919Y-38518032D01*
X23537919Y-38756127D01*
X23585538Y-38851365D01*
X23633157Y-38898984D01*
X23728395Y-38946603D01*
X23823633Y-38946603D01*
X23918871Y-38898984D01*
X23966490Y-38851365D01*
X24014109Y-38756127D01*
X24061728Y-38565651D01*
X24109347Y-38470413D01*
X24156966Y-38422794D01*
X24252204Y-38375175D01*
X24347442Y-38375175D01*
X24442680Y-38422794D01*
X24490300Y-38470413D01*
X24537919Y-38565651D01*
X24537919Y-38803746D01*
X24490300Y-38946603D01*
X23537919Y-39518032D02*
X23585538Y-39422794D01*
X23633157Y-39375175D01*
X23728395Y-39327556D01*
X24014109Y-39327556D01*
X24109347Y-39375175D01*
X24156966Y-39422794D01*
X24204585Y-39518032D01*
X24204585Y-39660889D01*
X24156966Y-39756127D01*
X24109347Y-39803746D01*
X24014109Y-39851365D01*
X23728395Y-39851365D01*
X23633157Y-39803746D01*
X23585538Y-39756127D01*
X23537919Y-39660889D01*
X23537919Y-39518032D01*
X23537919Y-40422794D02*
X23585538Y-40327556D01*
X23680776Y-40279937D01*
X24537919Y-40279937D01*
X23537919Y-41232318D02*
X24061728Y-41232318D01*
X24156966Y-41184699D01*
X24204585Y-41089460D01*
X24204585Y-40898984D01*
X24156966Y-40803746D01*
X23585538Y-41232318D02*
X23537919Y-41137080D01*
X23537919Y-40898984D01*
X23585538Y-40803746D01*
X23680776Y-40756127D01*
X23776014Y-40756127D01*
X23871252Y-40803746D01*
X23918871Y-40898984D01*
X23918871Y-41137080D01*
X23966490Y-41232318D01*
X23537919Y-41708508D02*
X24204585Y-41708508D01*
X24014109Y-41708508D02*
X24109347Y-41756127D01*
X24156966Y-41803746D01*
X24204585Y-41898984D01*
X24204585Y-41994222D01*
D10*
X24759611Y-31367243D02*
X24759611Y-32129148D01*
X24378659Y-31748196D02*
X25140563Y-31748196D01*
X25045325Y-32510100D02*
X24378659Y-32748196D01*
X25045325Y-32986291D01*
X24426278Y-33748196D02*
X24378659Y-33652958D01*
X24378659Y-33462481D01*
X24426278Y-33367243D01*
X24521516Y-33319624D01*
X24902468Y-33319624D01*
X24997706Y-33367243D01*
X25045325Y-33462481D01*
X25045325Y-33652958D01*
X24997706Y-33748196D01*
X24902468Y-33795815D01*
X24807230Y-33795815D01*
X24711992Y-33319624D01*
D11*
X16123386Y-58668931D02*
X16124304Y-58002265D01*
X17123713Y-58432214D01*
X16125092Y-57430837D02*
X16125223Y-57335599D01*
X16172973Y-57240427D01*
X16220658Y-57192873D01*
X16315962Y-57145386D01*
X16506503Y-57098029D01*
X16744598Y-57098357D01*
X16935009Y-57146239D01*
X17030181Y-57193989D01*
X17077734Y-57241673D01*
X17125222Y-57336977D01*
X17125091Y-57432215D01*
X17077341Y-57527387D01*
X17029656Y-57574941D01*
X16934352Y-57622429D01*
X16743811Y-57669785D01*
X16505716Y-57669457D01*
X16315305Y-57621576D01*
X16220133Y-57573825D01*
X16172580Y-57526141D01*
X16125092Y-57430837D01*
X17030903Y-56670180D02*
X17078587Y-56622626D01*
X17126141Y-56670311D01*
X17078456Y-56717864D01*
X17030903Y-56670180D01*
X17126141Y-56670311D01*
X16127060Y-56002267D02*
X16127192Y-55907029D01*
X16174942Y-55811857D01*
X16222626Y-55764303D01*
X16317930Y-55716815D01*
X16508472Y-55669459D01*
X16746567Y-55669787D01*
X16936977Y-55717668D01*
X17032149Y-55765419D01*
X17079703Y-55813103D01*
X17127191Y-55908407D01*
X17127059Y-56003645D01*
X17079309Y-56098817D01*
X17031625Y-56146371D01*
X16936321Y-56193858D01*
X16745779Y-56241215D01*
X16507684Y-56240887D01*
X16317274Y-56193005D01*
X16222101Y-56145255D01*
X16174548Y-56097571D01*
X16127060Y-56002267D01*
X16462034Y-54812251D02*
X17128700Y-54813170D01*
X16080754Y-55049821D02*
X16794711Y-55288901D01*
X16795564Y-54669854D01*
X16558190Y-54145716D02*
X16510440Y-54240889D01*
X16462755Y-54288442D01*
X16367452Y-54335930D01*
X16319833Y-54335864D01*
X16224660Y-54288114D01*
X16177107Y-54240430D01*
X16129619Y-54145126D01*
X16129882Y-53954650D01*
X16177632Y-53859478D01*
X16225317Y-53811924D01*
X16320620Y-53764436D01*
X16368239Y-53764502D01*
X16463412Y-53812252D01*
X16510965Y-53859937D01*
X16558453Y-53955240D01*
X16558190Y-54145716D01*
X16605678Y-54241020D01*
X16653231Y-54288705D01*
X16748404Y-54336455D01*
X16938880Y-54336717D01*
X17034183Y-54289230D01*
X17081868Y-54241676D01*
X17129618Y-54146504D01*
X17129881Y-53956028D01*
X17082393Y-53860724D01*
X17034840Y-53813040D01*
X16939667Y-53765289D01*
X16749191Y-53765027D01*
X16653888Y-53812515D01*
X16606203Y-53860068D01*
X16558453Y-53955240D01*
X17131784Y-52575077D02*
X16465118Y-52574158D01*
X16560356Y-52574289D02*
X16512802Y-52526605D01*
X16465314Y-52431301D01*
X16465511Y-52288444D01*
X16513261Y-52193272D01*
X16608565Y-52145784D01*
X17132374Y-52146506D01*
X16608565Y-52145784D02*
X16513393Y-52098034D01*
X16465905Y-52002730D01*
X16466102Y-51859873D01*
X16513852Y-51764701D01*
X16609156Y-51717213D01*
X17132965Y-51717935D01*
X17133621Y-51241745D02*
X16466955Y-51240826D01*
X16562193Y-51240957D02*
X16514639Y-51193273D01*
X16467152Y-51097969D01*
X16467348Y-50955112D01*
X16515099Y-50859940D01*
X16610402Y-50812452D01*
X17134211Y-50813174D01*
X16610402Y-50812452D02*
X16515230Y-50764702D01*
X16467742Y-50669398D01*
X16467939Y-50526541D01*
X16515689Y-50431369D01*
X16610993Y-50383881D01*
X17134802Y-50384603D01*
X18025038Y-19456945D02*
X17928518Y-89505065D01*
X23159720Y-19464020D02*
X17438618Y-19456137D01*
X23063200Y-89512140D02*
X17342098Y-89504257D01*
X17928518Y-89505065D02*
X17343650Y-88377754D01*
X17928518Y-89505065D02*
X18516490Y-88379370D01*
X18025038Y-19456945D02*
X17437066Y-20582640D01*
X18025038Y-19456945D02*
X18609906Y-20584256D01*
D12*
X35835400Y-88460627D02*
X35859209Y-88413008D01*
X35859209Y-88341580D01*
X35835400Y-88270151D01*
X35787780Y-88222532D01*
X35740161Y-88198722D01*
X35644923Y-88174913D01*
X35573495Y-88174913D01*
X35478257Y-88198722D01*
X35430638Y-88222532D01*
X35383019Y-88270151D01*
X35359209Y-88341580D01*
X35359209Y-88389199D01*
X35383019Y-88460627D01*
X35406828Y-88484437D01*
X35573495Y-88484437D01*
X35573495Y-88389199D01*
X35359209Y-88698722D02*
X35859209Y-88698722D01*
X35359209Y-88984437D01*
X35859209Y-88984437D01*
X35359209Y-89222532D02*
X35859209Y-89222532D01*
X35859209Y-89341580D01*
X35835400Y-89413008D01*
X35787780Y-89460627D01*
X35740161Y-89484437D01*
X35644923Y-89508246D01*
X35573495Y-89508246D01*
X35478257Y-89484437D01*
X35430638Y-89460627D01*
X35383019Y-89413008D01*
X35359209Y-89341580D01*
X35359209Y-89222532D01*
X38063668Y-88813200D02*
X38039859Y-88789391D01*
X38016049Y-88717962D01*
X38016049Y-88670343D01*
X38039859Y-88598915D01*
X38087478Y-88551296D01*
X38135097Y-88527486D01*
X38230335Y-88503677D01*
X38301763Y-88503677D01*
X38397001Y-88527486D01*
X38444620Y-88551296D01*
X38492240Y-88598915D01*
X38516049Y-88670343D01*
X38516049Y-88717962D01*
X38492240Y-88789391D01*
X38468430Y-88813200D01*
X38016049Y-89265581D02*
X38016049Y-89027486D01*
X38516049Y-89027486D01*
X38016049Y-89432248D02*
X38516049Y-89432248D01*
X38016049Y-89717962D02*
X38301763Y-89503677D01*
X38516049Y-89717962D02*
X38230335Y-89432248D01*
X40594149Y-88701595D02*
X41094149Y-88701595D01*
X41094149Y-89034928D02*
X41094149Y-89130166D01*
X41070340Y-89177785D01*
X41022720Y-89225404D01*
X40927482Y-89249214D01*
X40760816Y-89249214D01*
X40665578Y-89225404D01*
X40617959Y-89177785D01*
X40594149Y-89130166D01*
X40594149Y-89034928D01*
X40617959Y-88987309D01*
X40665578Y-88939690D01*
X40760816Y-88915880D01*
X40927482Y-88915880D01*
X41022720Y-88939690D01*
X41070340Y-88987309D01*
X41094149Y-89034928D01*
X48618602Y-88502240D02*
X48285269Y-88621288D01*
X48618602Y-88740336D01*
X48309079Y-89145098D02*
X48285269Y-89097479D01*
X48285269Y-89002240D01*
X48309079Y-88954621D01*
X48332888Y-88930812D01*
X48380507Y-88907002D01*
X48523364Y-88907002D01*
X48570983Y-88930812D01*
X48594793Y-88954621D01*
X48618602Y-89002240D01*
X48618602Y-89097479D01*
X48594793Y-89145098D01*
X48309079Y-89573669D02*
X48285269Y-89526050D01*
X48285269Y-89430812D01*
X48309079Y-89383193D01*
X48332888Y-89359383D01*
X48380507Y-89335574D01*
X48523364Y-89335574D01*
X48570983Y-89359383D01*
X48594793Y-89383193D01*
X48618602Y-89430812D01*
X48618602Y-89526050D01*
X48594793Y-89573669D01*
D13*
X40600380Y-19907000D02*
X40790857Y-19907000D01*
X40886095Y-19954620D01*
X40981333Y-20049858D01*
X41028952Y-20240334D01*
X41028952Y-20573667D01*
X40981333Y-20764143D01*
X40886095Y-20859381D01*
X40790857Y-20907000D01*
X40600380Y-20907000D01*
X40505142Y-20859381D01*
X40409904Y-20764143D01*
X40362285Y-20573667D01*
X40362285Y-20240334D01*
X40409904Y-20049858D01*
X40505142Y-19954620D01*
X40600380Y-19907000D01*
X41457523Y-20240334D02*
X41457523Y-20907000D01*
X41457523Y-20335572D02*
X41505142Y-20287953D01*
X41600380Y-20240334D01*
X41743238Y-20240334D01*
X41838476Y-20287953D01*
X41886095Y-20383191D01*
X41886095Y-20907000D01*
X52007853Y-20028920D02*
X52198329Y-20028920D01*
X52293567Y-20076540D01*
X52388805Y-20171778D01*
X52436424Y-20362254D01*
X52436424Y-20695587D01*
X52388805Y-20886063D01*
X52293567Y-20981301D01*
X52198329Y-21028920D01*
X52007853Y-21028920D01*
X51912615Y-20981301D01*
X51817377Y-20886063D01*
X51769758Y-20695587D01*
X51769758Y-20362254D01*
X51817377Y-20171778D01*
X51912615Y-20076540D01*
X52007853Y-20028920D01*
X52722139Y-20362254D02*
X53103091Y-20362254D01*
X52864996Y-21028920D02*
X52864996Y-20171778D01*
X52912615Y-20076540D01*
X53007853Y-20028920D01*
X53103091Y-20028920D01*
X53293567Y-20362254D02*
X53674520Y-20362254D01*
X53436424Y-21028920D02*
X53436424Y-20171778D01*
X53484043Y-20076540D01*
X53579281Y-20028920D01*
X53674520Y-20028920D01*
D10*
X24675791Y-23218923D02*
X24675791Y-23980828D01*
X24961505Y-24361780D02*
X24294839Y-24599876D01*
X24961505Y-24837971D01*
X24342458Y-25599876D02*
X24294839Y-25504638D01*
X24294839Y-25314161D01*
X24342458Y-25218923D01*
X24437696Y-25171304D01*
X24818648Y-25171304D01*
X24913886Y-25218923D01*
X24961505Y-25314161D01*
X24961505Y-25504638D01*
X24913886Y-25599876D01*
X24818648Y-25647495D01*
X24723410Y-25647495D01*
X24628172Y-25171304D01*
X56365620Y-68321126D02*
X56798953Y-68321126D01*
X56565620Y-68587793D01*
X56665620Y-68587793D01*
X56732286Y-68621126D01*
X56765620Y-68654460D01*
X56798953Y-68721126D01*
X56798953Y-68887793D01*
X56765620Y-68954460D01*
X56732286Y-68987793D01*
X56665620Y-69021126D01*
X56465620Y-69021126D01*
X56398953Y-68987793D01*
X56365620Y-68954460D01*
X57098953Y-68954460D02*
X57132286Y-68987793D01*
X57098953Y-69021126D01*
X57065620Y-68987793D01*
X57098953Y-68954460D01*
X57098953Y-69021126D01*
X57365620Y-68321126D02*
X57798953Y-68321126D01*
X57565620Y-68587793D01*
X57665620Y-68587793D01*
X57732286Y-68621126D01*
X57765620Y-68654460D01*
X57798953Y-68721126D01*
X57798953Y-68887793D01*
X57765620Y-68954460D01*
X57732286Y-68987793D01*
X57665620Y-69021126D01*
X57465620Y-69021126D01*
X57398953Y-68987793D01*
X57365620Y-68954460D01*
X58532286Y-68321126D02*
X58765620Y-69021126D01*
X58998953Y-68321126D01*
X56875746Y-65679840D02*
X56809080Y-65646506D01*
X56709080Y-65646506D01*
X56609080Y-65679840D01*
X56542413Y-65746506D01*
X56509080Y-65813173D01*
X56475746Y-65946506D01*
X56475746Y-66046506D01*
X56509080Y-66179840D01*
X56542413Y-66246506D01*
X56609080Y-66313173D01*
X56709080Y-66346506D01*
X56775746Y-66346506D01*
X56875746Y-66313173D01*
X56909080Y-66279840D01*
X56909080Y-66046506D01*
X56775746Y-66046506D01*
X57209080Y-66346506D02*
X57209080Y-65646506D01*
X57609080Y-66346506D01*
X57609080Y-65646506D01*
X57942413Y-66346506D02*
X57942413Y-65646506D01*
X58109080Y-65646506D01*
X58209080Y-65679840D01*
X58275746Y-65746506D01*
X58309080Y-65813173D01*
X58342413Y-65946506D01*
X58342413Y-66046506D01*
X58309080Y-66179840D01*
X58275746Y-66246506D01*
X58209080Y-66313173D01*
X58109080Y-66346506D01*
X57942413Y-66346506D01*
X56537646Y-63671573D02*
X56637646Y-63704906D01*
X56804313Y-63704906D01*
X56870980Y-63671573D01*
X56904313Y-63638240D01*
X56937646Y-63571573D01*
X56937646Y-63504906D01*
X56904313Y-63438240D01*
X56870980Y-63404906D01*
X56804313Y-63371573D01*
X56670980Y-63338240D01*
X56604313Y-63304906D01*
X56570980Y-63271573D01*
X56537646Y-63204906D01*
X56537646Y-63138240D01*
X56570980Y-63071573D01*
X56604313Y-63038240D01*
X56670980Y-63004906D01*
X56837646Y-63004906D01*
X56937646Y-63038240D01*
X57637646Y-63638240D02*
X57604313Y-63671573D01*
X57504313Y-63704906D01*
X57437646Y-63704906D01*
X57337646Y-63671573D01*
X57270980Y-63604906D01*
X57237646Y-63538240D01*
X57204313Y-63404906D01*
X57204313Y-63304906D01*
X57237646Y-63171573D01*
X57270980Y-63104906D01*
X57337646Y-63038240D01*
X57437646Y-63004906D01*
X57504313Y-63004906D01*
X57604313Y-63038240D01*
X57637646Y-63071573D01*
X58270980Y-63704906D02*
X57937646Y-63704906D01*
X57937646Y-63004906D01*
X56485420Y-60958853D02*
X56585420Y-60992186D01*
X56752086Y-60992186D01*
X56818753Y-60958853D01*
X56852086Y-60925520D01*
X56885420Y-60858853D01*
X56885420Y-60792186D01*
X56852086Y-60725520D01*
X56818753Y-60692186D01*
X56752086Y-60658853D01*
X56618753Y-60625520D01*
X56552086Y-60592186D01*
X56518753Y-60558853D01*
X56485420Y-60492186D01*
X56485420Y-60425520D01*
X56518753Y-60358853D01*
X56552086Y-60325520D01*
X56618753Y-60292186D01*
X56785420Y-60292186D01*
X56885420Y-60325520D01*
X57185420Y-60992186D02*
X57185420Y-60292186D01*
X57352086Y-60292186D01*
X57452086Y-60325520D01*
X57518753Y-60392186D01*
X57552086Y-60458853D01*
X57585420Y-60592186D01*
X57585420Y-60692186D01*
X57552086Y-60825520D01*
X57518753Y-60892186D01*
X57452086Y-60958853D01*
X57352086Y-60992186D01*
X57185420Y-60992186D01*
X57852086Y-60792186D02*
X58185420Y-60792186D01*
X57785420Y-60992186D02*
X58018753Y-60292186D01*
X58252086Y-60992186D01*
X57716486Y-47335960D02*
X57649820Y-47302626D01*
X57549820Y-47302626D01*
X57449820Y-47335960D01*
X57383153Y-47402626D01*
X57349820Y-47469293D01*
X57316486Y-47602626D01*
X57316486Y-47702626D01*
X57349820Y-47835960D01*
X57383153Y-47902626D01*
X57449820Y-47969293D01*
X57549820Y-48002626D01*
X57616486Y-48002626D01*
X57716486Y-47969293D01*
X57749820Y-47935960D01*
X57749820Y-47702626D01*
X57616486Y-47702626D01*
X58049820Y-48002626D02*
X58049820Y-47302626D01*
X58449820Y-48002626D01*
X58449820Y-47302626D01*
X58783153Y-48002626D02*
X58783153Y-47302626D01*
X58949820Y-47302626D01*
X59049820Y-47335960D01*
X59116486Y-47402626D01*
X59149820Y-47469293D01*
X59183153Y-47602626D01*
X59183153Y-47702626D01*
X59149820Y-47835960D01*
X59116486Y-47902626D01*
X59049820Y-47969293D01*
X58949820Y-48002626D01*
X58783153Y-48002626D01*
D11*
X24193808Y-26828691D02*
X24146189Y-26971548D01*
X24098570Y-27019167D01*
X24003332Y-27066786D01*
X23860475Y-27066786D01*
X23765237Y-27019167D01*
X23717618Y-26971548D01*
X23669999Y-26876310D01*
X23669999Y-26495358D01*
X24669999Y-26495358D01*
X24669999Y-26828691D01*
X24622380Y-26923929D01*
X24574760Y-26971548D01*
X24479522Y-27019167D01*
X24384284Y-27019167D01*
X24289046Y-26971548D01*
X24241427Y-26923929D01*
X24193808Y-26828691D01*
X24193808Y-26495358D01*
X23669999Y-27923929D02*
X24193808Y-27923929D01*
X24289046Y-27876310D01*
X24336665Y-27781072D01*
X24336665Y-27590596D01*
X24289046Y-27495358D01*
X23717618Y-27923929D02*
X23669999Y-27828691D01*
X23669999Y-27590596D01*
X23717618Y-27495358D01*
X23812856Y-27447739D01*
X23908094Y-27447739D01*
X24003332Y-27495358D01*
X24050951Y-27590596D01*
X24050951Y-27828691D01*
X24098570Y-27923929D01*
X24336665Y-28257262D02*
X24336665Y-28638215D01*
X24669999Y-28400120D02*
X23812856Y-28400120D01*
X23717618Y-28447739D01*
X23669999Y-28542977D01*
X23669999Y-28638215D01*
X24336665Y-28828691D02*
X24336665Y-29209643D01*
X24669999Y-28971548D02*
X23812856Y-28971548D01*
X23717618Y-29019167D01*
X23669999Y-29114405D01*
X23669999Y-29209643D01*
X23717618Y-29923929D02*
X23669999Y-29828691D01*
X23669999Y-29638215D01*
X23717618Y-29542977D01*
X23812856Y-29495358D01*
X24193808Y-29495358D01*
X24289046Y-29542977D01*
X24336665Y-29638215D01*
X24336665Y-29828691D01*
X24289046Y-29923929D01*
X24193808Y-29971548D01*
X24098570Y-29971548D01*
X24003332Y-29495358D01*
X23669999Y-30400120D02*
X24336665Y-30400120D01*
X24146189Y-30400120D02*
X24241427Y-30447739D01*
X24289046Y-30495358D01*
X24336665Y-30590596D01*
X24336665Y-30685834D01*
X24336665Y-30923929D02*
X23669999Y-31162024D01*
X24336665Y-31400120D02*
X23669999Y-31162024D01*
X23431903Y-31066786D01*
X23384284Y-31019167D01*
X23336665Y-30923929D01*
X46155764Y-82194660D02*
X45822431Y-81718470D01*
X45584336Y-82194660D02*
X45584336Y-81194660D01*
X45965288Y-81194660D01*
X46060526Y-81242280D01*
X46108145Y-81289899D01*
X46155764Y-81385137D01*
X46155764Y-81527994D01*
X46108145Y-81623232D01*
X46060526Y-81670851D01*
X45965288Y-81718470D01*
X45584336Y-81718470D01*
X46965288Y-82147041D02*
X46870050Y-82194660D01*
X46679574Y-82194660D01*
X46584336Y-82147041D01*
X46536717Y-82051803D01*
X46536717Y-81670851D01*
X46584336Y-81575613D01*
X46679574Y-81527994D01*
X46870050Y-81527994D01*
X46965288Y-81575613D01*
X47012907Y-81670851D01*
X47012907Y-81766089D01*
X46536717Y-81861327D01*
X47393860Y-82147041D02*
X47489098Y-82194660D01*
X47679574Y-82194660D01*
X47774812Y-82147041D01*
X47822431Y-82051803D01*
X47822431Y-82004184D01*
X47774812Y-81908946D01*
X47679574Y-81861327D01*
X47536717Y-81861327D01*
X47441479Y-81813708D01*
X47393860Y-81718470D01*
X47393860Y-81670851D01*
X47441479Y-81575613D01*
X47536717Y-81527994D01*
X47679574Y-81527994D01*
X47774812Y-81575613D01*
X48631955Y-82147041D02*
X48536717Y-82194660D01*
X48346240Y-82194660D01*
X48251002Y-82147041D01*
X48203383Y-82051803D01*
X48203383Y-81670851D01*
X48251002Y-81575613D01*
X48346240Y-81527994D01*
X48536717Y-81527994D01*
X48631955Y-81575613D01*
X48679574Y-81670851D01*
X48679574Y-81766089D01*
X48203383Y-81861327D01*
X48965288Y-81527994D02*
X49346240Y-81527994D01*
X49108145Y-81194660D02*
X49108145Y-82051803D01*
X49155764Y-82147041D01*
X49251002Y-82194660D01*
X49346240Y-82194660D01*
X34058599Y-24343289D02*
X35058599Y-24343289D01*
X35058599Y-24724241D01*
X35010980Y-24819479D01*
X34963360Y-24867099D01*
X34868122Y-24914718D01*
X34725265Y-24914718D01*
X34630027Y-24867099D01*
X34582408Y-24819479D01*
X34534789Y-24724241D01*
X34534789Y-24343289D01*
X34058599Y-25486146D02*
X34106218Y-25390908D01*
X34153837Y-25343289D01*
X34249075Y-25295670D01*
X34534789Y-25295670D01*
X34630027Y-25343289D01*
X34677646Y-25390908D01*
X34725265Y-25486146D01*
X34725265Y-25629003D01*
X34677646Y-25724241D01*
X34630027Y-25771860D01*
X34534789Y-25819480D01*
X34249075Y-25819480D01*
X34153837Y-25771860D01*
X34106218Y-25724241D01*
X34058599Y-25629003D01*
X34058599Y-25486146D01*
X34725265Y-26152813D02*
X34058599Y-26343289D01*
X34534789Y-26533765D01*
X34058599Y-26724241D01*
X34725265Y-26914718D01*
X34106218Y-27676622D02*
X34058599Y-27581384D01*
X34058599Y-27390908D01*
X34106218Y-27295670D01*
X34201456Y-27248051D01*
X34582408Y-27248051D01*
X34677646Y-27295670D01*
X34725265Y-27390908D01*
X34725265Y-27581384D01*
X34677646Y-27676622D01*
X34582408Y-27724241D01*
X34487170Y-27724241D01*
X34391932Y-27248051D01*
X34058599Y-28152813D02*
X34725265Y-28152813D01*
X34534789Y-28152813D02*
X34630027Y-28200432D01*
X34677646Y-28248051D01*
X34725265Y-28343289D01*
X34725265Y-28438527D01*
X32847371Y-66468277D02*
X32933085Y-66496848D01*
X33075942Y-66496848D01*
X33133085Y-66468277D01*
X33161657Y-66439705D01*
X33190228Y-66382562D01*
X33190228Y-66325420D01*
X33161657Y-66268277D01*
X33133085Y-66239705D01*
X33075942Y-66211134D01*
X32961657Y-66182562D01*
X32904514Y-66153991D01*
X32875942Y-66125420D01*
X32847371Y-66068277D01*
X32847371Y-66011134D01*
X32875942Y-65953991D01*
X32904514Y-65925420D01*
X32961657Y-65896848D01*
X33104514Y-65896848D01*
X33190228Y-65925420D01*
X33675942Y-66468277D02*
X33618800Y-66496848D01*
X33504514Y-66496848D01*
X33447371Y-66468277D01*
X33418800Y-66411134D01*
X33418800Y-66182562D01*
X33447371Y-66125420D01*
X33504514Y-66096848D01*
X33618800Y-66096848D01*
X33675942Y-66125420D01*
X33704514Y-66182562D01*
X33704514Y-66239705D01*
X33418800Y-66296848D01*
X33961657Y-66096848D02*
X33961657Y-66496848D01*
X33961657Y-66153991D02*
X33990228Y-66125420D01*
X34047371Y-66096848D01*
X34133085Y-66096848D01*
X34190228Y-66125420D01*
X34218800Y-66182562D01*
X34218800Y-66496848D01*
X34475942Y-66468277D02*
X34533085Y-66496848D01*
X34647371Y-66496848D01*
X34704514Y-66468277D01*
X34733085Y-66411134D01*
X34733085Y-66382562D01*
X34704514Y-66325420D01*
X34647371Y-66296848D01*
X34561657Y-66296848D01*
X34504514Y-66268277D01*
X34475942Y-66211134D01*
X34475942Y-66182562D01*
X34504514Y-66125420D01*
X34561657Y-66096848D01*
X34647371Y-66096848D01*
X34704514Y-66125420D01*
X35075942Y-66496848D02*
X35018800Y-66468277D01*
X34990228Y-66439705D01*
X34961657Y-66382562D01*
X34961657Y-66211134D01*
X34990228Y-66153991D01*
X35018800Y-66125420D01*
X35075942Y-66096848D01*
X35161657Y-66096848D01*
X35218800Y-66125420D01*
X35247371Y-66153991D01*
X35275942Y-66211134D01*
X35275942Y-66382562D01*
X35247371Y-66439705D01*
X35218800Y-66468277D01*
X35161657Y-66496848D01*
X35075942Y-66496848D01*
X35533085Y-66496848D02*
X35533085Y-66096848D01*
X35533085Y-66211134D02*
X35561657Y-66153991D01*
X35590228Y-66125420D01*
X35647371Y-66096848D01*
X35704514Y-66096848D01*
X35761657Y-66553991D02*
X36218800Y-66553991D01*
X36361657Y-66496848D02*
X36361657Y-65896848D01*
X36590228Y-65896848D01*
X36647371Y-65925420D01*
X36675942Y-65953991D01*
X36704514Y-66011134D01*
X36704514Y-66096848D01*
X36675942Y-66153991D01*
X36647371Y-66182562D01*
X36590228Y-66211134D01*
X36361657Y-66211134D01*
X37304514Y-66439705D02*
X37275942Y-66468277D01*
X37190228Y-66496848D01*
X37133085Y-66496848D01*
X37047371Y-66468277D01*
X36990228Y-66411134D01*
X36961657Y-66353991D01*
X36933085Y-66239705D01*
X36933085Y-66153991D01*
X36961657Y-66039705D01*
X36990228Y-65982562D01*
X37047371Y-65925420D01*
X37133085Y-65896848D01*
X37190228Y-65896848D01*
X37275942Y-65925420D01*
X37304514Y-65953991D01*
X37761657Y-66182562D02*
X37847371Y-66211134D01*
X37875942Y-66239705D01*
X37904514Y-66296848D01*
X37904514Y-66382562D01*
X37875942Y-66439705D01*
X37847371Y-66468277D01*
X37790228Y-66496848D01*
X37561657Y-66496848D01*
X37561657Y-65896848D01*
X37761657Y-65896848D01*
X37818800Y-65925420D01*
X37847371Y-65953991D01*
X37875942Y-66011134D01*
X37875942Y-66068277D01*
X37847371Y-66125420D01*
X37818800Y-66153991D01*
X37761657Y-66182562D01*
X37561657Y-66182562D01*
X38018800Y-66553991D02*
X38475942Y-66553991D01*
X38561657Y-66096848D02*
X38704514Y-66496848D01*
X38847371Y-66096848D01*
X39333085Y-66096848D02*
X39333085Y-66496848D01*
X39190228Y-65868277D02*
X39047371Y-66296848D01*
X39418800Y-66296848D01*
D13*
X28248909Y-65527180D02*
X28248909Y-64527180D01*
X28248909Y-65003371D02*
X28820338Y-65003371D01*
X28820338Y-65527180D02*
X28820338Y-64527180D01*
X29725099Y-64860514D02*
X29725099Y-65527180D01*
X29296528Y-64860514D02*
X29296528Y-65384323D01*
X29344147Y-65479561D01*
X29439385Y-65527180D01*
X29582242Y-65527180D01*
X29677480Y-65479561D01*
X29725099Y-65431942D01*
X30201290Y-65527180D02*
X30201290Y-64527180D01*
X30296528Y-65146228D02*
X30582242Y-65527180D01*
X30582242Y-64860514D02*
X30201290Y-65241466D01*
X31439385Y-65527180D02*
X31439385Y-65003371D01*
X31391766Y-64908133D01*
X31296528Y-64860514D01*
X31106052Y-64860514D01*
X31010814Y-64908133D01*
X31439385Y-65479561D02*
X31344147Y-65527180D01*
X31106052Y-65527180D01*
X31010814Y-65479561D01*
X30963195Y-65384323D01*
X30963195Y-65289085D01*
X31010814Y-65193847D01*
X31106052Y-65146228D01*
X31344147Y-65146228D01*
X31439385Y-65098609D01*
X31915576Y-65527180D02*
X31915576Y-64860514D01*
X31915576Y-64955752D02*
X31963195Y-64908133D01*
X32058433Y-64860514D01*
X32201290Y-64860514D01*
X32296528Y-64908133D01*
X32344147Y-65003371D01*
X32344147Y-65527180D01*
X32344147Y-65003371D02*
X32391766Y-64908133D01*
X32487004Y-64860514D01*
X32629861Y-64860514D01*
X32725099Y-64908133D01*
X32772719Y-65003371D01*
X32772719Y-65527180D01*
X33867957Y-64527180D02*
X34439385Y-64527180D01*
X34153671Y-65527180D02*
X34153671Y-64527180D01*
X35153671Y-65479561D02*
X35058433Y-65527180D01*
X34867957Y-65527180D01*
X34772719Y-65479561D01*
X34725100Y-65384323D01*
X34725100Y-65003371D01*
X34772719Y-64908133D01*
X34867957Y-64860514D01*
X35058433Y-64860514D01*
X35153671Y-64908133D01*
X35201290Y-65003371D01*
X35201290Y-65098609D01*
X34725100Y-65193847D01*
X36058433Y-65479561D02*
X35963195Y-65527180D01*
X35772719Y-65527180D01*
X35677480Y-65479561D01*
X35629861Y-65431942D01*
X35582242Y-65336704D01*
X35582242Y-65050990D01*
X35629861Y-64955752D01*
X35677480Y-64908133D01*
X35772719Y-64860514D01*
X35963195Y-64860514D01*
X36058433Y-64908133D01*
X36487004Y-65527180D02*
X36487004Y-64527180D01*
X36915576Y-65527180D02*
X36915576Y-65003371D01*
X36867957Y-64908133D01*
X36772719Y-64860514D01*
X36629861Y-64860514D01*
X36534623Y-64908133D01*
X36487004Y-64955752D01*
X37391766Y-64860514D02*
X37391766Y-65527180D01*
X37391766Y-64955752D02*
X37439385Y-64908133D01*
X37534623Y-64860514D01*
X37677480Y-64860514D01*
X37772719Y-64908133D01*
X37820338Y-65003371D01*
X37820338Y-65527180D01*
X38439385Y-65527180D02*
X38344147Y-65479561D01*
X38296528Y-65431942D01*
X38248909Y-65336704D01*
X38248909Y-65050990D01*
X38296528Y-64955752D01*
X38344147Y-64908133D01*
X38439385Y-64860514D01*
X38582242Y-64860514D01*
X38677480Y-64908133D01*
X38725100Y-64955752D01*
X38772719Y-65050990D01*
X38772719Y-65336704D01*
X38725100Y-65431942D01*
X38677480Y-65479561D01*
X38582242Y-65527180D01*
X38439385Y-65527180D01*
X39344147Y-65527180D02*
X39248909Y-65479561D01*
X39201290Y-65384323D01*
X39201290Y-64527180D01*
X39867957Y-65527180D02*
X39772719Y-65479561D01*
X39725100Y-65431942D01*
X39677480Y-65336704D01*
X39677480Y-65050990D01*
X39725100Y-64955752D01*
X39772719Y-64908133D01*
X39867957Y-64860514D01*
X40010814Y-64860514D01*
X40106052Y-64908133D01*
X40153671Y-64955752D01*
X40201290Y-65050990D01*
X40201290Y-65336704D01*
X40153671Y-65431942D01*
X40106052Y-65479561D01*
X40010814Y-65527180D01*
X39867957Y-65527180D01*
X41058433Y-64860514D02*
X41058433Y-65670038D01*
X41010814Y-65765276D01*
X40963195Y-65812895D01*
X40867957Y-65860514D01*
X40725100Y-65860514D01*
X40629861Y-65812895D01*
X41058433Y-65479561D02*
X40963195Y-65527180D01*
X40772719Y-65527180D01*
X40677480Y-65479561D01*
X40629861Y-65431942D01*
X40582242Y-65336704D01*
X40582242Y-65050990D01*
X40629861Y-64955752D01*
X40677480Y-64908133D01*
X40772719Y-64860514D01*
X40963195Y-64860514D01*
X41058433Y-64908133D01*
X41534623Y-65527180D02*
X41534623Y-64860514D01*
X41534623Y-64527180D02*
X41487004Y-64574800D01*
X41534623Y-64622419D01*
X41582242Y-64574800D01*
X41534623Y-64527180D01*
X41534623Y-64622419D01*
X42391766Y-65479561D02*
X42296528Y-65527180D01*
X42106052Y-65527180D01*
X42010814Y-65479561D01*
X41963195Y-65384323D01*
X41963195Y-65003371D01*
X42010814Y-64908133D01*
X42106052Y-64860514D01*
X42296528Y-64860514D01*
X42391766Y-64908133D01*
X42439385Y-65003371D01*
X42439385Y-65098609D01*
X41963195Y-65193847D01*
X42820338Y-65479561D02*
X42915576Y-65527180D01*
X43106052Y-65527180D01*
X43201290Y-65479561D01*
X43248909Y-65384323D01*
X43248909Y-65336704D01*
X43201290Y-65241466D01*
X43106052Y-65193847D01*
X42963195Y-65193847D01*
X42867957Y-65146228D01*
X42820338Y-65050990D01*
X42820338Y-65003371D01*
X42867957Y-64908133D01*
X42963195Y-64860514D01*
X43106052Y-64860514D01*
X43201290Y-64908133D01*
D14*
X23876000Y-87637600D02*
X26416000Y-87637600D01*
X25146000Y-88907600D02*
X25146000Y-86367600D01*
X57919600Y-22369800D02*
X57919600Y-19829800D01*
X56649600Y-21099800D02*
X59189600Y-21099800D01*
X23896300Y-21292800D02*
X26436300Y-21292800D01*
X25166300Y-22562800D02*
X25166300Y-20022800D01*
D15*
G36*
X40165400Y-38053700D02*
G01*
X40165400Y-35453700D01*
X48465400Y-35453700D01*
X48465400Y-38053700D01*
X46765400Y-38053700D01*
X46765400Y-41153700D01*
X48465400Y-41153700D01*
X48465400Y-43753700D01*
X40165400Y-43753700D01*
X40165400Y-41153700D01*
X41865400Y-41153700D01*
X41865400Y-38053700D01*
X40165400Y-38053700D01*
G37*
X40165400Y-38053700D02*
X40165400Y-35453700D01*
X48465400Y-35453700D01*
X48465400Y-38053700D01*
X46765400Y-38053700D01*
X46765400Y-41153700D01*
X48465400Y-41153700D01*
X48465400Y-43753700D01*
X40165400Y-43753700D01*
X40165400Y-41153700D01*
X41865400Y-41153700D01*
X41865400Y-38053700D01*
X40165400Y-38053700D01*
G36*
X40165400Y-38053700D02*
G01*
X40165400Y-35453700D01*
X48465400Y-35453700D01*
X48465400Y-38053700D01*
X46765400Y-38053700D01*
X46765400Y-41153700D01*
X48465400Y-41153700D01*
X48465400Y-43753700D01*
X40165400Y-43753700D01*
X40165400Y-41153700D01*
X41865400Y-41153700D01*
X41865400Y-38053700D01*
X40165400Y-38053700D01*
G37*
X40165400Y-38053700D02*
X40165400Y-35453700D01*
X48465400Y-35453700D01*
X48465400Y-38053700D01*
X46765400Y-38053700D01*
X46765400Y-41153700D01*
X48465400Y-41153700D01*
X48465400Y-43753700D01*
X40165400Y-43753700D01*
X40165400Y-41153700D01*
X41865400Y-41153700D01*
X41865400Y-38053700D01*
X40165400Y-38053700D01*
D11*
X48894691Y-67293144D02*
X48942310Y-67150287D01*
X48989929Y-67102668D01*
X49085167Y-67055049D01*
X49228024Y-67055049D01*
X49323262Y-67102668D01*
X49370881Y-67150287D01*
X49418500Y-67245525D01*
X49418500Y-67626478D01*
X48418500Y-67626478D01*
X48418500Y-67293144D01*
X48466120Y-67197906D01*
X48513739Y-67150287D01*
X48608977Y-67102668D01*
X48704215Y-67102668D01*
X48799453Y-67150287D01*
X48847072Y-67197906D01*
X48894691Y-67293144D01*
X48894691Y-67626478D01*
X49418500Y-66626478D02*
X48418500Y-66626478D01*
X49132786Y-66293144D01*
X48418500Y-65959811D01*
X49418500Y-65959811D01*
X48894691Y-65483620D02*
X48894691Y-65150287D01*
X49418500Y-65007430D02*
X49418500Y-65483620D01*
X48418500Y-65483620D01*
X48418500Y-65007430D01*
X49513739Y-64816954D02*
X49513739Y-64055049D01*
X48513739Y-63864573D02*
X48466120Y-63816954D01*
X48418500Y-63721716D01*
X48418500Y-63483620D01*
X48466120Y-63388382D01*
X48513739Y-63340763D01*
X48608977Y-63293144D01*
X48704215Y-63293144D01*
X48847072Y-63340763D01*
X49418500Y-63912192D01*
X49418500Y-63293144D01*
X48847072Y-62721716D02*
X48799453Y-62816954D01*
X48751834Y-62864573D01*
X48656596Y-62912192D01*
X48608977Y-62912192D01*
X48513739Y-62864573D01*
X48466120Y-62816954D01*
X48418500Y-62721716D01*
X48418500Y-62531240D01*
X48466120Y-62436001D01*
X48513739Y-62388382D01*
X48608977Y-62340763D01*
X48656596Y-62340763D01*
X48751834Y-62388382D01*
X48799453Y-62436001D01*
X48847072Y-62531240D01*
X48847072Y-62721716D01*
X48894691Y-62816954D01*
X48942310Y-62864573D01*
X49037548Y-62912192D01*
X49228024Y-62912192D01*
X49323262Y-62864573D01*
X49370881Y-62816954D01*
X49418500Y-62721716D01*
X49418500Y-62531240D01*
X49370881Y-62436001D01*
X49323262Y-62388382D01*
X49228024Y-62340763D01*
X49037548Y-62340763D01*
X48942310Y-62388382D01*
X48894691Y-62436001D01*
X48847072Y-62531240D01*
X48418500Y-61721716D02*
X48418500Y-61626478D01*
X48466120Y-61531240D01*
X48513739Y-61483620D01*
X48608977Y-61436001D01*
X48799453Y-61388382D01*
X49037548Y-61388382D01*
X49228024Y-61436001D01*
X49323262Y-61483620D01*
X49370881Y-61531240D01*
X49418500Y-61626478D01*
X49418500Y-61721716D01*
X49370881Y-61816954D01*
X49323262Y-61864573D01*
X49228024Y-61912192D01*
X49037548Y-61959811D01*
X48799453Y-61959811D01*
X48608977Y-61912192D01*
X48513739Y-61864573D01*
X48466120Y-61816954D01*
X48418500Y-61721716D01*
X33433742Y-40515642D02*
X33386123Y-40563261D01*
X33243266Y-40610880D01*
X33148028Y-40610880D01*
X33005171Y-40563261D01*
X32909933Y-40468023D01*
X32862314Y-40372785D01*
X32814695Y-40182309D01*
X32814695Y-40039452D01*
X32862314Y-39848976D01*
X32909933Y-39753738D01*
X33005171Y-39658500D01*
X33148028Y-39610880D01*
X33243266Y-39610880D01*
X33386123Y-39658500D01*
X33433742Y-39706119D01*
X34386123Y-40610880D02*
X33814695Y-40610880D01*
X34100409Y-40610880D02*
X34100409Y-39610880D01*
X34005171Y-39753738D01*
X33909933Y-39848976D01*
X33814695Y-39896595D01*
X35005171Y-39610880D02*
X35100409Y-39610880D01*
X35195647Y-39658500D01*
X35243266Y-39706119D01*
X35290885Y-39801357D01*
X35338504Y-39991833D01*
X35338504Y-40229928D01*
X35290885Y-40420404D01*
X35243266Y-40515642D01*
X35195647Y-40563261D01*
X35100409Y-40610880D01*
X35005171Y-40610880D01*
X34909933Y-40563261D01*
X34862314Y-40515642D01*
X34814695Y-40420404D01*
X34767076Y-40229928D01*
X34767076Y-39991833D01*
X34814695Y-39801357D01*
X34862314Y-39706119D01*
X34909933Y-39658500D01*
X35005171Y-39610880D01*
X45741384Y-84343460D02*
X45741384Y-83343460D01*
X45979480Y-83343460D01*
X46122337Y-83391080D01*
X46217575Y-83486318D01*
X46265194Y-83581556D01*
X46312813Y-83772032D01*
X46312813Y-83914889D01*
X46265194Y-84105365D01*
X46217575Y-84200603D01*
X46122337Y-84295841D01*
X45979480Y-84343460D01*
X45741384Y-84343460D01*
X46646146Y-83343460D02*
X47265194Y-83343460D01*
X46931860Y-83724413D01*
X47074718Y-83724413D01*
X47169956Y-83772032D01*
X47217575Y-83819651D01*
X47265194Y-83914889D01*
X47265194Y-84152984D01*
X47217575Y-84248222D01*
X47169956Y-84295841D01*
X47074718Y-84343460D01*
X46789003Y-84343460D01*
X46693765Y-84295841D01*
X46646146Y-84248222D01*
X40674024Y-82517200D02*
X40674024Y-81517200D01*
X40912120Y-81517200D01*
X41054977Y-81564820D01*
X41150215Y-81660058D01*
X41197834Y-81755296D01*
X41245453Y-81945772D01*
X41245453Y-82088629D01*
X41197834Y-82279105D01*
X41150215Y-82374343D01*
X41054977Y-82469581D01*
X40912120Y-82517200D01*
X40674024Y-82517200D01*
X42102596Y-81517200D02*
X41912120Y-81517200D01*
X41816881Y-81564820D01*
X41769262Y-81612439D01*
X41674024Y-81755296D01*
X41626405Y-81945772D01*
X41626405Y-82326724D01*
X41674024Y-82421962D01*
X41721643Y-82469581D01*
X41816881Y-82517200D01*
X42007358Y-82517200D01*
X42102596Y-82469581D01*
X42150215Y-82421962D01*
X42197834Y-82326724D01*
X42197834Y-82088629D01*
X42150215Y-81993391D01*
X42102596Y-81945772D01*
X42007358Y-81898153D01*
X41816881Y-81898153D01*
X41721643Y-81945772D01*
X41674024Y-81993391D01*
X41626405Y-82088629D01*
X33811261Y-45398979D02*
X33716023Y-45351360D01*
X33620785Y-45256121D01*
X33477928Y-45113264D01*
X33382690Y-45065645D01*
X33287452Y-45065645D01*
X33335071Y-45303740D02*
X33239833Y-45256121D01*
X33144595Y-45160883D01*
X33096976Y-44970407D01*
X33096976Y-44637074D01*
X33144595Y-44446598D01*
X33239833Y-44351360D01*
X33335071Y-44303740D01*
X33525547Y-44303740D01*
X33620785Y-44351360D01*
X33716023Y-44446598D01*
X33763642Y-44637074D01*
X33763642Y-44970407D01*
X33716023Y-45160883D01*
X33620785Y-45256121D01*
X33525547Y-45303740D01*
X33335071Y-45303740D01*
X34716023Y-45303740D02*
X34144595Y-45303740D01*
X34430309Y-45303740D02*
X34430309Y-44303740D01*
X34335071Y-44446598D01*
X34239833Y-44541836D01*
X34144595Y-44589455D01*
X54875133Y-83002400D02*
X54541800Y-82526210D01*
X54303704Y-83002400D02*
X54303704Y-82002400D01*
X54684657Y-82002400D01*
X54779895Y-82050020D01*
X54827514Y-82097639D01*
X54875133Y-82192877D01*
X54875133Y-82335734D01*
X54827514Y-82430972D01*
X54779895Y-82478591D01*
X54684657Y-82526210D01*
X54303704Y-82526210D01*
X55446561Y-82430972D02*
X55351323Y-82383353D01*
X55303704Y-82335734D01*
X55256085Y-82240496D01*
X55256085Y-82192877D01*
X55303704Y-82097639D01*
X55351323Y-82050020D01*
X55446561Y-82002400D01*
X55637038Y-82002400D01*
X55732276Y-82050020D01*
X55779895Y-82097639D01*
X55827514Y-82192877D01*
X55827514Y-82240496D01*
X55779895Y-82335734D01*
X55732276Y-82383353D01*
X55637038Y-82430972D01*
X55446561Y-82430972D01*
X55351323Y-82478591D01*
X55303704Y-82526210D01*
X55256085Y-82621448D01*
X55256085Y-82811924D01*
X55303704Y-82907162D01*
X55351323Y-82954781D01*
X55446561Y-83002400D01*
X55637038Y-83002400D01*
X55732276Y-82954781D01*
X55779895Y-82907162D01*
X55827514Y-82811924D01*
X55827514Y-82621448D01*
X55779895Y-82526210D01*
X55732276Y-82478591D01*
X55637038Y-82430972D01*
X33230542Y-47731980D02*
X32897209Y-47255790D01*
X32659114Y-47731980D02*
X32659114Y-46731980D01*
X33040066Y-46731980D01*
X33135304Y-46779600D01*
X33182923Y-46827219D01*
X33230542Y-46922457D01*
X33230542Y-47065314D01*
X33182923Y-47160552D01*
X33135304Y-47208171D01*
X33040066Y-47255790D01*
X32659114Y-47255790D01*
X34182923Y-47731980D02*
X33611495Y-47731980D01*
X33897209Y-47731980D02*
X33897209Y-46731980D01*
X33801971Y-46874838D01*
X33706733Y-46970076D01*
X33611495Y-47017695D01*
X34801971Y-46731980D02*
X34897209Y-46731980D01*
X34992447Y-46779600D01*
X35040066Y-46827219D01*
X35087685Y-46922457D01*
X35135304Y-47112933D01*
X35135304Y-47351028D01*
X35087685Y-47541504D01*
X35040066Y-47636742D01*
X34992447Y-47684361D01*
X34897209Y-47731980D01*
X34801971Y-47731980D01*
X34706733Y-47684361D01*
X34659114Y-47636742D01*
X34611495Y-47541504D01*
X34563876Y-47351028D01*
X34563876Y-47112933D01*
X34611495Y-46922457D01*
X34659114Y-46827219D01*
X34706733Y-46779600D01*
X34801971Y-46731980D01*
M02*
