G04 #@! TF.GenerationSoftware,KiCad,Pcbnew,5.1.7-a382d34a8~88~ubuntu18.04.1*
G04 #@! TF.CreationDate,2021-05-18T13:12:31+05:30*
G04 #@! TF.ProjectId,Sensor_pcb_v4,53656e73-6f72-45f7-9063-625f76342e6b,rev?*
G04 #@! TF.SameCoordinates,Original*
G04 #@! TF.FileFunction,Copper,L2,Bot*
G04 #@! TF.FilePolarity,Positive*
%FSLAX46Y46*%
G04 Gerber Fmt 4.6, Leading zero omitted, Abs format (unit mm)*
G04 Created by KiCad (PCBNEW 5.1.7-a382d34a8~88~ubuntu18.04.1) date 2021-05-18 13:12:31*
%MOMM*%
%LPD*%
G01*
G04 APERTURE LIST*
G04 #@! TA.AperFunction,EtchedComponent*
%ADD10C,0.010000*%
G04 #@! TD*
G04 #@! TA.AperFunction,ComponentPad*
%ADD11C,2.150000*%
G04 #@! TD*
G04 #@! TA.AperFunction,ComponentPad*
%ADD12O,1.200000X2.000000*%
G04 #@! TD*
G04 #@! TA.AperFunction,ComponentPad*
%ADD13O,1.100000X1.300000*%
G04 #@! TD*
G04 #@! TA.AperFunction,ComponentPad*
%ADD14C,1.524000*%
G04 #@! TD*
G04 #@! TA.AperFunction,SMDPad,CuDef*
%ADD15R,1.000000X1.500000*%
G04 #@! TD*
G04 #@! TA.AperFunction,SMDPad,CuDef*
%ADD16C,0.100000*%
G04 #@! TD*
G04 #@! TA.AperFunction,ComponentPad*
%ADD17R,1.700000X1.700000*%
G04 #@! TD*
G04 #@! TA.AperFunction,ComponentPad*
%ADD18O,1.700000X1.700000*%
G04 #@! TD*
G04 #@! TA.AperFunction,SMDPad,CuDef*
%ADD19R,1.000000X0.230000*%
G04 #@! TD*
G04 #@! TA.AperFunction,SMDPad,CuDef*
%ADD20R,0.230000X1.000000*%
G04 #@! TD*
G04 #@! TA.AperFunction,SMDPad,CuDef*
%ADD21R,1.300000X0.700000*%
G04 #@! TD*
G04 #@! TA.AperFunction,SMDPad,CuDef*
%ADD22R,1.000000X1.600000*%
G04 #@! TD*
G04 #@! TA.AperFunction,SMDPad,CuDef*
%ADD23R,1.000000X1.250000*%
G04 #@! TD*
G04 #@! TA.AperFunction,SMDPad,CuDef*
%ADD24R,1.250000X1.000000*%
G04 #@! TD*
G04 #@! TA.AperFunction,SMDPad,CuDef*
%ADD25R,0.700000X1.300000*%
G04 #@! TD*
G04 #@! TA.AperFunction,ComponentPad*
%ADD26C,0.100000*%
G04 #@! TD*
G04 #@! TA.AperFunction,SMDPad,CuDef*
%ADD27R,1.060000X0.650000*%
G04 #@! TD*
G04 #@! TA.AperFunction,ComponentPad*
%ADD28C,1.500000*%
G04 #@! TD*
G04 #@! TA.AperFunction,ComponentPad*
%ADD29C,2.000000*%
G04 #@! TD*
G04 #@! TA.AperFunction,ViaPad*
%ADD30C,1.000000*%
G04 #@! TD*
G04 #@! TA.AperFunction,Conductor*
%ADD31C,0.200000*%
G04 #@! TD*
G04 #@! TA.AperFunction,Conductor*
%ADD32C,0.254000*%
G04 #@! TD*
G04 #@! TA.AperFunction,Conductor*
%ADD33C,0.100000*%
G04 #@! TD*
G04 APERTURE END LIST*
D10*
G36*
X30671640Y-75174600D02*
G01*
X33071900Y-75174600D01*
X33071900Y-71774230D01*
X30671640Y-71774230D01*
X30671640Y-75174600D01*
G37*
X30671640Y-75174600D02*
X33071900Y-75174600D01*
X33071900Y-71774230D01*
X30671640Y-71774230D01*
X30671640Y-75174600D01*
D11*
X25146000Y-87637600D03*
X57919600Y-21099800D03*
X25166300Y-21292800D03*
D12*
X51677600Y-86741000D03*
X58827600Y-86741000D03*
D13*
X52827600Y-83991000D03*
X57677600Y-83991000D03*
D14*
X28273100Y-26924300D03*
X28283100Y-29464300D03*
X28288400Y-38552500D03*
X28298400Y-41092500D03*
X55107500Y-60744100D03*
X55107500Y-63284100D03*
X55107500Y-65824100D03*
X55107500Y-68364100D03*
D15*
X50529400Y-37943700D03*
X53529400Y-37943700D03*
G04 #@! TA.AperFunction,SMDPad,CuDef*
D16*
G36*
X51558949Y-37184620D02*
G01*
X51565211Y-37186266D01*
X51587513Y-37193700D01*
X52539400Y-37193700D01*
X52549155Y-37194661D01*
X52558534Y-37197506D01*
X52567179Y-37202127D01*
X52574755Y-37208345D01*
X52580973Y-37215921D01*
X52585594Y-37224566D01*
X52588439Y-37233945D01*
X52589400Y-37243700D01*
X52589400Y-39633700D01*
X53039400Y-39633700D01*
X53049155Y-39634661D01*
X53058534Y-39637506D01*
X53067179Y-39642127D01*
X53074755Y-39648345D01*
X53080973Y-39655921D01*
X53085594Y-39664566D01*
X53088439Y-39673945D01*
X53089400Y-39683531D01*
X53099400Y-42633531D01*
X53098472Y-42643288D01*
X53095659Y-42652677D01*
X53091067Y-42661337D01*
X53084875Y-42668935D01*
X53077319Y-42675179D01*
X53068691Y-42679829D01*
X53059321Y-42682706D01*
X53049400Y-42683700D01*
X52539400Y-42683700D01*
X52539400Y-42723700D01*
X51539400Y-42723700D01*
X51539400Y-42683700D01*
X50989400Y-42683700D01*
X50979645Y-42682739D01*
X50970266Y-42679894D01*
X50961621Y-42675273D01*
X50954045Y-42669055D01*
X50947827Y-42661479D01*
X50943206Y-42652834D01*
X50940361Y-42643455D01*
X50939400Y-42633700D01*
X50939400Y-39623700D01*
X50940361Y-39613945D01*
X50943206Y-39604566D01*
X50947827Y-39595921D01*
X50954045Y-39588345D01*
X50961621Y-39582127D01*
X50970266Y-39577506D01*
X50979645Y-39574661D01*
X50989400Y-39573700D01*
X51509190Y-39573700D01*
X51499400Y-37233909D01*
X51500320Y-37224151D01*
X51503126Y-37214759D01*
X51507711Y-37206096D01*
X51513897Y-37198493D01*
X51521448Y-37192243D01*
X51530073Y-37187586D01*
X51539440Y-37184702D01*
X51549191Y-37183700D01*
X51558949Y-37184620D01*
G37*
G04 #@! TD.AperFunction*
D17*
X35679400Y-86669900D03*
D18*
X38219400Y-86669900D03*
X40759400Y-86669900D03*
X43299400Y-86669900D03*
X45839400Y-86669900D03*
X48379400Y-86669900D03*
D19*
X42362100Y-57421800D03*
D20*
X41092100Y-63771800D03*
X40584100Y-63771800D03*
X40076100Y-63771800D03*
X39568100Y-63771800D03*
X39060100Y-63771800D03*
X38552100Y-63771800D03*
X38044100Y-63771800D03*
X37536100Y-63771800D03*
X37028100Y-63771800D03*
X36520100Y-63771800D03*
X36012100Y-63771800D03*
X35504100Y-63771800D03*
D19*
X34234100Y-62501800D03*
X34234100Y-61993800D03*
X34234100Y-60977800D03*
X34234100Y-60469800D03*
X34234100Y-59961800D03*
X34234100Y-59453800D03*
X34234100Y-58945800D03*
X34234100Y-58437800D03*
X34234100Y-57929800D03*
X34234100Y-57421800D03*
X34234100Y-56913800D03*
D20*
X36012100Y-55643800D03*
X36520100Y-55643800D03*
X37028100Y-55643800D03*
X37536100Y-55643800D03*
X38044100Y-55643800D03*
X38552100Y-55643800D03*
X39060100Y-55643800D03*
X39568100Y-55643800D03*
X40076100Y-55643800D03*
X40584100Y-55643800D03*
X41092100Y-55643800D03*
D19*
X42362100Y-56913800D03*
X42362100Y-57929800D03*
X42362100Y-58437800D03*
X42362100Y-58945800D03*
X42362100Y-59453800D03*
X42362100Y-59961800D03*
X42362100Y-60469800D03*
X42362100Y-60977800D03*
X42362100Y-61485800D03*
X42362100Y-61993800D03*
X42362100Y-62501800D03*
D20*
X35504100Y-55643800D03*
D19*
X34234100Y-61485800D03*
D21*
X28427700Y-63919100D03*
X28427700Y-62019100D03*
D17*
X56200000Y-79926200D03*
D18*
X56200000Y-77386200D03*
X56200000Y-74846200D03*
X56200000Y-72306200D03*
D22*
X29673700Y-34097000D03*
X26673700Y-34097000D03*
D17*
X29255700Y-87609700D03*
X55473600Y-47475100D03*
D18*
X55473600Y-50015100D03*
X55473600Y-52555100D03*
X55473600Y-55095100D03*
D23*
X47443900Y-77355700D03*
X45443900Y-77355700D03*
D24*
X42227500Y-48947600D03*
X42227500Y-46947600D03*
X42296100Y-50805800D03*
X42296100Y-52805800D03*
X30723800Y-46752000D03*
X30723800Y-48752000D03*
X30678100Y-51158900D03*
X30678100Y-53158900D03*
X38257500Y-25447500D03*
X38257500Y-23447500D03*
X40914300Y-25469600D03*
X40914300Y-23469600D03*
D25*
X46921400Y-73418700D03*
X48821400Y-73418700D03*
D21*
X33340000Y-50548600D03*
X33340000Y-48648600D03*
X28638500Y-20490100D03*
X28638500Y-22390100D03*
D25*
X52875200Y-26489700D03*
X50975200Y-26489700D03*
G04 #@! TA.AperFunction,ComponentPad*
G36*
G01*
X54234500Y-22516614D02*
X54234500Y-22516614D01*
G75*
G02*
X53005077Y-22187191I-450000J779423D01*
G01*
X53005077Y-22187191D01*
G75*
G02*
X53334500Y-20957768I779423J450000D01*
G01*
X53334500Y-20957768D01*
G75*
G02*
X54563923Y-21287191I450000J-779423D01*
G01*
X54563923Y-21287191D01*
G75*
G02*
X54234500Y-22516614I-779423J-450000D01*
G01*
G37*
G04 #@! TD.AperFunction*
G04 #@! TA.AperFunction,ComponentPad*
D26*
G36*
X57553923Y-26466023D02*
G01*
X55995077Y-27366023D01*
X55095077Y-25807177D01*
X56653923Y-24907177D01*
X57553923Y-26466023D01*
G37*
G04 #@! TD.AperFunction*
D27*
X33271300Y-32860000D03*
X33271300Y-31910000D03*
X33271300Y-30960000D03*
X35471300Y-30960000D03*
X35471300Y-32860000D03*
D28*
X46454100Y-52830100D03*
X46454100Y-47950100D03*
X26746200Y-47896800D03*
X26746200Y-52776800D03*
D29*
X44620000Y-79618800D03*
X44620000Y-75118800D03*
X51120000Y-79618800D03*
X51120000Y-75118800D03*
D22*
X42795100Y-36814800D03*
X45795100Y-36814800D03*
D23*
X32148000Y-78280300D03*
X30148000Y-78280300D03*
D21*
X34621900Y-74109600D03*
X34621900Y-75379600D03*
X34621900Y-72839600D03*
X34621900Y-71569600D03*
X29121900Y-74109600D03*
X29121900Y-75379600D03*
X29121900Y-72839600D03*
X29121900Y-71569600D03*
D25*
X36911200Y-74274700D03*
X38811200Y-74274700D03*
X38816300Y-72283300D03*
X36916300Y-72283300D03*
X36225500Y-78331100D03*
X34325500Y-78331100D03*
D30*
X40615500Y-72277100D03*
X39719300Y-57531000D03*
X38873700Y-65089900D03*
X44735400Y-25097200D03*
X41514000Y-54441200D03*
X37563700Y-61296400D03*
X40307600Y-60621900D03*
X36026400Y-81416900D03*
X35034400Y-65521100D03*
X31204700Y-66952200D03*
X29587700Y-66328400D03*
X33433800Y-66953000D03*
X29618500Y-24451200D03*
X38047200Y-59486100D03*
X36973000Y-58493100D03*
X40584100Y-71042700D03*
X37536100Y-66971600D03*
X36893300Y-60030000D03*
X32190900Y-57734300D03*
X34745500Y-54770100D03*
X31343200Y-56884400D03*
X48502400Y-37042900D03*
X43299400Y-67309900D03*
X39324800Y-54443400D03*
X36711300Y-53208700D03*
X51668400Y-35874000D03*
X32235000Y-72917800D03*
X40604800Y-77500000D03*
X39820100Y-73285000D03*
X35343200Y-51621800D03*
D31*
X40615500Y-72277100D02*
X39201400Y-70863000D01*
X39201400Y-70863000D02*
X39201400Y-67092100D01*
X39201400Y-67092100D02*
X38044100Y-65934800D01*
X38044100Y-65934800D02*
X38044100Y-63771800D01*
X46271100Y-73418700D02*
X46271100Y-73467700D01*
X46271100Y-73467700D02*
X44620000Y-75118800D01*
X46921400Y-73418700D02*
X47571700Y-73418700D01*
X51120000Y-75118800D02*
X49027900Y-75118800D01*
X49027900Y-75118800D02*
X47571700Y-73662600D01*
X47571700Y-73662600D02*
X47571700Y-73418700D01*
X46921400Y-73418700D02*
X46271100Y-73418700D01*
X44620000Y-75118800D02*
X45443900Y-75942700D01*
X45443900Y-75942700D02*
X45443900Y-77355700D01*
X40076100Y-63771800D02*
X40076100Y-61985400D01*
X40076100Y-61985400D02*
X41118700Y-60942800D01*
X41118700Y-60942800D02*
X41118700Y-56753000D01*
X41118700Y-56753000D02*
X42362700Y-55509000D01*
X42362700Y-55509000D02*
X42362700Y-54114600D01*
X42362700Y-54114600D02*
X41854300Y-53606200D01*
X41854300Y-53606200D02*
X41527800Y-53606200D01*
X41527800Y-53606200D02*
X41332600Y-53411000D01*
X41332600Y-53411000D02*
X41332600Y-52215600D01*
X41332600Y-52215600D02*
X41942000Y-51606200D01*
X41942000Y-51606200D02*
X43045400Y-51606200D01*
X43045400Y-51606200D02*
X43256900Y-51394700D01*
X43256900Y-51394700D02*
X43256900Y-48147300D01*
X46454100Y-47950100D02*
X43454100Y-47950100D01*
X43454100Y-47950100D02*
X43256900Y-48147300D01*
X42227500Y-48147300D02*
X43256900Y-48147300D01*
X42227500Y-48947600D02*
X42227500Y-48147300D01*
X39568100Y-62971500D02*
X39496500Y-62899900D01*
X39496500Y-62899900D02*
X39496500Y-60301100D01*
X39496500Y-60301100D02*
X39719300Y-60078300D01*
X39719300Y-60078300D02*
X39719300Y-57531000D01*
X39568100Y-63771800D02*
X39568100Y-62971500D01*
X46454100Y-52830100D02*
X43245700Y-52830100D01*
X43245700Y-52830100D02*
X43221400Y-52805800D01*
X42296100Y-52805800D02*
X43221400Y-52805800D01*
X39060100Y-62971500D02*
X39060100Y-60171400D01*
X39060100Y-60171400D02*
X39247900Y-59983600D01*
X39247900Y-59983600D02*
X39247900Y-58503900D01*
X39247900Y-58503900D02*
X37242400Y-56498400D01*
X37242400Y-56498400D02*
X35287200Y-56498400D01*
X35287200Y-56498400D02*
X33340000Y-54551200D01*
X33340000Y-54551200D02*
X33340000Y-51198900D01*
X39060100Y-63771800D02*
X39060100Y-62971500D01*
X26746200Y-47896800D02*
X30268800Y-47896800D01*
X30268800Y-47896800D02*
X30723800Y-48351800D01*
X33340000Y-50548600D02*
X33340000Y-49898300D01*
X30723800Y-48351800D02*
X31077400Y-47998200D01*
X31077400Y-47998200D02*
X34152900Y-47998200D01*
X34152900Y-47998200D02*
X34290400Y-48135700D01*
X34290400Y-48135700D02*
X34290400Y-49191800D01*
X34290400Y-49191800D02*
X33583900Y-49898300D01*
X33583900Y-49898300D02*
X33340000Y-49898300D01*
X30723800Y-48752000D02*
X30723800Y-48351800D01*
X33340000Y-50553700D02*
X33340000Y-50548600D01*
X33340000Y-50553700D02*
X33340000Y-51198900D01*
X38552100Y-63771800D02*
X38552100Y-64768300D01*
X38552100Y-64768300D02*
X38873700Y-65089900D01*
X30678100Y-51158900D02*
X30678100Y-51959200D01*
X26746200Y-52776800D02*
X27563800Y-51959200D01*
X27563800Y-51959200D02*
X30678100Y-51959200D01*
X33340000Y-49298900D02*
X31737800Y-49298900D01*
X31737800Y-49298900D02*
X30678100Y-50358600D01*
X33340000Y-48648600D02*
X33340000Y-49298900D01*
X30678100Y-51158900D02*
X30678100Y-50358600D01*
X40914300Y-25869700D02*
X41686800Y-25097200D01*
X41686800Y-25097200D02*
X44735400Y-25097200D01*
X40914300Y-25869700D02*
X40914300Y-26269900D01*
X40914300Y-25469600D02*
X40914300Y-25869700D01*
X35471300Y-32860000D02*
X36301600Y-32860000D01*
X36301600Y-32860000D02*
X36301600Y-30882600D01*
X36301600Y-30882600D02*
X40914300Y-26269900D01*
X32948300Y-78280300D02*
X33994500Y-77234100D01*
X33994500Y-77234100D02*
X34921600Y-77234100D01*
X34921600Y-77234100D02*
X35517000Y-76638700D01*
X35517000Y-76638700D02*
X35517000Y-76638600D01*
X35517000Y-76638600D02*
X36048200Y-76638600D01*
X36048200Y-76638600D02*
X37566700Y-75120100D01*
X37566700Y-75120100D02*
X37566700Y-71470400D01*
X37566700Y-71470400D02*
X37226000Y-71129700D01*
X37226000Y-71129700D02*
X36012100Y-71129700D01*
X28283100Y-32860000D02*
X28283100Y-34271100D01*
X28283100Y-34271100D02*
X24886600Y-37667600D01*
X24886600Y-37667600D02*
X24886600Y-62784600D01*
X24886600Y-62784600D02*
X33671600Y-71569600D01*
X28283100Y-29464300D02*
X28283100Y-32860000D01*
X28283100Y-32860000D02*
X32441000Y-32860000D01*
X33271300Y-32860000D02*
X32441000Y-32860000D01*
X32148000Y-78280300D02*
X32948300Y-78280300D01*
X36012100Y-71129700D02*
X36012100Y-63771800D01*
X35572200Y-71569600D02*
X36012100Y-71129700D01*
X34621900Y-71569600D02*
X35572200Y-71569600D01*
X34146800Y-71569600D02*
X34621900Y-71569600D01*
X34146800Y-71569600D02*
X33671600Y-71569600D01*
X34101600Y-32860000D02*
X34101600Y-31375100D01*
X34101600Y-31375100D02*
X33686500Y-30960000D01*
X33271300Y-32860000D02*
X34101600Y-32860000D01*
X33686500Y-30960000D02*
X38257500Y-26389000D01*
X38257500Y-26389000D02*
X38257500Y-26247800D01*
X38257500Y-25447500D02*
X38257500Y-26247800D01*
X33271300Y-30960000D02*
X33686500Y-30960000D01*
X29673700Y-34097000D02*
X28873400Y-34097000D01*
X28873400Y-34097000D02*
X28873400Y-34897300D01*
X28873400Y-34897300D02*
X26805800Y-36964900D01*
X26805800Y-36964900D02*
X26805800Y-39599900D01*
X26805800Y-39599900D02*
X28298400Y-41092500D01*
X37563700Y-61296400D02*
X37563700Y-61101700D01*
X37563700Y-61101700D02*
X38847600Y-59817800D01*
X38847600Y-59817800D02*
X38847600Y-58669700D01*
X38847600Y-58669700D02*
X37091700Y-56913800D01*
X37091700Y-56913800D02*
X34234100Y-56913800D01*
X50390300Y-72500100D02*
X49471700Y-73418700D01*
X51353300Y-70692700D02*
X51353300Y-71537100D01*
X51353300Y-71537100D02*
X50390300Y-72500100D01*
X56200000Y-78775900D02*
X55912300Y-78775900D01*
X55912300Y-78775900D02*
X55049700Y-77913300D01*
X55049700Y-77913300D02*
X55049700Y-77159600D01*
X55049700Y-77159600D02*
X50390300Y-72500100D01*
X56200000Y-79926200D02*
X56200000Y-78775900D01*
X43162400Y-62501800D02*
X51353300Y-70692700D01*
X51353300Y-70692700D02*
X52778900Y-70692700D01*
X52778900Y-70692700D02*
X55107500Y-68364100D01*
X48821400Y-73418700D02*
X49471700Y-73418700D01*
X42362100Y-62501800D02*
X43162400Y-62501800D01*
X37028100Y-63771800D02*
X37028100Y-61832000D01*
X37028100Y-61832000D02*
X37563700Y-61296400D01*
X55107500Y-68364100D02*
X57045500Y-66426100D01*
X57045500Y-66426100D02*
X57045500Y-32560000D01*
X57045500Y-32560000D02*
X51625500Y-27140000D01*
X51625500Y-27140000D02*
X51625500Y-26489700D01*
X50975200Y-26489700D02*
X51625500Y-26489700D01*
X41514000Y-54441200D02*
X41111700Y-54843500D01*
X41111700Y-54843500D02*
X41092100Y-54843500D01*
X41092100Y-55643800D02*
X41092100Y-54843500D01*
X40076100Y-55643800D02*
X40076100Y-56755900D01*
X40076100Y-56755900D02*
X40519600Y-57199400D01*
X40519600Y-57199400D02*
X40519600Y-60409900D01*
X40519600Y-60409900D02*
X40307600Y-60621900D01*
X38219400Y-85519600D02*
X41561800Y-82177200D01*
X41561800Y-82177200D02*
X41561800Y-56913800D01*
X38219400Y-86669900D02*
X38219400Y-85519600D01*
X42362100Y-56913800D02*
X41561800Y-56913800D01*
X52224900Y-26489700D02*
X52224900Y-26245800D01*
X52224900Y-26245800D02*
X51518500Y-25539400D01*
X51518500Y-25539400D02*
X50455500Y-25539400D01*
X50455500Y-25539400D02*
X39295600Y-36699300D01*
X39295600Y-36699300D02*
X28635200Y-36699300D01*
X28635200Y-36699300D02*
X27217000Y-38117500D01*
X27217000Y-38117500D02*
X27217000Y-38998200D01*
X27217000Y-38998200D02*
X28041300Y-39822500D01*
X28041300Y-39822500D02*
X28534900Y-39822500D01*
X28534900Y-39822500D02*
X29380000Y-40667600D01*
X29380000Y-40667600D02*
X29380000Y-42695900D01*
X29380000Y-42695900D02*
X25286900Y-46789000D01*
X25286900Y-46789000D02*
X25286900Y-53447800D01*
X25286900Y-53447800D02*
X26117000Y-54277900D01*
X26117000Y-54277900D02*
X29899600Y-54277900D01*
X29899600Y-54277900D02*
X33033300Y-57411600D01*
X33033300Y-57411600D02*
X33033300Y-59561300D01*
X33033300Y-59561300D02*
X33433800Y-59961800D01*
X52875200Y-26489700D02*
X52224900Y-26489700D01*
X55006500Y-26897600D02*
X54598600Y-26489700D01*
X54598600Y-26489700D02*
X52875200Y-26489700D01*
X34234100Y-59961800D02*
X33433800Y-59961800D01*
X56324500Y-26136600D02*
X55006500Y-26897600D01*
X36520100Y-63771800D02*
X36520100Y-64572100D01*
X36520100Y-64572100D02*
X36520100Y-67235500D01*
X36520100Y-67235500D02*
X37985400Y-68700800D01*
X37985400Y-68700800D02*
X37985400Y-79457900D01*
X37985400Y-79457900D02*
X36026400Y-81416900D01*
X35034400Y-61993800D02*
X35034400Y-65521100D01*
X34234100Y-61993800D02*
X35034400Y-61993800D01*
X34234100Y-60977800D02*
X33301300Y-60977800D01*
X33301300Y-60977800D02*
X31204700Y-63074400D01*
X31204700Y-63074400D02*
X31204700Y-66952200D01*
X34234100Y-60469800D02*
X33243000Y-60469800D01*
X33243000Y-60469800D02*
X29587700Y-64125100D01*
X29587700Y-64125100D02*
X29587700Y-66328400D01*
X42362100Y-59453800D02*
X55360600Y-59453800D01*
X55360600Y-59453800D02*
X56170000Y-60263200D01*
X56170000Y-60263200D02*
X56170000Y-62221600D01*
X56170000Y-62221600D02*
X55107500Y-63284100D01*
X42362100Y-59961800D02*
X54325200Y-59961800D01*
X54325200Y-59961800D02*
X55107500Y-60744100D01*
X33433800Y-61485800D02*
X33433800Y-66953000D01*
X34234100Y-61485800D02*
X33433800Y-61485800D01*
X28638500Y-22390100D02*
X28638500Y-23040400D01*
X28638500Y-23040400D02*
X29618500Y-24020400D01*
X29618500Y-24020400D02*
X29618500Y-24451200D01*
X38047200Y-59486100D02*
X38047200Y-58435400D01*
X38047200Y-58435400D02*
X37304600Y-57692800D01*
X37304600Y-57692800D02*
X35271400Y-57692800D01*
X35271400Y-57692800D02*
X35034400Y-57929800D01*
X34234100Y-57929800D02*
X35034400Y-57929800D01*
X34234100Y-58437800D02*
X35034400Y-58437800D01*
X36973000Y-58493100D02*
X35089700Y-58493100D01*
X35089700Y-58493100D02*
X35034400Y-58437800D01*
X40584100Y-63771800D02*
X40584100Y-71042700D01*
X28638500Y-20490100D02*
X28638500Y-21140400D01*
X28638500Y-21140400D02*
X28394600Y-21140400D01*
X28394600Y-21140400D02*
X27684500Y-21850500D01*
X27684500Y-21850500D02*
X27684500Y-26335700D01*
X27684500Y-26335700D02*
X28273100Y-26924300D01*
X28273100Y-26924300D02*
X30612900Y-29264100D01*
X30612900Y-29264100D02*
X31538900Y-29264100D01*
X30678100Y-53158900D02*
X29752800Y-53158900D01*
X30723800Y-46752000D02*
X30723800Y-45951700D01*
X29810500Y-45935700D02*
X27215800Y-45935700D01*
X27215800Y-45935700D02*
X25687200Y-47464300D01*
X25687200Y-47464300D02*
X25687200Y-53206200D01*
X25687200Y-53206200D02*
X26308600Y-53827600D01*
X26308600Y-53827600D02*
X29084100Y-53827600D01*
X29084100Y-53827600D02*
X29752800Y-53158900D01*
X30723800Y-45951700D02*
X29826500Y-45951700D01*
X29826500Y-45951700D02*
X29810500Y-45935700D01*
X28288400Y-38552500D02*
X29810500Y-40074600D01*
X29810500Y-40074600D02*
X29810500Y-45935700D01*
X30678100Y-53158900D02*
X30678100Y-53959200D01*
X40584100Y-55643800D02*
X40584100Y-51592500D01*
X40584100Y-51592500D02*
X41370800Y-50805800D01*
X33433800Y-57421800D02*
X33433800Y-56714900D01*
X33433800Y-56714900D02*
X30678100Y-53959200D01*
X41302200Y-46947600D02*
X41302200Y-50737200D01*
X41302200Y-50737200D02*
X41370800Y-50805800D01*
X30723800Y-46752000D02*
X41106600Y-46752000D01*
X41106600Y-46752000D02*
X41302200Y-46947600D01*
X41436600Y-50805800D02*
X41370800Y-50805800D01*
X42296100Y-50805800D02*
X41436600Y-50805800D01*
X33433800Y-57421800D02*
X33433800Y-58945800D01*
X34234100Y-58945800D02*
X33433800Y-58945800D01*
X34234100Y-57421800D02*
X33433800Y-57421800D01*
X37536100Y-63771800D02*
X37536100Y-66971600D01*
X54608900Y-65325500D02*
X51184600Y-61901200D01*
X51184600Y-61901200D02*
X43220800Y-61901200D01*
X55107500Y-65824100D02*
X54608900Y-65325500D01*
X54608900Y-65325500D02*
X56623900Y-63310500D01*
X56623900Y-63310500D02*
X56623900Y-49488000D01*
X56623900Y-49488000D02*
X55761300Y-48625400D01*
X55761300Y-48625400D02*
X55473600Y-48625400D01*
X55473600Y-47475100D02*
X55473600Y-48625400D01*
X51120000Y-79618800D02*
X50507300Y-79618800D01*
X50507300Y-79618800D02*
X48244200Y-77355700D01*
X52827600Y-83991000D02*
X52827600Y-81326400D01*
X52827600Y-81326400D02*
X51120000Y-79618800D01*
X47443900Y-77355700D02*
X48244200Y-77355700D01*
X35226100Y-79827500D02*
X30769900Y-79827500D01*
X30769900Y-79827500D02*
X30148000Y-79205600D01*
X36225500Y-79281400D02*
X35679400Y-79827500D01*
X35679400Y-79827500D02*
X35226100Y-79827500D01*
X35226100Y-79827500D02*
X35226100Y-85066300D01*
X35226100Y-85066300D02*
X35679400Y-85519600D01*
X42362100Y-60469800D02*
X43162400Y-60469800D01*
X42362100Y-61993800D02*
X43162400Y-61993800D01*
X43220800Y-61901200D02*
X43162400Y-61959600D01*
X43162400Y-61959600D02*
X43162400Y-61993800D01*
X43220800Y-61901200D02*
X43220800Y-60528200D01*
X43220800Y-60528200D02*
X43162400Y-60469800D01*
X42227500Y-46947600D02*
X41302200Y-46947600D01*
X38257500Y-23447500D02*
X39182800Y-23447500D01*
X40914300Y-23469600D02*
X39204900Y-23469600D01*
X39204900Y-23469600D02*
X39182800Y-23447500D01*
X38257500Y-23447500D02*
X37332200Y-23447500D01*
X31538900Y-29264100D02*
X37332200Y-23470800D01*
X37332200Y-23470800D02*
X37332200Y-23447500D01*
X31538900Y-29264100D02*
X32441000Y-30166200D01*
X32441000Y-30166200D02*
X32441000Y-31910000D01*
X35679400Y-86669900D02*
X35679400Y-85519600D01*
X30148000Y-78280300D02*
X30148000Y-79205600D01*
X29121900Y-75379600D02*
X28171600Y-75379600D01*
X29121900Y-72839600D02*
X28171600Y-72839600D01*
X28171600Y-72839600D02*
X28171600Y-75379600D01*
X30148000Y-78280300D02*
X30148000Y-77355000D01*
X30148000Y-77355000D02*
X30072200Y-77279200D01*
X30072200Y-77279200D02*
X30072200Y-75379600D01*
X29121900Y-75379600D02*
X30072200Y-75379600D01*
X58827600Y-86741000D02*
X58827600Y-85440700D01*
X57677600Y-83991000D02*
X58527900Y-83991000D01*
X58527900Y-83991000D02*
X58527900Y-85141000D01*
X58527900Y-85141000D02*
X58827600Y-85440700D01*
X33271300Y-31910000D02*
X32441000Y-31910000D01*
X47443900Y-77355700D02*
X46643600Y-77355700D01*
X44620000Y-79618800D02*
X44760200Y-79618800D01*
X44760200Y-79618800D02*
X46643600Y-77735400D01*
X46643600Y-77735400D02*
X46643600Y-77355700D01*
X36225500Y-78331100D02*
X36225500Y-79281400D01*
X35034400Y-59453800D02*
X35610500Y-60029900D01*
X35610500Y-60029900D02*
X36893300Y-60029900D01*
X36893300Y-60029900D02*
X36893300Y-60030000D01*
X34234100Y-59453800D02*
X35034400Y-59453800D01*
X28427700Y-63268800D02*
X28671600Y-63268800D01*
X28671600Y-63268800D02*
X32190800Y-59749600D01*
X32190800Y-59749600D02*
X32190800Y-57734300D01*
X32190800Y-57734300D02*
X32190900Y-57734300D01*
X28427700Y-63919100D02*
X28427700Y-63268800D01*
X28427700Y-61368800D02*
X31343200Y-58453300D01*
X31343200Y-58453300D02*
X31343200Y-56884400D01*
X34745500Y-54770100D02*
X36954700Y-54770100D01*
X36954700Y-54770100D02*
X37028100Y-54843500D01*
X28427700Y-62019100D02*
X28427700Y-61368800D01*
X37028100Y-55643800D02*
X37028100Y-54843500D01*
X52039400Y-39973700D02*
X52039400Y-50749000D01*
X52039400Y-50749000D02*
X55235200Y-53944800D01*
X55235200Y-53944800D02*
X55473600Y-53944800D01*
X55473600Y-55095100D02*
X55473600Y-53944800D01*
X46595400Y-36814800D02*
X49754300Y-39973700D01*
X49754300Y-39973700D02*
X52039400Y-39973700D01*
X45795100Y-36814800D02*
X46595400Y-36814800D01*
X48502400Y-35660300D02*
X44749900Y-35660300D01*
X44749900Y-35660300D02*
X43595400Y-36814800D01*
X53529400Y-36893400D02*
X53529400Y-36603100D01*
X53529400Y-36603100D02*
X52000000Y-35073700D01*
X52000000Y-35073700D02*
X49089000Y-35073700D01*
X49089000Y-35073700D02*
X48502400Y-35660300D01*
X48502400Y-37042900D02*
X48502400Y-35660300D01*
X53529400Y-37943700D02*
X53529400Y-36893400D01*
X42795100Y-36814800D02*
X43595400Y-36814800D01*
X43299400Y-86669900D02*
X43299400Y-67309900D01*
X38552100Y-54843500D02*
X38924700Y-54843500D01*
X38924700Y-54843500D02*
X39324800Y-54443400D01*
X38552100Y-55643800D02*
X38552100Y-54843500D01*
X36711300Y-53208700D02*
X38044100Y-54541500D01*
X38044100Y-54541500D02*
X38044100Y-55643800D01*
X50529400Y-37943700D02*
X50529400Y-36893400D01*
X51668400Y-35874000D02*
X50649000Y-36893400D01*
X50649000Y-36893400D02*
X50529400Y-36893400D01*
X32235000Y-72917800D02*
X31420400Y-72917800D01*
X31420400Y-72917800D02*
X30072200Y-71569600D01*
X33671600Y-75379600D02*
X32235000Y-73943000D01*
X32235000Y-73943000D02*
X32235000Y-72917800D01*
X34621900Y-75379600D02*
X33671600Y-75379600D01*
X25873400Y-34097000D02*
X24486300Y-35484100D01*
X24486300Y-35484100D02*
X24486300Y-66915600D01*
X24486300Y-66915600D02*
X29140300Y-71569600D01*
X26673700Y-34097000D02*
X25873400Y-34097000D01*
X29140300Y-71569600D02*
X30072200Y-71569600D01*
X29121900Y-71569600D02*
X29140300Y-71569600D01*
X38811200Y-74274700D02*
X39461500Y-74274700D01*
X39461500Y-74274700D02*
X39461500Y-76356700D01*
X39461500Y-76356700D02*
X40604800Y-77500000D01*
X39466600Y-72283300D02*
X39820100Y-72636800D01*
X39820100Y-72636800D02*
X39820100Y-73285000D01*
X38816300Y-72283300D02*
X39466600Y-72283300D01*
X34621900Y-74109600D02*
X35572200Y-74109600D01*
X36911200Y-74274700D02*
X35737300Y-74274700D01*
X35737300Y-74274700D02*
X35572200Y-74109600D01*
X34621900Y-72839600D02*
X35572200Y-72839600D01*
X36916300Y-72283300D02*
X36128500Y-72283300D01*
X36128500Y-72283300D02*
X35572200Y-72839600D01*
X29121900Y-74109600D02*
X30072200Y-74109600D01*
X34325500Y-78331100D02*
X33675200Y-78331100D01*
X33675200Y-78331100D02*
X32800400Y-79205900D01*
X32800400Y-79205900D02*
X31498200Y-79205900D01*
X31498200Y-79205900D02*
X30979100Y-78686800D01*
X30979100Y-78686800D02*
X30979100Y-75016500D01*
X30979100Y-75016500D02*
X30072200Y-74109600D01*
X35343200Y-51621800D02*
X35343200Y-53030400D01*
X35343200Y-53030400D02*
X36488700Y-54175900D01*
X36488700Y-54175900D02*
X36956300Y-54175900D01*
X36956300Y-54175900D02*
X37536100Y-54755700D01*
X37536100Y-54755700D02*
X37536100Y-55643800D01*
D32*
X59656835Y-85423291D02*
X59611074Y-85377922D01*
X59408133Y-85243579D01*
X59182882Y-85151409D01*
X59145209Y-85147538D01*
X58954600Y-85272269D01*
X58954600Y-86614000D01*
X58974600Y-86614000D01*
X58974600Y-86868000D01*
X58954600Y-86868000D01*
X58954600Y-88209731D01*
X59145209Y-88334462D01*
X59182882Y-88330591D01*
X59408133Y-88238421D01*
X59611074Y-88104078D01*
X59644606Y-88070833D01*
X59637249Y-89663728D01*
X23403209Y-89431669D01*
X23397734Y-87469180D01*
X23436000Y-87469180D01*
X23436000Y-87806020D01*
X23501714Y-88136389D01*
X23630618Y-88447589D01*
X23817756Y-88727661D01*
X24055939Y-88965844D01*
X24336011Y-89152982D01*
X24647211Y-89281886D01*
X24977580Y-89347600D01*
X25314420Y-89347600D01*
X25644789Y-89281886D01*
X25955989Y-89152982D01*
X26236061Y-88965844D01*
X26474244Y-88727661D01*
X26661382Y-88447589D01*
X26790286Y-88136389D01*
X26856000Y-87806020D01*
X26856000Y-87469180D01*
X26790286Y-87138811D01*
X26661382Y-86827611D01*
X26616006Y-86759700D01*
X27767628Y-86759700D01*
X27767628Y-88459700D01*
X27779888Y-88584182D01*
X27816198Y-88703880D01*
X27875163Y-88814194D01*
X27954515Y-88910885D01*
X28051206Y-88990237D01*
X28161520Y-89049202D01*
X28281218Y-89085512D01*
X28405700Y-89097772D01*
X30105700Y-89097772D01*
X30230182Y-89085512D01*
X30349880Y-89049202D01*
X30460194Y-88990237D01*
X30556885Y-88910885D01*
X30636237Y-88814194D01*
X30695202Y-88703880D01*
X30731512Y-88584182D01*
X30743772Y-88459700D01*
X30743772Y-87519900D01*
X34191328Y-87519900D01*
X34203588Y-87644382D01*
X34239898Y-87764080D01*
X34298863Y-87874394D01*
X34378215Y-87971085D01*
X34474906Y-88050437D01*
X34585220Y-88109402D01*
X34704918Y-88145712D01*
X34829400Y-88157972D01*
X35393650Y-88154900D01*
X35552400Y-87996150D01*
X35552400Y-86796900D01*
X34353150Y-86796900D01*
X34194400Y-86955650D01*
X34191328Y-87519900D01*
X30743772Y-87519900D01*
X30743772Y-86759700D01*
X30731512Y-86635218D01*
X30695202Y-86515520D01*
X30636237Y-86405206D01*
X30556885Y-86308515D01*
X30460194Y-86229163D01*
X30349880Y-86170198D01*
X30230182Y-86133888D01*
X30105700Y-86121628D01*
X28405700Y-86121628D01*
X28281218Y-86133888D01*
X28161520Y-86170198D01*
X28051206Y-86229163D01*
X27954515Y-86308515D01*
X27875163Y-86405206D01*
X27816198Y-86515520D01*
X27779888Y-86635218D01*
X27767628Y-86759700D01*
X26616006Y-86759700D01*
X26474244Y-86547539D01*
X26236061Y-86309356D01*
X25955989Y-86122218D01*
X25644789Y-85993314D01*
X25314420Y-85927600D01*
X24977580Y-85927600D01*
X24647211Y-85993314D01*
X24336011Y-86122218D01*
X24055939Y-86309356D01*
X23817756Y-86547539D01*
X23630618Y-86827611D01*
X23501714Y-87138811D01*
X23436000Y-87469180D01*
X23397734Y-87469180D01*
X23393133Y-85819900D01*
X34191328Y-85819900D01*
X34194400Y-86384150D01*
X34353150Y-86542900D01*
X35552400Y-86542900D01*
X35552400Y-85343650D01*
X35393650Y-85184900D01*
X34829400Y-85181828D01*
X34704918Y-85194088D01*
X34585220Y-85230398D01*
X34474906Y-85289363D01*
X34378215Y-85368715D01*
X34298863Y-85465406D01*
X34239898Y-85575720D01*
X34203588Y-85695418D01*
X34191328Y-85819900D01*
X23393133Y-85819900D01*
X23373842Y-78905300D01*
X29009928Y-78905300D01*
X29022188Y-79029782D01*
X29058498Y-79149480D01*
X29117463Y-79259794D01*
X29196815Y-79356485D01*
X29293506Y-79435837D01*
X29403820Y-79494802D01*
X29523518Y-79531112D01*
X29648000Y-79543372D01*
X29862250Y-79540300D01*
X30021000Y-79381550D01*
X30021000Y-78407300D01*
X29171750Y-78407300D01*
X29013000Y-78566050D01*
X29009928Y-78905300D01*
X23373842Y-78905300D01*
X23370355Y-77655300D01*
X29009928Y-77655300D01*
X29013000Y-77994550D01*
X29171750Y-78153300D01*
X30021000Y-78153300D01*
X30021000Y-77179050D01*
X29862250Y-77020300D01*
X29648000Y-77017228D01*
X29523518Y-77029488D01*
X29403820Y-77065798D01*
X29293506Y-77124763D01*
X29196815Y-77204115D01*
X29117463Y-77300806D01*
X29058498Y-77411120D01*
X29022188Y-77530818D01*
X29009928Y-77655300D01*
X23370355Y-77655300D01*
X23364981Y-75729600D01*
X27833828Y-75729600D01*
X27846088Y-75854082D01*
X27882398Y-75973780D01*
X27941363Y-76084094D01*
X28020715Y-76180785D01*
X28117406Y-76260137D01*
X28227720Y-76319102D01*
X28347418Y-76355412D01*
X28471900Y-76367672D01*
X28836150Y-76364600D01*
X28994900Y-76205850D01*
X28994900Y-75506600D01*
X27995650Y-75506600D01*
X27836900Y-75665350D01*
X27833828Y-75729600D01*
X23364981Y-75729600D01*
X23252694Y-35484100D01*
X23747744Y-35484100D01*
X23751300Y-35520205D01*
X23751301Y-66879485D01*
X23747744Y-66915600D01*
X23761935Y-67059685D01*
X23794130Y-67165815D01*
X23803964Y-67198233D01*
X23872214Y-67325920D01*
X23964063Y-67437838D01*
X23992108Y-67460854D01*
X27833828Y-71302575D01*
X27833828Y-71919600D01*
X27846088Y-72044082D01*
X27882398Y-72163780D01*
X27904217Y-72204600D01*
X27882398Y-72245420D01*
X27846088Y-72365118D01*
X27833828Y-72489600D01*
X27836900Y-72553850D01*
X27995650Y-72712600D01*
X28994900Y-72712600D01*
X28994900Y-72692600D01*
X29248900Y-72692600D01*
X29248900Y-72712600D01*
X29268900Y-72712600D01*
X29268900Y-72966600D01*
X29248900Y-72966600D01*
X29248900Y-72986600D01*
X28994900Y-72986600D01*
X28994900Y-72966600D01*
X27995650Y-72966600D01*
X27836900Y-73125350D01*
X27833828Y-73189600D01*
X27846088Y-73314082D01*
X27882398Y-73433780D01*
X27904217Y-73474600D01*
X27882398Y-73515420D01*
X27846088Y-73635118D01*
X27833828Y-73759600D01*
X27833828Y-74459600D01*
X27846088Y-74584082D01*
X27882398Y-74703780D01*
X27904217Y-74744600D01*
X27882398Y-74785420D01*
X27846088Y-74905118D01*
X27833828Y-75029600D01*
X27836900Y-75093850D01*
X27995650Y-75252600D01*
X28994900Y-75252600D01*
X28994900Y-75232600D01*
X29248900Y-75232600D01*
X29248900Y-75252600D01*
X29268900Y-75252600D01*
X29268900Y-75506600D01*
X29248900Y-75506600D01*
X29248900Y-76205850D01*
X29407650Y-76364600D01*
X29771900Y-76367672D01*
X29896382Y-76355412D01*
X30016080Y-76319102D01*
X30126394Y-76260137D01*
X30223085Y-76180785D01*
X30244101Y-76155177D01*
X30244100Y-78650695D01*
X30240544Y-78686800D01*
X30254735Y-78830885D01*
X30258657Y-78843814D01*
X30275000Y-78897689D01*
X30275000Y-79381550D01*
X30433750Y-79540300D01*
X30648000Y-79543372D01*
X30772482Y-79531112D01*
X30781293Y-79528439D01*
X30952946Y-79700092D01*
X30975962Y-79728138D01*
X31087880Y-79819987D01*
X31215567Y-79888237D01*
X31354115Y-79930265D01*
X31462095Y-79940900D01*
X31462104Y-79940900D01*
X31498199Y-79944455D01*
X31534294Y-79940900D01*
X32764295Y-79940900D01*
X32800400Y-79944456D01*
X32836505Y-79940900D01*
X32944485Y-79930265D01*
X33083033Y-79888237D01*
X33210720Y-79819987D01*
X33322638Y-79728138D01*
X33345658Y-79700088D01*
X33573278Y-79472468D01*
X33621006Y-79511637D01*
X33731320Y-79570602D01*
X33851018Y-79606912D01*
X33975500Y-79619172D01*
X34675500Y-79619172D01*
X34799982Y-79606912D01*
X34919680Y-79570602D01*
X35029994Y-79511637D01*
X35126685Y-79432285D01*
X35206037Y-79335594D01*
X35265002Y-79225280D01*
X35275500Y-79190673D01*
X35285998Y-79225280D01*
X35344963Y-79335594D01*
X35424315Y-79432285D01*
X35521006Y-79511637D01*
X35631320Y-79570602D01*
X35751018Y-79606912D01*
X35875500Y-79619172D01*
X35939750Y-79616100D01*
X36098500Y-79457350D01*
X36098500Y-78458100D01*
X36078500Y-78458100D01*
X36078500Y-78204100D01*
X36098500Y-78204100D01*
X36098500Y-78184100D01*
X36352500Y-78184100D01*
X36352500Y-78204100D01*
X37051750Y-78204100D01*
X37210500Y-78045350D01*
X37213572Y-77681100D01*
X37201312Y-77556618D01*
X37165002Y-77436920D01*
X37106037Y-77326606D01*
X37026685Y-77229915D01*
X36929994Y-77150563D01*
X36819680Y-77091598D01*
X36699982Y-77055288D01*
X36673560Y-77052686D01*
X37250401Y-76475846D01*
X37250401Y-79153452D01*
X37149418Y-79254435D01*
X37165002Y-79225280D01*
X37201312Y-79105582D01*
X37213572Y-78981100D01*
X37210500Y-78616850D01*
X37051750Y-78458100D01*
X36352500Y-78458100D01*
X36352500Y-79457350D01*
X36511250Y-79616100D01*
X36575500Y-79619172D01*
X36699982Y-79606912D01*
X36819680Y-79570602D01*
X36848836Y-79555018D01*
X36121954Y-80281900D01*
X35914612Y-80281900D01*
X35695333Y-80325517D01*
X35488776Y-80411076D01*
X35302880Y-80535288D01*
X35144788Y-80693380D01*
X35020576Y-80879276D01*
X34935017Y-81085833D01*
X34891400Y-81305112D01*
X34891400Y-81528688D01*
X34935017Y-81747967D01*
X35020576Y-81954524D01*
X35144788Y-82140420D01*
X35302880Y-82298512D01*
X35488776Y-82422724D01*
X35695333Y-82508283D01*
X35914612Y-82551900D01*
X36138188Y-82551900D01*
X36357467Y-82508283D01*
X36564024Y-82422724D01*
X36749920Y-82298512D01*
X36908012Y-82140420D01*
X37032224Y-81954524D01*
X37117783Y-81747967D01*
X37161400Y-81528688D01*
X37161400Y-81321346D01*
X38479593Y-80003154D01*
X38507638Y-79980138D01*
X38599487Y-79868220D01*
X38667737Y-79740533D01*
X38709765Y-79601985D01*
X38720400Y-79494005D01*
X38720400Y-79493996D01*
X38723955Y-79457901D01*
X38720400Y-79421806D01*
X38720400Y-75562772D01*
X38726501Y-75562772D01*
X38726501Y-76320585D01*
X38722944Y-76356700D01*
X38737135Y-76500785D01*
X38772810Y-76618388D01*
X38779164Y-76639333D01*
X38847414Y-76767020D01*
X38939263Y-76878938D01*
X38967308Y-76901954D01*
X39469800Y-77404446D01*
X39469800Y-77611788D01*
X39513417Y-77831067D01*
X39598976Y-78037624D01*
X39723188Y-78223520D01*
X39881280Y-78381612D01*
X40067176Y-78505824D01*
X40273733Y-78591383D01*
X40493012Y-78635000D01*
X40716588Y-78635000D01*
X40826800Y-78613078D01*
X40826800Y-81872753D01*
X37725208Y-84974346D01*
X37697163Y-84997362D01*
X37605314Y-85109280D01*
X37559983Y-85194088D01*
X37537064Y-85236967D01*
X37497928Y-85365978D01*
X37272768Y-85516425D01*
X37140913Y-85648280D01*
X37118902Y-85575720D01*
X37059937Y-85465406D01*
X36980585Y-85368715D01*
X36883894Y-85289363D01*
X36773580Y-85230398D01*
X36653882Y-85194088D01*
X36529400Y-85181828D01*
X35965150Y-85184900D01*
X35806400Y-85343650D01*
X35806400Y-86542900D01*
X35826400Y-86542900D01*
X35826400Y-86796900D01*
X35806400Y-86796900D01*
X35806400Y-87996150D01*
X35965150Y-88154900D01*
X36529400Y-88157972D01*
X36653882Y-88145712D01*
X36773580Y-88109402D01*
X36883894Y-88050437D01*
X36980585Y-87971085D01*
X37059937Y-87874394D01*
X37118902Y-87764080D01*
X37140913Y-87691520D01*
X37272768Y-87823375D01*
X37515989Y-87985890D01*
X37786242Y-88097832D01*
X38073140Y-88154900D01*
X38365660Y-88154900D01*
X38652558Y-88097832D01*
X38922811Y-87985890D01*
X39166032Y-87823375D01*
X39372875Y-87616532D01*
X39489400Y-87442140D01*
X39605925Y-87616532D01*
X39812768Y-87823375D01*
X40055989Y-87985890D01*
X40326242Y-88097832D01*
X40613140Y-88154900D01*
X40905660Y-88154900D01*
X41192558Y-88097832D01*
X41462811Y-87985890D01*
X41706032Y-87823375D01*
X41912875Y-87616532D01*
X42029400Y-87442140D01*
X42145925Y-87616532D01*
X42352768Y-87823375D01*
X42595989Y-87985890D01*
X42866242Y-88097832D01*
X43153140Y-88154900D01*
X43445660Y-88154900D01*
X43732558Y-88097832D01*
X44002811Y-87985890D01*
X44246032Y-87823375D01*
X44452875Y-87616532D01*
X44569400Y-87442140D01*
X44685925Y-87616532D01*
X44892768Y-87823375D01*
X45135989Y-87985890D01*
X45406242Y-88097832D01*
X45693140Y-88154900D01*
X45985660Y-88154900D01*
X46272558Y-88097832D01*
X46542811Y-87985890D01*
X46786032Y-87823375D01*
X46992875Y-87616532D01*
X47109400Y-87442140D01*
X47225925Y-87616532D01*
X47432768Y-87823375D01*
X47675989Y-87985890D01*
X47946242Y-88097832D01*
X48233140Y-88154900D01*
X48525660Y-88154900D01*
X48812558Y-88097832D01*
X49082811Y-87985890D01*
X49326032Y-87823375D01*
X49532875Y-87616532D01*
X49695390Y-87373311D01*
X49807332Y-87103058D01*
X49854088Y-86868000D01*
X50442600Y-86868000D01*
X50442600Y-87268000D01*
X50491107Y-87506496D01*
X50585210Y-87730946D01*
X50721293Y-87932725D01*
X50894126Y-88104078D01*
X51097067Y-88238421D01*
X51322318Y-88330591D01*
X51359991Y-88334462D01*
X51550600Y-88209731D01*
X51550600Y-86868000D01*
X51804600Y-86868000D01*
X51804600Y-88209731D01*
X51995209Y-88334462D01*
X52032882Y-88330591D01*
X52258133Y-88238421D01*
X52461074Y-88104078D01*
X52633907Y-87932725D01*
X52769990Y-87730946D01*
X52864093Y-87506496D01*
X52912600Y-87268000D01*
X52912600Y-86868000D01*
X57592600Y-86868000D01*
X57592600Y-87268000D01*
X57641107Y-87506496D01*
X57735210Y-87730946D01*
X57871293Y-87932725D01*
X58044126Y-88104078D01*
X58247067Y-88238421D01*
X58472318Y-88330591D01*
X58509991Y-88334462D01*
X58700600Y-88209731D01*
X58700600Y-86868000D01*
X57592600Y-86868000D01*
X52912600Y-86868000D01*
X51804600Y-86868000D01*
X51550600Y-86868000D01*
X50442600Y-86868000D01*
X49854088Y-86868000D01*
X49864400Y-86816160D01*
X49864400Y-86523640D01*
X49807332Y-86236742D01*
X49797912Y-86214000D01*
X50442600Y-86214000D01*
X50442600Y-86614000D01*
X51550600Y-86614000D01*
X51550600Y-85272269D01*
X51804600Y-85272269D01*
X51804600Y-86614000D01*
X52912600Y-86614000D01*
X52912600Y-86214000D01*
X57592600Y-86214000D01*
X57592600Y-86614000D01*
X58700600Y-86614000D01*
X58700600Y-85272269D01*
X58509991Y-85147538D01*
X58472318Y-85151409D01*
X58247067Y-85243579D01*
X58044126Y-85377922D01*
X57871293Y-85549275D01*
X57735210Y-85751054D01*
X57641107Y-85975504D01*
X57592600Y-86214000D01*
X52912600Y-86214000D01*
X52864093Y-85975504D01*
X52769990Y-85751054D01*
X52633907Y-85549275D01*
X52461074Y-85377922D01*
X52258133Y-85243579D01*
X52032882Y-85151409D01*
X51995209Y-85147538D01*
X51804600Y-85272269D01*
X51550600Y-85272269D01*
X51359991Y-85147538D01*
X51322318Y-85151409D01*
X51097067Y-85243579D01*
X50894126Y-85377922D01*
X50721293Y-85549275D01*
X50585210Y-85751054D01*
X50491107Y-85975504D01*
X50442600Y-86214000D01*
X49797912Y-86214000D01*
X49695390Y-85966489D01*
X49532875Y-85723268D01*
X49326032Y-85516425D01*
X49082811Y-85353910D01*
X48812558Y-85241968D01*
X48525660Y-85184900D01*
X48233140Y-85184900D01*
X47946242Y-85241968D01*
X47675989Y-85353910D01*
X47432768Y-85516425D01*
X47225925Y-85723268D01*
X47109400Y-85897660D01*
X46992875Y-85723268D01*
X46786032Y-85516425D01*
X46542811Y-85353910D01*
X46272558Y-85241968D01*
X45985660Y-85184900D01*
X45693140Y-85184900D01*
X45406242Y-85241968D01*
X45135989Y-85353910D01*
X44892768Y-85516425D01*
X44685925Y-85723268D01*
X44569400Y-85897660D01*
X44452875Y-85723268D01*
X44246032Y-85516425D01*
X44034400Y-85375017D01*
X44034400Y-84302816D01*
X51662841Y-84302816D01*
X51726545Y-84525979D01*
X51832562Y-84732426D01*
X51976817Y-84914223D01*
X52153767Y-85064385D01*
X52356613Y-85177140D01*
X52517856Y-85234803D01*
X52700600Y-85109361D01*
X52700600Y-84118000D01*
X52954600Y-84118000D01*
X52954600Y-85109361D01*
X53137344Y-85234803D01*
X53298587Y-85177140D01*
X53501433Y-85064385D01*
X53678383Y-84914223D01*
X53822638Y-84732426D01*
X53928655Y-84525979D01*
X53992359Y-84302816D01*
X56512841Y-84302816D01*
X56576545Y-84525979D01*
X56682562Y-84732426D01*
X56826817Y-84914223D01*
X57003767Y-85064385D01*
X57206613Y-85177140D01*
X57367856Y-85234803D01*
X57550600Y-85109361D01*
X57550600Y-84118000D01*
X57804600Y-84118000D01*
X57804600Y-85109361D01*
X57987344Y-85234803D01*
X58148587Y-85177140D01*
X58351433Y-85064385D01*
X58528383Y-84914223D01*
X58672638Y-84732426D01*
X58778655Y-84525979D01*
X58842359Y-84302816D01*
X58702404Y-84118000D01*
X57804600Y-84118000D01*
X57550600Y-84118000D01*
X56652796Y-84118000D01*
X56512841Y-84302816D01*
X53992359Y-84302816D01*
X53852404Y-84118000D01*
X52954600Y-84118000D01*
X52700600Y-84118000D01*
X51802796Y-84118000D01*
X51662841Y-84302816D01*
X44034400Y-84302816D01*
X44034400Y-83679184D01*
X51662841Y-83679184D01*
X51802796Y-83864000D01*
X52700600Y-83864000D01*
X52700600Y-82872639D01*
X52954600Y-82872639D01*
X52954600Y-83864000D01*
X53852404Y-83864000D01*
X53992359Y-83679184D01*
X56512841Y-83679184D01*
X56652796Y-83864000D01*
X57550600Y-83864000D01*
X57550600Y-82872639D01*
X57804600Y-82872639D01*
X57804600Y-83864000D01*
X58702404Y-83864000D01*
X58842359Y-83679184D01*
X58778655Y-83456021D01*
X58672638Y-83249574D01*
X58528383Y-83067777D01*
X58351433Y-82917615D01*
X58148587Y-82804860D01*
X57987344Y-82747197D01*
X57804600Y-82872639D01*
X57550600Y-82872639D01*
X57367856Y-82747197D01*
X57206613Y-82804860D01*
X57003767Y-82917615D01*
X56826817Y-83067777D01*
X56682562Y-83249574D01*
X56576545Y-83456021D01*
X56512841Y-83679184D01*
X53992359Y-83679184D01*
X53928655Y-83456021D01*
X53822638Y-83249574D01*
X53678383Y-83067777D01*
X53501433Y-82917615D01*
X53298587Y-82804860D01*
X53137344Y-82747197D01*
X52954600Y-82872639D01*
X52700600Y-82872639D01*
X52517856Y-82747197D01*
X52356613Y-82804860D01*
X52153767Y-82917615D01*
X51976817Y-83067777D01*
X51832562Y-83249574D01*
X51726545Y-83456021D01*
X51662841Y-83679184D01*
X44034400Y-83679184D01*
X44034400Y-81152124D01*
X44049571Y-81159504D01*
X44361108Y-81241184D01*
X44682595Y-81260518D01*
X45001675Y-81216761D01*
X45306088Y-81111595D01*
X45480044Y-81018614D01*
X45575808Y-80754213D01*
X50164192Y-80754213D01*
X50259956Y-81018614D01*
X50549571Y-81159504D01*
X50861108Y-81241184D01*
X51182595Y-81260518D01*
X51501675Y-81216761D01*
X51806088Y-81111595D01*
X51980044Y-81018614D01*
X52075808Y-80754213D01*
X51120000Y-79798405D01*
X50164192Y-80754213D01*
X45575808Y-80754213D01*
X44620000Y-79798405D01*
X44605858Y-79812548D01*
X44426253Y-79632943D01*
X44440395Y-79618800D01*
X44426253Y-79604658D01*
X44605858Y-79425053D01*
X44620000Y-79439195D01*
X44634143Y-79425053D01*
X44813748Y-79604658D01*
X44799605Y-79618800D01*
X45755413Y-80574608D01*
X46019814Y-80478844D01*
X46160704Y-80189229D01*
X46242384Y-79877692D01*
X46254189Y-79681395D01*
X49478282Y-79681395D01*
X49522039Y-80000475D01*
X49627205Y-80304888D01*
X49720186Y-80478844D01*
X49984587Y-80574608D01*
X50940395Y-79618800D01*
X51299605Y-79618800D01*
X52255413Y-80574608D01*
X52519814Y-80478844D01*
X52660704Y-80189229D01*
X52742384Y-79877692D01*
X52761718Y-79556205D01*
X52717961Y-79237125D01*
X52612795Y-78932712D01*
X52519814Y-78758756D01*
X52255413Y-78662992D01*
X51299605Y-79618800D01*
X50940395Y-79618800D01*
X49984587Y-78662992D01*
X49720186Y-78758756D01*
X49579296Y-79048371D01*
X49497616Y-79359908D01*
X49478282Y-79681395D01*
X46254189Y-79681395D01*
X46261718Y-79556205D01*
X46217961Y-79237125D01*
X46112795Y-78932712D01*
X46019814Y-78758756D01*
X45755415Y-78662993D01*
X45799636Y-78618772D01*
X45943900Y-78618772D01*
X46068382Y-78606512D01*
X46188080Y-78570202D01*
X46298394Y-78511237D01*
X46395085Y-78431885D01*
X46443900Y-78372404D01*
X46492715Y-78431885D01*
X46589406Y-78511237D01*
X46699720Y-78570202D01*
X46819418Y-78606512D01*
X46943900Y-78618772D01*
X47158150Y-78615700D01*
X47316900Y-78456950D01*
X47316900Y-77482700D01*
X47570900Y-77482700D01*
X47570900Y-78456950D01*
X47729650Y-78615700D01*
X47943900Y-78618772D01*
X48068382Y-78606512D01*
X48188080Y-78570202D01*
X48298394Y-78511237D01*
X48332329Y-78483387D01*
X50164192Y-78483387D01*
X51120000Y-79439195D01*
X52075808Y-78483387D01*
X51980044Y-78218986D01*
X51690429Y-78078096D01*
X51378892Y-77996416D01*
X51057405Y-77977082D01*
X50738325Y-78020839D01*
X50433912Y-78126005D01*
X50259956Y-78218986D01*
X50164192Y-78483387D01*
X48332329Y-78483387D01*
X48395085Y-78431885D01*
X48474437Y-78335194D01*
X48533402Y-78224880D01*
X48569712Y-78105182D01*
X48581972Y-77980700D01*
X48578900Y-77641450D01*
X48420150Y-77482700D01*
X47570900Y-77482700D01*
X47316900Y-77482700D01*
X47296900Y-77482700D01*
X47296900Y-77228700D01*
X47316900Y-77228700D01*
X47316900Y-76254450D01*
X47570900Y-76254450D01*
X47570900Y-77228700D01*
X48420150Y-77228700D01*
X48578900Y-77069950D01*
X48581972Y-76730700D01*
X48569712Y-76606218D01*
X48533402Y-76486520D01*
X48474437Y-76376206D01*
X48395085Y-76279515D01*
X48298394Y-76200163D01*
X48188080Y-76141198D01*
X48068382Y-76104888D01*
X47943900Y-76092628D01*
X47729650Y-76095700D01*
X47570900Y-76254450D01*
X47316900Y-76254450D01*
X47158150Y-76095700D01*
X46943900Y-76092628D01*
X46819418Y-76104888D01*
X46699720Y-76141198D01*
X46589406Y-76200163D01*
X46492715Y-76279515D01*
X46443900Y-76338996D01*
X46395085Y-76279515D01*
X46298394Y-76200163D01*
X46188080Y-76141198D01*
X46178900Y-76138413D01*
X46178900Y-75978805D01*
X46182456Y-75942700D01*
X46168265Y-75798615D01*
X46142840Y-75714800D01*
X46192168Y-75595712D01*
X46255000Y-75279833D01*
X46255000Y-74957767D01*
X46192168Y-74641888D01*
X46175822Y-74602425D01*
X46196092Y-74582155D01*
X46216906Y-74599237D01*
X46327220Y-74658202D01*
X46446918Y-74694512D01*
X46571400Y-74706772D01*
X47271400Y-74706772D01*
X47395882Y-74694512D01*
X47515580Y-74658202D01*
X47523580Y-74653926D01*
X48482646Y-75612993D01*
X48505662Y-75641038D01*
X48617580Y-75732887D01*
X48745267Y-75801137D01*
X48883815Y-75843165D01*
X49027900Y-75857356D01*
X49064005Y-75853800D01*
X49654736Y-75853800D01*
X49671082Y-75893263D01*
X49850013Y-76161052D01*
X50077748Y-76388787D01*
X50345537Y-76567718D01*
X50643088Y-76690968D01*
X50958967Y-76753800D01*
X51281033Y-76753800D01*
X51596912Y-76690968D01*
X51894463Y-76567718D01*
X52162252Y-76388787D01*
X52389987Y-76161052D01*
X52568918Y-75893263D01*
X52620186Y-75769492D01*
X54314700Y-77464043D01*
X54314700Y-77877195D01*
X54311144Y-77913300D01*
X54323711Y-78040900D01*
X54325335Y-78057384D01*
X54367363Y-78195932D01*
X54435613Y-78323619D01*
X54527462Y-78435537D01*
X54555508Y-78458554D01*
X54819183Y-78722230D01*
X54760498Y-78832020D01*
X54724188Y-78951718D01*
X54711928Y-79076200D01*
X54711928Y-80776200D01*
X54724188Y-80900682D01*
X54760498Y-81020380D01*
X54819463Y-81130694D01*
X54898815Y-81227385D01*
X54995506Y-81306737D01*
X55105820Y-81365702D01*
X55225518Y-81402012D01*
X55350000Y-81414272D01*
X57050000Y-81414272D01*
X57174482Y-81402012D01*
X57294180Y-81365702D01*
X57404494Y-81306737D01*
X57501185Y-81227385D01*
X57580537Y-81130694D01*
X57639502Y-81020380D01*
X57675812Y-80900682D01*
X57688072Y-80776200D01*
X57688072Y-79076200D01*
X57675812Y-78951718D01*
X57639502Y-78832020D01*
X57580537Y-78721706D01*
X57501185Y-78625015D01*
X57404494Y-78545663D01*
X57294180Y-78486698D01*
X57213534Y-78462234D01*
X57297588Y-78386469D01*
X57471641Y-78153120D01*
X57596825Y-77890299D01*
X57641476Y-77743090D01*
X57520155Y-77513200D01*
X56327000Y-77513200D01*
X56327000Y-77533200D01*
X56073000Y-77533200D01*
X56073000Y-77513200D01*
X56053000Y-77513200D01*
X56053000Y-77259200D01*
X56073000Y-77259200D01*
X56073000Y-77239200D01*
X56327000Y-77239200D01*
X56327000Y-77259200D01*
X57520155Y-77259200D01*
X57641476Y-77029310D01*
X57596825Y-76882101D01*
X57471641Y-76619280D01*
X57297588Y-76385931D01*
X57081355Y-76191022D01*
X56964466Y-76121395D01*
X57146632Y-75999675D01*
X57353475Y-75792832D01*
X57515990Y-75549611D01*
X57627932Y-75279358D01*
X57685000Y-74992460D01*
X57685000Y-74699940D01*
X57627932Y-74413042D01*
X57515990Y-74142789D01*
X57353475Y-73899568D01*
X57146632Y-73692725D01*
X56972240Y-73576200D01*
X57146632Y-73459675D01*
X57353475Y-73252832D01*
X57515990Y-73009611D01*
X57627932Y-72739358D01*
X57685000Y-72452460D01*
X57685000Y-72159940D01*
X57627932Y-71873042D01*
X57515990Y-71602789D01*
X57353475Y-71359568D01*
X57146632Y-71152725D01*
X56903411Y-70990210D01*
X56633158Y-70878268D01*
X56346260Y-70821200D01*
X56053740Y-70821200D01*
X55766842Y-70878268D01*
X55496589Y-70990210D01*
X55253368Y-71152725D01*
X55046525Y-71359568D01*
X54884010Y-71602789D01*
X54772068Y-71873042D01*
X54715000Y-72159940D01*
X54715000Y-72452460D01*
X54772068Y-72739358D01*
X54884010Y-73009611D01*
X55046525Y-73252832D01*
X55253368Y-73459675D01*
X55427760Y-73576200D01*
X55253368Y-73692725D01*
X55046525Y-73899568D01*
X54884010Y-74142789D01*
X54772068Y-74413042D01*
X54715000Y-74699940D01*
X54715000Y-74992460D01*
X54772068Y-75279358D01*
X54884010Y-75549611D01*
X55046525Y-75792832D01*
X55253368Y-75999675D01*
X55435534Y-76121395D01*
X55318645Y-76191022D01*
X55214474Y-76284920D01*
X51429741Y-72500106D01*
X51847493Y-72082354D01*
X51875538Y-72059338D01*
X51967387Y-71947420D01*
X51968128Y-71946033D01*
X52035637Y-71819734D01*
X52077665Y-71681185D01*
X52091856Y-71537100D01*
X52088300Y-71500995D01*
X52088300Y-71427700D01*
X52742795Y-71427700D01*
X52778900Y-71431256D01*
X52815005Y-71427700D01*
X52922985Y-71417065D01*
X53061533Y-71375037D01*
X53189220Y-71306787D01*
X53301138Y-71214938D01*
X53324159Y-71186888D01*
X54786441Y-69724606D01*
X54969908Y-69761100D01*
X55245092Y-69761100D01*
X55514990Y-69707414D01*
X55769227Y-69602105D01*
X55998035Y-69449220D01*
X56192620Y-69254635D01*
X56345505Y-69025827D01*
X56450814Y-68771590D01*
X56504500Y-68501692D01*
X56504500Y-68226508D01*
X56468006Y-68043040D01*
X57539697Y-66971350D01*
X57567737Y-66948338D01*
X57590750Y-66920297D01*
X57590753Y-66920294D01*
X57647918Y-66850638D01*
X57659587Y-66836420D01*
X57727837Y-66708733D01*
X57769865Y-66570185D01*
X57780500Y-66462205D01*
X57780500Y-66462204D01*
X57784056Y-66426100D01*
X57780500Y-66389995D01*
X57780500Y-32596105D01*
X57784056Y-32560000D01*
X57769865Y-32415915D01*
X57727837Y-32277366D01*
X57659587Y-32149680D01*
X57590753Y-32065806D01*
X57567738Y-32037762D01*
X57539693Y-32014746D01*
X53295768Y-27770822D01*
X53349682Y-27765512D01*
X53469380Y-27729202D01*
X53579694Y-27670237D01*
X53676385Y-27590885D01*
X53755737Y-27494194D01*
X53814702Y-27383880D01*
X53851012Y-27264182D01*
X53854901Y-27224700D01*
X54294154Y-27224700D01*
X54444170Y-27374716D01*
X54451239Y-27384580D01*
X54495290Y-27425836D01*
X54512307Y-27442853D01*
X54521626Y-27450501D01*
X54556913Y-27483549D01*
X54577470Y-27496331D01*
X54596181Y-27511687D01*
X54638819Y-27534478D01*
X54679865Y-27560000D01*
X54702513Y-27568523D01*
X54723866Y-27579937D01*
X54770134Y-27593972D01*
X54815369Y-27610996D01*
X54839250Y-27614938D01*
X54862415Y-27621965D01*
X54910525Y-27626703D01*
X54958218Y-27634576D01*
X54982409Y-27633783D01*
X55006500Y-27636156D01*
X55054616Y-27631417D01*
X55102922Y-27629834D01*
X55126489Y-27624338D01*
X55150585Y-27621965D01*
X55196858Y-27607928D01*
X55243922Y-27596953D01*
X55265964Y-27586965D01*
X55289133Y-27579937D01*
X55331774Y-27557145D01*
X55342751Y-27552171D01*
X55360013Y-27542204D01*
X55442490Y-27685059D01*
X55515349Y-27786733D01*
X55606643Y-27872240D01*
X55712865Y-27938292D01*
X55829932Y-27982353D01*
X55953345Y-28002729D01*
X56078362Y-27998636D01*
X56200178Y-27970233D01*
X56314113Y-27918610D01*
X57872959Y-27018610D01*
X57974633Y-26945751D01*
X58060140Y-26854457D01*
X58126192Y-26748235D01*
X58170253Y-26631168D01*
X58190629Y-26507755D01*
X58186536Y-26382738D01*
X58158133Y-26260922D01*
X58106510Y-26146987D01*
X57206510Y-24588141D01*
X57133651Y-24486467D01*
X57042357Y-24400960D01*
X56936135Y-24334908D01*
X56819068Y-24290847D01*
X56695655Y-24270471D01*
X56570638Y-24274564D01*
X56448822Y-24302967D01*
X56334887Y-24354590D01*
X54776041Y-25254590D01*
X54674367Y-25327449D01*
X54588860Y-25418743D01*
X54522808Y-25524965D01*
X54478747Y-25642032D01*
X54460145Y-25754700D01*
X53854901Y-25754700D01*
X53851012Y-25715218D01*
X53814702Y-25595520D01*
X53755737Y-25485206D01*
X53676385Y-25388515D01*
X53579694Y-25309163D01*
X53469380Y-25250198D01*
X53349682Y-25213888D01*
X53225200Y-25201628D01*
X52525200Y-25201628D01*
X52400718Y-25213888D01*
X52281020Y-25250198D01*
X52273020Y-25254474D01*
X52063758Y-25045212D01*
X52040738Y-25017162D01*
X51928820Y-24925313D01*
X51801133Y-24857063D01*
X51662585Y-24815035D01*
X51554605Y-24804400D01*
X51518500Y-24800844D01*
X51482395Y-24804400D01*
X50491605Y-24804400D01*
X50455500Y-24800844D01*
X50419395Y-24804400D01*
X50311415Y-24815035D01*
X50172867Y-24857063D01*
X50045180Y-24925313D01*
X49933262Y-25017162D01*
X49910246Y-25045207D01*
X38991154Y-35964300D01*
X28845847Y-35964300D01*
X29275075Y-35535072D01*
X30173700Y-35535072D01*
X30298182Y-35522812D01*
X30417880Y-35486502D01*
X30528194Y-35427537D01*
X30624885Y-35348185D01*
X30704237Y-35251494D01*
X30763202Y-35141180D01*
X30799512Y-35021482D01*
X30811772Y-34897000D01*
X30811772Y-33595000D01*
X32256315Y-33595000D01*
X32290115Y-33636185D01*
X32386806Y-33715537D01*
X32497120Y-33774502D01*
X32616818Y-33810812D01*
X32741300Y-33823072D01*
X33801300Y-33823072D01*
X33925782Y-33810812D01*
X34045480Y-33774502D01*
X34155794Y-33715537D01*
X34252485Y-33636185D01*
X34311363Y-33564442D01*
X34384233Y-33542337D01*
X34406050Y-33530676D01*
X34410763Y-33539494D01*
X34490115Y-33636185D01*
X34586806Y-33715537D01*
X34697120Y-33774502D01*
X34816818Y-33810812D01*
X34941300Y-33823072D01*
X36001300Y-33823072D01*
X36125782Y-33810812D01*
X36245480Y-33774502D01*
X36355794Y-33715537D01*
X36452485Y-33636185D01*
X36511363Y-33564442D01*
X36584233Y-33542337D01*
X36711920Y-33474087D01*
X36823838Y-33382238D01*
X36915687Y-33270320D01*
X36983937Y-33142633D01*
X37025965Y-33004085D01*
X37040156Y-32860000D01*
X37036600Y-32823895D01*
X37036600Y-31187046D01*
X41408493Y-26815154D01*
X41436538Y-26792138D01*
X41528387Y-26680220D01*
X41568713Y-26604775D01*
X41663782Y-26595412D01*
X41783480Y-26559102D01*
X41893794Y-26500137D01*
X41990485Y-26420785D01*
X42069837Y-26324094D01*
X42128802Y-26213780D01*
X42165112Y-26094082D01*
X42177372Y-25969600D01*
X42177372Y-25832200D01*
X43865268Y-25832200D01*
X44011880Y-25978812D01*
X44197776Y-26103024D01*
X44404333Y-26188583D01*
X44623612Y-26232200D01*
X44847188Y-26232200D01*
X45066467Y-26188583D01*
X45273024Y-26103024D01*
X45458920Y-25978812D01*
X45617012Y-25820720D01*
X45741224Y-25634824D01*
X45826783Y-25428267D01*
X45870400Y-25208988D01*
X45870400Y-24985412D01*
X45826783Y-24766133D01*
X45741224Y-24559576D01*
X45617012Y-24373680D01*
X45458920Y-24215588D01*
X45273024Y-24091376D01*
X45066467Y-24005817D01*
X44847188Y-23962200D01*
X44623612Y-23962200D01*
X44404333Y-24005817D01*
X44197776Y-24091376D01*
X44011880Y-24215588D01*
X43865268Y-24362200D01*
X42038564Y-24362200D01*
X42069837Y-24324094D01*
X42128802Y-24213780D01*
X42165112Y-24094082D01*
X42177372Y-23969600D01*
X42174300Y-23755350D01*
X42015550Y-23596600D01*
X41041300Y-23596600D01*
X41041300Y-23616600D01*
X40787300Y-23616600D01*
X40787300Y-23596600D01*
X39813050Y-23596600D01*
X39654300Y-23755350D01*
X39651228Y-23969600D01*
X39663488Y-24094082D01*
X39699798Y-24213780D01*
X39758763Y-24324094D01*
X39838115Y-24420785D01*
X39897596Y-24469600D01*
X39838115Y-24518415D01*
X39758763Y-24615106D01*
X39699798Y-24725420D01*
X39663488Y-24845118D01*
X39651228Y-24969600D01*
X39651228Y-25969600D01*
X39663488Y-26094082D01*
X39699798Y-26213780D01*
X39758763Y-26324094D01*
X39786663Y-26358090D01*
X36133289Y-30011465D01*
X36125782Y-30009188D01*
X36001300Y-29996928D01*
X35689018Y-29996928D01*
X38751697Y-26934249D01*
X38779737Y-26911238D01*
X38802750Y-26883197D01*
X38802753Y-26883194D01*
X38871586Y-26799321D01*
X38871587Y-26799320D01*
X38939837Y-26671633D01*
X38968513Y-26577101D01*
X39006982Y-26573312D01*
X39126680Y-26537002D01*
X39236994Y-26478037D01*
X39333685Y-26398685D01*
X39413037Y-26301994D01*
X39472002Y-26191680D01*
X39508312Y-26071982D01*
X39520572Y-25947500D01*
X39520572Y-24947500D01*
X39508312Y-24823018D01*
X39472002Y-24703320D01*
X39413037Y-24593006D01*
X39333685Y-24496315D01*
X39274204Y-24447500D01*
X39333685Y-24398685D01*
X39413037Y-24301994D01*
X39472002Y-24191680D01*
X39508312Y-24071982D01*
X39520572Y-23947500D01*
X39517500Y-23733250D01*
X39358750Y-23574500D01*
X38384500Y-23574500D01*
X38384500Y-23594500D01*
X38130500Y-23594500D01*
X38130500Y-23574500D01*
X37156250Y-23574500D01*
X36997500Y-23733250D01*
X36994428Y-23947500D01*
X37006688Y-24071982D01*
X37042998Y-24191680D01*
X37101963Y-24301994D01*
X37181315Y-24398685D01*
X37240796Y-24447500D01*
X37181315Y-24496315D01*
X37101963Y-24593006D01*
X37042998Y-24703320D01*
X37006688Y-24823018D01*
X36994428Y-24947500D01*
X36994428Y-25947500D01*
X37006688Y-26071982D01*
X37042998Y-26191680D01*
X37101963Y-26301994D01*
X37181315Y-26398685D01*
X37196174Y-26410879D01*
X33610126Y-29996928D01*
X32741300Y-29996928D01*
X32616818Y-30009188D01*
X32497120Y-30045498D01*
X32386806Y-30104463D01*
X32290115Y-30183815D01*
X32210763Y-30280506D01*
X32151798Y-30390820D01*
X32115488Y-30510518D01*
X32103228Y-30635000D01*
X32103228Y-31285000D01*
X32115488Y-31409482D01*
X32123229Y-31435000D01*
X32115488Y-31460518D01*
X32103228Y-31585000D01*
X32106300Y-31624250D01*
X32265050Y-31783000D01*
X32347159Y-31783000D01*
X32386806Y-31815537D01*
X32497120Y-31874502D01*
X32614141Y-31910000D01*
X32497120Y-31945498D01*
X32386806Y-32004463D01*
X32347159Y-32037000D01*
X32265050Y-32037000D01*
X32177050Y-32125000D01*
X29018100Y-32125000D01*
X29018100Y-30653345D01*
X29173635Y-30549420D01*
X29368220Y-30354835D01*
X29521105Y-30126027D01*
X29626414Y-29871790D01*
X29680100Y-29601892D01*
X29680100Y-29326708D01*
X29626414Y-29056810D01*
X29521105Y-28802573D01*
X29368220Y-28573765D01*
X29173635Y-28379180D01*
X28944827Y-28226295D01*
X28868505Y-28194681D01*
X28876123Y-28191936D01*
X28992080Y-28129956D01*
X29059060Y-27889865D01*
X28273100Y-27103905D01*
X27487140Y-27889865D01*
X27554120Y-28129956D01*
X27694543Y-28195987D01*
X27621373Y-28226295D01*
X27392565Y-28379180D01*
X27197980Y-28573765D01*
X27045095Y-28802573D01*
X26939786Y-29056810D01*
X26886100Y-29326708D01*
X26886100Y-29601892D01*
X26939786Y-29871790D01*
X27045095Y-30126027D01*
X27197980Y-30354835D01*
X27392565Y-30549420D01*
X27548100Y-30653346D01*
X27548101Y-32782800D01*
X27528194Y-32766463D01*
X27417880Y-32707498D01*
X27298182Y-32671188D01*
X27173700Y-32658928D01*
X26173700Y-32658928D01*
X26049218Y-32671188D01*
X25929520Y-32707498D01*
X25819206Y-32766463D01*
X25722515Y-32845815D01*
X25643163Y-32942506D01*
X25584198Y-33052820D01*
X25547888Y-33172518D01*
X25535628Y-33297000D01*
X25535628Y-33444135D01*
X25479592Y-33474087D01*
X25463080Y-33482913D01*
X25351162Y-33574762D01*
X25328146Y-33602807D01*
X23992108Y-34938846D01*
X23964062Y-34961863D01*
X23872213Y-35073781D01*
X23803963Y-35201468D01*
X23789247Y-35249980D01*
X23761935Y-35340015D01*
X23747744Y-35484100D01*
X23252694Y-35484100D01*
X23229013Y-26996317D01*
X26871190Y-26996317D01*
X26912178Y-27268433D01*
X27005464Y-27527323D01*
X27067444Y-27643280D01*
X27307535Y-27710260D01*
X28093495Y-26924300D01*
X28452705Y-26924300D01*
X29238665Y-27710260D01*
X29478756Y-27643280D01*
X29595856Y-27394252D01*
X29662123Y-27127165D01*
X29675010Y-26852283D01*
X29634022Y-26580167D01*
X29540736Y-26321277D01*
X29478756Y-26205320D01*
X29238665Y-26138340D01*
X28452705Y-26924300D01*
X28093495Y-26924300D01*
X27307535Y-26138340D01*
X27067444Y-26205320D01*
X26950344Y-26454348D01*
X26884077Y-26721435D01*
X26871190Y-26996317D01*
X23229013Y-26996317D01*
X23226118Y-25958735D01*
X27487140Y-25958735D01*
X28273100Y-26744695D01*
X29059060Y-25958735D01*
X28992080Y-25718644D01*
X28743052Y-25601544D01*
X28475965Y-25535277D01*
X28201083Y-25522390D01*
X27928967Y-25563378D01*
X27670077Y-25656664D01*
X27554120Y-25718644D01*
X27487140Y-25958735D01*
X23226118Y-25958735D01*
X23212629Y-21124380D01*
X23456300Y-21124380D01*
X23456300Y-21461220D01*
X23522014Y-21791589D01*
X23650918Y-22102789D01*
X23838056Y-22382861D01*
X24076239Y-22621044D01*
X24356311Y-22808182D01*
X24667511Y-22937086D01*
X24997880Y-23002800D01*
X25334720Y-23002800D01*
X25665089Y-22937086D01*
X25976289Y-22808182D01*
X26256361Y-22621044D01*
X26494544Y-22382861D01*
X26681682Y-22102789D01*
X26810586Y-21791589D01*
X26876300Y-21461220D01*
X26876300Y-21124380D01*
X26819754Y-20840100D01*
X27350428Y-20840100D01*
X27362688Y-20964582D01*
X27398998Y-21084280D01*
X27457963Y-21194594D01*
X27537315Y-21291285D01*
X27634006Y-21370637D01*
X27744320Y-21429602D01*
X27778927Y-21440100D01*
X27744320Y-21450598D01*
X27634006Y-21509563D01*
X27537315Y-21588915D01*
X27457963Y-21685606D01*
X27398998Y-21795920D01*
X27362688Y-21915618D01*
X27350428Y-22040100D01*
X27350428Y-22740100D01*
X27362688Y-22864582D01*
X27398998Y-22984280D01*
X27457963Y-23094594D01*
X27537315Y-23191285D01*
X27634006Y-23270637D01*
X27744320Y-23329602D01*
X27864018Y-23365912D01*
X27985477Y-23377874D01*
X28024414Y-23450720D01*
X28116263Y-23562638D01*
X28144308Y-23585654D01*
X28571540Y-24012887D01*
X28527117Y-24120133D01*
X28483500Y-24339412D01*
X28483500Y-24562988D01*
X28527117Y-24782267D01*
X28612676Y-24988824D01*
X28736888Y-25174720D01*
X28894980Y-25332812D01*
X29080876Y-25457024D01*
X29287433Y-25542583D01*
X29506712Y-25586200D01*
X29730288Y-25586200D01*
X29949567Y-25542583D01*
X30156124Y-25457024D01*
X30342020Y-25332812D01*
X30500112Y-25174720D01*
X30624324Y-24988824D01*
X30709883Y-24782267D01*
X30753500Y-24562988D01*
X30753500Y-24339412D01*
X30709883Y-24120133D01*
X30624324Y-23913576D01*
X30500112Y-23727680D01*
X30342020Y-23569588D01*
X30156124Y-23445376D01*
X30031162Y-23393615D01*
X29779868Y-23142322D01*
X29819037Y-23094594D01*
X29878002Y-22984280D01*
X29889159Y-22947500D01*
X36994428Y-22947500D01*
X36997500Y-23161750D01*
X37156250Y-23320500D01*
X38130500Y-23320500D01*
X38130500Y-22471250D01*
X38384500Y-22471250D01*
X38384500Y-23320500D01*
X39358750Y-23320500D01*
X39517500Y-23161750D01*
X39520255Y-22969600D01*
X39651228Y-22969600D01*
X39654300Y-23183850D01*
X39813050Y-23342600D01*
X40787300Y-23342600D01*
X40787300Y-22493350D01*
X41041300Y-22493350D01*
X41041300Y-23342600D01*
X42015550Y-23342600D01*
X42174300Y-23183850D01*
X42177372Y-22969600D01*
X42165112Y-22845118D01*
X42128802Y-22725420D01*
X42069837Y-22615106D01*
X42002186Y-22532672D01*
X52660686Y-22532672D01*
X52675591Y-22798586D01*
X52903966Y-22994529D01*
X53166180Y-23142153D01*
X53452156Y-23235786D01*
X53750903Y-23271828D01*
X54050941Y-23248894D01*
X54214144Y-23210836D01*
X54359704Y-22987473D01*
X53738015Y-21910676D01*
X52660686Y-22532672D01*
X42002186Y-22532672D01*
X41990485Y-22518415D01*
X41893794Y-22439063D01*
X41783480Y-22380098D01*
X41663782Y-22343788D01*
X41539300Y-22331528D01*
X41200050Y-22334600D01*
X41041300Y-22493350D01*
X40787300Y-22493350D01*
X40628550Y-22334600D01*
X40289300Y-22331528D01*
X40164818Y-22343788D01*
X40045120Y-22380098D01*
X39934806Y-22439063D01*
X39838115Y-22518415D01*
X39758763Y-22615106D01*
X39699798Y-22725420D01*
X39663488Y-22845118D01*
X39651228Y-22969600D01*
X39520255Y-22969600D01*
X39520572Y-22947500D01*
X39508312Y-22823018D01*
X39472002Y-22703320D01*
X39413037Y-22593006D01*
X39333685Y-22496315D01*
X39236994Y-22416963D01*
X39126680Y-22357998D01*
X39006982Y-22321688D01*
X38882500Y-22309428D01*
X38543250Y-22312500D01*
X38384500Y-22471250D01*
X38130500Y-22471250D01*
X37971750Y-22312500D01*
X37632500Y-22309428D01*
X37508018Y-22321688D01*
X37388320Y-22357998D01*
X37278006Y-22416963D01*
X37181315Y-22496315D01*
X37101963Y-22593006D01*
X37042998Y-22703320D01*
X37006688Y-22823018D01*
X36994428Y-22947500D01*
X29889159Y-22947500D01*
X29914312Y-22864582D01*
X29926572Y-22740100D01*
X29926572Y-22040100D01*
X29914312Y-21915618D01*
X29878002Y-21795920D01*
X29819037Y-21685606D01*
X29739685Y-21588915D01*
X29642994Y-21509563D01*
X29532680Y-21450598D01*
X29498073Y-21440100D01*
X29532680Y-21429602D01*
X29642994Y-21370637D01*
X29707087Y-21318037D01*
X44247500Y-21318037D01*
X44247500Y-21531763D01*
X44289196Y-21741383D01*
X44370985Y-21938840D01*
X44489725Y-22116547D01*
X44640853Y-22267675D01*
X44818560Y-22386415D01*
X45016017Y-22468204D01*
X45225637Y-22509900D01*
X45439363Y-22509900D01*
X45648983Y-22468204D01*
X45846440Y-22386415D01*
X46024147Y-22267675D01*
X46175275Y-22116547D01*
X46294015Y-21938840D01*
X46375804Y-21741383D01*
X46417500Y-21531763D01*
X46417500Y-21318037D01*
X47247500Y-21318037D01*
X47247500Y-21531763D01*
X47289196Y-21741383D01*
X47370985Y-21938840D01*
X47489725Y-22116547D01*
X47640853Y-22267675D01*
X47818560Y-22386415D01*
X48016017Y-22468204D01*
X48225637Y-22509900D01*
X48439363Y-22509900D01*
X48648983Y-22468204D01*
X48846440Y-22386415D01*
X49024147Y-22267675D01*
X49175275Y-22116547D01*
X49294015Y-21938840D01*
X49322079Y-21871087D01*
X52255346Y-21871087D01*
X52310850Y-22166837D01*
X52533686Y-22312702D01*
X53449986Y-21783676D01*
X53957985Y-21783676D01*
X54579674Y-22860473D01*
X54845892Y-22846096D01*
X54960453Y-22723787D01*
X55130333Y-22475414D01*
X55248493Y-22198670D01*
X55310393Y-21904191D01*
X55313654Y-21603295D01*
X55258150Y-21307545D01*
X55035314Y-21161680D01*
X53957985Y-21783676D01*
X53449986Y-21783676D01*
X53611015Y-21690706D01*
X52989326Y-20613909D01*
X52723108Y-20628286D01*
X52608547Y-20750595D01*
X52438667Y-20998968D01*
X52320507Y-21275712D01*
X52258607Y-21570191D01*
X52255346Y-21871087D01*
X49322079Y-21871087D01*
X49375804Y-21741383D01*
X49417500Y-21531763D01*
X49417500Y-21318037D01*
X49375804Y-21108417D01*
X49294015Y-20910960D01*
X49175275Y-20733253D01*
X49024147Y-20582125D01*
X48881647Y-20486909D01*
X53209296Y-20486909D01*
X53830985Y-21563706D01*
X54908314Y-20941710D01*
X54893409Y-20675796D01*
X54665034Y-20479853D01*
X54402820Y-20332229D01*
X54116844Y-20238596D01*
X53818097Y-20202554D01*
X53518059Y-20225488D01*
X53354856Y-20263546D01*
X53209296Y-20486909D01*
X48881647Y-20486909D01*
X48846440Y-20463385D01*
X48648983Y-20381596D01*
X48439363Y-20339900D01*
X48225637Y-20339900D01*
X48016017Y-20381596D01*
X47818560Y-20463385D01*
X47640853Y-20582125D01*
X47489725Y-20733253D01*
X47370985Y-20910960D01*
X47289196Y-21108417D01*
X47247500Y-21318037D01*
X46417500Y-21318037D01*
X46375804Y-21108417D01*
X46294015Y-20910960D01*
X46175275Y-20733253D01*
X46024147Y-20582125D01*
X45846440Y-20463385D01*
X45648983Y-20381596D01*
X45439363Y-20339900D01*
X45225637Y-20339900D01*
X45016017Y-20381596D01*
X44818560Y-20463385D01*
X44640853Y-20582125D01*
X44489725Y-20733253D01*
X44370985Y-20910960D01*
X44289196Y-21108417D01*
X44247500Y-21318037D01*
X29707087Y-21318037D01*
X29739685Y-21291285D01*
X29819037Y-21194594D01*
X29878002Y-21084280D01*
X29914312Y-20964582D01*
X29926572Y-20840100D01*
X29923500Y-20775850D01*
X29764750Y-20617100D01*
X28765500Y-20617100D01*
X28765500Y-20637100D01*
X28511500Y-20637100D01*
X28511500Y-20617100D01*
X27512250Y-20617100D01*
X27353500Y-20775850D01*
X27350428Y-20840100D01*
X26819754Y-20840100D01*
X26810586Y-20794011D01*
X26681682Y-20482811D01*
X26494544Y-20202739D01*
X26256361Y-19964556D01*
X25976289Y-19777418D01*
X25665089Y-19648514D01*
X25334720Y-19582800D01*
X24997880Y-19582800D01*
X24667511Y-19648514D01*
X24356311Y-19777418D01*
X24076239Y-19964556D01*
X23838056Y-20202739D01*
X23650918Y-20482811D01*
X23522014Y-20794011D01*
X23456300Y-21124380D01*
X23212629Y-21124380D01*
X23208307Y-19575657D01*
X27708427Y-19569783D01*
X27634006Y-19609563D01*
X27537315Y-19688915D01*
X27457963Y-19785606D01*
X27398998Y-19895920D01*
X27362688Y-20015618D01*
X27350428Y-20140100D01*
X27353500Y-20204350D01*
X27512250Y-20363100D01*
X28511500Y-20363100D01*
X28511500Y-20343100D01*
X28765500Y-20343100D01*
X28765500Y-20363100D01*
X29764750Y-20363100D01*
X29923500Y-20204350D01*
X29926572Y-20140100D01*
X29914312Y-20015618D01*
X29878002Y-19895920D01*
X29819037Y-19785606D01*
X29739685Y-19688915D01*
X29642994Y-19609563D01*
X29564042Y-19567361D01*
X57237990Y-19531241D01*
X57109611Y-19584418D01*
X56829539Y-19771556D01*
X56591356Y-20009739D01*
X56404218Y-20289811D01*
X56275314Y-20601011D01*
X56209600Y-20931380D01*
X56209600Y-21268220D01*
X56275314Y-21598589D01*
X56404218Y-21909789D01*
X56591356Y-22189861D01*
X56829539Y-22428044D01*
X57109611Y-22615182D01*
X57420811Y-22744086D01*
X57751180Y-22809800D01*
X58088020Y-22809800D01*
X58418389Y-22744086D01*
X58729589Y-22615182D01*
X59009661Y-22428044D01*
X59247844Y-22189861D01*
X59434982Y-21909789D01*
X59563886Y-21598589D01*
X59629600Y-21268220D01*
X59629600Y-20931380D01*
X59563886Y-20601011D01*
X59434982Y-20289811D01*
X59247844Y-20009739D01*
X59009661Y-19771556D01*
X58729589Y-19584418D01*
X58596928Y-19529468D01*
X59961191Y-19527687D01*
X59656835Y-85423291D01*
G04 #@! TA.AperFunction,Conductor*
D33*
G36*
X59656835Y-85423291D02*
G01*
X59611074Y-85377922D01*
X59408133Y-85243579D01*
X59182882Y-85151409D01*
X59145209Y-85147538D01*
X58954600Y-85272269D01*
X58954600Y-86614000D01*
X58974600Y-86614000D01*
X58974600Y-86868000D01*
X58954600Y-86868000D01*
X58954600Y-88209731D01*
X59145209Y-88334462D01*
X59182882Y-88330591D01*
X59408133Y-88238421D01*
X59611074Y-88104078D01*
X59644606Y-88070833D01*
X59637249Y-89663728D01*
X23403209Y-89431669D01*
X23397734Y-87469180D01*
X23436000Y-87469180D01*
X23436000Y-87806020D01*
X23501714Y-88136389D01*
X23630618Y-88447589D01*
X23817756Y-88727661D01*
X24055939Y-88965844D01*
X24336011Y-89152982D01*
X24647211Y-89281886D01*
X24977580Y-89347600D01*
X25314420Y-89347600D01*
X25644789Y-89281886D01*
X25955989Y-89152982D01*
X26236061Y-88965844D01*
X26474244Y-88727661D01*
X26661382Y-88447589D01*
X26790286Y-88136389D01*
X26856000Y-87806020D01*
X26856000Y-87469180D01*
X26790286Y-87138811D01*
X26661382Y-86827611D01*
X26616006Y-86759700D01*
X27767628Y-86759700D01*
X27767628Y-88459700D01*
X27779888Y-88584182D01*
X27816198Y-88703880D01*
X27875163Y-88814194D01*
X27954515Y-88910885D01*
X28051206Y-88990237D01*
X28161520Y-89049202D01*
X28281218Y-89085512D01*
X28405700Y-89097772D01*
X30105700Y-89097772D01*
X30230182Y-89085512D01*
X30349880Y-89049202D01*
X30460194Y-88990237D01*
X30556885Y-88910885D01*
X30636237Y-88814194D01*
X30695202Y-88703880D01*
X30731512Y-88584182D01*
X30743772Y-88459700D01*
X30743772Y-87519900D01*
X34191328Y-87519900D01*
X34203588Y-87644382D01*
X34239898Y-87764080D01*
X34298863Y-87874394D01*
X34378215Y-87971085D01*
X34474906Y-88050437D01*
X34585220Y-88109402D01*
X34704918Y-88145712D01*
X34829400Y-88157972D01*
X35393650Y-88154900D01*
X35552400Y-87996150D01*
X35552400Y-86796900D01*
X34353150Y-86796900D01*
X34194400Y-86955650D01*
X34191328Y-87519900D01*
X30743772Y-87519900D01*
X30743772Y-86759700D01*
X30731512Y-86635218D01*
X30695202Y-86515520D01*
X30636237Y-86405206D01*
X30556885Y-86308515D01*
X30460194Y-86229163D01*
X30349880Y-86170198D01*
X30230182Y-86133888D01*
X30105700Y-86121628D01*
X28405700Y-86121628D01*
X28281218Y-86133888D01*
X28161520Y-86170198D01*
X28051206Y-86229163D01*
X27954515Y-86308515D01*
X27875163Y-86405206D01*
X27816198Y-86515520D01*
X27779888Y-86635218D01*
X27767628Y-86759700D01*
X26616006Y-86759700D01*
X26474244Y-86547539D01*
X26236061Y-86309356D01*
X25955989Y-86122218D01*
X25644789Y-85993314D01*
X25314420Y-85927600D01*
X24977580Y-85927600D01*
X24647211Y-85993314D01*
X24336011Y-86122218D01*
X24055939Y-86309356D01*
X23817756Y-86547539D01*
X23630618Y-86827611D01*
X23501714Y-87138811D01*
X23436000Y-87469180D01*
X23397734Y-87469180D01*
X23393133Y-85819900D01*
X34191328Y-85819900D01*
X34194400Y-86384150D01*
X34353150Y-86542900D01*
X35552400Y-86542900D01*
X35552400Y-85343650D01*
X35393650Y-85184900D01*
X34829400Y-85181828D01*
X34704918Y-85194088D01*
X34585220Y-85230398D01*
X34474906Y-85289363D01*
X34378215Y-85368715D01*
X34298863Y-85465406D01*
X34239898Y-85575720D01*
X34203588Y-85695418D01*
X34191328Y-85819900D01*
X23393133Y-85819900D01*
X23373842Y-78905300D01*
X29009928Y-78905300D01*
X29022188Y-79029782D01*
X29058498Y-79149480D01*
X29117463Y-79259794D01*
X29196815Y-79356485D01*
X29293506Y-79435837D01*
X29403820Y-79494802D01*
X29523518Y-79531112D01*
X29648000Y-79543372D01*
X29862250Y-79540300D01*
X30021000Y-79381550D01*
X30021000Y-78407300D01*
X29171750Y-78407300D01*
X29013000Y-78566050D01*
X29009928Y-78905300D01*
X23373842Y-78905300D01*
X23370355Y-77655300D01*
X29009928Y-77655300D01*
X29013000Y-77994550D01*
X29171750Y-78153300D01*
X30021000Y-78153300D01*
X30021000Y-77179050D01*
X29862250Y-77020300D01*
X29648000Y-77017228D01*
X29523518Y-77029488D01*
X29403820Y-77065798D01*
X29293506Y-77124763D01*
X29196815Y-77204115D01*
X29117463Y-77300806D01*
X29058498Y-77411120D01*
X29022188Y-77530818D01*
X29009928Y-77655300D01*
X23370355Y-77655300D01*
X23364981Y-75729600D01*
X27833828Y-75729600D01*
X27846088Y-75854082D01*
X27882398Y-75973780D01*
X27941363Y-76084094D01*
X28020715Y-76180785D01*
X28117406Y-76260137D01*
X28227720Y-76319102D01*
X28347418Y-76355412D01*
X28471900Y-76367672D01*
X28836150Y-76364600D01*
X28994900Y-76205850D01*
X28994900Y-75506600D01*
X27995650Y-75506600D01*
X27836900Y-75665350D01*
X27833828Y-75729600D01*
X23364981Y-75729600D01*
X23252694Y-35484100D01*
X23747744Y-35484100D01*
X23751300Y-35520205D01*
X23751301Y-66879485D01*
X23747744Y-66915600D01*
X23761935Y-67059685D01*
X23794130Y-67165815D01*
X23803964Y-67198233D01*
X23872214Y-67325920D01*
X23964063Y-67437838D01*
X23992108Y-67460854D01*
X27833828Y-71302575D01*
X27833828Y-71919600D01*
X27846088Y-72044082D01*
X27882398Y-72163780D01*
X27904217Y-72204600D01*
X27882398Y-72245420D01*
X27846088Y-72365118D01*
X27833828Y-72489600D01*
X27836900Y-72553850D01*
X27995650Y-72712600D01*
X28994900Y-72712600D01*
X28994900Y-72692600D01*
X29248900Y-72692600D01*
X29248900Y-72712600D01*
X29268900Y-72712600D01*
X29268900Y-72966600D01*
X29248900Y-72966600D01*
X29248900Y-72986600D01*
X28994900Y-72986600D01*
X28994900Y-72966600D01*
X27995650Y-72966600D01*
X27836900Y-73125350D01*
X27833828Y-73189600D01*
X27846088Y-73314082D01*
X27882398Y-73433780D01*
X27904217Y-73474600D01*
X27882398Y-73515420D01*
X27846088Y-73635118D01*
X27833828Y-73759600D01*
X27833828Y-74459600D01*
X27846088Y-74584082D01*
X27882398Y-74703780D01*
X27904217Y-74744600D01*
X27882398Y-74785420D01*
X27846088Y-74905118D01*
X27833828Y-75029600D01*
X27836900Y-75093850D01*
X27995650Y-75252600D01*
X28994900Y-75252600D01*
X28994900Y-75232600D01*
X29248900Y-75232600D01*
X29248900Y-75252600D01*
X29268900Y-75252600D01*
X29268900Y-75506600D01*
X29248900Y-75506600D01*
X29248900Y-76205850D01*
X29407650Y-76364600D01*
X29771900Y-76367672D01*
X29896382Y-76355412D01*
X30016080Y-76319102D01*
X30126394Y-76260137D01*
X30223085Y-76180785D01*
X30244101Y-76155177D01*
X30244100Y-78650695D01*
X30240544Y-78686800D01*
X30254735Y-78830885D01*
X30258657Y-78843814D01*
X30275000Y-78897689D01*
X30275000Y-79381550D01*
X30433750Y-79540300D01*
X30648000Y-79543372D01*
X30772482Y-79531112D01*
X30781293Y-79528439D01*
X30952946Y-79700092D01*
X30975962Y-79728138D01*
X31087880Y-79819987D01*
X31215567Y-79888237D01*
X31354115Y-79930265D01*
X31462095Y-79940900D01*
X31462104Y-79940900D01*
X31498199Y-79944455D01*
X31534294Y-79940900D01*
X32764295Y-79940900D01*
X32800400Y-79944456D01*
X32836505Y-79940900D01*
X32944485Y-79930265D01*
X33083033Y-79888237D01*
X33210720Y-79819987D01*
X33322638Y-79728138D01*
X33345658Y-79700088D01*
X33573278Y-79472468D01*
X33621006Y-79511637D01*
X33731320Y-79570602D01*
X33851018Y-79606912D01*
X33975500Y-79619172D01*
X34675500Y-79619172D01*
X34799982Y-79606912D01*
X34919680Y-79570602D01*
X35029994Y-79511637D01*
X35126685Y-79432285D01*
X35206037Y-79335594D01*
X35265002Y-79225280D01*
X35275500Y-79190673D01*
X35285998Y-79225280D01*
X35344963Y-79335594D01*
X35424315Y-79432285D01*
X35521006Y-79511637D01*
X35631320Y-79570602D01*
X35751018Y-79606912D01*
X35875500Y-79619172D01*
X35939750Y-79616100D01*
X36098500Y-79457350D01*
X36098500Y-78458100D01*
X36078500Y-78458100D01*
X36078500Y-78204100D01*
X36098500Y-78204100D01*
X36098500Y-78184100D01*
X36352500Y-78184100D01*
X36352500Y-78204100D01*
X37051750Y-78204100D01*
X37210500Y-78045350D01*
X37213572Y-77681100D01*
X37201312Y-77556618D01*
X37165002Y-77436920D01*
X37106037Y-77326606D01*
X37026685Y-77229915D01*
X36929994Y-77150563D01*
X36819680Y-77091598D01*
X36699982Y-77055288D01*
X36673560Y-77052686D01*
X37250401Y-76475846D01*
X37250401Y-79153452D01*
X37149418Y-79254435D01*
X37165002Y-79225280D01*
X37201312Y-79105582D01*
X37213572Y-78981100D01*
X37210500Y-78616850D01*
X37051750Y-78458100D01*
X36352500Y-78458100D01*
X36352500Y-79457350D01*
X36511250Y-79616100D01*
X36575500Y-79619172D01*
X36699982Y-79606912D01*
X36819680Y-79570602D01*
X36848836Y-79555018D01*
X36121954Y-80281900D01*
X35914612Y-80281900D01*
X35695333Y-80325517D01*
X35488776Y-80411076D01*
X35302880Y-80535288D01*
X35144788Y-80693380D01*
X35020576Y-80879276D01*
X34935017Y-81085833D01*
X34891400Y-81305112D01*
X34891400Y-81528688D01*
X34935017Y-81747967D01*
X35020576Y-81954524D01*
X35144788Y-82140420D01*
X35302880Y-82298512D01*
X35488776Y-82422724D01*
X35695333Y-82508283D01*
X35914612Y-82551900D01*
X36138188Y-82551900D01*
X36357467Y-82508283D01*
X36564024Y-82422724D01*
X36749920Y-82298512D01*
X36908012Y-82140420D01*
X37032224Y-81954524D01*
X37117783Y-81747967D01*
X37161400Y-81528688D01*
X37161400Y-81321346D01*
X38479593Y-80003154D01*
X38507638Y-79980138D01*
X38599487Y-79868220D01*
X38667737Y-79740533D01*
X38709765Y-79601985D01*
X38720400Y-79494005D01*
X38720400Y-79493996D01*
X38723955Y-79457901D01*
X38720400Y-79421806D01*
X38720400Y-75562772D01*
X38726501Y-75562772D01*
X38726501Y-76320585D01*
X38722944Y-76356700D01*
X38737135Y-76500785D01*
X38772810Y-76618388D01*
X38779164Y-76639333D01*
X38847414Y-76767020D01*
X38939263Y-76878938D01*
X38967308Y-76901954D01*
X39469800Y-77404446D01*
X39469800Y-77611788D01*
X39513417Y-77831067D01*
X39598976Y-78037624D01*
X39723188Y-78223520D01*
X39881280Y-78381612D01*
X40067176Y-78505824D01*
X40273733Y-78591383D01*
X40493012Y-78635000D01*
X40716588Y-78635000D01*
X40826800Y-78613078D01*
X40826800Y-81872753D01*
X37725208Y-84974346D01*
X37697163Y-84997362D01*
X37605314Y-85109280D01*
X37559983Y-85194088D01*
X37537064Y-85236967D01*
X37497928Y-85365978D01*
X37272768Y-85516425D01*
X37140913Y-85648280D01*
X37118902Y-85575720D01*
X37059937Y-85465406D01*
X36980585Y-85368715D01*
X36883894Y-85289363D01*
X36773580Y-85230398D01*
X36653882Y-85194088D01*
X36529400Y-85181828D01*
X35965150Y-85184900D01*
X35806400Y-85343650D01*
X35806400Y-86542900D01*
X35826400Y-86542900D01*
X35826400Y-86796900D01*
X35806400Y-86796900D01*
X35806400Y-87996150D01*
X35965150Y-88154900D01*
X36529400Y-88157972D01*
X36653882Y-88145712D01*
X36773580Y-88109402D01*
X36883894Y-88050437D01*
X36980585Y-87971085D01*
X37059937Y-87874394D01*
X37118902Y-87764080D01*
X37140913Y-87691520D01*
X37272768Y-87823375D01*
X37515989Y-87985890D01*
X37786242Y-88097832D01*
X38073140Y-88154900D01*
X38365660Y-88154900D01*
X38652558Y-88097832D01*
X38922811Y-87985890D01*
X39166032Y-87823375D01*
X39372875Y-87616532D01*
X39489400Y-87442140D01*
X39605925Y-87616532D01*
X39812768Y-87823375D01*
X40055989Y-87985890D01*
X40326242Y-88097832D01*
X40613140Y-88154900D01*
X40905660Y-88154900D01*
X41192558Y-88097832D01*
X41462811Y-87985890D01*
X41706032Y-87823375D01*
X41912875Y-87616532D01*
X42029400Y-87442140D01*
X42145925Y-87616532D01*
X42352768Y-87823375D01*
X42595989Y-87985890D01*
X42866242Y-88097832D01*
X43153140Y-88154900D01*
X43445660Y-88154900D01*
X43732558Y-88097832D01*
X44002811Y-87985890D01*
X44246032Y-87823375D01*
X44452875Y-87616532D01*
X44569400Y-87442140D01*
X44685925Y-87616532D01*
X44892768Y-87823375D01*
X45135989Y-87985890D01*
X45406242Y-88097832D01*
X45693140Y-88154900D01*
X45985660Y-88154900D01*
X46272558Y-88097832D01*
X46542811Y-87985890D01*
X46786032Y-87823375D01*
X46992875Y-87616532D01*
X47109400Y-87442140D01*
X47225925Y-87616532D01*
X47432768Y-87823375D01*
X47675989Y-87985890D01*
X47946242Y-88097832D01*
X48233140Y-88154900D01*
X48525660Y-88154900D01*
X48812558Y-88097832D01*
X49082811Y-87985890D01*
X49326032Y-87823375D01*
X49532875Y-87616532D01*
X49695390Y-87373311D01*
X49807332Y-87103058D01*
X49854088Y-86868000D01*
X50442600Y-86868000D01*
X50442600Y-87268000D01*
X50491107Y-87506496D01*
X50585210Y-87730946D01*
X50721293Y-87932725D01*
X50894126Y-88104078D01*
X51097067Y-88238421D01*
X51322318Y-88330591D01*
X51359991Y-88334462D01*
X51550600Y-88209731D01*
X51550600Y-86868000D01*
X51804600Y-86868000D01*
X51804600Y-88209731D01*
X51995209Y-88334462D01*
X52032882Y-88330591D01*
X52258133Y-88238421D01*
X52461074Y-88104078D01*
X52633907Y-87932725D01*
X52769990Y-87730946D01*
X52864093Y-87506496D01*
X52912600Y-87268000D01*
X52912600Y-86868000D01*
X57592600Y-86868000D01*
X57592600Y-87268000D01*
X57641107Y-87506496D01*
X57735210Y-87730946D01*
X57871293Y-87932725D01*
X58044126Y-88104078D01*
X58247067Y-88238421D01*
X58472318Y-88330591D01*
X58509991Y-88334462D01*
X58700600Y-88209731D01*
X58700600Y-86868000D01*
X57592600Y-86868000D01*
X52912600Y-86868000D01*
X51804600Y-86868000D01*
X51550600Y-86868000D01*
X50442600Y-86868000D01*
X49854088Y-86868000D01*
X49864400Y-86816160D01*
X49864400Y-86523640D01*
X49807332Y-86236742D01*
X49797912Y-86214000D01*
X50442600Y-86214000D01*
X50442600Y-86614000D01*
X51550600Y-86614000D01*
X51550600Y-85272269D01*
X51804600Y-85272269D01*
X51804600Y-86614000D01*
X52912600Y-86614000D01*
X52912600Y-86214000D01*
X57592600Y-86214000D01*
X57592600Y-86614000D01*
X58700600Y-86614000D01*
X58700600Y-85272269D01*
X58509991Y-85147538D01*
X58472318Y-85151409D01*
X58247067Y-85243579D01*
X58044126Y-85377922D01*
X57871293Y-85549275D01*
X57735210Y-85751054D01*
X57641107Y-85975504D01*
X57592600Y-86214000D01*
X52912600Y-86214000D01*
X52864093Y-85975504D01*
X52769990Y-85751054D01*
X52633907Y-85549275D01*
X52461074Y-85377922D01*
X52258133Y-85243579D01*
X52032882Y-85151409D01*
X51995209Y-85147538D01*
X51804600Y-85272269D01*
X51550600Y-85272269D01*
X51359991Y-85147538D01*
X51322318Y-85151409D01*
X51097067Y-85243579D01*
X50894126Y-85377922D01*
X50721293Y-85549275D01*
X50585210Y-85751054D01*
X50491107Y-85975504D01*
X50442600Y-86214000D01*
X49797912Y-86214000D01*
X49695390Y-85966489D01*
X49532875Y-85723268D01*
X49326032Y-85516425D01*
X49082811Y-85353910D01*
X48812558Y-85241968D01*
X48525660Y-85184900D01*
X48233140Y-85184900D01*
X47946242Y-85241968D01*
X47675989Y-85353910D01*
X47432768Y-85516425D01*
X47225925Y-85723268D01*
X47109400Y-85897660D01*
X46992875Y-85723268D01*
X46786032Y-85516425D01*
X46542811Y-85353910D01*
X46272558Y-85241968D01*
X45985660Y-85184900D01*
X45693140Y-85184900D01*
X45406242Y-85241968D01*
X45135989Y-85353910D01*
X44892768Y-85516425D01*
X44685925Y-85723268D01*
X44569400Y-85897660D01*
X44452875Y-85723268D01*
X44246032Y-85516425D01*
X44034400Y-85375017D01*
X44034400Y-84302816D01*
X51662841Y-84302816D01*
X51726545Y-84525979D01*
X51832562Y-84732426D01*
X51976817Y-84914223D01*
X52153767Y-85064385D01*
X52356613Y-85177140D01*
X52517856Y-85234803D01*
X52700600Y-85109361D01*
X52700600Y-84118000D01*
X52954600Y-84118000D01*
X52954600Y-85109361D01*
X53137344Y-85234803D01*
X53298587Y-85177140D01*
X53501433Y-85064385D01*
X53678383Y-84914223D01*
X53822638Y-84732426D01*
X53928655Y-84525979D01*
X53992359Y-84302816D01*
X56512841Y-84302816D01*
X56576545Y-84525979D01*
X56682562Y-84732426D01*
X56826817Y-84914223D01*
X57003767Y-85064385D01*
X57206613Y-85177140D01*
X57367856Y-85234803D01*
X57550600Y-85109361D01*
X57550600Y-84118000D01*
X57804600Y-84118000D01*
X57804600Y-85109361D01*
X57987344Y-85234803D01*
X58148587Y-85177140D01*
X58351433Y-85064385D01*
X58528383Y-84914223D01*
X58672638Y-84732426D01*
X58778655Y-84525979D01*
X58842359Y-84302816D01*
X58702404Y-84118000D01*
X57804600Y-84118000D01*
X57550600Y-84118000D01*
X56652796Y-84118000D01*
X56512841Y-84302816D01*
X53992359Y-84302816D01*
X53852404Y-84118000D01*
X52954600Y-84118000D01*
X52700600Y-84118000D01*
X51802796Y-84118000D01*
X51662841Y-84302816D01*
X44034400Y-84302816D01*
X44034400Y-83679184D01*
X51662841Y-83679184D01*
X51802796Y-83864000D01*
X52700600Y-83864000D01*
X52700600Y-82872639D01*
X52954600Y-82872639D01*
X52954600Y-83864000D01*
X53852404Y-83864000D01*
X53992359Y-83679184D01*
X56512841Y-83679184D01*
X56652796Y-83864000D01*
X57550600Y-83864000D01*
X57550600Y-82872639D01*
X57804600Y-82872639D01*
X57804600Y-83864000D01*
X58702404Y-83864000D01*
X58842359Y-83679184D01*
X58778655Y-83456021D01*
X58672638Y-83249574D01*
X58528383Y-83067777D01*
X58351433Y-82917615D01*
X58148587Y-82804860D01*
X57987344Y-82747197D01*
X57804600Y-82872639D01*
X57550600Y-82872639D01*
X57367856Y-82747197D01*
X57206613Y-82804860D01*
X57003767Y-82917615D01*
X56826817Y-83067777D01*
X56682562Y-83249574D01*
X56576545Y-83456021D01*
X56512841Y-83679184D01*
X53992359Y-83679184D01*
X53928655Y-83456021D01*
X53822638Y-83249574D01*
X53678383Y-83067777D01*
X53501433Y-82917615D01*
X53298587Y-82804860D01*
X53137344Y-82747197D01*
X52954600Y-82872639D01*
X52700600Y-82872639D01*
X52517856Y-82747197D01*
X52356613Y-82804860D01*
X52153767Y-82917615D01*
X51976817Y-83067777D01*
X51832562Y-83249574D01*
X51726545Y-83456021D01*
X51662841Y-83679184D01*
X44034400Y-83679184D01*
X44034400Y-81152124D01*
X44049571Y-81159504D01*
X44361108Y-81241184D01*
X44682595Y-81260518D01*
X45001675Y-81216761D01*
X45306088Y-81111595D01*
X45480044Y-81018614D01*
X45575808Y-80754213D01*
X50164192Y-80754213D01*
X50259956Y-81018614D01*
X50549571Y-81159504D01*
X50861108Y-81241184D01*
X51182595Y-81260518D01*
X51501675Y-81216761D01*
X51806088Y-81111595D01*
X51980044Y-81018614D01*
X52075808Y-80754213D01*
X51120000Y-79798405D01*
X50164192Y-80754213D01*
X45575808Y-80754213D01*
X44620000Y-79798405D01*
X44605858Y-79812548D01*
X44426253Y-79632943D01*
X44440395Y-79618800D01*
X44426253Y-79604658D01*
X44605858Y-79425053D01*
X44620000Y-79439195D01*
X44634143Y-79425053D01*
X44813748Y-79604658D01*
X44799605Y-79618800D01*
X45755413Y-80574608D01*
X46019814Y-80478844D01*
X46160704Y-80189229D01*
X46242384Y-79877692D01*
X46254189Y-79681395D01*
X49478282Y-79681395D01*
X49522039Y-80000475D01*
X49627205Y-80304888D01*
X49720186Y-80478844D01*
X49984587Y-80574608D01*
X50940395Y-79618800D01*
X51299605Y-79618800D01*
X52255413Y-80574608D01*
X52519814Y-80478844D01*
X52660704Y-80189229D01*
X52742384Y-79877692D01*
X52761718Y-79556205D01*
X52717961Y-79237125D01*
X52612795Y-78932712D01*
X52519814Y-78758756D01*
X52255413Y-78662992D01*
X51299605Y-79618800D01*
X50940395Y-79618800D01*
X49984587Y-78662992D01*
X49720186Y-78758756D01*
X49579296Y-79048371D01*
X49497616Y-79359908D01*
X49478282Y-79681395D01*
X46254189Y-79681395D01*
X46261718Y-79556205D01*
X46217961Y-79237125D01*
X46112795Y-78932712D01*
X46019814Y-78758756D01*
X45755415Y-78662993D01*
X45799636Y-78618772D01*
X45943900Y-78618772D01*
X46068382Y-78606512D01*
X46188080Y-78570202D01*
X46298394Y-78511237D01*
X46395085Y-78431885D01*
X46443900Y-78372404D01*
X46492715Y-78431885D01*
X46589406Y-78511237D01*
X46699720Y-78570202D01*
X46819418Y-78606512D01*
X46943900Y-78618772D01*
X47158150Y-78615700D01*
X47316900Y-78456950D01*
X47316900Y-77482700D01*
X47570900Y-77482700D01*
X47570900Y-78456950D01*
X47729650Y-78615700D01*
X47943900Y-78618772D01*
X48068382Y-78606512D01*
X48188080Y-78570202D01*
X48298394Y-78511237D01*
X48332329Y-78483387D01*
X50164192Y-78483387D01*
X51120000Y-79439195D01*
X52075808Y-78483387D01*
X51980044Y-78218986D01*
X51690429Y-78078096D01*
X51378892Y-77996416D01*
X51057405Y-77977082D01*
X50738325Y-78020839D01*
X50433912Y-78126005D01*
X50259956Y-78218986D01*
X50164192Y-78483387D01*
X48332329Y-78483387D01*
X48395085Y-78431885D01*
X48474437Y-78335194D01*
X48533402Y-78224880D01*
X48569712Y-78105182D01*
X48581972Y-77980700D01*
X48578900Y-77641450D01*
X48420150Y-77482700D01*
X47570900Y-77482700D01*
X47316900Y-77482700D01*
X47296900Y-77482700D01*
X47296900Y-77228700D01*
X47316900Y-77228700D01*
X47316900Y-76254450D01*
X47570900Y-76254450D01*
X47570900Y-77228700D01*
X48420150Y-77228700D01*
X48578900Y-77069950D01*
X48581972Y-76730700D01*
X48569712Y-76606218D01*
X48533402Y-76486520D01*
X48474437Y-76376206D01*
X48395085Y-76279515D01*
X48298394Y-76200163D01*
X48188080Y-76141198D01*
X48068382Y-76104888D01*
X47943900Y-76092628D01*
X47729650Y-76095700D01*
X47570900Y-76254450D01*
X47316900Y-76254450D01*
X47158150Y-76095700D01*
X46943900Y-76092628D01*
X46819418Y-76104888D01*
X46699720Y-76141198D01*
X46589406Y-76200163D01*
X46492715Y-76279515D01*
X46443900Y-76338996D01*
X46395085Y-76279515D01*
X46298394Y-76200163D01*
X46188080Y-76141198D01*
X46178900Y-76138413D01*
X46178900Y-75978805D01*
X46182456Y-75942700D01*
X46168265Y-75798615D01*
X46142840Y-75714800D01*
X46192168Y-75595712D01*
X46255000Y-75279833D01*
X46255000Y-74957767D01*
X46192168Y-74641888D01*
X46175822Y-74602425D01*
X46196092Y-74582155D01*
X46216906Y-74599237D01*
X46327220Y-74658202D01*
X46446918Y-74694512D01*
X46571400Y-74706772D01*
X47271400Y-74706772D01*
X47395882Y-74694512D01*
X47515580Y-74658202D01*
X47523580Y-74653926D01*
X48482646Y-75612993D01*
X48505662Y-75641038D01*
X48617580Y-75732887D01*
X48745267Y-75801137D01*
X48883815Y-75843165D01*
X49027900Y-75857356D01*
X49064005Y-75853800D01*
X49654736Y-75853800D01*
X49671082Y-75893263D01*
X49850013Y-76161052D01*
X50077748Y-76388787D01*
X50345537Y-76567718D01*
X50643088Y-76690968D01*
X50958967Y-76753800D01*
X51281033Y-76753800D01*
X51596912Y-76690968D01*
X51894463Y-76567718D01*
X52162252Y-76388787D01*
X52389987Y-76161052D01*
X52568918Y-75893263D01*
X52620186Y-75769492D01*
X54314700Y-77464043D01*
X54314700Y-77877195D01*
X54311144Y-77913300D01*
X54323711Y-78040900D01*
X54325335Y-78057384D01*
X54367363Y-78195932D01*
X54435613Y-78323619D01*
X54527462Y-78435537D01*
X54555508Y-78458554D01*
X54819183Y-78722230D01*
X54760498Y-78832020D01*
X54724188Y-78951718D01*
X54711928Y-79076200D01*
X54711928Y-80776200D01*
X54724188Y-80900682D01*
X54760498Y-81020380D01*
X54819463Y-81130694D01*
X54898815Y-81227385D01*
X54995506Y-81306737D01*
X55105820Y-81365702D01*
X55225518Y-81402012D01*
X55350000Y-81414272D01*
X57050000Y-81414272D01*
X57174482Y-81402012D01*
X57294180Y-81365702D01*
X57404494Y-81306737D01*
X57501185Y-81227385D01*
X57580537Y-81130694D01*
X57639502Y-81020380D01*
X57675812Y-80900682D01*
X57688072Y-80776200D01*
X57688072Y-79076200D01*
X57675812Y-78951718D01*
X57639502Y-78832020D01*
X57580537Y-78721706D01*
X57501185Y-78625015D01*
X57404494Y-78545663D01*
X57294180Y-78486698D01*
X57213534Y-78462234D01*
X57297588Y-78386469D01*
X57471641Y-78153120D01*
X57596825Y-77890299D01*
X57641476Y-77743090D01*
X57520155Y-77513200D01*
X56327000Y-77513200D01*
X56327000Y-77533200D01*
X56073000Y-77533200D01*
X56073000Y-77513200D01*
X56053000Y-77513200D01*
X56053000Y-77259200D01*
X56073000Y-77259200D01*
X56073000Y-77239200D01*
X56327000Y-77239200D01*
X56327000Y-77259200D01*
X57520155Y-77259200D01*
X57641476Y-77029310D01*
X57596825Y-76882101D01*
X57471641Y-76619280D01*
X57297588Y-76385931D01*
X57081355Y-76191022D01*
X56964466Y-76121395D01*
X57146632Y-75999675D01*
X57353475Y-75792832D01*
X57515990Y-75549611D01*
X57627932Y-75279358D01*
X57685000Y-74992460D01*
X57685000Y-74699940D01*
X57627932Y-74413042D01*
X57515990Y-74142789D01*
X57353475Y-73899568D01*
X57146632Y-73692725D01*
X56972240Y-73576200D01*
X57146632Y-73459675D01*
X57353475Y-73252832D01*
X57515990Y-73009611D01*
X57627932Y-72739358D01*
X57685000Y-72452460D01*
X57685000Y-72159940D01*
X57627932Y-71873042D01*
X57515990Y-71602789D01*
X57353475Y-71359568D01*
X57146632Y-71152725D01*
X56903411Y-70990210D01*
X56633158Y-70878268D01*
X56346260Y-70821200D01*
X56053740Y-70821200D01*
X55766842Y-70878268D01*
X55496589Y-70990210D01*
X55253368Y-71152725D01*
X55046525Y-71359568D01*
X54884010Y-71602789D01*
X54772068Y-71873042D01*
X54715000Y-72159940D01*
X54715000Y-72452460D01*
X54772068Y-72739358D01*
X54884010Y-73009611D01*
X55046525Y-73252832D01*
X55253368Y-73459675D01*
X55427760Y-73576200D01*
X55253368Y-73692725D01*
X55046525Y-73899568D01*
X54884010Y-74142789D01*
X54772068Y-74413042D01*
X54715000Y-74699940D01*
X54715000Y-74992460D01*
X54772068Y-75279358D01*
X54884010Y-75549611D01*
X55046525Y-75792832D01*
X55253368Y-75999675D01*
X55435534Y-76121395D01*
X55318645Y-76191022D01*
X55214474Y-76284920D01*
X51429741Y-72500106D01*
X51847493Y-72082354D01*
X51875538Y-72059338D01*
X51967387Y-71947420D01*
X51968128Y-71946033D01*
X52035637Y-71819734D01*
X52077665Y-71681185D01*
X52091856Y-71537100D01*
X52088300Y-71500995D01*
X52088300Y-71427700D01*
X52742795Y-71427700D01*
X52778900Y-71431256D01*
X52815005Y-71427700D01*
X52922985Y-71417065D01*
X53061533Y-71375037D01*
X53189220Y-71306787D01*
X53301138Y-71214938D01*
X53324159Y-71186888D01*
X54786441Y-69724606D01*
X54969908Y-69761100D01*
X55245092Y-69761100D01*
X55514990Y-69707414D01*
X55769227Y-69602105D01*
X55998035Y-69449220D01*
X56192620Y-69254635D01*
X56345505Y-69025827D01*
X56450814Y-68771590D01*
X56504500Y-68501692D01*
X56504500Y-68226508D01*
X56468006Y-68043040D01*
X57539697Y-66971350D01*
X57567737Y-66948338D01*
X57590750Y-66920297D01*
X57590753Y-66920294D01*
X57647918Y-66850638D01*
X57659587Y-66836420D01*
X57727837Y-66708733D01*
X57769865Y-66570185D01*
X57780500Y-66462205D01*
X57780500Y-66462204D01*
X57784056Y-66426100D01*
X57780500Y-66389995D01*
X57780500Y-32596105D01*
X57784056Y-32560000D01*
X57769865Y-32415915D01*
X57727837Y-32277366D01*
X57659587Y-32149680D01*
X57590753Y-32065806D01*
X57567738Y-32037762D01*
X57539693Y-32014746D01*
X53295768Y-27770822D01*
X53349682Y-27765512D01*
X53469380Y-27729202D01*
X53579694Y-27670237D01*
X53676385Y-27590885D01*
X53755737Y-27494194D01*
X53814702Y-27383880D01*
X53851012Y-27264182D01*
X53854901Y-27224700D01*
X54294154Y-27224700D01*
X54444170Y-27374716D01*
X54451239Y-27384580D01*
X54495290Y-27425836D01*
X54512307Y-27442853D01*
X54521626Y-27450501D01*
X54556913Y-27483549D01*
X54577470Y-27496331D01*
X54596181Y-27511687D01*
X54638819Y-27534478D01*
X54679865Y-27560000D01*
X54702513Y-27568523D01*
X54723866Y-27579937D01*
X54770134Y-27593972D01*
X54815369Y-27610996D01*
X54839250Y-27614938D01*
X54862415Y-27621965D01*
X54910525Y-27626703D01*
X54958218Y-27634576D01*
X54982409Y-27633783D01*
X55006500Y-27636156D01*
X55054616Y-27631417D01*
X55102922Y-27629834D01*
X55126489Y-27624338D01*
X55150585Y-27621965D01*
X55196858Y-27607928D01*
X55243922Y-27596953D01*
X55265964Y-27586965D01*
X55289133Y-27579937D01*
X55331774Y-27557145D01*
X55342751Y-27552171D01*
X55360013Y-27542204D01*
X55442490Y-27685059D01*
X55515349Y-27786733D01*
X55606643Y-27872240D01*
X55712865Y-27938292D01*
X55829932Y-27982353D01*
X55953345Y-28002729D01*
X56078362Y-27998636D01*
X56200178Y-27970233D01*
X56314113Y-27918610D01*
X57872959Y-27018610D01*
X57974633Y-26945751D01*
X58060140Y-26854457D01*
X58126192Y-26748235D01*
X58170253Y-26631168D01*
X58190629Y-26507755D01*
X58186536Y-26382738D01*
X58158133Y-26260922D01*
X58106510Y-26146987D01*
X57206510Y-24588141D01*
X57133651Y-24486467D01*
X57042357Y-24400960D01*
X56936135Y-24334908D01*
X56819068Y-24290847D01*
X56695655Y-24270471D01*
X56570638Y-24274564D01*
X56448822Y-24302967D01*
X56334887Y-24354590D01*
X54776041Y-25254590D01*
X54674367Y-25327449D01*
X54588860Y-25418743D01*
X54522808Y-25524965D01*
X54478747Y-25642032D01*
X54460145Y-25754700D01*
X53854901Y-25754700D01*
X53851012Y-25715218D01*
X53814702Y-25595520D01*
X53755737Y-25485206D01*
X53676385Y-25388515D01*
X53579694Y-25309163D01*
X53469380Y-25250198D01*
X53349682Y-25213888D01*
X53225200Y-25201628D01*
X52525200Y-25201628D01*
X52400718Y-25213888D01*
X52281020Y-25250198D01*
X52273020Y-25254474D01*
X52063758Y-25045212D01*
X52040738Y-25017162D01*
X51928820Y-24925313D01*
X51801133Y-24857063D01*
X51662585Y-24815035D01*
X51554605Y-24804400D01*
X51518500Y-24800844D01*
X51482395Y-24804400D01*
X50491605Y-24804400D01*
X50455500Y-24800844D01*
X50419395Y-24804400D01*
X50311415Y-24815035D01*
X50172867Y-24857063D01*
X50045180Y-24925313D01*
X49933262Y-25017162D01*
X49910246Y-25045207D01*
X38991154Y-35964300D01*
X28845847Y-35964300D01*
X29275075Y-35535072D01*
X30173700Y-35535072D01*
X30298182Y-35522812D01*
X30417880Y-35486502D01*
X30528194Y-35427537D01*
X30624885Y-35348185D01*
X30704237Y-35251494D01*
X30763202Y-35141180D01*
X30799512Y-35021482D01*
X30811772Y-34897000D01*
X30811772Y-33595000D01*
X32256315Y-33595000D01*
X32290115Y-33636185D01*
X32386806Y-33715537D01*
X32497120Y-33774502D01*
X32616818Y-33810812D01*
X32741300Y-33823072D01*
X33801300Y-33823072D01*
X33925782Y-33810812D01*
X34045480Y-33774502D01*
X34155794Y-33715537D01*
X34252485Y-33636185D01*
X34311363Y-33564442D01*
X34384233Y-33542337D01*
X34406050Y-33530676D01*
X34410763Y-33539494D01*
X34490115Y-33636185D01*
X34586806Y-33715537D01*
X34697120Y-33774502D01*
X34816818Y-33810812D01*
X34941300Y-33823072D01*
X36001300Y-33823072D01*
X36125782Y-33810812D01*
X36245480Y-33774502D01*
X36355794Y-33715537D01*
X36452485Y-33636185D01*
X36511363Y-33564442D01*
X36584233Y-33542337D01*
X36711920Y-33474087D01*
X36823838Y-33382238D01*
X36915687Y-33270320D01*
X36983937Y-33142633D01*
X37025965Y-33004085D01*
X37040156Y-32860000D01*
X37036600Y-32823895D01*
X37036600Y-31187046D01*
X41408493Y-26815154D01*
X41436538Y-26792138D01*
X41528387Y-26680220D01*
X41568713Y-26604775D01*
X41663782Y-26595412D01*
X41783480Y-26559102D01*
X41893794Y-26500137D01*
X41990485Y-26420785D01*
X42069837Y-26324094D01*
X42128802Y-26213780D01*
X42165112Y-26094082D01*
X42177372Y-25969600D01*
X42177372Y-25832200D01*
X43865268Y-25832200D01*
X44011880Y-25978812D01*
X44197776Y-26103024D01*
X44404333Y-26188583D01*
X44623612Y-26232200D01*
X44847188Y-26232200D01*
X45066467Y-26188583D01*
X45273024Y-26103024D01*
X45458920Y-25978812D01*
X45617012Y-25820720D01*
X45741224Y-25634824D01*
X45826783Y-25428267D01*
X45870400Y-25208988D01*
X45870400Y-24985412D01*
X45826783Y-24766133D01*
X45741224Y-24559576D01*
X45617012Y-24373680D01*
X45458920Y-24215588D01*
X45273024Y-24091376D01*
X45066467Y-24005817D01*
X44847188Y-23962200D01*
X44623612Y-23962200D01*
X44404333Y-24005817D01*
X44197776Y-24091376D01*
X44011880Y-24215588D01*
X43865268Y-24362200D01*
X42038564Y-24362200D01*
X42069837Y-24324094D01*
X42128802Y-24213780D01*
X42165112Y-24094082D01*
X42177372Y-23969600D01*
X42174300Y-23755350D01*
X42015550Y-23596600D01*
X41041300Y-23596600D01*
X41041300Y-23616600D01*
X40787300Y-23616600D01*
X40787300Y-23596600D01*
X39813050Y-23596600D01*
X39654300Y-23755350D01*
X39651228Y-23969600D01*
X39663488Y-24094082D01*
X39699798Y-24213780D01*
X39758763Y-24324094D01*
X39838115Y-24420785D01*
X39897596Y-24469600D01*
X39838115Y-24518415D01*
X39758763Y-24615106D01*
X39699798Y-24725420D01*
X39663488Y-24845118D01*
X39651228Y-24969600D01*
X39651228Y-25969600D01*
X39663488Y-26094082D01*
X39699798Y-26213780D01*
X39758763Y-26324094D01*
X39786663Y-26358090D01*
X36133289Y-30011465D01*
X36125782Y-30009188D01*
X36001300Y-29996928D01*
X35689018Y-29996928D01*
X38751697Y-26934249D01*
X38779737Y-26911238D01*
X38802750Y-26883197D01*
X38802753Y-26883194D01*
X38871586Y-26799321D01*
X38871587Y-26799320D01*
X38939837Y-26671633D01*
X38968513Y-26577101D01*
X39006982Y-26573312D01*
X39126680Y-26537002D01*
X39236994Y-26478037D01*
X39333685Y-26398685D01*
X39413037Y-26301994D01*
X39472002Y-26191680D01*
X39508312Y-26071982D01*
X39520572Y-25947500D01*
X39520572Y-24947500D01*
X39508312Y-24823018D01*
X39472002Y-24703320D01*
X39413037Y-24593006D01*
X39333685Y-24496315D01*
X39274204Y-24447500D01*
X39333685Y-24398685D01*
X39413037Y-24301994D01*
X39472002Y-24191680D01*
X39508312Y-24071982D01*
X39520572Y-23947500D01*
X39517500Y-23733250D01*
X39358750Y-23574500D01*
X38384500Y-23574500D01*
X38384500Y-23594500D01*
X38130500Y-23594500D01*
X38130500Y-23574500D01*
X37156250Y-23574500D01*
X36997500Y-23733250D01*
X36994428Y-23947500D01*
X37006688Y-24071982D01*
X37042998Y-24191680D01*
X37101963Y-24301994D01*
X37181315Y-24398685D01*
X37240796Y-24447500D01*
X37181315Y-24496315D01*
X37101963Y-24593006D01*
X37042998Y-24703320D01*
X37006688Y-24823018D01*
X36994428Y-24947500D01*
X36994428Y-25947500D01*
X37006688Y-26071982D01*
X37042998Y-26191680D01*
X37101963Y-26301994D01*
X37181315Y-26398685D01*
X37196174Y-26410879D01*
X33610126Y-29996928D01*
X32741300Y-29996928D01*
X32616818Y-30009188D01*
X32497120Y-30045498D01*
X32386806Y-30104463D01*
X32290115Y-30183815D01*
X32210763Y-30280506D01*
X32151798Y-30390820D01*
X32115488Y-30510518D01*
X32103228Y-30635000D01*
X32103228Y-31285000D01*
X32115488Y-31409482D01*
X32123229Y-31435000D01*
X32115488Y-31460518D01*
X32103228Y-31585000D01*
X32106300Y-31624250D01*
X32265050Y-31783000D01*
X32347159Y-31783000D01*
X32386806Y-31815537D01*
X32497120Y-31874502D01*
X32614141Y-31910000D01*
X32497120Y-31945498D01*
X32386806Y-32004463D01*
X32347159Y-32037000D01*
X32265050Y-32037000D01*
X32177050Y-32125000D01*
X29018100Y-32125000D01*
X29018100Y-30653345D01*
X29173635Y-30549420D01*
X29368220Y-30354835D01*
X29521105Y-30126027D01*
X29626414Y-29871790D01*
X29680100Y-29601892D01*
X29680100Y-29326708D01*
X29626414Y-29056810D01*
X29521105Y-28802573D01*
X29368220Y-28573765D01*
X29173635Y-28379180D01*
X28944827Y-28226295D01*
X28868505Y-28194681D01*
X28876123Y-28191936D01*
X28992080Y-28129956D01*
X29059060Y-27889865D01*
X28273100Y-27103905D01*
X27487140Y-27889865D01*
X27554120Y-28129956D01*
X27694543Y-28195987D01*
X27621373Y-28226295D01*
X27392565Y-28379180D01*
X27197980Y-28573765D01*
X27045095Y-28802573D01*
X26939786Y-29056810D01*
X26886100Y-29326708D01*
X26886100Y-29601892D01*
X26939786Y-29871790D01*
X27045095Y-30126027D01*
X27197980Y-30354835D01*
X27392565Y-30549420D01*
X27548100Y-30653346D01*
X27548101Y-32782800D01*
X27528194Y-32766463D01*
X27417880Y-32707498D01*
X27298182Y-32671188D01*
X27173700Y-32658928D01*
X26173700Y-32658928D01*
X26049218Y-32671188D01*
X25929520Y-32707498D01*
X25819206Y-32766463D01*
X25722515Y-32845815D01*
X25643163Y-32942506D01*
X25584198Y-33052820D01*
X25547888Y-33172518D01*
X25535628Y-33297000D01*
X25535628Y-33444135D01*
X25479592Y-33474087D01*
X25463080Y-33482913D01*
X25351162Y-33574762D01*
X25328146Y-33602807D01*
X23992108Y-34938846D01*
X23964062Y-34961863D01*
X23872213Y-35073781D01*
X23803963Y-35201468D01*
X23789247Y-35249980D01*
X23761935Y-35340015D01*
X23747744Y-35484100D01*
X23252694Y-35484100D01*
X23229013Y-26996317D01*
X26871190Y-26996317D01*
X26912178Y-27268433D01*
X27005464Y-27527323D01*
X27067444Y-27643280D01*
X27307535Y-27710260D01*
X28093495Y-26924300D01*
X28452705Y-26924300D01*
X29238665Y-27710260D01*
X29478756Y-27643280D01*
X29595856Y-27394252D01*
X29662123Y-27127165D01*
X29675010Y-26852283D01*
X29634022Y-26580167D01*
X29540736Y-26321277D01*
X29478756Y-26205320D01*
X29238665Y-26138340D01*
X28452705Y-26924300D01*
X28093495Y-26924300D01*
X27307535Y-26138340D01*
X27067444Y-26205320D01*
X26950344Y-26454348D01*
X26884077Y-26721435D01*
X26871190Y-26996317D01*
X23229013Y-26996317D01*
X23226118Y-25958735D01*
X27487140Y-25958735D01*
X28273100Y-26744695D01*
X29059060Y-25958735D01*
X28992080Y-25718644D01*
X28743052Y-25601544D01*
X28475965Y-25535277D01*
X28201083Y-25522390D01*
X27928967Y-25563378D01*
X27670077Y-25656664D01*
X27554120Y-25718644D01*
X27487140Y-25958735D01*
X23226118Y-25958735D01*
X23212629Y-21124380D01*
X23456300Y-21124380D01*
X23456300Y-21461220D01*
X23522014Y-21791589D01*
X23650918Y-22102789D01*
X23838056Y-22382861D01*
X24076239Y-22621044D01*
X24356311Y-22808182D01*
X24667511Y-22937086D01*
X24997880Y-23002800D01*
X25334720Y-23002800D01*
X25665089Y-22937086D01*
X25976289Y-22808182D01*
X26256361Y-22621044D01*
X26494544Y-22382861D01*
X26681682Y-22102789D01*
X26810586Y-21791589D01*
X26876300Y-21461220D01*
X26876300Y-21124380D01*
X26819754Y-20840100D01*
X27350428Y-20840100D01*
X27362688Y-20964582D01*
X27398998Y-21084280D01*
X27457963Y-21194594D01*
X27537315Y-21291285D01*
X27634006Y-21370637D01*
X27744320Y-21429602D01*
X27778927Y-21440100D01*
X27744320Y-21450598D01*
X27634006Y-21509563D01*
X27537315Y-21588915D01*
X27457963Y-21685606D01*
X27398998Y-21795920D01*
X27362688Y-21915618D01*
X27350428Y-22040100D01*
X27350428Y-22740100D01*
X27362688Y-22864582D01*
X27398998Y-22984280D01*
X27457963Y-23094594D01*
X27537315Y-23191285D01*
X27634006Y-23270637D01*
X27744320Y-23329602D01*
X27864018Y-23365912D01*
X27985477Y-23377874D01*
X28024414Y-23450720D01*
X28116263Y-23562638D01*
X28144308Y-23585654D01*
X28571540Y-24012887D01*
X28527117Y-24120133D01*
X28483500Y-24339412D01*
X28483500Y-24562988D01*
X28527117Y-24782267D01*
X28612676Y-24988824D01*
X28736888Y-25174720D01*
X28894980Y-25332812D01*
X29080876Y-25457024D01*
X29287433Y-25542583D01*
X29506712Y-25586200D01*
X29730288Y-25586200D01*
X29949567Y-25542583D01*
X30156124Y-25457024D01*
X30342020Y-25332812D01*
X30500112Y-25174720D01*
X30624324Y-24988824D01*
X30709883Y-24782267D01*
X30753500Y-24562988D01*
X30753500Y-24339412D01*
X30709883Y-24120133D01*
X30624324Y-23913576D01*
X30500112Y-23727680D01*
X30342020Y-23569588D01*
X30156124Y-23445376D01*
X30031162Y-23393615D01*
X29779868Y-23142322D01*
X29819037Y-23094594D01*
X29878002Y-22984280D01*
X29889159Y-22947500D01*
X36994428Y-22947500D01*
X36997500Y-23161750D01*
X37156250Y-23320500D01*
X38130500Y-23320500D01*
X38130500Y-22471250D01*
X38384500Y-22471250D01*
X38384500Y-23320500D01*
X39358750Y-23320500D01*
X39517500Y-23161750D01*
X39520255Y-22969600D01*
X39651228Y-22969600D01*
X39654300Y-23183850D01*
X39813050Y-23342600D01*
X40787300Y-23342600D01*
X40787300Y-22493350D01*
X41041300Y-22493350D01*
X41041300Y-23342600D01*
X42015550Y-23342600D01*
X42174300Y-23183850D01*
X42177372Y-22969600D01*
X42165112Y-22845118D01*
X42128802Y-22725420D01*
X42069837Y-22615106D01*
X42002186Y-22532672D01*
X52660686Y-22532672D01*
X52675591Y-22798586D01*
X52903966Y-22994529D01*
X53166180Y-23142153D01*
X53452156Y-23235786D01*
X53750903Y-23271828D01*
X54050941Y-23248894D01*
X54214144Y-23210836D01*
X54359704Y-22987473D01*
X53738015Y-21910676D01*
X52660686Y-22532672D01*
X42002186Y-22532672D01*
X41990485Y-22518415D01*
X41893794Y-22439063D01*
X41783480Y-22380098D01*
X41663782Y-22343788D01*
X41539300Y-22331528D01*
X41200050Y-22334600D01*
X41041300Y-22493350D01*
X40787300Y-22493350D01*
X40628550Y-22334600D01*
X40289300Y-22331528D01*
X40164818Y-22343788D01*
X40045120Y-22380098D01*
X39934806Y-22439063D01*
X39838115Y-22518415D01*
X39758763Y-22615106D01*
X39699798Y-22725420D01*
X39663488Y-22845118D01*
X39651228Y-22969600D01*
X39520255Y-22969600D01*
X39520572Y-22947500D01*
X39508312Y-22823018D01*
X39472002Y-22703320D01*
X39413037Y-22593006D01*
X39333685Y-22496315D01*
X39236994Y-22416963D01*
X39126680Y-22357998D01*
X39006982Y-22321688D01*
X38882500Y-22309428D01*
X38543250Y-22312500D01*
X38384500Y-22471250D01*
X38130500Y-22471250D01*
X37971750Y-22312500D01*
X37632500Y-22309428D01*
X37508018Y-22321688D01*
X37388320Y-22357998D01*
X37278006Y-22416963D01*
X37181315Y-22496315D01*
X37101963Y-22593006D01*
X37042998Y-22703320D01*
X37006688Y-22823018D01*
X36994428Y-22947500D01*
X29889159Y-22947500D01*
X29914312Y-22864582D01*
X29926572Y-22740100D01*
X29926572Y-22040100D01*
X29914312Y-21915618D01*
X29878002Y-21795920D01*
X29819037Y-21685606D01*
X29739685Y-21588915D01*
X29642994Y-21509563D01*
X29532680Y-21450598D01*
X29498073Y-21440100D01*
X29532680Y-21429602D01*
X29642994Y-21370637D01*
X29707087Y-21318037D01*
X44247500Y-21318037D01*
X44247500Y-21531763D01*
X44289196Y-21741383D01*
X44370985Y-21938840D01*
X44489725Y-22116547D01*
X44640853Y-22267675D01*
X44818560Y-22386415D01*
X45016017Y-22468204D01*
X45225637Y-22509900D01*
X45439363Y-22509900D01*
X45648983Y-22468204D01*
X45846440Y-22386415D01*
X46024147Y-22267675D01*
X46175275Y-22116547D01*
X46294015Y-21938840D01*
X46375804Y-21741383D01*
X46417500Y-21531763D01*
X46417500Y-21318037D01*
X47247500Y-21318037D01*
X47247500Y-21531763D01*
X47289196Y-21741383D01*
X47370985Y-21938840D01*
X47489725Y-22116547D01*
X47640853Y-22267675D01*
X47818560Y-22386415D01*
X48016017Y-22468204D01*
X48225637Y-22509900D01*
X48439363Y-22509900D01*
X48648983Y-22468204D01*
X48846440Y-22386415D01*
X49024147Y-22267675D01*
X49175275Y-22116547D01*
X49294015Y-21938840D01*
X49322079Y-21871087D01*
X52255346Y-21871087D01*
X52310850Y-22166837D01*
X52533686Y-22312702D01*
X53449986Y-21783676D01*
X53957985Y-21783676D01*
X54579674Y-22860473D01*
X54845892Y-22846096D01*
X54960453Y-22723787D01*
X55130333Y-22475414D01*
X55248493Y-22198670D01*
X55310393Y-21904191D01*
X55313654Y-21603295D01*
X55258150Y-21307545D01*
X55035314Y-21161680D01*
X53957985Y-21783676D01*
X53449986Y-21783676D01*
X53611015Y-21690706D01*
X52989326Y-20613909D01*
X52723108Y-20628286D01*
X52608547Y-20750595D01*
X52438667Y-20998968D01*
X52320507Y-21275712D01*
X52258607Y-21570191D01*
X52255346Y-21871087D01*
X49322079Y-21871087D01*
X49375804Y-21741383D01*
X49417500Y-21531763D01*
X49417500Y-21318037D01*
X49375804Y-21108417D01*
X49294015Y-20910960D01*
X49175275Y-20733253D01*
X49024147Y-20582125D01*
X48881647Y-20486909D01*
X53209296Y-20486909D01*
X53830985Y-21563706D01*
X54908314Y-20941710D01*
X54893409Y-20675796D01*
X54665034Y-20479853D01*
X54402820Y-20332229D01*
X54116844Y-20238596D01*
X53818097Y-20202554D01*
X53518059Y-20225488D01*
X53354856Y-20263546D01*
X53209296Y-20486909D01*
X48881647Y-20486909D01*
X48846440Y-20463385D01*
X48648983Y-20381596D01*
X48439363Y-20339900D01*
X48225637Y-20339900D01*
X48016017Y-20381596D01*
X47818560Y-20463385D01*
X47640853Y-20582125D01*
X47489725Y-20733253D01*
X47370985Y-20910960D01*
X47289196Y-21108417D01*
X47247500Y-21318037D01*
X46417500Y-21318037D01*
X46375804Y-21108417D01*
X46294015Y-20910960D01*
X46175275Y-20733253D01*
X46024147Y-20582125D01*
X45846440Y-20463385D01*
X45648983Y-20381596D01*
X45439363Y-20339900D01*
X45225637Y-20339900D01*
X45016017Y-20381596D01*
X44818560Y-20463385D01*
X44640853Y-20582125D01*
X44489725Y-20733253D01*
X44370985Y-20910960D01*
X44289196Y-21108417D01*
X44247500Y-21318037D01*
X29707087Y-21318037D01*
X29739685Y-21291285D01*
X29819037Y-21194594D01*
X29878002Y-21084280D01*
X29914312Y-20964582D01*
X29926572Y-20840100D01*
X29923500Y-20775850D01*
X29764750Y-20617100D01*
X28765500Y-20617100D01*
X28765500Y-20637100D01*
X28511500Y-20637100D01*
X28511500Y-20617100D01*
X27512250Y-20617100D01*
X27353500Y-20775850D01*
X27350428Y-20840100D01*
X26819754Y-20840100D01*
X26810586Y-20794011D01*
X26681682Y-20482811D01*
X26494544Y-20202739D01*
X26256361Y-19964556D01*
X25976289Y-19777418D01*
X25665089Y-19648514D01*
X25334720Y-19582800D01*
X24997880Y-19582800D01*
X24667511Y-19648514D01*
X24356311Y-19777418D01*
X24076239Y-19964556D01*
X23838056Y-20202739D01*
X23650918Y-20482811D01*
X23522014Y-20794011D01*
X23456300Y-21124380D01*
X23212629Y-21124380D01*
X23208307Y-19575657D01*
X27708427Y-19569783D01*
X27634006Y-19609563D01*
X27537315Y-19688915D01*
X27457963Y-19785606D01*
X27398998Y-19895920D01*
X27362688Y-20015618D01*
X27350428Y-20140100D01*
X27353500Y-20204350D01*
X27512250Y-20363100D01*
X28511500Y-20363100D01*
X28511500Y-20343100D01*
X28765500Y-20343100D01*
X28765500Y-20363100D01*
X29764750Y-20363100D01*
X29923500Y-20204350D01*
X29926572Y-20140100D01*
X29914312Y-20015618D01*
X29878002Y-19895920D01*
X29819037Y-19785606D01*
X29739685Y-19688915D01*
X29642994Y-19609563D01*
X29564042Y-19567361D01*
X57237990Y-19531241D01*
X57109611Y-19584418D01*
X56829539Y-19771556D01*
X56591356Y-20009739D01*
X56404218Y-20289811D01*
X56275314Y-20601011D01*
X56209600Y-20931380D01*
X56209600Y-21268220D01*
X56275314Y-21598589D01*
X56404218Y-21909789D01*
X56591356Y-22189861D01*
X56829539Y-22428044D01*
X57109611Y-22615182D01*
X57420811Y-22744086D01*
X57751180Y-22809800D01*
X58088020Y-22809800D01*
X58418389Y-22744086D01*
X58729589Y-22615182D01*
X59009661Y-22428044D01*
X59247844Y-22189861D01*
X59434982Y-21909789D01*
X59563886Y-21598589D01*
X59629600Y-21268220D01*
X59629600Y-20931380D01*
X59563886Y-20601011D01*
X59434982Y-20289811D01*
X59247844Y-20009739D01*
X59009661Y-19771556D01*
X58729589Y-19584418D01*
X58596928Y-19529468D01*
X59961191Y-19527687D01*
X59656835Y-85423291D01*
G37*
G04 #@! TD.AperFunction*
D32*
X53710500Y-60881692D02*
X53764186Y-61151590D01*
X53869495Y-61405827D01*
X54022380Y-61634635D01*
X54216965Y-61829220D01*
X54445773Y-61982105D01*
X54523015Y-62014100D01*
X54445773Y-62046095D01*
X54216965Y-62198980D01*
X54022380Y-62393565D01*
X53869495Y-62622373D01*
X53764186Y-62876610D01*
X53710500Y-63146508D01*
X53710500Y-63421692D01*
X53764186Y-63691590D01*
X53869495Y-63945827D01*
X54022380Y-64174635D01*
X54216965Y-64369220D01*
X54445773Y-64522105D01*
X54517443Y-64551792D01*
X54504477Y-64556464D01*
X54388520Y-64618444D01*
X54321540Y-64858535D01*
X55107500Y-65644495D01*
X55893460Y-64858535D01*
X55826480Y-64618444D01*
X55690740Y-64554615D01*
X55769227Y-64522105D01*
X55998035Y-64369220D01*
X56192620Y-64174635D01*
X56310500Y-63998215D01*
X56310500Y-65104379D01*
X56073065Y-65038140D01*
X55287105Y-65824100D01*
X55301248Y-65838243D01*
X55121643Y-66017848D01*
X55107500Y-66003705D01*
X54321540Y-66789665D01*
X54388520Y-67029756D01*
X54524260Y-67093585D01*
X54445773Y-67126095D01*
X54216965Y-67278980D01*
X54022380Y-67473565D01*
X53869495Y-67702373D01*
X53764186Y-67956610D01*
X53710500Y-68226508D01*
X53710500Y-68501692D01*
X53746994Y-68685159D01*
X52474454Y-69957700D01*
X51657747Y-69957700D01*
X47596164Y-65896117D01*
X53705590Y-65896117D01*
X53746578Y-66168233D01*
X53839864Y-66427123D01*
X53901844Y-66543080D01*
X54141935Y-66610060D01*
X54927895Y-65824100D01*
X54141935Y-65038140D01*
X53901844Y-65105120D01*
X53784744Y-65354148D01*
X53718477Y-65621235D01*
X53705590Y-65896117D01*
X47596164Y-65896117D01*
X43707659Y-62007613D01*
X43684638Y-61979562D01*
X43572720Y-61887713D01*
X43489121Y-61843029D01*
X43497100Y-61835050D01*
X43484358Y-61737623D01*
X43484259Y-61737325D01*
X43487912Y-61725282D01*
X43500172Y-61600800D01*
X43500172Y-61370800D01*
X43487912Y-61246318D01*
X43483508Y-61231800D01*
X43487912Y-61217282D01*
X43500172Y-61092800D01*
X43500172Y-60862800D01*
X43487912Y-60738318D01*
X43484259Y-60726275D01*
X43484358Y-60725977D01*
X43488174Y-60696800D01*
X53710500Y-60696800D01*
X53710500Y-60881692D01*
G04 #@! TA.AperFunction,Conductor*
D33*
G36*
X53710500Y-60881692D02*
G01*
X53764186Y-61151590D01*
X53869495Y-61405827D01*
X54022380Y-61634635D01*
X54216965Y-61829220D01*
X54445773Y-61982105D01*
X54523015Y-62014100D01*
X54445773Y-62046095D01*
X54216965Y-62198980D01*
X54022380Y-62393565D01*
X53869495Y-62622373D01*
X53764186Y-62876610D01*
X53710500Y-63146508D01*
X53710500Y-63421692D01*
X53764186Y-63691590D01*
X53869495Y-63945827D01*
X54022380Y-64174635D01*
X54216965Y-64369220D01*
X54445773Y-64522105D01*
X54517443Y-64551792D01*
X54504477Y-64556464D01*
X54388520Y-64618444D01*
X54321540Y-64858535D01*
X55107500Y-65644495D01*
X55893460Y-64858535D01*
X55826480Y-64618444D01*
X55690740Y-64554615D01*
X55769227Y-64522105D01*
X55998035Y-64369220D01*
X56192620Y-64174635D01*
X56310500Y-63998215D01*
X56310500Y-65104379D01*
X56073065Y-65038140D01*
X55287105Y-65824100D01*
X55301248Y-65838243D01*
X55121643Y-66017848D01*
X55107500Y-66003705D01*
X54321540Y-66789665D01*
X54388520Y-67029756D01*
X54524260Y-67093585D01*
X54445773Y-67126095D01*
X54216965Y-67278980D01*
X54022380Y-67473565D01*
X53869495Y-67702373D01*
X53764186Y-67956610D01*
X53710500Y-68226508D01*
X53710500Y-68501692D01*
X53746994Y-68685159D01*
X52474454Y-69957700D01*
X51657747Y-69957700D01*
X47596164Y-65896117D01*
X53705590Y-65896117D01*
X53746578Y-66168233D01*
X53839864Y-66427123D01*
X53901844Y-66543080D01*
X54141935Y-66610060D01*
X54927895Y-65824100D01*
X54141935Y-65038140D01*
X53901844Y-65105120D01*
X53784744Y-65354148D01*
X53718477Y-65621235D01*
X53705590Y-65896117D01*
X47596164Y-65896117D01*
X43707659Y-62007613D01*
X43684638Y-61979562D01*
X43572720Y-61887713D01*
X43489121Y-61843029D01*
X43497100Y-61835050D01*
X43484358Y-61737623D01*
X43484259Y-61737325D01*
X43487912Y-61725282D01*
X43500172Y-61600800D01*
X43500172Y-61370800D01*
X43487912Y-61246318D01*
X43483508Y-61231800D01*
X43487912Y-61217282D01*
X43500172Y-61092800D01*
X43500172Y-60862800D01*
X43487912Y-60738318D01*
X43484259Y-60726275D01*
X43484358Y-60725977D01*
X43488174Y-60696800D01*
X53710500Y-60696800D01*
X53710500Y-60881692D01*
G37*
G04 #@! TD.AperFunction*
D32*
X37279923Y-64894058D02*
X37309100Y-64897874D01*
X37309100Y-65898695D01*
X37305544Y-65934800D01*
X37313520Y-66015780D01*
X37319735Y-66078884D01*
X37361763Y-66217432D01*
X37430013Y-66345119D01*
X37521862Y-66457037D01*
X37549908Y-66480054D01*
X38466401Y-67396548D01*
X38466401Y-68142354D01*
X37255100Y-66931054D01*
X37255100Y-64898841D01*
X37267582Y-64897612D01*
X37279625Y-64893959D01*
X37279923Y-64894058D01*
G04 #@! TA.AperFunction,Conductor*
D33*
G36*
X37279923Y-64894058D02*
G01*
X37309100Y-64897874D01*
X37309100Y-65898695D01*
X37305544Y-65934800D01*
X37313520Y-66015780D01*
X37319735Y-66078884D01*
X37361763Y-66217432D01*
X37430013Y-66345119D01*
X37521862Y-66457037D01*
X37549908Y-66480054D01*
X38466401Y-67396548D01*
X38466401Y-68142354D01*
X37255100Y-66931054D01*
X37255100Y-64898841D01*
X37267582Y-64897612D01*
X37279625Y-64893959D01*
X37279923Y-64894058D01*
G37*
G04 #@! TD.AperFunction*
D32*
X49987128Y-27139700D02*
X49999388Y-27264182D01*
X50035698Y-27383880D01*
X50094663Y-27494194D01*
X50174015Y-27590885D01*
X50270706Y-27670237D01*
X50381020Y-27729202D01*
X50500718Y-27765512D01*
X50625200Y-27777772D01*
X51223826Y-27777772D01*
X56310501Y-32864448D01*
X56310501Y-45987099D01*
X55759350Y-45990100D01*
X55600600Y-46148850D01*
X55600600Y-47348100D01*
X55620600Y-47348100D01*
X55620600Y-47602100D01*
X55600600Y-47602100D01*
X55600600Y-47622100D01*
X55346600Y-47622100D01*
X55346600Y-47602100D01*
X54147350Y-47602100D01*
X53988600Y-47760850D01*
X53985528Y-48325100D01*
X53997788Y-48449582D01*
X54034098Y-48569280D01*
X54093063Y-48679594D01*
X54172415Y-48776285D01*
X54269106Y-48855637D01*
X54379420Y-48914602D01*
X54451980Y-48936613D01*
X54320125Y-49068468D01*
X54157610Y-49311689D01*
X54045668Y-49581942D01*
X53988600Y-49868840D01*
X53988600Y-50161360D01*
X54045668Y-50448258D01*
X54157610Y-50718511D01*
X54320125Y-50961732D01*
X54526968Y-51168575D01*
X54701360Y-51285100D01*
X54526968Y-51401625D01*
X54320125Y-51608468D01*
X54167193Y-51837347D01*
X52774400Y-50444554D01*
X52774400Y-46625100D01*
X53985528Y-46625100D01*
X53988600Y-47189350D01*
X54147350Y-47348100D01*
X55346600Y-47348100D01*
X55346600Y-46148850D01*
X55187850Y-45990100D01*
X54623600Y-45987028D01*
X54499118Y-45999288D01*
X54379420Y-46035598D01*
X54269106Y-46094563D01*
X54172415Y-46173915D01*
X54093063Y-46270606D01*
X54034098Y-46380920D01*
X53997788Y-46500618D01*
X53985528Y-46625100D01*
X52774400Y-46625100D01*
X52774400Y-43321772D01*
X53049400Y-43321772D01*
X53113011Y-43318593D01*
X53122932Y-43317599D01*
X53246608Y-43292673D01*
X53255978Y-43289796D01*
X53371410Y-43241520D01*
X53380038Y-43236870D01*
X53483776Y-43167041D01*
X53491332Y-43160797D01*
X53579498Y-43072028D01*
X53585690Y-43064430D01*
X53654791Y-42960254D01*
X53659383Y-42951594D01*
X53706887Y-42835805D01*
X53709700Y-42826416D01*
X53733677Y-42703703D01*
X53734605Y-42693946D01*
X53737468Y-42631368D01*
X53727468Y-39681368D01*
X53724290Y-39619883D01*
X53723329Y-39610297D01*
X53699037Y-39488728D01*
X53696192Y-39479349D01*
X53648319Y-39363773D01*
X53643698Y-39355128D01*
X53628091Y-39331772D01*
X54029400Y-39331772D01*
X54153882Y-39319512D01*
X54273580Y-39283202D01*
X54383894Y-39224237D01*
X54480585Y-39144885D01*
X54559937Y-39048194D01*
X54618902Y-38937880D01*
X54655212Y-38818182D01*
X54667472Y-38693700D01*
X54667472Y-37193700D01*
X54655212Y-37069218D01*
X54618902Y-36949520D01*
X54559937Y-36839206D01*
X54480585Y-36742515D01*
X54383894Y-36663163D01*
X54273580Y-36604198D01*
X54267893Y-36602473D01*
X54264400Y-36567004D01*
X54264400Y-36566996D01*
X54253765Y-36459016D01*
X54211737Y-36320467D01*
X54143487Y-36192780D01*
X54051638Y-36080862D01*
X54023593Y-36057846D01*
X52545258Y-34579512D01*
X52522238Y-34551462D01*
X52410320Y-34459613D01*
X52282633Y-34391363D01*
X52144085Y-34349335D01*
X52036105Y-34338700D01*
X52000000Y-34335144D01*
X51963895Y-34338700D01*
X49125105Y-34338700D01*
X49089000Y-34335144D01*
X48944915Y-34349335D01*
X48806366Y-34391363D01*
X48761797Y-34415186D01*
X48678680Y-34459613D01*
X48566762Y-34551462D01*
X48543746Y-34579507D01*
X48197954Y-34925300D01*
X44786005Y-34925300D01*
X44749900Y-34921744D01*
X44605815Y-34935935D01*
X44467266Y-34977963D01*
X44348611Y-35041386D01*
X44339580Y-35046213D01*
X44227662Y-35138062D01*
X44204646Y-35166107D01*
X43773715Y-35597039D01*
X43746285Y-35563615D01*
X43649594Y-35484263D01*
X43539280Y-35425298D01*
X43419582Y-35388988D01*
X43295100Y-35376728D01*
X42295100Y-35376728D01*
X42170618Y-35388988D01*
X42050920Y-35425298D01*
X41940606Y-35484263D01*
X41843915Y-35563615D01*
X41764563Y-35660306D01*
X41705598Y-35770620D01*
X41669288Y-35890318D01*
X41657028Y-36014800D01*
X41657028Y-37614800D01*
X41669288Y-37739282D01*
X41705598Y-37858980D01*
X41764563Y-37969294D01*
X41843915Y-38065985D01*
X41940606Y-38145337D01*
X42050920Y-38204302D01*
X42170618Y-38240612D01*
X42295100Y-38252872D01*
X43295100Y-38252872D01*
X43419582Y-38240612D01*
X43539280Y-38204302D01*
X43649594Y-38145337D01*
X43746285Y-38065985D01*
X43825637Y-37969294D01*
X43884602Y-37858980D01*
X43920912Y-37739282D01*
X43933172Y-37614800D01*
X43933172Y-37467665D01*
X44005720Y-37428887D01*
X44117638Y-37337038D01*
X44140658Y-37308988D01*
X44657028Y-36792618D01*
X44657028Y-37614800D01*
X44669288Y-37739282D01*
X44705598Y-37858980D01*
X44764563Y-37969294D01*
X44843915Y-38065985D01*
X44940606Y-38145337D01*
X45050920Y-38204302D01*
X45170618Y-38240612D01*
X45295100Y-38252872D01*
X46295100Y-38252872D01*
X46419582Y-38240612D01*
X46539280Y-38204302D01*
X46649594Y-38145337D01*
X46746285Y-38065985D01*
X46773715Y-38032561D01*
X49209046Y-40467893D01*
X49232062Y-40495938D01*
X49343980Y-40587787D01*
X49471667Y-40656037D01*
X49610215Y-40698065D01*
X49718195Y-40708700D01*
X49718204Y-40708700D01*
X49754299Y-40712255D01*
X49790394Y-40708700D01*
X50301328Y-40708700D01*
X50301328Y-42633700D01*
X50304402Y-42696256D01*
X50305363Y-42706011D01*
X50329763Y-42828672D01*
X50332608Y-42838051D01*
X50380481Y-42953627D01*
X50385102Y-42962272D01*
X50454608Y-43066289D01*
X50460826Y-43073865D01*
X50549235Y-43162274D01*
X50556811Y-43168492D01*
X50660828Y-43237998D01*
X50669473Y-43242619D01*
X50785049Y-43290492D01*
X50794428Y-43293337D01*
X50917089Y-43317737D01*
X50926844Y-43318698D01*
X50989400Y-43321772D01*
X51304400Y-43321772D01*
X51304401Y-50712885D01*
X51300844Y-50749000D01*
X51315035Y-50893085D01*
X51349808Y-51007713D01*
X51357064Y-51031633D01*
X51425314Y-51159320D01*
X51517163Y-51271238D01*
X51545208Y-51294254D01*
X54359773Y-54108820D01*
X54320125Y-54148468D01*
X54157610Y-54391689D01*
X54045668Y-54661942D01*
X53988600Y-54948840D01*
X53988600Y-55241360D01*
X54045668Y-55528258D01*
X54157610Y-55798511D01*
X54320125Y-56041732D01*
X54526968Y-56248575D01*
X54770189Y-56411090D01*
X55040442Y-56523032D01*
X55327340Y-56580100D01*
X55619860Y-56580100D01*
X55906758Y-56523032D01*
X56177011Y-56411090D01*
X56310500Y-56321895D01*
X56310500Y-59364254D01*
X55905858Y-58959612D01*
X55882838Y-58931562D01*
X55770920Y-58839713D01*
X55643233Y-58771463D01*
X55504685Y-58729435D01*
X55396705Y-58718800D01*
X55360600Y-58715244D01*
X55324495Y-58718800D01*
X43489141Y-58718800D01*
X43487912Y-58706318D01*
X43483508Y-58691800D01*
X43487912Y-58677282D01*
X43500172Y-58552800D01*
X43500172Y-58322800D01*
X43487912Y-58198318D01*
X43483508Y-58183800D01*
X43487912Y-58169282D01*
X43500172Y-58044800D01*
X43500172Y-57814800D01*
X43487912Y-57690318D01*
X43483508Y-57675800D01*
X43487912Y-57661282D01*
X43500172Y-57536800D01*
X43500172Y-57306800D01*
X43487912Y-57182318D01*
X43483508Y-57167800D01*
X43487912Y-57153282D01*
X43500172Y-57028800D01*
X43500172Y-56798800D01*
X43487912Y-56674318D01*
X43451602Y-56554620D01*
X43392637Y-56444306D01*
X43313285Y-56347615D01*
X43216594Y-56268263D01*
X43106280Y-56209298D01*
X42986582Y-56172988D01*
X42862100Y-56160728D01*
X42750419Y-56160728D01*
X42856897Y-56054250D01*
X42884937Y-56031238D01*
X42907950Y-56003197D01*
X42907953Y-56003194D01*
X42976787Y-55919320D01*
X43045037Y-55791634D01*
X43087065Y-55653085D01*
X43101256Y-55509000D01*
X43097700Y-55472895D01*
X43097700Y-54150696D01*
X43101255Y-54114599D01*
X43097700Y-54078502D01*
X43097700Y-54078495D01*
X43087065Y-53970515D01*
X43086921Y-53970038D01*
X43072763Y-53923367D01*
X43165280Y-53895302D01*
X43275594Y-53836337D01*
X43372285Y-53756985D01*
X43451637Y-53660294D01*
X43502520Y-53565100D01*
X45279487Y-53565100D01*
X45378301Y-53712986D01*
X45571214Y-53905899D01*
X45798057Y-54057471D01*
X46050111Y-54161875D01*
X46317689Y-54215100D01*
X46590511Y-54215100D01*
X46858089Y-54161875D01*
X47110143Y-54057471D01*
X47336986Y-53905899D01*
X47529899Y-53712986D01*
X47681471Y-53486143D01*
X47785875Y-53234089D01*
X47839100Y-52966511D01*
X47839100Y-52693689D01*
X47785875Y-52426111D01*
X47681471Y-52174057D01*
X47529899Y-51947214D01*
X47336986Y-51754301D01*
X47110143Y-51602729D01*
X46858089Y-51498325D01*
X46590511Y-51445100D01*
X46317689Y-51445100D01*
X46050111Y-51498325D01*
X45798057Y-51602729D01*
X45571214Y-51754301D01*
X45378301Y-51947214D01*
X45279487Y-52095100D01*
X43595946Y-52095100D01*
X43751092Y-51939954D01*
X43779137Y-51916938D01*
X43870987Y-51805020D01*
X43939237Y-51677333D01*
X43978036Y-51549429D01*
X43981265Y-51538786D01*
X43986257Y-51488102D01*
X43991900Y-51430805D01*
X43991900Y-51430798D01*
X43995455Y-51394701D01*
X43991900Y-51358604D01*
X43991900Y-48685100D01*
X45279487Y-48685100D01*
X45378301Y-48832986D01*
X45571214Y-49025899D01*
X45798057Y-49177471D01*
X46050111Y-49281875D01*
X46317689Y-49335100D01*
X46590511Y-49335100D01*
X46858089Y-49281875D01*
X47110143Y-49177471D01*
X47336986Y-49025899D01*
X47529899Y-48832986D01*
X47681471Y-48606143D01*
X47785875Y-48354089D01*
X47839100Y-48086511D01*
X47839100Y-47813689D01*
X47785875Y-47546111D01*
X47681471Y-47294057D01*
X47529899Y-47067214D01*
X47336986Y-46874301D01*
X47110143Y-46722729D01*
X46858089Y-46618325D01*
X46590511Y-46565100D01*
X46317689Y-46565100D01*
X46050111Y-46618325D01*
X45798057Y-46722729D01*
X45571214Y-46874301D01*
X45378301Y-47067214D01*
X45279487Y-47215100D01*
X43490205Y-47215100D01*
X43466961Y-47212811D01*
X43328750Y-47074600D01*
X42354500Y-47074600D01*
X42354500Y-47094600D01*
X42100500Y-47094600D01*
X42100500Y-47074600D01*
X41126250Y-47074600D01*
X40967500Y-47233350D01*
X40964428Y-47447600D01*
X40976688Y-47572082D01*
X41012998Y-47691780D01*
X41071963Y-47802094D01*
X41151315Y-47898785D01*
X41210796Y-47947600D01*
X41151315Y-47996415D01*
X41071963Y-48093106D01*
X41012998Y-48203420D01*
X40976688Y-48323118D01*
X40964428Y-48447600D01*
X40964428Y-49447600D01*
X40976688Y-49572082D01*
X41012998Y-49691780D01*
X41071963Y-49802094D01*
X41151315Y-49898785D01*
X41170646Y-49914650D01*
X41140563Y-49951306D01*
X41081598Y-50061620D01*
X41045288Y-50181318D01*
X41033028Y-50305800D01*
X41036100Y-50520050D01*
X41194850Y-50678800D01*
X42169100Y-50678800D01*
X42169100Y-50658800D01*
X42423100Y-50658800D01*
X42423100Y-50678800D01*
X42443100Y-50678800D01*
X42443100Y-50871200D01*
X41978105Y-50871200D01*
X41942000Y-50867644D01*
X41797915Y-50881835D01*
X41659366Y-50923863D01*
X41642646Y-50932800D01*
X41194850Y-50932800D01*
X41036100Y-51091550D01*
X41033028Y-51305800D01*
X41045288Y-51430282D01*
X41053011Y-51455742D01*
X40838408Y-51670346D01*
X40810363Y-51693362D01*
X40718514Y-51805280D01*
X40701914Y-51836337D01*
X40650264Y-51932967D01*
X40608235Y-52071515D01*
X40594044Y-52215600D01*
X40597601Y-52251715D01*
X40597600Y-53374894D01*
X40594044Y-53411000D01*
X40608235Y-53555085D01*
X40611273Y-53565100D01*
X40650263Y-53693632D01*
X40652413Y-53697655D01*
X40632388Y-53717680D01*
X40508176Y-53903576D01*
X40422617Y-54110133D01*
X40419181Y-54127406D01*
X40416183Y-54112333D01*
X40330624Y-53905776D01*
X40206412Y-53719880D01*
X40048320Y-53561788D01*
X39862424Y-53437576D01*
X39655867Y-53352017D01*
X39436588Y-53308400D01*
X39213012Y-53308400D01*
X38993733Y-53352017D01*
X38787176Y-53437576D01*
X38601280Y-53561788D01*
X38443188Y-53719880D01*
X38370585Y-53828538D01*
X37846300Y-53304254D01*
X37846300Y-53096912D01*
X37802683Y-52877633D01*
X37717124Y-52671076D01*
X37592912Y-52485180D01*
X37434820Y-52327088D01*
X37248924Y-52202876D01*
X37042367Y-52117317D01*
X36823088Y-52073700D01*
X36599512Y-52073700D01*
X36380233Y-52117317D01*
X36363614Y-52124201D01*
X36434583Y-51952867D01*
X36478200Y-51733588D01*
X36478200Y-51510012D01*
X36434583Y-51290733D01*
X36349024Y-51084176D01*
X36224812Y-50898280D01*
X36066720Y-50740188D01*
X35880824Y-50615976D01*
X35674267Y-50530417D01*
X35454988Y-50486800D01*
X35231412Y-50486800D01*
X35012133Y-50530417D01*
X34805576Y-50615976D01*
X34628072Y-50734581D01*
X34628072Y-50198600D01*
X34615812Y-50074118D01*
X34579502Y-49954420D01*
X34575226Y-49946421D01*
X34784593Y-49737054D01*
X34812638Y-49714038D01*
X34904487Y-49602120D01*
X34972737Y-49474433D01*
X35014765Y-49335885D01*
X35025400Y-49227905D01*
X35028956Y-49191800D01*
X35025400Y-49155695D01*
X35025400Y-48171794D01*
X35028955Y-48135699D01*
X35025400Y-48099604D01*
X35025400Y-48099595D01*
X35014765Y-47991615D01*
X34972737Y-47853067D01*
X34904487Y-47725380D01*
X34812637Y-47613462D01*
X34784592Y-47590446D01*
X34698159Y-47504013D01*
X34675138Y-47475962D01*
X34563220Y-47384113D01*
X34435533Y-47315863D01*
X34296985Y-47273835D01*
X34189005Y-47263200D01*
X34152900Y-47259644D01*
X34116795Y-47263200D01*
X31985769Y-47263200D01*
X31986872Y-47252000D01*
X31983800Y-47037750D01*
X31825050Y-46879000D01*
X30850800Y-46879000D01*
X30850800Y-46899000D01*
X30596800Y-46899000D01*
X30596800Y-46879000D01*
X29622550Y-46879000D01*
X29463800Y-47037750D01*
X29462021Y-47161800D01*
X27920813Y-47161800D01*
X27821999Y-47013914D01*
X27629086Y-46821001D01*
X27402243Y-46669429D01*
X27150189Y-46565025D01*
X26882611Y-46511800D01*
X26609789Y-46511800D01*
X26601996Y-46513350D01*
X26863346Y-46252000D01*
X29460728Y-46252000D01*
X29463800Y-46466250D01*
X29622550Y-46625000D01*
X30596800Y-46625000D01*
X30596800Y-45775750D01*
X30850800Y-45775750D01*
X30850800Y-46625000D01*
X31825050Y-46625000D01*
X31983800Y-46466250D01*
X31984067Y-46447600D01*
X40964428Y-46447600D01*
X40967500Y-46661850D01*
X41126250Y-46820600D01*
X42100500Y-46820600D01*
X42100500Y-45971350D01*
X42354500Y-45971350D01*
X42354500Y-46820600D01*
X43328750Y-46820600D01*
X43487500Y-46661850D01*
X43490572Y-46447600D01*
X43478312Y-46323118D01*
X43442002Y-46203420D01*
X43383037Y-46093106D01*
X43303685Y-45996415D01*
X43206994Y-45917063D01*
X43096680Y-45858098D01*
X42976982Y-45821788D01*
X42852500Y-45809528D01*
X42513250Y-45812600D01*
X42354500Y-45971350D01*
X42100500Y-45971350D01*
X41941750Y-45812600D01*
X41602500Y-45809528D01*
X41478018Y-45821788D01*
X41358320Y-45858098D01*
X41248006Y-45917063D01*
X41151315Y-45996415D01*
X41071963Y-46093106D01*
X41012998Y-46203420D01*
X40976688Y-46323118D01*
X40964428Y-46447600D01*
X31984067Y-46447600D01*
X31986872Y-46252000D01*
X31974612Y-46127518D01*
X31938302Y-46007820D01*
X31879337Y-45897506D01*
X31799985Y-45800815D01*
X31703294Y-45721463D01*
X31592980Y-45662498D01*
X31473282Y-45626188D01*
X31348800Y-45613928D01*
X31009550Y-45617000D01*
X30850800Y-45775750D01*
X30596800Y-45775750D01*
X30438050Y-45617000D01*
X30098800Y-45613928D01*
X29974318Y-45626188D01*
X29854620Y-45662498D01*
X29744306Y-45721463D01*
X29647615Y-45800815D01*
X29568263Y-45897506D01*
X29509298Y-46007820D01*
X29472988Y-46127518D01*
X29460728Y-46252000D01*
X26863346Y-46252000D01*
X29874193Y-43241154D01*
X29902238Y-43218138D01*
X29994087Y-43106220D01*
X30016424Y-43064430D01*
X30062337Y-42978534D01*
X30104365Y-42839985D01*
X30118556Y-42695900D01*
X30115000Y-42659795D01*
X30115000Y-40703705D01*
X30118556Y-40667600D01*
X30104365Y-40523515D01*
X30098699Y-40504836D01*
X30062337Y-40384967D01*
X29994087Y-40257280D01*
X29948691Y-40201965D01*
X29925253Y-40173406D01*
X29925250Y-40173403D01*
X29902237Y-40145362D01*
X29874197Y-40122350D01*
X29288546Y-39536700D01*
X29370377Y-39454869D01*
X29253967Y-39338459D01*
X29494056Y-39271480D01*
X29611156Y-39022452D01*
X29677423Y-38755365D01*
X29690310Y-38480483D01*
X29649322Y-38208367D01*
X29556036Y-37949477D01*
X29494056Y-37833520D01*
X29253965Y-37766540D01*
X28468005Y-38552500D01*
X28482148Y-38566643D01*
X28302543Y-38746248D01*
X28288400Y-38732105D01*
X28274258Y-38746248D01*
X28094653Y-38566643D01*
X28108795Y-38552500D01*
X28094653Y-38538358D01*
X28274258Y-38358753D01*
X28288400Y-38372895D01*
X29074360Y-37586935D01*
X29031778Y-37434300D01*
X39259495Y-37434300D01*
X39295600Y-37437856D01*
X39331705Y-37434300D01*
X39439685Y-37423665D01*
X39578233Y-37381637D01*
X39705920Y-37313387D01*
X39817838Y-37221538D01*
X39840859Y-37193487D01*
X49987128Y-27047219D01*
X49987128Y-27139700D01*
G04 #@! TA.AperFunction,Conductor*
D33*
G36*
X49987128Y-27139700D02*
G01*
X49999388Y-27264182D01*
X50035698Y-27383880D01*
X50094663Y-27494194D01*
X50174015Y-27590885D01*
X50270706Y-27670237D01*
X50381020Y-27729202D01*
X50500718Y-27765512D01*
X50625200Y-27777772D01*
X51223826Y-27777772D01*
X56310501Y-32864448D01*
X56310501Y-45987099D01*
X55759350Y-45990100D01*
X55600600Y-46148850D01*
X55600600Y-47348100D01*
X55620600Y-47348100D01*
X55620600Y-47602100D01*
X55600600Y-47602100D01*
X55600600Y-47622100D01*
X55346600Y-47622100D01*
X55346600Y-47602100D01*
X54147350Y-47602100D01*
X53988600Y-47760850D01*
X53985528Y-48325100D01*
X53997788Y-48449582D01*
X54034098Y-48569280D01*
X54093063Y-48679594D01*
X54172415Y-48776285D01*
X54269106Y-48855637D01*
X54379420Y-48914602D01*
X54451980Y-48936613D01*
X54320125Y-49068468D01*
X54157610Y-49311689D01*
X54045668Y-49581942D01*
X53988600Y-49868840D01*
X53988600Y-50161360D01*
X54045668Y-50448258D01*
X54157610Y-50718511D01*
X54320125Y-50961732D01*
X54526968Y-51168575D01*
X54701360Y-51285100D01*
X54526968Y-51401625D01*
X54320125Y-51608468D01*
X54167193Y-51837347D01*
X52774400Y-50444554D01*
X52774400Y-46625100D01*
X53985528Y-46625100D01*
X53988600Y-47189350D01*
X54147350Y-47348100D01*
X55346600Y-47348100D01*
X55346600Y-46148850D01*
X55187850Y-45990100D01*
X54623600Y-45987028D01*
X54499118Y-45999288D01*
X54379420Y-46035598D01*
X54269106Y-46094563D01*
X54172415Y-46173915D01*
X54093063Y-46270606D01*
X54034098Y-46380920D01*
X53997788Y-46500618D01*
X53985528Y-46625100D01*
X52774400Y-46625100D01*
X52774400Y-43321772D01*
X53049400Y-43321772D01*
X53113011Y-43318593D01*
X53122932Y-43317599D01*
X53246608Y-43292673D01*
X53255978Y-43289796D01*
X53371410Y-43241520D01*
X53380038Y-43236870D01*
X53483776Y-43167041D01*
X53491332Y-43160797D01*
X53579498Y-43072028D01*
X53585690Y-43064430D01*
X53654791Y-42960254D01*
X53659383Y-42951594D01*
X53706887Y-42835805D01*
X53709700Y-42826416D01*
X53733677Y-42703703D01*
X53734605Y-42693946D01*
X53737468Y-42631368D01*
X53727468Y-39681368D01*
X53724290Y-39619883D01*
X53723329Y-39610297D01*
X53699037Y-39488728D01*
X53696192Y-39479349D01*
X53648319Y-39363773D01*
X53643698Y-39355128D01*
X53628091Y-39331772D01*
X54029400Y-39331772D01*
X54153882Y-39319512D01*
X54273580Y-39283202D01*
X54383894Y-39224237D01*
X54480585Y-39144885D01*
X54559937Y-39048194D01*
X54618902Y-38937880D01*
X54655212Y-38818182D01*
X54667472Y-38693700D01*
X54667472Y-37193700D01*
X54655212Y-37069218D01*
X54618902Y-36949520D01*
X54559937Y-36839206D01*
X54480585Y-36742515D01*
X54383894Y-36663163D01*
X54273580Y-36604198D01*
X54267893Y-36602473D01*
X54264400Y-36567004D01*
X54264400Y-36566996D01*
X54253765Y-36459016D01*
X54211737Y-36320467D01*
X54143487Y-36192780D01*
X54051638Y-36080862D01*
X54023593Y-36057846D01*
X52545258Y-34579512D01*
X52522238Y-34551462D01*
X52410320Y-34459613D01*
X52282633Y-34391363D01*
X52144085Y-34349335D01*
X52036105Y-34338700D01*
X52000000Y-34335144D01*
X51963895Y-34338700D01*
X49125105Y-34338700D01*
X49089000Y-34335144D01*
X48944915Y-34349335D01*
X48806366Y-34391363D01*
X48761797Y-34415186D01*
X48678680Y-34459613D01*
X48566762Y-34551462D01*
X48543746Y-34579507D01*
X48197954Y-34925300D01*
X44786005Y-34925300D01*
X44749900Y-34921744D01*
X44605815Y-34935935D01*
X44467266Y-34977963D01*
X44348611Y-35041386D01*
X44339580Y-35046213D01*
X44227662Y-35138062D01*
X44204646Y-35166107D01*
X43773715Y-35597039D01*
X43746285Y-35563615D01*
X43649594Y-35484263D01*
X43539280Y-35425298D01*
X43419582Y-35388988D01*
X43295100Y-35376728D01*
X42295100Y-35376728D01*
X42170618Y-35388988D01*
X42050920Y-35425298D01*
X41940606Y-35484263D01*
X41843915Y-35563615D01*
X41764563Y-35660306D01*
X41705598Y-35770620D01*
X41669288Y-35890318D01*
X41657028Y-36014800D01*
X41657028Y-37614800D01*
X41669288Y-37739282D01*
X41705598Y-37858980D01*
X41764563Y-37969294D01*
X41843915Y-38065985D01*
X41940606Y-38145337D01*
X42050920Y-38204302D01*
X42170618Y-38240612D01*
X42295100Y-38252872D01*
X43295100Y-38252872D01*
X43419582Y-38240612D01*
X43539280Y-38204302D01*
X43649594Y-38145337D01*
X43746285Y-38065985D01*
X43825637Y-37969294D01*
X43884602Y-37858980D01*
X43920912Y-37739282D01*
X43933172Y-37614800D01*
X43933172Y-37467665D01*
X44005720Y-37428887D01*
X44117638Y-37337038D01*
X44140658Y-37308988D01*
X44657028Y-36792618D01*
X44657028Y-37614800D01*
X44669288Y-37739282D01*
X44705598Y-37858980D01*
X44764563Y-37969294D01*
X44843915Y-38065985D01*
X44940606Y-38145337D01*
X45050920Y-38204302D01*
X45170618Y-38240612D01*
X45295100Y-38252872D01*
X46295100Y-38252872D01*
X46419582Y-38240612D01*
X46539280Y-38204302D01*
X46649594Y-38145337D01*
X46746285Y-38065985D01*
X46773715Y-38032561D01*
X49209046Y-40467893D01*
X49232062Y-40495938D01*
X49343980Y-40587787D01*
X49471667Y-40656037D01*
X49610215Y-40698065D01*
X49718195Y-40708700D01*
X49718204Y-40708700D01*
X49754299Y-40712255D01*
X49790394Y-40708700D01*
X50301328Y-40708700D01*
X50301328Y-42633700D01*
X50304402Y-42696256D01*
X50305363Y-42706011D01*
X50329763Y-42828672D01*
X50332608Y-42838051D01*
X50380481Y-42953627D01*
X50385102Y-42962272D01*
X50454608Y-43066289D01*
X50460826Y-43073865D01*
X50549235Y-43162274D01*
X50556811Y-43168492D01*
X50660828Y-43237998D01*
X50669473Y-43242619D01*
X50785049Y-43290492D01*
X50794428Y-43293337D01*
X50917089Y-43317737D01*
X50926844Y-43318698D01*
X50989400Y-43321772D01*
X51304400Y-43321772D01*
X51304401Y-50712885D01*
X51300844Y-50749000D01*
X51315035Y-50893085D01*
X51349808Y-51007713D01*
X51357064Y-51031633D01*
X51425314Y-51159320D01*
X51517163Y-51271238D01*
X51545208Y-51294254D01*
X54359773Y-54108820D01*
X54320125Y-54148468D01*
X54157610Y-54391689D01*
X54045668Y-54661942D01*
X53988600Y-54948840D01*
X53988600Y-55241360D01*
X54045668Y-55528258D01*
X54157610Y-55798511D01*
X54320125Y-56041732D01*
X54526968Y-56248575D01*
X54770189Y-56411090D01*
X55040442Y-56523032D01*
X55327340Y-56580100D01*
X55619860Y-56580100D01*
X55906758Y-56523032D01*
X56177011Y-56411090D01*
X56310500Y-56321895D01*
X56310500Y-59364254D01*
X55905858Y-58959612D01*
X55882838Y-58931562D01*
X55770920Y-58839713D01*
X55643233Y-58771463D01*
X55504685Y-58729435D01*
X55396705Y-58718800D01*
X55360600Y-58715244D01*
X55324495Y-58718800D01*
X43489141Y-58718800D01*
X43487912Y-58706318D01*
X43483508Y-58691800D01*
X43487912Y-58677282D01*
X43500172Y-58552800D01*
X43500172Y-58322800D01*
X43487912Y-58198318D01*
X43483508Y-58183800D01*
X43487912Y-58169282D01*
X43500172Y-58044800D01*
X43500172Y-57814800D01*
X43487912Y-57690318D01*
X43483508Y-57675800D01*
X43487912Y-57661282D01*
X43500172Y-57536800D01*
X43500172Y-57306800D01*
X43487912Y-57182318D01*
X43483508Y-57167800D01*
X43487912Y-57153282D01*
X43500172Y-57028800D01*
X43500172Y-56798800D01*
X43487912Y-56674318D01*
X43451602Y-56554620D01*
X43392637Y-56444306D01*
X43313285Y-56347615D01*
X43216594Y-56268263D01*
X43106280Y-56209298D01*
X42986582Y-56172988D01*
X42862100Y-56160728D01*
X42750419Y-56160728D01*
X42856897Y-56054250D01*
X42884937Y-56031238D01*
X42907950Y-56003197D01*
X42907953Y-56003194D01*
X42976787Y-55919320D01*
X43045037Y-55791634D01*
X43087065Y-55653085D01*
X43101256Y-55509000D01*
X43097700Y-55472895D01*
X43097700Y-54150696D01*
X43101255Y-54114599D01*
X43097700Y-54078502D01*
X43097700Y-54078495D01*
X43087065Y-53970515D01*
X43086921Y-53970038D01*
X43072763Y-53923367D01*
X43165280Y-53895302D01*
X43275594Y-53836337D01*
X43372285Y-53756985D01*
X43451637Y-53660294D01*
X43502520Y-53565100D01*
X45279487Y-53565100D01*
X45378301Y-53712986D01*
X45571214Y-53905899D01*
X45798057Y-54057471D01*
X46050111Y-54161875D01*
X46317689Y-54215100D01*
X46590511Y-54215100D01*
X46858089Y-54161875D01*
X47110143Y-54057471D01*
X47336986Y-53905899D01*
X47529899Y-53712986D01*
X47681471Y-53486143D01*
X47785875Y-53234089D01*
X47839100Y-52966511D01*
X47839100Y-52693689D01*
X47785875Y-52426111D01*
X47681471Y-52174057D01*
X47529899Y-51947214D01*
X47336986Y-51754301D01*
X47110143Y-51602729D01*
X46858089Y-51498325D01*
X46590511Y-51445100D01*
X46317689Y-51445100D01*
X46050111Y-51498325D01*
X45798057Y-51602729D01*
X45571214Y-51754301D01*
X45378301Y-51947214D01*
X45279487Y-52095100D01*
X43595946Y-52095100D01*
X43751092Y-51939954D01*
X43779137Y-51916938D01*
X43870987Y-51805020D01*
X43939237Y-51677333D01*
X43978036Y-51549429D01*
X43981265Y-51538786D01*
X43986257Y-51488102D01*
X43991900Y-51430805D01*
X43991900Y-51430798D01*
X43995455Y-51394701D01*
X43991900Y-51358604D01*
X43991900Y-48685100D01*
X45279487Y-48685100D01*
X45378301Y-48832986D01*
X45571214Y-49025899D01*
X45798057Y-49177471D01*
X46050111Y-49281875D01*
X46317689Y-49335100D01*
X46590511Y-49335100D01*
X46858089Y-49281875D01*
X47110143Y-49177471D01*
X47336986Y-49025899D01*
X47529899Y-48832986D01*
X47681471Y-48606143D01*
X47785875Y-48354089D01*
X47839100Y-48086511D01*
X47839100Y-47813689D01*
X47785875Y-47546111D01*
X47681471Y-47294057D01*
X47529899Y-47067214D01*
X47336986Y-46874301D01*
X47110143Y-46722729D01*
X46858089Y-46618325D01*
X46590511Y-46565100D01*
X46317689Y-46565100D01*
X46050111Y-46618325D01*
X45798057Y-46722729D01*
X45571214Y-46874301D01*
X45378301Y-47067214D01*
X45279487Y-47215100D01*
X43490205Y-47215100D01*
X43466961Y-47212811D01*
X43328750Y-47074600D01*
X42354500Y-47074600D01*
X42354500Y-47094600D01*
X42100500Y-47094600D01*
X42100500Y-47074600D01*
X41126250Y-47074600D01*
X40967500Y-47233350D01*
X40964428Y-47447600D01*
X40976688Y-47572082D01*
X41012998Y-47691780D01*
X41071963Y-47802094D01*
X41151315Y-47898785D01*
X41210796Y-47947600D01*
X41151315Y-47996415D01*
X41071963Y-48093106D01*
X41012998Y-48203420D01*
X40976688Y-48323118D01*
X40964428Y-48447600D01*
X40964428Y-49447600D01*
X40976688Y-49572082D01*
X41012998Y-49691780D01*
X41071963Y-49802094D01*
X41151315Y-49898785D01*
X41170646Y-49914650D01*
X41140563Y-49951306D01*
X41081598Y-50061620D01*
X41045288Y-50181318D01*
X41033028Y-50305800D01*
X41036100Y-50520050D01*
X41194850Y-50678800D01*
X42169100Y-50678800D01*
X42169100Y-50658800D01*
X42423100Y-50658800D01*
X42423100Y-50678800D01*
X42443100Y-50678800D01*
X42443100Y-50871200D01*
X41978105Y-50871200D01*
X41942000Y-50867644D01*
X41797915Y-50881835D01*
X41659366Y-50923863D01*
X41642646Y-50932800D01*
X41194850Y-50932800D01*
X41036100Y-51091550D01*
X41033028Y-51305800D01*
X41045288Y-51430282D01*
X41053011Y-51455742D01*
X40838408Y-51670346D01*
X40810363Y-51693362D01*
X40718514Y-51805280D01*
X40701914Y-51836337D01*
X40650264Y-51932967D01*
X40608235Y-52071515D01*
X40594044Y-52215600D01*
X40597601Y-52251715D01*
X40597600Y-53374894D01*
X40594044Y-53411000D01*
X40608235Y-53555085D01*
X40611273Y-53565100D01*
X40650263Y-53693632D01*
X40652413Y-53697655D01*
X40632388Y-53717680D01*
X40508176Y-53903576D01*
X40422617Y-54110133D01*
X40419181Y-54127406D01*
X40416183Y-54112333D01*
X40330624Y-53905776D01*
X40206412Y-53719880D01*
X40048320Y-53561788D01*
X39862424Y-53437576D01*
X39655867Y-53352017D01*
X39436588Y-53308400D01*
X39213012Y-53308400D01*
X38993733Y-53352017D01*
X38787176Y-53437576D01*
X38601280Y-53561788D01*
X38443188Y-53719880D01*
X38370585Y-53828538D01*
X37846300Y-53304254D01*
X37846300Y-53096912D01*
X37802683Y-52877633D01*
X37717124Y-52671076D01*
X37592912Y-52485180D01*
X37434820Y-52327088D01*
X37248924Y-52202876D01*
X37042367Y-52117317D01*
X36823088Y-52073700D01*
X36599512Y-52073700D01*
X36380233Y-52117317D01*
X36363614Y-52124201D01*
X36434583Y-51952867D01*
X36478200Y-51733588D01*
X36478200Y-51510012D01*
X36434583Y-51290733D01*
X36349024Y-51084176D01*
X36224812Y-50898280D01*
X36066720Y-50740188D01*
X35880824Y-50615976D01*
X35674267Y-50530417D01*
X35454988Y-50486800D01*
X35231412Y-50486800D01*
X35012133Y-50530417D01*
X34805576Y-50615976D01*
X34628072Y-50734581D01*
X34628072Y-50198600D01*
X34615812Y-50074118D01*
X34579502Y-49954420D01*
X34575226Y-49946421D01*
X34784593Y-49737054D01*
X34812638Y-49714038D01*
X34904487Y-49602120D01*
X34972737Y-49474433D01*
X35014765Y-49335885D01*
X35025400Y-49227905D01*
X35028956Y-49191800D01*
X35025400Y-49155695D01*
X35025400Y-48171794D01*
X35028955Y-48135699D01*
X35025400Y-48099604D01*
X35025400Y-48099595D01*
X35014765Y-47991615D01*
X34972737Y-47853067D01*
X34904487Y-47725380D01*
X34812637Y-47613462D01*
X34784592Y-47590446D01*
X34698159Y-47504013D01*
X34675138Y-47475962D01*
X34563220Y-47384113D01*
X34435533Y-47315863D01*
X34296985Y-47273835D01*
X34189005Y-47263200D01*
X34152900Y-47259644D01*
X34116795Y-47263200D01*
X31985769Y-47263200D01*
X31986872Y-47252000D01*
X31983800Y-47037750D01*
X31825050Y-46879000D01*
X30850800Y-46879000D01*
X30850800Y-46899000D01*
X30596800Y-46899000D01*
X30596800Y-46879000D01*
X29622550Y-46879000D01*
X29463800Y-47037750D01*
X29462021Y-47161800D01*
X27920813Y-47161800D01*
X27821999Y-47013914D01*
X27629086Y-46821001D01*
X27402243Y-46669429D01*
X27150189Y-46565025D01*
X26882611Y-46511800D01*
X26609789Y-46511800D01*
X26601996Y-46513350D01*
X26863346Y-46252000D01*
X29460728Y-46252000D01*
X29463800Y-46466250D01*
X29622550Y-46625000D01*
X30596800Y-46625000D01*
X30596800Y-45775750D01*
X30850800Y-45775750D01*
X30850800Y-46625000D01*
X31825050Y-46625000D01*
X31983800Y-46466250D01*
X31984067Y-46447600D01*
X40964428Y-46447600D01*
X40967500Y-46661850D01*
X41126250Y-46820600D01*
X42100500Y-46820600D01*
X42100500Y-45971350D01*
X42354500Y-45971350D01*
X42354500Y-46820600D01*
X43328750Y-46820600D01*
X43487500Y-46661850D01*
X43490572Y-46447600D01*
X43478312Y-46323118D01*
X43442002Y-46203420D01*
X43383037Y-46093106D01*
X43303685Y-45996415D01*
X43206994Y-45917063D01*
X43096680Y-45858098D01*
X42976982Y-45821788D01*
X42852500Y-45809528D01*
X42513250Y-45812600D01*
X42354500Y-45971350D01*
X42100500Y-45971350D01*
X41941750Y-45812600D01*
X41602500Y-45809528D01*
X41478018Y-45821788D01*
X41358320Y-45858098D01*
X41248006Y-45917063D01*
X41151315Y-45996415D01*
X41071963Y-46093106D01*
X41012998Y-46203420D01*
X40976688Y-46323118D01*
X40964428Y-46447600D01*
X31984067Y-46447600D01*
X31986872Y-46252000D01*
X31974612Y-46127518D01*
X31938302Y-46007820D01*
X31879337Y-45897506D01*
X31799985Y-45800815D01*
X31703294Y-45721463D01*
X31592980Y-45662498D01*
X31473282Y-45626188D01*
X31348800Y-45613928D01*
X31009550Y-45617000D01*
X30850800Y-45775750D01*
X30596800Y-45775750D01*
X30438050Y-45617000D01*
X30098800Y-45613928D01*
X29974318Y-45626188D01*
X29854620Y-45662498D01*
X29744306Y-45721463D01*
X29647615Y-45800815D01*
X29568263Y-45897506D01*
X29509298Y-46007820D01*
X29472988Y-46127518D01*
X29460728Y-46252000D01*
X26863346Y-46252000D01*
X29874193Y-43241154D01*
X29902238Y-43218138D01*
X29994087Y-43106220D01*
X30016424Y-43064430D01*
X30062337Y-42978534D01*
X30104365Y-42839985D01*
X30118556Y-42695900D01*
X30115000Y-42659795D01*
X30115000Y-40703705D01*
X30118556Y-40667600D01*
X30104365Y-40523515D01*
X30098699Y-40504836D01*
X30062337Y-40384967D01*
X29994087Y-40257280D01*
X29948691Y-40201965D01*
X29925253Y-40173406D01*
X29925250Y-40173403D01*
X29902237Y-40145362D01*
X29874197Y-40122350D01*
X29288546Y-39536700D01*
X29370377Y-39454869D01*
X29253967Y-39338459D01*
X29494056Y-39271480D01*
X29611156Y-39022452D01*
X29677423Y-38755365D01*
X29690310Y-38480483D01*
X29649322Y-38208367D01*
X29556036Y-37949477D01*
X29494056Y-37833520D01*
X29253965Y-37766540D01*
X28468005Y-38552500D01*
X28482148Y-38566643D01*
X28302543Y-38746248D01*
X28288400Y-38732105D01*
X28274258Y-38746248D01*
X28094653Y-38566643D01*
X28108795Y-38552500D01*
X28094653Y-38538358D01*
X28274258Y-38358753D01*
X28288400Y-38372895D01*
X29074360Y-37586935D01*
X29031778Y-37434300D01*
X39259495Y-37434300D01*
X39295600Y-37437856D01*
X39331705Y-37434300D01*
X39439685Y-37423665D01*
X39578233Y-37381637D01*
X39705920Y-37313387D01*
X39817838Y-37221538D01*
X39840859Y-37193487D01*
X49987128Y-27047219D01*
X49987128Y-27139700D01*
G37*
G04 #@! TD.AperFunction*
D32*
X32064188Y-50074118D02*
X32051928Y-50198600D01*
X32051928Y-50898600D01*
X32064188Y-51023082D01*
X32100498Y-51142780D01*
X32159463Y-51253094D01*
X32238815Y-51349785D01*
X32335506Y-51429137D01*
X32445820Y-51488102D01*
X32565518Y-51524412D01*
X32605001Y-51528301D01*
X32605000Y-54515095D01*
X32601444Y-54551200D01*
X32615635Y-54695285D01*
X32624963Y-54726034D01*
X32657663Y-54833832D01*
X32725913Y-54961519D01*
X32817762Y-55073437D01*
X32845808Y-55096454D01*
X33910081Y-56160728D01*
X33734100Y-56160728D01*
X33609618Y-56172988D01*
X33489920Y-56209298D01*
X33379606Y-56268263D01*
X33282915Y-56347615D01*
X33203563Y-56444306D01*
X33169388Y-56508241D01*
X30805102Y-54143956D01*
X30805102Y-54135152D01*
X30963850Y-54293900D01*
X31303100Y-54296972D01*
X31427582Y-54284712D01*
X31547280Y-54248402D01*
X31657594Y-54189437D01*
X31754285Y-54110085D01*
X31833637Y-54013394D01*
X31892602Y-53903080D01*
X31928912Y-53783382D01*
X31941172Y-53658900D01*
X31938100Y-53444650D01*
X31779350Y-53285900D01*
X30805100Y-53285900D01*
X30805100Y-53305900D01*
X30551100Y-53305900D01*
X30551100Y-53285900D01*
X29576850Y-53285900D01*
X29418100Y-53444650D01*
X29416691Y-53542900D01*
X27900033Y-53542900D01*
X27973571Y-53432843D01*
X28077975Y-53180789D01*
X28131200Y-52913211D01*
X28131200Y-52694200D01*
X29415534Y-52694200D01*
X29418100Y-52873150D01*
X29576850Y-53031900D01*
X30551100Y-53031900D01*
X30551100Y-53011900D01*
X30805100Y-53011900D01*
X30805100Y-53031900D01*
X31779350Y-53031900D01*
X31938100Y-52873150D01*
X31941172Y-52658900D01*
X31928912Y-52534418D01*
X31892602Y-52414720D01*
X31833637Y-52304406D01*
X31754285Y-52207715D01*
X31694804Y-52158900D01*
X31754285Y-52110085D01*
X31833637Y-52013394D01*
X31892602Y-51903080D01*
X31928912Y-51783382D01*
X31941172Y-51658900D01*
X31941172Y-50658900D01*
X31928912Y-50534418D01*
X31892602Y-50414720D01*
X31833637Y-50304406D01*
X31805737Y-50270410D01*
X32042247Y-50033900D01*
X32076388Y-50033900D01*
X32064188Y-50074118D01*
G04 #@! TA.AperFunction,Conductor*
D33*
G36*
X32064188Y-50074118D02*
G01*
X32051928Y-50198600D01*
X32051928Y-50898600D01*
X32064188Y-51023082D01*
X32100498Y-51142780D01*
X32159463Y-51253094D01*
X32238815Y-51349785D01*
X32335506Y-51429137D01*
X32445820Y-51488102D01*
X32565518Y-51524412D01*
X32605001Y-51528301D01*
X32605000Y-54515095D01*
X32601444Y-54551200D01*
X32615635Y-54695285D01*
X32624963Y-54726034D01*
X32657663Y-54833832D01*
X32725913Y-54961519D01*
X32817762Y-55073437D01*
X32845808Y-55096454D01*
X33910081Y-56160728D01*
X33734100Y-56160728D01*
X33609618Y-56172988D01*
X33489920Y-56209298D01*
X33379606Y-56268263D01*
X33282915Y-56347615D01*
X33203563Y-56444306D01*
X33169388Y-56508241D01*
X30805102Y-54143956D01*
X30805102Y-54135152D01*
X30963850Y-54293900D01*
X31303100Y-54296972D01*
X31427582Y-54284712D01*
X31547280Y-54248402D01*
X31657594Y-54189437D01*
X31754285Y-54110085D01*
X31833637Y-54013394D01*
X31892602Y-53903080D01*
X31928912Y-53783382D01*
X31941172Y-53658900D01*
X31938100Y-53444650D01*
X31779350Y-53285900D01*
X30805100Y-53285900D01*
X30805100Y-53305900D01*
X30551100Y-53305900D01*
X30551100Y-53285900D01*
X29576850Y-53285900D01*
X29418100Y-53444650D01*
X29416691Y-53542900D01*
X27900033Y-53542900D01*
X27973571Y-53432843D01*
X28077975Y-53180789D01*
X28131200Y-52913211D01*
X28131200Y-52694200D01*
X29415534Y-52694200D01*
X29418100Y-52873150D01*
X29576850Y-53031900D01*
X30551100Y-53031900D01*
X30551100Y-53011900D01*
X30805100Y-53011900D01*
X30805100Y-53031900D01*
X31779350Y-53031900D01*
X31938100Y-52873150D01*
X31941172Y-52658900D01*
X31928912Y-52534418D01*
X31892602Y-52414720D01*
X31833637Y-52304406D01*
X31754285Y-52207715D01*
X31694804Y-52158900D01*
X31754285Y-52110085D01*
X31833637Y-52013394D01*
X31892602Y-51903080D01*
X31928912Y-51783382D01*
X31941172Y-51658900D01*
X31941172Y-50658900D01*
X31928912Y-50534418D01*
X31892602Y-50414720D01*
X31833637Y-50304406D01*
X31805737Y-50270410D01*
X32042247Y-50033900D01*
X32076388Y-50033900D01*
X32064188Y-50074118D01*
G37*
G04 #@! TD.AperFunction*
M02*
