G04 #@! TF.GenerationSoftware,KiCad,Pcbnew,5.1.7-a382d34a8~88~ubuntu18.04.1*
G04 #@! TF.CreationDate,2021-05-18T13:12:31+05:30*
G04 #@! TF.ProjectId,Sensor_pcb_v4,53656e73-6f72-45f7-9063-625f76342e6b,rev?*
G04 #@! TF.SameCoordinates,Original*
G04 #@! TF.FileFunction,Legend,Top*
G04 #@! TF.FilePolarity,Positive*
%FSLAX46Y46*%
G04 Gerber Fmt 4.6, Leading zero omitted, Abs format (unit mm)*
G04 Created by KiCad (PCBNEW 5.1.7-a382d34a8~88~ubuntu18.04.1) date 2021-05-18 13:12:31*
%MOMM*%
%LPD*%
G01*
G04 APERTURE LIST*
%ADD10C,0.100000*%
%ADD11C,0.080000*%
%ADD12C,0.150000*%
%ADD13C,0.200000*%
%ADD14C,0.127000*%
%ADD15C,0.120000*%
%ADD16C,0.015000*%
G04 APERTURE END LIST*
D10*
X58052986Y-54821026D02*
X57719653Y-54821026D01*
X57686320Y-55154360D01*
X57719653Y-55121026D01*
X57786320Y-55087693D01*
X57952986Y-55087693D01*
X58019653Y-55121026D01*
X58052986Y-55154360D01*
X58086320Y-55221026D01*
X58086320Y-55387693D01*
X58052986Y-55454360D01*
X58019653Y-55487693D01*
X57952986Y-55521026D01*
X57786320Y-55521026D01*
X57719653Y-55487693D01*
X57686320Y-55454360D01*
X58286320Y-54821026D02*
X58519653Y-55521026D01*
X58752986Y-54821026D01*
X57405700Y-52126086D02*
X57805700Y-52126086D01*
X57605700Y-52826086D02*
X57605700Y-52126086D01*
X58039033Y-52826086D02*
X58039033Y-52359420D01*
X58039033Y-52492753D02*
X58072366Y-52426086D01*
X58105700Y-52392753D01*
X58172366Y-52359420D01*
X58239033Y-52359420D01*
X58472366Y-52826086D02*
X58472366Y-52359420D01*
X58472366Y-52126086D02*
X58439033Y-52159420D01*
X58472366Y-52192753D01*
X58505700Y-52159420D01*
X58472366Y-52126086D01*
X58472366Y-52192753D01*
X59105700Y-52359420D02*
X59105700Y-52926086D01*
X59072366Y-52992753D01*
X59039033Y-53026086D01*
X58972366Y-53059420D01*
X58872366Y-53059420D01*
X58805700Y-53026086D01*
X59105700Y-52792753D02*
X59039033Y-52826086D01*
X58905700Y-52826086D01*
X58839033Y-52792753D01*
X58805700Y-52759420D01*
X58772366Y-52692753D01*
X58772366Y-52492753D01*
X58805700Y-52426086D01*
X58839033Y-52392753D01*
X58905700Y-52359420D01*
X59039033Y-52359420D01*
X59105700Y-52392753D01*
X57379846Y-49751780D02*
X57613180Y-49751780D01*
X57713180Y-50118446D02*
X57379846Y-50118446D01*
X57379846Y-49418446D01*
X57713180Y-49418446D01*
X58313180Y-50085113D02*
X58246513Y-50118446D01*
X58113180Y-50118446D01*
X58046513Y-50085113D01*
X58013180Y-50051780D01*
X57979846Y-49985113D01*
X57979846Y-49785113D01*
X58013180Y-49718446D01*
X58046513Y-49685113D01*
X58113180Y-49651780D01*
X58246513Y-49651780D01*
X58313180Y-49685113D01*
X58613180Y-50118446D02*
X58613180Y-49418446D01*
X58913180Y-50118446D02*
X58913180Y-49751780D01*
X58879846Y-49685113D01*
X58813180Y-49651780D01*
X58713180Y-49651780D01*
X58646513Y-49685113D01*
X58613180Y-49718446D01*
X59346513Y-50118446D02*
X59279846Y-50085113D01*
X59246513Y-50051780D01*
X59213180Y-49985113D01*
X59213180Y-49785113D01*
X59246513Y-49718446D01*
X59279846Y-49685113D01*
X59346513Y-49651780D01*
X59446513Y-49651780D01*
X59513180Y-49685113D01*
X59546513Y-49718446D01*
X59579846Y-49785113D01*
X59579846Y-49985113D01*
X59546513Y-50051780D01*
X59513180Y-50085113D01*
X59446513Y-50118446D01*
X59346513Y-50118446D01*
X58125806Y-79768906D02*
X58559140Y-79768906D01*
X58325806Y-80035573D01*
X58425806Y-80035573D01*
X58492473Y-80068906D01*
X58525806Y-80102240D01*
X58559140Y-80168906D01*
X58559140Y-80335573D01*
X58525806Y-80402240D01*
X58492473Y-80435573D01*
X58425806Y-80468906D01*
X58225806Y-80468906D01*
X58159140Y-80435573D01*
X58125806Y-80402240D01*
X58859140Y-80402240D02*
X58892473Y-80435573D01*
X58859140Y-80468906D01*
X58825806Y-80435573D01*
X58859140Y-80402240D01*
X58859140Y-80468906D01*
X59125806Y-79768906D02*
X59559140Y-79768906D01*
X59325806Y-80035573D01*
X59425806Y-80035573D01*
X59492473Y-80068906D01*
X59525806Y-80102240D01*
X59559140Y-80168906D01*
X59559140Y-80335573D01*
X59525806Y-80402240D01*
X59492473Y-80435573D01*
X59425806Y-80468906D01*
X59225806Y-80468906D01*
X59159140Y-80435573D01*
X59125806Y-80402240D01*
X59759140Y-79768906D02*
X59992473Y-80468906D01*
X60225806Y-79768906D01*
X58516586Y-77213980D02*
X58449920Y-77180646D01*
X58349920Y-77180646D01*
X58249920Y-77213980D01*
X58183253Y-77280646D01*
X58149920Y-77347313D01*
X58116586Y-77480646D01*
X58116586Y-77580646D01*
X58149920Y-77713980D01*
X58183253Y-77780646D01*
X58249920Y-77847313D01*
X58349920Y-77880646D01*
X58416586Y-77880646D01*
X58516586Y-77847313D01*
X58549920Y-77813980D01*
X58549920Y-77580646D01*
X58416586Y-77580646D01*
X58849920Y-77880646D02*
X58849920Y-77180646D01*
X59249920Y-77880646D01*
X59249920Y-77180646D01*
X59583253Y-77880646D02*
X59583253Y-77180646D01*
X59749920Y-77180646D01*
X59849920Y-77213980D01*
X59916586Y-77280646D01*
X59949920Y-77347313D01*
X59983253Y-77480646D01*
X59983253Y-77580646D01*
X59949920Y-77713980D01*
X59916586Y-77780646D01*
X59849920Y-77847313D01*
X59749920Y-77880646D01*
X59583253Y-77880646D01*
D11*
X43169709Y-88969066D02*
X43407804Y-88802400D01*
X43169709Y-88683352D02*
X43669709Y-88683352D01*
X43669709Y-88873828D01*
X43645900Y-88921447D01*
X43622090Y-88945257D01*
X43574471Y-88969066D01*
X43503042Y-88969066D01*
X43455423Y-88945257D01*
X43431614Y-88921447D01*
X43407804Y-88873828D01*
X43407804Y-88683352D01*
X43669709Y-89135733D02*
X43169709Y-89469066D01*
X43669709Y-89469066D02*
X43169709Y-89135733D01*
X46186849Y-88460627D02*
X46186849Y-88746341D01*
X45686849Y-88603484D02*
X46186849Y-88603484D01*
X46186849Y-88865389D02*
X45686849Y-89198722D01*
X46186849Y-89198722D02*
X45686849Y-88865389D01*
D10*
X52101819Y-24733204D02*
X51720866Y-24733204D01*
X51720866Y-23933204D01*
X52368485Y-24733204D02*
X52368485Y-23933204D01*
X52558961Y-23933204D01*
X52673247Y-23971300D01*
X52749438Y-24047490D01*
X52787533Y-24123680D01*
X52825628Y-24276061D01*
X52825628Y-24390347D01*
X52787533Y-24542728D01*
X52749438Y-24618919D01*
X52673247Y-24695109D01*
X52558961Y-24733204D01*
X52368485Y-24733204D01*
X53625628Y-24733204D02*
X53358961Y-24352252D01*
X53168485Y-24733204D02*
X53168485Y-23933204D01*
X53473247Y-23933204D01*
X53549438Y-23971300D01*
X53587533Y-24009395D01*
X53625628Y-24085585D01*
X53625628Y-24199871D01*
X53587533Y-24276061D01*
X53549438Y-24314157D01*
X53473247Y-24352252D01*
X53168485Y-24352252D01*
X24731671Y-41961583D02*
X24731671Y-42723488D01*
X24350719Y-42342536D02*
X25112623Y-42342536D01*
X25017385Y-43104440D02*
X24350719Y-43342536D01*
X25017385Y-43580631D01*
X24398338Y-44342536D02*
X24350719Y-44247298D01*
X24350719Y-44056821D01*
X24398338Y-43961583D01*
X24493576Y-43913964D01*
X24874528Y-43913964D01*
X24969766Y-43961583D01*
X25017385Y-44056821D01*
X25017385Y-44247298D01*
X24969766Y-44342536D01*
X24874528Y-44390155D01*
X24779290Y-44390155D01*
X24684052Y-43913964D01*
X24675791Y-35484583D02*
X24675791Y-36246488D01*
X24961505Y-36627440D02*
X24294839Y-36865536D01*
X24961505Y-37103631D01*
X24342458Y-37865536D02*
X24294839Y-37770298D01*
X24294839Y-37579821D01*
X24342458Y-37484583D01*
X24437696Y-37436964D01*
X24818648Y-37436964D01*
X24913886Y-37484583D01*
X24961505Y-37579821D01*
X24961505Y-37770298D01*
X24913886Y-37865536D01*
X24818648Y-37913155D01*
X24723410Y-37913155D01*
X24628172Y-37436964D01*
D12*
X23585538Y-38375175D02*
X23537919Y-38518032D01*
X23537919Y-38756127D01*
X23585538Y-38851365D01*
X23633157Y-38898984D01*
X23728395Y-38946603D01*
X23823633Y-38946603D01*
X23918871Y-38898984D01*
X23966490Y-38851365D01*
X24014109Y-38756127D01*
X24061728Y-38565651D01*
X24109347Y-38470413D01*
X24156966Y-38422794D01*
X24252204Y-38375175D01*
X24347442Y-38375175D01*
X24442680Y-38422794D01*
X24490300Y-38470413D01*
X24537919Y-38565651D01*
X24537919Y-38803746D01*
X24490300Y-38946603D01*
X23537919Y-39518032D02*
X23585538Y-39422794D01*
X23633157Y-39375175D01*
X23728395Y-39327556D01*
X24014109Y-39327556D01*
X24109347Y-39375175D01*
X24156966Y-39422794D01*
X24204585Y-39518032D01*
X24204585Y-39660889D01*
X24156966Y-39756127D01*
X24109347Y-39803746D01*
X24014109Y-39851365D01*
X23728395Y-39851365D01*
X23633157Y-39803746D01*
X23585538Y-39756127D01*
X23537919Y-39660889D01*
X23537919Y-39518032D01*
X23537919Y-40422794D02*
X23585538Y-40327556D01*
X23680776Y-40279937D01*
X24537919Y-40279937D01*
X23537919Y-41232318D02*
X24061728Y-41232318D01*
X24156966Y-41184699D01*
X24204585Y-41089460D01*
X24204585Y-40898984D01*
X24156966Y-40803746D01*
X23585538Y-41232318D02*
X23537919Y-41137080D01*
X23537919Y-40898984D01*
X23585538Y-40803746D01*
X23680776Y-40756127D01*
X23776014Y-40756127D01*
X23871252Y-40803746D01*
X23918871Y-40898984D01*
X23918871Y-41137080D01*
X23966490Y-41232318D01*
X23537919Y-41708508D02*
X24204585Y-41708508D01*
X24014109Y-41708508D02*
X24109347Y-41756127D01*
X24156966Y-41803746D01*
X24204585Y-41898984D01*
X24204585Y-41994222D01*
D10*
X24759611Y-31367243D02*
X24759611Y-32129148D01*
X24378659Y-31748196D02*
X25140563Y-31748196D01*
X25045325Y-32510100D02*
X24378659Y-32748196D01*
X25045325Y-32986291D01*
X24426278Y-33748196D02*
X24378659Y-33652958D01*
X24378659Y-33462481D01*
X24426278Y-33367243D01*
X24521516Y-33319624D01*
X24902468Y-33319624D01*
X24997706Y-33367243D01*
X25045325Y-33462481D01*
X25045325Y-33652958D01*
X24997706Y-33748196D01*
X24902468Y-33795815D01*
X24807230Y-33795815D01*
X24711992Y-33319624D01*
D12*
X31233549Y-88832986D02*
X31709740Y-88832986D01*
X31138311Y-89118700D02*
X31471644Y-88118700D01*
X31804978Y-89118700D01*
X32138311Y-88452034D02*
X32138311Y-89118700D01*
X32138311Y-88547272D02*
X32185930Y-88499653D01*
X32281168Y-88452034D01*
X32424025Y-88452034D01*
X32519263Y-88499653D01*
X32566882Y-88594891D01*
X32566882Y-89118700D01*
X32900216Y-88452034D02*
X33281168Y-88452034D01*
X33043073Y-88118700D02*
X33043073Y-88975843D01*
X33090692Y-89071081D01*
X33185930Y-89118700D01*
X33281168Y-89118700D01*
D11*
X35835400Y-88460627D02*
X35859209Y-88413008D01*
X35859209Y-88341580D01*
X35835400Y-88270151D01*
X35787780Y-88222532D01*
X35740161Y-88198722D01*
X35644923Y-88174913D01*
X35573495Y-88174913D01*
X35478257Y-88198722D01*
X35430638Y-88222532D01*
X35383019Y-88270151D01*
X35359209Y-88341580D01*
X35359209Y-88389199D01*
X35383019Y-88460627D01*
X35406828Y-88484437D01*
X35573495Y-88484437D01*
X35573495Y-88389199D01*
X35359209Y-88698722D02*
X35859209Y-88698722D01*
X35359209Y-88984437D01*
X35859209Y-88984437D01*
X35359209Y-89222532D02*
X35859209Y-89222532D01*
X35859209Y-89341580D01*
X35835400Y-89413008D01*
X35787780Y-89460627D01*
X35740161Y-89484437D01*
X35644923Y-89508246D01*
X35573495Y-89508246D01*
X35478257Y-89484437D01*
X35430638Y-89460627D01*
X35383019Y-89413008D01*
X35359209Y-89341580D01*
X35359209Y-89222532D01*
X38063668Y-88813200D02*
X38039859Y-88789391D01*
X38016049Y-88717962D01*
X38016049Y-88670343D01*
X38039859Y-88598915D01*
X38087478Y-88551296D01*
X38135097Y-88527486D01*
X38230335Y-88503677D01*
X38301763Y-88503677D01*
X38397001Y-88527486D01*
X38444620Y-88551296D01*
X38492240Y-88598915D01*
X38516049Y-88670343D01*
X38516049Y-88717962D01*
X38492240Y-88789391D01*
X38468430Y-88813200D01*
X38016049Y-89265581D02*
X38016049Y-89027486D01*
X38516049Y-89027486D01*
X38016049Y-89432248D02*
X38516049Y-89432248D01*
X38016049Y-89717962D02*
X38301763Y-89503677D01*
X38516049Y-89717962D02*
X38230335Y-89432248D01*
X40594149Y-88701595D02*
X41094149Y-88701595D01*
X41094149Y-89034928D02*
X41094149Y-89130166D01*
X41070340Y-89177785D01*
X41022720Y-89225404D01*
X40927482Y-89249214D01*
X40760816Y-89249214D01*
X40665578Y-89225404D01*
X40617959Y-89177785D01*
X40594149Y-89130166D01*
X40594149Y-89034928D01*
X40617959Y-88987309D01*
X40665578Y-88939690D01*
X40760816Y-88915880D01*
X40927482Y-88915880D01*
X41022720Y-88939690D01*
X41070340Y-88987309D01*
X41094149Y-89034928D01*
X48618602Y-88502240D02*
X48285269Y-88621288D01*
X48618602Y-88740336D01*
X48309079Y-89145098D02*
X48285269Y-89097479D01*
X48285269Y-89002240D01*
X48309079Y-88954621D01*
X48332888Y-88930812D01*
X48380507Y-88907002D01*
X48523364Y-88907002D01*
X48570983Y-88930812D01*
X48594793Y-88954621D01*
X48618602Y-89002240D01*
X48618602Y-89097479D01*
X48594793Y-89145098D01*
X48309079Y-89573669D02*
X48285269Y-89526050D01*
X48285269Y-89430812D01*
X48309079Y-89383193D01*
X48332888Y-89359383D01*
X48380507Y-89335574D01*
X48523364Y-89335574D01*
X48570983Y-89359383D01*
X48594793Y-89383193D01*
X48618602Y-89430812D01*
X48618602Y-89526050D01*
X48594793Y-89573669D01*
D13*
X40600380Y-19907000D02*
X40790857Y-19907000D01*
X40886095Y-19954620D01*
X40981333Y-20049858D01*
X41028952Y-20240334D01*
X41028952Y-20573667D01*
X40981333Y-20764143D01*
X40886095Y-20859381D01*
X40790857Y-20907000D01*
X40600380Y-20907000D01*
X40505142Y-20859381D01*
X40409904Y-20764143D01*
X40362285Y-20573667D01*
X40362285Y-20240334D01*
X40409904Y-20049858D01*
X40505142Y-19954620D01*
X40600380Y-19907000D01*
X41457523Y-20240334D02*
X41457523Y-20907000D01*
X41457523Y-20335572D02*
X41505142Y-20287953D01*
X41600380Y-20240334D01*
X41743238Y-20240334D01*
X41838476Y-20287953D01*
X41886095Y-20383191D01*
X41886095Y-20907000D01*
X52007853Y-20028920D02*
X52198329Y-20028920D01*
X52293567Y-20076540D01*
X52388805Y-20171778D01*
X52436424Y-20362254D01*
X52436424Y-20695587D01*
X52388805Y-20886063D01*
X52293567Y-20981301D01*
X52198329Y-21028920D01*
X52007853Y-21028920D01*
X51912615Y-20981301D01*
X51817377Y-20886063D01*
X51769758Y-20695587D01*
X51769758Y-20362254D01*
X51817377Y-20171778D01*
X51912615Y-20076540D01*
X52007853Y-20028920D01*
X52722139Y-20362254D02*
X53103091Y-20362254D01*
X52864996Y-21028920D02*
X52864996Y-20171778D01*
X52912615Y-20076540D01*
X53007853Y-20028920D01*
X53103091Y-20028920D01*
X53293567Y-20362254D02*
X53674520Y-20362254D01*
X53436424Y-21028920D02*
X53436424Y-20171778D01*
X53484043Y-20076540D01*
X53579281Y-20028920D01*
X53674520Y-20028920D01*
D10*
X24675791Y-23218923D02*
X24675791Y-23980828D01*
X24961505Y-24361780D02*
X24294839Y-24599876D01*
X24961505Y-24837971D01*
X24342458Y-25599876D02*
X24294839Y-25504638D01*
X24294839Y-25314161D01*
X24342458Y-25218923D01*
X24437696Y-25171304D01*
X24818648Y-25171304D01*
X24913886Y-25218923D01*
X24961505Y-25314161D01*
X24961505Y-25504638D01*
X24913886Y-25599876D01*
X24818648Y-25647495D01*
X24723410Y-25647495D01*
X24628172Y-25171304D01*
X56365620Y-68321126D02*
X56798953Y-68321126D01*
X56565620Y-68587793D01*
X56665620Y-68587793D01*
X56732286Y-68621126D01*
X56765620Y-68654460D01*
X56798953Y-68721126D01*
X56798953Y-68887793D01*
X56765620Y-68954460D01*
X56732286Y-68987793D01*
X56665620Y-69021126D01*
X56465620Y-69021126D01*
X56398953Y-68987793D01*
X56365620Y-68954460D01*
X57098953Y-68954460D02*
X57132286Y-68987793D01*
X57098953Y-69021126D01*
X57065620Y-68987793D01*
X57098953Y-68954460D01*
X57098953Y-69021126D01*
X57365620Y-68321126D02*
X57798953Y-68321126D01*
X57565620Y-68587793D01*
X57665620Y-68587793D01*
X57732286Y-68621126D01*
X57765620Y-68654460D01*
X57798953Y-68721126D01*
X57798953Y-68887793D01*
X57765620Y-68954460D01*
X57732286Y-68987793D01*
X57665620Y-69021126D01*
X57465620Y-69021126D01*
X57398953Y-68987793D01*
X57365620Y-68954460D01*
X58532286Y-68321126D02*
X58765620Y-69021126D01*
X58998953Y-68321126D01*
X56875746Y-65679840D02*
X56809080Y-65646506D01*
X56709080Y-65646506D01*
X56609080Y-65679840D01*
X56542413Y-65746506D01*
X56509080Y-65813173D01*
X56475746Y-65946506D01*
X56475746Y-66046506D01*
X56509080Y-66179840D01*
X56542413Y-66246506D01*
X56609080Y-66313173D01*
X56709080Y-66346506D01*
X56775746Y-66346506D01*
X56875746Y-66313173D01*
X56909080Y-66279840D01*
X56909080Y-66046506D01*
X56775746Y-66046506D01*
X57209080Y-66346506D02*
X57209080Y-65646506D01*
X57609080Y-66346506D01*
X57609080Y-65646506D01*
X57942413Y-66346506D02*
X57942413Y-65646506D01*
X58109080Y-65646506D01*
X58209080Y-65679840D01*
X58275746Y-65746506D01*
X58309080Y-65813173D01*
X58342413Y-65946506D01*
X58342413Y-66046506D01*
X58309080Y-66179840D01*
X58275746Y-66246506D01*
X58209080Y-66313173D01*
X58109080Y-66346506D01*
X57942413Y-66346506D01*
X56537646Y-63671573D02*
X56637646Y-63704906D01*
X56804313Y-63704906D01*
X56870980Y-63671573D01*
X56904313Y-63638240D01*
X56937646Y-63571573D01*
X56937646Y-63504906D01*
X56904313Y-63438240D01*
X56870980Y-63404906D01*
X56804313Y-63371573D01*
X56670980Y-63338240D01*
X56604313Y-63304906D01*
X56570980Y-63271573D01*
X56537646Y-63204906D01*
X56537646Y-63138240D01*
X56570980Y-63071573D01*
X56604313Y-63038240D01*
X56670980Y-63004906D01*
X56837646Y-63004906D01*
X56937646Y-63038240D01*
X57637646Y-63638240D02*
X57604313Y-63671573D01*
X57504313Y-63704906D01*
X57437646Y-63704906D01*
X57337646Y-63671573D01*
X57270980Y-63604906D01*
X57237646Y-63538240D01*
X57204313Y-63404906D01*
X57204313Y-63304906D01*
X57237646Y-63171573D01*
X57270980Y-63104906D01*
X57337646Y-63038240D01*
X57437646Y-63004906D01*
X57504313Y-63004906D01*
X57604313Y-63038240D01*
X57637646Y-63071573D01*
X58270980Y-63704906D02*
X57937646Y-63704906D01*
X57937646Y-63004906D01*
X56485420Y-60958853D02*
X56585420Y-60992186D01*
X56752086Y-60992186D01*
X56818753Y-60958853D01*
X56852086Y-60925520D01*
X56885420Y-60858853D01*
X56885420Y-60792186D01*
X56852086Y-60725520D01*
X56818753Y-60692186D01*
X56752086Y-60658853D01*
X56618753Y-60625520D01*
X56552086Y-60592186D01*
X56518753Y-60558853D01*
X56485420Y-60492186D01*
X56485420Y-60425520D01*
X56518753Y-60358853D01*
X56552086Y-60325520D01*
X56618753Y-60292186D01*
X56785420Y-60292186D01*
X56885420Y-60325520D01*
X57185420Y-60992186D02*
X57185420Y-60292186D01*
X57352086Y-60292186D01*
X57452086Y-60325520D01*
X57518753Y-60392186D01*
X57552086Y-60458853D01*
X57585420Y-60592186D01*
X57585420Y-60692186D01*
X57552086Y-60825520D01*
X57518753Y-60892186D01*
X57452086Y-60958853D01*
X57352086Y-60992186D01*
X57185420Y-60992186D01*
X57852086Y-60792186D02*
X58185420Y-60792186D01*
X57785420Y-60992186D02*
X58018753Y-60292186D01*
X58252086Y-60992186D01*
X57716486Y-47335960D02*
X57649820Y-47302626D01*
X57549820Y-47302626D01*
X57449820Y-47335960D01*
X57383153Y-47402626D01*
X57349820Y-47469293D01*
X57316486Y-47602626D01*
X57316486Y-47702626D01*
X57349820Y-47835960D01*
X57383153Y-47902626D01*
X57449820Y-47969293D01*
X57549820Y-48002626D01*
X57616486Y-48002626D01*
X57716486Y-47969293D01*
X57749820Y-47935960D01*
X57749820Y-47702626D01*
X57616486Y-47702626D01*
X58049820Y-48002626D02*
X58049820Y-47302626D01*
X58449820Y-48002626D01*
X58449820Y-47302626D01*
X58783153Y-48002626D02*
X58783153Y-47302626D01*
X58949820Y-47302626D01*
X59049820Y-47335960D01*
X59116486Y-47402626D01*
X59149820Y-47469293D01*
X59183153Y-47602626D01*
X59183153Y-47702626D01*
X59149820Y-47835960D01*
X59116486Y-47902626D01*
X59049820Y-47969293D01*
X58949820Y-48002626D01*
X58783153Y-48002626D01*
D12*
X24193808Y-26828691D02*
X24146189Y-26971548D01*
X24098570Y-27019167D01*
X24003332Y-27066786D01*
X23860475Y-27066786D01*
X23765237Y-27019167D01*
X23717618Y-26971548D01*
X23669999Y-26876310D01*
X23669999Y-26495358D01*
X24669999Y-26495358D01*
X24669999Y-26828691D01*
X24622380Y-26923929D01*
X24574760Y-26971548D01*
X24479522Y-27019167D01*
X24384284Y-27019167D01*
X24289046Y-26971548D01*
X24241427Y-26923929D01*
X24193808Y-26828691D01*
X24193808Y-26495358D01*
X23669999Y-27923929D02*
X24193808Y-27923929D01*
X24289046Y-27876310D01*
X24336665Y-27781072D01*
X24336665Y-27590596D01*
X24289046Y-27495358D01*
X23717618Y-27923929D02*
X23669999Y-27828691D01*
X23669999Y-27590596D01*
X23717618Y-27495358D01*
X23812856Y-27447739D01*
X23908094Y-27447739D01*
X24003332Y-27495358D01*
X24050951Y-27590596D01*
X24050951Y-27828691D01*
X24098570Y-27923929D01*
X24336665Y-28257262D02*
X24336665Y-28638215D01*
X24669999Y-28400120D02*
X23812856Y-28400120D01*
X23717618Y-28447739D01*
X23669999Y-28542977D01*
X23669999Y-28638215D01*
X24336665Y-28828691D02*
X24336665Y-29209643D01*
X24669999Y-28971548D02*
X23812856Y-28971548D01*
X23717618Y-29019167D01*
X23669999Y-29114405D01*
X23669999Y-29209643D01*
X23717618Y-29923929D02*
X23669999Y-29828691D01*
X23669999Y-29638215D01*
X23717618Y-29542977D01*
X23812856Y-29495358D01*
X24193808Y-29495358D01*
X24289046Y-29542977D01*
X24336665Y-29638215D01*
X24336665Y-29828691D01*
X24289046Y-29923929D01*
X24193808Y-29971548D01*
X24098570Y-29971548D01*
X24003332Y-29495358D01*
X23669999Y-30400120D02*
X24336665Y-30400120D01*
X24146189Y-30400120D02*
X24241427Y-30447739D01*
X24289046Y-30495358D01*
X24336665Y-30590596D01*
X24336665Y-30685834D01*
X24336665Y-30923929D02*
X23669999Y-31162024D01*
X24336665Y-31400120D02*
X23669999Y-31162024D01*
X23431903Y-31066786D01*
X23384284Y-31019167D01*
X23336665Y-30923929D01*
X46155764Y-82194660D02*
X45822431Y-81718470D01*
X45584336Y-82194660D02*
X45584336Y-81194660D01*
X45965288Y-81194660D01*
X46060526Y-81242280D01*
X46108145Y-81289899D01*
X46155764Y-81385137D01*
X46155764Y-81527994D01*
X46108145Y-81623232D01*
X46060526Y-81670851D01*
X45965288Y-81718470D01*
X45584336Y-81718470D01*
X46965288Y-82147041D02*
X46870050Y-82194660D01*
X46679574Y-82194660D01*
X46584336Y-82147041D01*
X46536717Y-82051803D01*
X46536717Y-81670851D01*
X46584336Y-81575613D01*
X46679574Y-81527994D01*
X46870050Y-81527994D01*
X46965288Y-81575613D01*
X47012907Y-81670851D01*
X47012907Y-81766089D01*
X46536717Y-81861327D01*
X47393860Y-82147041D02*
X47489098Y-82194660D01*
X47679574Y-82194660D01*
X47774812Y-82147041D01*
X47822431Y-82051803D01*
X47822431Y-82004184D01*
X47774812Y-81908946D01*
X47679574Y-81861327D01*
X47536717Y-81861327D01*
X47441479Y-81813708D01*
X47393860Y-81718470D01*
X47393860Y-81670851D01*
X47441479Y-81575613D01*
X47536717Y-81527994D01*
X47679574Y-81527994D01*
X47774812Y-81575613D01*
X48631955Y-82147041D02*
X48536717Y-82194660D01*
X48346240Y-82194660D01*
X48251002Y-82147041D01*
X48203383Y-82051803D01*
X48203383Y-81670851D01*
X48251002Y-81575613D01*
X48346240Y-81527994D01*
X48536717Y-81527994D01*
X48631955Y-81575613D01*
X48679574Y-81670851D01*
X48679574Y-81766089D01*
X48203383Y-81861327D01*
X48965288Y-81527994D02*
X49346240Y-81527994D01*
X49108145Y-81194660D02*
X49108145Y-82051803D01*
X49155764Y-82147041D01*
X49251002Y-82194660D01*
X49346240Y-82194660D01*
X34058599Y-24343289D02*
X35058599Y-24343289D01*
X35058599Y-24724241D01*
X35010980Y-24819479D01*
X34963360Y-24867099D01*
X34868122Y-24914718D01*
X34725265Y-24914718D01*
X34630027Y-24867099D01*
X34582408Y-24819479D01*
X34534789Y-24724241D01*
X34534789Y-24343289D01*
X34058599Y-25486146D02*
X34106218Y-25390908D01*
X34153837Y-25343289D01*
X34249075Y-25295670D01*
X34534789Y-25295670D01*
X34630027Y-25343289D01*
X34677646Y-25390908D01*
X34725265Y-25486146D01*
X34725265Y-25629003D01*
X34677646Y-25724241D01*
X34630027Y-25771860D01*
X34534789Y-25819480D01*
X34249075Y-25819480D01*
X34153837Y-25771860D01*
X34106218Y-25724241D01*
X34058599Y-25629003D01*
X34058599Y-25486146D01*
X34725265Y-26152813D02*
X34058599Y-26343289D01*
X34534789Y-26533765D01*
X34058599Y-26724241D01*
X34725265Y-26914718D01*
X34106218Y-27676622D02*
X34058599Y-27581384D01*
X34058599Y-27390908D01*
X34106218Y-27295670D01*
X34201456Y-27248051D01*
X34582408Y-27248051D01*
X34677646Y-27295670D01*
X34725265Y-27390908D01*
X34725265Y-27581384D01*
X34677646Y-27676622D01*
X34582408Y-27724241D01*
X34487170Y-27724241D01*
X34391932Y-27248051D01*
X34058599Y-28152813D02*
X34725265Y-28152813D01*
X34534789Y-28152813D02*
X34630027Y-28200432D01*
X34677646Y-28248051D01*
X34725265Y-28343289D01*
X34725265Y-28438527D01*
X32847371Y-66468277D02*
X32933085Y-66496848D01*
X33075942Y-66496848D01*
X33133085Y-66468277D01*
X33161657Y-66439705D01*
X33190228Y-66382562D01*
X33190228Y-66325420D01*
X33161657Y-66268277D01*
X33133085Y-66239705D01*
X33075942Y-66211134D01*
X32961657Y-66182562D01*
X32904514Y-66153991D01*
X32875942Y-66125420D01*
X32847371Y-66068277D01*
X32847371Y-66011134D01*
X32875942Y-65953991D01*
X32904514Y-65925420D01*
X32961657Y-65896848D01*
X33104514Y-65896848D01*
X33190228Y-65925420D01*
X33675942Y-66468277D02*
X33618800Y-66496848D01*
X33504514Y-66496848D01*
X33447371Y-66468277D01*
X33418800Y-66411134D01*
X33418800Y-66182562D01*
X33447371Y-66125420D01*
X33504514Y-66096848D01*
X33618800Y-66096848D01*
X33675942Y-66125420D01*
X33704514Y-66182562D01*
X33704514Y-66239705D01*
X33418800Y-66296848D01*
X33961657Y-66096848D02*
X33961657Y-66496848D01*
X33961657Y-66153991D02*
X33990228Y-66125420D01*
X34047371Y-66096848D01*
X34133085Y-66096848D01*
X34190228Y-66125420D01*
X34218800Y-66182562D01*
X34218800Y-66496848D01*
X34475942Y-66468277D02*
X34533085Y-66496848D01*
X34647371Y-66496848D01*
X34704514Y-66468277D01*
X34733085Y-66411134D01*
X34733085Y-66382562D01*
X34704514Y-66325420D01*
X34647371Y-66296848D01*
X34561657Y-66296848D01*
X34504514Y-66268277D01*
X34475942Y-66211134D01*
X34475942Y-66182562D01*
X34504514Y-66125420D01*
X34561657Y-66096848D01*
X34647371Y-66096848D01*
X34704514Y-66125420D01*
X35075942Y-66496848D02*
X35018800Y-66468277D01*
X34990228Y-66439705D01*
X34961657Y-66382562D01*
X34961657Y-66211134D01*
X34990228Y-66153991D01*
X35018800Y-66125420D01*
X35075942Y-66096848D01*
X35161657Y-66096848D01*
X35218800Y-66125420D01*
X35247371Y-66153991D01*
X35275942Y-66211134D01*
X35275942Y-66382562D01*
X35247371Y-66439705D01*
X35218800Y-66468277D01*
X35161657Y-66496848D01*
X35075942Y-66496848D01*
X35533085Y-66496848D02*
X35533085Y-66096848D01*
X35533085Y-66211134D02*
X35561657Y-66153991D01*
X35590228Y-66125420D01*
X35647371Y-66096848D01*
X35704514Y-66096848D01*
X35761657Y-66553991D02*
X36218800Y-66553991D01*
X36361657Y-66496848D02*
X36361657Y-65896848D01*
X36590228Y-65896848D01*
X36647371Y-65925420D01*
X36675942Y-65953991D01*
X36704514Y-66011134D01*
X36704514Y-66096848D01*
X36675942Y-66153991D01*
X36647371Y-66182562D01*
X36590228Y-66211134D01*
X36361657Y-66211134D01*
X37304514Y-66439705D02*
X37275942Y-66468277D01*
X37190228Y-66496848D01*
X37133085Y-66496848D01*
X37047371Y-66468277D01*
X36990228Y-66411134D01*
X36961657Y-66353991D01*
X36933085Y-66239705D01*
X36933085Y-66153991D01*
X36961657Y-66039705D01*
X36990228Y-65982562D01*
X37047371Y-65925420D01*
X37133085Y-65896848D01*
X37190228Y-65896848D01*
X37275942Y-65925420D01*
X37304514Y-65953991D01*
X37761657Y-66182562D02*
X37847371Y-66211134D01*
X37875942Y-66239705D01*
X37904514Y-66296848D01*
X37904514Y-66382562D01*
X37875942Y-66439705D01*
X37847371Y-66468277D01*
X37790228Y-66496848D01*
X37561657Y-66496848D01*
X37561657Y-65896848D01*
X37761657Y-65896848D01*
X37818800Y-65925420D01*
X37847371Y-65953991D01*
X37875942Y-66011134D01*
X37875942Y-66068277D01*
X37847371Y-66125420D01*
X37818800Y-66153991D01*
X37761657Y-66182562D01*
X37561657Y-66182562D01*
X38018800Y-66553991D02*
X38475942Y-66553991D01*
X38561657Y-66096848D02*
X38704514Y-66496848D01*
X38847371Y-66096848D01*
X39333085Y-66096848D02*
X39333085Y-66496848D01*
X39190228Y-65868277D02*
X39047371Y-66296848D01*
X39418800Y-66296848D01*
D13*
X28248909Y-65527180D02*
X28248909Y-64527180D01*
X28248909Y-65003371D02*
X28820338Y-65003371D01*
X28820338Y-65527180D02*
X28820338Y-64527180D01*
X29725099Y-64860514D02*
X29725099Y-65527180D01*
X29296528Y-64860514D02*
X29296528Y-65384323D01*
X29344147Y-65479561D01*
X29439385Y-65527180D01*
X29582242Y-65527180D01*
X29677480Y-65479561D01*
X29725099Y-65431942D01*
X30201290Y-65527180D02*
X30201290Y-64527180D01*
X30296528Y-65146228D02*
X30582242Y-65527180D01*
X30582242Y-64860514D02*
X30201290Y-65241466D01*
X31439385Y-65527180D02*
X31439385Y-65003371D01*
X31391766Y-64908133D01*
X31296528Y-64860514D01*
X31106052Y-64860514D01*
X31010814Y-64908133D01*
X31439385Y-65479561D02*
X31344147Y-65527180D01*
X31106052Y-65527180D01*
X31010814Y-65479561D01*
X30963195Y-65384323D01*
X30963195Y-65289085D01*
X31010814Y-65193847D01*
X31106052Y-65146228D01*
X31344147Y-65146228D01*
X31439385Y-65098609D01*
X31915576Y-65527180D02*
X31915576Y-64860514D01*
X31915576Y-64955752D02*
X31963195Y-64908133D01*
X32058433Y-64860514D01*
X32201290Y-64860514D01*
X32296528Y-64908133D01*
X32344147Y-65003371D01*
X32344147Y-65527180D01*
X32344147Y-65003371D02*
X32391766Y-64908133D01*
X32487004Y-64860514D01*
X32629861Y-64860514D01*
X32725099Y-64908133D01*
X32772719Y-65003371D01*
X32772719Y-65527180D01*
X33867957Y-64527180D02*
X34439385Y-64527180D01*
X34153671Y-65527180D02*
X34153671Y-64527180D01*
X35153671Y-65479561D02*
X35058433Y-65527180D01*
X34867957Y-65527180D01*
X34772719Y-65479561D01*
X34725100Y-65384323D01*
X34725100Y-65003371D01*
X34772719Y-64908133D01*
X34867957Y-64860514D01*
X35058433Y-64860514D01*
X35153671Y-64908133D01*
X35201290Y-65003371D01*
X35201290Y-65098609D01*
X34725100Y-65193847D01*
X36058433Y-65479561D02*
X35963195Y-65527180D01*
X35772719Y-65527180D01*
X35677480Y-65479561D01*
X35629861Y-65431942D01*
X35582242Y-65336704D01*
X35582242Y-65050990D01*
X35629861Y-64955752D01*
X35677480Y-64908133D01*
X35772719Y-64860514D01*
X35963195Y-64860514D01*
X36058433Y-64908133D01*
X36487004Y-65527180D02*
X36487004Y-64527180D01*
X36915576Y-65527180D02*
X36915576Y-65003371D01*
X36867957Y-64908133D01*
X36772719Y-64860514D01*
X36629861Y-64860514D01*
X36534623Y-64908133D01*
X36487004Y-64955752D01*
X37391766Y-64860514D02*
X37391766Y-65527180D01*
X37391766Y-64955752D02*
X37439385Y-64908133D01*
X37534623Y-64860514D01*
X37677480Y-64860514D01*
X37772719Y-64908133D01*
X37820338Y-65003371D01*
X37820338Y-65527180D01*
X38439385Y-65527180D02*
X38344147Y-65479561D01*
X38296528Y-65431942D01*
X38248909Y-65336704D01*
X38248909Y-65050990D01*
X38296528Y-64955752D01*
X38344147Y-64908133D01*
X38439385Y-64860514D01*
X38582242Y-64860514D01*
X38677480Y-64908133D01*
X38725100Y-64955752D01*
X38772719Y-65050990D01*
X38772719Y-65336704D01*
X38725100Y-65431942D01*
X38677480Y-65479561D01*
X38582242Y-65527180D01*
X38439385Y-65527180D01*
X39344147Y-65527180D02*
X39248909Y-65479561D01*
X39201290Y-65384323D01*
X39201290Y-64527180D01*
X39867957Y-65527180D02*
X39772719Y-65479561D01*
X39725100Y-65431942D01*
X39677480Y-65336704D01*
X39677480Y-65050990D01*
X39725100Y-64955752D01*
X39772719Y-64908133D01*
X39867957Y-64860514D01*
X40010814Y-64860514D01*
X40106052Y-64908133D01*
X40153671Y-64955752D01*
X40201290Y-65050990D01*
X40201290Y-65336704D01*
X40153671Y-65431942D01*
X40106052Y-65479561D01*
X40010814Y-65527180D01*
X39867957Y-65527180D01*
X41058433Y-64860514D02*
X41058433Y-65670038D01*
X41010814Y-65765276D01*
X40963195Y-65812895D01*
X40867957Y-65860514D01*
X40725100Y-65860514D01*
X40629861Y-65812895D01*
X41058433Y-65479561D02*
X40963195Y-65527180D01*
X40772719Y-65527180D01*
X40677480Y-65479561D01*
X40629861Y-65431942D01*
X40582242Y-65336704D01*
X40582242Y-65050990D01*
X40629861Y-64955752D01*
X40677480Y-64908133D01*
X40772719Y-64860514D01*
X40963195Y-64860514D01*
X41058433Y-64908133D01*
X41534623Y-65527180D02*
X41534623Y-64860514D01*
X41534623Y-64527180D02*
X41487004Y-64574800D01*
X41534623Y-64622419D01*
X41582242Y-64574800D01*
X41534623Y-64527180D01*
X41534623Y-64622419D01*
X42391766Y-65479561D02*
X42296528Y-65527180D01*
X42106052Y-65527180D01*
X42010814Y-65479561D01*
X41963195Y-65384323D01*
X41963195Y-65003371D01*
X42010814Y-64908133D01*
X42106052Y-64860514D01*
X42296528Y-64860514D01*
X42391766Y-64908133D01*
X42439385Y-65003371D01*
X42439385Y-65098609D01*
X41963195Y-65193847D01*
X42820338Y-65479561D02*
X42915576Y-65527180D01*
X43106052Y-65527180D01*
X43201290Y-65479561D01*
X43248909Y-65384323D01*
X43248909Y-65336704D01*
X43201290Y-65241466D01*
X43106052Y-65193847D01*
X42963195Y-65193847D01*
X42867957Y-65146228D01*
X42820338Y-65050990D01*
X42820338Y-65003371D01*
X42867957Y-64908133D01*
X42963195Y-64860514D01*
X43106052Y-64860514D01*
X43201290Y-64908133D01*
D14*
X46389500Y-34763900D02*
X40949500Y-34763900D01*
X40949500Y-34763900D02*
X39589500Y-33403900D01*
X39589500Y-29323900D02*
X40949500Y-27963900D01*
X40949500Y-27963900D02*
X46389500Y-27963900D01*
X39589500Y-29323900D02*
X39589500Y-30253900D01*
X39589500Y-33403900D02*
X39589500Y-32473900D01*
D13*
X38839500Y-29613900D02*
G75*
G03*
X38839500Y-29613900I-100000J0D01*
G01*
D14*
X46389500Y-27963900D02*
X46389500Y-30253900D01*
X46389500Y-32473900D02*
X46389500Y-34763900D01*
D12*
X54252600Y-83241000D02*
X53552600Y-83241000D01*
X53552600Y-83241000D02*
X53552600Y-83741000D01*
X59052600Y-85541000D02*
X59052600Y-83741000D01*
X59052600Y-83741000D02*
X58452600Y-83741000D01*
X51452600Y-85341000D02*
X51452600Y-83741000D01*
X51452600Y-83741000D02*
X52052600Y-83741000D01*
X31183100Y-24374300D02*
X31183100Y-31374300D01*
X31183100Y-31374300D02*
X31183100Y-31874300D01*
X31183100Y-31874300D02*
X31183100Y-31964300D01*
X31183100Y-24374300D02*
X26183100Y-24374300D01*
X26183100Y-24374300D02*
X25383100Y-24374300D01*
X25383100Y-24374300D02*
X25373100Y-24374300D01*
X31143100Y-31954300D02*
X31153100Y-31954300D01*
X30343100Y-31954300D02*
X31143100Y-31954300D01*
X25343100Y-31954300D02*
X30343100Y-31954300D01*
X25343100Y-24454300D02*
X25343100Y-24364300D01*
X25343100Y-31954300D02*
X25343100Y-24954300D01*
X25343100Y-24954300D02*
X25343100Y-24454300D01*
X25563100Y-27084300D02*
X25563100Y-29614300D01*
X25563100Y-29614300D02*
X25163100Y-29614300D01*
X25163100Y-29614300D02*
X25163100Y-27064300D01*
X25163100Y-27064300D02*
X25543100Y-27064300D01*
X25543100Y-27064300D02*
X25543100Y-27054300D01*
X31198400Y-36002500D02*
X31198400Y-43002500D01*
X31198400Y-43002500D02*
X31198400Y-43502500D01*
X31198400Y-43502500D02*
X31198400Y-43592500D01*
X31198400Y-36002500D02*
X26198400Y-36002500D01*
X26198400Y-36002500D02*
X25398400Y-36002500D01*
X25398400Y-36002500D02*
X25388400Y-36002500D01*
X31158400Y-43582500D02*
X31168400Y-43582500D01*
X30358400Y-43582500D02*
X31158400Y-43582500D01*
X25358400Y-43582500D02*
X30358400Y-43582500D01*
X25358400Y-36082500D02*
X25358400Y-35992500D01*
X25358400Y-43582500D02*
X25358400Y-36582500D01*
X25358400Y-36582500D02*
X25358400Y-36082500D01*
X25578400Y-38712500D02*
X25578400Y-41242500D01*
X25578400Y-41242500D02*
X25178400Y-41242500D01*
X25178400Y-41242500D02*
X25178400Y-38692500D01*
X25178400Y-38692500D02*
X25558400Y-38692500D01*
X25558400Y-38692500D02*
X25558400Y-38682500D01*
X48027500Y-69824100D02*
X56027500Y-69824100D01*
X56027500Y-69824100D02*
X56027500Y-59824100D01*
X56027500Y-59824100D02*
X48027500Y-59824100D01*
X48027500Y-59824100D02*
X47027500Y-59824100D01*
X47027500Y-59824100D02*
X47027500Y-69824100D01*
X47027500Y-69824100D02*
X48027500Y-69824100D01*
D15*
X49709400Y-87999900D02*
X49709400Y-85339900D01*
X36949400Y-87999900D02*
X49709400Y-87999900D01*
X36949400Y-85339900D02*
X49709400Y-85339900D01*
X36949400Y-87999900D02*
X36949400Y-85339900D01*
X35679400Y-87999900D02*
X34349400Y-87999900D01*
X34349400Y-87999900D02*
X34349400Y-86669900D01*
D13*
X49182500Y-24474900D02*
G75*
G03*
X49182500Y-24474900I-100000J0D01*
G01*
D14*
X48332500Y-20074900D02*
X48332500Y-18574900D01*
X48332500Y-18574900D02*
X46832500Y-18574900D01*
X46832500Y-18574900D02*
X46832500Y-20074900D01*
X50182500Y-21924900D02*
X50182500Y-20924900D01*
X49832500Y-22774900D02*
X43832500Y-22774900D01*
X49832500Y-20074900D02*
X43832500Y-20074900D01*
X43482500Y-21924900D02*
X43482500Y-20924900D01*
D15*
X38341200Y-49283800D02*
X38341200Y-51883800D01*
X36741200Y-49283800D02*
X36741200Y-51883800D01*
X38341200Y-49283800D02*
X36741200Y-49283800D01*
X57530000Y-81256200D02*
X56200000Y-81256200D01*
X57530000Y-79926200D02*
X57530000Y-81256200D01*
X57530000Y-78656200D02*
X54870000Y-78656200D01*
X54870000Y-78656200D02*
X54870000Y-70976200D01*
X57530000Y-78656200D02*
X57530000Y-70976200D01*
X57530000Y-70976200D02*
X54870000Y-70976200D01*
D12*
X40194700Y-69456400D02*
X40204700Y-82856400D01*
X24204700Y-69456400D02*
X40194700Y-69456400D01*
X24204700Y-82856400D02*
X24204700Y-69456400D01*
X40204700Y-82856400D02*
X24204700Y-82856400D01*
X27344875Y-81056400D02*
G75*
G03*
X27344875Y-81056400I-1140175J0D01*
G01*
D15*
X27925700Y-88939700D02*
X27925700Y-87609700D01*
X29255700Y-88939700D02*
X27925700Y-88939700D01*
X30525700Y-88939700D02*
X30525700Y-86279700D01*
X30525700Y-86279700D02*
X30585700Y-86279700D01*
X30525700Y-88939700D02*
X30585700Y-88939700D01*
X30585700Y-88939700D02*
X30585700Y-86279700D01*
X37015000Y-24643300D02*
X37015000Y-27243300D01*
X35415000Y-24643300D02*
X35415000Y-27243300D01*
X37015000Y-24643300D02*
X35415000Y-24643300D01*
X55619500Y-24915504D02*
X54384500Y-22776421D01*
X54580937Y-24894660D02*
X56120730Y-24005660D01*
X55350834Y-24450160D02*
X53988270Y-23868131D01*
X53988270Y-23868131D02*
X55528063Y-22979131D01*
X55528063Y-22979131D02*
X55350834Y-24450160D01*
X57734500Y-26136600D02*
G75*
G03*
X57734500Y-26136600I-1410000J0D01*
G01*
X48979100Y-47190100D02*
X48979100Y-53590100D01*
X43929100Y-47190100D02*
X43929100Y-53590100D01*
X43929100Y-53590100D02*
G75*
G03*
X48979100Y-53590100I2525000J0D01*
G01*
X43929100Y-47190100D02*
G75*
G02*
X48979100Y-47190100I2525000J0D01*
G01*
X24221200Y-47136800D02*
X24221200Y-53536800D01*
X29271200Y-47136800D02*
X29271200Y-53536800D01*
X24221200Y-47136800D02*
G75*
G02*
X29271200Y-47136800I2525000J0D01*
G01*
X24221200Y-53536800D02*
G75*
G03*
X29271200Y-53536800I2525000J0D01*
G01*
X50120000Y-74118800D02*
X45620000Y-74118800D01*
X51370000Y-78118800D02*
X51370000Y-76618800D01*
X45620000Y-80618800D02*
X50120000Y-80618800D01*
X44370000Y-76618800D02*
X44370000Y-78118800D01*
D14*
X52220900Y-28850400D02*
X57660900Y-28850400D01*
X57660900Y-28850400D02*
X59020900Y-30210400D01*
X59020900Y-34290400D02*
X57660900Y-35650400D01*
X57660900Y-35650400D02*
X52220900Y-35650400D01*
X59020900Y-34290400D02*
X59020900Y-33360400D01*
X59020900Y-30210400D02*
X59020900Y-31140400D01*
D13*
X59970900Y-34000400D02*
G75*
G03*
X59970900Y-34000400I-100000J0D01*
G01*
D14*
X52220900Y-35650400D02*
X52220900Y-33360400D01*
X52220900Y-31140400D02*
X52220900Y-28850400D01*
X44815400Y-43753700D02*
X43815400Y-43753700D01*
X43815400Y-35453700D02*
X44815400Y-35453700D01*
D13*
X39215400Y-39503700D02*
G75*
G03*
X39215400Y-39503700I-100000J0D01*
G01*
D14*
X40165400Y-37803700D02*
X40165400Y-37103700D01*
X40165400Y-37103700D02*
X41815400Y-35453700D01*
X41815400Y-35453700D02*
X46815400Y-35453700D01*
X46815400Y-35453700D02*
X48465400Y-37103700D01*
X48465400Y-37103700D02*
X48465400Y-37803700D01*
X44815400Y-43753700D02*
X43815400Y-43753700D01*
X48465400Y-41403700D02*
X48465400Y-42103700D01*
X48465400Y-42103700D02*
X46815400Y-43753700D01*
X46815400Y-43753700D02*
X41815400Y-43753700D01*
X41815400Y-43753700D02*
X40165400Y-42103700D01*
X40165400Y-42103700D02*
X40165400Y-41403700D01*
D15*
X34576600Y-40808500D02*
X33576600Y-40808500D01*
X33576600Y-42508500D02*
X34576600Y-42508500D01*
X47516000Y-82857400D02*
X47516000Y-84457400D01*
X47516000Y-84457400D02*
X50116000Y-84457400D01*
X47516000Y-82857400D02*
X50116000Y-82857400D01*
X41023700Y-82844700D02*
X43623700Y-82844700D01*
X41023700Y-84444700D02*
X43623700Y-84444700D01*
X41023700Y-82844700D02*
X41023700Y-84444700D01*
X35508700Y-43362800D02*
X35508700Y-44292800D01*
X35508700Y-46522800D02*
X35508700Y-45592800D01*
X35508700Y-46522800D02*
X37668700Y-46522800D01*
X35508700Y-43362800D02*
X36968700Y-43362800D01*
X51978000Y-81230600D02*
X53178000Y-81230600D01*
X53178000Y-82990600D02*
X51978000Y-82990600D01*
X33641700Y-47834700D02*
X34841700Y-47834700D01*
X34841700Y-49594700D02*
X33641700Y-49594700D01*
D12*
X39355733Y-28035502D02*
X39308114Y-28083121D01*
X39165257Y-28130740D01*
X39070019Y-28130740D01*
X38927161Y-28083121D01*
X38831923Y-27987883D01*
X38784304Y-27892645D01*
X38736685Y-27702169D01*
X38736685Y-27559312D01*
X38784304Y-27368836D01*
X38831923Y-27273598D01*
X38927161Y-27178360D01*
X39070019Y-27130740D01*
X39165257Y-27130740D01*
X39308114Y-27178360D01*
X39355733Y-27225979D01*
X39927161Y-27559312D02*
X39831923Y-27511693D01*
X39784304Y-27464074D01*
X39736685Y-27368836D01*
X39736685Y-27321217D01*
X39784304Y-27225979D01*
X39831923Y-27178360D01*
X39927161Y-27130740D01*
X40117638Y-27130740D01*
X40212876Y-27178360D01*
X40260495Y-27225979D01*
X40308114Y-27321217D01*
X40308114Y-27368836D01*
X40260495Y-27464074D01*
X40212876Y-27511693D01*
X40117638Y-27559312D01*
X39927161Y-27559312D01*
X39831923Y-27606931D01*
X39784304Y-27654550D01*
X39736685Y-27749788D01*
X39736685Y-27940264D01*
X39784304Y-28035502D01*
X39831923Y-28083121D01*
X39927161Y-28130740D01*
X40117638Y-28130740D01*
X40212876Y-28083121D01*
X40260495Y-28035502D01*
X40308114Y-27940264D01*
X40308114Y-27749788D01*
X40260495Y-27654550D01*
X40212876Y-27606931D01*
X40117638Y-27559312D01*
X31998346Y-24697400D02*
X31998346Y-25411686D01*
X31950727Y-25554543D01*
X31855489Y-25649781D01*
X31712632Y-25697400D01*
X31617394Y-25697400D01*
X32426918Y-24792639D02*
X32474537Y-24745020D01*
X32569775Y-24697400D01*
X32807870Y-24697400D01*
X32903108Y-24745020D01*
X32950727Y-24792639D01*
X32998346Y-24887877D01*
X32998346Y-24983115D01*
X32950727Y-25125972D01*
X32379299Y-25697400D01*
X32998346Y-25697400D01*
X32003486Y-42109180D02*
X32003486Y-42823466D01*
X31955867Y-42966323D01*
X31860629Y-43061561D01*
X31717772Y-43109180D01*
X31622534Y-43109180D01*
X33003486Y-43109180D02*
X32432058Y-43109180D01*
X32717772Y-43109180D02*
X32717772Y-42109180D01*
X32622534Y-42252038D01*
X32527296Y-42347276D01*
X32432058Y-42394895D01*
X44833615Y-67313540D02*
X44833615Y-68123064D01*
X44881234Y-68218302D01*
X44928853Y-68265921D01*
X45024091Y-68313540D01*
X45214567Y-68313540D01*
X45309805Y-68265921D01*
X45357424Y-68218302D01*
X45405043Y-68123064D01*
X45405043Y-67313540D01*
X46309805Y-67646874D02*
X46309805Y-68313540D01*
X46071710Y-67265921D02*
X45833615Y-67980207D01*
X46452662Y-67980207D01*
X48894691Y-67293144D02*
X48942310Y-67150287D01*
X48989929Y-67102668D01*
X49085167Y-67055049D01*
X49228024Y-67055049D01*
X49323262Y-67102668D01*
X49370881Y-67150287D01*
X49418500Y-67245525D01*
X49418500Y-67626478D01*
X48418500Y-67626478D01*
X48418500Y-67293144D01*
X48466120Y-67197906D01*
X48513739Y-67150287D01*
X48608977Y-67102668D01*
X48704215Y-67102668D01*
X48799453Y-67150287D01*
X48847072Y-67197906D01*
X48894691Y-67293144D01*
X48894691Y-67626478D01*
X49418500Y-66626478D02*
X48418500Y-66626478D01*
X49132786Y-66293144D01*
X48418500Y-65959811D01*
X49418500Y-65959811D01*
X48894691Y-65483620D02*
X48894691Y-65150287D01*
X49418500Y-65007430D02*
X49418500Y-65483620D01*
X48418500Y-65483620D01*
X48418500Y-65007430D01*
X49513739Y-64816954D02*
X49513739Y-64055049D01*
X48513739Y-63864573D02*
X48466120Y-63816954D01*
X48418500Y-63721716D01*
X48418500Y-63483620D01*
X48466120Y-63388382D01*
X48513739Y-63340763D01*
X48608977Y-63293144D01*
X48704215Y-63293144D01*
X48847072Y-63340763D01*
X49418500Y-63912192D01*
X49418500Y-63293144D01*
X48847072Y-62721716D02*
X48799453Y-62816954D01*
X48751834Y-62864573D01*
X48656596Y-62912192D01*
X48608977Y-62912192D01*
X48513739Y-62864573D01*
X48466120Y-62816954D01*
X48418500Y-62721716D01*
X48418500Y-62531240D01*
X48466120Y-62436001D01*
X48513739Y-62388382D01*
X48608977Y-62340763D01*
X48656596Y-62340763D01*
X48751834Y-62388382D01*
X48799453Y-62436001D01*
X48847072Y-62531240D01*
X48847072Y-62721716D01*
X48894691Y-62816954D01*
X48942310Y-62864573D01*
X49037548Y-62912192D01*
X49228024Y-62912192D01*
X49323262Y-62864573D01*
X49370881Y-62816954D01*
X49418500Y-62721716D01*
X49418500Y-62531240D01*
X49370881Y-62436001D01*
X49323262Y-62388382D01*
X49228024Y-62340763D01*
X49037548Y-62340763D01*
X48942310Y-62388382D01*
X48894691Y-62436001D01*
X48847072Y-62531240D01*
X48418500Y-61721716D02*
X48418500Y-61626478D01*
X48466120Y-61531240D01*
X48513739Y-61483620D01*
X48608977Y-61436001D01*
X48799453Y-61388382D01*
X49037548Y-61388382D01*
X49228024Y-61436001D01*
X49323262Y-61483620D01*
X49370881Y-61531240D01*
X49418500Y-61626478D01*
X49418500Y-61721716D01*
X49370881Y-61816954D01*
X49323262Y-61864573D01*
X49228024Y-61912192D01*
X49037548Y-61959811D01*
X48799453Y-61959811D01*
X48608977Y-61912192D01*
X48513739Y-61864573D01*
X48466120Y-61816954D01*
X48418500Y-61721716D01*
X32778126Y-83782940D02*
X32778126Y-84497226D01*
X32730507Y-84640083D01*
X32635269Y-84735321D01*
X32492412Y-84782940D01*
X32397174Y-84782940D01*
X33682888Y-84116274D02*
X33682888Y-84782940D01*
X33444793Y-83735321D02*
X33206698Y-84449607D01*
X33825745Y-84449607D01*
D10*
X43758962Y-25446714D02*
X43901852Y-25494344D01*
X44140001Y-25494344D01*
X44235261Y-25446714D01*
X44282891Y-25399084D01*
X44330521Y-25303824D01*
X44330521Y-25208564D01*
X44282891Y-25113304D01*
X44235261Y-25065674D01*
X44140001Y-25018045D01*
X43949482Y-24970415D01*
X43854222Y-24922785D01*
X43806592Y-24875155D01*
X43758962Y-24779895D01*
X43758962Y-24684635D01*
X43806592Y-24589375D01*
X43854222Y-24541746D01*
X43949482Y-24494116D01*
X44187631Y-24494116D01*
X44330521Y-24541746D01*
X44663930Y-24494116D02*
X44902080Y-25494344D01*
X45092600Y-24779895D01*
X45283119Y-25494344D01*
X45521269Y-24494116D01*
X46426237Y-25494344D02*
X45854678Y-25494344D01*
X46140457Y-25494344D02*
X46140457Y-24494116D01*
X46045198Y-24637005D01*
X45949938Y-24732265D01*
X45854678Y-24779895D01*
D12*
X36132544Y-53568840D02*
X36132544Y-52568840D01*
X36370640Y-52568840D01*
X36513497Y-52616460D01*
X36608735Y-52711698D01*
X36656354Y-52806936D01*
X36703973Y-52997412D01*
X36703973Y-53140269D01*
X36656354Y-53330745D01*
X36608735Y-53425983D01*
X36513497Y-53521221D01*
X36370640Y-53568840D01*
X36132544Y-53568840D01*
X37561116Y-52902174D02*
X37561116Y-53568840D01*
X37323020Y-52521221D02*
X37084925Y-53235507D01*
X37703973Y-53235507D01*
X58508266Y-70206640D02*
X58508266Y-70920926D01*
X58460647Y-71063783D01*
X58365409Y-71159021D01*
X58222552Y-71206640D01*
X58127314Y-71206640D01*
X59460647Y-70206640D02*
X58984457Y-70206640D01*
X58936838Y-70682831D01*
X58984457Y-70635212D01*
X59079695Y-70587593D01*
X59317790Y-70587593D01*
X59413028Y-70635212D01*
X59460647Y-70682831D01*
X59508266Y-70778069D01*
X59508266Y-71016164D01*
X59460647Y-71111402D01*
X59413028Y-71159021D01*
X59317790Y-71206640D01*
X59079695Y-71206640D01*
X58984457Y-71159021D01*
X58936838Y-71111402D01*
X23490015Y-66381380D02*
X23490015Y-67190904D01*
X23537634Y-67286142D01*
X23585253Y-67333761D01*
X23680491Y-67381380D01*
X23870967Y-67381380D01*
X23966205Y-67333761D01*
X24013824Y-67286142D01*
X24061443Y-67190904D01*
X24061443Y-66381380D01*
X24490015Y-66476619D02*
X24537634Y-66429000D01*
X24632872Y-66381380D01*
X24870967Y-66381380D01*
X24966205Y-66429000D01*
X25013824Y-66476619D01*
X25061443Y-66571857D01*
X25061443Y-66667095D01*
X25013824Y-66809952D01*
X24442396Y-67381380D01*
X25061443Y-67381380D01*
X28277080Y-77909257D02*
X28277080Y-78623542D01*
X27277080Y-78623542D01*
X28277080Y-77194971D02*
X28229461Y-77337828D01*
X28181842Y-77409257D01*
X28086604Y-77480685D01*
X27800890Y-77480685D01*
X27705652Y-77409257D01*
X27658033Y-77337828D01*
X27610414Y-77194971D01*
X27610414Y-76980685D01*
X27658033Y-76837828D01*
X27705652Y-76766400D01*
X27800890Y-76694971D01*
X28086604Y-76694971D01*
X28181842Y-76766400D01*
X28229461Y-76837828D01*
X28277080Y-76980685D01*
X28277080Y-77194971D01*
X28277080Y-75194971D02*
X27800890Y-75694971D01*
X28277080Y-76052114D02*
X27277080Y-76052114D01*
X27277080Y-75480685D01*
X27324700Y-75337828D01*
X27372319Y-75266400D01*
X27467557Y-75194971D01*
X27610414Y-75194971D01*
X27705652Y-75266400D01*
X27753271Y-75337828D01*
X27800890Y-75480685D01*
X27800890Y-76052114D01*
X28277080Y-73909257D02*
X27753271Y-73909257D01*
X27658033Y-73980685D01*
X27610414Y-74123542D01*
X27610414Y-74409257D01*
X27658033Y-74552114D01*
X28229461Y-73909257D02*
X28277080Y-74052114D01*
X28277080Y-74409257D01*
X28229461Y-74552114D01*
X28134223Y-74623542D01*
X28038985Y-74623542D01*
X27943747Y-74552114D01*
X27896128Y-74409257D01*
X27896128Y-74052114D01*
X27848509Y-73909257D01*
X57967326Y-44184400D02*
X57967326Y-44898686D01*
X57919707Y-45041543D01*
X57824469Y-45136781D01*
X57681612Y-45184400D01*
X57586374Y-45184400D01*
X58348279Y-44184400D02*
X58967326Y-44184400D01*
X58633993Y-44565353D01*
X58776850Y-44565353D01*
X58872088Y-44612972D01*
X58919707Y-44660591D01*
X58967326Y-44755829D01*
X58967326Y-44993924D01*
X58919707Y-45089162D01*
X58872088Y-45136781D01*
X58776850Y-45184400D01*
X58491136Y-45184400D01*
X58395898Y-45136781D01*
X58348279Y-45089162D01*
X35530084Y-24211520D02*
X35530084Y-23211520D01*
X35768180Y-23211520D01*
X35911037Y-23259140D01*
X36006275Y-23354378D01*
X36053894Y-23449616D01*
X36101513Y-23640092D01*
X36101513Y-23782949D01*
X36053894Y-23973425D01*
X36006275Y-24068663D01*
X35911037Y-24163901D01*
X35768180Y-24211520D01*
X35530084Y-24211520D01*
X37053894Y-24211520D02*
X36482465Y-24211520D01*
X36768180Y-24211520D02*
X36768180Y-23211520D01*
X36672941Y-23354378D01*
X36577703Y-23449616D01*
X36482465Y-23497235D01*
X57592532Y-23807546D02*
X57065762Y-23561820D01*
X57097661Y-24093261D02*
X56597661Y-23227235D01*
X56927575Y-23036759D01*
X57033863Y-23030379D01*
X57098912Y-23047809D01*
X57187771Y-23106478D01*
X57259199Y-23230196D01*
X57265579Y-23336484D01*
X57248149Y-23401533D01*
X57189480Y-23490391D01*
X56859566Y-23680867D01*
X57876079Y-22489140D02*
X57463686Y-22727235D01*
X57660542Y-23163438D01*
X57677972Y-23098389D01*
X57736641Y-23009531D01*
X57942837Y-22890483D01*
X58049126Y-22884103D01*
X58114174Y-22901533D01*
X58203033Y-22960202D01*
X58322080Y-23166399D01*
X58328460Y-23272687D01*
X58311030Y-23337735D01*
X58252361Y-23426594D01*
X58046165Y-23545641D01*
X57939877Y-23552021D01*
X57874828Y-23534591D01*
X49145289Y-45035770D02*
X49145289Y-45511960D01*
X48811956Y-44511960D02*
X49145289Y-45035770D01*
X49478622Y-44511960D01*
X50335765Y-45511960D02*
X49764337Y-45511960D01*
X50050051Y-45511960D02*
X50050051Y-44511960D01*
X49954813Y-44654818D01*
X49859575Y-44750056D01*
X49764337Y-44797675D01*
X24121169Y-57245570D02*
X24121169Y-57721760D01*
X23787836Y-56721760D02*
X24121169Y-57245570D01*
X24454502Y-56721760D01*
X24740217Y-56816999D02*
X24787836Y-56769380D01*
X24883074Y-56721760D01*
X25121169Y-56721760D01*
X25216407Y-56769380D01*
X25264026Y-56816999D01*
X25311645Y-56912237D01*
X25311645Y-57007475D01*
X25264026Y-57150332D01*
X24692598Y-57721760D01*
X25311645Y-57721760D01*
X43012486Y-73069041D02*
X43155343Y-73116660D01*
X43393439Y-73116660D01*
X43488677Y-73069041D01*
X43536296Y-73021422D01*
X43583915Y-72926184D01*
X43583915Y-72830946D01*
X43536296Y-72735708D01*
X43488677Y-72688089D01*
X43393439Y-72640470D01*
X43202962Y-72592851D01*
X43107724Y-72545232D01*
X43060105Y-72497613D01*
X43012486Y-72402375D01*
X43012486Y-72307137D01*
X43060105Y-72211899D01*
X43107724Y-72164280D01*
X43202962Y-72116660D01*
X43441058Y-72116660D01*
X43583915Y-72164280D01*
X43917248Y-72116660D02*
X44155343Y-73116660D01*
X44345820Y-72402375D01*
X44536296Y-73116660D01*
X44774391Y-72116660D01*
X45107724Y-72211899D02*
X45155343Y-72164280D01*
X45250581Y-72116660D01*
X45488677Y-72116660D01*
X45583915Y-72164280D01*
X45631534Y-72211899D01*
X45679153Y-72307137D01*
X45679153Y-72402375D01*
X45631534Y-72545232D01*
X45060105Y-73116660D01*
X45679153Y-73116660D01*
D16*
X57816433Y-37502122D02*
X57768814Y-37549741D01*
X57625957Y-37597360D01*
X57530719Y-37597360D01*
X57387861Y-37549741D01*
X57292623Y-37454503D01*
X57245004Y-37359265D01*
X57197385Y-37168789D01*
X57197385Y-37025932D01*
X57245004Y-36835456D01*
X57292623Y-36740218D01*
X57387861Y-36644980D01*
X57530719Y-36597360D01*
X57625957Y-36597360D01*
X57768814Y-36644980D01*
X57816433Y-36692599D01*
X58292623Y-37597360D02*
X58483100Y-37597360D01*
X58578338Y-37549741D01*
X58625957Y-37502122D01*
X58721195Y-37359265D01*
X58768814Y-37168789D01*
X58768814Y-36787837D01*
X58721195Y-36692599D01*
X58673576Y-36644980D01*
X58578338Y-36597360D01*
X58387861Y-36597360D01*
X58292623Y-36644980D01*
X58245004Y-36692599D01*
X58197385Y-36787837D01*
X58197385Y-37025932D01*
X58245004Y-37121170D01*
X58292623Y-37168789D01*
X58387861Y-37216408D01*
X58578338Y-37216408D01*
X58673576Y-37168789D01*
X58721195Y-37121170D01*
X58768814Y-37025932D01*
X48415933Y-34788120D02*
X47939742Y-34788120D01*
X47939742Y-33788120D01*
X49273076Y-34788120D02*
X48701647Y-34788120D01*
X48987361Y-34788120D02*
X48987361Y-33788120D01*
X48892123Y-33930978D01*
X48796885Y-34026216D01*
X48701647Y-34073835D01*
D12*
X33433742Y-40515642D02*
X33386123Y-40563261D01*
X33243266Y-40610880D01*
X33148028Y-40610880D01*
X33005171Y-40563261D01*
X32909933Y-40468023D01*
X32862314Y-40372785D01*
X32814695Y-40182309D01*
X32814695Y-40039452D01*
X32862314Y-39848976D01*
X32909933Y-39753738D01*
X33005171Y-39658500D01*
X33148028Y-39610880D01*
X33243266Y-39610880D01*
X33386123Y-39658500D01*
X33433742Y-39706119D01*
X34386123Y-40610880D02*
X33814695Y-40610880D01*
X34100409Y-40610880D02*
X34100409Y-39610880D01*
X34005171Y-39753738D01*
X33909933Y-39848976D01*
X33814695Y-39896595D01*
X35005171Y-39610880D02*
X35100409Y-39610880D01*
X35195647Y-39658500D01*
X35243266Y-39706119D01*
X35290885Y-39801357D01*
X35338504Y-39991833D01*
X35338504Y-40229928D01*
X35290885Y-40420404D01*
X35243266Y-40515642D01*
X35195647Y-40563261D01*
X35100409Y-40610880D01*
X35005171Y-40610880D01*
X34909933Y-40563261D01*
X34862314Y-40515642D01*
X34814695Y-40420404D01*
X34767076Y-40229928D01*
X34767076Y-39991833D01*
X34814695Y-39801357D01*
X34862314Y-39706119D01*
X34909933Y-39658500D01*
X35005171Y-39610880D01*
X45741384Y-84343460D02*
X45741384Y-83343460D01*
X45979480Y-83343460D01*
X46122337Y-83391080D01*
X46217575Y-83486318D01*
X46265194Y-83581556D01*
X46312813Y-83772032D01*
X46312813Y-83914889D01*
X46265194Y-84105365D01*
X46217575Y-84200603D01*
X46122337Y-84295841D01*
X45979480Y-84343460D01*
X45741384Y-84343460D01*
X46646146Y-83343460D02*
X47265194Y-83343460D01*
X46931860Y-83724413D01*
X47074718Y-83724413D01*
X47169956Y-83772032D01*
X47217575Y-83819651D01*
X47265194Y-83914889D01*
X47265194Y-84152984D01*
X47217575Y-84248222D01*
X47169956Y-84295841D01*
X47074718Y-84343460D01*
X46789003Y-84343460D01*
X46693765Y-84295841D01*
X46646146Y-84248222D01*
X40674024Y-82517200D02*
X40674024Y-81517200D01*
X40912120Y-81517200D01*
X41054977Y-81564820D01*
X41150215Y-81660058D01*
X41197834Y-81755296D01*
X41245453Y-81945772D01*
X41245453Y-82088629D01*
X41197834Y-82279105D01*
X41150215Y-82374343D01*
X41054977Y-82469581D01*
X40912120Y-82517200D01*
X40674024Y-82517200D01*
X42102596Y-81517200D02*
X41912120Y-81517200D01*
X41816881Y-81564820D01*
X41769262Y-81612439D01*
X41674024Y-81755296D01*
X41626405Y-81945772D01*
X41626405Y-82326724D01*
X41674024Y-82421962D01*
X41721643Y-82469581D01*
X41816881Y-82517200D01*
X42007358Y-82517200D01*
X42102596Y-82469581D01*
X42150215Y-82421962D01*
X42197834Y-82326724D01*
X42197834Y-82088629D01*
X42150215Y-81993391D01*
X42102596Y-81945772D01*
X42007358Y-81898153D01*
X41816881Y-81898153D01*
X41721643Y-81945772D01*
X41674024Y-81993391D01*
X41626405Y-82088629D01*
X33811261Y-45398979D02*
X33716023Y-45351360D01*
X33620785Y-45256121D01*
X33477928Y-45113264D01*
X33382690Y-45065645D01*
X33287452Y-45065645D01*
X33335071Y-45303740D02*
X33239833Y-45256121D01*
X33144595Y-45160883D01*
X33096976Y-44970407D01*
X33096976Y-44637074D01*
X33144595Y-44446598D01*
X33239833Y-44351360D01*
X33335071Y-44303740D01*
X33525547Y-44303740D01*
X33620785Y-44351360D01*
X33716023Y-44446598D01*
X33763642Y-44637074D01*
X33763642Y-44970407D01*
X33716023Y-45160883D01*
X33620785Y-45256121D01*
X33525547Y-45303740D01*
X33335071Y-45303740D01*
X34716023Y-45303740D02*
X34144595Y-45303740D01*
X34430309Y-45303740D02*
X34430309Y-44303740D01*
X34335071Y-44446598D01*
X34239833Y-44541836D01*
X34144595Y-44589455D01*
X54875133Y-83002400D02*
X54541800Y-82526210D01*
X54303704Y-83002400D02*
X54303704Y-82002400D01*
X54684657Y-82002400D01*
X54779895Y-82050020D01*
X54827514Y-82097639D01*
X54875133Y-82192877D01*
X54875133Y-82335734D01*
X54827514Y-82430972D01*
X54779895Y-82478591D01*
X54684657Y-82526210D01*
X54303704Y-82526210D01*
X55446561Y-82430972D02*
X55351323Y-82383353D01*
X55303704Y-82335734D01*
X55256085Y-82240496D01*
X55256085Y-82192877D01*
X55303704Y-82097639D01*
X55351323Y-82050020D01*
X55446561Y-82002400D01*
X55637038Y-82002400D01*
X55732276Y-82050020D01*
X55779895Y-82097639D01*
X55827514Y-82192877D01*
X55827514Y-82240496D01*
X55779895Y-82335734D01*
X55732276Y-82383353D01*
X55637038Y-82430972D01*
X55446561Y-82430972D01*
X55351323Y-82478591D01*
X55303704Y-82526210D01*
X55256085Y-82621448D01*
X55256085Y-82811924D01*
X55303704Y-82907162D01*
X55351323Y-82954781D01*
X55446561Y-83002400D01*
X55637038Y-83002400D01*
X55732276Y-82954781D01*
X55779895Y-82907162D01*
X55827514Y-82811924D01*
X55827514Y-82621448D01*
X55779895Y-82526210D01*
X55732276Y-82478591D01*
X55637038Y-82430972D01*
X33230542Y-47731980D02*
X32897209Y-47255790D01*
X32659114Y-47731980D02*
X32659114Y-46731980D01*
X33040066Y-46731980D01*
X33135304Y-46779600D01*
X33182923Y-46827219D01*
X33230542Y-46922457D01*
X33230542Y-47065314D01*
X33182923Y-47160552D01*
X33135304Y-47208171D01*
X33040066Y-47255790D01*
X32659114Y-47255790D01*
X34182923Y-47731980D02*
X33611495Y-47731980D01*
X33897209Y-47731980D02*
X33897209Y-46731980D01*
X33801971Y-46874838D01*
X33706733Y-46970076D01*
X33611495Y-47017695D01*
X34801971Y-46731980D02*
X34897209Y-46731980D01*
X34992447Y-46779600D01*
X35040066Y-46827219D01*
X35087685Y-46922457D01*
X35135304Y-47112933D01*
X35135304Y-47351028D01*
X35087685Y-47541504D01*
X35040066Y-47636742D01*
X34992447Y-47684361D01*
X34897209Y-47731980D01*
X34801971Y-47731980D01*
X34706733Y-47684361D01*
X34659114Y-47636742D01*
X34611495Y-47541504D01*
X34563876Y-47351028D01*
X34563876Y-47112933D01*
X34611495Y-46922457D01*
X34659114Y-46827219D01*
X34706733Y-46779600D01*
X34801971Y-46731980D01*
M02*
