G04 #@! TF.GenerationSoftware,KiCad,Pcbnew,5.1.7-a382d34a8~88~ubuntu18.04.1*
G04 #@! TF.CreationDate,2021-06-07T17:39:16+05:30*
G04 #@! TF.ProjectId,stm32wb_Dev_v2,73746d33-3277-4625-9f44-65765f76322e,rev?*
G04 #@! TF.SameCoordinates,Original*
G04 #@! TF.FileFunction,Other,Fab,Bot*
%FSLAX46Y46*%
G04 Gerber Fmt 4.6, Leading zero omitted, Abs format (unit mm)*
G04 Created by KiCad (PCBNEW 5.1.7-a382d34a8~88~ubuntu18.04.1) date 2021-06-07 17:39:16*
%MOMM*%
%LPD*%
G01*
G04 APERTURE LIST*
%ADD10C,0.100000*%
%ADD11C,0.075000*%
G04 APERTURE END LIST*
D10*
X85656600Y-82222400D02*
X85656600Y-83822400D01*
X88856600Y-82222400D02*
X85656600Y-82222400D01*
X88856600Y-83822400D02*
X88856600Y-82222400D01*
X85656600Y-83822400D02*
X88856600Y-83822400D01*
X84911200Y-87975700D02*
X86911200Y-87975700D01*
X86911200Y-87975700D02*
X86911200Y-86735700D01*
X86911200Y-86735700D02*
X84911200Y-86735700D01*
X84911200Y-86735700D02*
X84911200Y-87975700D01*
X114882000Y-89313300D02*
X114882000Y-87313300D01*
X114882000Y-87313300D02*
X113642000Y-87313300D01*
X113642000Y-87313300D02*
X113642000Y-89313300D01*
X113642000Y-89313300D02*
X114882000Y-89313300D01*
X104472000Y-83594200D02*
X106472000Y-83594200D01*
X106472000Y-83594200D02*
X106472000Y-82354200D01*
X106472000Y-82354200D02*
X104472000Y-82354200D01*
X104472000Y-82354200D02*
X104472000Y-83594200D01*
X87851700Y-68622900D02*
X87851700Y-69862900D01*
X89851700Y-68622900D02*
X87851700Y-68622900D01*
X89851700Y-69862900D02*
X89851700Y-68622900D01*
X87851700Y-69862900D02*
X89851700Y-69862900D01*
X107587000Y-78739200D02*
X108827000Y-78739200D01*
X107587000Y-76739200D02*
X107587000Y-78739200D01*
X108827000Y-76739200D02*
X107587000Y-76739200D01*
X108827000Y-78739200D02*
X108827000Y-76739200D01*
X117437000Y-76367600D02*
X116197000Y-76367600D01*
X117437000Y-78367600D02*
X117437000Y-76367600D01*
X116197000Y-78367600D02*
X117437000Y-78367600D01*
X116197000Y-76367600D02*
X116197000Y-78367600D01*
X121966000Y-90815900D02*
X120726000Y-90815900D01*
X121966000Y-92815900D02*
X121966000Y-90815900D01*
X120726000Y-92815900D02*
X121966000Y-92815900D01*
X120726000Y-90815900D02*
X120726000Y-92815900D01*
X120830000Y-86739500D02*
X122070000Y-86739500D01*
X120830000Y-84739500D02*
X120830000Y-86739500D01*
X122070000Y-84739500D02*
X120830000Y-84739500D01*
X122070000Y-86739500D02*
X122070000Y-84739500D01*
X120550700Y-79914240D02*
X120550700Y-81914240D01*
X120550700Y-81914240D02*
X121790700Y-81914240D01*
X121790700Y-81914240D02*
X121790700Y-79914240D01*
X121790700Y-79914240D02*
X120550700Y-79914240D01*
X106472000Y-55859900D02*
X108472000Y-55859900D01*
X108472000Y-55859900D02*
X108472000Y-54619900D01*
X108472000Y-54619900D02*
X106472000Y-54619900D01*
X106472000Y-54619900D02*
X106472000Y-55859900D01*
X85027260Y-78087460D02*
X87027260Y-78087460D01*
X87027260Y-78087460D02*
X87027260Y-76847460D01*
X87027260Y-76847460D02*
X85027260Y-76847460D01*
X85027260Y-76847460D02*
X85027260Y-78087460D01*
X114265000Y-53573900D02*
X116265000Y-53573900D01*
X116265000Y-53573900D02*
X116265000Y-52333900D01*
X116265000Y-52333900D02*
X114265000Y-52333900D01*
X114265000Y-52333900D02*
X114265000Y-53573900D01*
X87503800Y-79186800D02*
X87503800Y-80426800D01*
X89503800Y-79186800D02*
X87503800Y-79186800D01*
X89503800Y-80426800D02*
X89503800Y-79186800D01*
X87503800Y-80426800D02*
X89503800Y-80426800D01*
X97932500Y-85217800D02*
X96692500Y-85217800D01*
X97932500Y-87217800D02*
X97932500Y-85217800D01*
X96692500Y-87217800D02*
X97932500Y-87217800D01*
X96692500Y-85217800D02*
X96692500Y-87217800D01*
X97221000Y-88536500D02*
X95221000Y-88536500D01*
X95221000Y-88536500D02*
X95221000Y-89776500D01*
X95221000Y-89776500D02*
X97221000Y-89776500D01*
X97221000Y-89776500D02*
X97221000Y-88536500D01*
X84758000Y-65935600D02*
X84758000Y-67175600D01*
X86758000Y-65935600D02*
X84758000Y-65935600D01*
X86758000Y-67175600D02*
X86758000Y-65935600D01*
X84758000Y-67175600D02*
X86758000Y-67175600D01*
X84852000Y-72918600D02*
X86852000Y-72918600D01*
X86852000Y-72918600D02*
X86852000Y-71678600D01*
X86852000Y-71678600D02*
X84852000Y-71678600D01*
X84852000Y-71678600D02*
X84852000Y-72918600D01*
X87479100Y-75768400D02*
X89479100Y-75768400D01*
X89479100Y-75768400D02*
X89479100Y-74528400D01*
X89479100Y-74528400D02*
X87479100Y-74528400D01*
X87479100Y-74528400D02*
X87479100Y-75768400D01*
X124310380Y-85032340D02*
X123070380Y-85032340D01*
X124310380Y-87032340D02*
X124310380Y-85032340D01*
X123070380Y-87032340D02*
X124310380Y-87032340D01*
X123070380Y-85032340D02*
X123070380Y-87032340D01*
X100800000Y-85085700D02*
X100800000Y-87085700D01*
X100800000Y-87085700D02*
X102040000Y-87085700D01*
X102040000Y-87085700D02*
X102040000Y-85085700D01*
X102040000Y-85085700D02*
X100800000Y-85085700D01*
X89709700Y-87504000D02*
X92809700Y-87504000D01*
X92809700Y-87504000D02*
X92809700Y-85704000D01*
X90359700Y-85704000D02*
X92809700Y-85704000D01*
X89709700Y-87504000D02*
X89709700Y-86354000D01*
X90359700Y-85704000D02*
X89709700Y-86354000D01*
D11*
X91640652Y-86330190D02*
X91640652Y-86734952D01*
X91616842Y-86782571D01*
X91593033Y-86806380D01*
X91545414Y-86830190D01*
X91450176Y-86830190D01*
X91402557Y-86806380D01*
X91378747Y-86782571D01*
X91354938Y-86734952D01*
X91354938Y-86330190D01*
X90854938Y-86830190D02*
X91140652Y-86830190D01*
X90997795Y-86830190D02*
X90997795Y-86330190D01*
X91045414Y-86401619D01*
X91093033Y-86449238D01*
X91140652Y-86473047D01*
M02*
