G04 #@! TF.GenerationSoftware,KiCad,Pcbnew,5.1.7-a382d34a8~88~ubuntu18.04.1*
G04 #@! TF.CreationDate,2021-06-07T17:39:16+05:30*
G04 #@! TF.ProjectId,stm32wb_Dev_v2,73746d33-3277-4625-9f44-65765f76322e,rev?*
G04 #@! TF.SameCoordinates,Original*
G04 #@! TF.FileFunction,Other,Fab,Top*
%FSLAX46Y46*%
G04 Gerber Fmt 4.6, Leading zero omitted, Abs format (unit mm)*
G04 Created by KiCad (PCBNEW 5.1.7-a382d34a8~88~ubuntu18.04.1) date 2021-06-07 17:39:16*
%MOMM*%
%LPD*%
G01*
G04 APERTURE LIST*
%ADD10C,0.100000*%
%ADD11C,0.127000*%
%ADD12C,0.254000*%
%ADD13C,0.150000*%
G04 APERTURE END LIST*
D10*
X111306000Y-59847600D02*
X111806000Y-60347600D01*
X104806000Y-59847600D02*
X111806000Y-59847600D01*
X104806000Y-66847600D02*
X104806000Y-59847600D01*
X111806000Y-66847600D02*
X104806000Y-66847600D01*
X111806000Y-59847600D02*
X111806000Y-66847600D01*
X88866200Y-88018800D02*
X86866200Y-88018800D01*
X88866200Y-86768800D02*
X88866200Y-88018800D01*
X86866200Y-86768800D02*
X88866200Y-86768800D01*
X86866200Y-88018800D02*
X86866200Y-86768800D01*
X111915000Y-70765200D02*
X112815000Y-70765200D01*
X112815000Y-70765200D02*
X112815000Y-72765200D01*
X112815000Y-72765200D02*
X111915000Y-72765200D01*
X111915000Y-72765200D02*
X111915000Y-70765200D01*
X109010000Y-72892200D02*
X108110000Y-72892200D01*
X108110000Y-72892200D02*
X108110000Y-70892200D01*
X108110000Y-70892200D02*
X109010000Y-70892200D01*
X109010000Y-70892200D02*
X109010000Y-72892200D01*
X119162000Y-52075100D02*
X119797000Y-51440100D01*
X119162000Y-76840100D02*
X119162000Y-52075100D01*
X121702000Y-76840100D02*
X119162000Y-76840100D01*
X121702000Y-51440100D02*
X121702000Y-76840100D01*
X119797000Y-51440100D02*
X121702000Y-51440100D01*
X90970100Y-52054800D02*
X91605100Y-51419800D01*
X90970100Y-76819800D02*
X90970100Y-52054800D01*
X93510100Y-76819800D02*
X90970100Y-76819800D01*
X93510100Y-51419800D02*
X93510100Y-76819800D01*
X91605100Y-51419800D02*
X93510100Y-51419800D01*
D11*
X117281000Y-88848100D02*
X117281000Y-86648100D01*
X118721000Y-88848100D02*
X118721000Y-86648100D01*
X117281000Y-88848100D02*
X118721000Y-88848100D01*
X117281000Y-86648100D02*
X118721000Y-86648100D01*
X113050000Y-49376400D02*
X115250000Y-49376400D01*
X113050000Y-50816400D02*
X115250000Y-50816400D01*
X113050000Y-49376400D02*
X113050000Y-50816400D01*
X115250000Y-49376400D02*
X115250000Y-50816400D01*
D10*
X98602900Y-61805000D02*
X100202900Y-61805000D01*
X98602900Y-65005000D02*
X98602900Y-61805000D01*
X100202900Y-65005000D02*
X98602900Y-65005000D01*
X100202900Y-61805000D02*
X100202900Y-65005000D01*
X123797000Y-91495900D02*
X124432000Y-90860900D01*
X123797000Y-93400900D02*
X123797000Y-91495900D01*
X126337000Y-93400900D02*
X123797000Y-93400900D01*
X126337000Y-90860900D02*
X126337000Y-93400900D01*
X124432000Y-90860900D02*
X126337000Y-90860900D01*
X84635300Y-92786200D02*
X84635300Y-90881200D01*
X84635300Y-90881200D02*
X97335300Y-90881200D01*
X97335300Y-90881200D02*
X97335300Y-93421200D01*
X97335300Y-93421200D02*
X85270300Y-93421200D01*
X85270300Y-93421200D02*
X84635300Y-92786200D01*
X102227000Y-93385600D02*
X101592000Y-92750600D01*
X114292000Y-93385600D02*
X102227000Y-93385600D01*
X114292000Y-90845600D02*
X114292000Y-93385600D01*
X101592000Y-90845600D02*
X114292000Y-90845600D01*
X101592000Y-92750600D02*
X101592000Y-90845600D01*
X114354000Y-55524200D02*
X116354000Y-55524200D01*
X116354000Y-55524200D02*
X116354000Y-56764200D01*
X116354000Y-56764200D02*
X114354000Y-56764200D01*
X114354000Y-56764200D02*
X114354000Y-55524200D01*
X112403000Y-55300900D02*
G75*
G03*
X112403000Y-55300900I-750000J0D01*
G01*
X110403000Y-53800900D02*
X112903000Y-53800900D01*
X110403000Y-56800900D02*
X110403000Y-53800900D01*
X112903000Y-56800900D02*
X110403000Y-56800900D01*
X112903000Y-53800900D02*
X112903000Y-56800900D01*
X114276000Y-78425000D02*
G75*
G03*
X114276000Y-78425000I-1500000J0D01*
G01*
X96470700Y-74433300D02*
X96470700Y-80433300D01*
X100470700Y-74433300D02*
X100470700Y-80433300D01*
X96145700Y-74308300D02*
X96145700Y-80558300D01*
X100795700Y-74308300D02*
X100795700Y-80558300D01*
X96470700Y-80433300D02*
G75*
G03*
X100470700Y-80433300I2000000J0D01*
G01*
X96470700Y-74433300D02*
G75*
G02*
X100470700Y-74433300I2000000J0D01*
G01*
X96145700Y-80558300D02*
G75*
G03*
X100795700Y-80558300I2325000J0D01*
G01*
X96145700Y-74308300D02*
G75*
G02*
X100795700Y-74308300I2325000J0D01*
G01*
D12*
X108880523Y-64587361D02*
X107610523Y-64587361D01*
X108759571Y-63256885D02*
X108820047Y-63317361D01*
X108880523Y-63498790D01*
X108880523Y-63619742D01*
X108820047Y-63801171D01*
X108699095Y-63922123D01*
X108578142Y-63982600D01*
X108336238Y-64043076D01*
X108154809Y-64043076D01*
X107912904Y-63982600D01*
X107791952Y-63922123D01*
X107671000Y-63801171D01*
X107610523Y-63619742D01*
X107610523Y-63498790D01*
X107671000Y-63317361D01*
X107731476Y-63256885D01*
X108880523Y-62047361D02*
X108880523Y-62773076D01*
X108880523Y-62410219D02*
X107610523Y-62410219D01*
X107791952Y-62531171D01*
X107912904Y-62652123D01*
X107973380Y-62773076D01*
D13*
X90651966Y-91603580D02*
X90651966Y-92317866D01*
X90604347Y-92460723D01*
X90509109Y-92555961D01*
X90366252Y-92603580D01*
X90271014Y-92603580D01*
X91651966Y-92603580D02*
X91080538Y-92603580D01*
X91366252Y-92603580D02*
X91366252Y-91603580D01*
X91271014Y-91746438D01*
X91175776Y-91841676D01*
X91080538Y-91889295D01*
X107608666Y-91567980D02*
X107608666Y-92282266D01*
X107561047Y-92425123D01*
X107465809Y-92520361D01*
X107322952Y-92567980D01*
X107227714Y-92567980D01*
X108037238Y-91663219D02*
X108084857Y-91615600D01*
X108180095Y-91567980D01*
X108418190Y-91567980D01*
X108513428Y-91615600D01*
X108561047Y-91663219D01*
X108608666Y-91758457D01*
X108608666Y-91853695D01*
X108561047Y-91996552D01*
X107989619Y-92567980D01*
X108608666Y-92567980D01*
M02*
