G04 #@! TF.GenerationSoftware,KiCad,Pcbnew,5.1.7-a382d34a8~88~ubuntu18.04.1*
G04 #@! TF.CreationDate,2021-06-07T17:39:16+05:30*
G04 #@! TF.ProjectId,stm32wb_Dev_v2,73746d33-3277-4625-9f44-65765f76322e,rev?*
G04 #@! TF.SameCoordinates,Original*
G04 #@! TF.FileFunction,Legend,Top*
G04 #@! TF.FilePolarity,Positive*
%FSLAX46Y46*%
G04 Gerber Fmt 4.6, Leading zero omitted, Abs format (unit mm)*
G04 Created by KiCad (PCBNEW 5.1.7-a382d34a8~88~ubuntu18.04.1) date 2021-06-07 17:39:16*
%MOMM*%
%LPD*%
G01*
G04 APERTURE LIST*
%ADD10C,0.100000*%
%ADD11C,0.200000*%
%ADD12C,0.250000*%
%ADD13C,0.120000*%
%ADD14C,0.127000*%
%ADD15C,0.150000*%
%ADD16C,0.015000*%
G04 APERTURE END LIST*
D10*
X122821776Y-75208180D02*
X122745585Y-75170084D01*
X122631300Y-75170084D01*
X122517014Y-75208180D01*
X122440823Y-75284370D01*
X122402728Y-75360560D01*
X122364633Y-75512941D01*
X122364633Y-75627227D01*
X122402728Y-75779608D01*
X122440823Y-75855799D01*
X122517014Y-75931989D01*
X122631300Y-75970084D01*
X122707490Y-75970084D01*
X122821776Y-75931989D01*
X122859871Y-75893894D01*
X122859871Y-75627227D01*
X122707490Y-75627227D01*
X123202728Y-75970084D02*
X123202728Y-75170084D01*
X123659871Y-75970084D01*
X123659871Y-75170084D01*
X124040823Y-75970084D02*
X124040823Y-75170084D01*
X124231300Y-75170084D01*
X124345585Y-75208180D01*
X124421776Y-75284370D01*
X124459871Y-75360560D01*
X124497966Y-75512941D01*
X124497966Y-75627227D01*
X124459871Y-75779608D01*
X124421776Y-75855799D01*
X124345585Y-75931989D01*
X124231300Y-75970084D01*
X124040823Y-75970084D01*
X122796376Y-72701200D02*
X122720185Y-72663104D01*
X122605900Y-72663104D01*
X122491614Y-72701200D01*
X122415423Y-72777390D01*
X122377328Y-72853580D01*
X122339233Y-73005961D01*
X122339233Y-73120247D01*
X122377328Y-73272628D01*
X122415423Y-73348819D01*
X122491614Y-73425009D01*
X122605900Y-73463104D01*
X122682090Y-73463104D01*
X122796376Y-73425009D01*
X122834471Y-73386914D01*
X122834471Y-73120247D01*
X122682090Y-73120247D01*
X123177328Y-73463104D02*
X123177328Y-72663104D01*
X123634471Y-73463104D01*
X123634471Y-72663104D01*
X124015423Y-73463104D02*
X124015423Y-72663104D01*
X124205900Y-72663104D01*
X124320185Y-72701200D01*
X124396376Y-72777390D01*
X124434471Y-72853580D01*
X124472566Y-73005961D01*
X124472566Y-73120247D01*
X124434471Y-73272628D01*
X124396376Y-73348819D01*
X124320185Y-73425009D01*
X124205900Y-73463104D01*
X124015423Y-73463104D01*
X122344394Y-70128184D02*
X122344394Y-70775803D01*
X122382489Y-70851994D01*
X122420584Y-70890089D01*
X122496775Y-70928184D01*
X122649156Y-70928184D01*
X122725346Y-70890089D01*
X122763441Y-70851994D01*
X122801537Y-70775803D01*
X122801537Y-70128184D01*
X123144394Y-70890089D02*
X123258680Y-70928184D01*
X123449156Y-70928184D01*
X123525346Y-70890089D01*
X123563441Y-70851994D01*
X123601537Y-70775803D01*
X123601537Y-70699613D01*
X123563441Y-70623422D01*
X123525346Y-70585327D01*
X123449156Y-70547232D01*
X123296775Y-70509137D01*
X123220584Y-70471041D01*
X123182489Y-70432946D01*
X123144394Y-70356756D01*
X123144394Y-70280565D01*
X123182489Y-70204375D01*
X123220584Y-70166280D01*
X123296775Y-70128184D01*
X123487251Y-70128184D01*
X123601537Y-70166280D01*
X124211060Y-70509137D02*
X124325346Y-70547232D01*
X124363441Y-70585327D01*
X124401537Y-70661518D01*
X124401537Y-70775803D01*
X124363441Y-70851994D01*
X124325346Y-70890089D01*
X124249156Y-70928184D01*
X123944394Y-70928184D01*
X123944394Y-70128184D01*
X124211060Y-70128184D01*
X124287251Y-70166280D01*
X124325346Y-70204375D01*
X124363441Y-70280565D01*
X124363441Y-70356756D01*
X124325346Y-70432946D01*
X124287251Y-70471041D01*
X124211060Y-70509137D01*
X123944394Y-70509137D01*
X124553918Y-71004375D02*
X125163441Y-71004375D01*
X125353918Y-70928184D02*
X125353918Y-70128184D01*
X125658680Y-70128184D01*
X125734870Y-70166280D01*
X125772965Y-70204375D01*
X125811060Y-70280565D01*
X125811060Y-70394851D01*
X125772965Y-70471041D01*
X125734870Y-70509137D01*
X125658680Y-70547232D01*
X125353918Y-70547232D01*
D11*
X99550649Y-51387641D02*
X99645887Y-51435260D01*
X99836363Y-51435260D01*
X99931601Y-51387641D01*
X99979220Y-51292403D01*
X99979220Y-51244784D01*
X99931601Y-51149546D01*
X99836363Y-51101927D01*
X99693506Y-51101927D01*
X99598268Y-51054308D01*
X99550649Y-50959070D01*
X99550649Y-50911451D01*
X99598268Y-50816213D01*
X99693506Y-50768594D01*
X99836363Y-50768594D01*
X99931601Y-50816213D01*
X100264935Y-50768594D02*
X100645887Y-50768594D01*
X100407792Y-50435260D02*
X100407792Y-51292403D01*
X100455411Y-51387641D01*
X100550649Y-51435260D01*
X100645887Y-51435260D01*
X100979220Y-51435260D02*
X100979220Y-50768594D01*
X100979220Y-50863832D02*
X101026840Y-50816213D01*
X101122078Y-50768594D01*
X101264935Y-50768594D01*
X101360173Y-50816213D01*
X101407792Y-50911451D01*
X101407792Y-51435260D01*
X101407792Y-50911451D02*
X101455411Y-50816213D01*
X101550649Y-50768594D01*
X101693506Y-50768594D01*
X101788744Y-50816213D01*
X101836363Y-50911451D01*
X101836363Y-51435260D01*
X102217316Y-50435260D02*
X102836363Y-50435260D01*
X102503030Y-50816213D01*
X102645887Y-50816213D01*
X102741125Y-50863832D01*
X102788744Y-50911451D01*
X102836363Y-51006689D01*
X102836363Y-51244784D01*
X102788744Y-51340022D01*
X102741125Y-51387641D01*
X102645887Y-51435260D01*
X102360173Y-51435260D01*
X102264935Y-51387641D01*
X102217316Y-51340022D01*
X103217316Y-50530499D02*
X103264935Y-50482880D01*
X103360173Y-50435260D01*
X103598268Y-50435260D01*
X103693506Y-50482880D01*
X103741125Y-50530499D01*
X103788744Y-50625737D01*
X103788744Y-50720975D01*
X103741125Y-50863832D01*
X103169697Y-51435260D01*
X103788744Y-51435260D01*
X104122078Y-50768594D02*
X104312554Y-51435260D01*
X104503030Y-50959070D01*
X104693506Y-51435260D01*
X104883982Y-50768594D01*
X105264935Y-51435260D02*
X105264935Y-50435260D01*
X105264935Y-50816213D02*
X105360173Y-50768594D01*
X105550649Y-50768594D01*
X105645887Y-50816213D01*
X105693506Y-50863832D01*
X105741125Y-50959070D01*
X105741125Y-51244784D01*
X105693506Y-51340022D01*
X105645887Y-51387641D01*
X105550649Y-51435260D01*
X105360173Y-51435260D01*
X105264935Y-51387641D01*
X105931601Y-51530499D02*
X106693506Y-51530499D01*
X107360173Y-51435260D02*
X107360173Y-50435260D01*
X107360173Y-51387641D02*
X107264935Y-51435260D01*
X107074459Y-51435260D01*
X106979220Y-51387641D01*
X106931601Y-51340022D01*
X106883982Y-51244784D01*
X106883982Y-50959070D01*
X106931601Y-50863832D01*
X106979220Y-50816213D01*
X107074459Y-50768594D01*
X107264935Y-50768594D01*
X107360173Y-50816213D01*
X108217316Y-51387641D02*
X108122078Y-51435260D01*
X107931601Y-51435260D01*
X107836363Y-51387641D01*
X107788744Y-51292403D01*
X107788744Y-50911451D01*
X107836363Y-50816213D01*
X107931601Y-50768594D01*
X108122078Y-50768594D01*
X108217316Y-50816213D01*
X108264935Y-50911451D01*
X108264935Y-51006689D01*
X107788744Y-51101927D01*
X108598268Y-50768594D02*
X108836363Y-51435260D01*
X109074459Y-50768594D01*
X109217316Y-51530499D02*
X109979220Y-51530499D01*
X110122078Y-50768594D02*
X110360173Y-51435260D01*
X110598268Y-50768594D01*
X110931601Y-50530499D02*
X110979220Y-50482880D01*
X111074459Y-50435260D01*
X111312554Y-50435260D01*
X111407792Y-50482880D01*
X111455411Y-50530499D01*
X111503030Y-50625737D01*
X111503030Y-50720975D01*
X111455411Y-50863832D01*
X110883982Y-51435260D01*
X111503030Y-51435260D01*
D10*
X111022084Y-90183708D02*
X110222084Y-90183708D01*
X111022084Y-89897994D01*
X110222084Y-89897994D01*
X111022084Y-89374184D02*
X110641132Y-89540851D01*
X111022084Y-89659899D02*
X110222084Y-89659899D01*
X110222084Y-89469422D01*
X110260180Y-89421803D01*
X110298275Y-89397994D01*
X110374465Y-89374184D01*
X110488751Y-89374184D01*
X110564941Y-89397994D01*
X110603037Y-89421803D01*
X110641132Y-89469422D01*
X110641132Y-89659899D01*
X110983989Y-89183708D02*
X111022084Y-89112280D01*
X111022084Y-88993232D01*
X110983989Y-88945613D01*
X110945894Y-88921803D01*
X110869703Y-88897994D01*
X110793513Y-88897994D01*
X110717322Y-88921803D01*
X110679227Y-88945613D01*
X110641132Y-88993232D01*
X110603037Y-89088470D01*
X110564941Y-89136089D01*
X110526846Y-89159899D01*
X110450656Y-89183708D01*
X110374465Y-89183708D01*
X110298275Y-89159899D01*
X110260180Y-89136089D01*
X110222084Y-89088470D01*
X110222084Y-88969422D01*
X110260180Y-88897994D01*
X110222084Y-88755137D02*
X110222084Y-88469422D01*
X111022084Y-88612280D02*
X110222084Y-88612280D01*
X108530349Y-90218912D02*
X108568444Y-90147483D01*
X108568444Y-90028436D01*
X108530349Y-89980817D01*
X108492254Y-89957007D01*
X108416063Y-89933198D01*
X108339873Y-89933198D01*
X108263682Y-89957007D01*
X108225587Y-89980817D01*
X108187492Y-90028436D01*
X108149397Y-90123674D01*
X108111301Y-90171293D01*
X108073206Y-90195102D01*
X107997016Y-90218912D01*
X107920825Y-90218912D01*
X107844635Y-90195102D01*
X107806540Y-90171293D01*
X107768444Y-90123674D01*
X107768444Y-90004626D01*
X107806540Y-89933198D01*
X107768444Y-89766531D02*
X108568444Y-89647483D01*
X107997016Y-89552245D01*
X108568444Y-89457007D01*
X107768444Y-89337960D01*
X108492254Y-88861769D02*
X108530349Y-88885579D01*
X108568444Y-88957007D01*
X108568444Y-89004626D01*
X108530349Y-89076055D01*
X108454159Y-89123674D01*
X108377968Y-89147483D01*
X108225587Y-89171293D01*
X108111301Y-89171293D01*
X107958920Y-89147483D01*
X107882730Y-89123674D01*
X107806540Y-89076055D01*
X107768444Y-89004626D01*
X107768444Y-88957007D01*
X107806540Y-88885579D01*
X107844635Y-88861769D01*
X108568444Y-88409388D02*
X108568444Y-88647483D01*
X107768444Y-88647483D01*
X108568444Y-88242721D02*
X107768444Y-88242721D01*
X108568444Y-87957007D02*
X108111301Y-88171293D01*
X107768444Y-87957007D02*
X108225587Y-88242721D01*
X105688089Y-90193203D02*
X105726184Y-90121775D01*
X105726184Y-90002727D01*
X105688089Y-89955108D01*
X105649994Y-89931299D01*
X105573803Y-89907489D01*
X105497613Y-89907489D01*
X105421422Y-89931299D01*
X105383327Y-89955108D01*
X105345232Y-90002727D01*
X105307137Y-90097965D01*
X105269041Y-90145584D01*
X105230946Y-90169394D01*
X105154756Y-90193203D01*
X105078565Y-90193203D01*
X105002375Y-90169394D01*
X104964280Y-90145584D01*
X104926184Y-90097965D01*
X104926184Y-89978918D01*
X104964280Y-89907489D01*
X104926184Y-89740822D02*
X105726184Y-89621775D01*
X105154756Y-89526537D01*
X105726184Y-89431299D01*
X104926184Y-89312251D01*
X105726184Y-89121775D02*
X104926184Y-89121775D01*
X104926184Y-89002727D01*
X104964280Y-88931299D01*
X105040470Y-88883680D01*
X105116660Y-88859870D01*
X105269041Y-88836060D01*
X105383327Y-88836060D01*
X105535708Y-88859870D01*
X105611899Y-88883680D01*
X105688089Y-88931299D01*
X105726184Y-89002727D01*
X105726184Y-89121775D01*
X105726184Y-88621775D02*
X104926184Y-88621775D01*
X104926184Y-88288441D02*
X104926184Y-88193203D01*
X104964280Y-88145584D01*
X105040470Y-88097965D01*
X105192851Y-88074156D01*
X105459518Y-88074156D01*
X105611899Y-88097965D01*
X105688089Y-88145584D01*
X105726184Y-88193203D01*
X105726184Y-88288441D01*
X105688089Y-88336060D01*
X105611899Y-88383680D01*
X105459518Y-88407489D01*
X105192851Y-88407489D01*
X105040470Y-88383680D01*
X104964280Y-88336060D01*
X104926184Y-88288441D01*
X102515724Y-90184527D02*
X102515724Y-89875003D01*
X102820486Y-90041670D01*
X102820486Y-89970241D01*
X102858581Y-89922622D01*
X102896677Y-89898813D01*
X102972867Y-89875003D01*
X103163343Y-89875003D01*
X103239534Y-89898813D01*
X103277629Y-89922622D01*
X103315724Y-89970241D01*
X103315724Y-90113099D01*
X103277629Y-90160718D01*
X103239534Y-90184527D01*
X102515724Y-89732146D02*
X103315724Y-89565480D01*
X102515724Y-89398813D01*
X102515724Y-89279765D02*
X102515724Y-88970241D01*
X102820486Y-89136908D01*
X102820486Y-89065480D01*
X102858581Y-89017860D01*
X102896677Y-88994051D01*
X102972867Y-88970241D01*
X103163343Y-88970241D01*
X103239534Y-88994051D01*
X103277629Y-89017860D01*
X103315724Y-89065480D01*
X103315724Y-89208337D01*
X103277629Y-89255956D01*
X103239534Y-89279765D01*
X95670424Y-89574358D02*
X95670424Y-89812453D01*
X96051377Y-89836262D01*
X96013281Y-89812453D01*
X95975186Y-89764834D01*
X95975186Y-89645786D01*
X96013281Y-89598167D01*
X96051377Y-89574358D01*
X96127567Y-89550548D01*
X96318043Y-89550548D01*
X96394234Y-89574358D01*
X96432329Y-89598167D01*
X96470424Y-89645786D01*
X96470424Y-89764834D01*
X96432329Y-89812453D01*
X96394234Y-89836262D01*
X95670424Y-89407691D02*
X96470424Y-89241024D01*
X95670424Y-89074358D01*
X112624920Y-89834672D02*
X112586824Y-89882291D01*
X112586824Y-89953720D01*
X112624920Y-90025148D01*
X112701110Y-90072767D01*
X112777300Y-90096577D01*
X112929681Y-90120386D01*
X113043967Y-90120386D01*
X113196348Y-90096577D01*
X113272539Y-90072767D01*
X113348729Y-90025148D01*
X113386824Y-89953720D01*
X113386824Y-89906100D01*
X113348729Y-89834672D01*
X113310634Y-89810862D01*
X113043967Y-89810862D01*
X113043967Y-89906100D01*
X113386824Y-89596577D02*
X112586824Y-89596577D01*
X113386824Y-89310862D01*
X112586824Y-89310862D01*
X113386824Y-89072767D02*
X112586824Y-89072767D01*
X112586824Y-88953720D01*
X112624920Y-88882291D01*
X112701110Y-88834672D01*
X112777300Y-88810862D01*
X112929681Y-88787053D01*
X113043967Y-88787053D01*
X113196348Y-88810862D01*
X113272539Y-88834672D01*
X113348729Y-88882291D01*
X113386824Y-88953720D01*
X113386824Y-89072767D01*
X93049140Y-89928652D02*
X93011044Y-89976271D01*
X93011044Y-90047700D01*
X93049140Y-90119128D01*
X93125330Y-90166747D01*
X93201520Y-90190557D01*
X93353901Y-90214366D01*
X93468187Y-90214366D01*
X93620568Y-90190557D01*
X93696759Y-90166747D01*
X93772949Y-90119128D01*
X93811044Y-90047700D01*
X93811044Y-90000080D01*
X93772949Y-89928652D01*
X93734854Y-89904842D01*
X93468187Y-89904842D01*
X93468187Y-90000080D01*
X93811044Y-89690557D02*
X93011044Y-89690557D01*
X93811044Y-89404842D01*
X93011044Y-89404842D01*
X93811044Y-89166747D02*
X93011044Y-89166747D01*
X93011044Y-89047700D01*
X93049140Y-88976271D01*
X93125330Y-88928652D01*
X93201520Y-88904842D01*
X93353901Y-88881033D01*
X93468187Y-88881033D01*
X93620568Y-88904842D01*
X93696759Y-88928652D01*
X93772949Y-88976271D01*
X93811044Y-89047700D01*
X93811044Y-89166747D01*
X90415164Y-90166747D02*
X90415164Y-89857223D01*
X90719926Y-90023890D01*
X90719926Y-89952461D01*
X90758021Y-89904842D01*
X90796117Y-89881033D01*
X90872307Y-89857223D01*
X91062783Y-89857223D01*
X91138974Y-89881033D01*
X91177069Y-89904842D01*
X91215164Y-89952461D01*
X91215164Y-90095319D01*
X91177069Y-90142938D01*
X91138974Y-90166747D01*
X90415164Y-89714366D02*
X91215164Y-89547700D01*
X90415164Y-89381033D01*
X90415164Y-89261985D02*
X90415164Y-88952461D01*
X90719926Y-89119128D01*
X90719926Y-89047700D01*
X90758021Y-89000080D01*
X90796117Y-88976271D01*
X90872307Y-88952461D01*
X91062783Y-88952461D01*
X91138974Y-88976271D01*
X91177069Y-89000080D01*
X91215164Y-89047700D01*
X91215164Y-89190557D01*
X91177069Y-89238176D01*
X91138974Y-89261985D01*
X85545984Y-90042952D02*
X85545984Y-89757238D01*
X86345984Y-89900095D02*
X85545984Y-89900095D01*
X85545984Y-89638190D02*
X86345984Y-89304857D01*
X85545984Y-89304857D02*
X86345984Y-89638190D01*
X88695484Y-89651353D02*
X88314532Y-89818020D01*
X88695484Y-89937067D02*
X87895484Y-89937067D01*
X87895484Y-89746591D01*
X87933580Y-89698972D01*
X87971675Y-89675162D01*
X88047865Y-89651353D01*
X88162151Y-89651353D01*
X88238341Y-89675162D01*
X88276437Y-89698972D01*
X88314532Y-89746591D01*
X88314532Y-89937067D01*
X87895484Y-89484686D02*
X88695484Y-89151353D01*
X87895484Y-89151353D02*
X88695484Y-89484686D01*
X122428123Y-53318364D02*
X122428123Y-52518364D01*
X122732885Y-52518364D01*
X122809076Y-52556460D01*
X122847171Y-52594555D01*
X122885266Y-52670745D01*
X122885266Y-52785031D01*
X122847171Y-52861221D01*
X122809076Y-52899317D01*
X122732885Y-52937412D01*
X122428123Y-52937412D01*
X123494790Y-52899317D02*
X123609076Y-52937412D01*
X123647171Y-52975507D01*
X123685266Y-53051698D01*
X123685266Y-53165983D01*
X123647171Y-53242174D01*
X123609076Y-53280269D01*
X123532885Y-53318364D01*
X123228123Y-53318364D01*
X123228123Y-52518364D01*
X123494790Y-52518364D01*
X123570980Y-52556460D01*
X123609076Y-52594555D01*
X123647171Y-52670745D01*
X123647171Y-52746936D01*
X123609076Y-52823126D01*
X123570980Y-52861221D01*
X123494790Y-52899317D01*
X123228123Y-52899317D01*
X124066219Y-53318364D02*
X124218600Y-53318364D01*
X124294790Y-53280269D01*
X124332885Y-53242174D01*
X124409076Y-53127888D01*
X124447171Y-52975507D01*
X124447171Y-52670745D01*
X124409076Y-52594555D01*
X124370980Y-52556460D01*
X124294790Y-52518364D01*
X124142409Y-52518364D01*
X124066219Y-52556460D01*
X124028123Y-52594555D01*
X123990028Y-52670745D01*
X123990028Y-52861221D01*
X124028123Y-52937412D01*
X124066219Y-52975507D01*
X124142409Y-53013602D01*
X124294790Y-53013602D01*
X124370980Y-52975507D01*
X124409076Y-52937412D01*
X124447171Y-52861221D01*
X122428123Y-55756764D02*
X122428123Y-54956764D01*
X122732885Y-54956764D01*
X122809076Y-54994860D01*
X122847171Y-55032955D01*
X122885266Y-55109145D01*
X122885266Y-55223431D01*
X122847171Y-55299621D01*
X122809076Y-55337717D01*
X122732885Y-55375812D01*
X122428123Y-55375812D01*
X123494790Y-55337717D02*
X123609076Y-55375812D01*
X123647171Y-55413907D01*
X123685266Y-55490098D01*
X123685266Y-55604383D01*
X123647171Y-55680574D01*
X123609076Y-55718669D01*
X123532885Y-55756764D01*
X123228123Y-55756764D01*
X123228123Y-54956764D01*
X123494790Y-54956764D01*
X123570980Y-54994860D01*
X123609076Y-55032955D01*
X123647171Y-55109145D01*
X123647171Y-55185336D01*
X123609076Y-55261526D01*
X123570980Y-55299621D01*
X123494790Y-55337717D01*
X123228123Y-55337717D01*
X124142409Y-55299621D02*
X124066219Y-55261526D01*
X124028123Y-55223431D01*
X123990028Y-55147240D01*
X123990028Y-55109145D01*
X124028123Y-55032955D01*
X124066219Y-54994860D01*
X124142409Y-54956764D01*
X124294790Y-54956764D01*
X124370980Y-54994860D01*
X124409076Y-55032955D01*
X124447171Y-55109145D01*
X124447171Y-55147240D01*
X124409076Y-55223431D01*
X124370980Y-55261526D01*
X124294790Y-55299621D01*
X124142409Y-55299621D01*
X124066219Y-55337717D01*
X124028123Y-55375812D01*
X123990028Y-55452002D01*
X123990028Y-55604383D01*
X124028123Y-55680574D01*
X124066219Y-55718669D01*
X124142409Y-55756764D01*
X124294790Y-55756764D01*
X124370980Y-55718669D01*
X124409076Y-55680574D01*
X124447171Y-55604383D01*
X124447171Y-55452002D01*
X124409076Y-55375812D01*
X124370980Y-55337717D01*
X124294790Y-55299621D01*
X122397643Y-58108804D02*
X122397643Y-57308804D01*
X122702405Y-57308804D01*
X122778596Y-57346900D01*
X122816691Y-57384995D01*
X122854786Y-57461185D01*
X122854786Y-57575471D01*
X122816691Y-57651661D01*
X122778596Y-57689757D01*
X122702405Y-57727852D01*
X122397643Y-57727852D01*
X123464310Y-57689757D02*
X123578596Y-57727852D01*
X123616691Y-57765947D01*
X123654786Y-57842138D01*
X123654786Y-57956423D01*
X123616691Y-58032614D01*
X123578596Y-58070709D01*
X123502405Y-58108804D01*
X123197643Y-58108804D01*
X123197643Y-57308804D01*
X123464310Y-57308804D01*
X123540500Y-57346900D01*
X123578596Y-57384995D01*
X123616691Y-57461185D01*
X123616691Y-57537376D01*
X123578596Y-57613566D01*
X123540500Y-57651661D01*
X123464310Y-57689757D01*
X123197643Y-57689757D01*
X123921453Y-57308804D02*
X124454786Y-57308804D01*
X124111929Y-58108804D01*
X122387483Y-60590384D02*
X122387483Y-59790384D01*
X122692245Y-59790384D01*
X122768436Y-59828480D01*
X122806531Y-59866575D01*
X122844626Y-59942765D01*
X122844626Y-60057051D01*
X122806531Y-60133241D01*
X122768436Y-60171337D01*
X122692245Y-60209432D01*
X122387483Y-60209432D01*
X123454150Y-60171337D02*
X123568436Y-60209432D01*
X123606531Y-60247527D01*
X123644626Y-60323718D01*
X123644626Y-60438003D01*
X123606531Y-60514194D01*
X123568436Y-60552289D01*
X123492245Y-60590384D01*
X123187483Y-60590384D01*
X123187483Y-59790384D01*
X123454150Y-59790384D01*
X123530340Y-59828480D01*
X123568436Y-59866575D01*
X123606531Y-59942765D01*
X123606531Y-60018956D01*
X123568436Y-60095146D01*
X123530340Y-60133241D01*
X123454150Y-60171337D01*
X123187483Y-60171337D01*
X124330340Y-59790384D02*
X124177960Y-59790384D01*
X124101769Y-59828480D01*
X124063674Y-59866575D01*
X123987483Y-59980860D01*
X123949388Y-60133241D01*
X123949388Y-60438003D01*
X123987483Y-60514194D01*
X124025579Y-60552289D01*
X124101769Y-60590384D01*
X124254150Y-60590384D01*
X124330340Y-60552289D01*
X124368436Y-60514194D01*
X124406531Y-60438003D01*
X124406531Y-60247527D01*
X124368436Y-60171337D01*
X124330340Y-60133241D01*
X124254150Y-60095146D01*
X124101769Y-60095146D01*
X124025579Y-60133241D01*
X123987483Y-60171337D01*
X123949388Y-60247527D01*
X122336683Y-65944704D02*
X122336683Y-65144704D01*
X122641445Y-65144704D01*
X122717636Y-65182800D01*
X122755731Y-65220895D01*
X122793826Y-65297085D01*
X122793826Y-65411371D01*
X122755731Y-65487561D01*
X122717636Y-65525657D01*
X122641445Y-65563752D01*
X122336683Y-65563752D01*
X123403350Y-65525657D02*
X123517636Y-65563752D01*
X123555731Y-65601847D01*
X123593826Y-65678038D01*
X123593826Y-65792323D01*
X123555731Y-65868514D01*
X123517636Y-65906609D01*
X123441445Y-65944704D01*
X123136683Y-65944704D01*
X123136683Y-65144704D01*
X123403350Y-65144704D01*
X123479540Y-65182800D01*
X123517636Y-65220895D01*
X123555731Y-65297085D01*
X123555731Y-65373276D01*
X123517636Y-65449466D01*
X123479540Y-65487561D01*
X123403350Y-65525657D01*
X123136683Y-65525657D01*
X123898588Y-65220895D02*
X123936683Y-65182800D01*
X124012874Y-65144704D01*
X124203350Y-65144704D01*
X124279540Y-65182800D01*
X124317636Y-65220895D01*
X124355731Y-65297085D01*
X124355731Y-65373276D01*
X124317636Y-65487561D01*
X123860493Y-65944704D01*
X124355731Y-65944704D01*
X122387483Y-63138004D02*
X122387483Y-62338004D01*
X122692245Y-62338004D01*
X122768436Y-62376100D01*
X122806531Y-62414195D01*
X122844626Y-62490385D01*
X122844626Y-62604671D01*
X122806531Y-62680861D01*
X122768436Y-62718957D01*
X122692245Y-62757052D01*
X122387483Y-62757052D01*
X123454150Y-62718957D02*
X123568436Y-62757052D01*
X123606531Y-62795147D01*
X123644626Y-62871338D01*
X123644626Y-62985623D01*
X123606531Y-63061814D01*
X123568436Y-63099909D01*
X123492245Y-63138004D01*
X123187483Y-63138004D01*
X123187483Y-62338004D01*
X123454150Y-62338004D01*
X123530340Y-62376100D01*
X123568436Y-62414195D01*
X123606531Y-62490385D01*
X123606531Y-62566576D01*
X123568436Y-62642766D01*
X123530340Y-62680861D01*
X123454150Y-62718957D01*
X123187483Y-62718957D01*
X123911293Y-62338004D02*
X124406531Y-62338004D01*
X124139864Y-62642766D01*
X124254150Y-62642766D01*
X124330340Y-62680861D01*
X124368436Y-62718957D01*
X124406531Y-62795147D01*
X124406531Y-62985623D01*
X124368436Y-63061814D01*
X124330340Y-63099909D01*
X124254150Y-63138004D01*
X124025579Y-63138004D01*
X123949388Y-63099909D01*
X123911293Y-63061814D01*
X122378686Y-67570404D02*
X122378686Y-68218023D01*
X122416781Y-68294214D01*
X122454877Y-68332309D01*
X122531067Y-68370404D01*
X122683448Y-68370404D01*
X122759639Y-68332309D01*
X122797734Y-68294214D01*
X122835829Y-68218023D01*
X122835829Y-67570404D01*
X123178686Y-68332309D02*
X123292972Y-68370404D01*
X123483448Y-68370404D01*
X123559639Y-68332309D01*
X123597734Y-68294214D01*
X123635829Y-68218023D01*
X123635829Y-68141833D01*
X123597734Y-68065642D01*
X123559639Y-68027547D01*
X123483448Y-67989452D01*
X123331067Y-67951357D01*
X123254877Y-67913261D01*
X123216781Y-67875166D01*
X123178686Y-67798976D01*
X123178686Y-67722785D01*
X123216781Y-67646595D01*
X123254877Y-67608500D01*
X123331067Y-67570404D01*
X123521543Y-67570404D01*
X123635829Y-67608500D01*
X124245353Y-67951357D02*
X124359639Y-67989452D01*
X124397734Y-68027547D01*
X124435829Y-68103738D01*
X124435829Y-68218023D01*
X124397734Y-68294214D01*
X124359639Y-68332309D01*
X124283448Y-68370404D01*
X123978686Y-68370404D01*
X123978686Y-67570404D01*
X124245353Y-67570404D01*
X124321543Y-67608500D01*
X124359639Y-67646595D01*
X124397734Y-67722785D01*
X124397734Y-67798976D01*
X124359639Y-67875166D01*
X124321543Y-67913261D01*
X124245353Y-67951357D01*
X123978686Y-67951357D01*
X124588210Y-68446595D02*
X125197734Y-68446595D01*
X125388210Y-68370404D02*
X125388210Y-67570404D01*
X125845353Y-68370404D01*
X125845353Y-67570404D01*
X88620676Y-75114200D02*
X88544485Y-75076104D01*
X88430200Y-75076104D01*
X88315914Y-75114200D01*
X88239723Y-75190390D01*
X88201628Y-75266580D01*
X88163533Y-75418961D01*
X88163533Y-75533247D01*
X88201628Y-75685628D01*
X88239723Y-75761819D01*
X88315914Y-75838009D01*
X88430200Y-75876104D01*
X88506390Y-75876104D01*
X88620676Y-75838009D01*
X88658771Y-75799914D01*
X88658771Y-75533247D01*
X88506390Y-75533247D01*
X89001628Y-75876104D02*
X89001628Y-75076104D01*
X89458771Y-75876104D01*
X89458771Y-75076104D01*
X89839723Y-75876104D02*
X89839723Y-75076104D01*
X90030200Y-75076104D01*
X90144485Y-75114200D01*
X90220676Y-75190390D01*
X90258771Y-75266580D01*
X90296866Y-75418961D01*
X90296866Y-75533247D01*
X90258771Y-75685628D01*
X90220676Y-75761819D01*
X90144485Y-75838009D01*
X90030200Y-75876104D01*
X89839723Y-75876104D01*
X88577496Y-72558960D02*
X88501305Y-72520864D01*
X88387020Y-72520864D01*
X88272734Y-72558960D01*
X88196543Y-72635150D01*
X88158448Y-72711340D01*
X88120353Y-72863721D01*
X88120353Y-72978007D01*
X88158448Y-73130388D01*
X88196543Y-73206579D01*
X88272734Y-73282769D01*
X88387020Y-73320864D01*
X88463210Y-73320864D01*
X88577496Y-73282769D01*
X88615591Y-73244674D01*
X88615591Y-72978007D01*
X88463210Y-72978007D01*
X88958448Y-73320864D02*
X88958448Y-72520864D01*
X89415591Y-73320864D01*
X89415591Y-72520864D01*
X89796543Y-73320864D02*
X89796543Y-72520864D01*
X89987020Y-72520864D01*
X90101305Y-72558960D01*
X90177496Y-72635150D01*
X90215591Y-72711340D01*
X90253686Y-72863721D01*
X90253686Y-72978007D01*
X90215591Y-73130388D01*
X90177496Y-73206579D01*
X90101305Y-73282769D01*
X89987020Y-73320864D01*
X89796543Y-73320864D01*
X88320999Y-70224704D02*
X88816237Y-70224704D01*
X88549570Y-70529466D01*
X88663856Y-70529466D01*
X88740046Y-70567561D01*
X88778141Y-70605657D01*
X88816237Y-70681847D01*
X88816237Y-70872323D01*
X88778141Y-70948514D01*
X88740046Y-70986609D01*
X88663856Y-71024704D01*
X88435284Y-71024704D01*
X88359094Y-70986609D01*
X88320999Y-70948514D01*
X89082903Y-70491371D02*
X89273380Y-71024704D01*
X89463856Y-70491371D01*
X89692427Y-70224704D02*
X90187665Y-70224704D01*
X89920999Y-70529466D01*
X90035284Y-70529466D01*
X90111475Y-70567561D01*
X90149570Y-70605657D01*
X90187665Y-70681847D01*
X90187665Y-70872323D01*
X90149570Y-70948514D01*
X90111475Y-70986609D01*
X90035284Y-71024704D01*
X89806713Y-71024704D01*
X89730522Y-70986609D01*
X89692427Y-70948514D01*
X88223206Y-68637104D02*
X88223206Y-67837104D01*
X88527968Y-67837104D01*
X88604159Y-67875200D01*
X88642254Y-67913295D01*
X88680349Y-67989485D01*
X88680349Y-68103771D01*
X88642254Y-68179961D01*
X88604159Y-68218057D01*
X88527968Y-68256152D01*
X88223206Y-68256152D01*
X88985111Y-68408533D02*
X89366063Y-68408533D01*
X88908920Y-68637104D02*
X89175587Y-67837104D01*
X89442254Y-68637104D01*
X89823206Y-68179961D02*
X89747016Y-68141866D01*
X89708920Y-68103771D01*
X89670825Y-68027580D01*
X89670825Y-67989485D01*
X89708920Y-67913295D01*
X89747016Y-67875200D01*
X89823206Y-67837104D01*
X89975587Y-67837104D01*
X90051778Y-67875200D01*
X90089873Y-67913295D01*
X90127968Y-67989485D01*
X90127968Y-68027580D01*
X90089873Y-68103771D01*
X90051778Y-68141866D01*
X89975587Y-68179961D01*
X89823206Y-68179961D01*
X89747016Y-68218057D01*
X89708920Y-68256152D01*
X89670825Y-68332342D01*
X89670825Y-68484723D01*
X89708920Y-68560914D01*
X89747016Y-68599009D01*
X89823206Y-68637104D01*
X89975587Y-68637104D01*
X90051778Y-68599009D01*
X90089873Y-68560914D01*
X90127968Y-68484723D01*
X90127968Y-68332342D01*
X90089873Y-68256152D01*
X90051778Y-68218057D01*
X89975587Y-68179961D01*
X88207966Y-66008204D02*
X88207966Y-65208204D01*
X88512728Y-65208204D01*
X88588919Y-65246300D01*
X88627014Y-65284395D01*
X88665109Y-65360585D01*
X88665109Y-65474871D01*
X88627014Y-65551061D01*
X88588919Y-65589157D01*
X88512728Y-65627252D01*
X88207966Y-65627252D01*
X88969871Y-65779633D02*
X89350823Y-65779633D01*
X88893680Y-66008204D02*
X89160347Y-65208204D01*
X89427014Y-66008204D01*
X89617490Y-65208204D02*
X90150823Y-65208204D01*
X89807966Y-66008204D01*
X88205426Y-63452964D02*
X88205426Y-62652964D01*
X88510188Y-62652964D01*
X88586379Y-62691060D01*
X88624474Y-62729155D01*
X88662569Y-62805345D01*
X88662569Y-62919631D01*
X88624474Y-62995821D01*
X88586379Y-63033917D01*
X88510188Y-63072012D01*
X88205426Y-63072012D01*
X88967331Y-63224393D02*
X89348283Y-63224393D01*
X88891140Y-63452964D02*
X89157807Y-62652964D01*
X89424474Y-63452964D01*
X90033998Y-62652964D02*
X89881617Y-62652964D01*
X89805426Y-62691060D01*
X89767331Y-62729155D01*
X89691140Y-62843440D01*
X89653045Y-62995821D01*
X89653045Y-63300583D01*
X89691140Y-63376774D01*
X89729236Y-63414869D01*
X89805426Y-63452964D01*
X89957807Y-63452964D01*
X90033998Y-63414869D01*
X90072093Y-63376774D01*
X90110188Y-63300583D01*
X90110188Y-63110107D01*
X90072093Y-63033917D01*
X90033998Y-62995821D01*
X89957807Y-62957726D01*
X89805426Y-62957726D01*
X89729236Y-62995821D01*
X89691140Y-63033917D01*
X89653045Y-63110107D01*
X88274006Y-60925664D02*
X88274006Y-60125664D01*
X88578768Y-60125664D01*
X88654959Y-60163760D01*
X88693054Y-60201855D01*
X88731149Y-60278045D01*
X88731149Y-60392331D01*
X88693054Y-60468521D01*
X88654959Y-60506617D01*
X88578768Y-60544712D01*
X88274006Y-60544712D01*
X89035911Y-60697093D02*
X89416863Y-60697093D01*
X88959720Y-60925664D02*
X89226387Y-60125664D01*
X89493054Y-60925664D01*
X90140673Y-60125664D02*
X89759720Y-60125664D01*
X89721625Y-60506617D01*
X89759720Y-60468521D01*
X89835911Y-60430426D01*
X90026387Y-60430426D01*
X90102578Y-60468521D01*
X90140673Y-60506617D01*
X90178768Y-60582807D01*
X90178768Y-60773283D01*
X90140673Y-60849474D01*
X90102578Y-60887569D01*
X90026387Y-60925664D01*
X89835911Y-60925664D01*
X89759720Y-60887569D01*
X89721625Y-60849474D01*
X88274006Y-58278984D02*
X88274006Y-57478984D01*
X88578768Y-57478984D01*
X88654959Y-57517080D01*
X88693054Y-57555175D01*
X88731149Y-57631365D01*
X88731149Y-57745651D01*
X88693054Y-57821841D01*
X88654959Y-57859937D01*
X88578768Y-57898032D01*
X88274006Y-57898032D01*
X89035911Y-58050413D02*
X89416863Y-58050413D01*
X88959720Y-58278984D02*
X89226387Y-57478984D01*
X89493054Y-58278984D01*
X90102578Y-57745651D02*
X90102578Y-58278984D01*
X89912101Y-57440889D02*
X89721625Y-58012318D01*
X90216863Y-58012318D01*
X88274006Y-55746604D02*
X88274006Y-54946604D01*
X88578768Y-54946604D01*
X88654959Y-54984700D01*
X88693054Y-55022795D01*
X88731149Y-55098985D01*
X88731149Y-55213271D01*
X88693054Y-55289461D01*
X88654959Y-55327557D01*
X88578768Y-55365652D01*
X88274006Y-55365652D01*
X89035911Y-55518033D02*
X89416863Y-55518033D01*
X88959720Y-55746604D02*
X89226387Y-54946604D01*
X89493054Y-55746604D01*
X90178768Y-55746604D02*
X89721625Y-55746604D01*
X89950197Y-55746604D02*
X89950197Y-54946604D01*
X89874006Y-55060890D01*
X89797816Y-55137080D01*
X89721625Y-55175176D01*
X88243526Y-53417424D02*
X88243526Y-52617424D01*
X88548288Y-52617424D01*
X88624479Y-52655520D01*
X88662574Y-52693615D01*
X88700669Y-52769805D01*
X88700669Y-52884091D01*
X88662574Y-52960281D01*
X88624479Y-52998377D01*
X88548288Y-53036472D01*
X88243526Y-53036472D01*
X89005431Y-53188853D02*
X89386383Y-53188853D01*
X88929240Y-53417424D02*
X89195907Y-52617424D01*
X89462574Y-53417424D01*
X89881621Y-52617424D02*
X89957812Y-52617424D01*
X90034002Y-52655520D01*
X90072098Y-52693615D01*
X90110193Y-52769805D01*
X90148288Y-52922186D01*
X90148288Y-53112662D01*
X90110193Y-53265043D01*
X90072098Y-53341234D01*
X90034002Y-53379329D01*
X89957812Y-53417424D01*
X89881621Y-53417424D01*
X89805431Y-53379329D01*
X89767336Y-53341234D01*
X89729240Y-53265043D01*
X89691145Y-53112662D01*
X89691145Y-52922186D01*
X89729240Y-52769805D01*
X89767336Y-52693615D01*
X89805431Y-52655520D01*
X89881621Y-52617424D01*
D12*
X111931000Y-59472600D02*
G75*
G03*
X111931000Y-59472600I-125000J0D01*
G01*
D13*
X87604948Y-88128800D02*
X88127452Y-88128800D01*
X87604948Y-86658800D02*
X88127452Y-86658800D01*
X112925000Y-71365578D02*
X112925000Y-72164822D01*
X111805000Y-71365578D02*
X111805000Y-72164822D01*
X108000000Y-72291822D02*
X108000000Y-71492578D01*
X109120000Y-72291822D02*
X109120000Y-71492578D01*
X119102000Y-51380100D02*
X120432000Y-51380100D01*
X119102000Y-52710100D02*
X119102000Y-51380100D01*
X119102000Y-53980100D02*
X121762000Y-53980100D01*
X121762000Y-53980100D02*
X121762000Y-76900100D01*
X119102000Y-53980100D02*
X119102000Y-76900100D01*
X119102000Y-76900100D02*
X121762000Y-76900100D01*
X90910100Y-51359800D02*
X92240100Y-51359800D01*
X90910100Y-52689800D02*
X90910100Y-51359800D01*
X90910100Y-53959800D02*
X93570100Y-53959800D01*
X93570100Y-53959800D02*
X93570100Y-76879800D01*
X90910100Y-53959800D02*
X90910100Y-76879800D01*
X90910100Y-76879800D02*
X93570100Y-76879800D01*
D14*
X118721000Y-87568100D02*
X118721000Y-87928100D01*
X117281000Y-87568100D02*
X117281000Y-87928100D01*
X114330000Y-50816400D02*
X113970000Y-50816400D01*
X114330000Y-49376400D02*
X113970000Y-49376400D01*
D13*
X100422900Y-64405000D02*
X100422900Y-62405000D01*
X98382900Y-62405000D02*
X98382900Y-64405000D01*
X123737000Y-90800900D02*
X125067000Y-90800900D01*
X123737000Y-92130900D02*
X123737000Y-90800900D01*
X123737000Y-93400900D02*
X126397000Y-93400900D01*
X126397000Y-93400900D02*
X126397000Y-93460900D01*
X123737000Y-93400900D02*
X123737000Y-93460900D01*
X123737000Y-93460900D02*
X126397000Y-93460900D01*
X97395300Y-93481200D02*
X97395300Y-90821200D01*
X87175300Y-93481200D02*
X97395300Y-93481200D01*
X87175300Y-90821200D02*
X97395300Y-90821200D01*
X87175300Y-93481200D02*
X87175300Y-90821200D01*
X85905300Y-93481200D02*
X84575300Y-93481200D01*
X84575300Y-93481200D02*
X84575300Y-92151200D01*
X101532000Y-93445600D02*
X101532000Y-92115600D01*
X102862000Y-93445600D02*
X101532000Y-93445600D01*
X104132000Y-93445600D02*
X104132000Y-90785600D01*
X104132000Y-90785600D02*
X114352000Y-90785600D01*
X104132000Y-93445600D02*
X114352000Y-93445600D01*
X114352000Y-93445600D02*
X114352000Y-90785600D01*
X114754000Y-55264200D02*
X115954000Y-55264200D01*
X115954000Y-57024200D02*
X114754000Y-57024200D01*
X113053000Y-56950900D02*
X112753000Y-56950900D01*
X113053000Y-53650900D02*
X113053000Y-56950900D01*
X112753000Y-53650900D02*
X113053000Y-53650900D01*
X110253000Y-56950900D02*
X110553000Y-56950900D01*
X110253000Y-53650900D02*
X110253000Y-56950900D01*
X110553000Y-53650900D02*
X110253000Y-53650900D01*
X114476000Y-78425000D02*
G75*
G02*
X111076000Y-78425000I-1700000J0D01*
G01*
X114476000Y-78425000D02*
G75*
G03*
X111076000Y-78425000I-1700000J0D01*
G01*
X95945700Y-74308300D02*
X95945700Y-80558300D01*
X100995700Y-74308300D02*
X100995700Y-80558300D01*
X95945700Y-80558300D02*
G75*
G03*
X100995700Y-80558300I2525000J0D01*
G01*
X95945700Y-74308300D02*
G75*
G02*
X100995700Y-74308300I2525000J0D01*
G01*
D10*
X112957707Y-59462624D02*
X112957707Y-58662624D01*
X113795802Y-59386434D02*
X113757707Y-59424529D01*
X113643421Y-59462624D01*
X113567231Y-59462624D01*
X113452945Y-59424529D01*
X113376755Y-59348339D01*
X113338660Y-59272148D01*
X113300564Y-59119767D01*
X113300564Y-59005481D01*
X113338660Y-58853100D01*
X113376755Y-58776910D01*
X113452945Y-58700720D01*
X113567231Y-58662624D01*
X113643421Y-58662624D01*
X113757707Y-58700720D01*
X113795802Y-58738815D01*
X114557707Y-59462624D02*
X114100564Y-59462624D01*
X114329136Y-59462624D02*
X114329136Y-58662624D01*
X114252945Y-58776910D01*
X114176755Y-58853100D01*
X114100564Y-58891196D01*
D15*
X87223342Y-86070942D02*
X87175723Y-86118561D01*
X87032866Y-86166180D01*
X86937628Y-86166180D01*
X86794771Y-86118561D01*
X86699533Y-86023323D01*
X86651914Y-85928085D01*
X86604295Y-85737609D01*
X86604295Y-85594752D01*
X86651914Y-85404276D01*
X86699533Y-85309038D01*
X86794771Y-85213800D01*
X86937628Y-85166180D01*
X87032866Y-85166180D01*
X87175723Y-85213800D01*
X87223342Y-85261419D01*
X87604295Y-85261419D02*
X87651914Y-85213800D01*
X87747152Y-85166180D01*
X87985247Y-85166180D01*
X88080485Y-85213800D01*
X88128104Y-85261419D01*
X88175723Y-85356657D01*
X88175723Y-85451895D01*
X88128104Y-85594752D01*
X87556676Y-86166180D01*
X88175723Y-86166180D01*
X89128104Y-86166180D02*
X88556676Y-86166180D01*
X88842390Y-86166180D02*
X88842390Y-85166180D01*
X88747152Y-85309038D01*
X88651914Y-85404276D01*
X88556676Y-85451895D01*
X113696933Y-72156620D02*
X113220742Y-72156620D01*
X113220742Y-71156620D01*
X114458838Y-71489954D02*
X114458838Y-72156620D01*
X114220742Y-71109001D02*
X113982647Y-71823287D01*
X114601695Y-71823287D01*
X106833773Y-72344580D02*
X106357582Y-72344580D01*
X106357582Y-71344580D01*
X107071868Y-71344580D02*
X107690916Y-71344580D01*
X107357582Y-71725533D01*
X107500440Y-71725533D01*
X107595678Y-71773152D01*
X107643297Y-71820771D01*
X107690916Y-71916009D01*
X107690916Y-72154104D01*
X107643297Y-72249342D01*
X107595678Y-72296961D01*
X107500440Y-72344580D01*
X107214725Y-72344580D01*
X107119487Y-72296961D01*
X107071868Y-72249342D01*
X120098666Y-49832480D02*
X120098666Y-50546766D01*
X120051047Y-50689623D01*
X119955809Y-50784861D01*
X119812952Y-50832480D01*
X119717714Y-50832480D01*
X121003428Y-50165814D02*
X121003428Y-50832480D01*
X120765333Y-49784861D02*
X120527238Y-50499147D01*
X121146285Y-50499147D01*
X91906766Y-49812180D02*
X91906766Y-50526466D01*
X91859147Y-50669323D01*
X91763909Y-50764561D01*
X91621052Y-50812180D01*
X91525814Y-50812180D01*
X92287719Y-49812180D02*
X92906766Y-49812180D01*
X92573433Y-50193133D01*
X92716290Y-50193133D01*
X92811528Y-50240752D01*
X92859147Y-50288371D01*
X92906766Y-50383609D01*
X92906766Y-50621704D01*
X92859147Y-50716942D01*
X92811528Y-50764561D01*
X92716290Y-50812180D01*
X92430576Y-50812180D01*
X92335338Y-50764561D01*
X92287719Y-50716942D01*
D10*
X117674912Y-90150957D02*
X117508245Y-90150957D01*
X117508245Y-90570004D02*
X117508245Y-89770004D01*
X117746340Y-89770004D01*
X118174912Y-90570004D02*
X117936817Y-90570004D01*
X117936817Y-89770004D01*
X118603483Y-90570004D02*
X118317769Y-90570004D01*
X118460626Y-90570004D02*
X118460626Y-89770004D01*
X118413007Y-89884290D01*
X118365388Y-89960480D01*
X118317769Y-89998576D01*
D16*
X114281915Y-51388278D02*
X114150682Y-51388278D01*
X114150682Y-51594502D02*
X114150682Y-51200801D01*
X114338158Y-51200801D01*
X114619373Y-51388278D02*
X114675616Y-51407026D01*
X114694364Y-51425773D01*
X114713112Y-51463269D01*
X114713112Y-51519512D01*
X114694364Y-51557007D01*
X114675616Y-51575755D01*
X114638121Y-51594502D01*
X114488140Y-51594502D01*
X114488140Y-51200801D01*
X114619373Y-51200801D01*
X114656869Y-51219549D01*
X114675616Y-51238297D01*
X114694364Y-51275792D01*
X114694364Y-51313287D01*
X114675616Y-51350783D01*
X114656869Y-51369530D01*
X114619373Y-51388278D01*
X114488140Y-51388278D01*
X115088065Y-51594502D02*
X114863093Y-51594502D01*
X114975579Y-51594502D02*
X114975579Y-51200801D01*
X114938084Y-51257044D01*
X114900588Y-51294540D01*
X114863093Y-51313287D01*
D10*
X98868294Y-59774794D02*
X98830199Y-59812889D01*
X98715913Y-59850984D01*
X98639722Y-59850984D01*
X98525437Y-59812889D01*
X98449246Y-59736699D01*
X98411151Y-59660508D01*
X98373056Y-59508127D01*
X98373056Y-59393841D01*
X98411151Y-59241460D01*
X98449246Y-59165270D01*
X98525437Y-59089080D01*
X98639722Y-59050984D01*
X98715913Y-59050984D01*
X98830199Y-59089080D01*
X98868294Y-59127175D01*
X99630199Y-59850984D02*
X99173056Y-59850984D01*
X99401627Y-59850984D02*
X99401627Y-59050984D01*
X99325437Y-59165270D01*
X99249246Y-59241460D01*
X99173056Y-59279556D01*
X100011151Y-59850984D02*
X100163532Y-59850984D01*
X100239722Y-59812889D01*
X100277818Y-59774794D01*
X100354008Y-59660508D01*
X100392103Y-59508127D01*
X100392103Y-59203365D01*
X100354008Y-59127175D01*
X100315913Y-59089080D01*
X100239722Y-59050984D01*
X100087341Y-59050984D01*
X100011151Y-59089080D01*
X99973056Y-59127175D01*
X99934960Y-59203365D01*
X99934960Y-59393841D01*
X99973056Y-59470032D01*
X100011151Y-59508127D01*
X100087341Y-59546222D01*
X100239722Y-59546222D01*
X100315913Y-59508127D01*
X100354008Y-59470032D01*
X100392103Y-59393841D01*
X124418146Y-89602313D02*
X124799099Y-89602313D01*
X124341956Y-89830884D02*
X124608622Y-89030884D01*
X124875289Y-89830884D01*
X125141956Y-89411837D02*
X125408622Y-89411837D01*
X125522908Y-89830884D02*
X125141956Y-89830884D01*
X125141956Y-89030884D01*
X125522908Y-89030884D01*
X126284813Y-89830884D02*
X125827670Y-89830884D01*
X126056241Y-89830884D02*
X126056241Y-89030884D01*
X125980051Y-89145170D01*
X125903860Y-89221360D01*
X125827670Y-89259456D01*
X84353433Y-89241684D02*
X84353433Y-89813113D01*
X84315338Y-89927399D01*
X84239147Y-90003589D01*
X84124861Y-90041684D01*
X84048671Y-90041684D01*
X85153433Y-90041684D02*
X84696290Y-90041684D01*
X84924861Y-90041684D02*
X84924861Y-89241684D01*
X84848671Y-89355970D01*
X84772480Y-89432160D01*
X84696290Y-89470256D01*
X99936333Y-90402464D02*
X99936333Y-90973893D01*
X99898238Y-91088179D01*
X99822047Y-91164369D01*
X99707761Y-91202464D01*
X99631571Y-91202464D01*
X100279190Y-90478655D02*
X100317285Y-90440560D01*
X100393476Y-90402464D01*
X100583952Y-90402464D01*
X100660142Y-90440560D01*
X100698238Y-90478655D01*
X100736333Y-90554845D01*
X100736333Y-90631036D01*
X100698238Y-90745321D01*
X100241095Y-91202464D01*
X100736333Y-91202464D01*
X115098746Y-58251084D02*
X114832080Y-57870132D01*
X114641603Y-58251084D02*
X114641603Y-57451084D01*
X114946365Y-57451084D01*
X115022556Y-57489180D01*
X115060651Y-57527275D01*
X115098746Y-57603465D01*
X115098746Y-57717751D01*
X115060651Y-57793941D01*
X115022556Y-57832037D01*
X114946365Y-57870132D01*
X114641603Y-57870132D01*
X115860651Y-58251084D02*
X115403508Y-58251084D01*
X115632080Y-58251084D02*
X115632080Y-57451084D01*
X115555889Y-57565370D01*
X115479699Y-57641560D01*
X115403508Y-57679656D01*
X110736193Y-52706249D02*
X110850479Y-52744344D01*
X111040955Y-52744344D01*
X111117145Y-52706249D01*
X111155240Y-52668154D01*
X111193336Y-52591963D01*
X111193336Y-52515773D01*
X111155240Y-52439582D01*
X111117145Y-52401487D01*
X111040955Y-52363392D01*
X110888574Y-52325297D01*
X110812383Y-52287201D01*
X110774288Y-52249106D01*
X110736193Y-52172916D01*
X110736193Y-52096725D01*
X110774288Y-52020535D01*
X110812383Y-51982440D01*
X110888574Y-51944344D01*
X111079050Y-51944344D01*
X111193336Y-51982440D01*
X111460002Y-51944344D02*
X111650479Y-52744344D01*
X111802860Y-52172916D01*
X111955240Y-52744344D01*
X112145717Y-51944344D01*
X112869526Y-52744344D02*
X112412383Y-52744344D01*
X112640955Y-52744344D02*
X112640955Y-51944344D01*
X112564764Y-52058630D01*
X112488574Y-52134820D01*
X112412383Y-52172916D01*
X110277867Y-78094847D02*
X109896915Y-78094847D01*
X110696915Y-77828180D02*
X110277867Y-78094847D01*
X110696915Y-78361514D01*
X109896915Y-79047228D02*
X109896915Y-78590085D01*
X109896915Y-78818657D02*
X110696915Y-78818657D01*
X110582629Y-78742466D01*
X110506439Y-78666276D01*
X110468343Y-78590085D01*
X94744567Y-77443292D02*
X94744567Y-77824244D01*
X94477900Y-77024244D02*
X94744567Y-77443292D01*
X95011234Y-77024244D01*
X95239805Y-77100435D02*
X95277900Y-77062340D01*
X95354091Y-77024244D01*
X95544567Y-77024244D01*
X95620758Y-77062340D01*
X95658853Y-77100435D01*
X95696948Y-77176625D01*
X95696948Y-77252816D01*
X95658853Y-77367101D01*
X95201710Y-77824244D01*
X95696948Y-77824244D01*
M02*
