G04 #@! TF.GenerationSoftware,KiCad,Pcbnew,5.1.7-a382d34a8~88~ubuntu18.04.1*
G04 #@! TF.CreationDate,2021-06-07T17:39:16+05:30*
G04 #@! TF.ProjectId,stm32wb_Dev_v2,73746d33-3277-4625-9f44-65765f76322e,rev?*
G04 #@! TF.SameCoordinates,Original*
G04 #@! TF.FileFunction,Paste,Top*
G04 #@! TF.FilePolarity,Positive*
%FSLAX46Y46*%
G04 Gerber Fmt 4.6, Leading zero omitted, Abs format (unit mm)*
G04 Created by KiCad (PCBNEW 5.1.7-a382d34a8~88~ubuntu18.04.1) date 2021-06-07 17:39:16*
%MOMM*%
%LPD*%
G01*
G04 APERTURE LIST*
G04 APERTURE END LIST*
G36*
G01*
X105606000Y-60594900D02*
X111006000Y-60594900D01*
G75*
G02*
X111058700Y-60647600I0J-52700D01*
G01*
X111058700Y-66047600D01*
G75*
G02*
X111006000Y-66100300I-52700J0D01*
G01*
X105606000Y-66100300D01*
G75*
G02*
X105553300Y-66047600I0J52700D01*
G01*
X105553300Y-60647600D01*
G75*
G02*
X105606000Y-60594900I52700J0D01*
G01*
G37*
G36*
G01*
X111330700Y-60422475D02*
X112181300Y-60422475D01*
G75*
G02*
X112231425Y-60472600I0J-50125D01*
G01*
X112231425Y-60722600D01*
G75*
G02*
X112181300Y-60772725I-50125J0D01*
G01*
X111330700Y-60772725D01*
G75*
G02*
X111280575Y-60722600I0J50125D01*
G01*
X111280575Y-60472600D01*
G75*
G02*
X111330700Y-60422475I50125J0D01*
G01*
G37*
G36*
G01*
X111330700Y-60922475D02*
X112181300Y-60922475D01*
G75*
G02*
X112231425Y-60972600I0J-50125D01*
G01*
X112231425Y-61222600D01*
G75*
G02*
X112181300Y-61272725I-50125J0D01*
G01*
X111330700Y-61272725D01*
G75*
G02*
X111280575Y-61222600I0J50125D01*
G01*
X111280575Y-60972600D01*
G75*
G02*
X111330700Y-60922475I50125J0D01*
G01*
G37*
G36*
G01*
X111330700Y-61422475D02*
X112181300Y-61422475D01*
G75*
G02*
X112231425Y-61472600I0J-50125D01*
G01*
X112231425Y-61722600D01*
G75*
G02*
X112181300Y-61772725I-50125J0D01*
G01*
X111330700Y-61772725D01*
G75*
G02*
X111280575Y-61722600I0J50125D01*
G01*
X111280575Y-61472600D01*
G75*
G02*
X111330700Y-61422475I50125J0D01*
G01*
G37*
G36*
G01*
X111330700Y-61922475D02*
X112181300Y-61922475D01*
G75*
G02*
X112231425Y-61972600I0J-50125D01*
G01*
X112231425Y-62222600D01*
G75*
G02*
X112181300Y-62272725I-50125J0D01*
G01*
X111330700Y-62272725D01*
G75*
G02*
X111280575Y-62222600I0J50125D01*
G01*
X111280575Y-61972600D01*
G75*
G02*
X111330700Y-61922475I50125J0D01*
G01*
G37*
G36*
G01*
X111330700Y-62422475D02*
X112181300Y-62422475D01*
G75*
G02*
X112231425Y-62472600I0J-50125D01*
G01*
X112231425Y-62722600D01*
G75*
G02*
X112181300Y-62772725I-50125J0D01*
G01*
X111330700Y-62772725D01*
G75*
G02*
X111280575Y-62722600I0J50125D01*
G01*
X111280575Y-62472600D01*
G75*
G02*
X111330700Y-62422475I50125J0D01*
G01*
G37*
G36*
G01*
X111330700Y-62922475D02*
X112181300Y-62922475D01*
G75*
G02*
X112231425Y-62972600I0J-50125D01*
G01*
X112231425Y-63222600D01*
G75*
G02*
X112181300Y-63272725I-50125J0D01*
G01*
X111330700Y-63272725D01*
G75*
G02*
X111280575Y-63222600I0J50125D01*
G01*
X111280575Y-62972600D01*
G75*
G02*
X111330700Y-62922475I50125J0D01*
G01*
G37*
G36*
G01*
X111330700Y-63422475D02*
X112181300Y-63422475D01*
G75*
G02*
X112231425Y-63472600I0J-50125D01*
G01*
X112231425Y-63722600D01*
G75*
G02*
X112181300Y-63772725I-50125J0D01*
G01*
X111330700Y-63772725D01*
G75*
G02*
X111280575Y-63722600I0J50125D01*
G01*
X111280575Y-63472600D01*
G75*
G02*
X111330700Y-63422475I50125J0D01*
G01*
G37*
G36*
G01*
X111330700Y-63922475D02*
X112181300Y-63922475D01*
G75*
G02*
X112231425Y-63972600I0J-50125D01*
G01*
X112231425Y-64222600D01*
G75*
G02*
X112181300Y-64272725I-50125J0D01*
G01*
X111330700Y-64272725D01*
G75*
G02*
X111280575Y-64222600I0J50125D01*
G01*
X111280575Y-63972600D01*
G75*
G02*
X111330700Y-63922475I50125J0D01*
G01*
G37*
G36*
G01*
X111330700Y-64422475D02*
X112181300Y-64422475D01*
G75*
G02*
X112231425Y-64472600I0J-50125D01*
G01*
X112231425Y-64722600D01*
G75*
G02*
X112181300Y-64772725I-50125J0D01*
G01*
X111330700Y-64772725D01*
G75*
G02*
X111280575Y-64722600I0J50125D01*
G01*
X111280575Y-64472600D01*
G75*
G02*
X111330700Y-64422475I50125J0D01*
G01*
G37*
G36*
G01*
X111330700Y-64922475D02*
X112181300Y-64922475D01*
G75*
G02*
X112231425Y-64972600I0J-50125D01*
G01*
X112231425Y-65222600D01*
G75*
G02*
X112181300Y-65272725I-50125J0D01*
G01*
X111330700Y-65272725D01*
G75*
G02*
X111280575Y-65222600I0J50125D01*
G01*
X111280575Y-64972600D01*
G75*
G02*
X111330700Y-64922475I50125J0D01*
G01*
G37*
G36*
G01*
X111330700Y-65422475D02*
X112181300Y-65422475D01*
G75*
G02*
X112231425Y-65472600I0J-50125D01*
G01*
X112231425Y-65722600D01*
G75*
G02*
X112181300Y-65772725I-50125J0D01*
G01*
X111330700Y-65772725D01*
G75*
G02*
X111280575Y-65722600I0J50125D01*
G01*
X111280575Y-65472600D01*
G75*
G02*
X111330700Y-65422475I50125J0D01*
G01*
G37*
G36*
G01*
X111330700Y-65922475D02*
X112181300Y-65922475D01*
G75*
G02*
X112231425Y-65972600I0J-50125D01*
G01*
X112231425Y-66222600D01*
G75*
G02*
X112181300Y-66272725I-50125J0D01*
G01*
X111330700Y-66272725D01*
G75*
G02*
X111280575Y-66222600I0J50125D01*
G01*
X111280575Y-65972600D01*
G75*
G02*
X111330700Y-65922475I50125J0D01*
G01*
G37*
G36*
G01*
X110880875Y-67222900D02*
X110880875Y-66372300D01*
G75*
G02*
X110931000Y-66322175I50125J0D01*
G01*
X111181000Y-66322175D01*
G75*
G02*
X111231125Y-66372300I0J-50125D01*
G01*
X111231125Y-67222900D01*
G75*
G02*
X111181000Y-67273025I-50125J0D01*
G01*
X110931000Y-67273025D01*
G75*
G02*
X110880875Y-67222900I0J50125D01*
G01*
G37*
G36*
G01*
X110380875Y-67222900D02*
X110380875Y-66372300D01*
G75*
G02*
X110431000Y-66322175I50125J0D01*
G01*
X110681000Y-66322175D01*
G75*
G02*
X110731125Y-66372300I0J-50125D01*
G01*
X110731125Y-67222900D01*
G75*
G02*
X110681000Y-67273025I-50125J0D01*
G01*
X110431000Y-67273025D01*
G75*
G02*
X110380875Y-67222900I0J50125D01*
G01*
G37*
G36*
G01*
X109880875Y-67222900D02*
X109880875Y-66372300D01*
G75*
G02*
X109931000Y-66322175I50125J0D01*
G01*
X110181000Y-66322175D01*
G75*
G02*
X110231125Y-66372300I0J-50125D01*
G01*
X110231125Y-67222900D01*
G75*
G02*
X110181000Y-67273025I-50125J0D01*
G01*
X109931000Y-67273025D01*
G75*
G02*
X109880875Y-67222900I0J50125D01*
G01*
G37*
G36*
G01*
X109380875Y-67222900D02*
X109380875Y-66372300D01*
G75*
G02*
X109431000Y-66322175I50125J0D01*
G01*
X109681000Y-66322175D01*
G75*
G02*
X109731125Y-66372300I0J-50125D01*
G01*
X109731125Y-67222900D01*
G75*
G02*
X109681000Y-67273025I-50125J0D01*
G01*
X109431000Y-67273025D01*
G75*
G02*
X109380875Y-67222900I0J50125D01*
G01*
G37*
G36*
G01*
X108880875Y-67222900D02*
X108880875Y-66372300D01*
G75*
G02*
X108931000Y-66322175I50125J0D01*
G01*
X109181000Y-66322175D01*
G75*
G02*
X109231125Y-66372300I0J-50125D01*
G01*
X109231125Y-67222900D01*
G75*
G02*
X109181000Y-67273025I-50125J0D01*
G01*
X108931000Y-67273025D01*
G75*
G02*
X108880875Y-67222900I0J50125D01*
G01*
G37*
G36*
G01*
X108380875Y-67222900D02*
X108380875Y-66372300D01*
G75*
G02*
X108431000Y-66322175I50125J0D01*
G01*
X108681000Y-66322175D01*
G75*
G02*
X108731125Y-66372300I0J-50125D01*
G01*
X108731125Y-67222900D01*
G75*
G02*
X108681000Y-67273025I-50125J0D01*
G01*
X108431000Y-67273025D01*
G75*
G02*
X108380875Y-67222900I0J50125D01*
G01*
G37*
G36*
G01*
X107880875Y-67222900D02*
X107880875Y-66372300D01*
G75*
G02*
X107931000Y-66322175I50125J0D01*
G01*
X108181000Y-66322175D01*
G75*
G02*
X108231125Y-66372300I0J-50125D01*
G01*
X108231125Y-67222900D01*
G75*
G02*
X108181000Y-67273025I-50125J0D01*
G01*
X107931000Y-67273025D01*
G75*
G02*
X107880875Y-67222900I0J50125D01*
G01*
G37*
G36*
G01*
X107380875Y-67222900D02*
X107380875Y-66372300D01*
G75*
G02*
X107431000Y-66322175I50125J0D01*
G01*
X107681000Y-66322175D01*
G75*
G02*
X107731125Y-66372300I0J-50125D01*
G01*
X107731125Y-67222900D01*
G75*
G02*
X107681000Y-67273025I-50125J0D01*
G01*
X107431000Y-67273025D01*
G75*
G02*
X107380875Y-67222900I0J50125D01*
G01*
G37*
G36*
G01*
X106880875Y-67222900D02*
X106880875Y-66372300D01*
G75*
G02*
X106931000Y-66322175I50125J0D01*
G01*
X107181000Y-66322175D01*
G75*
G02*
X107231125Y-66372300I0J-50125D01*
G01*
X107231125Y-67222900D01*
G75*
G02*
X107181000Y-67273025I-50125J0D01*
G01*
X106931000Y-67273025D01*
G75*
G02*
X106880875Y-67222900I0J50125D01*
G01*
G37*
G36*
G01*
X106380875Y-67222900D02*
X106380875Y-66372300D01*
G75*
G02*
X106431000Y-66322175I50125J0D01*
G01*
X106681000Y-66322175D01*
G75*
G02*
X106731125Y-66372300I0J-50125D01*
G01*
X106731125Y-67222900D01*
G75*
G02*
X106681000Y-67273025I-50125J0D01*
G01*
X106431000Y-67273025D01*
G75*
G02*
X106380875Y-67222900I0J50125D01*
G01*
G37*
G36*
G01*
X105880875Y-67222900D02*
X105880875Y-66372300D01*
G75*
G02*
X105931000Y-66322175I50125J0D01*
G01*
X106181000Y-66322175D01*
G75*
G02*
X106231125Y-66372300I0J-50125D01*
G01*
X106231125Y-67222900D01*
G75*
G02*
X106181000Y-67273025I-50125J0D01*
G01*
X105931000Y-67273025D01*
G75*
G02*
X105880875Y-67222900I0J50125D01*
G01*
G37*
G36*
G01*
X105380875Y-67222900D02*
X105380875Y-66372300D01*
G75*
G02*
X105431000Y-66322175I50125J0D01*
G01*
X105681000Y-66322175D01*
G75*
G02*
X105731125Y-66372300I0J-50125D01*
G01*
X105731125Y-67222900D01*
G75*
G02*
X105681000Y-67273025I-50125J0D01*
G01*
X105431000Y-67273025D01*
G75*
G02*
X105380875Y-67222900I0J50125D01*
G01*
G37*
G36*
G01*
X104430700Y-65922475D02*
X105281300Y-65922475D01*
G75*
G02*
X105331425Y-65972600I0J-50125D01*
G01*
X105331425Y-66222600D01*
G75*
G02*
X105281300Y-66272725I-50125J0D01*
G01*
X104430700Y-66272725D01*
G75*
G02*
X104380575Y-66222600I0J50125D01*
G01*
X104380575Y-65972600D01*
G75*
G02*
X104430700Y-65922475I50125J0D01*
G01*
G37*
G36*
G01*
X104430700Y-65422475D02*
X105281300Y-65422475D01*
G75*
G02*
X105331425Y-65472600I0J-50125D01*
G01*
X105331425Y-65722600D01*
G75*
G02*
X105281300Y-65772725I-50125J0D01*
G01*
X104430700Y-65772725D01*
G75*
G02*
X104380575Y-65722600I0J50125D01*
G01*
X104380575Y-65472600D01*
G75*
G02*
X104430700Y-65422475I50125J0D01*
G01*
G37*
G36*
G01*
X104430700Y-64922475D02*
X105281300Y-64922475D01*
G75*
G02*
X105331425Y-64972600I0J-50125D01*
G01*
X105331425Y-65222600D01*
G75*
G02*
X105281300Y-65272725I-50125J0D01*
G01*
X104430700Y-65272725D01*
G75*
G02*
X104380575Y-65222600I0J50125D01*
G01*
X104380575Y-64972600D01*
G75*
G02*
X104430700Y-64922475I50125J0D01*
G01*
G37*
G36*
G01*
X104430700Y-64422475D02*
X105281300Y-64422475D01*
G75*
G02*
X105331425Y-64472600I0J-50125D01*
G01*
X105331425Y-64722600D01*
G75*
G02*
X105281300Y-64772725I-50125J0D01*
G01*
X104430700Y-64772725D01*
G75*
G02*
X104380575Y-64722600I0J50125D01*
G01*
X104380575Y-64472600D01*
G75*
G02*
X104430700Y-64422475I50125J0D01*
G01*
G37*
G36*
G01*
X104430700Y-63922475D02*
X105281300Y-63922475D01*
G75*
G02*
X105331425Y-63972600I0J-50125D01*
G01*
X105331425Y-64222600D01*
G75*
G02*
X105281300Y-64272725I-50125J0D01*
G01*
X104430700Y-64272725D01*
G75*
G02*
X104380575Y-64222600I0J50125D01*
G01*
X104380575Y-63972600D01*
G75*
G02*
X104430700Y-63922475I50125J0D01*
G01*
G37*
G36*
G01*
X104430700Y-63422475D02*
X105281300Y-63422475D01*
G75*
G02*
X105331425Y-63472600I0J-50125D01*
G01*
X105331425Y-63722600D01*
G75*
G02*
X105281300Y-63772725I-50125J0D01*
G01*
X104430700Y-63772725D01*
G75*
G02*
X104380575Y-63722600I0J50125D01*
G01*
X104380575Y-63472600D01*
G75*
G02*
X104430700Y-63422475I50125J0D01*
G01*
G37*
G36*
G01*
X104430700Y-62922475D02*
X105281300Y-62922475D01*
G75*
G02*
X105331425Y-62972600I0J-50125D01*
G01*
X105331425Y-63222600D01*
G75*
G02*
X105281300Y-63272725I-50125J0D01*
G01*
X104430700Y-63272725D01*
G75*
G02*
X104380575Y-63222600I0J50125D01*
G01*
X104380575Y-62972600D01*
G75*
G02*
X104430700Y-62922475I50125J0D01*
G01*
G37*
G36*
G01*
X104430700Y-62422475D02*
X105281300Y-62422475D01*
G75*
G02*
X105331425Y-62472600I0J-50125D01*
G01*
X105331425Y-62722600D01*
G75*
G02*
X105281300Y-62772725I-50125J0D01*
G01*
X104430700Y-62772725D01*
G75*
G02*
X104380575Y-62722600I0J50125D01*
G01*
X104380575Y-62472600D01*
G75*
G02*
X104430700Y-62422475I50125J0D01*
G01*
G37*
G36*
G01*
X104430700Y-61922475D02*
X105281300Y-61922475D01*
G75*
G02*
X105331425Y-61972600I0J-50125D01*
G01*
X105331425Y-62222600D01*
G75*
G02*
X105281300Y-62272725I-50125J0D01*
G01*
X104430700Y-62272725D01*
G75*
G02*
X104380575Y-62222600I0J50125D01*
G01*
X104380575Y-61972600D01*
G75*
G02*
X104430700Y-61922475I50125J0D01*
G01*
G37*
G36*
G01*
X104430700Y-61422475D02*
X105281300Y-61422475D01*
G75*
G02*
X105331425Y-61472600I0J-50125D01*
G01*
X105331425Y-61722600D01*
G75*
G02*
X105281300Y-61772725I-50125J0D01*
G01*
X104430700Y-61772725D01*
G75*
G02*
X104380575Y-61722600I0J50125D01*
G01*
X104380575Y-61472600D01*
G75*
G02*
X104430700Y-61422475I50125J0D01*
G01*
G37*
G36*
G01*
X104430700Y-60922475D02*
X105281300Y-60922475D01*
G75*
G02*
X105331425Y-60972600I0J-50125D01*
G01*
X105331425Y-61222600D01*
G75*
G02*
X105281300Y-61272725I-50125J0D01*
G01*
X104430700Y-61272725D01*
G75*
G02*
X104380575Y-61222600I0J50125D01*
G01*
X104380575Y-60972600D01*
G75*
G02*
X104430700Y-60922475I50125J0D01*
G01*
G37*
G36*
G01*
X104430700Y-60422475D02*
X105281300Y-60422475D01*
G75*
G02*
X105331425Y-60472600I0J-50125D01*
G01*
X105331425Y-60722600D01*
G75*
G02*
X105281300Y-60772725I-50125J0D01*
G01*
X104430700Y-60772725D01*
G75*
G02*
X104380575Y-60722600I0J50125D01*
G01*
X104380575Y-60472600D01*
G75*
G02*
X104430700Y-60422475I50125J0D01*
G01*
G37*
G36*
G01*
X105380875Y-60322900D02*
X105380875Y-59472300D01*
G75*
G02*
X105431000Y-59422175I50125J0D01*
G01*
X105681000Y-59422175D01*
G75*
G02*
X105731125Y-59472300I0J-50125D01*
G01*
X105731125Y-60322900D01*
G75*
G02*
X105681000Y-60373025I-50125J0D01*
G01*
X105431000Y-60373025D01*
G75*
G02*
X105380875Y-60322900I0J50125D01*
G01*
G37*
G36*
G01*
X105880875Y-60322900D02*
X105880875Y-59472300D01*
G75*
G02*
X105931000Y-59422175I50125J0D01*
G01*
X106181000Y-59422175D01*
G75*
G02*
X106231125Y-59472300I0J-50125D01*
G01*
X106231125Y-60322900D01*
G75*
G02*
X106181000Y-60373025I-50125J0D01*
G01*
X105931000Y-60373025D01*
G75*
G02*
X105880875Y-60322900I0J50125D01*
G01*
G37*
G36*
G01*
X106380875Y-60322900D02*
X106380875Y-59472300D01*
G75*
G02*
X106431000Y-59422175I50125J0D01*
G01*
X106681000Y-59422175D01*
G75*
G02*
X106731125Y-59472300I0J-50125D01*
G01*
X106731125Y-60322900D01*
G75*
G02*
X106681000Y-60373025I-50125J0D01*
G01*
X106431000Y-60373025D01*
G75*
G02*
X106380875Y-60322900I0J50125D01*
G01*
G37*
G36*
G01*
X106880875Y-60322900D02*
X106880875Y-59472300D01*
G75*
G02*
X106931000Y-59422175I50125J0D01*
G01*
X107181000Y-59422175D01*
G75*
G02*
X107231125Y-59472300I0J-50125D01*
G01*
X107231125Y-60322900D01*
G75*
G02*
X107181000Y-60373025I-50125J0D01*
G01*
X106931000Y-60373025D01*
G75*
G02*
X106880875Y-60322900I0J50125D01*
G01*
G37*
G36*
G01*
X107380875Y-60322900D02*
X107380875Y-59472300D01*
G75*
G02*
X107431000Y-59422175I50125J0D01*
G01*
X107681000Y-59422175D01*
G75*
G02*
X107731125Y-59472300I0J-50125D01*
G01*
X107731125Y-60322900D01*
G75*
G02*
X107681000Y-60373025I-50125J0D01*
G01*
X107431000Y-60373025D01*
G75*
G02*
X107380875Y-60322900I0J50125D01*
G01*
G37*
G36*
G01*
X107880875Y-60322900D02*
X107880875Y-59472300D01*
G75*
G02*
X107931000Y-59422175I50125J0D01*
G01*
X108181000Y-59422175D01*
G75*
G02*
X108231125Y-59472300I0J-50125D01*
G01*
X108231125Y-60322900D01*
G75*
G02*
X108181000Y-60373025I-50125J0D01*
G01*
X107931000Y-60373025D01*
G75*
G02*
X107880875Y-60322900I0J50125D01*
G01*
G37*
G36*
G01*
X108380875Y-60322900D02*
X108380875Y-59472300D01*
G75*
G02*
X108431000Y-59422175I50125J0D01*
G01*
X108681000Y-59422175D01*
G75*
G02*
X108731125Y-59472300I0J-50125D01*
G01*
X108731125Y-60322900D01*
G75*
G02*
X108681000Y-60373025I-50125J0D01*
G01*
X108431000Y-60373025D01*
G75*
G02*
X108380875Y-60322900I0J50125D01*
G01*
G37*
G36*
G01*
X108880875Y-60322900D02*
X108880875Y-59472300D01*
G75*
G02*
X108931000Y-59422175I50125J0D01*
G01*
X109181000Y-59422175D01*
G75*
G02*
X109231125Y-59472300I0J-50125D01*
G01*
X109231125Y-60322900D01*
G75*
G02*
X109181000Y-60373025I-50125J0D01*
G01*
X108931000Y-60373025D01*
G75*
G02*
X108880875Y-60322900I0J50125D01*
G01*
G37*
G36*
G01*
X109380875Y-60322900D02*
X109380875Y-59472300D01*
G75*
G02*
X109431000Y-59422175I50125J0D01*
G01*
X109681000Y-59422175D01*
G75*
G02*
X109731125Y-59472300I0J-50125D01*
G01*
X109731125Y-60322900D01*
G75*
G02*
X109681000Y-60373025I-50125J0D01*
G01*
X109431000Y-60373025D01*
G75*
G02*
X109380875Y-60322900I0J50125D01*
G01*
G37*
G36*
G01*
X109880875Y-60322900D02*
X109880875Y-59472300D01*
G75*
G02*
X109931000Y-59422175I50125J0D01*
G01*
X110181000Y-59422175D01*
G75*
G02*
X110231125Y-59472300I0J-50125D01*
G01*
X110231125Y-60322900D01*
G75*
G02*
X110181000Y-60373025I-50125J0D01*
G01*
X109931000Y-60373025D01*
G75*
G02*
X109880875Y-60322900I0J50125D01*
G01*
G37*
G36*
G01*
X110380875Y-60322900D02*
X110380875Y-59472300D01*
G75*
G02*
X110431000Y-59422175I50125J0D01*
G01*
X110681000Y-59422175D01*
G75*
G02*
X110731125Y-59472300I0J-50125D01*
G01*
X110731125Y-60322900D01*
G75*
G02*
X110681000Y-60373025I-50125J0D01*
G01*
X110431000Y-60373025D01*
G75*
G02*
X110380875Y-60322900I0J50125D01*
G01*
G37*
G36*
G01*
X110880875Y-60322900D02*
X110880875Y-59472300D01*
G75*
G02*
X110931000Y-59422175I50125J0D01*
G01*
X111181000Y-59422175D01*
G75*
G02*
X111231125Y-59472300I0J-50125D01*
G01*
X111231125Y-60322900D01*
G75*
G02*
X111181000Y-60373025I-50125J0D01*
G01*
X110931000Y-60373025D01*
G75*
G02*
X110880875Y-60322900I0J50125D01*
G01*
G37*
G36*
G01*
X88265700Y-87894275D02*
X88265700Y-86893325D01*
G75*
G02*
X88540950Y-86618075I275250J0D01*
G01*
X89091450Y-86618075D01*
G75*
G02*
X89366700Y-86893325I0J-275250D01*
G01*
X89366700Y-87894275D01*
G75*
G02*
X89091450Y-88169525I-275250J0D01*
G01*
X88540950Y-88169525D01*
G75*
G02*
X88265700Y-87894275I0J275250D01*
G01*
G37*
G36*
G01*
X86365700Y-87894275D02*
X86365700Y-86893325D01*
G75*
G02*
X86640950Y-86618075I275250J0D01*
G01*
X87191450Y-86618075D01*
G75*
G02*
X87466700Y-86893325I0J-275250D01*
G01*
X87466700Y-87894275D01*
G75*
G02*
X87191450Y-88169525I-275250J0D01*
G01*
X86640950Y-88169525D01*
G75*
G02*
X86365700Y-87894275I0J275250D01*
G01*
G37*
G36*
G01*
X111958369Y-72339762D02*
X112771631Y-72339762D01*
G75*
G02*
X113015600Y-72583731I0J-243969D01*
G01*
X113015600Y-73071669D01*
G75*
G02*
X112771631Y-73315638I-243969J0D01*
G01*
X111958369Y-73315638D01*
G75*
G02*
X111714400Y-73071669I0J243969D01*
G01*
X111714400Y-72583731D01*
G75*
G02*
X111958369Y-72339762I243969J0D01*
G01*
G37*
G36*
G01*
X111958369Y-70214762D02*
X112771631Y-70214762D01*
G75*
G02*
X113015600Y-70458731I0J-243969D01*
G01*
X113015600Y-70946669D01*
G75*
G02*
X112771631Y-71190638I-243969J0D01*
G01*
X111958369Y-71190638D01*
G75*
G02*
X111714400Y-70946669I0J243969D01*
G01*
X111714400Y-70458731D01*
G75*
G02*
X111958369Y-70214762I243969J0D01*
G01*
G37*
G36*
G01*
X108966631Y-71317638D02*
X108153369Y-71317638D01*
G75*
G02*
X107909400Y-71073669I0J243969D01*
G01*
X107909400Y-70585731D01*
G75*
G02*
X108153369Y-70341762I243969J0D01*
G01*
X108966631Y-70341762D01*
G75*
G02*
X109210600Y-70585731I0J-243969D01*
G01*
X109210600Y-71073669D01*
G75*
G02*
X108966631Y-71317638I-243969J0D01*
G01*
G37*
G36*
G01*
X108966631Y-73442638D02*
X108153369Y-73442638D01*
G75*
G02*
X107909400Y-73198669I0J243969D01*
G01*
X107909400Y-72710731D01*
G75*
G02*
X108153369Y-72466762I243969J0D01*
G01*
X108966631Y-72466762D01*
G75*
G02*
X109210600Y-72710731I0J-243969D01*
G01*
X109210600Y-73198669D01*
G75*
G02*
X108966631Y-73442638I-243969J0D01*
G01*
G37*
G36*
G01*
X117265745Y-88195620D02*
X118736255Y-88195620D01*
G75*
G02*
X118786735Y-88246100I0J-50480D01*
G01*
X118786735Y-89206100D01*
G75*
G02*
X118736255Y-89256580I-50480J0D01*
G01*
X117265745Y-89256580D01*
G75*
G02*
X117215265Y-89206100I0J50480D01*
G01*
X117215265Y-88246100D01*
G75*
G02*
X117265745Y-88195620I50480J0D01*
G01*
G37*
G36*
G01*
X117265745Y-86239620D02*
X118736255Y-86239620D01*
G75*
G02*
X118786735Y-86290100I0J-50480D01*
G01*
X118786735Y-87250100D01*
G75*
G02*
X118736255Y-87300580I-50480J0D01*
G01*
X117265745Y-87300580D01*
G75*
G02*
X117215265Y-87250100I0J50480D01*
G01*
X117215265Y-86290100D01*
G75*
G02*
X117265745Y-86239620I50480J0D01*
G01*
G37*
G36*
G01*
X113702480Y-49361145D02*
X113702480Y-50831655D01*
G75*
G02*
X113652000Y-50882135I-50480J0D01*
G01*
X112692000Y-50882135D01*
G75*
G02*
X112641520Y-50831655I0J50480D01*
G01*
X112641520Y-49361145D01*
G75*
G02*
X112692000Y-49310665I50480J0D01*
G01*
X113652000Y-49310665D01*
G75*
G02*
X113702480Y-49361145I0J-50480D01*
G01*
G37*
G36*
G01*
X115658480Y-49361145D02*
X115658480Y-50831655D01*
G75*
G02*
X115608000Y-50882135I-50480J0D01*
G01*
X114648000Y-50882135D01*
G75*
G02*
X114597520Y-50831655I0J50480D01*
G01*
X114597520Y-49361145D01*
G75*
G02*
X114648000Y-49310665I50480J0D01*
G01*
X115608000Y-49310665D01*
G75*
G02*
X115658480Y-49361145I0J-50480D01*
G01*
G37*
G36*
G01*
X98603100Y-60354000D02*
X100202700Y-60354000D01*
G75*
G02*
X100253700Y-60405000I0J-51000D01*
G01*
X100253700Y-62405000D01*
G75*
G02*
X100202700Y-62456000I-51000J0D01*
G01*
X98603100Y-62456000D01*
G75*
G02*
X98552100Y-62405000I0J51000D01*
G01*
X98552100Y-60405000D01*
G75*
G02*
X98603100Y-60354000I51000J0D01*
G01*
G37*
G36*
G01*
X98603100Y-64354000D02*
X100202700Y-64354000D01*
G75*
G02*
X100253700Y-64405000I0J-51000D01*
G01*
X100253700Y-66405000D01*
G75*
G02*
X100202700Y-66456000I-51000J0D01*
G01*
X98603100Y-66456000D01*
G75*
G02*
X98552100Y-66405000I0J51000D01*
G01*
X98552100Y-64405000D01*
G75*
G02*
X98603100Y-64354000I51000J0D01*
G01*
G37*
G36*
G01*
X115903650Y-56794501D02*
X115903650Y-55493899D01*
G75*
G02*
X115953999Y-55443550I50349J0D01*
G01*
X116654001Y-55443550D01*
G75*
G02*
X116704350Y-55493899I0J-50349D01*
G01*
X116704350Y-56794501D01*
G75*
G02*
X116654001Y-56844850I-50349J0D01*
G01*
X115953999Y-56844850D01*
G75*
G02*
X115903650Y-56794501I0J50349D01*
G01*
G37*
G36*
G01*
X114003650Y-56794501D02*
X114003650Y-55493899D01*
G75*
G02*
X114053999Y-55443550I50349J0D01*
G01*
X114754001Y-55443550D01*
G75*
G02*
X114804350Y-55493899I0J-50349D01*
G01*
X114804350Y-56794501D01*
G75*
G02*
X114754001Y-56844850I-50349J0D01*
G01*
X114053999Y-56844850D01*
G75*
G02*
X114003650Y-56794501I0J50349D01*
G01*
G37*
G36*
G01*
X110802600Y-56500450D02*
X112503400Y-56500450D01*
G75*
G02*
X112553850Y-56550900I0J-50450D01*
G01*
X112553850Y-57450900D01*
G75*
G02*
X112503400Y-57501350I-50450J0D01*
G01*
X110802600Y-57501350D01*
G75*
G02*
X110752150Y-57450900I0J50450D01*
G01*
X110752150Y-56550900D01*
G75*
G02*
X110802600Y-56500450I50450J0D01*
G01*
G37*
G36*
G01*
X110802600Y-53100450D02*
X112503400Y-53100450D01*
G75*
G02*
X112553850Y-53150900I0J-50450D01*
G01*
X112553850Y-54050900D01*
G75*
G02*
X112503400Y-54101350I-50450J0D01*
G01*
X110802600Y-54101350D01*
G75*
G02*
X110752150Y-54050900I0J50450D01*
G01*
X110752150Y-53150900D01*
G75*
G02*
X110802600Y-53100450I50450J0D01*
G01*
G37*
M02*
