M48
; DRILL file {KiCad 5.1.7-a382d34a8~88~ubuntu18.04.1} date Mon Jun  7 17:39:12 2021
; FORMAT={3:3/ absolute / metric / suppress leading zeros}
; #@! TF.CreationDate,2021-06-07T17:39:12+05:30
; #@! TF.GenerationSoftware,Kicad,Pcbnew,5.1.7-a382d34a8~88~ubuntu18.04.1
FMAT,2
METRIC,TZ
T1C0.400
T2C0.500
T3C0.800
T4C1.000
T5C2.100
%
G90
G05
T1
X89548Y-88872
X90818Y-62405
X91684Y-89426
X98331Y-68428
X99045Y-89802
X99131Y-92184
X99301Y-88199
X102141Y-63101
X102522Y-64966
X103535Y-65227
X103622Y-63477
X104530Y-58548
X106675Y-56807
X108056Y-58827
X108648Y-84087
X109870Y-81900
X110454Y-86236
X111166Y-58397
X111894Y-59171
X113269Y-80719
X113274Y-64098
X113535Y-58364
X115854Y-87419
X117935Y-56512
X118082Y-74526
T2
X111826Y-78425
X113726Y-78425
T3
X98471Y-74983
X98471Y-79883
T4
X85905Y-92151
X88445Y-92151
X90985Y-92151
X93525Y-92151
X96065Y-92151
X92240Y-52690
X92240Y-55230
X92240Y-57770
X92240Y-60310
X92240Y-62850
X92240Y-65390
X92240Y-67930
X92240Y-70470
X92240Y-73010
X92240Y-75550
X102862Y-92116
X105402Y-92116
X107942Y-92116
X110482Y-92116
X113022Y-92116
X120432Y-52710
X120432Y-55250
X120432Y-57790
X120432Y-60330
X120432Y-62870
X120432Y-65410
X120432Y-67950
X120432Y-70490
X120432Y-73030
X120432Y-75570
X125067Y-92131
T5
X125062Y-50800
X117676Y-92712
X84902Y-50620
T0
M30
