G04 #@! TF.GenerationSoftware,KiCad,Pcbnew,5.1.7-a382d34a8~88~ubuntu18.04.1*
G04 #@! TF.CreationDate,2021-11-19T23:21:26+05:30*
G04 #@! TF.ProjectId,FrontEnd_HeavyDevice_v2,46726f6e-7445-46e6-945f-486561767944,rev?*
G04 #@! TF.SameCoordinates,Original*
G04 #@! TF.FileFunction,Other,Fab,Bot*
%FSLAX46Y46*%
G04 Gerber Fmt 4.6, Leading zero omitted, Abs format (unit mm)*
G04 Created by KiCad (PCBNEW 5.1.7-a382d34a8~88~ubuntu18.04.1) date 2021-11-19 23:21:26*
%MOMM*%
%LPD*%
G01*
G04 APERTURE LIST*
%ADD10C,0.200000*%
%ADD11C,0.127000*%
%ADD12C,0.100000*%
G04 APERTURE END LIST*
D10*
X99134700Y-106949000D02*
G75*
G03*
X99134700Y-106949000I-100000J0D01*
G01*
D11*
X97729100Y-111125000D02*
X97729100Y-107925000D01*
X99329100Y-111125000D02*
X97729100Y-111125000D01*
X99329100Y-107925000D02*
X99329100Y-111125000D01*
X97729100Y-107925000D02*
X99329100Y-107925000D01*
D12*
X114220000Y-87620000D02*
X112220000Y-87620000D01*
X112220000Y-87620000D02*
X112220000Y-88860000D01*
X112220000Y-88860000D02*
X114220000Y-88860000D01*
X114220000Y-88860000D02*
X114220000Y-87620000D01*
X114590000Y-93829900D02*
X116590000Y-93829900D01*
X116590000Y-93829900D02*
X116590000Y-92529900D01*
X116590000Y-92529900D02*
X114590000Y-92529900D01*
X114590000Y-92529900D02*
X114590000Y-93829900D01*
X115790000Y-93379900D02*
X115490000Y-93179900D01*
X115490000Y-93179900D02*
X115790000Y-92979900D01*
X115790000Y-92979900D02*
X115790000Y-93379900D01*
X115490000Y-93379900D02*
X115490000Y-92979900D01*
X115490000Y-93179900D02*
X115290000Y-93179900D01*
X115790000Y-93179900D02*
X115990000Y-93179900D01*
X121450000Y-89140000D02*
X122100000Y-88490000D01*
X122100000Y-87340000D02*
X122100000Y-88490000D01*
X121450000Y-89140000D02*
X119000000Y-89140000D01*
X119000000Y-87340000D02*
X119000000Y-89140000D01*
X122100000Y-87340000D02*
X119000000Y-87340000D01*
M02*
