G04 #@! TF.GenerationSoftware,KiCad,Pcbnew,5.1.7-a382d34a8~88~ubuntu18.04.1*
G04 #@! TF.CreationDate,2021-11-19T23:21:26+05:30*
G04 #@! TF.ProjectId,FrontEnd_HeavyDevice_v2,46726f6e-7445-46e6-945f-486561767944,rev?*
G04 #@! TF.SameCoordinates,Original*
G04 #@! TF.FileFunction,Soldermask,Top*
G04 #@! TF.FilePolarity,Negative*
%FSLAX46Y46*%
G04 Gerber Fmt 4.6, Leading zero omitted, Abs format (unit mm)*
G04 Created by KiCad (PCBNEW 5.1.7-a382d34a8~88~ubuntu18.04.1) date 2021-11-19 23:21:26*
%MOMM*%
%LPD*%
G01*
G04 APERTURE LIST*
%ADD10C,3.200000*%
%ADD11O,1.800000X1.800000*%
%ADD12C,1.600000*%
G04 APERTURE END LIST*
D10*
X120792000Y-116510000D03*
D11*
X98710000Y-99620000D03*
X98710000Y-97080000D03*
X98710000Y-94540000D03*
X98710000Y-92000000D03*
X98710000Y-89460000D03*
G36*
G01*
X97810000Y-87770000D02*
X97810000Y-86070000D01*
G75*
G02*
X97860000Y-86020000I50000J0D01*
G01*
X99560000Y-86020000D01*
G75*
G02*
X99610000Y-86070000I0J-50000D01*
G01*
X99610000Y-87770000D01*
G75*
G02*
X99560000Y-87820000I-50000J0D01*
G01*
X97860000Y-87820000D01*
G75*
G02*
X97810000Y-87770000I0J50000D01*
G01*
G37*
X110523000Y-81833700D03*
X113063000Y-81833700D03*
X115603000Y-81833700D03*
X118143000Y-81833700D03*
X120683000Y-81833700D03*
G36*
G01*
X122373000Y-80933700D02*
X124073000Y-80933700D01*
G75*
G02*
X124123000Y-80983700I0J-50000D01*
G01*
X124123000Y-82683700D01*
G75*
G02*
X124073000Y-82733700I-50000J0D01*
G01*
X122373000Y-82733700D01*
G75*
G02*
X122323000Y-82683700I0J50000D01*
G01*
X122323000Y-80983700D01*
G75*
G02*
X122373000Y-80933700I50000J0D01*
G01*
G37*
G36*
G01*
X131804000Y-96365200D02*
X132804000Y-96365200D01*
G75*
G02*
X132854000Y-96415200I0J-50000D01*
G01*
X132854000Y-96645200D01*
G75*
G02*
X132804000Y-96695200I-50000J0D01*
G01*
X131804000Y-96695200D01*
G75*
G02*
X131754000Y-96645200I0J50000D01*
G01*
X131754000Y-96415200D01*
G75*
G02*
X131804000Y-96365200I50000J0D01*
G01*
G37*
G36*
G01*
X130919000Y-89630200D02*
X131149000Y-89630200D01*
G75*
G02*
X131199000Y-89680200I0J-50000D01*
G01*
X131199000Y-90680200D01*
G75*
G02*
X131149000Y-90730200I-50000J0D01*
G01*
X130919000Y-90730200D01*
G75*
G02*
X130869000Y-90680200I0J50000D01*
G01*
X130869000Y-89680200D01*
G75*
G02*
X130919000Y-89630200I50000J0D01*
G01*
G37*
G36*
G01*
X130411000Y-89630200D02*
X130641000Y-89630200D01*
G75*
G02*
X130691000Y-89680200I0J-50000D01*
G01*
X130691000Y-90680200D01*
G75*
G02*
X130641000Y-90730200I-50000J0D01*
G01*
X130411000Y-90730200D01*
G75*
G02*
X130361000Y-90680200I0J50000D01*
G01*
X130361000Y-89680200D01*
G75*
G02*
X130411000Y-89630200I50000J0D01*
G01*
G37*
G36*
G01*
X129903000Y-89630200D02*
X130133000Y-89630200D01*
G75*
G02*
X130183000Y-89680200I0J-50000D01*
G01*
X130183000Y-90680200D01*
G75*
G02*
X130133000Y-90730200I-50000J0D01*
G01*
X129903000Y-90730200D01*
G75*
G02*
X129853000Y-90680200I0J50000D01*
G01*
X129853000Y-89680200D01*
G75*
G02*
X129903000Y-89630200I50000J0D01*
G01*
G37*
G36*
G01*
X129395000Y-89630200D02*
X129625000Y-89630200D01*
G75*
G02*
X129675000Y-89680200I0J-50000D01*
G01*
X129675000Y-90680200D01*
G75*
G02*
X129625000Y-90730200I-50000J0D01*
G01*
X129395000Y-90730200D01*
G75*
G02*
X129345000Y-90680200I0J50000D01*
G01*
X129345000Y-89680200D01*
G75*
G02*
X129395000Y-89630200I50000J0D01*
G01*
G37*
G36*
G01*
X128887000Y-89630200D02*
X129117000Y-89630200D01*
G75*
G02*
X129167000Y-89680200I0J-50000D01*
G01*
X129167000Y-90680200D01*
G75*
G02*
X129117000Y-90730200I-50000J0D01*
G01*
X128887000Y-90730200D01*
G75*
G02*
X128837000Y-90680200I0J50000D01*
G01*
X128837000Y-89680200D01*
G75*
G02*
X128887000Y-89630200I50000J0D01*
G01*
G37*
G36*
G01*
X128379000Y-89630200D02*
X128609000Y-89630200D01*
G75*
G02*
X128659000Y-89680200I0J-50000D01*
G01*
X128659000Y-90680200D01*
G75*
G02*
X128609000Y-90730200I-50000J0D01*
G01*
X128379000Y-90730200D01*
G75*
G02*
X128329000Y-90680200I0J50000D01*
G01*
X128329000Y-89680200D01*
G75*
G02*
X128379000Y-89630200I50000J0D01*
G01*
G37*
G36*
G01*
X127871000Y-89630200D02*
X128101000Y-89630200D01*
G75*
G02*
X128151000Y-89680200I0J-50000D01*
G01*
X128151000Y-90680200D01*
G75*
G02*
X128101000Y-90730200I-50000J0D01*
G01*
X127871000Y-90730200D01*
G75*
G02*
X127821000Y-90680200I0J50000D01*
G01*
X127821000Y-89680200D01*
G75*
G02*
X127871000Y-89630200I50000J0D01*
G01*
G37*
G36*
G01*
X127363000Y-89630200D02*
X127593000Y-89630200D01*
G75*
G02*
X127643000Y-89680200I0J-50000D01*
G01*
X127643000Y-90680200D01*
G75*
G02*
X127593000Y-90730200I-50000J0D01*
G01*
X127363000Y-90730200D01*
G75*
G02*
X127313000Y-90680200I0J50000D01*
G01*
X127313000Y-89680200D01*
G75*
G02*
X127363000Y-89630200I50000J0D01*
G01*
G37*
G36*
G01*
X126855000Y-89630200D02*
X127085000Y-89630200D01*
G75*
G02*
X127135000Y-89680200I0J-50000D01*
G01*
X127135000Y-90680200D01*
G75*
G02*
X127085000Y-90730200I-50000J0D01*
G01*
X126855000Y-90730200D01*
G75*
G02*
X126805000Y-90680200I0J50000D01*
G01*
X126805000Y-89680200D01*
G75*
G02*
X126855000Y-89630200I50000J0D01*
G01*
G37*
G36*
G01*
X126347000Y-89630200D02*
X126577000Y-89630200D01*
G75*
G02*
X126627000Y-89680200I0J-50000D01*
G01*
X126627000Y-90680200D01*
G75*
G02*
X126577000Y-90730200I-50000J0D01*
G01*
X126347000Y-90730200D01*
G75*
G02*
X126297000Y-90680200I0J50000D01*
G01*
X126297000Y-89680200D01*
G75*
G02*
X126347000Y-89630200I50000J0D01*
G01*
G37*
G36*
G01*
X125839000Y-89630200D02*
X126069000Y-89630200D01*
G75*
G02*
X126119000Y-89680200I0J-50000D01*
G01*
X126119000Y-90680200D01*
G75*
G02*
X126069000Y-90730200I-50000J0D01*
G01*
X125839000Y-90730200D01*
G75*
G02*
X125789000Y-90680200I0J50000D01*
G01*
X125789000Y-89680200D01*
G75*
G02*
X125839000Y-89630200I50000J0D01*
G01*
G37*
G36*
G01*
X125331000Y-89630200D02*
X125561000Y-89630200D01*
G75*
G02*
X125611000Y-89680200I0J-50000D01*
G01*
X125611000Y-90680200D01*
G75*
G02*
X125561000Y-90730200I-50000J0D01*
G01*
X125331000Y-90730200D01*
G75*
G02*
X125281000Y-90680200I0J50000D01*
G01*
X125281000Y-89680200D01*
G75*
G02*
X125331000Y-89630200I50000J0D01*
G01*
G37*
G36*
G01*
X123676000Y-91285200D02*
X124676000Y-91285200D01*
G75*
G02*
X124726000Y-91335200I0J-50000D01*
G01*
X124726000Y-91565200D01*
G75*
G02*
X124676000Y-91615200I-50000J0D01*
G01*
X123676000Y-91615200D01*
G75*
G02*
X123626000Y-91565200I0J50000D01*
G01*
X123626000Y-91335200D01*
G75*
G02*
X123676000Y-91285200I50000J0D01*
G01*
G37*
G36*
G01*
X123676000Y-91793200D02*
X124676000Y-91793200D01*
G75*
G02*
X124726000Y-91843200I0J-50000D01*
G01*
X124726000Y-92073200D01*
G75*
G02*
X124676000Y-92123200I-50000J0D01*
G01*
X123676000Y-92123200D01*
G75*
G02*
X123626000Y-92073200I0J50000D01*
G01*
X123626000Y-91843200D01*
G75*
G02*
X123676000Y-91793200I50000J0D01*
G01*
G37*
G36*
G01*
X123676000Y-92809200D02*
X124676000Y-92809200D01*
G75*
G02*
X124726000Y-92859200I0J-50000D01*
G01*
X124726000Y-93089200D01*
G75*
G02*
X124676000Y-93139200I-50000J0D01*
G01*
X123676000Y-93139200D01*
G75*
G02*
X123626000Y-93089200I0J50000D01*
G01*
X123626000Y-92859200D01*
G75*
G02*
X123676000Y-92809200I50000J0D01*
G01*
G37*
G36*
G01*
X123676000Y-93317200D02*
X124676000Y-93317200D01*
G75*
G02*
X124726000Y-93367200I0J-50000D01*
G01*
X124726000Y-93597200D01*
G75*
G02*
X124676000Y-93647200I-50000J0D01*
G01*
X123676000Y-93647200D01*
G75*
G02*
X123626000Y-93597200I0J50000D01*
G01*
X123626000Y-93367200D01*
G75*
G02*
X123676000Y-93317200I50000J0D01*
G01*
G37*
G36*
G01*
X123676000Y-93825200D02*
X124676000Y-93825200D01*
G75*
G02*
X124726000Y-93875200I0J-50000D01*
G01*
X124726000Y-94105200D01*
G75*
G02*
X124676000Y-94155200I-50000J0D01*
G01*
X123676000Y-94155200D01*
G75*
G02*
X123626000Y-94105200I0J50000D01*
G01*
X123626000Y-93875200D01*
G75*
G02*
X123676000Y-93825200I50000J0D01*
G01*
G37*
G36*
G01*
X123676000Y-94333200D02*
X124676000Y-94333200D01*
G75*
G02*
X124726000Y-94383200I0J-50000D01*
G01*
X124726000Y-94613200D01*
G75*
G02*
X124676000Y-94663200I-50000J0D01*
G01*
X123676000Y-94663200D01*
G75*
G02*
X123626000Y-94613200I0J50000D01*
G01*
X123626000Y-94383200D01*
G75*
G02*
X123676000Y-94333200I50000J0D01*
G01*
G37*
G36*
G01*
X123676000Y-94841200D02*
X124676000Y-94841200D01*
G75*
G02*
X124726000Y-94891200I0J-50000D01*
G01*
X124726000Y-95121200D01*
G75*
G02*
X124676000Y-95171200I-50000J0D01*
G01*
X123676000Y-95171200D01*
G75*
G02*
X123626000Y-95121200I0J50000D01*
G01*
X123626000Y-94891200D01*
G75*
G02*
X123676000Y-94841200I50000J0D01*
G01*
G37*
G36*
G01*
X123676000Y-95349200D02*
X124676000Y-95349200D01*
G75*
G02*
X124726000Y-95399200I0J-50000D01*
G01*
X124726000Y-95629200D01*
G75*
G02*
X124676000Y-95679200I-50000J0D01*
G01*
X123676000Y-95679200D01*
G75*
G02*
X123626000Y-95629200I0J50000D01*
G01*
X123626000Y-95399200D01*
G75*
G02*
X123676000Y-95349200I50000J0D01*
G01*
G37*
G36*
G01*
X123676000Y-95857200D02*
X124676000Y-95857200D01*
G75*
G02*
X124726000Y-95907200I0J-50000D01*
G01*
X124726000Y-96137200D01*
G75*
G02*
X124676000Y-96187200I-50000J0D01*
G01*
X123676000Y-96187200D01*
G75*
G02*
X123626000Y-96137200I0J50000D01*
G01*
X123626000Y-95907200D01*
G75*
G02*
X123676000Y-95857200I50000J0D01*
G01*
G37*
G36*
G01*
X123676000Y-96365200D02*
X124676000Y-96365200D01*
G75*
G02*
X124726000Y-96415200I0J-50000D01*
G01*
X124726000Y-96645200D01*
G75*
G02*
X124676000Y-96695200I-50000J0D01*
G01*
X123676000Y-96695200D01*
G75*
G02*
X123626000Y-96645200I0J50000D01*
G01*
X123626000Y-96415200D01*
G75*
G02*
X123676000Y-96365200I50000J0D01*
G01*
G37*
G36*
G01*
X123676000Y-96873200D02*
X124676000Y-96873200D01*
G75*
G02*
X124726000Y-96923200I0J-50000D01*
G01*
X124726000Y-97153200D01*
G75*
G02*
X124676000Y-97203200I-50000J0D01*
G01*
X123676000Y-97203200D01*
G75*
G02*
X123626000Y-97153200I0J50000D01*
G01*
X123626000Y-96923200D01*
G75*
G02*
X123676000Y-96873200I50000J0D01*
G01*
G37*
G36*
G01*
X125839000Y-97758200D02*
X126069000Y-97758200D01*
G75*
G02*
X126119000Y-97808200I0J-50000D01*
G01*
X126119000Y-98808200D01*
G75*
G02*
X126069000Y-98858200I-50000J0D01*
G01*
X125839000Y-98858200D01*
G75*
G02*
X125789000Y-98808200I0J50000D01*
G01*
X125789000Y-97808200D01*
G75*
G02*
X125839000Y-97758200I50000J0D01*
G01*
G37*
G36*
G01*
X126347000Y-97758200D02*
X126577000Y-97758200D01*
G75*
G02*
X126627000Y-97808200I0J-50000D01*
G01*
X126627000Y-98808200D01*
G75*
G02*
X126577000Y-98858200I-50000J0D01*
G01*
X126347000Y-98858200D01*
G75*
G02*
X126297000Y-98808200I0J50000D01*
G01*
X126297000Y-97808200D01*
G75*
G02*
X126347000Y-97758200I50000J0D01*
G01*
G37*
G36*
G01*
X126855000Y-97758200D02*
X127085000Y-97758200D01*
G75*
G02*
X127135000Y-97808200I0J-50000D01*
G01*
X127135000Y-98808200D01*
G75*
G02*
X127085000Y-98858200I-50000J0D01*
G01*
X126855000Y-98858200D01*
G75*
G02*
X126805000Y-98808200I0J50000D01*
G01*
X126805000Y-97808200D01*
G75*
G02*
X126855000Y-97758200I50000J0D01*
G01*
G37*
G36*
G01*
X127363000Y-97758200D02*
X127593000Y-97758200D01*
G75*
G02*
X127643000Y-97808200I0J-50000D01*
G01*
X127643000Y-98808200D01*
G75*
G02*
X127593000Y-98858200I-50000J0D01*
G01*
X127363000Y-98858200D01*
G75*
G02*
X127313000Y-98808200I0J50000D01*
G01*
X127313000Y-97808200D01*
G75*
G02*
X127363000Y-97758200I50000J0D01*
G01*
G37*
G36*
G01*
X127871000Y-97758200D02*
X128101000Y-97758200D01*
G75*
G02*
X128151000Y-97808200I0J-50000D01*
G01*
X128151000Y-98808200D01*
G75*
G02*
X128101000Y-98858200I-50000J0D01*
G01*
X127871000Y-98858200D01*
G75*
G02*
X127821000Y-98808200I0J50000D01*
G01*
X127821000Y-97808200D01*
G75*
G02*
X127871000Y-97758200I50000J0D01*
G01*
G37*
G36*
G01*
X128379000Y-97758200D02*
X128609000Y-97758200D01*
G75*
G02*
X128659000Y-97808200I0J-50000D01*
G01*
X128659000Y-98808200D01*
G75*
G02*
X128609000Y-98858200I-50000J0D01*
G01*
X128379000Y-98858200D01*
G75*
G02*
X128329000Y-98808200I0J50000D01*
G01*
X128329000Y-97808200D01*
G75*
G02*
X128379000Y-97758200I50000J0D01*
G01*
G37*
G36*
G01*
X128887000Y-97758200D02*
X129117000Y-97758200D01*
G75*
G02*
X129167000Y-97808200I0J-50000D01*
G01*
X129167000Y-98808200D01*
G75*
G02*
X129117000Y-98858200I-50000J0D01*
G01*
X128887000Y-98858200D01*
G75*
G02*
X128837000Y-98808200I0J50000D01*
G01*
X128837000Y-97808200D01*
G75*
G02*
X128887000Y-97758200I50000J0D01*
G01*
G37*
G36*
G01*
X129395000Y-97758200D02*
X129625000Y-97758200D01*
G75*
G02*
X129675000Y-97808200I0J-50000D01*
G01*
X129675000Y-98808200D01*
G75*
G02*
X129625000Y-98858200I-50000J0D01*
G01*
X129395000Y-98858200D01*
G75*
G02*
X129345000Y-98808200I0J50000D01*
G01*
X129345000Y-97808200D01*
G75*
G02*
X129395000Y-97758200I50000J0D01*
G01*
G37*
G36*
G01*
X129903000Y-97758200D02*
X130133000Y-97758200D01*
G75*
G02*
X130183000Y-97808200I0J-50000D01*
G01*
X130183000Y-98808200D01*
G75*
G02*
X130133000Y-98858200I-50000J0D01*
G01*
X129903000Y-98858200D01*
G75*
G02*
X129853000Y-98808200I0J50000D01*
G01*
X129853000Y-97808200D01*
G75*
G02*
X129903000Y-97758200I50000J0D01*
G01*
G37*
G36*
G01*
X130411000Y-97758200D02*
X130641000Y-97758200D01*
G75*
G02*
X130691000Y-97808200I0J-50000D01*
G01*
X130691000Y-98808200D01*
G75*
G02*
X130641000Y-98858200I-50000J0D01*
G01*
X130411000Y-98858200D01*
G75*
G02*
X130361000Y-98808200I0J50000D01*
G01*
X130361000Y-97808200D01*
G75*
G02*
X130411000Y-97758200I50000J0D01*
G01*
G37*
G36*
G01*
X130919000Y-97758200D02*
X131149000Y-97758200D01*
G75*
G02*
X131199000Y-97808200I0J-50000D01*
G01*
X131199000Y-98808200D01*
G75*
G02*
X131149000Y-98858200I-50000J0D01*
G01*
X130919000Y-98858200D01*
G75*
G02*
X130869000Y-98808200I0J50000D01*
G01*
X130869000Y-97808200D01*
G75*
G02*
X130919000Y-97758200I50000J0D01*
G01*
G37*
G36*
G01*
X131804000Y-96873200D02*
X132804000Y-96873200D01*
G75*
G02*
X132854000Y-96923200I0J-50000D01*
G01*
X132854000Y-97153200D01*
G75*
G02*
X132804000Y-97203200I-50000J0D01*
G01*
X131804000Y-97203200D01*
G75*
G02*
X131754000Y-97153200I0J50000D01*
G01*
X131754000Y-96923200D01*
G75*
G02*
X131804000Y-96873200I50000J0D01*
G01*
G37*
G36*
G01*
X131804000Y-95857200D02*
X132804000Y-95857200D01*
G75*
G02*
X132854000Y-95907200I0J-50000D01*
G01*
X132854000Y-96137200D01*
G75*
G02*
X132804000Y-96187200I-50000J0D01*
G01*
X131804000Y-96187200D01*
G75*
G02*
X131754000Y-96137200I0J50000D01*
G01*
X131754000Y-95907200D01*
G75*
G02*
X131804000Y-95857200I50000J0D01*
G01*
G37*
G36*
G01*
X131804000Y-95349200D02*
X132804000Y-95349200D01*
G75*
G02*
X132854000Y-95399200I0J-50000D01*
G01*
X132854000Y-95629200D01*
G75*
G02*
X132804000Y-95679200I-50000J0D01*
G01*
X131804000Y-95679200D01*
G75*
G02*
X131754000Y-95629200I0J50000D01*
G01*
X131754000Y-95399200D01*
G75*
G02*
X131804000Y-95349200I50000J0D01*
G01*
G37*
G36*
G01*
X131804000Y-94841200D02*
X132804000Y-94841200D01*
G75*
G02*
X132854000Y-94891200I0J-50000D01*
G01*
X132854000Y-95121200D01*
G75*
G02*
X132804000Y-95171200I-50000J0D01*
G01*
X131804000Y-95171200D01*
G75*
G02*
X131754000Y-95121200I0J50000D01*
G01*
X131754000Y-94891200D01*
G75*
G02*
X131804000Y-94841200I50000J0D01*
G01*
G37*
G36*
G01*
X131804000Y-94333200D02*
X132804000Y-94333200D01*
G75*
G02*
X132854000Y-94383200I0J-50000D01*
G01*
X132854000Y-94613200D01*
G75*
G02*
X132804000Y-94663200I-50000J0D01*
G01*
X131804000Y-94663200D01*
G75*
G02*
X131754000Y-94613200I0J50000D01*
G01*
X131754000Y-94383200D01*
G75*
G02*
X131804000Y-94333200I50000J0D01*
G01*
G37*
G36*
G01*
X131804000Y-93825200D02*
X132804000Y-93825200D01*
G75*
G02*
X132854000Y-93875200I0J-50000D01*
G01*
X132854000Y-94105200D01*
G75*
G02*
X132804000Y-94155200I-50000J0D01*
G01*
X131804000Y-94155200D01*
G75*
G02*
X131754000Y-94105200I0J50000D01*
G01*
X131754000Y-93875200D01*
G75*
G02*
X131804000Y-93825200I50000J0D01*
G01*
G37*
G36*
G01*
X131804000Y-93317200D02*
X132804000Y-93317200D01*
G75*
G02*
X132854000Y-93367200I0J-50000D01*
G01*
X132854000Y-93597200D01*
G75*
G02*
X132804000Y-93647200I-50000J0D01*
G01*
X131804000Y-93647200D01*
G75*
G02*
X131754000Y-93597200I0J50000D01*
G01*
X131754000Y-93367200D01*
G75*
G02*
X131804000Y-93317200I50000J0D01*
G01*
G37*
G36*
G01*
X131804000Y-92809200D02*
X132804000Y-92809200D01*
G75*
G02*
X132854000Y-92859200I0J-50000D01*
G01*
X132854000Y-93089200D01*
G75*
G02*
X132804000Y-93139200I-50000J0D01*
G01*
X131804000Y-93139200D01*
G75*
G02*
X131754000Y-93089200I0J50000D01*
G01*
X131754000Y-92859200D01*
G75*
G02*
X131804000Y-92809200I50000J0D01*
G01*
G37*
G36*
G01*
X131804000Y-92301200D02*
X132804000Y-92301200D01*
G75*
G02*
X132854000Y-92351200I0J-50000D01*
G01*
X132854000Y-92581200D01*
G75*
G02*
X132804000Y-92631200I-50000J0D01*
G01*
X131804000Y-92631200D01*
G75*
G02*
X131754000Y-92581200I0J50000D01*
G01*
X131754000Y-92351200D01*
G75*
G02*
X131804000Y-92301200I50000J0D01*
G01*
G37*
G36*
G01*
X131804000Y-91793200D02*
X132804000Y-91793200D01*
G75*
G02*
X132854000Y-91843200I0J-50000D01*
G01*
X132854000Y-92073200D01*
G75*
G02*
X132804000Y-92123200I-50000J0D01*
G01*
X131804000Y-92123200D01*
G75*
G02*
X131754000Y-92073200I0J50000D01*
G01*
X131754000Y-91843200D01*
G75*
G02*
X131804000Y-91793200I50000J0D01*
G01*
G37*
G36*
G01*
X131804000Y-91285200D02*
X132804000Y-91285200D01*
G75*
G02*
X132854000Y-91335200I0J-50000D01*
G01*
X132854000Y-91565200D01*
G75*
G02*
X132804000Y-91615200I-50000J0D01*
G01*
X131804000Y-91615200D01*
G75*
G02*
X131754000Y-91565200I0J50000D01*
G01*
X131754000Y-91335200D01*
G75*
G02*
X131804000Y-91285200I50000J0D01*
G01*
G37*
G36*
G01*
X125331000Y-97758200D02*
X125561000Y-97758200D01*
G75*
G02*
X125611000Y-97808200I0J-50000D01*
G01*
X125611000Y-98808200D01*
G75*
G02*
X125561000Y-98858200I-50000J0D01*
G01*
X125331000Y-98858200D01*
G75*
G02*
X125281000Y-98808200I0J50000D01*
G01*
X125281000Y-97808200D01*
G75*
G02*
X125331000Y-97758200I50000J0D01*
G01*
G37*
G36*
G01*
X123676000Y-92301200D02*
X124676000Y-92301200D01*
G75*
G02*
X124726000Y-92351200I0J-50000D01*
G01*
X124726000Y-92581200D01*
G75*
G02*
X124676000Y-92631200I-50000J0D01*
G01*
X123676000Y-92631200D01*
G75*
G02*
X123626000Y-92581200I0J50000D01*
G01*
X123626000Y-92351200D01*
G75*
G02*
X123676000Y-92301200I50000J0D01*
G01*
G37*
G36*
G01*
X96475100Y-118466000D02*
X96475100Y-116942000D01*
G75*
G02*
X96525100Y-116892000I50000J0D01*
G01*
X98049100Y-116892000D01*
G75*
G02*
X98099100Y-116942000I0J-50000D01*
G01*
X98099100Y-118466000D01*
G75*
G02*
X98049100Y-118516000I-50000J0D01*
G01*
X96525100Y-118516000D01*
G75*
G02*
X96475100Y-118466000I0J50000D01*
G01*
G37*
G36*
G01*
X127381000Y-80775000D02*
X127381000Y-82025000D01*
G75*
G02*
X127331000Y-82075000I-50000J0D01*
G01*
X126331000Y-82075000D01*
G75*
G02*
X126281000Y-82025000I0J50000D01*
G01*
X126281000Y-80775000D01*
G75*
G02*
X126331000Y-80725000I50000J0D01*
G01*
X127331000Y-80725000D01*
G75*
G02*
X127381000Y-80775000I0J-50000D01*
G01*
G37*
G36*
G01*
X129381000Y-80775000D02*
X129381000Y-82025000D01*
G75*
G02*
X129331000Y-82075000I-50000J0D01*
G01*
X128331000Y-82075000D01*
G75*
G02*
X128281000Y-82025000I0J50000D01*
G01*
X128281000Y-80775000D01*
G75*
G02*
X128331000Y-80725000I50000J0D01*
G01*
X129331000Y-80725000D01*
G75*
G02*
X129381000Y-80775000I0J-50000D01*
G01*
G37*
G36*
G01*
X131218000Y-84425000D02*
X131218000Y-83175000D01*
G75*
G02*
X131268000Y-83125000I50000J0D01*
G01*
X132268000Y-83125000D01*
G75*
G02*
X132318000Y-83175000I0J-50000D01*
G01*
X132318000Y-84425000D01*
G75*
G02*
X132268000Y-84475000I-50000J0D01*
G01*
X131268000Y-84475000D01*
G75*
G02*
X131218000Y-84425000I0J50000D01*
G01*
G37*
G36*
G01*
X133218000Y-84425000D02*
X133218000Y-83175000D01*
G75*
G02*
X133268000Y-83125000I50000J0D01*
G01*
X134268000Y-83125000D01*
G75*
G02*
X134318000Y-83175000I0J-50000D01*
G01*
X134318000Y-84425000D01*
G75*
G02*
X134268000Y-84475000I-50000J0D01*
G01*
X133268000Y-84475000D01*
G75*
G02*
X133218000Y-84425000I0J50000D01*
G01*
G37*
G36*
G01*
X128148000Y-86357600D02*
X128148000Y-85107600D01*
G75*
G02*
X128198000Y-85057600I50000J0D01*
G01*
X129198000Y-85057600D01*
G75*
G02*
X129248000Y-85107600I0J-50000D01*
G01*
X129248000Y-86357600D01*
G75*
G02*
X129198000Y-86407600I-50000J0D01*
G01*
X128198000Y-86407600D01*
G75*
G02*
X128148000Y-86357600I0J50000D01*
G01*
G37*
G36*
G01*
X126148000Y-86357600D02*
X126148000Y-85107600D01*
G75*
G02*
X126198000Y-85057600I50000J0D01*
G01*
X127198000Y-85057600D01*
G75*
G02*
X127248000Y-85107600I0J-50000D01*
G01*
X127248000Y-86357600D01*
G75*
G02*
X127198000Y-86407600I-50000J0D01*
G01*
X126198000Y-86407600D01*
G75*
G02*
X126148000Y-86357600I0J50000D01*
G01*
G37*
G36*
G01*
X127150000Y-103309000D02*
X128400000Y-103309000D01*
G75*
G02*
X128450000Y-103359000I0J-50000D01*
G01*
X128450000Y-104359000D01*
G75*
G02*
X128400000Y-104409000I-50000J0D01*
G01*
X127150000Y-104409000D01*
G75*
G02*
X127100000Y-104359000I0J50000D01*
G01*
X127100000Y-103359000D01*
G75*
G02*
X127150000Y-103309000I50000J0D01*
G01*
G37*
G36*
G01*
X127150000Y-105309000D02*
X128400000Y-105309000D01*
G75*
G02*
X128450000Y-105359000I0J-50000D01*
G01*
X128450000Y-106359000D01*
G75*
G02*
X128400000Y-106409000I-50000J0D01*
G01*
X127150000Y-106409000D01*
G75*
G02*
X127100000Y-106359000I0J50000D01*
G01*
X127100000Y-105359000D01*
G75*
G02*
X127150000Y-105309000I50000J0D01*
G01*
G37*
G36*
G01*
X128699000Y-113541000D02*
X127449000Y-113541000D01*
G75*
G02*
X127399000Y-113491000I0J50000D01*
G01*
X127399000Y-112491000D01*
G75*
G02*
X127449000Y-112441000I50000J0D01*
G01*
X128699000Y-112441000D01*
G75*
G02*
X128749000Y-112491000I0J-50000D01*
G01*
X128749000Y-113491000D01*
G75*
G02*
X128699000Y-113541000I-50000J0D01*
G01*
G37*
G36*
G01*
X128699000Y-111541000D02*
X127449000Y-111541000D01*
G75*
G02*
X127399000Y-111491000I0J50000D01*
G01*
X127399000Y-110491000D01*
G75*
G02*
X127449000Y-110441000I50000J0D01*
G01*
X128699000Y-110441000D01*
G75*
G02*
X128749000Y-110491000I0J-50000D01*
G01*
X128749000Y-111491000D01*
G75*
G02*
X128699000Y-111541000I-50000J0D01*
G01*
G37*
G36*
G01*
X124940000Y-103266000D02*
X126190000Y-103266000D01*
G75*
G02*
X126240000Y-103316000I0J-50000D01*
G01*
X126240000Y-104316000D01*
G75*
G02*
X126190000Y-104366000I-50000J0D01*
G01*
X124940000Y-104366000D01*
G75*
G02*
X124890000Y-104316000I0J50000D01*
G01*
X124890000Y-103316000D01*
G75*
G02*
X124940000Y-103266000I50000J0D01*
G01*
G37*
G36*
G01*
X124940000Y-105266000D02*
X126190000Y-105266000D01*
G75*
G02*
X126240000Y-105316000I0J-50000D01*
G01*
X126240000Y-106316000D01*
G75*
G02*
X126190000Y-106366000I-50000J0D01*
G01*
X124940000Y-106366000D01*
G75*
G02*
X124890000Y-106316000I0J50000D01*
G01*
X124890000Y-105316000D01*
G75*
G02*
X124940000Y-105266000I50000J0D01*
G01*
G37*
G36*
G01*
X126457000Y-111541000D02*
X125207000Y-111541000D01*
G75*
G02*
X125157000Y-111491000I0J50000D01*
G01*
X125157000Y-110491000D01*
G75*
G02*
X125207000Y-110441000I50000J0D01*
G01*
X126457000Y-110441000D01*
G75*
G02*
X126507000Y-110491000I0J-50000D01*
G01*
X126507000Y-111491000D01*
G75*
G02*
X126457000Y-111541000I-50000J0D01*
G01*
G37*
G36*
G01*
X126457000Y-113541000D02*
X125207000Y-113541000D01*
G75*
G02*
X125157000Y-113491000I0J50000D01*
G01*
X125157000Y-112491000D01*
G75*
G02*
X125207000Y-112441000I50000J0D01*
G01*
X126457000Y-112441000D01*
G75*
G02*
X126507000Y-112491000I0J-50000D01*
G01*
X126507000Y-113491000D01*
G75*
G02*
X126457000Y-113541000I-50000J0D01*
G01*
G37*
G36*
G01*
X129450000Y-82875000D02*
X129450000Y-84125000D01*
G75*
G02*
X129400000Y-84175000I-50000J0D01*
G01*
X128400000Y-84175000D01*
G75*
G02*
X128350000Y-84125000I0J50000D01*
G01*
X128350000Y-82875000D01*
G75*
G02*
X128400000Y-82825000I50000J0D01*
G01*
X129400000Y-82825000D01*
G75*
G02*
X129450000Y-82875000I0J-50000D01*
G01*
G37*
G36*
G01*
X127450000Y-82875000D02*
X127450000Y-84125000D01*
G75*
G02*
X127400000Y-84175000I-50000J0D01*
G01*
X126400000Y-84175000D01*
G75*
G02*
X126350000Y-84125000I0J50000D01*
G01*
X126350000Y-82875000D01*
G75*
G02*
X126400000Y-82825000I50000J0D01*
G01*
X127400000Y-82825000D01*
G75*
G02*
X127450000Y-82875000I0J-50000D01*
G01*
G37*
G36*
G01*
X133114000Y-82225000D02*
X133114000Y-80975000D01*
G75*
G02*
X133164000Y-80925000I50000J0D01*
G01*
X134164000Y-80925000D01*
G75*
G02*
X134214000Y-80975000I0J-50000D01*
G01*
X134214000Y-82225000D01*
G75*
G02*
X134164000Y-82275000I-50000J0D01*
G01*
X133164000Y-82275000D01*
G75*
G02*
X133114000Y-82225000I0J50000D01*
G01*
G37*
G36*
G01*
X131114000Y-82225000D02*
X131114000Y-80975000D01*
G75*
G02*
X131164000Y-80925000I50000J0D01*
G01*
X132164000Y-80925000D01*
G75*
G02*
X132214000Y-80975000I0J-50000D01*
G01*
X132214000Y-82225000D01*
G75*
G02*
X132164000Y-82275000I-50000J0D01*
G01*
X131164000Y-82275000D01*
G75*
G02*
X131114000Y-82225000I0J50000D01*
G01*
G37*
G36*
G01*
X101759000Y-97325600D02*
X101759000Y-96425600D01*
G75*
G02*
X101809000Y-96375600I50000J0D01*
G01*
X102609000Y-96375600D01*
G75*
G02*
X102659000Y-96425600I0J-50000D01*
G01*
X102659000Y-97325600D01*
G75*
G02*
X102609000Y-97375600I-50000J0D01*
G01*
X101809000Y-97375600D01*
G75*
G02*
X101759000Y-97325600I0J50000D01*
G01*
G37*
G36*
G01*
X103859000Y-97325600D02*
X103859000Y-96425600D01*
G75*
G02*
X103909000Y-96375600I50000J0D01*
G01*
X104709000Y-96375600D01*
G75*
G02*
X104759000Y-96425600I0J-50000D01*
G01*
X104759000Y-97325600D01*
G75*
G02*
X104709000Y-97375600I-50000J0D01*
G01*
X103909000Y-97375600D01*
G75*
G02*
X103859000Y-97325600I0J50000D01*
G01*
G37*
G36*
G01*
X106150000Y-83327800D02*
X107050000Y-83327800D01*
G75*
G02*
X107100000Y-83377800I0J-50000D01*
G01*
X107100000Y-84177800D01*
G75*
G02*
X107050000Y-84227800I-50000J0D01*
G01*
X106150000Y-84227800D01*
G75*
G02*
X106100000Y-84177800I0J50000D01*
G01*
X106100000Y-83377800D01*
G75*
G02*
X106150000Y-83327800I50000J0D01*
G01*
G37*
G36*
G01*
X106150000Y-81227800D02*
X107050000Y-81227800D01*
G75*
G02*
X107100000Y-81277800I0J-50000D01*
G01*
X107100000Y-82077800D01*
G75*
G02*
X107050000Y-82127800I-50000J0D01*
G01*
X106150000Y-82127800D01*
G75*
G02*
X106100000Y-82077800I0J50000D01*
G01*
X106100000Y-81277800D01*
G75*
G02*
X106150000Y-81227800I50000J0D01*
G01*
G37*
G36*
G01*
X104433000Y-93708500D02*
X104433000Y-95008500D01*
G75*
G02*
X104383000Y-95058500I-50000J0D01*
G01*
X103683000Y-95058500D01*
G75*
G02*
X103633000Y-95008500I0J50000D01*
G01*
X103633000Y-93708500D01*
G75*
G02*
X103683000Y-93658500I50000J0D01*
G01*
X104383000Y-93658500D01*
G75*
G02*
X104433000Y-93708500I0J-50000D01*
G01*
G37*
G36*
G01*
X102533000Y-93708500D02*
X102533000Y-95008500D01*
G75*
G02*
X102483000Y-95058500I-50000J0D01*
G01*
X101783000Y-95058500D01*
G75*
G02*
X101733000Y-95008500I0J50000D01*
G01*
X101733000Y-93708500D01*
G75*
G02*
X101783000Y-93658500I50000J0D01*
G01*
X102483000Y-93658500D01*
G75*
G02*
X102533000Y-93708500I0J-50000D01*
G01*
G37*
G36*
G01*
X131489000Y-85087700D02*
X131489000Y-86387700D01*
G75*
G02*
X131439000Y-86437700I-50000J0D01*
G01*
X130739000Y-86437700D01*
G75*
G02*
X130689000Y-86387700I0J50000D01*
G01*
X130689000Y-85087700D01*
G75*
G02*
X130739000Y-85037700I50000J0D01*
G01*
X131439000Y-85037700D01*
G75*
G02*
X131489000Y-85087700I0J-50000D01*
G01*
G37*
G36*
G01*
X133389000Y-85087700D02*
X133389000Y-86387700D01*
G75*
G02*
X133339000Y-86437700I-50000J0D01*
G01*
X132639000Y-86437700D01*
G75*
G02*
X132589000Y-86387700I0J50000D01*
G01*
X132589000Y-85087700D01*
G75*
G02*
X132639000Y-85037700I50000J0D01*
G01*
X133339000Y-85037700D01*
G75*
G02*
X133389000Y-85087700I0J-50000D01*
G01*
G37*
G36*
G01*
X98030000Y-80850000D02*
X98030000Y-82150000D01*
G75*
G02*
X97980000Y-82200000I-50000J0D01*
G01*
X97280000Y-82200000D01*
G75*
G02*
X97230000Y-82150000I0J50000D01*
G01*
X97230000Y-80850000D01*
G75*
G02*
X97280000Y-80800000I50000J0D01*
G01*
X97980000Y-80800000D01*
G75*
G02*
X98030000Y-80850000I0J-50000D01*
G01*
G37*
G36*
G01*
X99930000Y-80850000D02*
X99930000Y-82150000D01*
G75*
G02*
X99880000Y-82200000I-50000J0D01*
G01*
X99180000Y-82200000D01*
G75*
G02*
X99130000Y-82150000I0J50000D01*
G01*
X99130000Y-80850000D01*
G75*
G02*
X99180000Y-80800000I50000J0D01*
G01*
X99880000Y-80800000D01*
G75*
G02*
X99930000Y-80850000I0J-50000D01*
G01*
G37*
G36*
G01*
X132914000Y-117662000D02*
X132914000Y-116902000D01*
G75*
G02*
X132964000Y-116852000I50000J0D01*
G01*
X134564000Y-116852000D01*
G75*
G02*
X134614000Y-116902000I0J-50000D01*
G01*
X134614000Y-117662000D01*
G75*
G02*
X134564000Y-117712000I-50000J0D01*
G01*
X132964000Y-117712000D01*
G75*
G02*
X132914000Y-117662000I0J50000D01*
G01*
G37*
G36*
G01*
X125294000Y-117662000D02*
X125294000Y-116902000D01*
G75*
G02*
X125344000Y-116852000I50000J0D01*
G01*
X126944000Y-116852000D01*
G75*
G02*
X126994000Y-116902000I0J-50000D01*
G01*
X126994000Y-117662000D01*
G75*
G02*
X126944000Y-117712000I-50000J0D01*
G01*
X125344000Y-117712000D01*
G75*
G02*
X125294000Y-117662000I0J50000D01*
G01*
G37*
G36*
G01*
X104978000Y-88232700D02*
X104328000Y-88232700D01*
G75*
G02*
X104278000Y-88182700I0J50000D01*
G01*
X104278000Y-87122700D01*
G75*
G02*
X104328000Y-87072700I50000J0D01*
G01*
X104978000Y-87072700D01*
G75*
G02*
X105028000Y-87122700I0J-50000D01*
G01*
X105028000Y-88182700D01*
G75*
G02*
X104978000Y-88232700I-50000J0D01*
G01*
G37*
G36*
G01*
X106878000Y-88232700D02*
X106228000Y-88232700D01*
G75*
G02*
X106178000Y-88182700I0J50000D01*
G01*
X106178000Y-87122700D01*
G75*
G02*
X106228000Y-87072700I50000J0D01*
G01*
X106878000Y-87072700D01*
G75*
G02*
X106928000Y-87122700I0J-50000D01*
G01*
X106928000Y-88182700D01*
G75*
G02*
X106878000Y-88232700I-50000J0D01*
G01*
G37*
G36*
G01*
X106878000Y-90432700D02*
X106228000Y-90432700D01*
G75*
G02*
X106178000Y-90382700I0J50000D01*
G01*
X106178000Y-89322700D01*
G75*
G02*
X106228000Y-89272700I50000J0D01*
G01*
X106878000Y-89272700D01*
G75*
G02*
X106928000Y-89322700I0J-50000D01*
G01*
X106928000Y-90382700D01*
G75*
G02*
X106878000Y-90432700I-50000J0D01*
G01*
G37*
G36*
G01*
X105928000Y-90432700D02*
X105278000Y-90432700D01*
G75*
G02*
X105228000Y-90382700I0J50000D01*
G01*
X105228000Y-89322700D01*
G75*
G02*
X105278000Y-89272700I50000J0D01*
G01*
X105928000Y-89272700D01*
G75*
G02*
X105978000Y-89322700I0J-50000D01*
G01*
X105978000Y-90382700D01*
G75*
G02*
X105928000Y-90432700I-50000J0D01*
G01*
G37*
G36*
G01*
X104978000Y-90432700D02*
X104328000Y-90432700D01*
G75*
G02*
X104278000Y-90382700I0J50000D01*
G01*
X104278000Y-89322700D01*
G75*
G02*
X104328000Y-89272700I50000J0D01*
G01*
X104978000Y-89272700D01*
G75*
G02*
X105028000Y-89322700I0J-50000D01*
G01*
X105028000Y-90382700D01*
G75*
G02*
X104978000Y-90432700I-50000J0D01*
G01*
G37*
G36*
G01*
X101355000Y-103879000D02*
X101355000Y-102679000D01*
G75*
G02*
X101405000Y-102629000I50000J0D01*
G01*
X103105000Y-102629000D01*
G75*
G02*
X103155000Y-102679000I0J-50000D01*
G01*
X103155000Y-103879000D01*
G75*
G02*
X103105000Y-103929000I-50000J0D01*
G01*
X101405000Y-103929000D01*
G75*
G02*
X101355000Y-103879000I0J50000D01*
G01*
G37*
G36*
G01*
X101355000Y-105879000D02*
X101355000Y-104679000D01*
G75*
G02*
X101405000Y-104629000I50000J0D01*
G01*
X103105000Y-104629000D01*
G75*
G02*
X103155000Y-104679000I0J-50000D01*
G01*
X103155000Y-105879000D01*
G75*
G02*
X103105000Y-105929000I-50000J0D01*
G01*
X101405000Y-105929000D01*
G75*
G02*
X101355000Y-105879000I0J50000D01*
G01*
G37*
G36*
G01*
X101355000Y-107879000D02*
X101355000Y-106679000D01*
G75*
G02*
X101405000Y-106629000I50000J0D01*
G01*
X103105000Y-106629000D01*
G75*
G02*
X103155000Y-106679000I0J-50000D01*
G01*
X103155000Y-107879000D01*
G75*
G02*
X103105000Y-107929000I-50000J0D01*
G01*
X101405000Y-107929000D01*
G75*
G02*
X101355000Y-107879000I0J50000D01*
G01*
G37*
G36*
G01*
X101355000Y-109879000D02*
X101355000Y-108679000D01*
G75*
G02*
X101405000Y-108629000I50000J0D01*
G01*
X103105000Y-108629000D01*
G75*
G02*
X103155000Y-108679000I0J-50000D01*
G01*
X103155000Y-109879000D01*
G75*
G02*
X103105000Y-109929000I-50000J0D01*
G01*
X101405000Y-109929000D01*
G75*
G02*
X101355000Y-109879000I0J50000D01*
G01*
G37*
G36*
G01*
X101355000Y-111879000D02*
X101355000Y-110679000D01*
G75*
G02*
X101405000Y-110629000I50000J0D01*
G01*
X103105000Y-110629000D01*
G75*
G02*
X103155000Y-110679000I0J-50000D01*
G01*
X103155000Y-111879000D01*
G75*
G02*
X103105000Y-111929000I-50000J0D01*
G01*
X101405000Y-111929000D01*
G75*
G02*
X101355000Y-111879000I0J50000D01*
G01*
G37*
G36*
G01*
X101355000Y-113879000D02*
X101355000Y-112679000D01*
G75*
G02*
X101405000Y-112629000I50000J0D01*
G01*
X103105000Y-112629000D01*
G75*
G02*
X103155000Y-112679000I0J-50000D01*
G01*
X103155000Y-113879000D01*
G75*
G02*
X103105000Y-113929000I-50000J0D01*
G01*
X101405000Y-113929000D01*
G75*
G02*
X101355000Y-113879000I0J50000D01*
G01*
G37*
G36*
G01*
X101355000Y-115879000D02*
X101355000Y-114679000D01*
G75*
G02*
X101405000Y-114629000I50000J0D01*
G01*
X103105000Y-114629000D01*
G75*
G02*
X103155000Y-114679000I0J-50000D01*
G01*
X103155000Y-115879000D01*
G75*
G02*
X103105000Y-115929000I-50000J0D01*
G01*
X101405000Y-115929000D01*
G75*
G02*
X101355000Y-115879000I0J50000D01*
G01*
G37*
G36*
G01*
X101355000Y-117879000D02*
X101355000Y-116679000D01*
G75*
G02*
X101405000Y-116629000I50000J0D01*
G01*
X103105000Y-116629000D01*
G75*
G02*
X103155000Y-116679000I0J-50000D01*
G01*
X103155000Y-117879000D01*
G75*
G02*
X103105000Y-117929000I-50000J0D01*
G01*
X101405000Y-117929000D01*
G75*
G02*
X101355000Y-117879000I0J50000D01*
G01*
G37*
G36*
G01*
X116585000Y-117879000D02*
X116585000Y-116679000D01*
G75*
G02*
X116635000Y-116629000I50000J0D01*
G01*
X118335000Y-116629000D01*
G75*
G02*
X118385000Y-116679000I0J-50000D01*
G01*
X118385000Y-117879000D01*
G75*
G02*
X118335000Y-117929000I-50000J0D01*
G01*
X116635000Y-117929000D01*
G75*
G02*
X116585000Y-117879000I0J50000D01*
G01*
G37*
G36*
G01*
X116585000Y-115879000D02*
X116585000Y-114679000D01*
G75*
G02*
X116635000Y-114629000I50000J0D01*
G01*
X118335000Y-114629000D01*
G75*
G02*
X118385000Y-114679000I0J-50000D01*
G01*
X118385000Y-115879000D01*
G75*
G02*
X118335000Y-115929000I-50000J0D01*
G01*
X116635000Y-115929000D01*
G75*
G02*
X116585000Y-115879000I0J50000D01*
G01*
G37*
G36*
G01*
X116585000Y-113879000D02*
X116585000Y-112679000D01*
G75*
G02*
X116635000Y-112629000I50000J0D01*
G01*
X118335000Y-112629000D01*
G75*
G02*
X118385000Y-112679000I0J-50000D01*
G01*
X118385000Y-113879000D01*
G75*
G02*
X118335000Y-113929000I-50000J0D01*
G01*
X116635000Y-113929000D01*
G75*
G02*
X116585000Y-113879000I0J50000D01*
G01*
G37*
G36*
G01*
X116585000Y-111879000D02*
X116585000Y-110679000D01*
G75*
G02*
X116635000Y-110629000I50000J0D01*
G01*
X118335000Y-110629000D01*
G75*
G02*
X118385000Y-110679000I0J-50000D01*
G01*
X118385000Y-111879000D01*
G75*
G02*
X118335000Y-111929000I-50000J0D01*
G01*
X116635000Y-111929000D01*
G75*
G02*
X116585000Y-111879000I0J50000D01*
G01*
G37*
G36*
G01*
X116585000Y-109879000D02*
X116585000Y-108679000D01*
G75*
G02*
X116635000Y-108629000I50000J0D01*
G01*
X118335000Y-108629000D01*
G75*
G02*
X118385000Y-108679000I0J-50000D01*
G01*
X118385000Y-109879000D01*
G75*
G02*
X118335000Y-109929000I-50000J0D01*
G01*
X116635000Y-109929000D01*
G75*
G02*
X116585000Y-109879000I0J50000D01*
G01*
G37*
G36*
G01*
X116585000Y-107879000D02*
X116585000Y-106679000D01*
G75*
G02*
X116635000Y-106629000I50000J0D01*
G01*
X118335000Y-106629000D01*
G75*
G02*
X118385000Y-106679000I0J-50000D01*
G01*
X118385000Y-107879000D01*
G75*
G02*
X118335000Y-107929000I-50000J0D01*
G01*
X116635000Y-107929000D01*
G75*
G02*
X116585000Y-107879000I0J50000D01*
G01*
G37*
G36*
G01*
X116585000Y-105879000D02*
X116585000Y-104679000D01*
G75*
G02*
X116635000Y-104629000I50000J0D01*
G01*
X118335000Y-104629000D01*
G75*
G02*
X118385000Y-104679000I0J-50000D01*
G01*
X118385000Y-105879000D01*
G75*
G02*
X118335000Y-105929000I-50000J0D01*
G01*
X116635000Y-105929000D01*
G75*
G02*
X116585000Y-105879000I0J50000D01*
G01*
G37*
G36*
G01*
X116585000Y-103879000D02*
X116585000Y-102679000D01*
G75*
G02*
X116635000Y-102629000I50000J0D01*
G01*
X118335000Y-102629000D01*
G75*
G02*
X118385000Y-102679000I0J-50000D01*
G01*
X118385000Y-103879000D01*
G75*
G02*
X118335000Y-103929000I-50000J0D01*
G01*
X116635000Y-103929000D01*
G75*
G02*
X116585000Y-103879000I0J50000D01*
G01*
G37*
D12*
X131796000Y-105951000D03*
X131796000Y-110831000D03*
X121676000Y-110618000D03*
X121676000Y-105738000D03*
M02*
