M48
; DRILL file {KiCad 5.1.7-a382d34a8~88~ubuntu18.04.1} date Fri Nov 19 23:22:07 2021
; FORMAT={3:3/ absolute / metric / suppress leading zeros}
; #@! TF.CreationDate,2021-11-19T23:22:07+05:30
; #@! TF.GenerationSoftware,Kicad,Pcbnew,5.1.7-a382d34a8~88~ubuntu18.04.1
FMAT,2
METRIC,TZ
T1C0.500
T2C0.762
T3C0.800
T4C1.000
T5C3.000
%
G90
G05
T1
X103701Y-108042
X110152Y-85166
X113736Y-86528
X121545Y-96019
X121752Y-100684
X122011Y-85783
X123941Y-98721
X124234Y-97784
X125293Y-93134
X125471Y-95075
X125601Y-85717
X125776Y-80531
X126266Y-96315
X127529Y-93662
X127831Y-92497
X128229Y-91257
X129430Y-93645
X129510Y-99412
X130010Y-96590
T2
X97287Y-117704
T3
X121676Y-105738
X121676Y-110618
X131796Y-105951
X131796Y-110831
T4
X110523Y-81834
X113063Y-81834
X115603Y-81834
X118143Y-81834
X120683Y-81834
X123223Y-81834
X98710Y-86920
X98710Y-89460
X98710Y-92000
X98710Y-94540
X98710Y-97080
X98710Y-99620
T5
X120792Y-116510
T0
M30
